<svg width="112" height="112" viewBox="0 0 112 112" fill="none" xmlns="http://www.w3.org/2000/svg">
<g clip-path="url(#clip0_6_7356)">
<rect x="1.99988" y="2" width="108" height="108" rx="8" fill="white"/>
<path d="M32.954 56.5945C32.413 56.7175 31.8567 56.9471 31.3081 57.275C29.9747 58.0702 29.3499 59.8739 29.8756 61.4397L30.5309 63.4237H35.8038L32.954 56.5945ZM54.7541 48.0273C54.4493 48.4455 54.0074 48.7652 53.5197 48.8635C52.9711 48.9865 52.3844 48.8143 51.8434 48.7078C51.2795 48.593 50.7004 48.5356 50.1289 48.5356C48.6507 48.5438 47.1039 49.0275 45.9381 50.0195C44.2084 51.4952 43.5226 53.7087 43.5226 56.2338C43.5226 61.2347 46.8753 62.2513 48.4983 62.2513C51.7139 62.2513 52.7806 59.8657 52.7806 59.8657V61.3577C54.0303 61.1528 55.2875 60.9314 56.56 60.7183L57.0782 60.6281V51.1509L57.0858 50.9459V47.6338C57.0782 47.6912 54.9751 47.9945 54.7541 48.0273ZM52.7121 56.7175C52.7121 56.7175 51.3633 58.1686 49.7403 58.0784C47.6525 57.9637 46.9134 55.25 47.9192 53.5284C48.3611 52.7741 49.2298 52.1511 50.0909 52.0527C51.2871 51.9215 52.4987 52.3314 52.7121 52.4626C52.7197 52.7249 52.7121 56.7175 52.7121 56.7175ZM28.2678 45.3465L23.4369 44.5923L16 63.932C16.8306 63.8992 17.6763 63.8664 18.484 63.6942C19.0708 63.5713 19.6422 63.3909 20.1985 63.1531C24.0541 61.5709 26.8429 57.9719 30.7138 56.4223C31.3386 56.1764 31.9787 55.9879 32.6187 55.8567L28.2678 45.3465ZM26.4695 54.0203C25.4333 54.463 23.5817 55.6517 22.7511 56.6765L25.6543 49.2653L27.9707 54.5613L26.4695 54.0203ZM80.2575 40.28C80.2042 38.8945 79.2593 37.9681 77.8497 38.0008C76.3409 38.0336 75.358 39.0584 75.358 40.5095C75.358 41.9442 76.3409 42.887 77.8421 42.846C79.2974 42.8132 80.2575 41.8294 80.2575 40.4029C80.2651 40.3537 80.2575 40.3128 80.2575 40.28ZM79.4651 44.9038C78.2459 44.9038 76.9658 44.9366 75.6628 45.0022V58.0046C76.9658 57.9391 78.2383 57.9063 79.4575 57.9063C79.6327 57.9063 79.8079 57.9063 79.9832 57.9063V44.9038C79.8079 44.9038 79.6403 44.9038 79.4651 44.9038ZM72.7063 39.1404C71.3348 39.2634 69.9175 39.4191 68.4011 39.6159V46.3221C66.8696 45.6498 64.3017 45.5843 62.5035 46.6828C60.2709 48.0437 59.1507 50.618 59.1507 53.4546C59.1507 55.291 59.6308 57.2832 60.9261 58.4145C62.5873 59.8657 64.4922 59.7673 66.1152 59.2753C67.4791 58.8655 69.0565 57.193 70.3213 58.4883C71.1291 58.3981 71.9367 58.3161 72.7139 58.2424V55.0615C72.7063 55.0615 72.7063 39.1404 72.7063 39.1404ZM68.3631 54.2662C68.3631 54.2662 67.0372 55.4877 65.6885 55.4877C64.3398 55.4877 63.2578 54.4958 63.1359 52.9627C62.9759 50.8885 64.3169 49.626 65.8105 49.462C67.4868 49.2735 68.3631 50.2901 68.3631 50.2901V54.2662ZM91.8547 46.0187C91.0093 45.7318 90.11 45.658 89.2333 45.7564C88.548 45.8302 87.87 46.0843 87.184 46.0843C86.6427 46.0843 86.2007 45.9204 85.8353 45.5761C85.736 45.4859 85.652 45.3957 85.576 45.2973C84.7 45.1989 83.808 45.1169 82.9013 45.0513V58.0538C84.372 58.1522 85.82 58.2998 87.222 58.5047C87.222 58.5047 87.222 50.1835 87.222 49.7244C87.908 49.5604 89.1193 49.5112 89.7367 49.6916C90.4147 49.8883 91.6793 50.495 91.6793 52.561V59.3491C93.1347 59.6935 94.59 60.1034 96 60.5707V52.1839C96.0073 49.3801 94.3387 46.9042 91.8547 46.0187ZM36.9772 44.3135V63.4237C38.364 63.3499 39.7737 63.2433 41.2671 63.0957V43.9938C39.7661 44.1414 38.364 44.2479 36.9772 44.3135Z" fill="#1B21CC"/>
<path d="M71.5863 70.63C71.5863 71.2777 70.3062 71.1465 68.2337 71.3761C66.1611 71.5482 63.296 72.0975 60.1414 72.778C56.9792 73.4584 54.1142 73.524 52.0492 72.9173C49.9767 72.3681 48.6965 71.1629 48.6965 70.6218C48.6965 69.9741 49.9767 70.1053 52.0492 69.8758C54.1218 69.7036 56.9869 69.1543 60.1414 68.4739C63.3037 67.7934 66.1687 67.7278 68.2337 68.3345C70.2986 68.8838 71.5863 70.0971 71.5863 70.63Z" fill="#D9D9D9"/>
</g>
<rect x="1" y="1" width="110" height="110" rx="9" stroke="#CCCCCC" stroke-width="2"/>
<defs>
<clipPath id="clip0_6_7356">
<rect x="2" y="2" width="108" height="108" rx="8" fill="white"/>
</clipPath>
</defs>
</svg>
