<svg width="112" height="112" viewBox="0 0 112 112" fill="none" xmlns="http://www.w3.org/2000/svg">
<g clip-path="url(#clip0_6_7357)">
<rect x="1.99988" y="2" width="108" height="108" rx="8" fill="white"/>
<path d="M77.68 59.5726C71.0844 59.6037 66.2504 54.6955 66.2 47.9148C66.1511 41.2481 71.0474 36.1933 77.5585 36.1904C84.1911 36.1904 89.0415 41.0452 89.0756 47.7296C89.1111 54.6081 84.3704 59.5415 77.68 59.5726ZM71.5082 48.017C71.4267 48.9504 71.6341 50.0081 72.0474 51.017C72.8845 53.0555 74.3408 54.4022 76.5541 54.7681C78.8059 55.14 80.8282 54.58 82.2237 52.7207C84.2045 50.0807 84.3259 47.1178 82.9511 44.217C81.1022 40.3207 75.7452 39.7726 72.9985 43.0985C71.8682 44.4659 71.4637 46.0941 71.5082 48.0155V48.017Z" fill="#FFBC25"/>
<path d="M37.0637 56.2615C36.0548 57.6867 34.8282 58.6319 33.2859 59.1133C30.8252 59.8748 28.397 59.8274 26.1333 58.4822C23.7496 57.0615 22.6726 54.9059 22.9526 52.1341C23.2326 49.3622 24.9274 47.7059 27.4444 46.8007C29.2844 46.1385 31.2459 46.0733 33.1526 45.737C33.8682 45.6096 34.5926 45.537 35.3096 45.417C37.0711 45.1207 37.0756 43.6659 36.4519 42.2733C36.1927 41.7014 35.7255 41.2495 35.1452 41.0096C33.4578 40.2926 31.7778 40.2244 30.1274 41.1563C29.1496 41.7148 28.5882 42.5785 28.3096 43.6467C28.1037 44.4333 28.0504 44.463 27.2607 44.2807C26.1867 44.0348 25.1111 43.78 24.0385 43.5578C23.4785 43.4407 23.3363 43.1681 23.4681 42.6141C24.1126 39.9148 25.7911 38.0733 28.2948 37.0452C31.3704 35.7815 34.517 35.8407 37.5704 37.1326C40.3289 38.3 41.7393 40.54 41.923 43.4807C42.1289 46.7844 41.96 50.097 42.0015 53.4067C42.0133 54.3548 41.9348 55.303 42.0741 56.2481C42.1911 57.0452 42.5185 57.7178 43.1585 58.2215C43.317 58.3459 43.4993 58.457 43.4059 58.7C43.3126 58.943 43.0948 58.9148 42.8993 58.9163C41.9067 58.9163 40.9126 58.9474 39.9215 58.9163C38.6074 58.8748 37.6193 58.0837 37.2444 56.8422C37.2015 56.6911 37.1541 56.5489 37.0637 56.2615ZM36.8148 50.1963C36.8148 49.8763 36.797 49.6763 36.8148 49.4793C36.8756 48.937 36.7467 48.7296 36.1259 48.8778C35.3585 49.0615 34.5511 49.0659 33.7748 49.2215C32.483 49.4807 31.1333 49.46 29.8948 49.9815C28.7363 50.4704 28.0459 51.5548 28.117 52.7444C28.1483 53.3343 28.366 53.8989 28.7387 54.3571C29.1115 54.8153 29.62 55.1434 30.1911 55.2941C30.958 55.5124 31.7636 55.5592 32.5507 55.4312C33.3378 55.3032 34.087 55.0035 34.7452 54.5533C36.3378 53.5104 36.7541 51.8659 36.8148 50.1963Z" fill="#FFBC25"/>
<path d="M57.0178 40.7607C57.0178 36.1504 57.0178 31.5395 57.0178 26.9281C57.0178 26.06 57.0622 26.017 57.9067 26.0155C59.3635 26.0155 60.8198 26.0155 62.2756 26.0155C63.1156 26.0155 63.1733 26.0837 63.1733 27.0022V51.7548C63.1733 52.5933 63.16 53.4318 63.1733 54.2733C63.2059 56.0141 64.0237 57.2911 65.5215 58.1459C65.7319 58.2659 66.0178 58.3237 65.9659 58.6393C65.8948 59.0126 65.5645 58.9178 65.3171 58.9193C64.0815 58.9281 62.8459 58.9356 61.6133 58.9193C58.9067 58.8881 57.0415 57.0333 57.0326 54.3267C57.0074 49.8067 57.0178 45.2837 57.0178 40.7607Z" fill="#FFBC25"/>
<path d="M45.3096 40.7163V27.02C45.3096 26.0615 45.3541 26.017 46.3215 26.017C48.3274 26.017 50.3348 26.017 52.3422 26.017C52.6533 26.017 53.0444 25.8955 53.2133 26.3015C53.3822 26.7074 53.0415 26.9133 52.8459 27.1578C51.443 28.9118 50.0237 30.6555 48.6133 32.4037C48.477 32.5741 48.3022 32.7444 48.2444 32.943C48.1215 33.3607 48.3644 33.5696 48.763 33.5844C49.2474 33.6037 49.7333 33.5844 50.2193 33.5963C51.1763 33.6096 51.4785 33.8926 51.4874 34.8718C51.5022 36.2393 51.4874 37.6067 51.4874 38.9741C51.4874 43.936 51.4874 48.898 51.4874 53.86C51.4874 55.7578 52.2015 57.2348 53.9111 58.1563C54.1081 58.2644 54.3378 58.3578 54.2919 58.6304C54.2341 58.9622 53.9452 58.9148 53.7081 58.9148C52.363 58.9148 51.0178 58.9489 49.6726 58.9148C47.2059 58.8393 45.3319 56.9044 45.323 54.4126C45.3067 49.8467 45.323 45.2822 45.323 40.7178L45.3096 40.7163Z" fill="#FFBC25"/>
<path d="M22 85.6378V61.4896H25.197V71.8778H25.3896C25.6244 71.4618 25.8924 71.0654 26.1911 70.6926C26.5896 70.2019 27.0848 69.7985 27.6459 69.5074C28.2652 69.1696 29.0849 69.0007 30.1052 69.0007C31.3632 68.98 32.5995 69.3293 33.6607 70.0052C34.7007 70.6748 35.5185 71.6407 36.1141 72.903C36.7096 74.1652 37.0059 75.6832 37.003 77.457C37.003 79.2348 36.7067 80.7548 36.1141 82.017C35.5215 83.2793 34.7086 84.2531 33.6756 84.9385C32.624 85.624 31.3914 85.9795 30.1363 85.9592C29.1388 85.9592 28.3244 85.7918 27.6933 85.457C27.1234 85.1717 26.6189 84.7712 26.2119 84.2807C25.9052 83.9048 25.6297 83.5044 25.3881 83.0837H25.1215V85.6378H22ZM25.1333 77.4274C25.1129 78.4615 25.2831 79.4905 25.6356 80.463C25.9207 81.2641 26.4241 81.9697 27.0889 82.5C27.7608 83.0013 28.5829 83.2598 29.4207 83.2333C30.3748 83.2333 31.1728 82.978 31.8148 82.4674C32.4825 81.9232 32.9874 81.2056 33.2741 80.3933C33.9337 78.489 33.9379 76.4188 33.2859 74.5118C33.0027 73.708 32.4985 73.0004 31.8311 72.4704C31.1862 71.9706 30.3827 71.7212 29.4207 71.7222C28.4933 71.7222 27.7106 71.9607 27.0726 72.4378C26.4088 72.9524 25.9065 73.6464 25.6252 74.4378C25.2796 75.3958 25.1129 76.4091 25.1333 77.4274Z" fill="#282828"/>
<path d="M44.6667 86.0022C43.697 86.0155 42.7362 85.8163 41.8519 85.4185C41.0401 85.0545 40.3485 84.4673 39.8578 83.7252C39.3699 82.9834 39.1259 82.0743 39.1259 80.9978C39.1259 80.0723 39.3042 79.3099 39.6607 78.7104C40.0096 78.1187 40.507 77.6284 41.1037 77.2881C41.7387 76.9271 42.4229 76.6606 43.1348 76.497C43.8893 76.3178 44.6536 76.1822 45.4237 76.0911C46.4114 75.9765 47.2094 75.8817 47.8178 75.8067C48.4262 75.7316 48.8706 75.6086 49.1511 75.4378C49.2896 75.3496 49.4015 75.2254 49.4749 75.0784C49.5482 74.9315 49.5802 74.7674 49.5674 74.6037V74.5296C49.5674 73.5963 49.3057 72.8728 48.7822 72.3592C48.2588 71.8457 47.4795 71.5889 46.4444 71.5889C45.3669 71.5889 44.5205 71.8259 43.9052 72.3C43.3455 72.7021 42.904 73.2469 42.6267 73.8778L39.6296 73.1933C39.9394 72.267 40.478 71.4338 41.1956 70.7711C41.8823 70.1559 42.6939 69.6965 43.5748 69.4244C44.4925 69.1401 45.4482 68.9977 46.4089 69.0022C47.1117 69.0068 47.8122 69.0838 48.4993 69.2318C49.2354 69.3842 49.9381 69.6683 50.5733 70.0704C51.2423 70.5046 51.789 71.1029 52.1615 71.8081C52.5753 72.5607 52.7817 73.5355 52.7807 74.7326V85.6378H49.6518V83.3933H49.523C49.284 83.8495 48.9695 84.2617 48.5926 84.6126C48.1301 85.0426 47.5895 85.38 47 85.6067C46.255 85.8876 45.4627 86.0219 44.6667 86.0022ZM45.3615 83.4363C46.1499 83.4581 46.9308 83.2776 47.6296 82.9118C48.2272 82.5942 48.7267 82.1193 49.0741 81.5385C49.4006 80.9863 49.5721 80.3563 49.5704 79.7148V77.5978C49.3779 77.7516 49.153 77.8595 48.9126 77.9133C48.5491 78.0181 48.1795 78.1002 47.8059 78.1592C47.3926 78.2274 46.9911 78.2881 46.5985 78.3415L45.6148 78.4748C45.0389 78.5437 44.4725 78.6764 43.9259 78.8704C43.4582 79.0278 43.0385 79.3021 42.7067 79.6674C42.3904 80.0531 42.2289 80.5426 42.2533 81.0407C42.2533 81.8309 42.5452 82.4279 43.1289 82.8318C43.7126 83.2358 44.4578 83.4373 45.3644 83.4363H45.3615Z" fill="#282828"/>
<path d="M59.5333 75.8866V85.6378H56.3363V69.2155H59.4044V71.8822H59.6074C59.9772 71.0219 60.5965 70.2922 61.3852 69.7874C62.1941 69.26 63.2153 68.9963 64.4489 68.9963C65.4748 68.9757 66.4887 69.2201 67.3926 69.7059C68.2409 70.1814 68.9233 70.9052 69.3482 71.78C69.8114 72.7005 70.043 73.8363 70.043 75.1874V85.6333H66.8459V75.577C66.8459 74.3918 66.5363 73.46 65.917 72.7815C65.2978 72.103 64.4459 71.7662 63.3615 71.7711C62.6731 71.7576 61.993 71.9235 61.3882 72.2526C60.8083 72.5787 60.3365 73.0674 60.0311 73.6585C59.6823 74.3482 59.5112 75.1141 59.5333 75.8866Z" fill="#282828"/>
<path d="M83.9985 85.6378H87.923L80.8252 76.2644L87.4726 69.2155H83.6459L77.1022 76.1652H76.8237V61.2244H73.6282V85.6378H76.8237V79.8111L78.4119 78.2229L83.9985 85.6378Z" fill="#282828"/>
</g>
<rect x="1" y="1" width="110" height="110" rx="9" stroke="#CCCCCC" stroke-width="2"/>
<defs>
<clipPath id="clip0_6_7357">
<rect x="2" y="2" width="108" height="108" rx="8" fill="white"/>
</clipPath>
</defs>
</svg>
