<svg width="112" height="112" viewBox="0 0 112 112" fill="none" xmlns="http://www.w3.org/2000/svg">
<g clip-path="url(#clip0_6_7358)">
<rect x="1.99988" y="2" width="108" height="108" rx="8" fill="white"/>
<path d="M84.9508 53.0876C84.9508 51.6325 83.7938 50.4529 82.3256 50.4529C80.8573 50.4529 79.7008 51.6325 79.7008 53.0876C79.7008 53.6437 79.8753 54.1589 80.1721 54.584C80.2905 54.7935 80.4201 54.9771 80.5403 55.1475C80.7206 55.403 80.8798 55.6285 80.9482 55.8662C81.1216 56.4668 80.9381 56.8696 80.6431 56.9898C80.2615 57.1455 79.6624 56.88 79.6624 56.88C76.9616 55.8346 75.0481 53.2315 75.0481 50.1845C75.0481 46.2166 78.3216 43 82.3256 43C86.3296 43 89.6031 46.2166 89.6031 50.1845C89.6031 53.2315 87.6899 55.8346 84.9888 56.88C84.9888 56.88 84.3897 57.1455 84.0085 56.9898C83.7131 56.8696 83.5299 56.4668 83.7033 55.8662C83.7715 55.6286 83.9305 55.4032 84.1108 55.1478C84.231 54.9774 84.3607 54.7936 84.4791 54.584C84.7759 54.1589 84.9508 53.6437 84.9508 53.0876Z" fill="#169CD4"/>
<path d="M77.3945 67.7809C78.7571 66.9439 79.1527 65.059 79.1527 63.3448C79.1527 59.7457 76.2083 56.8276 72.5764 56.8276C71.1962 56.8276 69.9462 57.0403 69.0778 57.8048C68.3929 58.4076 68.6412 59.0465 69.0658 59.5247L75.7967 67.5627C75.7967 67.5627 76.4197 68.38 77.3945 67.7809Z" fill="#169CD4"/>
<path d="M87.2566 67.7809C85.8941 66.9439 85.4984 65.059 85.4984 63.3448C85.4984 59.7457 88.4429 56.8276 92.0751 56.8276C93.455 56.8276 94.705 57.0403 95.5737 57.8048C96.2583 58.4076 96.0099 59.0465 95.5853 59.5247L88.8545 67.5627C88.8545 67.5627 88.2318 68.38 87.2566 67.7809Z" fill="#169CD4"/>
<path d="M33.0698 59.3243L31.7374 52.2158C31.5126 51.2583 30.5258 51.3139 30.5258 51.3139L28.3426 51.3893C26.0385 51.4664 24.5656 53.7851 24.5656 53.7851L21.0101 59.3243H33.0698Z" fill="#169CD4"/>
<path d="M59.3115 56.0713H53.5686C53.1765 56.0713 52.854 55.7793 52.8095 55.4026H52.8037V52.0607C52.8037 51.642 53.1461 51.3138 53.5686 51.3138H66.5177C66.9398 51.3138 67.2822 51.642 67.2822 52.0607V54.1057C67.2822 54.1057 67.3438 54.985 66.5181 55.8037L63.8538 59.3242H56.842C57.8067 58.052 58.7243 56.8443 59.2033 56.2137L59.3115 56.0713Z" fill="#169CD4"/>
<path d="M60.5152 63.7359H66.5177C66.9249 63.7359 67.2565 64.0516 67.2797 64.4495L67.2822 64.4492V67.6575C67.2822 68.0759 66.9398 68.3514 66.5177 68.3514H53.5686C53.1461 68.3514 52.8037 68.0759 52.8037 67.6575V65.2958C52.8037 65.2958 52.8934 64.5826 53.4781 63.7808C53.7253 63.4414 54.8504 61.9533 56.0652 60.3493H63.0781L60.5152 63.7359Z" fill="#169CD4"/>
<path d="M28.6124 67.2567L27.4475 60.3487H33.2633L34.6316 67.558C34.6316 67.558 34.9248 68.3512 34.1154 68.3512H30.0513C30.0513 68.3512 28.843 68.4029 28.6124 67.2567Z" fill="#169CD4"/>
<path d="M20.3609 60.3487L16.3819 66.6324C15.3477 68.2364 16.7417 68.3512 16.7417 68.3512H21.1482C21.7777 68.4402 22.4974 67.3453 22.4974 67.3453L26.8015 60.3487H20.3609Z" fill="#169CD4"/>
<path d="M46.0587 59.3243L46.6882 60.3492H51.1848V67.5682C51.1848 67.9865 50.8428 68.3514 50.42 68.3514H46.4641C45.7597 68.3804 45.2254 67.8581 44.8 67.212L41.158 60.9738V67.5686C41.158 67.9872 40.8152 68.3514 40.3932 68.3514H36.5716C36.1492 68.3514 35.8067 67.9865 35.8067 67.5682V60.3489H40.8431L40.2136 59.3243H35.8067V52.0605C35.8067 51.6422 36.1492 51.3139 36.5716 51.3139H40.3932C41.1153 51.3139 41.8545 51.7706 42.2817 52.595C42.5173 53.0499 45.6996 58.6085 45.6996 58.6085V52.1053C45.6996 51.6866 46.0417 51.3139 46.4641 51.3139H50.42C50.8428 51.3139 51.1848 51.6422 51.1848 52.0605V59.3243H46.0587Z" fill="#169CD4"/>
</g>
<rect x="1" y="1" width="110" height="110" rx="9" stroke="#CCCCCC" stroke-width="2"/>
<defs>
<clipPath id="clip0_6_7358">
<rect x="2" y="2" width="108" height="108" rx="8" fill="white"/>
</clipPath>
</defs>
</svg>
