<svg width="112" height="112" viewBox="0 0 112 112" fill="none" xmlns="http://www.w3.org/2000/svg">
<g clip-path="url(#clip0_642_1037)">
<rect x="2" y="2" width="108" height="108" rx="8" fill="white"/>
<path d="M34.7598 52.9044H37.5259C38.783 52.9044 39.5978 53.6406 39.5978 54.6426C39.6069 54.9595 39.5177 55.2714 39.3423 55.5354C39.1669 55.7995 38.914 56.0027 38.6184 56.1171C39.4041 56.3432 39.9637 56.9782 39.9637 57.8155C39.9637 58.9639 39.149 59.7787 37.7347 59.7787H34.7598V52.9044ZM37.3107 55.7523C37.8994 55.7523 38.3321 55.438 38.3321 54.8094C38.3321 54.1809 37.8703 53.8957 37.301 53.8957H36.046V55.7523H37.3107ZM37.5259 58.7853C38.1448 58.7853 38.6657 58.471 38.6657 57.7445C38.6657 57.018 38.1448 56.694 37.4818 56.694H36.046V58.7853H37.5259Z" fill="#1F4396"/>
<path d="M40.3512 57.2935C40.3512 55.7717 41.1659 54.6717 42.5501 54.6717C42.8677 54.6615 43.1821 54.7384 43.4591 54.8942C43.7361 55.0499 43.9652 55.2786 44.1215 55.5553V54.8094H45.3291V59.7766H44.1215V59.0296C43.9636 59.305 43.7342 59.5325 43.4576 59.6881C43.1809 59.8437 42.8673 59.9215 42.5501 59.9132C41.1659 59.9132 40.3512 58.8143 40.3512 57.2925V57.2935ZM42.845 58.908C43.6597 58.908 44.1021 58.2504 44.1021 57.2935C44.1021 56.3367 43.6608 55.6866 42.845 55.6866C42.0291 55.6866 41.5879 56.3442 41.5879 57.3011C41.5879 58.2579 42.0399 58.9037 42.845 58.9037V58.908Z" fill="#1F4396"/>
<path d="M46.2116 54.8094H47.4192V55.5941C47.5624 55.3129 47.7821 55.078 48.0532 54.9165C48.3242 54.755 48.6354 54.6734 48.9508 54.6814C50.1186 54.6814 50.7278 55.3885 50.7278 56.5961V59.7766H49.49V56.8124C49.49 56.1053 49.1962 55.6931 48.5483 55.6931C47.8508 55.6931 47.4483 56.2226 47.4483 57.1267V59.7766H46.2116V54.8094Z" fill="#1F4396"/>
<path d="M51.4101 60.0919H52.6672C52.7846 60.474 53.1387 60.7302 53.7435 60.7302C54.5787 60.7302 54.9124 60.2092 54.9124 59.4386V58.8789C54.7447 59.101 54.526 59.2793 54.2748 59.3989C54.0235 59.5184 53.7471 59.5756 53.4691 59.5656C52.114 59.5656 51.309 58.5442 51.309 57.1213C51.309 55.6985 52.114 54.6663 53.4691 54.6663C53.7641 54.6569 54.0566 54.7239 54.3182 54.8608C54.5797 54.9977 54.8015 55.1999 54.9619 55.4477V54.8094H56.1566V59.4375C56.1566 60.8711 55.2041 61.6859 53.7317 61.6859C52.4165 61.6859 51.5619 61.0681 51.4144 60.0962L51.4101 60.0919ZM53.7575 58.57C54.5325 58.57 54.9748 57.9802 54.9748 57.1267C54.9748 56.2732 54.5368 55.6866 53.7618 55.6866C52.9869 55.6866 52.5542 56.2754 52.5542 57.1299C52.5542 57.9845 52.9955 58.57 53.7618 58.57H53.7575Z" fill="#1F4396"/>
<path d="M58.2801 57.3624V59.7766H57.0435V52.9044H58.2801V56.8512L60.0582 54.8062H61.5402L59.5179 57.0546L61.805 59.7766H60.2831L58.2812 57.3613L58.2801 57.3624Z" fill="#1F4396"/>
<path d="M61.4832 57.2935C61.4832 55.7717 62.4163 54.662 64.006 54.662C65.5957 54.662 66.5106 55.7717 66.5106 57.2935C66.5106 58.8154 65.5871 59.9251 64.006 59.9251C62.4249 59.9251 61.4832 58.8154 61.4832 57.2935ZM64.0028 58.923C64.8283 58.923 65.2696 58.2461 65.2696 57.2935C65.2696 56.341 64.8315 55.664 64.0028 55.664C63.174 55.664 62.7166 56.3507 62.7166 57.2935C62.7166 58.2364 63.1719 58.923 64.0028 58.923Z" fill="#1F4396"/>
<path d="M68.3672 59.7766H67.1305V52.9044H68.3672V56.8512L70.1441 54.8062H71.6273L69.6049 57.0546L71.892 59.7766H70.3702L68.3672 57.3613V59.7766Z" fill="#1F4396"/>
<path d="M74.4052 52.9044H77.1745C78.4305 52.9044 79.2453 53.6406 79.2453 54.6426C79.2543 54.9597 79.1647 55.2718 78.9889 55.5359C78.8131 55.8 78.5597 56.0031 78.2637 56.1171C79.0494 56.3432 79.6091 56.9782 79.6091 57.8155C79.6091 58.9639 78.7943 59.7787 77.3801 59.7787H74.4052V52.9044ZM76.9582 55.7523C77.5469 55.7523 77.9796 55.438 77.9796 54.8094C77.9796 54.1809 77.5178 53.8957 76.9485 53.8957H75.6914V55.7523H76.9582ZM77.1734 58.7853C77.7923 58.7853 78.3122 58.471 78.3122 57.7445C78.3122 57.018 77.7923 56.694 77.1282 56.694H75.6914V58.7853H77.1734Z" fill="#1F4396"/>
<path d="M79.9966 57.2935C79.9966 55.7717 80.8113 54.6717 82.1965 54.6717C82.514 54.6615 82.8282 54.7385 83.105 54.8943C83.3818 55.0501 83.6107 55.2787 83.7668 55.5553V54.8094H84.9744V59.7766H83.7668V59.0296C83.6089 59.3057 83.379 59.5337 83.1018 59.6895C82.8245 59.8453 82.5101 59.923 82.1922 59.9143C80.807 59.9143 79.9922 58.8154 79.9922 57.2935H79.9966ZM82.4903 58.908C83.3051 58.908 83.7474 58.2504 83.7474 57.2935C83.7474 56.3367 83.3051 55.6791 82.4903 55.6791C81.6756 55.6791 81.2343 56.3367 81.2343 57.2935C81.2343 58.2504 81.6853 58.9037 82.4903 58.9037V58.908Z" fill="#1F4396"/>
<path d="M85.857 54.8094H87.0646V55.5941C87.2077 55.3129 87.4275 55.078 87.6985 54.9165C87.9696 54.755 88.2808 54.6734 88.5962 54.6814C89.765 54.6814 90.3731 55.3885 90.3731 56.5961V59.7766H89.1365V56.8124C89.1365 56.1053 88.8416 55.6931 88.1936 55.6931C87.4962 55.6931 87.0937 56.2226 87.0937 57.1267V59.7766H85.857V54.8094Z" fill="#1F4396"/>
<path d="M92.4751 59.7766H91.2385V52.9044H92.4751V56.8512L94.2521 54.8062H95.7352L93.7086 57.0578L96 59.7766H94.4781L92.4751 57.3613V59.7766Z" fill="#1F4396"/>
<path d="M29.5204 53.9431L23.4695 46L17.4196 53.9431C16.3982 55.2874 16 56.4573 16 57.7316C16 59.669 16.9687 61.4169 18.7144 62.6363L23.4695 65.919L28.2256 62.632C29.9682 61.4126 30.939 59.669 30.939 57.7316C30.939 56.4573 30.5408 55.2874 29.5204 53.9431ZM22.4987 62.3091V63.479L19.5851 61.4868C18.2161 60.5655 17.4444 59.1965 17.4444 57.8016C17.4522 57.0779 17.6405 56.3676 17.9922 55.7351C18.1418 56.1592 18.3905 56.5821 18.9383 57.2042L22.0273 60.6376C22.5234 61.2134 22.4987 61.5622 22.4987 62.3091ZM20.2083 56.4573C19.4355 55.6113 19.287 55.1378 19.287 54.6394C19.287 54.1411 19.386 53.7493 19.9823 52.9712L23.4695 48.44L26.9556 52.9712C27.5282 53.7439 27.6531 54.1669 27.6531 54.6394C27.6531 55.1378 27.5035 55.6081 26.7317 56.4573L23.4695 60.093L20.2083 56.4573ZM27.3538 61.4868L24.4403 63.479V62.3091C24.4403 61.5622 24.4156 61.2134 24.9139 60.6409L28.0018 57.2042C28.5485 56.5821 28.7982 56.1592 28.9478 55.7351C29.2991 56.3678 29.4874 57.078 29.4957 57.8016C29.4957 59.1965 28.7229 60.5655 27.3538 61.4868Z" fill="#1F4396"/>
</g>
<rect x="1" y="1" width="110" height="110" rx="9" stroke="#CCCCCC" stroke-width="2"/>
<defs>
<clipPath id="clip0_642_1037">
<rect x="2" y="2" width="108" height="108" rx="8" fill="white"/>
</clipPath>
</defs>
</svg>
