<svg width="112" height="112" viewBox="0 0 112 112" fill="none" xmlns="http://www.w3.org/2000/svg">
<g clip-path="url(#clip0_421_547)">
<rect x="2" y="2" width="108" height="108" rx="8" fill="white"/>
<path d="M17.9082 51.2046H22.8525C23.6311 51.2046 24.2311 51.3833 24.6475 51.744C25.0656 52.1013 25.2727 52.5604 25.2727 53.1248C25.2727 53.7216 25.0601 54.2243 24.6344 54.6281C24.2066 55.0347 23.5005 55.3046 22.5148 55.438C23.2896 55.5068 23.8814 55.7309 24.2858 56.1106C24.6885 56.4866 24.8902 56.9718 24.8902 57.5587C24.8902 58.0855 24.735 58.5522 24.4251 58.9598C24.1984 59.2615 23.8098 59.5292 23.2601 59.7658C22.7087 60.003 22.1158 60.121 21.4847 60.121H16L16.1317 59.5822H16.712C17.0497 59.5822 17.2612 59.4013 17.3486 59.0407L19.0568 52.333C19.076 52.2543 19.0858 52.1735 19.0858 52.0997C19.0858 51.9899 19.0437 51.9024 18.9596 51.8407C18.8749 51.7757 18.7208 51.744 18.4995 51.744H17.7814L17.9082 51.2046ZM19.9825 55.7866L19.1645 58.9724C19.1388 59.0604 19.1295 59.1451 19.1295 59.2232C19.1295 59.3363 19.1738 59.4205 19.2623 59.4757C19.3508 59.533 19.5262 59.5576 19.7929 59.5576H20.765C21.2235 59.5576 21.6055 59.4718 21.9158 59.2937C22.2262 59.1166 22.4825 58.838 22.6836 58.4494C22.882 58.0625 22.9831 57.6533 22.9831 57.2243C22.9831 56.7795 22.8383 56.4287 22.5536 56.1702C22.2645 55.9134 21.8475 55.7866 21.2956 55.7866H19.9825ZM20.1481 55.2254H21.2989C21.6437 55.2254 21.953 55.1615 22.224 55.038C22.5847 54.8707 22.8749 54.6084 23.0874 54.256C23.3016 53.9002 23.4082 53.4975 23.4082 53.0483C23.4082 52.5538 23.2601 52.2008 22.9607 51.9877C22.7508 51.8407 22.3661 51.7658 21.8071 51.7658C21.4803 51.7658 21.2612 51.8019 21.1481 51.868C21.035 51.9358 20.953 52.0658 20.9016 52.2549L20.1481 55.2254Z" fill="#332C2B"/>
<path d="M31.2902 51.2046H32.0934L33.1016 58.8926C33.1311 59.1303 33.2055 59.2981 33.3213 59.3888C33.4825 59.5183 33.6962 59.5822 33.9628 59.5822H34.229L34.0874 60.121H30.1743L30.3066 59.5822H30.594C30.8945 59.5822 31.1011 59.5434 31.2093 59.4598C31.3191 59.3795 31.3743 59.2571 31.3743 59.0915C31.3743 59.0325 31.3678 58.9675 31.3557 58.8926L31.1448 57.2915H28.2705L27.7005 58.2183C27.5432 58.4822 27.465 58.7259 27.465 58.9451C27.465 59.1456 27.5262 59.2997 27.6519 59.4128C27.7754 59.527 27.9683 59.5822 28.2251 59.5822H28.4601L28.3268 60.121H25.2771L25.4104 59.5822C25.6721 59.5631 25.8825 59.4992 26.0366 59.386C26.3311 59.1664 26.5525 58.9336 26.7027 58.686L31.2902 51.2046ZM30.6383 53.4298L28.6831 56.6177H31.0574L30.6383 53.4298Z" fill="#332C2B"/>
<path d="M36.9896 51.2046H39.5536L42.4262 57.4183L43.4383 53.0396C43.4831 52.8565 43.5066 52.7041 43.5066 52.5921C43.5066 52.333 43.424 52.1276 43.2612 51.9746C43.1 51.821 42.8809 51.744 42.6082 51.744H42.3623L42.506 51.2046H45.441L45.2902 51.744C44.9847 51.7604 44.7497 51.8489 44.5885 52.0112C44.3617 52.2407 44.2027 52.5505 44.1082 52.9418L42.4514 60.121H41.7951L38.4885 53.0418L37.1765 57.9587C37.1191 58.1942 37.0891 58.3828 37.0891 58.5303C37.0891 58.8412 37.1913 59.0953 37.3907 59.2833C37.5913 59.4751 37.8847 59.5735 38.2667 59.5822L38.1399 60.121H34.8628L34.9962 59.5822C35.376 59.5631 35.6809 59.4489 35.9197 59.2352C36.1585 59.0183 36.3257 58.721 36.4213 58.3418L37.9536 52.5937C37.9923 52.4505 38.012 52.3429 38.012 52.2768C38.012 52.1117 37.9475 51.9811 37.8197 51.8849C37.6923 51.7893 37.4645 51.744 37.1388 51.744H36.8464L36.9896 51.2046Z" fill="#332C2B"/>
<path d="M46.9153 51.2046H50.8852L50.7301 51.744H50.2781C50.0776 51.744 49.9262 51.7893 49.8235 51.8839C49.7186 51.98 49.635 52.1478 49.5754 52.3915L48.6754 55.9358L52.0924 52.8128C52.3421 52.5751 52.4678 52.368 52.4678 52.1926C52.4678 52.0604 52.4148 51.9538 52.3104 51.8696C52.2093 51.7855 52.0481 51.744 51.835 51.744H51.6109L51.7486 51.2046H55.0317L54.8896 51.744C54.5404 51.7713 54.2421 51.8489 53.9951 51.9675C53.747 52.0888 53.447 52.3188 53.0891 52.656L50.8481 54.7057L52.8055 59.0232C52.8678 59.1664 52.9393 59.2729 53.0208 59.3456C53.1033 59.4205 53.2246 59.4817 53.3858 59.533C53.4891 59.5631 53.6809 59.5822 53.9618 59.5822L53.8219 60.121H49.8393L49.9852 59.5822H50.5005C50.6973 59.5822 50.8372 59.5483 50.9213 59.4828C51.0055 59.4145 51.0475 59.3276 51.0475 59.2205C51.0475 59.1358 51.0312 59.0576 50.9945 58.9828L49.5803 55.8642L48.423 56.9183L47.8721 59.0888C47.8601 59.133 47.8557 59.1795 47.8557 59.2265C47.8557 59.3374 47.8989 59.4259 47.9863 59.486C48.0743 59.55 48.2273 59.5822 48.4481 59.5822H49.0546L48.9115 60.121H44.8557L44.9956 59.5822H45.3383C45.5689 59.5822 45.741 59.5369 45.8552 59.4494C45.9661 59.362 46.0481 59.2205 46.0978 59.0232L47.8044 52.3139C47.824 52.2494 47.8333 52.1839 47.8333 52.1172C47.8333 51.9986 47.7902 51.9084 47.7011 51.8418C47.612 51.7773 47.4634 51.744 47.247 51.744H46.782L46.9153 51.2046Z" fill="#332C2B"/>
<path d="M71.7683 51.1686H75.8464C77.012 51.1686 77.9027 51.486 78.5208 52.127C79.1355 52.7636 79.4448 53.6554 79.4448 54.7937C79.4448 55.5374 79.3109 56.2636 79.0415 56.9811C78.7727 57.6997 78.4279 58.2806 78.0126 58.7243C77.594 59.1702 77.0617 59.5276 76.4066 59.7948C75.753 60.0653 75.0169 60.2002 74.2049 60.2002H69.9022L70.047 59.6543H70.5246C70.8525 59.6543 71.0617 59.4554 71.159 59.0571L72.8923 52.2467C72.9087 52.1926 72.9148 52.1401 72.9148 52.0822C72.9148 51.9658 72.8699 51.8757 72.782 51.8128C72.6929 51.7489 72.5208 51.715 72.2699 51.715H71.6005L71.7683 51.1686ZM74.1126 59.6292C74.5503 59.6292 74.9678 59.5172 75.3623 59.2893C75.7574 59.0604 76.1016 58.733 76.3984 58.3024C76.6945 57.8735 76.9541 57.2582 77.1765 56.4527C77.3984 55.65 77.5104 54.8817 77.5104 54.1478C77.5104 53.3582 77.3333 52.744 76.9765 52.3046C76.6661 51.9276 76.1869 51.7369 75.5377 51.7369C75.2448 51.7369 75.0475 51.7707 74.9432 51.8369C74.8415 51.9046 74.765 52.0237 74.7197 52.1926L72.9672 59.0757C72.9519 59.138 72.9443 59.1937 72.9443 59.2462C72.9443 59.368 72.9781 59.4593 73.0426 59.5145C73.1317 59.5937 73.2607 59.6292 73.4333 59.6292H74.1126Z" fill="#332C2B"/>
<path d="M82.1994 51.1686H86.2224L86.0645 51.715H85.6071C85.4027 51.715 85.2503 51.7609 85.1459 51.8565C85.0388 51.9538 84.9574 52.1243 84.8956 52.3707L83.9836 55.9609L87.4459 52.7975C87.6973 52.5565 87.8251 52.3467 87.8251 52.1696C87.8251 52.0352 87.7727 51.9276 87.6667 51.8423C87.5623 51.7571 87.4011 51.715 87.1836 51.715H86.9585L87.0945 51.1686H90.4219L90.2792 51.715C89.9251 51.7429 89.6208 51.821 89.371 51.9412C89.1208 52.0642 88.8158 52.297 88.4557 52.6385L86.1814 54.715L88.1672 59.0877C88.2295 59.233 88.3027 59.3407 88.3863 59.4145C88.4683 59.491 88.5924 59.5522 88.7546 59.6046C88.8607 59.6352 89.0541 59.6543 89.3372 59.6543L89.1973 60.2002H85.1645L85.3104 59.6543H85.8333C86.0311 59.6543 86.1738 59.6199 86.2596 59.5538C86.3448 59.4844 86.3863 59.3959 86.3863 59.2877C86.3863 59.2019 86.3699 59.1227 86.335 59.0472L84.9022 55.8882L83.7284 56.956L83.1699 59.1549C83.1579 59.1992 83.153 59.2467 83.153 59.2942C83.153 59.4063 83.1984 59.4959 83.2863 59.5571C83.376 59.6216 83.5295 59.6543 83.7525 59.6543H84.3683L84.2235 60.2002H80.1158L80.2541 59.6543H80.6044C80.8366 59.6543 81.0131 59.6084 81.1251 59.5199C81.2393 59.4314 81.3213 59.2877 81.3749 59.0877L83.1016 52.2921C83.1208 52.227 83.1301 52.1604 83.1301 52.0931C83.1301 51.9724 83.0853 51.8817 82.9978 51.8139C82.9071 51.7489 82.7541 51.715 82.5372 51.715H82.065L82.1994 51.1686Z" fill="#332C2B"/>
<path d="M91.7607 51.1686H96L95.8607 51.715H95.3667C95.1366 51.715 94.9721 51.7494 94.8749 51.821C94.7738 51.8915 94.7038 52.0112 94.6612 52.1773L92.9077 59.0751C92.8907 59.1489 92.8825 59.2117 92.8825 59.262C92.8825 59.3899 92.9197 59.4789 92.9934 59.5314C93.1077 59.615 93.2732 59.6543 93.4945 59.6543H94.123L93.9831 60.2002H89.8448L89.9902 59.6543H90.4557C90.7885 59.6543 90.9924 59.497 91.0661 59.1784L92.8148 52.3117C92.8328 52.2314 92.8432 52.1543 92.8432 52.08C92.8432 51.9658 92.8027 51.8757 92.7246 51.8128C92.6432 51.7467 92.5049 51.715 92.3087 51.715H91.6317L91.7607 51.1686Z" fill="#332C2B"/>
<path d="M62.7022 61.6789C62.7022 61.6789 61.9574 60.0784 61.2563 58.5707L61.2557 58.5686C60.6432 57.2511 60.0617 56.0063 60.041 55.9571C59.9978 55.8669 59.9404 55.7074 59.9902 55.5237C60.0279 55.386 60.1847 55.1489 60.2984 55.003C60.5137 54.7281 60.5787 54.5839 60.6077 54.3839L63.7743 61.1784L63.7721 61.1795L64.1475 61.9844C64.5448 61.9052 64.9273 61.7855 65.2934 61.638C64.8628 60.7134 64.4229 59.7642 64.1492 59.1773L64.1459 59.1789C64.1459 59.1789 61.5317 53.5615 61.4825 53.4576C61.4399 53.3675 61.3831 53.2074 61.4328 53.0243C61.471 52.8866 61.6273 52.6489 61.7415 52.5046C61.9568 52.2298 62.0208 52.0839 62.0503 51.8839L66.3448 61.097C66.6896 60.8806 67.0082 60.6325 67.3044 60.3576C66.7339 59.1314 65.9705 57.4915 65.5929 56.6784L65.588 56.6795C65.588 56.6795 62.9743 51.0625 62.9246 50.9587C62.8836 50.8686 62.8257 50.709 62.8765 50.5254C62.9137 50.3882 63.0705 50.15 63.1842 50.0052C63.4005 49.7298 63.4645 49.5849 63.4918 49.3849L68.1585 59.3921C68.9399 58.3134 69.4049 56.9921 69.4049 55.5576C69.4049 51.9369 66.4699 49.0013 62.8486 49.0013C59.2279 49.0013 56.2923 51.9369 56.2923 55.5576C56.2923 58.1516 57.8049 60.3871 59.9891 61.45C59.3158 60.0024 58.6213 58.5095 58.5973 58.456C58.5557 58.3658 58.4967 58.2063 58.5464 58.0227C58.5852 57.8855 58.7415 57.6478 58.8557 57.503C59.0705 57.2276 59.135 57.0828 59.1634 56.8828L61.5426 61.9833C61.9639 62.0675 62.4011 62.1134 62.8486 62.1134C62.8683 62.1134 62.8847 62.1112 62.9033 62.1106C62.8361 61.9691 62.7683 61.8243 62.7022 61.6789Z" fill="#E62129"/>
</g>
<rect x="1" y="1" width="110" height="110" rx="9" stroke="#CCCCCC" stroke-width="2"/>
<defs>
<clipPath id="clip0_421_547">
<rect x="2" y="2" width="108" height="108" rx="8" fill="white"/>
</clipPath>
</defs>
</svg>
