<svg width="112" height="112" viewBox="0 0 112 112" fill="none" xmlns="http://www.w3.org/2000/svg">
<g clip-path="url(#clip0_517_515)">
<rect x="2" y="2" width="108" height="108" rx="8" fill="white"/>
<path fill-rule="evenodd" clip-rule="evenodd" d="M44.6049 57.0186C45.1531 57.7556 45.6024 58.5194 46.0338 59.2923C45.6563 59.3911 45.3777 59.7416 45.3777 60.155C45.3777 60.6403 45.7731 61.0357 46.2674 61.0357C46.7527 61.0357 47.1481 60.6403 47.1481 60.155C47.1481 59.7416 46.8695 59.3911 46.4921 59.2923C46.9234 58.5194 47.3728 57.7556 47.921 57.0186C49.269 57.5848 51.2551 57.3332 51.983 56.3806C52.6031 55.5808 52.2436 54.9068 51.0933 54.763C49.5656 54.6461 48.3074 55.2572 47.238 56.3806C46.9594 56.1829 46.6988 55.9582 46.5011 55.6886C47.0762 55.0236 47.4806 54.3676 47.7682 53.1723C48.0737 51.5637 47.3099 50 46.2674 50C45.216 50 44.4521 51.5637 44.7576 53.1723C45.0452 54.3676 45.4496 55.0236 46.0248 55.6886C45.8271 55.9582 45.5664 56.1829 45.2879 56.3806C44.2184 55.2572 42.9603 54.6461 41.4325 54.763C40.2822 54.9068 39.9228 55.5808 40.5429 56.3806C41.2708 57.3332 43.2569 57.5848 44.6049 57.0186ZM46.2674 57.8724C45.9978 57.3961 45.7282 56.9737 45.4406 56.5963C45.7372 56.4165 46.0158 56.2009 46.2674 55.8683C46.5101 56.2009 46.7886 56.4165 47.0852 56.5963C46.7976 56.9737 46.528 57.3961 46.2674 57.8724ZM46.2674 55.3471C45.0812 54.1609 45.1171 51.1503 46.2674 51.1144C47.4087 51.1503 47.4447 54.1609 46.2674 55.3471ZM50.7518 56.749C49.8711 57.1714 49.0982 57.0995 48.1816 56.749C48.586 55.9492 50.4013 55.1764 51.309 55.6167C51.6954 55.8234 51.7224 56.2368 50.7518 56.749ZM41.774 56.749C42.6547 57.1714 43.4276 57.0995 44.3443 56.749C43.9398 55.9492 42.1245 55.1764 41.2169 55.6167C40.8304 55.8234 40.8035 56.2368 41.774 56.749ZM17.3301 54.3316V50.8358H16.045V57.8095C16.045 58.3397 16.018 58.9778 16.0001 59.3732H17.0964L17.1594 58.4925H17.1953C17.6087 59.1845 18.2198 59.49 19.0016 59.49C20.2688 59.49 21.5629 58.4925 21.5629 56.3536C21.5629 54.5653 20.6013 53.379 19.1993 53.379C18.3456 53.379 17.7165 53.7295 17.3481 54.3316H17.3301ZM17.3301 55.9043C17.3301 55.1224 17.9232 54.3676 18.741 54.3676C19.7565 54.3676 20.2598 55.2932 20.2598 56.4075C20.2598 57.6567 19.7116 58.5015 18.723 58.5015C17.8783 58.5015 17.3301 57.8005 17.3301 57.0546V55.9043ZM27.1077 55.7695C27.1077 54.5203 26.6134 53.379 24.8161 53.379C23.9983 53.379 23.2703 53.6037 22.839 53.8733L23.1086 54.6911C23.495 54.4484 24.0522 54.2867 24.5914 54.2867C25.8226 54.2867 25.8226 55.1584 25.8226 55.5987C23.7287 55.5987 22.4076 56.3177 22.4076 57.7735C22.4076 58.6812 23.0636 59.49 24.205 59.49C24.9688 59.49 25.5709 59.1485 25.9124 58.6902H25.9484L26.0383 59.3732H27.1975C27.1257 58.9867 27.1077 58.4835 27.1077 57.9802V55.7695ZM25.8585 57.3961C25.8585 58.0791 25.2834 58.5823 24.5824 58.5823C24.1061 58.5823 23.6837 58.2948 23.6837 57.6477C23.6837 56.6053 24.852 56.4255 25.8585 56.4255V57.3961ZM33.7758 55.7875C33.7758 53.9811 32.7154 53.379 31.7538 53.379C30.8372 53.379 30.1901 53.8823 29.9026 54.3855H29.8756L29.8037 53.5048H28.6893C28.7073 54.0081 28.7343 54.5113 28.7343 55.1584V59.3732H30.0194V55.8414C30.0194 54.9068 30.6934 54.4035 31.3225 54.4035C32.2032 54.4035 32.4907 55.1045 32.4907 55.9313V59.3732H33.7758V55.7875ZM38.0535 55.9223L40.2104 53.5048H38.6916L37.1728 55.4639C37.0111 55.6706 36.8493 55.9223 36.7055 56.1469H36.6786V50.8358H35.3935V59.3732H36.6786V57.2703L37.1818 56.6772L38.9342 59.3732H40.4889L38.0535 55.9223ZM57.2312 52.4084L56.054 56.1739C55.8653 56.794 55.6945 57.3691 55.5597 57.9623H55.5238C55.389 57.3691 55.2272 56.776 55.0295 56.1649L53.8432 52.4084H52.1897L54.7419 59.472H56.2068L58.8309 52.4084H57.2312ZM61.4999 52.4084H59.9632V59.472H61.4999V52.4084ZM68.1681 58.142C67.8176 58.2768 67.3953 58.4206 66.7931 58.4206C65.517 58.4206 64.5824 57.4949 64.5824 55.9492C64.5824 54.5653 65.3732 53.4329 66.8021 53.4329C67.4222 53.4329 67.8446 53.5857 68.1142 53.7205L68.4197 52.5792C68.0962 52.4174 67.4941 52.2557 66.7931 52.2557C64.4476 52.2557 63.0187 53.8733 63.0187 56.0121C63.0187 58.2139 64.3937 59.6158 66.4966 59.6158C67.3413 59.6158 68.0333 59.4091 68.3748 59.2563L68.1681 58.142ZM70.0553 52.4084H69.0219V53.5228H70.0553V57.1804C70.0553 58.0971 70.2261 58.6902 70.5945 59.0766C70.9181 59.4181 71.4303 59.6158 72.0414 59.6158C72.5536 59.6158 72.967 59.5529 73.2276 59.4451L73.1737 58.3038C72.994 58.3577 72.8053 58.3936 72.4997 58.3936C71.8527 58.3936 71.5741 57.9712 71.5741 57.0995V53.5228H73.3085V52.4084H71.5741V50.665L70.0553 51.1233V52.4084ZM77.6042 52.2557C75.681 52.2557 74.1713 53.6037 74.1713 55.9852C74.1713 58.2678 75.6091 59.6158 77.5053 59.6158C79.1409 59.6158 80.9113 58.5194 80.9113 55.8863C80.9113 53.7205 79.6082 52.2557 77.6042 52.2557ZM79.3386 55.9223C79.3386 57.3332 78.6556 58.5015 77.5413 58.5015C76.4179 58.5015 75.7439 57.3332 75.7439 55.9492C75.7439 54.727 76.2472 53.37 77.5503 53.37C78.8354 53.37 79.3386 54.754 79.3386 55.9223ZM86.0967 52.2916C85.9619 52.2647 85.863 52.2557 85.7102 52.2557C84.9194 52.2557 84.1555 52.8039 83.823 53.7025H83.7691L83.7152 52.4084H82.3851C82.4211 53.0645 82.4391 53.7385 82.4391 54.5653V59.472H83.9668V55.7246C83.9668 54.5024 84.6139 53.6756 85.6473 53.6756C85.8181 53.6756 85.9619 53.6936 86.0967 53.7205V52.2916ZM88.8196 52.4084H87.2919V59.472H88.8196V52.4084ZM95.9012 55.1224C95.9012 53.6306 95.2991 52.2557 93.1602 52.2557C92.1807 52.2557 91.318 52.5253 90.8057 52.8488L91.1203 53.8284C91.5876 53.5408 92.2436 53.3431 92.8996 53.3431C94.3645 53.3431 94.3645 54.3945 94.3645 54.9247C91.8662 54.9247 90.2935 55.7965 90.2935 57.5489C90.2935 58.6363 91.0663 59.6158 92.4323 59.6158C93.349 59.6158 94.0589 59.2024 94.4723 58.6542H94.5083L94.6161 59.472H96.0001C95.9102 59.0137 95.9012 58.3936 95.9012 57.7915V55.1224ZM94.4004 57.0905C94.4004 57.9083 93.7174 58.5194 92.8817 58.5194C92.3155 58.5194 91.8122 58.1779 91.8122 57.3961C91.8122 56.1379 93.1962 55.9223 94.4004 55.9223V57.0905Z" fill="#FF0000"/>
</g>
<rect x="1" y="1" width="110" height="110" rx="9" stroke="#CCCCCC" stroke-width="2"/>
<defs>
<clipPath id="clip0_517_515">
<rect x="2" y="2" width="108" height="108" rx="8" fill="white"/>
</clipPath>
</defs>
</svg>
