<svg width="112" height="112" viewBox="0 0 112 112" fill="none" xmlns="http://www.w3.org/2000/svg">
<g clip-path="url(#clip0_528_591)">
<rect x="2" y="2" width="108" height="108" rx="8" fill="white"/>
<path fill-rule="evenodd" clip-rule="evenodd" d="M37.6023 69.2887L41.9754 42.3375H19.3373C17.6804 42.3375 16.3373 43.6807 16.3373 45.3375V66.2887C16.3373 67.9455 17.6804 69.2887 19.3373 69.2887H37.6023Z" fill="url(#paint0_linear_528_591)"/>
<path fill-rule="evenodd" clip-rule="evenodd" d="M41.9754 42.3375L37.6023 69.2887H69.2867L64.9149 42.3375H41.9754Z" fill="url(#paint1_linear_528_591)"/>
<path fill-rule="evenodd" clip-rule="evenodd" d="M64.9149 42.3375L69.2867 69.2887H92.6613C94.3182 69.2887 95.6613 67.9455 95.6613 66.2887V45.3375C95.6613 43.6807 94.3182 42.3375 92.6613 42.3375H64.9149Z" fill="url(#paint2_linear_528_591)"/>
<path fill-rule="evenodd" clip-rule="evenodd" d="M19.7213 42.0001H92.2787C93.3027 42.0001 94.2327 42.4194 94.9074 43.0927C95.582 43.7674 96 44.6974 96 45.7215V65.9046C96 66.9287 95.5807 67.8587 94.9074 68.5333C94.2327 69.208 93.3027 69.6259 92.2787 69.6259H19.7213C18.6973 69.6259 17.7673 69.2066 17.0926 68.5333C16.418 67.8587 16 66.9287 16 65.9046V45.7215C16 44.6974 16.4193 43.7674 17.0926 43.0927C17.7673 42.4181 18.6973 42.0001 19.7213 42.0001ZM92.2773 42.6761H19.7213C18.8841 42.6761 18.1221 43.0188 17.5711 43.5712C17.0187 44.1235 16.676 44.8842 16.676 45.7215V65.9046C16.676 66.7418 17.0187 67.5039 17.5711 68.0549C18.1234 68.6072 18.8841 68.9499 19.7213 68.9499H92.2787C93.1159 68.9499 93.8779 68.6072 94.429 68.0549C94.9813 67.5025 95.324 66.7418 95.324 65.9046V45.7215C95.324 44.8842 94.9813 44.1222 94.429 43.5712C93.8766 43.0188 93.1159 42.6761 92.2787 42.6761H92.2773Z" fill="white"/>
<path fill-rule="evenodd" clip-rule="evenodd" d="M36.5016 46.6758C36.3484 46.8236 36.3148 46.8989 36.2153 47.0911C36.1306 47.2564 36.0514 47.4311 35.9774 47.6138C35.7328 48.22 35.546 48.9161 35.3821 49.6593C34.9009 51.8472 34.6792 53.9706 34.3056 56.1518C34.2465 56.4999 34.1725 56.8937 34.0489 57.2606C33.8836 57.7551 33.635 58.204 33.1659 58.4607C33.0087 58.5467 32.8286 58.6112 32.6203 58.6502H26.4369C26.7621 58.3048 27.0376 57.6301 27.2782 56.766C27.4663 56.0913 27.633 55.3038 27.7862 54.4679C28.0604 52.9667 28.231 51.4481 28.477 49.9429C28.6759 48.7266 29.1167 47.0252 30.2187 46.6758H36.5002H36.5016Z" fill="#F0B300"/>
<path fill-rule="evenodd" clip-rule="evenodd" d="M44.3784 56.3104C44.3784 56.5644 44.3408 56.7996 44.2668 57.016C44.1902 57.2297 44.0854 57.4245 43.9483 57.5952C43.8113 57.7659 43.6473 57.9164 43.4551 58.0468C43.2629 58.1745 43.0466 58.2847 42.8073 58.372C42.5654 58.4594 42.3074 58.5252 42.0332 58.5682C41.7591 58.6126 41.4433 58.6341 41.0898 58.6341H38.6223C38.5108 58.6341 38.406 58.6018 38.3065 58.5373C38.2071 58.4715 38.1573 58.3572 38.1573 58.196V50.971C38.1573 50.8084 38.2071 50.6955 38.3065 50.6296C38.406 50.5651 38.5108 50.5329 38.6223 50.5329H40.7686C41.3317 50.5329 41.794 50.5772 42.1528 50.67C42.5144 50.7614 42.8154 50.8971 43.0546 51.0718C43.2965 51.2465 43.478 51.4629 43.5976 51.7169C43.7199 51.9709 43.7817 52.2598 43.7817 52.5797C43.7817 52.7719 43.7548 52.956 43.6997 53.1307C43.6473 53.3054 43.568 53.468 43.4632 53.6159C43.3584 53.7637 43.2293 53.8954 43.0694 54.0137C42.9122 54.1306 42.7307 54.2247 42.5265 54.3026C42.7832 54.3429 43.0251 54.4195 43.2481 54.5311C43.4726 54.6399 43.6661 54.781 43.8354 54.9517C44.0021 55.1224 44.1338 55.324 44.2319 55.5538C44.3287 55.7823 44.3784 56.0349 44.3784 56.3104ZM88.2442 56.2029C88.2442 56.4919 88.1999 56.7526 88.1071 56.9851C88.013 57.2203 87.8854 57.4272 87.7241 57.6073C87.5601 57.7874 87.3653 57.9406 87.1395 58.0683C86.9151 58.1987 86.6637 58.3062 86.3923 58.3895C86.1208 58.4728 85.8292 58.5346 85.5201 58.5736C85.211 58.6139 84.8669 58.6327 84.4866 58.6327H81.9788C81.8175 58.6327 81.6818 58.5924 81.5729 58.5104C81.4627 58.4298 81.409 58.2968 81.409 58.1126V51.049C81.409 50.8648 81.4641 50.7331 81.5729 50.6511C81.6831 50.5705 81.8175 50.5289 81.9788 50.5289H84.3495C84.9274 50.5289 85.4179 50.5719 85.8184 50.6552C86.2189 50.7385 86.5576 50.8648 86.8317 51.0328C87.1086 51.2022 87.3169 51.4158 87.4647 51.6739C87.6085 51.9319 87.6838 52.2383 87.6838 52.5891C87.6838 52.7853 87.6542 52.9694 87.5937 53.1428C87.536 53.3162 87.4513 53.4734 87.3397 53.6145C87.2282 53.7583 87.0911 53.882 86.9258 53.9908C86.7645 54.0997 86.5777 54.187 86.3681 54.2542C86.6369 54.2972 86.8842 54.3698 87.1099 54.4746C87.3344 54.5795 87.5333 54.7125 87.6999 54.8791C87.8666 55.0431 88.001 55.2366 88.0977 55.4584C88.1945 55.6788 88.2415 55.9261 88.2415 56.2016L88.2442 56.2029ZM85.7633 52.792C85.7633 52.6281 85.7337 52.4816 85.676 52.3539C85.6182 52.2235 85.5295 52.116 85.4125 52.0314C85.2983 51.9454 85.1505 51.8795 84.9717 51.8325C84.7943 51.7881 84.5578 51.7639 84.2621 51.7639H83.2905V53.8672H84.3643C84.6411 53.8672 84.8629 53.8389 85.0268 53.7838C85.1935 53.7287 85.3306 53.6495 85.4408 53.5527C85.551 53.4546 85.6303 53.339 85.6854 53.206C85.7378 53.0756 85.7647 52.9372 85.7647 52.792H85.7633ZM86.2512 56.2607C86.2512 56.0726 86.2162 55.9032 86.141 55.7567C86.0684 55.6076 85.9622 55.4826 85.8224 55.3831C85.68 55.285 85.5012 55.2057 85.2822 55.152C85.0631 55.0982 84.7796 55.0713 84.4274 55.0713H83.2891V57.3748H84.6761C84.9422 57.3748 85.1666 57.352 85.3507 57.3022C85.5322 57.2552 85.6894 57.1853 85.8238 57.0913C85.9582 56.9972 86.063 56.8803 86.1369 56.7405C86.2122 56.5994 86.2485 56.4408 86.2485 56.262L86.2512 56.2607ZM80.7558 51.2062C80.7558 51.3285 80.7478 51.4306 80.7357 51.5166C80.7236 51.6026 80.7061 51.6725 80.6806 51.7236C80.655 51.7747 80.6255 51.815 80.5905 51.8392C80.5529 51.8647 80.5139 51.8782 80.4682 51.8782H78.1043V58.4096C78.1043 58.45 78.0895 58.4889 78.0572 58.5212C78.025 58.5548 77.9726 58.583 77.9 58.6018C77.8274 58.6233 77.728 58.6408 77.603 58.6529C77.4807 58.6663 77.3261 58.6717 77.1393 58.6717C76.9525 58.6717 76.8007 58.665 76.6757 58.6529C76.5534 58.6395 76.4539 58.6233 76.3814 58.6018C76.3061 58.583 76.2537 58.5548 76.2241 58.5212C76.1919 58.4889 76.1771 58.4513 76.1771 58.4096V51.8782H73.8118C73.7647 51.8782 73.7217 51.8647 73.6895 51.8392C73.6545 51.8163 73.625 51.7747 73.5994 51.7236C73.5766 51.6725 73.5578 51.6013 73.5443 51.5166C73.5349 51.4306 73.5268 51.3285 73.5268 51.2062C73.5268 51.0839 73.5349 50.975 73.5443 50.8877C73.5564 50.8003 73.5766 50.7291 73.5994 50.678C73.625 50.6243 73.6545 50.588 73.6895 50.5651C73.7217 50.5423 73.7647 50.5315 73.8118 50.5315H80.4655C80.5099 50.5315 80.5502 50.5423 80.5879 50.5651C80.6228 50.588 80.6524 50.6256 80.6779 50.678C80.7034 50.7291 80.7209 50.8003 80.733 50.8877C80.7451 50.975 80.7532 51.0825 80.7532 51.2062H80.7558ZM72.8791 58.0562C72.8791 58.153 72.8589 58.2376 72.8213 58.3142C72.781 58.3895 72.7286 58.4513 72.664 58.4997C72.5969 58.5508 72.5202 58.587 72.4302 58.6112C72.3402 58.6327 72.2488 58.6448 72.156 58.6448H71.3389C71.1696 58.6448 71.0204 58.6301 70.8981 58.6005C70.7731 58.5723 70.6589 58.5198 70.5541 58.4419C70.4493 58.3653 70.3471 58.2605 70.2504 58.1274C70.1536 57.9971 70.0434 57.8264 69.9238 57.6167L67.5732 53.8295C67.4389 53.6024 67.2991 53.3619 67.158 53.1011C67.0182 52.8404 66.8919 52.5864 66.779 52.3405H66.7642C66.7844 52.6402 66.7991 52.9385 66.8086 53.2382C66.8166 53.5379 66.8207 53.8457 66.8207 54.1615V58.4016C66.8207 58.4419 66.8086 58.4809 66.7803 58.5131C66.7548 58.5467 66.7078 58.575 66.6432 58.5991C66.5761 58.622 66.4887 58.6395 66.3772 58.6529C66.2656 58.6663 66.1205 58.6717 65.9458 58.6717C65.771 58.6717 65.634 58.665 65.5224 58.6529C65.4109 58.6395 65.3235 58.6233 65.259 58.5991C65.1972 58.575 65.1542 58.5481 65.13 58.5131C65.1045 58.4809 65.0924 58.4432 65.0924 58.4016V51.1188C65.0924 50.924 65.1596 50.7775 65.2939 50.678C65.4256 50.5799 65.591 50.5302 65.7845 50.5302H66.8153C66.9994 50.5302 67.1539 50.5436 67.2816 50.5705C67.4093 50.5987 67.5208 50.6431 67.6203 50.7049C67.7197 50.7667 67.8152 50.8541 67.9012 50.9656C67.9885 51.0745 68.0786 51.2116 68.17 51.3742L70.0098 54.3362C70.1173 54.5163 70.2221 54.6937 70.3256 54.8657C70.4304 55.0391 70.5326 55.2124 70.6293 55.3845C70.7261 55.5578 70.8215 55.7285 70.9129 55.8952C71.0056 56.0618 71.0943 56.2285 71.1817 56.3951H71.1898C71.175 56.1021 71.1642 55.7984 71.1575 55.4799C71.1494 55.1641 71.1481 54.8603 71.1481 54.5741V50.7721C71.1481 50.7318 71.1629 50.6928 71.1911 50.6592C71.2207 50.627 71.2704 50.5974 71.3376 50.5719C71.4048 50.549 71.4948 50.5289 71.6064 50.5208C71.7179 50.51 71.8631 50.5033 72.0378 50.5033C72.2125 50.5033 72.3415 50.51 72.4531 50.5208C72.5646 50.5289 72.652 50.549 72.7124 50.5719C72.7743 50.5974 72.8173 50.627 72.8401 50.6592C72.8656 50.6928 72.8777 50.7318 72.8777 50.7721V58.0535L72.8791 58.0562ZM63.7699 58.4715C63.7699 58.5037 63.7605 58.5333 63.7431 58.5588C63.7229 58.5844 63.6906 58.6032 63.6436 58.6206C63.5966 58.6381 63.5334 58.6502 63.4487 58.6596C63.3668 58.6677 63.2619 58.6731 63.1356 58.6731C63.0093 58.6731 62.8964 58.669 62.8117 58.6623C62.727 58.6556 62.6545 58.6448 62.598 58.6327C62.5389 58.618 62.4905 58.5965 62.4542 58.5682C62.4193 58.5427 62.387 58.5078 62.3575 58.4715L59.5863 55.3536V58.4782C59.5863 58.5104 59.5769 58.54 59.5567 58.5615C59.5366 58.5844 59.5043 58.6045 59.4626 58.6206C59.4183 58.6381 59.3578 58.6502 59.2812 58.6596C59.2019 58.6677 59.1025 58.6731 58.9802 58.6731C58.8659 58.6731 58.7678 58.669 58.6885 58.6596C58.6119 58.6516 58.5488 58.6381 58.5044 58.6206C58.4574 58.6032 58.4251 58.5844 58.4103 58.5615C58.3929 58.54 58.3835 58.5104 58.3835 58.4782V50.1136C58.3835 50.08 58.3929 50.0491 58.4103 50.0262C58.4251 50.0007 58.4574 49.9792 58.5044 49.9617C58.5488 49.9469 58.6119 49.9335 58.6885 49.9254C58.7678 49.9174 58.8659 49.912 58.9802 49.912C59.1025 49.912 59.2019 49.916 59.2812 49.9254C59.3578 49.9335 59.4183 49.9469 59.4626 49.9617C59.5056 49.9792 59.5379 50.0007 59.5567 50.0262C59.5769 50.0491 59.5863 50.08 59.5863 50.1136V55.2084L62.0672 52.8686C62.1048 52.8256 62.1465 52.792 62.1922 52.7638C62.2338 52.7383 62.2862 52.7141 62.3494 52.6953C62.4085 52.6764 62.4811 52.6657 62.5631 52.659C62.6451 52.6523 62.7445 52.6482 62.8614 52.6482C62.9784 52.6482 63.0859 52.6523 63.1679 52.659C63.2498 52.6657 63.317 52.6738 63.3694 52.6885C63.4192 52.7033 63.4568 52.7221 63.4796 52.7463C63.4998 52.7678 63.5119 52.8001 63.5119 52.8364C63.5119 52.8874 63.4944 52.9372 63.4649 52.9856C63.4326 53.0366 63.3802 53.0944 63.3076 53.1603L60.9289 55.203L63.5979 58.1758C63.6597 58.2457 63.7054 58.3035 63.7323 58.3492C63.7592 58.3922 63.7726 58.4325 63.7726 58.4715H63.7699ZM57.2492 58.4782C57.2492 58.5104 57.2398 58.54 57.2196 58.5615C57.1995 58.5844 57.1699 58.6045 57.1255 58.6206C57.0812 58.6381 57.0207 58.6502 56.9441 58.6596C56.8648 58.6677 56.7667 58.6731 56.6525 58.6731C56.5302 58.6731 56.4307 58.669 56.3514 58.6596C56.2748 58.6516 56.2144 58.6381 56.17 58.6206C56.127 58.6032 56.0948 58.5844 56.0759 58.5615C56.0558 58.54 56.0464 58.5104 56.0464 58.4782V55.1788C56.0464 54.8563 56.0195 54.5969 55.959 54.4034C55.9012 54.2072 55.8166 54.0378 55.705 53.8954C55.5935 53.7543 55.4483 53.6454 55.2696 53.5702C55.0922 53.4949 54.8879 53.4573 54.6541 53.4573C54.353 53.4573 54.052 53.5487 53.7496 53.7328C53.4459 53.9169 53.1301 54.1857 52.8008 54.5405V58.4795C52.8008 58.5118 52.7914 58.5414 52.7712 58.5629C52.7511 58.5857 52.7188 58.6059 52.6771 58.622C52.6328 58.6395 52.5723 58.6516 52.4957 58.661C52.4164 58.669 52.317 58.6744 52.1947 58.6744C52.0804 58.6744 51.9823 58.6704 51.903 58.661C51.8264 58.6529 51.7633 58.6395 51.7189 58.622C51.6719 58.6045 51.6396 58.5857 51.6249 58.5629C51.6074 58.5414 51.598 58.5118 51.598 58.4795V52.8444C51.598 52.8108 51.606 52.7826 51.6208 52.7584C51.6356 52.7369 51.6652 52.7154 51.7082 52.6966C51.7525 52.6778 51.8076 52.667 51.8775 52.6603C51.9447 52.6536 52.0348 52.6496 52.1463 52.6496C52.2578 52.6496 52.3425 52.6536 52.4124 52.6603C52.4823 52.667 52.5374 52.6778 52.5764 52.6966C52.614 52.7154 52.6435 52.7369 52.661 52.7584C52.6758 52.7813 52.6866 52.8095 52.6866 52.8444V53.5903C53.0548 53.2355 53.423 52.9748 53.7926 52.8108C54.1582 52.6469 54.5304 52.5636 54.9027 52.5636C55.3408 52.5636 55.7091 52.6281 56.0087 52.7557C56.3071 52.8821 56.5517 53.0527 56.7358 53.2637C56.9199 53.4774 57.0516 53.7274 57.1323 54.0123C57.2143 54.2986 57.2546 54.6426 57.2546 55.0418V58.4809L57.2492 58.4782ZM50.4906 58.4849C50.4906 58.5346 50.4704 58.5723 50.4314 58.5965C50.3938 58.622 50.3387 58.6408 50.2715 58.6542C50.2016 58.6677 50.1022 58.6731 49.9732 58.6731C49.8441 58.6731 49.7447 58.6663 49.6694 58.6542C49.5942 58.6408 49.5404 58.622 49.5055 58.5965C49.4705 58.5736 49.4558 58.5346 49.4558 58.4849V57.9205C49.1668 58.1839 48.8483 58.3881 48.4948 58.5333C48.1441 58.6784 47.7705 58.7537 47.3767 58.7537C47.03 58.7537 46.7168 58.7147 46.4373 58.6368C46.1578 58.5602 45.9199 58.4486 45.7223 58.3035C45.5261 58.1556 45.3716 57.9769 45.2614 57.7646C45.1538 57.5509 45.1001 57.309 45.1001 57.0375C45.1001 56.719 45.1753 56.4462 45.3245 56.211C45.4764 55.9785 45.6928 55.7836 45.975 55.6291C46.2559 55.4732 46.6026 55.3576 47.0111 55.281C47.4197 55.2044 47.8807 55.1654 48.3914 55.1654H49.2958V54.7273C49.2958 54.5096 49.2689 54.3174 49.2165 54.1507C49.1614 53.9841 49.0768 53.8457 48.9572 53.7355C48.8375 53.6239 48.683 53.5406 48.4935 53.4828C48.304 53.4277 48.0702 53.3995 47.7933 53.3995C47.495 53.3995 47.2302 53.429 46.9937 53.4895C46.7571 53.5513 46.5502 53.6172 46.3741 53.6898C46.1954 53.7623 46.0476 53.8282 45.9279 53.89C45.8083 53.9505 45.721 53.9801 45.6618 53.9801C45.6242 53.9801 45.5893 53.972 45.5597 53.9559C45.5301 53.9384 45.5046 53.9129 45.4831 53.8793C45.4629 53.847 45.4455 53.804 45.4361 53.7516C45.4267 53.7005 45.4213 53.6427 45.4213 53.5809C45.4213 53.4761 45.4307 53.3928 45.4482 53.3336C45.4656 53.2732 45.5059 53.2167 45.5731 53.1603C45.6377 53.1065 45.7505 53.0433 45.9118 52.9694C46.0717 52.8969 46.2559 52.831 46.4642 52.7692C46.6738 52.7087 46.9023 52.6603 47.1509 52.62C47.3969 52.5797 47.6495 52.5595 47.9035 52.5595C48.3739 52.5595 48.7757 52.6066 49.1063 52.698C49.4369 52.7893 49.7044 52.9251 49.9087 53.1025C50.1129 53.2799 50.2621 53.5003 50.3548 53.7623C50.4476 54.0258 50.4946 54.3308 50.4946 54.6816V58.4836L50.4906 58.4849ZM49.2931 55.9113H48.265C47.9344 55.9113 47.6468 55.9355 47.4036 55.9812C47.1617 56.0309 46.9601 56.1008 46.7988 56.1949C46.6389 56.2889 46.5193 56.4018 46.4454 56.5322C46.3701 56.6652 46.3338 56.8144 46.3338 56.9851C46.3338 57.2781 46.4413 57.5106 46.6577 57.6839C46.8741 57.8573 47.1778 57.9446 47.5662 57.9446C47.882 57.9446 48.1736 57.8761 48.4451 57.7377C48.7139 57.6006 48.9975 57.3896 49.2945 57.1047V55.9099L49.2931 55.9113ZM42.4888 52.6859C42.4888 52.4896 42.4566 52.3122 42.3948 52.1537C42.3329 51.9951 42.2335 51.8607 42.0964 51.7491C41.9593 51.6376 41.7833 51.5529 41.5629 51.4951C41.3438 51.4373 41.0549 51.4078 40.6933 51.4078H39.3965V54.0325H40.8264C41.153 54.0325 41.4164 53.9962 41.6153 53.9209C41.8142 53.8484 41.9795 53.7502 42.1112 53.6279C42.2429 53.5043 42.3383 53.3605 42.4001 53.1965C42.4593 53.0299 42.4902 52.8606 42.4902 52.6859H42.4888ZM43.0587 56.3723C43.0587 56.1303 43.0143 55.9167 42.9216 55.7352C42.8315 55.5511 42.7025 55.3952 42.5278 55.2716C42.3558 55.1452 42.1394 55.0512 41.88 54.9853C41.618 54.9208 41.2927 54.8886 40.8963 54.8886H39.3951V57.7444H41.2175C41.5064 57.7444 41.755 57.7148 41.9701 57.657C42.1838 57.5993 42.3733 57.5119 42.5359 57.3963C42.6998 57.2834 42.8275 57.1396 42.9189 56.969C43.0116 56.7983 43.0587 56.5994 43.0587 56.3723Z" fill="white"/>
<path fill-rule="evenodd" clip-rule="evenodd" d="M24.4828 52.6482C24.804 54.1077 24.9519 55.5242 25.2005 56.9797C25.2408 57.2108 25.2892 57.4742 25.3712 57.7188C25.4814 58.0481 25.6467 58.3478 25.9598 58.5198C26.0646 58.5776 26.1842 58.6193 26.324 58.6461H26.4409C26.7648 58.2994 27.039 57.6261 27.2795 56.766C27.4677 56.0913 27.6343 55.3038 27.7875 54.4679C28.0187 53.2046 28.1759 51.9292 28.3668 50.6578H23.7356C23.8377 50.7573 23.8606 50.807 23.9264 50.9347C23.9829 51.0449 24.0353 51.1618 24.085 51.2841C24.2476 51.6886 24.3726 52.1536 24.4815 52.6482H24.4828Z" fill="#00ABE6"/>
<path fill-rule="evenodd" clip-rule="evenodd" d="M28.3668 50.6592C28.1759 51.9292 28.0187 53.2046 27.7875 54.4692C27.6343 55.3051 27.4677 56.094 27.2795 56.7673C27.039 57.6274 26.7648 58.3008 26.4409 58.6475H31.7736C31.5573 58.4177 31.3731 57.9675 31.2119 57.3909C31.0869 56.9407 30.9753 56.4152 30.8732 55.8575C30.6904 54.8563 30.5762 53.8429 30.4122 52.839C30.2805 52.0273 29.9849 50.893 29.2497 50.6605H28.3654L28.3668 50.6592Z" fill="#007BBF"/>
<path fill-rule="evenodd" clip-rule="evenodd" d="M69.2343 62.0543H69.0166C69.0475 61.7626 69.0636 61.5409 69.0636 61.3904C69.0636 61.1767 69.0058 61.0074 68.8902 60.8837C68.7746 60.7601 68.6187 60.6983 68.4198 60.6983C68.1148 60.6983 67.8473 60.8098 67.6189 61.0302C67.3904 61.2506 67.2775 61.4992 67.2775 61.7747C67.2775 61.9212 67.3084 62.0556 67.3716 62.1752C67.4334 62.2948 67.5718 62.4615 67.7855 62.6765C68.1766 63.0595 68.4346 63.3606 68.5569 63.5769C68.6792 63.7947 68.741 64.0057 68.741 64.2126C68.741 64.5164 68.6483 64.808 68.4629 65.0889C68.2774 65.3697 68.0059 65.6022 67.6457 65.7837C67.2856 65.9665 66.9052 66.0565 66.5047 66.0565C66.1043 66.0565 65.775 65.953 65.5049 65.7474C65.2347 65.5404 65.0977 65.3241 65.0977 65.0969C65.0977 64.9746 65.1326 64.8738 65.2052 64.7919C65.2764 64.7112 65.357 64.6709 65.4484 64.6709C65.5398 64.6709 65.6218 64.7085 65.6823 64.7838C65.7226 64.8281 65.7602 64.9289 65.8005 65.0848C65.8449 65.2743 65.8986 65.4114 65.9631 65.4961C66.0277 65.5807 66.115 65.6493 66.2279 65.7044C66.3408 65.7581 66.4631 65.785 66.5961 65.785C66.9939 65.785 67.342 65.6506 67.6404 65.3818C67.936 65.1144 68.0866 64.8161 68.0866 64.4922C68.0866 64.3806 68.0677 64.2704 68.0301 64.1602C67.9925 64.05 67.9253 63.925 67.8231 63.7866C67.7546 63.6912 67.6 63.5245 67.3608 63.2853C67.1243 63.0515 66.9765 62.8915 66.9146 62.8055C66.8273 62.6805 66.7641 62.5542 66.7225 62.4279C66.6808 62.3016 66.6593 62.1752 66.6593 62.0502C66.6593 61.7962 66.7453 61.5436 66.9146 61.2869C67.084 61.0302 67.3044 60.8273 67.5759 60.6754C67.8473 60.5235 68.1551 60.4469 68.5005 60.4469C68.6725 60.4469 68.8862 60.4738 69.1388 60.5262C69.284 60.5531 69.409 60.5746 69.5151 60.5894C69.4533 60.7708 69.4063 60.9402 69.3727 61.1001C69.3404 61.26 69.2947 61.5772 69.2356 62.0529L69.2343 62.0543ZM69.585 62.776C69.839 62.5919 70.0326 62.4991 70.1696 62.4991C70.2866 62.4991 70.3968 62.573 70.5002 62.7209C70.7059 63.0071 70.8645 63.4211 70.9773 63.964C71.0902 64.5069 71.1467 64.9706 71.1467 65.3577C71.1467 65.6345 71.0701 65.906 70.9182 66.1761C70.7677 66.4449 70.5621 66.6774 70.3027 66.8723C70.1132 67.0134 69.9331 67.0846 69.7638 67.0846C69.6993 67.0846 69.5797 67.0658 69.4049 67.0268C69.241 66.9905 69.112 66.9731 69.0179 66.9731C68.8956 66.9731 68.7975 67.0026 68.7249 67.0631C68.6537 67.1236 68.6161 67.1948 68.6161 67.2781C68.6161 67.3722 68.6631 67.4542 68.7558 67.5214C68.8499 67.5899 68.9883 67.6235 69.1711 67.6235C69.413 67.6235 69.6697 67.559 69.9398 67.43C70.2113 67.301 70.4922 67.0873 70.7825 66.7876C71.0728 66.4879 71.3953 66.031 71.7474 65.4141C72.0995 64.7972 72.3576 64.222 72.5215 63.6858C72.6868 63.1496 72.7675 62.7034 72.7675 62.3446C72.7675 62.2048 72.7379 62.0986 72.6774 62.0247C72.6169 61.9495 72.539 61.9105 72.4422 61.9105C72.3643 61.9105 72.2998 61.9374 72.2487 61.9898C72.1963 62.0422 72.1707 62.1094 72.1707 62.19C72.1707 62.2707 72.1963 62.4118 72.246 62.608C72.293 62.7827 72.3172 62.9225 72.3172 63.03C72.3172 63.538 72.0821 64.2247 71.6117 65.0916C71.6171 64.9599 71.6197 64.8631 71.6197 64.7999C71.6197 64.3067 71.5351 63.7987 71.3684 63.2746C71.2018 62.7504 70.9948 62.3325 70.7502 62.0247C70.6978 61.9575 70.6414 61.9239 70.5836 61.9239C70.5258 61.9239 70.4613 61.9414 70.3914 61.9736C70.2691 62.0314 70.0581 62.1645 69.7571 62.3714L69.448 62.5798L69.5823 62.776H69.585ZM75.8612 61.8567L76.1367 61.7989L75.8235 62.8553C75.6999 63.2746 75.5816 63.7584 75.4688 64.3067C75.4069 64.6051 75.3774 64.7972 75.3774 64.8819C75.3774 64.9666 75.411 65.0109 75.4808 65.0109C75.5252 65.0109 75.5964 64.9827 75.6945 64.9236C75.8666 64.8201 76.0319 64.6924 76.1904 64.5392L76.3248 64.7018C76.0077 64.9908 75.8047 65.1682 75.7147 65.2286C75.5373 65.3496 75.3666 65.441 75.2067 65.4988C75.1019 65.5377 74.997 65.5566 74.8976 65.5566C74.825 65.5566 74.7712 65.5391 74.735 65.5068C74.6973 65.4732 74.6812 65.4249 74.6812 65.3603C74.6812 65.3187 74.6933 65.2622 74.7135 65.1897L74.8801 64.6225C74.6409 64.9088 74.356 65.1547 74.0254 65.3603C73.8211 65.488 73.6356 65.5525 73.465 65.5525C73.2943 65.5525 73.18 65.4961 73.0927 65.3818C72.9758 65.2273 72.918 65.0284 72.918 64.7811C72.918 64.4868 72.9973 64.1589 73.1545 63.7974C73.3117 63.4358 73.5214 63.1066 73.7875 62.8123C74.0509 62.5179 74.3304 62.3002 74.6221 62.1618C74.8465 62.057 75.1368 62.0032 75.4889 62.0032C75.579 62.0032 75.669 62.0086 75.7604 62.0207L75.8598 61.8567H75.8612ZM75.3438 62.4964C75.1932 62.4655 75.0656 62.4494 74.9634 62.4494C74.7121 62.4494 74.4944 62.5193 74.3076 62.6564C74.1208 62.7948 73.9488 63.0421 73.7875 63.3996C73.6276 63.757 73.5483 64.1132 73.5483 64.4693C73.5483 64.6588 73.5792 64.7959 73.6437 64.8779C73.7082 64.9625 73.7915 65.0029 73.895 65.0029C74.0872 65.0029 74.2928 64.9007 74.5132 64.6924C74.7323 64.4854 74.8935 64.1871 74.9957 63.7974L75.3438 62.4951V62.4964ZM77.3758 65.4383H76.7535L77.0452 64.3161C77.1876 63.7651 77.3113 63.2423 77.4174 62.7464C77.443 62.6241 77.4551 62.5488 77.4551 62.5166C77.4551 62.4494 77.4255 62.4171 77.3637 62.4171C77.322 62.4171 77.2589 62.4454 77.1715 62.5032C77.0855 62.5596 76.9296 62.7007 76.7038 62.9265L76.5748 62.7813C76.8422 62.4951 77.1083 62.2801 77.3744 62.1363C77.6405 61.9938 77.8448 61.9212 77.9873 61.9212C78.037 61.9212 78.076 61.9347 78.1055 61.9575C78.1338 61.9817 78.1499 62.0113 78.1499 62.0476C78.1499 62.0838 78.1311 62.1806 78.0961 62.3352L77.916 63.0824C78.1969 62.6389 78.5141 62.2626 78.8675 61.9468C79.0369 61.7962 79.178 61.7223 79.2922 61.7223C79.3769 61.7223 79.4454 61.7492 79.5019 61.803C79.557 61.8567 79.5852 61.9199 79.5852 61.9925C79.5852 62.065 79.5583 62.1322 79.5032 62.1846C79.4495 62.2371 79.3137 62.3002 79.0974 62.3728C78.8904 62.4427 78.7237 62.5247 78.5947 62.6214C78.4657 62.7195 78.3233 62.8674 78.1687 63.0689C78.0155 63.2692 77.9066 63.4439 77.8448 63.5931C77.783 63.7409 77.6889 64.0876 77.5653 64.6306L77.3771 65.4396L77.3758 65.4383ZM80.9439 60.1338C81.0299 60.1338 81.1011 60.162 81.1562 60.2198C81.2114 60.2763 81.2409 60.3515 81.2409 60.4389C81.2409 60.5612 81.1979 60.67 81.1132 60.7628C81.0286 60.8568 80.9332 60.9025 80.8283 60.9025C80.7437 60.9025 80.6751 60.8743 80.6187 60.8152C80.5636 60.7574 80.5367 60.6794 80.5367 60.5854C80.5367 60.4604 80.577 60.3529 80.6577 60.2669C80.7369 60.1782 80.8337 60.1338 80.9453 60.1338H80.9439ZM79.3003 62.8969C79.5435 62.6577 79.7021 62.5152 79.7734 62.4709C79.8446 62.4265 79.9077 62.4037 79.9628 62.4037C80.0139 62.4037 80.0381 62.4319 80.0381 62.4884C80.0381 62.5381 80.0287 62.5959 80.0099 62.659C79.5919 64.011 79.3836 64.8617 79.3836 65.2085C79.3836 65.3173 79.4118 65.402 79.4696 65.4638C79.5261 65.5256 79.604 65.5552 79.7021 65.5552C79.8137 65.5552 79.9561 65.5055 80.1322 65.406C80.3069 65.3052 80.5851 65.0754 80.9654 64.7166L80.8028 64.558C80.4359 64.9021 80.2074 65.0754 80.1187 65.0754C80.0959 65.0754 80.0744 65.062 80.0556 65.0351C80.0354 65.0096 80.026 64.9773 80.026 64.937C80.026 64.7341 80.1738 64.1387 80.4695 63.1523C80.6509 62.5488 80.7396 62.2048 80.7396 62.1255C80.7396 62.0583 80.7168 62.0059 80.6684 61.9656C80.6214 61.9266 80.5528 61.9078 80.4641 61.9078C80.3029 61.9078 80.1066 61.9736 79.8768 62.1027C79.647 62.2317 79.3944 62.4494 79.1162 62.7545L79.3003 62.8969ZM84.0605 61.8567L84.336 61.7989L84.0228 62.8553C83.8992 63.2746 83.7809 63.7584 83.6681 64.3067C83.6062 64.6051 83.5767 64.7972 83.5767 64.8819C83.5767 64.9666 83.6103 65.0109 83.6801 65.0109C83.7245 65.0109 83.7957 64.9827 83.8938 64.9236C84.0659 64.8201 84.2312 64.6924 84.3897 64.5392L84.5241 64.7018C84.207 64.9908 84.004 65.1682 83.914 65.2286C83.7366 65.3496 83.5659 65.441 83.406 65.4988C83.3012 65.5377 83.1963 65.5566 83.0969 65.5566C83.0243 65.5566 82.9706 65.5391 82.9343 65.5068C82.8966 65.4732 82.8805 65.4249 82.8805 65.3603C82.8805 65.3187 82.8913 65.2622 82.9128 65.1897L83.0794 64.6225C82.8402 64.9088 82.5553 65.1547 82.2247 65.3603C82.0204 65.488 81.8349 65.5525 81.6643 65.5525C81.4936 65.5525 81.3793 65.4961 81.292 65.3818C81.1751 65.2273 81.1173 65.0284 81.1173 64.7811C81.1173 64.4868 81.1966 64.1589 81.3538 63.7974C81.511 63.4358 81.7207 63.1066 81.9868 62.8123C82.2502 62.5179 82.5297 62.3002 82.8214 62.1618C83.0458 62.057 83.3361 62.0032 83.6896 62.0032C83.7796 62.0032 83.8696 62.0086 83.961 62.0207L84.0605 61.8567ZM83.5431 62.4964C83.3925 62.4655 83.2649 62.4494 83.1627 62.4494C82.9114 62.4494 82.6937 62.5193 82.5069 62.6564C82.3201 62.7948 82.1481 63.0421 81.9868 63.3996C81.8269 63.757 81.7476 64.1132 81.7476 64.4693C81.7476 64.6588 81.7785 64.7959 81.843 64.8779C81.9075 64.9625 81.9908 65.0029 82.0943 65.0029C82.2865 65.0029 82.4921 64.9007 82.7125 64.6924C82.9316 64.4854 83.0929 64.1871 83.195 63.7974L83.5431 62.4951V62.4964ZM88.1541 64.554L88.2629 64.7072C88.0076 64.9921 87.7442 65.2165 87.4754 65.3832C87.2913 65.4974 87.1394 65.5539 87.0198 65.5539C86.923 65.5539 86.8451 65.5149 86.7846 65.4369C86.7241 65.359 86.6946 65.238 86.6946 65.0741C86.6946 64.9625 86.7174 64.8013 86.7631 64.5889C86.8088 64.3752 86.9392 63.9197 87.1529 63.2168C87.2483 62.8714 87.2953 62.6711 87.2953 62.6134C87.2953 62.5179 87.2483 62.4709 87.1529 62.4709C87.0359 62.4709 86.8908 62.5287 86.7161 62.6456C86.4715 62.8069 86.2538 63.0125 86.0656 63.2638C85.946 63.4251 85.8493 63.6643 85.7767 63.9815L85.4434 65.4329H84.8211C84.9555 64.9451 85.059 64.5486 85.1303 64.2395L85.7444 61.5597C85.856 61.0678 86.0025 60.6888 86.1852 60.4227C86.368 60.1567 86.6059 59.9457 86.8989 59.7857C87.1918 59.6271 87.4835 59.5479 87.7697 59.5479C87.8893 59.5479 87.9834 59.5774 88.0533 59.6366C88.1232 59.6943 88.1568 59.7683 88.1568 59.857C88.1568 59.9322 88.1232 59.9981 88.056 60.0545C87.9874 60.111 87.8947 60.1405 87.7778 60.1405C87.7106 60.1405 87.6246 60.1338 87.5184 60.1204C87.2792 60.0868 87.1139 60.0693 87.0212 60.0693C86.8948 60.0693 86.7887 60.1217 86.7094 60.2252C86.6287 60.3273 86.5441 60.5706 86.458 60.9523L85.9904 63.0138C86.321 62.6658 86.6811 62.3728 87.0709 62.1336C87.2993 61.9911 87.4821 61.9199 87.6205 61.9199C87.7294 61.9199 87.8141 61.9521 87.8759 62.018C87.9377 62.0838 87.9673 62.1752 87.9673 62.2908C87.9673 62.3849 87.9579 62.4803 87.935 62.5744C87.9001 62.7383 87.8141 63.0353 87.6797 63.4681C87.4982 64.0635 87.3934 64.4344 87.3612 64.5782C87.3303 64.7233 87.3141 64.8537 87.3141 64.9666C87.3141 65.0109 87.3209 65.0445 87.337 65.066C87.3518 65.0889 87.3746 65.0996 87.4055 65.0996C87.4727 65.0996 87.5977 65.0203 87.7818 64.8617C87.884 64.7744 88.0103 64.6723 88.1568 64.5526L88.1541 64.554Z" fill="white"/>
</g>
<rect x="1" y="1" width="110" height="110" rx="9" stroke="#CCCCCC" stroke-width="2"/>
<defs>
<linearGradient id="paint0_linear_528_591" x1="41.9754" y1="55.8131" x2="16.3373" y2="55.8131" gradientUnits="userSpaceOnUse">
<stop stop-color="#00693F"/>
<stop offset="1" stop-color="#008A44"/>
</linearGradient>
<linearGradient id="paint1_linear_528_591" x1="69.2867" y1="55.8131" x2="37.6023" y2="55.8131" gradientUnits="userSpaceOnUse">
<stop stop-color="#00693F"/>
<stop offset="1" stop-color="#008A44"/>
</linearGradient>
<linearGradient id="paint2_linear_528_591" x1="95.6613" y1="55.8131" x2="64.9149" y2="55.8131" gradientUnits="userSpaceOnUse">
<stop stop-color="#00693F"/>
<stop offset="1" stop-color="#008A44"/>
</linearGradient>
<clipPath id="clip0_528_591">
<rect x="2" y="2" width="108" height="108" rx="8" fill="white"/>
</clipPath>
</defs>
</svg>
