<svg width="112" height="112" viewBox="0 0 112 112" fill="none" xmlns="http://www.w3.org/2000/svg">
<g clip-path="url(#clip0_528_51)">
<rect x="2" y="2" width="108" height="108" rx="8" fill="white"/>
<path d="M16.0724 53.5236C16.0569 53.0624 16.031 52.6011 15.9999 52.1399C16.1191 52.1554 16.2538 52.1658 16.3937 52.1762C16.5388 52.1865 16.6943 52.1917 16.8757 52.1917C17.1815 52.1917 17.5028 52.1814 17.8344 52.1658C18.1713 52.1503 18.4926 52.1399 18.7984 52.1399C19.1041 52.1399 19.4099 52.171 19.6742 52.2332C19.9385 52.2954 20.1665 52.3938 20.3582 52.5286C20.55 52.6633 20.7003 52.8343 20.8039 53.0416C20.9076 53.2541 20.9594 53.5029 20.9594 53.7983C20.9594 54.0936 20.8972 54.3424 20.778 54.5497C20.6536 54.7622 20.5085 54.9332 20.3323 55.0731C20.1561 55.213 19.9696 55.3219 19.7623 55.3996C19.5602 55.4773 19.3736 55.5343 19.2078 55.5602V55.581C19.3736 55.5913 19.5653 55.6276 19.783 55.695C20.0058 55.7624 20.2131 55.866 20.4152 56.0111C20.6122 56.1562 20.7832 56.3376 20.9231 56.5604C21.063 56.7833 21.1304 57.0579 21.1304 57.3793C21.1304 57.7627 21.063 58.0944 20.9231 58.3639C20.7832 58.6334 20.6018 58.8562 20.3686 59.0272C20.1354 59.1983 19.8711 59.3174 19.5705 59.3848C19.2699 59.4522 18.9642 59.4885 18.6429 59.4885C18.3579 59.4885 18.0935 59.4885 17.85 59.4781C17.6064 59.4729 17.3473 59.4677 17.0778 59.4677H16.487C16.2849 59.4677 16.1243 59.4729 15.9999 59.4885C16.031 59.048 16.0569 58.5971 16.0724 58.1359C16.088 57.6746 16.0983 57.1512 16.0983 56.5604V55.1042C16.0983 54.5134 16.0932 53.9848 16.0724 53.5288M19.3218 53.5184C19.2803 53.3629 19.2181 53.2334 19.1248 53.1245C19.0316 53.0157 18.9124 52.9224 18.7724 52.8551C18.6325 52.7877 18.4511 52.7566 18.2387 52.7566C18.0832 52.7566 17.9744 52.7566 17.9122 52.7566C17.85 52.7566 17.7878 52.7721 17.7152 52.7825C17.6997 53.0468 17.6893 53.3163 17.6841 53.5858C17.679 53.8553 17.6738 54.0833 17.6738 54.2698C17.6738 54.4564 17.6738 54.6482 17.6738 54.8192C17.6738 54.9954 17.679 55.1768 17.679 55.3581H18.1609C18.3112 55.3581 18.4563 55.3322 18.6066 55.2752C18.7517 55.2182 18.8813 55.1353 18.9953 55.0213C19.1093 54.9125 19.2026 54.7725 19.2751 54.6015C19.3477 54.4305 19.384 54.2336 19.384 54.0055C19.384 53.8345 19.3632 53.6739 19.327 53.5184M19.1248 56.3428C18.902 56.094 18.5755 55.9748 18.1454 55.9748C18.0469 55.9748 17.9588 55.9748 17.8914 55.9748C17.8189 55.9748 17.7515 55.98 17.6893 55.98C17.6893 56.1303 17.6893 56.2858 17.6841 56.4464C17.6841 56.6071 17.6841 56.7988 17.6841 57.0165C17.6841 57.1875 17.6841 57.3637 17.6841 57.5399C17.6841 57.7161 17.6893 57.8923 17.6893 58.0633C17.6893 58.2343 17.6893 58.3898 17.6893 58.5349C17.6893 58.68 17.6945 58.794 17.6945 58.8873C17.793 58.8925 17.8863 58.8977 17.9744 58.9029C18.0625 58.9029 18.1609 58.9029 18.2853 58.9029C18.4408 58.9029 18.5911 58.8718 18.7362 58.8044C18.8813 58.7422 19.0056 58.6489 19.1093 58.5194C19.2181 58.395 19.301 58.2447 19.3632 58.0633C19.4254 57.8871 19.4617 57.6798 19.4617 57.4414C19.4617 56.9439 19.3477 56.5708 19.1248 56.3221" fill="#6F6F6E"/>
<path d="M28.2561 59.4833C28.0851 59.4677 27.9245 59.4626 27.769 59.4626H26.8569C26.7066 59.4626 26.5511 59.4677 26.4008 59.4833C26.2868 59.1309 26.1676 58.7785 26.0484 58.4157C25.9293 58.053 25.7997 57.6902 25.665 57.3222C25.4369 57.3171 25.2089 57.3119 24.9809 57.3067C24.7529 57.3067 24.5248 57.3015 24.2968 57.3015C24.1102 57.3015 23.9289 57.3015 23.7423 57.3067C23.5557 57.3067 23.3692 57.3171 23.1878 57.3222C23.0427 57.685 22.9131 58.0478 22.7939 58.4157C22.6695 58.7785 22.5607 59.1361 22.4623 59.4833C22.3742 59.4677 22.2912 59.4626 22.2083 59.4626H21.7004C21.6123 59.4626 21.5191 59.4677 21.4206 59.4833C21.5035 59.2967 21.6227 59.0428 21.7626 58.7111C21.9077 58.3846 22.0632 58.0115 22.2342 57.5969C22.4052 57.1823 22.5866 56.7418 22.7836 56.265C22.9805 55.7883 23.1774 55.3115 23.3743 54.8244C23.5713 54.3372 23.763 53.8604 23.9496 53.3888C24.1362 52.9173 24.3124 52.4768 24.4678 52.0725C24.5404 52.0881 24.6078 52.0984 24.6699 52.1088C24.7321 52.1192 24.7995 52.1244 24.8721 52.1244C24.9446 52.1244 25.012 52.1192 25.0742 52.1088C25.1364 52.0984 25.2037 52.0881 25.2763 52.0725C25.5043 52.6789 25.7479 53.3267 26.007 54.0159C26.2661 54.7103 26.5304 55.3892 26.7947 56.0526C27.059 56.7211 27.3181 57.3533 27.5669 57.9493C27.8156 58.5453 28.0437 59.0531 28.2509 59.4677M24.4678 54.1299C24.2813 54.5601 24.1051 54.9798 23.9444 55.3996C23.7786 55.8142 23.6179 56.2443 23.4625 56.6744H25.4214C25.2659 56.2391 25.1104 55.8142 24.955 55.3996C24.7995 54.9798 24.6388 54.5601 24.4678 54.1299Z" fill="#6F6F6E"/>
<path d="M29.4326 53.0261C29.417 52.6892 29.4067 52.3938 29.4015 52.1399C29.5984 52.1762 29.7591 52.1917 29.8834 52.1917C30.0078 52.1917 30.1633 52.171 30.3654 52.1399C31.1427 53.0002 31.9097 53.8501 32.6664 54.6844C33.4282 55.5188 34.2055 56.3687 35.0036 57.229V55.2597C35.0036 54.9124 35.0036 54.5652 34.9984 54.2284C34.9984 53.8915 34.9932 53.5754 34.9881 53.2904C34.9881 53.0053 34.9777 52.7618 34.9673 52.5545C34.957 52.3472 34.9466 52.2073 34.931 52.1347C35.1332 52.171 35.2938 52.1865 35.413 52.1865C35.5322 52.1865 35.6929 52.1658 35.895 52.1347C35.8587 52.7825 35.8328 53.3681 35.812 53.8967C35.7913 54.4201 35.7706 54.9124 35.7602 55.3789C35.7447 55.8401 35.7343 56.3013 35.7343 56.7522C35.7343 57.203 35.7291 57.685 35.7291 58.2032V59.4885C35.584 59.4729 35.4389 59.4677 35.2886 59.4677C35.1383 59.4677 34.9932 59.4729 34.874 59.4885C33.4074 57.7783 31.8475 56.0577 30.1996 54.3217C30.1944 54.529 30.1892 54.7363 30.184 54.9435C30.184 55.1508 30.1788 55.3581 30.1788 55.5758V56.8144C30.1788 57.2445 30.1788 57.6073 30.184 57.9027C30.184 58.2032 30.1944 58.4572 30.1996 58.6645C30.2047 58.8718 30.2151 59.0376 30.2203 59.1723C30.2255 59.3019 30.2358 59.4107 30.241 59.4885C30.1529 59.4729 30.07 59.4677 29.9819 59.4677H29.7331C29.5673 59.4677 29.4067 59.4729 29.2408 59.4885C29.2564 59.4315 29.2719 59.2293 29.2926 58.8769C29.3134 58.5297 29.3393 58.1048 29.3652 57.5969C29.3911 57.0942 29.4118 56.5501 29.4274 55.9593C29.4429 55.3737 29.4533 54.8036 29.4533 54.2647C29.4533 53.7723 29.4481 53.3577 29.4326 53.0261Z" fill="#6F6F6E"/>
<path d="M39.1754 58.1566C39.1805 58.7111 39.2065 59.1568 39.2479 59.4833C39.1287 59.4677 38.994 59.4625 38.8541 59.4625H37.8901C37.745 59.4625 37.6155 59.4677 37.4963 59.4833C37.5222 59.0428 37.5481 58.5919 37.5585 58.1307C37.574 57.6695 37.5792 57.146 37.5792 56.5553V55.099C37.5792 54.5082 37.574 53.9796 37.5585 53.5236C37.5429 53.0624 37.5222 52.6011 37.4963 52.1399C37.6155 52.1554 37.7502 52.1658 37.8901 52.1762C38.0301 52.1865 38.1907 52.1917 38.3721 52.1917C38.5535 52.1917 38.709 52.1865 38.8541 52.1762C38.994 52.1658 39.1287 52.1503 39.2479 52.1399C39.2116 52.3524 39.1857 52.6737 39.1805 53.1038C39.1702 53.5339 39.165 54.0055 39.165 54.5238V55.5499C39.4086 55.2648 39.6677 54.9539 39.9424 54.6119C40.2222 54.275 40.4865 53.9434 40.7456 53.622C41.0047 53.3007 41.2328 53.0053 41.4401 52.741C41.6473 52.4768 41.7976 52.2746 41.8909 52.1347C41.9894 52.1503 42.093 52.1606 42.1915 52.171C42.29 52.1814 42.3936 52.1865 42.4921 52.1865C42.5905 52.1865 42.6942 52.1814 42.7978 52.171C42.9015 52.1606 43.0155 52.1451 43.1347 52.1347C43.0103 52.2539 42.8289 52.4508 42.5802 52.7255C42.3314 52.995 42.0671 53.2904 41.7821 53.6013C41.5022 53.9174 41.2328 54.2232 40.9736 54.5186C40.7145 54.814 40.5176 55.0472 40.3777 55.2182C40.6057 55.5654 40.8596 55.9541 41.1343 56.3739C41.4141 56.7936 41.6888 57.2082 41.9635 57.6073C42.2381 58.0115 42.4921 58.3794 42.7305 58.7215C42.9637 59.0583 43.1554 59.3174 43.2953 59.4885C43.088 59.4729 42.9015 59.4677 42.7408 59.4677H41.7925C41.637 59.4677 41.4815 59.4729 41.326 59.4885C40.9633 58.9443 40.6057 58.395 40.2585 57.8353C39.9061 57.2756 39.5537 56.7159 39.1909 56.1614H39.1702C39.1702 56.9387 39.1702 57.6021 39.1805 58.1618" fill="#6F6F6E"/>
<path d="M52.4318 52.9536C52.0898 52.7566 51.67 52.6582 51.1829 52.6582C50.8564 52.6582 50.5299 52.7307 50.2034 52.8655C49.8769 53.0054 49.5919 53.2127 49.338 53.4925C49.084 53.7724 48.8819 54.1196 48.7212 54.5342C48.5658 54.9539 48.488 55.4411 48.488 56.006C48.488 56.4361 48.545 56.8299 48.6642 57.1927C48.7834 57.5555 48.9493 57.8716 49.1721 58.1411C49.395 58.4106 49.6644 58.6179 49.9857 58.7681C50.3071 58.9184 50.675 58.991 51.0896 58.991C51.1829 58.991 51.2865 58.991 51.4057 58.9754C51.5249 58.9651 51.6389 58.9547 51.7477 58.9392C51.8566 58.9236 51.9602 58.9029 52.0535 58.8822C52.1468 58.8562 52.2142 58.8303 52.2556 58.7992C52.2712 58.7111 52.2763 58.6075 52.2815 58.4779C52.2815 58.3484 52.2867 58.2084 52.2867 58.0478C52.2867 57.4726 52.2763 57.0424 52.2556 56.7678C52.2349 56.4931 52.2193 56.3065 52.2142 56.2081C52.2867 56.2236 52.38 56.234 52.4992 56.2443C52.6184 56.2547 52.7842 56.2599 53.0071 56.2599C53.2662 56.2599 53.4527 56.2547 53.5823 56.2443C53.7067 56.234 53.8051 56.2236 53.8777 56.2081C53.8621 56.2651 53.8518 56.3584 53.8414 56.4879C53.8311 56.6175 53.8207 56.7626 53.8155 56.9336C53.8103 57.0994 53.8051 57.2808 53.8 57.4674C53.8 57.6539 53.8 57.8353 53.8 58.0063V58.3587C53.8 58.5349 53.8 58.7008 53.8 58.8562C53.8 59.0117 53.8155 59.1205 53.8259 59.1827C53.3543 59.3175 52.8775 59.4263 52.4007 59.504C51.9188 59.5818 51.442 59.6232 50.9704 59.6232C50.3589 59.6232 49.794 59.5403 49.2758 59.3797C48.7575 59.219 48.3118 58.9858 47.9387 58.6749C47.5656 58.3639 47.2702 57.9908 47.0629 57.5503C46.8504 57.1098 46.7468 56.6175 46.7468 56.0681C46.7468 55.3893 46.8608 54.7985 47.0836 54.2906C47.3065 53.7827 47.6174 53.3578 48.0164 53.0157C48.4103 52.6789 48.8819 52.425 49.4209 52.2539C49.965 52.0829 50.5506 52 51.1777 52C51.7218 52 52.1882 52.057 52.5821 52.1658C52.976 52.2747 53.3698 52.4353 53.7533 52.6426C53.6963 52.8292 53.6393 53.0106 53.5875 53.1868C53.5357 53.363 53.489 53.5495 53.4527 53.7309H53.3025C53.0744 53.4096 52.7894 53.1505 52.4474 52.9536" fill="#6F6F6E"/>
<path d="M61.532 59.4833C61.361 59.4677 61.2004 59.4626 61.0449 59.4626H60.138C59.9825 59.4626 59.8322 59.4677 59.6819 59.4833C59.5679 59.1309 59.4487 58.7785 59.3295 58.4157C59.2103 58.053 59.0808 57.6902 58.946 57.3222C58.718 57.3171 58.49 57.3119 58.262 57.3067C58.0339 57.3067 57.8059 57.3015 57.5779 57.3015C57.3913 57.3015 57.2048 57.3015 57.0234 57.3067C56.8368 57.3067 56.6502 57.3171 56.4689 57.3222C56.3238 57.685 56.1942 58.0478 56.075 58.4157C55.9558 58.7785 55.8418 59.1361 55.7433 59.4833C55.6604 59.4677 55.5775 59.4626 55.4946 59.4626H54.9867C54.8986 59.4626 54.8105 59.4677 54.7069 59.4833C54.795 59.2967 54.909 59.0428 55.0489 58.7111C55.194 58.3846 55.3495 58.0115 55.5205 57.5969C55.6915 57.1823 55.8729 56.7418 56.0698 56.265C56.2668 55.7883 56.4637 55.3115 56.6554 54.8244C56.8524 54.3372 57.0441 53.8604 57.2307 53.3888C57.4172 52.9173 57.5934 52.4768 57.7489 52.0725C57.8215 52.0881 57.8888 52.0984 57.951 52.1088C58.0132 52.1192 58.0806 52.1244 58.1531 52.1244C58.2257 52.1244 58.2931 52.1192 58.3552 52.1088C58.4174 52.0984 58.49 52.0881 58.5574 52.0725C58.7854 52.6789 59.0289 53.3267 59.2881 54.0159C59.5472 54.7103 59.8115 55.3892 60.0758 56.0526C60.3401 56.7211 60.5992 57.3533 60.8428 57.9493C61.0915 58.5453 61.3195 59.0531 61.5268 59.4677M57.7437 54.1299C57.5572 54.5601 57.381 54.9798 57.2203 55.3996C57.0545 55.8142 56.8938 56.2443 56.7383 56.6744H58.6921C58.5366 56.2391 58.3812 55.8142 58.2257 55.3996C58.0702 54.9798 57.9096 54.5601 57.7385 54.1299" fill="#6F6F6E"/>
<path d="M62.7085 53.0261C62.6929 52.6892 62.6826 52.3938 62.6774 52.1399C62.8743 52.1762 63.0349 52.1917 63.1593 52.1917C63.2837 52.1917 63.4392 52.171 63.6413 52.1399C64.4186 53.0002 65.1856 53.8501 65.9474 54.6844C66.7092 55.5188 67.4866 56.3687 68.2847 57.229V55.2597C68.2847 54.9124 68.2847 54.5652 68.2795 54.2284C68.2795 53.8915 68.2743 53.5754 68.2691 53.2904C68.2691 53.0053 68.2588 52.7618 68.2484 52.5545C68.238 52.3472 68.2225 52.2073 68.2121 52.1347C68.4142 52.171 68.5749 52.1865 68.6941 52.1865C68.8133 52.1865 68.9739 52.1658 69.176 52.1347C69.1398 52.7825 69.1139 53.3681 69.0879 53.8967C69.0672 54.4201 69.0465 54.9124 69.0361 55.3789C69.0206 55.8401 69.0154 56.3013 69.0102 56.7522C69.0102 57.203 69.005 57.685 69.005 58.2032V59.4885C68.8599 59.4729 68.7148 59.4677 68.5645 59.4677C68.409 59.4677 68.2691 59.4729 68.1499 59.4885C66.6833 57.7783 65.1234 56.0577 63.4754 54.3217C63.4703 54.529 63.4651 54.7363 63.4599 54.9435C63.4599 55.1508 63.4547 55.3581 63.4547 55.5758V56.8144C63.4547 57.2445 63.4547 57.6073 63.4599 57.9027C63.4599 58.2032 63.4703 58.4572 63.4754 58.6645C63.4806 58.8718 63.491 59.0376 63.4962 59.1723C63.5014 59.3019 63.5117 59.4107 63.5169 59.4885C63.4288 59.4729 63.3459 59.4677 63.263 59.4677H63.0142C62.8484 59.4677 62.6877 59.4729 62.5219 59.4885C62.5374 59.4315 62.553 59.2293 62.5737 58.8769C62.5944 58.5297 62.6204 58.1048 62.6411 57.5969C62.667 57.0942 62.6877 56.5501 62.7033 55.9593C62.7188 55.3737 62.7292 54.8036 62.7292 54.2647C62.7292 53.7723 62.724 53.3577 62.7085 53.0261Z" fill="#6F6F6E"/>
<path d="M70.8292 53.5236C70.8188 53.0624 70.7981 52.6011 70.7722 52.1399C71.0935 52.1451 71.4096 52.1554 71.7257 52.171C72.0418 52.1865 72.358 52.1917 72.6741 52.1917C73.2027 52.1917 73.6691 52.1865 74.0785 52.1762C74.4879 52.1658 74.7626 52.1503 74.9077 52.1399C74.8766 52.2539 74.8662 52.4042 74.8662 52.5908C74.8662 52.7048 74.8662 52.7929 74.8766 52.8602C74.8818 52.9224 74.8973 52.995 74.9077 53.0727C74.7004 53.0572 74.4724 53.0416 74.2288 53.0313C73.9852 53.0157 73.7417 53.0002 73.5136 52.9898C73.2804 52.9743 73.0731 52.9639 72.8866 52.9587C72.7 52.9535 72.5704 52.9483 72.4927 52.9483C72.4616 53.3422 72.4461 53.7309 72.4409 54.1144C72.4409 54.4979 72.4409 54.8865 72.4409 55.2804C72.9021 55.2752 73.3219 55.2649 73.695 55.2493C74.0681 55.2338 74.462 55.2182 74.8662 55.1975C74.8455 55.3167 74.8299 55.41 74.8248 55.4773C74.8196 55.5395 74.8144 55.6069 74.8144 55.6794C74.8144 55.7364 74.8144 55.7935 74.8299 55.8556C74.8403 55.9178 74.8507 56.0007 74.8662 56.1148C74.0526 56.0526 73.2441 56.0163 72.4409 56.0163C72.4409 56.2443 72.4409 56.4723 72.4409 56.7004C72.4409 56.9284 72.4357 57.1564 72.4357 57.3844C72.4357 57.8457 72.4461 58.2913 72.4668 58.7215C72.871 58.7215 73.2804 58.7111 73.6846 58.6904C74.0889 58.6697 74.5035 58.6334 74.9129 58.5816C74.8973 58.6593 74.887 58.7318 74.8818 58.794C74.8766 58.8562 74.8714 58.9443 74.8714 59.0635C74.8714 59.1827 74.8714 59.2656 74.8818 59.333C74.887 59.3952 74.9025 59.4522 74.9129 59.4936C74.7211 59.4885 74.4827 59.4833 74.2029 59.4781C73.923 59.4781 73.5344 59.4729 73.042 59.4729H71.3474C71.1868 59.4729 71.0676 59.4729 70.9846 59.4781C70.9017 59.4781 70.8344 59.4885 70.7773 59.4936C70.8033 59.0531 70.8188 58.6023 70.8344 58.1411C70.8447 57.6798 70.8551 57.1564 70.8551 56.5604V55.1042C70.8551 54.5134 70.8499 53.9848 70.8344 53.5288" fill="#6F6F6E"/>
<path d="M78.1623 52.6582C77.8358 52.6582 77.5663 52.7566 77.359 52.9484C77.1517 53.1401 77.048 53.363 77.048 53.6221C77.048 53.8812 77.1258 54.104 77.2864 54.2699C77.4471 54.4357 77.6492 54.5912 77.8928 54.7259C78.1363 54.8607 78.3955 54.9902 78.6753 55.1146C78.9552 55.239 79.2143 55.3944 79.4578 55.5758C79.7014 55.7572 79.9035 55.98 80.059 56.2392C80.2197 56.4983 80.3026 56.8299 80.3026 57.2393C80.3026 57.5969 80.2352 57.9234 80.1005 58.2188C79.9657 58.5142 79.774 58.7681 79.52 58.9806C79.2713 59.1931 78.9707 59.3537 78.6287 59.4626C78.2814 59.5714 77.898 59.6284 77.4678 59.6284C77.0843 59.6284 76.7371 59.5869 76.4365 59.504C76.1308 59.4211 75.9027 59.3227 75.7473 59.1983C75.8198 58.9495 75.8768 58.7215 75.9287 58.5142C75.9805 58.3069 76.0219 58.0841 76.0582 57.8405H76.2603C76.2914 57.996 76.3432 58.1463 76.421 58.2862C76.4987 58.4261 76.5972 58.5505 76.7216 58.6541C76.8408 58.763 76.991 58.8459 77.1621 58.9081C77.3331 58.9703 77.5248 58.9962 77.7373 58.9962C78.1674 58.9962 78.4784 58.8873 78.6857 58.6749C78.8878 58.4624 78.9914 58.2033 78.9914 57.9027C78.9914 57.6332 78.9137 57.4104 78.7582 57.2393C78.6028 57.0683 78.4058 56.918 78.1674 56.7833C77.9342 56.6486 77.6751 56.5242 77.4005 56.3998C77.1206 56.2754 76.8667 56.1251 76.6283 55.9438C76.3951 55.7676 76.1981 55.5447 76.0427 55.2856C75.8872 55.0265 75.8043 54.6896 75.8043 54.2854C75.8043 53.9175 75.8717 53.5858 76.0012 53.3008C76.1308 53.0157 76.3122 52.7774 76.5298 52.5856C76.7527 52.3939 77.0066 52.2488 77.2916 52.1503C77.5818 52.0518 77.8876 52 78.2037 52C78.5872 52 78.9241 52.0466 79.2143 52.1399C79.5045 52.2332 79.7532 52.3628 79.9554 52.5234C79.8932 52.6893 79.8362 52.8447 79.7895 53.0002C79.7429 53.1557 79.6859 53.3474 79.6133 53.5806H79.4527C79.2246 52.9691 78.7945 52.6582 78.1571 52.6582" fill="#6F6F6E"/>
<path d="M85.6715 55.9178C85.402 55.9075 85.1325 55.9023 84.8578 55.9023C84.5832 55.9023 84.3137 55.9023 84.0442 55.9126C83.7747 55.9178 83.5001 55.9282 83.2306 55.9437V56.5553C83.2306 57.146 83.2358 57.6746 83.2513 58.1307C83.2669 58.5919 83.2876 59.0428 83.3135 59.4833C83.1943 59.4677 83.0596 59.4626 82.9196 59.4626H81.9557C81.8106 59.4626 81.6811 59.4677 81.5567 59.4833C81.5878 59.0428 81.6085 58.5919 81.6189 58.1307C81.6344 57.6695 81.6396 57.146 81.6396 56.5553V55.099C81.6396 54.5082 81.6344 53.9796 81.6189 53.5236C81.6033 53.0624 81.5826 52.6011 81.5567 52.1399C81.6759 52.1554 81.8106 52.1658 81.9557 52.1762C82.0956 52.1865 82.2563 52.1917 82.4377 52.1917C82.6191 52.1917 82.7745 52.1865 82.9196 52.1762C83.0647 52.1658 83.1943 52.1503 83.3135 52.1399C83.2772 52.6011 83.2565 53.0624 83.2461 53.5132C83.2358 53.9641 83.2306 54.4875 83.2306 55.0783C83.4171 55.0835 83.64 55.0887 83.8991 55.0938C84.1582 55.0938 84.4795 55.099 84.8682 55.099C85.2569 55.099 85.5678 55.099 85.8114 55.0938C86.055 55.0938 86.2778 55.0835 86.4851 55.0783C86.4851 54.4875 86.4799 53.9641 86.4644 53.5132C86.4488 53.0624 86.4281 52.6011 86.4022 52.1399C86.5214 52.1554 86.6561 52.1658 86.796 52.1762C86.936 52.1865 87.0966 52.1917 87.278 52.1917C87.4594 52.1917 87.6149 52.1865 87.76 52.1762C87.8999 52.1658 88.0346 52.1503 88.1538 52.1399C88.1227 52.6011 88.102 53.0675 88.0916 53.5236C88.0761 53.9848 88.0709 54.5082 88.0709 55.099V56.5553C88.0709 57.146 88.0761 57.6746 88.0916 58.1307C88.1072 58.5919 88.1279 59.0428 88.1538 59.4833C88.0346 59.4677 87.8999 59.4626 87.76 59.4626H86.796C86.6509 59.4626 86.5214 59.4677 86.4022 59.4833C86.4281 59.0428 86.4488 58.5919 86.4644 58.1307C86.4799 57.6695 86.4851 57.146 86.4851 56.5553V55.9437C86.2156 55.9386 85.9461 55.9282 85.6715 55.9178Z" fill="#6F6F6E"/>
<path d="M95.9999 59.4833C95.8289 59.4677 95.6682 59.4626 95.5127 59.4626H94.6058C94.4504 59.4626 94.3001 59.4677 94.1498 59.4833C94.0358 59.1309 93.9166 58.7785 93.7974 58.4157C93.673 58.053 93.5486 57.6902 93.4139 57.3222C93.1859 57.3171 92.9578 57.3119 92.7298 57.3067C92.5018 57.3067 92.2738 57.3015 92.0457 57.3015C91.8592 57.3015 91.6778 57.3015 91.4912 57.3067C91.3047 57.3067 91.1233 57.3171 90.9367 57.3222C90.7916 57.685 90.6621 58.0478 90.5429 58.4157C90.4237 58.7785 90.3097 59.1361 90.2112 59.4833C90.1283 59.4677 90.0402 59.4626 89.9624 59.4626H89.4546C89.3717 59.4626 89.2784 59.4677 89.1747 59.4833C89.2628 59.2967 89.3768 59.0428 89.5168 58.7111C89.6619 58.3846 89.8173 58.0115 89.9883 57.5969C90.1594 57.1823 90.3408 56.7418 90.5377 56.265C90.7346 55.7883 90.9315 55.3115 91.1285 54.8244C91.3254 54.3372 91.5172 53.8604 91.7037 53.3888C91.8903 52.9173 92.0665 52.4768 92.2219 52.0725C92.2945 52.0881 92.3619 52.0984 92.4241 52.1088C92.4862 52.1192 92.5536 52.1244 92.6262 52.1244C92.6987 52.1244 92.7661 52.1192 92.8283 52.1088C92.8905 52.0984 92.963 52.0881 93.0304 52.0725C93.2584 52.6789 93.502 53.3267 93.7611 54.0159C94.0202 54.7103 94.2845 55.3892 94.5488 56.0526C94.8131 56.7211 95.0671 57.3533 95.3158 57.9493C95.5646 58.5453 95.7926 59.0531 95.9999 59.4677M92.2168 54.1299C92.0302 54.5601 91.8592 54.9798 91.6933 55.3996C91.5275 55.8142 91.3669 56.2443 91.2114 56.6744H93.1651C93.0097 56.2391 92.8542 55.8142 92.6987 55.3996C92.5484 54.9798 92.3826 54.5601 92.2116 54.1299" fill="#6F6F6E"/>
</g>
<rect x="1" y="1" width="110" height="110" rx="9" stroke="#CCCCCC" stroke-width="2"/>
<defs>
<clipPath id="clip0_528_51">
<rect x="2" y="2" width="108" height="108" rx="8" fill="white"/>
</clipPath>
</defs>
</svg>
