<svg width="112" height="112" viewBox="0 0 112 112" fill="none" xmlns="http://www.w3.org/2000/svg">
<g clip-path="url(#clip0_528_601)">
<rect x="2" y="2" width="108" height="108" rx="8" fill="white"/>
<path fill-rule="evenodd" clip-rule="evenodd" d="M43.4201 72.8733L35.8367 66.6366V31.3866L43.4201 25.7133V72.8733ZM51.6201 79.62L44.6501 73.8866V24.7966L51.6201 19.5833V79.62ZM69.2467 25.7166L76.8301 31.3866V66.6366L69.2467 72.8733V25.7166ZM61.0467 19.5833L68.0167 24.7966V73.8866L61.0467 79.62V19.5833ZM56.3334 16.0566L59.8167 18.6633V80.63L56.3334 83.4966L52.8501 80.63V18.6633L56.3334 16.0566Z" fill="#009B4C"/>
<path fill-rule="evenodd" clip-rule="evenodd" d="M56.2401 28.5666C67.5034 28.5666 76.6467 37.7066 76.6467 48.97C76.6467 60.2333 67.5034 69.3733 56.2401 69.3733C44.9801 69.3733 35.8367 60.2333 35.8367 48.97C35.8367 37.7066 44.9801 28.5666 56.2401 28.5666Z" fill="#FEFEFE"/>
<path fill-rule="evenodd" clip-rule="evenodd" d="M73.8667 49.9233C73.3667 59.2166 65.6334 66.6433 56.2167 66.6433C46.8034 66.6433 39.0701 59.2166 38.5701 49.9233H73.8667ZM56.2167 31.2966C65.6034 31.2966 73.3167 38.6766 73.8601 47.9266H38.5767C39.1201 38.6766 46.8334 31.2966 56.2167 31.2966Z" fill="#FEFEFE"/>
<path fill-rule="evenodd" clip-rule="evenodd" d="M73.8834 49.9233C73.3834 59.2166 65.6501 66.6433 56.2334 66.6433C46.8201 66.6433 39.0834 59.2166 38.5867 49.9233H73.8834ZM56.2334 31.2966C65.6201 31.2966 73.3334 38.6766 73.8767 47.9266H38.5901C39.1334 38.6766 46.8501 31.2966 56.2334 31.2966Z" fill="#00A2E9"/>
<path fill-rule="evenodd" clip-rule="evenodd" d="M73.8867 47.9266H74.6001L76.8301 48.8366L74.6001 49.9233H73.8901C73.9067 49.6066 73.9167 49.29 73.9167 48.97C73.9167 48.62 73.9067 48.2733 73.8867 47.9266ZM35.9234 47.9266H38.5534C38.5301 48.2733 38.5201 48.62 38.5201 48.97C38.5201 49.29 38.5301 49.6066 38.5467 49.9233H35.9234L39.1134 48.8366L35.9234 47.9266Z" fill="#00A2E9"/>
<path fill-rule="evenodd" clip-rule="evenodd" d="M47.1101 33.7766C52.9901 37.2633 59.4067 37.28 65.1467 33.66L66.5434 34.59C61.0401 39.33 51.7301 39.58 45.6001 34.86L47.1101 33.7766Z" fill="#FEFEFE"/>
<path fill-rule="evenodd" clip-rule="evenodd" d="M41.7267 38.8966C50.2601 44.6133 61.7601 44.5333 70.4934 38.62C70.9934 39.2733 71.4167 39.9233 71.7301 40.5733C63.9167 46.52 50.0834 47.0166 40.5267 40.8466C40.8801 40.1966 41.2634 39.5466 41.7267 38.8966Z" fill="#FEFEFE"/>
<path fill-rule="evenodd" clip-rule="evenodd" d="M47.1101 64.1866C52.9901 60.7 59.4067 60.6833 65.1467 64.3033L66.5434 63.3733C61.0401 58.6333 51.7301 58.3833 45.6001 63.1L47.1101 64.1866Z" fill="#FEFEFE"/>
<path fill-rule="evenodd" clip-rule="evenodd" d="M41.7267 59.0433C50.2601 53.3266 61.7601 53.4066 70.4934 59.3166C70.9934 58.6666 71.4167 58.0166 71.7301 57.3633C63.9167 51.42 50.0834 50.92 40.5267 57.0933C40.8801 57.7433 41.2634 58.3933 41.7267 59.0433Z" fill="#FEFEFE"/>
<path d="M28.5867 89.3533C29.1167 89.47 29.4934 89.6133 29.7067 89.7833C30.0167 90.0233 30.1701 90.3333 30.1701 90.7166C30.1701 91.12 30.0001 91.4533 29.6601 91.7166C29.2434 92.0366 28.6401 92.1933 27.8467 92.1933H25.0001V92.05C25.2601 92.05 25.4334 92.0266 25.5267 91.98C25.6201 91.9333 25.6834 91.8733 25.7201 91.8C25.7601 91.7266 25.7767 91.5433 25.7767 91.2533V87.7733C25.7767 87.4866 25.7601 87.3033 25.7201 87.2266C25.6834 87.1533 25.6201 87.0933 25.5234 87.0466C25.4301 87.0033 25.2567 86.98 25.0001 86.98V86.8333H27.6867C28.3267 86.8333 28.7834 86.89 29.0501 86.9966C29.3167 87.1066 29.5267 87.27 29.6801 87.4866C29.8367 87.7066 29.9134 87.9366 29.9134 88.1833C29.9134 88.44 29.8167 88.67 29.6201 88.8733C29.4234 89.0733 29.0801 89.2333 28.5867 89.3533ZM27.0834 89.5533V91.2733L27.0767 91.47C27.0767 91.6133 27.1167 91.72 27.1934 91.7933C27.2667 91.8666 27.3801 91.9033 27.5301 91.9033C27.7501 91.9033 27.9534 91.8566 28.1367 91.7633C28.3234 91.6666 28.4667 91.5333 28.5667 91.3533C28.6634 91.1766 28.7134 90.9766 28.7134 90.76C28.7134 90.51 28.6534 90.2833 28.5334 90.0866C28.4134 89.8866 28.2467 89.7466 28.0334 89.67C27.8201 89.59 27.5034 89.55 27.0834 89.5533ZM27.0834 89.2466C27.4734 89.2466 27.7634 89.2033 27.9467 89.12C28.1334 89.0333 28.2767 88.9166 28.3767 88.7633C28.4767 88.61 28.5234 88.4166 28.5234 88.1766C28.5234 87.94 28.4767 87.7466 28.3767 87.5966C28.2801 87.4433 28.1401 87.3266 27.9601 87.25C27.7767 87.17 27.4834 87.1333 27.0834 87.1333V89.2466Z" fill="#332C2B"/>
<path d="M33.9867 90.67H32.0067L31.7734 91.19C31.6967 91.3633 31.6567 91.5066 31.6567 91.62C31.6567 91.77 31.7201 91.8833 31.8467 91.9533C31.9201 91.9966 32.1034 92.0266 32.3967 92.05V92.1933H30.5334V92.05C30.7334 92.02 30.9001 91.94 31.0301 91.81C31.1567 91.68 31.3167 91.41 31.5067 91L33.5134 86.7233H33.5901L35.6101 91.12C35.8034 91.5366 35.9634 91.7966 36.0867 91.9066C36.1801 91.9866 36.3134 92.0366 36.4834 92.05V92.1933H33.7734V92.05H33.8834C34.1001 92.05 34.2534 92.02 34.3434 91.96C34.4034 91.92 34.4334 91.86 34.4334 91.78C34.4334 91.7333 34.4267 91.6833 34.4101 91.6333C34.4034 91.61 34.3634 91.51 34.2834 91.3366L33.9867 90.67ZM33.8467 90.3766L33.0134 88.53L32.1534 90.3766H33.8467Z" fill="#332C2B"/>
<path d="M38.6867 86.8333L41.4501 90.16V87.8533C41.4501 87.5333 41.4001 87.3133 41.3067 87.2C41.1734 87.05 40.9501 86.9733 40.6401 86.98V86.8333H42.4901V86.98C42.2534 87.01 42.0934 87.0466 42.0134 87.0933C41.9334 87.14 41.8701 87.2133 41.8234 87.32C41.7767 87.4233 41.7567 87.6 41.7567 87.8533V92.3166H41.6134L37.8267 87.8533V91.2633C37.8267 91.57 37.9001 91.7766 38.0467 91.8866C38.1934 91.9933 38.3634 92.05 38.5534 92.05H38.6867V92.1933H36.6967V92.05C37.0067 92.0466 37.2201 91.9866 37.3434 91.8666C37.4634 91.7466 37.5234 91.5466 37.5234 91.2633V87.48L37.4034 87.3366C37.2867 87.1933 37.1801 87.1 37.0901 87.0566C37.0001 87.01 36.8701 86.9866 36.6967 86.98V86.8333H38.6867Z" fill="#332C2B"/>
<path d="M46.2134 88.8866L48.1834 91.2466C48.4634 91.5766 48.7034 91.8033 48.9034 91.9233C49.0501 92.0066 49.2034 92.05 49.3667 92.05V92.1933H46.4501V92.05C46.6334 92.0333 46.7534 92.0066 46.8067 91.9666C46.8601 91.9266 46.8867 91.8766 46.8867 91.82C46.8867 91.7066 46.7601 91.5 46.5067 91.1933L45.2234 89.65L45.0167 89.8133V91.2766C45.0167 91.5566 45.0334 91.73 45.0667 91.8C45.0967 91.8666 45.1601 91.9266 45.2567 91.9766C45.3501 92.0233 45.5001 92.05 45.7067 92.05V92.1933H42.8801V92.05H43.0667C43.2267 92.05 43.3601 92.02 43.4567 91.9666C43.5301 91.93 43.5834 91.8666 43.6234 91.7766C43.6534 91.7133 43.6701 91.5466 43.6701 91.2766V87.75C43.6701 87.4766 43.6534 87.3066 43.6234 87.2366C43.5934 87.17 43.5301 87.11 43.4401 87.0566C43.3467 87.0066 43.2234 86.98 43.0667 86.98H42.8801V86.8333H45.6701V86.98C45.4801 86.98 45.3334 87.0066 45.2334 87.06C45.1634 87.0966 45.1067 87.16 45.0667 87.2466C45.0334 87.31 45.0167 87.48 45.0167 87.75V89.42L47.0934 87.81C47.3834 87.5866 47.5267 87.4066 47.5267 87.2733C47.5267 87.1733 47.4701 87.0933 47.3501 87.0366C47.2901 87.0066 47.1401 86.9866 46.9001 86.98V86.8333H49.0867V86.98C48.8901 86.9933 48.7367 87.0266 48.6267 87.08C48.5134 87.1366 48.2567 87.3166 47.8534 87.63L46.2134 88.8866Z" fill="#332C2B"/>
<path d="M54.9134 88.8866L56.8834 91.2466C57.1601 91.5766 57.4001 91.8033 57.6034 91.9233C57.7467 92.0066 57.9034 92.05 58.0634 92.05V92.1933H55.1467V92.05C55.3334 92.0333 55.4501 92.0066 55.5034 91.9666C55.5601 91.9266 55.5867 91.8766 55.5867 91.82C55.5867 91.7066 55.4601 91.5 55.2067 91.1933L53.9201 89.65L53.7134 89.8133V91.2766C53.7134 91.5566 53.7301 91.73 53.7634 91.8C53.7967 91.8666 53.8601 91.9266 53.9534 91.9766C54.0467 92.0233 54.1967 92.05 54.4034 92.05V92.1933H51.5767V92.05H51.7634C51.9267 92.05 52.0567 92.02 52.1567 91.9666C52.2267 91.93 52.2834 91.8666 52.3201 91.7766C52.3501 91.7133 52.3667 91.5466 52.3667 91.2766V87.75C52.3667 87.4766 52.3501 87.3066 52.3201 87.2366C52.2901 87.17 52.2301 87.11 52.1367 87.0566C52.0434 87.0066 51.9201 86.98 51.7634 86.98H51.5767V86.8333H54.3667V86.98C54.1767 86.98 54.0334 87.0066 53.9334 87.06C53.8601 87.0966 53.8034 87.16 53.7634 87.2466C53.7301 87.31 53.7134 87.48 53.7134 87.75V89.42L55.7934 87.81C56.0801 87.5866 56.2267 87.4066 56.2267 87.2733C56.2267 87.1733 56.1667 87.0933 56.0467 87.0366C55.9867 87.0066 55.8367 86.9866 55.5967 86.98V86.8333H57.7834V86.98C57.5867 86.9933 57.4334 87.0266 57.3234 87.08C57.2101 87.1366 56.9534 87.3166 56.5534 87.63L54.9134 88.8866Z" fill="#332C2B"/>
<path d="M61.4901 90.67H59.5101L59.2767 91.19C59.1967 91.3633 59.1601 91.5066 59.1601 91.62C59.1601 91.77 59.2234 91.8833 59.3501 91.9533C59.4234 91.9966 59.6067 92.0266 59.9001 92.05V92.1933H58.0367V92.05C58.2367 92.02 58.4034 91.94 58.5301 91.81C58.6601 91.68 58.8201 91.41 59.0101 91L61.0134 86.7233H61.0934L63.1134 91.12C63.3067 91.5366 63.4667 91.7966 63.5901 91.9066C63.6834 91.9866 63.8167 92.0366 63.9867 92.05V92.1933H61.2767V92.05H61.3867C61.6034 92.05 61.7567 92.02 61.8467 91.96C61.9067 91.92 61.9367 91.86 61.9367 91.78C61.9367 91.7333 61.9267 91.6833 61.9134 91.6333C61.9067 91.61 61.8634 91.51 61.7867 91.3366L61.4901 90.67ZM61.3501 90.3766L60.5134 88.53L59.6567 90.3766H61.3501Z" fill="#332C2B"/>
<path d="M69.4234 90.3133L69.2134 92.1933H64.2367V92.05H64.4234C64.5867 92.05 64.7167 92.02 64.8167 91.9666C64.8867 91.93 64.9434 91.8666 64.9834 91.7766C65.0134 91.7133 65.0267 91.5466 65.0267 91.2766V87.75C65.0267 87.4766 65.0134 87.3066 64.9834 87.2366C64.9501 87.17 64.8901 87.11 64.7967 87.0566C64.7067 87.0066 64.5801 86.98 64.4234 86.98H64.2367V86.8333H67.2267V86.98H66.9801C66.8201 86.98 66.6867 87.0066 66.5901 87.0633C66.5167 87.1 66.4601 87.1633 66.4201 87.2533C66.3901 87.3166 66.3734 87.4833 66.3734 87.75V91.1666C66.3734 91.44 66.3901 91.6166 66.4234 91.69C66.4567 91.7666 66.5234 91.82 66.6167 91.86C66.6867 91.8833 66.8534 91.8933 67.1167 91.8933H67.5834C67.8834 91.8933 68.1301 91.8433 68.3301 91.7433C68.5267 91.6433 68.7001 91.4866 68.8434 91.27C68.9867 91.0533 69.1234 90.7333 69.2534 90.3133H69.4234Z" fill="#332C2B"/>
<path d="M73.4901 89.3533C74.0201 89.47 74.3934 89.6133 74.6101 89.7833C74.9167 90.0233 75.0734 90.3333 75.0734 90.7166C75.0734 91.12 74.9034 91.4533 74.5634 91.7166C74.1467 92.0366 73.5434 92.1933 72.7501 92.1933H69.9034V92.05C70.1634 92.05 70.3367 92.0266 70.4301 91.98C70.5234 91.9333 70.5867 91.8733 70.6234 91.8C70.6601 91.7266 70.6801 91.5433 70.6801 91.2533V87.7733C70.6801 87.4866 70.6601 87.3033 70.6234 87.2266C70.5867 87.1533 70.5201 87.0933 70.4267 87.0466C70.3334 87.0033 70.1601 86.98 69.9034 86.98V86.8333H72.5901C73.2301 86.8333 73.6867 86.89 73.9534 86.9966C74.2201 87.1066 74.4301 87.27 74.5834 87.4866C74.7401 87.7066 74.8167 87.9366 74.8167 88.1833C74.8167 88.44 74.7167 88.67 74.5234 88.8733C74.3267 89.0733 73.9834 89.2333 73.4901 89.3533ZM71.9867 89.5533V91.2733L71.9801 91.47C71.9801 91.6133 72.0201 91.72 72.0967 91.7933C72.1701 91.8666 72.2834 91.9033 72.4334 91.9033C72.6534 91.9033 72.8567 91.8566 73.0401 91.7633C73.2267 91.6666 73.3701 91.5333 73.4701 91.3533C73.5667 91.1766 73.6167 90.9766 73.6167 90.76C73.6167 90.51 73.5567 90.2833 73.4367 90.0866C73.3134 89.8866 73.1467 89.7466 72.9367 89.67C72.7234 89.59 72.4067 89.55 71.9867 89.5533ZM71.9867 89.2466C72.3767 89.2466 72.6667 89.2033 72.8501 89.12C73.0367 89.0333 73.1801 88.9166 73.2801 88.7633C73.3801 88.61 73.4267 88.4166 73.4267 88.1766C73.4267 87.94 73.3801 87.7466 73.2801 87.5966C73.1834 87.4433 73.0434 87.3266 72.8601 87.25C72.6801 87.17 72.3867 87.1333 71.9867 87.1333V89.2466Z" fill="#332C2B"/>
<path d="M78.8901 90.67H76.9101L76.6767 91.19C76.5967 91.3633 76.5601 91.5066 76.5601 91.62C76.5601 91.77 76.6234 91.8833 76.7501 91.9533C76.8234 91.9966 77.0067 92.0266 77.3001 92.05V92.1933H75.4367V92.05C75.6367 92.02 75.8034 91.94 75.9301 91.81C76.0601 91.68 76.2201 91.41 76.4101 91L78.4167 86.7233H78.4934L80.5134 91.12C80.7067 91.5366 80.8667 91.7966 80.9901 91.9066C81.0834 91.9866 81.2167 92.0366 81.3867 92.05V92.1933H78.6767V92.05H78.7867C79.0034 92.05 79.1567 92.02 79.2467 91.96C79.3067 91.92 79.3367 91.86 79.3367 91.78C79.3367 91.7333 79.3301 91.6833 79.3134 91.6333C79.3067 91.61 79.2667 91.51 79.1867 91.3366L78.8901 90.67ZM78.7501 90.3766L77.9134 88.53L77.0567 90.3766H78.7501Z" fill="#332C2B"/>
<path d="M83.7301 89.75V91.2533C83.7301 91.5433 83.7467 91.7266 83.7834 91.8C83.8234 91.8766 83.8867 91.9366 83.9801 91.98C84.0734 92.0266 84.2501 92.05 84.5067 92.05V92.1933H81.6401V92.05C81.8967 92.05 82.0734 92.0266 82.1667 91.98C82.2567 91.9333 82.3234 91.8733 82.3601 91.8C82.3967 91.7266 82.4134 91.5433 82.4134 91.2533V87.7733C82.4134 87.4866 82.3967 87.3033 82.3601 87.2266C82.3234 87.1533 82.2567 87.0933 82.1634 87.0466C82.0701 87.0033 81.8934 86.98 81.6401 86.98V86.8333H84.2401C84.9201 86.8333 85.4167 86.88 85.7301 86.97C86.0434 87.0566 86.3001 87.2233 86.4967 87.4633C86.6967 87.7066 86.7967 87.99 86.7967 88.3133C86.7967 88.7066 86.6467 89.0333 86.3501 89.2933C86.1601 89.4566 85.8934 89.58 85.5501 89.66L86.9001 91.4766C87.0734 91.71 87.2001 91.8566 87.2734 91.9133C87.3867 91.9966 87.5167 92.04 87.6667 92.05V92.1933H85.9034L84.0967 89.75H83.7301ZM83.7301 87.1233V89.47H83.9634C84.3467 89.47 84.6334 89.4366 84.8234 89.37C85.0134 89.3033 85.1634 89.18 85.2734 89.0066C85.3801 88.83 85.4367 88.6033 85.4367 88.32C85.4367 87.9133 85.3367 87.61 85.1367 87.4166C84.9367 87.22 84.6134 87.1233 84.1701 87.1233H83.7301Z" fill="#332C2B"/>
<path d="M25.5801 95.91V93.92H26.0901C26.2834 93.92 26.4101 93.93 26.4701 93.95C26.5601 93.98 26.6334 94.0466 26.6967 94.1466C26.7567 94.2466 26.7867 94.3766 26.7867 94.5333C26.7867 94.6566 26.7701 94.7566 26.7334 94.84C26.7001 94.9233 26.6534 94.99 26.6001 95.0366C26.5467 95.0866 26.4901 95.1166 26.4367 95.1333C26.3601 95.15 26.2501 95.16 26.1034 95.16H25.8967V95.91H25.5801ZM25.8967 94.2566V94.8233H26.0701C26.1967 94.8233 26.2801 94.8133 26.3234 94.79C26.3667 94.77 26.4001 94.7366 26.4234 94.6933C26.4467 94.65 26.4601 94.5966 26.4601 94.54C26.4601 94.4666 26.4434 94.4066 26.4067 94.36C26.3734 94.3133 26.3301 94.2833 26.2801 94.27C26.2434 94.2633 26.1667 94.2566 26.0501 94.2566H25.8967Z" fill="#332C2B"/>
<path d="M27.4034 95.91V94.2566H26.9367V93.92H28.1867V94.2566H27.7201V95.91H27.4034Z" fill="#332C2B"/>
<path d="M28.1467 95.91V95.53H28.4501V95.91H28.1467Z" fill="#332C2B"/>
<path d="M29.3734 93.92H30.0034C30.1301 93.92 30.2234 93.9266 30.2834 93.94C30.3467 93.9533 30.4001 93.98 30.4467 94.0233C30.4967 94.0633 30.5367 94.12 30.5701 94.19C30.6001 94.2566 30.6167 94.3366 30.6167 94.4233C30.6167 94.5166 30.5967 94.6 30.5567 94.68C30.5167 94.7566 30.4634 94.8133 30.3967 94.8533C30.4934 94.89 30.5667 94.95 30.6167 95.0333C30.6701 95.12 30.6967 95.22 30.6967 95.3333C30.6967 95.4233 30.6801 95.5133 30.6467 95.5966C30.6134 95.6833 30.5667 95.7533 30.5101 95.8033C30.4501 95.8533 30.3801 95.8866 30.2934 95.8966C30.2434 95.9033 30.1134 95.91 29.9101 95.91H29.3734V93.92ZM29.6934 94.2533V94.7133H29.9001C30.0267 94.7133 30.1034 94.71 30.1334 94.7066C30.1867 94.6966 30.2301 94.6733 30.2601 94.6333C30.2934 94.5966 30.3067 94.5433 30.3067 94.48C30.3067 94.4166 30.2934 94.3666 30.2667 94.33C30.2401 94.29 30.2001 94.2666 30.1467 94.26C30.1167 94.2533 30.0267 94.2533 29.8767 94.2533H29.6934ZM29.6934 95.0433V95.5766H29.9867C30.1034 95.5766 30.1767 95.5733 30.2067 95.5633C30.2534 95.5533 30.2934 95.5266 30.3201 95.4833C30.3501 95.4433 30.3667 95.3866 30.3667 95.3166C30.3667 95.2566 30.3534 95.2033 30.3334 95.1633C30.3101 95.12 30.2767 95.09 30.2334 95.0733C30.1901 95.0533 30.0934 95.0433 29.9501 95.0433H29.6934Z" fill="#332C2B"/>
<path d="M32.3867 95.91H32.0401L31.9034 95.46H31.2701L31.1401 95.91H30.8034L31.4167 93.92H31.7534L32.3867 95.91ZM31.8001 95.1233L31.5834 94.3866L31.3701 95.1233H31.8001Z" fill="#332C2B"/>
<path d="M32.5567 95.91V93.92H32.8667L33.5134 95.25V93.92H33.8101V95.91H33.4901L32.8534 94.6133V95.91H32.5567Z" fill="#332C2B"/>
<path d="M34.1501 95.91V93.92H34.4667V94.8033L35.1101 93.92H35.5401L34.9467 94.6966L35.5734 95.91H35.1601L34.7267 94.9766L34.4667 95.31V95.91H34.1501Z" fill="#332C2B"/>
<path d="M36.3467 95.91V93.92H36.8601C37.0534 93.92 37.1801 93.93 37.2367 93.95C37.3267 93.98 37.4034 94.0466 37.4634 94.1466C37.5267 94.2466 37.5567 94.3766 37.5567 94.5333C37.5567 94.6566 37.5401 94.7566 37.5034 94.84C37.4701 94.9233 37.4234 94.99 37.3701 95.0366C37.3167 95.0866 37.2601 95.1166 37.2034 95.1333C37.1301 95.15 37.0201 95.16 36.8734 95.16H36.6667V95.91H36.3467ZM36.6667 94.2566V94.8233H36.8401C36.9667 94.8233 37.0501 94.8133 37.0934 94.79C37.1334 94.77 37.1667 94.7366 37.1934 94.6933C37.2167 94.65 37.2267 94.5966 37.2267 94.54C37.2267 94.4666 37.2101 94.4066 37.1767 94.36C37.1434 94.3133 37.1001 94.2833 37.0501 94.27C37.0101 94.2633 36.9367 94.2566 36.8201 94.2566H36.6667Z" fill="#332C2B"/>
<path d="M37.8167 95.91V93.92H38.9867V94.2566H38.1367V94.7H38.9267V95.0333H38.1367V95.5766H39.0167V95.91H37.8167Z" fill="#332C2B"/>
<path d="M39.2834 95.91V93.92H39.7601L40.0467 95.28L40.3267 93.92H40.8067V95.91H40.5101V94.3433L40.1967 95.91H39.8901L39.5801 94.3433V95.91H39.2834Z" fill="#332C2B"/>
<path d="M41.1234 93.92H41.7534C41.8767 93.92 41.9701 93.9266 42.0334 93.94C42.0934 93.9533 42.1501 93.98 42.1967 94.0233C42.2467 94.0633 42.2867 94.12 42.3167 94.19C42.3501 94.2566 42.3667 94.3366 42.3667 94.4233C42.3667 94.5166 42.3467 94.6 42.3067 94.68C42.2667 94.7566 42.2134 94.8133 42.1434 94.8533C42.2401 94.89 42.3134 94.95 42.3667 95.0333C42.4167 95.12 42.4434 95.22 42.4434 95.3333C42.4434 95.4233 42.4267 95.5133 42.3934 95.5966C42.3601 95.6833 42.3134 95.7533 42.2567 95.8033C42.2001 95.8533 42.1267 95.8866 42.0434 95.8966C41.9901 95.9033 41.8634 95.91 41.6601 95.91H41.1234V93.92ZM41.4401 94.2533V94.7133H41.6501C41.7734 94.7133 41.8501 94.71 41.8801 94.7066C41.9367 94.6966 41.9767 94.6733 42.0101 94.6333C42.0401 94.5966 42.0567 94.5433 42.0567 94.48C42.0567 94.4166 42.0434 94.3666 42.0167 94.33C41.9901 94.29 41.9501 94.2666 41.8967 94.26C41.8634 94.2533 41.7734 94.2533 41.6234 94.2533H41.4401ZM41.4401 95.0433V95.5766H41.7367C41.8501 95.5766 41.9234 95.5733 41.9534 95.5633C42.0001 95.5533 42.0401 95.5266 42.0701 95.4833C42.1001 95.4433 42.1134 95.3866 42.1134 95.3166C42.1134 95.2566 42.1034 95.2033 42.0801 95.1633C42.0567 95.12 42.0234 95.09 41.9801 95.0733C41.9367 95.0533 41.8434 95.0433 41.6967 95.0433H41.4401Z" fill="#332C2B"/>
<path d="M44.1334 95.91H43.7867L43.6501 95.46H43.0201L42.8901 95.91H42.5534L43.1667 93.92H43.5034L44.1334 95.91ZM43.5467 95.1233L43.3301 94.3866L43.1167 95.1233H43.5467Z" fill="#332C2B"/>
<path d="M44.3067 95.91V93.92H44.6167L45.2601 95.25V93.92H45.5567V95.91H45.2367L44.6034 94.6133V95.91H44.3067Z" fill="#332C2B"/>
<path d="M46.6267 95.18V94.8433H47.3134V95.6366C47.2467 95.7166 47.1501 95.79 47.0234 95.8533C46.8967 95.9133 46.7701 95.9433 46.6401 95.9433C46.4734 95.9433 46.3301 95.9 46.2067 95.8133C46.0867 95.7266 45.9934 95.6033 45.9301 95.44C45.8701 95.2766 45.8401 95.1 45.8401 94.91C45.8401 94.7033 45.8734 94.5166 45.9434 94.3566C46.0101 94.1966 46.1134 94.0733 46.2434 93.9866C46.3467 93.92 46.4701 93.8866 46.6234 93.8866C46.8167 93.8866 46.9701 93.94 47.0801 94.0433C47.1901 94.1466 47.2634 94.29 47.2934 94.4733L46.9767 94.5466C46.9567 94.45 46.9134 94.3733 46.8534 94.3166C46.7901 94.26 46.7134 94.23 46.6234 94.23C46.4834 94.23 46.3734 94.2866 46.2901 94.3966C46.2067 94.51 46.1667 94.6733 46.1667 94.8933C46.1667 95.13 46.2101 95.3066 46.2934 95.4233C46.3734 95.5433 46.4834 95.6 46.6201 95.6C46.6867 95.6 46.7534 95.5833 46.8201 95.5533C46.8867 95.52 46.9434 95.48 46.9934 95.4333V95.18H46.6267Z" fill="#332C2B"/>
<path d="M47.6034 93.92H47.9234V95C47.9234 95.17 47.9267 95.28 47.9367 95.33C47.9501 95.4133 47.9801 95.4766 48.0334 95.5266C48.0834 95.5766 48.1534 95.6 48.2434 95.6C48.3334 95.6 48.4001 95.5766 48.4467 95.5333C48.4934 95.4833 48.5201 95.4266 48.5301 95.36C48.5401 95.2933 48.5434 95.18 48.5434 95.0233V93.92H48.8634V94.9666C48.8634 95.2066 48.8534 95.3733 48.8367 95.4733C48.8201 95.57 48.7867 95.6533 48.7401 95.7233C48.6967 95.79 48.6334 95.8433 48.5567 95.8833C48.4801 95.9233 48.3767 95.9433 48.2534 95.9433C48.1034 95.9433 47.9867 95.9233 47.9101 95.88C47.8334 95.8366 47.7701 95.7766 47.7267 95.7066C47.6801 95.6366 47.6501 95.5633 47.6367 95.4866C47.6167 95.3733 47.6034 95.2066 47.6034 94.9833V93.92Z" fill="#332C2B"/>
<path d="M49.2001 95.91V93.92H49.5101L50.1567 95.25V93.92H50.4534V95.91H50.1334L49.4967 94.6133V95.91H49.2001Z" fill="#332C2B"/>
<path d="M52.2101 95.91H51.8634L51.7267 95.46H51.0967L50.9667 95.91H50.6267L51.2434 93.92H51.5801L52.2101 95.91ZM51.6234 95.1233L51.4067 94.3866L51.1934 95.1233H51.6234Z" fill="#332C2B"/>
<path d="M52.3834 95.91V93.92H52.6934L53.3367 95.25V93.92H53.6334V95.91H53.3134L52.6801 94.6133V95.91H52.3834Z" fill="#332C2B"/>
<path d="M54.5801 93.92H55.1634C55.2934 93.92 55.3934 93.9333 55.4634 93.96C55.5567 93.9933 55.6367 94.0533 55.7001 94.1433C55.7667 94.23 55.8167 94.3366 55.8501 94.4633C55.8867 94.5933 55.9034 94.75 55.9034 94.9333C55.9034 95.1 55.8867 95.24 55.8534 95.3566C55.8167 95.5033 55.7601 95.62 55.6867 95.71C55.6301 95.7766 55.5567 95.83 55.4634 95.87C55.3934 95.8966 55.2967 95.91 55.1801 95.91H54.5801V93.92ZM54.9001 94.2566V95.5766H55.1367C55.2267 95.5766 55.2901 95.57 55.3301 95.5566C55.3801 95.54 55.4234 95.5133 55.4567 95.4733C55.4934 95.4333 55.5201 95.37 55.5434 95.28C55.5634 95.1933 55.5734 95.07 55.5734 94.9166C55.5734 94.7633 55.5634 94.6466 55.5434 94.5633C55.5201 94.48 55.4901 94.4166 55.4501 94.37C55.4134 94.3233 55.3634 94.2933 55.3034 94.2766C55.2601 94.2633 55.1734 94.2566 55.0434 94.2566H54.9001Z" fill="#332C2B"/>
<path d="M57.5934 95.91H57.2501L57.1101 95.46H56.4801L56.3501 95.91H56.0134L56.6267 93.92H56.9634L57.5934 95.91ZM57.0101 95.1233L56.7934 94.3866L56.5801 95.1233H57.0101Z" fill="#332C2B"/>
<path d="M57.7634 95.91V93.92H58.9334V94.2566H58.0834V94.7H58.8734V95.0333H58.0834V95.5766H58.9634V95.91H57.7634Z" fill="#332C2B"/>
<path d="M59.2334 95.91V93.92H59.9034C60.0734 93.92 60.1967 93.94 60.2701 93.9733C60.3467 94.01 60.4101 94.0733 60.4534 94.1666C60.5001 94.2566 60.5234 94.36 60.5234 94.48C60.5234 94.6266 60.4901 94.75 60.4201 94.85C60.3501 94.9466 60.2467 95.0066 60.1067 95.0333C60.1767 95.0833 60.2334 95.14 60.2767 95.2C60.3234 95.26 60.3834 95.3666 60.4601 95.5233L60.6534 95.91H60.2701L60.0401 95.4766C59.9601 95.3233 59.9034 95.2266 59.8734 95.1866C59.8434 95.1466 59.8101 95.1166 59.7767 95.1033C59.7434 95.0866 59.6901 95.08 59.6167 95.08H59.5534V95.91H59.2334ZM59.5534 94.7633H59.7867C59.9401 94.7633 60.0367 94.7533 60.0734 94.7366C60.1134 94.7233 60.1434 94.6933 60.1634 94.6533C60.1834 94.6133 60.1967 94.5633 60.1967 94.5066C60.1967 94.4366 60.1801 94.3833 60.1534 94.3433C60.1234 94.3 60.0834 94.2766 60.0334 94.2633C60.0067 94.26 59.9301 94.2566 59.8001 94.2566H59.5534V94.7633Z" fill="#332C2B"/>
<path d="M62.2467 95.91H61.9001L61.7601 95.46H61.1301L61.0001 95.91H60.6634L61.2767 93.92H61.6134L62.2467 95.91ZM61.6601 95.1233L61.4434 94.3866L61.2301 95.1233H61.6601Z" fill="#332C2B"/>
<path d="M62.4167 95.91V93.92H62.7334V94.7033H63.3567V93.92H63.6767V95.91H63.3567V95.04H62.7334V95.91H62.4167Z" fill="#332C2B"/>
<path d="M64.6234 95.91V93.92H64.9401V94.8033L65.5834 93.92H66.0101L65.4167 94.6966L66.0434 95.91H65.6301L65.1967 94.9766L64.9401 95.31V95.91H64.6234Z" fill="#332C2B"/>
<path d="M67.6301 95.91H67.2834L67.1467 95.46H66.5167L66.3867 95.91H66.0467L66.6634 93.92H67.0001L67.6301 95.91ZM67.0434 95.1233L66.8267 94.3866L66.6134 95.1233H67.0434Z" fill="#332C2B"/>
<path d="M67.8067 95.91V93.9366H68.1267V95.5766H68.9167V95.91H67.8067Z" fill="#332C2B"/>
<path d="M69.1334 95.91V93.92H69.4534V95.91H69.1334Z" fill="#332C2B"/>
<path d="M69.7534 95.91V93.92H70.2301L70.5134 95.28L70.7967 93.92H71.2767V95.91H70.9801V94.3433L70.6667 95.91H70.3601L70.0467 94.3433V95.91H69.7534Z" fill="#332C2B"/>
<path d="M73.0134 95.91H72.6667L72.5301 95.46H71.9001L71.7701 95.91H71.4301L72.0434 93.92H72.3834L73.0134 95.91ZM72.4267 95.1233L72.2101 94.3866L71.9967 95.1233H72.4267Z" fill="#332C2B"/>
<path d="M73.1834 95.91V93.92H73.4934L74.1401 95.25V93.92H74.4367V95.91H74.1167L73.4801 94.6133V95.91H73.1834Z" fill="#332C2B"/>
<path d="M75.1267 95.91V94.2566H74.6601V93.92H75.9134V94.2566H75.4467V95.91H75.1267Z" fill="#332C2B"/>
<path d="M77.3767 95.91H77.0301L76.8934 95.46H76.2634L76.1334 95.91H75.7934L76.4101 93.92H76.7467L77.3767 95.91ZM76.7901 95.1233L76.5734 94.3866L76.3601 95.1233H76.7901Z" fill="#332C2B"/>
<path d="M77.5501 95.91V93.92H77.8601L78.5034 95.25V93.92H78.8001V95.91H78.4801L77.8434 94.6133V95.91H77.5501Z" fill="#332C2B"/>
<path d="M79.7501 93.92H80.3801C80.5034 93.92 80.5967 93.9266 80.6601 93.94C80.7201 93.9533 80.7767 93.98 80.8234 94.0233C80.8734 94.0633 80.9134 94.12 80.9434 94.19C80.9767 94.2566 80.9934 94.3366 80.9934 94.4233C80.9934 94.5166 80.9734 94.6 80.9334 94.68C80.8934 94.7566 80.8401 94.8133 80.7701 94.8533C80.8667 94.89 80.9401 94.95 80.9934 95.0333C81.0434 95.12 81.0701 95.22 81.0701 95.3333C81.0701 95.4233 81.0534 95.5133 81.0201 95.5966C80.9867 95.6833 80.9401 95.7533 80.8834 95.8033C80.8267 95.8533 80.7534 95.8866 80.6701 95.8966C80.6167 95.9033 80.4901 95.91 80.2867 95.91H79.7501V93.92ZM80.0667 94.2533V94.7133H80.2767C80.4001 94.7133 80.4767 94.71 80.5067 94.7066C80.5634 94.6966 80.6034 94.6733 80.6367 94.6333C80.6667 94.5966 80.6834 94.5433 80.6834 94.48C80.6834 94.4166 80.6701 94.3666 80.6434 94.33C80.6167 94.29 80.5767 94.2666 80.5234 94.26C80.4901 94.2533 80.4001 94.2533 80.2501 94.2533H80.0667ZM80.0667 95.0433V95.5766H80.3634C80.4767 95.5766 80.5501 95.5733 80.5801 95.5633C80.6267 95.5533 80.6667 95.5266 80.6967 95.4833C80.7267 95.4433 80.7401 95.3866 80.7401 95.3166C80.7401 95.2566 80.7301 95.2033 80.7067 95.1633C80.6834 95.12 80.6501 95.09 80.6067 95.0733C80.5634 95.0533 80.4701 95.0433 80.3234 95.0433H80.0667Z" fill="#332C2B"/>
<path d="M82.7601 95.91H82.4134L82.2767 95.46H81.6467L81.5167 95.91H81.1801L81.7934 93.92H82.1301L82.7601 95.91ZM82.1767 95.1233L81.9567 94.3866L81.7434 95.1233H82.1767Z" fill="#332C2B"/>
<path d="M82.9301 95.91V93.92H83.6001C83.7701 93.92 83.8934 93.94 83.9667 93.9733C84.0434 94.01 84.1067 94.0733 84.1534 94.1666C84.1967 94.2566 84.2201 94.36 84.2201 94.48C84.2201 94.6266 84.1867 94.75 84.1167 94.85C84.0467 94.9466 83.9434 95.0066 83.8034 95.0333C83.8734 95.0833 83.9301 95.14 83.9734 95.2C84.0201 95.26 84.0801 95.3666 84.1567 95.5233L84.3501 95.91H83.9667L83.7367 95.4766C83.6567 95.3233 83.6001 95.2266 83.5701 95.1866C83.5401 95.1466 83.5067 95.1166 83.4734 95.1033C83.4401 95.0866 83.3867 95.08 83.3134 95.08H83.2501V95.91H82.9301ZM83.2501 94.7633H83.4834C83.6367 94.7633 83.7334 94.7533 83.7701 94.7366C83.8101 94.7233 83.8401 94.6933 83.8601 94.6533C83.8834 94.6133 83.8934 94.5633 83.8934 94.5066C83.8934 94.4366 83.8767 94.3833 83.8501 94.3433C83.8234 94.3 83.7834 94.2766 83.7301 94.2633C83.7034 94.26 83.6267 94.2566 83.4967 94.2566H83.2501V94.7633Z" fill="#332C2B"/>
<path d="M85.9434 95.91H85.5967L85.4601 95.46H84.8267L84.7001 95.91H84.3601L84.9734 93.92H85.3101L85.9434 95.91ZM85.3567 95.1233L85.1401 94.3866L84.9267 95.1233H85.3567Z" fill="#332C2B"/>
<path d="M86.3034 95.91V94.2566H85.8334V93.92H87.0901V94.2566H86.6201V95.91H86.3034Z" fill="#332C2B"/>
</g>
<rect x="1" y="1" width="110" height="110" rx="9" stroke="#CCCCCC" stroke-width="2"/>
<defs>
<clipPath id="clip0_528_601">
<rect x="2" y="2" width="108" height="108" rx="8" fill="white"/>
</clipPath>
</defs>
</svg>
