<svg width="112" height="112" viewBox="0 0 112 112" fill="none" xmlns="http://www.w3.org/2000/svg">
<g clip-path="url(#clip0_528_36)">
<rect x="2" y="2" width="108" height="108" rx="8" fill="white"/>
<path d="M96 46H16V66.2891H96V46Z" fill="#282D68"/>
<path d="M36.5621 58.2459C37.2984 58.2459 37.6634 57.9974 37.6634 57.4974C37.6634 56.9974 37.2892 56.7244 36.5376 56.7244H36.013V58.2459H36.5621ZM36.0161 55.6476H36.3689C36.7002 55.6476 36.9425 55.5986 37.0928 55.5035C37.2431 55.4053 37.3198 55.2519 37.3198 55.0372C37.3198 54.6353 37.0345 54.4329 36.467 54.4329H36.0161V55.6476ZM34.9148 59.3012V53.3531H36.1388C36.9487 53.3531 37.5315 53.4788 37.8904 53.7273C38.2462 53.9758 38.4242 54.3807 38.4242 54.939C38.4242 55.2243 38.3751 55.4482 38.28 55.6139C38.1818 55.7795 38.01 55.9268 37.7646 56.0556C38.1174 56.1998 38.3751 56.39 38.5377 56.6231C38.7003 56.8563 38.78 57.1569 38.78 57.5281C38.78 58.0956 38.5837 58.5343 38.1941 58.841C37.8014 59.1478 37.2401 59.2981 36.5038 59.2981H34.9179L34.9148 59.3012Z" fill="white"/>
<path d="M41.3691 56.709H42.6391L42.0041 54.9053L41.3691 56.709ZM39.0929 59.3012L41.5715 53.3531H42.4397L44.9336 59.3012H43.7188L43.0839 57.7643H40.9672L40.3077 59.3012H39.0929Z" fill="white"/>
<path d="M45.86 59.2981V53.3531H47.1147L49.578 57.6845V53.3531H50.6792V59.2981H49.4491L46.9613 54.9789V59.2981H45.86Z" fill="white"/>
<path d="M51.6547 59.2981V53.3531H52.756V55.9207L54.5996 53.3531H55.9279L53.6886 56.2734L55.9279 59.2981H54.5996L52.756 56.6845V59.2981H51.6547Z" fill="white"/>
<path d="M59.0569 59.2981V53.3531H60.5692L62.1705 57.8594L63.7564 53.3531H65.2688V59.2981H64.1675L64.1706 54.8439L62.6183 59.3012H61.7103L60.1581 54.8409V59.2981H59.0569Z" fill="white"/>
<path d="M66.14 59.2981V53.3531H69.3333V54.4053H67.2412V55.8072H69.2444V56.8593H67.2412V58.2459H69.3333V59.2981H66.14Z" fill="white"/>
<path d="M70.2107 57.6017H71.361C71.4101 58.0956 71.677 58.341 72.1647 58.341C72.4009 58.341 72.5942 58.2735 72.7445 58.1385C72.8948 58.0036 72.9684 57.8287 72.9684 57.617C72.9684 57.4054 72.9071 57.2367 72.7844 57.1017C72.6617 56.9667 72.4531 56.8471 72.1586 56.7397L71.6678 56.5556C70.8426 56.2489 70.4285 55.709 70.4285 54.939C70.4285 54.4666 70.5941 54.0678 70.9285 53.7396C71.2598 53.4114 71.6708 53.2488 72.1617 53.2488C72.6525 53.2488 73.0911 53.4052 73.4255 53.715C73.7568 54.0249 73.9255 54.4329 73.9255 54.939H72.7813C72.7813 54.7366 72.7261 54.5801 72.6126 54.4727C72.4991 54.3654 72.3457 54.3132 72.1525 54.3132C71.9745 54.3132 71.8304 54.3684 71.7138 54.4789C71.5972 54.5893 71.542 54.7335 71.542 54.9175C71.542 55.0832 71.5942 55.2182 71.6954 55.3163C71.7966 55.4145 71.9837 55.5188 72.2568 55.6262L72.5298 55.7213C73.0942 55.936 73.4899 56.1753 73.72 56.4421C73.9501 56.709 74.0666 57.0618 74.0666 57.5097C74.0666 58.0465 73.8856 58.4974 73.5206 58.8625C73.1556 59.2275 72.7046 59.4085 72.1678 59.4085C71.6034 59.4085 71.1371 59.2429 70.7659 58.9085C70.3947 58.5772 70.2107 58.1416 70.2107 57.6048" fill="white"/>
<path d="M75.7569 59.2981V54.4053H74.6618V53.3531H77.9686V54.4053H76.8582V59.2981H75.7569Z" fill="white"/>
<path d="M79.9564 53.3531H78.8521V59.3012H79.9564V53.3531Z" fill="white"/>
<path d="M80.9473 59.2981V53.3531H82.0485V55.9207L83.8922 53.3531H85.2204L82.9811 56.2734L85.2204 59.2981H83.8922L82.0485 56.6845V59.2981H80.9473Z" fill="white"/>
<path d="M88.2052 56.709H89.4752L88.8402 54.9053L88.2052 56.709ZM85.9291 59.3012L88.4077 53.3531H89.2758L91.7698 59.3012H90.555L89.92 57.7643H87.8034L87.1438 59.3012H85.9291Z" fill="white"/>
<path d="M29.2796 58.1416L28.7551 58.6662H28.2428L27.7182 58.1416V56.3747L26.3593 57.7336H25.7274L24.3684 56.3747V58.1416L23.8439 58.6662H23.3316L22.807 58.1416V54.2181L23.3132 53.712H23.9021L26.0433 55.8532L28.1845 53.712H28.7735L29.2796 54.2181V58.1416ZM26.0433 50.6229C22.9941 50.6229 20.5186 53.0954 20.5186 56.1477C20.5186 59.1999 22.9911 61.6724 26.0433 61.6724C29.0956 61.6724 31.5681 59.1999 31.5681 56.1477C31.5681 53.0954 29.0956 50.6229 26.0433 50.6229Z" fill="white"/>
</g>
<rect x="1" y="1" width="110" height="110" rx="9" stroke="#CCCCCC" stroke-width="2"/>
<defs>
<clipPath id="clip0_528_36">
<rect x="2" y="2" width="108" height="108" rx="8" fill="white"/>
</clipPath>
</defs>
</svg>
