<svg width="112" height="112" viewBox="0 0 112 112" fill="none" xmlns="http://www.w3.org/2000/svg">
<g clip-path="url(#clip0_812_165)">
<rect x="1.99988" y="2" width="108" height="108" rx="8" fill="white"/>
<path d="M60.8402 20C54.0801 20 48.5997 25.4803 48.5997 32.2404C48.5997 39.2498 54.2803 44.9323 61.2898 44.9323H81.9606C82.9009 44.9323 83.6645 44.1708 83.6645 43.2286V21.7037C83.6645 20.7635 82.9009 20 81.9606 20H60.8402ZM23 40.8849C23 52.3735 32.4002 61.7757 43.8869 61.7757C44.3737 61.7757 44.7663 61.3812 44.7663 60.8963V20.8773C44.7663 20.3925 44.3737 20 43.8869 20C32.4002 20 23 29.3981 23 40.8849ZM66.6306 51.1035V91.1206C66.6306 91.6055 67.0252 92 67.51 92C78.9987 92 88.3989 82.5999 88.3989 71.1112C88.3989 59.6245 78.9987 50.2242 67.51 50.2242C67.0252 50.2242 66.6306 50.6187 66.6306 51.1035ZM29.4362 67.0656C28.496 67.0656 27.7325 67.8292 27.7325 68.7714V90.2963C27.7325 91.2365 28.496 92 29.4362 92H50.5587C57.3188 92 62.7992 86.5177 62.7992 79.7595C62.7992 72.7501 57.1166 67.0656 50.1072 67.0656H29.4362Z" fill="url(#paint0_linear_812_165)"/>
</g>
<rect x="1" y="1" width="110" height="110" rx="9" stroke="#CCCCCC" stroke-width="2"/>
<defs>
<linearGradient id="paint0_linear_812_165" x1="26.8654" y1="90.3619" x2="84.5326" y2="21.6367" gradientUnits="userSpaceOnUse">
<stop stop-color="#FF5564"/>
<stop offset="0.128864" stop-color="#FF5564"/>
<stop offset="0.382729" stop-color="#FF5564"/>
<stop offset="1" stop-color="#FFC700"/>
</linearGradient>
<clipPath id="clip0_812_165">
<rect x="2" y="2" width="108" height="108" rx="8" fill="white"/>
</clipPath>
</defs>
</svg>
