<svg width="112" height="112" viewBox="0 0 112 112" fill="none" xmlns="http://www.w3.org/2000/svg">
<g clip-path="url(#clip0_642_1032)">
<rect x="2" y="2" width="108" height="108" rx="8" fill="white"/>
<path fill-rule="evenodd" clip-rule="evenodd" d="M56.6736 46.4093C56.3937 43.4792 54.8587 41.1687 52.1485 40.0495C49.4742 38.9462 46.6321 39.27 43.8619 39.8096C37.6379 41.0128 29.0155 46.925 26.6571 52.7972C25.29 56.199 26.2054 59.9365 28.9636 62.0991C31.9137 64.4096 36.0869 64.0059 39.3968 63.0105C41.1956 62.4669 42.3829 61.9992 44.0578 61.2277C44.4055 61.0678 45.285 60.5681 45.5488 60.5202L45.9525 66.3484L49.83 64.3217C51.1052 63.6221 52.4203 62.9786 53.7115 62.267C53.5596 62.0472 52.3923 61.3756 52.1085 61.0798L53.3757 58.8932C54.2072 57.2743 54.9307 55.8392 55.5423 54.0643L56.1539 52.0457C56.6256 50.2748 56.8534 48.2122 56.6816 46.4093H56.6736ZM46.4762 45.0382C47.7434 44.9303 49.1025 45.0702 50.0019 45.6098C50.5935 45.9656 51.2691 46.7331 51.2851 47.4447C51.3011 48.1562 51.2011 49.6192 50.8893 50.1669C50.4736 50.8984 49.5862 51.8618 48.9506 52.3894C47.6714 53.4567 46.808 54.0484 45.193 54.8838C44.0098 55.4994 40.7199 56.9984 39.4767 57.4941C37.3621 58.3376 34.8318 59.149 32.873 57.8819C32.0696 57.3622 31.458 56.211 31.5339 55.0877C31.5939 54.1723 32.1735 53.2929 32.7491 52.6453C32.857 52.5253 32.853 52.4934 32.977 52.3734C33.1608 52.2016 33.3167 52.0537 33.4966 51.8538C34.0203 51.2782 35.7751 49.979 36.4067 49.5593C39.5447 47.4686 42.4428 45.378 46.4762 45.0342V45.0382Z" fill="#FF0000"/>
<path fill-rule="evenodd" clip-rule="evenodd" d="M47.2397 59.3969C47.3836 59.0371 47.6554 58.6094 47.8553 58.2256C48.4829 57.0104 48.9906 56.123 49.6381 54.7999C51.405 51.2102 52.5283 47.5686 50.8853 43.6911C50.1738 42.0082 48.315 40.2773 48.0432 39.6257C50.0459 39.6137 52.2245 40.2413 53.7954 41.4685C55.8381 43.0635 56.5217 46.0416 56.3098 48.6559C56.046 51.9497 54.6909 55.7193 53.1239 58.4895L51.5569 61.2037C51.8327 61.4475 52.8081 61.9832 52.948 62.231C52.3404 62.4309 46.6441 65.6248 46.3083 65.6768L45.8326 58.7893L47.2357 59.3889L47.2397 59.3969Z" fill="white"/>
<path fill-rule="evenodd" clip-rule="evenodd" d="M55.6262 55.9351C55.9061 58.8652 57.4411 61.1757 60.1513 62.295C62.8256 63.3983 65.6677 63.0745 68.4379 62.5348C74.6619 61.3316 83.2843 55.4195 85.6427 49.5473C87.0098 46.1455 86.0944 42.4079 83.3362 40.2453C80.3861 37.9348 76.2129 38.3386 72.903 39.3339C71.1042 39.8776 69.917 40.3453 68.242 41.1168C67.8943 41.2767 67.0148 41.7763 66.751 41.8243L66.3473 35.9961L62.4698 38.0228C61.1946 38.7223 59.8795 39.3659 58.5883 40.0774C58.7402 40.2973 59.9075 40.9689 60.1913 41.2607L58.9241 43.4472C58.0926 45.0662 57.3691 46.5013 56.7575 48.2761L56.1459 50.2948C55.6742 52.0656 55.4464 54.1283 55.6183 55.9311L55.6262 55.9351ZM65.8236 57.3062C64.5564 57.4142 63.1973 57.2743 62.2979 56.7346C61.7063 56.3788 61.0307 55.6113 61.0147 54.8998C60.9988 54.1883 61.0987 52.7252 61.4105 52.1776C61.8262 51.4461 62.7136 50.4827 63.3492 49.955C64.6284 48.8877 65.4918 48.2961 67.1068 47.4606C68.29 46.845 71.5799 45.346 72.8231 44.8503C74.9377 44.0069 77.468 43.1954 79.4268 44.4626C80.2302 44.9823 80.8419 46.1335 80.7659 47.2568C80.7059 48.1722 80.1263 49.0516 79.5507 49.6992C79.4428 49.8191 79.4468 49.8511 79.3228 49.971C79.139 50.1429 78.9831 50.2908 78.8032 50.4907C78.2795 51.0663 76.5247 52.3655 75.8931 52.7852C72.7551 54.8758 69.857 56.9665 65.8236 57.3102V57.3062Z" fill="#FF0000"/>
<path fill-rule="evenodd" clip-rule="evenodd" d="M65.0601 42.9476C64.9162 43.3073 64.6444 43.7351 64.4445 44.1188C63.8169 45.334 63.3092 46.2214 62.6617 47.5446C60.8948 51.1343 59.7715 54.7759 61.4145 58.6534C62.126 60.3363 63.9848 62.0671 64.2566 62.7187C62.2539 62.7307 60.0754 62.1031 58.5044 60.8759C56.4617 59.281 55.7821 56.3029 55.99 53.6886C56.2538 50.3947 57.609 46.6252 59.1759 43.855L60.7429 41.1408C60.4671 40.8969 59.4917 40.3613 59.3518 40.1134C59.9594 39.9135 65.6557 36.7196 65.9915 36.6677L66.4672 43.5552L65.0641 42.9556L65.0601 42.9476Z" fill="white"/>
<path fill-rule="evenodd" clip-rule="evenodd" d="M17.7908 74.607H18.0826C18.6982 74.607 19.138 74.527 19.3978 74.3711C19.6576 74.2113 19.8135 73.9434 19.8695 73.5637C19.9175 73.2399 19.8535 73.008 19.6736 72.8761C19.4977 72.7402 19.134 72.6722 18.5903 72.6722H18.3265L17.7948 74.611L17.7908 74.607ZM19.126 69.6822L18.6423 71.457H18.8022C19.3538 71.457 19.7456 71.3851 19.9774 71.2372C20.2093 71.0933 20.3492 70.8414 20.3971 70.4937C20.4411 70.1939 20.3851 69.982 20.2332 69.8621C20.0813 69.7422 19.7536 69.6822 19.2539 69.6822H19.122H19.126ZM16.004 75.8182L17.9947 68.479H19.4578C20.0773 68.479 20.5171 68.515 20.7889 68.5789C21.0607 68.6469 21.2846 68.7588 21.4565 68.9187C21.6323 69.0826 21.7563 69.2745 21.8282 69.4943C21.8962 69.7142 21.9122 69.958 21.8762 70.2298C21.8082 70.7055 21.6163 71.0973 21.3046 71.4131C20.9888 71.7289 20.597 71.9167 20.1253 71.9847C20.565 72.0566 20.8968 72.2325 21.1127 72.5204C21.3285 72.8082 21.4045 73.1679 21.3405 73.5996C21.2846 73.9794 21.1566 74.3232 20.9608 74.631C20.7609 74.9388 20.5011 75.1946 20.1773 75.3945C19.9334 75.5504 19.6416 75.6543 19.3059 75.7183C18.9661 75.7822 18.4144 75.8142 17.6389 75.8142H16L16.004 75.8182ZM22.3839 75.8182L22.9875 74.575H25.1101L25.3459 75.8182H26.5851L25.242 70.042H23.9668L21.0767 75.8182H22.3839ZM23.4392 73.6276L24.1187 72.1326C24.1907 71.9767 24.2586 71.8088 24.3226 71.6289C24.3865 71.449 24.4465 71.2532 24.5025 71.0413C24.5225 71.3171 24.5384 71.557 24.5584 71.7528C24.5784 71.9527 24.6024 72.1206 24.6264 72.2605L24.8942 73.6276H23.4392ZM27.1967 75.8182L27.9322 70.042H29.1475L30.8743 73.02C31.0582 73.3478 31.1901 73.5917 31.2701 73.7595C31.35 73.9234 31.414 74.0833 31.4619 74.2312C31.4739 73.9594 31.4859 73.7156 31.4979 73.5077C31.5139 73.2998 31.5299 73.132 31.5419 73.012L31.9256 70.046H33.0249L32.2854 75.8222H31.1541L29.2314 72.4604C29.1115 72.2565 29.0155 72.0766 28.9436 71.9207C28.8676 71.7648 28.8077 71.6169 28.7557 71.473V71.6569C28.7557 71.8568 28.7517 72.0447 28.7397 72.2285C28.7317 72.4124 28.7157 72.5883 28.6957 72.7482L28.28 75.8182H27.1927H27.1967ZM33.5206 75.8182L34.2561 70.042H35.4274L35.0916 72.6403L37.2702 70.042H38.6493L36.2668 72.8122L37.9457 75.8182H36.6346L35.0556 72.9001L34.6918 75.8182H33.5166H33.5206ZM40.3602 74.4071L41.7273 74.1433C41.7033 74.3472 41.7193 74.4991 41.7673 74.599C41.8192 74.6989 41.9112 74.7509 42.0391 74.7509C42.3029 74.7509 42.5667 74.2472 42.8306 73.2439C42.8865 73.036 42.9265 72.8801 42.9545 72.7762L44.0578 68.7108H45.4928L44.3496 72.9241C44.3216 73.024 44.2816 73.1759 44.2297 73.3798C43.9578 74.4031 43.69 75.0667 43.4262 75.3785C43.2503 75.5824 43.0384 75.7343 42.7866 75.8342C42.5348 75.9341 42.2389 75.9861 41.8992 75.9861C41.3395 75.9861 40.9278 75.8542 40.66 75.5864C40.3961 75.3185 40.2962 74.9308 40.3562 74.4191L40.3602 74.4071ZM45.6687 75.8182L46.2723 74.575H48.3949L48.6308 75.8182H49.87L48.5269 70.042H47.2517L44.3616 75.8182H45.6687ZM46.724 73.6276L47.4036 72.1326C47.4755 71.9767 47.5435 71.8088 47.6075 71.6289C47.6714 71.449 47.7314 71.2532 47.7873 71.0413C47.8073 71.3171 47.8233 71.557 47.8433 71.7528C47.8633 71.9527 47.8873 72.1206 47.9113 72.2605L48.1791 73.6276H46.724ZM50.8294 74.2672C50.9613 74.5031 51.1132 74.6789 51.2891 74.7909C51.4609 74.9028 51.6648 74.9588 51.9007 74.9588C52.1485 74.9588 52.3444 74.8868 52.4843 74.7509C52.6242 74.611 52.6961 74.4191 52.6961 74.1753C52.6961 74.0194 52.6562 73.8755 52.5722 73.7516C52.4923 73.6276 52.3684 73.5197 52.2045 73.4238C52.1645 73.3998 52.1045 73.3678 52.0246 73.3198C51.5689 73.064 51.2611 72.8441 51.1012 72.6603C50.9893 72.5243 50.9013 72.3724 50.8414 72.2006C50.7814 72.0287 50.7534 71.8408 50.7534 71.6449C50.7534 71.1492 50.9253 70.7335 51.2731 70.4017C51.6168 70.0699 52.0526 69.9021 52.5802 69.9021C52.896 69.9021 53.1798 69.962 53.4277 70.0859C53.6755 70.2099 53.8834 70.3897 54.0593 70.6336L53.4596 71.4371C53.3597 71.2452 53.2398 71.1013 53.0919 71.0053C52.948 70.9094 52.7801 70.8614 52.5882 70.8614C52.3724 70.8614 52.1925 70.9254 52.0526 71.0533C51.9127 71.1812 51.8407 71.3451 51.8407 71.545C51.8407 71.8048 52.0726 72.0726 52.5363 72.3405C52.6242 72.3924 52.6922 72.4364 52.7361 72.4644C53.1558 72.7202 53.4397 72.9681 53.5916 73.2159C53.7395 73.4597 53.8154 73.7755 53.8154 74.1633C53.8154 74.7029 53.6395 75.1386 53.2878 75.4704C52.936 75.8022 52.4683 75.9661 51.8847 75.9661C51.5329 75.9661 51.2171 75.8942 50.9413 75.7503C50.6655 75.6063 50.4176 75.3825 50.2018 75.0867L50.8374 74.2632L50.8294 74.2672ZM55.2705 75.8182L55.8741 74.575H57.9967L58.2325 75.8182H59.4717L58.1286 70.042H56.8534L53.9633 75.8182H55.2705ZM56.3258 73.6276L57.0053 72.1326C57.0773 71.9767 57.1453 71.8088 57.2092 71.6289C57.2732 71.449 57.3331 71.2532 57.3891 71.0413C57.4091 71.3171 57.4251 71.557 57.4451 71.7528C57.465 71.9527 57.489 72.1206 57.513 72.2605L57.7808 73.6276H56.3258ZM62.2299 74.3871L63.6131 74.1193C63.5891 74.3232 63.6051 74.4791 63.657 74.579C63.709 74.6789 63.8009 74.7309 63.9328 74.7309C64.2007 74.7309 64.4685 74.2232 64.7323 73.2079C64.7883 73 64.8283 72.8401 64.8562 72.7362L65.9715 68.6309H67.4226L66.2673 72.8881C66.2393 72.988 66.1994 73.1399 66.1434 73.3478C65.8676 74.3791 65.5998 75.0507 65.3319 75.3665C65.1561 75.5704 64.9402 75.7263 64.6844 75.8262C64.4285 75.9261 64.1327 75.9781 63.7889 75.9781C63.2213 75.9781 62.8056 75.8422 62.5378 75.5744C62.2739 75.3025 62.17 74.9108 62.2299 74.3991V74.3871ZM67.5785 75.8142L68.1821 74.571H70.3047L70.5406 75.8142H71.7797L70.4366 70.038H69.1614L66.2713 75.8142H67.5785ZM68.6338 73.6236L69.3133 72.1286C69.3853 71.9727 69.4533 71.8048 69.5172 71.6249C69.5812 71.4451 69.6411 71.2492 69.6971 71.0373C69.7171 71.3131 69.7331 71.553 69.7531 71.7489C69.773 71.9487 69.797 72.1166 69.821 72.2565L70.0888 73.6236H68.6338ZM72.3913 75.8142L73.1269 70.038H74.2981L73.9623 72.6363L76.1409 70.038H77.52L75.1376 72.8082L76.8165 75.8142H75.5053L73.9263 72.8961L73.5626 75.8142H72.3873H72.3913ZM77.9517 75.8142L78.5553 74.571H80.678L80.9138 75.8142H82.153L80.8099 70.038H79.5347L76.6446 75.8142H77.9517ZM79.007 73.6236L79.6866 72.1286C79.7586 71.9727 79.8265 71.8048 79.8905 71.6249C79.9544 71.4451 80.0144 71.2492 80.0704 71.0373C80.0903 71.3131 80.1063 71.553 80.1263 71.7489C80.1463 71.9487 80.1703 72.1166 80.1943 72.2565L80.4621 73.6236H79.007ZM84.3516 72.5323H84.5235C84.9672 72.5323 85.267 72.4724 85.4269 72.3445C85.5868 72.2205 85.6667 72.0047 85.6667 71.7009C85.6667 71.4411 85.5988 71.2612 85.4668 71.1532C85.3349 71.0493 85.0711 70.9973 84.6834 70.9973H84.5514L84.3556 72.5323H84.3516ZM82.7646 75.8142L83.5001 70.038H84.6634C85.1471 70.038 85.4988 70.0659 85.7147 70.1179C85.9305 70.1699 86.1184 70.2578 86.2823 70.3857C86.4622 70.5216 86.5981 70.6895 86.694 70.8894C86.786 71.0893 86.834 71.3091 86.834 71.549C86.834 71.9887 86.714 72.3565 86.4742 72.6443C86.2343 72.9321 85.8906 73.128 85.4389 73.2319L86.706 75.8142H85.4269L84.2796 73.1639L83.9438 75.8142H82.7646ZM88.1691 75.8142L88.7727 71.0493H87.3256L87.4576 70.038H91.419L91.2911 71.0493H89.9399L89.3363 75.8142H88.1651H88.1691ZM91.7987 75.8142L92.4023 74.571H94.525L94.7608 75.8142H96L94.6569 70.038H93.3817L90.4916 75.8142H91.7987ZM92.854 73.6236L93.5336 72.1286C93.6056 71.9727 93.6735 71.8048 93.7375 71.6249C93.8014 71.4451 93.8614 71.2492 93.9174 71.0373C93.9373 71.3131 93.9533 71.553 93.9733 71.7489C93.9933 71.9487 94.0173 72.1166 94.0413 72.2565L94.3091 73.6236H92.854Z" fill="black"/>
</g>
<rect x="1" y="1" width="110" height="110" rx="9" stroke="#CCCCCC" stroke-width="2"/>
<defs>
<clipPath id="clip0_642_1032">
<rect x="2" y="2" width="108" height="108" rx="8" fill="white"/>
</clipPath>
</defs>
</svg>
