<svg width="112" height="112" viewBox="0 0 112 112" fill="none" xmlns="http://www.w3.org/2000/svg">
<g clip-path="url(#clip0_528_596)">
<rect x="2" y="2" width="108" height="108" rx="8" fill="white"/>
<path d="M53.6284 59.1105C53.6284 59.1105 53.2331 57.4334 53.827 55.8965C54.3546 54.5293 55.9933 54.6733 56.6332 55.4408C57.1129 56.0164 57.3767 56.9278 57.4007 58.3429C57.4007 58.3429 58.8571 57.3317 58.4081 54.7673C58.0003 52.4388 54.6904 51.6991 53.1314 53.474L52.5529 57.8632L53.6284 59.1105Z" fill="#72BB38"/>
<path d="M57.1129 51.2194C57.1129 51.2194 56.0336 49.5645 53.9229 51.5552C51.8123 53.546 52.5884 57.1811 53.3041 57.6416C53.3041 57.6416 52.9837 52.6825 57.1129 51.2194Z" fill="#9EC92A"/>
<path d="M53.8913 44C53.8913 44 54.8823 45.559 54.9303 48.1014C54.9782 50.6438 54.1148 52.3947 53.779 53.6179C53.4432 54.8412 52.4359 58.5108 54.7144 60.8613C54.7144 60.8613 54.2587 61.0053 53.6351 60.4056C53.0115 59.806 50.8692 57.1437 51.0447 54.0496C51.2366 50.6678 54.5465 47.4538 53.8913 44Z" fill="#E6E400"/>
<path d="M59.8616 48.7241C59.0614 48.1465 58.079 47.9287 57.0333 48.0275C57.8372 48.0295 58.5904 48.2444 59.2245 48.702C61.3812 50.2581 61.3381 54.0046 59.1267 57.0689C56.9153 60.1332 53.3741 61.3554 51.2174 59.7983C49.314 58.4254 49.125 55.3468 50.6264 52.5367C48.5311 55.8763 48.5599 59.6928 50.7886 61.2998C53.1544 63.0075 57.1043 61.5761 59.6102 58.1031C62.1161 54.6301 62.2293 50.4308 59.8635 48.7231L59.8616 48.7241Z" fill="#E62129"/>
<path d="M19.6073 49.3726C20.1532 49.3726 20.5926 49.4004 20.9265 49.4561C21.2604 49.5117 21.5578 49.6105 21.8206 49.7516C22.2351 49.9636 22.5555 50.2418 22.7829 50.5853C23.0103 50.9287 23.1235 51.3077 23.1235 51.7222C23.1235 52.0656 23.0429 52.387 22.8808 52.6844C22.7186 52.9828 22.4913 53.2274 22.1986 53.4193C22.1075 53.4798 22.0164 53.5354 21.9262 53.5863C21.835 53.6371 21.6988 53.7023 21.5165 53.7829C21.8082 53.8635 22.0365 53.9345 22.2025 53.995C22.3685 54.0554 22.5363 54.137 22.7071 54.2377C23.159 54.49 23.5082 54.8239 23.7548 55.2383C24.0004 55.6528 24.1241 56.1075 24.1241 56.6026C24.1241 57.2089 23.9447 57.7673 23.5869 58.2777C23.229 58.7881 22.7378 59.1901 22.1123 59.4827C21.9406 59.5633 21.764 59.6324 21.5827 59.687C21.4014 59.7427 21.2047 59.7859 20.9927 59.8156C20.7807 59.8463 20.5437 59.8713 20.2818 59.8914C20.0199 59.9115 19.7224 59.9221 19.3895 59.9221H16C16.1516 59.8415 16.2725 59.7532 16.3636 59.6573C16.4548 59.5614 16.5248 59.4376 16.5756 59.286C16.6265 59.1344 16.661 58.9474 16.6821 58.7248C16.7023 58.5022 16.7128 58.2192 16.7128 57.8757V51.4343C16.7128 51.0909 16.7023 50.8079 16.6821 50.5853C16.662 50.3627 16.6265 50.1756 16.5756 50.024C16.5248 49.8724 16.4548 49.7487 16.3636 49.6527C16.2725 49.5568 16.1516 49.4685 16 49.388H18.5539C18.7007 49.388 18.8849 49.3832 19.1075 49.3726H19.6073ZM18.2738 53.6323C18.4148 53.6525 18.529 53.663 18.6143 53.663H18.8801C19.638 53.663 20.2492 53.5095 20.7145 53.2006C21.1788 52.8926 21.4119 52.481 21.4119 51.9649C21.4119 51.49 21.2249 51.1081 20.8507 50.8203C20.4765 50.5325 19.9863 50.3886 19.3799 50.3886C19.2178 50.3886 19.0566 50.3963 18.8945 50.4116C18.7324 50.427 18.5251 50.4548 18.2728 50.4951L18.2738 53.6323ZM18.2738 58.649C18.5664 58.7094 18.812 58.7497 19.0087 58.7699C19.2053 58.79 19.4308 58.8006 19.6831 58.8006C20.5418 58.8006 21.2009 58.6288 21.6614 58.2854C22.1209 57.9419 22.3512 57.4517 22.3512 56.8146C22.3512 56.1171 22.1037 55.577 21.6086 55.1923C21.3457 54.9899 21.055 54.8459 20.7375 54.7606C20.419 54.6752 20.0026 54.632 19.4874 54.632C19.2754 54.632 19.0806 54.6368 18.9041 54.6474C18.7276 54.6579 18.5174 54.6781 18.2747 54.7078L18.2738 58.649Z" fill="#00824A"/>
<path d="M29.2473 55.9214C29.1053 55.9819 28.9873 56.0327 28.8914 56.073C28.7954 56.1133 28.6813 56.1536 28.5508 56.1939C28.4194 56.2342 28.2495 56.2802 28.0433 56.3301C27.836 56.381 27.5559 56.4462 27.2019 56.5268C26.4334 56.7091 26.0496 57.1178 26.0496 57.7548C26.0496 58.1693 26.1993 58.4897 26.4996 58.7171C26.7989 58.9445 27.2182 59.0577 27.7564 59.0577C27.9598 59.0577 28.145 59.0423 28.3119 59.0126C28.4798 58.9819 28.6957 58.9272 28.9595 58.8457L28.0193 60.043C27.8476 60.0833 27.7008 60.1082 27.5799 60.1188C27.459 60.1284 27.3122 60.1341 27.1405 60.1341C26.3317 60.1341 25.7004 59.9269 25.2457 59.5115C24.9828 59.2783 24.7804 59.0049 24.6393 58.6912C24.4973 58.3775 24.4273 58.058 24.4273 57.7337C24.4273 57.4094 24.5079 57.0852 24.6691 56.7916C24.8303 56.498 25.0471 56.2754 25.3186 56.1229C25.4299 56.0625 25.545 56.0068 25.6659 55.956C25.7868 55.9051 25.9278 55.8543 26.089 55.8044C26.2502 55.7535 26.4363 55.7056 26.6483 55.6605C26.8594 55.6154 27.1165 55.5617 27.4187 55.5012C27.7708 55.4302 28.0634 55.3621 28.2946 55.2959C28.5258 55.2297 28.71 55.1539 28.8463 55.0685C28.9825 54.9822 29.0775 54.8862 29.1331 54.7797C29.1888 54.6733 29.2166 54.5495 29.2166 54.4075C29.2166 54.1034 29.0756 53.8578 28.7926 53.6707C28.5105 53.4836 28.1421 53.3896 27.6873 53.3896C27.5156 53.3896 27.3544 53.4001 27.2028 53.4203C27.0513 53.4414 26.8949 53.475 26.7337 53.521C26.5725 53.568 26.3931 53.6352 26.1964 53.7225C25.9998 53.8108 25.7705 53.9163 25.5076 54.041L26.5706 52.434C26.8037 52.3832 26.9927 52.3534 27.1395 52.3429C27.2863 52.3333 27.4657 52.3275 27.6787 52.3275C29.0353 52.3275 29.9362 52.6864 30.3823 53.404C30.4533 53.5153 30.5089 53.6189 30.5492 53.7148C30.5895 53.8108 30.6202 53.9268 30.6403 54.0631C30.6605 54.1993 30.6758 54.3663 30.6864 54.5629C30.696 54.7596 30.7017 55.01 30.7017 55.3132V57.3749C30.7017 57.6071 30.7065 57.797 30.7171 57.9429C30.7267 58.0897 30.7449 58.2086 30.7699 58.2988C30.7948 58.3899 30.8351 58.4686 30.8907 58.5339C30.9464 58.6001 31.0193 58.6624 31.1105 58.7229C31.2217 58.814 31.3503 58.8773 31.4971 58.9119C31.6439 58.9474 31.8329 58.9704 32.065 58.98L31.3676 60.0257C30.9637 59.995 30.6538 59.9547 30.4398 59.9048C30.2259 59.854 30.0311 59.7734 29.8584 59.6621C29.7356 59.5911 29.6339 59.5105 29.5524 59.4194C29.4708 59.3282 29.4066 59.2198 29.3615 59.0932C29.3154 58.9665 29.2847 58.815 29.2694 58.6384C29.254 58.4619 29.2463 58.2422 29.2463 57.9793V55.9176L29.2473 55.9214Z" fill="#00824A"/>
<path d="M33.8706 53.5719C34.2534 53.1171 34.6238 52.7967 34.9816 52.6096C35.3395 52.4225 35.7549 52.3295 36.2288 52.3295C36.7421 52.3295 37.2208 52.4331 37.6641 52.6403C38.1073 52.8475 38.445 53.1229 38.6772 53.4663C38.7472 53.5776 38.8077 53.6966 38.8585 53.8223C38.9084 53.9489 38.9487 54.0947 38.9794 54.2617C39.0101 54.4286 39.0302 54.6234 39.0398 54.845C39.0494 55.0676 39.0552 55.3304 39.0552 55.6336V58.3468C39.0552 58.6096 39.06 58.8169 39.0705 58.9685C39.0801 59.12 39.106 59.2486 39.1463 59.3551C39.1866 59.4616 39.2471 59.5547 39.3286 59.6352C39.4092 59.7158 39.5205 59.8118 39.6625 59.9231H36.9944C37.1326 59.8118 37.2429 59.7158 37.3273 59.6352C37.4108 59.5547 37.4731 59.4606 37.5125 59.3551C37.5518 59.2486 37.5768 59.1181 37.5864 58.9608C37.596 58.8044 37.6017 58.6001 37.6017 58.3468V55.8005C37.6017 55.3765 37.5768 55.0455 37.5269 54.8076C37.477 54.5706 37.3868 54.3653 37.2563 54.1936C37.0961 53.9911 36.8706 53.8271 36.58 53.7014C36.2893 53.5747 35.9832 53.5124 35.6628 53.5124C35.3423 53.5124 35.0488 53.5757 34.783 53.7014C34.5173 53.828 34.3091 53.9969 34.1594 54.2089C34.0788 54.3202 34.0241 54.4411 33.9934 54.5725C33.9637 54.704 33.9483 54.8862 33.9483 55.1184V58.3468C33.9483 58.6096 33.9531 58.8169 33.9627 58.9685C33.9723 59.12 33.9973 59.2486 34.0366 59.3551C34.0759 59.4616 34.1354 59.5547 34.2141 59.6352C34.2928 59.7158 34.4012 59.8118 34.5393 59.9231H31.8866C32.0276 59.8118 32.1389 59.7158 32.2205 59.6352C32.3011 59.5547 32.3615 59.4606 32.4028 59.3551C32.443 59.2486 32.468 59.12 32.4785 58.9685C32.4881 58.8169 32.4939 58.6096 32.4939 58.3468V54.1178C32.4939 53.8654 32.4891 53.6611 32.4785 53.5038C32.468 53.3474 32.443 53.2159 32.4028 53.1094C32.3625 53.003 32.302 52.9099 32.2205 52.8293C32.1399 52.7487 32.0286 52.6528 31.8866 52.5415H32.9218C33.1568 52.5415 33.3458 52.5185 33.4888 52.4734C33.6317 52.4283 33.7593 52.3496 33.8716 52.2383L33.8706 53.5719Z" fill="#00824A"/>
<path d="M41.1668 49.388C41.4019 49.388 41.5909 49.3649 41.7338 49.3198C41.8768 49.2747 42.0044 49.1961 42.1166 49.0848V58.3458C42.1166 58.6087 42.1214 58.8159 42.132 58.9675C42.1416 59.1191 42.1675 59.2476 42.2078 59.3541C42.2481 59.4606 42.3085 59.5537 42.39 59.6343C42.4706 59.7149 42.5819 59.8108 42.7239 59.9221H40.0558C40.1969 59.8108 40.3082 59.7149 40.3897 59.6343C40.4703 59.5537 40.5307 59.4597 40.572 59.3541C40.6123 59.2476 40.6372 59.1191 40.6478 58.9675C40.6574 58.8159 40.6631 58.6087 40.6631 58.3458V50.9642C40.6631 50.7014 40.6583 50.4941 40.6478 50.3426C40.6372 50.191 40.6123 50.0624 40.572 49.9559C40.5317 49.8494 40.4713 49.7564 40.3897 49.6758C40.3091 49.5952 40.1978 49.4992 40.0558 49.388H41.1668ZM43.9961 55.6326C44.1572 55.8351 44.4105 56.1536 44.754 56.5872C45.0975 57.0219 45.5321 57.5821 46.0578 58.27C46.2497 58.5127 46.4118 58.7171 46.5433 58.884C46.6747 59.051 46.7985 59.192 46.9145 59.3081C47.0306 59.4242 47.1467 59.5307 47.2628 59.6266C47.3789 59.7225 47.5132 59.8214 47.6648 59.9221C47.4624 59.9422 47.2484 59.9547 47.021 59.9595C46.7937 59.9643 46.5788 59.9672 46.3773 59.9672C46.1653 59.9672 45.9906 59.9566 45.8544 59.9365C45.7182 59.9163 45.5915 59.8713 45.4755 59.8003C45.3594 59.7293 45.2481 59.6333 45.1416 59.5124C45.0351 59.3916 44.9065 59.2246 44.7549 59.0126C44.5429 58.7094 44.3328 58.4111 44.1256 58.1184C43.9184 57.8258 43.6987 57.5275 43.4665 57.2243C43.3149 57.0123 43.1662 56.805 43.0194 56.6026C42.8726 56.4002 42.7191 56.2083 42.557 56.027C42.5368 55.9867 42.5119 55.9492 42.4812 55.9138C42.4505 55.8783 42.4207 55.8408 42.39 55.7996L43.8454 54.1926C44.1083 53.9096 44.2925 53.6803 44.399 53.5028C44.5055 53.3263 44.5583 53.1718 44.5583 53.0404C44.5583 52.8888 44.4518 52.7218 44.2398 52.5405H46.6805L43.998 55.6326H43.9961Z" fill="#00824A"/>
<path d="M67.7862 59.9979C68.027 59.9269 68.3253 59.7571 68.4961 59.4165C68.6659 59.0759 68.6381 58.7919 68.5105 58.4379L67.9425 56.7206H64.7219L64.1405 58.4235C64.0272 58.7785 63.9841 59.0903 64.1261 59.4165C64.2824 59.7715 64.623 59.9279 64.8638 59.9979H61.2594C61.4292 59.8559 61.5146 59.7283 61.6566 59.5585C61.8696 59.3033 62.0394 59.1325 62.167 58.8063L64.9905 50.6332C65.0327 50.4913 65.0615 50.4059 65.0471 50.2648C65.0471 49.7823 64.7065 49.3851 64.3093 49.2575H68.4098L71.758 58.5089C71.8856 58.8495 72.0276 59.0337 72.2406 59.3177C72.4536 59.6017 72.609 59.7571 72.8796 59.9989L67.7862 59.9979ZM66.2962 52.0378L65.1613 55.1597H67.4312L66.2962 52.0378Z" fill="#00824A"/>
<path d="M78.7434 59.6151L78.0334 59.8415C77.2813 60.0833 76.5867 60.1821 75.9477 60.1821C73.8332 60.1821 71.9605 58.8485 71.9605 56.4788C71.9605 54.1091 73.436 52.4772 76.4303 52.4638C76.7143 52.4638 77.0117 52.4782 77.3101 52.506L78.3174 52.6058V54.4219L77.6084 54.0813C77.3101 53.9393 76.9273 53.8827 76.5588 53.8827C75.5227 53.8827 74.9979 54.8335 74.9979 56.096C74.9979 57.8268 75.9487 58.6356 77.1259 58.6356C77.5653 58.6356 78.0056 58.5223 78.4028 58.3094L79.2538 57.8268L78.7434 59.6151Z" fill="#00824A"/>
<path d="M86.4195 59.7293L85.6817 59.9566C85.0859 60.1408 84.447 60.255 83.7946 60.255C81.1131 60.255 79.2538 58.8927 79.2538 56.4808C79.2538 53.7283 81.2119 52.3803 83.241 52.3803C84.8873 52.3803 86.5749 53.4299 86.8311 55.317L86.9731 56.3666H81.9785L82.0351 56.8492C82.1627 58.0973 83.596 58.7507 84.3616 58.7507C85.1848 58.7363 85.9791 58.4101 86.2487 58.2825L87.0009 57.9419L86.4195 59.7293ZM83.1134 53.8405C82.532 53.8405 82.0351 54.3087 82.0063 55.0042H84.2484C84.2484 54.3087 83.7092 53.8405 83.1134 53.8405Z" fill="#00824A"/>
<path d="M91.9696 59.9979C92.2248 59.8281 92.3524 59.6861 92.4944 59.4021C92.6076 59.1469 92.6076 58.9627 92.6076 58.6787V54.9611C92.6076 54.4363 92.1538 54.0103 91.628 54.0103C91.1033 54.0247 90.6773 54.4363 90.6773 54.9467V58.5933C90.6773 58.7775 90.6629 59.2035 90.8337 59.5153C90.9613 59.7283 91.0889 59.8559 91.2875 59.9979L87.329 59.9835C87.5564 59.8271 87.6696 59.6995 87.7828 59.4443C87.9248 59.1603 87.9104 58.9617 87.9104 58.6499V50.3214C87.9104 50.0941 87.8682 49.9665 87.7684 49.7679C87.6552 49.5405 87.541 49.3995 87.3146 49.2575H89.8829C90.0815 49.2575 90.1947 49.2009 90.3799 49.1299C90.4931 49.0733 90.5641 49.0445 90.6782 48.9879V52.9751C91.274 52.5069 91.8132 52.3506 92.7496 52.3506C93.9555 52.3506 95.3745 53.1881 95.3745 54.3509V58.6499C95.3745 59.0183 95.3745 59.2601 95.5731 59.5575C95.6863 59.7705 95.8139 59.8837 95.999 59.9969L91.9696 59.9979Z" fill="#00824A"/>
<path d="M29.4363 65.6036C29.4363 65.6957 29.4392 65.7706 29.444 65.83C29.4497 65.8895 29.4584 65.9394 29.4728 65.9797C29.4862 66.02 29.5054 66.0536 29.5294 66.0785C29.5534 66.1044 29.586 66.1275 29.6263 66.1495H28.8127C28.853 66.1284 28.8856 66.1044 28.9096 66.0785C28.9336 66.0526 28.9528 66.02 28.9662 65.9797C28.9796 65.9394 28.9892 65.8895 28.994 65.83C28.9998 65.7706 29.0017 65.6948 29.0017 65.6036V63.8834C29.0017 63.7923 28.9988 63.7165 28.994 63.657C28.9883 63.5975 28.9796 63.5476 28.9662 63.5074C28.9528 63.4671 28.9336 63.4335 28.9096 63.4085C28.8856 63.3826 28.853 63.3596 28.8127 63.3375H29.6263C29.586 63.3596 29.5534 63.3826 29.5294 63.4085C29.5054 63.4344 29.4862 63.4671 29.4728 63.5074C29.4593 63.5476 29.4497 63.5975 29.444 63.657C29.4382 63.7165 29.4363 63.7923 29.4363 63.8834V65.6036ZM30.0964 63.8997C30.1607 63.8163 30.2125 63.7395 30.2499 63.6714C30.2873 63.6023 30.3065 63.5515 30.3065 63.5198C30.3065 63.4527 30.2633 63.3913 30.177 63.3375H30.9464L29.963 64.6001C30.1194 64.8102 30.2441 64.9781 30.3372 65.1038C30.4302 65.2295 30.506 65.3302 30.5636 65.407C30.6212 65.4837 30.6691 65.5451 30.7075 65.5912C30.7449 65.6372 30.7862 65.6842 30.8294 65.7331C30.8591 65.7658 30.8898 65.7974 30.9224 65.8281C30.955 65.8588 30.9915 65.8905 31.0318 65.9231C31.0721 65.9557 31.1172 65.9903 31.1671 66.0286C31.2169 66.0661 31.2745 66.1073 31.3388 66.1505C31.2851 66.1562 31.2198 66.161 31.145 66.1649C31.0692 66.1687 30.9982 66.1706 30.9301 66.1706C30.8466 66.1706 30.7756 66.163 30.7181 66.1486C30.6605 66.1342 30.5991 66.0977 30.5358 66.0411C30.4725 65.9845 30.3976 65.9001 30.3113 65.7878C30.2249 65.6756 30.1117 65.523 29.9717 65.3283C29.9122 65.2419 29.8527 65.1566 29.7913 65.0712C29.7308 64.9858 29.6694 64.9004 29.6071 64.814C29.5879 64.7929 29.5706 64.7709 29.5543 64.7498C29.538 64.7277 29.5217 64.7066 29.5054 64.6845L30.0964 63.8997Z" fill="#00824A"/>
<path d="M31.8847 65.122C31.8952 65.3743 31.9758 65.571 32.1255 65.712C32.2752 65.8531 32.4795 65.9241 32.7385 65.9241C32.8815 65.9241 33.0081 65.9058 33.1194 65.8703C33.2298 65.8348 33.342 65.7773 33.4552 65.6976L33.225 66.1063C33.1309 66.1438 33.0379 66.1706 32.9477 66.185C32.8575 66.1994 32.7529 66.2071 32.634 66.2071C32.4555 66.2071 32.2924 66.1812 32.1447 66.1303C31.996 66.0795 31.8684 66.0075 31.7619 65.9154C31.6554 65.8233 31.5719 65.714 31.5134 65.5854C31.4539 65.4568 31.4242 65.3158 31.4242 65.1623C31.4242 65.0088 31.4549 64.8697 31.5172 64.7296C31.5796 64.5896 31.664 64.4696 31.7724 64.3698C31.9586 64.2058 32.1955 64.1233 32.4843 64.1233C32.6244 64.1233 32.7539 64.1463 32.8729 64.1924C32.9918 64.2384 33.0945 64.3027 33.1808 64.3871C33.2672 64.4706 33.3343 64.5694 33.3833 64.6826C33.4322 64.7958 33.4562 64.9205 33.4562 65.0549V65.1239H31.8856L31.8847 65.122ZM33.0062 64.8553C32.9439 64.5397 32.7635 64.3814 32.4642 64.3814C32.3183 64.3814 32.1965 64.4226 32.0977 64.5051C31.9988 64.5876 31.9336 64.7037 31.901 64.8553H33.0062Z" fill="#00824A"/>
<path d="M34.4108 65.8061C34.5029 65.8492 34.5844 65.8799 34.6545 65.8972C34.7245 65.9145 34.8032 65.9231 34.8905 65.9231C35.1044 65.9231 35.2694 65.8588 35.3855 65.7303C35.5016 65.6017 35.5601 65.4175 35.5601 65.1786C35.5601 65.0644 35.5448 64.9599 35.5131 64.8659C35.4824 64.7709 35.4383 64.6893 35.3817 64.6222C35.3251 64.5541 35.257 64.5013 35.1773 64.4639C35.0977 64.4255 35.0094 64.4073 34.9125 64.4073C34.8156 64.4073 34.7226 64.4274 34.6353 64.4677C34.548 64.508 34.4741 64.5646 34.4146 64.6375C34.3772 64.6864 34.3503 64.7402 34.334 64.7997C34.3177 64.8591 34.31 64.9378 34.31 65.0347V66.612C34.31 66.6791 34.3119 66.7357 34.3158 66.7798C34.3196 66.824 34.3273 66.8614 34.3398 66.8911C34.3513 66.9209 34.3676 66.9458 34.3868 66.966C34.4069 66.9861 34.4338 67.0053 34.4674 67.0245H33.7593C33.7948 67.0053 33.8217 66.9861 33.8418 66.966C33.862 66.9458 33.8783 66.9209 33.8908 66.8911C33.9032 66.8614 33.9109 66.8249 33.9148 66.7818C33.9186 66.7386 33.9205 66.682 33.9205 66.612V64.6001C33.9205 64.5329 33.9196 64.4783 33.9167 64.436C33.9138 64.3938 33.9071 64.3593 33.8965 64.3305C33.886 64.3017 33.8697 64.2768 33.8476 64.2557C33.8255 64.2346 33.7968 64.2087 33.7584 64.1789H34.0548C34.1172 64.1789 34.168 64.1732 34.2064 64.1607C34.2448 64.1482 34.2784 64.1281 34.3091 64.0983L34.3052 64.4303C34.3839 64.3363 34.4856 64.2614 34.6113 64.2058C34.737 64.1501 34.8694 64.1223 35.0104 64.1223C35.1399 64.1223 35.2685 64.1492 35.397 64.2029C35.5256 64.2566 35.634 64.3286 35.7232 64.4178C35.8096 64.507 35.8767 64.6135 35.9237 64.7373C35.9707 64.8611 35.9947 64.9935 35.9947 65.1335C35.9947 65.287 35.9688 65.43 35.918 65.5605C35.8671 65.6909 35.7952 65.8041 35.7031 65.9001C35.611 65.996 35.5026 66.0709 35.3769 66.1246C35.2512 66.1783 35.114 66.2052 34.9663 66.2052C34.9039 66.2052 34.8502 66.2013 34.8041 66.1927C34.7581 66.185 34.7043 66.1697 34.642 66.1486L34.4117 65.8041L34.4108 65.8061Z" fill="#00824A"/>
<path d="M36.7785 65.122C36.7891 65.3743 36.8697 65.571 37.0194 65.712C37.169 65.8531 37.3734 65.9241 37.6324 65.9241C37.7754 65.9241 37.902 65.9058 38.0133 65.8703C38.1236 65.8348 38.2359 65.7773 38.3491 65.6976L38.1188 66.1063C38.0248 66.1438 37.9317 66.1706 37.8416 66.185C37.7514 66.1994 37.6468 66.2071 37.5278 66.2071C37.3494 66.2071 37.1863 66.1812 37.0385 66.1303C36.8898 66.0795 36.7622 66.0075 36.6557 65.9154C36.5493 65.8233 36.4658 65.714 36.4073 65.5854C36.3478 65.4568 36.318 65.3158 36.318 65.1623C36.318 65.0088 36.3487 64.8697 36.4111 64.7296C36.4735 64.5896 36.5579 64.4696 36.6663 64.3698C36.8524 64.2058 37.0894 64.1233 37.3782 64.1233C37.5182 64.1233 37.6478 64.1463 37.7667 64.1924C37.8857 64.2384 37.9883 64.3027 38.0747 64.3871C38.161 64.4706 38.2282 64.5694 38.2771 64.6826C38.3261 64.7958 38.35 64.9205 38.35 65.0549V65.1239H36.7795L36.7785 65.122ZM37.9001 64.8553C37.8377 64.5397 37.6574 64.3814 37.358 64.3814C37.2122 64.3814 37.0904 64.4226 36.9915 64.5051C36.8927 64.5876 36.8275 64.7037 36.7949 64.8553H37.9001Z" fill="#00824A"/>
<path d="M38.6801 66.1495C38.7175 66.1198 38.7472 66.0939 38.7693 66.0728C38.7914 66.0517 38.8067 66.0258 38.8182 65.9979C38.8288 65.9701 38.8355 65.9356 38.8384 65.8943C38.8412 65.854 38.8422 65.7984 38.8422 65.7283V64.5991C38.8422 64.532 38.8412 64.4773 38.8384 64.4351C38.8355 64.3929 38.8288 64.3583 38.8182 64.3296C38.8077 64.3008 38.7914 64.2758 38.7693 64.2547C38.7472 64.2327 38.7184 64.2077 38.6801 64.178H38.9765C39.0389 64.178 39.0897 64.1722 39.1281 64.1597C39.1665 64.1473 39.2001 64.1271 39.2308 64.0974V64.4495C39.3468 64.2307 39.5167 64.1214 39.7412 64.1214C39.7786 64.1214 39.8285 64.1271 39.8908 64.1377V64.5301C39.8419 64.484 39.7747 64.461 39.6884 64.461C39.6126 64.461 39.5416 64.4763 39.4764 64.507C39.4102 64.5377 39.3584 64.5809 39.3209 64.6346C39.2615 64.7181 39.2317 64.8476 39.2317 65.0232V65.7274C39.2317 65.7974 39.2327 65.8531 39.2356 65.8934C39.2384 65.9337 39.2452 65.9682 39.2557 65.997C39.2663 66.0248 39.2826 66.0507 39.3046 66.0718C39.3267 66.0939 39.3555 66.1188 39.3939 66.1486H38.682L38.6801 66.1495Z" fill="#00824A"/>
<path d="M41.7645 64.6155C41.6244 64.4754 41.446 64.4053 41.2301 64.4053C41.1217 64.4053 41.0248 64.4226 40.9366 64.4562C40.8493 64.4898 40.7744 64.5377 40.7121 64.5982C40.6497 64.6596 40.6017 64.7335 40.5682 64.8217C40.5346 64.91 40.5173 65.0069 40.5173 65.1124C40.5173 65.2285 40.5394 65.3369 40.5845 65.4357C40.6286 65.5346 40.69 65.6199 40.7667 65.6919C40.8435 65.7638 40.9356 65.8205 41.0421 65.8607C41.1486 65.901 41.2656 65.9221 41.3923 65.9221C41.5084 65.9221 41.6177 65.9049 41.7204 65.8703C41.823 65.8358 41.9305 65.783 42.0437 65.7111L41.7923 66.1275C41.7252 66.1543 41.6456 66.1745 41.5535 66.186C41.4614 66.1985 41.3597 66.2042 41.2455 66.2042C41.0757 66.2042 40.9193 66.1793 40.7763 66.1294C40.6334 66.0795 40.5106 66.0095 40.4089 65.9212C40.3072 65.832 40.2276 65.7264 40.17 65.6036C40.1124 65.4808 40.0837 65.3465 40.0837 65.2007C40.0837 65.0549 40.1134 64.909 40.1719 64.7776C40.2304 64.6471 40.3158 64.5291 40.4281 64.4236C40.5432 64.318 40.6708 64.2413 40.8099 64.1933C40.949 64.1444 41.1112 64.1204 41.2973 64.1204C41.3808 64.1204 41.4575 64.1242 41.5256 64.131C41.5947 64.1377 41.6734 64.1521 41.7626 64.1732V64.6145L41.7645 64.6155Z" fill="#00824A"/>
<path d="M43.4598 65.0817C43.4224 65.098 43.3907 65.1115 43.3648 65.122C43.3389 65.1326 43.3091 65.1441 43.2736 65.1546C43.2381 65.1652 43.1931 65.1777 43.1384 65.1911C43.0827 65.2045 43.0079 65.2218 42.9139 65.2439C42.7086 65.2928 42.6059 65.4012 42.6059 65.572C42.6059 65.6823 42.6462 65.7686 42.7258 65.8291C42.8055 65.8895 42.9177 65.9202 43.0616 65.9202C43.1153 65.9202 43.1652 65.9164 43.2103 65.9078C43.2554 65.9001 43.313 65.8847 43.383 65.8636L43.1317 66.1831C43.0856 66.1937 43.0463 66.2004 43.0146 66.2032C42.982 66.2061 42.9427 66.2071 42.8976 66.2071C42.6817 66.2071 42.5128 66.1514 42.392 66.0411C42.3219 65.9788 42.2682 65.9058 42.2298 65.8224C42.1924 65.7389 42.1732 65.6535 42.1732 65.5672C42.1732 65.4808 42.1943 65.3945 42.2375 65.3158C42.2807 65.2371 42.3382 65.1777 42.4112 65.1374C42.4409 65.1211 42.4716 65.1067 42.5042 65.0932C42.5368 65.0798 42.5742 65.0664 42.6174 65.0529C42.6606 65.0395 42.7105 65.0261 42.7671 65.0146C42.8237 65.0021 42.8918 64.9877 42.9724 64.9723C43.0664 64.9532 43.1441 64.9349 43.2065 64.9177C43.2679 64.9004 43.3178 64.8802 43.3542 64.8572C43.3907 64.8342 43.4156 64.8083 43.431 64.7805C43.4463 64.7526 43.4531 64.7191 43.4531 64.6807C43.4531 64.5991 43.4156 64.5339 43.3398 64.484C43.2641 64.4341 43.1662 64.4092 43.0453 64.4092C42.9993 64.4092 42.9561 64.4121 42.9158 64.4178C42.8755 64.4236 42.8333 64.4322 42.7901 64.4447C42.7469 64.4572 42.699 64.4754 42.6462 64.4984C42.5934 64.5224 42.532 64.5502 42.462 64.5828L42.746 64.154C42.8083 64.1406 42.8592 64.1329 42.8976 64.13C42.9369 64.1271 42.9849 64.1262 43.0415 64.1262C43.4041 64.1262 43.644 64.2221 43.7629 64.414C43.7821 64.4437 43.7965 64.4715 43.8071 64.4974C43.8176 64.5234 43.8263 64.5541 43.8311 64.5905C43.8368 64.627 43.8406 64.6711 43.8435 64.7239C43.8464 64.7766 43.8474 64.8428 43.8474 64.9244V65.4751C43.8474 65.5374 43.8483 65.5873 43.8512 65.6267C43.8541 65.666 43.8589 65.6976 43.8656 65.7216C43.8723 65.7456 43.8829 65.7667 43.8982 65.784C43.9126 65.8013 43.9327 65.8185 43.9567 65.8348C43.9865 65.8588 44.021 65.8761 44.0603 65.8857C44.0997 65.8953 44.1496 65.901 44.2119 65.9039L44.0258 66.1831C43.9174 66.1754 43.8349 66.1639 43.7783 66.1505C43.7207 66.1371 43.6689 66.115 43.6229 66.0862C43.5902 66.067 43.5624 66.0459 43.5413 66.021C43.5193 65.997 43.5029 65.9682 43.4905 65.9337C43.478 65.9001 43.4703 65.8598 43.4655 65.8118C43.4617 65.7648 43.4598 65.7063 43.4598 65.6362V65.0817Z" fill="#00824A"/>
<path d="M45.9494 64.6356C45.9926 64.5281 46.0137 64.4418 46.0137 64.3766C46.0137 64.3363 46.0041 64.3008 45.9858 64.271C45.9667 64.2413 45.935 64.2115 45.889 64.1818H46.4876L45.5772 66.3548C45.5234 66.4815 45.4726 66.5803 45.4256 66.6503C45.3786 66.7204 45.32 66.7837 45.25 66.8393C45.0936 66.9621 44.9008 67.0235 44.6715 67.0235C44.5851 67.0235 44.5045 67.0159 44.4307 66.9995C44.3568 66.9832 44.2637 66.9554 44.1534 66.9161L44.5381 66.6398C44.5842 66.6695 44.6245 66.6897 44.66 66.7002C44.6955 66.7108 44.7358 66.7165 44.7818 66.7165C44.8893 66.7165 44.9833 66.6772 45.0629 66.5995C45.1425 66.5208 45.2164 66.397 45.2836 66.2272L45.3239 66.114C45.2912 66.0814 45.2653 66.0545 45.2452 66.0334C45.225 66.0123 45.2078 65.9912 45.1924 65.9711C45.178 65.9509 45.1636 65.9279 45.1521 65.902C45.1397 65.8761 45.1243 65.8425 45.1061 65.7984L44.5391 64.5636C44.5122 64.5042 44.4873 64.4533 44.4643 64.4121C44.4412 64.3698 44.4172 64.3353 44.3933 64.3065C44.3693 64.2777 44.3424 64.2547 44.3146 64.2355C44.2868 64.2163 44.2541 64.1991 44.2196 64.1828L44.6321 64.1665C44.6974 64.1665 44.7396 64.1703 44.7617 64.1789C44.7751 64.1818 44.7876 64.1914 44.8 64.2096C44.8125 64.2269 44.8288 64.2586 44.8509 64.3046L45.5023 65.7734L45.9513 64.6366L45.9494 64.6356Z" fill="#00824A"/>
<path d="M47.9363 65.0817C47.8989 65.098 47.8672 65.1115 47.8413 65.122C47.8154 65.1326 47.7857 65.1441 47.7502 65.1546C47.7147 65.1652 47.6696 65.1777 47.6149 65.1911C47.5593 65.2045 47.4844 65.2218 47.3904 65.2439C47.1851 65.2928 47.0824 65.4012 47.0824 65.572C47.0824 65.6823 47.1227 65.7686 47.2024 65.8291C47.282 65.8895 47.3942 65.9202 47.5382 65.9202C47.5919 65.9202 47.6418 65.9164 47.6869 65.9078C47.7319 65.9001 47.7895 65.8847 47.8595 65.8636L47.6082 66.1831C47.5621 66.1937 47.5228 66.2004 47.4911 66.2032C47.4585 66.2061 47.4192 66.2071 47.3741 66.2071C47.1582 66.2071 46.9894 66.1514 46.8685 66.0411C46.7985 65.9788 46.7447 65.9058 46.7064 65.8224C46.6689 65.7389 46.6497 65.6535 46.6497 65.5672C46.6497 65.4808 46.6709 65.3945 46.714 65.3158C46.7572 65.2371 46.8148 65.1777 46.8877 65.1374C46.9174 65.1211 46.9481 65.1067 46.9807 65.0932C47.0134 65.0798 47.0508 65.0664 47.094 65.0529C47.1371 65.0395 47.187 65.0261 47.2436 65.0146C47.3002 65.0021 47.3683 64.9877 47.4489 64.9723C47.5429 64.9532 47.6207 64.9349 47.683 64.9177C47.7444 64.9004 47.7943 64.8802 47.8308 64.8572C47.8672 64.8342 47.8922 64.8083 47.9075 64.7805C47.9229 64.7526 47.9296 64.7191 47.9296 64.6807C47.9296 64.5991 47.8922 64.5339 47.8164 64.484C47.7406 64.4341 47.6427 64.4092 47.5218 64.4092C47.4758 64.4092 47.4326 64.4121 47.3923 64.4178C47.352 64.4236 47.3098 64.4322 47.2666 64.4447C47.2235 64.4572 47.1755 64.4754 47.1227 64.4984C47.07 64.5224 47.0086 64.5502 46.9385 64.5828L47.2225 64.154C47.2849 64.1406 47.3357 64.1329 47.3741 64.13C47.4134 64.1271 47.4614 64.1262 47.518 64.1262C47.8806 64.1262 48.1205 64.2221 48.2395 64.414C48.2587 64.4437 48.273 64.4715 48.2836 64.4974C48.2941 64.5234 48.3028 64.5541 48.3076 64.5905C48.3133 64.627 48.3172 64.6711 48.3201 64.7239C48.3229 64.7766 48.3239 64.8428 48.3239 64.9244V65.4751C48.3239 65.5374 48.3249 65.5873 48.3277 65.6267C48.3306 65.666 48.3354 65.6976 48.3421 65.7216C48.3488 65.7456 48.3594 65.7667 48.3747 65.784C48.3891 65.8013 48.4093 65.8185 48.4333 65.8348C48.463 65.8588 48.4975 65.8761 48.5369 65.8857C48.5762 65.8953 48.6261 65.901 48.6885 65.9039L48.5023 66.1831C48.3939 66.1754 48.3114 66.1639 48.2548 66.1505C48.1973 66.1371 48.1454 66.115 48.0994 66.0862C48.0668 66.067 48.039 66.0459 48.0178 66.021C47.9958 65.997 47.9795 65.9682 47.967 65.9337C47.9545 65.9001 47.9469 65.8598 47.9421 65.8118C47.9373 65.7638 47.9363 65.7063 47.9363 65.6362V65.0817Z" fill="#00824A"/>
<path d="M50.1419 65.0817C50.1045 65.098 50.0729 65.1115 50.047 65.122C50.0211 65.1326 49.9913 65.1441 49.9558 65.1546C49.9203 65.1652 49.8752 65.1777 49.8205 65.1911C49.7649 65.2045 49.6901 65.2218 49.5961 65.2439C49.3907 65.2928 49.2881 65.4012 49.2881 65.572C49.2881 65.6823 49.3284 65.7686 49.408 65.8291C49.4876 65.8895 49.5999 65.9202 49.7438 65.9202C49.7975 65.9202 49.8474 65.9164 49.8925 65.9078C49.9376 65.9001 49.9952 65.8847 50.0652 65.8636L49.8138 66.1831C49.7678 66.1937 49.7284 66.2004 49.6968 66.2032C49.6642 66.2061 49.6248 66.2071 49.5797 66.2071C49.3639 66.2071 49.195 66.1514 49.0741 66.0411C49.0041 65.9788 48.9504 65.9058 48.912 65.8224C48.8746 65.7389 48.8554 65.6535 48.8554 65.5672C48.8554 65.4808 48.8765 65.3945 48.9197 65.3158C48.9628 65.2371 49.0204 65.1777 49.0933 65.1374C49.1231 65.1211 49.1538 65.1067 49.1864 65.0932C49.219 65.0798 49.2564 65.0664 49.2996 65.0529C49.3428 65.0395 49.3927 65.0261 49.4493 65.0146C49.5059 65.0021 49.574 64.9877 49.6555 64.9723C49.7496 64.9532 49.8273 64.9349 49.8896 64.9177C49.951 64.9004 50.0009 64.8802 50.0374 64.8572C50.0738 64.8342 50.0988 64.8083 50.1141 64.7805C50.1295 64.7526 50.1362 64.7191 50.1362 64.6807C50.1362 64.5991 50.0988 64.5339 50.023 64.484C49.9472 64.4341 49.8493 64.4092 49.7284 64.4092C49.6824 64.4092 49.6392 64.4121 49.5989 64.4178C49.5586 64.4236 49.5164 64.4322 49.4732 64.4447C49.4301 64.4572 49.3821 64.4754 49.3293 64.4984C49.2766 64.5224 49.2152 64.5502 49.1451 64.5828L49.4291 64.154C49.4915 64.1406 49.5423 64.1329 49.5807 64.13C49.62 64.1271 49.668 64.1262 49.7246 64.1262C50.0873 64.1262 50.3271 64.2221 50.4461 64.414C50.4653 64.4437 50.4797 64.4715 50.4902 64.4974C50.5008 64.5234 50.5094 64.5541 50.5142 64.5905C50.5199 64.627 50.5238 64.6711 50.5267 64.7239C50.5295 64.7766 50.5305 64.8428 50.5305 64.9244V65.4751C50.5305 65.5374 50.5315 65.5873 50.5343 65.6267C50.5372 65.666 50.542 65.6976 50.5487 65.7216C50.5554 65.7456 50.566 65.7667 50.5813 65.784C50.5957 65.8013 50.6159 65.8185 50.6399 65.8348C50.6696 65.8588 50.7042 65.8761 50.7435 65.8857C50.7828 65.8953 50.8327 65.901 50.8951 65.9039L50.7089 66.1831C50.6005 66.1754 50.518 66.1639 50.4614 66.1505C50.4039 66.1371 50.3521 66.115 50.306 66.0862C50.2734 66.067 50.2456 66.0459 50.2245 66.021C50.2024 65.997 50.1861 65.9682 50.1736 65.9337C50.1611 65.9001 50.1535 65.8598 50.1487 65.8118C50.1448 65.7648 50.1429 65.7063 50.1429 65.6362V65.0856L50.1419 65.0817Z" fill="#00824A"/>
<path d="M51.6194 64.4543C51.7221 64.3324 51.8209 64.247 51.9159 64.1972C52.0118 64.1473 52.1221 64.1223 52.2488 64.1223C52.386 64.1223 52.5136 64.1501 52.6325 64.2058C52.7505 64.2614 52.8407 64.3344 52.9031 64.4265C52.9223 64.4562 52.9376 64.4879 52.951 64.5214C52.9645 64.555 52.975 64.5943 52.9837 64.6385C52.9913 64.6826 52.9971 64.7354 53 64.7939C53.0029 64.8534 53.0038 64.9234 53.0038 65.004V65.7283C53.0038 65.7984 53.0048 65.854 53.0077 65.8943C53.0105 65.9346 53.0173 65.9692 53.0278 65.9979C53.0384 66.0258 53.0547 66.0517 53.0767 66.0728C53.0978 66.0948 53.1276 66.1198 53.166 66.1495H52.4541C52.4905 66.1198 52.5203 66.0939 52.5433 66.0728C52.5654 66.0517 52.5817 66.0258 52.5922 65.9979C52.6028 65.9701 52.6095 65.9346 52.6124 65.8924C52.6153 65.8502 52.6162 65.7965 52.6162 65.7283V65.0481C52.6162 64.9349 52.6095 64.8467 52.5961 64.7833C52.5826 64.72 52.5587 64.6653 52.5241 64.6193C52.4809 64.5656 52.4215 64.5214 52.3438 64.4879C52.266 64.4543 52.1845 64.437 52.0991 64.437C52.0137 64.437 51.9351 64.4543 51.8641 64.4879C51.7931 64.5214 51.7374 64.5665 51.6971 64.6231C51.676 64.6529 51.6607 64.6855 51.653 64.72C51.6453 64.7555 51.6405 64.8035 51.6405 64.8659V65.7283C51.6405 65.7984 51.6415 65.854 51.6444 65.8943C51.6472 65.9346 51.6539 65.9692 51.6645 65.9979C51.6751 66.0258 51.6904 66.0517 51.7115 66.0728C51.7326 66.0948 51.7614 66.1198 51.7988 66.1495H51.0908C51.1282 66.1198 51.1579 66.0939 51.18 66.0728C51.2021 66.0517 51.2174 66.0258 51.2289 65.9979C51.2395 65.9701 51.2462 65.9356 51.2491 65.8943C51.252 65.854 51.2529 65.7984 51.2529 65.7283V64.5991C51.2529 64.532 51.252 64.4773 51.2491 64.4351C51.2462 64.3929 51.2395 64.3583 51.2289 64.3296C51.2184 64.3008 51.2021 64.2758 51.18 64.2547C51.1579 64.2327 51.1292 64.2077 51.0908 64.178H51.3671C51.4295 64.178 51.4803 64.1722 51.5187 64.1597C51.557 64.1473 51.5906 64.1271 51.6213 64.0974V64.4533L51.6194 64.4543Z" fill="#00824A"/>
<path d="M56.2044 63.7616C56.2044 63.6944 56.2034 63.6397 56.2005 63.5975C56.1976 63.5553 56.1909 63.5208 56.1804 63.492C56.1698 63.4632 56.1545 63.4383 56.1334 63.4172C56.1123 63.3951 56.0835 63.3702 56.0461 63.3404H56.3415C56.4039 63.3404 56.4538 63.3347 56.4912 63.3222C56.5286 63.3097 56.5622 63.2896 56.5919 63.2598V65.7303C56.5919 65.8003 56.5929 65.855 56.5958 65.8962C56.5987 65.9365 56.6054 65.9711 56.6159 65.9989C56.6265 66.0277 56.6428 66.0526 56.6649 66.0737C56.686 66.0948 56.7157 66.1207 56.7541 66.1505H56.2034V65.1815C56.2034 65.1009 56.2024 65.0328 56.1996 64.9771C56.1967 64.9225 56.1909 64.8745 56.1813 64.8361C56.1717 64.7968 56.1593 64.7632 56.143 64.7335C56.1266 64.7037 56.1065 64.673 56.0825 64.6404C56.0259 64.5646 55.9549 64.507 55.8705 64.4667C55.7851 64.4265 55.6949 64.4063 55.5971 64.4063C55.505 64.4063 55.4215 64.4236 55.3438 64.4591C55.267 64.4946 55.2008 64.5416 55.1452 64.602C55.0895 64.6625 55.0464 64.7354 55.0157 64.8217C54.985 64.9081 54.9687 65.0002 54.9687 65.0999C54.9687 65.216 54.9878 65.3235 55.0253 65.4233C55.0627 65.523 55.1154 65.6084 55.1816 65.6813C55.2478 65.7543 55.3265 65.8109 55.4176 65.8512C55.5088 65.8914 55.6067 65.9116 55.7122 65.9116C55.7851 65.9116 55.8494 65.9039 55.9031 65.8876C55.9568 65.8713 56.0192 65.8406 56.0902 65.7945L55.8427 66.1793C55.7966 66.1927 55.7602 66.2013 55.7333 66.2032C55.7064 66.2061 55.6709 66.2071 55.6278 66.2071C55.3678 66.2071 55.1529 66.1505 54.9821 66.0373C54.8372 65.9404 54.7278 65.8176 54.6511 65.6689C54.5753 65.5202 54.5369 65.3542 54.5369 65.1709C54.5369 65.0222 54.5628 64.885 54.6137 64.7584C54.6645 64.6318 54.7355 64.5214 54.8257 64.4265C54.9159 64.3324 55.0214 64.2576 55.1423 64.2039C55.2632 64.1501 55.3937 64.1233 55.5337 64.1233C55.6652 64.1233 55.7832 64.1434 55.8868 64.1828C55.9904 64.2221 56.0959 64.2873 56.2034 64.3775V63.7626L56.2044 63.7616Z" fill="#00824A"/>
<path d="M58.3294 65.0817C58.292 65.098 58.2603 65.1115 58.2344 65.122C58.2085 65.1326 58.1788 65.1441 58.1433 65.1546C58.1078 65.1652 58.0627 65.1777 58.008 65.1911C57.9524 65.2045 57.8775 65.2218 57.7835 65.2439C57.5782 65.2928 57.4756 65.4012 57.4756 65.572C57.4756 65.6823 57.5158 65.7686 57.5955 65.8291C57.6751 65.8895 57.7874 65.9202 57.9313 65.9202C57.985 65.9202 58.0349 65.9164 58.08 65.9078C58.1251 65.9001 58.1826 65.8847 58.2527 65.8636L58.0013 66.1831C57.9552 66.1937 57.9159 66.2004 57.8843 66.2032C57.8516 66.2061 57.8123 66.2071 57.7672 66.2071C57.5513 66.2071 57.3825 66.1514 57.2616 66.0411C57.1916 65.9788 57.1378 65.9058 57.0995 65.8224C57.0621 65.7389 57.0429 65.6535 57.0429 65.5672C57.0429 65.4808 57.064 65.3945 57.1071 65.3158C57.1503 65.2371 57.2079 65.1777 57.2808 65.1374C57.3105 65.1211 57.3412 65.1067 57.3739 65.0932C57.4065 65.0798 57.4439 65.0664 57.4871 65.0529C57.5302 65.0395 57.5801 65.0261 57.6367 65.0146C57.6933 65.0021 57.7615 64.9877 57.843 64.9723C57.937 64.9532 58.0147 64.9349 58.0771 64.9177C58.1385 64.9004 58.1884 64.8802 58.2248 64.8572C58.2613 64.8342 58.2862 64.8083 58.3016 64.7805C58.3169 64.7526 58.3237 64.7191 58.3237 64.6807C58.3237 64.5991 58.2862 64.5339 58.2104 64.484C58.1347 64.4341 58.0368 64.4092 57.9159 64.4092C57.8699 64.4092 57.8267 64.4121 57.7864 64.4178C57.7461 64.4236 57.7039 64.4322 57.6607 64.4447C57.6175 64.4572 57.5696 64.4754 57.5168 64.4984C57.464 64.5224 57.4026 64.5502 57.3326 64.5828L57.6166 64.154C57.6789 64.1406 57.7298 64.1329 57.7682 64.13C57.8075 64.1271 57.8555 64.1262 57.9121 64.1262C58.2747 64.1262 58.5146 64.2221 58.6335 64.414C58.6527 64.4437 58.6671 64.4715 58.6777 64.4974C58.6882 64.5234 58.6969 64.5541 58.7017 64.5905C58.7074 64.627 58.7113 64.6711 58.7141 64.7239C58.717 64.7766 58.718 64.8428 58.718 64.9244V65.4751C58.718 65.5374 58.7189 65.5873 58.7218 65.6267C58.7247 65.666 58.7295 65.6976 58.7362 65.7216C58.7429 65.7456 58.7535 65.7667 58.7688 65.784C58.7832 65.8013 58.8034 65.8185 58.8273 65.8348C58.8571 65.8588 58.8916 65.8761 58.931 65.8857C58.9703 65.8953 59.0202 65.901 59.0825 65.9039L58.8964 66.1831C58.788 66.1754 58.7055 66.1639 58.6489 66.1505C58.5913 66.1371 58.5395 66.115 58.4935 66.0862C58.4608 66.067 58.433 66.0459 58.4119 66.021C58.3899 65.997 58.3735 65.9682 58.3611 65.9337C58.3486 65.9001 58.3409 65.8598 58.3361 65.8118C58.3313 65.7638 58.3304 65.7063 58.3304 65.6362V65.0856L58.3294 65.0817Z" fill="#00824A"/>
<path d="M59.8069 64.4543C59.9095 64.3324 60.0084 64.247 60.1033 64.1972C60.1993 64.1473 60.3096 64.1223 60.4362 64.1223C60.5734 64.1223 60.701 64.1501 60.82 64.2058C60.938 64.2614 61.0282 64.3344 61.0905 64.4265C61.1097 64.4562 61.1251 64.4879 61.1385 64.5214C61.1519 64.555 61.1625 64.5943 61.1711 64.6385C61.1788 64.6826 61.1846 64.7354 61.1874 64.7939C61.1903 64.8534 61.1913 64.9234 61.1913 65.004V65.7283C61.1913 65.7984 61.1922 65.854 61.1951 65.8943C61.198 65.9346 61.2047 65.9692 61.2153 65.9979C61.2258 66.0258 61.2421 66.0517 61.2642 66.0728C61.2853 66.0948 61.315 66.1198 61.3534 66.1495H60.6415C60.678 66.1198 60.7077 66.0939 60.7308 66.0728C60.7528 66.0517 60.7701 66.0258 60.7797 65.9979C60.7902 65.9701 60.797 65.9346 60.7998 65.8924C60.8027 65.8502 60.8037 65.7965 60.8037 65.7283V65.0481C60.8037 64.9349 60.797 64.8467 60.7835 64.7833C60.7701 64.72 60.7461 64.6653 60.7116 64.6193C60.6684 64.5656 60.6089 64.5214 60.5312 64.4879C60.4535 64.4543 60.372 64.437 60.2866 64.437C60.2012 64.437 60.1225 64.4543 60.0515 64.4879C59.9805 64.5214 59.9249 64.5665 59.8846 64.6231C59.8635 64.6529 59.8481 64.6855 59.8405 64.72C59.8328 64.7555 59.828 64.8035 59.828 64.8659V65.7283C59.828 65.7984 59.8289 65.854 59.8318 65.8943C59.8347 65.9346 59.8414 65.9692 59.852 65.9979C59.8625 66.0258 59.8779 66.0517 59.899 66.0728C59.9201 66.0948 59.9489 66.1198 59.9863 66.1495H59.2782C59.3157 66.1198 59.3454 66.0939 59.3675 66.0728C59.3895 66.0517 59.4049 66.0258 59.4164 65.9979C59.427 65.9701 59.4337 65.9356 59.4365 65.8943C59.4394 65.854 59.4404 65.7984 59.4404 65.7283V64.5991C59.4404 64.532 59.4394 64.4773 59.4365 64.4351C59.4337 64.3929 59.427 64.3583 59.4164 64.3296C59.4058 64.3008 59.3895 64.2758 59.3675 64.2547C59.3454 64.2327 59.3166 64.2077 59.2782 64.178H59.5546C59.6169 64.178 59.6678 64.1722 59.7061 64.1597C59.7445 64.1473 59.7781 64.1271 59.8088 64.0974V64.4533L59.8069 64.4543Z" fill="#00824A"/>
<path d="M63.396 65.6036C63.396 65.6957 63.3988 65.7706 63.4036 65.83C63.4094 65.8895 63.418 65.9394 63.4315 65.9797C63.4449 66.02 63.4641 66.0536 63.4881 66.0785C63.5121 66.1044 63.5447 66.1275 63.585 66.1495H62.7714C62.8117 66.1284 62.8443 66.1044 62.8683 66.0785C62.8923 66.0526 62.9115 66.02 62.9249 65.9797C62.9383 65.9394 62.9479 65.8895 62.9527 65.83C62.9585 65.7706 62.9614 65.6948 62.9614 65.6036V63.8834C62.9614 63.7923 62.9585 63.7165 62.9527 63.657C62.947 63.5975 62.9383 63.5476 62.9249 63.5074C62.9115 63.4671 62.8923 63.4335 62.8683 63.4085C62.8443 63.3836 62.8117 63.3596 62.7714 63.3375H63.585C63.5447 63.3596 63.5121 63.3826 63.4881 63.4085C63.4641 63.4344 63.4449 63.4671 63.4315 63.5074C63.418 63.5476 63.4084 63.5975 63.4036 63.657C63.3979 63.7165 63.396 63.7923 63.396 63.8834V65.6036ZM64.056 63.8997C64.1203 63.8163 64.1721 63.7395 64.2095 63.6714C64.2469 63.6023 64.2661 63.5515 64.2661 63.5198C64.2661 63.4527 64.223 63.3913 64.1366 63.3375H64.9051L63.9217 64.6001C64.0781 64.8102 64.2028 64.9781 64.2959 65.1038C64.3889 65.2295 64.4647 65.3302 64.5223 65.407C64.5799 65.4837 64.6278 65.5451 64.6662 65.5912C64.7036 65.6372 64.7449 65.6842 64.788 65.7331C64.8178 65.7658 64.8485 65.7974 64.8811 65.8281C64.9137 65.8588 64.9502 65.8905 64.9905 65.9231C65.0308 65.9557 65.0759 65.9903 65.1258 66.0286C65.1756 66.0661 65.2332 66.1073 65.2975 66.1505C65.2438 66.1562 65.1785 66.161 65.1027 66.1649C65.0269 66.1687 64.9559 66.1706 64.8878 66.1706C64.8044 66.1706 64.7334 66.163 64.6758 66.1486C64.6173 66.1342 64.5568 66.0977 64.4935 66.0411C64.4302 65.9845 64.3554 65.9001 64.269 65.7878C64.1827 65.6756 64.0695 65.523 63.9294 65.3283C63.8699 65.2419 63.8095 65.1566 63.749 65.0712C63.6886 64.9858 63.6272 64.9004 63.5648 64.814C63.5456 64.7929 63.5284 64.7709 63.5121 64.7498C63.4958 64.7277 63.4794 64.7066 63.4631 64.6845L64.0541 63.8997H64.056Z" fill="#00824A"/>
<path d="M65.8443 65.122C65.8549 65.3743 65.9355 65.571 66.0851 65.712C66.2348 65.8531 66.4392 65.9241 66.6982 65.9241C66.8412 65.9241 66.9678 65.9058 67.0791 65.8703C67.1894 65.8348 67.3017 65.7773 67.4149 65.6976L67.1846 66.1063C67.0896 66.1438 66.9975 66.1706 66.9073 66.185C66.8172 66.1994 66.7126 66.2071 66.5936 66.2071C66.4152 66.2071 66.2521 66.1812 66.1043 66.1303C65.9556 66.0795 65.828 66.0075 65.7215 65.9154C65.615 65.8233 65.5316 65.714 65.4731 65.5854C65.4136 65.4568 65.3838 65.3158 65.3838 65.1623C65.3838 65.0088 65.4145 64.8697 65.4769 64.7296C65.5393 64.5896 65.6237 64.4696 65.7321 64.3698C65.9182 64.2058 66.1561 64.1233 66.444 64.1233C66.584 64.1233 66.7136 64.1463 66.8325 64.1924C66.9515 64.2384 67.0541 64.3027 67.1405 64.3871C67.2268 64.4706 67.294 64.5694 67.3429 64.6826C67.3918 64.7958 67.4158 64.9205 67.4158 65.0549V65.1239H65.8453L65.8443 65.122ZM66.9659 64.8553C66.9035 64.5397 66.7231 64.3814 66.4238 64.3814C66.278 64.3814 66.1561 64.4226 66.0573 64.5051C65.9585 64.5876 65.8933 64.7037 65.8607 64.8553H66.9659Z" fill="#00824A"/>
<path d="M68.2774 64.4581C68.3666 64.3372 68.4577 64.2499 68.5527 64.1991C68.6467 64.1482 68.7628 64.1223 68.901 64.1223C69.0487 64.1223 69.1744 64.1521 69.2771 64.2115C69.3797 64.271 69.4709 64.367 69.5524 64.4994C69.6551 64.3622 69.7567 64.2643 69.8584 64.2077C69.9592 64.1511 70.082 64.1223 70.2249 64.1223C70.3679 64.1223 70.5032 64.1501 70.6221 64.2077C70.7411 64.2643 70.8303 64.3401 70.8898 64.4341C70.9272 64.4984 70.9541 64.5694 70.9685 64.6442C70.9829 64.72 70.9905 64.8265 70.9905 64.9637V65.7283C70.9905 65.7984 70.9934 65.8569 70.9982 65.9049C71.004 65.9519 71.0126 65.9912 71.027 66.0219C71.0404 66.0526 71.0596 66.0776 71.0836 66.0968C71.1076 66.1159 71.1402 66.1332 71.1805 66.1495H70.4389C70.4763 66.1227 70.506 66.0987 70.5281 66.0766C70.5502 66.0555 70.5674 66.0306 70.578 66.0018C70.5885 65.974 70.5953 65.9385 70.5981 65.8962C70.601 65.854 70.602 65.7984 70.602 65.7283V65.0683C70.602 64.9493 70.5933 64.8553 70.5761 64.7853C70.5588 64.7152 70.531 64.6548 70.4936 64.603C70.4504 64.5521 70.3967 64.5109 70.3305 64.4811C70.2643 64.4514 70.1923 64.437 70.1146 64.437C70.0206 64.437 69.9352 64.4591 69.8584 64.5022C69.7817 64.5454 69.7251 64.603 69.6867 64.6759C69.6762 64.6951 69.6675 64.7133 69.6627 64.7306C69.657 64.7479 69.6531 64.768 69.6503 64.7891C69.6474 64.8102 69.6455 64.838 69.6445 64.8716C69.6435 64.9052 69.6426 64.9474 69.6426 64.9992V65.7274C69.6426 65.7974 69.6435 65.8531 69.6464 65.8934C69.6493 65.9337 69.656 65.9682 69.6666 65.997C69.6771 66.0248 69.6944 66.0507 69.7165 66.0718C69.7395 66.0939 69.7692 66.1188 69.8066 66.1486H69.0938C69.1312 66.1217 69.161 66.0977 69.1821 66.0757C69.2032 66.0545 69.2195 66.0296 69.23 66.0008C69.2406 65.973 69.2473 65.9375 69.2502 65.8953C69.2531 65.8531 69.254 65.7974 69.254 65.7274V65.0309C69.254 64.8284 69.2108 64.6826 69.1255 64.5934C69.0823 64.5473 69.0295 64.5128 68.9662 64.4879C68.9029 64.4639 68.8376 64.4514 68.7705 64.4514C68.687 64.4514 68.6093 64.4687 68.5364 64.5022C68.4635 64.5358 68.4088 64.5828 68.3714 64.6423C68.3416 64.6855 68.3225 64.7296 68.3129 64.7738C68.3033 64.8179 68.2985 64.8841 68.2985 64.9704V65.7274C68.2985 65.7974 68.2994 65.854 68.3023 65.8953C68.3052 65.9375 68.3119 65.972 68.3225 66.0008C68.333 66.0296 68.3493 66.0545 68.3704 66.0757C68.3915 66.0977 68.4203 66.1217 68.4577 66.1486H67.7487C67.7862 66.1188 67.8159 66.0929 67.838 66.0718C67.8591 66.0507 67.8754 66.0248 67.8869 65.997C67.8974 65.9692 67.9042 65.9346 67.907 65.8934C67.9099 65.8531 67.9109 65.7974 67.9109 65.7274V64.5982C67.9109 64.531 67.9099 64.4763 67.907 64.4341C67.9042 64.3919 67.8974 64.3574 67.8869 64.3286C67.8763 64.2998 67.86 64.2749 67.838 64.2538C67.8159 64.2317 67.7862 64.2068 67.7487 64.177H68.0452C68.1546 64.177 68.2323 64.1501 68.2783 64.0964V64.4562L68.2774 64.4581Z" fill="#00824A"/>
<path d="M72.0449 65.7283C72.0449 65.7984 72.0459 65.854 72.0487 65.8943C72.0516 65.9346 72.0583 65.9692 72.0689 65.9979C72.0794 66.0258 72.0958 66.0517 72.1178 66.0728C72.1389 66.0948 72.1687 66.1198 72.207 66.1495H71.4952C71.5326 66.1198 71.5623 66.0939 71.5844 66.0728C71.6055 66.0517 71.6218 66.0258 71.6333 65.9979C71.6439 65.9701 71.6506 65.9356 71.6535 65.8943C71.6563 65.854 71.6573 65.7984 71.6573 65.7283V64.5991C71.6573 64.532 71.6563 64.4773 71.6535 64.4351C71.6506 64.3929 71.6439 64.3583 71.6333 64.3296C71.6228 64.3008 71.6065 64.2758 71.5844 64.2547C71.5623 64.2327 71.5326 64.2077 71.4952 64.178H71.7916C71.854 64.178 71.9048 64.1722 71.9432 64.1597C71.9816 64.1473 72.0152 64.1271 72.0459 64.0974L72.0449 65.7283ZM71.8463 63.3893C71.9163 63.3893 71.9768 63.4153 72.0286 63.468C72.0794 63.5208 72.1053 63.5822 72.1053 63.6522C72.1053 63.728 72.0794 63.7913 72.0286 63.8422C71.9777 63.894 71.9135 63.9189 71.8386 63.9189C71.7638 63.9189 71.7034 63.893 71.6525 63.8422C71.6017 63.7913 71.5758 63.728 71.5758 63.6522C71.5758 63.5764 71.6017 63.5169 71.6525 63.4661C71.7034 63.4153 71.7686 63.3893 71.8463 63.3893Z" fill="#00824A"/>
<path d="M73.1501 65.3686C73.1501 65.4875 73.1559 65.5739 73.1664 65.6295C73.177 65.6852 73.1971 65.7312 73.2269 65.7696C73.3075 65.8665 73.4168 65.9154 73.555 65.9154C73.5876 65.9154 73.6154 65.9126 73.6404 65.9078C73.6644 65.902 73.696 65.8934 73.7334 65.8799L73.5109 66.1831C73.4811 66.1937 73.4562 66.2004 73.436 66.2032C73.4159 66.2061 73.389 66.2071 73.3574 66.2071C73.2681 66.2071 73.1885 66.1917 73.1175 66.1601C73.0465 66.1294 72.9803 66.0824 72.918 66.021C72.8853 65.9855 72.8585 65.9519 72.8383 65.9202C72.8182 65.8876 72.8019 65.8492 72.7913 65.8051C72.7808 65.761 72.7731 65.7063 72.7692 65.643C72.7654 65.5796 72.7635 65.501 72.7635 65.406V64.4629H72.4718V64.3094C72.6205 64.2854 72.7376 64.2231 72.8249 64.1233C72.9314 64.0101 72.9841 63.8345 72.9841 63.5975V63.5448H73.152V64.1799H73.484C73.554 64.1799 73.6068 64.1789 73.6413 64.1761C73.6768 64.1732 73.7075 64.1665 73.7344 64.1559V64.5406C73.6989 64.5109 73.6644 64.4907 73.6289 64.4802C73.5934 64.4696 73.5396 64.4639 73.4667 64.4639H73.1511V65.3705L73.1501 65.3686Z" fill="#00824A"/>
<path d="M73.9349 66.1495C73.9723 66.1198 74.0021 66.0939 74.0241 66.0728C74.0452 66.0517 74.0615 66.0258 74.0731 65.9979C74.0836 65.9701 74.0903 65.9356 74.0932 65.8943C74.0961 65.854 74.097 65.7984 74.097 65.7283V64.5991C74.097 64.532 74.0961 64.4773 74.0932 64.4351C74.0903 64.3929 74.0836 64.3583 74.0731 64.3296C74.0625 64.3008 74.0462 64.2758 74.0241 64.2547C74.0021 64.2327 73.9723 64.2077 73.9349 64.178H74.2314C74.2937 64.178 74.3446 64.1722 74.3829 64.1597C74.4213 64.1473 74.4549 64.1271 74.4856 64.0974V64.4495C74.6017 64.2307 74.7715 64.1214 74.996 64.1214C75.0334 64.1214 75.0833 64.1271 75.1457 64.1377V64.5301C75.0967 64.484 75.0296 64.461 74.9432 64.461C74.8674 64.461 74.7964 64.4763 74.7312 64.507C74.665 64.5377 74.6132 64.5809 74.5758 64.6346C74.5163 64.7181 74.4866 64.8476 74.4866 65.0232V65.7274C74.4866 65.7974 74.4875 65.8531 74.4904 65.8934C74.4933 65.9337 74.5 65.9682 74.5105 65.997C74.5211 66.0248 74.5374 66.0507 74.5595 66.0718C74.5806 66.0939 74.6103 66.1188 74.6487 66.1486H73.9368L73.9349 66.1495Z" fill="#00824A"/>
<path d="M76.6059 65.0817C76.5685 65.098 76.5368 65.1115 76.5109 65.122C76.485 65.1326 76.4552 65.1441 76.4197 65.1546C76.3842 65.1652 76.3391 65.1777 76.2845 65.1911C76.2288 65.2045 76.154 65.2218 76.06 65.2439C75.8547 65.2928 75.752 65.4012 75.752 65.572C75.752 65.6823 75.7923 65.7686 75.8719 65.8291C75.9516 65.8895 76.0638 65.9202 76.2077 65.9202C76.2614 65.9202 76.3113 65.9164 76.3564 65.9078C76.4015 65.9001 76.4591 65.8847 76.5291 65.8636L76.2777 66.1831C76.2317 66.1937 76.1924 66.2004 76.1607 66.2032C76.1281 66.2061 76.0887 66.2071 76.0437 66.2071C75.8278 66.2071 75.6589 66.1514 75.5381 66.0411C75.468 65.9788 75.4143 65.9058 75.3759 65.8224C75.3385 65.7389 75.3193 65.6535 75.3193 65.5672C75.3193 65.4808 75.3404 65.3945 75.3836 65.3158C75.4268 65.2371 75.4843 65.1777 75.5572 65.1374C75.587 65.1211 75.6177 65.1067 75.6503 65.0932C75.6829 65.0798 75.7203 65.0664 75.7635 65.0529C75.8067 65.0395 75.8566 65.0261 75.9132 65.0146C75.9698 65.0021 76.0379 64.9877 76.1185 64.9723C76.2125 64.9532 76.2902 64.9349 76.3526 64.9177C76.414 64.9004 76.4639 64.8802 76.5003 64.8572C76.5368 64.8342 76.5617 64.8083 76.5771 64.7805C76.5924 64.7526 76.5991 64.7191 76.5991 64.6807C76.5991 64.5991 76.5617 64.5339 76.4859 64.484C76.4101 64.4341 76.3123 64.4092 76.1904 64.4092C76.1444 64.4092 76.1012 64.4121 76.0609 64.4178C76.0206 64.4236 75.9784 64.4322 75.9352 64.4447C75.8921 64.4572 75.8441 64.4754 75.7913 64.4984C75.7386 64.5224 75.6772 64.5502 75.6071 64.5828L75.8911 64.154C75.9535 64.1406 76.0043 64.1329 76.0437 64.13C76.083 64.1271 76.131 64.1262 76.1876 64.1262C76.5502 64.1262 76.7901 64.2221 76.909 64.414C76.9282 64.4437 76.9426 64.4715 76.9532 64.4974C76.9637 64.5234 76.9724 64.5541 76.9771 64.5905C76.9819 64.627 76.9867 64.6711 76.9896 64.7239C76.9925 64.7766 76.9935 64.8428 76.9935 64.9244V65.4751C76.9935 65.5374 76.9944 65.5873 76.9973 65.6267C77.0002 65.666 77.005 65.6976 77.0117 65.7216C77.0184 65.7456 77.029 65.7667 77.0443 65.784C77.0587 65.8013 77.0788 65.8185 77.1028 65.8348C77.1326 65.8588 77.1671 65.8761 77.2064 65.8857C77.2458 65.8953 77.2957 65.901 77.358 65.9039L77.1719 66.1831C77.0644 66.1754 76.981 66.1639 76.9244 66.1505C76.8668 66.1371 76.815 66.115 76.769 66.0862C76.7363 66.067 76.7085 66.0459 76.6874 66.021C76.6653 65.997 76.649 65.9682 76.6366 65.9337C76.6241 65.9001 76.6164 65.8598 76.6116 65.8118C76.6078 65.7648 76.6059 65.7063 76.6059 65.6362V65.0817Z" fill="#00824A"/>
<path d="M78.8115 65.0817C78.7741 65.098 78.7424 65.1115 78.7165 65.122C78.6906 65.1326 78.6609 65.1441 78.6254 65.1546C78.5899 65.1652 78.5448 65.1777 78.4901 65.1911C78.4345 65.2045 78.3596 65.2218 78.2656 65.2439C78.0603 65.2928 77.9576 65.4012 77.9576 65.572C77.9576 65.6823 77.9979 65.7686 78.0776 65.8291C78.1572 65.8895 78.2694 65.9202 78.4134 65.9202C78.4671 65.9202 78.517 65.9164 78.5621 65.9078C78.6072 65.9001 78.6647 65.8847 78.7348 65.8636L78.4834 66.1831C78.4373 66.1937 78.398 66.2004 78.3663 66.2032C78.3337 66.2061 78.2944 66.2071 78.2493 66.2071C78.0334 66.2071 77.8646 66.1514 77.7437 66.0411C77.6737 65.9788 77.6199 65.9058 77.5816 65.8224C77.5441 65.7389 77.525 65.6535 77.525 65.5672C77.525 65.4808 77.5461 65.3945 77.5892 65.3158C77.6324 65.2371 77.69 65.1777 77.7629 65.1374C77.7926 65.1211 77.8233 65.1067 77.8559 65.0932C77.8886 65.0798 77.926 65.0664 77.9692 65.0529C78.0123 65.0395 78.0622 65.0261 78.1188 65.0146C78.1754 65.0021 78.2435 64.9877 78.3241 64.9723C78.4182 64.9532 78.4959 64.9349 78.5582 64.9177C78.6196 64.9004 78.6695 64.8802 78.706 64.8572C78.7424 64.8342 78.7674 64.8083 78.7827 64.7805C78.7981 64.7526 78.8048 64.7191 78.8048 64.6807C78.8048 64.5991 78.7674 64.5339 78.6916 64.484C78.6158 64.4341 78.5179 64.4092 78.3961 64.4092C78.35 64.4092 78.3069 64.4121 78.2666 64.4178C78.2263 64.4236 78.1841 64.4322 78.1409 64.4447C78.0977 64.4572 78.0497 64.4754 77.997 64.4984C77.9442 64.5224 77.8828 64.5502 77.8128 64.5828L78.0968 64.154C78.1591 64.1406 78.21 64.1329 78.2483 64.13C78.2877 64.1271 78.3357 64.1262 78.3923 64.1262C78.7549 64.1262 78.9947 64.2221 79.1137 64.414C79.1329 64.4437 79.1473 64.4715 79.1578 64.4974C79.1684 64.5234 79.177 64.5541 79.1818 64.5905C79.1866 64.627 79.1914 64.6711 79.1943 64.7239C79.1972 64.7766 79.1981 64.8428 79.1981 64.9244V65.4751C79.1981 65.5374 79.1991 65.5873 79.202 65.6267C79.2049 65.666 79.2097 65.6976 79.2164 65.7216C79.2231 65.7456 79.2336 65.7667 79.249 65.784C79.2634 65.8013 79.2835 65.8185 79.3075 65.8348C79.3372 65.8588 79.3718 65.8761 79.4111 65.8857C79.4505 65.8953 79.5004 65.901 79.5627 65.9039L79.3766 66.1831C79.2691 66.1754 79.1857 66.1639 79.1291 66.1505C79.0715 66.1371 79.0197 66.115 78.9736 66.0862C78.941 66.067 78.9132 66.0459 78.8921 66.021C78.87 65.997 78.8537 65.9682 78.8412 65.9337C78.8288 65.9001 78.8211 65.8598 78.8163 65.8118C78.8125 65.7648 78.8105 65.7063 78.8105 65.6362V65.0856L78.8115 65.0817Z" fill="#00824A"/>
<path d="M80.289 64.4543C80.3916 64.3324 80.4904 64.247 80.5854 64.1972C80.6814 64.1473 80.7917 64.1223 80.9183 64.1223C81.0555 64.1223 81.1831 64.1501 81.3021 64.2058C81.4201 64.2614 81.5103 64.3344 81.5726 64.4265C81.5918 64.4562 81.6072 64.4879 81.6206 64.5214C81.634 64.555 81.6446 64.5943 81.6532 64.6385C81.6609 64.6826 81.6667 64.7354 81.6695 64.7939C81.6724 64.8534 81.6734 64.9234 81.6734 65.004V65.7283C81.6734 65.7984 81.6743 65.854 81.6772 65.8943C81.6801 65.9346 81.6868 65.9692 81.6974 65.9979C81.7079 66.0258 81.7242 66.0517 81.7463 66.0728C81.7674 66.0948 81.7971 66.1198 81.8355 66.1495H81.1236C81.1601 66.1198 81.1898 66.0939 81.2129 66.0728C81.2349 66.0517 81.2522 66.0258 81.2618 65.9979C81.2723 65.9701 81.2791 65.9346 81.281 65.8924C81.2839 65.8502 81.2848 65.7965 81.2848 65.7283V65.0481C81.2848 64.9349 81.2781 64.8467 81.2647 64.7833C81.2513 64.72 81.2273 64.6653 81.1927 64.6193C81.1496 64.5656 81.0901 64.5214 81.0124 64.4879C80.9346 64.4543 80.8531 64.437 80.7677 64.437C80.6823 64.437 80.6037 64.4543 80.5327 64.4879C80.4617 64.5214 80.406 64.5665 80.3657 64.6231C80.3446 64.6529 80.3293 64.6855 80.3216 64.72C80.3139 64.7555 80.3101 64.8035 80.3101 64.8659V65.7283C80.3101 65.7984 80.311 65.854 80.3139 65.8943C80.3168 65.9346 80.3235 65.9692 80.3341 65.9979C80.3446 66.0258 80.36 66.0517 80.3811 66.0728C80.4022 66.0948 80.431 66.1198 80.4684 66.1495H79.7603C79.7978 66.1198 79.8275 66.0939 79.8496 66.0728C79.8707 66.0517 79.887 66.0258 79.8985 65.9979C79.9091 65.9701 79.9158 65.9356 79.9186 65.8943C79.9215 65.854 79.9225 65.7984 79.9225 65.7283V64.5991C79.9225 64.532 79.9215 64.4773 79.9186 64.4351C79.9158 64.3929 79.9091 64.3583 79.8985 64.3296C79.888 64.3008 79.8716 64.2758 79.8496 64.2547C79.8275 64.2327 79.7978 64.2077 79.7603 64.178H80.0367C80.099 64.178 80.1499 64.1722 80.1882 64.1597C80.2266 64.1473 80.2602 64.1271 80.2909 64.0974V64.4533L80.289 64.4543Z" fill="#00824A"/>
</g>
<rect x="1" y="1" width="110" height="110" rx="9" stroke="#CCCCCC" stroke-width="2"/>
<defs>
<clipPath id="clip0_528_596">
<rect x="2" y="2" width="108" height="108" rx="8" fill="white"/>
</clipPath>
</defs>
</svg>
