<svg width="112" height="112" viewBox="0 0 112 112" fill="none" xmlns="http://www.w3.org/2000/svg">
<g clip-path="url(#clip0_812_6)">
<rect x="2" y="2" width="108" height="108" rx="8" fill="white"/>
<path d="M24.2122 50.6562C24.4872 50.224 24.6248 49.7329 24.6248 49.2417C24.6248 48.7505 24.4872 48.2594 24.2318 47.8468L23.2299 46.2358L16.4126 57.1592C16.1375 57.5914 16 58.0826 16 58.5737C16 59.0649 16.1375 59.556 16.3929 59.9686L17.3949 61.5796L24.2122 50.6562Z" fill="#FF3E17"/>
<path d="M29.8507 59.6739C30.1257 59.2417 30.2633 58.7505 30.2633 58.2594C30.2633 57.7682 30.1257 57.277 29.8703 56.8645L28.8684 55.2535L24.6248 62.0315C24.3497 62.4637 24.2122 62.9548 24.2122 63.446C24.2122 63.9372 24.3497 64.4283 24.6051 64.8409L25.6071 66.4519L29.8507 59.6739Z" fill="#FF3E17"/>
<path d="M27.0413 52.3458L26.0393 50.7348L18.9862 62.0315C18.7112 62.4637 18.5737 62.9548 18.5737 63.446C18.5737 63.9372 18.7112 64.4283 18.9666 64.8409L19.9686 66.4519L27.0216 55.1552C27.2967 54.723 27.4342 54.2319 27.4342 53.7407C27.4342 53.2495 27.2967 52.7584 27.0413 52.3458Z" fill="#FF3E17"/>
<path d="M41.56 46.2358C42.1494 46.2358 42.6209 46.4126 42.9156 46.6876C43.1317 46.9037 43.2495 47.1788 43.2495 47.5128V47.5324C43.2495 48.2004 42.837 48.554 42.4244 48.7308C43.0334 48.9077 43.5246 49.2613 43.5246 49.9882V50.0079C43.5246 50.8919 42.778 51.4224 41.6385 51.4224H39.3399V46.2358H41.56ZM42.6602 47.5914C42.6602 47.0805 42.2476 46.7466 41.5207 46.7466H39.949V48.5344H41.4814C42.169 48.5344 42.6602 48.22 42.6602 47.5914ZM41.56 49.0648H39.9293V50.8919H41.6778C42.4637 50.8919 42.9549 50.5383 42.9549 49.9686V49.9489C42.9352 49.3792 42.4637 49.0648 41.56 49.0648Z" fill="#020000"/>
<path d="M44.3104 49.5167C44.3104 48.2593 45.2142 47.5128 46.1376 47.5128C46.8448 47.5128 47.3163 47.9057 47.611 48.3183V47.5914H48.1808V51.4224H47.611V50.6562C47.2967 51.1081 46.8448 51.501 46.1376 51.501C45.2142 51.501 44.3104 50.7741 44.3104 49.5167ZM47.611 49.4971C47.611 48.5933 46.9431 48.0039 46.2358 48.0039C45.4892 48.0039 44.8802 48.554 44.8802 49.4774V49.4971C44.8802 50.4008 45.5089 50.9705 46.2358 50.9705C46.9431 50.9902 47.611 50.3811 47.611 49.4971Z" fill="#020000"/>
<path d="M49.3596 47.5914H49.9293V48.2593C50.1847 47.8468 50.5776 47.5128 51.2456 47.5128C52.169 47.5128 52.7191 48.1415 52.7191 49.0452V51.4224H52.1493V49.1827C52.1493 48.4754 51.7564 48.0236 51.0884 48.0236C50.4205 48.0236 49.949 48.4951 49.949 49.222V51.4028H49.3792V47.5914H49.3596Z" fill="#020000"/>
<path d="M54.4283 46V49.7328L56.4912 47.5717H57.1985L55.5875 49.222L57.2378 51.4028H56.5501L55.1749 49.6149L54.389 50.4008V51.4028H53.8193V46H54.4283Z" fill="#020000"/>
<path d="M34.2318 64.9392L35.7839 63.2103C36.4322 63.9176 37.0413 64.3301 37.8271 64.3301C38.7505 64.3301 39.3399 63.7604 39.3399 62.4637V55.2339H41.8743V62.5816C41.8743 63.9176 41.4813 64.8999 40.8134 65.5875C40.1258 66.2751 39.1041 66.6287 37.8861 66.6287C36.1572 66.6287 35.0177 65.8429 34.2318 64.9392Z" fill="#020000"/>
<path d="M43.5246 62.169V62.1297C43.5246 59.2614 45.391 57.6896 47.4342 57.6896C48.7309 57.6896 49.5364 58.279 50.1061 58.9667V57.8468H52.5422V66.4323H50.1061V65.1946C49.5167 66.0001 48.6916 66.5895 47.4342 66.5895C45.4303 66.6287 43.5246 65.057 43.5246 62.169ZM50.1454 62.169V62.1297C50.1454 60.6955 49.2024 59.7525 48.0629 59.7525C46.9234 59.7525 45.9607 60.6759 45.9607 62.1297V62.169C45.9607 63.6032 46.9234 64.5462 48.0629 64.5462C49.2024 64.5462 50.1454 63.6032 50.1454 62.169Z" fill="#020000"/>
<path d="M54.6444 54.7623H57.0806V60.9902L59.9293 57.8665H62.8566L59.5953 61.2456L62.9745 66.4519H60.1454L57.945 62.9156L57.0806 63.839V66.4519H54.6444V54.7623Z" fill="#020000"/>
<path d="M63.2692 62.169V62.1297C63.2692 59.2614 65.1356 57.6896 67.1788 57.6896C68.4755 57.6896 69.281 58.279 69.8507 58.9667V57.8468H72.3065V66.4323H69.8704V65.1946C69.281 66.0001 68.4558 66.5895 67.1984 66.5895C65.1749 66.6287 63.2692 65.057 63.2692 62.169ZM69.89 62.169V62.1297C69.89 60.6955 68.947 59.7525 67.8075 59.7525C66.668 59.7525 65.7053 60.6759 65.7053 62.1297V62.169C65.7053 63.6032 66.668 64.5462 67.8075 64.5462C68.947 64.5462 69.89 63.6032 69.89 62.169Z" fill="#020000"/>
<path d="M74.4087 57.8665H76.8448V59.5954C77.336 58.4166 78.1415 57.6307 79.5953 57.7093V60.2633H79.4578C77.8468 60.2633 76.8448 61.2456 76.8448 63.2889V66.4716H74.4087V57.8665Z" fill="#020000"/>
<path d="M81.4224 64.0158V59.949H80.4008V57.8665H81.4224V55.6661H83.8586V57.8665H85.8821V59.949H83.8586V63.6229C83.8586 64.1926 84.0943 64.448 84.6444 64.448C85.0963 64.448 85.4892 64.3301 85.8428 64.1337V66.0983C85.332 66.4126 84.7426 66.5895 83.9175 66.5895C82.444 66.6091 81.4224 66.0197 81.4224 64.0158Z" fill="#020000"/>
<path d="M86.9823 62.169V62.1297C86.9823 59.2614 88.8487 57.6896 90.892 57.6896C92.1886 57.6896 92.9941 58.279 93.5639 58.9667V57.8468H96V66.4323H93.5639V65.1946C92.9745 66.0001 92.1493 66.5895 90.892 66.5895C88.888 66.6287 86.9823 65.057 86.9823 62.169ZM93.6032 62.169V62.1297C93.6032 60.6955 92.6601 59.7525 91.5206 59.7525C90.3812 59.7525 89.4185 60.6759 89.4185 62.1297V62.169C89.4185 63.6032 90.3812 64.5462 91.5206 64.5462C92.6405 64.5462 93.6032 63.6032 93.6032 62.169Z" fill="#020000"/>
</g>
<rect x="1" y="1" width="110" height="110" rx="9" stroke="#CCCCCC" stroke-width="2"/>
<defs>
<clipPath id="clip0_812_6">
<rect x="2" y="2" width="108" height="108" rx="8" fill="white"/>
</clipPath>
</defs>
</svg>
