<svg width="112" height="112" viewBox="0 0 112 112" fill="none" xmlns="http://www.w3.org/2000/svg">
<g clip-path="url(#clip0_642_1027)">
<rect x="2" y="2" width="108" height="108" rx="8" fill="white"/>
<path d="M33.5745 70.0213L25.3617 62.1915C25.3617 62.1915 55.8865 36.9291 66.3262 48.0496C66.3262 48.0496 48.9504 51.5674 33.5603 70.0213" fill="#003058"/>
<path d="M23.6879 60.617L16 53.2837C16 53.2837 38.3121 34.6454 58.4539 43.2979C58.4539 43.2979 37.7589 46.5461 23.7021 60.617" fill="#003058"/>
<path d="M78.4397 41L86.6525 48.8298C86.6525 48.8298 56.1277 74.1064 45.6738 62.9716C45.6738 62.9716 63.0496 59.4539 78.4397 41Z" fill="#C72127"/>
<path d="M88.312 50.4184L96 57.7518C96 57.7518 73.6879 76.4043 53.5461 67.7376C53.5461 67.7376 74.2411 64.4894 88.2979 50.4184" fill="#C72127"/>
</g>
<rect x="1" y="1" width="110" height="110" rx="9" stroke="#CCCCCC" stroke-width="2"/>
<defs>
<clipPath id="clip0_642_1027">
<rect x="2" y="2" width="108" height="108" rx="8" fill="white"/>
</clipPath>
</defs>
</svg>
