<svg width="112" height="112" viewBox="0 0 112 112" fill="none" xmlns="http://www.w3.org/2000/svg">
<g clip-path="url(#clip0_642_1028)">
<rect x="2" y="2" width="108" height="108" rx="8" fill="white"/>
<g clip-path="url(#clip1_642_1028)">
<path d="M20.2242 59.088L18.2502 57.2061C18.2502 57.2061 25.5871 51.1341 28.0963 53.807C28.0963 53.807 23.9199 54.6525 20.2208 59.088" fill="#003058"/>
<path d="M17.8479 56.8276L16 55.065C16 55.065 21.3629 50.5851 26.2041 52.6648C26.2041 52.6648 21.2299 53.4455 17.8513 56.8276" fill="#003058"/>
<path d="M31.0079 52.1125L32.9819 53.9945C32.9819 53.9945 25.645 60.0699 23.1323 57.3936C23.1323 57.3936 27.3088 56.5481 31.0079 52.1125Z" fill="#C72127"/>
<path d="M33.3808 54.3762L35.2287 56.1388C35.2287 56.1388 29.8658 60.6221 25.0245 58.539C25.0245 58.539 29.9988 57.7583 33.3774 54.3762" fill="#C72127"/>
<path d="M42.0643 55.3172C42.886 55.0445 42.9099 53.8546 42.9099 53.8546C42.9099 52.2318 40.9461 52.2556 40.9461 52.2556H36.8378V58.5186C36.9742 58.8493 37.4208 58.9447 37.4208 58.9447H40.7415C43.1485 58.9447 43.1383 57.0662 43.1383 57.0662C43.1383 55.59 42.0643 55.3172 42.0643 55.3172ZM38.9823 53.9092H40.2847C40.2847 53.9092 40.7415 53.9092 40.7415 54.3421C40.7415 54.3421 40.7858 54.8501 40.2335 54.8501H38.9857V53.9058L38.9823 53.9092ZM40.4654 57.339H38.9823V56.2752H40.5131C40.5131 56.2752 41.0381 56.3775 41.0381 56.7662C41.0381 56.7662 41.0586 57.3355 40.4654 57.3355" fill="#003058"/>
<path d="M48.9137 58.471V55.3617C48.9137 53.715 46.4726 53.9434 46.4726 53.9434C43.7554 53.9434 43.6872 55.614 43.6872 55.614H45.2384C45.3646 55.0548 46.3328 55.0855 46.3328 55.0855C47.1545 55.0855 47.042 55.5083 47.042 55.5083C47.042 56.0674 45.4328 56.0674 45.4328 56.0674C43.3088 56.2276 43.469 57.7243 43.469 57.7243C43.469 58.8426 44.3691 59.0608 44.3691 59.0608C46.2306 59.4836 47.1068 58.4676 47.1068 58.4676C47.2568 58.8562 48.0546 58.9415 48.0546 58.9415H49.299C48.9444 58.7983 48.9103 58.4676 48.9103 58.4676M46.1044 57.9869C46.1044 57.9869 45.5692 58.0312 45.5692 57.4721C45.5692 57.4721 45.518 56.8652 46.892 56.6606L46.9499 56.6709C46.9499 56.6709 47.0181 57.9869 46.1044 57.9869Z" fill="#003058"/>
<path d="M49.8035 58.9449V54.0593C49.8035 54.0593 51.5593 53.9229 51.5593 54.7685C51.5593 54.7685 52.0162 53.9911 53.1788 53.9911C53.1788 53.9911 55.1187 53.7627 55.1187 55.614V58.9449H53.8879C53.8879 58.9449 53.2129 58.9278 53.2129 58.4471V55.9447C53.2129 55.9447 53.2469 55.1912 52.5617 55.1912C52.5617 55.1912 51.6991 55.2935 51.6991 56.0538V58.9449H49.8001H49.8035Z" fill="#003058"/>
<path d="M55.8074 58.9447V53.1659C55.8074 53.1659 55.9437 52.1602 56.7654 52.1602H57.7916V55.4297L59.0633 54.0353H61.385L59.5576 56.0127L61.6339 58.9447H59.8304C59.8304 58.9447 59.469 59.0197 59.0803 58.5117L58.2212 57.431C58.2212 57.431 57.7882 57.4889 57.7882 57.9117V58.9447H55.804H55.8074Z" fill="#003058"/>
<path d="M68.439 54.8809H66.5229C66.5229 54.8809 66.1104 53.7251 65.1081 53.7251C65.1081 53.7251 63.7852 53.6467 63.7852 55.6002C63.7852 55.6002 63.7273 57.5879 65.166 57.5879C65.166 57.5879 66.3422 57.4924 66.3422 56.3332H68.3947C68.3947 56.3332 68.6231 59.2687 65.2342 59.2687C65.2342 59.2687 61.6067 59.5653 61.6067 55.59C61.6067 55.59 61.5146 52.0443 64.9615 52.0443C64.9615 52.0443 68.4424 51.792 68.4424 54.8774" fill="#003058"/>
<path d="M74.0507 58.471V55.3617C74.0507 53.715 71.6096 53.9434 71.6096 53.9434C68.8924 53.9434 68.8242 55.614 68.8242 55.614H70.3755C70.5016 55.0548 71.4699 55.0855 71.4699 55.0855C72.2915 55.0855 72.179 55.5083 72.179 55.5083C72.179 56.0674 70.5698 56.0674 70.5698 56.0674C68.4458 56.2276 68.606 57.7243 68.606 57.7243C68.606 58.8426 69.5061 59.0608 69.5061 59.0608C71.3676 59.4836 72.2438 58.4676 72.2438 58.4676C72.3938 58.8562 73.1916 58.9415 73.1916 58.9415H74.436C74.0814 58.7983 74.0473 58.4676 74.0473 58.4676M71.2414 57.9869C71.2414 57.9869 70.7062 58.0312 70.7062 57.4721C70.7062 57.4721 70.655 56.8652 72.029 56.6606L72.087 56.6709C72.087 56.6709 72.1551 57.9869 71.2414 57.9869Z" fill="#003058"/>
<path d="M93.0305 58.471V55.3617C93.0305 53.715 90.5894 53.9434 90.5894 53.9434C87.8721 53.9434 87.804 55.614 87.804 55.614H89.3552C89.4814 55.0548 90.4496 55.0855 90.4496 55.0855C91.2712 55.0855 91.1587 55.5083 91.1587 55.5083C91.1587 56.0674 89.5495 56.0674 89.5495 56.0674C87.4255 56.2276 87.5858 57.7243 87.5858 57.7243C87.5858 58.8426 88.4858 59.0608 88.4858 59.0608C90.3473 59.4836 91.2235 58.4676 91.2235 58.4676C91.3701 58.8562 92.1713 58.9415 92.1713 58.9415H93.4157C93.0612 58.7983 93.0271 58.4676 93.0271 58.4676M90.2212 57.9869C90.2212 57.9869 89.6859 58.0312 89.6859 57.4721C89.6859 57.4721 89.6348 56.8652 91.0087 56.6606L91.0667 56.6709C91.0667 56.6709 91.1349 57.9869 90.2212 57.9869Z" fill="#003058"/>
<path d="M80.5012 56.5036C80.5012 53.725 78.3329 53.9432 78.3329 53.9432C76.9862 53.9432 76.7578 54.6967 76.7578 54.6967C76.6452 53.8955 74.9747 53.9432 74.9747 53.9432V60.0323C74.9747 60.571 75.7384 60.6664 75.7384 60.6664H76.935V58.6208C77.2589 59.2277 78.2783 59.18 78.2783 59.18C80.6512 59.18 80.5046 56.5036 80.5046 56.5036M77.7158 57.6458C77.2589 57.6458 76.8873 57.1378 76.8873 56.5139C76.8873 55.89 77.2589 55.382 77.7158 55.382C78.1726 55.382 78.5442 55.89 78.5442 56.5139C78.5442 57.1378 78.1726 57.6458 77.7158 57.6458Z" fill="#003058"/>
<path d="M81.2546 52H83.1264V53.3262H81.8035C81.8035 53.3262 81.2546 53.258 81.2546 52.8557V52Z" fill="#003058"/>
<path d="M81.2546 58.3448V54.0354H83.1264V58.9448H81.9161C81.9161 58.9448 81.2546 58.8937 81.2546 58.3448Z" fill="#003058"/>
<path d="M86.3004 52.4739V54.0354H87.1664V55.1332H86.3004V57.1549C86.3004 57.1549 86.2766 57.7277 87.1664 57.7277V58.9448H85.1447C84.5378 58.7948 84.4764 58.2766 84.473 58.1163V58.0754V55.1332H83.6616V54.0354H84.473V53.1898C84.473 53.1898 84.4833 52.4739 85.3902 52.4739H86.297H86.3004Z" fill="#003058"/>
<path d="M94.9022 52.1399H95.9966V58.246C95.9966 58.246 96.0409 58.9483 95.2772 58.9483H94.0567V52.982C94.0567 52.982 94.0499 52.2081 94.9022 52.1365" fill="#003058"/>
</g>
</g>
<rect x="1" y="1" width="110" height="110" rx="9" stroke="#CCCCCC" stroke-width="2"/>
<defs>
<clipPath id="clip0_642_1028">
<rect x="2" y="2" width="108" height="108" rx="8" fill="white"/>
</clipPath>
<clipPath id="clip1_642_1028">
<rect width="80" height="8.66652" fill="white" transform="translate(16 52)"/>
</clipPath>
</defs>
</svg>
