<svg width="112" height="112" viewBox="0 0 112 112" fill="none" xmlns="http://www.w3.org/2000/svg">
<g clip-path="url(#clip0_528_594)">
<rect x="2" y="2" width="108" height="108" rx="8" fill="white"/>
<path fill-rule="evenodd" clip-rule="evenodd" d="M48.435 29H67.3022C74.9492 29 81.2072 33.5966 81.2072 39.2122C81.2072 42.1009 79.5679 44.5532 77.3372 46.2633C79.7318 48.0998 81.2072 50.5875 81.2072 53.3144C81.2072 60.1374 73.1304 63.5289 67.3022 63.5289H50.2448V57.2686L67.6721 57.2265C68.9237 57.2221 71.9386 55.5009 71.9386 53.3144C71.9386 51.3783 69.493 49.4245 67.6721 49.4245H50.2448V43.1642L67.8515 43.1111C69.1895 42.9626 71.9386 41.2968 71.9386 39.2122C71.9386 36.6559 70.1089 35.3223 67.6721 35.3223H48.435C46.696 35.3223 44.3279 33.9001 44.3279 32.1611C44.3279 30.338 46.8223 29 48.435 29Z" fill="#00923F"/>
<path fill-rule="evenodd" clip-rule="evenodd" d="M63.565 70.6774H44.6979C37.0509 70.6774 30.7929 66.083 30.7929 60.4652C30.7929 57.5765 32.4321 55.1265 34.6629 53.4141C32.2682 51.5777 30.7929 49.09 30.7929 46.363C30.7929 39.5423 38.8696 36.1508 44.6979 36.1508H61.7552V42.411L44.3279 42.4531C43.0763 42.4553 40.0636 44.1788 40.0636 46.363C40.0636 48.2991 42.507 50.253 44.3279 50.253H61.7552V56.5132L44.1485 56.5664C42.8105 56.717 40.0636 58.3807 40.0636 60.4652C40.0636 63.0216 41.8912 64.3574 44.3279 64.3574H63.565C65.304 64.3574 67.6721 65.7796 67.6721 67.5185C67.6721 69.3417 65.1777 70.6774 63.565 70.6774Z" fill="#DF4C18"/>
<path fill-rule="evenodd" clip-rule="evenodd" d="M17.0185 79.3988H16.015V73.9117L17.0916 73.3247V75.4912C17.548 75.0991 18.1283 74.9019 18.8328 74.9019C19.2227 74.9019 19.5948 74.9573 19.9426 75.0658C20.2926 75.1744 20.5784 75.3272 20.8044 75.5244C21.0303 75.7238 21.2075 75.9608 21.3338 76.2399C21.4623 76.5168 21.5243 76.8136 21.5243 77.1304C21.5243 77.8836 21.2563 78.4662 20.7202 78.876C20.1797 79.2881 19.535 79.4919 18.7818 79.4919C18.0331 79.4919 17.4461 79.2748 17.0185 78.845V79.3988ZM17.0074 77.1659C17.0074 77.6909 17.1116 78.0719 17.3176 78.3067C17.6565 78.69 18.1128 78.8805 18.691 78.8805C19.1629 78.8805 19.5683 78.7409 19.9094 78.4574C20.2528 78.1738 20.4233 77.7529 20.4233 77.1925C20.4233 76.6187 20.2594 76.1956 19.9316 75.9231C19.6037 75.6507 19.205 75.5133 18.7398 75.5133C18.2679 75.5133 17.8625 75.6551 17.5214 75.9386C17.178 76.22 17.0074 76.6298 17.0074 77.1659ZM26.9893 78.8472C26.5883 79.0843 26.2029 79.2482 25.8329 79.3457C25.4652 79.4431 25.0687 79.4919 24.6434 79.4919C23.9456 79.4919 23.4095 79.3745 23.0329 79.1396C22.6585 78.9048 22.4702 78.6036 22.4702 78.2358C22.4702 78.021 22.5411 77.826 22.6829 77.6466C22.8246 77.4694 23.0107 77.3276 23.2389 77.219C23.4693 77.1127 23.7285 77.0307 24.0142 76.9754C24.2269 76.9377 24.5481 76.9 24.9756 76.8646C25.844 76.7937 26.4864 76.7073 26.8963 76.6076C26.9007 76.5057 26.9029 76.4415 26.9029 76.4149C26.9029 76.1114 26.801 75.8988 26.5972 75.7725C26.3225 75.6041 25.9105 75.5222 25.3677 75.5222C24.8605 75.5222 24.4839 75.5842 24.2446 75.706C24.0009 75.8301 23.8237 76.0472 23.7063 76.3617L22.6541 76.2598C22.7493 75.9475 22.9066 75.695 23.1281 75.5022C23.3474 75.3095 23.6664 75.1633 24.0829 75.0592C24.4972 74.9551 24.9801 74.9019 25.5272 74.9019C26.07 74.9019 26.513 74.9462 26.8542 75.0348C27.1931 75.1256 27.4434 75.2342 27.6029 75.3693C27.7624 75.5044 27.8754 75.6728 27.9396 75.8788C27.9751 76.0051 27.9928 76.2355 27.9928 76.5633V77.5535C27.9928 78.2447 28.0149 78.6811 28.0593 78.8672C28.1036 79.0533 28.1922 79.2283 28.3229 79.3988H27.1975C27.089 79.2415 27.0203 79.0577 26.9893 78.8472ZM26.9029 77.1925C26.5108 77.3032 25.9238 77.3963 25.1396 77.4738C24.6943 77.5159 24.3797 77.5668 24.1959 77.6222C24.0142 77.6776 23.8725 77.7573 23.7728 77.8615C23.6731 77.9678 23.6221 78.0852 23.6221 78.2159C23.6221 78.4108 23.7285 78.577 23.9478 78.7099C24.1671 78.8406 24.4839 78.907 24.9025 78.907C25.3168 78.907 25.6867 78.845 26.0124 78.7188C26.3336 78.5947 26.5728 78.4241 26.7235 78.207C26.8409 78.0387 26.8963 77.7906 26.8963 77.4649L26.9029 77.1925ZM29.6476 79.3988V74.9949H30.6156V75.6219C31.0808 75.1412 31.7543 74.9019 32.6337 74.9019C33.0169 74.9019 33.3692 74.9506 33.6882 75.0459C34.0094 75.1411 34.2508 75.2652 34.4103 75.4203C34.5676 75.5753 34.6806 75.757 34.7448 75.9696C34.7825 76.1092 34.8024 76.3507 34.8024 76.6962V79.3988H33.7258V76.7228C33.7258 76.4193 33.686 76.1912 33.6018 76.0427C33.5176 75.8921 33.3692 75.7725 33.1565 75.6817C32.9438 75.5931 32.6935 75.5465 32.4078 75.5465C31.9492 75.5465 31.5571 75.6484 31.2226 75.85C30.8903 76.0516 30.7264 76.4348 30.7264 76.9975V79.3988H29.6476ZM36.4616 79.3988V73.9117L37.5405 73.3247V76.7849L40.088 74.9949H41.4792L39.0535 76.632L41.725 79.3988H40.3981L38.287 77.1482L37.5405 77.6532V79.3988H36.4616Z" fill="#1F1A17"/>
<path fill-rule="evenodd" clip-rule="evenodd" d="M44.9881 79.2947V74.1775L46.6096 73.2959V75.4601C47.1103 75.057 47.7017 74.8554 48.3885 74.8554C49.1372 74.8554 49.7531 75.0459 50.2426 75.4313C50.7322 75.8146 50.9759 76.3662 50.9759 77.0861C50.9759 77.8282 50.7278 78.3998 50.2293 78.8029C49.7309 79.2039 49.1217 79.4033 48.4106 79.4033C48.0584 79.4033 47.715 79.339 47.3739 79.2127C47.0305 79.0843 46.7381 78.9004 46.4922 78.6567V79.2947H44.9881ZM46.5853 77.0374C46.5853 77.4893 46.6872 77.8238 46.8865 78.0387C47.1701 78.3466 47.5422 78.4994 48.0097 78.4994C48.3685 78.4994 48.6742 78.3909 48.929 78.1738C49.1815 77.9545 49.3078 77.6111 49.3078 77.1437C49.3078 76.6453 49.1793 76.2864 48.9246 76.0649C48.6698 75.8456 48.3442 75.7348 47.9476 75.7348C47.5555 75.7348 47.2321 75.8434 46.9751 76.0583C46.716 76.2731 46.5853 76.5988 46.5853 77.0374ZM55.8383 77.9213L57.4599 78.114C57.2516 78.5349 56.9216 78.8539 56.4741 79.0754C56.0244 79.2947 55.4639 79.4033 54.7905 79.4033C53.7228 79.4033 52.9319 79.1574 52.4224 78.6634C52.017 78.2668 51.8132 77.7662 51.8132 77.1614C51.8132 76.4415 52.0813 75.8766 52.6107 75.469C53.1424 75.0592 53.8136 74.8554 54.6266 74.8554C55.537 74.8554 56.257 75.068 56.7864 75.4956C57.3137 75.9231 57.5662 76.5788 57.5418 77.4605H53.4835C53.4946 77.8016 53.6253 78.0675 53.8756 78.2558C54.1237 78.4463 54.4361 78.5415 54.806 78.5415C55.0608 78.5415 55.2734 78.4928 55.4462 78.3953C55.619 78.2979 55.7497 78.1384 55.8383 77.9213ZM55.9336 76.7561C55.9203 76.4238 55.8006 76.169 55.5703 75.9962C55.3399 75.8212 55.0585 75.7348 54.7285 75.7348C54.374 75.7348 54.0816 75.8279 53.8512 76.0095C53.6209 76.1934 53.5079 76.4437 53.5123 76.7561H55.9336ZM64.4556 79.2947H62.834V77.0795C62.834 76.6098 62.7986 76.3064 62.7277 76.1712C62.6568 76.0317 62.546 75.9253 62.3888 75.85C62.2293 75.7725 62.041 75.7348 61.8194 75.7348C61.5359 75.7348 61.2811 75.7902 61.0552 75.8988C60.8292 76.0073 60.6764 76.1513 60.5922 76.3307C60.508 76.5102 60.4659 76.8424 60.4659 77.3298V79.2947H58.8444V74.9462H60.3485V75.5842C60.8868 75.0968 61.5625 74.8554 62.3821 74.8554C62.741 74.8554 63.0711 74.9019 63.3679 74.9927C63.667 75.0835 63.8929 75.201 64.0435 75.3405C64.1986 75.4845 64.3049 75.644 64.3647 75.8234C64.4246 76.0051 64.4556 76.2621 64.4556 76.5966V79.2947ZM65.9442 79.5716L67.8006 79.7311C67.8338 79.8862 67.9047 79.9925 68.0155 80.0501C68.1705 80.1343 68.412 80.1742 68.7443 80.1742C69.1674 80.1742 69.4864 80.1299 69.699 80.039C69.8408 79.9792 69.9494 79.884 70.0225 79.7488C70.0712 79.6536 70.0978 79.4764 70.0978 79.2216L70.1044 78.5858C69.6149 79.0599 69.0012 79.2947 68.2591 79.2947C67.4351 79.2947 66.7794 79.0488 66.2987 78.5548C65.9198 78.1649 65.7315 77.6798 65.7315 77.0994C65.7315 76.3706 65.9797 75.8146 66.4737 75.4313C66.9699 75.0481 67.5857 74.8554 68.3234 74.8554C69.0832 74.8554 69.7101 75.0902 70.2041 75.562V74.9462H71.7193V78.845C71.7193 79.359 71.6595 79.7422 71.5399 79.9947C71.4203 80.2495 71.2519 80.4466 71.037 80.5928C70.82 80.7368 70.532 80.852 70.1731 80.9318C69.812 81.0137 69.3557 81.0558 68.8063 81.0558C67.7651 81.0558 67.0275 80.9273 66.5911 80.6748C66.1547 80.4201 65.9376 80.1011 65.9376 79.7112C65.9376 79.6735 65.9398 79.627 65.9442 79.5716ZM67.3996 77.033C67.3996 77.4937 67.5259 77.8304 67.7762 78.0453C68.0288 78.258 68.3389 78.3665 68.7088 78.3665C69.1031 78.3665 69.4376 78.2558 69.7101 78.0365C69.9848 77.8172 70.1199 77.4937 70.1199 77.0618C70.1199 76.6121 69.9914 76.2798 69.7278 76.0605C69.4687 75.8434 69.1364 75.7348 68.7354 75.7348C68.3477 75.7348 68.0288 75.8434 67.7762 76.056C67.5259 76.2687 67.3996 76.5943 67.3996 77.033ZM73.2656 79.2947V74.1775L74.8871 73.2959V76.4791L76.7878 74.9462H78.7859L76.6925 76.5367L78.941 79.2947H77.1888L75.6403 77.3342L74.8871 77.9035V79.2947H73.2656ZM83.9652 79.2947V78.6456C83.7414 78.876 83.4468 79.0599 83.0835 79.1995C82.718 79.3368 82.3325 79.4033 81.9294 79.4033C81.5151 79.4033 81.1429 79.339 80.8173 79.2127C80.4872 79.0821 80.2502 78.9004 80.104 78.67C79.9556 78.4374 79.8847 78.1162 79.8847 77.7042V74.9462H81.504V76.9488C81.504 77.5624 81.535 77.9368 81.5949 78.0741C81.6547 78.2137 81.7632 78.3244 81.9227 78.4042C82.08 78.4839 82.2816 78.5238 82.5275 78.5238C82.8044 78.5238 83.0525 78.4706 83.274 78.3621C83.4955 78.2558 83.644 78.1206 83.7259 77.9611C83.8057 77.7994 83.8477 77.4095 83.8477 76.7849V74.9462H85.4693V79.2947H83.9652ZM87.1352 79.2947V74.1775L88.7567 73.2959V79.2947H87.1352ZM94.4831 79.2947V78.6456C94.2571 78.876 93.9625 79.0599 93.5992 79.1995C93.2337 79.3368 92.8483 79.4033 92.4451 79.4033C92.0308 79.4033 91.6609 79.339 91.333 79.2127C91.003 79.0821 90.7659 78.9004 90.6197 78.67C90.4735 78.4374 90.4004 78.1162 90.4004 77.7042V74.9462H92.0198V76.9488C92.0198 77.5624 92.0508 77.9368 92.1106 78.0741C92.1704 78.2137 92.2789 78.3244 92.4384 78.4042C92.5957 78.4839 92.7973 78.5238 93.0432 78.5238C93.3201 78.5238 93.5682 78.4706 93.7897 78.3621C94.0112 78.2558 94.1597 78.1206 94.2416 77.9611C94.3214 77.7994 94.3635 77.4095 94.3635 76.7849V74.9462H95.985V79.2947H94.4831Z" fill="#1F1A17"/>
<path d="M16.746 81.5144L16.7793 81.6938C16.7128 81.7071 16.653 81.7138 16.5998 81.7138C16.5157 81.7138 16.4492 81.7005 16.4005 81.6783C16.3539 81.6539 16.3207 81.6229 16.303 81.5853C16.2831 81.5454 16.2742 81.4656 16.2742 81.3438V80.646H16.0992V80.4887H16.2742V80.1897L16.509 80.0678V80.4887H16.746V80.646H16.509V81.3549C16.509 81.4125 16.5134 81.4501 16.5223 81.4679C16.5312 81.4834 16.5445 81.4967 16.5622 81.5077C16.5821 81.5166 16.6087 81.521 16.6441 81.521C16.6685 81.521 16.704 81.5188 16.746 81.5144Z" fill="#1F1A17"/>
<path d="M49.0154 81.5144L49.0486 81.6938C48.9822 81.7071 48.9223 81.7138 48.8714 81.7138C48.785 81.7138 48.7185 81.7005 48.672 81.6783C48.6255 81.6539 48.5923 81.6229 48.5723 81.5853C48.5524 81.5454 48.5435 81.4656 48.5435 81.3438V80.646H48.3685V80.4887H48.5435V80.1897L48.7806 80.0678V80.4887H49.0154V80.646H48.7806V81.3549C48.7806 81.4125 48.785 81.4501 48.7916 81.4679C48.8005 81.4834 48.8138 81.4967 48.8315 81.5077C48.8515 81.5166 48.878 81.521 48.9135 81.521C48.9401 81.521 48.9733 81.5188 49.0154 81.5144Z" fill="#1F1A17"/>
<path d="M19.3977 81.5454C19.2825 81.6096 19.1717 81.6562 19.0654 81.6827C18.9591 81.7093 18.8439 81.7226 18.722 81.7226C18.5204 81.7226 18.3654 81.6894 18.2568 81.6251C18.1483 81.5609 18.0951 81.4789 18.0951 81.377C18.0951 81.3194 18.1151 81.2641 18.1549 81.2153C18.197 81.1666 18.2502 81.1289 18.3166 81.0979C18.3831 81.0691 18.4562 81.047 18.5404 81.0315C18.6002 81.0204 18.6932 81.0115 18.8173 81.0004C19.0676 80.9805 19.2537 80.9584 19.3711 80.9318C19.3733 80.903 19.3733 80.8853 19.3733 80.8786C19.3733 80.7944 19.3445 80.7368 19.2847 80.7014C19.205 80.6549 19.0875 80.6327 18.9303 80.6327C18.7841 80.6327 18.6755 80.6504 18.6068 80.6837C18.536 80.7169 18.485 80.7767 18.4518 80.8631L18.1483 80.8343C18.1749 80.7501 18.2214 80.6792 18.2834 80.6283C18.3477 80.5751 18.4385 80.5352 18.5603 80.5064C18.6799 80.4776 18.8195 80.4621 18.9768 80.4621C19.1319 80.4621 19.2603 80.4754 19.3578 80.4998C19.4575 80.5242 19.5284 80.5552 19.5749 80.5906C19.6214 80.6283 19.6524 80.6748 19.6724 80.7302C19.6812 80.7656 19.6879 80.8277 19.6879 80.9185V81.191C19.6879 81.3792 19.6945 81.4989 19.7056 81.5498C19.7189 81.6008 19.7455 81.6495 19.7831 81.696H19.4575C19.4265 81.6539 19.4065 81.603 19.3977 81.5454ZM19.3733 81.0913C19.2603 81.1223 19.0898 81.1467 18.8638 81.1688C18.7353 81.1799 18.6445 81.1932 18.5913 81.2087C18.5404 81.2242 18.4983 81.2463 18.4695 81.2751C18.4407 81.3039 18.4274 81.3372 18.4274 81.3726C18.4274 81.4258 18.4584 81.4723 18.5204 81.5077C18.5847 81.5432 18.6755 81.5609 18.7951 81.5609C18.9148 81.5609 19.0211 81.5454 19.1163 81.5099C19.2094 81.4767 19.2781 81.428 19.3201 81.3704C19.3556 81.3239 19.3711 81.2552 19.3711 81.1666L19.3733 81.0913Z" fill="#1F1A17"/>
<path d="M41.6386 81.5321C41.5235 81.5963 41.4127 81.6429 41.3064 81.6694C41.2 81.696 41.0848 81.7093 40.963 81.7093C40.7614 81.7093 40.6063 81.6761 40.4978 81.6119C40.3915 81.5476 40.3361 81.4656 40.3361 81.3637C40.3361 81.3061 40.356 81.253 40.3981 81.202C40.438 81.1533 40.4934 81.1156 40.5576 81.0868C40.6241 81.0558 40.6994 81.0337 40.7814 81.0182C40.8434 81.0093 40.9364 80.9982 41.0583 80.9872C41.3086 80.9694 41.4947 80.9451 41.6121 80.9185C41.6143 80.8897 41.6143 80.872 41.6143 80.8653C41.6143 80.7811 41.5855 80.7235 41.5257 80.6881C41.4481 80.6438 41.3285 80.6194 41.1712 80.6194C41.025 80.6194 40.9165 80.6371 40.8478 80.6704C40.7769 80.7036 40.726 80.7634 40.6927 80.8498L40.3893 80.8232C40.4158 80.7368 40.4624 80.6682 40.5266 80.615C40.5886 80.5618 40.6817 80.522 40.8013 80.4932C40.9209 80.4644 41.0605 80.4511 41.2178 80.4511C41.375 80.4511 41.5013 80.4621 41.601 80.4865C41.6985 80.5109 41.7716 80.5419 41.8159 80.5773C41.8624 80.615 41.8956 80.6615 41.9133 80.7169C41.9244 80.7523 41.9288 80.8166 41.9288 80.9052V81.1777C41.9288 81.3682 41.9355 81.4878 41.9488 81.5387C41.9599 81.5897 41.9864 81.6362 42.0241 81.6827H41.7007C41.6674 81.6406 41.6475 81.5897 41.6386 81.5321ZM41.6143 81.078C41.5013 81.109 41.3329 81.1334 41.107 81.1555C40.9785 81.1666 40.8877 81.1799 40.8345 81.1954C40.7814 81.2109 40.7415 81.233 40.7127 81.2618C40.6839 81.2906 40.6684 81.3239 40.6684 81.3593C40.6684 81.4125 40.6994 81.459 40.7614 81.4944C40.8257 81.5299 40.9165 81.5498 41.0383 81.5498C41.1579 81.5498 41.2643 81.5321 41.3573 81.4967C41.4504 81.4634 41.519 81.4169 41.5633 81.3571C41.5966 81.3106 41.6121 81.2419 41.6121 81.1533L41.6143 81.078Z" fill="#1F1A17"/>
<path d="M21.2208 81.696V80.4887H21.5022V80.6593C21.6395 80.5286 21.8367 80.4621 22.0936 80.4621C22.2044 80.4621 22.3085 80.4754 22.4015 80.502C22.4946 80.5286 22.5655 80.5618 22.612 80.6039C22.6585 80.6482 22.6917 80.697 22.7095 80.7568C22.7205 80.7944 22.7272 80.8609 22.7272 80.9539V81.696H22.4126V80.9628C22.4126 80.8786 22.3993 80.8166 22.375 80.7745C22.3506 80.7346 22.3085 80.7014 22.2465 80.677C22.1844 80.6527 22.1091 80.6394 22.0272 80.6394C21.892 80.6394 21.7768 80.6682 21.6816 80.7235C21.5841 80.7789 21.5354 80.883 21.5354 81.0381V81.696H21.2208Z" fill="#1F1A17"/>
<path d="M43.4618 81.696V80.4887H43.7453V80.6593C43.8805 80.5286 44.0776 80.4621 44.3346 80.4621C44.4476 80.4621 44.5495 80.4754 44.6425 80.502C44.7355 80.5286 44.8064 80.5618 44.853 80.6039C44.8995 80.6482 44.9327 80.697 44.9504 80.7568C44.9637 80.7944 44.9681 80.8609 44.9681 80.9539V81.696H44.6536V80.9628C44.6536 80.8786 44.6425 80.8166 44.6181 80.7745C44.5938 80.7346 44.5495 80.7014 44.4874 80.677C44.4254 80.6527 44.3523 80.6394 44.2681 80.6394C44.1352 80.6394 44.02 80.6682 43.9226 80.7235C43.8251 80.7789 43.7763 80.883 43.7763 81.0381V81.696H43.4618Z" fill="#1F1A17"/>
<path d="M24.2136 81.7957L24.5082 81.8245C24.5215 81.8865 24.5547 81.9308 24.6123 81.9596C24.6877 81.9973 24.7918 82.015 24.9247 82.015C25.0665 82.015 25.175 81.9973 25.2525 81.9596C25.3301 81.922 25.381 81.8688 25.4098 81.8001C25.4253 81.7581 25.432 81.6717 25.432 81.5387C25.2969 81.6429 25.1307 81.696 24.9313 81.696C24.6832 81.696 24.4905 81.6362 24.3554 81.5166C24.218 81.397 24.1494 81.253 24.1494 81.0868C24.1494 80.9716 24.1826 80.8653 24.2446 80.7678C24.3066 80.6704 24.3953 80.5951 24.5149 80.5419C24.6323 80.4887 24.7718 80.4621 24.9313 80.4621C25.144 80.4621 25.3212 80.522 25.4586 80.6371V80.4887H25.7399V81.5321C25.7399 81.7204 25.7133 81.8533 25.6557 81.9308C25.5981 82.0106 25.5073 82.0726 25.3832 82.1169C25.2592 82.1634 25.1063 82.1856 24.9269 82.1856C24.7098 82.1856 24.537 82.1524 24.4041 82.0881C24.2712 82.0239 24.2092 81.9264 24.2136 81.7957ZM24.4639 81.0713C24.4639 81.2308 24.5104 81.346 24.6035 81.4169C24.6987 81.49 24.8161 81.5277 24.9579 81.5277C25.0997 81.5277 25.2171 81.49 25.3124 81.4191C25.4076 81.346 25.4563 81.233 25.4563 81.078C25.4563 80.9318 25.4054 80.8188 25.3079 80.7457C25.2105 80.6704 25.0908 80.6327 24.9535 80.6327C24.8184 80.6327 24.701 80.6704 24.6057 80.7435C24.5104 80.8166 24.4639 80.9273 24.4639 81.0713Z" fill="#1F1A17"/>
<path d="M27.2551 81.7957L27.5497 81.8245C27.563 81.8865 27.5985 81.9308 27.6539 81.9596C27.7314 81.9973 27.8333 82.015 27.9662 82.015C28.108 82.015 28.2165 81.9973 28.2941 81.9596C28.3716 81.922 28.4226 81.8688 28.4513 81.8001C28.4669 81.7581 28.4735 81.6717 28.4735 81.5387C28.3384 81.6429 28.1722 81.696 27.9729 81.696C27.7248 81.696 27.532 81.6362 27.3969 81.5166C27.2596 81.397 27.1931 81.253 27.1931 81.0868C27.1931 80.9716 27.2241 80.8653 27.2861 80.7678C27.3482 80.6704 27.439 80.5951 27.5564 80.5419C27.6738 80.4887 27.8134 80.4621 27.9751 80.4621C28.1877 80.4621 28.3627 80.522 28.5001 80.6371V80.4887H28.7836V81.5321C28.7836 81.7204 28.7548 81.8533 28.6972 81.9308C28.6396 82.0106 28.5488 82.0726 28.4248 82.1169C28.3007 82.1634 28.1479 82.1856 27.9684 82.1856C27.7513 82.1856 27.5785 82.1524 27.4456 82.0881C27.3149 82.0239 27.2507 81.9264 27.2551 81.7957ZM27.5054 81.0713C27.5054 81.2308 27.552 81.346 27.6472 81.4169C27.7403 81.49 27.8577 81.5277 27.9994 81.5277C28.1412 81.5277 28.2586 81.49 28.3539 81.4191C28.4491 81.346 28.4979 81.233 28.4979 81.078C28.4979 80.9318 28.4469 80.8188 28.3494 80.7457C28.252 80.6704 28.1346 80.6327 27.995 80.6327C27.8599 80.6327 27.7447 80.6704 27.6472 80.7435C27.552 80.8166 27.5054 80.9273 27.5054 81.0713Z" fill="#1F1A17"/>
<path d="M31.5394 81.696V81.5166C31.3932 81.6539 31.1938 81.7226 30.9435 81.7226C30.8327 81.7226 30.7308 81.7093 30.6334 81.6805C30.5381 81.6539 30.4672 81.6207 30.4207 81.5786C30.3742 81.5365 30.3409 81.4856 30.3232 81.428C30.3099 81.3859 30.3033 81.3239 30.3033 81.2353V80.4887H30.6223V81.1577C30.6223 81.2641 30.6289 81.3349 30.6422 81.3726C30.6622 81.4258 30.7042 81.4679 30.7685 81.4989C30.8327 81.5299 30.9125 81.5454 31.0077 81.5454C31.103 81.5454 31.1938 81.5299 31.2758 81.4989C31.36 81.4679 31.4198 81.4236 31.453 81.3704C31.4884 81.315 31.5062 81.2375 31.5062 81.1334V80.4887H31.8252V81.696H31.5394Z" fill="#1F1A17"/>
<path d="M51.7645 81.696V81.5166C51.6183 81.6539 51.4211 81.7226 51.1708 81.7226C51.06 81.7226 50.9559 81.7093 50.8607 81.6805C50.7654 81.6539 50.6923 81.6207 50.6458 81.5786C50.5993 81.5365 50.5683 81.4856 50.5483 81.428C50.5372 81.3859 50.5306 81.3239 50.5306 81.2353V80.4887H50.8474V81.1577C50.8474 81.2641 50.854 81.3349 50.8673 81.3726C50.8873 81.4258 50.9293 81.4679 50.9958 81.4989C51.06 81.5299 51.1398 81.5454 51.235 81.5454C51.3303 81.5454 51.4189 81.5299 51.5031 81.4989C51.5851 81.4679 51.6449 81.4236 51.6803 81.3704C51.7135 81.315 51.7313 81.2375 51.7313 81.1334V80.4887H52.0503V81.696H51.7645Z" fill="#1F1A17"/>
<path d="M61.8106 81.696V81.5166C61.6644 81.6539 61.4672 81.7226 61.2169 81.7226C61.1061 81.7226 61.002 81.7093 60.9068 81.6805C60.8115 81.6539 60.7406 81.6207 60.6941 81.5786C60.6476 81.5365 60.6144 81.4856 60.5944 81.428C60.5833 81.3859 60.5767 81.3239 60.5767 81.2353V80.4887H60.8957V81.1577C60.8957 81.2641 60.9023 81.3349 60.9134 81.3726C60.9333 81.4258 60.9754 81.4679 61.0419 81.4989C61.1061 81.5299 61.1859 81.5454 61.2811 81.5454C61.3764 81.5454 61.465 81.5299 61.5492 81.4989C61.6334 81.4679 61.691 81.4236 61.7264 81.3704C61.7618 81.315 61.7774 81.2375 61.7774 81.1334V80.4887H62.0963V81.696H61.8106Z" fill="#1F1A17"/>
<path d="M32.3413 81.696V80.0302H32.6559V80.6305C32.8021 80.5175 32.9859 80.4621 33.2097 80.4621C33.347 80.4621 33.4644 80.4799 33.5663 80.5153C33.6682 80.5508 33.7391 80.5995 33.7834 80.6615C33.8255 80.7235 33.8477 80.8144 33.8477 80.9318V81.696H33.5331V80.9318C33.5331 80.8299 33.4999 80.7568 33.4312 80.7103C33.3625 80.6637 33.2673 80.6394 33.1432 80.6394C33.0524 80.6394 32.9638 80.6549 32.8818 80.6859C32.7999 80.7191 32.7423 80.7612 32.7068 80.8144C32.6736 80.8675 32.6559 80.9428 32.6559 81.0381V81.696H32.3413Z" fill="#1F1A17"/>
<path d="M63.6559 81.696V80.0302H63.9704V80.6305C64.1166 80.5175 64.3005 80.4621 64.5242 80.4621C64.6616 80.4621 64.779 80.4799 64.8809 80.5153C64.9828 80.5508 65.0537 80.5995 65.098 80.6615C65.1423 80.7235 65.1622 80.8144 65.1622 80.9318V81.696H64.8477V80.9318C64.8477 80.8299 64.8144 80.7568 64.7458 80.7103C64.6793 80.6637 64.5818 80.6394 64.4578 80.6394C64.367 80.6394 64.2784 80.6549 64.1964 80.6859C64.1166 80.7191 64.0568 80.7612 64.0236 80.8144C63.9882 80.8675 63.9704 80.9428 63.9704 81.0381V81.696H63.6559Z" fill="#1F1A17"/>
<path d="M38.5683 81.696V81.5432C38.4509 81.6628 38.2803 81.7226 38.0544 81.7226C37.9082 81.7226 37.7753 81.696 37.6534 81.6429C37.5294 81.5897 37.4341 81.5166 37.3677 81.4213C37.3012 81.3261 37.2658 81.2175 37.2658 81.0935C37.2658 80.9739 37.2968 80.8653 37.3588 80.7656C37.4186 80.6682 37.5094 80.5928 37.6335 80.5419C37.7531 80.4887 37.8905 80.4621 38.0411 80.4621C38.1519 80.4621 38.2493 80.4777 38.3357 80.5087C38.4221 80.5397 38.493 80.5796 38.5462 80.6283V80.0302H38.8563V81.696H38.5683ZM37.5848 81.0935C37.5848 81.2486 37.6335 81.3637 37.7332 81.4391C37.8329 81.5166 37.9503 81.5543 38.0854 81.5543C38.2205 81.5543 38.3357 81.5188 38.431 81.4457C38.5262 81.3726 38.575 81.2618 38.575 81.1112C38.575 80.9473 38.5262 80.8254 38.4288 80.7479C38.3335 80.6704 38.2139 80.6327 38.0699 80.6327C37.9326 80.6327 37.8174 80.6704 37.7243 80.7435C37.6313 80.8188 37.5848 80.934 37.5848 81.0935Z" fill="#1F1A17"/>
<path d="M53.5522 81.7226V80.5131H53.8291V80.6837C53.8845 80.6261 53.9598 80.5773 54.055 80.5419C54.1481 80.5064 54.2544 80.4887 54.3763 80.4887C54.5092 80.4887 54.6199 80.5064 54.7041 80.5441C54.7905 80.5818 54.8503 80.6327 54.8858 80.6992C55.0297 80.5596 55.2158 80.4887 55.4462 80.4887C55.6256 80.4887 55.763 80.522 55.8605 80.5884C55.9579 80.6549 56.0067 80.7568 56.0067 80.8941V81.7226H55.6987V80.9628C55.6987 80.8808 55.6899 80.821 55.6699 80.7856C55.65 80.7501 55.6146 80.7213 55.5614 80.6992C55.5082 80.677 55.4462 80.6659 55.3775 80.6659C55.2491 80.6659 55.1427 80.6947 55.0585 80.7501C54.9744 80.8077 54.9323 80.8963 54.9323 81.0204V81.7226H54.6266V80.9384C54.6266 80.8476 54.6022 80.7789 54.5513 80.7346C54.5025 80.6881 54.4206 80.6659 54.3054 80.6659C54.2212 80.6659 54.1414 80.6814 54.0683 80.7102C53.9952 80.7413 53.9421 80.7856 53.9088 80.8432C53.8756 80.903 53.8601 80.9872 53.8601 81.0957V81.7226H53.5522Z" fill="#1F1A17"/>
<path d="M57.8431 81.696H57.5485V80.0302H57.8652V80.6239C58.0004 80.5175 58.171 80.4621 58.3792 80.4621C58.4944 80.4621 58.6029 80.4776 58.707 80.5064C58.8089 80.5375 58.8953 80.5796 58.9618 80.6327C59.0282 80.6881 59.0792 80.7523 59.1169 80.8299C59.1545 80.9052 59.1745 80.9872 59.1745 81.0736C59.1745 81.2818 59.0947 81.4413 58.9352 81.552C58.7757 81.665 58.5874 81.7226 58.3637 81.7226C58.1422 81.7226 57.9694 81.6628 57.8431 81.5454V81.696ZM57.8409 81.0846C57.8409 81.2286 57.8719 81.3327 57.9317 81.397C58.0314 81.5011 58.1665 81.5543 58.3371 81.5543C58.4767 81.5543 58.5963 81.5166 58.696 81.4391C58.7979 81.3615 58.8488 81.2441 58.8488 81.0913C58.8488 80.934 58.8001 80.8188 58.7026 80.7435C58.6051 80.6682 58.4899 80.6305 58.3504 80.6305C58.213 80.6305 58.0934 80.6704 57.9915 80.7479C57.8918 80.8254 57.8409 80.9362 57.8409 81.0846Z" fill="#1F1A17"/>
</g>
<rect x="1" y="1" width="110" height="110" rx="9" stroke="#CCCCCC" stroke-width="2"/>
<defs>
<clipPath id="clip0_528_594">
<rect x="2" y="2" width="108" height="108" rx="8" fill="white"/>
</clipPath>
</defs>
</svg>
