<svg width="112" height="112" viewBox="0 0 112 112" fill="none" xmlns="http://www.w3.org/2000/svg">
<g clip-path="url(#clip0_528_603)">
<rect x="2" y="2" width="108" height="108" rx="8" fill="white"/>
<path fill-rule="evenodd" clip-rule="evenodd" d="M31.1759 56.8444C31.7181 56.9706 32.1004 57.1235 32.3191 57.3027C32.6341 57.5572 32.7913 57.8877 32.7913 58.2941C32.7913 58.7219 32.6197 59.0769 32.2747 59.3577C31.8528 59.6967 31.239 59.8657 30.4347 59.8657H27.5439V59.7197C27.807 59.7197 27.9862 59.6951 28.0792 59.6453C28.1733 59.5961 28.2391 59.532 28.2765 59.4534C28.315 59.3748 28.3337 59.1801 28.3337 58.8694V55.1691C28.3337 54.8584 28.315 54.6637 28.2765 54.5835C28.2391 54.5033 28.1722 54.4391 28.0776 54.3905C27.9819 54.3429 27.8043 54.3188 27.5439 54.3188V54.1728H30.2716C30.924 54.1728 31.3849 54.2317 31.6566 54.3472C31.9282 54.4632 32.1416 54.6365 32.2993 54.8669C32.455 55.0974 32.5341 55.3434 32.5341 55.6022C32.5341 55.8771 32.4336 56.1204 32.2336 56.3353C32.033 56.5481 31.6807 56.7187 31.1759 56.8444ZM29.6476 56.7316C30.0481 56.7316 30.3443 56.6872 30.5347 56.5968C30.7251 56.5086 30.8711 56.3824 30.9727 56.2193C31.0743 56.0578 31.1256 55.8498 31.1256 55.5979C31.1256 55.3461 31.0753 55.1402 30.9753 54.9798C30.8753 54.8183 30.732 54.6969 30.5449 54.6119C30.3588 54.5279 30.0593 54.4878 29.6476 54.4905V56.7316ZM29.6476 57.0578V59.0914C29.6476 59.2416 29.6845 59.3561 29.7604 59.432C29.8363 59.509 29.9481 59.5475 30.0968 59.5475C30.3171 59.5475 30.5192 59.4978 30.7048 59.3988C30.8908 59.2999 31.0326 59.1571 31.1315 58.9684C31.2304 58.7807 31.2801 58.5705 31.2801 58.34C31.2801 58.0754 31.2245 57.8379 31.1144 57.6272C31.0026 57.4171 30.8395 57.2679 30.6219 57.1823C30.4042 57.0963 30.0797 57.0551 29.6476 57.0578ZM36.6553 58.2427H34.6645L34.4169 58.7978C34.3383 58.9839 34.2998 59.1384 34.2998 59.2603C34.2998 59.4218 34.364 59.5405 34.4912 59.6181C34.5672 59.6625 34.7533 59.6967 35.0495 59.7197V59.8657H33.1592V59.7197C33.3624 59.6881 33.5314 59.602 33.6613 59.4635C33.7934 59.3229 33.9565 59.0341 34.1479 58.5962L36.1799 54.0611H36.2601L38.3109 58.7219C38.5071 59.1684 38.667 59.4507 38.7932 59.5662C38.8889 59.655 39.0221 59.7052 39.1969 59.7197V59.8657H36.4462V59.7197H36.5591C36.7799 59.7197 36.9355 59.6881 37.0243 59.625C37.0858 59.5806 37.1157 59.5149 37.1157 59.4304C37.1157 59.379 37.1088 59.3261 37.0917 59.2716C37.0858 59.2475 37.0446 59.14 36.9655 58.9523L36.6553 58.2427ZM36.5206 57.9337L35.6719 55.9947L34.8035 57.9337H36.5206ZM41.4262 54.1728L44.2299 57.6989V55.2546C44.2299 54.9097 44.1807 54.6782 44.0823 54.5563C43.9475 54.3921 43.7213 54.3129 43.4053 54.3188V54.1728H45.2854V54.3188C45.0453 54.3504 44.8838 54.3905 44.8004 54.4391C44.7191 54.4889 44.6544 54.5691 44.6074 54.6808C44.5614 54.7926 44.5389 54.984 44.5389 55.2546V59.994H44.3972L40.5546 55.2487V58.878C40.5546 59.2074 40.6289 59.4304 40.7792 59.5464C40.9295 59.6625 41.1027 59.7197 41.2958 59.7197H41.4305V59.8657H39.4044V59.7197C39.7188 59.7165 39.9365 59.6523 40.0611 59.525C40.184 59.3978 40.2455 59.1828 40.2455 58.878V54.8525L40.1268 54.7049C40.0065 54.5504 39.9006 54.4493 39.8076 54.4001C39.7161 54.352 39.583 54.3247 39.4097 54.3188V54.1728H41.4262ZM49.0692 56.3567L51.0627 58.8636C51.3445 59.217 51.5878 59.4577 51.7927 59.5849C51.9402 59.6753 52.0975 59.7197 52.2621 59.7197V59.8657H49.3067V59.7197C49.4944 59.7026 49.6147 59.6721 49.6692 59.6309C49.7232 59.5876 49.7505 59.5363 49.7505 59.4732C49.7505 59.3544 49.6232 59.1315 49.3655 58.8037L48.0634 57.1663L47.85 57.3385V58.8951C47.85 59.1946 47.8671 59.3801 47.9003 59.4534C47.9345 59.5261 47.9987 59.5892 48.0949 59.6405C48.1907 59.694 48.3436 59.7197 48.5543 59.7197V59.8657H45.6865V59.7197H45.8736C46.0383 59.7197 46.1715 59.6892 46.2715 59.6309C46.3447 59.5908 46.4004 59.5234 46.4389 59.4277C46.4693 59.3603 46.4848 59.1828 46.4848 58.8951V55.1429C46.4848 54.8498 46.4693 54.6664 46.4389 54.5937C46.4078 54.5204 46.3464 54.4563 46.2533 54.4017C46.1603 54.3461 46.0341 54.3188 45.8736 54.3188H45.6865V54.1728H48.511V54.3188C48.3195 54.3188 48.1719 54.3472 48.0719 54.4033C47.9987 54.4434 47.9415 54.5092 47.9003 54.6022C47.8671 54.6723 47.85 54.8525 47.85 55.1429V56.9187L49.9665 55.2161C50.2601 54.9744 50.4061 54.7798 50.4061 54.6349C50.4061 54.5263 50.3457 54.4418 50.2253 54.3787C50.1638 54.3472 50.0125 54.3274 49.7692 54.3188V54.1728H51.983V54.3188C51.7841 54.3333 51.628 54.3691 51.5151 54.4274C51.4018 54.4846 51.1413 54.6824 50.7339 55.0172L49.0692 56.3567ZM58.3539 54.044L58.3967 55.9418H58.225C58.1437 55.4664 57.9443 55.0846 57.6266 54.7953C57.3079 54.5065 56.9641 54.3616 56.5951 54.3616C56.309 54.3616 56.0828 54.4375 55.9165 54.5905C55.7492 54.7423 55.6663 54.9183 55.6663 55.1161C55.6663 55.2418 55.6962 55.3535 55.7551 55.4519C55.8353 55.5824 55.9652 55.7129 56.1459 55.8412C56.2775 55.9332 56.5807 56.0974 57.0561 56.3321C57.7229 56.6583 58.1721 56.9674 58.4041 57.2583C58.6341 57.5486 58.749 57.8807 58.749 58.2556C58.749 58.7304 58.563 59.1384 58.1918 59.4806C57.8213 59.8223 57.3507 59.994 56.7796 59.994C56.601 59.994 56.4304 59.9758 56.2716 59.94C56.1112 59.9042 55.9112 59.8352 55.6706 59.7336C55.5363 59.678 55.4257 59.6507 55.3385 59.6507C55.2658 59.6507 55.1898 59.6796 55.108 59.7352C55.0267 59.7924 54.961 59.8785 54.9107 59.994H54.7647V57.8476H54.9107C55.0337 58.4502 55.2716 58.9111 55.6219 59.2272C55.9738 59.5432 56.3518 59.7026 56.7582 59.7026C57.0716 59.7026 57.3218 59.6165 57.5079 59.4464C57.694 59.2758 57.7871 59.0785 57.7871 58.8507C57.7871 58.7176 57.7512 58.5876 57.6796 58.4614C57.6085 58.3358 57.501 58.2171 57.355 58.1026C57.209 57.9893 56.9513 57.8422 56.5823 57.6604C56.0641 57.4069 55.692 57.1893 55.4658 57.0107C55.2412 56.8316 55.0679 56.6316 54.9465 56.4107C54.8246 56.1893 54.7647 55.946 54.7647 55.6813C54.7647 55.2273 54.931 54.8413 55.2642 54.522C55.5962 54.2028 56.0155 54.044 56.5219 54.044C56.7069 54.044 56.8855 54.0654 57.0587 54.1097C57.1903 54.1445 57.3507 54.206 57.5395 54.2958C57.7282 54.3862 57.8603 54.4306 57.9357 54.4306C58.009 54.4306 58.0662 54.4092 58.1079 54.3648C58.1491 54.3204 58.1892 54.2129 58.225 54.044H58.3539ZM59.2913 54.1728H62.2275V54.3188H62.0799C61.8585 54.3188 61.7067 54.3418 61.6238 54.3889C61.5409 54.4349 61.4821 54.499 61.4479 54.5808C61.412 54.6621 61.3949 54.8669 61.3949 55.1947V57.9791C61.3949 58.4887 61.4334 58.8251 61.5094 58.9898C61.5864 59.1555 61.7126 59.2919 61.8885 59.402C62.0644 59.5106 62.2879 59.5651 62.5553 59.5651C62.8628 59.5651 63.1248 59.4962 63.3408 59.3577C63.5569 59.2186 63.7189 59.0283 63.8258 58.785C63.9333 58.5416 63.9879 58.1181 63.9879 57.5144V55.1947C63.9879 54.9386 63.9606 54.7536 63.9077 54.645C63.8547 54.5349 63.7873 54.4589 63.7061 54.4161C63.5799 54.352 63.4023 54.3188 63.1719 54.3188V54.1728H65.1381V54.3188H65.021C64.8622 54.3188 64.7306 54.352 64.6247 54.4161C64.5189 54.4803 64.4413 54.5776 64.3943 54.7081C64.3584 54.798 64.3397 54.96 64.3397 55.1947V57.3556C64.3397 58.024 64.2953 58.5058 64.2082 58.8021C64.1194 59.0999 63.9061 59.3716 63.5654 59.6207C63.2237 59.8699 62.7601 59.994 62.1703 59.994C61.6783 59.994 61.2987 59.9282 61.0313 59.7967C60.665 59.6181 60.4057 59.3887 60.2554 59.1085C60.1051 58.8293 60.0297 58.4529 60.0297 57.9807V55.1947C60.0297 54.8643 60.011 54.6595 59.9752 54.5792C59.9378 54.499 59.8763 54.4349 59.7864 54.3862C59.6961 54.3386 59.5314 54.3162 59.2913 54.3188V54.1728ZM70.7207 57.8732L70.5063 59.8657H65.4659V59.7197H65.6536C65.8183 59.7197 65.9514 59.6892 66.0514 59.6309C66.1241 59.5908 66.1803 59.5234 66.2188 59.4277C66.2487 59.3603 66.2642 59.1828 66.2642 58.8951V55.1429C66.2642 54.8498 66.2487 54.6664 66.2188 54.5937C66.1872 54.5204 66.1257 54.4563 66.0327 54.4017C65.9397 54.3461 65.814 54.3188 65.6536 54.3188H65.4659V54.1728H68.4968V54.3188H68.2481C68.0834 54.3188 67.9503 54.3488 67.8487 54.4076C67.7754 54.4477 67.7182 54.5151 67.6754 54.6108C67.6455 54.6782 67.63 54.8552 67.63 55.1429V58.7748C67.63 59.0657 67.6471 59.2518 67.6797 59.3315C67.7128 59.4117 67.7786 59.4705 67.8759 59.5106C67.946 59.5347 68.115 59.5475 68.3807 59.5475H68.8534C69.154 59.5475 69.4042 59.4951 69.6047 59.3887C69.8047 59.2828 69.9796 59.1154 70.1256 58.8866C70.2716 58.6577 70.4101 58.3197 70.5405 57.8732H70.7207ZM71.2186 54.1728H74.1554V54.3188H74.0078C73.7859 54.3188 73.6345 54.3418 73.5511 54.3889C73.4682 54.4349 73.4094 54.499 73.3752 54.5808C73.3394 54.6621 73.3222 54.8669 73.3222 55.1947V57.9791C73.3222 58.4887 73.3607 58.8251 73.4367 58.9898C73.5142 59.1555 73.6399 59.2919 73.8158 59.402C73.9923 59.5106 74.2152 59.5651 74.4826 59.5651C74.7906 59.5651 75.0526 59.4962 75.2687 59.3577C75.4847 59.2186 75.6462 59.0283 75.7537 58.785C75.8612 58.5416 75.9152 58.1181 75.9152 57.5144V55.1947C75.9152 54.9386 75.8879 54.7536 75.835 54.645C75.782 54.5349 75.7152 54.4589 75.6334 54.4161C75.5077 54.352 75.3302 54.3188 75.0997 54.3188V54.1728H77.0659V54.3188H76.9483C76.7895 54.3188 76.6579 54.352 76.552 54.4161C76.4462 54.4803 76.3692 54.5776 76.3216 54.7081C76.2858 54.798 76.2676 54.96 76.2676 55.1947V57.3556C76.2676 58.024 76.2232 58.5058 76.1355 58.8021C76.0473 59.0999 75.8339 59.3716 75.4933 59.6207C75.151 59.8699 74.6874 59.994 74.0981 59.994C73.6056 59.994 73.2265 59.9282 72.9586 59.7967C72.5923 59.6181 72.3335 59.3887 72.1832 59.1085C72.033 58.8293 71.9571 58.4529 71.9571 57.9807V55.1947C71.9571 54.8643 71.9383 54.6595 71.9025 54.5792C71.8656 54.499 71.8041 54.4349 71.7137 54.3862C71.6239 54.3386 71.4592 54.3162 71.2186 54.3188V54.1728ZM82.6395 54.1728V55.7097H82.494C82.4037 55.3551 82.3047 55.1001 82.1962 54.9455C82.0871 54.7894 81.9368 54.6664 81.747 54.575C81.6411 54.5247 81.4551 54.499 81.1888 54.499H80.7594V58.8951C80.7594 59.1887 80.7754 59.3716 80.8064 59.4448C80.838 59.5175 80.9011 59.5822 80.9925 59.6363C81.0856 59.6924 81.2117 59.7197 81.3716 59.7197H81.5577V59.8657H78.5958V59.7197H78.783C78.9461 59.7197 79.0781 59.6892 79.1781 59.6309C79.2498 59.5908 79.307 59.5234 79.3482 59.4277C79.3787 59.3603 79.3942 59.1828 79.3942 58.8951V54.499H78.9819C78.6012 54.499 78.3252 54.5808 78.152 54.7423C77.9103 54.9685 77.7584 55.2904 77.6942 55.7097H77.5312V54.1728H82.6395ZM88.8735 54.044V56.0444H88.7275C88.5398 55.5006 88.258 55.0872 87.8831 54.8038C87.5083 54.5204 87.0971 54.3787 86.6522 54.3787C86.226 54.3787 85.8725 54.4974 85.5891 54.7365C85.3057 54.9755 85.1052 55.3092 84.9881 55.7353C84.8704 56.1631 84.8121 56.6011 84.8121 57.0508C84.8121 57.5957 84.8752 58.0721 85.0036 58.4828C85.1324 58.894 85.3399 59.1946 85.626 59.3876C85.9126 59.5806 86.2516 59.6764 86.6452 59.6764C86.7826 59.6764 86.9227 59.6625 87.066 59.632C87.2104 59.6036 87.358 59.5609 87.5083 59.5047V58.3283C87.5083 58.101 87.4922 57.9534 87.4623 57.8866C87.4323 57.8203 87.3676 57.7588 87.2719 57.7059C87.1762 57.6518 87.0602 57.6246 86.9243 57.6246H86.7784V57.4786H89.543V57.6246C89.3328 57.639 89.1852 57.6674 89.1023 57.7117C89.0205 57.7561 88.9563 57.8288 88.912 57.932C88.8863 57.985 88.8735 58.1181 88.8735 58.3283V59.5047C88.5098 59.6667 88.1318 59.7881 87.7398 59.871C87.3479 59.9528 86.9398 59.994 86.5179 59.994C85.9795 59.994 85.5319 59.9213 85.1758 59.7737C84.8191 59.6277 84.5041 59.4347 84.2325 59.1956C83.9603 58.9566 83.7475 58.6876 83.594 58.3887C83.3983 58.0037 83.301 57.5716 83.301 57.0952C83.301 56.2391 83.6015 55.5182 84.2025 54.9284C84.8046 54.3386 85.5618 54.044 86.4736 54.044C86.757 54.044 87.0099 54.0654 87.2377 54.1097C87.3607 54.1327 87.5596 54.1958 87.8355 54.3001C88.1104 54.4049 88.2735 54.4563 88.3237 54.4563C88.4024 54.4563 88.4756 54.4274 88.543 54.3702C88.6098 54.3129 88.6713 54.2044 88.7275 54.044H88.8735ZM92.9385 54.1044C93.8444 54.0712 94.5818 54.3343 95.1481 54.8953C95.7149 55.4578 95.9983 56.1589 95.9983 57.0032C95.9983 57.723 95.7865 58.3572 95.3641 58.9053C94.8048 59.6309 94.015 59.994 92.9931 59.994C91.9685 59.994 91.1771 59.648 90.6178 58.9555C90.1755 58.4074 89.9536 57.7588 89.9536 57.0075C89.9536 56.1631 90.2413 55.4605 90.8167 54.8985C91.3921 54.3343 92.099 54.0712 92.9385 54.1044ZM92.9888 54.3702C92.4664 54.3702 92.0701 54.6349 91.7969 55.1659C91.575 55.6011 91.4648 56.2262 91.4648 57.0422C91.4648 58.0107 91.6364 58.7277 91.9787 59.1914C92.2177 59.5149 92.5508 59.6764 92.9802 59.6764C93.2695 59.6764 93.5112 59.6063 93.7043 59.4678C93.9508 59.2887 94.1438 59.0026 94.2813 58.6106C94.4187 58.2181 94.4871 57.7059 94.4871 57.0765C94.4871 56.3252 94.4171 55.7626 94.277 55.3904C94.1363 55.0172 93.9577 54.7536 93.7401 54.6006C93.5225 54.4477 93.2722 54.3702 92.9888 54.3702Z" fill="#014C8F"/>
<path fill-rule="evenodd" clip-rule="evenodd" d="M16.7315 62.1228L16.7652 62.1479C16.7561 62.1666 16.7476 62.1832 16.7396 62.1971C16.7315 62.2115 16.7219 62.2287 16.7102 62.249C16.6989 62.2693 16.6904 62.2843 16.684 62.2939C16.6337 62.3827 16.5861 62.4265 16.5417 62.4265C16.523 62.4265 16.507 62.4196 16.4936 62.4046C16.4802 62.3896 16.4733 62.3693 16.4733 62.3436C16.4733 62.3073 16.4861 62.2575 16.5123 62.1944C16.538 62.1313 16.5781 62.0527 16.6321 61.9608C16.6866 61.8677 16.7545 61.7629 16.8369 61.6458C16.9187 61.5287 17.0112 61.4052 17.1144 61.2752C17.0551 61.2667 16.9845 61.2624 16.9032 61.2624C16.8096 61.2624 16.7053 61.2725 16.5909 61.2939C16.4759 61.3143 16.3759 61.3383 16.2909 61.3656C16.2059 61.3929 16.1631 61.4126 16.1631 61.4255C16.1631 61.4303 16.1647 61.4335 16.1679 61.4351C16.1717 61.4367 16.177 61.4378 16.185 61.4389C16.1925 61.4399 16.2027 61.441 16.2145 61.4426C16.2931 61.4533 16.3332 61.4656 16.3332 61.479C16.3332 61.4854 16.3155 61.4886 16.2813 61.488C16.2471 61.4875 16.2059 61.4875 16.1572 61.4875C16.1187 61.4875 16.0909 61.4864 16.0738 61.4832C16.0567 61.48 16.0449 61.4741 16.0396 61.4661C16.0337 61.4576 16.031 61.4447 16.031 61.4271C16.031 61.4159 16.0342 61.3907 16.0412 61.3522C16.0535 61.2811 16.0733 61.2239 16.1 61.1806C16.1268 61.1378 16.1674 61.1025 16.2225 61.0752C16.277 61.048 16.3524 61.0266 16.4492 61.01C16.6102 60.9827 16.7438 60.9688 16.8497 60.9688C16.9278 60.9688 16.9893 60.972 17.0347 60.9784C17.0797 60.9849 17.1128 60.994 17.1342 61.0062C17.1551 61.0185 17.1684 61.0303 17.1743 61.0421C17.1802 61.0538 17.1877 61.0742 17.1973 61.1036L17.2283 61.1961C17.2305 61.2025 17.2321 61.2073 17.2331 61.2111C17.2347 61.2148 17.2358 61.2185 17.2369 61.2228C17.2379 61.2266 17.2385 61.2303 17.2385 61.234C17.2385 61.2602 17.2326 61.2832 17.2208 61.3046C17.2091 61.3255 17.1877 61.3565 17.1561 61.3982C17.1246 61.4405 17.1016 61.4725 17.0871 61.4966C16.9134 61.7784 16.7952 61.987 16.7315 62.1228ZM17.7053 62.003V62.0704C17.6609 62.111 17.6256 62.1378 17.5989 62.1517C17.5716 62.165 17.5331 62.1704 17.4823 62.1672C17.3952 62.2709 17.3182 62.3233 17.2518 62.3233C17.2139 62.3233 17.1797 62.3105 17.1486 62.2859C17.1176 62.2607 17.093 62.2271 17.0743 62.1837C17.0561 62.141 17.0465 62.0928 17.0465 62.0394C17.0465 61.9966 17.0609 61.9485 17.0893 61.8961C17.1182 61.8436 17.1551 61.795 17.2005 61.7495C17.246 61.7041 17.2946 61.6672 17.3465 61.6394C17.3978 61.6116 17.4465 61.5971 17.4903 61.5971C17.5224 61.5971 17.547 61.6019 17.5652 61.6116C17.5834 61.6217 17.5925 61.6351 17.5925 61.6527C17.5925 61.6661 17.585 61.6816 17.5695 61.6993C17.5951 61.7046 17.6123 61.7137 17.6219 61.726C17.631 61.7383 17.6358 61.7613 17.6358 61.7939C17.6358 61.8265 17.6283 61.8672 17.6133 61.9164C17.5978 61.9656 17.5775 62.011 17.5513 62.0543L17.5695 62.0725H17.5845C17.5962 62.0725 17.6074 62.0693 17.6181 62.064C17.6294 62.0581 17.6395 62.0522 17.6481 62.0458C17.6572 62.0394 17.6759 62.0249 17.7053 62.003ZM17.4978 61.7378C17.4417 61.7715 17.3946 61.8019 17.3545 61.8292C17.3149 61.8565 17.2813 61.8843 17.2534 61.9121C17.2256 61.9399 17.2075 61.9677 17.1978 61.996C17.1813 62.0714 17.1727 62.1121 17.1727 62.118C17.1727 62.1624 17.2037 62.1848 17.2657 62.1848C17.2946 62.1848 17.3428 62.1597 17.4112 62.1099C17.4 62.0784 17.3941 62.0479 17.3941 62.019C17.3941 61.9768 17.4026 61.9335 17.4203 61.8896C17.4379 61.8453 17.4636 61.795 17.4978 61.7378ZM17.6935 62.0832V62.0174C17.7294 61.9741 17.7572 61.9378 17.7764 61.9073C17.7545 61.8998 17.739 61.8912 17.7294 61.88C17.7192 61.8693 17.7144 61.8533 17.7144 61.8319C17.7144 61.8073 17.7246 61.7763 17.7449 61.7399C17.7652 61.7025 17.7898 61.6677 17.8197 61.6351C17.8491 61.603 17.8759 61.5822 17.8999 61.5725C17.9101 61.5683 17.9187 61.5656 17.9278 61.5656C17.9411 61.5656 17.9481 61.572 17.9481 61.5848C17.9481 61.5961 17.9374 61.6196 17.9165 61.6544C18.0556 61.633 18.1427 61.6223 18.1796 61.6223C18.1935 61.6223 18.2031 61.6233 18.2085 61.626C18.2203 61.6319 18.2293 61.6463 18.2368 61.6688C18.2443 61.6912 18.2481 61.7132 18.2481 61.7356C18.2481 61.7495 18.2416 61.765 18.2293 61.7816C18.217 61.7982 18.1957 61.8223 18.1652 61.8538C18.1293 61.8923 18.0999 61.934 18.0753 61.9789C18.0513 62.0244 18.039 62.0586 18.039 62.0811C18.039 62.1132 18.0588 62.1287 18.0978 62.1287C18.1384 62.1287 18.2101 62.087 18.3117 62.0035V62.0714C18.2555 62.1297 18.2096 62.1757 18.1732 62.2089C18.1368 62.2431 18.1031 62.2693 18.0721 62.2891C18.0411 62.3089 18.0138 62.319 17.9892 62.319C17.9609 62.319 17.9374 62.3062 17.9187 62.28C17.8994 62.2543 17.8903 62.2169 17.8903 62.1677C17.8903 62.1388 17.8978 62.1057 17.9128 62.0688C17.9278 62.0313 17.9491 61.9918 17.978 61.9479C18.0064 61.9046 18.0384 61.8613 18.0743 61.8185C18.0556 61.8223 18.0342 61.8265 18.0106 61.8308C17.9871 61.8356 17.9625 61.8399 17.9358 61.8447C17.9096 61.8495 17.8893 61.8533 17.8753 61.8559C17.8336 61.9394 17.7727 62.0153 17.6935 62.0832ZM18.4256 61.8244C18.5283 61.7314 18.6272 61.6624 18.724 61.6175C18.8202 61.572 18.8946 61.5495 18.947 61.5495C18.9609 61.5495 18.9742 61.5554 18.9865 61.5672C18.9983 61.579 19.0085 61.5929 19.0149 61.6084C19.0224 61.6239 19.0256 61.6351 19.0256 61.6431C19.0256 61.6549 19.0208 61.664 19.0117 61.6693C19.0026 61.6752 18.986 61.6822 18.9619 61.6902C18.9667 61.7009 18.9732 61.7148 18.9801 61.7319C18.9881 61.7485 18.9935 61.7618 18.9978 61.7725C19.0015 61.7832 19.0031 61.7923 19.0031 61.8003C19.0031 61.8164 18.9871 61.8463 18.9544 61.8907C18.9218 61.9346 18.8988 61.9672 18.886 61.988C18.8726 62.0089 18.8662 62.0345 18.8662 62.065C18.8662 62.1148 18.8892 62.1399 18.9347 62.1399C18.9823 62.1399 19.0555 62.0955 19.156 62.0073V62.0688C18.986 62.2581 18.8641 62.3522 18.7903 62.3522C18.7641 62.3522 18.7454 62.3436 18.7336 62.3265C18.7229 62.3094 18.7176 62.2843 18.7176 62.2506C18.7176 62.1971 18.7368 62.1206 18.7753 62.0196C18.6769 62.1281 18.6042 62.2062 18.5561 62.2522C18.5079 62.2982 18.4689 62.3212 18.4379 62.3212C18.4229 62.3212 18.4047 62.3083 18.3823 62.2827C18.3604 62.257 18.3406 62.2238 18.3235 62.1832C18.3063 62.1426 18.2978 62.1003 18.2978 62.0565C18.2978 62.0249 18.3005 61.9987 18.3063 61.9773C18.3128 61.9559 18.3245 61.9346 18.3422 61.9121C18.3598 61.8902 18.3876 61.8608 18.4256 61.8244ZM18.9095 61.7132C18.7347 61.7934 18.6101 61.8613 18.5352 61.9169C18.4609 61.9736 18.4235 62.0308 18.4235 62.0902C18.4235 62.1116 18.4277 62.1297 18.4347 62.1431C18.4422 62.157 18.4523 62.164 18.4652 62.164C18.4727 62.164 18.486 62.1591 18.5042 62.1495C18.5748 62.1078 18.64 62.0538 18.6983 61.9864C18.7571 61.9196 18.8277 61.8281 18.9095 61.7132ZM19.8277 61.8223C19.709 61.9543 19.6496 62.0463 19.6496 62.0982C19.6496 62.1271 19.6614 62.1415 19.6849 62.1415C19.7041 62.1415 19.7298 62.1313 19.7614 62.1105C19.7924 62.0902 19.8416 62.0538 19.9079 62.0014V62.0704C19.8127 62.165 19.7389 62.2329 19.6881 62.2746C19.6368 62.3164 19.5951 62.3377 19.5624 62.3377C19.5074 62.3377 19.4801 62.3008 19.4801 62.2281C19.4801 62.2073 19.4833 62.1859 19.4903 62.165C19.4967 62.1442 19.5063 62.1222 19.5181 62.0998C19.5298 62.0768 19.5475 62.0452 19.5721 62.003C19.5961 61.9608 19.6239 61.9132 19.6555 61.8602C19.6175 61.8795 19.5694 61.918 19.5111 61.9757C19.4731 62.0121 19.4416 62.0468 19.4154 62.0795C19.3892 62.1121 19.3608 62.1484 19.3309 62.1886C19.301 62.2287 19.279 62.2554 19.2651 62.2693C19.2518 62.2832 19.2379 62.2902 19.2234 62.2902C19.202 62.2902 19.1822 62.2677 19.1641 62.2222C19.1459 62.1773 19.1368 62.1244 19.1368 62.0645C19.1368 62.0276 19.1411 61.9987 19.1496 61.9779C19.1576 61.957 19.1742 61.9276 19.1994 61.8891C19.2459 61.8174 19.286 61.765 19.3197 61.7319C19.3534 61.6987 19.3854 61.6816 19.4165 61.6816C19.4379 61.6816 19.455 61.6854 19.4683 61.6929C19.4812 61.7003 19.4881 61.7116 19.4881 61.7271C19.4881 61.734 19.486 61.741 19.4822 61.7485C19.478 61.7565 19.4731 61.7629 19.4683 61.7688C19.4635 61.7747 19.4528 61.787 19.4362 61.8041C19.3304 61.9217 19.2774 61.9987 19.2774 62.0335C19.2774 62.0527 19.2838 62.0624 19.2967 62.0624C19.3047 62.0624 19.3202 62.0495 19.3437 62.0239C19.3667 61.9977 19.3967 61.9634 19.433 61.9217C19.4699 61.8795 19.5132 61.8356 19.5635 61.7902C19.6138 61.7442 19.6705 61.6998 19.7341 61.6576C19.7699 61.6324 19.7999 61.6201 19.8234 61.6201C19.8341 61.6201 19.8448 61.6351 19.8555 61.6645C19.8656 61.6939 19.871 61.7244 19.871 61.7549C19.871 61.7699 19.856 61.7923 19.8277 61.8223ZM20.7046 62.0725L20.3688 62.3484C20.2747 62.5115 20.1892 62.6329 20.1116 62.7131C20.0346 62.7933 19.9769 62.834 19.9394 62.834C19.9191 62.834 19.909 62.8217 19.909 62.7965C19.909 62.7479 19.9336 62.6859 19.9827 62.611C20.002 62.581 20.0245 62.5522 20.0496 62.5238C20.0747 62.496 20.0988 62.4714 20.1212 62.4506C20.1437 62.4303 20.1736 62.4046 20.2105 62.3741C20.248 62.3436 20.2731 62.3222 20.2865 62.311C20.3539 62.1736 20.402 62.0688 20.4314 61.996C20.3683 62.0634 20.3132 62.1185 20.2662 62.1618C20.2191 62.2051 20.1758 62.2383 20.1362 62.2613C20.0972 62.2843 20.0619 62.296 20.0298 62.296C19.9956 62.296 19.964 62.2688 19.9352 62.2137C19.9063 62.1591 19.8918 62.1025 19.8918 62.0447C19.8918 62.018 19.8983 61.9896 19.9106 61.9597C19.9229 61.9303 19.9426 61.8987 19.9688 61.865C19.9956 61.8313 20.0293 61.7971 20.0704 61.7618C20.1111 61.726 20.1597 61.6918 20.2148 61.6581C20.3191 61.5929 20.4004 61.5602 20.4581 61.5602C20.5009 61.5602 20.5223 61.5757 20.5223 61.6078C20.5223 61.6511 20.4758 61.6939 20.3822 61.7356C20.325 61.7608 20.2683 61.7934 20.2121 61.8346C20.156 61.8757 20.1105 61.919 20.0763 61.9656C20.0416 62.011 20.0239 62.0527 20.0239 62.0896C20.0239 62.1078 20.0287 62.1228 20.0373 62.1335C20.0464 62.1442 20.0576 62.1495 20.0715 62.1495C20.095 62.1495 20.1218 62.1388 20.1523 62.1169C20.1827 62.0955 20.2277 62.0575 20.287 62.003C20.3137 61.9784 20.3496 61.9378 20.3945 61.8821C20.4389 61.8271 20.4758 61.7843 20.5052 61.7549C20.5346 61.7255 20.5613 61.711 20.5843 61.711C20.5977 61.711 20.6089 61.7153 20.6175 61.7239C20.626 61.7319 20.6298 61.7447 20.6298 61.7608C20.6298 61.7918 20.6175 61.8367 20.5929 61.8955C20.5683 61.9543 20.5239 62.0506 20.4597 62.1848L20.7046 62.0073V62.0725ZM21.2661 62.0896V62.019C21.3608 61.9169 21.442 61.8201 21.51 61.7303C21.5784 61.6399 21.6324 61.5683 21.672 61.5153C21.7116 61.4624 21.7468 61.4244 21.7773 61.4025C21.8073 61.3811 21.8452 61.3699 21.8912 61.3699C21.9142 61.3699 21.926 61.3784 21.926 61.3961C21.926 61.41 21.9164 61.4314 21.8976 61.4586C21.8795 61.4864 21.8554 61.5148 21.8265 61.5437C21.788 61.5816 21.7506 61.6287 21.7142 61.6854C21.6773 61.7426 21.6356 61.8153 21.5896 61.9035C21.6255 61.8752 21.6677 61.8415 21.7153 61.803C21.7624 61.764 21.8014 61.734 21.8313 61.7116C21.8613 61.6902 21.8912 61.6731 21.9201 61.6602C21.9495 61.6474 21.9789 61.641 22.0083 61.641C22.0276 61.641 22.0393 61.6442 22.0452 61.6506C22.0511 61.6576 22.0538 61.6709 22.0538 61.6902C22.0538 61.7415 22.0415 61.7912 22.0169 61.8399C21.9918 61.8886 21.9559 61.9394 21.9094 61.9918C21.8629 62.0442 21.8057 62.1014 21.7378 62.1634C21.7613 62.172 21.7853 62.1763 21.8105 62.1763C21.8886 62.1763 21.9934 62.1169 22.1244 61.9977V62.0704C22.0736 62.1164 22.0233 62.1591 21.9746 62.2003C21.926 62.2404 21.88 62.273 21.8367 62.2971C21.7939 62.3212 21.7543 62.3335 21.7174 62.3335C21.7041 62.3335 21.6902 62.3319 21.6747 62.3292C21.6597 62.326 21.6458 62.3222 21.6329 62.3174C21.6201 62.3137 21.6035 62.3073 21.5832 62.2992C21.5634 62.2907 21.5479 62.2853 21.5372 62.2816C21.5153 62.2875 21.5035 62.2902 21.5003 62.2902C21.4773 62.2902 21.4495 62.2805 21.418 62.2613C21.3955 62.3046 21.3715 62.3602 21.3447 62.4286C21.318 62.4966 21.2955 62.5511 21.2773 62.5912C21.2592 62.6318 21.2351 62.6704 21.2046 62.7072C21.188 62.7244 21.1763 62.7324 21.1693 62.7324C21.1405 62.7324 21.126 62.7072 21.126 62.6559C21.126 62.611 21.1346 62.565 21.1528 62.5169C21.1709 62.4688 21.1923 62.4233 21.218 62.3805C21.2442 62.3372 21.2725 62.2934 21.3035 62.2495C21.3346 62.2057 21.3565 62.1725 21.3693 62.1511C21.4757 61.9682 21.5586 61.8126 21.6174 61.6843C21.4629 61.8725 21.3458 62.0073 21.2661 62.0896ZM21.6763 62.1394C21.7426 62.0693 21.7923 62.0094 21.8249 61.9608C21.8581 61.911 21.8741 61.8736 21.8741 61.8474C21.8741 61.8228 21.8618 61.8105 21.8367 61.8105C21.803 61.8105 21.7559 61.8378 21.695 61.8934C21.634 61.949 21.5709 62.0239 21.5067 62.118C21.5565 62.1126 21.5896 62.1105 21.6067 62.1121C21.6233 62.1137 21.6468 62.1228 21.6763 62.1394ZM22.2789 62.0415V62.0666C22.2789 62.1062 22.2885 62.1372 22.3083 62.1591C22.3281 62.1816 22.3532 62.1928 22.3853 62.1928C22.4179 62.1928 22.4522 62.1853 22.4875 62.1698C22.5227 62.1543 22.558 62.1335 22.5928 62.1078C22.6281 62.0827 22.6709 62.0479 22.7211 62.0051V62.0666C22.6452 62.1581 22.5741 62.2281 22.5072 62.2768C22.4404 62.3254 22.373 62.35 22.304 62.35C22.2447 62.35 22.1971 62.3271 22.1618 62.2805C22.127 62.234 22.1094 62.1704 22.1094 62.0896C22.1094 62.019 22.126 61.9549 22.1591 61.8971C22.1917 61.8394 22.2458 61.7789 22.3201 61.7153C22.3714 61.6715 22.4222 61.6383 22.473 61.6164C22.5233 61.5939 22.5682 61.5827 22.6083 61.5827C22.6399 61.5827 22.665 61.5902 22.6832 61.6046C22.7019 61.6191 22.711 61.641 22.711 61.6699C22.711 61.7121 22.6955 61.7543 22.6634 61.7966C22.6318 61.8383 22.5837 61.88 22.519 61.9217C22.4538 61.9634 22.3736 62.0035 22.2789 62.0415ZM22.2891 61.9763C22.3495 61.9522 22.4014 61.9233 22.4447 61.888C22.4875 61.8533 22.519 61.8196 22.5399 61.788C22.5602 61.7559 22.5703 61.7324 22.5703 61.7174C22.5703 61.7019 22.5634 61.6945 22.5495 61.6945C22.5372 61.6945 22.5174 61.7019 22.4901 61.7174C22.4629 61.733 22.4356 61.7533 22.4078 61.7784C22.3794 61.803 22.3548 61.8324 22.3324 61.8661C22.3105 61.8998 22.296 61.9367 22.2891 61.9763ZM23.8537 61.641L23.8024 61.7014C23.8623 61.7068 23.9157 61.7137 23.9628 61.7233C24.0099 61.7319 24.0537 61.742 24.0938 61.7533C24.1339 61.7645 24.1687 61.7757 24.1992 61.788C24.3056 61.8324 24.3585 61.8944 24.3585 61.9736C24.3585 62.0222 24.3366 62.0693 24.2922 62.1158C24.2478 62.1624 24.1901 62.2041 24.1189 62.2399C24.0478 62.2768 23.9751 62.3051 23.9002 62.3254C23.8248 62.3458 23.7564 62.3565 23.6954 62.3565C23.5928 62.3565 23.5136 62.3372 23.4564 62.2992C23.3992 62.2613 23.3703 62.2089 23.3703 62.1431C23.3703 62.0976 23.388 62.0436 23.4227 61.9821C23.458 61.9201 23.512 61.8426 23.5853 61.7506C23.5302 61.7479 23.4912 61.7399 23.4682 61.726C23.4457 61.7121 23.4339 61.6929 23.4339 61.6677C23.4339 61.6522 23.4382 61.6404 23.4468 61.6324C23.4559 61.6244 23.4676 61.6185 23.4826 61.6148C23.497 61.611 23.5254 61.6062 23.5676 61.6009C23.6099 61.5955 23.6639 61.5886 23.7297 61.5806C23.8034 61.4907 23.8692 61.4228 23.927 61.3774C23.9858 61.3319 24.0478 61.3057 24.1141 61.2987C24.12 61.2982 24.1259 61.2977 24.1318 61.2977C24.1387 61.2977 24.1414 61.2998 24.1414 61.303C24.1414 61.3073 24.1339 61.318 24.1189 61.3356C24.104 61.3528 24.0794 61.3811 24.0451 61.4196C24.0115 61.4576 23.9708 61.5036 23.9243 61.556C24.051 61.5388 24.1542 61.5196 24.235 61.4977C24.3152 61.4763 24.3761 61.4501 24.4168 61.4196C24.458 61.3891 24.4788 61.3554 24.4788 61.3185C24.4788 61.2736 24.4569 61.2405 24.413 61.2201C24.3692 61.1998 24.3024 61.1902 24.2125 61.1902C24.1623 61.1902 24.1056 61.195 24.0409 61.2052C23.9767 61.2153 23.9184 61.2271 23.866 61.2394C23.8141 61.2522 23.7676 61.2661 23.727 61.2806C23.6863 61.295 23.666 61.3052 23.666 61.3121C23.666 61.3143 23.6682 61.3164 23.6724 61.3185C23.7051 61.3308 23.7216 61.3405 23.7216 61.349C23.7216 61.3597 23.6714 61.38 23.5703 61.411C23.4692 61.4415 23.4013 61.457 23.366 61.457C23.3414 61.457 23.3291 61.4447 23.3291 61.4196C23.3291 61.3897 23.3564 61.3367 23.4104 61.2597C23.4644 61.1822 23.5136 61.133 23.558 61.1116C23.5735 61.1036 23.6099 61.0923 23.6666 61.0758C23.7227 61.0597 23.7847 61.0448 23.8526 61.0292C23.92 61.0148 23.989 61.002 24.059 60.9923C24.1291 60.9822 24.1911 60.9768 24.2451 60.9768C24.3724 60.9768 24.4676 60.9998 24.5318 61.0453C24.5954 61.0907 24.6275 61.1474 24.6275 61.2164C24.6275 61.2629 24.613 61.3078 24.5836 61.3512C24.5542 61.3939 24.5088 61.4346 24.4467 61.4731C24.3847 61.5116 24.3045 61.5453 24.2045 61.5741C24.1056 61.603 23.9885 61.6255 23.8537 61.641ZM23.7468 61.7709C23.712 61.8126 23.6805 61.8495 23.6532 61.8811C23.6259 61.9132 23.6067 61.9394 23.5949 61.9592C23.5831 61.9789 23.5773 61.9987 23.5773 62.019C23.5773 62.0517 23.5938 62.08 23.627 62.1051C23.6607 62.1303 23.7083 62.1431 23.7714 62.1431C23.8291 62.1431 23.8906 62.1329 23.9564 62.1126C24.0222 62.0918 24.0772 62.0656 24.1221 62.0324C24.1671 61.9993 24.189 61.9661 24.189 61.9324C24.189 61.9035 24.1724 61.8795 24.1393 61.8608C24.1066 61.842 24.0564 61.8255 23.9895 61.811C23.9216 61.7966 23.8414 61.7832 23.7468 61.7709ZM24.5612 61.8244C24.6633 61.7314 24.7628 61.6624 24.859 61.6175C24.9553 61.572 25.0296 61.5495 25.082 61.5495C25.0964 61.5495 25.1093 61.5554 25.1216 61.5672C25.1339 61.579 25.1435 61.5929 25.1504 61.6084C25.1574 61.6239 25.1611 61.6351 25.1611 61.6431C25.1611 61.6549 25.1563 61.664 25.1467 61.6693C25.1376 61.6752 25.121 61.6822 25.0975 61.6902C25.1023 61.7009 25.1082 61.7148 25.1157 61.7319C25.1232 61.7485 25.1285 61.7618 25.1328 61.7725C25.1371 61.7832 25.1387 61.7923 25.1387 61.8003C25.1387 61.8164 25.1221 61.8463 25.0895 61.8907C25.0574 61.9346 25.0344 61.9672 25.021 61.988C25.0082 62.0089 25.0013 62.0345 25.0013 62.065C25.0013 62.1148 25.0242 62.1399 25.0702 62.1399C25.1173 62.1399 25.1911 62.0955 25.2911 62.0073V62.0688C25.121 62.2581 24.9991 62.3522 24.9259 62.3522C24.8991 62.3522 24.8804 62.3436 24.8692 62.3265C24.8579 62.3094 24.8526 62.2843 24.8526 62.2506C24.8526 62.1971 24.8718 62.1206 24.9104 62.0196C24.812 62.1281 24.7392 62.2062 24.6911 62.2522C24.6435 62.2982 24.6039 62.3212 24.5729 62.3212C24.5585 62.3212 24.5398 62.3083 24.5179 62.2827C24.4954 62.257 24.4761 62.2238 24.4585 62.1832C24.4414 62.1426 24.4328 62.1003 24.4328 62.0565C24.4328 62.0249 24.436 61.9987 24.4419 61.9773C24.4478 61.9559 24.4596 61.9346 24.4772 61.9121C24.4949 61.8902 24.5227 61.8608 24.5612 61.8244ZM25.0451 61.7132C24.8697 61.7934 24.7451 61.8613 24.6708 61.9169C24.5959 61.9736 24.559 62.0308 24.559 62.0902C24.559 62.1116 24.5628 62.1297 24.5703 62.1431C24.5777 62.157 24.5874 62.164 24.6002 62.164C24.6077 62.164 24.6211 62.1591 24.6398 62.1495C24.7104 62.1078 24.7751 62.0538 24.8333 61.9864C24.8922 61.9196 24.9628 61.8281 25.0451 61.7132ZM25.9627 61.8223C25.844 61.9543 25.7846 62.0463 25.7846 62.0982C25.7846 62.1271 25.7964 62.1415 25.8199 62.1415C25.8397 62.1415 25.8649 62.1313 25.8964 62.1105C25.928 62.0902 25.9766 62.0538 26.0435 62.0014V62.0704C25.9477 62.165 25.8745 62.2329 25.8231 62.2746C25.7718 62.3164 25.7301 62.3377 25.698 62.3377C25.6429 62.3377 25.6151 62.3008 25.6151 62.2281C25.6151 62.2073 25.6189 62.1859 25.6253 62.165C25.6322 62.1442 25.6413 62.1222 25.6531 62.0998C25.6649 62.0768 25.6825 62.0452 25.7071 62.003C25.7312 61.9608 25.7595 61.9132 25.7911 61.8602C25.7526 61.8795 25.7044 61.918 25.6467 61.9757C25.6087 62.0121 25.5772 62.0468 25.5504 62.0795C25.5242 62.1121 25.4964 62.1484 25.4665 62.1886C25.4365 62.2287 25.4141 62.2554 25.4007 62.2693C25.3868 62.2832 25.3729 62.2902 25.359 62.2902C25.3371 62.2902 25.3173 62.2677 25.2991 62.2222C25.2809 62.1773 25.2718 62.1244 25.2718 62.0645C25.2718 62.0276 25.2761 61.9987 25.2847 61.9779C25.2927 61.957 25.3098 61.9276 25.3349 61.8891C25.3809 61.8174 25.421 61.765 25.4547 61.7319C25.4884 61.6987 25.521 61.6816 25.5515 61.6816C25.5729 61.6816 25.5905 61.6854 25.6034 61.6929C25.6167 61.7003 25.6232 61.7116 25.6232 61.7271C25.6232 61.734 25.6216 61.741 25.6173 61.7485C25.613 61.7565 25.6087 61.7629 25.6034 61.7688C25.5986 61.7747 25.5879 61.787 25.5718 61.8041C25.4654 61.9217 25.4125 61.9987 25.4125 62.0335C25.4125 62.0527 25.4189 62.0624 25.4317 62.0624C25.4397 62.0624 25.4552 62.0495 25.4788 62.0239C25.5018 61.9977 25.5317 61.9634 25.5681 61.9217C25.605 61.8795 25.6488 61.8356 25.6986 61.7902C25.7488 61.7442 25.806 61.6998 25.8697 61.6576C25.9055 61.6324 25.9349 61.6201 25.9584 61.6201C25.9697 61.6201 25.9798 61.6351 25.9905 61.6645C26.0007 61.6939 26.006 61.7244 26.006 61.7549C26.006 61.7699 25.9916 61.7923 25.9627 61.8223ZM26.7985 62.0051V62.073C26.7231 62.1613 26.66 62.2281 26.6087 62.2736C26.5579 62.319 26.5151 62.3415 26.4803 62.3415C26.4472 62.3415 26.4178 62.3319 26.391 62.3126C26.3648 62.2928 26.3408 62.2661 26.3194 62.2319C26.298 62.1971 26.2729 62.1495 26.244 62.0886C26.2098 62.1308 26.1787 62.1704 26.1509 62.2073C26.1237 62.2436 26.1044 62.2682 26.0937 62.28C26.083 62.2923 26.0729 62.2982 26.0643 62.2982C26.0461 62.2982 26.0328 62.2864 26.0247 62.2634C26.0167 62.2404 26.0124 62.2062 26.0124 62.1618C26.0124 62.1014 26.0199 62.0431 26.0344 61.987C26.0488 61.9308 26.0697 61.8757 26.0969 61.8228C26.1242 61.7699 26.1595 61.7121 26.2023 61.6506C26.2451 61.5891 26.2926 61.5244 26.3461 61.4576C26.4194 61.3645 26.483 61.2886 26.536 61.2298C26.5889 61.1709 26.6354 61.126 26.675 61.0961C26.714 61.0661 26.7472 61.0517 26.7734 61.0517C26.806 61.0517 26.822 61.0661 26.822 61.095C26.822 61.1196 26.7627 61.2094 26.6434 61.364C26.5242 61.5185 26.3504 61.7292 26.1221 61.9966V62.0832C26.275 61.9196 26.398 61.7982 26.491 61.7185C26.5846 61.6388 26.6568 61.5993 26.7081 61.5993C26.7285 61.5993 26.745 61.6116 26.7563 61.6362C26.7675 61.6608 26.7734 61.6891 26.7734 61.7217C26.7734 61.7875 26.745 61.8485 26.6889 61.9051C26.6322 61.9613 26.545 62.026 26.4279 62.0987C26.4483 62.1287 26.4659 62.1506 26.4814 62.1645C26.4969 62.1784 26.5162 62.1853 26.5402 62.1853C26.5611 62.1853 26.5835 62.1779 26.6076 62.164C26.6317 62.1495 26.6568 62.1324 26.6819 62.1105C26.7071 62.0891 26.7461 62.0538 26.7985 62.0051ZM26.3996 62.057C26.4253 62.0399 26.4573 62.0137 26.4948 61.9784C26.5333 61.9431 26.5659 61.9062 26.5926 61.8682C26.6194 61.8303 26.6327 61.7982 26.6327 61.7725C26.6327 61.7618 26.6279 61.7565 26.6188 61.7565C26.5932 61.7565 26.5493 61.7811 26.4873 61.8303C26.4247 61.8795 26.3643 61.9426 26.3049 62.0196C26.3301 62.0196 26.3622 62.0319 26.3996 62.057Z" fill="#ED1C24"/>
<path fill-rule="evenodd" clip-rule="evenodd" d="M19.5218 58.6181C18.1518 58.3267 17.2246 58.6235 16.085 59.6657C16.0139 59.6972 15.9883 59.6715 16.008 59.5887L19.8031 55.0584C20.6982 53.9894 20.9656 53.3862 22.1345 53.3558C22.9361 53.3349 23.4409 53.1606 23.6147 52.7638C23.6847 52.6034 23.6853 52.3767 23.696 52.0975C23.7323 51.1794 24.0291 50.4805 24.5398 49.9998C24.251 50.5521 24.1783 51.1912 24.3847 51.8975C24.6243 52.7189 24.481 53.3012 23.9328 53.7183C23.566 53.998 22.9126 54.0408 21.9121 53.9627C21.3827 53.9215 21.0875 54.1167 21.0314 54.3771C21.3747 54.4178 21.9618 54.6274 22.8302 54.8953C24.5195 55.4166 25.5617 54.9792 25.1692 53.8739C25.5991 54.4119 25.5601 55.0001 25.021 55.6134C24.5227 56.1802 23.6184 56.307 22.3933 55.8573C21.2586 55.4412 20.5223 55.3364 20.1212 55.7022C20.8217 55.7856 21.6276 56.0343 22.5265 56.4717C23.7414 57.0631 24.6403 57.2898 25.2061 57.0567C25.7996 56.8118 25.9595 56.2829 25.7167 55.5391C26.2493 56.1706 26.2878 56.8209 25.8055 57.4711C25.22 58.2609 24.1778 58.3582 22.6971 57.8042C21.8741 57.4962 21.1255 57.2342 20.4469 57.0417C19.6165 56.807 19.0694 56.9283 18.8186 57.3599C19.8491 57.2925 21.018 57.6615 22.3714 58.3818C24.5125 59.5207 25.8649 59.3881 26.383 58.0705C26.6916 58.871 26.3921 59.5919 25.4355 60.1507C24.8034 60.5196 23.8275 60.4421 22.4618 59.902C21.8565 59.663 20.2351 58.7705 19.5218 58.6181Z" fill="#1D5580"/>
<path fill-rule="evenodd" clip-rule="evenodd" d="M19.5218 58.6181C18.1518 58.3267 17.2246 58.6235 16.085 59.6657C16.0139 59.6972 15.9883 59.6715 16.008 59.5887L19.8031 55.0584C20.6982 53.9894 20.9656 53.3862 22.1345 53.3558C22.9361 53.3349 23.4409 53.1606 23.6147 52.7638C23.6847 52.6034 23.6853 52.3767 23.696 52.0975C23.7323 51.1794 24.0291 50.4805 24.5398 49.9998C24.251 50.5521 24.1783 51.1912 24.3847 51.8975C24.6243 52.7189 24.481 53.3012 23.9328 53.7183C23.566 53.998 22.9126 54.0408 21.9121 53.9627C21.3827 53.9215 21.0875 54.1167 21.0314 54.3771C21.3747 54.4178 21.9618 54.6274 22.8302 54.8953C24.5195 55.4166 25.5617 54.9792 25.1692 53.8739C25.5991 54.4119 25.5601 55.0001 25.021 55.6134C24.5227 56.1802 23.6184 56.307 22.3933 55.8573C21.2586 55.4412 20.5223 55.3364 20.1212 55.7022C20.8217 55.7856 21.6276 56.0343 22.5265 56.4717C23.7414 57.0631 24.6403 57.2898 25.2061 57.0567C25.7996 56.8118 25.9595 56.2829 25.7167 55.5391C26.2493 56.1706 26.2878 56.8209 25.8055 57.4711C25.22 58.2609 24.1778 58.3582 22.6971 57.8042C21.8741 57.4962 21.1255 57.2342 20.4469 57.0417C19.6165 56.807 19.0694 56.9283 18.8186 57.3599C19.8491 57.2925 21.018 57.6615 22.3714 58.3818C24.5125 59.5207 25.8649 59.3881 26.383 58.0705C26.6916 58.871 26.3921 59.5919 25.4355 60.1507C24.8034 60.5196 23.8275 60.4421 22.4618 59.902C21.8565 59.663 20.2351 58.7705 19.5218 58.6181Z" fill="#2AA7DE"/>
</g>
<rect x="1" y="1" width="110" height="110" rx="9" stroke="#CCCCCC" stroke-width="2"/>
<defs>
<clipPath id="clip0_528_603">
<rect x="2" y="2" width="108" height="108" rx="8" fill="white"/>
</clipPath>
</defs>
</svg>
