<svg width="112" height="112" viewBox="0 0 112 112" fill="none" xmlns="http://www.w3.org/2000/svg">
<g clip-path="url(#clip0_302_1292)">
<rect x="2" y="2" width="108" height="108" rx="8" fill="white"/>
<path fill-rule="evenodd" clip-rule="evenodd" d="M46.22 45.06C45.84 46.65 45.46 48.41 45.07 50C40.86 50.75 36.43 52.84 31.9 55.41C35.46 50.91 40.89 47.94 46.22 45.06ZM30.11 56.59C25.48 61.66 22.54 68.19 20.53 75.52C18.35 74.1 16.18 72.68 14 71.25C17.87 65.43 22.95 60.36 30.11 56.58V56.59Z" fill="#ED1C24"/>
<path fill-rule="evenodd" clip-rule="evenodd" d="M45.15 37C46.06 37.51 46.98 38.02 47.89 38.53C44.23 40.58 40.6 42.96 37.18 46.87C38.62 43.62 41.39 40.33 45.16 37H45.15ZM32.85 38.38C33.53 38.47 34.21 38.55 34.89 38.63C33.68 40.72 32.66 42.94 32.06 45.44C31.64 43.3 32.18 40.86 32.85 38.38ZM33.62 43.5C34.06 43.52 34.5 43.55 34.93 43.57C33.93 45.23 33.11 46.98 32.43 48.79C32.58 47.13 32.96 45.38 33.62 43.5ZM34.5 46.37C35.18 46.78 35.86 47.18 36.54 47.59C34.73 49.71 33.04 51.92 31.64 54.29C32.23 51.72 33.35 49.04 34.5 46.37ZM29.74 47.06C30.4 46.93 31.06 46.81 31.71 46.68C31.16 49.13 30.96 51.58 31.05 54.03C30.13 51.96 29.87 49.54 29.73 47.06H29.74ZM29 49.17C29.2 50.89 29.49 52.61 30.01 54.33C29.17 53.17 28.44 51.71 27.76 50.11C28.17 49.8 28.59 49.49 29 49.17ZM25.11 51.84C25.64 51.66 26.16 51.48 26.69 51.3C27.51 52.43 28.31 53.59 29.09 54.79C27.86 53.72 26.51 52.76 25.11 51.83V51.84ZM22.31 47.95C22.72 47.73 23.13 47.51 23.54 47.29C24.52 48.22 25.43 49.36 26.26 50.73C25.01 49.69 23.7 48.76 22.31 47.95ZM15.71 52.31C16.18 51.79 16.64 51.26 17.11 50.74C18.9 51.33 20.64 51.99 22.34 52.7C20.15 52.48 17.93 52.35 15.7 52.31H15.71ZM21.91 54.88C22.43 54.3 22.95 53.72 23.48 53.13C25.37 53.82 27.2 54.63 28.98 55.59C26.62 55.22 24.27 55.02 21.91 54.88ZM18.56 56.85C18.8 56.31 19.04 55.77 19.27 55.23C21.12 55.21 22.88 55.48 24.52 56.11C22.53 56.17 20.55 56.45 18.56 56.86V56.85ZM14.88 59.29C14.99 58.76 15.15 58.24 15.37 57.72C16.79 57.53 18.21 57.45 19.63 57.61C17.88 58.03 16.34 58.63 14.89 59.28L14.88 59.29ZM18.28 61.89C18.79 60.62 19.32 59.34 19.83 58.07C23.12 56.79 26.31 56.33 29.45 56.33C25.45 57.66 21.79 59.63 18.28 61.89ZM16.87 65.62V63.69C18.39 62.66 19.88 62.01 21.35 61.56C19.57 62.68 18.1 64.06 16.87 65.62Z" fill="#FED860"/>
<path fill-rule="evenodd" clip-rule="evenodd" d="M69.54 65.41V63.29L68.62 63.66C68.15 63.85 67.82 64.04 67.63 64.24C67.43 64.44 67.34 64.68 67.34 64.97C67.34 65.26 67.43 65.51 67.62 65.69C67.8 65.88 68.04 65.97 68.34 65.97C68.78 65.97 69.18 65.79 69.55 65.42L69.54 65.41ZM70.89 62.52V65.56C70.89 65.81 70.97 65.93 71.13 65.93C71.23 65.93 71.37 65.88 71.55 65.78C72.17 65.46 71.69 66.56 71.16 66.83C70.98 66.92 70.77 66.94 70.57 66.94C69.98 66.94 69.63 66.7 69.53 66.22C68.94 66.69 68.32 66.92 67.66 66.92C67.18 66.92 66.78 66.76 66.45 66.43C66.13 66.1 65.96 65.68 65.96 65.19C65.96 64.74 66.12 64.33 66.43 63.98C66.75 63.62 67.19 63.34 67.77 63.14L69.53 62.52V62.14C69.53 61.28 69.11 60.85 68.28 60.85C67.53 60.85 66.8 61.25 66.09 62.04V60.49C66.63 59.84 67.39 59.52 68.39 59.52C69.14 59.52 69.74 59.72 70.2 60.13C70.35 60.26 70.49 60.43 70.61 60.65C70.73 60.86 70.81 61.08 70.84 61.29C70.88 61.51 70.89 61.91 70.89 62.52ZM85.82 59.66V60.57C86.43 59.87 87.12 59.52 87.9 59.52C88.33 59.52 88.73 59.63 89.1 59.86C89.47 60.09 89.75 60.41 89.94 60.81C90.14 61.21 90.23 61.85 90.23 62.72V66.81C89.25 66.95 89.08 66.42 88.87 65.92V62.73C88.87 62 88.76 61.48 88.55 61.16C88.34 60.84 87.97 60.69 87.47 60.69C86.83 60.69 86.28 61.02 85.83 61.69V66.8H84.44V59.64H85.83L85.82 59.66ZM93.59 67.34C93.12 67.34 92.74 67.44 92.44 67.64C92.14 67.84 91.99 68.1 91.99 68.41C91.99 69.14 92.65 69.51 93.95 69.51C94.57 69.51 95.04 69.42 95.38 69.23C95.72 69.05 95.89 68.79 95.89 68.46C95.89 68.13 95.68 67.86 95.25 67.65C94.82 67.44 94.27 67.34 93.59 67.34ZM93.92 61.11C93.54 61.11 93.22 61.24 92.96 61.5C92.69 61.76 92.56 62.07 92.56 62.43C92.56 62.79 92.69 63.1 92.95 63.34C93.21 63.58 93.54 63.7 93.94 63.7C94.34 63.7 94.66 63.58 94.93 63.33C95.19 63.08 95.32 62.78 95.32 62.42C95.32 62.06 95.19 61.74 94.92 61.49C94.65 61.24 94.32 61.12 93.92 61.12V61.11ZM91.3 62.35C91.3 61.59 91.57 60.99 92.12 60.55C92.67 60.11 93.42 59.89 94.37 59.89H97.91C97.73 60.33 97.52 60.76 96.93 60.99H95.85C96.13 61.27 96.32 61.53 96.42 61.76C96.53 61.99 96.58 62.26 96.58 62.55C96.58 62.92 96.48 63.28 96.27 63.64C96.06 64 95.79 64.27 95.46 64.47C95.13 64.66 94.59 64.81 93.84 64.93C93.31 65.01 93.05 65.19 93.05 65.48C93.05 65.64 93.15 65.78 93.34 65.89C93.54 66 93.89 66.1 94.41 66.21C95.27 66.4 95.82 66.55 96.07 66.66C96.32 66.77 96.54 66.93 96.74 67.12C97.08 67.46 97.25 67.89 97.25 68.4C97.25 69.08 96.95 69.61 96.36 70.02C95.77 70.42 94.97 70.62 93.98 70.62C92.99 70.62 92.17 70.42 91.57 70.01C90.97 69.61 90.67 69.06 90.67 68.38C90.67 67.42 91.26 66.8 92.44 66.52C91.97 66.22 91.73 65.92 91.73 65.62C91.73 65.39 91.83 65.19 92.03 65C92.23 64.81 92.5 64.68 92.85 64.59C91.81 64.12 91.3 63.37 91.3 62.34V62.35ZM78.42 62.66H81.94C81.91 62.1 81.74 61.66 81.45 61.36C81.16 61.05 80.76 60.9 80.26 60.9C79.76 60.9 79.35 61.05 79.04 61.36C78.72 61.66 78.51 62.1 78.42 62.66ZM83.32 63.5H78.39C78.43 64.18 78.65 64.72 79.07 65.12C79.48 65.53 80.02 65.73 80.67 65.73C81.58 65.73 82.43 65.44 83.2 64.86V66.24C82.77 66.53 82.35 66.74 81.93 66.86C81.51 66.98 81.02 67.04 80.45 67.04C79.68 67.04 79.05 66.88 78.58 66.55C78.1 66.22 77.72 65.79 77.43 65.24C77.14 64.69 77 64.05 77 63.33C77 62.24 77.3 61.36 77.91 60.68C78.52 60 79.3 59.66 80.27 59.66C81.24 59.66 81.94 59.99 82.49 60.65C83.05 61.31 83.32 62.2 83.32 63.31V63.5ZM71.75 60.9L74.23 58.31V59.78H76.44C76.34 60.19 76.16 60.6 75.44 61.05H74.23V64.53C74.23 65.35 74.55 65.75 75.18 65.75C75.65 65.75 76.15 65.58 76.68 65.24V66.55C76.17 66.85 75.62 67.01 75.02 67.01C74.42 67.01 73.92 66.82 73.52 66.44C73.4 66.33 73.29 66.2 73.21 66.06C73.13 65.92 73.06 65.73 73 65.5C72.95 65.27 72.92 64.84 72.92 64.19V61.04H71.76V60.9H71.75ZM65.05 56.05V66.78C65.05 67.78 64.95 68.52 64.75 69C64.55 69.48 64.22 69.86 63.77 70.15C63.32 70.44 62.78 70.58 62.15 70.58C62.05 70.58 61.89 70.56 61.65 70.53L61.37 69.08H61.76C62.2 69.08 62.54 69.03 62.77 68.92C63 68.81 63.19 68.62 63.32 68.35C63.46 68.08 63.52 67.49 63.52 66.6V57.77C63.56 56.75 64.18 56.27 65.06 56.04L65.05 56.05ZM53.99 55.94V66.81H52.6V57.27C52.69 56.76 53.16 56.32 53.99 55.95V55.94ZM57.13 59.65H58.7L55.8 63.11C56.94 64.33 58.11 65.59 59.25 66.81C58.45 66.96 57.52 66.75 56.59 65.94L54.05 63.16L57.13 59.65ZM46.97 59.65V60.56C47.58 59.86 48.27 59.51 49.05 59.51C49.48 59.51 49.88 59.62 50.25 59.85C50.62 60.08 50.9 60.4 51.09 60.8C51.28 61.2 51.38 61.84 51.38 62.71V66.8C50.4 66.94 50.23 66.41 50.02 65.91V62.72C50.02 61.99 49.91 61.47 49.7 61.15C49.49 60.83 49.13 60.68 48.62 60.68C47.98 60.68 47.43 61.01 46.98 61.68V66.79H45.59V59.63H46.98L46.97 59.65ZM42.47 63.27L41.55 63.64C41.09 63.83 40.75 64.02 40.56 64.22C40.36 64.42 40.27 64.66 40.27 64.95C40.27 65.24 40.36 65.49 40.55 65.67C40.74 65.86 40.97 65.95 41.26 65.95C41.7 65.95 42.1 65.77 42.47 65.4V63.27ZM43.82 62.5V65.54C43.82 65.79 43.9 65.91 44.06 65.91C44.17 65.91 44.3 65.86 44.48 65.76C45.1 65.44 44.62 66.54 44.09 66.81C43.91 66.9 43.7 66.92 43.5 66.92C42.91 66.92 42.56 66.68 42.46 66.2C41.88 66.67 41.26 66.9 40.6 66.9C40.12 66.9 39.71 66.74 39.39 66.41C39.07 66.08 38.91 65.66 38.91 65.17C38.91 64.72 39.07 64.31 39.38 63.96C39.7 63.6 40.14 63.32 40.72 63.12L42.48 62.5V62.12C42.48 61.26 42.06 60.83 41.23 60.83C40.48 60.83 39.75 61.23 39.04 62.02V60.47C39.57 59.82 40.34 59.5 41.34 59.5C42.09 59.5 42.69 59.7 43.14 60.11C43.29 60.24 43.43 60.41 43.55 60.63C43.67 60.84 43.75 61.06 43.78 61.27C43.81 61.49 43.83 61.89 43.83 62.5H43.82ZM33.96 62H32.58V65.42H34.04C34.85 65.42 35.4 65.36 35.68 65.22C35.97 65.09 36.2 64.88 36.38 64.6C36.55 64.32 36.64 64.03 36.64 63.71C36.64 63.39 36.55 63.08 36.36 62.8C36.17 62.53 35.91 62.33 35.57 62.19C35.23 62.06 34.69 61.99 33.96 61.99V62ZM33.85 57.38H32.58V60.63H33.56C34.35 60.63 34.91 60.47 35.24 60.16C35.58 59.84 35.74 59.44 35.74 58.94C35.74 57.9 35.11 57.39 33.85 57.39V57.38ZM31.1 66.8V56.01H33.81C34.66 56.01 35.33 56.13 35.81 56.36C36.29 56.6 36.65 56.93 36.91 57.35C37.16 57.77 37.29 58.26 37.29 58.81C37.29 59.87 36.77 60.63 35.72 61.09C36.47 61.24 37.07 61.57 37.52 62.07C37.97 62.57 38.19 63.16 38.19 63.86C38.19 64.41 38.05 64.9 37.78 65.33C37.51 65.76 37.11 66.11 36.59 66.39C36.06 66.66 35.41 66.8 34.62 66.8H31.1Z" fill="#2E3092"/>
</g>
<rect x="1" y="1" width="110" height="110" rx="9" stroke="#CCCCCC" stroke-width="2"/>
<defs>
<clipPath id="clip0_302_1292">
<rect x="2" y="2" width="108" height="108" rx="8" fill="white"/>
</clipPath>
</defs>
</svg>
