<svg width="112" height="112" viewBox="0 0 112 112" fill="none" xmlns="http://www.w3.org/2000/svg">
<g clip-path="url(#clip0_517_509)">
<rect x="2" y="2" width="108" height="108" rx="8" fill="white"/>
<path fill-rule="evenodd" clip-rule="evenodd" d="M16.0001 74.5583V60.2941H18.5552V65.4408C19.3431 64.4808 20.2765 63.9983 21.3577 63.9983C22.5358 63.9983 23.508 64.4541 24.2789 65.368C25.0474 66.2796 25.4328 67.5911 25.4328 69.3026C25.4328 71.0699 25.0425 72.4299 24.2571 73.3874C23.4692 74.3402 22.514 74.8177 21.3916 74.8177C20.8389 74.8177 20.2934 74.665 19.7577 74.362C19.2195 74.0565 18.7565 73.6202 18.3686 73.0408V74.5583H16.0001ZM18.5165 69.1886C18.5165 70.2626 18.6765 71.0577 18.9916 71.5693C19.4377 72.3014 20.0243 72.6674 20.7613 72.6674C21.3262 72.6674 21.8086 72.408 22.2086 71.8892C22.6062 71.3705 22.8049 70.5535 22.8049 69.4408C22.8049 68.2553 22.6037 67.402 22.2013 66.8783C21.8013 66.3523 21.2898 66.0905 20.6619 66.0905C20.0462 66.0905 19.5371 66.3474 19.1298 66.859C18.7225 67.3705 18.5165 68.1462 18.5165 69.1886ZM29.4013 67.4068L27.091 66.968C27.3504 65.9596 27.8013 65.2105 28.4389 64.7256C29.0764 64.2408 30.0243 63.9983 31.2777 63.9983C32.4195 63.9983 33.2704 64.1414 33.8304 64.4299C34.3855 64.7208 34.7807 65.0844 35.0086 65.5305C35.234 65.9741 35.3504 66.7887 35.3504 67.9765L35.3116 71.1644C35.3116 72.0711 35.3528 72.7426 35.4328 73.1741C35.5128 73.6056 35.6655 74.0686 35.891 74.5583H33.3552C33.2898 74.3789 33.2049 74.1147 33.108 73.7632C33.0692 73.5983 33.0377 73.4941 33.0183 73.4432C32.5843 73.9014 32.1164 74.2432 31.6195 74.4735C31.1225 74.7014 30.594 74.8177 30.0316 74.8177C29.0425 74.8177 28.2595 74.5292 27.6874 73.9523C27.1152 73.3777 26.8292 72.6456 26.8292 71.7632C26.8292 71.1814 26.9601 70.6602 27.2195 70.202C27.4813 69.7486 27.8449 69.3947 28.3177 69.1523C28.7855 68.9099 29.4643 68.699 30.3492 68.5147C31.5419 68.2771 32.3734 68.0493 32.8316 67.8456V67.5693C32.8316 67.0383 32.7104 66.6602 32.468 66.4299C32.2231 66.2044 31.7625 66.0905 31.0886 66.0905C30.6328 66.0905 30.2789 66.1874 30.0243 66.3838C29.7649 66.5753 29.5613 66.9171 29.4013 67.4068ZM32.8316 69.6177C32.5067 69.7341 31.988 69.8723 31.2752 70.0371C30.5674 70.1996 30.1019 70.3571 29.8837 70.5123C29.5516 70.7668 29.3843 71.0844 29.3843 71.4747C29.3843 71.8602 29.5177 72.1874 29.7843 72.4662C30.051 72.745 30.3904 72.8856 30.8025 72.8856C31.2631 72.8856 31.7043 72.7232 32.1237 72.4008C32.4316 72.1511 32.6377 71.8529 32.7322 71.4941C32.7977 71.2614 32.8316 70.8177 32.8316 70.1632V69.6177ZM46.6692 74.5583H44.114V69.288C44.114 68.1729 44.0582 67.4529 43.9492 67.128C43.8376 66.7983 43.6607 66.5462 43.4134 66.3644C43.1637 66.1802 42.8655 66.0905 42.5189 66.0905C42.0704 66.0905 41.6704 66.2214 41.3164 66.4808C40.9576 66.7377 40.7152 67.0844 40.5843 67.5087C40.451 67.9377 40.3855 68.728 40.3855 69.8844V74.5583H37.8328V64.219H40.1989V65.7365C41.0473 64.5777 42.114 63.9983 43.4037 63.9983C43.9685 63.9983 44.4873 64.1099 44.9576 64.3256C45.4304 64.5438 45.7843 64.8202 46.0219 65.1547C46.2643 65.4941 46.434 65.8747 46.5261 66.3038C46.6231 66.7329 46.6692 67.3438 46.6692 68.139V74.5583ZM49.1637 74.5583V60.2941H51.7188V67.8602L54.7104 64.219H57.8619L54.5625 67.9983L58.1043 74.5583H55.3455L52.9019 69.8941L51.7188 71.2492V74.5583H49.1637Z" fill="#72706F"/>
<path fill-rule="evenodd" clip-rule="evenodd" d="M60.3952 74.8177V60.0032H63.0958L68.7685 69.9305V60.0032H71.3455V74.8177H68.56L62.9746 65.0796V74.8177H60.3952ZM77.394 74.8177V62.5074H73.3115V60.0032H84.2449V62.5074H80.1843V74.8177H77.394ZM89.1491 74.8177V62.5074H85.0691V60.0032H96V62.5074H91.9394V74.8177H89.1491Z" fill="#28166F"/>
<path fill-rule="evenodd" clip-rule="evenodd" d="M22.994 37.0505C24.3395 37.0505 25.4328 38.1414 25.4328 39.4869C25.4328 40.8347 24.3395 41.9257 22.994 41.9257C21.6462 41.9257 20.5552 40.8347 20.5552 39.4869C20.5552 38.1414 21.6462 37.0505 22.994 37.0505Z" fill="#48B7EC"/>
<path fill-rule="evenodd" clip-rule="evenodd" d="M36.2304 34.7063C37.1249 34.7063 37.8498 35.4311 37.8498 36.3257C37.8498 37.2178 37.1249 37.9426 36.2304 37.9426C35.3383 37.9426 34.6134 37.2178 34.6134 36.3257C34.6134 35.4311 35.3383 34.7063 36.2304 34.7063Z" fill="#0093DD"/>
<path fill-rule="evenodd" clip-rule="evenodd" d="M41.8134 48.8226C43.5273 48.8226 44.9164 50.2093 44.9164 51.9232C44.9164 53.6372 43.5273 55.0262 41.8134 55.0262C40.1019 55.0262 38.7128 53.6372 38.7128 51.9232C38.7128 50.2093 40.1019 48.8226 41.8134 48.8226Z" fill="#28166F"/>
<path fill-rule="evenodd" clip-rule="evenodd" d="M17.9419 31.6227C20.2377 33.8748 24.7274 37.0021 30.0752 39.3705C32.851 40.5996 34.3589 40.6627 34.4995 39.6372C34.4849 39.6178 34.4704 39.5984 34.4558 39.5766C34.1383 39.4942 33.891 39.4748 33.6825 39.4942C33.5298 39.7099 32.6789 39.3633 31.1007 38.4736C27.1031 36.2214 23.6825 34.3911 22.0001 32.5099C19.5662 29.7899 20.1553 28.5657 23.1346 29.7099C25.8449 30.7499 28.7468 33.3972 32.0437 37.0966C32.8752 38.0299 33.3989 38.6942 33.6049 39.0942C33.8789 39.0481 34.1552 39.0069 34.4389 38.9705C34.2643 38.2893 33.7698 37.3608 32.9431 36.1924C29.2777 31.0215 24.994 28.2772 21.5856 27.3293C19.2219 26.6724 17.1928 27.1524 16.3686 27.4457C15.6437 28.1221 15.8983 29.6178 17.9419 31.6227Z" fill="#6AC1EF"/>
<path fill-rule="evenodd" clip-rule="evenodd" d="M52.9479 43.0481C50.1067 41.5426 46.8534 40.1996 41.0522 39.4529C38.6498 39.1426 35.1128 39.0675 34.6958 39.3754C35.1904 40.1366 35.7552 41.1184 36.4122 42.0396C36.1601 42.4081 37.7722 43.7656 38.6086 44.282C44.0001 47.6129 48.0825 50.2432 51.3916 51.4965C55.1152 52.9099 57.891 52.4759 59.1831 50.9608C60.9406 47.5232 55.4788 44.3863 52.9479 43.0481ZM52.0291 45.116C49.9564 43.6856 45.6776 41.9402 41.1225 41.0384C39.4134 40.699 36.3273 40.2554 35.7867 40.1705C36.8631 41.6978 38.3661 42.7935 40.0073 43.8093C44.2231 46.4153 48.3952 47.9669 51.2073 48.6917C51.9031 48.8687 53.8546 49.242 54.1673 48.6311C54.6643 47.6614 53.6316 46.219 52.0291 45.116Z" fill="#0093DD"/>
<path fill-rule="evenodd" clip-rule="evenodd" d="M37.9855 46.8444C37.8255 44.1438 36.7904 41.5014 34.7977 38.9244C34.0413 39.0141 33.3237 39.1305 32.6401 39.276C32.9795 39.4287 33.2364 39.5208 33.4134 39.5475C33.6704 39.4699 33.988 39.453 34.4558 39.5766C35.748 41.3802 36.1819 43.9184 36.2134 45.8093C36.2522 48.2578 35.028 50.3547 33.8667 51.0262C32.5043 51.8117 30.514 51.7147 28.7977 51.2493C27.6874 50.2844 27.234 49.9693 26.7346 48.8129C25.9855 47.0723 26.1771 45.5329 27.1274 44.0153C28.1237 42.4202 29.8861 40.9463 32.131 40.1366C31.7649 40.0347 31.3601 39.8966 30.9164 39.722C27.8425 40.6747 25.6292 42.2893 24.1504 44.4784C22.6862 46.6481 22.388 48.8469 23.5468 51.3365C24.3177 52.9923 25.8086 54.0856 28.0389 54.7159C31.217 55.6129 33.7164 55.3996 35.474 53.8481C37.3795 52.1632 38.1601 49.7947 37.9855 46.8444Z" fill="#28166F"/>
<path d="M16.0001 83.5498V79.5474H16.6086V80.1123C16.7346 79.9159 16.9019 79.7583 17.1104 79.6395C17.3165 79.5208 17.554 79.4626 17.8207 79.4626C18.1165 79.4626 18.3589 79.5232 18.548 79.6468C18.7371 79.768 18.8704 79.9401 18.948 80.1608C19.2656 79.6953 19.6801 79.4626 20.1868 79.4626C20.5868 79.4626 20.8946 79.5717 21.108 79.7898C21.3213 80.0105 21.4304 80.3498 21.4304 80.8056V83.5498H20.7516V81.0311C20.7516 80.7595 20.7274 80.5656 20.6837 80.4444C20.6401 80.3256 20.5601 80.2311 20.4437 80.1583C20.3274 80.0832 20.1916 80.0468 20.0365 80.0468C19.7528 80.0468 19.5201 80.1414 19.3334 80.328C19.1468 80.5171 19.0546 80.8153 19.0546 81.2274V83.5498H18.3759V80.9511C18.3759 80.6504 18.3201 80.425 18.2086 80.2747C18.0995 80.1244 17.9177 80.0468 17.668 80.0468C17.4765 80.0468 17.3019 80.0977 17.1395 80.1995C16.9771 80.2989 16.8607 80.4444 16.7856 80.6383C16.7153 80.8323 16.6789 81.1111 16.6789 81.4747V83.5498H16.0001ZM25.154 82.2529L25.8571 82.3474C25.748 82.7547 25.5443 83.0723 25.2437 83.2977C24.948 83.5207 24.5649 83.6347 24.1019 83.6347C23.5177 83.6347 23.0546 83.4553 22.7128 83.0941C22.371 82.7353 22.2013 82.2311 22.2013 81.5814C22.2013 80.9098 22.3734 80.3886 22.7201 80.0177C23.0643 79.6468 23.5128 79.4626 24.0655 79.4626C24.5989 79.4626 25.0352 79.642 25.3722 80.008C25.7092 80.3717 25.8789 80.8832 25.8789 81.5426C25.8789 81.5814 25.8789 81.642 25.8765 81.722H22.8946C22.9213 82.1607 23.0449 82.4977 23.268 82.7304C23.491 82.9632 23.7698 83.0795 24.1019 83.0795C24.3492 83.0795 24.5625 83.0141 24.7371 82.8832C24.914 82.7523 25.0522 82.5414 25.154 82.2529ZM22.9334 81.1668H25.1637C25.1322 80.8298 25.0474 80.5777 24.9068 80.408C24.691 80.1486 24.4122 80.0177 24.068 80.0177C23.7577 80.0177 23.4958 80.122 23.2849 80.3305C23.074 80.5389 22.9577 80.8177 22.9334 81.1668ZM26.6983 83.5498V78.0274H27.3771V83.5498H26.6983ZM31.0425 83.048C30.7904 83.2638 30.548 83.4141 30.3152 83.5014C30.0825 83.591 29.8328 83.6347 29.5661 83.6347C29.1249 83.6347 28.788 83.528 28.5504 83.3123C28.3152 83.0989 28.1964 82.825 28.1964 82.4929C28.1964 82.2989 28.2401 82.1195 28.3298 81.9571C28.4195 81.7947 28.5358 81.6662 28.6813 81.5692C28.8267 81.4698 28.9892 81.3971 29.1686 81.3462C29.3019 81.3123 29.5055 81.2783 29.7746 81.2444C30.3201 81.1814 30.7249 81.1014 30.9843 81.0117C30.9867 80.9195 30.9892 80.8614 30.9892 80.8371C30.9892 80.5608 30.9237 80.3668 30.7952 80.2529C30.6231 80.1001 30.3637 80.025 30.0219 80.025C29.7019 80.025 29.4643 80.0808 29.314 80.1923C29.1613 80.3062 29.0474 80.5026 28.9746 80.7886L28.3128 80.6965C28.3734 80.4129 28.4704 80.1826 28.611 80.008C28.7492 79.8311 28.9504 79.6977 29.2122 79.6032C29.4716 79.5086 29.7771 79.4626 30.1213 79.4626C30.4631 79.4626 30.7419 79.5014 30.9577 79.5838C31.171 79.6638 31.3286 79.7632 31.4304 79.8868C31.5298 80.008 31.6001 80.1632 31.6413 80.3498C31.6631 80.4638 31.6752 80.6723 31.6752 80.9729V81.8723C31.6752 82.5001 31.6898 82.8977 31.7164 83.0674C31.7431 83.2347 31.8013 83.3947 31.8837 83.5498H31.1734C31.1055 83.4068 31.0619 83.2395 31.0425 83.048ZM30.9892 81.545C30.7419 81.6444 30.371 81.7292 29.8789 81.7995C29.5977 81.8383 29.3989 81.8844 29.2849 81.9329C29.1686 81.9838 29.0789 82.0565 29.0158 82.1535C28.9528 82.248 28.9213 82.3547 28.9213 82.4735C28.9213 82.6529 28.9892 82.8032 29.1274 82.922C29.2655 83.0432 29.4643 83.1014 29.7286 83.1014C29.9904 83.1014 30.2231 83.0456 30.4267 82.9317C30.6304 82.8177 30.7807 82.6626 30.8752 82.4662C30.948 82.3135 30.9843 82.088 30.9843 81.7898L30.9892 81.545ZM32.6861 85.0892L32.6086 84.4614C32.7589 84.5001 32.8874 84.522 32.9964 84.522C33.1492 84.522 33.2704 84.4953 33.3601 84.4444C33.4522 84.3959 33.5249 84.3256 33.5831 84.2359C33.6267 84.1656 33.6946 83.9983 33.7916 83.7292C33.8037 83.6904 33.8231 83.6347 33.8498 83.562L32.3322 79.5474H33.057L33.891 81.8577C34.0025 82.1486 34.097 82.4589 34.1843 82.7814C34.2619 82.4783 34.354 82.1777 34.4631 81.882L35.3164 79.5474H35.9928L34.4801 83.6201C34.3177 84.0565 34.1916 84.3571 34.0995 84.5244C33.9783 84.7474 33.8401 84.9098 33.6849 85.0141C33.5273 85.1183 33.3407 85.1692 33.1249 85.1692C32.994 85.1692 32.8461 85.1426 32.6861 85.0892ZM39.1879 83.048C38.9358 83.2638 38.6934 83.4141 38.4607 83.5014C38.2279 83.591 37.9783 83.6347 37.7116 83.6347C37.2704 83.6347 36.9334 83.528 36.6958 83.3123C36.4607 83.0989 36.3419 82.825 36.3419 82.4929C36.3419 82.2989 36.388 82.1195 36.4752 81.9571C36.5649 81.7947 36.6837 81.6662 36.8267 81.5692C36.9722 81.4698 37.1346 81.3971 37.3164 81.3462C37.4498 81.3123 37.651 81.2783 37.9201 81.2444C38.4679 81.1814 38.8728 81.1014 39.1298 81.0117C39.1322 80.9195 39.1346 80.8614 39.1346 80.8371C39.1346 80.5608 39.0692 80.3668 38.9407 80.2529C38.7686 80.1001 38.5092 80.025 38.1673 80.025C37.8473 80.025 37.6122 80.0808 37.4595 80.1923C37.3067 80.3062 37.1952 80.5026 37.1201 80.7886L36.4583 80.6965C36.5189 80.4129 36.6183 80.1826 36.7564 80.008C36.8946 79.8311 37.0958 79.6977 37.3576 79.6032C37.6195 79.5086 37.9225 79.4626 38.2667 79.4626C38.611 79.4626 38.8898 79.5014 39.1031 79.5838C39.3164 79.6638 39.474 79.7632 39.5758 79.8868C39.6752 80.008 39.7455 80.1632 39.7867 80.3498C39.8086 80.4638 39.8207 80.6723 39.8207 80.9729V81.8723C39.8207 82.5001 39.8352 82.8977 39.8643 83.0674C39.891 83.2347 39.9467 83.3947 40.0292 83.5498H39.3189C39.251 83.4068 39.2073 83.2395 39.1879 83.048ZM39.1346 81.545C38.8873 81.6444 38.5164 81.7292 38.0243 81.7995C37.7431 81.8383 37.5443 81.8844 37.4304 81.9329C37.314 81.9838 37.2243 82.0565 37.1613 82.1535C37.0983 82.248 37.0667 82.3547 37.0667 82.4735C37.0667 82.6529 37.1346 82.8032 37.2728 82.922C37.411 83.0432 37.6122 83.1014 37.874 83.1014C38.1358 83.1014 38.3686 83.0456 38.5722 82.9317C38.7758 82.8177 38.9261 82.6626 39.0207 82.4662C39.0934 82.3135 39.1298 82.088 39.1298 81.7898L39.1346 81.545ZM40.8631 83.5498V79.5474H41.4716V80.1147C41.7649 79.6783 42.1892 79.4626 42.7443 79.4626C42.9843 79.4626 43.2073 79.5062 43.4085 79.5911C43.6098 79.6783 43.7625 79.7923 43.8619 79.9329C43.9613 80.0735 44.034 80.2408 44.0728 80.4323C44.097 80.5583 44.1092 80.7789 44.1092 81.0917V83.5498H43.4304V81.1183C43.4304 80.842 43.4061 80.6335 43.3528 80.4977C43.2995 80.362 43.2073 80.2529 43.0716 80.1704C42.9382 80.088 42.7807 80.0468 42.6013 80.0468C42.3128 80.0468 42.0655 80.1389 41.8546 80.3232C41.6461 80.505 41.5419 80.8541 41.5419 81.3656V83.5498H40.8631ZM45.1516 78.7983V78.0274H45.8304V78.7983H45.1516ZM45.1516 83.5498V79.5474H45.8304V83.5498H45.1516Z" fill="black"/>
<path d="M48.994 83.5498V78.0274H49.6728V83.5498H48.994ZM53.4522 82.2529L54.1552 82.3474C54.0461 82.7547 53.8425 83.0723 53.5419 83.2977C53.2461 83.5207 52.8631 83.6347 52.4001 83.6347C51.8158 83.6347 51.3528 83.4553 51.011 83.0941C50.6691 82.7353 50.4995 82.2311 50.4995 81.5814C50.4995 80.9098 50.6716 80.3886 51.0182 80.0177C51.3625 79.6468 51.811 79.4626 52.3637 79.4626C52.897 79.4626 53.3334 79.642 53.6704 80.008C54.0073 80.3717 54.1794 80.8832 54.1794 81.5426C54.1794 81.5814 54.177 81.642 54.1746 81.722H51.1928C51.2194 82.1608 51.3431 82.4977 51.5661 82.7304C51.7891 82.9632 52.0679 83.0795 52.4001 83.0795C52.6473 83.0795 52.8607 83.0141 53.0352 82.8832C53.2122 82.7523 53.3504 82.5414 53.4522 82.2529ZM51.2316 81.1668H53.4619C53.4304 80.8298 53.3455 80.5777 53.2049 80.408C52.9891 80.1486 52.7104 80.0177 52.3661 80.0177C52.0558 80.0177 51.794 80.122 51.5831 80.3305C51.3722 80.5389 51.2558 80.8177 51.2316 81.1668ZM55.6364 83.5498H55.0037V78.0274H55.6825V79.9983C55.971 79.6395 56.3346 79.4626 56.7807 79.4626C57.0255 79.4626 57.2582 79.5111 57.4788 79.6105C57.6994 79.7098 57.8788 79.848 58.0219 80.0274C58.1625 80.2068 58.274 80.4226 58.354 80.6771C58.4364 80.9292 58.4752 81.2007 58.4752 81.4868C58.4752 82.1729 58.3055 82.7014 57.9685 83.0747C57.6291 83.448 57.2219 83.6347 56.7467 83.6347C56.2764 83.6347 55.9055 83.4383 55.6364 83.0456V83.5498ZM55.6291 81.5183C55.6291 81.9959 55.6946 82.3426 55.8255 82.5559C56.0388 82.905 56.3249 83.0795 56.691 83.0795C56.9867 83.0795 57.2437 82.9511 57.457 82.6941C57.6728 82.4371 57.7819 82.0541 57.7819 81.545C57.7819 81.0214 57.6776 80.6383 57.4716 80.3911C57.2655 80.1414 57.0134 80.0177 56.72 80.0177C56.4243 80.0177 56.1673 80.1462 55.954 80.4032C55.7382 80.6601 55.6291 81.0311 55.6291 81.5183ZM59.3019 78.7983V78.0274H59.9806V78.7983H59.3019ZM59.3019 83.5498V79.5474H59.9806V83.5498H59.3019ZM61.0158 83.5498V78.0274H61.6946V80.0153C62.0097 79.6468 62.4073 79.4626 62.8873 79.4626C63.1806 79.4626 63.4376 79.5208 63.6558 79.6371C63.874 79.7535 64.0291 79.9135 64.1213 80.1195C64.2158 80.3256 64.2619 80.6262 64.2619 81.0165V83.5498H63.5831V81.0189C63.5831 80.6795 63.5103 80.4347 63.3649 80.2795C63.2194 80.1244 63.0134 80.0468 62.7467 80.0468C62.5455 80.0468 62.3588 80.1001 62.1819 80.2044C62.0073 80.3086 61.8813 80.4492 61.8061 80.6286C61.7309 80.8056 61.6946 81.0504 61.6946 81.3656V83.5498H61.0158Z" fill="#E62129"/>
<path d="M67.1782 82.3547L67.8497 82.2456C67.8861 82.5147 67.9928 82.7207 68.1649 82.8638C68.337 83.0068 68.577 83.0795 68.8873 83.0795C69.1976 83.0795 69.4303 83.0165 69.5806 82.888C69.7334 82.762 69.8085 82.6141 69.8085 82.442C69.8085 82.2892 69.7406 82.168 69.6049 82.0808C69.5103 82.0201 69.2776 81.945 68.9115 81.8529C68.4146 81.7268 68.0703 81.6201 67.8788 81.528C67.6873 81.4359 67.5418 81.3098 67.4425 81.1474C67.3431 80.9874 67.2946 80.808 67.2946 80.6117C67.2946 80.4347 67.3358 80.2698 67.4158 80.1171C67.4982 79.9668 67.6097 79.8408 67.7479 79.7389C67.8546 79.6614 67.9976 79.5959 68.1794 79.5426C68.3612 79.4892 68.5552 79.4626 68.7637 79.4626C69.0788 79.4626 69.3528 79.5062 69.5903 79.5983C69.8279 79.688 70.0024 79.8117 70.1164 79.9668C70.2279 80.122 70.3055 80.328 70.3491 80.5874L69.6849 80.6795C69.6558 80.4711 69.5685 80.3086 69.4231 80.1923C69.28 80.0759 69.0764 80.0177 68.8122 80.0177C68.5043 80.0177 68.2812 80.0686 68.1479 80.1704C68.017 80.2747 67.9491 80.3959 67.9491 80.5317C67.9491 80.6214 67.9758 80.6989 68.0315 80.7717C68.0873 80.842 68.1721 80.9026 68.2909 80.9511C68.3588 80.9753 68.5576 81.0335 68.8897 81.1232C69.3673 81.2517 69.7018 81.3559 69.8909 81.4383C70.0825 81.5183 70.2303 81.6371 70.3394 81.7923C70.4485 81.9474 70.5019 82.1414 70.5019 82.3717C70.5019 82.5971 70.4364 82.8104 70.3055 83.0092C70.1721 83.208 69.9806 83.3632 69.7334 83.4723C69.4837 83.5814 69.2025 83.6347 68.8897 83.6347C68.3685 83.6347 67.9734 83.5256 67.6994 83.3123C67.4279 83.0965 67.2534 82.7765 67.1782 82.3547ZM73.92 83.5498V82.9535C73.6073 83.4092 73.1855 83.6347 72.6521 83.6347C72.417 83.6347 72.1988 83.5886 71.9928 83.4989C71.7891 83.4092 71.6364 83.2953 71.5394 83.1595C71.44 83.0214 71.3697 82.8541 71.3309 82.6553C71.3043 82.522 71.2897 82.3111 71.2897 82.0226V79.5474H71.9685V81.7607C71.9685 82.1147 71.9806 82.3547 72.0097 82.4759C72.0509 82.6553 72.1406 82.7935 72.2812 82.8953C72.417 82.9971 72.5867 83.048 72.7903 83.048C72.994 83.048 73.1831 82.9971 73.36 82.8929C73.5394 82.7886 73.6655 82.6456 73.7382 82.4662C73.8134 82.2892 73.8497 82.0274 73.8497 81.688V79.5474H74.5285V83.5498H73.92ZM75.5928 83.5498V79.5474H76.2037V80.1147C76.497 79.6783 76.9212 79.4626 77.474 79.4626C77.7164 79.4626 77.937 79.5062 78.1382 79.5911C78.3418 79.6783 78.4921 79.7923 78.594 79.9329C78.6934 80.0735 78.7637 80.2408 78.8024 80.4323C78.8291 80.5583 78.8412 80.7789 78.8412 81.0917V83.5498H78.1624V81.1183C78.1624 80.842 78.1358 80.6335 78.0849 80.4977C78.0315 80.362 77.937 80.2529 77.8037 80.1704C77.6703 80.088 77.5127 80.0468 77.3309 80.0468C77.0449 80.0468 76.7952 80.1389 76.5867 80.3232C76.3758 80.505 76.2715 80.8541 76.2715 81.3656V83.5498H75.5928ZM79.76 83.882L80.4146 83.9741C80.4412 84.1777 80.5188 84.3256 80.6449 84.4177C80.8121 84.5438 81.0424 84.6068 81.3358 84.6068C81.6485 84.6068 81.8909 84.5438 82.063 84.4177C82.2327 84.2941 82.3491 84.1171 82.4097 83.8917C82.4436 83.7559 82.4606 83.465 82.4582 83.0262C82.16 83.3753 81.7915 83.5498 81.3503 83.5498C80.8 83.5498 80.3733 83.3511 80.0727 82.9535C79.7697 82.5583 79.6194 82.0832 79.6194 81.528C79.6194 81.1474 79.6897 80.7959 79.8279 80.4711C79.9637 80.1486 80.1649 79.9014 80.4267 79.7244C80.6885 79.5498 80.9988 79.4626 81.3527 79.4626C81.8255 79.4626 82.2133 79.6541 82.5188 80.0395V79.5474H83.1443V83.0044C83.1443 83.6274 83.0812 84.0686 82.9552 84.328C82.8291 84.5874 82.6279 84.7935 82.3515 84.9438C82.0776 85.0941 81.7406 85.1692 81.3382 85.1692C80.8606 85.1692 80.4776 85.0626 80.1843 84.8468C79.8909 84.6335 79.7479 84.311 79.76 83.882ZM80.3152 81.4795C80.3152 82.0032 80.417 82.3862 80.6255 82.6262C80.8364 82.8662 81.0958 82.9874 81.4109 82.9874C81.7237 82.9874 81.983 82.8662 82.1964 82.6286C82.4073 82.3886 82.5115 82.0129 82.5115 81.5014C82.5115 81.0141 82.4024 80.6456 82.1867 80.3959C81.9685 80.1486 81.7067 80.025 81.4012 80.025C81.0982 80.025 80.8412 80.1462 80.6303 80.3911C80.4194 80.6359 80.3152 80.9971 80.3152 81.4795ZM84.0485 83.882L84.703 83.9741C84.7321 84.1777 84.8073 84.3256 84.9333 84.4177C85.103 84.5438 85.3333 84.6068 85.6243 84.6068C85.937 84.6068 86.1818 84.5438 86.3515 84.4177C86.5236 84.2941 86.6376 84.1171 86.6982 83.8917C86.7346 83.7559 86.7515 83.465 86.7467 83.0262C86.4509 83.3753 86.0824 83.5498 85.6388 83.5498C85.0885 83.5498 84.6618 83.3511 84.3612 82.9535C84.0606 82.5583 83.9103 82.0832 83.9103 81.528C83.9103 81.1474 83.9782 80.7959 84.1164 80.4711C84.2546 80.1486 84.4533 79.9014 84.7176 79.7244C84.9794 79.5498 85.2873 79.4626 85.6412 79.4626C86.1139 79.4626 86.5042 79.6541 86.8097 80.0395V79.5474H87.4352V83.0044C87.4352 83.6274 87.3721 84.0686 87.2436 84.328C87.1176 84.5874 86.9164 84.7935 86.6424 84.9438C86.3685 85.0941 86.0291 85.1692 85.6291 85.1692C85.1515 85.1692 84.7661 85.0626 84.4752 84.8468C84.1794 84.6335 84.0388 84.311 84.0485 83.882ZM84.6036 81.4795C84.6036 82.0032 84.7079 82.3862 84.9164 82.6262C85.1249 82.8662 85.3867 82.9874 85.6994 82.9874C86.0121 82.9874 86.2739 82.8662 86.4849 82.6286C86.6958 82.3886 86.8024 82.0129 86.8024 81.5014C86.8024 81.0141 86.6933 80.6456 86.4752 80.3959C86.257 80.1486 85.9952 80.025 85.6897 80.025C85.3867 80.025 85.1321 80.1462 84.9188 80.3911C84.7079 80.6359 84.6036 80.9971 84.6036 81.4795ZM91.0764 83.5498V82.9535C90.7661 83.4092 90.3442 83.6347 89.8109 83.6347C89.5758 83.6347 89.3552 83.5886 89.1515 83.4989C88.9479 83.4092 88.7952 83.2953 88.6958 83.1595C88.5988 83.0214 88.5285 82.8541 88.4873 82.6553C88.4606 82.522 88.4461 82.3111 88.4461 82.0226V79.5474H89.1249V81.7607C89.1249 82.1147 89.1394 82.3547 89.1661 82.4759C89.2097 82.6553 89.2994 82.7935 89.4376 82.8953C89.5758 82.9971 89.7455 83.048 89.9491 83.048C90.1527 83.048 90.3418 82.9971 90.5188 82.8929C90.6958 82.7886 90.8218 82.6456 90.897 82.4662C90.9697 82.2892 91.0085 82.0274 91.0085 81.688V79.5474H91.6873V83.5498H91.0764ZM92.7515 83.5498V78.0274H93.4303V80.0153C93.7455 79.6468 94.143 79.4626 94.623 79.4626C94.9188 79.4626 95.1733 79.5208 95.3915 79.6371C95.6097 79.7535 95.7648 79.9135 95.8594 80.1195C95.9539 80.3256 96 80.6262 96 81.0165V83.5498H95.3212V81.0189C95.3212 80.6795 95.2461 80.4347 95.103 80.2795C94.9551 80.1244 94.7491 80.0468 94.4824 80.0468C94.2836 80.0468 94.0945 80.1001 93.92 80.2044C93.743 80.3086 93.6194 80.4492 93.5418 80.6286C93.4691 80.8056 93.4303 81.0504 93.4303 81.3656V83.5498H92.7515Z" fill="black"/>
</g>
<rect x="1" y="1" width="110" height="110" rx="9" stroke="#CCCCCC" stroke-width="2"/>
<defs>
<clipPath id="clip0_517_509">
<rect x="2" y="2" width="108" height="108" rx="8" fill="white"/>
</clipPath>
</defs>
</svg>
