<svg width="112" height="112" viewBox="0 0 112 112" fill="none" xmlns="http://www.w3.org/2000/svg">
<g clip-path="url(#clip0_302_1293)">
<rect x="2" y="2" width="108" height="108" rx="8" fill="white"/>
<path d="M30.5404 40.2272C30.5404 40.2272 29.3579 37.5022 28.7254 37.2597C28.0929 37.0172 26.7329 45.6172 27.4129 47.4672C27.4129 47.4672 30.9379 50.2397 31.5179 52.6497L33.6229 49.9747L35.0279 44.9522L30.5379 40.2272H30.5404Z" fill="url(#paint0_linear_302_1293)" stroke="#A3822E" stroke-width="0.075" stroke-miterlimit="10"/>
<path d="M31.2704 49.4673C31.2704 49.4673 29.3129 45.3823 29.1729 40.0398" stroke="#A3822E" stroke-width="0.025" stroke-miterlimit="10"/>
<path d="M81.1879 40.2272C81.1879 40.2272 82.3704 37.5022 83.0029 37.2597C83.6354 37.0172 84.9954 45.6172 84.3154 47.4672C84.3154 47.4672 80.7904 50.2397 80.2104 52.6497L78.1054 49.9747L76.7004 44.9522L81.1904 40.2272H81.1879Z" fill="url(#paint1_linear_302_1293)" stroke="#A3822E" stroke-width="0.075" stroke-miterlimit="10"/>
<path d="M80.4579 49.4673C80.4579 49.4673 82.4154 45.3823 82.5554 40.0398" stroke="#A3822E" stroke-width="0.025" stroke-miterlimit="10"/>
<path d="M37.5304 33.5948C37.5304 33.5948 36.0154 30.5723 35.2654 30.5723C34.5154 30.5723 32.7354 35.7748 33.5554 38.3298C34.3754 40.8848 35.5279 41.1773 35.2429 42.7523C34.9604 44.3273 39.8104 40.0173 39.8579 39.6648C39.9054 39.3123 39.5779 35.5398 39.5779 35.5398L37.5304 33.5948Z" fill="url(#paint2_linear_302_1293)" stroke="#A3822E" stroke-width="0.075" stroke-miterlimit="10"/>
<path d="M41.3229 27.3147C41.3229 27.3147 36.0904 28.5647 37.9154 39.3397C39.7404 50.1147 43.5829 37.8122 43.5829 37.8122C43.5829 37.8122 49.2304 33.3122 47.2154 32.2347C45.2004 31.1572 41.3229 27.3147 41.3229 27.3147Z" fill="url(#paint3_linear_302_1293)" stroke="#A3822E" stroke-width="0.075" stroke-miterlimit="10"/>
<path d="M37.9154 39.3396C37.9154 39.3396 39.6679 30.7821 43.8404 30.3496C48.0129 29.9171 48.7154 34.8446 48.7154 34.8446L39.8629 38.2121L37.9179 39.3396H37.9154Z" fill="url(#paint4_linear_302_1293)" stroke="#A3822E" stroke-width="0.075" stroke-miterlimit="10"/>
<path d="M34.1754 77.4472L31.2704 78.4022C31.2704 78.4022 33.5654 80.7447 35.5354 80.2522C37.5054 79.7597 39.9654 77.1022 39.9654 77.1022C39.9654 77.1022 40.1954 75.4147 39.9304 75.3297C39.6654 75.2447 34.3054 76.5247 34.3054 76.5247L34.1779 77.4472H34.1754Z" fill="url(#paint5_linear_302_1293)" stroke="#A3822E" stroke-width="0.075" stroke-miterlimit="10"/>
<path d="M30.8929 70.8896L27.1679 70.9621C27.1679 70.9621 30.0829 75.9146 33.6004 77.1246C33.6004 77.1246 35.1154 78.4096 37.9604 77.3096C40.8054 76.2096 41.4379 74.3221 41.4379 74.3221L36.3079 69.4946C36.3079 69.4946 33.1554 69.8496 32.9229 69.8821C32.6904 69.9146 30.8954 70.8896 30.8954 70.8896H30.8929Z" fill="url(#paint6_linear_302_1293)" stroke="#A3822E" stroke-width="0.075" stroke-miterlimit="10"/>
<path d="M34.4179 71.4596C34.4179 71.4596 29.6629 71.8521 27.4504 67.9846C25.2354 64.1171 25.5879 62.6071 25.5879 62.6071C25.5879 62.6071 25.4129 61.8696 28.1979 63.8271L34.6929 64.2946C34.6929 64.2946 35.0204 66.1696 35.0329 66.9721C35.0454 67.7746 35.5379 70.2696 35.5379 70.5171C35.5379 70.7646 34.4229 71.4621 34.4229 71.4621L34.4179 71.4596Z" fill="url(#paint7_linear_302_1293)" stroke="#A3822E" stroke-width="0.075" stroke-miterlimit="10"/>
<path d="M38.9904 76.0597C38.9904 76.0597 35.9179 74.5572 34.1604 70.9722C32.4029 67.3872 32.9179 66.2997 32.9179 66.2997L35.1229 65.8647C35.1229 65.8647 36.4104 67.2447 36.9379 68.5472C37.4654 69.8472 39.6829 72.6947 40.2104 73.1522C40.7354 73.6097 40.7704 75.0797 40.7704 75.0797L38.9904 76.0597Z" fill="url(#paint8_linear_302_1293)" stroke="#A3822E" stroke-width="0.075" stroke-miterlimit="10"/>
<path d="M27.7229 55.8548C27.7229 55.8548 25.7979 54.5923 25.0254 54.5923C25.0254 54.5923 24.7004 57.8973 26.3754 61.0948C28.0479 64.2923 29.9079 65.9623 33.4779 66.3773C33.4779 66.3773 36.3104 61.2373 34.5529 59.6198C32.7954 58.0023 27.7254 55.8573 27.7254 55.8573L27.7229 55.8548Z" fill="url(#paint9_linear_302_1293)" stroke="#A3822E" stroke-width="0.075" stroke-miterlimit="10"/>
<path d="M31.5204 52.6497C31.5204 52.6497 31.5854 50.0672 26.6179 46.6472C26.6179 46.6472 23.9004 54.2397 30.1104 57.9422L31.4129 58.8297L32.9229 55.4197L31.5229 52.6522L31.5204 52.6497Z" fill="url(#paint10_linear_302_1293)" stroke="#A3822E" stroke-width="0.075" stroke-miterlimit="10"/>
<path d="M35.4754 42.6396C35.4754 42.6396 35.4304 37.8821 31.2704 36.0771C31.2704 36.0771 28.4904 41.5846 33.7879 45.3096C33.7879 45.3096 35.6654 44.0396 35.4754 42.6396Z" fill="url(#paint11_linear_302_1293)" stroke="#A3822E" stroke-width="0.075" stroke-miterlimit="10"/>
<path d="M37.1479 75.6722C36.9104 75.7322 35.0079 75.4072 32.2804 73.9872C31.4179 73.5397 30.4754 72.9822 29.4754 72.2947" stroke="#A3822E" stroke-width="0.025" stroke-miterlimit="10"/>
<path d="M32.4054 69.4947C32.4054 69.4947 28.7504 67.1747 27.1679 64.2922" stroke="#A3822E" stroke-width="0.025" stroke-miterlimit="10"/>
<path d="M31.1279 62.9574C31.1279 62.9574 27.3729 60.6349 25.5654 56.1724" stroke="#A3822E" stroke-width="0.025" stroke-miterlimit="10"/>
<path d="M30.5404 55.4173C30.5404 55.4173 27.9054 53.1148 27.1679 48.3323" stroke="#A3822E" stroke-width="0.025" stroke-miterlimit="10"/>
<path d="M33.3429 43.1748L31.7029 37.2598" stroke="#A3822E" stroke-width="0.025" stroke-miterlimit="10"/>
<path d="M74.1979 33.5948C74.1979 33.5948 75.7129 30.5723 76.4629 30.5723C77.2129 30.5723 78.9929 35.7748 78.1729 38.3298C77.3529 40.8848 76.2004 41.1773 76.4854 42.7523C76.7679 44.3273 71.9179 40.0173 71.8704 39.6648C71.8229 39.3123 72.1504 35.5398 72.1504 35.5398L74.1979 33.5948Z" fill="url(#paint12_linear_302_1293)" stroke="#A3822E" stroke-width="0.075" stroke-miterlimit="10"/>
<path d="M70.4054 27.3147C70.4054 27.3147 75.6379 28.5647 73.8129 39.3397C71.9879 50.1147 68.1454 37.8122 68.1454 37.8122C68.1454 37.8122 62.4979 33.3122 64.5129 32.2347C66.5279 31.1572 70.4054 27.3147 70.4054 27.3147Z" fill="url(#paint13_linear_302_1293)" stroke="#A3822E" stroke-width="0.075" stroke-miterlimit="10"/>
<path d="M73.8129 39.3396C73.8129 39.3396 72.0604 30.7821 67.8879 30.3496C63.7154 29.9171 63.0129 34.8446 63.0129 34.8446L71.8654 38.2121L73.8104 39.3396H73.8129Z" fill="url(#paint14_linear_302_1293)" stroke="#A3822E" stroke-width="0.075" stroke-miterlimit="10"/>
<path d="M77.5529 77.4472L80.4579 78.4022C80.4579 78.4022 78.1629 80.7447 76.1929 80.2522C74.2254 79.7572 71.7629 77.1022 71.7629 77.1022C71.7629 77.1022 71.5329 75.4147 71.7979 75.3297C72.0629 75.2447 77.4229 76.5247 77.4229 76.5247L77.5504 77.4472H77.5529Z" fill="url(#paint15_linear_302_1293)" stroke="#A3822E" stroke-width="0.075" stroke-miterlimit="10"/>
<path d="M80.8354 70.8896L84.5604 70.9621C84.5604 70.9621 81.6454 75.9146 78.1279 77.1246C78.1279 77.1246 76.6129 78.4096 73.7679 77.3096C70.9229 76.2096 70.2904 74.3221 70.2904 74.3221L75.4204 69.4946C75.4204 69.4946 78.5729 69.8496 78.8054 69.8821C79.0379 69.9146 80.8329 70.8896 80.8329 70.8896H80.8354Z" fill="url(#paint16_linear_302_1293)" stroke="#A3822E" stroke-width="0.075" stroke-miterlimit="10"/>
<path d="M77.3104 71.4596C77.3104 71.4596 82.0654 71.8521 84.2779 67.9846C86.4929 64.1171 86.1404 62.6071 86.1404 62.6071C86.1404 62.6071 86.3154 61.8696 83.5304 63.8271L77.0354 64.2946C77.0354 64.2946 76.7079 66.1696 76.6954 66.9721C76.6829 67.7746 76.1904 70.2696 76.1904 70.5171C76.1904 70.7646 77.3054 71.4621 77.3054 71.4621L77.3104 71.4596Z" fill="url(#paint17_linear_302_1293)" stroke="#A3822E" stroke-width="0.075" stroke-miterlimit="10"/>
<path d="M72.7354 76.0597C72.7354 76.0597 75.8079 74.5572 77.5654 70.9722C79.3229 67.3872 78.8079 66.2997 78.8079 66.2997L76.6029 65.8647C76.6029 65.8647 75.3154 67.2447 74.7879 68.5472C74.2604 69.8472 72.0429 72.6947 71.5154 73.1522C70.9879 73.6097 70.9554 75.0797 70.9554 75.0797L72.7354 76.0597Z" fill="url(#paint18_linear_302_1293)" stroke="#A3822E" stroke-width="0.075" stroke-miterlimit="10"/>
<path d="M84.0054 55.8548C84.0054 55.8548 85.9304 54.5923 86.7029 54.5923C86.7029 54.5923 87.0279 57.8973 85.3529 61.0948C83.6804 64.2923 81.8204 65.9623 78.2504 66.3773C78.2504 66.3773 75.4179 61.2373 77.1754 59.6198C78.9329 58.0023 84.0029 55.8573 84.0029 55.8573L84.0054 55.8548Z" fill="url(#paint19_linear_302_1293)" stroke="#A3822E" stroke-width="0.075" stroke-miterlimit="10"/>
<path d="M80.2079 52.6497C80.2079 52.6497 80.1429 50.0672 85.1104 46.6472C85.1104 46.6472 87.8279 54.2397 81.6179 57.9422L80.3154 58.8297L78.8054 55.4197L80.2054 52.6522L80.2079 52.6497Z" fill="url(#paint20_linear_302_1293)" stroke="#A3822E" stroke-width="0.075" stroke-miterlimit="10"/>
<path d="M76.2529 42.6396C76.2529 42.6396 76.2979 37.8821 80.4579 36.0771C80.4579 36.0771 83.2379 41.5846 77.9404 45.3096C77.9404 45.3096 76.0629 44.0396 76.2529 42.6396Z" fill="url(#paint21_linear_302_1293)" stroke="#A3822E" stroke-width="0.075" stroke-miterlimit="10"/>
<path d="M40.6079 74.4472C40.3654 74.3372 34.9829 81.4647 34.9829 81.4647C34.9829 81.4647 41.6029 88.7597 56.4779 88.7597C71.3529 88.7597 76.6479 80.8072 76.6479 80.8072L70.8829 73.8147C70.8829 73.8147 60.9004 83.7097 40.6054 74.4472H40.6079Z" fill="url(#paint22_linear_302_1293)" stroke="#A3822E" stroke-width="0.075" stroke-miterlimit="10"/>
<path d="M40.5379 80.9047L40.5929 80.9422C40.5829 81.2047 40.6129 81.4272 40.6829 81.6097C40.7554 81.7922 40.8854 81.9472 41.0779 82.0772C41.2179 82.1722 41.3679 82.2222 41.5279 82.2272C41.6879 82.2322 41.8404 82.1972 41.9854 82.1222C42.1304 82.0472 42.2504 81.9397 42.3429 81.7997C42.4904 81.5797 42.5329 81.3722 42.4654 81.1797C42.3979 80.9872 42.2629 80.7447 42.0604 80.4497C41.8579 80.1547 41.7279 79.8922 41.6729 79.6647C41.6179 79.4372 41.6804 79.1872 41.8629 78.9172C42.0829 78.5897 42.3654 78.4122 42.7079 78.3872C43.0504 78.3622 43.3929 78.4647 43.7354 78.6947C43.8729 78.7872 43.9979 78.9022 44.1079 79.0372C44.2179 79.1722 44.2904 79.3147 44.3229 79.4597C44.2529 79.5022 44.1079 79.6172 43.8854 79.7997L43.8329 79.7647C43.8754 79.5847 43.8679 79.4147 43.8079 79.2547C43.7479 79.0947 43.6404 78.9622 43.4854 78.8572C43.3629 78.7747 43.2329 78.7247 43.0954 78.7072C42.9579 78.6897 42.8279 78.7072 42.7029 78.7647C42.5779 78.8197 42.4754 78.9072 42.3954 79.0272C42.2479 79.2447 42.2079 79.4472 42.2729 79.6397C42.3379 79.8322 42.4729 80.0772 42.6804 80.3797C42.8879 80.6822 43.0204 80.9447 43.0779 81.1672C43.1354 81.3897 43.0779 81.6272 42.9104 81.8797C42.7854 82.0672 42.6379 82.2122 42.4679 82.3172C42.3004 82.4222 42.1179 82.4872 41.9254 82.5097C41.7329 82.5322 41.5379 82.5197 41.3429 82.4672C41.1479 82.4147 40.9579 82.3272 40.7754 82.2047C40.6329 82.1097 40.4929 81.9747 40.3554 81.7972C40.2179 81.6222 40.1379 81.4597 40.1154 81.3097C40.2354 81.2222 40.3754 81.0872 40.5354 80.9047H40.5379Z" fill="black"/>
<path d="M45.9854 82.7247L45.3304 84.0622C45.2929 84.1372 45.2679 84.1947 45.2554 84.2322C45.2429 84.2697 45.2404 84.3072 45.2554 84.3397C45.2679 84.3747 45.2979 84.4022 45.3454 84.4272C45.3879 84.4472 45.4479 84.4672 45.5279 84.4847L45.4654 84.6122C45.3854 84.6122 45.3179 84.5997 45.2604 84.5847C45.1929 84.5647 45.1279 84.5422 45.0679 84.5122C44.9554 84.4522 44.8754 84.3772 44.8304 84.2897C44.7854 84.2022 44.7854 84.0897 44.8304 83.9597L44.7529 83.9872C44.3929 84.1122 44.0479 84.0922 43.7204 83.9322C43.5104 83.8297 43.3604 83.6747 43.2754 83.4697C43.1879 83.2647 43.1954 83.0572 43.2979 82.8522C43.3979 82.6497 43.5229 82.5147 43.6754 82.4497C43.8279 82.3847 43.9854 82.3647 44.1479 82.3897C44.3104 82.4147 44.5204 82.4672 44.7729 82.5447C44.9679 82.6022 45.1104 82.6397 45.1979 82.6547C45.2854 82.6697 45.3604 82.6647 45.4179 82.6372C45.4754 82.6097 45.5279 82.5497 45.5729 82.4572C45.6779 82.2422 45.7004 82.0472 45.6404 81.8697C45.5804 81.6947 45.4429 81.5547 45.2304 81.4497C45.1054 81.3872 44.9804 81.3547 44.8604 81.3522C44.7379 81.3497 44.6329 81.3622 44.5454 81.3947C44.4579 81.4272 44.3904 81.4647 44.3479 81.5097L44.2829 81.4772L44.4404 81.1572C44.8529 81.0972 45.2154 81.1422 45.5254 81.2947C45.8304 81.4447 46.0254 81.6397 46.1029 81.8772C46.1829 82.1172 46.1429 82.3972 45.9854 82.7197V82.7247ZM44.9229 83.7272L45.3354 82.8847L45.1129 82.8272C44.9754 82.7872 44.8454 82.7522 44.7279 82.7247C44.6079 82.6947 44.4929 82.6797 44.3779 82.6747C44.2654 82.6697 44.1554 82.6922 44.0554 82.7422C43.9529 82.7922 43.8729 82.8797 43.8129 83.0022C43.7254 83.1822 43.7079 83.3422 43.7604 83.4822C43.8154 83.6222 43.9304 83.7347 44.1129 83.8222C44.1854 83.8572 44.2754 83.8747 44.3879 83.8722C44.5004 83.8722 44.5979 83.8572 44.6829 83.8272C44.7104 83.8172 44.7404 83.8072 44.7729 83.7997C44.8054 83.7897 44.8379 83.7772 44.8704 83.7622C44.9029 83.7472 44.9204 83.7347 44.9254 83.7247L44.9229 83.7272Z" fill="black"/>
<path d="M46.4954 85.1997L47.3179 82.2397C47.3679 82.2572 47.4154 82.2747 47.4554 82.2897C47.4954 82.3047 47.5304 82.3172 47.5604 82.3247C47.5879 82.3322 47.6229 82.3397 47.6654 82.3472C47.7079 82.3547 47.7554 82.3647 47.8129 82.3747L47.6654 82.9072C47.7704 82.8047 47.8779 82.7247 47.9854 82.6647C48.0954 82.6047 48.2129 82.5697 48.3404 82.5547C48.4679 82.5422 48.6004 82.5547 48.7379 82.5922C48.9454 82.6497 49.1179 82.7572 49.2529 82.9122C49.3904 83.0697 49.4629 83.2497 49.4704 83.4572C49.8279 83.1172 50.2079 83.0022 50.6129 83.1147C50.9779 83.2172 51.2079 83.3872 51.3029 83.6297C51.3979 83.8722 51.3879 84.1947 51.2779 84.5972L50.7804 86.3872C50.7404 86.3722 50.7079 86.3597 50.6804 86.3497C50.6529 86.3397 50.6329 86.3322 50.6129 86.3247C50.5929 86.3172 50.5704 86.3097 50.5354 86.2997C50.4979 86.2897 50.4729 86.2822 50.4604 86.2797C50.4479 86.2772 50.4254 86.2722 50.3904 86.2672C50.3554 86.2597 50.3179 86.2547 50.2804 86.2497L50.7379 84.6022C50.7954 84.3922 50.8279 84.2097 50.8354 84.0522C50.8429 83.8947 50.8104 83.7572 50.7329 83.6397C50.6579 83.5222 50.5229 83.4347 50.3329 83.3822C50.0529 83.3047 49.8379 83.3472 49.6879 83.5097C49.5379 83.6747 49.4229 83.8997 49.3429 84.1872L48.8779 85.8597C48.8379 85.8447 48.8054 85.8322 48.7804 85.8222C48.7554 85.8122 48.7329 85.8047 48.7154 85.7972C48.6979 85.7897 48.6729 85.7822 48.6354 85.7722C48.5979 85.7622 48.5679 85.7547 48.5504 85.7522C48.5329 85.7497 48.5079 85.7447 48.4804 85.7397C48.4529 85.7347 48.4204 85.7272 48.3829 85.7222L48.8854 83.9072C48.9679 83.6122 48.9754 83.3822 48.9079 83.2122C48.8429 83.0422 48.6954 82.9272 48.4679 82.8647C48.2629 82.8072 48.0979 82.8047 47.9679 82.8522C47.8379 82.8997 47.7379 82.9822 47.6629 83.0997C47.5904 83.2147 47.5279 83.3597 47.4804 83.5297L46.9804 85.3322C46.9404 85.3172 46.9079 85.3047 46.8829 85.2947C46.8554 85.2847 46.8354 85.2772 46.8179 85.2697C46.8004 85.2622 46.7754 85.2547 46.7379 85.2447C46.7079 85.2372 46.6704 85.2272 46.6229 85.2197C46.5754 85.2097 46.5304 85.2022 46.4854 85.1947L46.4954 85.1997Z" fill="black"/>
<path d="M52.7579 86.0247L52.5954 88.2272C52.5529 88.2197 52.5204 88.2147 52.4929 88.2097C52.4654 88.2047 52.4429 88.2022 52.4254 88.1972C52.4079 88.1947 52.3804 88.1897 52.3429 88.1872C52.3029 88.1847 52.2729 88.1822 52.2554 88.1847C52.2379 88.1847 52.2129 88.1847 52.1854 88.1847C52.1579 88.1847 52.1229 88.1847 52.0854 88.1847L52.4304 83.4822C52.4854 83.4897 52.5329 83.4972 52.5779 83.5047C52.6229 83.5122 52.6579 83.5172 52.6879 83.5197C52.7154 83.5197 52.7504 83.5222 52.7929 83.5197C52.8354 83.5172 52.8854 83.5197 52.9454 83.5197L52.8979 84.1672H52.9104C53.0304 83.9747 53.1654 83.8172 53.3154 83.6997C53.4654 83.5822 53.7079 83.5372 54.0454 83.5622C54.2454 83.5772 54.4229 83.6272 54.5754 83.7172C54.7304 83.8047 54.8579 83.9222 54.9604 84.0697C55.0629 84.2172 55.1379 84.3822 55.1804 84.5597C55.2254 84.7372 55.2379 84.9272 55.2254 85.1247C55.1879 85.6447 55.0304 86.0447 54.7529 86.3297C54.4754 86.6122 54.1304 86.7397 53.7154 86.7097C53.2779 86.6772 52.9629 86.4472 52.7754 86.0222H52.7629L52.7579 86.0247ZM52.8229 85.1397C52.7954 85.5047 52.8529 85.8072 52.9929 86.0472C53.1329 86.2872 53.3604 86.4197 53.6729 86.4422C53.8804 86.4572 54.0529 86.4072 54.1929 86.2947C54.3329 86.1797 54.4404 86.0222 54.5129 85.8197C54.5879 85.6172 54.6354 85.3822 54.6554 85.1172C54.6729 84.8897 54.6604 84.6772 54.6179 84.4822C54.5754 84.2872 54.4929 84.1247 54.3704 83.9947C54.2479 83.8647 54.0779 83.7947 53.8629 83.7797C53.6329 83.7622 53.4429 83.8222 53.2929 83.9572C53.1429 84.0922 53.0304 84.2697 52.9579 84.4847C52.8854 84.6997 52.8404 84.9197 52.8229 85.1422V85.1397Z" fill="black"/>
<path d="M55.9004 85.1998C55.8804 84.9723 55.9054 84.7623 55.9704 84.5673C56.0354 84.3723 56.1379 84.1998 56.2754 84.0473C56.4129 83.8973 56.5779 83.7773 56.7654 83.6873C56.9529 83.5973 57.1654 83.5448 57.4004 83.5248C57.6929 83.5023 57.9554 83.5423 58.1904 83.6523C58.4254 83.7598 58.6154 83.9273 58.7579 84.1548C58.9004 84.3823 58.9879 84.6523 59.0129 84.9673C59.0304 85.1723 59.0129 85.3723 58.9579 85.5698C58.9054 85.7673 58.8154 85.9473 58.6904 86.1098C58.5654 86.2723 58.4054 86.4048 58.2104 86.5048C58.0179 86.6048 57.7929 86.6673 57.5404 86.6873C57.2629 86.7098 57.0029 86.6673 56.7629 86.5573C56.5204 86.4473 56.3229 86.2773 56.1704 86.0423C56.0154 85.8073 55.9254 85.5273 55.9004 85.1998ZM57.4079 83.7223C57.1529 83.7448 56.9529 83.8298 56.8079 83.9823C56.6604 84.1348 56.5629 84.3223 56.5129 84.5473C56.4629 84.7723 56.4479 85.0073 56.4679 85.2548C56.4879 85.4873 56.5379 85.6973 56.6229 85.8898C56.7079 86.0823 56.8279 86.2348 56.9904 86.3473C57.1504 86.4598 57.3454 86.5073 57.5754 86.4898C57.8029 86.4698 57.9829 86.3773 58.1204 86.2073C58.2579 86.0373 58.3479 85.8423 58.3979 85.6173C58.4454 85.3923 58.4629 85.1798 58.4479 84.9848C58.4354 84.8248 58.4054 84.6673 58.3629 84.5173C58.3179 84.3673 58.2554 84.2298 58.1704 84.1048C58.0854 83.9798 57.9804 83.8823 57.8529 83.8123C57.7254 83.7423 57.5779 83.7123 57.4079 83.7273V83.7223Z" fill="black"/>
<path d="M62.3629 85.1523L62.4304 85.4823C62.2879 85.6348 62.1329 85.7648 61.9629 85.8723C61.7929 85.9773 61.6154 86.0523 61.4354 86.0923C61.1479 86.1573 60.8779 86.1498 60.6254 86.0773C60.3729 86.0023 60.1604 85.8648 59.9829 85.6573C59.8079 85.4523 59.6829 85.1923 59.6129 84.8748C59.5479 84.5798 59.5454 84.3048 59.6029 84.0473C59.6604 83.7898 59.7854 83.5698 59.9729 83.3873C60.1604 83.2048 60.4054 83.0823 60.7079 83.0148C60.8779 82.9773 61.0454 82.9698 61.2129 82.9948C61.3804 83.0173 61.5354 83.0748 61.6779 83.1623C61.8204 83.2498 61.9454 83.3748 62.0529 83.5348C62.1604 83.6973 62.2429 83.8948 62.2929 84.1323C62.3004 84.1598 62.3054 84.1848 62.3079 84.2048C62.3104 84.2248 62.3154 84.2473 62.3179 84.2723C61.8904 84.3523 61.4654 84.4423 61.0429 84.5348L60.1579 84.7298C60.1579 84.7598 60.1679 84.8048 60.1804 84.8623C60.2154 85.0198 60.2729 85.1673 60.3504 85.2973C60.4279 85.4298 60.5279 85.5398 60.6454 85.6273C60.7629 85.7148 60.9004 85.7748 61.0504 85.8048C61.2004 85.8348 61.3604 85.8298 61.5279 85.7923C61.8454 85.7223 62.1229 85.5098 62.3604 85.1523H62.3629ZM60.1079 84.4948L61.7754 84.1273C61.6954 83.8073 61.5754 83.5573 61.4154 83.3798C61.2554 83.2023 61.0329 83.1448 60.7529 83.2073C60.5679 83.2498 60.4229 83.3348 60.3179 83.4673C60.2129 83.5973 60.1454 83.7548 60.1129 83.9373C60.0804 84.1198 60.0804 84.3073 60.1104 84.4973L60.1079 84.4948Z" fill="black"/>
<path d="M63.6104 85.4623L62.6604 82.5423C62.7129 82.5298 62.7629 82.5173 62.8054 82.5073C62.8479 82.4973 62.8854 82.4873 62.9129 82.4798C62.9379 82.4723 62.9704 82.4573 63.0104 82.4423C63.0504 82.4248 63.0979 82.4048 63.1504 82.3823L63.3504 82.9948L63.3554 82.9098C63.4729 82.4498 63.6654 82.1748 63.9379 82.0873C64.0179 82.0623 64.0829 82.0498 64.1354 82.0548L64.2179 82.5948C64.1979 82.5948 64.1504 82.5948 64.0754 82.5823C64.0004 82.5698 63.9404 82.5748 63.8954 82.5898C63.8229 82.6123 63.7554 82.6498 63.6929 82.6973C63.6304 82.7473 63.5829 82.8048 63.5554 82.8698C63.4954 83.0148 63.4679 83.1448 63.4779 83.2598C63.4879 83.3748 63.5229 83.5273 63.5854 83.7173L64.1004 85.2973C64.0604 85.3073 64.0254 85.3148 63.9979 85.3198C63.9704 85.3273 63.9479 85.3323 63.9279 85.3348C63.9104 85.3373 63.8829 85.3473 63.8504 85.3573C63.8129 85.3698 63.7879 85.3773 63.7779 85.3823C63.7679 85.3873 63.7454 85.3948 63.7129 85.4098C63.6804 85.4223 63.6454 85.4373 63.6129 85.4548L63.6104 85.4623Z" fill="black"/>
<path d="M65.8629 84.6997L64.6479 81.8797C64.7004 81.8622 64.7454 81.8472 64.7879 81.8322C64.8304 81.8197 64.8654 81.8072 64.8904 81.7947C64.9154 81.7822 64.9479 81.7672 64.9854 81.7472C65.0229 81.7272 65.0679 81.7022 65.1204 81.6747L65.3529 82.2122C65.4054 81.7372 65.6379 81.4097 66.0529 81.2297C66.3929 81.0822 66.6754 81.0722 66.9029 81.1922C67.1304 81.3147 67.3279 81.5722 67.4979 81.9697L68.2329 83.6747C68.1929 83.6872 68.1604 83.6972 68.1329 83.7072C68.1054 83.7172 68.0829 83.7247 68.0679 83.7297C68.0504 83.7347 68.0254 83.7447 67.9904 83.7597C67.9529 83.7747 67.9279 83.7872 67.9104 83.7972C67.8929 83.8072 67.8729 83.8172 67.8479 83.8322C67.8229 83.8447 67.7929 83.8622 67.7604 83.8797L67.0829 82.3097C66.9954 82.1072 66.9054 81.9447 66.8079 81.8172C66.7129 81.6897 66.5979 81.6047 66.4654 81.5647C66.3329 81.5222 66.1804 81.5397 66.0054 81.6147C65.7154 81.7397 65.5579 81.9247 65.5279 82.1697C65.5004 82.4147 65.5729 82.7347 65.7429 83.1297L66.3329 84.4972C66.2929 84.5097 66.2604 84.5197 66.2329 84.5297C66.2054 84.5397 66.1829 84.5472 66.1654 84.5522C66.1479 84.5572 66.1204 84.5672 66.0879 84.5822C66.0504 84.5972 66.0279 84.6072 66.0179 84.6147C66.0079 84.6197 65.9879 84.6322 65.9554 84.6497C65.9229 84.6672 65.8904 84.6847 65.8579 84.7022L65.8629 84.6997Z" fill="black"/>
<path d="M70.2729 80.2948L70.9904 81.5998C71.0304 81.6723 71.0629 81.7273 71.0879 81.7598C71.1129 81.7923 71.1429 81.8148 71.1754 81.8248C71.2104 81.8348 71.2504 81.8248 71.2979 81.7998C71.3379 81.7773 71.3879 81.7398 71.4479 81.6848L71.5154 81.8098C71.4679 81.8748 71.4204 81.9248 71.3779 81.9598C71.3229 82.0048 71.2679 82.0423 71.2079 82.0748C71.0954 82.1323 70.9879 82.1548 70.8879 82.1423C70.7879 82.1298 70.6979 82.0648 70.6179 81.9523L70.5979 82.0323C70.4929 82.3973 70.2804 82.6698 69.9604 82.8448C69.7554 82.9573 69.5429 82.9898 69.3254 82.9448C69.1079 82.8973 68.9429 82.7723 68.8329 82.5723C68.7229 82.3748 68.6854 82.1948 68.7204 82.0323C68.7554 81.8698 68.8279 81.7298 68.9429 81.6123C69.0554 81.4923 69.2179 81.3523 69.4304 81.1898C69.5904 81.0648 69.7029 80.9698 69.7654 80.9048C69.8279 80.8423 69.8654 80.7773 69.8779 80.7148C69.8904 80.6523 69.8704 80.5748 69.8204 80.4848C69.7054 80.2748 69.5579 80.1423 69.3804 80.0898C69.2029 80.0373 69.0104 80.0698 68.8004 80.1848C68.6779 80.2523 68.5804 80.3348 68.5054 80.4323C68.4329 80.5298 68.3829 80.6248 68.3604 80.7148C68.3354 80.8048 68.3304 80.8823 68.3404 80.9423L68.2779 80.9773L68.1054 80.6648C68.2929 80.2923 68.5379 80.0223 68.8429 79.8548C69.1404 79.6898 69.4104 79.6448 69.6529 79.7173C69.8929 79.7898 70.1004 79.9823 70.2754 80.2973L70.2729 80.2948ZM70.4804 81.7423L70.0279 80.9198L69.8529 81.0698C69.7404 81.1598 69.6379 81.2448 69.5454 81.3248C69.4529 81.4048 69.3729 81.4898 69.3029 81.5823C69.2329 81.6748 69.1904 81.7748 69.1729 81.8873C69.1554 81.9998 69.1804 82.1148 69.2479 82.2373C69.3454 82.4123 69.4654 82.5198 69.6104 82.5548C69.7554 82.5898 69.9154 82.5598 70.0929 82.4648C70.1629 82.4273 70.2279 82.3623 70.2929 82.2698C70.3579 82.1773 70.4004 82.0898 70.4254 82.0048C70.4329 81.9773 70.4429 81.9473 70.4529 81.9148C70.4629 81.8823 70.4729 81.8498 70.4779 81.8123C70.4829 81.7773 70.4829 81.7548 70.4779 81.7448L70.4804 81.7423Z" fill="black"/>
<path d="M44.7429 34.4697C44.7429 34.4697 43.9704 28.6497 41.2304 27.3122C41.2304 27.3122 55.5729 17.6097 70.4054 27.3122C70.4054 27.3122 66.4904 30.9347 66.6554 33.9747L44.7429 34.4697Z" fill="url(#paint23_linear_302_1293)" stroke="#A3822E" stroke-width="0.075" stroke-miterlimit="10"/>
<path d="M48.7254 30.7449L47.7379 25.8049L49.1579 25.5199C49.5204 25.4474 49.8279 25.4199 50.0779 25.4349C50.3279 25.4524 50.5279 25.5224 50.6779 25.6449C50.8279 25.7674 50.9279 25.9524 50.9754 26.1974C51.0079 26.3624 51.0104 26.5199 50.9804 26.6699C50.9504 26.8199 50.8954 26.9599 50.8129 27.0924C50.7304 27.2249 50.6279 27.3399 50.5054 27.4424C50.3829 27.5424 50.2404 27.6324 50.0829 27.7099C50.2354 27.6874 50.3954 27.6824 50.5604 27.6949C50.7254 27.7074 50.8829 27.7449 51.0279 27.8049C51.1754 27.8649 51.3054 27.9599 51.4154 28.0874C51.5254 28.2149 51.6004 28.3799 51.6429 28.5824C51.7454 29.0974 51.6104 29.5499 51.2354 29.9374C51.1254 30.0474 50.9904 30.1424 50.8279 30.2199C50.6679 30.2999 50.5054 30.3599 50.3454 30.4024C50.1829 30.4449 49.9904 30.4874 49.7604 30.5349L48.7279 30.7424L48.7254 30.7449ZM48.4279 25.9474L48.8104 27.8624L49.1079 27.8024C49.2979 27.7649 49.4629 27.7199 49.5979 27.6724C49.7329 27.6249 49.8654 27.5574 49.9879 27.4674C50.1479 27.3474 50.2604 27.2024 50.3279 27.0324C50.3929 26.8624 50.4079 26.6774 50.3679 26.4799C50.3229 26.2599 50.2404 26.0949 50.1179 25.9824C49.9954 25.8699 49.8379 25.8049 49.6479 25.7874C49.4579 25.7699 49.2279 25.7874 48.9604 25.8424L48.4279 25.9499V25.9474ZM48.8654 28.1324L49.3079 30.3499L49.9954 30.2124C50.2354 30.1649 50.4354 30.0749 50.6004 29.9424C50.7654 29.8099 50.8829 29.6474 50.9504 29.4549C51.0179 29.2624 51.0304 29.0599 50.9879 28.8474C50.9079 28.4449 50.7204 28.1899 50.4279 28.0774C50.1329 27.9674 49.7454 27.9574 49.2654 28.0549L48.8604 28.1349L48.8654 28.1324Z" fill="black"/>
<path d="M55.2279 27.5772L55.3204 29.2897C55.3254 29.3872 55.3329 29.4572 55.3404 29.5047C55.3479 29.5522 55.3679 29.5872 55.3979 29.6147C55.4279 29.6422 55.4754 29.6547 55.5379 29.6497C55.5904 29.6472 55.6629 29.6322 55.7529 29.6047L55.7604 29.7672C55.6779 29.8097 55.6054 29.8397 55.5404 29.8547C55.4629 29.8722 55.3829 29.8847 55.3079 29.8897C55.1604 29.8922 55.0404 29.8622 54.9429 29.7997C54.8479 29.7372 54.7854 29.6247 54.7579 29.4672L54.6954 29.5397C54.4029 29.8647 54.0454 30.0397 53.6279 30.0622C53.3579 30.0772 53.1229 30.0047 52.9204 29.8472C52.7179 29.6897 52.6104 29.4772 52.5954 29.2122C52.5829 28.9522 52.6329 28.7472 52.7479 28.5972C52.8629 28.4472 53.0104 28.3372 53.1879 28.2722C53.3654 28.2072 53.6029 28.1397 53.9029 28.0772C54.1304 28.0272 54.2954 27.9847 54.3904 27.9497C54.4879 27.9147 54.5579 27.8672 54.6004 27.8072C54.6454 27.7472 54.6629 27.6572 54.6579 27.5397C54.6429 27.2622 54.5554 27.0547 54.3979 26.9122C54.2404 26.7697 54.0229 26.7072 53.7504 26.7222C53.5879 26.7297 53.4454 26.7672 53.3229 26.8322C53.1979 26.8972 53.1004 26.9697 53.0304 27.0522C52.9604 27.1347 52.9154 27.2097 52.8979 27.2772L52.8154 27.2822L52.7929 26.8722C53.1754 26.5797 53.5654 26.4222 53.9604 26.4022C54.3504 26.3822 54.6554 26.4697 54.8679 26.6647C55.0829 26.8597 55.2004 27.1647 55.2229 27.5797L55.2279 27.5772ZM54.7204 29.1797L54.6629 28.1022L54.4054 28.1697C54.2429 28.2072 54.0954 28.2447 53.9604 28.2822C53.8254 28.3197 53.6979 28.3672 53.5804 28.4272C53.4629 28.4872 53.3679 28.5697 53.2929 28.6772C53.2204 28.7847 53.1854 28.9172 53.1954 29.0772C53.2079 29.3072 53.2804 29.4772 53.4129 29.5872C53.5454 29.6972 53.7279 29.7472 53.9579 29.7347C54.0504 29.7297 54.1504 29.6947 54.2629 29.6322C54.3754 29.5697 54.4654 29.4997 54.5354 29.4222C54.5579 29.3972 54.5829 29.3697 54.6104 29.3422C54.6379 29.3147 54.6629 29.2847 54.6854 29.2497C54.7079 29.2172 54.7204 29.1947 54.7204 29.1822V29.1797Z" fill="black"/>
<path d="M56.3954 29.9048L56.6754 26.3823C56.7379 26.3923 56.7929 26.4023 56.8429 26.4098C56.8929 26.4173 56.9354 26.4248 56.9679 26.4273C56.9979 26.4273 57.0404 26.4298 57.0879 26.4273C57.1379 26.4273 57.1954 26.4273 57.2629 26.4273L57.2079 27.0998C57.5179 26.6448 57.9304 26.4373 58.4504 26.4773C58.8754 26.5123 59.1704 26.6498 59.3354 26.8973C59.5004 27.1423 59.5629 27.5123 59.5229 28.0073L59.3529 30.1373C59.3054 30.1298 59.2654 30.1223 59.2329 30.1173C59.2004 30.1123 59.1754 30.1073 59.1554 30.1048C59.1354 30.1023 59.1029 30.0973 59.0604 30.0948C59.0154 30.0923 58.9804 30.0898 58.9604 30.0898C58.9404 30.0898 58.9104 30.0898 58.8779 30.0898C58.8454 30.0898 58.8079 30.0898 58.7629 30.0898L58.9204 28.1298C58.9404 27.8773 58.9354 27.6623 58.9079 27.4798C58.8804 27.2973 58.8079 27.1523 58.6954 27.0373C58.5829 26.9223 58.4179 26.8573 58.2029 26.8398C57.8404 26.8098 57.5804 26.9123 57.4204 27.1473C57.2604 27.3823 57.1604 27.7448 57.1204 28.2398L56.9854 29.9498C56.9379 29.9423 56.8979 29.9348 56.8654 29.9298C56.8329 29.9248 56.8079 29.9198 56.7854 29.9173C56.7629 29.9148 56.7329 29.9098 56.6929 29.9073C56.6479 29.9048 56.6179 29.9023 56.6054 29.9023C56.5929 29.9023 56.5654 29.9023 56.5229 29.9023C56.4804 29.9023 56.4404 29.9023 56.3954 29.9023V29.9048Z" fill="black"/>
<path d="M62.0729 24.9948L61.3754 28.2348C61.3554 28.3323 61.3429 28.3923 61.3429 28.4198C61.3429 28.4473 61.3479 28.4673 61.3604 28.4798C61.4954 28.5073 61.7354 28.4123 62.0804 28.1873L62.6254 27.8298L63.3229 27.3298C63.3829 27.3473 63.4379 27.3648 63.4854 27.3798C63.5329 27.3948 63.5754 27.4073 63.6079 27.4123C63.6329 27.4173 63.6704 27.4223 63.7204 27.4298C63.7704 27.4348 63.8279 27.4423 63.8954 27.4523L63.8829 27.5048C63.7929 27.5573 63.7154 27.5998 63.6454 27.6348C63.5779 27.6698 63.4229 27.7498 63.1829 27.8773C62.9429 28.0048 62.7054 28.1373 62.4754 28.2698C62.2454 28.4023 62.0829 28.4973 61.9904 28.5548C62.0479 28.6598 62.1279 28.8023 62.2279 28.9873C62.3279 29.1723 62.4429 29.3873 62.5754 29.6323C62.7079 29.8773 62.8304 30.0998 62.9404 30.3023C63.0504 30.5048 63.1579 30.6998 63.2629 30.8923L63.2554 30.9273C63.1954 30.9098 63.1479 30.8948 63.1104 30.8848C63.0754 30.8748 63.0454 30.8648 63.0179 30.8573C62.9929 30.8498 62.9554 30.8398 62.9054 30.8298C62.8504 30.8173 62.8129 30.8098 62.7954 30.8073C62.7779 30.8048 62.7454 30.7998 62.6954 30.7923C62.6454 30.7848 62.5929 30.7773 62.5404 30.7723C62.4629 30.6048 62.3329 30.3523 62.1479 30.0123C61.9629 29.6723 61.7504 29.2848 61.5079 28.8473C61.4554 28.7573 61.4079 28.7073 61.3654 28.6973C61.3054 28.6848 61.2554 28.7648 61.2154 28.9423L60.8979 30.4173C60.8504 30.4023 60.8129 30.3898 60.7829 30.3823C60.7529 30.3723 60.7254 30.3648 60.7054 30.3573C60.6854 30.3498 60.6529 30.3423 60.6154 30.3348C60.5704 30.3248 60.5429 30.3198 60.5279 30.3173C60.5154 30.3173 60.4879 30.3123 60.4479 30.3073C60.4079 30.3023 60.3654 30.2973 60.3229 30.2923L61.4929 24.8623C61.5529 24.8798 61.6079 24.8973 61.6554 24.9123C61.7029 24.9273 61.7454 24.9398 61.7779 24.9448C61.8079 24.9523 61.8479 24.9573 61.8979 24.9623C61.9479 24.9673 62.0054 24.9748 62.0729 24.9848V24.9948Z" fill="black"/>
<path d="M55.8179 80.8122C69.4262 80.8122 80.4579 69.7805 80.4579 56.1722C80.4579 42.5639 69.4262 31.5322 55.8179 31.5322C42.2096 31.5322 31.1779 42.5639 31.1779 56.1722C31.1779 69.7805 42.2096 80.8122 55.8179 80.8122Z" fill="url(#paint24_linear_302_1293)" stroke="#A3822E" stroke-width="0.075" stroke-miterlimit="10"/>
<path d="M56.1854 74.4449C66.694 74.4449 75.2129 65.926 75.2129 55.4174C75.2129 44.9088 66.694 36.3899 56.1854 36.3899C45.6768 36.3899 37.1579 44.9088 37.1579 55.4174C37.1579 65.926 45.6768 74.4449 56.1854 74.4449Z" fill="white"/>
<path d="M56.1854 75.0798C45.3429 75.0798 36.5254 66.2598 36.5254 55.4198C36.5254 44.5798 45.3429 35.7573 56.1854 35.7573C67.0279 35.7573 75.8454 44.5773 75.8454 55.4173C75.8454 66.2573 67.0254 75.0773 56.1854 75.0773V75.0798ZM56.1854 37.0223C46.0429 37.0223 37.7904 45.2748 37.7904 55.4173C37.7904 65.5598 46.0429 73.8123 56.1854 73.8123C66.3279 73.8123 74.5804 65.5598 74.5804 55.4173C74.5804 45.2748 66.3279 37.0223 56.1854 37.0223Z" fill="black"/>
<path d="M56.1829 38.5449C46.8704 38.5449 39.3154 46.0999 39.3154 55.4199C39.3154 64.7399 46.8704 72.2949 56.1829 72.2949C65.4954 72.2949 73.0579 64.7399 73.0579 55.4199C73.0579 46.0999 65.5029 38.5449 56.1829 38.5449ZM55.6054 65.5899H56.0379C55.8879 65.7699 55.7904 65.8674 55.7904 65.8674C55.7229 65.7774 55.6679 65.6824 55.6054 65.5899Z" fill="#FF0000"/>
<path d="M68.4829 47.3847C60.1504 44.4672 55.8279 49.6697 55.8279 49.6697C49.1154 44.1522 42.6804 48.1947 42.6804 48.1947C44.5479 56.8072 51.1204 57.7222 51.1204 57.7222C49.0779 64.3972 55.8279 69.8822 55.8279 69.8822C61.5229 66.6497 61.2754 57.4747 61.2754 57.4747C67.8879 55.0447 68.4829 47.3822 68.4829 47.3822V47.3847ZM55.6329 53.4522C56.0879 52.8322 57.5304 55.7872 57.2529 56.0647C56.9754 56.3497 54.5629 56.4697 54.3554 55.9072C54.1404 55.3497 55.6329 53.4522 55.6329 53.4522ZM51.8554 55.0847C47.4254 53.9272 46.2304 49.9347 46.2304 49.9347C51.2804 49.1822 53.9804 51.6747 53.9804 51.6747C51.8554 52.9397 51.8554 55.0847 51.8554 55.0847ZM55.6454 65.5297C53.2854 62.3022 53.5454 58.2797 53.5454 58.2797C55.5129 58.8422 58.0179 58.2797 58.0179 58.2797C58.5679 62.6022 55.6454 65.5297 55.6454 65.5297ZM60.2379 55.0847C59.7329 53.4322 57.7254 51.5172 57.7254 51.5172C61.0654 48.7197 65.1104 49.5997 65.1104 49.5997C63.6679 53.3272 60.2379 55.0847 60.2379 55.0847Z" fill="white" stroke="black" stroke-width="0.125" stroke-miterlimit="10"/>
<path d="M48.4829 77.4422L48.5154 77.4572C48.5304 77.5647 48.5679 77.6672 48.6254 77.7622C48.6854 77.8572 48.7579 77.9222 48.8479 77.9622C48.9129 77.9922 48.9854 78.0047 49.0579 77.9997C49.1329 77.9947 49.2029 77.9722 49.2654 77.9322C49.3279 77.8922 49.3754 77.8397 49.4054 77.7697C49.4579 77.6497 49.4579 77.5497 49.4054 77.4722C49.3504 77.3947 49.2529 77.2947 49.1104 77.1747C48.9679 77.0547 48.8704 76.9447 48.8204 76.8422C48.7704 76.7397 48.7804 76.6097 48.8479 76.4522C48.9304 76.2672 49.0579 76.1472 49.2279 76.0972C49.3979 76.0472 49.5804 76.0622 49.7704 76.1472C49.8629 76.1872 49.9454 76.2397 50.0229 76.2997C50.1004 76.3597 50.1529 76.4122 50.1804 76.4547C50.1054 76.5222 50.0304 76.6022 49.9554 76.6972L49.9204 76.6822C49.9204 76.6322 49.9154 76.5772 49.8979 76.5172C49.8804 76.4572 49.8554 76.4072 49.8229 76.3622C49.7904 76.3172 49.7479 76.2847 49.6979 76.2622C49.5929 76.2172 49.4929 76.2072 49.3979 76.2347C49.3029 76.2622 49.2304 76.3297 49.1854 76.4347C49.1354 76.5472 49.1354 76.6447 49.1879 76.7247C49.2404 76.8022 49.3354 76.9047 49.4729 77.0272C49.6104 77.1497 49.7054 77.2622 49.7604 77.3672C49.8154 77.4722 49.8079 77.5972 49.7454 77.7422C49.6854 77.8772 49.5979 77.9772 49.4829 78.0422C49.3679 78.1072 49.2429 78.1397 49.1054 78.1347C48.9704 78.1322 48.8404 78.1047 48.7204 78.0497C48.5304 77.9647 48.3804 77.8497 48.2729 77.6997C48.3904 77.5697 48.4604 77.4847 48.4879 77.4422H48.4829Z" fill="black"/>
<path d="M51.9954 77.6597L51.7229 78.6422C51.7079 78.6972 51.6979 78.7397 51.6929 78.7672C51.6879 78.7947 51.6929 78.8197 51.7054 78.8397C51.7179 78.8597 51.7404 78.8772 51.7779 78.8872C51.8079 78.8947 51.8504 78.8997 51.9079 78.9022L51.8829 78.9947C51.8279 79.0022 51.7829 79.0047 51.7429 79.0022C51.6954 78.9972 51.6504 78.9897 51.6054 78.9772C51.5229 78.9522 51.4579 78.9097 51.4179 78.8572C51.3754 78.8022 51.3604 78.7297 51.3754 78.6347L51.3279 78.6647C51.1004 78.7922 50.8679 78.8247 50.6254 78.7572C50.4704 78.7147 50.3504 78.6297 50.2679 78.5022C50.1829 78.3747 50.1629 78.2347 50.2054 78.0847C50.2479 77.9347 50.3129 77.8297 50.4079 77.7672C50.5029 77.7047 50.6054 77.6697 50.7179 77.6672C50.8304 77.6647 50.9779 77.6722 51.1579 77.6922C51.2979 77.7072 51.3954 77.7147 51.4579 77.7122C51.5204 77.7097 51.5679 77.6972 51.6029 77.6722C51.6404 77.6472 51.6654 77.5997 51.6854 77.5322C51.7304 77.3747 51.7204 77.2397 51.6579 77.1297C51.5954 77.0197 51.4854 76.9422 51.3279 76.8997C51.2354 76.8747 51.1479 76.8672 51.0654 76.8797C50.9829 76.8922 50.9129 76.9147 50.8604 76.9497C50.8054 76.9822 50.7654 77.0172 50.7429 77.0522L50.6954 77.0397L50.7604 76.8047C51.0304 76.7122 51.2804 76.6972 51.5079 76.7597C51.7329 76.8222 51.8879 76.9297 51.9704 77.0797C52.0529 77.2297 52.0629 77.4247 51.9979 77.6622L51.9954 77.6597ZM51.4054 78.4672L51.5779 77.8472L51.4204 77.8372C51.3204 77.8272 51.2304 77.8222 51.1479 77.8172C51.0654 77.8122 50.9829 77.8172 50.9079 77.8272C50.8304 77.8397 50.7604 77.8672 50.6979 77.9147C50.6354 77.9622 50.5929 78.0297 50.5654 78.1222C50.5279 78.2547 50.5379 78.3647 50.5904 78.4522C50.6429 78.5397 50.7379 78.6022 50.8704 78.6372C50.9229 78.6522 50.9854 78.6522 51.0629 78.6372C51.1404 78.6222 51.2029 78.5997 51.2554 78.5697C51.2729 78.5597 51.2929 78.5497 51.3129 78.5397C51.3329 78.5297 51.3554 78.5172 51.3729 78.5022C51.3929 78.4872 51.4029 78.4772 51.4054 78.4697V78.4672Z" fill="black"/>
<path d="M52.5954 79.2021L52.9979 75.9221C53.0354 75.9296 53.0679 75.9371 53.0979 75.9421C53.1279 75.9496 53.1529 75.9546 53.1729 75.9546C53.1929 75.9546 53.2154 75.9571 53.2454 75.9596C53.2754 75.9596 53.3104 75.9596 53.3504 75.9646L53.1554 77.5546C53.3504 77.2921 53.6029 77.1796 53.9104 77.2171C54.1579 77.2471 54.3304 77.3396 54.4229 77.4946C54.5154 77.6496 54.5454 77.8696 54.5104 78.1546L54.3554 79.4171C54.3279 79.4096 54.3054 79.4046 54.2854 79.4021C54.2654 79.3971 54.2504 79.3946 54.2404 79.3921C54.2304 79.3896 54.2104 79.3871 54.1829 79.3821C54.1554 79.3796 54.1354 79.3771 54.1229 79.3771C54.1104 79.3771 54.0929 79.3771 54.0754 79.3771C54.0554 79.3771 54.0329 79.3771 54.0079 79.3771L54.1504 78.2146C54.1804 77.9621 54.1679 77.7721 54.1104 77.6496C54.0529 77.5246 53.9354 77.4521 53.7554 77.4296C53.3729 77.3821 53.1554 77.5921 53.0979 78.0596L52.9529 79.2471C52.9254 79.2396 52.9029 79.2346 52.8829 79.2321C52.8629 79.2296 52.8479 79.2246 52.8354 79.2221C52.8229 79.2196 52.8054 79.2171 52.7804 79.2121C52.7529 79.2096 52.7354 79.2071 52.7279 79.2071C52.7204 79.2071 52.7029 79.2071 52.6804 79.2071C52.6554 79.2071 52.6304 79.2071 52.6054 79.2071L52.5954 79.2021Z" fill="black"/>
<path d="M56.7429 78.047L56.7579 79.067C56.7579 79.1245 56.7604 79.167 56.7654 79.1945C56.7679 79.222 56.7804 79.2445 56.7979 79.262C56.8154 79.2795 56.8429 79.287 56.8804 79.287C56.9129 79.287 56.9554 79.2795 57.0079 79.267V79.3645C56.9604 79.387 56.9154 79.4045 56.8779 79.412C56.8304 79.422 56.7829 79.427 56.7379 79.427C56.6504 79.427 56.5804 79.4045 56.5229 79.3645C56.4679 79.3245 56.4329 79.257 56.4204 79.162L56.3829 79.2045C56.2004 79.392 55.9854 79.487 55.7354 79.4895C55.5754 79.492 55.4354 79.4445 55.3204 79.3445C55.2029 79.247 55.1429 79.117 55.1429 78.9595C55.1429 78.8045 55.1754 78.6845 55.2479 78.597C55.3204 78.5095 55.4104 78.4495 55.5179 78.412C55.6254 78.377 55.7679 78.3445 55.9479 78.312C56.0854 78.287 56.1829 78.267 56.2404 78.247C56.2979 78.2295 56.3429 78.202 56.3704 78.167C56.3979 78.132 56.4104 78.0795 56.4104 78.0095C56.4104 77.8445 56.3604 77.7195 56.2704 77.6295C56.1804 77.5395 56.0529 77.4995 55.8879 77.502C55.7929 77.502 55.7079 77.522 55.6304 77.557C55.5529 77.592 55.4954 77.6345 55.4529 77.682C55.4079 77.7295 55.3804 77.772 55.3679 77.812H55.3179L55.3154 77.567C55.5504 77.402 55.7854 77.317 56.0204 77.3145C56.2529 77.312 56.4329 77.3695 56.5554 77.492C56.6779 77.6145 56.7404 77.797 56.7454 78.0445L56.7429 78.047ZM56.4029 78.9895L56.3929 78.347L56.2379 78.382C56.1404 78.402 56.0504 78.4195 55.9704 78.4395C55.8879 78.457 55.8129 78.4845 55.7404 78.517C55.6704 78.5495 55.6104 78.597 55.5629 78.6595C55.5179 78.722 55.4954 78.7995 55.4954 78.8945C55.4954 79.032 55.5379 79.1345 55.6129 79.202C55.6904 79.2695 55.7954 79.3045 55.9329 79.302C55.9879 79.302 56.0479 79.282 56.1179 79.247C56.1854 79.212 56.2404 79.172 56.2829 79.1295C56.2979 79.1145 56.3129 79.0995 56.3304 79.0845C56.3479 79.0695 56.3629 79.052 56.3779 79.032C56.3929 79.012 56.4004 78.9995 56.4004 78.992L56.4029 78.9895Z" fill="black"/>
<path d="M57.6529 79.3671L57.1954 76.1071C57.2329 76.1071 57.2654 76.1021 57.2954 76.1021C57.3254 76.1021 57.3504 76.0996 57.3704 76.0946C57.3879 76.0921 57.4129 76.0871 57.4404 76.0796C57.4704 76.0721 57.5029 76.0646 57.5429 76.0571L57.7704 77.6696C57.8454 77.5146 57.9404 77.3896 58.0504 77.2921C58.1629 77.1946 58.3004 77.1371 58.4604 77.1146C58.6554 77.0871 58.8254 77.1146 58.9729 77.1921C59.1179 77.2696 59.2354 77.3821 59.3204 77.5296C59.4054 77.6771 59.4604 77.8321 59.4829 78.0021C59.5029 78.1496 59.5029 78.2946 59.4779 78.4371C59.4529 78.5771 59.4054 78.7071 59.3354 78.8246C59.2654 78.9421 59.1729 79.0421 59.0604 79.1221C58.9454 79.2021 58.8129 79.2521 58.6579 79.2746C58.3854 79.3121 58.1629 79.2396 57.9954 79.0521C57.9654 79.0821 57.9279 79.1221 57.8854 79.1746C57.8429 79.2271 57.7929 79.2871 57.7354 79.3546L57.6529 79.3646V79.3671ZM58.3779 77.3146C58.1479 77.3471 57.9954 77.4671 57.9204 77.6771C57.8454 77.8871 57.8279 78.1371 57.8704 78.4296C57.8929 78.5821 57.9354 78.7171 58.0029 78.8321C58.0679 78.9471 58.1529 79.0321 58.2554 79.0871C58.3579 79.1421 58.4704 79.1596 58.5954 79.1421C58.7129 79.1246 58.8079 79.0821 58.8829 79.0096C58.9579 78.9371 59.0154 78.8471 59.0529 78.7396C59.0904 78.6321 59.1129 78.5246 59.1204 78.4121C59.1279 78.3021 59.1204 78.1871 59.1054 78.0746C59.0829 77.9096 59.0404 77.7671 58.9804 77.6471C58.9204 77.5271 58.8404 77.4371 58.7404 77.3771C58.6404 77.3171 58.5204 77.2946 58.3829 77.3146H58.3779Z" fill="black"/>
<path d="M61.4104 77.2271L61.6654 78.2146C61.6804 78.2696 61.6929 78.3121 61.7029 78.3371C61.7129 78.3621 61.7279 78.3821 61.7504 78.3946C61.7704 78.4071 61.8004 78.4071 61.8354 78.3996C61.8654 78.3921 61.9054 78.3746 61.9554 78.3471L61.9804 78.4396C61.9379 78.4746 61.8979 78.4996 61.8629 78.5171C61.8204 78.5371 61.7754 78.5546 61.7304 78.5646C61.6454 78.5846 61.5704 78.5821 61.5079 78.5546C61.4429 78.5296 61.3954 78.4721 61.3604 78.3821L61.3329 78.4321C61.2004 78.6571 61.0129 78.8021 60.7729 78.8646C60.6179 78.9046 60.4729 78.8921 60.3354 78.8221C60.1979 78.7546 60.1104 78.6446 60.0704 78.4921C60.0329 78.3421 60.0379 78.2171 60.0879 78.1146C60.1379 78.0121 60.2104 77.9321 60.3054 77.8721C60.4004 77.8121 60.5329 77.7471 60.7004 77.6721C60.8279 77.6146 60.9179 77.5721 60.9704 77.5396C61.0229 77.5096 61.0579 77.4721 61.0779 77.4321C61.0954 77.3921 61.0954 77.3371 61.0779 77.2696C61.0354 77.1096 60.9604 76.9971 60.8529 76.9346C60.7429 76.8696 60.6104 76.8596 60.4529 76.8996C60.3604 76.9246 60.2804 76.9621 60.2154 77.0146C60.1504 77.0671 60.1029 77.1221 60.0704 77.1771C60.0404 77.2346 60.0229 77.2821 60.0204 77.3246L59.9729 77.3371L59.9104 77.0996C60.0979 76.8846 60.3079 76.7471 60.5354 76.6871C60.7604 76.6271 60.9479 76.6446 61.0979 76.7321C61.2454 76.8221 61.3504 76.9846 61.4129 77.2221L61.4104 77.2271ZM61.3054 78.2221L61.1429 77.5996L61.0004 77.6696C60.9104 77.7096 60.8279 77.7496 60.7529 77.7871C60.6779 77.8246 60.6104 77.8671 60.5479 77.9171C60.4854 77.9646 60.4404 78.0246 60.4104 78.0971C60.3804 78.1696 60.3754 78.2496 60.4004 78.3421C60.4354 78.4746 60.4979 78.5646 60.5879 78.6146C60.6779 78.6621 60.7904 78.6696 60.9229 78.6346C60.9754 78.6196 61.0304 78.5896 61.0879 78.5371C61.1454 78.4871 61.1904 78.4346 61.2204 78.3821C61.2304 78.3646 61.2429 78.3471 61.2554 78.3271C61.2679 78.3071 61.2804 78.2871 61.2904 78.2646C61.3004 78.2421 61.3029 78.2271 61.3029 78.2196L61.3054 78.2221Z" fill="black"/>
<path d="M61.7304 75.9146L62.0204 75.6721L62.2054 76.2121L62.6454 76.0621C62.6529 76.1046 62.6604 76.1346 62.6654 76.1496C62.6729 76.1721 62.6854 76.1971 62.7004 76.2221L62.2604 76.3721L62.6179 77.4171L62.6704 77.5671C62.7254 77.7271 62.7879 77.8471 62.8629 77.9271C62.9354 78.0096 63.0354 78.0271 63.1604 77.9846C63.1879 77.9746 63.2454 77.9446 63.3379 77.8921L63.3729 77.9921C63.2529 78.0896 63.1429 78.1546 63.0479 78.1871C62.9704 78.2146 62.9004 78.2271 62.8354 78.2271C62.7704 78.2271 62.7079 78.2096 62.6504 78.1721C62.5929 78.1346 62.5379 78.0796 62.4854 77.9996C62.4354 77.9196 62.3879 77.8196 62.3454 77.6946L61.9304 76.4821L61.6729 76.5696C61.6729 76.5496 61.6679 76.5196 61.6554 76.4871C61.6429 76.4496 61.6304 76.4246 61.6179 76.4121L61.8754 76.3246L61.7354 75.9121L61.7304 75.9146Z" fill="black"/>
<path d="M74.5804 75.6722C74.8179 75.7322 76.7204 75.4072 79.4479 73.9872C80.3104 73.5397 81.2529 72.9822 82.2529 72.2947" stroke="#A3822E" stroke-width="0.025" stroke-miterlimit="10"/>
<path d="M79.3229 69.4947C79.3229 69.4947 82.9779 67.1747 84.5604 64.2922" stroke="#A3822E" stroke-width="0.025" stroke-miterlimit="10"/>
<path d="M80.5979 62.9574C80.5979 62.9574 84.3529 60.6349 86.1604 56.1724" stroke="#A3822E" stroke-width="0.025" stroke-miterlimit="10"/>
<path d="M81.1879 55.4173C81.1879 55.4173 83.8229 53.1148 84.5604 48.3323" stroke="#A3822E" stroke-width="0.025" stroke-miterlimit="10"/>
<path d="M78.3854 43.1748L80.0254 37.2598" stroke="#A3822E" stroke-width="0.025" stroke-miterlimit="10"/>
</g>
<rect x="1" y="1" width="110" height="110" rx="9" stroke="#CCCCCC" stroke-width="2"/>
<defs>
<linearGradient id="paint0_linear_302_1293" x1="30.6804" y1="44.2397" x2="26.3229" y2="49.4422" gradientUnits="userSpaceOnUse">
<stop stop-color="#F7E349"/>
<stop offset="1" stop-color="#A3822E"/>
</linearGradient>
<linearGradient id="paint1_linear_302_1293" x1="81.0479" y1="44.2397" x2="85.4054" y2="49.4422" gradientUnits="userSpaceOnUse">
<stop stop-color="#F7E349"/>
<stop offset="1" stop-color="#A3822E"/>
</linearGradient>
<linearGradient id="paint2_linear_302_1293" x1="36.3854" y1="36.7648" x2="31.1829" y2="37.1148" gradientUnits="userSpaceOnUse">
<stop stop-color="#F7E349"/>
<stop offset="1" stop-color="#A3822E"/>
</linearGradient>
<linearGradient id="paint3_linear_302_1293" x1="42.7854" y1="32.2647" x2="39.2004" y2="39.8572" gradientUnits="userSpaceOnUse">
<stop stop-color="#F7E349"/>
<stop offset="1" stop-color="#A3822E"/>
</linearGradient>
<linearGradient id="paint4_linear_302_1293" x1="46.5354" y1="34.8296" x2="35.1479" y2="34.8296" gradientUnits="userSpaceOnUse">
<stop stop-color="#F7E349"/>
<stop offset="1" stop-color="#A3822E"/>
</linearGradient>
<linearGradient id="paint5_linear_302_1293" x1="30.5304" y1="76.7747" x2="40.0904" y2="78.2497" gradientUnits="userSpaceOnUse">
<stop stop-color="#F7E349"/>
<stop offset="1" stop-color="#A3822E"/>
</linearGradient>
<linearGradient id="paint6_linear_302_1293" x1="34.5754" y1="71.4246" x2="32.7479" y2="79.5796" gradientUnits="userSpaceOnUse">
<stop stop-color="#F7E349"/>
<stop offset="1" stop-color="#A3822E"/>
</linearGradient>
<linearGradient id="paint7_linear_302_1293" x1="30.9754" y1="65.8321" x2="27.9529" y2="71.0346" gradientUnits="userSpaceOnUse">
<stop stop-color="#F7E349"/>
<stop offset="1" stop-color="#A3822E"/>
</linearGradient>
<linearGradient id="paint8_linear_302_1293" x1="34.1129" y1="68.2747" x2="42.4079" y2="76.8522" gradientUnits="userSpaceOnUse">
<stop stop-color="#F7E349"/>
<stop offset="1" stop-color="#A3822E"/>
</linearGradient>
<linearGradient id="paint9_linear_302_1293" x1="30.1829" y1="58.4348" x2="25.8254" y2="68.2773" gradientUnits="userSpaceOnUse">
<stop stop-color="#F7E349"/>
<stop offset="1" stop-color="#A3822E"/>
</linearGradient>
<linearGradient id="paint10_linear_302_1293" x1="30.6204" y1="50.7697" x2="24.0829" y2="58.7822" gradientUnits="userSpaceOnUse">
<stop stop-color="#F7E349"/>
<stop offset="1" stop-color="#A3822E"/>
</linearGradient>
<linearGradient id="paint11_linear_302_1293" x1="34.3729" y1="40.4346" x2="28.3979" y2="41.2771" gradientUnits="userSpaceOnUse">
<stop stop-color="#F7E349"/>
<stop offset="1" stop-color="#A3822E"/>
</linearGradient>
<linearGradient id="paint12_linear_302_1293" x1="75.3429" y1="36.7648" x2="80.5454" y2="37.1148" gradientUnits="userSpaceOnUse">
<stop stop-color="#F7E349"/>
<stop offset="1" stop-color="#A3822E"/>
</linearGradient>
<linearGradient id="paint13_linear_302_1293" x1="68.9429" y1="32.2647" x2="72.5279" y2="39.8572" gradientUnits="userSpaceOnUse">
<stop stop-color="#F7E349"/>
<stop offset="1" stop-color="#A3822E"/>
</linearGradient>
<linearGradient id="paint14_linear_302_1293" x1="65.1929" y1="34.8296" x2="76.5804" y2="34.8296" gradientUnits="userSpaceOnUse">
<stop stop-color="#F7E349"/>
<stop offset="1" stop-color="#A3822E"/>
</linearGradient>
<linearGradient id="paint15_linear_302_1293" x1="81.1979" y1="76.7747" x2="71.6379" y2="78.2497" gradientUnits="userSpaceOnUse">
<stop stop-color="#F7E349"/>
<stop offset="1" stop-color="#A3822E"/>
</linearGradient>
<linearGradient id="paint16_linear_302_1293" x1="77.1529" y1="71.4246" x2="78.9804" y2="79.5796" gradientUnits="userSpaceOnUse">
<stop stop-color="#F7E349"/>
<stop offset="1" stop-color="#A3822E"/>
</linearGradient>
<linearGradient id="paint17_linear_302_1293" x1="80.7529" y1="65.8321" x2="83.7754" y2="71.0346" gradientUnits="userSpaceOnUse">
<stop stop-color="#F7E349"/>
<stop offset="1" stop-color="#A3822E"/>
</linearGradient>
<linearGradient id="paint18_linear_302_1293" x1="77.6154" y1="68.2747" x2="69.3204" y2="76.8522" gradientUnits="userSpaceOnUse">
<stop stop-color="#F7E349"/>
<stop offset="1" stop-color="#A3822E"/>
</linearGradient>
<linearGradient id="paint19_linear_302_1293" x1="81.5454" y1="58.4348" x2="85.9029" y2="68.2773" gradientUnits="userSpaceOnUse">
<stop stop-color="#F7E349"/>
<stop offset="1" stop-color="#A3822E"/>
</linearGradient>
<linearGradient id="paint20_linear_302_1293" x1="81.1079" y1="50.7697" x2="87.6454" y2="58.7822" gradientUnits="userSpaceOnUse">
<stop stop-color="#F7E349"/>
<stop offset="1" stop-color="#A3822E"/>
</linearGradient>
<linearGradient id="paint21_linear_302_1293" x1="77.3554" y1="40.4346" x2="83.3304" y2="41.2771" gradientUnits="userSpaceOnUse">
<stop stop-color="#F7E349"/>
<stop offset="1" stop-color="#A3822E"/>
</linearGradient>
<linearGradient id="paint22_linear_302_1293" x1="55.8179" y1="73.8147" x2="55.8179" y2="88.7572" gradientUnits="userSpaceOnUse">
<stop stop-color="#F7E349"/>
<stop offset="1" stop-color="#A3822E"/>
</linearGradient>
<linearGradient id="paint23_linear_302_1293" x1="55.8179" y1="34.4697" x2="55.8179" y2="23.0022" gradientUnits="userSpaceOnUse">
<stop stop-color="#F7E349"/>
<stop offset="1" stop-color="#A3822E"/>
</linearGradient>
<linearGradient id="paint24_linear_302_1293" x1="55.8179" y1="31.5322" x2="55.8179" y2="80.8122" gradientUnits="userSpaceOnUse">
<stop stop-color="#F7E349"/>
<stop offset="1" stop-color="#A3822E"/>
</linearGradient>
<clipPath id="clip0_302_1293">
<rect x="2" y="2" width="108" height="108" rx="8" fill="white"/>
</clipPath>
</defs>
</svg>
