<svg width="112" height="112" viewBox="0 0 112 112" fill="none" xmlns="http://www.w3.org/2000/svg">
<g clip-path="url(#clip0_528_48)">
<rect x="2" y="2" width="108" height="108" rx="8" fill="white"/>
<path d="M28.6943 42.7229C28.6943 40.6303 28.9206 38.6225 29.373 36.6713C30.7021 30.761 35.453 22.843 43.9367 22.843C55.8422 22.843 53.9192 42.0442 36.6407 38.1418C38.4506 41.4787 43.9933 51.6873 46.3122 55.5332C52.5618 65.9398 64.4107 68.6263 71.3674 64.3844C66.9276 67.6365 61.4697 69.5595 55.5311 69.5595C40.7129 69.5595 28.6943 57.541 28.6943 42.7229ZM67.2104 17.9225C67.2104 17.9225 67.1538 17.9225 67.0972 17.9225C66.9558 17.9225 66.8144 18.0356 66.8144 18.2053C66.8144 18.3184 66.871 18.4032 66.9841 18.4598C76.0617 22.7581 82.3679 32.0053 82.3679 42.7512C82.3679 45.8902 81.8306 48.8877 80.8408 51.6873C78.9744 57.2299 72.5268 58.559 68.3132 51.5176C67.5497 50.2451 63.1665 42.016 61.8373 39.5557C82.3962 35.625 70.6321 9.18435 44.5871 17.668C44.3326 17.7528 44.3892 18.0922 44.6154 18.0356C68.6526 12.8889 72.4137 39.2446 52.9012 40.0647C55.0786 43.9106 58.7266 50.2734 60.1972 52.875C64.1279 59.8881 70.7452 61.4435 76.8818 58.1066C77.3908 57.8238 77.815 57.5127 78.0695 57.2299C77.617 57.9369 77.1363 58.6439 76.599 59.2943C73.969 62.3767 62.9119 66.0812 55.1918 53.5537C53.4385 50.6975 49.1118 42.9209 47.3868 39.5557C62.7705 39.7254 65.3439 20.609 49.0269 19.3081C41.9289 18.7143 30.4759 23.7479 25.923 36.3885C24.6787 39.7537 24 43.4016 24 47.191C24 64.5824 38.1112 78.6935 55.5028 78.6935C72.8944 78.6935 87.0057 64.5824 87.0057 47.191C87.0057 33.9282 78.8048 22.5602 67.1821 17.9225" fill="#009E5E"/>
<path d="M31.8909 90.2877H30.8163V87.6012H32.0323C33.1634 87.6012 33.8421 88.082 33.8421 88.9021C33.8421 89.7221 33.1069 90.2877 31.8909 90.2877ZM33.6159 91.0512C34.6905 90.7967 35.4258 89.9484 35.4258 88.8738C35.4258 86.5549 33.5594 86.2439 31.6929 86.2439H29.2892V95.8021H30.8163V91.6451H31.5515C32.2585 91.6451 32.6544 91.6451 33.0503 92.5217L34.5208 95.8303H36.2176L34.3794 91.9844C34.1249 91.4754 33.927 91.2492 33.5876 91.0795M37.9143 95.8303H43.3439V94.473H39.4131V91.532H42.9763V90.1746H39.4131V87.6012H43.3439V86.2439H37.9143V95.8303ZM46.5677 88.6193C46.5677 87.573 47.6706 87.4598 48.1231 87.4598C48.8017 87.4598 49.1694 87.5729 49.8764 87.8557L49.9612 87.9123L50.1874 86.4984H50.1309C49.5087 86.2439 48.7735 86.1307 48.0948 86.1307C46.2284 86.1307 44.9841 87.1488 44.9841 88.7607C44.9841 90.3725 46.2001 90.9664 47.303 91.4754C48.2362 91.8996 49.028 92.2955 49.028 93.2004C49.028 94.275 47.9817 94.6426 47.2747 94.6426C46.5111 94.6426 45.6062 94.3033 45.3517 94.1902H45.2386L45.0972 95.5758H45.1538C45.7759 95.8021 46.4263 96 47.105 96C49.339 96 50.6116 94.9537 50.6116 93.1156C50.6116 91.2775 49.2542 90.6271 48.1513 90.118C47.303 89.7221 46.5677 89.3545 46.5677 88.6193ZM59.6892 91.0512C59.6892 92.7197 58.8974 94.6426 56.6633 94.6426C54.4293 94.6426 53.6375 92.7197 53.6375 91.0512C53.6375 89.8918 54.0051 88.8738 54.6555 88.2234C55.1645 87.7143 55.8432 87.4598 56.635 87.4598C57.4268 87.4598 58.1055 87.7143 58.6428 88.2234C59.2933 88.8738 59.6609 89.8918 59.6609 91.0512M61.2445 91.0512C61.2445 88.082 59.4064 86.1025 56.635 86.1025C53.8637 86.1025 52.0256 88.082 52.0256 91.0512C52.0256 94.0205 53.8354 96 56.635 96C59.4347 96 61.2445 94.0488 61.2445 91.0512ZM68.8516 95.8303H70.6897V86.2721H69.1909V93.6529C68.9364 93.2287 65.147 86.2721 65.147 86.2721H63.1675V95.8303H64.6663V88.2799C64.9208 88.7041 68.8233 95.8303 68.8233 95.8303M78.4947 92.1824H74.9881C75.073 91.9844 76.6 88.1668 76.7414 87.8275C76.8828 88.1668 78.4099 91.9844 78.4947 92.1824ZM81.6054 95.8303L77.5615 86.2721H76.0344L71.9623 95.8303H73.5459C73.5459 95.8303 74.4508 93.568 74.5074 93.4549H79.0037L79.9652 95.8303H81.6054Z" fill="#F7922A"/>
</g>
<rect x="1" y="1" width="110" height="110" rx="9" stroke="#CCCCCC" stroke-width="2"/>
<defs>
<clipPath id="clip0_528_48">
<rect x="2" y="2" width="108" height="108" rx="8" fill="white"/>
</clipPath>
</defs>
</svg>
