<svg width="112" height="112" viewBox="0 0 112 112" fill="none" xmlns="http://www.w3.org/2000/svg">
<g clip-path="url(#clip0_517_516)">
<rect x="2" y="2" width="108" height="108" rx="8" fill="white"/>
<path fill-rule="evenodd" clip-rule="evenodd" d="M17.2614 57.6874C17.2614 57.8427 17.2893 57.9973 17.3165 58.1386C17.5526 59 18.2594 59.5926 19.1464 59.5926C20.4217 59.5926 21.1845 58.534 21.1845 56.9674C21.1845 55.5981 20.4909 54.426 19.1883 54.426C18.3565 54.426 17.5798 55.0047 17.3305 55.9507C17.3033 56.092 17.2614 56.2614 17.2614 56.4586V57.6874ZM16.0551 50.4027H17.2614V54.6948H17.2893C17.7188 53.932 18.4948 53.4381 19.5759 53.4381C21.2396 53.4381 22.4179 54.8493 22.4039 56.9247C22.4039 59.3666 20.8932 60.5806 19.3957 60.5806C18.4256 60.5806 17.6497 60.2 17.1503 59.2967H17.1091L17.0532 60.426H16C16.028 59.96 16.0551 59.268 16.0551 58.6614V50.4027Z" fill="#D2272C"/>
<path fill-rule="evenodd" clip-rule="evenodd" d="M27.4773 56.9386C26.1468 56.9107 24.6353 57.1507 24.6353 58.4781C24.6353 59.2819 25.1619 59.6633 25.7856 59.6633C26.6594 59.6633 27.214 59.0986 27.4082 58.52C27.4493 58.3926 27.4773 58.252 27.4773 58.1247V56.9386ZM28.6555 58.788C28.6555 59.3814 28.6827 59.96 28.7658 60.426H27.6575L27.5604 59.5647H27.5184C27.1441 60.1014 26.4241 60.5806 25.4672 60.5806C24.1087 60.5806 23.4159 59.6066 23.4159 58.6186C23.4159 56.9674 24.8575 56.0641 27.4493 56.0781V55.9367C27.4493 55.372 27.2971 54.3553 25.9247 54.3553C25.301 54.3553 24.6493 54.5534 24.1779 54.8641L23.9006 54.0454C24.4551 53.6781 25.259 53.4381 26.1049 53.4381C28.1561 53.4381 28.6555 54.8641 28.6555 56.2334V58.788Z" fill="#D2272C"/>
<path fill-rule="evenodd" clip-rule="evenodd" d="M30.6237 55.4427C30.6237 54.7367 30.6097 54.1581 30.5685 53.5934H31.6497L31.7188 54.7227H31.7468C32.0792 54.0734 32.8551 53.4381 33.9643 53.4381C34.8932 53.4381 36.3348 54.0027 36.3348 56.346V60.426H35.1146V56.4874C35.1146 55.386 34.713 54.4687 33.5619 54.4687C32.7581 54.4687 32.1344 55.0474 31.9262 55.7394C31.8711 55.8948 31.8431 56.106 31.8431 56.3181V60.426H30.6237V55.4427Z" fill="#D2272C"/>
<path fill-rule="evenodd" clip-rule="evenodd" d="M39.5223 56.7274H39.5503C39.7165 56.4874 39.9518 56.1907 40.1468 55.9507L42.115 53.5934H43.5837L40.9918 56.4027L43.9441 60.426H42.4614L40.1468 57.1507L39.5223 57.8567V60.426H38.3169V50.4027H39.5223V56.7274Z" fill="#D2272C"/>
<path fill-rule="evenodd" clip-rule="evenodd" d="M47.6567 51.6151C47.6567 52.1231 47.2839 52.5472 46.654 52.5472C46.0676 52.5472 45.6948 52.1231 45.6948 51.6151C45.6948 51.0792 46.0816 50.6691 46.6827 50.6691C47.2839 50.6691 47.6567 51.0792 47.6567 51.6151ZM44.0202 62.0617C44.5926 62.019 45.0509 61.8777 45.3367 61.5678C45.666 61.2284 45.795 60.6777 45.795 59.1817V53.5351H47.5565V59.6757C47.5565 61.1017 47.2839 61.9911 46.654 62.6117C46.0388 63.1771 45.0649 63.4163 44.1918 63.4163L44.0202 62.0617Z" fill="#332C2B"/>
<path fill-rule="evenodd" clip-rule="evenodd" d="M53.1254 57.0505C51.8796 57.0217 50.6913 57.2905 50.6913 58.3344C50.6913 59.0124 51.1355 59.3231 51.6932 59.3231C52.3953 59.3231 52.9103 58.8711 53.068 58.3771C53.1107 58.2497 53.1254 58.1091 53.1254 57.9957V57.0505ZM54.8435 58.7584C54.8435 59.379 54.8722 59.9864 54.9437 60.4097H53.3546L53.2396 59.6478H53.1969C52.7674 60.1837 52.0373 60.565 51.1355 60.565C49.732 60.565 48.9445 59.5631 48.9445 58.5184C48.9445 56.7817 50.5056 55.9064 53.0819 55.9212V55.8078C53.0819 55.3565 52.8963 54.6078 51.6652 54.6078C50.9779 54.6078 50.2617 54.8198 49.7895 55.1165L49.4462 53.9872C49.9612 53.6765 50.8629 53.3798 51.9658 53.3798C54.1988 53.3798 54.8435 54.7771 54.8435 56.2738V58.7584Z" fill="#332C2B"/>
<path fill-rule="evenodd" clip-rule="evenodd" d="M58.6369 51.7705V53.5351H60.3122V54.8338H58.6369V57.8691C58.6369 58.7017 58.8668 59.139 59.5394 59.139C59.8687 59.139 60.0264 59.1111 60.2268 59.0544L60.2555 60.3817C59.9977 60.4804 59.5394 60.5651 58.981 60.5651C58.3363 60.5651 57.7926 60.339 57.4633 59.9864C57.0913 59.5911 56.9188 58.9697 56.9188 58.0664V54.8338H55.9169V53.5351H56.9188V52.2645L58.6369 51.7705Z" fill="#332C2B"/>
<path fill-rule="evenodd" clip-rule="evenodd" d="M61.6435 60.4097V53.5351H63.419V60.4097H61.6435ZM63.5192 51.6151C63.5192 52.1379 63.1324 52.5472 62.5173 52.5472C61.9301 52.5472 61.5433 52.1379 61.5433 51.6151C61.5433 51.0792 61.9449 50.6691 62.5313 50.6691C63.1324 50.6691 63.5052 51.0792 63.5192 51.6151Z" fill="#332C2B"/>
<path fill-rule="evenodd" clip-rule="evenodd" d="M65.3087 55.5817C65.3087 54.7918 65.2948 54.1278 65.252 53.5351H66.7689L66.8404 54.5518H66.8839C67.2272 54.0151 67.8571 53.3798 69.0315 53.3798C69.9472 53.3798 70.6633 53.8878 70.9639 54.6505H70.9926C71.2357 54.2691 71.5223 53.9872 71.8517 53.7891C72.2377 53.5212 72.6819 53.3798 73.2544 53.3798C74.414 53.3798 75.5884 54.1565 75.5884 56.3584V60.4097H73.8703V56.6124C73.8703 55.4691 73.4695 54.7918 72.6245 54.7918C72.0233 54.7918 71.5798 55.2151 71.3934 55.7091C71.3507 55.8784 71.3072 56.0905 71.3072 56.2878V60.4097H69.5891V56.4291C69.5891 55.4691 69.2031 54.7918 68.3868 54.7918C67.7282 54.7918 67.2847 55.2998 67.127 55.7798C67.0555 55.9491 67.0268 56.1464 67.0268 56.3445V60.4097H65.3087V55.5817Z" fill="#332C2B"/>
<path fill-rule="evenodd" clip-rule="evenodd" d="M56.4357 62.5177C56.4357 62.5177 65.0882 65.1833 71.5278 63.6913C77.9619 62.2008 82.0054 59.7363 86.8171 52.6816C90.1227 47.9002 91.5837 47 91.5837 47C91.5837 47 91.3918 51.1763 88.6027 55.073C86.212 58.3049 84.9429 59.8396 84.9429 59.8396L74.3612 65.0637C74.3612 65.0637 68.6058 66.141 56.4357 62.5177Z" fill="#E5252A"/>
<path fill-rule="evenodd" clip-rule="evenodd" d="M62.7907 64.134C62.7907 64.134 69.4027 65.3293 78.0357 61.6322C81.1503 60.2986 82.32 59.7169 88.588 54.9845C91.4214 52.8439 95.4454 50.6303 95.4454 50.6303C95.4454 50.6303 94.4909 53.3899 90.6392 56.8144C88.094 59.2555 88.3744 60.3274 88.3744 60.3274L77.1083 64.2738C77.1083 64.2738 72.8559 65.4179 62.7907 64.134Z" fill="#D1272C"/>
<path fill-rule="evenodd" clip-rule="evenodd" d="M69.2365 64.1783C69.2365 64.1783 71.9705 63.7138 74.9973 62.8594C79.374 61.6252 84.5515 59.7728 88.7355 57.5817C90.8404 56.4788 96 55.0132 96 55.0132C96 55.0132 94.3068 57.3821 90.7868 59.3969C88.8994 60.8369 87.2008 61.3449 87.2008 61.3449L82.4388 62.9829C82.4388 62.9829 76.699 64.9355 69.2365 64.1783Z" fill="#BB292D"/>
<path fill-rule="evenodd" clip-rule="evenodd" d="M68.7091 63.9056C68.7091 63.9056 69.5332 64.0827 72.3542 63.5064C76.8186 62.5953 81.1386 61.5452 85.2746 60.3041C89.1115 59.153 93.6202 59.0575 93.6202 59.0575C93.6202 59.0575 91.3476 60.2676 88.2485 61.5515C86.3612 62.3701 84.7658 62.6489 84.7658 62.6489L80.0039 63.5794C80.0039 63.5794 76.1716 64.3359 68.7091 63.9056Z" fill="#9D272A"/>
<path fill-rule="evenodd" clip-rule="evenodd" d="M72.8116 65.6392C67.2738 65.7317 61.4773 64.5324 56.2307 62.4517C56.2307 62.4517 64.1779 64.5767 72.1181 63.5507C76.7371 62.9542 80.4 62.0641 84.4264 61.6252C87.673 61.2711 91.0229 61.6105 91.0229 61.6105C91.0229 61.6105 83.4369 65.4621 72.8116 65.6392Z" fill="#8B2527"/>
</g>
<rect x="1" y="1" width="110" height="110" rx="9" stroke="#CCCCCC" stroke-width="2"/>
<defs>
<clipPath id="clip0_517_516">
<rect x="2" y="2" width="108" height="108" rx="8" fill="white"/>
</clipPath>
</defs>
</svg>
