<svg width="112" height="112" viewBox="0 0 112 112" fill="none" xmlns="http://www.w3.org/2000/svg">
<g clip-path="url(#clip0_421_538)">
<rect x="2" y="2" width="108" height="108" rx="8" fill="white"/>
<path d="M19.7316 56.3024C20.3684 56.594 21.9331 57.1521 24.1265 56.346C26.3727 55.52 27.4914 55.0971 28.9209 55.3093C28.8911 55.1986 28.8553 55.09 28.8152 54.9836C27.3456 54.913 26.2085 55.0822 24.7939 55.6896C22.4327 56.7044 20.6991 56.2066 19.7699 55.7404C19.7436 55.9146 19.7305 56.0934 19.7305 56.2744C19.7305 56.2836 19.7316 56.2932 19.7316 56.3024Z" fill="#234089"/>
<path d="M24.1143 57.4856C26.3701 56.6561 27.2844 56.037 29.0506 56.2538C29.0506 56.1363 29.0439 56.0189 29.0318 55.9032C27.6598 55.8191 26.3974 56.0576 24.7937 56.6682C22.1675 57.6687 20.5929 57.1237 19.7502 56.6501C19.7726 56.8708 19.8155 57.0865 19.8769 57.2965C20.5787 57.6542 22.0649 58.2392 24.1143 57.4856Z" fill="#234089"/>
<path d="M23.9303 55.4365C26.0605 54.5846 27.1402 54.155 28.4813 54.3079C28.4313 54.227 28.3777 54.1482 28.3224 54.0716C26.5328 53.919 24.9354 54.723 23.4016 55.185C22.184 55.5518 20.7811 55.2027 20.0037 54.8894C19.9349 55.0572 19.8785 55.23 19.8352 55.4071C20.5419 55.7168 22.0385 56.193 23.9303 55.4365Z" fill="#234089"/>
<path d="M24.1143 58.4295C26.3215 57.6184 27.2425 57.0078 28.9356 57.1852C28.9587 57.094 28.9786 57.0025 28.9956 56.9088C27.7485 56.8386 26.011 57.2899 24.8977 57.7043C22.6198 58.5515 21.0917 58.289 20.006 57.6773C20.1061 57.9423 20.1969 58.0846 20.3534 58.3227C21.1644 58.6927 22.4602 59.038 24.1143 58.4295Z" fill="#234089"/>
<path d="M24.9437 58.821C23.5153 59.5303 21.8449 59.3255 20.6915 58.7671C21.5433 59.7435 22.8831 60.3736 24.3906 60.3736C26.2746 60.3736 27.8982 59.3898 28.6323 57.9745C27.3841 57.8691 26.1589 58.2168 24.9437 58.821Z" fill="#234089"/>
<path d="M24.3371 54.2103C25.6381 53.4755 26.6603 53.1289 27.5381 53.251C26.7089 52.5829 25.6044 52.1745 24.3906 52.1745C22.5436 52.1745 20.9487 53.1193 20.1944 54.4896C21.0069 54.8603 22.5028 55.2474 24.3371 54.2103Z" fill="#234089"/>
<path d="M30.447 54.1058C30.5137 54.1977 30.5761 54.2918 30.634 54.3868C31.1357 54.3773 31.8268 54.472 32.1912 54.5518C32.122 54.4266 32.0454 54.3024 31.9623 54.1811C31.7317 54.1268 31.273 54.0643 30.447 54.1058Z" fill="#234089"/>
<path d="M31.0066 57.4243C31.3489 57.4573 32.0113 57.5293 32.3917 57.629C32.4332 57.5261 32.4694 57.4215 32.5017 57.3157C32.2601 57.2668 31.8567 57.2061 31.0899 57.138C31.0665 57.2348 31.0381 57.3299 31.0066 57.4243Z" fill="#234089"/>
<path d="M31.0533 55.3227C31.3471 55.3227 32.089 55.3415 32.5666 55.5257C32.5371 55.3976 32.5002 55.2713 32.4562 55.146C31.9922 55.0396 31.3521 55.0179 30.948 55.0172C30.9874 55.1176 31.0228 55.2195 31.0533 55.3227Z" fill="#234089"/>
<path d="M31.193 56.3007C31.193 56.3255 31.1919 56.3507 31.1919 56.3755C31.4662 56.3933 32.1907 56.4497 32.6445 56.5714C32.6519 56.4816 32.6551 56.3912 32.6551 56.3007V56.2978C32.362 56.1918 31.8855 56.0796 31.1862 56.0821C31.1905 56.1545 31.193 56.2272 31.193 56.3007Z" fill="#234089"/>
<path d="M30.6618 58.1684C29.6247 59.9119 27.1798 61.1363 24.3279 61.1363C20.5361 61.1363 17.4621 58.9717 17.4621 56.3007C17.4621 53.6298 20.5361 51.4641 24.3279 51.4641C26.5546 51.4641 28.5337 52.2116 29.7879 53.3694L31.3072 53.4087C29.8209 51.9587 27.2511 51 24.3279 51C19.7286 51 16 53.3733 16 56.3007C16 59.2282 19.7286 61.6007 24.3279 61.6007C27.7751 61.6007 30.7331 60.2674 31.9987 58.3667C31.6198 58.2887 31.1415 58.2063 30.6618 58.1684Z" fill="#234089"/>
<path d="M93.4096 57.0546H94.512L94.3292 55.3165H94.3158L93.4096 57.0546ZM93.9372 54.025H95.2084L96 58.8535H94.7351L94.6209 57.9881H92.9228L92.436 58.8535H91.1165L93.9372 54.025ZM92.4229 55.1068H91.0033L90.2111 58.8535H88.9533L89.7445 55.1068H88.3242L88.541 54.025H92.6393L92.4229 55.1068ZM84.9164 56.1616H85.9169C86.3704 56.1616 86.7624 56.02 86.7624 55.4992C86.7624 55.0866 86.4179 54.9986 86.0865 54.9986H85.1594L84.9164 56.1616ZM84.1046 54.025H86.4722C87.351 54.025 88.0202 54.2478 88.0202 55.276C88.0202 55.9991 87.676 56.5139 86.9178 56.6214V56.6349C87.2765 56.7236 87.4117 56.9734 87.4117 57.4403C87.4117 57.7915 87.3918 58.0623 87.3918 58.339C87.3918 58.509 87.3918 58.7179 87.4656 58.8535H86.2015C86.1809 58.7591 86.1603 58.6711 86.1603 58.5764C86.1603 58.3259 86.1944 58.069 86.1944 57.7444C86.1944 57.319 86.012 57.0958 85.566 57.0958H84.7269L84.3618 58.8535H83.1033L84.1046 54.025ZM80.2153 57.0546H81.318L81.1356 55.3165H81.1228L80.2153 57.0546ZM80.7443 54.025H82.0155L82.8067 58.8535H81.5419L81.4269 57.9881H79.7288L79.242 58.8535H77.9233L80.7443 54.025ZM75.1381 54.025H76.3951L75.3878 58.8535H74.1301L75.1381 54.025ZM68.8826 54.025H70.6136L70.8432 57.4673H70.857L72.5207 54.025H74.2521L73.2448 58.8535H72.0545L72.9603 55.0191H72.9475L71.0401 58.8535H70.0736L69.7887 55.0191H69.7752L69.0578 58.8535H67.8682L68.8826 54.025ZM67.4889 56.7839C67.2186 58.0821 66.8265 58.9549 65.0816 58.9549C63.8238 58.9549 63.127 58.3259 63.127 57.5616C63.127 57.1561 63.1955 56.8645 63.2622 56.5473L63.81 54.025H65.0685L64.5068 56.6079C64.4596 56.8386 64.3844 57.0883 64.3844 57.3449C64.3844 57.7036 64.6555 57.92 65.1082 57.92C65.9746 57.92 66.1098 57.2774 66.2847 56.5139L66.8059 54.025H68.064L67.4889 56.7839ZM59.8337 55.9249H60.7271C61.2341 55.9249 61.4843 55.7624 61.4843 55.391C61.4843 55.0397 61.1195 55.0117 60.8492 55.0117H60.0239L59.8337 55.9249ZM59.4285 57.8661H60.4156C60.8552 57.8661 61.2746 57.7713 61.2746 57.2512C61.2746 56.8045 60.8687 56.7708 60.5451 56.7708H59.6585L59.4285 57.8661ZM58.9818 54.025H61.2341C62.5394 54.025 62.7424 54.5519 62.7424 55.0795C62.7424 55.7156 62.4043 56.1485 61.8497 56.2702V56.2833C62.2758 56.3848 62.5331 56.797 62.5331 57.2306C62.5331 58.2116 61.7486 58.8467 60.334 58.8535H57.9739L58.9818 54.025ZM51.8543 54.025H53.1124L52.7132 55.9186H52.7274L54.6948 54.025H56.3581L54.0522 56.0133L55.486 58.8535H54.0522L53.0581 56.8247L52.4028 57.386L52.0909 58.8535H50.8331L51.8543 54.025ZM46.7756 54.025H48.0668L49.1968 57.1827H49.2099L49.812 54.025H51.0293L50.0214 58.8535H48.7306L47.614 55.6954H47.6005L46.9846 58.8535H45.768L46.7756 54.025ZM42.8874 57.0546H43.9897L43.807 55.3165H43.7932L42.8874 57.0546ZM43.415 54.025H44.6859L45.4774 58.8535H44.2133L44.098 57.9881H42.4006L41.9131 58.8535H40.5954L43.415 54.025ZM38.0387 55.9249H38.931C39.4384 55.9249 39.6885 55.7624 39.6885 55.391C39.6885 55.0397 39.3238 55.0117 39.0527 55.0117H38.2281L38.0387 55.9249ZM37.6324 57.8661H38.6198C39.0591 57.8661 39.4792 57.7713 39.4792 57.2512C39.4792 56.8045 39.0733 56.7708 38.7483 56.7708H37.8627L37.6324 57.8661ZM37.1864 54.025H39.4384C40.744 54.025 40.9473 54.5519 40.9473 55.0795C40.9473 55.7156 40.6088 56.1485 40.0539 56.2702V56.2833C40.4797 56.3848 40.7369 56.797 40.7369 57.2306C40.7369 58.2116 39.9517 58.8467 38.5393 58.8535H36.1784L37.1864 54.025Z" fill="#234089"/>
</g>
<rect x="1" y="1" width="110" height="110" rx="9" stroke="#CCCCCC" stroke-width="2"/>
<defs>
<clipPath id="clip0_421_538">
<rect x="2" y="2" width="108" height="108" rx="8" fill="white"/>
</clipPath>
</defs>
</svg>
