<svg width="112" height="112" viewBox="0 0 112 112" fill="none" xmlns="http://www.w3.org/2000/svg">
<g clip-path="url(#clip0_421_546)">
<rect x="2" y="2" width="108" height="108" rx="8" fill="white"/>
<path d="M57.582 76.2727V75.7541C57.582 71.9006 57.5787 68.0471 57.582 64.1935C57.5863 60.3411 58.4415 56.7178 60.534 53.4398C62.5974 50.207 65.4633 47.9134 68.9306 46.3395C72.3259 44.7989 75.9137 44.09 79.6198 43.9243C80.5988 43.8802 81.5799 43.8953 82.5589 43.8608C82.9139 43.8479 83.0097 43.9684 83.0086 44.3213C82.9957 47.7714 83.0011 51.2226 83.0011 54.6727C83.0011 61.6944 83.0011 68.7173 83.0011 75.7391C83.0011 76.0934 82.8289 76.2709 82.4847 76.2716C74.3602 76.2716 66.2347 76.2716 58.1102 76.2716H57.582V76.2727Z" fill="#FF1C25"/>
<path d="M54.6644 76.2458H29.2969V43.9361C29.3722 43.9178 29.468 43.8759 29.5648 43.8748C34.6329 43.7748 39.5698 44.4052 44.1473 46.7397C50.1288 49.7907 53.6209 54.649 54.4858 61.3362C54.6074 62.2775 54.6515 63.235 54.6558 64.186C54.6741 68.0535 54.6633 71.9199 54.6633 75.7875C54.6633 75.9316 54.6633 76.0747 54.6633 76.2458H54.6644Z" fill="#FF1C25"/>
<path d="M44.4335 30.6489C44.725 30.1045 44.9703 29.6322 45.2339 29.1707C45.2769 29.0954 45.3953 29.0492 45.4889 29.0223C45.576 28.9975 45.675 29.0158 45.7696 29.0158C52.6591 29.0158 59.5485 29.019 66.438 29.0061C66.7984 29.0061 67.0092 29.104 67.1555 29.4289C67.3341 29.827 67.5482 30.21 67.772 30.6489H44.4335Z" fill="#FF1C25"/>
<path d="M43.6815 33.0092C43.8085 32.5606 43.9064 32.1572 44.0451 31.7688C44.0817 31.6677 44.2377 31.5967 44.3528 31.5407C44.4174 31.5084 44.511 31.5343 44.5916 31.5343C52.2729 31.5343 59.9541 31.5375 67.6364 31.5246C68.0194 31.5246 68.198 31.63 68.2679 32.0001C68.3293 32.3261 68.4358 32.6445 68.5347 33.0092H43.6815Z" fill="#FF1C25"/>
<path d="M43.4029 35.3523C43.4308 34.9639 43.4405 34.6046 43.4932 34.2507C43.5062 34.1635 43.6471 34.0753 43.7482 34.0291C43.8257 33.9936 43.9332 34.0215 44.0268 34.0215C52.0814 34.0215 60.1359 34.0215 68.1905 34.0215H68.709C68.751 34.4755 68.7886 34.8962 68.8306 35.3534H43.4029V35.3523Z" fill="#FF1C25"/>
<path d="M66.2379 28.1842H45.9611C45.9375 28.1541 45.9138 28.124 45.8901 28.0938C46.3882 27.5592 46.8799 27.0191 47.3898 26.4963C47.4576 26.4274 47.6146 26.4274 47.7308 26.4274C53.3164 26.4242 58.902 26.4242 64.4876 26.4274C64.6037 26.4274 64.7608 26.4274 64.8286 26.4963C65.3385 27.0191 65.8302 27.5602 66.3272 28.0949L66.2368 28.1842H66.2379Z" fill="#FF1C25"/>
<path d="M68.7563 36.469C68.7822 36.526 68.7929 36.5378 68.7929 36.5507C68.7743 37.3024 68.3974 37.6782 67.6623 37.6782C59.8175 37.6782 51.9727 37.6782 44.129 37.6782C43.9558 37.6782 43.7826 37.6782 43.546 37.6782C43.5008 37.2715 43.4567 36.8842 43.4104 36.4701H68.7574L68.7563 36.469Z" fill="#FF1C25"/>
<path d="M16 88.1194C16.0312 87.9021 16.0689 87.7321 16.0796 87.56C16.1065 87.1221 16.2614 86.8607 16.7681 86.9489C16.8617 86.9651 17.0629 86.836 17.0801 86.7488C17.3975 85.0641 17.6933 83.3751 18.0031 81.6366C17.7213 81.6237 17.4749 81.6129 17.1845 81.6C17.2479 81.2375 17.2899 80.8954 17.377 80.5651C17.3985 80.4823 17.5674 80.3854 17.6686 80.3854C18.8767 80.3887 20.0859 80.3811 21.293 80.4317C22.4591 80.4812 23.0874 81.4247 22.7582 82.5478C22.571 83.1858 22.1719 83.6537 21.5286 84.0174C22.0761 84.2777 22.3784 84.6736 22.4892 85.2147C22.7474 86.482 21.7426 87.9989 20.4226 88.0957C18.9692 88.2012 17.5029 88.1194 16 88.1194ZM18.5217 86.9027C18.9972 86.9027 19.4092 86.9059 19.8213 86.9027C20.3592 86.8984 20.7357 86.6283 20.9756 86.1647C21.3317 85.4783 21.0563 84.8866 20.2946 84.7554C19.9148 84.6897 19.52 84.6962 19.1338 84.7048C19.0434 84.707 18.8961 84.8361 18.8767 84.9275C18.7476 85.5558 18.6454 86.1894 18.5206 86.9027H18.5217ZM19.1575 83.4977C19.3554 83.5074 19.4867 83.5193 19.6179 83.5182C19.9385 83.5171 20.2623 83.5332 20.5808 83.4988C21.1111 83.4407 21.4974 82.9351 21.4662 82.3843C21.4382 81.8959 21.0821 81.6215 20.4786 81.6248C20.2247 81.6259 19.9676 81.6076 19.7169 81.6366C19.6136 81.6484 19.4533 81.7463 19.4372 81.8292C19.3285 82.3649 19.2532 82.9071 19.1586 83.4977H19.1575Z" fill="#FF1C25"/>
<path d="M48.3634 25.6744C52.8409 22.0467 59.5894 22.1715 63.8496 25.6744H48.3634Z" fill="#FF1C25"/>
<path d="M52.942 86.0872C53.1109 85.6676 53.2486 85.3374 53.3777 85.0039C53.9318 83.5644 54.4815 82.1239 55.0431 80.6877C55.0764 80.6017 55.2001 80.4973 55.2862 80.4941C55.7929 80.4758 56.3007 80.4855 56.8504 80.4855C56.4846 81.131 56.7407 81.7377 56.8128 82.338C56.9935 83.8291 57.1882 85.3191 57.4098 86.8048C57.469 87.1985 57.6476 87.575 57.7735 87.9634H56.0898C56.1511 87.6826 56.2975 87.3739 56.2684 87.0823C56.0909 85.3471 55.8736 83.6161 55.6681 81.884C55.6606 81.8195 55.6369 81.756 55.5885 81.5688C54.7074 83.8097 53.8672 85.9452 53.0184 88.1043C52.5687 87.8311 52.3224 87.4406 52.1362 87.0038C51.4477 85.3869 50.7624 83.7689 50.0761 82.1508C50.0094 81.9949 49.9395 81.8399 49.7835 81.6926C49.7447 81.9346 49.7006 82.1756 49.6684 82.4176C49.4779 83.8399 49.2821 85.2621 49.1046 86.6864C49.0508 87.1189 48.9691 87.5729 49.3682 87.9688H47.8008C48.5345 86.5842 48.4118 85.0286 48.6937 83.5569C48.8195 82.8996 48.897 82.2305 48.9562 81.5624C48.9863 81.2246 48.9271 80.8792 48.9045 80.4866C49.3392 80.4866 49.8824 80.4747 50.4246 80.4995C50.5053 80.5027 50.6065 80.6652 50.6527 80.7727C51.3638 82.423 52.0674 84.0776 52.7742 85.73C52.8108 85.815 52.8538 85.8979 52.9431 86.0851L52.942 86.0872Z" fill="#FF1C25"/>
<path d="M68.4519 38.8573C68.3648 39.151 68.311 39.4145 68.2045 39.6555C68.1593 39.7577 68.0151 39.8438 67.8979 39.8804C67.7752 39.9191 67.6321 39.89 67.4977 39.89C59.9261 39.89 52.3546 39.89 44.7831 39.89C44.2947 39.89 43.987 39.6537 43.8601 39.1811C43.8364 39.0918 43.8149 39.0025 43.7773 38.8573H68.4519Z" fill="#FF1C25"/>
<path d="M41.3438 80.3779C41.0716 81.9206 40.8145 83.3816 40.5574 84.8414C40.5832 84.8629 40.6101 84.8834 40.6359 84.9049C41.1674 84.4584 41.6988 84.012 42.2969 83.5096C42.0732 83.4741 41.9376 83.4515 41.7472 83.4214C41.7892 83.1417 41.8161 82.8673 41.8806 82.6016C41.8978 82.5295 42.028 82.437 42.1076 82.4359C42.9639 82.4241 43.8214 82.4284 44.7412 82.4284C44.6691 82.848 44.6045 83.2202 44.5314 83.6484C43.6288 83.4009 43.2264 84.126 42.6692 84.5456C42.425 84.7296 42.2023 84.9415 41.9333 85.1717C42.3862 85.7505 42.8123 86.3153 43.2684 86.8543C43.348 86.9489 43.5567 86.9468 43.7084 86.9651C43.8515 86.9823 43.9978 86.9694 44.2033 86.9694C44.1484 87.3427 44.1108 87.6697 44.0462 87.9925C44.0333 88.0538 43.9182 88.1388 43.8504 88.1388C42.8725 88.1485 41.8946 88.1452 40.893 88.1452C40.9328 87.8935 40.9748 87.6837 40.9952 87.4718C41.0253 87.1587 41.0845 86.8855 41.5912 86.9597C41.205 86.4239 40.8715 85.9635 40.4573 85.389C40.353 85.9667 40.2691 86.4261 40.1798 86.9188C40.367 86.9511 40.5186 86.9769 40.6628 87.0016C40.6693 87.0296 40.6768 87.0436 40.6757 87.0565C40.5746 87.7845 40.1539 88.1485 39.4138 88.1485C38.9318 88.1485 38.4499 88.1485 37.9098 88.1485C37.9701 87.7762 38.0002 87.433 38.0959 87.1103C38.1196 87.0307 38.3563 86.9887 38.4983 86.9769C38.6909 86.9608 38.8641 86.9834 38.9103 86.7176C39.2019 85.0405 39.5052 83.3654 39.8129 81.6398C39.5537 81.6226 39.3223 81.6076 39.1007 81.5936C39.0889 81.5581 39.0803 81.5452 39.0814 81.5333C39.1474 80.7645 39.5651 80.3801 40.3347 80.3801H41.3438V80.3779Z" fill="#FF1C25"/>
<path d="M28.5094 83.1341C28.5417 83.0965 28.5675 83.0793 28.5751 83.0567C28.7149 82.635 29.019 82.4241 29.4874 82.4241C29.8359 82.4241 30.1855 82.4273 30.5341 82.4306C30.5728 82.4306 30.6105 82.4478 30.7138 82.4725C30.6514 82.8189 30.603 83.1686 30.5147 83.5085C30.4997 83.5688 30.3136 83.6279 30.2167 83.615C29.865 83.5698 29.7649 83.729 29.7122 84.0561C29.5584 85.0071 29.3636 85.9506 29.1775 86.936C29.4303 86.9565 29.6519 86.9748 29.8693 86.993C29.8757 87.035 29.8876 87.0619 29.8832 87.0866C29.7728 87.7931 29.354 88.1463 28.6267 88.1463C28.3341 88.1463 28.0415 88.1463 27.7327 88.1463V87.4815C27.6122 87.5621 27.524 87.6138 27.4433 87.6762C26.4902 88.4174 25.2874 88.4701 24.3407 87.8117C23.4585 87.1974 23.082 86.0098 23.4908 84.8974C23.9943 83.5289 24.9991 82.6597 26.4084 82.3144C27.141 82.1347 27.8263 82.295 28.3169 82.9469C28.3696 83.0169 28.4438 83.0717 28.5094 83.1341ZM28.2287 84.9673C28.2287 84.0292 27.425 83.3504 26.5052 83.5408C25.6134 83.7248 25.0206 84.2842 24.757 85.1416C24.4354 86.1905 25.1981 87.1125 26.2858 87.0415C27.2981 86.9748 28.2287 85.9818 28.2287 84.9673Z" fill="#FF1C25"/>
<path d="M76.4483 88.1732C74.5001 88.1581 72.8756 87.0113 72.4098 85.3202C71.7847 83.0524 73.236 80.7878 75.5898 80.3575C77.5994 79.9906 79.4638 80.8298 80.2685 82.465C81.5896 85.148 79.5499 88.1969 76.4483 88.1732ZM76.5236 87.3922C78.2643 87.3782 79.4251 86.1421 79.4068 84.3197C79.3885 82.4564 78.1148 81.0503 76.4516 81.0567C74.7335 81.0632 73.5178 82.3305 73.5211 84.112C73.5243 85.9355 74.8701 87.4051 76.5236 87.3911V87.3922Z" fill="#FF1C25"/>
<path d="M32.0574 83.6462C31.782 83.6301 31.5723 83.6182 31.3227 83.6032C31.384 83.2665 31.4281 82.9502 31.5077 82.6436C31.5303 82.5575 31.6551 82.4392 31.7358 82.437C32.3232 82.4198 32.9106 82.4273 33.5356 82.4273C33.5109 82.6888 33.4904 82.8953 33.4603 83.2041C33.6184 83.0577 33.7099 82.9706 33.8035 82.8856C34.4425 82.3047 35.429 82.1487 36.1638 82.5123C36.8588 82.8566 37.1707 83.3644 37.0793 84.1314C36.9846 84.9167 36.834 85.6945 36.7092 86.4756C36.6866 86.6187 36.6726 86.7628 36.6501 86.9446C36.8803 86.9586 37.0761 86.9705 37.3396 86.9866C37.2837 87.3707 37.2299 87.731 37.174 88.1172H34.3984C34.4522 87.7945 34.5071 87.4933 34.5501 87.1899C34.5856 86.9339 34.7728 86.9489 34.9428 86.9726C35.2547 87.0146 35.3645 86.8715 35.4064 86.581C35.4936 85.9839 35.613 85.3912 35.7141 84.7962C35.8475 84.0077 35.2042 83.3955 34.4221 83.586C33.7292 83.7549 33.2473 84.1357 33.1397 84.9017C33.0504 85.5386 32.9127 86.169 32.7998 86.8026C32.7933 86.8381 32.8127 86.8779 32.8256 86.9468C33.031 86.9597 33.2398 86.9737 33.4915 86.9887C33.442 87.3287 33.4076 87.645 33.342 87.9548C33.3258 88.029 33.2075 88.1345 33.1354 88.1355C32.2791 88.1485 31.4238 88.1441 30.5201 88.1441C30.5922 87.7289 30.6546 87.3642 30.7138 87.021C30.7805 86.9952 30.8052 86.978 30.83 86.9769C31.4636 86.9436 31.4668 86.9446 31.583 86.3088C31.7412 85.4385 31.8939 84.5682 32.0585 83.6451L32.0574 83.6462Z" fill="#FF1C25"/>
<path d="M67.6117 41.1778C67.3643 41.7888 66.9286 42.0944 66.3046 42.0944H45.9203C45.2941 42.0944 44.8566 41.7888 44.6078 41.1778H67.6117Z" fill="#FF1C25"/>
<path d="M84.4975 84.3692C85.5464 85.6106 86.3952 87.0318 87.8594 87.929C86.6674 88.1786 86.0768 87.9903 85.37 87.077C84.689 86.198 84.0478 85.2879 83.3905 84.3907C83.3367 84.3175 83.3001 84.2325 83.2399 84.1239C83.4776 84.0539 83.7089 84.0238 83.9015 83.9216C84.2393 83.7409 84.5997 83.5634 84.8644 83.2976C85.2344 82.9265 85.2742 82.4284 85.0774 81.9454C84.8697 81.4344 84.4373 81.1912 83.9112 81.1493C83.582 81.1235 83.2463 81.1826 82.8558 81.2063C82.8558 81.4021 82.8558 81.5581 82.8558 81.7141C82.8558 83.3654 82.8408 85.0157 82.8655 86.6671C82.872 87.1028 83 87.5363 83.0731 87.9752H81.3723C81.7639 87.5288 81.7445 86.9995 81.7434 86.4702C81.7402 84.9135 81.7574 83.3557 81.7327 81.7991C81.7262 81.3741 81.5982 80.9502 81.5132 80.4468C82.5535 80.4855 83.6767 80.4651 84.7847 80.5888C85.5712 80.677 86.1381 81.1805 86.2823 82.0099C86.4189 82.7952 86.0617 83.3977 85.4507 83.8485C85.1753 84.0507 84.8471 84.1809 84.4986 84.3681L84.4975 84.3692Z" fill="#FF1C25"/>
<path d="M91.3224 80.4855C91.6613 80.4855 92.1174 80.4661 92.5693 80.4995C92.679 80.5081 92.8199 80.6748 92.8716 80.7996C93.6537 82.6952 94.4121 84.6015 95.2061 86.4928C95.4244 87.0124 95.7429 87.4911 96.0022 87.9634H94.2594C94.2615 87.7074 94.3271 87.4266 94.254 87.1878C94.0679 86.5875 93.8312 86.0001 93.5827 85.4224C93.531 85.3029 93.3395 85.1717 93.2094 85.1685C92.4176 85.1448 91.6258 85.1448 90.834 85.1685C90.7027 85.1728 90.5102 85.2997 90.4596 85.4191C90.2305 85.9624 90.04 86.5208 89.841 87.0759C89.727 87.3943 89.6958 87.7052 90.0314 87.9774H88.2144C89.0277 87.3104 89.1988 86.3325 89.5678 85.4632C90.1175 84.1669 90.636 82.8587 91.1395 81.5441C91.2589 81.2321 91.26 80.876 91.3246 80.4866L91.3224 80.4855ZM93.1631 84.3293C92.7737 83.3342 92.4122 82.409 92.0034 81.3644C91.5903 82.4133 91.2234 83.3471 90.8361 84.3293H93.1631Z" fill="#FF1C25"/>
<path d="M66.2519 87.9806H64.3283C64.6747 87.7278 64.608 87.4427 64.4908 87.1447C64.2713 86.5832 64.0744 86.0108 63.8324 85.4589C63.7743 85.3266 63.5796 85.1739 63.4419 85.1696C62.6512 85.1427 61.8572 85.1448 61.0665 85.1674C60.9363 85.1717 60.7459 85.3008 60.6953 85.4202C60.4651 85.9624 60.2704 86.5208 60.0735 87.0759C59.967 87.376 59.9057 87.6794 60.2586 87.9613H58.4329C59.0612 87.518 59.2505 86.8532 59.5023 86.2249C60.1381 84.6446 60.7793 83.0674 61.3946 81.4795C61.5065 81.1912 61.5 80.8577 61.5581 80.4823C61.8906 80.4823 62.3435 80.4629 62.7932 80.4963C62.905 80.5049 63.0524 80.6609 63.103 80.7824C63.9002 82.7156 64.6726 84.6596 65.4805 86.5896C65.6828 87.0737 65.9905 87.5137 66.2519 87.9796V87.9806ZM61.0697 84.3293H63.3978C63.0159 83.3504 62.6544 82.4198 62.2918 81.4903C62.2574 81.4935 62.223 81.4968 62.1886 81.5C61.8239 82.423 61.4581 83.345 61.0697 84.3293Z" fill="#FF1C25"/>
<path d="M66.2304 43.4509C65.9485 43.9447 65.6742 44.247 65.0405 44.2438C59.1042 44.2137 53.1679 44.2126 47.2317 44.2438C46.5916 44.247 46.2828 43.9738 45.9934 43.4509H66.2304Z" fill="#FF1C25"/>
<path d="M65.3912 80.4984C65.7441 80.4984 66.0776 80.4941 66.4122 80.4995C66.736 80.5038 66.9587 80.6641 67.1254 80.9427C67.5945 81.7248 68.0764 82.4994 68.5552 83.2761C68.652 83.4343 68.7542 83.5892 68.8951 83.8097C69.2082 83.3418 69.489 82.9211 69.7697 82.5016C69.9709 82.2003 70.1786 81.9023 70.3711 81.5968C70.5852 81.2558 70.6853 80.9072 70.3033 80.521H72.0591C71.9526 80.6942 71.8751 80.8298 71.789 80.9599C71.0231 82.111 70.2485 83.2557 69.4965 84.4154C69.3814 84.5929 69.3201 84.8317 69.3072 85.0458C69.2803 85.5278 69.3029 86.0119 69.2975 86.4949C69.2921 87.0232 69.2878 87.5471 69.8397 87.9677H67.8527C68.4228 86.9554 68.0947 85.8462 68.155 84.7747C68.1603 84.6693 68.0721 84.552 68.0087 84.4509C67.3718 83.4246 66.7381 82.3961 66.0862 81.3806C65.8936 81.0804 65.643 80.8168 65.3902 80.4995L65.3912 80.4984Z" fill="#FF1C25"/>
<path d="M64.1089 45.6779C63.6753 46.1017 63.2579 46.3449 62.6382 46.3406C58.3167 46.3104 53.9952 46.3115 49.6748 46.3406C49.0412 46.3449 48.5678 46.1534 48.1224 45.6789H64.1089V45.6779Z" fill="#FF1C25"/>
<path d="M60.1133 47.8585C57.4464 48.7794 54.7795 48.7794 52.1104 47.8585H60.1133Z" fill="#FF1C25"/>
</g>
<rect x="1" y="1" width="110" height="110" rx="9" stroke="#CCCCCC" stroke-width="2"/>
<defs>
<clipPath id="clip0_421_546">
<rect x="2" y="2" width="108" height="108" rx="8" fill="white"/>
</clipPath>
</defs>
</svg>
