<svg width="112" height="112" viewBox="0 0 112 112" fill="none" xmlns="http://www.w3.org/2000/svg">
<g clip-path="url(#clip0_528_49)">
<rect x="2" y="2" width="108" height="108" rx="8" fill="white"/>
<path d="M22.406 57.8005C25.9367 57.8005 28.8005 54.9368 28.8005 51.406C28.8005 47.8752 25.9367 45 22.406 45C18.8752 45 16 47.8637 16 51.406C16 54.9483 18.8637 57.8005 22.3945 57.8005" fill="#292567"/>
<path d="M28.697 50.2214C28.3749 50.4169 23.9471 57.3979 23.9471 57.3979C22.7165 57.766 21.4054 57.5129 21.4054 57.5129L26.2703 50.6469C27.4089 49.0368 28.1679 48.7493 28.2254 48.7378C28.1449 48.5653 28.0644 48.3928 27.9609 48.2317C26.6843 48.5538 24.9132 50.0604 24.9132 50.0604L18.9097 54.7872V52.4871L24.4186 48.6458C25.9827 47.5992 27.3974 47.4957 27.4664 47.4842C27.3168 47.2887 27.1558 47.0932 26.9833 46.9206C26.9143 46.9206 24.6256 47.1162 18.9212 49.5888V48.3123C18.9212 48.3123 23.7171 46.4031 26.6038 46.5641C25.4767 45.5865 24.0161 45 22.4175 45C18.8637 45 16 47.8637 16 51.406C16 54.9483 18.8637 57.812 22.406 57.812C25.9482 57.812 28.8005 54.9483 28.8005 51.406C28.8005 51.0035 28.766 50.6124 28.6855 50.2329" fill="#C9252C"/>
<path d="M36.3566 53.0161C36.3566 53.8787 35.2065 53.8787 35.2065 53.8787H34.2519V52.1421H35.1145C36.4371 52.1421 36.3566 53.0161 36.3566 53.0161ZM34.2519 48.9448C34.8844 48.9448 35.31 49.0713 35.31 49.0713C35.816 49.2208 35.77 49.7384 35.77 49.7384C35.77 50.693 34.2519 50.5319 34.2519 50.5319V48.9448ZM38.6682 53.1886C38.6682 51.2795 36.8971 51.1185 36.8971 51.1185C38.0702 50.5894 37.8287 49.2208 37.8287 49.2208C37.8287 47.1392 35.2985 47.2542 35.2985 47.2542H32.0092V55.5693H35.7125C38.8522 55.5693 38.6797 53.1886 38.6797 53.1886" fill="#292567"/>
<path d="M42.9235 52.4411L43.8436 49.8419L44.7637 52.4411H42.9235ZM42.6015 47.2312L39.2318 55.5463H41.67L42.268 54.1202H45.3847L45.9368 55.5463H48.421L45.1317 47.2312H42.6015Z" fill="#292567"/>
<path d="M64.2806 51.222L67.7309 47.2427H64.9132L62.1645 50.6239V47.2427H59.9103V55.5578H62.1645V52.0041L65.0742 55.5578H68.0874L64.2806 51.222Z" fill="#292567"/>
<path d="M55.7815 47.2427V52.2916L51.6297 47.2427H49.364V55.5578H51.6297V50.5204L55.7815 55.5578H58.0472V47.2427H55.7815Z" fill="#292567"/>
<path d="M90.5141 52.4411L91.4227 49.8419L92.3428 52.4411H90.5141ZM90.1921 47.2312L86.8223 55.5463H89.2605L89.8586 54.1202H92.9753L93.5273 55.5463H96.0115L92.7223 47.2312H90.1921Z" fill="#292567"/>
<path d="M75.3215 47.2427H73.0558V55.5578H75.3215V47.2427Z" fill="#292567"/>
<path d="M83.5906 47.2427V52.2916L79.4388 47.2427H77.1731V55.5578H79.4388V50.5204L83.5906 55.5578H85.8563V47.2427H83.5906Z" fill="#292567"/>
<path d="M19.4733 65.1035L18.9672 63.0104L17.6331 65.1035H19.4733ZM19.5998 65.5866H17.3226L16.6556 66.6447H16L18.7717 62.4123H19.3698L20.4394 66.6447H19.8413L19.5883 65.5866H19.5998Z" fill="#292567"/>
<path d="M28.0529 62.4123L27.2134 66.6447H26.6268L27.2479 63.5854L25.2467 66.1386H24.9592L23.9011 63.5279L23.2801 66.6447H22.705L23.5446 62.4123H24.0391L25.2122 65.3911L27.5354 62.4123H28.0529Z" fill="#292567"/>
<path d="M29.019 64.8045H31.0892C31.1237 64.218 30.7441 63.896 30.1806 63.896C29.617 63.896 29.1685 64.2525 29.019 64.8045ZM28.9615 65.2301V65.2646C28.9615 65.8511 29.2835 66.1731 29.9736 66.1731C30.3761 66.1731 30.7326 66.0236 30.9626 65.8051L31.2157 66.2191C30.9051 66.5181 30.4106 66.6792 29.9276 66.6792C28.973 66.6792 28.3865 66.1386 28.3865 65.2876C28.3865 64.195 29.1455 63.4014 30.1921 63.4014C31.0547 63.4014 31.6297 63.919 31.6297 64.7815C31.6297 64.931 31.6067 65.0805 31.5837 65.207H28.95L28.9615 65.2301Z" fill="#292567"/>
<path d="M37.8172 64.471C37.8172 64.586 37.7942 64.7125 37.7712 64.8505L37.4146 66.6447H36.8281L37.1846 64.8505C37.2076 64.747 37.2191 64.655 37.2191 64.5745C37.2191 64.1605 36.9891 63.9305 36.5061 63.9305C35.9195 63.9305 35.517 64.2525 35.379 64.931L35.034 66.6447H34.4474L34.8154 64.8505C34.8384 64.7585 34.8499 64.6665 34.8499 64.5745C34.8499 64.1605 34.6199 63.9305 34.1369 63.9305C33.5388 63.9305 33.1478 64.264 33.0098 64.954L32.6763 66.6447H32.0897L32.7223 63.4359H33.2743L33.1938 63.8384C33.4813 63.5394 33.8724 63.4129 34.3094 63.4129C34.8154 63.4129 35.172 63.6084 35.333 63.9765C35.655 63.5969 36.1035 63.4129 36.6441 63.4129C37.3686 63.4129 37.8057 63.7924 37.8057 64.471" fill="#292567"/>
<path d="M41.5664 64.816C41.5664 64.2525 41.2214 63.919 40.6119 63.919C39.8873 63.919 39.3583 64.4825 39.3583 65.2761C39.3583 65.8396 39.7033 66.1731 40.3129 66.1731C41.0374 66.1731 41.5664 65.6096 41.5664 64.816ZM42.153 64.7815C42.153 65.8856 41.3824 66.6792 40.3359 66.6792C39.7723 66.6792 39.3583 66.4606 39.1628 66.0581L39.0363 66.6447H38.4842L39.3813 62.1593H39.9678L39.6343 63.8154C39.9218 63.5624 40.2898 63.4129 40.7384 63.4129C41.5549 63.4129 42.153 63.9305 42.153 64.793" fill="#292567"/>
<path d="M43.2456 64.8045H45.3157C45.3502 64.218 44.9707 63.896 44.4072 63.896C43.8436 63.896 43.3951 64.2525 43.2456 64.8045ZM43.1881 65.2301V65.2646C43.1881 65.8511 43.5101 66.1731 44.2001 66.1731C44.6027 66.1731 44.9592 66.0236 45.1892 65.8051L45.4422 66.2191C45.1317 66.5181 44.6372 66.6792 44.1541 66.6792C43.1996 66.6792 42.613 66.1386 42.613 65.2876C42.613 64.195 43.3721 63.4014 44.4187 63.4014C45.2812 63.4014 45.8563 63.919 45.8563 64.7815C45.8563 64.931 45.8333 65.0805 45.8103 65.207H43.1766L43.1881 65.2301Z" fill="#292567"/>
<path d="M48.6855 63.4129L48.5705 63.9765C48.5705 63.9765 48.4785 63.9765 48.421 63.9765C47.7769 63.9765 47.3514 64.31 47.2134 65.0575L46.8913 66.6562H46.3048L46.9373 63.4474H47.4894L47.3974 63.9305C47.6849 63.5624 48.0989 63.4244 48.674 63.4244" fill="#292567"/>
<path d="M53.2168 64.816C53.2168 64.2525 52.8718 63.919 52.2622 63.919C51.5377 63.919 51.0087 64.4825 51.0087 65.2761C51.0087 65.8396 51.3537 66.1731 51.9632 66.1731C52.6878 66.1731 53.2168 65.6096 53.2168 64.816ZM50.4221 65.2991C50.4221 64.218 51.2042 63.4129 52.3083 63.4129C53.2283 63.4129 53.8149 63.9535 53.8149 64.793C53.8149 65.8856 53.0328 66.6907 51.9402 66.6907C51.0317 66.6907 50.4336 66.1386 50.4336 65.2991" fill="#292567"/>
<path d="M55.609 63.1829L55.5515 63.4359H56.4831L56.3911 63.919H55.4825L54.9304 66.6447H54.3439L54.8959 63.919H54.3439L54.4359 63.4359H54.988L55.0455 63.1369C55.172 62.4928 55.5745 62.1248 56.23 62.1248C56.4946 62.1248 56.7476 62.1938 56.8971 62.3203L56.6556 62.7459C56.5406 62.6539 56.4026 62.5964 56.23 62.5964C55.885 62.5964 55.6895 62.7804 55.5975 63.1829" fill="#292567"/>
<path d="M57.8287 66.1846L58.0932 65.7016C58.4152 66.0006 58.9442 66.1846 59.4618 66.1846C60.1518 66.1846 60.6004 65.9201 60.6004 65.4601C60.6004 64.5745 58.4267 65.0345 58.4267 63.6774C58.4267 62.8724 59.1513 62.3663 60.1863 62.3663C60.7039 62.3663 61.1984 62.4928 61.5434 62.7229L61.3019 63.2174C60.9914 62.9874 60.5774 62.8839 60.1518 62.8839C59.4503 62.8839 59.0133 63.1829 59.0133 63.6314C59.0133 64.517 61.1869 64.103 61.1869 65.3911C61.1869 66.2191 60.4509 66.7137 59.3928 66.7137C58.7487 66.7137 58.1162 66.4951 57.8057 66.1961" fill="#292567"/>
<path d="M64.5797 64.816C64.5797 64.2525 64.2346 63.919 63.6251 63.919C62.9005 63.919 62.3715 64.4825 62.3715 65.2761C62.3715 65.8396 62.7165 66.1846 63.3261 66.1846C64.0506 66.1846 64.5797 65.6211 64.5797 64.8275M65.4422 63.4474L64.8097 66.6562H64.2576L64.3382 66.2651C64.0506 66.5411 63.6711 66.6907 63.2111 66.6907C62.3945 66.6907 61.7965 66.1731 61.7965 65.3106C61.7965 64.2065 62.567 63.4244 63.6136 63.4244C64.1656 63.4244 64.5682 63.6199 64.7752 63.9995L64.8902 63.4589H65.4767L65.4422 63.4474Z" fill="#292567"/>
<path d="M66.8108 62.1593H67.3974L66.5003 66.6447H65.9138L66.8108 62.1593Z" fill="#292567"/>
<path d="M68.3405 62.4698C68.3405 62.2513 68.513 62.0673 68.7545 62.0673C68.9615 62.0673 69.1225 62.2283 69.1225 62.4008C69.1225 62.6424 68.95 62.8149 68.697 62.8149C68.49 62.8149 68.329 62.6539 68.329 62.4698M68.2369 63.4359H68.8235L68.1909 66.6447H67.6044L68.2369 63.4359Z" fill="#292567"/>
<path d="M75.011 64.471C75.011 64.586 74.988 64.7125 74.965 64.8505L74.6084 66.6447H74.0219L74.3784 64.8505C74.4014 64.747 74.4129 64.655 74.4129 64.5745C74.4129 64.1605 74.1829 63.9305 73.7114 63.9305C73.1248 63.9305 72.7223 64.2525 72.5843 64.931L72.2393 66.6447H71.6527L72.0207 64.8505C72.0437 64.7585 72.0552 64.6665 72.0552 64.5745C72.0552 64.1605 71.8252 63.9305 71.3422 63.9305C70.7441 63.9305 70.3531 64.264 70.2151 64.954L69.8701 66.6447H69.2835L69.9161 63.4359H70.4681L70.3876 63.8384C70.6751 63.5394 71.0662 63.4129 71.5032 63.4129C72.0092 63.4129 72.3658 63.6084 72.5268 63.9765C72.8488 63.5969 73.2973 63.4129 73.8379 63.4129C74.5624 63.4129 74.9995 63.7924 74.9995 64.471" fill="#292567"/>
<path d="M80.7614 64.5055H81.3479L81.0144 66.1731C80.6119 66.5066 80.0483 66.7022 79.4733 66.7022C78.2082 66.7022 77.4491 65.9776 77.4491 64.9195C77.4491 63.5049 78.4612 62.3663 80.0598 62.3663C80.7959 62.3663 81.3594 62.5964 81.693 63.0219L81.2559 63.3899C80.9684 63.0564 80.5774 62.9069 80.0368 62.9069C78.8292 62.9069 78.0587 63.7809 78.0587 64.885C78.0587 65.6441 78.5647 66.1731 79.5423 66.1731C79.8988 66.1731 80.2094 66.0811 80.4969 65.9086L80.7729 64.517L80.7614 64.5055Z" fill="#292567"/>
<path d="M84.3612 63.4129L84.2576 63.9765C84.2576 63.9765 84.1656 63.9765 84.1081 63.9765C83.4641 63.9765 83.0386 64.31 82.9005 65.0575L82.5785 66.6562H81.992L82.6245 63.4474H83.1766L83.0846 63.9305C83.3721 63.5624 83.7746 63.4244 84.3497 63.4244" fill="#292567"/>
<path d="M87.1904 64.816C87.1904 64.2525 86.8453 63.919 86.2358 63.919C85.5112 63.919 84.9822 64.4825 84.9822 65.2761C84.9822 65.8396 85.3272 66.1731 85.9368 66.1731C86.6613 66.1731 87.1904 65.6096 87.1904 64.816ZM84.3957 65.2991C84.3957 64.218 85.1777 63.4129 86.2818 63.4129C87.2019 63.4129 87.7884 63.9535 87.7884 64.793C87.7884 65.8856 87.0064 66.6907 85.9138 66.6907C85.0052 66.6907 84.4072 66.1386 84.4072 65.2991" fill="#292567"/>
<path d="M91.8712 63.4359L91.2387 66.6447H90.6866L90.7671 66.2306C90.4681 66.5296 90.0656 66.6792 89.6171 66.6792C88.9155 66.6792 88.467 66.2881 88.467 65.5981C88.467 65.4831 88.4785 65.3681 88.5015 65.2301L88.858 63.4359H89.4445L89.088 65.2416C89.065 65.3451 89.0535 65.4256 89.0535 65.5176C89.0535 65.9316 89.295 66.1616 89.7896 66.1616C90.3991 66.1616 90.8246 65.8281 90.9627 65.138L91.2962 63.4359H91.8827H91.8712Z" fill="#292567"/>
<path d="M95.4135 64.816C95.4135 64.2525 95.0685 63.919 94.4589 63.919C93.7344 63.919 93.2053 64.4825 93.2053 65.2761C93.2053 65.8396 93.5503 66.1731 94.1599 66.1731C94.8844 66.1731 95.4135 65.6096 95.4135 64.816ZM96 64.7815C96 65.8856 95.2295 66.6792 94.1829 66.6792C93.6309 66.6792 93.2283 66.4721 93.0213 66.1041L92.6878 67.8177H92.1012L92.9753 63.4359H93.5274L93.4468 63.8384C93.7344 63.5624 94.1139 63.4129 94.5739 63.4129C95.3905 63.4129 95.9885 63.9305 95.9885 64.793" fill="#292567"/>
</g>
<rect x="1" y="1" width="110" height="110" rx="9" stroke="#CCCCCC" stroke-width="2"/>
<defs>
<clipPath id="clip0_528_49">
<rect x="2" y="2" width="108" height="108" rx="8" fill="white"/>
</clipPath>
</defs>
</svg>
