<svg width="112" height="112" viewBox="0 0 112 112" fill="none" xmlns="http://www.w3.org/2000/svg">
<g clip-path="url(#clip0_812_164)">
<rect x="1.99988" y="2" width="108" height="108" rx="8" fill="white"/>
<g clip-path="url(#clip1_812_164)">
<mask id="mask0_812_164" style="mask-type:luminance" maskUnits="userSpaceOnUse" x="-495" y="-14" width="734" height="532">
<path d="M-494.622 -13.8555H238.568V517.743H-494.622V-13.8555Z" fill="white"/>
</mask>
<g mask="url(#mask0_812_164)">
<path d="M57.947 49.5749C57.7303 50.065 57.4303 50.4547 57.0469 50.7442C56.6628 51.0346 56.2181 51.1793 55.711 51.1793C55.166 51.1793 54.6864 51.0054 54.2724 50.6577C53.8575 50.3092 53.5575 49.8458 53.3723 49.2652V46.5594C53.5575 45.9666 53.8575 45.5024 54.2724 45.1668C54.6864 44.832 55.166 44.6646 55.711 44.6646C56.2181 44.6646 56.6628 44.8062 57.0469 45.09C57.4303 45.3738 57.7303 45.7604 57.947 46.2496C58.1629 46.7397 58.2721 47.2936 58.2721 47.9123C58.2721 48.5309 58.1629 49.0857 57.947 49.5749ZM58.7824 43.0602C58.0958 42.5702 57.3001 42.3251 56.3976 42.3251C55.7781 42.3251 55.2096 42.4448 54.6897 42.6834C54.1705 42.9219 53.7306 43.2406 53.3723 43.64V38.9999H50.6625V53.2867H53.2793L53.3351 52.1457C53.6934 52.5589 54.1357 52.8905 54.6622 53.142C55.1878 53.3926 55.766 53.5188 56.3976 53.5188C57.3001 53.5188 58.0958 53.2705 58.7824 52.774C59.4689 52.2783 60.0099 51.6047 60.4062 50.7539C60.8016 49.9032 60.9997 48.9563 60.9997 47.9123C60.9997 46.8683 60.8016 45.9213 60.4062 45.0706C60.0099 44.2199 59.4689 43.5503 58.7824 43.0602Z" fill="#1751EC"/>
<path d="M68.4399 50.7544C68.0566 51.0383 67.6166 51.1798 67.1225 51.1798C66.6268 51.1798 66.1853 51.035 65.7955 50.7447C65.4057 50.4544 65.1025 50.0654 64.8857 49.5754C64.669 49.0853 64.5615 48.5314 64.5615 47.9128C64.5615 47.2941 64.669 46.7402 64.8857 46.2501C65.1025 45.7601 65.4057 45.3703 65.7955 45.0808C66.1853 44.7905 66.6268 44.6457 67.1225 44.6457C67.6166 44.6457 68.0566 44.7872 68.4399 45.0711C68.8232 45.3541 69.1232 45.7407 69.3399 46.2307C69.3771 46.3156 69.4111 46.4022 69.4418 46.4903V49.3344C69.4111 49.4234 69.3771 49.5099 69.3399 49.5948C69.1232 50.0849 68.8232 50.4714 68.4399 50.7544ZM69.4831 43.6567C69.1434 43.2718 68.7399 42.9604 68.2733 42.7219C67.7282 42.4453 67.1161 42.3062 66.4352 42.3062C65.5448 42.3062 64.7531 42.5545 64.0601 43.051C63.3671 43.5467 62.8228 44.2204 62.4266 45.0711C62.0311 45.9218 61.833 46.8688 61.833 47.9128C61.833 48.9568 62.0311 49.9037 62.4266 50.7544C62.8228 51.6052 63.3671 52.2788 64.0601 52.7745C64.7531 53.271 65.5448 53.5193 66.4352 53.5193C67.1161 53.5193 67.7282 53.3802 68.2733 53.1036C68.7399 52.8659 69.1434 52.5513 69.4831 52.1615L69.5348 53.2872H72.1703V42.5383H69.5348L69.4831 43.6567Z" fill="#1751EC"/>
<path d="M82.1606 42.8475C81.5743 42.4997 80.8683 42.3251 80.0435 42.3251C79.2963 42.3251 78.5709 42.5159 77.8689 42.896C77.446 43.1248 77.0643 43.4418 76.7231 43.8462L76.6608 42.5571H73.9153V53.2866H76.757V46.78C77.1395 46.0999 77.5261 45.6002 77.9175 45.2832C78.3938 44.8966 78.9154 44.7034 79.4831 44.7034C79.9861 44.7034 80.388 44.8805 80.6912 45.2347C80.9937 45.5897 81.1457 46.0563 81.1457 46.6361V53.2866H83.9874V46.4622C83.9874 45.6382 83.8297 44.916 83.5135 44.2974C83.1981 43.6788 82.7469 43.1952 82.1606 42.8475Z" fill="#1751EC"/>
<path d="M88.422 49.8069L89.9399 48.3165L92.6942 53.2866H96.0001L91.9963 46.2981L95.8068 42.5571H92.192L90.2973 44.4713L88.2481 46.8876L88.422 43.7176V39.0006H85.5803V53.2866H88.422V49.8069Z" fill="#1751EC"/>
<path d="M59.3858 63.0366C58.9726 62.8045 58.5198 62.6209 58.0257 62.4859C57.5316 62.35 57.0383 62.2441 56.5442 62.1664C56.0501 62.0896 55.5964 62.0023 55.184 61.9052C54.7716 61.809 54.44 61.6837 54.1893 61.5284C53.9386 61.3739 53.8141 61.1548 53.8141 60.8718C53.8141 60.5111 53.9693 60.237 54.2807 60.0501C54.592 59.8633 55.0247 59.7695 55.5802 59.7695C56.2158 59.7695 56.7334 59.9022 57.1329 60.1658C57.5316 60.4302 57.745 60.8071 57.7717 61.2963H60.5325C60.4379 60.1626 59.9438 59.2795 59.0511 58.6479C58.1575 58.0171 56.9938 57.701 55.5592 57.701C54.6122 57.701 53.7834 57.8392 53.0733 58.1166C52.3625 58.394 51.8078 58.7805 51.4083 59.2762C51.0096 59.7728 50.8099 60.3558 50.8099 61.0262C50.8099 61.619 50.9344 62.109 51.1851 62.4956C51.4358 62.8821 51.7673 63.191 52.1798 63.4231C52.5922 63.6552 53.0458 63.842 53.5399 63.9835C54.034 64.1259 54.5273 64.2447 55.0214 64.3418C55.5155 64.438 55.9684 64.5383 56.3816 64.641C56.794 64.7445 57.1256 64.8828 57.3763 65.0566C57.6262 65.2305 57.7515 65.4602 57.7515 65.7432C57.7515 66.078 57.576 66.3424 57.2243 66.5357C56.8717 66.729 56.4051 66.826 55.8236 66.826C55.0522 66.826 54.4432 66.6489 53.9968 66.2939C53.5505 65.9397 53.3402 65.4464 53.3677 64.8149H50.5867C50.5996 65.6526 50.8228 66.378 51.2563 66.9902C51.6897 67.6023 52.3019 68.0722 53.0936 68.4013C53.8852 68.7296 54.8015 68.8938 55.8439 68.8938C57.3456 68.8938 58.54 68.5881 59.4263 67.976C60.3126 67.3638 60.7557 66.5228 60.7557 65.4529C60.7557 64.8343 60.6304 64.3353 60.3805 63.9552C60.1298 63.5752 59.7983 63.2687 59.3858 63.0366Z" fill="#1751EC"/>
<path d="M68.3649 66.1299C67.9815 66.4138 67.5416 66.5553 67.0475 66.5553C66.5526 66.5553 66.1103 66.4105 65.7205 66.1202C65.3307 65.8299 65.0275 65.4409 64.8107 64.9509C64.594 64.4608 64.4865 63.9069 64.4865 63.2882C64.4865 62.6696 64.594 62.1157 64.8107 61.6256C65.0275 61.1356 65.3307 60.7458 65.7205 60.4563C66.1103 60.166 66.5526 60.0212 67.0475 60.0212C67.5416 60.0212 67.9815 60.1627 68.3649 60.4466C68.7482 60.7296 69.0482 61.1161 69.2649 61.6062C69.3021 61.6911 69.3361 61.7776 69.3668 61.8666V64.7099C69.3361 64.7988 69.3021 64.8854 69.2649 64.9703C69.0482 65.4603 68.7482 65.8469 68.3649 66.1299ZM69.408 59.0322C69.0684 58.6473 68.6649 58.3359 68.1983 58.0974C67.6532 57.8208 67.0411 57.6817 66.361 57.6817C65.4698 57.6817 64.6781 57.93 63.9851 58.4265C63.292 58.9222 62.7478 59.5958 62.3524 60.4466C61.9561 61.2973 61.758 62.2442 61.758 63.2882C61.758 64.3322 61.9561 65.2792 62.3524 66.1299C62.7478 66.9806 63.292 67.6543 63.9851 68.15C64.6781 68.6465 65.4698 68.8948 66.361 68.8948C67.0411 68.8948 67.6532 68.7557 68.1983 68.4791C68.6649 68.2414 69.0684 67.9268 69.408 67.537L69.4598 68.6627H72.0953V57.9138H69.4598L69.408 59.0322Z" fill="#1751EC"/>
<path d="M81.161 64.6993C80.975 65.2662 80.6717 65.7174 80.2512 66.0522C79.8307 66.3878 79.3544 66.5552 78.8223 66.5552C78.3274 66.5552 77.8883 66.4105 77.505 66.1201C77.1208 65.8298 76.8184 65.4409 76.5952 64.9508C76.3728 64.4607 76.2612 63.9068 76.2612 63.2882C76.2612 62.6695 76.3728 62.1156 76.5952 61.6255C76.8184 61.1355 77.1208 60.7489 77.505 60.4659C77.8883 60.1821 78.3274 60.0405 78.8223 60.0405C79.3544 60.0405 79.8307 60.2047 80.2512 60.533C80.6717 60.8622 80.975 61.3102 81.161 61.877V64.6993ZM81.1982 59.0354C80.8391 58.6229 80.4 58.297 79.8808 58.0585C79.3609 57.8207 78.7786 57.701 78.1357 57.701C77.2454 57.701 76.4529 57.9461 75.7607 58.4353C75.0676 58.9254 74.5234 59.5958 74.1271 60.4465C73.7309 61.2972 73.5336 62.2442 73.5336 63.2882C73.5336 64.3322 73.7309 65.2791 74.1271 66.1298C74.5234 66.9806 75.0676 67.6542 75.7607 68.1499C76.4529 68.6464 77.2454 68.8939 78.1357 68.8939C78.7544 68.8939 79.3237 68.775 79.8428 68.5365C80.3628 68.2987 80.8019 67.9793 81.161 67.5798V72.1035H83.8886V57.9331H81.254L81.1982 59.0354Z" fill="#1751EC"/>
<path d="M92.7502 64.4393C92.3677 65.1202 91.9812 65.6192 91.5906 65.9362C91.1135 66.3235 90.5919 66.516 90.0242 66.516C89.522 66.516 89.1193 66.3397 88.816 65.9847C88.5128 65.6305 88.3616 65.1631 88.3616 64.5833V57.9327H85.5199V64.7571C85.5199 65.582 85.6776 66.3041 85.9938 66.9219C86.3092 67.5406 86.7604 68.0242 87.3467 68.3719C87.933 68.7204 88.6389 68.8943 89.4638 68.8943C90.211 68.8943 90.9364 68.7034 91.6383 68.3242C92.0613 68.0953 92.4429 67.7783 92.7842 67.374L92.8465 68.6622H95.5919V57.9327H92.7502V64.4393Z" fill="#1751EC"/>
</g>
<path d="M31.5896 39.0009C28.8045 39.0009 26.5467 41.2587 26.5467 44.0438C26.5467 46.9315 28.887 49.2726 31.7748 49.2726H40.2909C40.6782 49.2726 40.9929 48.9589 40.9929 48.5707V39.7028C40.9929 39.3155 40.6782 39.0009 40.2909 39.0009H31.5896ZM16 47.6052V47.606C16 52.3392 19.8727 56.2119 24.6051 56.2119C24.8056 56.2119 24.9674 56.0493 24.9674 55.8496V39.3624C24.9674 39.1626 24.8056 39.0009 24.6051 39.0009C19.8727 39.0009 16 42.8728 16 47.6052ZM33.9752 51.8151V68.3015C33.9752 68.5013 34.1377 68.6638 34.3374 68.6638C39.0706 68.6638 42.9434 64.7911 42.9434 60.0579C42.9434 55.3256 39.0706 51.4528 34.3374 51.4528C34.1377 51.4528 33.9752 51.6154 33.9752 51.8151ZM18.6516 58.3912C18.2643 58.3912 17.9497 58.7058 17.9497 59.094V67.9619C17.9497 68.3493 18.2643 68.6638 18.6516 68.6638H27.3538C30.1388 68.6638 32.3967 66.4052 32.3967 63.6209C32.3967 60.7331 30.0555 58.3912 27.1678 58.3912H18.6516Z" fill="url(#paint0_linear_812_164)"/>
</g>
</g>
<rect x="1" y="1" width="110" height="110" rx="9" stroke="#CCCCCC" stroke-width="2"/>
<defs>
<linearGradient id="paint0_linear_812_164" x1="17.5925" y1="67.989" x2="41.3505" y2="39.6753" gradientUnits="userSpaceOnUse">
<stop stop-color="#FF5564"/>
<stop offset="0.128864" stop-color="#FF5564"/>
<stop offset="0.382729" stop-color="#FF5564"/>
<stop offset="1" stop-color="#FFC700"/>
</linearGradient>
<clipPath id="clip0_812_164">
<rect x="2" y="2" width="108" height="108" rx="8" fill="white"/>
</clipPath>
<clipPath id="clip1_812_164">
<rect width="80" height="33.1034" fill="white" transform="translate(16 39)"/>
</clipPath>
</defs>
</svg>
