<svg width="112" height="112" viewBox="0 0 112 112" fill="none" xmlns="http://www.w3.org/2000/svg">
<g clip-path="url(#clip0_517_517)">
<rect x="2" y="2" width="108" height="108" rx="8" fill="white"/>
<path fill-rule="evenodd" clip-rule="evenodd" d="M16 40H96V72.1608H16V40Z" fill="#224192"/>
<path fill-rule="evenodd" clip-rule="evenodd" d="M19.3769 64.0469V63.7695C19.6007 63.6355 19.7695 63.5149 19.8861 63.4037C19.933 62.8596 19.9571 61.6603 19.9571 59.8017C19.9571 58.4549 19.937 57.5035 19.8982 56.9447C19.8781 56.6419 19.8379 56.465 19.7762 56.4127C19.6891 56.335 19.3916 56.2841 18.8824 56.2599V55.7775L20.8764 55.8137C21.1404 55.8137 21.5263 55.807 22.0409 55.795C22.538 55.7829 22.8972 55.7775 23.1116 55.7775C23.9812 55.7775 24.6057 55.9223 24.9809 56.2117C25.3575 56.5038 25.5464 56.8991 25.5464 57.403C25.5464 57.9202 25.3615 58.345 24.9889 58.6707C24.6178 58.999 24.0925 59.2321 23.4144 59.3728V59.4211C24.1126 59.4921 24.6017 59.598 24.8844 59.7414C25.1672 59.8821 25.3936 60.1032 25.5652 60.4033C25.738 60.7035 25.8251 61.0425 25.8251 61.4271C25.8251 61.8961 25.6817 62.3397 25.3977 62.7578C25.1149 63.1759 24.7384 63.4961 24.2693 63.7159C23.8003 63.937 23.1397 64.0469 22.2888 64.0469C22.1199 64.0469 21.868 64.0415 21.5303 64.0295C21.2168 64.0174 20.9595 64.0107 20.7598 64.0107C20.536 64.0107 20.075 64.0228 19.3769 64.0469ZM21.6348 59.1692H21.943C22.6064 59.1692 23.074 59.0486 23.3434 58.81C23.6127 58.5675 23.7481 58.1923 23.7481 57.6804C23.7481 57.2315 23.6395 56.8991 23.4198 56.6888C23.2 56.4757 22.8409 56.3685 22.3397 56.3685C22.1548 56.3685 21.927 56.3846 21.659 56.4167C21.6389 57.6268 21.6295 58.3665 21.6295 58.6385L21.6348 59.1692ZM21.6469 63.3836C21.8747 63.4398 22.0891 63.468 22.2915 63.468C22.8489 63.468 23.2791 63.3072 23.5766 62.9869C23.8767 62.6653 24.0255 62.1936 24.0255 61.5705C24.0255 61.1658 23.9571 60.8335 23.8218 60.5749C23.6851 60.3162 23.4988 60.1259 23.2603 59.9986C23.0231 59.8713 22.6827 59.8097 22.2432 59.8097L21.6469 59.8151V59.9678L21.6348 61.5022L21.6469 63.0512V63.3836ZM32.2841 63.5645V64.0469L31.8271 64.0295C31.5859 64.0174 31.3461 64.0107 31.1049 64.0107C30.7323 64.0107 30.3799 64.0228 30.0489 64.0469L29.99 63.9826L30.0503 63.1705L28.8228 64.0924C28.603 64.142 28.4087 64.1688 28.2399 64.1688C27.8245 64.1688 27.5028 64.0429 27.275 63.7963C27.0486 63.5484 26.936 63.1879 26.936 62.7109C26.936 62.1253 27.0901 61.7125 27.3997 61.474C27.799 61.1604 28.6821 60.8777 30.0503 60.6311C30.0422 60.1675 29.9618 59.8311 29.8104 59.6248C29.596 59.3367 29.2637 59.1933 28.8147 59.1933C28.7089 59.1933 28.6017 59.2053 28.4891 59.2321C28.3779 59.2576 28.2653 59.2965 28.1528 59.3527L27.8888 59.9785L27.4787 59.878L27.4908 59.6141L27.4854 59.3554L27.4787 59.1196C28.0804 58.747 28.5132 58.5112 28.7772 58.4187C28.9675 58.3491 29.2355 58.3129 29.5772 58.3129C30.0422 58.3129 30.4188 58.3826 30.7109 58.5219C31.0003 58.6626 31.2134 58.8516 31.3461 59.0928C31.4814 59.3326 31.5471 59.6824 31.5471 60.1434C31.5471 60.3363 31.539 60.6807 31.5229 61.1779C31.5069 61.6884 31.4988 62.1012 31.4988 62.412C31.4988 62.9038 31.5136 63.204 31.5417 63.3112C31.5551 63.3728 31.594 63.4211 31.657 63.4573C31.7173 63.4935 31.9263 63.5283 32.2841 63.5645ZM30.0503 61.1377C29.3588 61.2864 28.9059 61.4499 28.6982 61.6241C28.4891 61.7996 28.3846 62.0355 28.3846 62.3316C28.3846 62.5728 28.4503 62.7618 28.5856 62.8985C28.7183 63.0378 28.8898 63.1062 29.0921 63.1062C29.4044 63.1062 29.7246 62.9306 30.0503 62.5809V61.1377ZM32.9005 64.0469V63.5645C33.3199 63.5404 33.5558 63.5068 33.6107 63.4613C33.6643 63.4157 33.6965 63.3152 33.7085 63.1584C33.7327 62.7618 33.7447 62.061 33.7447 61.0586C33.7447 60.5641 33.7367 60.138 33.7206 59.7789C33.7126 59.5605 33.6992 59.4291 33.675 59.3916C33.6563 59.3594 33.6241 59.334 33.5839 59.3206C33.5424 59.3045 33.3119 59.2911 32.9005 59.2777V58.8194C33.1109 58.8194 33.4432 58.7738 33.8921 58.6827C34.341 58.5903 34.7189 58.4857 35.0245 58.3665L35.1839 58.3129C35.2389 58.3129 35.267 58.3571 35.267 58.4469L35.2603 58.5018C35.2482 58.6117 35.2415 58.8945 35.2415 59.3514L36.1541 58.5836C36.268 58.4857 36.3846 58.4187 36.5079 58.3826C36.6794 58.337 36.8898 58.3129 37.1364 58.3129C37.5518 58.3129 37.8921 58.3852 38.1575 58.5273C38.4214 58.672 38.6171 58.8703 38.739 59.1249C38.8623 59.3795 38.9253 59.7735 38.9253 60.3082C38.9253 60.5454 38.9186 60.8201 38.9065 61.1296C38.8864 61.7675 38.8771 62.3182 38.8771 62.7832C38.8771 63.0499 38.8985 63.2321 38.9414 63.3353C38.9735 63.405 39.0178 63.4519 39.074 63.476C39.1317 63.5001 39.3474 63.5283 39.7213 63.5645V64.0469L38.995 64.0228L38.5286 64.0107L37.3106 64.0469L37.2462 63.9705C37.3508 63.2241 37.403 62.4563 37.403 61.6683C37.403 60.6713 37.3427 60.0549 37.2208 59.8231C37.0627 59.5243 36.7772 59.3755 36.3605 59.3755C36.0938 59.3755 35.862 59.4439 35.6663 59.5779C35.4693 59.7146 35.3434 59.8593 35.2844 60.0134C35.2563 60.075 35.2415 60.2747 35.2415 60.611C35.2415 62.0355 35.2482 62.8516 35.2603 63.0593C35.2724 63.267 35.3072 63.3929 35.3608 63.4398C35.4332 63.5001 35.6985 63.5404 36.1595 63.5645V64.0469C35.4761 64.0228 34.8985 64.0107 34.4268 64.0107C34.1481 64.0107 33.6389 64.0228 32.9005 64.0469ZM40.2144 64.0469V63.5645C40.6365 63.5484 40.8831 63.5202 40.9554 63.4814C40.9889 63.4573 41.0171 63.4238 41.0372 63.3755C41.0693 63.2884 41.0895 62.8945 41.1015 62.1923C41.1136 61.4874 41.1203 60.7571 41.1203 59.9973C41.1203 59.3822 41.1096 58.5943 41.0895 57.6308C41.0734 56.9273 41.056 56.54 41.0332 56.4636C41.0131 56.3873 40.9715 56.3283 40.9072 56.2921C40.8442 56.2532 40.6124 56.2318 40.2144 56.2238V55.8017C40.7424 55.7507 41.1685 55.6878 41.4968 55.6181C41.8238 55.5457 42.1226 55.4492 42.3933 55.3286C42.4683 55.2978 42.5233 55.2817 42.5528 55.2817C42.6117 55.2817 42.6412 55.334 42.6412 55.4412L42.6318 55.6945C42.6171 55.9866 42.6037 57.0934 42.593 59.0151L42.5809 60.6646L42.593 60.9889C43.4224 60.2867 44.2801 59.4398 45.1632 58.4455C45.4432 58.4697 45.6925 58.4817 45.9109 58.4817C46.1735 58.4817 46.4523 58.4697 46.7471 58.4455V58.928C46.3102 58.9521 46.0489 58.9789 45.9578 59.007C45.8667 59.0365 45.7327 59.1196 45.5558 59.2563C45.3802 59.3929 44.8871 59.8218 44.0804 60.5427L44.9313 61.5035C45.9096 62.6144 46.4844 63.2429 46.66 63.3876C46.7725 63.4867 46.9293 63.5444 47.133 63.5645V64.0469C46.6921 64.0228 46.2874 64.0107 45.9176 64.0107C45.6322 64.0107 45.3481 64.0228 45.0707 64.0469C44.6794 63.5323 44.2908 63.0553 43.9008 62.6144C43.3715 62.0154 42.9347 61.5504 42.593 61.2248V62.1762C42.593 62.727 42.6171 63.1022 42.6653 63.2991C42.6841 63.3849 42.7243 63.4452 42.7846 63.4774C42.8422 63.5122 43.0861 63.5404 43.5109 63.5645V64.0469C42.7498 64.0228 42.2405 64.0107 41.9833 64.0107C41.7353 64.0107 41.1457 64.0228 40.2144 64.0469Z" fill="#F08519"/>
<path fill-rule="evenodd" clip-rule="evenodd" d="M48.0389 61.5678H48.5441C48.5481 62.1481 48.5668 62.4884 48.6003 62.5889C48.6352 62.6881 48.7464 62.8194 48.9394 62.9816C49.1323 63.1437 49.3802 63.2764 49.6871 63.3782C49.9926 63.48 50.3062 63.531 50.6291 63.531C51.1826 63.531 51.6234 63.3849 51.9571 63.0901C52.2881 62.7966 52.4543 62.4295 52.4543 61.9926C52.4543 61.5879 52.3444 61.2797 52.1246 61.0653C51.9022 60.8482 51.4801 60.6955 50.8556 60.6057C49.9323 60.473 49.3079 60.3296 48.9863 60.1702C48.6633 60.0147 48.4087 59.7802 48.2224 59.4666C48.0348 59.1517 47.9437 58.7779 47.9437 58.3383C47.9437 57.6027 48.2023 56.9769 48.7196 56.4663C49.2382 55.9544 50.0637 55.6998 51.2027 55.6998C51.6476 55.6998 52.0429 55.7333 52.3899 55.8003C52.7343 55.866 53.0814 55.9759 53.4298 56.1286L53.4888 56.2693C53.4245 56.5172 53.3802 56.741 53.3548 56.9407C53.328 57.139 53.3039 57.4847 53.2838 57.9752H52.7786C52.7585 57.3722 52.7303 57.0331 52.6901 56.9594C52.6164 56.8308 52.4275 56.6941 52.1246 56.5521C51.8231 56.41 51.476 56.3377 51.0861 56.3377C50.5514 56.3377 50.136 56.4677 49.8412 56.729C49.5464 56.9889 49.399 57.3239 49.399 57.7353C49.399 57.9859 49.4593 58.2043 49.5812 58.3906C49.7018 58.5742 49.872 58.7135 50.0878 58.802C50.3062 58.8891 50.7739 58.9896 51.4894 59.1035C52.1407 59.2 52.5802 59.2965 52.8134 59.3903C53.1913 59.543 53.4807 59.7762 53.675 60.0884C53.872 60.4033 53.9698 60.7986 53.9698 61.2757C53.9698 62.1038 53.6523 62.7926 53.0198 63.3447C52.3833 63.8941 51.5176 64.1688 50.4188 64.1688C49.9296 64.1688 49.4848 64.1219 49.0854 64.0281C48.6874 63.9343 48.2734 63.7789 47.8472 63.5631C47.9169 63.2898 47.9638 63.0419 47.9879 62.8194C48.0174 62.5099 48.0348 62.0931 48.0389 61.5678ZM54.8824 56.2894V55.8084C55.6797 55.8325 56.3819 55.8445 56.9849 55.8445C57.3682 55.8445 57.9095 55.8325 58.6104 55.8084V56.2894C58.2499 56.2894 57.9953 56.3216 57.8466 56.3832C57.7943 56.4033 57.7541 56.4355 57.7233 56.4837C57.6804 56.5373 57.6509 56.6298 57.6348 56.7611C57.6121 56.9795 57.592 57.612 57.5759 58.6546C57.5678 59.3809 57.5638 60.1179 57.5638 60.8683C57.5638 61.4834 57.6348 61.9363 57.7742 62.2258C57.9149 62.5139 58.1199 62.7283 58.3906 62.869C58.7792 63.07 59.2067 63.1705 59.665 63.1705C60.2948 63.1705 60.7745 63.066 61.1042 62.8569C61.4379 62.6506 61.6603 62.3638 61.7729 61.9993C61.8868 61.6335 61.9431 60.8348 61.9431 59.6033L61.9363 57.4258C61.9323 56.9353 61.9082 56.6405 61.8667 56.5414C61.8425 56.4878 61.8023 56.4462 61.742 56.4194C61.6482 56.3631 61.3628 56.3216 60.8844 56.2894V55.8084C61.391 55.8325 61.8613 55.8445 62.2874 55.8445C62.6586 55.8445 63.1116 55.8325 63.6503 55.8084V56.2894C63.2616 56.2894 63.0191 56.3336 62.9226 56.4194C62.8275 56.5052 62.7685 56.729 62.7484 57.0894C62.7042 57.9671 62.6801 58.9615 62.676 60.0723C62.676 60.7826 62.668 61.2476 62.6519 61.4673C62.6104 62.0087 62.4777 62.4697 62.2593 62.8529C62.0395 63.2362 61.6764 63.5511 61.1672 63.7976C60.658 64.0442 60.0241 64.1688 59.2683 64.1688C58.4831 64.1688 57.8291 64.0496 57.3079 63.8151C56.7866 63.5792 56.4154 63.2817 56.197 62.9239C55.9786 62.5648 55.8687 62.0395 55.8687 61.344L55.8928 58.6948C55.8928 58.4844 55.8848 57.9457 55.8687 57.0774C55.8606 56.8067 55.8298 56.6218 55.7802 56.5239C55.7481 56.4703 55.7012 56.4261 55.6355 56.3953C55.5712 56.3631 55.3206 56.3296 54.8824 56.2894ZM64.2868 64.0482V63.5672L64.6379 63.543C64.9219 63.5269 65.0988 63.476 65.1712 63.3929C65.2422 63.3099 65.2851 63.0271 65.2972 62.5447C65.3213 61.5785 65.3333 60.5293 65.3333 59.4023C65.3333 58.8033 65.3307 58.1213 65.3266 57.3574C65.3226 56.8965 65.2972 56.6137 65.2503 56.5119C65.2261 56.4623 65.1846 56.4194 65.1203 56.3899C65.0586 56.3578 64.7799 56.3256 64.2868 56.2894V55.8084C64.7598 55.8164 65.2221 55.8204 65.6764 55.8204C66.203 55.8204 66.7109 55.8164 67.2 55.8084C67.4104 56.3055 67.6288 56.7986 67.8553 57.2878C68.0161 57.6348 68.725 59.1115 69.9819 61.7179C71.3193 59.0419 72.256 57.0707 72.7893 55.8084C73.2596 55.8325 73.7072 55.8445 74.1307 55.8445C74.6278 55.8445 75.1062 55.8325 75.5699 55.8084V56.2894C75.0499 56.3216 74.7578 56.3671 74.6894 56.4261C74.6238 56.4851 74.5796 56.6687 74.5595 56.9755C74.5353 57.4687 74.5233 58.4067 74.5233 59.7883C74.5233 60.4837 74.5286 61.2208 74.5407 61.9953C74.5528 62.7712 74.5796 63.2094 74.6198 63.3139C74.6479 63.3742 74.6854 63.4211 74.7377 63.4519C74.7899 63.4841 75.066 63.5229 75.5699 63.5672V64.0482C74.936 64.0241 74.3692 64.012 73.872 64.012C73.3709 64.012 72.6901 64.0241 71.8285 64.0482V63.5672L72.1715 63.5551C72.4422 63.543 72.6124 63.5042 72.6781 63.4412C72.7464 63.3742 72.7906 63.204 72.8107 62.9253C72.8295 62.6465 72.8389 61.9953 72.8389 60.9688V57.4218C72.2332 58.6345 71.4613 60.2251 70.5219 62.1896C70.136 62.999 69.8358 63.6569 69.6188 64.1688H69.2382C68.9434 63.4921 68.5508 62.6412 68.059 61.608L66.0302 57.4218V58.2204C66.0302 60.4288 66.0382 61.9511 66.0543 62.7846C66.0663 63.1236 66.1106 63.334 66.1896 63.413C66.2673 63.4921 66.5595 63.543 67.0647 63.5672V64.0482C66.668 64.0241 66.2687 64.012 65.872 64.012C65.2784 64.012 64.7518 64.0241 64.2868 64.0482ZM76.2667 56.2894V55.8084C77.0653 55.8325 77.7675 55.8445 78.3705 55.8445C78.7538 55.8445 79.2951 55.8325 79.996 55.8084V56.2894C79.6355 56.2894 79.3809 56.3216 79.2322 56.3832C79.1799 56.4033 79.1397 56.4355 79.1075 56.4837C79.066 56.5373 79.0365 56.6298 79.0204 56.7611C78.9977 56.9795 78.9776 57.612 78.9615 58.6546C78.9534 59.3809 78.9494 60.1179 78.9494 60.8683C78.9494 61.4834 79.0204 61.9363 79.1598 62.2258C79.3005 62.5139 79.5055 62.7283 79.7762 62.869C80.1648 63.07 80.5923 63.1705 81.0506 63.1705C81.6804 63.1705 82.1601 63.066 82.4898 62.8569C82.8235 62.6506 83.0459 62.3638 83.1585 61.9993C83.2724 61.6335 83.3286 60.8348 83.3286 59.6033L83.3219 57.4258C83.3179 56.9353 83.2938 56.6405 83.2523 56.5414C83.2281 56.4878 83.1879 56.4462 83.1276 56.4194C83.0338 56.3631 82.7484 56.3216 82.27 56.2894V55.8084C82.7766 55.8325 83.2456 55.8445 83.673 55.8445C84.0442 55.8445 84.4971 55.8325 85.0358 55.8084V56.2894C84.6472 56.2894 84.4047 56.3336 84.3082 56.4194C84.2131 56.5052 84.1541 56.729 84.134 57.0894C84.0898 57.9671 84.0657 58.9615 84.0616 60.0723C84.0616 60.7826 84.0536 61.2476 84.0375 61.4673C83.996 62.0087 83.8633 62.4697 83.6449 62.8529C83.4251 63.2362 83.062 63.5511 82.5528 63.7976C82.0435 64.0442 81.4097 64.1688 80.6539 64.1688C79.8687 64.1688 79.2147 64.0496 78.6935 63.8151C78.1722 63.5792 77.801 63.2817 77.5826 62.9239C77.3642 62.5648 77.2543 62.0395 77.2543 61.344L77.2784 58.6948C77.2784 58.4844 77.269 57.9457 77.2543 57.0774C77.2462 56.8067 77.2154 56.6218 77.1658 56.5239C77.1337 56.4703 77.0868 56.4261 77.0211 56.3953C76.9568 56.3631 76.7062 56.3296 76.2667 56.2894ZM87.3193 64.0482V63.5672C87.5404 63.5672 87.7709 63.5471 88.0094 63.5082C88.1219 63.4881 88.1997 63.4559 88.2479 63.4104C88.2948 63.3661 88.3283 63.2844 88.3524 63.1625C88.3779 62.9936 88.402 62.3759 88.4208 61.3079C88.4328 60.5481 88.4382 59.7735 88.4382 58.9842C88.4382 57.4298 88.4342 56.6405 88.4248 56.6097C88.4141 56.5802 88.276 56.5655 88.008 56.5655C87.4626 56.5655 86.9936 56.5816 86.5983 56.6137C86.3719 56.6325 86.2432 56.6526 86.2137 56.6727C86.1829 56.6928 86.1615 56.7263 86.1454 56.7759C86.1293 56.8268 86.0972 57.1739 86.0449 57.8171H85.5397C85.5477 57.0573 85.5276 56.4033 85.4794 55.8566L85.5437 55.8084C86.7779 55.8646 87.9799 55.8928 89.1457 55.8928C90.3089 55.8928 91.6127 55.8646 93.0533 55.8084L93.1176 55.9048C93.0439 56.4476 92.9916 57.0854 92.9621 57.8171H92.4677C92.4328 57.1511 92.398 56.7879 92.3618 56.7343C92.3363 56.6901 92.2734 56.6606 92.1756 56.6445C91.8633 56.5923 91.2415 56.5655 90.3089 56.5655C90.2312 56.5655 90.1842 56.5775 90.1682 56.6017C90.1534 56.6285 90.1467 56.733 90.1467 56.9125L90.1105 60.8616C90.1105 62.0074 90.1213 62.7082 90.1414 62.9695C90.1588 63.2295 90.207 63.3889 90.2807 63.4425C90.333 63.4787 90.6399 63.5202 91.2054 63.5672V64.0482C90.6318 64.0241 90.0221 64.012 89.3789 64.012C88.5333 64.012 87.8472 64.0241 87.3193 64.0482Z" fill="#FEFEFE"/>
<path fill-rule="evenodd" clip-rule="evenodd" d="M42.4683 68.4181V68.2854L42.5662 68.2787C42.6452 68.2733 42.6935 68.2599 42.7136 68.2372C42.7337 68.213 42.7457 68.1353 42.7484 68.0013C42.7551 67.7333 42.7591 67.4425 42.7591 67.1303C42.7591 66.9641 42.7578 66.7752 42.7564 66.5635C42.7564 66.4348 42.7484 66.3571 42.7363 66.3276C42.7296 66.3142 42.7176 66.3022 42.7002 66.2941C42.6827 66.2861 42.605 66.2767 42.4683 66.266V66.1333C42.5997 66.136 42.7283 66.136 42.8543 66.136C43.0003 66.136 43.141 66.136 43.2764 66.1333C43.3353 66.2713 43.3956 66.408 43.4586 66.5434C43.5028 66.6398 43.6998 67.0499 44.0482 67.7722C44.4194 67.0298 44.6781 66.4831 44.8268 66.1333C44.9568 66.14 45.0814 66.1427 45.198 66.1427C45.336 66.1427 45.4687 66.14 45.5973 66.1333V66.266C45.4539 66.2754 45.3722 66.2888 45.3534 66.3048C45.3347 66.3209 45.3226 66.3718 45.3173 66.4563C45.3106 66.5929 45.3079 66.8543 45.3079 67.2362C45.3079 67.4291 45.3092 67.6342 45.3119 67.8486C45.3159 68.0643 45.3226 68.1862 45.3333 68.2144C45.3414 68.2318 45.3521 68.2439 45.3668 68.2532C45.3816 68.2626 45.458 68.272 45.5973 68.2854V68.4181C45.4218 68.4114 45.265 68.4087 45.127 68.4087C44.9876 68.4087 44.7987 68.4114 44.5601 68.4181V68.2854L44.6553 68.2814C44.7303 68.2787 44.7772 68.268 44.796 68.2492C44.8147 68.2318 44.8268 68.1836 44.8322 68.1072C44.8375 68.0295 44.8402 67.8486 44.8402 67.5645V66.5809C44.6727 66.9172 44.4583 67.3581 44.197 67.9035C44.0911 68.1273 44.0067 68.3095 43.9477 68.4516H43.8419C43.7601 68.264 43.6516 68.0281 43.5149 67.7414L42.9521 66.5809V66.802C42.9521 67.4144 42.9548 67.8365 42.9588 68.0683C42.9615 68.1621 42.9749 68.2197 42.9963 68.2425C43.0178 68.264 43.0995 68.2787 43.2389 68.2854V68.4181C43.129 68.4114 43.0178 68.4087 42.9079 68.4087C42.743 68.4087 42.597 68.4114 42.4683 68.4181ZM47.1518 68.1018L47.1987 68.1501L47.1263 68.3055C47.0472 68.3538 46.9642 68.3899 46.8744 68.4154C46.7846 68.4395 46.6894 68.4516 46.5889 68.4516C46.3518 68.4516 46.1655 68.3832 46.0288 68.2452C45.8921 68.1085 45.8238 67.9156 45.8238 67.6663C45.8238 67.5082 45.8439 67.3782 45.8841 67.275C45.9176 67.1919 45.9712 67.1223 46.0449 67.0673C46.1199 67.011 46.2057 66.9588 46.3022 66.9092C46.4 66.8583 46.5072 66.8342 46.6224 66.8342C46.8007 66.8342 46.9481 66.8837 47.0647 66.9829C47.1799 67.0821 47.2389 67.2429 47.2389 67.464C47.2389 67.4908 47.2362 67.5323 47.2322 67.5872L46.9655 67.6355C46.8824 67.6422 46.7645 67.6449 46.6077 67.6449H46.2553C46.2714 67.8311 46.3276 67.9718 46.4228 68.067C46.5179 68.1608 46.6399 68.2077 46.7873 68.2077C46.8489 68.2077 46.9106 68.1996 46.9709 68.1809C47.0325 68.1635 47.0915 68.1367 47.1518 68.1018ZM46.2446 67.4707C46.3424 67.48 46.4402 67.4841 46.538 67.4841C46.6238 67.4841 46.7136 67.48 46.8087 67.4707L46.81 67.3943C46.81 67.2616 46.7859 67.1638 46.7363 67.1022C46.6881 67.0405 46.6211 67.011 46.538 67.011C46.4791 67.011 46.4281 67.0244 46.3866 67.0539C46.3437 67.0821 46.3129 67.1223 46.2915 67.1745C46.2714 67.2268 46.2553 67.3259 46.2446 67.4707ZM47.4693 68.4181V68.2854C47.5806 68.28 47.6435 68.2733 47.6596 68.2626C47.6757 68.2519 47.6851 68.2331 47.6891 68.2063C47.6985 68.1541 47.7025 68.0268 47.7025 67.8285C47.7025 67.4104 47.6972 67.1839 47.6864 67.1491C47.6784 67.1196 47.6395 67.1048 47.5739 67.1035L47.4693 67.1008V66.9735C47.602 66.9588 47.7146 66.9414 47.8084 66.9199C47.9022 66.8985 47.9866 66.873 48.063 66.8422C48.0777 66.8368 48.0898 66.8342 48.0965 66.8342C48.1112 66.8342 48.1193 66.8476 48.1193 66.8744C48.1193 66.8958 48.1179 66.9226 48.1152 66.9588C48.1139 66.9735 48.1126 67.0017 48.1126 67.0405V67.0995L48.3792 66.8971C48.4355 66.8543 48.5213 66.8342 48.6365 66.8342C48.7518 66.8342 48.8442 66.8569 48.9126 66.9012C48.9809 66.9467 49.0332 67.0191 49.068 67.1196L49.3454 66.8971C49.3977 66.8543 49.4727 66.8342 49.5678 66.8342C49.738 66.8342 49.864 66.8757 49.9444 66.9588C50.0248 67.0432 50.0637 67.1785 50.0637 67.3675L50.061 67.5028C50.0569 67.6529 50.0543 67.7869 50.0543 67.9048C50.0543 68.0603 50.0596 68.1608 50.069 68.2063C50.0757 68.2318 50.0864 68.2492 50.1025 68.2599C50.1173 68.2693 50.1789 68.2787 50.2848 68.2854V68.4181C50.1494 68.4114 50.0315 68.4087 49.931 68.4087C49.8332 68.4087 49.7313 68.4114 49.6268 68.4181L49.6067 68.3873C49.6362 68.1541 49.6509 67.9263 49.6509 67.7038C49.6509 67.4398 49.6295 67.275 49.5893 67.2094C49.5491 67.1437 49.4767 67.1102 49.3749 67.1102C49.3065 67.1102 49.2476 67.1276 49.1966 67.1611C49.1471 67.1946 49.1122 67.2335 49.0961 67.2764C49.0854 67.3072 49.0801 67.4023 49.0801 67.5631C49.0801 67.8499 49.0841 68.0482 49.0921 68.1581C49.0948 68.2063 49.1055 68.2372 49.1216 68.2519C49.139 68.2653 49.2087 68.276 49.3307 68.2854V68.4181C49.1886 68.4114 49.0492 68.4087 48.9126 68.4087C48.741 68.4087 48.5883 68.4114 48.4529 68.4181V68.2854C48.5588 68.2854 48.6204 68.2693 48.6392 68.2385C48.658 68.2077 48.666 68.071 48.666 67.8298C48.666 67.5551 48.6606 67.3836 48.6499 67.3166C48.6392 67.2482 48.6137 67.1973 48.5709 67.1625C48.5293 67.1276 48.473 67.1102 48.398 67.1102C48.3444 67.1102 48.2948 67.1223 48.2519 67.1477C48.2064 67.1732 48.1702 67.208 48.1394 67.2536C48.1219 67.279 48.1126 67.3179 48.1126 67.3702L48.1139 67.4318C48.1179 67.4626 48.1193 67.5471 48.1193 67.6878L48.1179 67.8807C48.1179 68.0656 48.1206 68.1742 48.1273 68.2077C48.1313 68.2291 48.1394 68.2452 48.1541 68.2559C48.1688 68.2653 48.2291 68.2747 48.3323 68.2854V68.4181C48.2037 68.4114 48.0616 68.4087 47.9062 68.4087C47.8526 68.4087 47.7065 68.4114 47.4693 68.4181ZM50.7229 68.4516L50.6452 68.4208C50.6653 68.1581 50.676 67.795 50.676 67.3313C50.676 67.1209 50.6734 66.9588 50.6707 66.8449L50.6613 66.4268C50.6613 66.3625 50.6559 66.3196 50.6439 66.2981C50.6372 66.2847 50.6238 66.2754 50.6037 66.27C50.5903 66.266 50.526 66.2606 50.4121 66.2566V66.14C50.471 66.14 50.5662 66.1266 50.6961 66.1025C50.8275 66.077 50.924 66.0516 50.9896 66.0234L51.0606 65.9966C51.0821 65.9966 51.0928 66.0087 51.0928 66.0355L51.0874 66.2057C51.0848 66.2646 51.0807 66.5728 51.0754 67.1276L51.2724 66.9641C51.3353 66.9119 51.3903 66.877 51.4399 66.8596C51.4894 66.8422 51.5484 66.8342 51.6181 66.8342C51.8017 66.8342 51.9477 66.8918 52.0576 67.0084C52.1688 67.1249 52.2238 67.2764 52.2238 67.464C52.2238 67.5564 52.2077 67.6516 52.1782 67.7494C52.1474 67.8486 52.1099 67.929 52.0643 67.9906C52.0188 68.0536 51.9611 68.1085 51.8888 68.1568C51.799 68.2144 51.7226 68.2666 51.6596 68.3149C51.5846 68.3712 51.5216 68.4087 51.4707 68.4261C51.4198 68.4422 51.3568 68.4516 51.2831 68.4516C51.2107 68.4516 51.1424 68.4422 51.0794 68.4234C51.0164 68.406 50.9454 68.3725 50.865 68.3243C50.8395 68.343 50.7926 68.3859 50.7229 68.4516ZM51.0754 67.2991V68.0469C51.1156 68.1072 51.1638 68.1514 51.2214 68.1822C51.2777 68.213 51.342 68.2278 51.4131 68.2278C51.5296 68.2278 51.6235 68.1822 51.6945 68.0898C51.7668 67.996 51.803 67.8553 51.803 67.6663C51.803 67.4881 51.7668 67.3541 51.6931 67.263C51.6194 67.1732 51.5243 67.1276 51.405 67.1276C51.342 67.1276 51.2831 67.1424 51.2281 67.1705C51.1732 67.1986 51.1223 67.2429 51.0754 67.2991ZM53.8238 68.1018L53.8707 68.1501L53.7983 68.3055C53.7193 68.3538 53.6348 68.3899 53.5464 68.4154C53.4566 68.4395 53.3615 68.4516 53.2596 68.4516C53.0238 68.4516 52.8375 68.3832 52.7008 68.2452C52.5642 68.1085 52.4958 67.9156 52.4958 67.6663C52.4958 67.5082 52.5159 67.3782 52.5561 67.275C52.5896 67.1919 52.6419 67.1223 52.7169 67.0673C52.792 67.011 52.8777 66.9588 52.9742 66.9092C53.072 66.8583 53.1779 66.8342 53.2945 66.8342C53.4727 66.8342 53.6201 66.8837 53.7367 66.9829C53.8519 67.0821 53.9109 67.2429 53.9109 67.464C53.9109 67.4908 53.9082 67.5323 53.9042 67.5872L53.6375 67.6355C53.5544 67.6422 53.4352 67.6449 53.2797 67.6449H52.926C52.942 67.8311 52.9983 67.9718 53.0948 68.067C53.19 68.1608 53.3119 68.2077 53.4593 68.2077C53.5209 68.2077 53.5826 68.1996 53.6429 68.1809C53.7032 68.1635 53.7635 68.1367 53.8238 68.1018ZM52.9166 67.4707C53.0144 67.48 53.1122 67.4841 53.21 67.4841C53.2958 67.4841 53.3856 67.48 53.4807 67.4707L53.4821 67.3943C53.4821 67.2616 53.458 67.1638 53.4084 67.1022C53.3601 67.0405 53.2931 67.011 53.21 67.011C53.1511 67.011 53.1002 67.0244 53.0586 67.0539C53.0157 67.0821 52.9849 67.1223 52.9635 67.1745C52.9434 67.2268 52.9273 67.3259 52.9166 67.4707ZM54.0704 68.4181V68.2854C54.1802 68.2787 54.2432 68.2733 54.2593 68.2653C54.2714 68.2586 54.2821 68.2492 54.2901 68.2345C54.3022 68.2077 54.3089 68.1514 54.3116 68.0616C54.3156 67.9035 54.3183 67.7588 54.3183 67.6288C54.3183 67.3769 54.3142 67.2281 54.3075 67.1826C54.3049 67.1544 54.2941 67.1357 54.2794 67.1236C54.262 67.1129 54.1936 67.1048 54.0704 67.1008V66.9735C54.2901 66.9521 54.4469 66.9266 54.5407 66.8971L54.7082 66.8342C54.7229 66.8342 54.731 66.8435 54.731 66.865L54.7296 66.8878C54.7256 66.9561 54.7243 67.0539 54.7243 67.1826C54.7792 67.129 54.8409 67.062 54.9065 66.9802C54.9561 66.9199 55.0003 66.8797 55.0365 66.861C55.0727 66.8435 55.1223 66.8342 55.1839 66.8342C55.2174 66.8342 55.2523 66.8395 55.2884 66.8516C55.2791 66.9601 55.271 67.1089 55.2683 67.2951L55.196 67.3206C55.1705 67.279 55.1437 67.2496 55.1142 67.2335C55.0848 67.2161 55.0459 67.2067 54.999 67.2067C54.9347 67.2067 54.8797 67.2241 54.8328 67.2576C54.7873 67.2911 54.7564 67.33 54.7444 67.3742C54.7363 67.4063 54.731 67.5176 54.731 67.7065C54.731 67.9826 54.735 68.1434 54.7417 68.1889C54.7471 68.2197 54.7565 68.2398 54.7725 68.2506C54.798 68.2666 54.8784 68.2787 55.0151 68.2854V68.4181L54.8328 68.4127C54.7176 68.41 54.6171 68.4087 54.5327 68.4087C54.4536 68.4087 54.3598 68.41 54.2539 68.4127L54.0704 68.4181ZM55.8901 66.0529C55.9598 66.0529 56.0201 66.077 56.0683 66.1266C56.1179 66.1762 56.1434 66.2365 56.1434 66.3075C56.1434 66.3772 56.1179 66.4362 56.0683 66.4857C56.0201 66.5353 55.9598 66.5594 55.8888 66.5594C55.8191 66.5594 55.7588 66.5353 55.7106 66.4857C55.661 66.4362 55.6355 66.3772 55.6355 66.3075C55.6355 66.2365 55.661 66.1762 55.7106 66.1266C55.7588 66.077 55.8191 66.0529 55.8901 66.0529ZM55.4358 68.4181V68.2854C55.5591 68.28 55.6301 68.2733 55.6489 68.2626C55.669 68.2506 55.6811 68.2211 55.6864 68.1702C55.6945 68.1018 55.6998 67.9517 55.6998 67.7172C55.6998 67.6167 55.6972 67.5243 55.6945 67.4372L55.6891 67.2469C55.6891 67.1839 55.6824 67.145 55.669 67.1303C55.6556 67.1156 55.6181 67.1075 55.5591 67.1062L55.4358 67.1008V66.9735C55.6972 66.9534 55.9129 66.9065 56.0817 66.8342L56.1233 66.8663C56.1072 67.074 56.0992 67.3769 56.0992 67.7735C56.0992 68.004 56.1032 68.142 56.1112 68.1903C56.1166 68.2238 56.126 68.2452 56.1407 68.2559C56.1554 68.2653 56.2265 68.2747 56.3538 68.2854V68.4181C56.1581 68.4114 56.0054 68.4087 55.8982 68.4087C55.8405 68.4087 55.6864 68.4114 55.4358 68.4181ZM56.5266 68.4181V68.2854C56.6432 68.28 56.7116 68.272 56.7317 68.2626C56.741 68.2559 56.7491 68.2452 56.7544 68.2331C56.7625 68.209 56.7678 68.0991 56.7719 67.9062C56.7745 67.7105 56.7772 67.5095 56.7772 67.2991C56.7772 67.129 56.7745 66.9119 56.7678 66.6452C56.7638 66.4509 56.7585 66.3437 56.7531 66.3223C56.7477 66.3022 56.7357 66.2861 56.7183 66.2754C56.7008 66.2646 56.6365 66.2593 56.5266 66.2566V66.14C56.6727 66.1253 56.7906 66.1092 56.8804 66.0891C56.9715 66.069 57.0533 66.0422 57.1283 66.0087C57.1497 66.0007 57.1645 65.9966 57.1725 65.9966C57.1886 65.9966 57.1966 66.0114 57.1966 66.0409L57.194 66.1105C57.1899 66.1909 57.1859 66.4965 57.1832 67.0271L57.1806 67.4841L57.1832 67.5739C57.4124 67.3795 57.6496 67.145 57.8935 66.8703C57.9712 66.877 58.0395 66.8811 58.1012 66.8811C58.1722 66.8811 58.2499 66.877 58.3317 66.8703V67.0043C58.2111 67.011 58.1387 67.0177 58.1132 67.0258C58.0878 67.0338 58.0516 67.0566 58.002 67.0941C57.9538 67.1316 57.8171 67.2509 57.5946 67.4492L57.8291 67.7159C58.0998 68.0228 58.2593 68.1956 58.3075 68.2358C58.3384 68.2626 58.3812 68.2787 58.4375 68.2854V68.4181C58.3169 68.4114 58.2044 68.4087 58.1025 68.4087C58.0234 68.4087 57.9444 68.4114 57.868 68.4181C57.7608 68.276 57.6536 68.1447 57.5451 68.0228C57.399 67.8566 57.2784 67.728 57.1832 67.6382V67.9008C57.1832 68.0536 57.19 68.1568 57.2034 68.2117C57.2087 68.2358 57.2194 68.2519 57.2369 68.2613C57.2529 68.2707 57.3199 68.2787 57.4379 68.2854V68.4181C57.2275 68.4114 57.0868 68.4087 57.0157 68.4087C56.9474 68.4087 56.7839 68.4114 56.5266 68.4181ZM60.0791 68.2854V68.4181L59.9531 68.4127C59.8861 68.41 59.8191 68.4087 59.7534 68.4087C59.6503 68.4087 59.5524 68.4114 59.4613 68.4181L59.4452 68.4007L59.4613 68.1755L59.1223 68.4301C59.062 68.4449 59.0084 68.4516 58.9615 68.4516C58.8462 68.4516 58.7578 68.4167 58.6948 68.3484C58.6318 68.28 58.601 68.1809 58.601 68.0496C58.601 67.8874 58.6439 67.7735 58.7296 67.7065C58.8395 67.6208 59.0834 67.543 59.4613 67.4747C59.46 67.346 59.4372 67.2536 59.3956 67.196C59.3353 67.1169 59.2442 67.0767 59.1196 67.0767C59.0901 67.0767 59.062 67.0807 59.0298 67.0874C58.999 67.0955 58.9682 67.1062 58.9374 67.1209L58.865 67.2938L58.7511 67.2656L58.7538 67.1933L58.7524 67.1223L58.7511 67.0566C58.9173 66.9534 59.0365 66.8891 59.1102 66.8636C59.1625 66.8435 59.2362 66.8342 59.3313 66.8342C59.46 66.8342 59.5631 66.8529 59.6436 66.8918C59.724 66.9306 59.7829 66.9829 59.8191 67.0499C59.8566 67.1156 59.8754 67.212 59.8754 67.3393C59.8754 67.3929 59.8727 67.4881 59.8687 67.6248C59.8647 67.7668 59.862 67.8807 59.862 67.9665C59.862 68.1018 59.866 68.1849 59.874 68.2144C59.8781 68.2318 59.8888 68.2452 59.9049 68.2559C59.9223 68.2653 59.9799 68.2747 60.0791 68.2854ZM59.4613 67.6141C59.271 67.6556 59.1451 67.6998 59.0874 67.7494C59.0298 67.7976 59.0017 67.862 59.0017 67.9437C59.0017 68.0107 59.0191 68.063 59.0566 68.1005C59.0941 68.1393 59.141 68.1581 59.1973 68.1581C59.2831 68.1581 59.3715 68.1099 59.4613 68.0134V67.6141ZM60.2492 68.4181V68.2854C60.3658 68.2787 60.4302 68.268 60.4449 68.2559C60.4596 68.2439 60.469 68.2157 60.473 68.1728C60.4797 68.063 60.4824 67.87 60.4824 67.5926C60.4824 67.4559 60.4797 67.338 60.4757 67.2388C60.473 67.1785 60.469 67.1424 60.4623 67.1316C60.4583 67.1223 60.4489 67.1156 60.4382 67.1129C60.4261 67.1075 60.3631 67.1035 60.2492 67.1008V66.9735C60.3069 66.9735 60.3993 66.9615 60.5226 66.936C60.6472 66.9105 60.7518 66.8811 60.8362 66.8489L60.8804 66.8342C60.8951 66.8342 60.9032 66.8462 60.9032 66.8703L60.9005 66.8864C60.8978 66.9159 60.8965 66.995 60.8965 67.1209L61.1484 66.9092C61.1792 66.8811 61.2114 66.8636 61.2462 66.8529C61.2931 66.8409 61.3508 66.8342 61.4191 66.8342C61.5343 66.8342 61.6281 66.8543 61.7018 66.8931C61.7742 66.9333 61.8278 66.9883 61.8626 67.0579C61.8961 67.1276 61.9136 67.2375 61.9136 67.3849C61.9136 67.4506 61.9122 67.5269 61.9082 67.6127C61.9028 67.7883 61.9002 67.941 61.9002 68.0697C61.9002 68.142 61.9069 68.1929 61.9176 68.2211C61.927 68.2412 61.939 68.2532 61.9551 68.2599C61.9712 68.2666 62.0301 68.2747 62.1333 68.2854V68.4181L61.9337 68.4114L61.8037 68.4087L61.4673 68.4181L61.4499 68.3966C61.4794 68.1903 61.4928 67.9785 61.4928 67.7615C61.4928 67.4854 61.4767 67.3152 61.4419 67.2509C61.399 67.1678 61.3199 67.1276 61.2047 67.1276C61.131 67.1276 61.0667 67.1464 61.0131 67.1839C60.9595 67.2214 60.9233 67.2616 60.9072 67.3032C60.9005 67.3206 60.8965 67.3755 60.8965 67.468C60.8965 67.862 60.8978 68.0884 60.9005 68.1447C60.9045 68.2023 60.9139 68.2372 60.9286 68.2506C60.9487 68.2666 61.0224 68.2787 61.1497 68.2854V68.4181C60.9608 68.4114 60.8013 68.4087 60.6714 68.4087C60.5936 68.4087 60.4529 68.4114 60.2492 68.4181ZM63.1504 68.4181V68.2854C63.2791 68.2747 63.3528 68.2653 63.3702 68.2532C63.3836 68.2465 63.393 68.2358 63.3997 68.2197C63.4104 68.1916 63.4184 68.079 63.4238 67.8807C63.4291 67.6824 63.4305 67.4908 63.4305 67.3045C63.4305 66.9561 63.4278 66.7082 63.4198 66.5594C63.4131 66.4107 63.4023 66.3263 63.3863 66.3089C63.3702 66.2914 63.3233 66.2807 63.2456 66.2754L63.1504 66.266V66.1333L63.334 66.1387C63.4492 66.1414 63.539 66.1427 63.606 66.1427C63.6985 66.1427 63.8472 66.1414 64.0523 66.1373C64.1635 66.1347 64.2452 66.1333 64.2975 66.1333C64.4918 66.1333 64.6352 66.1521 64.7276 66.1883C64.8201 66.2244 64.8911 66.2807 64.9394 66.3558C64.9876 66.4295 65.0117 66.5233 65.0117 66.6345C65.0117 66.8355 64.9407 67.0043 64.7973 67.141C64.6553 67.2764 64.4744 67.3447 64.2533 67.3447C64.2251 67.3447 64.1956 67.342 64.1648 67.338C64.1327 67.334 64.0992 67.3273 64.063 67.3206C64.0442 67.2817 64.0255 67.2442 64.004 67.2067L64.0415 67.1678C64.0657 67.1718 64.0884 67.1759 64.1085 67.1799C64.1273 67.1826 64.1461 67.1839 64.1621 67.1839C64.272 67.1839 64.3618 67.1464 64.4315 67.07C64.5012 66.9936 64.5347 66.8864 64.5347 66.7497C64.5347 66.5983 64.4985 66.4844 64.4275 66.4094C64.3551 66.3343 64.2492 66.2968 64.1099 66.2968C64.0536 66.2968 63.9879 66.3048 63.9116 66.3196C63.8995 66.6559 63.8941 66.94 63.8941 67.1745C63.8941 67.2522 63.8995 67.5028 63.9075 67.9249C63.9102 68.0924 63.9156 68.1876 63.9236 68.213C63.929 68.2318 63.9397 68.2439 63.9544 68.2519C63.9786 68.264 64.071 68.2747 64.2318 68.2854V68.4181C64.0402 68.4114 63.8781 68.4087 63.7467 68.4087C63.6878 68.4087 63.4894 68.4114 63.1504 68.4181ZM66.5166 68.1018L66.5621 68.1501L66.4898 68.3055C66.4107 68.3538 66.3276 68.3899 66.2379 68.4154C66.1481 68.4395 66.0529 68.4516 65.9524 68.4516C65.7152 68.4516 65.529 68.3832 65.3923 68.2452C65.257 68.1085 65.1886 67.9156 65.1886 67.6663C65.1886 67.5082 65.2087 67.3782 65.2489 67.275C65.2811 67.1919 65.3347 67.1223 65.4084 67.0673C65.4834 67.011 65.5692 66.9588 65.667 66.9092C65.7635 66.8583 65.8707 66.8342 65.9873 66.8342C66.1655 66.8342 66.3116 66.8837 66.4281 66.9829C66.5447 67.0821 66.6023 67.2429 66.6023 67.464C66.6023 67.4908 66.601 67.5323 66.5956 67.5872L66.329 67.6355C66.2472 67.6422 66.128 67.6449 65.9712 67.6449H65.6188C65.6348 67.8311 65.6911 67.9718 65.7863 68.067C65.8814 68.1608 66.0034 68.2077 66.1508 68.2077C66.2124 68.2077 66.274 68.1996 66.3357 68.1809C66.396 68.1635 66.4563 68.1367 66.5166 68.1018ZM65.608 67.4707C65.7059 67.48 65.8037 67.4841 65.9028 67.4841C65.9873 67.4841 66.0784 67.48 66.1722 67.4707L66.1735 67.3943C66.1735 67.2616 66.1494 67.1638 66.1012 67.1022C66.0516 67.0405 65.9859 67.011 65.9028 67.011C65.8425 67.011 65.793 67.0244 65.7501 67.0539C65.7085 67.0821 65.6764 67.1223 65.6563 67.1745C65.6348 67.2268 65.6201 67.3259 65.608 67.4707ZM66.8194 66.2338V66.14C66.9749 66.1199 67.0968 66.0985 67.1866 66.0757C67.2764 66.0543 67.3729 66.0234 67.4774 65.9832L67.5203 66.0194C67.5042 66.4067 67.4961 66.9494 67.4961 67.6449C67.4961 67.7856 67.4988 67.9276 67.5028 68.071C67.5055 68.1621 67.5109 68.2157 67.5189 68.2305C67.527 68.2452 67.539 68.2559 67.5578 68.2653C67.5752 68.2733 67.6395 68.28 67.7508 68.2854V68.4181L67.5779 68.4127C67.472 68.41 67.3809 68.4087 67.3085 68.4087L66.8194 68.4181V68.2854L66.9414 68.2787C66.995 68.276 67.0298 68.2653 67.0459 68.2479C67.062 68.2305 67.0714 68.1621 67.074 68.0442C67.0807 67.8794 67.0834 67.6449 67.0834 67.3434L67.0807 66.6465C67.0807 66.4335 67.074 66.3142 67.0633 66.2874C67.0593 66.274 67.0513 66.2646 67.0392 66.2579C67.0191 66.2459 66.9467 66.2378 66.8194 66.2338ZM69.4352 68.2854V68.4181L69.3092 68.4127C69.2422 68.41 69.1752 68.4087 69.1095 68.4087C69.0064 68.4087 68.9085 68.4114 68.8174 68.4181L68.8013 68.4007L68.8174 68.1755L68.4784 68.4301C68.4181 68.4449 68.3645 68.4516 68.3176 68.4516C68.2023 68.4516 68.1139 68.4167 68.0509 68.3484C67.9879 68.28 67.9571 68.1809 67.9571 68.0496C67.9571 67.8874 68 67.7735 68.0858 67.7065C68.1956 67.6208 68.4395 67.543 68.8174 67.4747C68.8161 67.346 68.7933 67.2536 68.7518 67.196C68.6915 67.1169 68.6003 67.0767 68.4757 67.0767C68.4462 67.0767 68.4181 67.0807 68.3859 67.0874C68.3551 67.0955 68.3243 67.1062 68.2935 67.1209L68.2211 67.2938L68.1072 67.2656L68.1112 67.1933L68.1085 67.1223L68.1072 67.0566C68.2734 66.9534 68.3926 66.8891 68.4663 66.8636C68.5186 66.8435 68.5923 66.8342 68.6874 66.8342C68.8161 66.8342 68.9193 66.8529 68.9997 66.8918C69.0801 66.9306 69.139 66.9829 69.1752 67.0499C69.2127 67.1156 69.2315 67.212 69.2315 67.3393C69.2315 67.3929 69.2288 67.4881 69.2248 67.6248C69.2208 67.7668 69.2181 67.8807 69.2181 67.9665C69.2181 68.1018 69.2221 68.1849 69.2302 68.2144C69.2342 68.2318 69.2436 68.2452 69.261 68.2559C69.2784 68.2653 69.336 68.2747 69.4352 68.2854ZM68.8174 67.6141C68.6271 67.6556 68.5012 67.6998 68.4436 67.7494C68.3859 67.7976 68.3578 67.862 68.3578 67.9437C68.3578 68.0107 68.3752 68.063 68.4127 68.1005C68.4503 68.1393 68.4972 68.1581 68.5534 68.1581C68.6392 68.1581 68.7276 68.1099 68.8174 68.0134V67.6141ZM69.5156 67.0043V66.8703C69.7648 66.877 69.9243 66.8811 69.994 66.8811C70.0905 66.8811 70.2271 66.877 70.4027 66.8703V67.0043C70.3022 67.0084 70.2419 67.0151 70.2231 67.0258C70.2044 67.0365 70.1936 67.0539 70.1936 67.0767C70.1936 67.1089 70.2472 67.2603 70.3544 67.5283L70.5313 67.9772L70.6827 67.6221C70.8181 67.3045 70.8864 67.1209 70.8864 67.0727C70.8864 67.0499 70.8771 67.0338 70.8569 67.0244C70.8382 67.0151 70.7806 67.0084 70.6827 67.0043V66.8703L70.7859 66.8744C70.8945 66.8784 70.9682 66.8811 71.003 66.8811C71.0432 66.8811 71.1451 66.877 71.3099 66.8703V67.0043C71.2563 67.0043 71.2134 67.0124 71.1799 67.0285C71.1652 67.0365 71.1531 67.0472 71.1424 67.0633C71.125 67.0874 71.0566 67.2375 70.936 67.5135L70.6332 68.2063L70.3518 68.8469C70.2888 68.9782 70.2312 69.0707 70.1802 69.1229C70.1307 69.1765 70.0757 69.2154 70.0154 69.2409C69.9565 69.2663 69.8895 69.2784 69.8157 69.2784C69.742 69.2784 69.6643 69.261 69.5812 69.2234C69.608 69.1162 69.6268 69.0117 69.6389 68.9099L69.6817 68.8951C69.7461 68.9661 69.8198 69.0023 69.9042 69.0023C69.9766 69.0023 70.0355 68.9782 70.0824 68.9313C70.1293 68.8857 70.2017 68.7504 70.2995 68.5266L69.9363 67.606L69.7367 67.1115C69.7193 67.0713 69.7005 67.0445 69.6804 67.0325C69.6603 67.0204 69.6054 67.011 69.5156 67.0043ZM72.9581 68.2854V68.4181L72.8322 68.4127C72.7652 68.41 72.6995 68.4087 72.6325 68.4087C72.5293 68.4087 72.4328 68.4114 72.3404 68.4181L72.3243 68.4007L72.3417 68.1755L72.0013 68.4301C71.941 68.4449 71.8874 68.4516 71.8405 68.4516C71.7266 68.4516 71.6368 68.4167 71.5739 68.3484C71.5109 68.28 71.4801 68.1809 71.4801 68.0496C71.4801 67.8874 71.5229 67.7735 71.6087 67.7065C71.7186 67.6208 71.9625 67.543 72.3417 67.4747C72.339 67.346 72.3163 67.2536 72.2747 67.196C72.2158 67.1169 72.1233 67.0767 72 67.0767C71.9705 67.0767 71.941 67.0807 71.9102 67.0874C71.8794 67.0955 71.8472 67.1062 71.8164 67.1209L71.7441 67.2938L71.6302 67.2656L71.6342 67.1933L71.6315 67.1223L71.6302 67.0566C71.7963 66.9534 71.9156 66.8891 71.9893 66.8636C72.0415 66.8435 72.1152 66.8342 72.2104 66.8342C72.339 66.8342 72.4422 66.8529 72.524 66.8918C72.603 66.9306 72.662 66.9829 72.6995 67.0499C72.7357 67.1156 72.7544 67.212 72.7544 67.3393C72.7544 67.3929 72.7518 67.4881 72.7477 67.6248C72.7437 67.7668 72.741 67.8807 72.741 67.9665C72.741 68.1018 72.7451 68.1849 72.7531 68.2144C72.7571 68.2318 72.7678 68.2452 72.7853 68.2559C72.8013 68.2653 72.859 68.2747 72.9581 68.2854ZM72.3417 67.6141C72.1501 67.6556 72.0241 67.6998 71.9678 67.7494C71.9102 67.7976 71.8807 67.862 71.8807 67.9437C71.8807 68.0107 71.8995 68.063 71.9357 68.1005C71.9732 68.1393 72.0201 68.1581 72.0764 68.1581C72.1621 68.1581 72.2506 68.1099 72.3417 68.0134V67.6141ZM73.1283 68.4181V68.2854C73.2449 68.2787 73.3092 68.268 73.324 68.2559C73.34 68.2439 73.3481 68.2157 73.3521 68.1728C73.3588 68.063 73.3615 67.87 73.3615 67.5926C73.3615 67.4559 73.3601 67.338 73.3548 67.2388C73.3534 67.1785 73.3494 67.1424 73.3427 67.1316C73.3374 67.1223 73.328 67.1156 73.3173 67.1129C73.3052 67.1075 73.2422 67.1035 73.1283 67.1008V66.9735C73.1873 66.9735 73.2784 66.9615 73.403 66.936C73.5263 66.9105 73.6308 66.8811 73.7152 66.8489L73.7595 66.8342C73.7742 66.8342 73.7822 66.8462 73.7822 66.8703L73.7809 66.8864C73.7769 66.9159 73.7755 66.995 73.7755 67.1209L74.0275 66.9092C74.0583 66.8811 74.0918 66.8636 74.1253 66.8529C74.1722 66.8409 74.2312 66.8342 74.2982 66.8342C74.4134 66.8342 74.5072 66.8543 74.5809 66.8931C74.6533 66.9333 74.7082 66.9883 74.7417 67.0579C74.7752 67.1276 74.7926 67.2375 74.7926 67.3849C74.7926 67.4506 74.7913 67.5269 74.7886 67.6127C74.7819 67.7883 74.7792 67.941 74.7792 68.0697C74.7792 68.142 74.7859 68.1929 74.7966 68.2211C74.806 68.2412 74.8181 68.2532 74.8342 68.2599C74.8503 68.2666 74.9092 68.2747 75.0124 68.2854V68.4181L74.8127 68.4114L74.6828 68.4087L74.3464 68.4181L74.329 68.3966C74.3585 68.1903 74.3732 67.9785 74.3732 67.7615C74.3732 67.4854 74.3558 67.3152 74.3223 67.2509C74.2781 67.1678 74.199 67.1276 74.0851 67.1276C74.01 67.1276 73.9471 67.1464 73.8921 67.1839C73.8385 67.2214 73.8037 67.2616 73.7876 67.3032C73.7796 67.3206 73.7755 67.3755 73.7755 67.468C73.7755 67.862 73.7769 68.0884 73.7809 68.1447C73.7836 68.2023 73.793 68.2372 73.8077 68.2506C73.8278 68.2666 73.9015 68.2787 74.0288 68.2854V68.4181C73.8399 68.4114 73.6804 68.4087 73.5504 68.4087C73.4727 68.4087 73.332 68.4114 73.1283 68.4181ZM76.6633 68.2854V68.4181L76.5374 68.4127C76.4704 68.41 76.4047 68.4087 76.3377 68.4087C76.2345 68.4087 76.138 68.4114 76.0456 68.4181L76.0295 68.4007L76.0469 68.1755L75.7079 68.4301C75.6462 68.4449 75.5926 68.4516 75.5457 68.4516C75.4318 68.4516 75.342 68.4167 75.2804 68.3484C75.2174 68.28 75.1866 68.1809 75.1866 68.0496C75.1866 67.8874 75.2281 67.7735 75.3139 67.7065C75.4251 67.6208 75.669 67.543 76.0469 67.4747C76.0442 67.346 76.0228 67.2536 75.9799 67.196C75.9209 67.1169 75.8298 67.0767 75.7052 67.0767C75.6757 67.0767 75.6462 67.0807 75.6154 67.0874C75.5846 67.0955 75.5538 67.1062 75.5229 67.1209L75.4492 67.2938L75.3367 67.2656L75.3394 67.1933L75.338 67.1223L75.3367 67.0566C75.5028 66.9534 75.6221 66.8891 75.6945 66.8636C75.7481 66.8435 75.8218 66.8342 75.9156 66.8342C76.0442 66.8342 76.1487 66.8529 76.2291 66.8918C76.3095 66.9306 76.3685 66.9829 76.4047 67.0499C76.4422 67.1156 76.4596 67.212 76.4596 67.3393C76.4596 67.3929 76.4583 67.4881 76.4543 67.6248C76.4489 67.7668 76.4476 67.8807 76.4476 67.9665C76.4476 68.1018 76.4503 68.1849 76.4583 68.2144C76.4623 68.2318 76.473 68.2452 76.4905 68.2559C76.5065 68.2653 76.5655 68.2747 76.6633 68.2854ZM76.0469 67.6141C75.8553 67.6556 75.7307 67.6998 75.673 67.7494C75.6154 67.7976 75.5859 67.862 75.5859 67.9437C75.5859 68.0107 75.6047 68.063 75.6422 68.1005C75.6784 68.1393 75.7253 68.1581 75.7816 68.1581C75.8687 68.1581 75.9571 68.1099 76.0469 68.0134V67.6141Z" fill="#FEFEFE"/>
<path fill-rule="evenodd" clip-rule="evenodd" d="M76.8335 68.4181V68.2854C76.9501 68.2787 77.0157 68.268 77.0305 68.2559C77.0452 68.2439 77.0546 68.2157 77.0573 68.1728C77.064 68.063 77.068 67.87 77.068 67.5926C77.068 67.4559 77.0653 67.338 77.0613 67.2388C77.0586 67.1785 77.0546 67.1424 77.0479 67.1316C77.0425 67.1223 77.0345 67.1156 77.0224 67.1129C77.0117 67.1075 76.9474 67.1035 76.8335 67.1008V66.9735C76.8925 66.9735 76.9836 66.9615 77.1082 66.936C77.2315 66.9105 77.336 66.8811 77.4204 66.8489L77.4647 66.8342C77.4794 66.8342 77.4874 66.8462 77.4874 66.8703L77.4861 66.8864C77.4821 66.9159 77.4807 66.995 77.4807 67.1209L77.7327 66.9092C77.7648 66.8811 77.797 66.8636 77.8305 66.8529C77.8787 66.8409 77.9363 66.8342 78.0047 66.8342C78.1199 66.8342 78.2137 66.8543 78.2861 66.8931C78.3598 66.9333 78.4134 66.9883 78.4469 67.0579C78.4817 67.1276 78.4992 67.2375 78.4992 67.3849C78.4992 67.4506 78.4965 67.5269 78.4938 67.6127C78.4884 67.7883 78.4858 67.941 78.4858 68.0697C78.4858 68.142 78.4911 68.1929 78.5032 68.2211C78.5126 68.2412 78.5246 68.2532 78.5394 68.2599C78.5554 68.2666 78.6157 68.2747 78.7189 68.2854V68.4181L78.5179 68.4114L78.3893 68.4087L78.0529 68.4181L78.0355 68.3966C78.0637 68.1903 78.0784 67.9785 78.0784 67.7615C78.0784 67.4854 78.061 67.3152 78.0275 67.2509C77.9846 67.1678 77.9055 67.1276 77.7903 67.1276C77.7166 67.1276 77.6523 67.1464 77.5987 67.1839C77.5437 67.2214 77.5089 67.2616 77.4928 67.3032C77.4848 67.3206 77.4807 67.3755 77.4807 67.468C77.4807 67.862 77.4821 68.0884 77.4861 68.1447C77.4901 68.2023 77.4995 68.2372 77.5142 68.2506C77.5343 68.2666 77.6067 68.2787 77.734 68.2854V68.4181C77.5451 68.4114 77.3856 68.4087 77.2556 68.4087C77.1792 68.4087 77.0385 68.4114 76.8335 68.4181ZM80.1729 68.4181V68.2854C80.2332 68.2854 80.2975 68.2787 80.3645 68.268C80.3953 68.2626 80.4168 68.2546 80.4302 68.2412C80.4422 68.2291 80.4516 68.2063 80.4583 68.1728C80.4663 68.1259 80.473 67.9544 80.4784 67.6583C80.4811 67.4479 80.4824 67.2335 80.4824 67.0137C80.4824 66.5822 80.4824 66.3638 80.4784 66.3558C80.4757 66.3477 80.4382 66.3437 80.3631 66.3437C80.2117 66.3437 80.0817 66.3477 79.9719 66.3571C79.9102 66.3611 79.874 66.3665 79.866 66.3732C79.858 66.3785 79.8513 66.3879 79.8472 66.4013C79.8419 66.4161 79.8338 66.5112 79.8191 66.6908H79.6784C79.6811 66.479 79.6757 66.2981 79.6623 66.1467L79.6797 66.1333C80.0228 66.1494 80.3551 66.1561 80.6794 66.1561C81.001 66.1561 81.3628 66.1494 81.7621 66.1333L81.7809 66.1601C81.7595 66.3102 81.7461 66.4871 81.7367 66.6908H81.6C81.5906 66.5058 81.5812 66.4053 81.5705 66.3906C81.5638 66.3772 81.5464 66.3692 81.5196 66.3651C81.4325 66.3504 81.2596 66.3437 81.001 66.3437C80.9796 66.3437 80.9675 66.3464 80.9621 66.3531C80.9581 66.3611 80.9568 66.3893 80.9568 66.4388L80.9461 67.535C80.9461 67.8526 80.9487 68.0469 80.9554 68.1192C80.9595 68.1916 80.9729 68.2358 80.9943 68.2506C81.0077 68.2599 81.0935 68.272 81.2503 68.2854V68.4181C81.0908 68.4114 80.9219 68.4087 80.7437 68.4087C80.5092 68.4087 80.3189 68.4114 80.1729 68.4181ZM83.2884 68.1018L83.3353 68.1501L83.2616 68.3055C83.1839 68.3538 83.0995 68.3899 83.0097 68.4154C82.9213 68.4395 82.8261 68.4516 82.7243 68.4516C82.4871 68.4516 82.3008 68.3832 82.1655 68.2452C82.0288 68.1085 81.9605 67.9156 81.9605 67.6663C81.9605 67.5082 81.9806 67.3782 82.0208 67.275C82.0529 67.1919 82.1065 67.1223 82.1816 67.0673C82.2553 67.011 82.341 66.9588 82.4389 66.9092C82.5367 66.8583 82.6425 66.8342 82.7591 66.8342C82.9373 66.8342 83.0848 66.8837 83.2 66.9829C83.3166 67.0821 83.3755 67.2429 83.3755 67.464C83.3755 67.4908 83.3729 67.5323 83.3688 67.5873L83.1022 67.6355C83.0191 67.6422 82.8998 67.6449 82.7444 67.6449H82.3906C82.4067 67.8311 82.463 67.9718 82.5595 68.067C82.6546 68.1608 82.7752 68.2077 82.924 68.2077C82.9856 68.2077 83.0459 68.1996 83.1075 68.1809C83.1678 68.1635 83.2281 68.1367 83.2884 68.1018ZM82.3812 67.4707C82.4791 67.48 82.5769 67.4841 82.6747 67.4841C82.7605 67.4841 82.8503 67.48 82.9441 67.4707L82.9467 67.3943C82.9467 67.2616 82.9213 67.1638 82.873 67.1022C82.8234 67.0405 82.7578 67.011 82.6747 67.011C82.6157 67.011 82.5648 67.0244 82.5233 67.0539C82.4804 67.0821 82.4482 67.1223 82.4281 67.1745C82.408 67.2268 82.392 67.3259 82.3812 67.4707ZM83.535 68.4181V68.2854C83.6449 68.2787 83.7079 68.2733 83.724 68.2653C83.736 68.2586 83.7467 68.2492 83.7548 68.2345C83.7668 68.2077 83.7735 68.1514 83.7749 68.0616C83.7802 67.9035 83.7816 67.7588 83.7816 67.6288C83.7816 67.3769 83.7789 67.2281 83.7722 67.1826C83.7695 67.1544 83.7588 67.1357 83.7427 67.1236C83.7266 67.1129 83.657 67.1048 83.535 67.1008V66.9735C83.7548 66.9521 83.9116 66.9266 84.0054 66.8971L84.1729 66.8342C84.1876 66.8342 84.1956 66.8435 84.1956 66.865L84.1943 66.8878C84.1903 66.9561 84.1889 67.0539 84.1889 67.1826C84.2439 67.129 84.3042 67.062 84.3712 66.9802C84.4208 66.9199 84.4637 66.8797 84.5012 66.861C84.5374 66.8435 84.5869 66.8342 84.6472 66.8342C84.6821 66.8342 84.7169 66.8395 84.7531 66.8516C84.7424 66.9601 84.7357 67.1089 84.733 67.2951L84.6606 67.3206C84.6352 67.279 84.6084 67.2496 84.5789 67.2335C84.5494 67.2161 84.5106 67.2067 84.4637 67.2067C84.3993 67.2067 84.343 67.2241 84.2975 67.2576C84.2519 67.2911 84.2211 67.33 84.209 67.3742C84.1997 67.4063 84.1956 67.5176 84.1956 67.7065C84.1956 67.9826 84.1997 68.1434 84.2064 68.1889C84.2117 68.2197 84.2211 68.2398 84.2372 68.2506C84.2613 68.2666 84.343 68.2787 84.4797 68.2854V68.4181L84.2975 68.4127C84.1822 68.41 84.0817 68.4087 83.9973 68.4087C83.9183 68.4087 83.8245 68.41 83.7186 68.4127L83.535 68.4181ZM85.1913 68.4516L85.1136 68.4208C85.1337 68.1581 85.1444 67.795 85.1444 67.3313C85.1444 67.1209 85.1417 66.9588 85.139 66.8449L85.1296 66.4268C85.1296 66.3625 85.1243 66.3196 85.1122 66.2981C85.1055 66.2847 85.0921 66.2754 85.072 66.27C85.0586 66.266 84.9943 66.2606 84.8804 66.2566V66.14C84.9394 66.14 85.0345 66.1266 85.1645 66.1025C85.2958 66.077 85.3923 66.0516 85.458 66.0234L85.529 65.9966C85.5504 65.9966 85.5611 66.0087 85.5611 66.0355L85.5558 66.2057C85.5531 66.2646 85.5491 66.5728 85.5437 67.1276L85.742 66.9641C85.8037 66.9119 85.8586 66.877 85.9082 66.8596C85.9578 66.8422 86.0168 66.8342 86.0864 66.8342C86.27 66.8342 86.4161 66.8918 86.526 67.0084C86.6372 67.1249 86.6921 67.2764 86.6921 67.464C86.6921 67.5564 86.676 67.6516 86.6466 67.7494C86.6157 67.8486 86.5769 67.929 86.5327 67.9906C86.4871 68.0536 86.4295 68.1085 86.3571 68.1568C86.2673 68.2144 86.191 68.2666 86.128 68.3149C86.0529 68.3712 85.9899 68.4087 85.939 68.4261C85.8881 68.4422 85.8251 68.4516 85.7514 68.4516C85.6791 68.4516 85.6107 68.4422 85.5477 68.4234C85.4848 68.406 85.4137 68.3725 85.3333 68.3243C85.3079 68.343 85.261 68.3859 85.1913 68.4516ZM85.5437 67.2991V68.0469C85.5839 68.1072 85.6322 68.1514 85.6898 68.1822C85.7461 68.213 85.8104 68.2278 85.8814 68.2278C85.998 68.2278 86.0918 68.1822 86.1628 68.0898C86.2352 67.996 86.2714 67.8553 86.2714 67.6663C86.2714 67.4881 86.2352 67.3541 86.1615 67.263C86.0878 67.1732 85.9926 67.1276 85.8734 67.1276C85.8104 67.1276 85.7514 67.1424 85.6965 67.1705C85.6415 67.1986 85.5906 67.2429 85.5437 67.2991ZM88.4328 68.2854V68.4181L88.3055 68.4127C88.2399 68.41 88.1729 68.4087 88.1059 68.4087C88.004 68.4087 87.9062 68.4114 87.8151 68.4181L87.799 68.4007L87.8151 68.1755L87.4761 68.4301C87.4157 68.4449 87.3608 68.4516 87.3152 68.4516C87.2 68.4516 87.1116 68.4167 87.0486 68.3484C86.9856 68.28 86.9548 68.1809 86.9548 68.0496C86.9548 67.8874 86.9977 67.7735 87.0834 67.7065C87.1933 67.6208 87.4372 67.543 87.8151 67.4747C87.8124 67.346 87.791 67.2536 87.7494 67.196C87.6891 67.1169 87.598 67.0767 87.4734 67.0767C87.4439 67.0767 87.4144 67.0807 87.3836 67.0874C87.3528 67.0955 87.3219 67.1062 87.2911 67.1209L87.2174 67.2938L87.1049 67.2656L87.1075 67.1933L87.1062 67.1223L87.1049 67.0566C87.271 66.9534 87.3903 66.8891 87.4626 66.8636C87.5163 66.8435 87.59 66.8342 87.6851 66.8342C87.8124 66.8342 87.9169 66.8529 87.9973 66.8918C88.0777 66.9306 88.1367 66.9829 88.1729 67.0499C88.2104 67.1156 88.2291 67.212 88.2291 67.3393C88.2291 67.3929 88.2265 67.4881 88.2225 67.6248C88.2171 67.7668 88.2157 67.8807 88.2157 67.9665C88.2157 68.1018 88.2198 68.1849 88.2278 68.2144C88.2305 68.2318 88.2412 68.2452 88.2586 68.2559C88.276 68.2653 88.3337 68.2747 88.4328 68.2854ZM87.8151 67.6141C87.6234 67.6556 87.4988 67.6998 87.4412 67.7494C87.3836 67.7976 87.3554 67.862 87.3554 67.9437C87.3554 68.0107 87.3729 68.063 87.4104 68.1005C87.4466 68.1393 87.4948 68.1581 87.5511 68.1581C87.6368 68.1581 87.7253 68.1099 87.8151 68.0134V67.6141ZM89.06 66.0529C89.1296 66.0529 89.1899 66.077 89.2395 66.1266C89.2891 66.1762 89.3132 66.2365 89.3132 66.3075C89.3132 66.3772 89.2891 66.4362 89.2395 66.4857C89.1899 66.5353 89.1296 66.5594 89.0586 66.5594C88.9889 66.5594 88.93 66.5353 88.8804 66.4857C88.8308 66.4362 88.8054 66.3772 88.8054 66.3075C88.8054 66.2365 88.8308 66.1762 88.8804 66.1266C88.93 66.077 88.9889 66.0529 89.06 66.0529ZM88.6057 68.4181V68.2854C88.729 68.2801 88.8 68.2733 88.8188 68.2626C88.8389 68.2506 88.8509 68.2211 88.8563 68.1702C88.8643 68.1018 88.8697 67.9517 88.8697 67.7172C88.8697 67.6167 88.8683 67.5243 88.8643 67.4372L88.859 67.2469C88.859 67.1839 88.8523 67.145 88.8389 67.1303C88.8255 67.1156 88.7893 67.1075 88.729 67.1062L88.6057 67.1008V66.9735C88.8683 66.9534 89.0827 66.9065 89.2529 66.8342L89.2931 66.8663C89.2771 67.074 89.269 67.3769 89.269 67.7735C89.269 68.004 89.273 68.142 89.2811 68.1903C89.2864 68.2238 89.2958 68.2452 89.3106 68.2559C89.3253 68.2653 89.3963 68.2747 89.5236 68.2854V68.4181C89.328 68.4114 89.1752 68.4087 89.068 68.4087C89.0117 68.4087 88.8576 68.4114 88.6057 68.4181ZM89.6965 68.4181V68.2854C89.8131 68.2801 89.8814 68.272 89.9015 68.2626C89.9109 68.2559 89.9189 68.2452 89.9243 68.2331C89.9323 68.209 89.939 68.0991 89.9417 67.9062C89.9457 67.7105 89.9471 67.5095 89.9471 67.2991C89.9471 67.129 89.9444 66.9119 89.939 66.6452C89.9337 66.4509 89.9283 66.3437 89.923 66.3223C89.9176 66.3022 89.9055 66.2861 89.8881 66.2754C89.8707 66.2646 89.8064 66.2593 89.6965 66.2566V66.14C89.8426 66.1253 89.9605 66.1092 90.0502 66.0891C90.1414 66.069 90.2231 66.0422 90.2995 66.0087C90.3196 66.0007 90.3343 65.9966 90.3424 65.9966C90.3585 65.9966 90.3678 66.0114 90.3678 66.0409L90.3638 66.1105C90.3611 66.1909 90.3571 66.4965 90.3544 67.0271L90.3504 67.4841L90.3544 67.5739C90.5836 67.3795 90.8194 67.145 91.0633 66.8703C91.141 66.877 91.2094 66.8811 91.271 66.8811C91.3434 66.8811 91.4198 66.877 91.5015 66.8703V67.0043C91.3809 67.011 91.3085 67.0177 91.2831 67.0258C91.259 67.0338 91.2214 67.0566 91.1719 67.0941C91.1236 67.1316 90.9883 67.2509 90.7645 67.4492L91.0003 67.7159C91.2697 68.0228 91.4291 68.1956 91.4774 68.2358C91.5082 68.2626 91.5524 68.2787 91.6087 68.2854V68.4181C91.4868 68.4114 91.3742 68.4087 91.2724 68.4087C91.1933 68.4087 91.1156 68.4114 91.0378 68.4181C90.9306 68.276 90.8234 68.1447 90.7149 68.0228C90.5688 67.8566 90.4482 67.728 90.3544 67.6382V67.9008C90.3544 68.0536 90.3611 68.1568 90.3745 68.2117C90.3786 68.2358 90.3906 68.2519 90.4067 68.2613C90.4228 68.2707 90.4898 68.2787 90.6077 68.2854V68.4181C90.3973 68.4114 90.2566 68.4087 90.1856 68.4087C90.1172 68.4087 89.9538 68.4114 89.6965 68.4181Z" fill="#FEFEFE"/>
<path fill-rule="evenodd" clip-rule="evenodd" d="M37.8519 45.1256C35.9987 45.1484 34.6908 45.7541 33.8908 46.3665C37.1551 45.1618 39.2992 45.3923 40.142 47.1772C41.0613 49.1229 39.9652 51.9772 36.6593 54.1923C32.3404 57.0854 28.9514 57.2141 26.8288 55.0995C27.8486 57.3427 30.4 57.9269 33.6054 56.9125C37.9551 55.535 40.741 53.1846 41.86 50.1842C43.0499 46.9936 41.2543 45.0841 37.8519 45.1256Z" fill="#FEFEFE"/>
<path fill-rule="evenodd" clip-rule="evenodd" d="M29.6911 55.1504C31.5457 55.1276 32.8536 54.5206 33.6523 53.9095C30.3893 55.1129 28.2452 54.8837 27.401 53.0975C26.4817 51.1531 27.5779 48.2975 30.8851 46.0837C35.204 43.1893 38.593 43.062 40.7156 45.1765C39.6958 42.9333 37.143 42.3491 33.939 43.3635C29.5879 44.741 26.802 47.0914 25.6831 50.0918C24.4931 53.2824 26.2901 55.1919 29.6911 55.1504Z" fill="#F08519"/>
</g>
<rect x="1" y="1" width="110" height="110" rx="9" stroke="#CCCCCC" stroke-width="2"/>
<defs>
<clipPath id="clip0_517_517">
<rect x="2" y="2" width="108" height="108" rx="8" fill="white"/>
</clipPath>
</defs>
</svg>
