<svg width="112" height="112" viewBox="0 0 112 112" fill="none" xmlns="http://www.w3.org/2000/svg">
<g clip-path="url(#clip0_517_510)">
<rect x="2" y="2" width="108" height="108" rx="8" fill="white"/>
<path fill-rule="evenodd" clip-rule="evenodd" d="M51.5752 59.8782C53.6786 60.3105 55.7071 59.8333 57.6777 58.6366L51.2075 64.9346L48.8346 62.5589L51.5752 59.8782Z" fill="#C13439"/>
<path fill-rule="evenodd" clip-rule="evenodd" d="M58.1446 61.0207L52.6157 66.4223L51.5556 65.3603L57.6299 59.3832C60.7963 56.5023 61.353 53.4445 60.6007 50.2988C62.008 54.3858 62.1006 56.0335 60.2732 58.5626C59.6248 59.4609 58.9343 60.2497 58.1446 61.0207Z" fill="#EC9033"/>
<path fill-rule="evenodd" clip-rule="evenodd" d="M59.1803 62.164L53.6168 67.4684L52.9441 66.7685L59.0278 60.7774C62.0566 57.7542 62.6461 56.0373 61.9125 52.6239C63.0447 55.7706 62.8781 57.6728 61.3399 59.7921C60.6952 60.681 59.9691 61.4127 59.1803 62.164Z" fill="#DABD29"/>
<path fill-rule="evenodd" clip-rule="evenodd" d="M57.7928 47.0698C60.2377 49.9629 59.1495 54.776 54.7144 55.8408C56.073 55.1615 56.8449 54.121 57.1237 53.0207C57.6328 51.008 56.5287 48.9898 54.5778 48.318C53.4503 47.9287 52.1544 48.0139 51.1102 48.6267C49.5195 49.5605 48.7813 51.5545 49.3034 53.3313C49.9359 55.4871 52.0571 56.55 54.1895 56.4658C58.0912 56.3105 60.7504 52.244 59.3516 48.5369C62.589 54.6562 56.9684 60.4359 51.5696 59.0857C48.1366 58.2277 45.6449 54.6759 46.0295 51.1615C46.3139 48.5715 48.1301 46.4298 50.5291 45.5007C53.0508 44.5229 55.9953 44.9421 57.7928 47.0698Z" fill="#C13439"/>
<path fill-rule="evenodd" clip-rule="evenodd" d="M64.6063 51.5516C65.4288 51.6939 66.2456 51.7378 67.0494 51.5619C66.9502 52.8429 66.8996 54.2062 66.8819 55.6237C66.8688 56.7016 67.0007 57.8188 66.8903 58.9397C66.8211 59.5376 66.6292 59.9961 66.3439 60.3507C65.803 61.0207 64.9768 61.438 63.913 61.4773L63.6332 60.579C64.3106 60.5435 64.6596 60.1739 64.6363 59.4244C64.6952 56.8298 64.7747 54.1762 64.6063 51.5516ZM93.44 51.6162C94.3223 51.764 95.1775 51.7753 96 51.6115C95.6791 54.5037 95.7268 57.2967 95.9888 60.0298C95.0915 59.9166 94.2353 59.9306 93.4044 60.0223C93.6627 57.2134 93.6449 54.412 93.44 51.6162ZM87.0288 51.6312C88.2508 51.7472 89.4119 51.6443 90.604 51.6508C92.0608 51.7154 92.8028 52.5509 92.8851 53.4623C92.9563 54.238 92.5726 55.0716 91.5106 55.518C92.7158 55.8745 93.2538 56.9439 93.0377 57.9797C92.8346 58.9556 92.1263 59.8988 90.2961 59.9933C89.1836 60.0691 88.7317 59.8623 86.9595 60.0129C87.1944 57.234 87.1644 54.4363 87.0288 51.6312ZM89.251 52.7325C89.2351 53.5203 89.2145 54.3109 89.2182 55.0997C90.2793 55.14 90.6994 54.5159 90.7003 53.8777C90.7003 53.569 90.6414 53.2424 90.4365 53.0169C90.2026 52.7596 89.7881 52.6295 89.251 52.7325ZM89.2154 56.1898C89.1986 56.9776 89.2145 58.1173 89.2182 58.9051C90.0828 59.0127 90.3364 58.7376 90.5394 58.4345C90.7518 58.1163 90.793 57.7776 90.7939 57.4511C90.7939 57.1423 90.6685 56.7755 90.4646 56.5509C90.2297 56.2927 89.7525 56.0859 89.2154 56.1898ZM77.4194 51.6256C77.8461 51.735 78.2737 51.7715 78.7003 51.6031C79.5303 53.4136 80.4314 55.1802 81.367 56.9252C82.3018 55.1821 83.214 53.4193 84.0758 51.6097C84.5015 51.7145 84.9413 51.7313 85.4007 51.6115C85.6851 54.4476 86.037 57.249 86.4618 60.0129C85.6636 59.9147 84.8655 59.9053 84.0674 60.0064L83.6444 55.1839C82.808 56.768 81.9696 58.3643 81.2201 60.0083L80.5043 60.0111L78.1015 55.2869C77.9144 56.8597 77.7759 58.4541 77.6852 60.07C77.1752 59.9147 76.6615 59.9091 76.145 60.0447C76.1647 59.8688 76.1553 59.7201 76.1544 59.5423C76.7064 57.0338 77.0564 54.3231 77.4194 51.6256ZM70.8837 51.5526C71.2861 51.6714 71.6884 51.6873 72.0908 51.5619C73.2501 54.324 74.4374 57.0366 75.6894 59.6274L75.6753 60.0157C74.8323 59.9175 73.9958 59.9212 73.1659 60.0345C72.9207 59.2111 72.6372 58.4083 72.2994 57.6316C71.4302 57.5839 70.5469 57.5783 69.6505 57.6092C69.3174 58.3577 69.0152 59.1568 68.7607 60.0382C68.2695 59.8969 67.752 59.91 67.214 60.0541L67.2253 59.6349C68.5109 56.9514 69.7712 54.2632 70.8837 51.5526ZM70.9913 54.528L71.8447 56.5191L70.1174 56.5145L70.9913 54.528Z" fill="#332C2B"/>
<path fill-rule="evenodd" clip-rule="evenodd" d="M16 51.9736H18.7658C20.4697 51.9886 20.8945 52.783 20.9226 53.6054C20.9497 54.3895 20.4295 55.1933 19.0784 55.6256C20.7298 55.7631 21.3212 56.7212 21.1902 57.7467C21.0676 58.7123 20.2611 59.8847 17.9715 59.8043H16C16.1095 57.1881 16.1291 54.5767 16 51.9736ZM38.3382 51.9989C38.7022 52.0766 39.0653 52.0738 39.4292 51.9989L39.3787 55.4001C39.3871 55.5732 39.3899 55.6639 39.4882 55.6433C40.4332 54.9229 41.7544 53.4539 43.1429 51.9989C43.4564 52.0335 43.768 52.0298 44.0786 51.9989L40.466 55.5114L44.2442 59.7622L44.2451 59.8286C43.7848 59.7491 43.3759 59.7743 42.982 59.8267C41.8798 58.485 40.7607 57.1647 39.5995 55.896C39.5275 55.8651 39.4545 55.8529 39.3806 55.8651C39.3806 57.1825 39.36 58.4971 39.448 59.8286C39.0858 59.7968 38.7172 59.7912 38.3382 59.8221C38.5216 57.1657 38.5057 54.5626 38.3382 51.9989ZM30.3495 51.8249H30.5432L36.3827 57.9329C36.4594 55.9764 36.4416 53.9881 36.3799 51.9849C36.6437 52.0504 36.9095 52.0616 37.1771 51.9914C37.1219 52.4246 37.1135 52.8934 37.0863 53.3444C36.9544 55.5367 36.8945 57.7421 36.9778 59.9727L36.8327 59.9699L30.9081 53.6522C30.8809 55.4076 30.8594 57.2125 30.9184 58.8864C30.9296 59.227 30.9549 59.5011 30.9726 59.837C30.7275 59.7865 30.4636 59.7856 30.1782 59.8408C30.327 57.1769 30.3598 54.5028 30.3495 51.8249ZM25.5092 51.8352H25.7301L29.2519 59.8342C28.8271 59.7556 28.4295 59.7715 28.044 59.8324C27.6735 58.7647 27.2702 57.7355 26.8201 56.7605C25.8367 56.724 24.844 56.7222 23.8409 56.7577C23.4339 57.729 23.0437 58.747 22.676 59.8249C22.4215 59.7781 22.1408 59.779 21.8395 59.8193L25.5092 51.8352ZM24.0374 56.274L25.3333 53.3294L26.6395 56.289C25.7974 56.259 24.9329 56.2506 24.0374 56.274ZM17.0405 52.4218C19.0185 52.2796 19.8915 52.5145 19.9008 53.9385C19.8419 54.5879 19.549 54.9594 19.0306 55.227C18.763 55.3654 18.4608 55.4141 18.1277 55.4347C17.789 55.4553 17.4194 55.5011 17.0208 55.4721L17.0405 52.4218ZM17.0115 55.8894C18.4627 55.8249 19.2225 55.9559 19.6519 56.3704C20.2816 56.9795 20.2349 58.0611 19.7249 58.7292C19.4742 59.0567 19.1167 59.2597 18.6536 59.3533C18.2129 59.4422 17.6674 59.372 17.048 59.3327L17.0115 55.8894Z" fill="#332C2B"/>
</g>
<rect x="1" y="1" width="110" height="110" rx="9" stroke="#CCCCCC" stroke-width="2"/>
<defs>
<clipPath id="clip0_517_510">
<rect x="2" y="2" width="108" height="108" rx="8" fill="white"/>
</clipPath>
</defs>
</svg>
