<svg width="112" height="112" viewBox="0 0 112 112" fill="none" xmlns="http://www.w3.org/2000/svg">
<g clip-path="url(#clip0_528_40)">
<rect x="2" y="2" width="108" height="108" rx="8" fill="white"/>
<path d="M53.0083 53.3044C52.371 53.3044 51.8621 53.2521 51.3722 53.0809C51.2105 53.0238 51.1058 53.0619 51.006 53.1855C50.4495 53.8942 49.9976 54.66 49.6266 55.4781C49.5363 55.6778 49.5601 55.7825 49.7598 55.9109C50.1546 56.163 50.2973 56.6433 50.1451 57.0524C50.0024 57.4424 49.5601 57.7325 49.151 57.7087C48.7372 57.6849 48.3615 57.3568 48.2568 56.9287C48.1617 56.5482 48.3282 56.1154 48.6944 55.8871C48.8704 55.7825 48.8704 55.6873 48.7991 55.5304C48.4138 54.6838 47.9049 53.9132 47.3484 53.1713C47.2533 53.0429 47.1581 53.0381 47.0107 53.0809C45.8312 53.4234 44.6659 53.3901 43.5244 52.9144C43.1344 52.7527 42.8014 52.5197 42.5494 52.182C42.1165 51.6065 42.2925 50.8883 42.9536 50.6172C43.7241 50.2985 44.5137 50.4174 45.2985 50.5934C46.283 50.8074 47.0392 51.3972 47.7432 52.0773C48.0476 52.3722 48.0428 52.3817 48.3757 52.1297C48.5612 51.9917 48.8086 51.8728 48.8799 51.6635C48.9655 51.4162 48.6564 51.3116 48.5375 51.1308C47.5577 49.6659 47.1914 48.1011 47.7384 46.3794C47.8573 46.0084 48.0523 45.685 48.3329 45.4138C48.9608 44.805 49.7788 44.8859 50.264 45.6089C50.868 46.5078 51.0012 47.5066 50.8538 48.553C50.7016 49.6421 50.2925 50.6219 49.5553 51.4543C49.4792 51.5399 49.4602 51.597 49.541 51.6826C49.5886 51.7349 49.6266 51.7967 49.6694 51.849C50.1023 52.3627 50.2164 52.3627 50.7063 51.9204C51.6385 51.0785 52.6849 50.465 53.9786 50.4174C54.4828 50.3984 54.9822 50.4507 55.4435 50.7028C56.0143 51.0119 56.1712 51.7301 55.786 52.2533C55.4673 52.6909 55.006 52.9049 54.5113 53.0666C53.9786 53.2379 53.4364 53.3187 52.9988 53.314M48.1427 48.3389C48.1617 49.3615 48.5612 50.2509 49.0892 51.0976C49.2033 51.2783 49.2557 51.1356 49.3175 51.05C49.7693 50.4079 50.069 49.6992 50.2021 48.924C50.3211 48.2438 50.264 47.5779 49.8692 46.9786C49.4602 46.3603 48.9132 46.3651 48.5042 46.9882C48.2378 47.3972 48.1284 47.849 48.1427 48.3389ZM52.9227 53.0381C53.1463 53.0238 53.3555 53.0143 53.5648 52.9953C54.0595 52.9572 54.5113 52.8193 54.8633 52.4483C55.044 52.2533 55.1867 52.044 55.0963 51.7777C55.006 51.5161 54.7681 51.4305 54.5161 51.4162C53.2985 51.3354 52.3139 51.8253 51.4863 52.6861C51.3389 52.8383 51.4863 52.8669 51.5862 52.8907C52.0285 53.0048 52.4804 53.0096 52.918 53.0429M45.6409 53.0238C46.0119 53.0238 46.3829 53.0096 46.7491 52.9287C46.9251 52.8907 46.9679 52.8288 46.8252 52.6814C46.3496 52.1867 45.8026 51.8062 45.151 51.6017C44.6469 51.44 44.1284 51.3829 43.6052 51.4923C43.1867 51.5827 43.0678 51.9204 43.3294 52.2581C43.434 52.3913 43.5719 52.4959 43.7099 52.6005C44.2901 53.0333 44.9798 52.981 45.6457 53.0238M49.1796 54.2129C49.4269 53.7373 49.6266 53.2949 49.912 52.8954C50.1403 52.5815 50.1356 52.5863 49.8312 52.3675C49.6504 52.2391 49.4744 52.1059 49.308 51.9632C49.2176 51.8823 49.151 51.8538 49.0559 51.9537C48.8609 52.1582 48.6183 52.3056 48.3853 52.4578C48.2711 52.5339 48.2473 52.6005 48.3377 52.7194C48.6706 53.1665 48.9703 53.6374 49.1796 54.2081" fill="#DD4140"/>
<path d="M17.0797 55.1927C17.0797 55.2307 17.0797 55.2735 17.0797 55.3116C17.0606 55.5256 17.1796 55.8586 17.0274 55.9347C16.761 56.0726 16.4186 55.9822 16.1094 55.9727C15.9477 55.9679 16.0095 55.8205 16.0095 55.7349C16.0095 54.9501 16.0095 54.1653 16.0095 53.3758C16.0095 51.2069 16.0143 49.0333 16 46.855C16 46.6267 16.0571 46.5506 16.2854 46.5791C16.5422 46.6124 16.8847 46.4697 17.0369 46.6362C17.1653 46.7789 17.0797 47.1118 17.0797 47.3639C17.0797 48.3627 17.0797 49.3568 17.0797 50.3556V50.7171C17.2842 50.4507 17.4269 50.2272 17.6314 50.0464C18.8109 49.0286 21.2699 49.2236 21.7646 51.4876C22.0071 52.5863 21.9786 53.6849 21.4411 54.7075C20.8419 55.8586 19.5767 56.396 18.3211 56.0583C17.8074 55.9204 17.4126 55.616 17.0797 55.1927ZM17.0797 52.8907C17.0797 53.0809 17.0797 53.2712 17.0797 53.4662C17.1035 54.3318 17.6837 55.05 18.5018 55.226C19.3532 55.4067 20.157 55.0024 20.528 54.1891C20.8704 53.4424 20.918 52.6528 20.761 51.8586C20.6754 51.421 20.4899 51.0167 20.1237 50.7266C19.1724 49.9846 17.7455 50.3794 17.2794 51.5018C17.0939 51.9489 17.0559 52.415 17.0797 52.8907Z" fill="#171717"/>
<path d="M38.0167 52.9763C38.0167 53.9037 38.0119 54.8074 38.0167 55.7159C38.0167 55.9156 37.9786 56.0108 37.7551 55.987C37.5077 55.9584 37.1748 56.0916 37.0321 55.9299C36.9084 55.7967 36.9893 55.4733 36.9893 55.2307C36.9893 52.4483 36.9893 49.6659 36.9845 46.8883C36.9845 46.6362 37.0464 46.5696 37.2985 46.5744C38.0167 46.5886 38.0167 46.5744 38.0167 47.283V52.572C38.5494 51.9917 39.025 51.4733 39.5054 50.9501C39.8859 50.5363 40.2711 50.1273 40.6469 49.7087C40.6992 49.6517 40.742 49.6136 40.8228 49.6136C41.2128 49.6136 41.5981 49.6136 42.0642 49.6136C41.6504 50.0417 41.2937 50.4127 40.937 50.7884C40.3662 51.3829 39.7955 51.9775 39.22 52.5625C39.1058 52.6766 39.1344 52.748 39.2343 52.8526C40.2283 53.8657 41.2128 54.8835 42.2021 55.8966C42.2117 55.9061 42.2069 55.9299 42.2164 55.9727C41.7931 55.9727 41.3746 55.9727 40.9513 55.9727C40.8323 55.9727 40.78 55.8966 40.7087 55.8205C39.8811 54.9168 39.0488 54.0179 38.2164 53.119C38.1641 53.0619 38.1356 52.981 38.0071 52.962" fill="#161717"/>
<path d="M26.7919 55.1404C26.4542 55.6493 25.9929 55.9727 25.3936 56.1059C24.5375 56.2914 23.5767 55.9822 23.1677 55.3782C22.4067 54.2509 23.0155 52.7052 24.3758 52.3342C25.0559 52.1487 25.7646 52.1201 26.459 52.0155C26.8823 51.9489 26.887 51.9537 26.8347 51.5256C26.7444 50.7551 26.3068 50.3603 25.5315 50.3556C25.3222 50.3556 25.113 50.3794 24.9037 50.4269C24.3995 50.5506 23.9429 50.7646 23.4958 51.1404C23.4958 50.7789 23.4958 50.465 23.4958 50.1511C23.4958 50.0417 23.5672 50.0179 23.6338 49.9798C24.585 49.4567 25.5886 49.3045 26.6302 49.6136C27.3532 49.8276 27.7194 50.3936 27.8526 51.1213C27.9001 51.3877 27.9144 51.6588 27.9096 51.9299C27.9096 53.1998 27.9049 54.4697 27.9096 55.7349C27.9096 55.9347 27.8573 56.006 27.6623 55.9822C27.396 55.9489 27.044 56.1059 26.8918 55.9109C26.7681 55.7492 26.868 55.4162 26.868 55.1546C26.8442 55.1499 26.8157 55.1404 26.7919 55.1356M26.8585 53.3092C26.8585 52.9763 26.7031 52.8272 26.3924 52.8621C26.3543 52.8669 26.3115 52.8669 26.2735 52.8716C25.6694 52.9525 25.0511 52.9715 24.4851 53.2331C24.1094 53.4043 23.9667 53.723 23.9382 54.1035C23.9096 54.484 24.0381 54.8217 24.3662 55.0405C24.8752 55.3829 25.7598 55.2926 26.2212 54.8835C26.7063 54.4507 26.9013 53.9085 26.8633 53.3092" fill="#161717"/>
<path d="M91.5767 51.1023C91.5767 50.8693 91.6052 50.6933 91.5719 50.5316C91.4911 50.132 91.7051 49.9703 92.0333 49.8276C92.8228 49.4852 93.6409 49.3901 94.478 49.5518C95.258 49.704 95.8193 50.3461 95.9382 51.1974C95.9715 51.4543 95.9905 51.7206 95.9905 51.9822C95.9952 53.2331 95.9905 54.4792 95.9952 55.7301C95.9952 55.9251 95.9524 56.0012 95.7479 55.987C95.4958 55.9679 95.1772 56.0678 95.0107 55.9489C94.83 55.8205 94.9726 55.4828 94.9441 55.2355C94.9394 55.1927 94.9632 55.1356 94.887 55.088C94.6635 55.402 94.4114 55.6921 94.0642 55.8823C93.2604 56.3294 91.9524 56.163 91.396 55.5446C90.6635 54.7313 90.7158 52.8859 92.3329 52.3722C92.9037 52.1915 93.503 52.182 94.0832 52.0773C94.3211 52.0345 94.5589 51.9965 94.8014 51.9727C94.9441 51.9584 94.9679 51.8823 94.9584 51.7729C94.8775 50.8502 94.5256 50.2081 93.2794 50.3651C92.9655 50.4031 92.6754 50.4983 92.3853 50.6124C92.1046 50.7266 91.8668 50.9025 91.5719 51.0928M94.9441 53.2712C94.9441 52.9509 94.7824 52.8098 94.459 52.8479C94.4114 52.8526 94.3591 52.8574 94.3068 52.8621C93.717 52.9525 93.1082 52.9525 92.547 53.2188C92.1475 53.4091 92.0095 53.7325 92.0048 54.1463C91.9952 54.5553 92.1284 54.893 92.5184 55.0928C92.9703 55.3211 93.4316 55.3021 93.8882 55.1261C94.5922 54.855 94.9489 54.2176 94.9441 53.2759" fill="#161717"/>
<path d="M78.9727 49.4852C80.4519 49.4709 81.3888 49.8942 81.931 50.9501C82.3543 51.7682 82.4352 52.6671 82.2545 53.566C81.8169 55.7634 79.6147 56.8146 77.6124 55.792C76.956 55.459 76.5232 54.9216 76.2806 54.2272C75.9524 53.2712 75.981 52.3104 76.3139 51.3639C76.7277 50.1796 77.8549 49.4804 78.9727 49.4852ZM77.113 52.5863C77.1035 53.2712 77.17 53.6707 77.327 54.0512C77.6599 54.8835 78.4019 55.3116 79.4388 55.264C80.2473 55.2307 80.8752 54.7361 81.1225 53.9085C81.3365 53.2093 81.3318 52.5006 81.1415 51.8015C80.9132 50.9454 80.352 50.465 79.4673 50.3556C78.6635 50.2557 77.874 50.6267 77.4554 51.3401C77.1891 51.7967 77.1082 52.2961 77.113 52.5863Z" fill="#161717"/>
<path d="M30.8157 50.6219C31.2533 50.0369 31.7765 49.6184 32.4994 49.5137C33.9453 49.2997 34.9156 50.0559 35.0345 51.4876C35.1534 52.9144 35.063 54.3461 35.0821 55.7777C35.0821 55.9299 35.0488 55.9822 34.8823 55.9917C34.0404 56.025 34.0404 56.0345 34.0404 55.1832C34.0404 54.075 34.0547 52.9715 34.0167 51.8633C33.9976 51.3259 33.8359 50.8122 33.3032 50.5173C32.4281 50.0322 31.258 50.5696 30.9299 51.6112C30.8442 51.8918 30.8109 52.182 30.8109 52.4769C30.8109 53.5565 30.8014 54.6314 30.8157 55.7111C30.8157 55.9442 30.7491 55.9917 30.5303 55.9917C29.7931 55.9822 29.7931 55.9917 29.7931 55.264C29.7931 53.4804 29.7979 51.6968 29.7884 49.9132C29.7884 49.6659 29.8597 49.6136 30.0928 49.6136C30.8109 49.6279 30.8109 49.6136 30.8109 50.327V50.6219H30.8157Z" fill="#171717"/>
<path d="M56.3139 49.6374C56.371 49.6279 56.39 49.6184 56.409 49.6184C56.742 49.6184 57.132 49.5185 57.3841 49.6612C57.6219 49.7991 57.6362 50.2224 57.7408 50.522C58.1926 51.8015 58.6492 53.0809 59.0963 54.3651C59.1677 54.5744 59.2057 54.7932 59.2771 55.0976C59.3817 54.465 59.61 53.9513 59.7955 53.4234C60.2331 52.1962 60.6754 50.9786 61.1177 49.7515C61.1558 49.6421 61.2271 49.6041 61.346 49.6089C61.6362 49.6184 61.931 49.6089 62.2402 49.6089C62.1974 49.8704 62.069 50.0845 61.9834 50.3128C61.2557 52.1439 60.5232 53.9703 59.7955 55.8015C59.767 55.8776 59.7622 55.9727 59.6576 55.9727C59.3674 55.9775 59.0725 55.987 58.7824 55.9727C58.6492 55.9632 58.654 55.8062 58.6207 55.7111C57.9168 53.8609 57.2176 52.0108 56.5184 50.1606C56.4566 49.9941 56.39 49.8276 56.3187 49.6326" fill="#161717"/>
<path d="M75.2485 55.069C75.2485 55.264 75.2295 55.4162 75.2485 55.5637C75.3056 55.8871 75.1391 56.0203 74.8538 56.0726C74.5161 56.1344 74.1736 56.1582 73.8359 56.0869C73.1653 55.9442 72.7372 55.4638 72.6516 54.7789C72.566 54.094 72.6136 53.4091 72.6041 52.7242C72.5945 52.0583 72.5993 51.3924 72.6041 50.7266C72.6041 50.5649 72.5755 50.4792 72.3948 50.5078C72.3234 50.5173 72.2521 50.5078 72.1807 50.5078C71.4483 50.5078 71.4483 50.5078 71.5054 49.7801C71.5149 49.6469 71.5624 49.5993 71.6861 49.6136C71.7241 49.6136 71.767 49.6136 71.805 49.6136C72.0618 49.5946 72.4043 49.7278 72.5565 49.5613C72.6849 49.4186 72.5945 49.0857 72.5993 48.8336C72.5993 48.7718 72.5945 48.7099 72.5993 48.6528C72.6231 48.4578 72.4994 48.182 72.6611 48.0821C72.918 47.9251 73.2414 47.8681 73.541 47.792C73.679 47.7539 73.6314 47.8918 73.6314 47.9584C73.6314 48.4341 73.6409 48.9049 73.6314 49.3806C73.6266 49.566 73.6694 49.6279 73.8645 49.6184C74.245 49.6041 74.6302 49.6231 75.0107 49.6089C75.201 49.6041 75.2485 49.6659 75.2485 49.8514C75.2485 50.5078 75.258 50.5078 74.6159 50.5078C74.3639 50.5078 74.1118 50.522 73.8597 50.5078C73.6647 50.4935 73.6266 50.5696 73.6314 50.7503C73.6409 51.8681 73.6314 52.9858 73.6314 54.1083C73.6314 54.1796 73.6314 54.2509 73.6314 54.3175C73.7027 55.1308 74.302 55.4828 75.0535 55.1499C75.0963 55.1308 75.1439 55.1118 75.2343 55.0738" fill="#161717"/>
<path d="M70.7444 50.8217C70.3829 50.6267 70.0452 50.4459 69.6647 50.3889C68.2711 50.1748 67.1344 51.0833 67.0392 52.4959C66.9917 53.2236 67.0583 53.918 67.5196 54.5268C68.195 55.4115 69.5886 55.4543 70.5018 54.8835C70.5731 54.8407 70.6207 54.7456 70.7539 54.7646C70.7539 55.031 70.7539 55.2973 70.7539 55.5637C70.7539 55.6731 70.7016 55.7254 70.6159 55.7682C69.3127 56.4198 67.0821 56.377 66.2402 54.3841C65.698 53.1047 65.893 51.264 67.0535 50.2414C67.8383 49.547 68.7848 49.3758 69.7884 49.5042C70.7681 49.6279 70.8014 49.6992 70.7396 50.8169" fill="#171717"/>
<path d="M88.9655 63.4923C88.6706 63.7016 88.3853 63.9251 88.0761 64.1106C87.5957 64.4008 87.1867 64.3912 86.9013 64.1249C86.6302 63.8681 86.5826 63.3639 86.8205 62.9121C87.3722 61.8657 88.3187 61.4471 89.4364 61.3377C89.7265 61.3092 90.0167 61.3663 90.3115 61.3853C90.5113 61.3996 90.5256 61.4519 90.4257 61.6184C90.107 62.1558 89.8407 62.7171 89.6457 63.3116C89.6029 63.4495 89.4887 63.6207 89.6219 63.7349C89.7455 63.8395 89.8978 63.6873 90.0404 63.6588C90.1641 63.635 90.283 63.4067 90.3971 63.5732C90.497 63.7206 90.1926 63.6826 90.2117 63.8823C90.4019 63.9537 90.5351 63.8253 90.6397 63.6778C90.9774 63.2022 91.2485 62.6838 91.5387 62.1796C92.157 61.1094 92.6421 59.9632 93.4364 58.9977C93.8597 58.484 94.3258 58.0417 94.9917 57.8609C95.6433 57.6849 95.8526 58.0512 95.9715 58.5696C95.981 58.6219 95.981 58.6742 95.9239 58.698C95.8573 58.7218 95.8145 58.6885 95.7765 58.6314C95.415 58.0417 95.1629 57.9989 94.6112 58.4127C93.7979 59.0215 93.2604 59.8443 92.8038 60.7242C92.5803 61.1618 92.3282 61.5851 92.1712 62.0559C92.1617 62.0702 92.1427 62.094 92.1475 62.1035C92.1665 62.1368 92.195 62.1273 92.2188 62.1083C92.6183 61.88 92.9655 61.566 93.3936 61.3758C93.7218 61.2283 94.0452 61.157 94.3639 61.3901C94.6587 61.6041 94.7206 61.8609 94.5684 62.2414C94.4162 62.6172 94.1689 62.9358 93.9501 63.2735C93.8835 63.3734 93.8121 63.4733 93.7551 63.5779C93.7075 63.6683 93.5981 63.7634 93.6837 63.8776C93.7646 63.987 93.8835 63.9346 93.9881 63.9109C94.0499 63.8966 94.1403 63.8395 94.1689 63.9347C94.1974 64.025 94.107 64.0868 94.0309 64.1011C93.874 64.1344 93.7122 64.1629 93.5553 64.1582C93.2747 64.1487 92.9988 64.0821 92.7134 64.1249C92.604 64.1392 92.5232 64.0773 92.4376 63.9299C92.9085 64.0583 93.0274 63.6873 93.2271 63.44C93.5696 63.0072 93.9358 62.5886 94.1165 62.0512C94.264 61.6041 94.0785 61.3948 93.6076 61.4804C93.365 61.5232 93.1463 61.6136 92.9465 61.761C92.3092 62.2367 91.7955 62.8217 91.434 63.5351C91.3817 63.635 91.2818 63.7682 91.415 63.8633C91.5434 63.9537 91.6813 63.8776 91.8002 63.7872C91.8716 63.7349 91.9049 63.5304 92.0381 63.6873C92.1379 63.8062 91.9952 63.8871 91.9191 63.9489C91.7669 64.0726 91.591 64.1677 91.4007 64.1725C91.082 64.1725 90.7729 64.182 90.4542 64.2771C90.1974 64.358 90.2069 64.0583 90.1261 63.8633C89.8645 63.987 89.6124 64.1249 89.3508 64.2343C89.1986 64.2961 89.0178 64.4055 88.8704 64.2628C88.7277 64.1249 88.8704 63.9632 88.9084 63.8157C88.9322 63.7206 88.9655 63.6255 88.9988 63.5304L89.0226 63.4685C89.0226 63.4685 88.9846 63.4876 88.9655 63.4971M87.3627 63.3924C87.3436 63.8681 87.6195 64.0393 88.0571 63.8395C88.937 63.44 89.346 62.6742 89.6504 61.8229C89.7027 61.6802 89.6314 61.6612 89.5125 61.6326C88.547 61.3853 87.4007 62.3175 87.3627 63.3924Z" fill="#9DBF58"/>
<path d="M85.0083 50.8312C85.1415 50.5981 85.2176 50.3318 85.3983 50.1225C85.8407 49.6184 86.3972 49.4329 87.0535 49.5423C87.1582 49.5613 87.2438 49.5851 87.2438 49.723C87.239 50.0226 87.2438 50.3223 87.2438 50.6314C85.9596 50.0987 85.0939 50.9691 84.9941 52.2723C84.9085 53.3663 84.975 54.465 84.9608 55.5637C84.9608 55.9775 84.9608 55.9775 84.547 55.9775C84.1284 55.9775 83.9192 55.7698 83.9192 55.3544C83.9192 53.5423 83.9192 51.7254 83.9192 49.9132C83.9192 49.6897 83.9572 49.5756 84.214 49.6088C84.4519 49.6374 84.7658 49.5375 84.9132 49.6612C85.0702 49.7896 84.937 50.1178 84.9703 50.3556C84.9893 50.5173 84.8989 50.6885 85.0178 50.8407C85.0036 50.8312 84.9941 50.8217 84.9798 50.8122C84.9798 50.8264 84.9703 50.8407 84.9655 50.8502C84.9798 50.8455 84.9988 50.836 85.0131 50.8312" fill="#171717"/>
<path d="M69.7788 64.1915C68.9893 64.1677 68.2711 63.9489 67.7004 63.3687C67.3484 63.0119 67.1819 62.5791 67.2866 62.0702C67.4626 61.1951 68.2711 60.7765 69.0797 61.138C69.1796 61.1855 69.3222 61.2331 69.2937 61.3568C69.2604 61.509 69.1177 61.4281 69.0131 61.4138C68.1142 61.2807 67.629 61.9228 67.9144 62.8502C68.0809 63.3972 68.4471 63.7539 68.9798 63.9109C69.7123 64.1249 70.44 64.0726 71.1106 63.6826C71.8335 63.2688 72.0523 62.3556 71.6576 61.5327C71.3769 60.9525 70.9013 60.5482 70.459 60.1106C70.2592 59.9109 70.088 59.6873 69.9596 59.4352C69.5363 58.5886 69.9739 57.8181 71.0012 57.723C71.4102 57.6849 71.8002 57.8039 72.157 58.0084C72.5184 58.2129 72.6706 58.5791 72.547 58.893C72.4947 59.0262 72.4233 59.1261 72.2568 59.0785C72.1046 59.031 71.981 58.9501 71.9524 58.7789C71.9334 58.66 72.0381 58.66 72.1094 58.641C72.2664 58.6029 72.2854 58.5078 72.1998 58.3984C71.9144 58.0369 71.1391 57.742 70.6825 58.1225C70.3543 58.3984 70.2783 58.6647 70.4637 59.05C70.6683 59.4781 71.006 59.7967 71.3484 60.1106C71.8002 60.5197 72.1522 60.9905 72.2901 61.5898C72.5184 62.5791 72.0143 63.5161 71.044 63.9394C70.6397 64.1154 70.2212 64.201 69.7788 64.1915Z" fill="#9DBF58"/>
<path d="M63.3436 52.8146C63.3436 51.8395 63.3484 50.8597 63.3436 49.8847C63.3436 49.6754 63.3912 49.6136 63.61 49.6136C64.3662 49.6184 64.3662 49.6136 64.3662 50.3603C64.3662 52.1439 64.3615 53.9228 64.371 55.7064C64.371 55.9442 64.3044 56.006 64.0856 55.9822C63.8478 55.9584 63.5291 56.0821 63.3912 55.9299C63.2723 55.8062 63.3532 55.4923 63.3532 55.2593C63.3532 54.4412 63.3532 53.6279 63.3532 52.8098" fill="#171717"/>
<path d="M89.3936 52.8193C89.3936 53.7848 89.3888 54.7503 89.3936 55.7159C89.3936 55.9204 89.3508 56.0155 89.132 55.987C88.8847 55.9584 88.5565 56.0964 88.4138 55.9299C88.2901 55.792 88.371 55.4685 88.371 55.2307C88.371 53.4709 88.371 51.7111 88.3662 49.9465C88.3662 49.6992 88.3995 49.5993 88.6849 49.6089C89.3936 49.6326 89.3936 49.6184 89.3936 50.3128V52.8193Z" fill="#171717"/>
<path d="M74.811 63.6207C74.5446 63.811 74.3544 63.9775 74.1356 64.0964C73.7693 64.3009 73.4269 64.2628 73.1558 64.025C72.8799 63.7777 72.8181 63.4971 72.9846 63.1594C73.1082 62.9073 73.289 62.6885 73.4554 62.4602C73.6203 62.2383 73.5743 62.094 73.3175 62.0274C73.3841 61.8562 73.5601 61.8276 73.6837 61.7373C73.8978 61.5851 74.1498 61.4995 74.3876 61.3948C74.4685 61.3615 74.5589 61.2949 74.635 61.3853C74.7063 61.4709 74.6873 61.5756 74.6255 61.6659C74.4923 61.8562 74.3639 62.0464 74.2259 62.2319C73.9786 62.5649 73.7503 62.9073 73.5981 63.2926C73.5363 63.4495 73.484 63.6207 73.6362 63.7682C73.7979 63.9251 73.9739 63.8728 74.1403 63.792C74.7729 63.4828 75.201 62.9358 75.6528 62.4222C75.9192 62.1225 76.1807 61.8134 76.4376 61.5042C76.5089 61.4186 76.585 61.3425 76.742 61.3473C76.6469 61.6326 76.4519 61.8467 76.3044 62.0845C75.824 62.8645 75.4816 63.7159 75.0155 64.5054C74.5161 65.3568 73.9691 66.1748 73.1653 66.7884C72.8799 67.0072 72.5755 67.1737 72.2283 67.2545C71.805 67.3544 71.4626 67.1737 71.1677 66.8883C71.0821 66.8074 71.025 66.698 71.0725 66.5649C71.8526 67.1166 72.4614 67.031 73.1272 66.308C73.8407 65.5375 74.3115 64.6195 74.8157 63.616" fill="#9DBF58"/>
<path d="M79.1629 63.4352C78.8062 63.6826 78.5161 63.9014 78.2117 64.0964C77.7646 64.3865 77.308 64.4008 77.0321 64.1582C76.7658 63.9204 76.7039 63.44 76.9037 62.9739C77.2224 62.2414 77.8264 61.8229 78.5446 61.5518C79.1629 61.3187 79.8002 61.3044 80.4519 61.3901C80.6421 61.4138 80.6421 61.4662 80.547 61.6088C80.176 62.1891 79.9239 62.8217 79.7099 63.4733C79.6813 63.5589 79.6338 63.654 79.7099 63.7301C79.7955 63.8205 79.9001 63.7634 79.9905 63.7254C80.1284 63.6635 80.2616 63.5922 80.3995 63.5304C80.4661 63.4971 80.5232 63.5304 80.5517 63.5827C80.585 63.6493 80.5184 63.6683 80.4804 63.6873C80.1047 63.9204 79.7241 64.1534 79.3008 64.2914C79.1962 64.3247 79.0725 64.358 78.9822 64.2771C78.887 64.1867 78.9299 64.0678 78.9632 63.9632C79.0155 63.8015 79.0821 63.6493 79.1677 63.4352M77.4935 63.4162C77.4887 63.8966 77.7408 64.0583 78.1689 63.8443C78.5161 63.6731 78.8109 63.44 79.0725 63.1546C79.434 62.7646 79.5529 62.2557 79.7765 61.7991C79.843 61.6612 79.7337 61.6612 79.6433 61.6374C78.6302 61.3901 77.5077 62.3175 77.4935 63.4162Z" fill="#9DBF58"/>
<path d="M80.2711 64.0916C80.8799 63.9156 81.151 63.4543 81.3888 62.9549C81.5838 62.5506 81.7884 62.1511 81.9881 61.7515C81.9596 61.7278 81.9453 61.7087 81.931 61.704C81.8502 61.6754 81.7265 61.7801 81.6885 61.6659C81.6504 61.5518 81.7741 61.4947 81.8644 61.4566C82.0975 61.3568 82.3401 61.3044 82.5922 61.2712C82.6397 61.2664 82.7206 61.2569 82.7348 61.2854C82.9299 61.5756 83.1344 61.3901 83.3389 61.2997C83.4673 61.2426 83.6052 61.1998 83.7479 61.2093C83.9952 61.2283 84.2426 61.2569 84.3234 61.547C84.39 61.7753 84.1903 62.1368 83.9572 62.2557C83.8526 62.308 83.7432 62.3413 83.648 62.2605C83.5387 62.1701 83.5957 62.0607 83.6338 61.9561C83.6671 61.8657 83.7622 61.7848 83.6671 61.6849C83.5767 61.5898 83.4626 61.5851 83.3341 61.6088C82.8633 61.6945 82.5494 62.0036 82.2783 62.3603C81.9881 62.7456 81.7646 63.1784 81.5791 63.6207C81.4792 63.8585 81.5268 63.9061 81.7836 63.8728C81.8549 63.8633 81.9453 63.7682 81.9929 63.8776C82.0404 63.9822 81.9643 64.0678 81.893 64.1439C81.874 64.1629 81.8454 64.182 81.8169 64.1867C81.2985 64.239 80.7848 64.2248 80.2711 64.0868" fill="#9DBF58"/>
<path d="M83.9192 64.1154C84.8133 63.6398 85.0083 62.7599 85.3841 61.9893C85.289 61.9323 85.2509 61.9703 85.2081 61.9893C85.1415 62.0226 85.0702 62.0607 85.0226 61.9798C84.975 61.9037 85.0036 61.8229 85.0702 61.7658C85.1938 61.6564 85.3413 61.5898 85.4887 61.5327C85.6932 61.4519 85.8978 61.3615 86.1023 61.2854C86.1784 61.2569 86.2687 61.1808 86.3448 61.2854C86.4114 61.3758 86.3639 61.4662 86.3211 61.5423C86.05 62.0274 85.7788 62.503 85.503 62.9834C85.3983 63.1689 85.2747 63.3401 85.1796 63.5304C85.0559 63.7872 85.1272 63.8966 85.4079 63.9014C85.4744 63.9014 85.5268 63.8918 85.541 63.9727C85.5553 64.0773 85.5173 64.1582 85.4126 64.1772C85.2747 64.2058 85.1272 64.2058 84.9988 64.1439C84.7753 64.0393 84.5565 64.0393 84.3329 64.1487C84.2283 64.201 84.1047 64.2105 83.9239 64.1154" fill="#9DBF58"/>
<path d="M86.9917 59.9204C86.9917 60.201 86.7919 60.4388 86.5589 60.4436C86.3163 60.4436 86.0928 60.1867 86.1023 59.9061C86.1118 59.6398 86.3258 59.3829 86.5398 59.3734C86.7777 59.3687 86.9917 59.6303 86.9917 59.9204Z" fill="#9DBF58"/>
<path d="M92.2235 62.0987C92.1998 62.113 92.1712 62.1273 92.1522 62.0892C92.1522 62.0797 92.1665 62.0607 92.176 62.0464C92.1903 62.0654 92.2045 62.0797 92.2235 62.0987Z" fill="white"/>
<path d="M88.9655 63.4923C88.9655 63.4923 89.0036 63.4733 89.0226 63.4638L88.9988 63.5256C88.9988 63.5256 88.975 63.5018 88.9655 63.4923Z" fill="white"/>
<path d="M85.0083 50.8312C85.0083 50.8312 84.975 50.8455 84.9608 50.8502C84.9655 50.836 84.9703 50.8264 84.975 50.8122C84.9893 50.8217 84.9988 50.8312 85.0131 50.8407V50.8312" fill="white"/>
</g>
<rect x="1" y="1" width="110" height="110" rx="9" stroke="#CCCCCC" stroke-width="2"/>
<defs>
<clipPath id="clip0_528_40">
<rect x="2" y="2" width="108" height="108" rx="8" fill="white"/>
</clipPath>
</defs>
</svg>
