<svg width="112" height="112" viewBox="0 0 112 112" fill="none" xmlns="http://www.w3.org/2000/svg">
<g clip-path="url(#clip0_517_508)">
<rect x="2" y="2" width="108" height="108" rx="8" fill="white"/>
<path d="M16 48.9456C16.4177 48.836 16.8355 48.7263 17.2804 48.6097C17.624 49.8856 17.9651 51.1521 18.3128 52.4427C24.2947 50.8418 30.263 49.2445 36.2474 47.6429C36.3641 48.0749 36.4745 48.4839 36.5911 48.9163C30.1801 50.632 23.7882 52.3426 17.382 54.0568C17.2125 53.4308 17.0493 52.8326 16.8883 52.2337C16.6151 51.2163 16.3433 50.1985 16.0693 49.1815C16.0543 49.125 16.0235 49.0729 16 49.019C16 48.9944 16 48.9702 16 48.9456Z" fill="#28317D"/>
<path d="M43.4352 53.9472C43.5541 54.3891 43.6641 54.7988 43.7785 55.2242C41.6377 55.7967 39.5186 56.3638 37.3752 56.9366C36.9729 55.4395 36.5746 53.9556 36.1723 52.4592C30.1838 54.0609 24.2173 55.6563 18.235 57.2561C18.4082 57.9016 18.5765 58.5288 18.7507 59.179C23.022 58.0373 27.279 56.8992 31.561 55.7546C31.6747 56.176 31.7862 56.5901 31.9035 57.0269C27.2057 58.2845 22.5188 59.5388 17.8144 60.7979C17.4124 59.3004 17.0163 57.826 16.6132 56.3245C23.4449 54.4962 30.2645 52.6716 37.109 50.84C37.5091 52.3301 37.9063 53.8089 38.3109 55.3159C40.017 54.86 41.7151 54.4064 43.4352 53.9468V53.9472Z" fill="#E62530"/>
<path d="M35.0353 60.9861C34.5207 59.0653 34.0124 57.1681 33.4975 55.2451C33.9134 55.1318 34.3212 55.0207 34.758 54.9015C35.1596 56.3935 35.5576 57.8708 35.9639 59.3811C38.7378 58.6395 41.5009 57.9005 44.2861 57.1556C44.3995 57.5708 44.511 57.979 44.6302 58.4151C41.4331 59.2718 38.2463 60.1256 35.0353 60.9861Z" fill="#ED721F"/>
<path d="M37.5425 47.3036C37.9731 47.1885 38.3776 47.0803 38.8082 46.9651C39.037 47.8145 39.2622 48.6508 39.4922 49.5049C39.0587 49.6216 38.6505 49.7316 38.2265 49.8457C37.9965 48.9907 37.7724 48.1582 37.5425 47.3033V47.3036Z" fill="#ED721F"/>
<path d="M22.4059 47.238C22.6336 48.0907 22.8562 48.9236 23.0851 49.7804C22.6619 49.8944 22.2537 50.0045 21.8245 50.12C21.595 49.2691 21.3694 48.4329 21.1394 47.5802C21.5616 47.4661 21.9712 47.3554 22.4059 47.238Z" fill="#ED721F"/>
<path d="M49.4941 51.239H51.7375C51.9493 51.239 52.1675 51.2229 52.3922 51.1908C52.6232 51.1587 52.8318 51.0978 53.018 51.0079C53.2105 50.9116 53.3678 50.7832 53.4898 50.6228C53.6117 50.4559 53.6727 50.2377 53.6727 49.9681C53.6727 49.7049 53.6149 49.4835 53.4994 49.3037C53.3903 49.124 53.2458 48.9796 53.0661 48.8705C52.8928 48.7549 52.6938 48.6715 52.4692 48.6201C52.251 48.5688 52.0295 48.5431 51.8049 48.5431H49.4941V51.239ZM49.4941 48.0521H51.8049C52.0103 48.0521 52.2092 48.036 52.4018 48.0039C52.6008 47.9654 52.7773 47.9012 52.9313 47.8114C53.0918 47.7151 53.2202 47.5899 53.3165 47.4359C53.4127 47.2754 53.4609 47.0764 53.4609 46.839C53.4609 46.595 53.4095 46.3864 53.3068 46.2131C53.2106 46.0334 53.079 45.889 52.9121 45.7799C52.7516 45.6643 52.5687 45.5809 52.3633 45.5295C52.1579 45.4718 51.9493 45.4429 51.7375 45.4429H49.4941V48.0521ZM51.7375 45C52.0199 45 52.2927 45.0353 52.5558 45.1059C52.8254 45.1765 53.0629 45.2888 53.2683 45.4429C53.4737 45.5905 53.6374 45.7799 53.7593 46.0109C53.8877 46.242 53.9519 46.518 53.9519 46.839C53.9519 47.1856 53.8524 47.4872 53.6534 47.744C53.4609 47.9943 53.1945 48.174 52.8543 48.2832C53.2779 48.3987 53.6053 48.6137 53.8364 48.9282C54.0674 49.2363 54.183 49.5862 54.183 49.9777C54.183 50.3243 54.1092 50.6131 53.9615 50.8442C53.8139 51.0689 53.6246 51.2486 53.3935 51.3834C53.1624 51.5118 52.8992 51.6048 52.604 51.6626C52.3151 51.714 52.0263 51.7396 51.7375 51.7396H48.9742V45H51.7375Z" fill="#28317D"/>
<path d="M59.8914 46.9834V51.7396H59.4197V50.7287C59.1886 51.101 58.903 51.377 58.5628 51.5567C58.2226 51.73 57.8599 51.8167 57.4748 51.8167C57.141 51.8167 56.8265 51.7589 56.5312 51.6433C56.2424 51.5214 55.9889 51.3513 55.7706 51.1331C55.5524 50.9148 55.3791 50.6581 55.2507 50.3628C55.1223 50.0611 55.0582 49.7274 55.0582 49.3615C55.0582 48.9956 55.1223 48.6651 55.2507 48.3698C55.3791 48.0681 55.5524 47.8114 55.7706 47.5996C55.9889 47.3878 56.2424 47.2241 56.5312 47.1085C56.8265 46.9866 57.141 46.9256 57.4748 46.9256C57.8599 46.9256 58.229 47.0155 58.582 47.1952C58.9415 47.3749 59.2207 47.6509 59.4197 48.0232V46.9834H59.8914ZM57.4748 47.3781C57.2052 47.3781 56.9517 47.4263 56.7142 47.5225C56.4767 47.6124 56.2713 47.744 56.098 47.9173C55.9247 48.0906 55.7867 48.2992 55.684 48.5431C55.5813 48.787 55.5299 49.0598 55.5299 49.3615C55.5299 49.6568 55.5813 49.9296 55.684 50.1799C55.7867 50.4238 55.9247 50.6324 56.098 50.8057C56.2713 50.979 56.4767 51.1138 56.7142 51.2101C56.9517 51.3064 57.2052 51.3545 57.4748 51.3545C57.9177 51.3545 58.2835 51.2582 58.5724 51.0657C58.8676 50.8667 59.0891 50.6196 59.2367 50.3243C59.3843 50.029 59.4582 49.7113 59.4582 49.3711C59.4582 49.0245 59.3843 48.7036 59.2367 48.4083C59.0891 48.1131 58.8676 47.8692 58.5724 47.6766C58.2835 47.4776 57.9177 47.3781 57.4748 47.3781Z" fill="#28317D"/>
<path d="M61.6187 46.9834V47.8306C61.8048 47.5033 62.0487 47.269 62.3504 47.1278C62.6585 46.9802 62.9794 46.9031 63.3132 46.8967C63.6342 46.8967 63.9262 46.9449 64.1894 47.0411C64.4525 47.1374 64.6772 47.2754 64.8633 47.4552C65.0495 47.6349 65.1939 47.8563 65.2966 48.1195C65.4057 48.3762 65.4603 48.6683 65.4603 48.9956V51.7396H64.9885V49.0053C64.9885 48.4597 64.8344 48.0489 64.5264 47.7729C64.2247 47.4905 63.8139 47.3525 63.294 47.3589C63.0501 47.3589 62.8254 47.4038 62.62 47.4937C62.4146 47.5835 62.2381 47.7055 62.0905 47.8595C61.9428 48.0136 61.8273 48.1965 61.7439 48.4083C61.6668 48.6201 61.6283 48.848 61.6283 49.0919V51.7396H61.1565V46.9834H61.6187Z" fill="#28317D"/>
<path d="M67.1374 45V49.063L69.3808 46.9834H70.0066V47.0026L67.5996 49.2267L70.2858 51.7107V51.7396H69.6889L67.1374 49.4096V51.7396H66.6753V45H67.1374Z" fill="#28317D"/>
<path d="M50.3634 53.5096V59.71H54.2252V61.0187H48.9474V53.5096H50.3634Z" fill="#28317D"/>
<path d="M59.5512 55.7301H60.8063V61.0187H59.5727L59.5083 60.2463C59.4368 60.4037 59.3331 60.5395 59.1972 60.654C59.0613 60.7684 58.9147 60.8649 58.7574 60.9436C58.6001 61.0223 58.4356 61.0795 58.264 61.1152C58.0995 61.1582 57.9421 61.1796 57.792 61.1796C57.3986 61.1796 57.0339 61.1224 56.6978 61.008C56.3688 60.8864 56.0827 60.7076 55.8396 60.4716C55.5964 60.2356 55.4069 59.9424 55.271 59.592C55.1352 59.2415 55.0672 58.8339 55.0672 58.3691C55.0672 57.9114 55.1387 57.5109 55.2818 57.1676C55.4248 56.8172 55.6179 56.5275 55.861 56.2987C56.1113 56.0627 56.4046 55.8875 56.7407 55.773C57.0768 55.6586 57.438 55.6014 57.8241 55.6014C58.1817 55.6014 58.5143 55.6801 58.8218 55.8374C59.1293 55.9876 59.3581 56.195 59.5083 56.4596L59.5512 55.7301ZM57.9421 56.7707C57.7276 56.7707 57.5238 56.8064 57.3307 56.878C57.1376 56.9495 56.9695 57.0532 56.8265 57.1891C56.6906 57.3249 56.5798 57.493 56.4939 57.6932C56.4153 57.8935 56.376 58.1188 56.376 58.3691C56.376 58.6194 56.4153 58.8446 56.4939 59.0449C56.5798 59.2451 56.6906 59.4168 56.8265 59.5598C56.9695 59.6957 57.1376 59.7994 57.3307 59.8709C57.5238 59.9424 57.7276 59.9782 57.9421 59.9782C58.2854 59.9782 58.5715 59.8995 58.8003 59.7422C59.0292 59.5848 59.2008 59.3882 59.3152 59.1522C59.4297 58.909 59.4869 58.6515 59.4869 58.3798C59.4869 58.1009 59.4297 57.8434 59.3152 57.6074C59.2008 57.3643 59.0292 57.164 58.8003 57.0067C58.5715 56.8494 58.2854 56.7707 57.9421 56.7707Z" fill="#28317D"/>
<path d="M65.4548 61.0187V58.1867C65.4548 58.0151 65.4297 57.8506 65.3797 57.6932C65.3368 57.5288 65.2688 57.3857 65.1759 57.2641C65.09 57.1354 64.9792 57.0353 64.8433 56.9638C64.7074 56.8923 64.5501 56.8565 64.3713 56.8565C64.1925 56.8565 64.0316 56.8923 63.8886 56.9638C63.7527 57.0353 63.6347 57.1354 63.5346 57.2641C63.4416 57.3857 63.3701 57.5288 63.32 57.6932C63.27 57.8506 63.2449 58.0151 63.2449 58.1867V61.0187H61.9362V55.7194H63.1484L63.2449 56.3631C63.388 56.0913 63.5918 55.9018 63.8564 55.7945C64.1282 55.6872 64.3892 55.6336 64.6395 55.6336C64.9613 55.6336 65.2653 55.7087 65.5513 55.8589C65.8374 56.0019 66.0555 56.2558 66.2057 56.6205C66.4417 56.2415 66.7099 55.9876 67.0102 55.8589C67.3106 55.723 67.6324 55.655 67.9757 55.655C68.7337 55.655 69.2951 55.8732 69.6599 56.3094C70.0317 56.7457 70.2177 57.3643 70.2177 58.1652V61.0187H68.909V58.1652C68.909 57.9936 68.8911 57.8291 68.8553 57.6718C68.8196 57.5144 68.7588 57.3786 68.673 57.2641C68.5943 57.1426 68.4906 57.0496 68.3619 56.9852C68.2403 56.9137 68.0901 56.878 67.9113 56.878C67.7325 56.878 67.5716 56.9137 67.4286 56.9852C67.2927 57.0567 67.1747 57.1533 67.0746 57.2749C66.9745 57.3893 66.8958 57.5288 66.8386 57.6932C66.7885 57.8506 66.7635 58.0151 66.7635 58.1867V61.0187H65.4548Z" fill="#28317D"/>
<path d="M74.3983 59.8816C74.62 59.8816 74.8238 59.8423 75.0098 59.7636C75.1957 59.6849 75.353 59.5777 75.4818 59.4418C75.6177 59.3059 75.7214 59.1486 75.7929 58.9698C75.8644 58.7838 75.9001 58.5872 75.9001 58.3798C75.9001 58.1724 75.8644 57.9793 75.7929 57.8005C75.7285 57.6146 75.632 57.4537 75.5032 57.3178C75.3745 57.1819 75.2172 57.0746 75.0312 56.996C74.8453 56.9173 74.6343 56.878 74.3983 56.878C74.1623 56.878 73.9513 56.9173 73.7654 56.996C73.5795 57.0746 73.4221 57.1819 73.2934 57.3178C73.1647 57.4537 73.0646 57.6146 72.993 57.8005C72.9287 57.9793 72.8965 58.1724 72.8965 58.3798C72.8965 58.5872 72.9323 58.7838 73.0038 58.9698C73.0753 59.1486 73.1754 59.3059 73.3041 59.4418C73.44 59.5777 73.6009 59.6849 73.7869 59.7636C73.9728 59.8423 74.1766 59.8816 74.3983 59.8816ZM71.4698 63.2285V55.7301H72.6927L72.7785 56.4596C72.9859 56.1592 73.2469 55.9447 73.5616 55.816C73.8834 55.6801 74.1945 55.6121 74.4949 55.6121C74.9025 55.6121 75.2708 55.6837 75.5998 55.8267C75.9359 55.9697 76.222 56.1664 76.458 56.4167C76.7011 56.6598 76.8871 56.9531 77.0158 57.2963C77.1445 57.6324 77.2089 57.9936 77.2089 58.3798C77.2089 58.766 77.1481 59.1271 77.0265 59.4632C76.9121 59.7994 76.7404 60.0926 76.5116 60.3429C76.2827 60.5932 76.0003 60.7899 75.6641 60.9329C75.3352 61.0759 74.9597 61.1474 74.5378 61.1474C74.4019 61.1474 74.2481 61.1331 74.0765 61.1045C73.912 61.0831 73.7475 61.0437 73.583 60.9865C73.4257 60.9293 73.2755 60.8542 73.1325 60.7612C72.9895 60.6611 72.8715 60.5395 72.7785 60.3965V63.2285H71.4698Z" fill="#28317D"/>
<path d="M79.4319 55.7301V58.4978C79.4319 58.9054 79.5392 59.2451 79.7538 59.5169C79.9683 59.7815 80.2865 59.9138 80.7085 59.9138C80.9087 59.9138 81.0911 59.8745 81.2556 59.7958C81.4272 59.7171 81.5702 59.6098 81.6847 59.474C81.8062 59.3381 81.8992 59.1808 81.9636 59.002C82.0279 58.8232 82.0601 58.6337 82.0601 58.4334V55.7301H83.3581V61.0294H82.1889L82.103 60.3107C81.8313 60.5825 81.5559 60.7827 81.277 60.9114C81.0053 61.0402 80.6835 61.1045 80.3116 61.1045C79.9969 61.1045 79.7037 61.0473 79.4319 60.9329C79.1673 60.8113 78.9385 60.6397 78.7454 60.418C78.5523 60.1963 78.3985 59.9245 78.2841 59.6027C78.1768 59.2809 78.1232 58.9161 78.1232 58.5085V55.7301H79.4319Z" fill="#28317D"/>
<path d="M88.4282 61.0187V58.2511C88.4282 57.8434 88.3209 57.5073 88.1064 57.2427C87.8918 56.9709 87.5736 56.8351 87.1516 56.8351C86.9514 56.8351 86.7655 56.8744 86.5938 56.9531C86.4294 57.0317 86.2863 57.139 86.1647 57.2749C86.0503 57.4108 85.9609 57.5681 85.8966 57.7469C85.8322 57.9257 85.8 58.1152 85.8 58.3154V61.0187H84.502V55.7194H85.6713L85.7571 56.4381C86.0289 56.1735 86.3006 55.9769 86.5724 55.8481C86.8513 55.7123 87.1588 55.6443 87.4949 55.6443C87.8096 55.6443 88.1028 55.7015 88.3746 55.816C88.6463 55.9304 88.8823 56.0984 89.0826 56.3201C89.2828 56.5418 89.4401 56.8136 89.5546 57.1354C89.6761 57.4572 89.7369 57.8255 89.7369 58.2403V61.0187H88.4282Z" fill="#28317D"/>
<path d="M95.0345 55.1938L96 55.9232L95.41 56.6741C95.6174 56.903 95.7604 57.1497 95.8391 57.4143C95.9249 57.6718 95.9678 57.9471 95.9678 58.2403C95.9678 58.4048 95.9499 58.5836 95.9142 58.7767C95.8784 58.9626 95.8176 59.145 95.7318 59.3238C95.646 59.5026 95.5316 59.6706 95.3885 59.828C95.2455 59.9853 95.0667 60.114 94.8522 60.2142C95.2956 60.4359 95.5888 60.7005 95.7318 61.008C95.8748 61.3083 95.9464 61.6266 95.9464 61.9627C95.9464 62.3274 95.8784 62.6564 95.7425 62.9496C95.6138 63.2428 95.4314 63.4896 95.1954 63.6898C94.9594 63.8972 94.6805 64.0545 94.3587 64.1618C94.0369 64.2691 93.6829 64.3227 93.2967 64.3227C92.9105 64.3227 92.553 64.2655 92.224 64.1511C91.9022 64.0438 91.6197 63.8865 91.3765 63.6791C91.1405 63.4717 90.9546 63.2214 90.8187 62.9282C90.6828 62.6421 90.6149 62.3203 90.6149 61.9627H91.9129C91.9129 62.1343 91.9486 62.2881 92.0202 62.424C92.0988 62.567 92.199 62.6886 92.3205 62.7887C92.4493 62.8888 92.5959 62.9639 92.7604 63.014C92.932 63.0712 93.1108 63.0998 93.2967 63.0998C93.6758 63.0998 93.994 62.9997 94.2514 62.7994C94.5089 62.6063 94.6376 62.3274 94.6376 61.9627C94.6376 61.7839 94.5983 61.6266 94.5196 61.4907C94.441 61.3548 94.3373 61.244 94.2085 61.1582C94.087 61.0723 93.9439 61.008 93.7794 60.9651C93.6221 60.9222 93.4612 60.9007 93.2967 60.9007C92.8819 60.9007 92.5101 60.8399 92.1811 60.7183C91.8521 60.5968 91.5696 60.4215 91.3336 60.1927C91.1048 59.9638 90.926 59.6849 90.7973 59.356C90.6757 59.027 90.6149 58.6551 90.6149 58.2403C90.6149 57.8255 90.6828 57.4537 90.8187 57.1247C90.9617 56.7957 91.1548 56.5168 91.398 56.288C91.6411 56.052 91.9236 55.8732 92.2454 55.7516C92.5744 55.6229 92.9248 55.5585 93.2967 55.5585C93.5041 55.5585 93.7115 55.58 93.9189 55.6229C94.1263 55.6586 94.323 55.7373 94.5089 55.8589L95.0345 55.1938ZM93.2967 56.7492C93.1036 56.7492 92.9213 56.785 92.7496 56.8565C92.5851 56.9209 92.4385 57.0174 92.3098 57.1461C92.1882 57.2749 92.0917 57.4322 92.0202 57.6181C91.9486 57.8041 91.9129 58.0115 91.9129 58.2403C91.9129 58.4692 91.9486 58.6766 92.0202 58.8625C92.0917 59.0413 92.1882 59.1951 92.3098 59.3238C92.4385 59.4454 92.5851 59.5419 92.7496 59.6134C92.9213 59.6778 93.1036 59.71 93.2967 59.71C93.4827 59.71 93.6579 59.6778 93.8224 59.6134C93.994 59.5419 94.1406 59.4454 94.2622 59.3238C94.3909 59.1951 94.491 59.0413 94.5625 58.8625C94.6341 58.6766 94.6698 58.4692 94.6698 58.2403C94.6698 58.0115 94.6341 57.8077 94.5625 57.6289C94.491 57.4429 94.3909 57.2856 94.2622 57.1569C94.1406 57.0281 93.994 56.928 93.8224 56.8565C93.6579 56.785 93.4827 56.7492 93.2967 56.7492Z" fill="#28317D"/>
<path d="M49.6429 65.4698C49.5628 65.4698 49.4884 65.4838 49.4195 65.5117C49.3506 65.5396 49.2911 65.5796 49.2408 65.6317C49.1906 65.682 49.1505 65.7425 49.1208 65.8132C49.0928 65.884 49.0789 65.9621 49.0789 66.0478C49.0789 66.1334 49.0928 66.2125 49.1208 66.2851C49.1505 66.3558 49.1906 66.4172 49.2408 66.4694C49.2911 66.5196 49.3506 66.5587 49.4195 66.5866C49.4884 66.6145 49.5628 66.6285 49.6429 66.6285C49.721 66.6285 49.7936 66.6164 49.8606 66.5922C49.9295 66.568 49.9891 66.5317 50.0393 66.4833C50.0914 66.4349 50.1324 66.3744 50.1622 66.3018C50.192 66.2292 50.2069 66.1455 50.2069 66.0505C50.2069 65.9538 50.192 65.8691 50.1622 65.7965C50.1324 65.7239 50.0914 65.6634 50.0393 65.615C49.9891 65.5666 49.9295 65.5303 49.8606 65.5061C49.7936 65.4819 49.721 65.4698 49.6429 65.4698ZM49.0761 64.7858V65.6625C49.1319 65.5508 49.211 65.4689 49.3134 65.4168C49.4176 65.3646 49.5293 65.3386 49.6484 65.3386C49.7452 65.3386 49.8355 65.3544 49.9193 65.386C50.003 65.4177 50.0756 65.4642 50.1371 65.5256C50.2003 65.5852 50.2497 65.6597 50.285 65.749C50.3223 65.8365 50.3409 65.937 50.3409 66.0505C50.3409 66.1641 50.3232 66.2655 50.2878 66.3549C50.2525 66.4442 50.2031 66.5187 50.1399 66.5782C50.0784 66.6378 50.0058 66.6834 49.9221 66.7151C49.8383 66.7467 49.748 66.7625 49.6512 66.7625C49.534 66.7625 49.4232 66.7346 49.319 66.6788C49.2148 66.6229 49.1338 66.5419 49.0761 66.4359V66.7402H48.9421V64.7858H49.0761Z" fill="#28317D"/>
<path d="M52.2788 65.3609V66.7402H52.142V66.447C52.075 66.555 51.9922 66.635 51.8935 66.6871C51.7949 66.7374 51.6897 66.7625 51.578 66.7625C51.4812 66.7625 51.39 66.7458 51.3044 66.7123C51.2206 66.6769 51.1471 66.6276 51.0838 66.5643C51.0205 66.501 50.9703 66.4265 50.933 66.3409C50.8958 66.2534 50.8772 66.1566 50.8772 66.0505C50.8772 65.9445 50.8958 65.8486 50.933 65.763C50.9703 65.6755 51.0205 65.601 51.0838 65.5396C51.1471 65.4782 51.2206 65.4307 51.3044 65.3972C51.39 65.3618 51.4812 65.3442 51.578 65.3442C51.6897 65.3442 51.7967 65.3702 51.8991 65.4223C52.0033 65.4745 52.0843 65.5545 52.142 65.6625V65.3609H52.2788ZM51.578 65.4754C51.4998 65.4754 51.4263 65.4894 51.3574 65.5173C51.2886 65.5433 51.229 65.5815 51.1787 65.6317C51.1285 65.682 51.0885 65.7425 51.0587 65.8132C51.0289 65.884 51.014 65.9631 51.014 66.0505C51.014 66.1362 51.0289 66.2153 51.0587 66.2879C51.0885 66.3586 51.1285 66.4191 51.1787 66.4694C51.229 66.5196 51.2886 66.5587 51.3574 66.5866C51.4263 66.6145 51.4998 66.6285 51.578 66.6285C51.7064 66.6285 51.8125 66.6006 51.8963 66.5447C51.9819 66.487 52.0461 66.4154 52.089 66.3298C52.1318 66.2441 52.1532 66.152 52.1532 66.0533C52.1532 65.9528 52.1318 65.8598 52.089 65.7741C52.0461 65.6885 51.9819 65.6178 51.8963 65.5619C51.8125 65.5042 51.7064 65.4754 51.578 65.4754Z" fill="#28317D"/>
<path d="M53.0589 64.7858V65.6178C53.1147 65.5173 53.1873 65.4465 53.2767 65.4056C53.366 65.3646 53.4591 65.3432 53.5559 65.3414C53.6527 65.3414 53.7364 65.3563 53.8072 65.386C53.8798 65.4158 53.9403 65.4577 53.9886 65.5117C54.037 65.5638 54.0733 65.628 54.0975 65.7043C54.1217 65.7788 54.1338 65.8607 54.1338 65.95V66.7402H53.9998V65.95C53.9998 65.8067 53.9645 65.6913 53.8937 65.6038C53.823 65.5163 53.7104 65.4726 53.5559 65.4726C53.4833 65.4726 53.4163 65.4856 53.3549 65.5117C53.2953 65.5377 53.2441 65.574 53.2013 65.6206C53.1585 65.6671 53.125 65.7211 53.1008 65.7825C53.0766 65.8439 53.0645 65.9109 53.0645 65.9835V66.7402H52.9277V64.7858H53.0589Z" fill="#28317D"/>
<path d="M56.0926 65.3609V66.7402H55.9558V66.447C55.8888 66.555 55.806 66.635 55.7073 66.6871C55.6087 66.7374 55.5035 66.7625 55.3918 66.7625C55.2951 66.7625 55.2038 66.7458 55.1182 66.7123C55.0345 66.6769 54.9609 66.6276 54.8977 66.5643C54.8344 66.501 54.7841 66.4265 54.7469 66.3409C54.7097 66.2534 54.691 66.1566 54.691 66.0505C54.691 65.9445 54.7097 65.8486 54.7469 65.763C54.7841 65.6755 54.8344 65.601 54.8977 65.5396C54.9609 65.4782 55.0345 65.4307 55.1182 65.3972C55.2038 65.3618 55.2951 65.3442 55.3918 65.3442C55.5035 65.3442 55.6106 65.3702 55.7129 65.4223C55.8172 65.4745 55.8981 65.5545 55.9558 65.6625V65.3609H56.0926ZM55.3918 65.4754C55.3137 65.4754 55.2401 65.4894 55.1713 65.5173C55.1024 65.5433 55.0428 65.5815 54.9926 65.6317C54.9423 65.682 54.9023 65.7425 54.8725 65.8132C54.8427 65.884 54.8279 65.9631 54.8279 66.0505C54.8279 66.1362 54.8427 66.2153 54.8725 66.2879C54.9023 66.3586 54.9423 66.4191 54.9926 66.4694C55.0428 66.5196 55.1024 66.5587 55.1713 66.5866C55.2401 66.6145 55.3137 66.6285 55.3918 66.6285C55.5203 66.6285 55.6264 66.6006 55.7101 66.5447C55.7958 66.487 55.86 66.4154 55.9028 66.3298C55.9456 66.2441 55.967 66.152 55.967 66.0533C55.967 65.9528 55.9456 65.8598 55.9028 65.7741C55.86 65.6885 55.7958 65.6178 55.7101 65.5619C55.6264 65.5042 55.5203 65.4754 55.3918 65.4754Z" fill="#28317D"/>
<path d="M57.8499 65.3051L57.9393 65.3833L57.8053 65.5396C57.8537 65.5936 57.8937 65.6578 57.9253 65.7323C57.9588 65.8049 57.9756 65.897 57.9756 66.0087C57.9756 66.0682 57.9672 66.1278 57.9505 66.1874C57.9337 66.2469 57.9086 66.3028 57.8751 66.3549C57.8434 66.4051 57.8043 66.4517 57.7578 66.4945C57.7131 66.5354 57.662 66.5689 57.6043 66.595C57.7271 66.6378 57.8202 66.7011 57.8835 66.7849C57.9486 66.8686 57.9812 66.9701 57.9812 67.0892C57.9812 67.1823 57.9635 67.2632 57.9281 67.3321C57.8946 67.401 57.8481 67.4577 57.7885 67.5024C57.7308 67.5489 57.662 67.5834 57.5819 67.6057C57.5019 67.6281 57.4163 67.6392 57.325 67.6392C57.2338 67.6392 57.1482 67.6271 57.0682 67.6029C56.9881 67.5787 56.9183 67.5424 56.8588 67.494C56.8011 67.4475 56.7555 67.3898 56.722 67.3209C56.6885 67.2539 56.6717 67.1767 56.6717 67.0892H56.8085C56.8085 67.1599 56.8225 67.2213 56.8504 67.2735C56.8783 67.3256 56.9155 67.3684 56.9621 67.4019C57.0105 67.4373 57.0654 67.4633 57.1268 67.4801C57.1901 67.4968 57.2562 67.5052 57.325 67.5052C57.3939 67.5052 57.46 67.4968 57.5233 67.4801C57.5866 67.4652 57.6415 67.441 57.688 67.4075C57.7364 67.374 57.7746 67.3302 57.8025 67.2763C57.8323 67.2241 57.8472 67.1618 57.8472 67.0892C57.8472 67.0147 57.8313 66.9514 57.7997 66.8993C57.7699 66.8472 57.7308 66.8044 57.6824 66.7709C57.634 66.7374 57.5782 66.7132 57.5149 66.6983C57.4535 66.6834 57.3902 66.676 57.325 66.676C57.2245 66.676 57.1343 66.6583 57.0542 66.6229C56.9742 66.5876 56.9062 66.5401 56.8504 66.4805C56.7946 66.421 56.7517 66.3502 56.722 66.2683C56.6922 66.1864 56.6773 66.0999 56.6773 66.0087C56.6773 65.9007 56.694 65.8049 56.7276 65.7211C56.7629 65.6373 56.8095 65.5675 56.8672 65.5117C56.9267 65.454 56.9956 65.4102 57.0738 65.3805C57.1519 65.3507 57.2357 65.3358 57.325 65.3358C57.3958 65.3358 57.4646 65.3479 57.5317 65.3721C57.6005 65.3944 57.662 65.4242 57.7159 65.4614L57.8499 65.3051ZM57.325 65.4726C57.2543 65.4726 57.1873 65.4838 57.124 65.5061C57.0626 65.5284 57.0086 65.5619 56.9621 65.6066C56.9174 65.6513 56.8811 65.7071 56.8532 65.7741C56.8271 65.8411 56.8141 65.9193 56.8141 66.0087C56.8141 66.0794 56.8253 66.1473 56.8476 66.2125C56.8718 66.2758 56.9062 66.3316 56.9509 66.38C56.9956 66.4284 57.0496 66.4675 57.1129 66.4973C57.1761 66.5252 57.2469 66.5392 57.325 66.5392C57.3958 66.5392 57.4628 66.5252 57.5261 66.4973C57.5894 66.4675 57.6443 66.4284 57.6908 66.38C57.7373 66.3316 57.7736 66.2758 57.7997 66.2125C57.8276 66.1473 57.8416 66.0794 57.8416 66.0087C57.8416 65.9212 57.8276 65.8439 57.7997 65.7769C57.7736 65.7099 57.7373 65.6541 57.6908 65.6094C57.6443 65.5647 57.5894 65.5312 57.5261 65.5089C57.4628 65.4847 57.3958 65.4726 57.325 65.4726Z" fill="#28317D"/>
<path d="M58.6707 65.3553V66.7402H58.5339V65.3553H58.6707ZM58.4948 64.9114C58.4948 64.9468 58.506 64.9738 58.5283 64.9924C58.5525 65.011 58.5777 65.0203 58.6037 65.0203C58.6316 65.0203 58.6568 65.011 58.6791 64.9924C58.7033 64.9738 58.7154 64.9468 58.7154 64.9114C58.7154 64.8742 58.7033 64.8472 58.6791 64.8304C58.6568 64.8118 58.6316 64.8025 58.6037 64.8025C58.5777 64.8025 58.5525 64.8118 58.5283 64.8304C58.506 64.8472 58.4948 64.8742 58.4948 64.9114Z" fill="#28317D"/>
<path d="M60.6655 65.3609V66.7402H60.5287V66.447C60.4617 66.555 60.3788 66.635 60.2802 66.6871C60.1815 66.7374 60.0764 66.7625 59.9647 66.7625C59.8679 66.7625 59.7767 66.7458 59.6911 66.7123C59.6073 66.6769 59.5338 66.6276 59.4705 66.5643C59.4072 66.501 59.357 66.4265 59.3197 66.3409C59.2825 66.2534 59.2639 66.1566 59.2639 66.0505C59.2639 65.9445 59.2825 65.8486 59.3197 65.763C59.357 65.6755 59.4072 65.601 59.4705 65.5396C59.5338 65.4782 59.6073 65.4307 59.6911 65.3972C59.7767 65.3618 59.8679 65.3442 59.9647 65.3442C60.0764 65.3442 60.1834 65.3702 60.2858 65.4223C60.39 65.4745 60.471 65.5545 60.5287 65.6625V65.3609H60.6655ZM59.9647 65.4754C59.8865 65.4754 59.813 65.4894 59.7441 65.5173C59.6753 65.5433 59.6157 65.5815 59.5654 65.6317C59.5152 65.682 59.4752 65.7425 59.4454 65.8132C59.4156 65.884 59.4007 65.9631 59.4007 66.0505C59.4007 66.1362 59.4156 66.2153 59.4454 66.2879C59.4752 66.3586 59.5152 66.4191 59.5654 66.4694C59.6157 66.5196 59.6753 66.5587 59.7441 66.5866C59.813 66.6145 59.8865 66.6285 59.9647 66.6285C60.0931 66.6285 60.1992 66.6006 60.283 66.5447C60.3686 66.487 60.4328 66.4154 60.4756 66.3298C60.5185 66.2441 60.5399 66.152 60.5399 66.0533C60.5399 65.9528 60.5185 65.8598 60.4756 65.7741C60.4328 65.6885 60.3686 65.6178 60.283 65.5619C60.1992 65.5042 60.0931 65.4754 59.9647 65.4754Z" fill="#28317D"/>
<path d="M64.4035 66.7402V65.9137C64.4035 65.8467 64.3923 65.7862 64.3699 65.7323C64.3495 65.6764 64.3197 65.629 64.2806 65.5899C64.2415 65.5489 64.195 65.5173 64.141 65.4949C64.087 65.4726 64.0275 65.4614 63.9623 65.4614C63.8972 65.4614 63.8367 65.4735 63.7808 65.4977C63.7268 65.5201 63.6803 65.5517 63.6412 65.5927C63.6021 65.6336 63.5714 65.682 63.5491 65.7378C63.5286 65.7937 63.5184 65.8551 63.5184 65.9221V66.7402H63.3816V65.9221C63.3816 65.8551 63.3704 65.7937 63.3481 65.7378C63.3276 65.682 63.2978 65.6345 63.2587 65.5954C63.2196 65.5545 63.1722 65.5229 63.1163 65.5005C63.0623 65.4763 63.0028 65.4642 62.9376 65.4642C62.8725 65.4642 62.8129 65.4763 62.7589 65.5005C62.705 65.5229 62.6584 65.5545 62.6193 65.5954C62.5802 65.6345 62.5495 65.682 62.5272 65.7378C62.5067 65.7937 62.4965 65.8551 62.4965 65.9221V66.7402H62.3597V65.3609H62.4881L62.4909 65.5899C62.5393 65.4987 62.6035 65.4335 62.6836 65.3944C62.7655 65.3535 62.8511 65.333 62.9404 65.333C62.9925 65.333 63.0447 65.3395 63.0968 65.3525C63.1489 65.3637 63.1973 65.3833 63.242 65.4112C63.2885 65.4391 63.3294 65.4745 63.3648 65.5173C63.402 65.5601 63.4309 65.6122 63.4514 65.6736C63.4718 65.6178 63.4998 65.5685 63.5351 65.5256C63.5724 65.4828 63.6133 65.4475 63.658 65.4195C63.7045 65.3898 63.7538 65.3684 63.806 65.3553C63.8581 65.3404 63.9102 65.333 63.9623 65.333C64.0461 65.333 64.1233 65.347 64.194 65.3749C64.2648 65.4028 64.3253 65.4428 64.3755 65.4949C64.4276 65.5452 64.4677 65.6066 64.4956 65.6792C64.5254 65.7499 64.5403 65.8281 64.5403 65.9137V66.7402H64.4035Z" fill="#28317D"/>
<path d="M65.8244 66.7597C65.7276 66.7597 65.6364 66.7439 65.5508 66.7123C65.4652 66.6788 65.3907 66.6313 65.3275 66.5699C65.2642 66.5084 65.2139 66.434 65.1767 66.3465C65.1413 66.259 65.1236 66.1604 65.1236 66.0505C65.1236 65.9463 65.1413 65.8514 65.1767 65.7658C65.2139 65.6783 65.2642 65.6029 65.3275 65.5396C65.3907 65.4763 65.4652 65.427 65.5508 65.3916C65.6364 65.3563 65.7276 65.3386 65.8244 65.3386C65.9212 65.3386 66.0134 65.3544 66.1009 65.386C66.1902 65.4158 66.2665 65.4624 66.3298 65.5256C66.3949 65.5889 66.4433 65.6699 66.475 65.7686C66.5085 65.8653 66.5187 65.9807 66.5057 66.1148H65.2632C65.2707 66.1948 65.2902 66.2674 65.3219 66.3325C65.3554 66.3958 65.3973 66.4489 65.4475 66.4917C65.4978 66.5345 65.5555 66.568 65.6206 66.5922C65.6858 66.6145 65.7537 66.6257 65.8244 66.6257C65.8691 66.6257 65.9156 66.6211 65.964 66.6117C66.0124 66.6024 66.058 66.5894 66.1009 66.5727C66.1455 66.554 66.1865 66.5317 66.2237 66.5057C66.2628 66.4796 66.2954 66.4498 66.3214 66.4163L66.4191 66.4945C66.3521 66.5838 66.2637 66.6508 66.1539 66.6955C66.0459 66.7383 65.9361 66.7597 65.8244 66.7597ZM66.3829 65.9947C66.381 65.8235 66.3289 65.6922 66.2265 65.601C66.126 65.5098 65.992 65.4642 65.8244 65.4642C65.7537 65.4642 65.6858 65.4763 65.6206 65.5005C65.5555 65.5229 65.4978 65.5573 65.4475 65.6038C65.3973 65.6485 65.3554 65.7043 65.3219 65.7713C65.2902 65.8365 65.2707 65.9109 65.2632 65.9947H66.3829Z" fill="#28317D"/>
<path d="M67.2728 64.7858V66.7402H67.136V64.7858H67.2728Z" fill="#28317D"/>
<path d="M69.2567 65.3609V66.7402H69.1199V66.447C69.0529 66.555 68.97 66.635 68.8714 66.6871C68.7727 66.7374 68.6676 66.7625 68.5559 66.7625C68.4591 66.7625 68.3679 66.7458 68.2823 66.7123C68.1985 66.6769 68.125 66.6276 68.0617 66.5643C67.9984 66.501 67.9482 66.4265 67.9109 66.3409C67.8737 66.2534 67.8551 66.1566 67.8551 66.0505C67.8551 65.9445 67.8737 65.8486 67.9109 65.763C67.9482 65.6755 67.9984 65.601 68.0617 65.5396C68.125 65.4782 68.1985 65.4307 68.2823 65.3972C68.3679 65.3618 68.4591 65.3442 68.5559 65.3442C68.6676 65.3442 68.7746 65.3702 68.877 65.4223C68.9812 65.4745 69.0622 65.5545 69.1199 65.6625V65.3609H69.2567ZM68.5559 65.4754C68.4777 65.4754 68.4042 65.4894 68.3353 65.5173C68.2664 65.5433 68.2069 65.5815 68.1566 65.6317C68.1064 65.682 68.0663 65.7425 68.0366 65.8132C68.0068 65.884 67.9919 65.9631 67.9919 66.0505C67.9919 66.1362 68.0068 66.2153 68.0366 66.2879C68.0663 66.3586 68.1064 66.4191 68.1566 66.4694C68.2069 66.5196 68.2664 66.5587 68.3353 66.5866C68.4042 66.6145 68.4777 66.6285 68.5559 66.6285C68.6843 66.6285 68.7904 66.6006 68.8742 66.5447C68.9598 66.487 69.024 66.4154 69.0668 66.3298C69.1096 66.2441 69.131 66.152 69.131 66.0533C69.131 65.9528 69.1096 65.8598 69.0668 65.7741C69.024 65.6885 68.9598 65.6178 68.8742 65.5619C68.7904 65.5042 68.6843 65.4754 68.5559 65.4754Z" fill="#28317D"/>
<path d="M71.0238 65.3609L70.1834 67.3153H70.0382L70.2923 66.7234L69.7395 65.3609H69.8874L70.2085 66.1762L70.3705 66.5755L70.5296 66.1734L70.8758 65.3609H71.0238Z" fill="#28317D"/>
<path d="M72.8906 65.3609V66.7402H72.7538V66.447C72.6867 66.555 72.6039 66.635 72.5053 66.6871C72.4066 66.7374 72.3014 66.7625 72.1898 66.7625C72.093 66.7625 72.0018 66.7458 71.9161 66.7123C71.8324 66.6769 71.7589 66.6276 71.6956 66.5643C71.6323 66.501 71.582 66.4265 71.5448 66.3409C71.5076 66.2534 71.489 66.1566 71.489 66.0505C71.489 65.9445 71.5076 65.8486 71.5448 65.763C71.582 65.6755 71.6323 65.601 71.6956 65.5396C71.7589 65.4782 71.8324 65.4307 71.9161 65.3972C72.0018 65.3618 72.093 65.3442 72.1898 65.3442C72.3014 65.3442 72.4085 65.3702 72.5108 65.4223C72.6151 65.4745 72.6961 65.5545 72.7538 65.6625V65.3609H72.8906ZM72.1898 65.4754C72.1116 65.4754 72.0381 65.4894 71.9692 65.5173C71.9003 65.5433 71.8408 65.5815 71.7905 65.6317C71.7402 65.682 71.7002 65.7425 71.6704 65.8132C71.6407 65.884 71.6258 65.9631 71.6258 66.0505C71.6258 66.1362 71.6407 66.2153 71.6704 66.2879C71.7002 66.3586 71.7402 66.4191 71.7905 66.4694C71.8408 66.5196 71.9003 66.5587 71.9692 66.5866C72.0381 66.6145 72.1116 66.6285 72.1898 66.6285C72.3182 66.6285 72.4243 66.6006 72.5081 66.5447C72.5937 66.487 72.6579 66.4154 72.7007 66.3298C72.7435 66.2441 72.7649 66.152 72.7649 66.0533C72.7649 65.9528 72.7435 65.8598 72.7007 65.7741C72.6579 65.6885 72.5937 65.6178 72.5081 65.5619C72.4243 65.5042 72.3182 65.4754 72.1898 65.4754Z" fill="#28317D"/>
<path d="M73.6734 65.3609V65.6066C73.7274 65.5117 73.7982 65.4437 73.8856 65.4028C73.975 65.36 74.0681 65.3377 74.1648 65.3358C74.2579 65.3358 74.3426 65.3498 74.4189 65.3777C74.4952 65.4056 74.5604 65.4456 74.6144 65.4977C74.6683 65.5498 74.7102 65.6141 74.74 65.6904C74.7716 65.7648 74.7875 65.8495 74.7875 65.9445V66.7402H74.6507V65.9472C74.6507 65.789 74.606 65.6699 74.5166 65.5899C74.4292 65.508 74.31 65.4679 74.1593 65.4698C74.0885 65.4698 74.0234 65.4828 73.9638 65.5089C73.9043 65.535 73.8531 65.5703 73.8103 65.615C73.7674 65.6597 73.7339 65.7127 73.7097 65.7741C73.6874 65.8356 73.6762 65.9016 73.6762 65.9724V66.7402H73.5394V65.3609H73.6734Z" fill="#28317D"/>
<path d="M75.5586 65.3553V66.7402H75.4218V65.3553H75.5586ZM75.3827 64.9114C75.3827 64.9468 75.3939 64.9738 75.4162 64.9924C75.4404 65.011 75.4655 65.0203 75.4916 65.0203C75.5195 65.0203 75.5447 65.011 75.567 64.9924C75.5912 64.9738 75.6033 64.9468 75.6033 64.9114C75.6033 64.8742 75.5912 64.8472 75.567 64.8304C75.5447 64.8118 75.5195 64.8025 75.4916 64.8025C75.4655 64.8025 75.4404 64.8118 75.4162 64.8304C75.3939 64.8472 75.3827 64.8742 75.3827 64.9114Z" fill="#28317D"/>
<path d="M77.8951 65.4698C77.8169 65.4698 77.7434 65.4819 77.6745 65.5061C77.6075 65.5303 77.548 65.5666 77.4959 65.615C77.4456 65.6634 77.4056 65.7239 77.3758 65.7965C77.346 65.8691 77.3311 65.9538 77.3311 66.0505C77.3311 66.1455 77.346 66.2292 77.3758 66.3018C77.4056 66.3744 77.4456 66.4349 77.4959 66.4833C77.548 66.5317 77.6075 66.568 77.6745 66.5922C77.7434 66.6164 77.8169 66.6285 77.8951 66.6285C77.977 66.6285 78.0524 66.6145 78.1213 66.5866C78.1901 66.5587 78.2497 66.5196 78.3 66.4694C78.3502 66.4172 78.3893 66.3558 78.4172 66.2851C78.4451 66.2125 78.4591 66.1334 78.4591 66.0478C78.4591 65.9621 78.4442 65.884 78.4144 65.8132C78.3865 65.7425 78.3474 65.682 78.2972 65.6317C78.2469 65.5796 78.1874 65.5396 78.1185 65.5117C78.0496 65.4838 77.9752 65.4698 77.8951 65.4698ZM78.5959 64.7858V66.7402H78.4619V66.4359C78.4042 66.5419 78.3232 66.6229 78.219 66.6788C78.1148 66.7346 78.004 66.7625 77.8867 66.7625C77.79 66.7625 77.6997 66.7467 77.6159 66.7151C77.5322 66.6834 77.4586 66.6378 77.3953 66.5782C77.3339 66.5187 77.2855 66.4442 77.2502 66.3549C77.2148 66.2655 77.1971 66.1641 77.1971 66.0505C77.1971 65.937 77.2148 65.8365 77.2502 65.749C77.2874 65.6597 77.3367 65.5852 77.3981 65.5256C77.4614 65.4642 77.5349 65.4177 77.6187 65.386C77.7025 65.3544 77.7927 65.3386 77.8895 65.3386C78.0087 65.3386 78.1194 65.3646 78.2218 65.4168C78.326 65.4689 78.4061 65.5508 78.4619 65.6625V64.7858H78.5959Z" fill="#28317D"/>
<path d="M80.5929 65.3609V66.7402H80.4561V66.447C80.3891 66.555 80.3062 66.635 80.2076 66.6871C80.1089 66.7374 80.0038 66.7625 79.8921 66.7625C79.7953 66.7625 79.7041 66.7458 79.6185 66.7123C79.5347 66.6769 79.4612 66.6276 79.3979 66.5643C79.3346 66.501 79.2843 66.4265 79.2471 66.3409C79.2099 66.2534 79.1913 66.1566 79.1913 66.0505C79.1913 65.9445 79.2099 65.8486 79.2471 65.763C79.2843 65.6755 79.3346 65.601 79.3979 65.5396C79.4612 65.4782 79.5347 65.4307 79.6185 65.3972C79.7041 65.3618 79.7953 65.3442 79.8921 65.3442C80.0038 65.3442 80.1108 65.3702 80.2132 65.4223C80.3174 65.4745 80.3984 65.5545 80.4561 65.6625V65.3609H80.5929ZM79.8921 65.4754C79.8139 65.4754 79.7404 65.4894 79.6715 65.5173C79.6026 65.5433 79.5431 65.5815 79.4928 65.6317C79.4426 65.682 79.4025 65.7425 79.3728 65.8132C79.343 65.884 79.3281 65.9631 79.3281 66.0505C79.3281 66.1362 79.343 66.2153 79.3728 66.2879C79.4025 66.3586 79.4426 66.4191 79.4928 66.4694C79.5431 66.5196 79.6026 66.5587 79.6715 66.5866C79.7404 66.6145 79.8139 66.6285 79.8921 66.6285C80.0205 66.6285 80.1266 66.6006 80.2104 66.5447C80.296 66.487 80.3602 66.4154 80.403 66.3298C80.4458 66.2441 80.4672 66.152 80.4672 66.0533C80.4672 65.9528 80.4458 65.8598 80.403 65.7741C80.3602 65.6885 80.296 65.6178 80.2104 65.5619C80.1266 65.5042 80.0205 65.4754 79.8921 65.4754Z" fill="#28317D"/>
<path d="M81.3702 65.3609L81.3758 65.6066C81.3981 65.5601 81.426 65.521 81.4595 65.4894C81.493 65.4558 81.5303 65.4289 81.5712 65.4084C81.6122 65.386 81.655 65.3702 81.6996 65.3609C81.7443 65.3516 81.789 65.347 81.8337 65.347C81.9379 65.3432 82.0365 65.3702 82.1296 65.4279L82.0682 65.5396C82.031 65.5173 81.9928 65.5014 81.9537 65.4921C81.9146 65.481 81.8746 65.4754 81.8337 65.4754C81.7704 65.4754 81.7108 65.4884 81.655 65.5145C81.5991 65.5387 81.5507 65.5722 81.5098 65.615C81.4688 65.6559 81.4363 65.7043 81.4121 65.7602C81.3897 65.8142 81.3786 65.8728 81.3786 65.9361V66.7402H81.2417V65.3609H81.3702Z" fill="#28317D"/>
<path d="M82.7483 65.3553V66.7402H82.6115V65.3553H82.7483ZM82.5724 64.9114C82.5724 64.9468 82.5836 64.9738 82.6059 64.9924C82.6301 65.011 82.6553 65.0203 82.6813 65.0203C82.7092 65.0203 82.7344 65.011 82.7567 64.9924C82.7809 64.9738 82.793 64.9468 82.793 64.9114C82.793 64.8742 82.7809 64.8472 82.7567 64.8304C82.7344 64.8118 82.7092 64.8025 82.6813 64.8025C82.6553 64.8025 82.6301 64.8118 82.6059 64.8304C82.5836 64.8472 82.5724 64.8742 82.5724 64.9114Z" fill="#28317D"/>
<path d="M84.5934 64.7858V65.6178C84.6493 65.5173 84.7219 65.4465 84.8112 65.4056C84.9006 65.3646 84.9936 65.3432 85.0904 65.3414C85.1872 65.3414 85.271 65.3563 85.3417 65.386C85.4143 65.4158 85.4748 65.4577 85.5232 65.5117C85.5716 65.5638 85.6079 65.628 85.6321 65.7043C85.6563 65.7788 85.6684 65.8607 85.6684 65.95V66.7402H85.5343V65.95C85.5343 65.8067 85.499 65.6913 85.4283 65.6038C85.3575 65.5163 85.2449 65.4726 85.0904 65.4726C85.0178 65.4726 84.9508 65.4856 84.8894 65.5117C84.8298 65.5377 84.7786 65.574 84.7358 65.6206C84.693 65.6671 84.6595 65.7211 84.6353 65.7825C84.6111 65.8439 84.599 65.9109 84.599 65.9835V66.7402H84.4622V64.7858H84.5934Z" fill="#28317D"/>
<path d="M87.6272 65.3609V66.7402H87.4904V66.447C87.4234 66.555 87.3405 66.635 87.2419 66.6871C87.1432 66.7374 87.0381 66.7625 86.9264 66.7625C86.8296 66.7625 86.7384 66.7458 86.6528 66.7123C86.569 66.6769 86.4955 66.6276 86.4322 66.5643C86.3689 66.501 86.3186 66.4265 86.2814 66.3409C86.2442 66.2534 86.2256 66.1566 86.2256 66.0505C86.2256 65.9445 86.2442 65.8486 86.2814 65.763C86.3186 65.6755 86.3689 65.601 86.4322 65.5396C86.4955 65.4782 86.569 65.4307 86.6528 65.3972C86.7384 65.3618 86.8296 65.3442 86.9264 65.3442C87.0381 65.3442 87.1451 65.3702 87.2475 65.4223C87.3517 65.4745 87.4327 65.5545 87.4904 65.6625V65.3609H87.6272ZM86.9264 65.4754C86.8482 65.4754 86.7747 65.4894 86.7058 65.5173C86.6369 65.5433 86.5774 65.5815 86.5271 65.6317C86.4769 65.682 86.4368 65.7425 86.4071 65.8132C86.3773 65.884 86.3624 65.9631 86.3624 66.0505C86.3624 66.1362 86.3773 66.2153 86.4071 66.2879C86.4368 66.3586 86.4769 66.4191 86.5271 66.4694C86.5774 66.5196 86.6369 66.5587 86.7058 66.5866C86.7747 66.6145 86.8482 66.6285 86.9264 66.6285C87.0548 66.6285 87.1609 66.6006 87.2447 66.5447C87.3303 66.487 87.3945 66.4154 87.4373 66.3298C87.4801 66.2441 87.5015 66.152 87.5015 66.0533C87.5015 65.9528 87.4801 65.8598 87.4373 65.7741C87.3945 65.6885 87.3303 65.6178 87.2447 65.5619C87.1609 65.5042 87.0548 65.4754 86.9264 65.4754Z" fill="#28317D"/>
<path d="M88.5316 64.9449V65.3609H89.0006V65.4754H88.5316V66.3158C88.5316 66.3623 88.5343 66.4051 88.5399 66.4442C88.5474 66.4833 88.5595 66.5168 88.5762 66.5447C88.5948 66.5727 88.6209 66.595 88.6544 66.6117C88.6879 66.6266 88.7317 66.6341 88.7856 66.6341C88.8191 66.6341 88.8536 66.6294 88.8889 66.6201C88.9262 66.609 88.9625 66.595 88.9978 66.5782L89.0453 66.6899C89.0025 66.7104 88.9587 66.7272 88.9141 66.7402C88.8713 66.7532 88.8284 66.7597 88.7856 66.7597C88.713 66.7597 88.6516 66.7495 88.6014 66.729C88.5511 66.7085 88.5111 66.6788 88.4813 66.6397C88.4515 66.6006 88.4301 66.554 88.4171 66.5001C88.404 66.4442 88.3975 66.3828 88.3975 66.3158V65.4754H88.1044V65.3609H88.3975V64.9589L88.5316 64.9449Z" fill="#28317D"/>
<path d="M89.7281 65.3553V66.7402H89.5913V65.3553H89.7281ZM89.5522 64.9114C89.5522 64.9468 89.5634 64.9738 89.5857 64.9924C89.6099 65.011 89.635 65.0203 89.6611 65.0203C89.689 65.0203 89.7141 65.011 89.7365 64.9924C89.7607 64.9738 89.7728 64.9468 89.7728 64.9114C89.7728 64.8742 89.7607 64.8472 89.7365 64.8304C89.7141 64.8118 89.689 64.8025 89.6611 64.8025C89.635 64.8025 89.6099 64.8118 89.5857 64.8304C89.5634 64.8472 89.5522 64.8742 89.5522 64.9114Z" fill="#28317D"/>
</g>
<rect x="1" y="1" width="110" height="110" rx="9" stroke="#CCCCCC" stroke-width="2"/>
<defs>
<clipPath id="clip0_517_508">
<rect x="2" y="2" width="108" height="108" rx="8" fill="white"/>
</clipPath>
</defs>
</svg>
