<svg width="112" height="112" viewBox="0 0 112 112" fill="none" xmlns="http://www.w3.org/2000/svg">
<g clip-path="url(#clip0_528_598)">
<rect x="2" y="2" width="108" height="108" rx="8" fill="white"/>
<path fill-rule="evenodd" clip-rule="evenodd" d="M16 63.0636C16.4189 63.1416 17.074 63.1943 17.8331 63.1943C19.0252 63.1943 19.9937 62.9849 20.6882 62.4613C21.2638 62.029 21.7488 61.3219 21.7488 60.418C21.7614 59.3573 21.0937 58.6896 20.2953 58.4542V58.4282C21.3031 58.166 22.2071 57.3408 22.2071 56.2282C22.2071 55.6518 21.9709 55.1802 21.5654 54.8534C21.0937 54.4337 20.4394 54.2376 19.5354 54.2376C18.815 54.2376 18.174 54.3164 17.637 54.4211L16 63.0636ZM18.5795 55.1935C18.7496 55.1408 19.0772 55.1022 19.4835 55.1022C20.4394 55.1022 21.0811 55.4684 21.0811 56.3195C21.0811 57.3935 20.0984 58.0479 18.8417 58.0479H18.0299L18.5795 55.1935ZM17.8598 58.8731H18.737C19.7323 58.8731 20.6094 59.3313 20.6094 60.366C20.6094 61.7802 19.4047 62.3172 18.1213 62.3038C17.8205 62.3038 17.4929 62.2904 17.2181 62.2518L17.8598 58.8731ZM27.9551 63.129C27.9291 62.4219 28.0205 61.2959 28.2307 60.1959L28.8717 56.8959C28.4402 56.7518 27.7724 56.6471 27.1693 56.6471C24.4063 56.6471 22.7827 58.9778 22.7827 61.1778C22.7827 62.3825 23.4898 63.2731 24.6031 63.2731C25.5063 63.2731 26.3709 62.8014 27.0646 61.492H27.0913C27.0126 62.1471 26.9472 62.7495 26.9472 63.129H27.9551ZM27.2874 59.5148C26.9732 61.2038 25.8992 62.3825 24.9961 62.3825C24.1583 62.3825 23.9094 61.6888 23.9094 60.981C23.922 59.2266 25.2583 57.5109 26.8945 57.5109C27.2614 57.5109 27.4969 57.5636 27.6543 57.603L27.2874 59.5148ZM30.6661 63.129L31.2417 60.0518C31.5299 58.4802 32.6299 57.5502 33.4024 57.5502C34.1488 57.5502 34.3976 58.0219 34.3976 58.6636C34.3976 58.9258 34.3583 59.2266 34.3063 59.4754L33.6126 63.129H34.6992L35.4063 59.4361C35.4717 59.0959 35.5236 58.6896 35.5236 58.4148C35.5236 57.0794 34.6732 56.6471 33.9134 56.6471C32.9835 56.6471 32.1323 57.1447 31.5693 58.0353H31.5433L31.7008 56.7912H30.7315C30.6528 57.3148 30.574 57.9306 30.4299 58.6376L29.5787 63.129H30.6661ZM37.6583 63.129L38.1165 60.7085L38.9157 59.9865L40.4346 63.129H41.6394L39.7402 59.3841L42.5031 56.7912H41.1677L38.9283 59.0061C38.7717 59.1896 38.5354 59.4235 38.3394 59.6455H38.3134L39.426 53.8313H38.3394L36.5843 63.129H37.6583Z" fill="#095491"/>
<path fill-rule="evenodd" clip-rule="evenodd" d="M55.1724 62.6558C55.5709 62.9676 56.4047 63.2668 57.5756 63.2928C59.4433 63.2928 60.9866 62.2794 60.9866 60.3298C60.9866 59.2904 60.3394 58.5762 59.3189 58.0172C58.6087 57.6014 58.0984 57.2896 58.0984 56.7825C58.0984 56.3022 58.5339 55.8605 59.3685 55.8605C60.0654 55.8471 60.663 56.0943 60.937 56.2502L61.4976 54.7038C61.1362 54.4825 60.5386 54.2487 59.5181 54.2487C57.6874 54.2487 56.2055 55.3274 56.2055 57.0943C56.2055 58.2384 57.0528 58.914 57.9488 59.4203C58.7205 59.8361 59.0819 60.1613 59.0819 60.655C59.0819 61.3439 58.4472 61.6817 57.7496 61.6817C56.978 61.6817 56.2677 61.4345 55.7701 61.1227L55.1724 62.6558ZM66.5008 56.7959L65.963 59.7321C65.7268 61.0061 65.1039 61.7723 64.4961 61.7723C64.0354 61.7723 63.8882 61.4479 63.8882 61.0321C63.8882 60.7975 63.9252 60.4865 63.9756 60.1998L64.5835 56.7959H62.7921L62.1575 60.3432C62.0701 60.7849 62.0331 61.1621 62.0331 61.5124C62.0331 62.7211 62.6181 63.2928 63.589 63.2928C64.322 63.2928 65.0693 62.9424 65.6898 62.1101H65.7142L65.6024 63.1495H67.1858C67.2732 62.5778 67.3598 61.8896 67.5094 61.0841L68.2937 56.7959H66.5008ZM70.4496 63.1495L72.1433 53.9243H70.3504L68.6567 63.1495H70.4496ZM73.5504 55.5998L73.326 56.7959H72.5417L72.2929 58.2117H73.0646L72.5913 60.7329C72.5047 61.2266 72.4669 61.5644 72.4669 61.9156C72.4669 62.7077 72.978 63.2928 74.048 63.2928C74.4346 63.2928 74.8827 63.2408 75.1071 63.1495L75.3181 61.6817C75.1567 61.7077 74.9819 61.7077 74.8205 61.7077C74.4346 61.7077 74.3102 61.4865 74.3102 61.1747C74.3102 60.9542 74.3598 60.6156 74.4094 60.3691L74.8205 58.2117H76.115L76.3772 56.7959H75.0819L75.3929 55.0676L73.5504 55.5998ZM81.1953 61.4345C80.7102 61.6817 80.1496 61.8376 79.4898 61.8376C78.9669 61.8376 78.5559 61.6684 78.3189 61.3439C78.1945 61.1621 78.1323 60.8762 78.1323 60.6935C80.5724 60.7589 82.0795 60.1739 82.0795 58.5502C82.0795 57.3676 81.1953 56.6526 79.963 56.6526C77.7591 56.6526 76.4142 58.6668 76.4142 60.603C76.4142 62.2534 77.311 63.2928 79.0535 63.2928C79.726 63.2928 80.6102 63.1628 81.3197 62.7857L81.1953 61.4345ZM80.3984 58.5628C80.3984 59.1345 79.7016 59.3424 78.3063 59.3298C78.4315 58.7321 78.9039 58.0172 79.7386 58.0172C80.1496 58.0172 80.3984 58.2384 80.3984 58.5502V58.5628ZM84.2583 63.1495L84.7685 60.3298C85.0181 58.9266 85.7024 58.1597 86.2882 58.1597C86.7362 58.1597 86.8858 58.4723 86.8858 58.914C86.8858 59.1479 86.8606 59.4077 86.8236 59.6282L86.1882 63.1495H87.9811L88.6535 59.4597C88.7032 59.1479 88.7535 58.6668 88.7535 58.3809C88.7535 57.2896 88.1929 56.6526 87.1969 56.6526C86.3874 56.6526 85.6283 57.0164 85.0551 57.8479H85.0307L85.1551 56.7959H83.5614C83.4866 57.3542 83.3866 58.0558 83.237 58.8621L82.4654 63.1495H84.2583ZM89.463 65.4628C89.874 65.7101 90.6331 65.866 91.4425 65.866C92.252 65.866 93.1362 65.6967 93.7961 65.151C94.5307 64.54 94.8669 63.5006 95.0787 62.3313L96 57.0943C95.3646 56.8085 94.6055 56.6526 93.7465 56.6526C91.0945 56.6526 89.6622 58.7321 89.6622 60.8369C89.6748 62.0715 90.4095 63.0975 91.6173 63.0975C92.3394 63.0975 92.8874 62.7991 93.3598 62.1621H93.385L93.2858 62.6951C93.0362 63.9684 92.3646 64.3841 91.4677 64.3841C90.9575 64.3841 90.2102 64.2416 89.874 64.0337L89.463 65.4628ZM93.7465 59.9014C93.5591 60.9794 92.9622 61.6558 92.3764 61.6558C91.8291 61.6558 91.5551 61.188 91.5551 60.551C91.5551 59.3424 92.3268 58.0817 93.4102 58.0817C93.6591 58.0817 93.9205 58.1345 94.0575 58.1991L93.7465 59.9014Z" fill="#095491"/>
<path fill-rule="evenodd" clip-rule="evenodd" d="M51.4031 64.3124C51.4031 64.3187 51.4024 64.325 51.4008 64.3337C51.3992 64.3416 51.3961 64.3518 51.3921 64.3644L51.0669 65.4124C51.0646 65.4219 51.0606 65.4298 51.0551 65.4353C51.0504 65.4408 51.0425 65.4455 51.0339 65.4487C51.0236 65.4518 51.011 65.4542 50.9945 65.4558C50.978 65.4565 50.9575 65.4573 50.9339 65.4573C50.9079 65.4573 50.8866 65.4565 50.8693 65.455C50.8528 65.4526 50.8386 65.4502 50.8283 65.4479C50.8181 65.4439 50.811 65.44 50.8063 65.4337C50.8008 65.4282 50.7976 65.4211 50.7953 65.4124L50.563 64.6117L50.5606 64.6006L50.5583 64.6117L50.3433 65.4124C50.3409 65.4219 50.337 65.4298 50.3323 65.4353C50.3268 65.4408 50.3189 65.4455 50.3087 65.4487C50.2976 65.4518 50.2835 65.4542 50.2669 65.4558C50.2504 65.4565 50.2299 65.4573 50.2047 65.4573C50.1795 65.4573 50.1591 65.4565 50.1433 65.455C50.1276 65.4526 50.1142 65.4502 50.1039 65.4479C50.0937 65.4439 50.0858 65.44 50.0819 65.4337C50.0764 65.4282 50.0724 65.4211 50.0701 65.4124L49.748 64.3644C49.7441 64.3518 49.7409 64.3416 49.7394 64.3337C49.7378 64.325 49.737 64.3187 49.737 64.3124C49.737 64.3054 49.7386 64.2991 49.7417 64.2943C49.7449 64.2904 49.7504 64.2865 49.7583 64.2833C49.7661 64.281 49.7764 64.2794 49.7898 64.2786C49.8032 64.2778 49.8189 64.277 49.8378 64.277C49.8598 64.277 49.8787 64.2778 49.8921 64.2786C49.9063 64.2802 49.9173 64.2817 49.9244 64.2849C49.9315 64.288 49.937 64.292 49.9402 64.2975C49.9433 64.3022 49.9465 64.3085 49.9488 64.3164L50.215 65.2282L50.2173 65.2384L50.2197 65.2282L50.4638 64.3164C50.4654 64.3085 50.4685 64.3022 50.4717 64.2975C50.4756 64.292 50.4811 64.288 50.4882 64.2849C50.4961 64.2817 50.5055 64.2802 50.5181 64.2786C50.5307 64.2778 50.548 64.277 50.5685 64.277C50.5882 64.277 50.6039 64.2778 50.6165 64.2786C50.6291 64.2802 50.6394 64.2817 50.6465 64.2849C50.6543 64.288 50.6591 64.292 50.6622 64.2967C50.6654 64.3014 50.6685 64.3069 50.6701 64.314L50.9339 65.2282L50.9362 65.2384L50.937 65.2282L51.2 64.3164C51.2008 64.3085 51.2039 64.3022 51.2079 64.2975C51.211 64.292 51.2173 64.288 51.2252 64.2849C51.2323 64.2817 51.2425 64.2802 51.2567 64.2786C51.2701 64.2778 51.2874 64.277 51.3087 64.277C51.3283 64.277 51.3441 64.2778 51.3559 64.2786C51.3677 64.2794 51.3772 64.281 51.3843 64.2849C51.3905 64.2872 51.3961 64.2912 51.3992 64.2951C51.4016 64.2998 51.4031 64.3054 51.4031 64.3124ZM52.5992 65.4187C52.5992 65.4258 52.5976 65.4313 52.5953 65.4361C52.5921 65.44 52.5866 65.4439 52.5795 65.4479C52.5724 65.4502 52.563 65.4526 52.5504 65.455C52.5386 65.4565 52.5244 65.4573 52.5071 65.4573C52.489 65.4573 52.4732 65.4565 52.4614 65.455C52.4496 65.4526 52.4402 65.4502 52.4331 65.4479C52.426 65.4439 52.4213 65.44 52.4189 65.4361C52.4165 65.4313 52.4157 65.4258 52.4157 65.4187V65.2731C52.352 65.3424 52.2906 65.3928 52.2291 65.4243C52.1677 65.4565 52.1055 65.4723 52.0425 65.4723C51.9693 65.4723 51.9071 65.4605 51.8567 65.4353C51.8063 65.4109 51.7654 65.3778 51.7346 65.3353C51.7039 65.2935 51.6811 65.2447 51.6677 65.1888C51.6543 65.1321 51.6472 65.0644 51.6472 64.9841V64.3148C51.6472 64.3085 51.6488 64.303 51.652 64.2983C51.6543 64.2943 51.6598 64.2904 51.6685 64.2865C51.6764 64.2825 51.6874 64.2802 51.7 64.2786C51.7134 64.2778 51.7291 64.277 51.7496 64.277C51.7693 64.277 51.785 64.2778 51.7984 64.2786C51.811 64.2802 51.8213 64.2825 51.8299 64.2865C51.837 64.2904 51.8425 64.2943 51.8457 64.2983C51.8496 64.303 51.8512 64.3085 51.8512 64.3148V64.9581C51.8512 65.0227 51.8559 65.0747 51.8654 65.1132C51.874 65.1518 51.8882 65.1849 51.9079 65.2124C51.9268 65.24 51.952 65.2613 51.9811 65.2762C52.0102 65.2912 52.0449 65.2991 52.0843 65.2991C52.1346 65.2991 52.185 65.281 52.2354 65.2447C52.2858 65.2093 52.3394 65.1565 52.3961 65.0872V64.3148C52.3961 64.3085 52.3969 64.303 52.4 64.2983C52.4032 64.2943 52.4087 64.2904 52.4165 64.2865C52.4244 64.2825 52.4354 64.2802 52.448 64.2786C52.4606 64.2778 52.4772 64.277 52.4976 64.277C52.5173 64.277 52.5331 64.2778 52.5465 64.2786C52.5591 64.2802 52.5701 64.2825 52.5772 64.2865C52.5843 64.2904 52.5898 64.2943 52.5937 64.2983C52.5976 64.303 52.5992 64.3085 52.5992 64.3148V65.4187ZM53.2 65.4684C53.2 65.5495 53.1937 65.6156 53.1819 65.666C53.1693 65.7156 53.1504 65.7581 53.1244 65.7928C53.0984 65.8266 53.0654 65.8526 53.0236 65.8699C52.9835 65.888 52.9339 65.8967 52.8764 65.8967C52.8504 65.8967 52.8283 65.8951 52.8094 65.892C52.7913 65.888 52.7772 65.8849 52.7677 65.881C52.7575 65.8762 52.7512 65.8723 52.7472 65.8668C52.7433 65.8613 52.7409 65.855 52.7394 65.8479C52.7378 65.8408 52.7362 65.8337 52.7362 65.8266C52.7354 65.8195 52.7354 65.8101 52.7354 65.7998C52.7354 65.7849 52.7362 65.7723 52.737 65.7613C52.7386 65.751 52.7409 65.7424 52.7433 65.7353C52.7465 65.729 52.7496 65.7243 52.7535 65.7219C52.7567 65.7187 52.7614 65.7172 52.7677 65.7172C52.7724 65.7172 52.7819 65.7187 52.7961 65.7203C52.8102 65.7227 52.8268 65.7235 52.8457 65.7235C52.8724 65.7235 52.8953 65.7195 52.9142 65.7109C52.9339 65.703 52.9488 65.6896 52.9614 65.6715C52.974 65.6534 52.9827 65.629 52.9882 65.5998C52.9937 65.5707 52.9968 65.5266 52.9968 65.4668V64.3148C52.9968 64.3093 52.9984 64.3038 53.0016 64.2991C53.0047 64.2943 53.0102 64.2904 53.0181 64.2865C53.026 64.2833 53.0362 64.281 53.0496 64.2794C53.0622 64.2778 53.0787 64.277 53.0984 64.277C53.1181 64.277 53.1346 64.2778 53.1472 64.2794C53.1606 64.281 53.1709 64.2833 53.1787 64.2865C53.1866 64.2904 53.1921 64.2943 53.1953 64.2991C53.1984 64.3038 53.2 64.3093 53.2 64.3148V65.4684ZM53.2228 63.9432C53.2228 63.9904 53.2142 64.0227 53.1961 64.04C53.178 64.0573 53.1449 64.066 53.0969 64.066C53.0488 64.066 53.0165 64.0573 53 64.0408C52.9827 64.0243 52.974 63.9928 52.974 63.9455C52.974 63.8983 52.9827 63.8652 53.0008 63.8487C53.0181 63.8313 53.0504 63.8227 53.0992 63.8227C53.1472 63.8227 53.1803 63.8306 53.1968 63.8479C53.2142 63.8644 53.2228 63.8959 53.2228 63.9432ZM54.5189 65.4187C54.5189 65.4258 54.5181 65.4313 54.515 65.4361C54.5126 65.44 54.5071 65.4439 54.4992 65.4479C54.4921 65.4502 54.4827 65.4526 54.4709 65.455C54.4591 65.4565 54.4441 65.4573 54.4276 65.4573C54.4087 65.4573 54.3929 65.4565 54.3819 65.455C54.3693 65.4526 54.3606 65.4502 54.3528 65.4479C54.3465 65.4439 54.3417 65.44 54.3394 65.4361C54.337 65.4313 54.3354 65.4258 54.3354 65.4187V65.2731C54.2724 65.3424 54.2102 65.3928 54.1488 65.4243C54.0882 65.4565 54.0252 65.4723 53.963 65.4723C53.889 65.4723 53.8268 65.4605 53.7772 65.4353C53.7268 65.4109 53.6858 65.3778 53.6543 65.3353C53.6236 65.2935 53.6016 65.2447 53.5874 65.1888C53.574 65.1321 53.5677 65.0644 53.5677 64.9841V64.3148C53.5677 64.3085 53.5693 64.303 53.5717 64.2983C53.5748 64.2943 53.5803 64.2904 53.5882 64.2865C53.5969 64.2825 53.6071 64.2802 53.6205 64.2786C53.6331 64.2778 53.6496 64.277 53.6693 64.277C53.689 64.277 53.7055 64.2778 53.7181 64.2786C53.7315 64.2802 53.7417 64.2825 53.7496 64.2865C53.7575 64.2904 53.763 64.2943 53.7661 64.2983C53.7693 64.303 53.7709 64.3085 53.7709 64.3148V64.9581C53.7709 65.0227 53.7756 65.0747 53.785 65.1132C53.7945 65.1518 53.8087 65.1849 53.8276 65.2124C53.8472 65.24 53.8717 65.2613 53.9008 65.2762C53.9307 65.2912 53.9646 65.2991 54.0039 65.2991C54.0543 65.2991 54.1055 65.281 54.1559 65.2447C54.2063 65.2093 54.2591 65.1565 54.3157 65.0872V64.3148C54.3157 64.3085 54.3173 64.303 54.3205 64.2983C54.3228 64.2943 54.3283 64.2904 54.337 64.2865C54.3449 64.2825 54.3551 64.2802 54.3677 64.2786C54.3811 64.2778 54.3968 64.277 54.4173 64.277C54.437 64.277 54.4535 64.2778 54.4669 64.2786C54.4795 64.2802 54.4898 64.2825 54.4968 64.2865C54.5047 64.2904 54.5102 64.2943 54.5142 64.2983C54.5173 64.303 54.5189 64.3085 54.5189 64.3148V65.4187ZM55.8386 65.4187C55.8386 65.4258 55.837 65.4313 55.8339 65.4361C55.8315 65.4416 55.826 65.4447 55.8197 65.4479C55.8126 65.451 55.8032 65.4526 55.7921 65.455C55.7803 65.4565 55.7661 65.4573 55.7504 65.4573C55.7331 65.4573 55.7189 65.4565 55.7071 65.455C55.6953 65.4526 55.6866 65.451 55.6787 65.4479C55.6717 65.4447 55.6661 65.4416 55.663 65.4361C55.6598 65.4313 55.6583 65.425 55.6583 65.4187V65.2723C55.6 65.3353 55.5402 65.3841 55.478 65.4195C55.415 65.455 55.3465 65.4723 55.2724 65.4723C55.1913 65.4723 55.122 65.4565 55.0654 65.425C55.0079 65.3935 54.9614 65.351 54.926 65.2975C54.8913 65.2439 54.8654 65.181 54.8488 65.1085C54.8323 65.0361 54.8236 64.9597 54.8236 64.8802C54.8236 64.7849 54.8339 64.6991 54.8543 64.6235C54.8748 64.5463 54.9047 64.481 54.9457 64.4274C54.985 64.3731 55.0346 64.3321 55.0945 64.303C55.1535 64.2739 55.2213 64.2597 55.2992 64.2597C55.3638 64.2597 55.4228 64.2739 55.4764 64.3014C55.5299 64.3306 55.5827 64.3715 55.6346 64.4266V63.7865C55.6346 63.7809 55.6362 63.7754 55.6394 63.7699C55.6425 63.7644 55.6472 63.7605 55.6559 63.7573C55.6638 63.755 55.674 63.7526 55.6866 63.7502C55.7 63.7479 55.7158 63.7471 55.7354 63.7471C55.7559 63.7471 55.7724 63.7479 55.7858 63.7502C55.7984 63.7526 55.8094 63.755 55.8165 63.7573C55.8236 63.7605 55.8291 63.7644 55.8331 63.7699C55.837 63.7754 55.8386 63.7809 55.8386 63.7865V65.4187ZM55.6346 64.6424C55.5803 64.5739 55.5276 64.5219 55.4772 64.4865C55.426 64.451 55.3724 64.4329 55.3173 64.4329C55.2661 64.4329 55.222 64.4447 55.1866 64.4699C55.1504 64.4943 55.1213 64.5266 55.0992 64.5668C55.0764 64.6061 55.0606 64.6518 55.0504 64.703C55.0402 64.7534 55.0346 64.8046 55.0346 64.8573C55.0346 64.9124 55.0394 64.9676 55.048 65.0203C55.0559 65.0731 55.0717 65.1203 55.0921 65.1621C55.1134 65.2038 55.1417 65.2369 55.1764 65.2621C55.2118 65.2865 55.2559 65.2991 55.3087 65.2991C55.3354 65.2991 55.3614 65.2951 55.3866 65.288C55.411 65.281 55.437 65.2684 55.463 65.251C55.4882 65.2345 55.5165 65.2117 55.5449 65.1841C55.5732 65.1573 55.6031 65.1235 55.6346 65.0833V64.6424ZM57.1197 65.418C57.1197 65.4243 57.1181 65.4306 57.115 65.4353C57.1118 65.44 57.1063 65.4439 57.0984 65.4479C57.0906 65.4502 57.0795 65.4526 57.0661 65.455C57.052 65.4565 57.0346 65.4573 57.0134 65.4573C56.9913 65.4573 56.9732 65.4565 56.9591 65.4558C56.9449 65.4542 56.9323 65.4518 56.9228 65.4495C56.9126 65.4463 56.9047 65.4424 56.8992 65.4369C56.8929 65.4313 56.8874 65.425 56.8819 65.418L56.4165 64.8069V65.4187C56.4165 65.4258 56.415 65.4313 56.4118 65.4361C56.4087 65.44 56.4032 65.4439 56.3961 65.4479C56.3882 65.4502 56.378 65.4526 56.3646 65.455C56.352 65.4565 56.3354 65.4573 56.315 65.4573C56.2945 65.4573 56.278 65.4565 56.2654 65.455C56.252 65.4526 56.2417 65.4502 56.2339 65.4479C56.226 65.4439 56.2205 65.44 56.2173 65.4361C56.215 65.4313 56.2134 65.4258 56.2134 65.4187V63.7817C56.2134 63.7747 56.215 63.7691 56.2173 63.7644C56.2205 63.7597 56.226 63.755 56.2339 63.7518C56.2417 63.7487 56.252 63.7463 56.2654 63.7447C56.278 63.7432 56.2945 63.7424 56.315 63.7424C56.3354 63.7424 56.352 63.7432 56.3646 63.7447C56.378 63.7463 56.3882 63.7487 56.3961 63.7518C56.4032 63.755 56.4087 63.7597 56.4118 63.7644C56.415 63.7691 56.4165 63.7747 56.4165 63.7817V64.7786L56.8323 64.3203C56.8394 64.3117 56.8465 64.3054 56.8535 64.2998C56.8606 64.2943 56.8693 64.2904 56.8795 64.2865C56.8898 64.2825 56.9016 64.2802 56.9157 64.2786C56.9291 64.2778 56.9465 64.277 56.9661 64.277C56.9866 64.277 57.0032 64.2778 57.0173 64.2786C57.0307 64.2802 57.0425 64.2817 57.0504 64.2849C57.0591 64.288 57.0654 64.292 57.0693 64.2959C57.0732 64.3006 57.0748 64.3061 57.0748 64.314C57.0748 64.3235 57.0724 64.3337 57.0669 64.3432C57.0614 64.3534 57.0528 64.3644 57.0402 64.3778L56.6425 64.7778L57.0905 65.3597C57.1008 65.3747 57.1087 65.3849 57.1134 65.3943C57.1181 65.403 57.1197 65.4109 57.1197 65.418ZM58.1433 65.4203C58.1433 65.4298 58.1394 65.4376 58.1339 65.4424C58.1268 65.4479 58.1181 65.451 58.1063 65.4534C58.0953 65.4558 58.0779 65.4573 58.0559 65.4573C58.0354 65.4573 58.0181 65.4558 58.0055 65.4534C57.9929 65.451 57.9835 65.4479 57.978 65.4424C57.9717 65.4376 57.9693 65.4306 57.9693 65.4203V65.3101C57.9205 65.3613 57.8669 65.4014 57.8079 65.4298C57.7488 65.4581 57.6858 65.4723 57.6197 65.4723C57.5614 65.4723 57.5087 65.4644 57.4622 65.4495C57.415 65.4345 57.3748 65.4124 57.3417 65.3841C57.3087 65.3558 57.2827 65.3203 57.2646 65.2786C57.2457 65.2369 57.237 65.1896 57.237 65.1361C57.237 65.0739 57.2488 65.0195 57.2748 64.9739C57.3 64.9282 57.3362 64.8904 57.3843 64.8597C57.4315 64.8298 57.4898 64.8069 57.5583 64.792C57.6268 64.777 57.7039 64.7691 57.7898 64.7691H57.9425V64.6833C57.9425 64.6408 57.9378 64.603 57.9291 64.5699C57.9197 64.5376 57.9055 64.5101 57.885 64.488C57.8654 64.4668 57.8394 64.4502 57.8079 64.4392C57.7756 64.4282 57.7362 64.4227 57.6898 64.4227C57.6402 64.4227 57.5953 64.4282 57.5559 64.4408C57.5165 64.4526 57.4811 64.466 57.452 64.4802C57.422 64.4951 57.3968 64.5077 57.3772 64.5203C57.3575 64.5321 57.3417 64.5384 57.3323 64.5384C57.326 64.5384 57.3197 64.5369 57.315 64.5329C57.3102 64.5306 57.3063 64.525 57.3024 64.5187C57.2984 64.5124 57.2961 64.5038 57.2945 64.4935C57.2929 64.4833 57.2921 64.4723 57.2921 64.4597C57.2921 64.44 57.2929 64.4235 57.2961 64.4117C57.2992 64.3998 57.3063 64.3888 57.3173 64.3786C57.3276 64.3676 57.3472 64.355 57.374 64.3408C57.4008 64.3266 57.4323 64.3132 57.4669 64.3006C57.5016 64.2888 57.5402 64.2794 57.5819 64.2715C57.6236 64.2628 57.6661 64.2597 57.7079 64.2597C57.7874 64.2597 57.8551 64.2684 57.9102 64.2865C57.9661 64.3046 58.011 64.3313 58.0449 64.366C58.0795 64.4006 58.1039 64.4439 58.1197 64.4951C58.1354 64.5463 58.1433 64.6069 58.1433 64.6754V65.4203ZM57.9425 64.9148H57.7693C57.7142 64.9148 57.6661 64.9195 57.6252 64.929C57.5843 64.9384 57.5504 64.9526 57.5236 64.9707C57.4968 64.9896 57.4772 65.0109 57.4638 65.0369C57.4512 65.0628 57.4449 65.0928 57.4449 65.1258C57.4449 65.1833 57.463 65.229 57.4992 65.2628C57.5362 65.2967 57.5866 65.314 57.652 65.314C57.7047 65.314 57.7543 65.3006 57.7992 65.2739C57.8449 65.2471 57.8921 65.2054 57.9425 65.1495V64.9148ZM59.4638 65.4187C59.4638 65.4258 59.4622 65.4313 59.4591 65.4361C59.4551 65.44 59.4504 65.4439 59.4433 65.4479C59.4354 65.4502 59.4252 65.4526 59.4118 65.455C59.3992 65.4565 59.3827 65.4573 59.363 65.4573C59.3417 65.4573 59.3252 65.4565 59.3126 65.455C59.2992 65.4526 59.289 65.4502 59.2811 65.4479C59.274 65.4439 59.2685 65.44 59.2654 65.4361C59.2622 65.4313 59.2606 65.4258 59.2606 65.4187V64.7723C59.2606 64.7101 59.2551 64.6589 59.2457 64.6203C59.2362 64.5817 59.222 64.5495 59.2031 64.5211C59.1842 64.4935 59.1606 64.4723 59.1307 64.4573C59.1008 64.4432 59.0669 64.4353 59.0276 64.4353C58.9772 64.4353 58.9268 64.4534 58.8764 64.4888C58.826 64.525 58.7732 64.5778 58.7181 64.6471V65.4187C58.7181 65.4258 58.7165 65.4313 58.7134 65.4361C58.7094 65.44 58.7047 65.4439 58.6968 65.4479C58.6898 65.4502 58.6795 65.4526 58.6661 65.455C58.6535 65.4565 58.6362 65.4573 58.6157 65.4573C58.5961 65.4573 58.5795 65.4565 58.5669 65.455C58.5535 65.4526 58.5425 65.4502 58.5354 65.4479C58.5276 65.4439 58.522 65.44 58.5189 65.4361C58.5157 65.4313 58.515 65.4258 58.515 65.4187V64.3148C58.515 64.3085 58.5157 64.303 58.5189 64.2983C58.5213 64.2943 58.5252 64.2904 58.5331 64.2865C58.5409 64.2825 58.5496 64.2802 58.5614 64.2786C58.5732 64.2778 58.5882 64.277 58.6071 64.277C58.6252 64.277 58.6402 64.2778 58.652 64.2786C58.6638 64.2802 58.6732 64.2825 58.6803 64.2865C58.6866 64.2904 58.6913 64.2943 58.6945 64.2983C58.6968 64.303 58.6984 64.3085 58.6984 64.3148V64.4613C58.7606 64.3912 58.822 64.34 58.8843 64.3077C58.9457 64.2754 59.0071 64.2597 59.0701 64.2597C59.1433 64.2597 59.2055 64.2723 59.2551 64.2967C59.3055 64.3219 59.3465 64.355 59.3772 64.3967C59.4079 64.4384 59.4307 64.4873 59.4441 64.5439C59.4575 64.5998 59.4638 64.6668 59.4638 64.7455V65.4187ZM61.3079 65.418C61.3079 65.4243 61.3063 65.4306 61.3031 65.4353C61.2992 65.44 61.2937 65.4439 61.2866 65.4479C61.2787 65.4502 61.2677 65.4526 61.2535 65.455C61.2402 65.4565 61.222 65.4573 61.2008 65.4573C61.1795 65.4573 61.1606 65.4565 61.1465 65.4558C61.1323 65.4542 61.1205 65.4518 61.111 65.4495C61.1008 65.4463 61.0929 65.4424 61.0866 65.4369C61.0803 65.4313 61.0748 65.425 61.0701 65.418L60.6047 64.8069V65.4187C60.6047 65.4258 60.6031 65.4313 60.6 65.4361C60.5961 65.44 60.5913 65.4439 60.5835 65.4479C60.5764 65.4502 60.5661 65.4526 60.5528 65.455C60.5402 65.4565 60.5228 65.4573 60.5024 65.4573C60.4827 65.4573 60.4661 65.4565 60.4535 65.455C60.4402 65.4526 60.4291 65.4502 60.422 65.4479C60.4142 65.4439 60.4087 65.44 60.4055 65.4361C60.4024 65.4313 60.4016 65.4258 60.4016 65.4187V63.7817C60.4016 63.7747 60.4024 63.7691 60.4055 63.7644C60.4087 63.7597 60.4142 63.755 60.422 63.7518C60.4291 63.7487 60.4402 63.7463 60.4535 63.7447C60.4661 63.7432 60.4827 63.7424 60.5024 63.7424C60.5228 63.7424 60.5402 63.7432 60.5528 63.7447C60.5661 63.7463 60.5764 63.7487 60.5835 63.7518C60.5913 63.755 60.5961 63.7597 60.6 63.7644C60.6031 63.7691 60.6047 63.7747 60.6047 63.7817V64.7786L61.0205 64.3203C61.0268 64.3117 61.0339 64.3054 61.0409 64.2998C61.0488 64.2943 61.0575 64.2904 61.0677 64.2865C61.0779 64.2825 61.0898 64.2802 61.1039 64.2786C61.1173 64.2778 61.1339 64.277 61.1535 64.277C61.174 64.277 61.1913 64.2778 61.2055 64.2786C61.2189 64.2802 61.2307 64.2817 61.2386 64.2849C61.2472 64.288 61.2535 64.292 61.2575 64.2959C61.2606 64.3006 61.263 64.3061 61.263 64.314C61.263 64.3235 61.2598 64.3337 61.2543 64.3432C61.2496 64.3534 61.2409 64.3644 61.2283 64.3778L60.8307 64.7778L61.2787 65.3597C61.289 65.3747 61.2969 65.3849 61.3008 65.3943C61.3055 65.403 61.3079 65.4109 61.3079 65.418ZM62.4008 64.8187C62.4008 64.851 62.3929 64.8731 62.3772 64.8872C62.3614 64.9006 62.3425 64.9069 62.322 64.9069H61.5976C61.5976 64.9691 61.6039 65.0243 61.6157 65.0731C61.6283 65.1227 61.6488 65.1644 61.6772 65.1998C61.7055 65.2353 61.7433 65.2621 61.789 65.281C61.8346 65.2991 61.8906 65.3093 61.9567 65.3093C62.0095 65.3093 62.0559 65.3046 62.0968 65.2959C62.1378 65.288 62.1732 65.2778 62.2032 65.2676C62.2331 65.2573 62.2575 65.2479 62.2764 65.2392C62.2961 65.2306 62.3102 65.2258 62.3205 65.2258C62.326 65.2258 62.3307 65.2274 62.3354 65.2306C62.3394 65.2329 62.3433 65.2376 62.3457 65.2432C62.348 65.2487 62.3504 65.2565 62.3512 65.2668C62.3528 65.277 62.3535 65.2896 62.3535 65.3038C62.3535 65.3148 62.3528 65.3235 62.352 65.3313C62.3512 65.3392 62.3504 65.3463 62.3488 65.3518C62.348 65.3581 62.3457 65.3636 62.3425 65.3691C62.3394 65.3739 62.3362 65.3778 62.3315 65.3825C62.3276 65.3872 62.3142 65.3943 62.2921 65.4046C62.2701 65.4148 62.2417 65.4243 62.2063 65.4345C62.1709 65.4439 62.1307 65.4526 62.0843 65.4605C62.0386 65.4684 61.9898 65.4723 61.937 65.4723C61.8465 65.4723 61.7669 65.4597 61.6992 65.4345C61.6307 65.4093 61.5732 65.3715 61.5268 65.3219C61.4803 65.2715 61.4457 65.2093 61.422 65.1337C61.3984 65.0589 61.3866 64.9715 61.3866 64.8715C61.3866 64.777 61.3984 64.6912 61.4236 64.6156C61.4472 64.54 61.4835 64.4754 61.5291 64.4235C61.5756 64.3707 61.6315 64.3306 61.6968 64.3014C61.7622 64.2739 61.8354 64.2597 61.9157 64.2597C62.0024 64.2597 62.0764 64.2731 62.137 64.3014C62.1976 64.329 62.248 64.3668 62.2874 64.4132C62.326 64.4605 62.3551 64.5156 62.3732 64.5794C62.3913 64.6424 62.4008 64.7101 62.4008 64.7817V64.8187ZM62.1976 64.7589C62.2 64.6526 62.1764 64.5691 62.1268 64.5085C62.0772 64.4479 62.0039 64.418 61.9063 64.418C61.8559 64.418 61.8118 64.4266 61.7748 64.4455C61.737 64.4644 61.7055 64.4896 61.6795 64.5211C61.6543 64.5518 61.6346 64.588 61.6205 64.6298C61.6071 64.6707 61.5992 64.714 61.5976 64.7589H62.1976ZM63.7252 64.8518C63.7252 64.9471 63.715 65.0329 63.6937 65.1101C63.6732 65.1865 63.6433 65.2518 63.6024 65.3054C63.5622 65.3589 63.5126 65.4006 63.4535 65.429C63.3953 65.4581 63.3276 65.4723 63.252 65.4723C63.2173 65.4723 63.1842 65.4691 63.1543 65.4621C63.1252 65.455 63.0953 65.4439 63.0669 65.4282C63.0386 65.4124 63.0102 65.3935 62.9811 65.3691C62.9528 65.3455 62.9228 65.3172 62.8906 65.2833V65.4187C62.8906 65.425 62.889 65.4313 62.8858 65.4361C62.8827 65.4416 62.8772 65.4447 62.8701 65.4479C62.8622 65.451 62.8535 65.4526 62.8425 65.455C62.8315 65.4565 62.8165 65.4573 62.8 65.4573C62.7835 65.4573 62.7693 65.4565 62.7575 65.455C62.7465 65.4526 62.737 65.451 62.7291 65.4479C62.722 65.4447 62.7173 65.4416 62.715 65.4361C62.7126 65.4313 62.711 65.4258 62.711 65.4187V63.7817C62.711 63.7747 62.7126 63.7691 62.715 63.7644C62.7181 63.7597 62.7236 63.755 62.7315 63.7518C62.7394 63.7487 62.7496 63.7463 62.763 63.7447C62.7756 63.7432 62.7921 63.7424 62.8126 63.7424C62.8331 63.7424 62.8496 63.7432 62.8622 63.7447C62.8756 63.7463 62.8858 63.7487 62.8937 63.7518C62.9008 63.755 62.9063 63.7597 62.9094 63.7644C62.9126 63.7691 62.9142 63.7747 62.9142 63.7817V64.4408C62.9472 64.4077 62.9787 64.3794 63.0094 64.3558C63.0402 64.3337 63.0693 64.3148 63.0992 64.3006C63.1283 64.2865 63.1583 64.2754 63.1874 64.2691C63.2165 64.2628 63.2472 64.2597 63.2803 64.2597C63.3598 64.2597 63.4283 64.2754 63.485 64.3069C63.5417 64.3392 63.5874 64.3817 63.6236 64.4353C63.6591 64.4888 63.685 64.5518 63.7008 64.6235C63.7173 64.6959 63.7252 64.7715 63.7252 64.8518ZM63.5142 64.8754C63.5142 64.8187 63.5102 64.7636 63.5016 64.7109C63.4929 64.6573 63.478 64.6101 63.4567 64.5691C63.4354 64.5282 63.4071 64.4951 63.3724 64.4707C63.337 64.4455 63.2929 64.4329 63.2409 64.4329C63.215 64.4329 63.189 64.4369 63.163 64.4439C63.1386 64.451 63.1126 64.4636 63.0866 64.4809C63.0598 64.4983 63.0331 64.5203 63.0047 64.5471C62.9764 64.5739 62.9465 64.6085 62.9142 64.6495V65.0896C62.9701 65.1581 63.0236 65.2101 63.074 65.2455C63.1244 65.281 63.1779 65.2991 63.2323 65.2991C63.2827 65.2991 63.326 65.2872 63.3622 65.2621C63.3984 65.2376 63.4276 65.2046 63.4504 65.1644C63.4724 65.1243 63.489 65.0786 63.4992 65.0282C63.5094 64.9778 63.5142 64.9266 63.5142 64.8754ZM64.9693 64.8187C64.9693 64.851 64.9614 64.8731 64.9457 64.8872C64.9291 64.9006 64.911 64.9069 64.8905 64.9069H64.1654C64.1654 64.9691 64.1717 65.0243 64.1842 65.0731C64.1961 65.1227 64.2165 65.1644 64.2457 65.1998C64.274 65.2353 64.311 65.2621 64.3567 65.281C64.4031 65.2991 64.4591 65.3093 64.5252 65.3093C64.5772 65.3093 64.6244 65.3046 64.6654 65.2959C64.7063 65.288 64.7417 65.2778 64.7717 65.2676C64.8008 65.2573 64.826 65.2479 64.8449 65.2392C64.8646 65.2306 64.8787 65.2258 64.8882 65.2258C64.8945 65.2258 64.8992 65.2274 64.9039 65.2306C64.9079 65.2329 64.9118 65.2376 64.9142 65.2432C64.9165 65.2487 64.9189 65.2565 64.9197 65.2668C64.9213 65.277 64.9213 65.2896 64.9213 65.3038C64.9213 65.3148 64.9213 65.3235 64.9205 65.3313C64.9197 65.3392 64.9189 65.3463 64.9173 65.3518C64.9157 65.3581 64.9142 65.3636 64.911 65.3691C64.9079 65.3739 64.9047 65.3778 64.9 65.3825C64.8953 65.3872 64.8819 65.3943 64.8606 65.4046C64.8378 65.4148 64.8094 65.4243 64.7748 65.4345C64.7394 65.4439 64.6992 65.4526 64.6528 65.4605C64.6071 65.4684 64.5575 65.4723 64.5055 65.4723C64.415 65.4723 64.3354 65.4597 64.2677 65.4345C64.1992 65.4093 64.1417 65.3715 64.0953 65.3219C64.0488 65.2715 64.0142 65.2093 63.9905 65.1337C63.9669 65.0589 63.9551 64.9715 63.9551 64.8715C63.9551 64.777 63.9669 64.6912 63.9913 64.6156C64.0157 64.54 64.0512 64.4754 64.0976 64.4235C64.1433 64.3707 64.1992 64.3306 64.2646 64.3014C64.3299 64.2739 64.4032 64.2597 64.4843 64.2597C64.5709 64.2597 64.6441 64.2731 64.7047 64.3014C64.7661 64.329 64.8158 64.3668 64.8551 64.4132C64.8945 64.4605 64.9228 64.5156 64.9417 64.5794C64.9598 64.6424 64.9693 64.7101 64.9693 64.7817V64.8187ZM64.7661 64.7589C64.7685 64.6526 64.7449 64.5691 64.6953 64.5085C64.6457 64.4479 64.5724 64.418 64.4748 64.418C64.4244 64.418 64.3803 64.4266 64.3425 64.4455C64.3047 64.4644 64.274 64.4896 64.248 64.5211C64.2228 64.5518 64.2031 64.588 64.189 64.6298C64.1756 64.6707 64.1669 64.714 64.1654 64.7589H64.7661Z" fill="#0383B0"/>
<path fill-rule="evenodd" clip-rule="evenodd" d="M65.9244 64.3865C65.9244 64.4046 65.9244 64.4195 65.9236 64.4321C65.9228 64.4439 65.9205 64.4534 65.9181 64.4605C65.9165 64.4676 65.9126 64.4731 65.9087 64.477C65.9055 64.4802 65.9008 64.4817 65.8937 64.4817C65.8874 64.4817 65.8795 64.4802 65.8701 64.477C65.8606 64.4731 65.8504 64.4691 65.8386 64.466C65.8268 64.4621 65.8134 64.4589 65.7984 64.455C65.7843 64.4518 65.7677 64.4502 65.7512 64.4502C65.7307 64.4502 65.7102 64.4542 65.6906 64.4621C65.6717 64.4707 65.6504 64.4841 65.6291 64.5038C65.6071 64.5227 65.585 64.5471 65.5606 64.5786C65.5378 64.6101 65.511 64.6479 65.4827 64.6928V65.4187C65.4827 65.4258 65.4811 65.4313 65.478 65.4361C65.474 65.44 65.4693 65.4439 65.4614 65.4479C65.4543 65.4502 65.4441 65.4526 65.4307 65.455C65.4181 65.4565 65.4008 65.4573 65.3803 65.4573C65.3606 65.4573 65.3441 65.4565 65.3315 65.455C65.3181 65.4526 65.3071 65.4502 65.3 65.4479C65.2921 65.4439 65.2866 65.44 65.2835 65.4361C65.2803 65.4313 65.2795 65.4258 65.2795 65.4187V64.3148C65.2795 64.3085 65.2803 64.303 65.2827 64.2983C65.2858 64.2943 65.2906 64.2904 65.2976 64.2865C65.3055 64.2825 65.3142 64.2802 65.326 64.2786C65.3378 64.2778 65.3528 64.277 65.3717 64.277C65.3898 64.277 65.4047 64.2778 65.4165 64.2786C65.4283 64.2802 65.4378 64.2825 65.4449 64.2865C65.4512 64.2904 65.4559 64.2943 65.4591 64.2983C65.4614 64.303 65.463 64.3085 65.463 64.3148V64.4754C65.4929 64.4313 65.5213 64.3951 65.548 64.3676C65.5748 64.34 65.6 64.318 65.6236 64.3014C65.6472 64.2857 65.6709 64.2747 65.6937 64.2684C65.7173 64.2621 65.7402 64.2597 65.7646 64.2597C65.7748 64.2597 65.7866 64.2597 65.8 64.2613C65.8134 64.2621 65.8276 64.2652 65.8425 64.2676C65.8575 64.2715 65.8709 64.2747 65.8819 64.2794C65.8937 64.2833 65.9024 64.2872 65.9071 64.2912C65.9126 64.2951 65.9157 64.2991 65.9173 64.303C65.9189 64.3069 65.9205 64.3117 65.922 64.3172C65.9228 64.3227 65.9236 64.3313 65.9244 64.3416C65.9244 64.3534 65.9244 64.3676 65.9244 64.3865ZM66.8047 65.118C66.8047 65.1747 66.7945 65.2243 66.7732 65.2691C66.7528 65.3124 66.7228 65.3502 66.6843 65.3802C66.6465 65.4101 66.6008 65.4337 66.5472 65.4487C66.4945 65.4644 66.4354 65.4723 66.3717 65.4723C66.3323 65.4723 66.2953 65.4691 66.2598 65.4628C66.2244 65.4573 66.1921 65.4495 66.1638 65.44C66.1362 65.4306 66.1118 65.4211 66.0921 65.4109C66.0724 65.4014 66.0583 65.392 66.0496 65.3841C66.0402 65.3762 66.0339 65.3644 66.0299 65.3495C66.026 65.3353 66.0236 65.3148 66.0236 65.2896C66.0236 65.2739 66.0244 65.2613 66.026 65.2502C66.0283 65.24 66.0299 65.2313 66.0323 65.2243C66.0346 65.218 66.0386 65.2132 66.0425 65.2101C66.0472 65.2077 66.052 65.2061 66.0583 65.2061C66.0669 65.2061 66.0803 65.2117 66.0976 65.2227C66.1157 65.2337 66.137 65.2455 66.163 65.2589C66.1882 65.2715 66.2189 65.2841 66.2543 65.2951C66.289 65.3061 66.3291 65.3117 66.3748 65.3117C66.4095 65.3117 66.4402 65.3077 66.4677 65.3006C66.4961 65.2936 66.5197 65.2825 66.5402 65.2676C66.5606 65.2534 66.5764 65.2353 66.5874 65.2124C66.5984 65.1904 66.6039 65.1644 66.6039 65.1337C66.6039 65.103 66.5961 65.0762 66.5795 65.0558C66.5638 65.0337 66.5433 65.0156 66.5173 64.9991C66.4906 64.9825 66.4614 64.9684 66.4291 64.9558C66.3961 64.9432 66.363 64.9298 66.3283 64.9156C66.2937 64.9014 66.2598 64.8857 66.2268 64.8684C66.1937 64.851 66.1646 64.8298 66.1378 64.8038C66.1118 64.7786 66.0913 64.7487 66.0756 64.7132C66.0591 64.6778 66.0512 64.6361 66.0512 64.5865C66.0512 64.5439 66.0598 64.5022 66.0764 64.4621C66.0929 64.4227 66.1181 64.388 66.152 64.3581C66.1858 64.3282 66.2276 64.3046 66.278 64.2865C66.3283 64.2684 66.3866 64.2597 66.4543 64.2597C66.4835 64.2597 66.5126 64.2621 66.5425 64.2668C66.5717 64.2723 66.5976 64.2786 66.622 64.2865C66.6457 64.2935 66.6654 64.3022 66.6827 64.3109C66.6992 64.3203 66.7126 64.3274 66.7205 64.3345C66.7291 64.3416 66.7346 64.3471 66.7378 64.3518C66.7409 64.3573 66.7425 64.3621 66.7441 64.3684C66.7449 64.3747 66.7465 64.3817 66.748 64.3912C66.7488 64.3998 66.7496 64.4109 66.7496 64.4243C66.7496 64.4376 66.7488 64.4502 66.748 64.4597C66.7465 64.4699 66.7441 64.4786 66.7417 64.4849C66.7386 64.4912 66.7354 64.4959 66.7315 64.4991C66.7268 64.5014 66.722 64.503 66.7173 64.503C66.7102 64.503 66.7 64.4983 66.6858 64.4888C66.6717 64.4802 66.6535 64.4707 66.6315 64.4605C66.6094 64.4502 66.5835 64.44 66.5535 64.4313C66.5236 64.4219 66.4898 64.418 66.4512 64.418C66.4165 64.418 66.3858 64.4211 66.3606 64.4298C66.3339 64.4369 66.3126 64.4479 66.2961 64.4621C66.2787 64.4762 66.2661 64.4928 66.2575 64.5124C66.2488 64.5321 66.2449 64.5534 66.2449 64.5762C66.2449 64.6077 66.2528 64.6345 66.2693 64.6565C66.2858 64.6778 66.3063 64.6967 66.3331 64.7132C66.3591 64.7298 66.389 64.7439 66.4228 64.7573C66.4559 64.7707 66.4898 64.7841 66.5244 64.7975C66.5591 64.8117 66.5937 64.8274 66.6276 64.8447C66.6614 64.8613 66.6913 64.8825 66.7173 64.9069C66.7441 64.9313 66.7646 64.9605 66.7811 64.9951C66.7968 65.0298 66.8047 65.0707 66.8047 65.118ZM67.9252 65.4203C67.9252 65.4298 67.922 65.4376 67.9157 65.4424C67.9087 65.4479 67.9 65.451 67.8882 65.4534C67.8772 65.4558 67.8598 65.4573 67.8378 65.4573C67.8173 65.4573 67.8 65.4558 67.7874 65.4534C67.7748 65.451 67.7654 65.4479 67.7598 65.4424C67.7535 65.4376 67.7512 65.4306 67.7512 65.4203V65.3101C67.7031 65.3613 67.6496 65.4014 67.5898 65.4298C67.5307 65.4581 67.4677 65.4723 67.4016 65.4723C67.3433 65.4723 67.2906 65.4644 67.2441 65.4495C67.1968 65.4345 67.1567 65.4124 67.1236 65.3841C67.0906 65.3558 67.0646 65.3203 67.0465 65.2786C67.0276 65.2369 67.0189 65.1896 67.0189 65.1361C67.0189 65.0739 67.0307 65.0195 67.0567 64.9739C67.0819 64.9282 67.1181 64.8904 67.1661 64.8597C67.2134 64.8298 67.2717 64.8069 67.3402 64.792C67.4087 64.777 67.4858 64.7691 67.5717 64.7691H67.7244V64.6833C67.7244 64.6408 67.7197 64.603 67.711 64.5699C67.7016 64.5376 67.6874 64.5101 67.6669 64.488C67.6472 64.4668 67.6213 64.4502 67.5898 64.4392C67.5575 64.4282 67.5181 64.4227 67.4717 64.4227C67.422 64.4227 67.3772 64.4282 67.3378 64.4408C67.2984 64.4526 67.2638 64.466 67.2339 64.4802C67.2039 64.4951 67.1787 64.5077 67.1591 64.5203C67.1394 64.5321 67.1236 64.5384 67.1142 64.5384C67.1079 64.5384 67.1016 64.5369 67.0969 64.5329C67.0921 64.5306 67.0882 64.525 67.0843 64.5187C67.0803 64.5124 67.078 64.5038 67.0764 64.4935C67.0748 64.4833 67.074 64.4723 67.074 64.4597C67.074 64.44 67.0748 64.4235 67.078 64.4117C67.0811 64.3998 67.0882 64.3888 67.0992 64.3786C67.1102 64.3676 67.1291 64.355 67.1559 64.3408C67.1827 64.3266 67.2142 64.3132 67.2488 64.3006C67.2835 64.2888 67.322 64.2794 67.3646 64.2715C67.4055 64.2628 67.448 64.2597 67.4906 64.2597C67.5693 64.2597 67.637 64.2684 67.6921 64.2865C67.748 64.3046 67.7929 64.3313 67.8268 64.366C67.8614 64.4006 67.8858 64.4439 67.9016 64.4951C67.9173 64.5463 67.9252 64.6069 67.9252 64.6754V65.4203ZM67.7244 64.9148H67.5512C67.4961 64.9148 67.448 64.9195 67.4071 64.929C67.3661 64.9384 67.3323 64.9526 67.3055 64.9707C67.2787 64.9896 67.2591 65.0109 67.2457 65.0369C67.2331 65.0628 67.2268 65.0928 67.2268 65.1258C67.2268 65.1833 67.2449 65.229 67.2811 65.2628C67.3181 65.2967 67.3685 65.314 67.4339 65.314C67.4866 65.314 67.5362 65.3006 67.5819 65.2739C67.6268 65.2471 67.674 65.2054 67.7244 65.1495V64.9148ZM69.9339 65.4187C69.9339 65.4258 69.9323 65.4313 69.9291 65.4361C69.9252 65.44 69.9205 65.4439 69.9126 65.4479C69.9055 65.4502 69.8953 65.4526 69.8827 65.455C69.8693 65.4565 69.8528 65.4573 69.8331 65.4573C69.8126 65.4573 69.7961 65.4565 69.7835 65.455C69.7701 65.4526 69.7598 65.4502 69.752 65.4479C69.7441 65.4439 69.7386 65.44 69.7354 65.4361C69.7323 65.4313 69.7307 65.4258 69.7307 65.4187V64.7487C69.7307 64.7014 69.726 64.6589 69.7181 64.6203C69.7102 64.5817 69.6968 64.5495 69.6787 64.5211C69.6606 64.4935 69.6386 64.4723 69.611 64.4573C69.5835 64.4432 69.5504 64.4353 69.5126 64.4353C69.4661 64.4353 69.4197 64.4534 69.3732 64.4888C69.326 64.525 69.274 64.5778 69.2181 64.6471V65.4187C69.2181 65.4258 69.2165 65.4313 69.2134 65.4361C69.2094 65.44 69.2039 65.4439 69.1961 65.4479C69.189 65.4502 69.1787 65.4526 69.1654 65.455C69.152 65.4565 69.1354 65.4573 69.1157 65.4573C69.0969 65.4573 69.0811 65.4565 69.0669 65.455C69.0535 65.4526 69.0425 65.4502 69.0354 65.4479C69.0276 65.4439 69.022 65.44 69.0189 65.4361C69.0157 65.4313 69.015 65.4258 69.015 65.4187V64.7487C69.015 64.7014 69.0102 64.6589 69.0016 64.6203C68.9921 64.5817 68.9787 64.5495 68.9606 64.5211C68.9425 64.4935 68.9205 64.4723 68.8929 64.4573C68.8654 64.4432 68.8331 64.4353 68.7953 64.4353C68.7488 64.4353 68.7016 64.4534 68.6543 64.4888C68.6071 64.525 68.5559 64.5778 68.5 64.6471V65.4187C68.5 65.4258 68.4984 65.4313 68.4953 65.4361C68.4913 65.44 68.4866 65.4439 68.4795 65.4479C68.4717 65.4502 68.4614 65.4526 68.448 65.455C68.4354 65.4565 68.4181 65.4573 68.3976 65.4573C68.378 65.4573 68.3614 65.4565 68.3488 65.455C68.3354 65.4526 68.3244 65.4502 68.3173 65.4479C68.3094 65.4439 68.3039 65.44 68.3008 65.4361C68.2976 65.4313 68.2968 65.4258 68.2968 65.4187V64.3148C68.2968 64.3085 68.2976 64.303 68.3008 64.2983C68.3031 64.2943 68.3079 64.2904 68.315 64.2865C68.3228 64.2825 68.3315 64.2802 68.3433 64.2786C68.3551 64.2778 68.3701 64.277 68.389 64.277C68.4071 64.277 68.422 64.2778 68.4339 64.2786C68.4465 64.2802 68.4551 64.2825 68.4622 64.2865C68.4685 64.2904 68.4732 64.2943 68.4764 64.2983C68.4787 64.303 68.4803 64.3085 68.4803 64.3148V64.4613C68.5425 64.3912 68.6031 64.34 68.6614 64.3077C68.7197 64.2754 68.7795 64.2597 68.8386 64.2597C68.885 64.2597 68.926 64.2652 68.9622 64.2754C68.9984 64.2865 69.0307 64.3006 69.0583 64.3203C69.0866 64.3392 69.1102 64.3621 69.1291 64.3896C69.1488 64.4156 69.1654 64.4455 69.1787 64.4786C69.2157 64.4384 69.2504 64.4046 69.2835 64.3762C69.3165 64.3479 69.348 64.3258 69.3787 64.3085C69.4094 64.2912 69.4394 64.2786 69.4677 64.2715C69.4976 64.2628 69.526 64.2597 69.5559 64.2597C69.6268 64.2597 69.6858 64.2723 69.7339 64.2967C69.7827 64.3219 69.8213 64.355 69.8512 64.3967C69.8811 64.4384 69.9024 64.4873 69.915 64.5439C69.9276 64.5998 69.9339 64.6589 69.9339 64.7211V65.4187ZM71.1339 65.4203C71.1339 65.4298 71.1299 65.4376 71.1244 65.4424C71.1173 65.4479 71.1087 65.451 71.0968 65.4534C71.0858 65.4558 71.0685 65.4573 71.0465 65.4573C71.026 65.4573 71.0087 65.4558 70.9961 65.4534C70.9835 65.451 70.974 65.4479 70.9685 65.4424C70.9622 65.4376 70.9598 65.4306 70.9598 65.4203V65.3101C70.911 65.3613 70.8575 65.4014 70.7984 65.4298C70.7386 65.4581 70.6764 65.4723 70.6102 65.4723C70.552 65.4723 70.4992 65.4644 70.4528 65.4495C70.4055 65.4345 70.3654 65.4124 70.3323 65.3841C70.2992 65.3558 70.2732 65.3203 70.2551 65.2786C70.2362 65.2369 70.2276 65.1896 70.2276 65.1361C70.2276 65.0739 70.2394 65.0195 70.2654 64.9739C70.2906 64.9282 70.3268 64.8904 70.3748 64.8597C70.422 64.8298 70.4803 64.8069 70.5488 64.792C70.6173 64.777 70.6945 64.7691 70.7803 64.7691H70.9331V64.6833C70.9331 64.6408 70.9283 64.603 70.9189 64.5699C70.9102 64.5376 70.8961 64.5101 70.8756 64.488C70.8559 64.4668 70.8299 64.4502 70.7976 64.4392C70.7661 64.4282 70.7268 64.4227 70.6803 64.4227C70.6307 64.4227 70.5858 64.4282 70.5465 64.4408C70.5071 64.4526 70.4717 64.466 70.4425 64.4802C70.4126 64.4951 70.3874 64.5077 70.3677 64.5203C70.348 64.5321 70.3323 64.5384 70.3228 64.5384C70.3165 64.5384 70.3102 64.5369 70.3055 64.5329C70.3008 64.5306 70.2969 64.525 70.2929 64.5187C70.289 64.5124 70.2866 64.5038 70.285 64.4935C70.2835 64.4833 70.2827 64.4723 70.2827 64.4597C70.2827 64.44 70.2835 64.4235 70.2866 64.4117C70.2898 64.3998 70.2969 64.3888 70.3079 64.3786C70.3181 64.3676 70.3378 64.355 70.3646 64.3408C70.3913 64.3266 70.4228 64.3132 70.4575 64.3006C70.4921 64.2888 70.5307 64.2794 70.5724 64.2715C70.6142 64.2628 70.6567 64.2597 70.6984 64.2597C70.778 64.2597 70.8449 64.2684 70.9008 64.2865C70.9567 64.3046 71.0016 64.3313 71.0354 64.366C71.0701 64.4006 71.0945 64.4439 71.1102 64.4951C71.126 64.5463 71.1339 64.6069 71.1339 64.6754V65.4203ZM70.9331 64.9148H70.7598C70.7047 64.9148 70.6567 64.9195 70.6157 64.929C70.5748 64.9384 70.5409 64.9526 70.5142 64.9707C70.4874 64.9896 70.4677 65.0109 70.4543 65.0369C70.4417 65.0628 70.4354 65.0928 70.4354 65.1258C70.4354 65.1833 70.4535 65.229 70.4898 65.2628C70.5268 65.2967 70.5772 65.314 70.6425 65.314C70.6953 65.314 70.7449 65.3006 70.7898 65.2739C70.8354 65.2471 70.8827 65.2054 70.9331 65.1495V64.9148ZM72.3362 65.4203C72.3362 65.4298 72.3331 65.4376 72.3268 65.4424C72.3205 65.4479 72.311 65.451 72.2992 65.4534C72.2882 65.4558 72.2717 65.4573 72.2496 65.4573C72.2283 65.4573 72.211 65.4558 72.1984 65.4534C72.1858 65.451 72.1772 65.4479 72.1709 65.4424C72.1654 65.4376 72.1622 65.4306 72.1622 65.4203V65.3101C72.1142 65.3613 72.0606 65.4014 72.0016 65.4298C71.9417 65.4581 71.8787 65.4723 71.8126 65.4723C71.7543 65.4723 71.7024 65.4644 71.6551 65.4495C71.6079 65.4345 71.5677 65.4124 71.5346 65.3841C71.5024 65.3558 71.4764 65.3203 71.4575 65.2786C71.4394 65.2369 71.4299 65.1896 71.4299 65.1361C71.4299 65.0739 71.4425 65.0195 71.4677 64.9739C71.4929 64.9282 71.5299 64.8904 71.5772 64.8597C71.6244 64.8298 71.6827 64.8069 71.7512 64.792C71.8197 64.777 71.8976 64.7691 71.9835 64.7691H72.1354V64.6833C72.1354 64.6408 72.1307 64.603 72.122 64.5699C72.1126 64.5376 72.0984 64.5101 72.0787 64.488C72.0583 64.4668 72.0323 64.4502 72.0008 64.4392C71.9685 64.4282 71.9299 64.4227 71.8835 64.4227C71.8331 64.4227 71.7882 64.4282 71.7496 64.4408C71.7094 64.4526 71.6748 64.466 71.6449 64.4802C71.615 64.4951 71.5905 64.5077 71.5701 64.5203C71.5504 64.5321 71.5354 64.5384 71.526 64.5384C71.5189 64.5384 71.5134 64.5369 71.5087 64.5329C71.5039 64.5306 71.4992 64.525 71.4953 64.5187C71.4921 64.5124 71.489 64.5038 71.4874 64.4935C71.4858 64.4833 71.485 64.4723 71.485 64.4597C71.485 64.44 71.4866 64.4235 71.489 64.4117C71.4921 64.3998 71.4992 64.3888 71.5102 64.3786C71.5213 64.3676 71.5402 64.355 71.5669 64.3408C71.5937 64.3266 71.6252 64.3132 71.6606 64.3006C71.6953 64.2888 71.7339 64.2794 71.7756 64.2715C71.8173 64.2628 71.8591 64.2597 71.9016 64.2597C71.9803 64.2597 72.048 64.2684 72.1039 64.2865C72.1591 64.3046 72.2039 64.3313 72.2386 64.366C72.2724 64.4006 72.2976 64.4439 72.3126 64.4951C72.3283 64.5463 72.3362 64.6069 72.3362 64.6754V65.4203ZM72.1354 64.9148H71.963C71.9071 64.9148 71.8591 64.9195 71.8181 64.929C71.778 64.9384 71.7441 64.9526 71.7165 64.9707C71.6898 64.9896 71.6701 65.0109 71.6575 65.0369C71.6449 65.0628 71.6386 65.0928 71.6386 65.1258C71.6386 65.1833 71.6567 65.229 71.6929 65.2628C71.7291 65.2967 71.7795 65.314 71.8457 65.314C71.8984 65.314 71.948 65.3006 71.9929 65.2739C72.0378 65.2471 72.0858 65.2054 72.1354 65.1495V64.9148ZM73.6575 65.4187C73.6575 65.4258 73.6551 65.4313 73.652 65.4361C73.6488 65.44 73.6441 65.4439 73.6362 65.4479C73.6283 65.4502 73.6189 65.4526 73.6055 65.455C73.5921 65.4565 73.5756 65.4573 73.5567 65.4573C73.5354 65.4573 73.5189 65.4565 73.5055 65.455C73.4921 65.4526 73.4819 65.4502 73.4748 65.4479C73.4669 65.4439 73.4622 65.44 73.4591 65.4361C73.4551 65.4313 73.4535 65.4258 73.4535 65.4187V64.7723C73.4535 64.7101 73.4488 64.6589 73.4394 64.6203C73.4291 64.5817 73.415 64.5495 73.3969 64.5211C73.378 64.4935 73.3535 64.4723 73.3244 64.4573C73.2945 64.4432 73.2598 64.4353 73.2213 64.4353C73.1709 64.4353 73.1205 64.4534 73.0701 64.4888C73.0197 64.525 72.9669 64.5778 72.9118 64.6471V65.4187C72.9118 65.4258 72.9095 65.4313 72.9063 65.4361C72.9031 65.44 72.8984 65.4439 72.8906 65.4479C72.8827 65.4502 72.8732 65.4526 72.8598 65.455C72.8465 65.4565 72.8299 65.4573 72.8094 65.4573C72.789 65.4573 72.7732 65.4565 72.7598 65.455C72.7465 65.4526 72.7362 65.4502 72.7283 65.4479C72.7205 65.4439 72.715 65.44 72.7118 65.4361C72.7094 65.4313 72.7079 65.4258 72.7079 65.4187V64.3148C72.7079 64.3085 72.7094 64.303 72.7118 64.2983C72.7142 64.2943 72.7189 64.2904 72.7268 64.2865C72.7339 64.2825 72.7433 64.2802 72.7551 64.2786C72.7661 64.2778 72.7819 64.277 72.8008 64.277C72.8189 64.277 72.8339 64.2778 72.8457 64.2786C72.8575 64.2802 72.8669 64.2825 72.8732 64.2865C72.8795 64.2904 72.885 64.2943 72.8874 64.2983C72.8898 64.303 72.8921 64.3085 72.8921 64.3148V64.4613C72.9535 64.3912 73.015 64.34 73.0772 64.3077C73.1386 64.2754 73.2008 64.2597 73.263 64.2597C73.3362 64.2597 73.3984 64.2723 73.4488 64.2967C73.4992 64.3219 73.5394 64.355 73.5709 64.3967C73.6016 64.4384 73.6236 64.4873 73.637 64.5439C73.6504 64.5998 73.6575 64.6668 73.6575 64.7455V65.4187ZM75.5386 65.4187C75.5386 65.4258 75.5378 65.4313 75.5346 65.4361C75.5315 65.4416 75.5268 65.4447 75.5197 65.4479C75.5126 65.451 75.5039 65.4526 75.4921 65.455C75.4803 65.4565 75.4669 65.4573 75.4504 65.4573C75.4331 65.4573 75.4189 65.4565 75.4079 65.455C75.3961 65.4526 75.3866 65.451 75.3795 65.4479C75.3724 65.4447 75.3669 65.4416 75.363 65.4361C75.3606 65.4313 75.3591 65.425 75.3591 65.4187V65.2723C75.3008 65.3353 75.2402 65.3841 75.178 65.4195C75.115 65.455 75.0472 65.4723 74.9724 65.4723C74.8913 65.4723 74.8228 65.4565 74.7661 65.425C74.7087 65.3935 74.6622 65.351 74.6268 65.2975C74.5913 65.2439 74.5654 65.181 74.5488 65.1085C74.5331 65.0361 74.5244 64.9597 74.5244 64.8802C74.5244 64.7849 74.5346 64.6991 74.5551 64.6235C74.5756 64.5463 74.6055 64.481 74.6457 64.4274C74.6858 64.3731 74.7354 64.3321 74.7945 64.303C74.8535 64.2739 74.922 64.2597 75 64.2597C75.0646 64.2597 75.1228 64.2739 75.1764 64.3014C75.2299 64.3306 75.2827 64.3715 75.3354 64.4266V63.7865C75.3354 63.7809 75.3362 63.7754 75.3394 63.7699C75.3425 63.7644 75.348 63.7605 75.3567 63.7573C75.3646 63.755 75.3748 63.7526 75.3874 63.7502C75.4 63.7479 75.4165 63.7471 75.4354 63.7471C75.4559 63.7471 75.4732 63.7479 75.4858 63.7502C75.4992 63.7526 75.5094 63.755 75.5165 63.7573C75.5244 63.7605 75.5299 63.7644 75.5331 63.7699C75.537 63.7754 75.5386 63.7809 75.5386 63.7865V65.4187ZM75.3354 64.6424C75.2811 64.5739 75.2283 64.5219 75.1772 64.4865C75.126 64.451 75.0732 64.4329 75.0181 64.4329C74.9661 64.4329 74.9228 64.4447 74.8866 64.4699C74.8504 64.4943 74.822 64.5266 74.7992 64.5668C74.7772 64.6061 74.7606 64.6518 74.7504 64.703C74.7402 64.7534 74.7354 64.8046 74.7354 64.8573C74.7354 64.9124 74.7394 64.9676 74.748 65.0203C74.7567 65.0731 74.7717 65.1203 74.7929 65.1621C74.8142 65.2038 74.8417 65.2369 74.8772 65.2621C74.9118 65.2865 74.9559 65.2991 75.0087 65.2991C75.0354 65.2991 75.0614 65.2951 75.0866 65.288C75.1118 65.281 75.137 65.2684 75.163 65.251C75.189 65.2345 75.2165 65.2117 75.2449 65.1841C75.2732 65.1573 75.3039 65.1235 75.3354 65.0833V64.6424ZM76.7449 65.4203C76.7449 65.4298 76.7417 65.4376 76.7354 65.4424C76.7283 65.4479 76.7197 65.451 76.7079 65.4534C76.6968 65.4558 76.6803 65.4573 76.6575 65.4573C76.637 65.4573 76.6197 65.4558 76.6071 65.4534C76.5945 65.451 76.585 65.4479 76.5795 65.4424C76.574 65.4376 76.5709 65.4306 76.5709 65.4203V65.3101C76.5228 65.3613 76.4693 65.4014 76.4095 65.4298C76.3504 65.4581 76.2874 65.4723 76.2213 65.4723C76.163 65.4723 76.1102 65.4644 76.0638 65.4495C76.0165 65.4345 75.9764 65.4124 75.9433 65.3841C75.9102 65.3558 75.8843 65.3203 75.8661 65.2786C75.848 65.2369 75.8386 65.1896 75.8386 65.1361C75.8386 65.0739 75.8512 65.0195 75.8764 64.9739C75.9016 64.9282 75.9378 64.8904 75.9858 64.8597C76.0331 64.8298 76.0913 64.8069 76.1598 64.792C76.2283 64.777 76.3055 64.7691 76.3913 64.7691H76.5441V64.6833C76.5441 64.6408 76.5394 64.603 76.5307 64.5699C76.5213 64.5376 76.5071 64.5101 76.4874 64.488C76.4669 64.4668 76.4409 64.4502 76.4095 64.4392C76.3772 64.4282 76.3378 64.4227 76.2913 64.4227C76.2417 64.4227 76.1968 64.4282 76.1575 64.4408C76.1181 64.4526 76.0835 64.466 76.0535 64.4802C76.0236 64.4951 75.9984 64.5077 75.9787 64.5203C75.9591 64.5321 75.9441 64.5384 75.9346 64.5384C75.9276 64.5384 75.9221 64.5369 75.9173 64.5329C75.9118 64.5306 75.9079 64.525 75.9039 64.5187C75.9 64.5124 75.8976 64.5038 75.8961 64.4935C75.8945 64.4833 75.8937 64.4723 75.8937 64.4597C75.8937 64.44 75.8953 64.4235 75.8976 64.4117C75.9008 64.3998 75.9079 64.3888 75.9189 64.3786C75.9299 64.3676 75.9488 64.355 75.9756 64.3408C76.0024 64.3266 76.0339 64.3132 76.0693 64.3006C76.1039 64.2888 76.1425 64.2794 76.1843 64.2715C76.2252 64.2628 76.2677 64.2597 76.3102 64.2597C76.389 64.2597 76.4567 64.2684 76.5118 64.2865C76.5677 64.3046 76.6126 64.3313 76.6472 64.366C76.6811 64.4006 76.7055 64.4439 76.7213 64.4951C76.737 64.5463 76.7449 64.6069 76.7449 64.6754V65.4203ZM76.5441 64.9148H76.3709C76.3158 64.9148 76.2677 64.9195 76.2268 64.929C76.1858 64.9384 76.152 64.9526 76.1252 64.9707C76.0984 64.9896 76.0787 65.0109 76.0654 65.0369C76.0528 65.0628 76.0472 65.0928 76.0472 65.1258C76.0472 65.1833 76.0646 65.229 76.1016 65.2628C76.1378 65.2967 76.1882 65.314 76.2543 65.314C76.3063 65.314 76.3559 65.3006 76.4016 65.2739C76.4465 65.2471 76.4945 65.2054 76.5441 65.1495V64.9148ZM78.0654 65.4187C78.0654 65.4258 78.0638 65.4313 78.0606 65.4361C78.0575 65.44 78.052 65.4439 78.0449 65.4479C78.037 65.4502 78.0268 65.4526 78.0142 65.455C78.0008 65.4565 77.9843 65.4573 77.9646 65.4573C77.9441 65.4573 77.9268 65.4565 77.9142 65.455C77.9008 65.4526 77.8905 65.4502 77.8835 65.4479C77.8756 65.4439 77.8709 65.44 77.8669 65.4361C77.8638 65.4313 77.8622 65.4258 77.8622 65.4187V64.7723C77.8622 64.7101 77.8575 64.6589 77.848 64.6203C77.8378 64.5817 77.8236 64.5495 77.8047 64.5211C77.7858 64.4935 77.7622 64.4723 77.7323 64.4573C77.7032 64.4432 77.6685 64.4353 77.6299 64.4353C77.5787 64.4353 77.5284 64.4534 77.4787 64.4888C77.4276 64.525 77.3748 64.5778 77.3197 64.6471V65.4187C77.3197 65.4258 77.3181 65.4313 77.315 65.4361C77.3118 65.44 77.3063 65.4439 77.2992 65.4479C77.2913 65.4502 77.2811 65.4526 77.2677 65.455C77.2551 65.4565 77.2386 65.4573 77.2181 65.4573C77.1976 65.4573 77.1811 65.4565 77.1685 65.455C77.1551 65.4526 77.1449 65.4502 77.137 65.4479C77.1291 65.4439 77.1236 65.44 77.1205 65.4361C77.1181 65.4313 77.1165 65.4258 77.1165 65.4187V64.3148C77.1165 64.3085 77.1181 64.303 77.1205 64.2983C77.1228 64.2943 77.1276 64.2904 77.1346 64.2865C77.1425 64.2825 77.152 64.2802 77.1638 64.2786C77.1748 64.2778 77.1906 64.277 77.2087 64.277C77.2268 64.277 77.2417 64.2778 77.2535 64.2786C77.2661 64.2802 77.2748 64.2825 77.2819 64.2865C77.2882 64.2904 77.2929 64.2943 77.2961 64.2983C77.2984 64.303 77.3 64.3085 77.3 64.3148V64.4613C77.3622 64.3912 77.4236 64.34 77.4858 64.3077C77.5472 64.2754 77.6087 64.2597 77.6717 64.2597C77.7449 64.2597 77.8071 64.2723 77.8575 64.2967C77.9071 64.3219 77.948 64.355 77.9787 64.3967C78.0102 64.4384 78.0323 64.4873 78.0457 64.5439C78.0591 64.5998 78.0654 64.6668 78.0654 64.7455V65.4187ZM79.9095 65.418C79.9095 65.4243 79.9079 65.4306 79.9047 65.4353C79.9016 65.44 79.8961 65.4439 79.8882 65.4479C79.8803 65.4502 79.8693 65.4526 79.8559 65.455C79.8417 65.4565 79.8244 65.4573 79.8031 65.4573C79.7811 65.4573 79.763 65.4565 79.748 65.4558C79.7346 65.4542 79.722 65.4518 79.7126 65.4495C79.7024 65.4463 79.6945 65.4424 79.689 65.4369C79.6827 65.4313 79.6772 65.425 79.6717 65.418L79.2063 64.8069V65.4187C79.2063 65.4258 79.2047 65.4313 79.2016 65.4361C79.1984 65.44 79.1929 65.4439 79.1858 65.4479C79.178 65.4502 79.1677 65.4526 79.1543 65.455C79.1417 65.4565 79.1252 65.4573 79.1047 65.4573C79.0843 65.4573 79.0677 65.4565 79.0551 65.455C79.0417 65.4526 79.0315 65.4502 79.0236 65.4479C79.0158 65.4439 79.0102 65.44 79.0071 65.4361C79.0047 65.4313 79.0032 65.4258 79.0032 65.4187V63.7817C79.0032 63.7747 79.0047 63.7691 79.0071 63.7644C79.0102 63.7597 79.0158 63.755 79.0236 63.7518C79.0315 63.7487 79.0417 63.7463 79.0551 63.7447C79.0677 63.7432 79.0843 63.7424 79.1047 63.7424C79.1252 63.7424 79.1417 63.7432 79.1543 63.7447C79.1677 63.7463 79.178 63.7487 79.1858 63.7518C79.1929 63.755 79.1984 63.7597 79.2016 63.7644C79.2047 63.7691 79.2063 63.7747 79.2063 63.7817V64.7786L79.622 64.3203C79.6283 64.3117 79.6362 64.3054 79.6433 64.2998C79.6504 64.2943 79.659 64.2904 79.6693 64.2865C79.6795 64.2825 79.6913 64.2802 79.7055 64.2786C79.7189 64.2778 79.7362 64.277 79.7559 64.277C79.7764 64.277 79.7929 64.2778 79.8071 64.2786C79.8205 64.2802 79.8323 64.2817 79.8402 64.2849C79.8488 64.288 79.8551 64.292 79.8591 64.2959C79.863 64.3006 79.8646 64.3061 79.8646 64.314C79.8646 64.3235 79.8622 64.3337 79.8567 64.3432C79.8512 64.3534 79.8425 64.3644 79.8299 64.3778L79.4323 64.7778L79.8803 65.3597C79.8906 65.3747 79.8984 65.3849 79.9032 65.3943C79.9079 65.403 79.9095 65.4109 79.9095 65.418Z" fill="#0383B0"/>
<path fill-rule="evenodd" clip-rule="evenodd" d="M81.0024 64.8187C81.0024 64.851 80.9945 64.8731 80.9787 64.8872C80.963 64.9006 80.9441 64.9069 80.9244 64.9069H80.1992C80.1992 64.9691 80.2055 65.0243 80.2173 65.0731C80.2299 65.1227 80.2504 65.1644 80.2787 65.1998C80.3079 65.2353 80.3449 65.2621 80.3905 65.281C80.4362 65.2991 80.4929 65.3093 80.5583 65.3093C80.611 65.3093 80.6583 65.3046 80.6984 65.2959C80.7394 65.288 80.7748 65.2778 80.8047 65.2676C80.8346 65.2573 80.8591 65.2479 80.8787 65.2392C80.8976 65.2306 80.9118 65.2258 80.9221 65.2258C80.9276 65.2258 80.9331 65.2274 80.9378 65.2306C80.9417 65.2329 80.9457 65.2376 80.9472 65.2432C80.9496 65.2487 80.952 65.2565 80.9535 65.2668C80.9543 65.277 80.9551 65.2896 80.9551 65.3038C80.9551 65.3148 80.9543 65.3235 80.9535 65.3313C80.9528 65.3392 80.952 65.3463 80.9512 65.3518C80.9496 65.3581 80.9472 65.3636 80.9441 65.3691C80.9417 65.3739 80.9386 65.3778 80.9339 65.3825C80.9291 65.3872 80.9157 65.3943 80.8937 65.4046C80.8717 65.4148 80.8433 65.4243 80.8079 65.4345C80.7732 65.4439 80.7323 65.4526 80.6866 65.4605C80.6402 65.4684 80.5913 65.4723 80.5394 65.4723C80.448 65.4723 80.3693 65.4597 80.3008 65.4345C80.2331 65.4093 80.1756 65.3715 80.1291 65.3219C80.0827 65.2715 80.0472 65.2093 80.0236 65.1337C80 65.0589 79.9882 64.9715 79.9882 64.8715C79.9882 64.777 80 64.6912 80.0252 64.6156C80.0496 64.54 80.085 64.4754 80.1307 64.4235C80.1772 64.3707 80.2331 64.3306 80.2984 64.3014C80.3638 64.2739 80.437 64.2597 80.5173 64.2597C80.6039 64.2597 80.6779 64.2731 80.7386 64.3014C80.8 64.329 80.8496 64.3668 80.889 64.4132C80.9276 64.4605 80.9567 64.5156 80.9748 64.5794C80.9937 64.6424 81.0024 64.7101 81.0024 64.7817V64.8187ZM80.7992 64.7589C80.8016 64.6526 80.7787 64.5691 80.7283 64.5085C80.6787 64.4479 80.6055 64.418 80.5079 64.418C80.4575 64.418 80.4142 64.4266 80.3764 64.4455C80.3386 64.4644 80.3071 64.4896 80.2819 64.5211C80.2559 64.5518 80.2362 64.588 80.2228 64.6298C80.2087 64.6707 80.2008 64.714 80.1992 64.7589H80.7992ZM82.9496 65.4187C82.9496 65.4258 82.948 65.4313 82.9449 65.4361C82.9417 65.44 82.9362 65.4439 82.9291 65.4479C82.922 65.4502 82.9118 65.4526 82.8984 65.455C82.8858 65.4565 82.8693 65.4573 82.8496 65.4573C82.8291 65.4573 82.8126 65.4565 82.7992 65.455C82.7866 65.4526 82.7756 65.4502 82.7677 65.4479C82.7606 65.4439 82.7551 65.44 82.752 65.4361C82.748 65.4313 82.7465 65.4258 82.7465 65.4187V64.7487C82.7465 64.7014 82.7425 64.6589 82.7346 64.6203C82.726 64.5817 82.7134 64.5495 82.6953 64.5211C82.6772 64.4935 82.6543 64.4723 82.6268 64.4573C82.5992 64.4432 82.5669 64.4353 82.5291 64.4353C82.4827 64.4353 82.4354 64.4534 82.389 64.4888C82.3425 64.525 82.2906 64.5778 82.2346 64.6471V65.4187C82.2346 65.4258 82.2323 65.4313 82.2291 65.4361C82.226 65.44 82.2205 65.4439 82.2126 65.4479C82.2047 65.4502 82.1945 65.4526 82.1811 65.455C82.1685 65.4565 82.152 65.4573 82.1323 65.4573C82.1126 65.4573 82.0968 65.4565 82.0835 65.455C82.0701 65.4526 82.0591 65.4502 82.0512 65.4479C82.0433 65.4439 82.0378 65.44 82.0354 65.4361C82.0323 65.4313 82.0307 65.4258 82.0307 65.4187V64.7487C82.0307 64.7014 82.026 64.6589 82.0173 64.6203C82.0087 64.5817 81.9953 64.5495 81.9772 64.5211C81.9591 64.4935 81.9362 64.4723 81.9094 64.4573C81.8819 64.4432 81.8496 64.4353 81.8118 64.4353C81.7654 64.4353 81.7181 64.4534 81.6709 64.4888C81.6236 64.525 81.5716 64.5778 81.5165 64.6471V65.4187C81.5165 65.4258 81.5142 65.4313 81.511 65.4361C81.5079 65.44 81.5031 65.4439 81.4953 65.4479C81.4874 65.4502 81.478 65.4526 81.4646 65.455C81.4512 65.4565 81.4346 65.4573 81.4142 65.4573C81.3937 65.4573 81.378 65.4565 81.3646 65.455C81.3512 65.4526 81.3409 65.4502 81.3331 65.4479C81.3252 65.4439 81.3197 65.44 81.3165 65.4361C81.3142 65.4313 81.3126 65.4258 81.3126 65.4187V64.3148C81.3126 64.3085 81.3142 64.303 81.3165 64.2983C81.3189 64.2943 81.3236 64.2904 81.3315 64.2865C81.3386 64.2825 81.348 64.2802 81.3598 64.2786C81.3709 64.2778 81.3866 64.277 81.4055 64.277C81.4228 64.277 81.4386 64.2778 81.4496 64.2786C81.4622 64.2802 81.4716 64.2825 81.478 64.2865C81.4843 64.2904 81.4898 64.2943 81.4921 64.2983C81.4945 64.303 81.4968 64.3085 81.4968 64.3148V64.4613C81.5583 64.3912 81.6189 64.34 81.6779 64.3077C81.7362 64.2754 81.7953 64.2597 81.8551 64.2597C81.9008 64.2597 81.9417 64.2652 81.978 64.2754C82.0142 64.2865 82.0465 64.3006 82.0748 64.3203C82.1024 64.3392 82.126 64.3621 82.1457 64.3896C82.1654 64.4156 82.1819 64.4455 82.1953 64.4786C82.2315 64.4384 82.2661 64.4046 82.3 64.3762C82.3323 64.3479 82.3646 64.3258 82.3953 64.3085C82.4252 64.2912 82.4551 64.2786 82.4842 64.2715C82.5134 64.2628 82.5425 64.2597 82.5717 64.2597C82.6425 64.2597 82.7024 64.2723 82.7504 64.2967C82.7984 64.3219 82.837 64.355 82.8677 64.3967C82.8969 64.4384 82.9181 64.4872 82.9307 64.5439C82.9433 64.5998 82.9496 64.6589 82.9496 64.7211V65.4187ZM83.522 65.4187C83.522 65.4258 83.5205 65.4313 83.5165 65.4361C83.5134 65.44 83.5087 65.4439 83.5008 65.4479C83.4937 65.4502 83.4835 65.4526 83.4701 65.455C83.4575 65.4565 83.4402 65.4573 83.4197 65.4573C83.4 65.4573 83.3835 65.4565 83.3701 65.455C83.3567 65.4526 83.3465 65.4502 83.3394 65.4479C83.3315 65.4439 83.326 65.44 83.3228 65.4361C83.3197 65.4313 83.3189 65.4258 83.3189 65.4187V64.3148C83.3189 64.3093 83.3197 64.3038 83.3228 64.2991C83.326 64.2943 83.3315 64.2904 83.3394 64.2865C83.3465 64.2833 83.3567 64.281 83.3701 64.2794C83.3835 64.2778 83.4 64.277 83.4197 64.277C83.4402 64.277 83.4575 64.2778 83.4701 64.2794C83.4835 64.281 83.4937 64.2833 83.5008 64.2865C83.5087 64.2904 83.5134 64.2943 83.5165 64.2991C83.5205 64.3038 83.522 64.3093 83.522 64.3148V65.4187ZM83.5449 63.9432C83.5449 63.9904 83.5354 64.0227 83.5173 64.04C83.4992 64.0573 83.4661 64.066 83.4173 64.066C83.3701 64.066 83.3378 64.0573 83.3197 64.0408C83.3024 64.0243 83.2937 63.9928 83.2937 63.9455C83.2937 63.8983 83.3024 63.8652 83.3205 63.8487C83.3386 63.8313 83.3717 63.8227 83.4205 63.8227C83.4677 63.8227 83.5008 63.8306 83.5181 63.8479C83.5354 63.8644 83.5449 63.8959 83.5449 63.9432ZM84.4677 65.3369C84.4677 65.3613 84.4654 65.3802 84.4622 65.3935C84.4591 65.4077 84.4543 65.418 84.448 65.4243C84.4417 65.4306 84.4315 65.4369 84.4181 65.4424C84.4055 65.4487 84.3905 65.4526 84.374 65.4565C84.3567 65.4605 84.3394 65.4636 84.3205 65.466C84.3016 65.4683 84.2835 65.4699 84.2646 65.4699C84.2071 65.4699 84.1583 65.4621 84.1173 65.4471C84.0772 65.4321 84.0433 65.4093 84.0173 65.3786C83.9913 65.3479 83.9724 65.3093 83.9598 65.2621C83.9488 65.2156 83.9425 65.1597 83.9425 65.0967V64.4526H83.7874C83.7756 64.4526 83.7654 64.4463 83.7575 64.4329C83.7504 64.4203 83.7465 64.3991 83.7465 64.3691C83.7465 64.3534 83.748 64.3408 83.7496 64.3306C83.752 64.3195 83.7543 64.3101 83.7575 64.3038C83.7606 64.2967 83.7654 64.292 83.7709 64.2888C83.7764 64.2857 83.7819 64.2849 83.7882 64.2849H83.9425V64.0227C83.9425 64.0164 83.9441 64.0117 83.9465 64.0069C83.9496 64.0014 83.9551 63.9975 83.963 63.9935C83.9709 63.9896 83.9811 63.9872 83.9945 63.9857C84.0071 63.9841 84.0236 63.9833 84.0441 63.9833C84.0646 63.9833 84.0811 63.9841 84.0945 63.9857C84.1079 63.9872 84.1173 63.9896 84.1252 63.9935C84.1323 63.9975 84.1378 64.0014 84.1409 64.0069C84.1441 64.0117 84.1457 64.0164 84.1457 64.0227V64.2849H84.4276C84.4339 64.2849 84.4394 64.2857 84.4441 64.2888C84.4488 64.292 84.4535 64.2967 84.4567 64.3038C84.4606 64.3101 84.463 64.3195 84.4646 64.3306C84.4669 64.3408 84.4677 64.3534 84.4677 64.3691C84.4677 64.3991 84.4638 64.4203 84.4567 64.4329C84.4488 64.4463 84.4394 64.4526 84.4276 64.4526H84.1457V65.0668C84.1457 65.1424 84.1575 65.1998 84.1795 65.2384C84.2016 65.277 84.2417 65.2967 84.2992 65.2967C84.3181 65.2967 84.3346 65.2951 84.3496 65.2912C84.3638 65.2872 84.3772 65.2833 84.3882 65.2794C84.3992 65.2754 84.4094 65.2715 84.4173 65.2676C84.4252 65.2636 84.4331 65.2621 84.4394 65.2621C84.4433 65.2621 84.4472 65.2628 84.4512 65.2652C84.4543 65.2668 84.4575 65.2707 84.4591 65.277C84.4614 65.2825 84.463 65.2904 84.4646 65.3006C84.4669 65.3101 84.4677 65.3227 84.4677 65.3369ZM85.3811 64.3865C85.3811 64.4046 85.3811 64.4195 85.3803 64.4321C85.3795 64.4439 85.378 64.4534 85.3748 64.4605C85.3732 64.4676 85.3693 64.4731 85.3661 64.477C85.3622 64.4802 85.3575 64.4817 85.3512 64.4817C85.3441 64.4817 85.3362 64.4802 85.3268 64.477C85.3173 64.4731 85.3071 64.4691 85.2953 64.466C85.2835 64.4621 85.2701 64.4589 85.2551 64.455C85.2409 64.4518 85.2252 64.4502 85.2079 64.4502C85.1874 64.4502 85.1669 64.4542 85.1472 64.4621C85.1283 64.4707 85.1071 64.4841 85.0858 64.5038C85.0638 64.5227 85.0417 64.5471 85.0181 64.5786C84.9945 64.6101 84.9677 64.6479 84.9394 64.6928V65.4187C84.9394 65.4258 84.9378 65.4313 84.9346 65.4361C84.9307 65.44 84.926 65.4439 84.9181 65.4479C84.911 65.4502 84.9008 65.4526 84.8874 65.455C84.8748 65.4565 84.8575 65.4573 84.837 65.4573C84.8173 65.4573 84.8008 65.4565 84.7882 65.455C84.7748 65.4526 84.7638 65.4502 84.7567 65.4479C84.7488 65.4439 84.7433 65.44 84.7402 65.4361C84.737 65.4313 84.7362 65.4258 84.7362 65.4187V64.3148C84.7362 64.3085 84.737 64.303 84.7402 64.2983C84.7425 64.2943 84.7472 64.2904 84.7543 64.2865C84.7622 64.2825 84.7709 64.2802 84.7827 64.2786C84.7945 64.2778 84.8094 64.277 84.8283 64.277C84.8465 64.277 84.8614 64.2778 84.8732 64.2786C84.885 64.2802 84.8945 64.2825 84.9016 64.2865C84.9079 64.2904 84.9126 64.2943 84.9157 64.2983C84.9181 64.303 84.9197 64.3085 84.9197 64.3148V64.4754C84.9496 64.4313 84.978 64.3951 85.0047 64.3676C85.0315 64.34 85.0567 64.318 85.0803 64.3014C85.1039 64.2857 85.1276 64.2747 85.1504 64.2684C85.174 64.2621 85.1969 64.2597 85.2213 64.2597C85.2315 64.2597 85.2433 64.2597 85.2567 64.2613C85.2709 64.2621 85.2842 64.2652 85.2992 64.2676C85.3142 64.2715 85.3276 64.2747 85.3394 64.2794C85.3512 64.2833 85.3591 64.2872 85.3646 64.2912C85.3693 64.2951 85.3724 64.2991 85.374 64.303C85.3756 64.3069 85.3772 64.3117 85.3787 64.3172C85.3795 64.3227 85.3803 64.3313 85.3811 64.3416C85.3811 64.3534 85.3811 64.3676 85.3811 64.3865ZM86.3913 65.4203C86.3913 65.4298 86.3882 65.4376 86.3819 65.4424C86.3748 65.4479 86.3661 65.451 86.3543 65.4534C86.3433 65.4558 86.326 65.4573 86.3039 65.4573C86.2835 65.4573 86.2661 65.4558 86.2535 65.4534C86.2409 65.451 86.2315 65.4479 86.226 65.4424C86.2197 65.4376 86.2173 65.4306 86.2173 65.4203V65.3101C86.1693 65.3613 86.1158 65.4014 86.0559 65.4298C85.9969 65.4581 85.9339 65.4723 85.8677 65.4723C85.8094 65.4723 85.7567 65.4644 85.7102 65.4495C85.663 65.4345 85.6228 65.4124 85.5898 65.3841C85.5567 65.3558 85.5307 65.3203 85.5126 65.2786C85.4937 65.2369 85.485 65.1896 85.485 65.1361C85.485 65.0739 85.4976 65.0195 85.5228 64.9739C85.548 64.9282 85.5843 64.8904 85.6323 64.8597C85.6795 64.8298 85.7378 64.8069 85.8063 64.792C85.8748 64.777 85.952 64.7691 86.0378 64.7691H86.1906V64.6833C86.1906 64.6408 86.1858 64.603 86.1772 64.5699C86.1677 64.5376 86.1535 64.5101 86.1331 64.488C86.1134 64.4668 86.0874 64.4502 86.0559 64.4392C86.0236 64.4282 85.9843 64.4227 85.9378 64.4227C85.8882 64.4227 85.8433 64.4282 85.8039 64.4408C85.7646 64.4526 85.7291 64.466 85.7 64.4802C85.6701 64.4951 85.6449 64.5077 85.6252 64.5203C85.6055 64.5321 85.5906 64.5384 85.5803 64.5384C85.574 64.5384 85.5677 64.5369 85.5638 64.5329C85.5583 64.5306 85.5543 64.525 85.5504 64.5187C85.5465 64.5124 85.5441 64.5038 85.5425 64.4935C85.5409 64.4833 85.5402 64.4723 85.5402 64.4597C85.5402 64.44 85.5409 64.4235 85.5441 64.4117C85.5472 64.3998 85.5543 64.3888 85.5654 64.3786C85.5756 64.3676 85.5953 64.355 85.622 64.3408C85.6488 64.3266 85.6803 64.3132 85.715 64.3006C85.7504 64.2888 85.7882 64.2794 85.8307 64.2715C85.8717 64.2628 85.9142 64.2597 85.9559 64.2597C86.0354 64.2597 86.1031 64.2684 86.1583 64.2865C86.2142 64.3046 86.259 64.3313 86.2929 64.366C86.3276 64.4006 86.352 64.4439 86.3677 64.4951C86.3835 64.5463 86.3913 64.6069 86.3913 64.6754V65.4203ZM86.1906 64.9148H86.0173C85.9622 64.9148 85.9142 64.9195 85.8732 64.929C85.8323 64.9384 85.7984 64.9526 85.7717 64.9707C85.7449 64.9896 85.7252 65.0109 85.7118 65.0369C85.6992 65.0628 85.6929 65.0928 85.6929 65.1258C85.6929 65.1833 85.711 65.229 85.7472 65.2628C85.7842 65.2967 85.8346 65.314 85.9 65.314C85.9528 65.314 86.0024 65.3006 86.0472 65.2739C86.0929 65.2471 86.1402 65.2054 86.1906 65.1495V64.9148ZM87.5937 65.4203C87.5937 65.4298 87.5906 65.4376 87.5843 65.4424C87.5779 65.4479 87.5685 65.451 87.5567 65.4534C87.5457 65.4558 87.5291 65.4573 87.5071 65.4573C87.4858 65.4573 87.4685 65.4558 87.4559 65.4534C87.4441 65.451 87.4346 65.4479 87.4283 65.4424C87.4228 65.4376 87.4197 65.4306 87.4197 65.4203V65.3101C87.3717 65.3613 87.3181 65.4014 87.2591 65.4298C87.1992 65.4581 87.1362 65.4723 87.0701 65.4723C87.0126 65.4723 86.9598 65.4644 86.9126 65.4495C86.8661 65.4345 86.8252 65.4124 86.7929 65.3841C86.7598 65.3558 86.7339 65.3203 86.715 65.2786C86.6968 65.2369 86.6874 65.1896 86.6874 65.1361C86.6874 65.0739 86.7 65.0195 86.7252 64.9739C86.7504 64.9282 86.7874 64.8904 86.8346 64.8597C86.8819 64.8298 86.9402 64.8069 87.0087 64.792C87.0772 64.777 87.1551 64.7691 87.2409 64.7691H87.3929V64.6833C87.3929 64.6408 87.3882 64.603 87.3795 64.5699C87.3701 64.5376 87.3559 64.5101 87.3362 64.488C87.3158 64.4668 87.2905 64.4502 87.2583 64.4392C87.2268 64.4282 87.1874 64.4227 87.1409 64.4227C87.0906 64.4227 87.0464 64.4282 87.0071 64.4408C86.9669 64.4526 86.9323 64.466 86.9024 64.4802C86.8732 64.4951 86.848 64.5077 86.8276 64.5203C86.8079 64.5321 86.7929 64.5384 86.7835 64.5384C86.7764 64.5384 86.7709 64.5369 86.7661 64.5329C86.7614 64.5306 86.7567 64.525 86.7528 64.5187C86.7496 64.5124 86.7472 64.5038 86.7449 64.4935C86.7433 64.4833 86.7425 64.4723 86.7425 64.4597C86.7425 64.44 86.7441 64.4235 86.7472 64.4117C86.7496 64.3998 86.7567 64.3888 86.7677 64.3786C86.7787 64.3676 86.7976 64.355 86.8244 64.3408C86.8512 64.3266 86.8827 64.3132 86.9181 64.3006C86.9528 64.2888 86.9913 64.2794 87.0331 64.2715C87.0748 64.2628 87.1165 64.2597 87.159 64.2597C87.2386 64.2597 87.3055 64.2684 87.3614 64.2865C87.4165 64.3046 87.4614 64.3313 87.4961 64.366C87.5299 64.4006 87.5551 64.4439 87.5709 64.4951C87.5858 64.5463 87.5937 64.6069 87.5937 64.6754V65.4203ZM87.3929 64.9148H87.2205C87.1654 64.9148 87.1165 64.9195 87.0756 64.929C87.0354 64.9384 87.0016 64.9526 86.974 64.9707C86.9472 64.9896 86.9276 65.0109 86.915 65.0369C86.9024 65.0628 86.8961 65.0928 86.8961 65.1258C86.8961 65.1833 86.9142 65.229 86.9504 65.2628C86.9866 65.2967 87.037 65.314 87.1031 65.314C87.1559 65.314 87.2055 65.3006 87.2504 65.2739C87.2953 65.2471 87.3433 65.2054 87.3929 65.1495V64.9148ZM88.915 65.4187C88.915 65.4258 88.9134 65.4313 88.9094 65.4361C88.9063 65.44 88.9016 65.4439 88.8937 65.4479C88.8866 65.4502 88.8764 65.4526 88.863 65.455C88.8496 65.4565 88.8339 65.4573 88.8142 65.4573C88.7929 65.4573 88.7764 65.4565 88.763 65.455C88.7496 65.4526 88.7402 65.4502 88.7323 65.4479C88.7244 65.4439 88.7197 65.44 88.7165 65.4361C88.7134 65.4313 88.711 65.4258 88.711 65.4187V64.7723C88.711 64.7101 88.7063 64.6589 88.6968 64.6203C88.6874 64.5817 88.6732 64.5495 88.6543 64.5211C88.6354 64.4935 88.611 64.4723 88.5819 64.4573C88.552 64.4432 88.5173 64.4353 88.4787 64.4353C88.4283 64.4353 88.378 64.4534 88.3276 64.4888C88.2772 64.525 88.2244 64.5778 88.1693 64.6471V65.4187C88.1693 65.4258 88.1669 65.4313 88.1638 65.4361C88.1606 65.44 88.1559 65.4439 88.148 65.4479C88.1402 65.4502 88.1307 65.4526 88.1173 65.455C88.1039 65.4565 88.0874 65.4573 88.0669 65.4573C88.0465 65.4573 88.0307 65.4565 88.0173 65.455C88.0039 65.4526 87.9937 65.4502 87.9858 65.4479C87.978 65.4439 87.9724 65.44 87.9701 65.4361C87.9669 65.4313 87.9654 65.4258 87.9654 65.4187V64.3148C87.9654 64.3085 87.9669 64.303 87.9693 64.2983C87.9717 64.2943 87.9764 64.2904 87.9843 64.2865C87.9913 64.2825 88.0008 64.2802 88.0126 64.2786C88.0236 64.2778 88.0394 64.277 88.0583 64.277C88.0764 64.277 88.0913 64.2778 88.1031 64.2786C88.115 64.2802 88.1244 64.2825 88.1307 64.2865C88.137 64.2904 88.1425 64.2943 88.1449 64.2983C88.148 64.303 88.1496 64.3085 88.1496 64.3148V64.4613C88.211 64.3912 88.2724 64.34 88.3346 64.3077C88.3961 64.2754 88.4583 64.2597 88.5213 64.2597C88.5945 64.2597 88.6559 64.2723 88.7063 64.2967C88.7567 64.3219 88.7969 64.355 88.8283 64.3967C88.8591 64.4384 88.8811 64.4872 88.8945 64.5439C88.9079 64.5998 88.915 64.6668 88.915 64.7455V65.4187Z" fill="#0383B0"/>
<path fill-rule="evenodd" clip-rule="evenodd" d="M53.189 47.2699C54.0984 48.1156 54.4252 49.4644 54.3598 51.1258C50.826 55.9093 46.8118 59.7652 42.3165 62.6951C44.2787 59.7872 45.7 57.0471 46.5795 54.4747L46.6299 58.0439C48.3032 55.8676 49.4079 53.3077 49.9449 50.3652C50.2732 51.9014 50.4425 53.277 50.4528 54.492C52.3614 51.9857 53.3583 49.8959 53.0913 48.318C52.9205 47.3093 52.274 47.125 51.6488 47.8195C51.5732 47.9038 51.6465 48.0778 51.6874 47.988C51.774 47.7983 51.9417 47.8581 52.1016 48.0306C52.4693 48.4274 52.3008 49.1479 51.4126 49.0455C50.8055 48.9754 50.663 48.177 51.0323 47.7723C51.6748 47.0684 52.6016 46.7235 53.189 47.2699Z" fill="#0383B0"/>
<path fill-rule="evenodd" clip-rule="evenodd" d="M55.3709 51.6077C51.311 56.4644 46.4614 60.7369 40.8205 64.425C43.3559 63.5621 45.7693 62.6951 48.1102 61.9809C48.889 61.7432 49.2315 61.9613 49.0953 62.4754C48.9953 62.3739 48.863 62.3439 48.6976 62.3825C48.1591 62.5077 48.0283 63.1369 48.6299 63.5321C49.1354 63.8644 49.7921 63.1093 49.8228 62.518C49.8575 61.8526 48.9756 61.3621 46.9984 61.029C49.2906 60.1447 52.0535 58.6061 55.2858 56.4117C54.0331 56.7353 52.7362 56.8652 51.3961 56.8006C55.4315 55.0715 58.515 52.8668 60.648 50.1872C59.1992 51.2187 57.4402 51.692 55.3709 51.6077Z" fill="#F4C60A"/>
</g>
<rect x="1" y="1" width="110" height="110" rx="9" stroke="#CCCCCC" stroke-width="2"/>
<defs>
<clipPath id="clip0_528_598">
<rect x="2" y="2" width="108" height="108" rx="8" fill="white"/>
</clipPath>
</defs>
</svg>
