<svg width="112" height="112" viewBox="0 0 112 112" fill="none" xmlns="http://www.w3.org/2000/svg">
<g clip-path="url(#clip0_421_537)">
<rect x="2" y="2" width="108" height="108" rx="8" fill="white"/>
<g clip-path="url(#clip1_421_537)">
<path d="M56.0001 28.8433C41.0034 28.8433 28.8434 41.0033 28.8434 55.9999C28.8434 70.9966 41.0034 83.1566 56.0001 83.1566C70.9967 83.1566 83.1567 70.9966 83.1567 55.9999C83.1567 41.0033 70.9967 28.8433 56.0001 28.8433Z" fill="white"/>
<path d="M37.1666 75.4199C37.7633 74.9699 38.2933 74.4399 38.8633 73.9566C38.9666 73.8733 39.0633 73.7833 39.1833 73.6799C39.24 73.8566 39.2866 73.9999 39.33 74.1466C39.6133 75.0766 40.21 75.7233 41.1266 76.0766C41.5033 76.2233 41.88 76.3699 42.2666 76.4966C43.8966 77.0233 45.12 78.0366 45.95 79.5199C46.03 79.6633 46.0933 79.7266 46.28 79.6733C47.99 79.1966 49.64 79.3999 51.2366 80.1466C51.7533 80.3866 52.27 80.6266 52.8166 80.8066C53.6366 81.0833 54.3966 80.9666 55.1 80.4699C55.2433 80.3699 55.3833 80.2633 55.58 80.1199C55.5933 81.1133 55.61 82.0633 55.6233 83.0099C55.62 83.1666 55.5866 83.2566 55.3866 83.2433C54.41 83.1899 53.4366 83.1499 52.4633 83.0299C50.3866 82.7766 48.3766 82.2799 46.4266 81.5333C43.39 80.3766 40.67 78.6966 38.2066 76.6033C37.8666 76.3166 37.5366 76.0133 37.1966 75.7266C37.0766 75.6266 37.0566 75.5333 37.1666 75.4199Z" fill="black"/>
<path d="M36.4533 37.2266C37.07 37.8966 37.6867 38.5666 38.33 39.2666C38.1733 39.32 38.0433 39.3666 37.9133 39.4033C36.92 39.69 36.2533 40.32 35.8933 41.2733C35.7433 41.6666 35.5967 42.0633 35.4633 42.4633C34.9467 44.0166 33.9567 45.18 32.5333 45.9866C32.3367 46.0966 32.2867 46.1933 32.35 46.4166C32.82 48.0666 32.6267 49.6633 31.9167 51.2133C31.7133 51.6533 31.52 52.0966 31.3367 52.5433C30.9267 53.54 31.05 54.4633 31.7533 55.2933C31.8133 55.3633 31.87 55.4366 31.9667 55.56C30.91 55.58 29.8967 55.6 28.8867 55.6166C28.7667 55.55 28.81 55.4366 28.81 55.34C28.86 51.0333 29.89 46.98 31.9933 43.2C32.5233 42.25 33.1133 41.34 33.7333 40.45C34.15 39.85 34.5867 39.27 35.05 38.7066C35.4233 38.26 35.8067 37.82 36.2067 37.3966C36.2767 37.3233 36.33 37.2233 36.4533 37.2266Z" fill="black"/>
<path d="M28.8933 56.55C29.8167 56.6034 30.74 56.6567 31.6967 56.71C31.6167 56.8634 31.55 57 31.48 57.1334C31.02 57.9867 30.9767 58.8634 31.37 59.7534C31.5467 60.1467 31.7267 60.5434 31.9233 60.93C32.68 62.4167 32.81 63.9634 32.36 65.5567C32.3067 65.7367 32.3233 65.83 32.5 65.9267C34.0233 66.7634 35.0367 68.0301 35.64 69.6367C35.78 70.0134 35.94 70.3834 36.0767 70.76C36.5267 71.99 37.3867 72.6634 38.7867 72.6834C38.0633 73.4334 37.38 74.1434 36.6933 74.85C36.5267 74.9867 36.4533 74.83 36.37 74.7434C34.98 73.32 33.7533 71.7734 32.7167 70.0801C30.92 67.1401 29.7967 63.9634 29.2333 60.5767C29.0233 59.3134 28.92 58.0434 28.8233 56.77C28.8167 56.6867 28.8033 56.6 28.8933 56.55Z" fill="black"/>
<path d="M83.2767 55.5766C82.3433 55.5266 81.41 55.4733 80.4433 55.4199C80.5367 55.2466 80.6167 55.1033 80.69 54.9599C81.1267 54.1199 81.17 53.2633 80.7867 52.3933C80.6033 51.9766 80.4133 51.5666 80.21 51.1599C79.4767 49.6833 79.3533 48.1566 79.8033 46.5799C79.85 46.4133 79.8567 46.3066 79.6733 46.2066C78.1267 45.3566 77.11 44.0633 76.51 42.4333C76.3567 42.0166 76.1833 41.6066 76.02 41.1966C75.62 40.1699 74.8833 39.5666 73.7633 39.4533C73.66 39.4433 73.56 39.4266 73.4567 39.4133C73.4433 39.3066 73.5333 39.2699 73.5867 39.2166C74.2 38.5966 74.8233 37.9833 75.43 37.3566C75.57 37.2166 75.64 37.2066 75.7833 37.3566C76.96 38.5633 78.0167 39.8666 78.9533 41.2633C79.0067 41.3399 79.02 41.4566 79.1433 41.4766L79.1367 41.4699C79.1833 41.6899 79.3367 41.8533 79.4567 42.0333L79.4533 42.0266C79.5167 42.1333 79.58 42.2399 79.6467 42.3433L79.64 42.3366C79.65 42.3733 79.65 42.4166 79.71 42.4066L79.7033 42.3966C79.6933 42.4566 79.7033 42.5099 79.7667 42.5366C80.2 43.2166 80.5333 43.9499 80.8733 44.6699C81.3467 45.6799 81.7133 46.7333 82.0467 47.7966C82.0767 47.8899 82.1867 47.9566 82.1433 48.0733C82.0767 48.1766 82.17 48.2299 82.2167 48.2966L82.21 48.2899C82.2367 48.4166 82.2467 48.5499 82.2933 48.6733C82.43 49.0499 82.4333 49.4633 82.6333 49.8199C82.63 50.2133 82.7233 50.6033 82.8267 50.9733C82.91 51.2633 82.8933 51.5466 82.9367 51.8299C83.1133 53.0733 83.2833 54.3166 83.2767 55.5766Z" fill="black"/>
<path d="M75.4933 74.6735C74.92 74.0335 74.35 73.3968 73.7533 72.7334C73.8733 72.6934 73.9666 72.6601 74.06 72.6334C75.0966 72.3468 75.8133 71.7168 76.1766 70.7068C76.3166 70.3068 76.47 69.9134 76.6033 69.5134C77.1133 67.9834 78.0866 66.8268 79.4866 66.0301C79.7266 65.8934 79.7566 65.7701 79.6866 65.5201C79.22 63.8701 79.4333 62.2768 80.1433 60.7301C80.3733 60.2335 80.5866 59.7301 80.7766 59.2168C81.0866 58.3668 80.9433 57.5735 80.3933 56.8501C80.3 56.7301 80.2033 56.6068 80.0666 56.4335C81.1166 56.4101 82.12 56.3901 83.12 56.3701C83.2233 56.4335 83.1933 56.5335 83.1966 56.6235C83.22 58.1435 83.07 59.6501 82.7966 61.1434C82.33 63.7068 81.4733 66.1435 80.2533 68.4501C79.1533 70.5268 77.8066 72.4301 76.25 74.1968C76.1133 74.3501 75.9666 74.4968 75.8433 74.6635C75.72 74.8301 75.6133 74.7935 75.4933 74.6735Z" fill="black"/>
<path d="M56.49 31.96C56.49 30.9434 56.4934 29.9834 56.4867 29.0267C56.4867 28.8334 56.5934 28.8434 56.73 28.8467C60.0134 28.9267 63.18 29.5534 66.2167 30.8067C69.4567 32.15 72.3034 34.08 74.8667 36.44C74.95 36.5167 75.0567 36.5667 74.9067 36.6967C74.2434 37.2634 73.5867 37.84 72.93 38.41C72.9167 38.4234 72.89 38.4167 72.83 38.4267C72.5934 36.9 71.53 36.18 70.1467 35.7534C69.19 35.46 68.2834 35.0467 67.5267 34.36C66.9567 33.8467 66.5 33.25 66.1267 32.5867C66.05 32.45 65.98 32.39 65.8134 32.4367C64.0767 32.92 62.4134 32.6934 60.8 31.93C60.2567 31.67 59.7134 31.4134 59.1334 31.24C58.3934 31.02 57.71 31.1367 57.0734 31.55C56.8934 31.6667 56.72 31.8 56.49 31.96Z" fill="black"/>
<path d="M39.1133 38.8C38.3933 38.1167 37.6767 37.44 36.96 36.7667C36.8067 36.6234 36.97 36.57 37.0333 36.5067C37.7467 35.79 38.5 35.12 39.29 34.4934C42.8733 31.6534 46.9567 29.92 51.47 29.1567C52.6533 28.9534 53.8433 28.82 55.04 28.74C55.2467 28.7267 55.3033 28.7767 55.2933 28.9834C55.2533 29.77 55.23 30.5534 55.2067 31.34C55.2033 31.5334 55.1633 31.5767 54.9833 31.47C53.93 30.8534 52.8733 30.8767 51.7967 31.4234C51.02 31.82 50.2467 32.2334 49.3867 32.4334C48.3267 32.6834 47.2733 32.61 46.23 32.35C46.07 32.31 45.9967 32.3234 45.9167 32.4734C45.0767 34.03 43.7867 35.0667 42.14 35.6934C41.6433 35.8834 41.1533 36.0867 40.6733 36.31C39.76 36.7267 39.2767 37.45 39.1933 38.44C39.1833 38.5334 39.17 38.6234 39.1567 38.7167C39.1533 38.7367 39.1367 38.7534 39.1133 38.8Z" fill="black"/>
<path d="M74.97 75.22C74.2533 74.5567 73.5333 73.89 72.7933 73.2034C72.7866 73.29 72.78 73.34 72.7766 73.39C72.7066 74.5867 72.11 75.4 70.9866 75.84C70.5633 76.0067 70.14 76.1867 69.7133 76.35C68.1666 76.9467 66.9266 77.91 66.11 79.36C65.9566 79.63 65.83 79.6967 65.5166 79.6167C64.0666 79.2434 62.6466 79.35 61.2833 80C60.8166 80.2234 60.35 80.45 59.88 80.6667C58.9366 81.1034 58.0066 81.0767 57.0866 80.5867C56.9833 80.5334 56.89 80.4367 56.73 80.4434C56.6933 81.27 56.6533 82.0934 56.6133 82.9167C56.57 83.2 56.7033 83.26 56.9666 83.2434C58.06 83.1667 59.1433 83.0434 60.2233 82.8734C63.5533 82.35 66.69 81.29 69.6033 79.6C71.54 78.4767 73.2966 77.1234 74.88 75.55C74.9733 75.46 75.11 75.3767 74.97 75.22Z" fill="black"/>
<path d="M56 16C33.9433 16 16 33.9433 16 56C16 78.0567 33.9433 96 56 96C78.0567 96 96 78.0567 96 56C96 33.9433 78.0567 16 56 16ZM56 94.52C34.7267 94.52 17.48 77.2733 17.48 56C17.48 34.7267 34.7267 17.48 56 17.48C77.2733 17.48 94.52 34.7267 94.52 56C94.52 77.2733 77.2733 94.52 56 94.52Z" fill="black"/>
<path d="M56 17.48C34.7266 17.48 17.48 34.7266 17.48 56C17.48 77.2733 34.7266 94.52 56 94.52C77.2733 94.52 94.52 77.2733 94.52 56C94.52 34.7266 77.2733 17.48 56 17.48ZM56 83.1566C41.0033 83.1566 28.8433 70.9966 28.8433 56C28.8433 41.0033 41.0033 28.8433 56 28.8433C70.9966 28.8433 83.1566 41.0033 83.1566 56C83.1566 70.9966 70.9966 83.1566 56 83.1566Z" fill="#019966"/>
<path d="M86.33 54.5566C86.8866 54.5899 87.3766 54.7732 87.8833 54.8899C87.98 54.9099 88.1033 54.9966 88.16 54.8766C88.23 54.7232 88.0566 54.6932 87.97 54.6432C87.5766 54.4299 87.1933 54.1966 86.8233 53.9432C86.5966 53.7866 86.41 53.5966 86.3266 53.3199C86.27 53.1366 86.32 52.9832 86.4466 52.8666C86.5666 52.7566 86.7133 52.7199 86.8833 52.7832C87.3 52.9432 87.51 53.3099 87.7433 53.6532C87.91 53.9032 88.05 54.1732 88.2066 54.4299C88.2566 54.5132 88.2866 54.6599 88.4233 54.5999C88.55 54.5466 88.45 54.4366 88.4333 54.3532C88.3233 53.7966 88.1 53.2566 88.1133 52.6766C88.1166 52.4699 88.1566 52.2832 88.3166 52.1399C88.56 51.9199 88.83 51.9599 88.9866 52.2499C89.1233 52.4999 89.1433 52.7666 89.08 53.0399C88.9833 53.4732 88.8766 53.9099 88.7733 54.3432C88.7566 54.4199 88.69 54.5132 88.8066 54.5566C88.91 54.5899 88.95 54.4932 88.9866 54.4199C89.14 54.1232 89.2933 53.8299 89.4433 53.5299C89.58 53.2566 89.77 53.0232 90 52.8232C90.1966 52.6499 90.55 52.6099 90.69 52.7599C90.8733 52.9566 90.8366 53.1832 90.7266 53.3999C90.56 53.7199 90.27 53.9099 89.99 54.1099C89.7266 54.2932 89.45 54.4599 89.1833 54.6432C89.12 54.6866 89.0266 54.7399 89.07 54.8399C89.1166 54.9532 89.21 54.9299 89.3066 54.9032C89.68 54.7999 90.0533 54.7132 90.4233 54.6066C90.66 54.5399 90.9 54.5466 91.1366 54.5566C91.4233 54.5732 91.6766 54.7932 91.6866 55.0199C91.7 55.2366 91.49 55.4432 91.1933 55.4966C90.6433 55.5999 90.13 55.3966 89.6033 55.2899C89.49 55.2699 89.3833 55.2299 89.2733 55.1999C89.1933 55.1766 89.1333 55.1866 89.0933 55.2699C89.0466 55.3699 89.12 55.3966 89.1833 55.4366C89.5066 55.6432 89.83 55.8499 90.16 56.0532C90.3566 56.1766 90.5166 56.3432 90.67 56.5099C90.9033 56.7599 90.92 57.0799 90.74 57.2766C90.59 57.4366 90.24 57.4166 90 57.2032C89.7233 56.9599 89.5333 56.6466 89.35 56.3299C89.2333 56.1199 89.1166 55.9099 88.9966 55.7032C88.96 55.6366 88.9333 55.5299 88.82 55.5832C88.7133 55.6299 88.7666 55.7199 88.7833 55.7999C88.89 56.3366 89.0733 56.8632 89.05 57.4266C89.0433 57.5866 89.0166 57.7366 88.91 57.8599C88.8 57.9866 88.6766 58.1432 88.5 58.1066C88.31 58.0699 88.19 57.9066 88.1166 57.7232C87.9933 57.4132 88.08 57.1066 88.1466 56.8032C88.2233 56.4599 88.3333 56.1232 88.4233 55.7799C88.4433 55.7032 88.5333 55.5966 88.3866 55.5432C88.2666 55.4999 88.2533 55.6232 88.2133 55.6799C87.9133 56.1299 87.67 56.6166 87.27 56.9966C86.95 57.3032 86.5933 57.3832 86.39 57.1766C86.1966 56.9832 86.2833 56.5932 86.5966 56.2966C86.9766 55.9432 87.4566 55.7532 87.8933 55.4899C87.9466 55.4566 88.0033 55.4299 88.0566 55.3999C88.12 55.3632 88.2033 55.3299 88.1566 55.2399C88.1166 55.1632 88.0466 55.2199 87.99 55.2332C87.5633 55.3299 87.14 55.4266 86.7133 55.5299C86.5266 55.5732 86.34 55.5666 86.1533 55.5499C85.8566 55.5199 85.5866 55.2766 85.6 55.0466C85.6133 54.7499 85.8566 54.6632 86.0833 54.5832C86.17 54.5532 86.27 54.5632 86.33 54.5566Z" fill="black"/>
<path d="M23.5267 52.7533C23.5267 53.25 23.3401 53.71 23.2367 54.1866C23.2167 54.2833 23.1434 54.42 23.2567 54.4666C23.3867 54.5166 23.4034 54.35 23.4534 54.2733C23.7467 53.8066 23.9067 53.26 24.3101 52.8633C24.5967 52.5766 24.9467 52.4933 25.1401 52.6733C25.3567 52.8766 25.3034 53.2166 25.0101 53.5366C24.6234 53.96 24.1201 54.22 23.6634 54.5466C23.5867 54.6 23.4467 54.6166 23.5067 54.77C23.5734 54.93 23.6901 54.8266 23.7734 54.8066C24.2567 54.6833 24.7334 54.54 25.2267 54.4566C25.4234 54.4233 25.6101 54.45 25.7801 54.5166C25.9767 54.5966 26.1534 54.7533 26.1367 54.9833C26.1201 55.1933 25.9567 55.33 25.7501 55.3866C25.3634 55.4933 24.9834 55.4266 24.6067 55.34C24.3234 55.2766 24.0434 55.1966 23.7601 55.13C23.6867 55.1133 23.5867 55.08 23.5401 55.1833C23.4901 55.2933 23.6034 55.32 23.6634 55.3633C24.1067 55.6766 24.6034 55.9066 24.9967 56.2933C25.1567 56.45 25.2867 56.6166 25.2867 56.8566C25.2867 57.2266 25.0067 57.41 24.6734 57.2533C24.3667 57.11 24.1634 56.86 24.0001 56.5766C23.8201 56.27 23.6467 55.9633 23.4734 55.6533C23.4267 55.5766 23.3934 55.4566 23.2734 55.51C23.1567 55.5566 23.2067 55.6733 23.2267 55.7566C23.3301 56.16 23.4201 56.5633 23.4867 56.9766C23.5201 57.18 23.5134 57.37 23.4634 57.5633C23.3867 57.8466 23.1601 58.06 22.9434 58.0033C22.6867 57.94 22.5534 57.74 22.5234 57.48C22.4834 57.1 22.5734 56.7366 22.6801 56.3766C22.7501 56.1366 22.8234 55.8966 22.8901 55.6566C22.9101 55.5833 22.9067 55.5 22.8234 55.4633C22.7234 55.42 22.7067 55.5233 22.6734 55.5766C22.3367 56.09 22.0667 56.6466 21.5734 57.0433C21.2234 57.3233 20.7934 57.23 20.7334 56.8566C20.7001 56.6666 20.7934 56.5166 20.9101 56.3766C21.2901 55.9233 21.8334 55.7066 22.3234 55.4166C22.4301 55.3533 22.6601 55.3133 22.6067 55.1866C22.5334 55.0133 22.3434 55.17 22.2201 55.2C21.8067 55.3033 21.3934 55.4066 20.9734 55.4733C20.7134 55.5133 20.4701 55.4766 20.2567 55.32C20.1301 55.23 20.0034 55.1 20.0334 54.9366C20.0634 54.7566 20.1834 54.6166 20.3701 54.5566C20.7534 54.4266 21.1301 54.5 21.5067 54.59C21.7801 54.6566 22.0467 54.74 22.3201 54.8066C22.4201 54.8333 22.5567 54.95 22.6234 54.8066C22.6967 54.6533 22.5201 54.63 22.4334 54.5733C22.0601 54.3433 21.6834 54.1233 21.3134 53.89C21.1267 53.7733 20.9634 53.6233 20.8567 53.4233C20.7367 53.2 20.6801 52.9566 20.9001 52.77C21.1201 52.58 21.3634 52.6733 21.5601 52.8266C21.8667 53.0633 22.0934 53.38 22.2834 53.7166C22.4067 53.9366 22.5334 54.1533 22.6667 54.3633C22.7101 54.4333 22.7367 54.5766 22.8567 54.5166C22.9534 54.47 22.9067 54.3433 22.8867 54.26C22.8101 53.9233 22.7301 53.59 22.6367 53.26C22.5634 53.0033 22.5667 52.7433 22.5834 52.4833C22.6001 52.1866 22.8401 51.9166 23.0701 51.92C23.2934 51.9233 23.4967 52.1666 23.5234 52.4733C23.5334 52.5666 23.5267 52.66 23.5267 52.7533Z" fill="black"/>
<path d="M33.35 34.5401C33.0333 34.2634 32.66 34.1468 32.24 34.1834C32.0333 34.2068 31.8133 34.2834 31.5833 34.4134C31.6333 34.1868 31.64 33.9701 31.5966 33.7668C31.5333 33.4534 31.3766 33.1834 31.1333 32.9734C30.85 32.7268 30.5166 32.6001 30.1366 32.6001C30.1333 32.6001 30.13 32.6001 30.13 32.6001C29.7566 32.6001 29.3733 32.7368 28.9933 33.0068C28.7466 33.1834 28.46 33.4568 28.1433 33.8201L26.3933 35.8334L26.7133 36.1101L26.9433 35.8434C27.0633 35.7034 27.1866 35.6368 27.3166 35.6334C27.3666 35.6368 27.4966 35.6668 27.8333 35.9601L30.7 38.4534C31.01 38.7234 31.07 38.8468 31.0833 38.8868C31.12 39.0268 31.0733 39.1701 30.94 39.3201L30.71 39.5868L31.0266 39.8634L32.93 37.6734C33.38 37.1568 33.6566 36.7434 33.7833 36.4001C33.91 36.0534 33.93 35.7068 33.8433 35.3668C33.7566 35.0268 33.59 34.7468 33.35 34.5401ZM30.3433 33.8301C30.4933 33.9601 30.5966 34.1201 30.6566 34.3034C30.7166 34.4868 30.7166 34.6701 30.6533 34.8634C30.59 35.0668 30.4233 35.3234 30.16 35.6268C30.0533 35.7468 29.9533 35.8534 29.8566 35.9501C29.7966 36.0101 29.7366 36.0668 29.6766 36.1168L28.1333 34.7734C28.23 34.5968 28.3533 34.4201 28.51 34.2401C28.8366 33.8634 29.1733 33.6468 29.5066 33.6001C29.8366 33.5534 30.11 33.6301 30.3433 33.8301ZM31.8033 37.9634L30.1466 36.5268C30.18 36.4834 30.2166 36.4334 30.2566 36.3801C30.3366 36.2801 30.4333 36.1634 30.55 36.0334C30.8066 35.7368 31.0666 35.5234 31.3266 35.4001C31.5733 35.2801 31.8066 35.2401 32.02 35.2801C32.2366 35.3201 32.4233 35.4101 32.5766 35.5434C32.81 35.7468 32.9233 36.0034 32.92 36.3268C32.92 36.6534 32.7566 37.0068 32.4366 37.3768C32.25 37.5868 32.04 37.7868 31.8033 37.9634Z" fill="black"/>
<path d="M40.0333 30.97C39.8566 31.0867 39.6933 31.1367 39.5466 31.1267C39.44 31.1167 39.22 31.0534 38.7866 30.7967L34.1533 28.05L33.8933 28.2434L35.1466 33.4434C35.25 33.87 35.29 34.1767 35.2566 34.36C35.25 34.3934 35.2166 34.4934 35.01 34.71L34.9333 34.79L35.1733 35.1134L36.8666 33.8534L36.62 33.5234L36.5166 33.5867C36.2233 33.7734 36.1033 33.7867 36.07 33.79C35.98 33.7867 35.9433 33.7534 35.9266 33.73C35.8866 33.6767 35.8266 33.5567 35.76 33.28L35.5466 32.38L37.23 31.1267L37.9466 31.55C38.2433 31.7267 38.36 31.8367 38.4066 31.8967C38.44 31.94 38.4466 31.99 38.43 32.0534C38.42 32.0967 38.37 32.19 38.1633 32.3634L38.0666 32.44L38.3166 32.7734L40.3833 31.2367L40.1366 30.9034L40.0333 30.97ZM35.3966 31.7667L34.9133 29.7434L36.6966 30.7967L35.3966 31.7667Z" fill="black"/>
<path d="M44.54 27.2332L44.5467 27.3432C44.56 27.7199 44.5367 28.0132 44.4767 28.2132C44.4167 28.4066 44.3267 28.5666 44.2034 28.6866C44.08 28.8132 43.8167 28.9666 43.4234 29.1466L43.0334 29.3266C42.5667 29.5432 42.4634 29.5566 42.45 29.5566C42.4 29.5599 42.3634 29.5499 42.3367 29.5299C42.3 29.5032 42.2234 29.4166 42.1034 29.1566L40.56 25.7999C40.3767 25.3966 40.3567 25.2666 40.36 25.2266C40.36 25.1532 40.3967 25.0732 40.4667 24.9899C40.52 24.9266 40.65 24.8199 40.98 24.6732L41.1 24.6199L40.9234 24.2366L38.27 25.4532L38.4467 25.8366L38.7667 25.6899C38.9334 25.6132 39.0734 25.6032 39.1934 25.6566C39.2234 25.6666 39.3334 25.7432 39.5267 26.1666L41.1134 29.6132C41.2867 29.9932 41.2934 30.1232 41.2867 30.1599C41.2634 30.3066 41.1634 30.4199 40.98 30.5032L40.66 30.6499L40.8367 31.0332L45.17 29.0432L44.93 27.1466L44.54 27.2332Z" fill="black"/>
<path d="M48.5734 27.6066C48.4601 27.6366 48.3467 27.6399 48.2301 27.6099C48.1567 27.5933 48.1067 27.5666 48.0801 27.5299C48.0501 27.4899 47.9867 27.3733 47.8867 27.0199L46.8567 23.3633C46.7334 22.9299 46.7634 22.8033 46.7734 22.7766C46.8267 22.6466 46.9434 22.5599 47.1367 22.5066L47.4667 22.4133L47.3501 22.0066L44.6801 22.7599L44.7934 23.1633L45.1201 23.0733C45.2334 23.0399 45.3467 23.0399 45.4634 23.0666C45.5334 23.0833 45.5834 23.1133 45.6134 23.1499C45.6434 23.1899 45.7067 23.3066 45.8067 23.6599L46.8367 27.3166C46.9567 27.7499 46.9301 27.8766 46.9201 27.9033C46.8701 28.0299 46.7501 28.1199 46.5567 28.1733L46.2301 28.2633L46.3434 28.6699L49.0167 27.9166L48.9001 27.5133L48.5734 27.6066Z" fill="black"/>
<path d="M60.3433 21.5665C59.89 21.3199 59.21 21.1599 58.3233 21.0865L55.81 20.8799L55.7766 21.2999L56.1266 21.3299C56.31 21.3432 56.44 21.4032 56.5166 21.5099C56.5366 21.5332 56.5933 21.6532 56.5566 22.1165L56.2433 25.9032C56.21 26.3165 56.15 26.4332 56.1233 26.4665C56.0366 26.5799 55.8933 26.6265 55.6933 26.6099L55.3433 26.5799L55.3066 26.9999L58.05 27.2265C58.2133 27.2399 58.37 27.2466 58.5233 27.2466C59.4666 27.2466 60.22 26.9932 60.7633 26.4865C61.3233 25.9599 61.6433 25.2632 61.7133 24.4165C61.7666 23.7899 61.6666 23.2132 61.4166 22.7065C61.1666 22.1965 60.8066 21.8132 60.3433 21.5665ZM57.6833 21.7265C57.97 21.6832 58.2266 21.6732 58.4466 21.6899C59.1033 21.7432 59.61 22.0032 59.9933 22.4832C60.37 22.9565 60.53 23.5865 60.4666 24.3599C60.4033 25.1232 60.1433 25.7199 59.69 26.1299C59.2366 26.5399 58.7066 26.7132 58.07 26.6632C57.8566 26.6465 57.5966 26.5899 57.29 26.4999L57.6833 21.7265Z" fill="black"/>
<path d="M71.22 24.98C71.3333 24.88 71.4333 24.8234 71.5167 24.8067C71.6033 24.7934 71.7067 24.8067 71.83 24.85L71.9533 24.8934L72.0933 24.4934L70.1933 23.8267L70.0533 24.2234L70.1767 24.2667C70.3267 24.32 70.4433 24.38 70.52 24.4434C70.5533 24.47 70.5733 24.5034 70.5867 24.5467C70.6 24.59 70.6 24.6267 70.5867 24.6634C70.5567 24.7434 70.4633 24.9134 70.18 25.2667L68.2833 27.6567V24.6434C68.2833 24.18 68.32 23.98 68.35 23.8934C68.3767 23.8167 68.4167 23.77 68.4767 23.7434C68.5367 23.7167 68.6333 23.7234 68.75 23.7667L69.02 23.86L69.16 23.4634L66.76 22.6167L66.62 23.0134L66.7433 23.0567C66.8733 23.1034 66.9233 23.1367 66.9433 23.15C66.9933 23.1867 67.04 23.2367 67.0833 23.3C67.1133 23.3434 67.1333 23.3867 67.1467 23.4334C67.18 23.5534 67.2 23.69 67.2067 23.83V24.7234L65.62 26.72L65.6233 23.5967C65.6267 23.1134 65.6533 22.9634 65.67 22.92C65.69 22.8634 65.7267 22.8234 65.79 22.8C65.86 22.7734 65.9533 22.78 66.0667 22.82L66.2867 22.8967L66.4267 22.5L64.13 21.6934L63.99 22.09L64.1133 22.1334C64.2533 22.1834 64.3567 22.24 64.4167 22.3067C64.4733 22.3734 64.51 22.45 64.5233 22.5467C64.53 22.5934 64.54 22.75 64.54 23.22L64.5633 28.4967L64.8867 28.61L67.2133 25.72L67.2267 29.4367L67.5633 29.5534L70.74 25.5534C71.0367 25.1667 71.1633 25.0267 71.22 24.98Z" fill="black"/>
<path d="M72.4566 31.4133C72.42 31.3467 72.4066 31.29 72.4133 31.2467C72.42 31.1967 72.4633 31.07 72.65 30.7567L74.6066 27.5C74.8366 27.1133 74.95 27.0467 74.9766 27.0367C75.1066 26.9867 75.25 27.0133 75.42 27.1133L75.7166 27.29L75.9333 26.93L73.5533 25.5L73.3366 25.8633L73.6266 26.0367C73.7266 26.0967 73.8066 26.1767 73.8666 26.28C73.9 26.3467 73.9133 26.4 73.9066 26.4467C73.9 26.4967 73.8566 26.6233 73.67 26.9367L71.7133 30.1933C71.4833 30.58 71.3733 30.65 71.3466 30.66C71.2166 30.71 71.07 30.6833 70.9 30.58L70.61 30.4033L70.3933 30.7667L72.77 32.1933L72.99 31.8333L72.6933 31.6567C72.5933 31.5967 72.5166 31.5167 72.4566 31.4133Z" fill="black"/>
<path d="M78.5966 32.78C79.0666 32.7467 79.47 32.5267 79.7967 32.13C80.04 31.8334 80.1633 31.5034 80.1667 31.1434C80.17 30.79 80.0833 30.46 79.9067 30.1634C79.7333 29.8767 79.4367 29.5567 79.02 29.2167L77.2567 27.77L76.99 28.0934L77.26 28.3167C77.4033 28.4334 77.4767 28.5567 77.48 28.6867C77.48 28.7167 77.46 28.8434 77.1633 29.2067L74.75 32.1434C74.4767 32.4734 74.3667 32.53 74.3433 32.5367C74.2 32.58 74.0567 32.54 73.8967 32.41L73.6267 32.19L73.36 32.5134L75.5033 34.2767L75.77 33.95L75.4967 33.7234C75.3533 33.6067 75.2833 33.4867 75.28 33.3567C75.28 33.3267 75.2966 33.1967 75.5966 32.8334L76.58 31.6334C76.6667 31.74 76.7533 31.8367 76.8366 31.9234C76.9533 32.0467 77.07 32.1567 77.1833 32.25C77.6533 32.6367 78.13 32.8134 78.5966 32.78ZM78.3267 29.51C78.4833 29.5934 78.61 29.67 78.6967 29.7434C78.8667 29.8834 78.9867 30.0467 79.0567 30.2267C79.1267 30.4067 79.1367 30.6 79.0833 30.81C79.03 31.0234 78.9267 31.2234 78.78 31.4034C78.5633 31.6667 78.32 31.81 78.0367 31.85C77.7533 31.8867 77.52 31.82 77.3133 31.6534C77.2533 31.6034 77.1833 31.5367 77.1067 31.4567C77.0433 31.3934 76.98 31.32 76.9067 31.2367L78.3267 29.51Z" fill="black"/>
<path d="M83.93 33.8333L83.72 33.5867L78.6167 35.1933C78.1967 35.33 77.8934 35.3867 77.71 35.3667C77.6767 35.3633 77.5734 35.3367 77.3434 35.1467L77.2567 35.0767L76.9534 35.3367L78.3267 36.94L78.64 36.67L78.5667 36.5733C78.36 36.2933 78.3334 36.1767 78.3334 36.14C78.33 36.05 78.36 36.0133 78.3834 35.9933C78.4334 35.95 78.55 35.8833 78.8234 35.7967L79.7034 35.52L81.07 37.1167L80.6967 37.8567C80.5434 38.17 80.44 38.2933 80.3834 38.34C80.3434 38.3767 80.2934 38.39 80.23 38.3767C80.1867 38.3667 80.0867 38.3267 79.9034 38.13L79.8167 38.04L79.5 38.31L81.1767 40.2667L81.4934 39.9967L81.4167 39.9C81.2934 39.7333 81.23 39.5733 81.23 39.4267C81.23 39.3167 81.28 39.0933 81.5067 38.6433L83.93 33.8333ZM82.2934 34.71L81.36 36.56L80.3067 35.33L82.2934 34.71Z" fill="black"/>
<path d="M34.8601 77.8801L35.0734 78.1068C35.1367 78.1768 35.1801 78.2568 35.2034 78.3534C35.2167 78.4101 35.2167 78.4534 35.2034 78.4868C35.1867 78.5201 35.1234 78.6101 34.9001 78.8201L32.4134 81.1334C32.2434 81.2901 32.1534 81.3234 32.1134 81.3301C32.0634 81.3368 32.0267 81.3301 32.01 81.3168C31.9934 81.2934 32 81.2368 32.0334 81.1634C32.1734 80.8434 32.1867 80.7201 32.1834 80.6501C32.1767 80.5401 32.1367 80.4434 32.06 80.3634C31.9634 80.2601 31.8434 80.2034 31.6934 80.1934C31.5734 80.1934 31.4534 80.2401 31.3401 80.3434C31.2034 80.4701 31.14 80.6434 31.1467 80.8568C31.1567 81.0634 31.25 81.2634 31.4267 81.4534C31.64 81.6834 31.9001 81.8168 32.1934 81.8501C32.2567 81.8568 32.3201 81.8601 32.3834 81.8601C32.5967 81.8601 32.8001 81.8201 32.9901 81.7368C33.2301 81.6334 33.4934 81.4468 33.7767 81.1834L35.5567 79.5268C35.8367 79.2668 35.9367 79.2434 35.9534 79.2401C36.0634 79.2334 36.1701 79.2834 36.2801 79.4034L36.4901 79.6301L36.78 79.3601L35.1534 77.6101L34.8601 77.8801Z" fill="black"/>
<path d="M48.5533 90.9767C48.5066 90.9034 48.4433 90.7234 48.4 90.3034L47.9633 85.7567L47.6733 85.6667L44.74 89.1234C44.4433 89.4767 44.2666 89.6068 44.1733 89.6534C44.1566 89.6601 44.0766 89.6901 43.82 89.6567L43.7133 89.6434L43.6 90.0034L45.3466 90.5434L45.46 90.1701L45.3466 90.1267C45.07 90.0201 45.0066 89.9501 44.9933 89.9301C44.95 89.8667 44.9633 89.8334 44.9666 89.8201C44.9833 89.7701 45.0333 89.6701 45.1866 89.4901L45.6866 88.9067L47.36 89.4234L47.4266 90.1068C47.4566 90.3968 47.44 90.5301 47.4233 90.5867C47.4133 90.6134 47.3966 90.6467 47.3366 90.6701C47.3133 90.6801 47.23 90.6967 47.0066 90.6401L46.8866 90.6101L46.77 90.9834L48.8933 91.6401L49.0066 91.2667L48.8933 91.2234C48.73 91.1634 48.6166 91.0801 48.5533 90.9767ZM47.3133 88.8501L46.06 88.4634L47.15 87.1834L47.3133 88.8501Z" fill="black"/>
<path d="M63.29 86.1L63.3833 86.4834L63.51 86.4534C63.6466 86.42 63.72 86.4234 63.7533 86.43C63.8033 86.44 63.84 86.4567 63.87 86.4834C63.8966 86.51 63.9166 86.5434 63.9266 86.5834C63.9366 86.63 63.94 86.7567 63.8366 87.0634L63.3166 88.59L62.0766 87.4167C61.82 87.1734 61.79 87.0867 61.7866 87.07C61.77 87.0134 61.7833 86.97 61.83 86.93C61.8966 86.87 61.97 86.83 62.0633 86.8067L62.2966 86.75L62.2 86.3634L59.8833 86.93L59.9766 87.3134L60.1033 87.2834C60.1933 87.26 60.24 87.2634 60.26 87.27C60.4966 87.3167 60.5833 87.36 60.6133 87.38C60.6566 87.41 60.7633 87.4934 61.0233 87.7334L62.8133 89.4067L63.0833 90.5134C63.1666 90.8534 63.1433 90.9534 63.1366 90.9734C63.0966 91.0767 63 91.1467 62.8366 91.1867L62.54 91.2567L62.6333 91.6434L64.94 91.0834L64.8433 90.6967L64.56 90.7667C64.4033 90.8034 64.2833 90.7934 64.2 90.74C64.1866 90.73 64.1133 90.6634 64.02 90.2867L63.7333 89.11L64.44 87.0267C64.5233 86.7734 64.6 86.5834 64.6666 86.4667C64.7333 86.3567 64.81 86.2634 64.9033 86.19C65.0266 86.0934 65.0833 86.07 65.1033 86.0667L65.3233 86.0134L65.23 85.6267L63.29 86.1Z" fill="black"/>
<path d="M80.73 80.6833L80.6366 80.7633C80.5066 80.8766 80.3766 80.94 80.2566 80.9466C80.1666 80.95 79.98 80.9233 79.5933 80.76L75.3833 78.98L75.1666 79.1933L76.8133 83.42C76.98 83.8466 77.0133 84.0633 77.0066 84.1666C77.0066 84.19 76.9933 84.27 76.8433 84.48L76.78 84.57L77.0433 84.8366L78.3466 83.56L78.0766 83.2833L77.9833 83.3633C77.7566 83.5533 77.6666 83.5766 77.6433 83.58C77.5766 83.5866 77.55 83.5666 77.5333 83.55C77.4966 83.5133 77.4333 83.42 77.3466 83.1966L77.07 82.48L78.32 81.2566L78.9566 81.5233C79.2233 81.6366 79.3333 81.71 79.3766 81.7566C79.3933 81.7733 79.4166 81.8066 79.4066 81.8666C79.4033 81.8966 79.38 81.9766 79.2233 82.1466L79.14 82.2366L79.4133 82.5166L81 80.9633L80.73 80.6833ZM77.7966 81.0233L76.86 81.9433L76.2533 80.3733L77.7966 81.0233Z" fill="black"/>
<path d="M40.38 61.1334C40.15 61.1334 39.9566 61.11 39.77 61.1367C39.09 61.24 38.6666 61.7767 38.6166 62.55C38.55 63.6334 38.8933 64.6134 39.3833 65.5467C40.48 67.6234 42.08 69.1634 44.28 70.0367C45.64 70.5767 47.0566 70.6634 48.4966 70.5034C49.66 70.3734 50.8133 70.18 51.9033 69.7267C54.3766 68.6934 55.7533 66.8234 55.8733 64.1667C55.9633 62.2367 55.3766 60.4634 53.9 59.1034C51.9633 57.32 48.4966 57.5567 46.8866 59.5567C46.47 60.0767 46.33 60.4767 46.2466 61.4134C44.77 60.5934 43.81 58.8167 45.5033 57.2534C45.6366 57.13 45.78 57.0167 45.9266 56.91C46.99 56.1467 48.1933 55.7167 49.4566 55.4334C50.4333 55.2167 51.39 54.9534 52.23 54.3767C52.9966 53.85 53.6166 53.1967 53.9666 52.3167C54.56 50.8167 54.0033 49.4434 52.52 48.8134C52.2466 48.7 52.1833 48.5667 52.1866 48.29C52.2133 47.1667 52.2166 46.0434 52.2133 44.92C52.21 44.7067 52.27 44.65 52.4833 44.6434C54.73 44.5867 56.5833 45.4067 58 47.1567C59.4733 48.98 59.53 51.4934 58.19 53.6367C57.4666 54.7934 56.5133 55.73 55.4233 56.5367C55.22 56.6867 55.2033 56.7467 55.4233 56.9C56.74 57.8167 57.9233 58.8767 58.8233 60.22C60.9066 63.33 60.5733 66.86 57.94 69.5334C56.1266 71.3767 53.9066 72.4367 51.37 72.8167C47.0966 73.45 43.4533 72.1034 40.3166 69.22C39.3333 68.3134 38.39 67.3734 37.6666 66.2367C36.7866 64.85 36.21 63.3667 36.2733 61.6934C36.3033 60.9134 36.4833 60.1734 36.9533 59.53C37.63 58.6067 38.6166 58.5367 39.4033 59.36C39.8766 59.8567 40.16 60.4534 40.38 61.1334Z" fill="#8C8101"/>
<path d="M46.2466 61.4133C45.9799 61.02 44.4433 58.5 46.1266 57.2366C48.0066 55.8233 51.3033 55.7833 52.4399 54.8733C53.3666 54.13 55.0166 52.99 54.5866 50.5166C54.1599 48.04 52.8133 48.5966 52.7633 48.1666C52.7133 47.7366 52.9799 44.6466 52.9799 44.6466L52.4833 44.6433C52.2699 44.65 52.2099 44.7066 52.2133 44.92C52.2166 46.0433 52.2133 47.1666 52.1866 48.29C52.1833 48.5666 52.2466 48.7 52.5199 48.8133C54.0033 49.4433 54.5599 50.8166 53.9666 52.3166C53.6166 53.1966 52.9966 53.85 52.2299 54.3766C51.3899 54.9533 50.4333 55.2166 49.4566 55.4333C48.1933 55.7166 46.9899 56.1466 45.9266 56.91C45.7799 57.0166 45.6366 57.13 45.5033 57.2533C44.6399 58.05 44.4699 58.9 44.6999 59.6533C44.9666 60.69 46.2833 61.47 46.2466 61.4133Z" fill="url(#paint0_linear_421_537)"/>
<path d="M56.76 63.9534C56.5834 61.3001 55.0167 57.8434 52.5434 57.2368C50.0667 56.6268 47.4934 58.0434 47.4934 58.0434C47.4934 58.0434 46.6567 58.5234 46.3034 59.0534C45.95 59.5834 45.99 61.2701 46.2467 61.4134C46.33 60.4768 46.47 60.0768 46.8867 59.5568C48.4967 57.5568 51.9634 57.3201 53.9 59.1034C55.3767 60.4634 55.9634 62.2368 55.8734 64.1668C55.7534 66.8234 54.3767 68.6934 51.9034 69.7268C50.8134 70.1801 49.66 70.3734 48.4967 70.5034C47.0567 70.6634 45.64 70.5768 44.28 70.0368C42.08 69.1634 40.48 67.6234 39.3834 65.5468C38.8934 64.6134 38.55 63.6334 38.6167 62.5501C38.6667 61.7768 39.09 61.2401 39.77 61.1368C39.9567 61.1101 40.15 61.1334 40.38 61.1334C40.16 60.4534 39.8767 59.8568 39.4034 59.3601C38.6167 58.5368 37.63 58.6068 36.9534 59.5301C36.9534 59.5301 38.1367 58.7568 38.84 59.5701C39.54 60.3868 39.4634 60.6134 39.4634 60.6134C39.4634 60.6134 38.1367 60.9168 38.1 62.5268C38.0634 64.1368 38.7267 65.5201 38.97 65.9368C39.2167 66.3534 40.2234 68.3034 42.06 69.3834C43.8967 70.4634 45.57 71.2034 47.6434 71.0768C49.7134 70.9501 52.5934 70.5468 53.83 69.4334C55.0667 68.3234 56.9367 66.6068 56.76 63.9534Z" fill="url(#paint1_linear_421_537)"/>
<path d="M44.4433 41.4866C44.92 41.6499 45.38 41.8666 45.8667 42.0133C47.64 42.5399 49.39 42.3799 51.1333 41.8666C52.7 41.4066 54.1867 40.7333 55.6967 40.1299C57.38 39.4566 59.0933 38.8966 60.89 38.5799C62.39 38.3166 63.84 38.4733 65.29 38.8899C66.98 39.3766 68.5867 40.0233 69.98 41.1233C71.7034 42.4799 72.7 44.2666 73.0634 46.4133C73.3367 48.0399 73.3 49.6666 72.95 51.2733C72.7534 52.1866 72.22 52.9499 71.6867 53.6999C70.4733 55.3899 68.9867 56.7599 67.08 57.6366C66.4634 57.9199 65.8233 58.1433 65.12 58.2933C65.12 57.5533 65.12 56.8266 65.12 56.0999C65.12 56.0066 65.1834 55.9733 65.2567 55.9366C67.2667 54.9533 68.46 53.2566 69.2767 51.2466C69.5867 50.4866 69.8767 49.7199 69.9234 48.8833C70.0134 47.2999 69.59 45.8633 68.6534 44.5933C67.3634 42.8366 65.56 41.8799 63.47 41.4299C61.8367 41.0733 60.1867 41.0499 58.57 41.4966C57.5967 41.7633 56.6733 42.2133 55.7133 42.5466C53.8433 43.1966 51.94 43.7033 49.9433 43.7499C47.89 43.7999 46.0567 43.2566 44.6 41.7266C44.5333 41.6599 44.4433 41.6099 44.4333 41.5033L44.4433 41.4866Z" fill="#8C8101"/>
<path d="M59.9667 68.8701C60.5467 68.9934 61.12 69.1401 61.7067 69.2301C63.4367 69.4968 65.1133 69.3968 66.6667 68.4901C67.9333 67.7468 68.79 66.6268 69.4433 65.3401C70.6167 63.0401 71.0767 60.5868 70.9367 58.0201C70.89 57.2068 70.8433 56.5568 70.62 55.7668C70.59 55.6568 70.5467 55.5568 70.67 55.4368C71.66 54.4534 72.42 53.3134 72.9933 52.0434C73.0067 52.0101 73.0333 51.9801 73.0633 51.9368C73.7133 53.0268 74.0767 54.0301 74.3333 55.2568C74.6167 56.6001 74.6633 57.9534 74.5333 59.3201C74.4367 60.2834 74.3767 61.2501 74.23 62.2068C73.92 64.2468 73.1 66.0601 71.8433 67.6768C70.5 69.4034 68.6667 70.3301 66.5633 70.7301C64.7667 71.0734 63.03 70.8501 61.4067 69.9634C60.8733 69.6768 60.3867 69.3234 59.9667 68.8701Z" fill="#8C8101"/>
<path d="M41.0467 47.9534C41.4101 48.1767 41.7701 48.39 42.1567 48.56C42.6867 48.7934 43.2434 48.9467 43.8234 48.9534C44.0467 48.9567 44.0867 49.04 44.0834 49.2434C44.0767 51.3734 44.0801 53.5067 44.0801 55.6367C44.0801 58.96 44.0834 62.28 44.0734 65.6034C44.0734 65.8834 44.1534 66.09 44.3301 66.3C44.7367 66.7734 45.1067 67.2734 45.4067 67.8234C45.5267 68.0434 45.6267 68.27 45.6734 68.52C45.7401 68.8934 45.5667 69.1134 45.1867 69.13C44.7134 69.15 44.2767 68.9967 43.8567 68.81C42.6601 68.28 41.5701 67.5934 40.7467 66.5467C40.5501 66.2967 40.3934 66.0234 40.3567 65.6967C40.3201 65.32 40.4801 65.0334 40.7901 64.85C40.9834 64.7434 41.0167 64.61 41.0167 64.41C41.0134 59.0334 41.0134 53.6567 41.0134 48.2834C41.0134 48.18 40.9867 48.0734 41.0467 47.9534Z" fill="#8C8101"/>
<path d="M41.8067 48.37C41.4234 48.2034 41.4101 48.1767 41.0467 47.9534C40.9867 48.0734 41.0134 48.18 41.0134 48.2834C41.0134 53.6567 41.0134 59.0334 41.0167 64.41C41.0167 64.61 40.9834 64.7434 40.7901 64.85C40.4801 65.0334 40.3201 65.32 40.3567 65.6967C40.3934 66.0234 40.5501 66.2967 40.7467 66.5467L42.1567 67.87C42.1567 67.87 41.2501 66.5534 41.5534 65.5934C41.8567 64.6367 41.8067 48.37 41.8067 48.37Z" fill="url(#paint2_linear_421_537)"/>
<path d="M61.6534 48.8633C62.8501 49.2099 63.8734 49.8066 64.7367 50.6733C64.8267 50.7599 64.8167 50.8599 64.8167 50.9633C64.8101 52.6633 64.8034 54.3633 64.8034 56.0599C64.8034 59.2766 64.8134 62.4933 64.8134 65.7066C64.8134 65.8499 64.8567 65.9399 64.9767 66.0133C65.2067 66.1533 65.4167 66.3199 65.6067 66.5133C66.2201 67.1433 66.1367 67.7099 65.3701 68.1333C64.9867 68.3433 64.5701 68.4599 64.1434 68.5299C63.3001 68.6699 62.4634 68.6233 61.6401 68.3766C60.6567 68.08 60.4501 67.4433 61.0767 66.6199C61.1501 66.5199 61.2201 66.4066 61.3167 66.3366C61.6701 66.0766 61.7334 65.7366 61.7301 65.3133C61.7034 63.0966 61.7101 60.88 61.7001 58.66C61.6867 55.5066 61.6701 52.3499 61.6534 49.1966C61.6501 49.0933 61.6534 48.9866 61.6534 48.8633Z" fill="#8C8101"/>
<path d="M61.6534 48.8633C61.6534 48.9866 61.6501 49.0933 61.6534 49.1966C61.6701 52.3499 61.6867 55.5066 61.7001 58.6599C61.7101 60.8799 61.7034 63.0966 61.7301 65.3133C61.7334 65.7366 61.6701 66.0766 61.3167 66.3366C61.2201 66.4066 61.1501 66.5199 61.0767 66.6199C60.4501 67.4433 60.6567 68.08 61.6401 68.3766C62.0901 68.5099 62.5434 68.5866 62.9967 68.6033C62.9967 68.6033 62.6067 67.9266 61.9501 67.8499C61.2934 67.7733 61.5901 66.8999 62.1201 66.4299C63.1767 65.4933 62.4934 49.6066 62.4934 49.6066L62.4567 49.2066C62.4567 49.2066 62.4534 49.0666 61.6534 48.8633Z" fill="url(#paint3_linear_421_537)"/>
<path d="M51.8267 62.2433C51.8267 63.4033 51.83 64.5633 51.82 65.7266C51.8167 65.9466 51.8867 66.1033 52.0433 66.2533C52.34 66.5399 52.6067 66.8566 52.8 67.2233C53.1567 67.9066 52.9833 68.4099 52.28 68.7133C51.79 68.9266 51.2667 69.0066 50.74 69.0399C49.6967 69.0999 48.65 69.1466 47.6267 68.8433C46.4867 68.5033 46.2533 67.7133 47.04 66.8199C47.2467 66.5866 47.4733 66.3799 47.73 66.2099C47.9033 66.0999 47.9633 65.9666 47.9633 65.7633C47.9567 63.7199 47.9667 61.6733 47.96 59.6299C47.9567 59.4199 48.03 59.3099 48.2067 59.2066C49.2633 58.5899 50.4067 58.3466 51.6233 58.3799C51.8233 58.3866 51.8567 58.4666 51.8567 58.6433C51.85 59.8433 51.8533 61.0433 51.8533 62.2433C51.8433 62.2433 51.8333 62.2433 51.8267 62.2433Z" fill="#8C8101"/>
<path d="M48.2067 59.2067C48.03 59.3101 47.9567 59.4201 47.96 59.6301C47.9667 61.6734 47.9567 63.7201 47.9633 65.7634C47.9633 65.9667 47.9033 66.1001 47.73 66.2101C47.4733 66.3801 47.2467 66.5867 47.04 66.8201C46.2533 67.7134 46.4867 68.5034 47.6267 68.8434L48.6433 69.0834C48.6433 69.0834 49.1067 68.6634 48.4633 68.3601C47.82 68.0567 46.8633 67.8434 47.8533 67.0334C48.9133 66.1667 48.56 66.1634 48.5967 64.6101C48.6333 63.0567 48.5033 59.0601 48.5033 59.0601L48.2067 59.2067Z" fill="url(#paint4_linear_421_537)"/>
<path d="M47.8533 55.3699C47.8533 55.1032 47.8533 54.8732 47.8533 54.6432C47.8633 51.7732 47.8699 48.9032 47.8766 46.0332C47.8799 45.5266 47.8799 45.5232 48.3566 45.3499C49.3799 44.9832 50.4366 44.7766 51.5199 44.7066C51.7599 44.6899 51.8066 44.7466 51.8033 44.9732C51.7799 47.2066 51.7633 49.4432 51.7466 51.6799C51.7433 52.2366 51.7233 52.7932 51.7433 53.3499C51.7533 53.6266 51.6399 53.7966 51.4433 53.9566C51.0533 54.2766 50.6233 54.5099 50.1433 54.6699C49.3933 54.9199 48.6066 55.0432 47.8533 55.3699Z" fill="#8C8101"/>
<path d="M47.8533 55.37C47.8533 55.1033 47.8533 54.8733 47.8533 54.6433C47.8599 51.7733 47.8666 48.9033 47.8766 46.0333C47.8766 45.5266 47.8799 45.5233 48.3133 45.35L48.6433 45.23L48.5166 55.11L47.8533 55.37Z" fill="url(#paint5_linear_421_537)"/>
<path d="M57.6899 43.8201C58.2499 44.3134 58.7966 44.8067 59.3699 45.2701C60.4399 46.1301 61.6333 46.5934 63.0233 46.5834C64.1833 46.5734 65.3466 46.6267 66.4833 46.8967C67.5899 47.1601 68.5599 47.7201 69.5066 48.3267C69.6933 48.4467 69.6299 48.6134 69.6199 48.7634C69.5433 49.6801 69.2699 50.5434 68.8966 51.3767C68.7933 51.6101 68.6833 51.8367 68.5666 52.0867C67.4433 50.9001 66.1199 50.0701 64.6833 49.4134C63.7599 48.9901 62.7799 48.7034 61.8333 48.3434C60.9499 48.0067 60.0999 47.6134 59.3733 46.9967C58.3933 46.1667 57.8733 45.0834 57.6899 43.8201Z" fill="#8C8101"/>
<path d="M39.3199 43.3701C39.7566 43.9368 40.1633 44.4168 40.6466 44.8301C42.0833 46.0668 43.7433 46.4401 45.5833 46.1268C46.1433 46.0334 46.6866 45.8834 47.2166 45.6868C47.4133 45.6134 47.4866 45.6201 47.4833 45.8568C47.4766 46.7101 47.4866 47.5635 47.4933 48.4168C47.4933 48.5435 47.4933 48.6335 47.3233 48.6468C45.6899 48.7635 44.0666 48.7668 42.5033 48.1634C40.7133 47.4768 39.7633 46.1235 39.4399 44.2768C39.3899 44.0068 39.3666 43.7268 39.3199 43.3701Z" fill="#8C8101"/>
<path d="M39.3199 43.3701C41.2533 49.4168 47.4866 47.5635 47.4933 48.4168C47.4933 48.5435 47.4933 48.6335 47.3233 48.6468C45.6899 48.7635 44.0666 48.7668 42.5033 48.1634C40.7133 47.4768 39.7633 46.1235 39.4399 44.2768C39.3899 44.0068 39.3666 43.7268 39.3199 43.3701Z" fill="url(#paint6_linear_421_537)"/>
<path d="M57.1934 55.97C58.0634 56.21 58.9267 56.4266 59.81 56.5533C60.2667 56.6166 60.7234 56.6633 61.1834 56.6633C61.3734 56.6633 61.4267 56.7333 61.42 56.9166C61.4067 57.3366 61.4134 57.76 61.42 58.1833C61.42 58.3133 61.3967 58.3833 61.2434 58.3533C59.63 58.0066 58.25 57.2566 57.1934 55.97Z" fill="#8C8101"/>
<path d="M57.1934 55.97C58.0634 56.21 58.9267 56.4266 59.81 56.5533C60.2667 56.6166 60.7234 56.6633 61.1834 56.6633C61.3734 56.6633 61.4267 56.7333 61.42 56.9166C61.4167 57.0233 61.4134 57.13 61.4134 57.2333C61.4134 57.2333 58.7267 57.3166 57.1934 55.97Z" fill="url(#paint7_linear_421_537)"/>
<path d="M44.4333 41.5033C44.41 41.4899 44.3866 41.4799 44.3633 41.4699C44.3733 41.4599 44.3833 41.4499 44.3899 41.4399C44.4066 41.4566 44.4233 41.4699 44.4433 41.4866L44.4333 41.5033Z" fill="#8C8101"/>
<path d="M44.4434 41.4868C44.4434 41.4868 45.07 41.9601 45.5334 42.2568C47.6767 43.6368 51.8034 43.2034 56.1934 41.4401C58.93 40.3434 61.3467 40.0568 64.3267 40.5634C67.3067 41.0701 69.5234 43.7034 70.1867 45.0834C70.9234 46.6134 71.9667 50.8201 68.5834 54.3434C67 55.9901 65.12 56.7368 65.12 56.7368C65.12 56.4768 65.12 56.3601 65.12 56.1001C65.12 56.0068 65.1834 55.9734 65.2567 55.9368C67.2667 54.9534 68.46 53.2568 69.2767 51.2468C69.5867 50.4868 69.8767 49.7201 69.9234 48.8834C70.0134 47.3001 69.59 45.8634 68.6534 44.5934C67.3634 42.8368 65.56 41.8801 63.47 41.4301C61.8367 41.0734 60.1867 41.0501 58.57 41.4968C57.5967 41.7634 56.6734 42.2134 55.7134 42.5468C53.8434 43.1968 51.94 43.7034 49.9434 43.7501C47.89 43.8001 46.0567 43.2568 44.6 41.7268C44.6 41.7268 44.4534 41.5601 44.4434 41.4868Z" fill="url(#paint8_linear_421_537)"/>
<path d="M59.9667 68.8701C60.5467 68.9934 61.12 69.1401 61.7067 69.2301C63.4367 69.4968 65.1133 69.3968 66.6667 68.4901C67.9333 67.7468 68.79 66.6268 69.4433 65.3401C70.6167 63.0401 71.0767 60.5868 70.9367 58.0201C70.89 57.2068 70.8433 56.5568 70.62 55.7668C70.59 55.6568 70.5467 55.5568 70.67 55.4368C71.6133 54.5068 72.8433 52.2001 73.0633 51.9368C73.0633 51.9368 73.4467 52.2301 73.0633 53.1168C72.6767 54.0068 71.38 55.4168 71.4367 55.7701C71.6633 57.2001 72.0167 59.2034 71.7633 61.2001C71.4967 63.3201 70.0733 66.1768 69.34 67.0868C68.6067 67.9934 65.6267 70.9768 61.7633 69.6634L59.9667 68.8701Z" fill="url(#paint9_linear_421_537)"/>
<path d="M57.6899 43.8201C57.6933 43.8534 57.8333 45.4401 58.9833 46.6267C59.9666 47.6167 60.9499 48.0067 61.8333 48.3434C62.7799 48.7034 63.7599 48.9901 64.6833 49.4134C66.1199 50.0701 67.4433 50.9001 68.5666 52.0867C68.6833 51.8367 68.7933 51.6101 68.8966 51.3767C68.8966 51.3767 66.7633 49.2534 64.0866 48.3434C61.4066 47.4334 60.4733 47.5234 57.6899 43.8201Z" fill="url(#paint10_linear_421_537)"/>
</g>
</g>
<rect x="1" y="1" width="110" height="110" rx="9" stroke="#CCCCCC" stroke-width="2"/>
<defs>
<linearGradient id="paint0_linear_421_537" x1="49.6318" y1="44.6433" x2="49.6318" y2="61.4162" gradientUnits="userSpaceOnUse">
<stop stop-color="white"/>
<stop offset="1" stop-color="white" stop-opacity="0"/>
</linearGradient>
<linearGradient id="paint1_linear_421_537" x1="46.8625" y1="57.0842" x2="46.8625" y2="71.0908" gradientUnits="userSpaceOnUse">
<stop stop-color="white"/>
<stop offset="1" stop-color="white" stop-opacity="0"/>
</linearGradient>
<linearGradient id="paint2_linear_421_537" x1="41.2541" y1="47.9534" x2="41.2541" y2="67.87" gradientUnits="userSpaceOnUse">
<stop stop-color="white"/>
<stop offset="1" stop-color="white" stop-opacity="0"/>
</linearGradient>
<linearGradient id="paint3_linear_421_537" x1="61.8585" y1="48.8633" x2="61.8585" y2="68.6033" gradientUnits="userSpaceOnUse">
<stop stop-color="white"/>
<stop offset="1" stop-color="white" stop-opacity="0"/>
</linearGradient>
<linearGradient id="paint4_linear_421_537" x1="47.6915" y1="59.0601" x2="47.6915" y2="69.0834" gradientUnits="userSpaceOnUse">
<stop stop-color="white"/>
<stop offset="1" stop-color="white" stop-opacity="0"/>
</linearGradient>
<linearGradient id="paint5_linear_421_537" x1="48.2483" y1="45.23" x2="48.2483" y2="55.37" gradientUnits="userSpaceOnUse">
<stop stop-color="white"/>
<stop offset="1" stop-color="white" stop-opacity="0"/>
</linearGradient>
<linearGradient id="paint6_linear_421_537" x1="43.4066" y1="43.3701" x2="43.4066" y2="48.7079" gradientUnits="userSpaceOnUse">
<stop stop-color="white"/>
<stop offset="1" stop-color="white" stop-opacity="0"/>
</linearGradient>
<linearGradient id="paint7_linear_421_537" x1="57.1934" y1="56.6033" x2="61.42" y2="56.6033" gradientUnits="userSpaceOnUse">
<stop stop-color="#847424"/>
<stop offset="0.258824" stop-color="#E5D71A"/>
<stop offset="0.65098" stop-color="#E5D71A"/>
<stop offset="0.85098" stop-color="#E5D71A"/>
<stop offset="0.980392" stop-color="#847424"/>
<stop offset="1" stop-color="#847424"/>
</linearGradient>
<linearGradient id="paint8_linear_421_537" x1="57.6904" y1="40.3213" x2="57.6904" y2="56.7368" gradientUnits="userSpaceOnUse">
<stop stop-color="white"/>
<stop offset="1" stop-color="white" stop-opacity="0"/>
</linearGradient>
<linearGradient id="paint9_linear_421_537" x1="66.6002" y1="51.9368" x2="66.6002" y2="69.9923" gradientUnits="userSpaceOnUse">
<stop stop-color="white"/>
<stop offset="1" stop-color="white" stop-opacity="0"/>
</linearGradient>
<linearGradient id="paint10_linear_421_537" x1="63.2933" y1="43.8201" x2="63.2933" y2="52.0867" gradientUnits="userSpaceOnUse">
<stop stop-color="white"/>
<stop offset="1" stop-color="white" stop-opacity="0"/>
</linearGradient>
<clipPath id="clip0_421_537">
<rect x="2" y="2" width="108" height="108" rx="8" fill="white"/>
</clipPath>
<clipPath id="clip1_421_537">
<rect width="80" height="80" fill="white" transform="translate(16 16)"/>
</clipPath>
</defs>
</svg>
