<svg width="112" height="112" viewBox="0 0 112 112" fill="none" xmlns="http://www.w3.org/2000/svg">
<g clip-path="url(#clip0_528_38)">
<rect x="2.00003" y="2" width="108" height="108" rx="8" fill="white"/>
<path d="M16 26.2359C16.1415 25.7237 16.2696 25.2047 16.4313 24.6992C17.6175 20.9789 21.257 18.2157 25.2131 18.0202C25.5366 18.0067 25.8602 18 26.1837 18C46.0455 18 65.9073 18 85.7759 18C89.7186 18 92.7919 19.6243 94.8273 23.048C95.69 24.497 95.9865 26.1078 95.9933 27.7725C96 46.4482 96.0135 65.1306 95.9933 83.8062C95.9933 89.3125 91.7068 93.5585 86.1803 93.5585C66.0489 93.572 45.9174 93.572 25.786 93.5585C21.0278 93.5585 17.1323 90.3302 16.1618 85.7001C16.1348 85.572 16.0607 85.4574 16.0135 85.3294C16.0135 65.6293 16.0135 45.9292 16.0135 26.2224L16 26.2359ZM81.7725 61.3698C80.3235 62.5223 78.9958 63.7557 77.4996 64.7329C73.9882 67.0379 70.1533 68.0017 65.9612 67.0918C63.3867 66.5324 61.1491 65.2856 59.0329 63.7557C58.5813 63.4322 57.7793 63.1356 57.3749 63.3243C56.984 63.513 56.7616 64.3353 56.7279 64.8947C56.6403 66.283 56.674 67.6849 56.7009 69.08C56.7683 72.0522 57.0986 74.984 58.2039 77.7742C59.107 80.0455 60.4347 82.0269 62.888 82.7952C64.5931 83.3277 66.3926 83.7658 68.1651 83.8601C71.9528 84.0623 75.7607 84.0084 79.5552 84.069C80.8694 84.0893 82.1904 84.1567 83.5046 84.2106C84.3673 84.2443 85.0817 83.9545 85.4187 83.1457C85.6681 82.5391 85.8366 81.8652 85.8635 81.2114C85.9242 79.8433 85.8635 78.4684 85.8635 77.0935C85.8635 64.9823 85.8433 52.8711 85.904 40.7599C85.9174 37.7742 85.1693 35.0177 83.9023 32.3757C82.8441 30.1719 81.3816 28.2915 79.0228 27.321C74.8778 25.6091 70.5847 24.8003 66.0893 25.2452C61.8096 25.6698 58.4802 27.6714 55.9528 31.1289C55.9528 31.1289 55.8719 31.0817 55.8315 31.0211C54.0522 28.2174 51.4305 26.5055 48.31 25.6967C43.8551 24.551 39.4406 25.1171 35.107 26.5122C33.2805 27.0986 31.481 27.7658 30.1601 29.262C27.6394 32.1196 26.3387 35.5434 26.1163 39.2502C25.8871 43.0581 26.1297 46.8863 26.123 50.7076C26.1163 60.2847 26.0826 69.8685 26.0691 79.4456C26.0691 80.3555 26.0691 81.2788 26.2039 82.1819C26.433 83.7253 27.3766 84.3656 28.8728 84.1432C29.1087 84.1095 29.3513 84.096 29.5939 84.096C32.9638 84.0758 36.3336 84.0623 39.6967 84.0421C42.5543 84.0219 45.3917 83.8803 48.1752 83.1053C49.8804 82.6335 51.3631 81.8247 52.3067 80.342C53.0615 79.1558 53.7287 77.8618 54.1601 76.5273C55.4271 72.6318 55.3597 68.5813 55.2721 64.5375C55.2721 64.3555 55.2115 64.1668 55.1575 63.9848C54.9217 63.203 54.4297 62.9469 53.6748 63.2906C53.2435 63.4928 52.8458 63.7826 52.4549 64.0657C46.6184 68.3319 40.2426 68.5543 34.2511 64.5846C32.8155 63.6344 31.5484 62.4212 30.1196 61.2552C31.2047 60.2039 32.0539 59.2603 33.0177 58.4515C36.2325 55.7557 39.8922 54.401 44.1516 54.9739C46.9621 55.3513 49.4692 56.4499 51.7675 58.0876C52.1112 58.3302 52.6302 58.337 53.0682 58.4583C53.0008 57.9528 52.9469 57.4406 52.8526 56.9351C52.8324 56.8273 52.6639 56.7464 52.583 56.6453C52.2325 56.1735 51.8147 55.7287 51.5451 55.2165C50.3589 52.9587 49.8062 50.5189 49.8265 47.9916C49.8534 44.6824 51.3092 41.8652 53.2098 39.2637C54.0253 38.1449 54.9756 37.1137 55.9865 35.9006C57.0514 37.2013 58.0758 38.3066 58.9385 39.5265C61.2637 42.829 62.7599 46.3808 61.9107 50.5526C61.4389 52.8576 60.9402 55.1356 59.1677 56.8812C58.9318 57.1103 58.8644 57.5619 58.8172 57.9258C58.743 58.5324 59.0194 58.7211 59.5923 58.4583C59.9562 58.2898 60.2797 58.0404 60.6099 57.8113C68.0101 52.8172 76.0438 54.2662 81.7658 61.3631L81.7725 61.3698Z" fill="#ED1C24"/>
</g>
<rect x="1" y="1" width="110" height="110" rx="9" stroke="#CCCCCC" stroke-width="2"/>
<defs>
<clipPath id="clip0_528_38">
<rect x="2" y="2" width="108" height="108" rx="8" fill="white"/>
</clipPath>
</defs>
</svg>
