<svg width="112" height="112" viewBox="0 0 112 112" fill="none" xmlns="http://www.w3.org/2000/svg">
<g clip-path="url(#clip0_517_511)">
<rect x="2" y="2" width="108" height="108" rx="8" fill="white"/>
<path fill-rule="evenodd" clip-rule="evenodd" d="M16.0001 44H96.0001V68.9392H16.0001V44Z" fill="#001244"/>
<path fill-rule="evenodd" clip-rule="evenodd" d="M20.4011 54.7543V48.401H22.2069C22.7565 48.401 23.1908 48.5351 23.5128 48.8031C23.8349 49.0722 23.9949 49.4223 23.9949 49.8535C23.9949 50.213 23.8983 50.5267 23.703 50.7927C23.5087 51.0587 23.2385 51.2478 22.8967 51.36V51.3777C23.3248 51.4275 23.6687 51.5896 23.9274 51.8618C24.184 52.1361 24.3128 52.4914 24.3128 52.9288C24.3128 53.4722 24.1175 53.9117 23.7279 54.2493C23.3383 54.587 22.8469 54.7543 22.2526 54.7543H20.4011ZM21.145 49.0722V51.1241H21.9056C22.3128 51.1241 22.6318 51.0254 22.8656 50.8291C23.0983 50.6317 23.2146 50.3553 23.2146 49.9979C23.2146 49.3808 22.8095 49.0722 21.998 49.0722H21.145ZM21.145 51.7953V54.0831H22.1559C22.5913 54.0831 22.93 53.9803 23.171 53.7725C23.411 53.5657 23.5326 53.2831 23.5326 52.9216C23.5326 52.1704 23.0214 51.7953 22.0001 51.7953H21.145ZM30.5237 54.7543H29.6978L29.0266 52.9756H26.3295L25.6946 54.7543H24.8687L27.305 48.401H28.077L30.5237 54.7543ZM28.7856 52.3034L27.7892 49.5927C27.7559 49.5054 27.7217 49.3642 27.6863 49.1719H27.6666C27.6365 49.3506 27.6022 49.493 27.5627 49.599L26.5746 52.3034H28.7856ZM36.5778 54.7543H35.6666L32.398 49.6893C32.3149 49.5626 32.2463 49.4296 32.1933 49.2914H32.1674C32.1902 49.4265 32.2027 49.7184 32.2027 50.1652V54.7543H31.4588V48.401H32.4219L35.6032 53.386C35.7362 53.5927 35.8214 53.734 35.8609 53.8109H35.8775C35.8484 53.628 35.8339 53.3164 35.8339 52.8758V48.401H36.5778V54.7543ZM42.6682 54.7543H41.6334L39.1783 51.8483C39.0879 51.7382 39.0297 51.6654 39.011 51.626H38.9923V54.7543H38.2484V48.401H38.9923V51.387H39.011C39.0515 51.3216 39.1076 51.2499 39.1783 51.1709L41.5523 48.401H42.478L39.7518 51.4493L42.6682 54.7543Z" fill="#FEFEFE"/>
<path fill-rule="evenodd" clip-rule="evenodd" d="M43.6541 54.4031V52.9995C43.9087 53.2125 44.1861 53.3714 44.4863 53.4774C44.7856 53.5844 45.0879 53.6384 45.3923 53.6384C45.571 53.6384 45.7289 53.6218 45.863 53.5906C45.9959 53.5574 46.1071 53.5138 46.1954 53.4556C46.2858 53.3984 46.3533 53.3309 46.397 53.254C46.4406 53.1761 46.4624 53.0919 46.4624 53.0005C46.4624 52.8779 46.4282 52.7678 46.3575 52.6722C46.2869 52.5745 46.1913 52.4862 46.0676 52.4031C45.9461 52.321 45.8027 52.241 45.6344 52.1662C45.4682 52.0904 45.2863 52.0114 45.0931 51.9325C44.6006 51.7288 44.2328 51.4774 43.9897 51.1823C43.7487 50.8852 43.6271 50.5278 43.6271 50.1091C43.6271 49.7808 43.6926 49.4982 43.8245 49.2634C43.9565 49.0275 44.1372 48.8322 44.3637 48.6805C44.5902 48.5278 44.8541 48.4166 45.1523 48.3449C45.4526 48.2732 45.7695 48.2369 46.103 48.2369C46.4313 48.2369 46.7222 48.2566 46.9757 48.2971C47.2292 48.3356 47.463 48.3969 47.678 48.48V49.7943C47.5731 49.7205 47.4578 49.6561 47.3331 49.601C47.2084 49.5439 47.0796 49.4971 46.9476 49.4608C46.8157 49.4234 46.6848 49.3964 46.5539 49.3797C46.424 49.3621 46.2993 49.3527 46.1819 49.3527C46.0198 49.3527 45.8744 49.3683 45.7424 49.3995C45.6105 49.4296 45.4983 49.4732 45.4079 49.5283C45.3165 49.5844 45.2458 49.6519 45.1959 49.7278C45.1471 49.8067 45.1211 49.893 45.1211 49.9906C45.1211 50.0956 45.1502 50.1901 45.2053 50.2743C45.2604 50.3574 45.3404 50.4364 45.4422 50.5112C45.5461 50.586 45.6707 50.6587 45.8172 50.7304C45.9648 50.8021 46.13 50.8758 46.3139 50.9527C46.5674 51.0587 46.7939 51.1699 46.9954 51.2883C47.1959 51.4067 47.3684 51.5418 47.5128 51.6904C47.6552 51.841 47.7663 52.0114 47.8432 52.2036C47.9201 52.3958 47.9575 52.6182 47.9575 52.8727C47.9575 53.226 47.891 53.52 47.757 53.76C47.624 53.999 47.4422 54.1922 47.2126 54.3387C46.985 54.4873 46.7191 54.5943 46.4146 54.6587C46.1113 54.7231 45.7902 54.7543 45.4526 54.7543C45.1076 54.7543 44.7772 54.7252 44.4656 54.666C44.1539 54.6078 43.8837 54.5205 43.6541 54.4031Z" fill="#FEFEFE"/>
<path fill-rule="evenodd" clip-rule="evenodd" d="M54.3585 51.9158C54.3585 53.8078 53.4765 54.7543 51.7133 54.7543C50.0022 54.7543 49.1461 53.8306 49.1461 51.9823V48.3449H50.5684V52.001C50.5684 53.0203 50.9663 53.5304 51.7632 53.5304C52.5456 53.5304 52.9362 53.0379 52.9362 52.054V48.3449H54.3585V51.9158Z" fill="#FEFEFE"/>
<path fill-rule="evenodd" clip-rule="evenodd" d="M59.4827 54.7543H55.729V48.453H57.1513V53.6021H59.4827V54.7543Z" fill="#FEFEFE"/>
<path fill-rule="evenodd" clip-rule="evenodd" d="M63.9523 49.6052H62.1518V54.7543H60.7295V49.6052H58.9383V48.453H63.9523V49.6052Z" fill="#FEFEFE"/>
<path fill-rule="evenodd" clip-rule="evenodd" d="M70.2037 54.7543H68.5736L67.5928 53.1325C67.5211 53.0099 67.4505 52.8997 67.383 52.8031C67.3154 52.7065 67.2479 52.6244 67.1783 52.5548C67.1097 52.4862 67.037 52.4332 66.9622 52.3979C66.8895 52.3605 66.8063 52.3418 66.7191 52.3418H66.3367V54.7543H64.9144V48.453H67.1648C68.6952 48.453 69.4609 49.0244 69.4609 50.1662C69.4609 50.3865 69.4276 50.5891 69.3601 50.7751C69.2926 50.961 69.197 51.1293 69.0733 51.2779C68.9508 51.4286 68.8022 51.5574 68.6276 51.6654C68.4541 51.7735 68.2609 51.8587 68.0458 51.92V51.9387C68.1404 51.9667 68.2308 52.0145 68.3191 52.081C68.4063 52.1465 68.4915 52.2234 68.5736 52.3117C68.6546 52.399 68.7346 52.4935 68.8084 52.5953C68.8832 52.6961 68.9518 52.7948 69.0131 52.8914L70.2037 54.7543ZM66.3367 49.5148V51.2706H66.9518C67.2562 51.2706 67.5014 51.1823 67.6853 51.0067C67.8733 50.828 67.9658 50.6057 67.9658 50.3418C67.9658 49.7912 67.6365 49.5148 66.9778 49.5148H66.3367Z" fill="#FEFEFE"/>
<path fill-rule="evenodd" clip-rule="evenodd" d="M76.7991 54.7543H75.25L74.8095 53.3506H72.5539L72.1175 54.7543H70.5778L72.8718 48.453H74.557L76.7991 54.7543ZM74.4822 52.2608L73.8006 50.1454C73.7508 49.9865 73.7154 49.7974 73.6946 49.5782H73.6593C73.6448 49.7631 73.6084 49.946 73.5492 50.1278L72.8604 52.2608H74.4822Z" fill="#FEFEFE"/>
<path fill-rule="evenodd" clip-rule="evenodd" d="M22.3502 60.56C22.5144 60.2431 22.6515 59.9896 22.7627 59.7984L24.051 57.6041H24.7295L23.9523 61.3392H23.4972L23.9076 59.3756C23.9565 59.146 24.0063 58.9226 24.0604 58.7054C24.1133 58.4883 24.1622 58.2982 24.2069 58.134H24.1819C24.0302 58.4426 23.837 58.7969 23.6001 59.1948L22.3108 61.3392H22.0874L21.6936 59.2675C21.6188 58.88 21.5554 58.5028 21.5004 58.134H21.4765C21.41 58.5756 21.3435 58.9642 21.2749 59.3008L20.8552 61.3392H20.4011L21.1772 57.6041H21.8079L22.2266 59.8795C22.2754 60.1413 22.3128 60.3688 22.3388 60.56H22.3502ZM26.8427 59.281C26.8188 59.2467 26.7897 59.2125 26.7575 59.1771C26.7253 59.1408 26.6869 59.1086 26.6443 59.0795C26.6017 59.0504 26.5539 59.0275 26.5009 59.0088C26.4479 58.9912 26.3876 58.9829 26.3211 58.9829C26.21 58.9829 26.1113 59.0067 26.0219 59.0545C25.9315 59.1034 25.8526 59.1678 25.784 59.2467C25.7154 59.3267 25.6552 59.4171 25.6063 59.519C25.5554 59.6218 25.5139 59.7278 25.4817 59.8379C25.4484 59.946 25.4245 60.054 25.4089 60.161C25.3923 60.266 25.385 60.3636 25.385 60.4509C25.385 60.5683 25.3954 60.666 25.4172 60.7418C25.438 60.8187 25.4682 60.8779 25.5045 60.9226C25.5419 60.9662 25.5856 60.9974 25.6333 61.0151C25.6822 61.0327 25.732 61.041 25.784 61.041C25.8754 61.041 25.9679 61.0171 26.0624 60.9704C26.1559 60.9226 26.2443 60.854 26.3253 60.7626C26.4074 60.6722 26.4822 60.5621 26.5466 60.4301C26.6121 60.3003 26.6619 60.1506 26.6972 59.9823L26.8427 59.281ZM26.53 60.9018C26.4666 60.9953 26.3991 61.0732 26.3253 61.1377C26.2536 61.2021 26.1798 61.254 26.1061 61.2935C26.0313 61.334 25.9565 61.3631 25.8837 61.3808C25.81 61.3984 25.7393 61.4078 25.6728 61.4078C25.5575 61.4078 25.4546 61.386 25.3663 61.3444C25.2759 61.3029 25.2011 61.2426 25.1388 61.1647C25.0785 61.0857 25.0318 60.9932 24.9996 60.8831C24.9684 60.773 24.9518 60.6514 24.9518 60.5174C24.9518 60.3667 24.9653 60.2151 24.9913 60.0634C25.0172 59.9117 25.0557 59.7652 25.1076 59.6239C25.1585 59.4826 25.2219 59.3517 25.2978 59.2291C25.3746 59.1075 25.4619 59.0005 25.5617 58.9091C25.6593 58.8187 25.7695 58.747 25.89 58.6951C26.0115 58.6421 26.1435 58.6161 26.2869 58.6161C26.4282 58.6161 26.5539 58.6462 26.6609 58.7044C26.7689 58.7636 26.8521 58.8457 26.9102 58.9506H26.9217L27.0495 58.6847H27.4006L26.9736 60.7252C26.9601 60.7969 26.9549 60.8488 26.9549 60.8841C26.9549 60.9288 26.9674 60.961 26.9923 60.9818C27.0172 61.0026 27.0619 61.013 27.1243 61.013C27.1772 61.013 27.2375 61.0067 27.3092 60.9953L27.2344 61.3538C27.1554 61.3704 27.0692 61.3787 26.9736 61.3787C26.8198 61.3787 26.7076 61.3423 26.6391 61.2696C26.5695 61.1979 26.5372 61.0743 26.5414 60.9018H26.53ZM28.3814 58.6847H28.8146L28.1632 61.8317C28.1341 61.974 28.0936 62.1008 28.0448 62.2099C27.9959 62.319 27.9315 62.4104 27.8536 62.4831C27.7757 62.5569 27.6801 62.6119 27.5689 62.6493C27.4567 62.6867 27.3248 62.7054 27.1721 62.7054C27.0827 62.7054 27.0017 62.6992 26.9289 62.6857C26.8562 62.6732 26.8043 62.6608 26.7731 62.6493L26.8448 62.2836C26.8998 62.2982 26.9559 62.3086 27.0131 62.3169C27.0713 62.3242 27.118 62.3283 27.1554 62.3283C27.2541 62.3283 27.3362 62.3169 27.4027 62.293C27.4682 62.2701 27.5243 62.2317 27.5689 62.1787C27.6136 62.1257 27.651 62.0561 27.6801 61.9709C27.7092 61.8847 27.7383 61.7808 27.7643 61.6582L28.3814 58.6847ZM28.4988 58.0675L28.5965 57.5875H29.0515L28.9539 58.0675H28.4988ZM30.1331 61.4078C29.972 61.4078 29.8328 61.387 29.7165 61.3475C29.5991 61.307 29.5024 61.2519 29.4276 61.1813C29.3518 61.1106 29.2957 61.0265 29.2593 60.9299C29.223 60.8332 29.2053 60.7273 29.2053 60.614C29.2053 60.5735 29.2084 60.5309 29.2126 60.4873C29.2178 60.4436 29.225 60.3948 29.2354 60.3408L29.5804 58.6847H30.0126L29.6749 60.3148C29.6656 60.3605 29.6583 60.4052 29.6521 60.4478C29.6469 60.4893 29.6437 60.5299 29.6437 60.5683C29.6437 60.64 29.6531 60.7044 29.6718 60.7626C29.6905 60.8218 29.7196 60.8717 29.7601 60.9122C29.7996 60.9538 29.8526 60.9849 29.9159 61.0078C29.9804 61.0296 30.0583 61.041 30.1497 61.041C30.265 61.041 30.3648 61.0254 30.4489 60.9932C30.5341 60.959 30.6069 60.9122 30.6661 60.8499C30.7253 60.7875 30.7741 60.7138 30.8115 60.6275C30.8489 60.5423 30.878 60.4457 30.9009 60.3397L31.2437 58.6847H31.677L31.3165 60.4104C31.2946 60.5195 31.2645 60.6234 31.2261 60.7231C31.1876 60.8239 31.1388 60.9153 31.0796 60.9995C30.9892 61.1221 30.8676 61.2218 30.7128 61.2956C30.5591 61.3704 30.3648 61.4078 30.1331 61.4078ZM35.2822 59.4348C35.3746 59.4525 35.4598 59.4805 35.5367 59.52C35.6146 59.5605 35.6811 59.6114 35.7362 59.6738C35.7923 59.7361 35.8359 59.8078 35.8671 59.8878C35.8972 59.9688 35.9128 60.0582 35.9128 60.1569C35.9128 60.2878 35.89 60.4114 35.8432 60.5309C35.7965 60.6493 35.7269 60.7574 35.6344 60.8551C35.543 60.9527 35.4276 61.0379 35.2884 61.1096C35.1502 61.1823 34.9871 61.2384 34.8011 61.2779C34.7004 61.2977 34.5933 61.3132 34.4791 61.3236C34.3637 61.334 34.2328 61.3392 34.0832 61.3392H33.1004L33.8796 57.6041H34.7533C34.8635 57.6041 34.9611 57.6073 35.0484 57.6135C35.1346 57.6208 35.223 57.6343 35.3123 57.6551C35.4214 57.68 35.5222 57.7195 35.6126 57.7714C35.703 57.8213 35.7798 57.8836 35.8443 57.9553C35.9087 58.026 35.9585 58.107 35.9939 58.1984C36.0292 58.2888 36.0469 58.3865 36.0469 58.4935C36.0469 58.7418 35.9783 58.9423 35.8432 59.0971C35.7071 59.2519 35.5201 59.361 35.2822 59.4244V59.4348ZM33.9097 59.6343L33.6396 60.9267H34.1508C34.2775 60.9267 34.3845 60.9236 34.4739 60.9153C34.5643 60.9091 34.6453 60.8966 34.717 60.879C34.852 60.8499 34.9643 60.8093 35.0557 60.7574C35.1461 60.7054 35.2209 60.6473 35.277 60.5808C35.3341 60.5153 35.3746 60.4447 35.3996 60.3699C35.4256 60.2951 35.438 60.2192 35.438 60.1434C35.438 60.0301 35.4058 59.9325 35.3414 59.8525C35.277 59.7714 35.1856 59.7132 35.0661 59.6769C34.9778 59.6488 34.8614 59.6343 34.7201 59.6343H33.9097ZM34.2484 58.0156L33.997 59.2229H34.6785C34.8053 59.2229 34.9227 59.2083 35.0297 59.1803C35.1378 59.1532 35.2333 59.1096 35.3144 59.0514C35.3944 58.9922 35.4578 58.9184 35.5035 58.8301C35.5492 58.7418 35.5721 58.6379 35.5721 58.5195C35.5721 58.3979 35.5367 58.2982 35.4671 58.2213C35.3975 58.1434 35.2978 58.0883 35.17 58.0551C35.118 58.0395 35.0609 58.0301 34.9996 58.0249C34.9383 58.0187 34.8687 58.0156 34.7928 58.0156H34.2484ZM38.7669 59.3018C38.7669 59.468 38.7253 59.6062 38.6432 59.7174C38.5611 59.8286 38.4437 59.919 38.2879 59.9875C38.1331 60.0571 37.9419 60.108 37.7175 60.1403C37.491 60.1735 37.2344 60.1932 36.9456 60.2005C36.9445 60.2213 36.9435 60.2421 36.9424 60.2628C36.9414 60.2826 36.9404 60.3054 36.9404 60.3293C36.9404 60.5725 37.0017 60.7501 37.1222 60.8623C37.2437 60.9735 37.4245 61.0296 37.6666 61.0296C37.73 61.0296 37.7954 61.0265 37.863 61.0171C37.9315 61.0099 37.9991 60.9974 38.0656 60.9818C38.1331 60.9673 38.1975 60.9486 38.2598 60.9288C38.3222 60.9101 38.3783 60.8883 38.4292 60.8644L38.3513 61.2561C38.2557 61.2977 38.1435 61.334 38.0146 61.3631C37.8848 61.3932 37.7445 61.4078 37.5939 61.4078C37.4037 61.4078 37.2406 61.3818 37.1045 61.3288C36.9674 61.2769 36.8541 61.2041 36.7658 61.1096C36.6775 61.0161 36.612 60.9039 36.5705 60.7751C36.5289 60.6462 36.5071 60.5039 36.5071 60.3491C36.5071 60.2078 36.5217 60.0675 36.5497 59.9252C36.5767 59.7839 36.6193 59.6488 36.6733 59.521C36.7284 59.3922 36.7959 59.2738 36.877 59.1636C36.958 59.0535 37.0515 58.959 37.1585 58.8779C37.2645 58.7969 37.384 58.7325 37.5139 58.6857C37.6458 58.639 37.7882 58.6161 37.9398 58.6161C38.05 58.6161 38.1549 58.6296 38.2546 58.6566C38.3533 58.6836 38.4417 58.7252 38.5175 58.7823C38.5954 58.8384 38.6546 58.9101 38.6993 58.9964C38.745 59.0836 38.7669 59.1844 38.7669 59.3018ZM37.0266 59.8119C37.2323 59.8119 37.4152 59.8016 37.5772 59.7808C37.7393 59.76 37.8765 59.7299 37.9876 59.6883C38.0988 59.6457 38.185 59.5927 38.2443 59.5262C38.3045 59.4597 38.3336 59.3797 38.3336 59.2852C38.3336 59.2457 38.3253 59.2083 38.3087 59.1709C38.2921 59.1345 38.2671 59.1023 38.2339 59.0753C38.1996 59.0473 38.158 59.0244 38.1092 59.0078C38.0593 58.9912 38.0032 58.9829 37.9398 58.9829C37.8339 58.9829 37.7331 59.0016 37.6375 59.041C37.5419 59.0795 37.4536 59.1356 37.3746 59.2083C37.2957 59.281 37.2261 59.3683 37.1658 59.4712C37.1066 59.573 37.0598 59.6873 37.0266 59.8119ZM40.8604 59.0566C40.8032 59.0493 40.7461 59.0452 40.69 59.0452C40.5601 59.0452 40.4427 59.067 40.3378 59.1106C40.2349 59.1553 40.1435 59.2145 40.0676 59.2893C39.9918 59.3652 39.9284 59.4525 39.8785 59.5532C39.8308 59.6551 39.7933 59.7621 39.7695 59.8753L39.464 61.3392H39.0318L39.5845 58.6847H39.9388V59.0462H39.9502C39.9949 58.987 40.0448 58.9309 40.0978 58.879C40.1528 58.827 40.212 58.7813 40.2806 58.7418C40.3471 58.7034 40.4198 58.6722 40.4998 58.6493C40.5788 58.6275 40.664 58.6161 40.7575 58.6161C40.7908 58.6161 40.824 58.6171 40.8552 58.6203C40.8863 58.6234 40.9175 58.6275 40.9476 58.6338L40.8604 59.0566ZM41.5367 59.3984C41.5367 59.4556 41.5482 59.5054 41.571 59.547C41.5949 59.5886 41.6261 59.6249 41.6656 59.6561C41.704 59.6873 41.7487 59.7132 41.8017 59.7351C41.8536 59.7579 41.9087 59.7797 41.9658 59.8005C42.0469 59.8275 42.1279 59.8577 42.21 59.8909C42.291 59.9231 42.3658 59.9657 42.4323 60.0156C42.4998 60.0675 42.5549 60.1319 42.5975 60.2099C42.6401 60.2888 42.6619 60.3886 42.6619 60.5112C42.6619 60.6577 42.6349 60.7875 42.5788 60.8997C42.5237 61.0109 42.4479 61.1044 42.3502 61.1792C42.2526 61.2551 42.1362 61.3122 42.0022 61.3506C41.8661 61.388 41.7185 61.4078 41.5585 61.4078C41.4152 61.4078 41.2708 61.3922 41.1243 61.361C40.9778 61.3309 40.8635 61.2914 40.7793 61.2416L40.8604 60.881C40.9591 60.9236 41.0661 60.961 41.1824 60.9932C41.2988 61.0254 41.4245 61.041 41.5585 61.041C41.704 61.041 41.8204 61.0244 41.9087 60.9901C41.998 60.9548 42.0666 60.9122 42.1165 60.8634C42.1653 60.8135 42.1985 60.7616 42.2131 60.7075C42.2297 60.6535 42.237 60.6067 42.237 60.5673C42.237 60.4956 42.2204 60.4343 42.1861 60.3854C42.1528 60.3377 42.1092 60.2971 42.0562 60.2639C42.0022 60.2296 41.9409 60.2005 41.8713 60.1745C41.8027 60.1506 41.7321 60.1247 41.6593 60.0987C41.5897 60.0717 41.5222 60.0436 41.4557 60.0114C41.3892 59.9771 41.33 59.9377 41.278 59.8909C41.2271 59.8431 41.1856 59.7839 41.1534 59.7143C41.1222 59.6447 41.1066 59.5605 41.1066 59.4587C41.1066 59.3164 41.1326 59.1917 41.1845 59.0867C41.2365 58.9818 41.3071 58.8935 41.3954 58.8239C41.4837 58.7543 41.5856 58.7023 41.7009 58.668C41.8162 58.6338 41.9388 58.6161 42.0676 58.6161C42.1435 58.6161 42.2193 58.6213 42.2931 58.6317C42.3679 58.641 42.4396 58.6545 42.5082 58.6722C42.5778 58.6878 42.6422 58.7065 42.7024 58.7283C42.7627 58.7491 42.8167 58.7719 42.8624 58.7958L42.7866 59.148C42.6754 59.1013 42.5611 59.0618 42.4427 59.0296C42.3253 58.9984 42.2069 58.9829 42.0895 58.9829C42.0001 58.9829 41.9211 58.9932 41.8515 59.0151C41.783 59.0358 41.7248 59.0649 41.678 59.1013C41.6313 59.1377 41.597 59.1813 41.5731 59.2322C41.5492 59.2831 41.5367 59.3382 41.5367 59.3984ZM45.1024 59.281C45.0785 59.2467 45.0495 59.2125 45.0172 59.1771C44.985 59.1408 44.9466 59.1086 44.904 59.0795C44.8624 59.0504 44.8136 59.0275 44.7606 59.0088C44.7076 58.9912 44.6474 58.9829 44.5809 58.9829C44.4708 58.9829 44.371 59.0067 44.2817 59.0545C44.1923 59.1034 44.1133 59.1678 44.0448 59.2467C43.9762 59.3267 43.9159 59.4171 43.8661 59.519C43.8152 59.6218 43.7736 59.7278 43.7414 59.8379C43.7092 59.946 43.6853 60.054 43.6687 60.161C43.6521 60.266 43.6448 60.3636 43.6448 60.4509C43.6448 60.5683 43.6552 60.666 43.677 60.7418C43.6988 60.8187 43.7279 60.8779 43.7653 60.9226C43.8017 60.9662 43.8453 60.9974 43.8941 61.0151C43.9419 61.0327 43.9918 61.041 44.0448 61.041C44.1362 61.041 44.2287 61.0171 44.3222 60.9704C44.4157 60.9226 44.504 60.854 44.5861 60.7626C44.6682 60.6722 44.7419 60.5621 44.8074 60.4301C44.8718 60.3003 44.9227 60.1506 44.957 59.9823L45.1024 59.281ZM44.7897 60.9018C44.7263 60.9953 44.6588 61.0732 44.5861 61.1377C44.5134 61.2021 44.4396 61.254 44.3658 61.2935C44.291 61.334 44.2172 61.3631 44.1435 61.3808C44.0697 61.3984 43.9991 61.4078 43.9326 61.4078C43.8172 61.4078 43.7144 61.386 43.6261 61.3444C43.5367 61.3029 43.4609 61.2426 43.3985 61.1647C43.3383 61.0857 43.2915 60.9932 43.2593 60.8831C43.2282 60.773 43.2126 60.6514 43.2126 60.5174C43.2126 60.3667 43.225 60.2151 43.251 60.0634C43.277 59.9117 43.3165 59.7652 43.3674 59.6239C43.4183 59.4826 43.4817 59.3517 43.5585 59.2291C43.6344 59.1075 43.7217 59.0005 43.8214 58.9091C43.9191 58.8187 44.0292 58.747 44.1497 58.6951C44.2713 58.6421 44.4032 58.6161 44.5466 58.6161C44.6889 58.6161 44.8136 58.6462 44.9217 58.7044C45.0287 58.7636 45.1118 58.8457 45.17 58.9506H45.1814L45.3092 58.6847H45.6604L45.2333 60.7252C45.2209 60.7969 45.2146 60.8488 45.2146 60.8841C45.2146 60.9288 45.2271 60.961 45.252 60.9818C45.278 61.0026 45.3217 61.013 45.384 61.013C45.437 61.013 45.4983 61.0067 45.5689 60.9953L45.4941 61.3538C45.4162 61.3704 45.3289 61.3787 45.2333 61.3787C45.0796 61.3787 44.9674 61.3423 44.8988 61.2696C44.8292 61.1979 44.797 61.0743 44.8011 60.9018H44.7897ZM48.4624 59.1605C48.5289 59.0649 48.6017 58.9818 48.6796 58.9122C48.7575 58.8436 48.8385 58.7875 48.9217 58.7429C49.0048 58.6992 49.0879 58.668 49.171 58.6473C49.2552 58.6265 49.3372 58.6161 49.4172 58.6161C49.5139 58.6161 49.6043 58.6306 49.6863 58.6597C49.7695 58.6888 49.8401 58.7304 49.9004 58.7844C49.9596 58.8374 50.0063 58.9049 50.0417 58.9849C50.0759 59.0649 50.0936 59.1564 50.0936 59.2592C50.0936 59.3309 50.0863 59.4088 50.0749 59.4909C50.0624 59.573 50.0479 59.6561 50.0282 59.7413L49.6967 61.3392H49.2635L49.6126 59.6509C49.6271 59.5782 49.6375 59.5169 49.6427 59.4691C49.6458 59.4203 49.6489 59.3818 49.6489 59.3538C49.6489 59.227 49.6167 59.1335 49.5502 59.0722C49.4858 59.0099 49.4006 58.9808 49.2946 58.9829C49.1897 58.9829 49.0889 59.0057 48.9892 59.0514C48.8915 59.0971 48.8001 59.1595 48.7191 59.2395C48.637 59.3195 48.5674 59.414 48.5082 59.5221C48.45 59.6301 48.4074 59.7465 48.3814 59.8732L48.077 61.3392H47.6437L47.9928 59.653C48.0074 59.5803 48.0167 59.519 48.0219 59.4701C48.0271 59.4234 48.0292 59.3849 48.0292 59.3558C48.0271 59.2218 47.9928 59.1252 47.9274 59.068C47.8609 59.0109 47.7767 58.9829 47.6749 58.9829C47.57 58.9829 47.4692 59.0057 47.3695 59.0514C47.2718 59.0971 47.1814 59.1595 47.1014 59.2395C47.0204 59.3195 46.9497 59.414 46.8895 59.5221C46.8302 59.6301 46.7876 59.7465 46.7617 59.8732L46.4572 61.3392H46.024L46.5767 58.6847H46.931V59.0462H46.9424C47.0567 58.9091 47.1876 58.8021 47.3362 58.7283C47.4848 58.6535 47.6427 58.6161 47.8089 58.6161C47.8962 58.6161 47.9762 58.6275 48.05 58.6514C48.1237 58.6743 48.1882 58.7096 48.2463 58.7553C48.3024 58.8021 48.3492 58.8592 48.3845 58.9267C48.4198 58.9932 48.4417 59.0712 48.451 59.1605H48.4624ZM52.4718 59.281C52.4479 59.2467 52.4188 59.2125 52.3866 59.1771C52.3544 59.1408 52.3159 59.1086 52.2733 59.0795C52.2308 59.0504 52.183 59.0275 52.13 59.0088C52.077 58.9912 52.0167 58.9829 51.9502 58.9829C51.8391 58.9829 51.7404 59.0067 51.651 59.0545C51.5606 59.1034 51.4817 59.1678 51.4131 59.2467C51.3445 59.3267 51.2843 59.4171 51.2354 59.519C51.1845 59.6218 51.143 59.7278 51.1097 59.8379C51.0775 59.946 51.0536 60.054 51.038 60.161C51.0214 60.266 51.0141 60.3636 51.0141 60.4509C51.0141 60.5683 51.0245 60.666 51.0463 60.7418C51.0671 60.8187 51.0972 60.8779 51.1336 60.9226C51.171 60.9662 51.2146 60.9974 51.2624 61.0151C51.3113 61.0327 51.3611 61.041 51.4131 61.041C51.5045 61.041 51.597 61.0171 51.6915 60.9704C51.785 60.9226 51.8723 60.854 51.9544 60.7626C52.0365 60.6722 52.1113 60.5621 52.1757 60.4301C52.2411 60.3003 52.291 60.1506 52.3263 59.9823L52.4718 59.281ZM52.1591 60.9018C52.0957 60.9953 52.0282 61.0732 51.9544 61.1377C51.8827 61.2021 51.8089 61.254 51.7341 61.2935C51.6604 61.334 51.5856 61.3631 51.5128 61.3808C51.4391 61.3984 51.3684 61.4078 51.3019 61.4078C51.1866 61.4078 51.0837 61.386 50.9944 61.3444C50.905 61.3029 50.8302 61.2426 50.7679 61.1647C50.7066 61.0857 50.6598 60.9932 50.6287 60.8831C50.5975 60.773 50.5809 60.6514 50.5809 60.5174C50.5809 60.3667 50.5944 60.2151 50.6204 60.0634C50.6463 59.9117 50.6848 59.7652 50.7367 59.6239C50.7866 59.4826 50.851 59.3517 50.9269 59.2291C51.0037 59.1075 51.091 59.0005 51.1897 58.9091C51.2884 58.8187 51.3975 58.747 51.5191 58.6951C51.6406 58.6421 51.7726 58.6161 51.9159 58.6161C52.0572 58.6161 52.183 58.6462 52.29 58.7044C52.398 58.7636 52.4811 58.8457 52.5393 58.9506H52.5508L52.6785 58.6847H53.0297L52.6027 60.7252C52.5892 60.7969 52.584 60.8488 52.584 60.8841C52.584 60.9288 52.5965 60.961 52.6214 60.9818C52.6463 61.0026 52.69 61.013 52.7534 61.013C52.8063 61.013 52.8666 61.0067 52.9383 60.9953L52.8635 61.3538C52.7845 61.3704 52.6983 61.3787 52.6027 61.3787C52.4489 61.3787 52.3367 61.3423 52.2682 61.2696C52.1985 61.1979 52.1663 61.0743 52.1705 60.9018H52.1591Z" fill="#FEFEFE"/>
<path fill-rule="evenodd" clip-rule="evenodd" d="M67.9482 64.7023C74.985 58.266 82.8687 54.5527 91.5991 53.5647C79.9866 53.4431 69.5087 57.1564 60.1663 64.7023H67.9482Z" fill="#C58E10"/>
</g>
<rect x="1" y="1" width="110" height="110" rx="9" stroke="#CCCCCC" stroke-width="2"/>
<defs>
<clipPath id="clip0_517_511">
<rect x="2" y="2" width="108" height="108" rx="8" fill="white"/>
</clipPath>
</defs>
</svg>
