<svg width="112" height="112" viewBox="0 0 112 112" fill="none" xmlns="http://www.w3.org/2000/svg">
<g clip-path="url(#clip0_302_1300)">
<rect x="2" y="2" width="108" height="108" rx="8" fill="white"/>
<path fill-rule="evenodd" clip-rule="evenodd" d="M46.93 45.9567C49.3078 46.8781 51.6756 47.8688 53.9839 48.9883C46.5932 51.9604 39.4105 55.5171 32.6143 59.6087C30.3059 58.4199 27.9282 57.231 25.5604 56.1808C32.4161 52.2279 39.5393 48.8 46.93 45.9567Z" fill="#0067B1"/>
<path fill-rule="evenodd" clip-rule="evenodd" d="M38.0929 42.8558C30.4446 45.2929 23.0539 48.4632 16 52.2873C18.239 53.1493 20.4879 54.0013 22.6576 54.9226C29.4539 50.9004 36.6365 47.5418 44.0867 44.8966C42.1053 44.1734 40.1337 43.4502 38.083 42.8558H38.0929Z" fill="#0067B1"/>
<path fill-rule="evenodd" clip-rule="evenodd" d="M62.9498 45.6297C56.8867 42.7269 50.6155 40.2898 44.2254 38.3084C41.917 38.9722 39.678 39.6954 37.4985 40.4186C44.0966 42.4 50.556 44.9065 56.7579 47.8687C58.7988 47.0762 60.8495 46.353 62.9598 45.6297H62.9498Z" fill="#EE2A24"/>
<path fill-rule="evenodd" clip-rule="evenodd" d="M72.7777 42.7269C66.6452 40.0223 60.2452 37.7833 53.7164 36C51.6062 36.3963 49.5653 36.8619 47.5145 37.387C53.974 39.2991 60.3046 41.6768 66.3777 44.5796C68.4879 43.9158 70.6675 43.2619 72.7777 42.7368V42.7269Z" fill="#EE2A24"/>
<path fill-rule="evenodd" clip-rule="evenodd" d="M88.6093 47.9976C73.1145 53.2087 58.6006 60.6589 45.4836 69.9616C48.7827 72.0025 51.943 74.1127 55.044 76.4211C67.4378 66.5932 81.2285 58.4199 96 52.218C93.5629 50.7022 91.1158 49.3152 88.6093 47.9976Z" fill="#EE2A24"/>
<path fill-rule="evenodd" clip-rule="evenodd" d="M77.9195 42.9846C61.8303 47.205 46.7319 54.0607 33.0799 63.1654C36.1114 64.6812 39.143 66.2663 42.1152 67.9802C55.4997 58.7468 70.3405 51.4948 86.1622 46.7493C83.4576 45.4316 80.7529 44.114 77.9195 42.9945V42.9846Z" fill="#EE2A24"/>
</g>
<rect x="1" y="1" width="110" height="110" rx="9" stroke="#CCCCCC" stroke-width="2"/>
<defs>
<clipPath id="clip0_302_1300">
<rect x="2" y="2" width="108" height="108" rx="8" fill="white"/>
</clipPath>
</defs>
</svg>
