<svg width="112" height="112" viewBox="0 0 112 112" fill="none" xmlns="http://www.w3.org/2000/svg">
<g clip-path="url(#clip0_421_550)">
<rect x="2" y="2" width="108" height="108" rx="8" fill="white"/>
<g clip-path="url(#clip1_421_550)">
<path fill-rule="evenodd" clip-rule="evenodd" d="M50.2475 57.5254L50.2045 57.5582L49.2746 58.3954C48.3808 59.0915 47.8057 59.6621 46.7706 60.3853C45.6644 61.1593 44.7955 61.8327 43.556 62.5231L41.739 63.4316C40.3582 64.0757 37.7819 65.0169 35.9311 64.157C34.3865 63.4406 34.2565 61.9084 34.2475 60.4361C34.2441 59.8011 34.4057 59.3536 34.4509 58.8203C34.0599 59.0858 33.3853 62.3954 33.348 62.7672C33.1141 65.0904 33.5718 66.9717 35.3017 68.1695C36.7616 69.1819 38.7469 69.2113 40.4599 69.0203C40.8407 68.9785 41.1763 68.9231 41.5492 68.8486C43.461 68.4655 45.3085 67.7163 46.974 66.8497C47.1232 66.7717 47.1932 66.7141 47.3593 66.6293C47.9153 66.348 48.0543 66.2327 48.5729 65.9243C49.0588 65.635 50.2859 64.7943 50.7492 64.4135L53.0565 62.3785C53.3175 62.0621 53.7096 61.7288 54.0271 61.3774L54.3853 60.9762L55.4859 59.6067C55.6803 59.3582 55.8384 59.1186 56.0125 58.8712C56.7639 57.8056 56.9062 57.6045 57.548 56.5186L58.4599 54.8565C58.6136 54.5514 58.7096 54.296 58.8565 53.9898C58.9932 53.7039 59.1334 53.3841 59.2362 53.1073C60.3887 50.0034 61.1989 45.7593 58.4995 43.1536C57.8972 42.5717 56.6927 42.0745 55.8079 42.0079L55.7808 42.0056H54.3322C52.9469 42.1062 51.6396 42.487 50.3706 43.0293C49.7718 43.2847 49.1944 43.548 48.6373 43.8723C48.2848 44.0768 47.1966 44.5977 47.0238 44.8339C47.2045 44.7785 47.2045 44.7864 47.3627 44.7186C49.2757 43.8926 52.6938 42.8994 54.5322 43.9909C54.9435 44.235 55.2396 44.4949 55.4735 44.9175C56.3944 46.5796 55.7639 49.2079 54.9684 50.9096C54.8644 51.1333 54.7932 51.3367 54.6983 51.5491C54.3006 52.4508 53.2147 54.1536 52.5492 55.0045C52.4712 55.1039 52.4339 55.1649 52.356 55.2655L51.2531 56.5356C50.9786 56.8079 50.5932 57.2474 50.3141 57.4576L50.2475 57.5254Z" fill="#6579B3"/>
<path d="M16 49.3988H19.2949C19.9492 49.3988 20.435 49.4248 20.7548 49.479C21.0768 49.5344 21.3627 49.6474 21.6158 49.818C21.8689 49.9909 22.0802 50.2191 22.2497 50.505C22.4181 50.7909 22.5028 51.1129 22.5028 51.4677C22.5028 51.8519 22.3989 52.2067 22.1921 52.5265C21.9842 52.8485 21.7028 53.0892 21.348 53.2497C21.8486 53.3977 22.2316 53.6474 22.5028 53.9999C22.7706 54.3525 22.9051 54.7672 22.9051 55.2451C22.9051 55.6203 22.8192 55.9852 22.6441 56.34C22.4701 56.6948 22.2316 56.9785 21.9288 57.192C21.6282 57.4022 21.2554 57.5333 20.8124 57.583C20.5367 57.6112 19.8667 57.6304 18.8056 57.6384H16V49.3988ZM17.6689 50.7683V52.6666H18.7582C19.4045 52.6666 19.8079 52.6576 19.965 52.6384C20.2486 52.6056 20.4734 52.5073 20.6362 52.3446C20.7989 52.1819 20.8791 51.9683 20.8791 51.7039C20.8791 51.4485 20.809 51.244 20.6689 51.0847C20.5288 50.9254 20.3198 50.8293 20.0429 50.7965C19.878 50.7773 19.4045 50.7683 18.6237 50.7683H17.6689ZM17.6689 54.0361V56.2463H19.2113C19.809 56.2463 20.191 56.2293 20.3525 56.1965C20.6 56.1502 20.8011 56.0406 20.9559 55.8666C21.1119 55.6892 21.191 55.4576 21.191 55.1638C21.191 54.9152 21.1311 54.7061 21.0102 54.5333C20.8915 54.3604 20.7164 54.2338 20.4904 54.1547C20.2644 54.0768 19.7706 54.0361 19.0136 54.0361H17.6689Z" fill="#332C2B"/>
<path d="M25.4734 53.5073L24.0463 53.2542C24.2079 52.6711 24.4859 52.2395 24.8791 51.9593C25.2723 51.6791 25.8576 51.5389 26.6316 51.5389C27.3356 51.5389 27.8621 51.6214 28.2068 51.7887C28.5503 51.9548 28.7943 52.1661 28.9333 52.4237C29.0734 52.6802 29.1446 53.1502 29.1446 53.8372L29.122 55.6779C29.122 56.2022 29.1469 56.5898 29.1966 56.8384C29.2463 57.0881 29.3401 57.3548 29.4791 57.6384H27.913C27.8734 57.5356 27.8215 57.3819 27.7616 57.1785C27.7367 57.0847 27.7175 57.0226 27.7062 56.9943C27.4373 57.2587 27.1503 57.4565 26.8429 57.5887C26.5367 57.7209 26.2102 57.7887 25.8633 57.7887C25.2508 57.7887 24.7672 57.6214 24.4147 57.2881C24.0621 56.9559 23.8859 56.5333 23.8859 56.0237C23.8859 55.6881 23.9661 55.3864 24.1265 55.122C24.2881 54.8587 24.513 54.6565 24.8045 54.5163C25.0938 54.3762 25.5119 54.2531 26.0587 54.148C26.7955 54.0101 27.3073 53.8791 27.5909 53.7604V53.6011C27.5909 53.2937 27.5164 53.0757 27.3672 52.9435C27.2147 52.8124 26.9311 52.7468 26.5152 52.7468C26.2328 52.7468 26.0147 52.8033 25.8576 52.9163C25.6983 53.0271 25.5717 53.2248 25.4734 53.5073ZM27.5909 54.7841C27.3898 54.8519 27.0689 54.9322 26.6305 55.0259C26.1932 55.1197 25.9051 55.2124 25.7706 55.3005C25.5661 55.4485 25.4621 55.6327 25.4621 55.8565C25.4621 56.0791 25.5446 56.2689 25.7096 56.4305C25.8746 56.5909 26.0836 56.6723 26.339 56.6723C26.6226 56.6723 26.8949 56.5774 27.1537 56.392C27.3435 56.2474 27.47 56.0757 27.5299 55.8678C27.5695 55.7344 27.5909 55.4768 27.5909 55.0994V54.7841Z" fill="#332C2B"/>
<path d="M36.1322 57.6384H34.5559V54.5943C34.5559 53.9502 34.5209 53.5344 34.4543 53.3457C34.3853 53.1559 34.2757 53.0101 34.122 52.905C33.9684 52.7988 33.7842 52.7468 33.5695 52.7468C33.2938 52.7468 33.0463 52.8226 32.8283 52.9717C32.6068 53.1209 32.4576 53.3209 32.3774 53.5661C32.2949 53.8135 32.2543 54.27 32.2543 54.9378V57.6384H30.678V51.6655H32.139V52.5423C32.6622 51.8723 33.3209 51.5389 34.1164 51.5389C34.4655 51.5389 34.7865 51.6022 35.0757 51.7265C35.3672 51.8531 35.5853 52.0124 35.7333 52.2067C35.8836 52.4022 35.9865 52.6226 36.0441 52.87C36.104 53.1175 36.1322 53.47 36.1322 53.931V57.6384Z" fill="#332C2B"/>
<path d="M37.6724 57.6384V49.3988H39.2498V53.7694L41.0961 51.6655H43.0419L41.0046 53.8485L43.191 57.6384H41.4882L39.9808 54.9434L39.2498 55.7265V57.6384H37.6724Z" fill="#332C2B"/>
<path d="M61.8124 57.6384V49.3988H63.4282L66.8192 54.9208V49.3988H68.3615V57.6384H66.6949L63.3548 52.2214V57.6384H61.8124Z" fill="#332C2B"/>
<path d="M71.2859 53.5073L69.8599 53.2542C70.0204 52.6711 70.2984 52.2395 70.6916 51.9593C71.0848 51.6791 71.6701 51.5389 72.4453 51.5389C73.1492 51.5389 73.6746 51.6214 74.0193 51.7887C74.3628 51.9548 74.6068 52.1661 74.7469 52.4237C74.8871 52.6802 74.9583 53.1502 74.9583 53.8372L74.9345 55.6779C74.9345 56.2022 74.9594 56.5898 75.0091 56.8384C75.0599 57.0881 75.1537 57.3548 75.2916 57.6384H73.7266C73.6859 57.5356 73.634 57.3819 73.5752 57.1785C73.5503 57.0847 73.5311 57.0226 73.5187 56.9943C73.2509 57.2587 72.9628 57.4565 72.6566 57.5887C72.3492 57.7209 72.0227 57.7887 71.6758 57.7887C71.0645 57.7887 70.5808 57.6214 70.2272 57.2881C69.8746 56.9559 69.6984 56.5333 69.6984 56.0237C69.6984 55.6881 69.7786 55.3864 69.9402 55.122C70.1006 54.8587 70.3255 54.6565 70.617 54.5163C70.9063 54.3762 71.3244 54.2531 71.8712 54.148C72.608 54.0101 73.1198 53.8791 73.4046 53.7604V53.6011C73.4046 53.2937 73.3289 53.0757 73.1797 52.9435C73.0283 52.8124 72.7447 52.7468 72.3277 52.7468C72.0464 52.7468 71.8272 52.8033 71.6701 52.9163C71.5108 53.0271 71.3842 53.2248 71.2859 53.5073ZM73.4046 54.7841C73.2023 54.8519 72.8825 54.9322 72.443 55.0259C72.0057 55.1197 71.7176 55.2124 71.5842 55.3005C71.3786 55.4485 71.2746 55.6327 71.2746 55.8565C71.2746 56.0791 71.3571 56.2689 71.5221 56.4305C71.6871 56.5909 71.8961 56.6723 72.1515 56.6723C72.4351 56.6723 72.7074 56.5774 72.9673 56.392C73.1571 56.2474 73.2837 56.0757 73.3424 55.8678C73.3831 55.7344 73.4046 55.4768 73.4046 55.0994V54.7841Z" fill="#332C2B"/>
<path d="M76.3639 58.018L78.1707 58.2372C78.2012 58.4497 78.2701 58.5954 78.3774 58.6768C78.5289 58.7898 78.765 58.8474 79.087 58.8474C79.4995 58.8474 79.8091 58.7853 80.0159 58.661C80.1537 58.5785 80.2599 58.4463 80.33 58.2621C80.3786 58.131 80.4034 57.8881 80.4034 57.5367L80.4113 56.6644C79.9356 57.3141 79.3368 57.6384 78.6159 57.6384C77.8136 57.6384 77.1774 57.2994 76.7085 56.6214C76.3413 56.087 76.1571 55.4192 76.1571 54.6237C76.1571 53.6226 76.3978 52.8587 76.8803 52.331C77.3616 51.8033 77.9616 51.5389 78.6791 51.5389C79.417 51.5389 80.0272 51.8632 80.5074 52.5118V51.6655H81.9797V57.0214C81.9797 57.7254 81.9221 58.2519 81.8057 58.6C81.6904 58.9491 81.5277 59.2214 81.3164 59.4203C81.1074 59.618 80.8272 59.7751 80.4757 59.887C80.1255 60 79.6825 60.0553 79.1469 60.0553C78.1345 60.0553 77.417 59.8813 76.9933 59.5333C76.5695 59.1841 76.3582 58.7457 76.3582 58.2101C76.3582 58.1581 76.3594 58.0937 76.3639 58.018ZM77.7797 54.531C77.7797 55.1638 77.9017 55.6259 78.1458 55.9197C78.391 56.2135 78.6938 56.3615 79.0532 56.3615C79.4362 56.3615 79.7628 56.2101 80.0272 55.9084C80.2938 55.6067 80.426 55.1627 80.426 54.5717C80.426 53.9536 80.2995 53.496 80.0441 53.1966C79.791 52.8971 79.469 52.7468 79.0803 52.7468C78.7017 52.7468 78.391 52.8949 78.1458 53.1887C77.9017 53.4824 77.7797 53.9288 77.7797 54.531Z" fill="#332C2B"/>
<path d="M84.7175 53.5073L83.2904 53.2542C83.4508 52.6711 83.7288 52.2395 84.122 51.9593C84.5152 51.6791 85.1005 51.5389 85.8757 51.5389C86.5796 51.5389 87.1051 51.6214 87.4508 51.7887C87.7943 51.9548 88.0373 52.1661 88.1774 52.4237C88.3175 52.6802 88.3887 53.1502 88.3887 53.8372L88.3649 55.6779C88.3649 56.2022 88.3898 56.5898 88.4395 56.8384C88.4904 57.0881 88.5842 57.3548 88.722 57.6384H87.157C87.1164 57.5356 87.0644 57.3819 87.0056 57.1785C86.9808 57.0847 86.9615 57.0226 86.9502 56.9943C86.6813 57.2587 86.3932 57.4565 86.087 57.5887C85.7796 57.7209 85.4542 57.7887 85.1062 57.7887C84.4949 57.7887 84.0113 57.6214 83.6587 57.2881C83.3051 56.9559 83.1288 56.5333 83.1288 56.0237C83.1288 55.6881 83.209 55.3864 83.3706 55.122C83.5322 54.8587 83.7559 54.6565 84.0474 54.5163C84.3367 54.3762 84.7559 54.2531 85.3017 54.148C86.0384 54.0101 86.5503 53.8791 86.835 53.7604V53.6011C86.835 53.2937 86.7604 53.0757 86.6101 52.9435C86.4587 52.8124 86.1751 52.7468 85.7582 52.7468C85.4768 52.7468 85.2576 52.8033 85.1005 52.9163C84.9412 53.0271 84.8147 53.2248 84.7175 53.5073ZM86.835 54.7841C86.6339 54.8519 86.313 54.9322 85.8734 55.0259C85.4361 55.1197 85.1491 55.2124 85.0147 55.3005C84.809 55.4485 84.705 55.6327 84.705 55.8565C84.705 56.0791 84.7875 56.2689 84.9525 56.4305C85.1175 56.5909 85.3265 56.6723 85.5819 56.6723C85.8655 56.6723 86.139 56.5774 86.3977 56.392C86.5875 56.2474 86.7141 56.0757 86.7729 55.8678C86.8135 55.7344 86.835 55.4768 86.835 55.0994V54.7841Z" fill="#332C2B"/>
<path d="M91.4519 57.6384H89.8745V51.6655H91.3367V52.513C91.5875 52.113 91.8146 51.8497 92.0158 51.7254C92.2169 51.6 92.4451 51.5389 92.7005 51.5389C93.061 51.5389 93.4078 51.6384 93.7423 51.8361L93.253 53.2135C92.9864 53.0406 92.7389 52.9548 92.5107 52.9548C92.2881 52.9548 92.0994 53.0158 91.9468 53.1367C91.7932 53.2598 91.6723 53.4779 91.5841 53.7966C91.496 54.1152 91.4519 54.783 91.4519 55.7966V57.6384Z" fill="#332C2B"/>
<path d="M94.4226 50.8598V49.3988H96V50.8598H94.4226ZM94.4226 57.6384V51.6655H96V57.6384H94.4226Z" fill="#332C2B"/>
<path fill-rule="evenodd" clip-rule="evenodd" d="M50.1672 53.4813L50.2621 57.4745L46.0181 57.3717L50.1672 53.4813Z" fill="#E62129"/>
<path fill-rule="evenodd" clip-rule="evenodd" d="M50.2622 57.4745H54.3051V61.34H50.2622V57.4745Z" fill="#FFF000"/>
<path fill-rule="evenodd" clip-rule="evenodd" d="M58.487 61.5299L54.3164 61.3582L54.3503 65.6022L58.487 61.5299Z" fill="#332C2B"/>
</g>
</g>
<rect x="1" y="1" width="110" height="110" rx="9" stroke="#CCCCCC" stroke-width="2"/>
<defs>
<clipPath id="clip0_421_550">
<rect x="2" y="2" width="108" height="108" rx="8" fill="white"/>
</clipPath>
<clipPath id="clip1_421_550">
<rect width="80" height="27.1186" fill="white" transform="translate(16 42)"/>
</clipPath>
</defs>
</svg>
