<svg width="112" height="112" viewBox="0 0 112 112" fill="none" xmlns="http://www.w3.org/2000/svg">
<g clip-path="url(#clip0_6_7360)">
<rect x="1.99988" y="2" width="108" height="108" rx="8" fill="white"/>
<path d="M43.2406 42.1689L42.7183 44.7342C47.8794 44.7136 64.1201 38.7454 64.8743 35.1848C64.8743 35.1854 64.9241 34.9517 64.9727 34.7167C65.0213 34.483 65.0693 34.2493 65.0662 34.2493C58.0303 38.9835 47.4014 42.1583 43.2406 42.1689ZM42.2559 46.5946L41.7691 48.9555C46.7451 48.9461 63.1709 42.9679 63.925 39.4067L64.1338 38.3883C56.858 43.4266 46.6697 46.4718 42.2559 46.5946ZM41.1957 50.9025L40.6722 53.4653C45.6794 53.3681 62.0752 47.4784 62.8294 43.9184L63.0781 42.7005C57.4383 46.6202 45.7367 50.9268 41.1957 50.9025Z" fill="url(#paint0_linear_6_7360)"/>
<path d="M16.3353 58.8097H18.2206V65.3963H18.2642C18.9361 64.227 20.1489 63.4679 21.8398 63.4679C24.4407 63.4679 26.2817 65.6343 26.2593 68.821C26.2593 72.568 23.8984 74.4309 21.5575 74.4309C20.0405 74.4309 18.827 73.8463 18.0473 72.4602H17.9825L17.8965 74.1928H16.2493C16.2923 73.4773 16.3353 72.4153 16.3353 71.4842V58.8097ZM18.2206 69.9896C18.2206 70.2277 18.2642 70.4652 18.3079 70.6827C18.6762 72.004 19.7812 72.9152 21.168 72.9152C23.1611 72.9152 24.3534 71.2897 24.3534 68.884C24.3534 66.7818 23.2689 64.9843 21.2328 64.9843C19.9321 64.9843 18.7186 65.8724 18.3284 67.3246C18.2854 67.5415 18.2206 67.8008 18.2206 68.1049V69.9896Z" fill="#1B517E"/>
<path d="M35.7721 71.6793C35.7721 72.5898 35.8151 73.4773 35.9454 74.1928H34.2115L34.06 72.8709H33.9946C33.41 73.6948 32.2825 74.4309 30.7886 74.4309C28.6646 74.4309 27.582 72.937 27.582 71.4206C27.582 68.8846 29.8344 67.4972 33.8868 67.5209V67.3028C33.8868 66.4371 33.6487 64.8758 31.5035 64.8758C30.5281 64.8758 29.5103 65.1787 28.773 65.6562L28.3386 64.3991C29.2062 63.8363 30.4639 63.4679 31.7846 63.4679C34.9918 63.4679 35.7721 65.6562 35.7721 67.7578V71.6793ZM33.9304 68.841C31.8494 68.7973 29.4885 69.1663 29.4885 71.2018C29.4885 72.4384 30.3112 73.0236 31.286 73.0236C32.6515 73.0236 33.5178 72.156 33.8213 71.2685C33.8868 71.0722 33.9304 70.8559 33.9304 70.6621V68.841Z" fill="#1B517E"/>
<path d="M38.698 66.5433C38.698 65.4601 38.6756 64.5732 38.6114 63.7057H40.2998L40.4095 65.4389H40.4518C40.9729 64.4436 42.1864 63.4676 43.9196 63.4676C45.3699 63.4676 47.6248 64.3345 47.6248 67.9301V74.1931H45.7171V68.1476C45.7171 66.4573 45.0901 65.0482 43.2908 65.0482C42.0343 65.0482 41.0576 65.9375 40.7329 66.9996C40.6469 67.2364 40.6033 67.5623 40.6033 67.8883V74.1931H38.698V66.5433Z" fill="#1B517E"/>
<path d="M52.3043 68.5163H52.3473C52.6078 68.1473 52.9761 67.6924 53.2803 67.3246L56.3567 63.7061H58.6533L54.6016 68.0177L59.2155 74.1929H56.8989L53.2803 69.1664L52.3043 70.2496V74.1929H50.4189V58.8098H52.3043V68.5163Z" fill="#1B517E"/>
<path d="M74.9261 64.0771C74.8551 63.9923 74.7853 63.9076 74.7099 63.8297C74.5865 63.7025 74.4493 63.5822 74.3035 63.4688C73.5145 62.8244 72.5609 62.4454 71.5332 62.4454C70.4238 62.4454 69.4023 62.8904 68.5802 63.6315C68.5559 63.6464 68.5353 63.6633 68.511 63.677C68.4817 63.6919 68.44 63.7137 68.3913 63.7006C68.2567 63.6651 68.1115 63.5212 68.1109 63.3149V59.0263C68.1109 58.7576 67.8896 58.5401 67.6191 58.5401H65.5325C65.2601 58.5401 65.0401 58.7576 65.0401 59.0263V59.1758C65.0401 59.1808 65.0389 59.1852 65.0389 59.1914V59.6888L65.0426 73.5125C65.0426 73.7867 65.2645 74.0098 65.5381 74.0098H67.4272C67.5475 74.0098 67.6565 73.9643 67.7432 73.8921C67.7457 73.8902 67.75 73.8902 67.7513 73.8877C67.7544 73.8858 67.7556 73.8827 67.7575 73.8802C67.798 73.8447 67.8298 73.8029 67.8566 73.7562H67.8572C67.8896 73.6951 67.9114 73.6309 67.9189 73.5599C67.9563 73.2545 68.1645 73.0856 68.2935 73.1298C68.3377 73.1441 68.3801 73.1653 68.4238 73.1953C68.468 73.2227 68.511 73.2526 68.5534 73.2806C68.6812 73.3741 69.2452 73.7599 69.6809 73.9544C69.9009 74.0516 70.6014 74.2891 71.4147 74.2891C72.2287 74.2891 72.8065 74.1089 72.9429 74.0728C73.0801 74.036 73.2147 73.9899 73.3443 73.9307C73.9813 73.6565 74.493 73.2806 74.8825 72.8039C75.267 72.3358 75.5862 71.7817 75.8448 71.1454C76.2293 70.3071 76.4481 69.3467 76.4481 68.3233C76.4481 66.6524 75.8629 65.1472 74.9261 64.0771ZM70.6176 72.0809C69.0888 72.0809 67.8485 70.4343 67.8485 68.4037C67.8485 66.3719 69.0888 64.7253 70.6176 64.7253C72.1458 64.7253 73.3848 66.3719 73.3848 68.4037C73.3848 70.4343 72.1458 72.0809 70.6176 72.0809Z" fill="#1B517E"/>
<path d="M81.88 63.6757C81.8781 63.6476 81.875 63.6202 81.8725 63.5934V63.2269C81.8725 62.9515 81.6506 62.7283 81.3752 62.7283H79.2723C78.9968 62.7283 78.7737 62.9515 78.7737 63.2269V74.5558C78.7631 74.8443 78.4122 75.2401 78.0065 75.338C77.8195 75.3959 77.6319 75.4227 77.4437 75.414C77.2555 75.4071 77.1264 75.4832 77.0535 75.6421C77.0249 75.7132 77.0037 75.8079 76.9881 75.9244C76.975 76.0397 76.9912 77.2538 76.9993 77.3542C77.0074 77.4558 77.0249 77.5418 77.0535 77.6135C77.1402 77.7443 77.2922 77.831 77.5085 77.8746C77.5808 77.9039 78.9769 77.9076 79.9161 77.6795C80.2845 77.5904 80.5811 77.4121 80.8279 77.2258C81.0716 77.0376 81.2891 76.7982 81.4786 76.509C81.6955 76.1625 81.8139 75.725 81.8364 75.1977C81.8432 75.0388 81.8725 74.6237 81.8725 74.5751V64.2809C81.875 64.2254 81.8769 64.1693 81.88 64.1101C81.8875 63.9661 81.8875 63.8209 81.88 63.6757Z" fill="#1B517E"/>
<path d="M94.2287 64.0771C94.1589 63.9923 94.0885 63.9076 94.0124 63.8297C93.889 63.7025 93.7513 63.5822 93.6061 63.4688C92.8177 62.8244 91.8641 62.4454 90.8357 62.4454C89.7269 62.4454 88.7054 62.8904 87.884 63.6315C87.8591 63.6464 87.8379 63.6633 87.8129 63.677C87.7843 63.6919 87.7438 63.7137 87.6945 63.7006C87.5599 63.6651 87.4147 63.5212 87.4128 63.3149V59.0263C87.4128 58.7576 87.1934 58.5401 86.9223 58.5401H84.8357C84.5633 58.5401 84.3433 58.7576 84.3433 59.0263V59.1758C84.3433 59.1808 84.3414 59.1852 84.3414 59.1914V59.6888L84.3445 73.5125C84.3445 73.7867 84.567 74.0098 84.8419 74.0098H86.7285C86.8506 74.0098 86.9603 73.9643 87.0463 73.8921C87.0488 73.8902 87.0513 73.8902 87.0544 73.8877C87.0569 73.8858 87.0588 73.8827 87.0607 73.8802C87.0993 73.8447 87.1336 73.8029 87.1598 73.7562L87.161 73.7543C87.1934 73.6951 87.2146 73.6309 87.2221 73.5599C87.2595 73.2545 87.4664 73.0856 87.596 73.1298C87.6403 73.1441 87.6839 73.1653 87.7269 73.1953C87.7699 73.2227 87.8129 73.2526 87.8572 73.2806C87.9843 73.3741 88.5478 73.7599 88.984 73.9544C89.204 74.0516 89.9033 74.2891 90.7185 74.2891C91.5306 74.2891 92.1084 74.1089 92.2461 74.0728C92.3832 74.036 92.5172 73.9899 92.6475 73.9307C93.2826 73.6565 93.7968 73.2806 94.1863 72.8039C94.5709 72.3358 94.89 71.7817 95.148 71.1454C95.5319 70.3071 95.7507 69.3467 95.7507 68.3233C95.7507 66.6524 95.1648 65.1472 94.2287 64.0771ZM89.9214 72.0809C88.3913 72.0809 87.1523 70.4343 87.1523 68.4037C87.1523 66.3719 88.3913 64.7253 89.9214 64.7253C91.4496 64.7253 92.6886 66.3719 92.6886 68.4037C92.6886 70.4343 91.4496 72.0809 89.9214 72.0809Z" fill="#1B517E"/>
<path d="M80.2867 58.6642C79.9875 58.6686 79.7245 58.7365 79.4983 58.868C79.2758 59.0039 79.1038 59.1853 78.9816 59.4078C78.8545 59.634 78.7915 59.8833 78.7915 60.16C78.7915 60.4274 78.8545 60.6674 78.9722 60.8892C79.09 61.1117 79.2577 61.2887 79.4708 61.424C79.6884 61.5555 79.942 61.6234 80.2325 61.6284C80.5584 61.6234 80.8351 61.5555 81.062 61.424C81.2883 61.2887 81.4603 61.1117 81.5781 60.8892C81.6959 60.6674 81.7551 60.4274 81.7551 60.16C81.7551 59.8833 81.6915 59.634 81.5737 59.4078C81.4559 59.1853 81.2839 59.0039 81.0658 58.868C80.8482 58.7365 80.5858 58.6686 80.2867 58.6642Z" fill="#1B517E"/>
</g>
<rect x="1" y="1" width="110" height="110" rx="9" stroke="#CCCCCC" stroke-width="2"/>
<defs>
<linearGradient id="paint0_linear_6_7360" x1="39.0824" y1="34.6272" x2="68.5375" y2="33.5986" gradientUnits="userSpaceOnUse">
<stop stop-color="#3AA7DF"/>
<stop offset="0.12" stop-color="#227AAB"/>
<stop offset="0.42" stop-color="#1B517E"/>
<stop offset="0.57" stop-color="#8B8666"/>
<stop offset="1" stop-color="#EFC900"/>
</linearGradient>
<clipPath id="clip0_6_7360">
<rect x="2" y="2" width="108" height="108" rx="8" fill="white"/>
</clipPath>
</defs>
</svg>
