<svg width="112" height="112" viewBox="0 0 112 112" fill="none" xmlns="http://www.w3.org/2000/svg">
<g clip-path="url(#clip0_528_45)">
<rect x="2" y="2" width="108" height="108" rx="8" fill="white"/>
<g clip-path="url(#clip1_528_45)">
<path d="M91.4577 55.4753L91.6313 55.2812L91.788 55.1075L91.7845 55.1041L93.6676 52.7614C93.6676 52.7614 93.6676 52.7614 93.671 52.758C93.8583 52.5026 94.0387 52.254 94.1818 52.0565C94.2499 51.968 94.3384 51.8931 94.4474 51.8386C94.5189 51.8045 94.5904 51.7773 94.6619 51.7671C94.6687 51.7671 94.6721 51.7671 94.6755 51.7671H96.47L96.3236 51.9544L96.1022 52.2438C96.1022 52.2438 96.1022 52.2506 96.0954 52.2506C96.0954 52.2506 96.0954 52.2506 96.092 52.254L93.7493 55.3357C93.7153 55.3833 93.6982 55.4344 93.6982 55.4923C93.6982 55.5468 93.7119 55.591 93.7459 55.6387C93.7459 55.6387 96.0273 58.7238 96.0375 58.7442L96.3474 59.1801L94.6687 59.1698C94.5597 59.1698 94.4542 59.1392 94.3418 59.0813C94.2635 59.037 94.192 58.986 94.1341 58.9213C94.1341 58.9213 94.0966 58.8736 94.0796 58.8566L93.688 58.3083L92.6188 56.8271H92.6154L92.5609 56.759L92.486 56.6705L91.9276 56.0235L91.6245 55.6728L91.5734 55.6183L91.4543 55.4787V55.4719L91.4577 55.4753Z" fill="#006EB4"/>
<path d="M16.63 57.3719C16.63 57.3719 21.244 63.7089 28.2722 61.0767C28.2722 61.0767 29.2733 60.1948 29.9032 58.9349C29.9032 58.9349 23.1338 63.4331 16.4904 55.0054C16.4904 55.0054 16.3781 56.0235 16.6266 57.3685" fill="#003C5D"/>
<path d="M16.6573 54.086C16.6573 54.086 16.6641 54.0928 16.6641 54.0962C16.7798 54.2494 18.3973 56.33 21.1827 57.5865C23.522 58.6386 26.6785 59.1086 30.4616 57.3719C30.465 57.3515 30.4718 57.3345 30.4753 57.3141C30.5059 57.1472 30.6012 56.616 30.6353 56.0439C30.6353 56.0269 30.6353 56.0065 30.6353 55.9895L30.5978 55.0088C30.5706 55.036 30.54 55.0599 30.5127 55.0871C30.1245 55.4344 28.4049 56.8305 25.7932 56.8305C23.5594 56.8305 20.6753 55.8022 17.4098 52.2234C17.4098 52.2234 17.4098 52.2302 17.4064 52.2302L16.6573 54.086Z" fill="#003C5D"/>
<path d="M19.5584 49.9214C21.925 52.6012 24.0873 53.4389 25.8 53.5104C27.9419 53.5989 29.3788 52.482 29.641 52.2641C29.6546 52.2539 29.6683 52.2403 29.6853 52.2267C29.6989 52.2471 29.7125 52.2641 29.7261 52.288C30.0156 52.717 30.2403 53.3912 30.3527 53.7828C30.3629 53.8169 30.3731 53.8509 30.3833 53.885C30.3935 53.9156 30.4004 53.9462 30.4072 53.9701C30.414 53.9973 30.4208 54.028 30.431 54.0586C30.431 54.0688 30.4344 54.079 30.4378 54.0893C26.3176 55.7305 23.2632 55.2402 21.1963 54.2765C18.9217 53.2175 17.8354 51.5865 17.8354 51.5865L19.5618 49.9282L19.5584 49.9214Z" fill="#003C5D"/>
<mask id="mask0_528_45" style="mask-type:luminance" maskUnits="userSpaceOnUse" x="16" y="52" width="15" height="6">
<path d="M23.5492 54.5763C21.1929 54.5763 19.0409 53.6876 17.4132 52.2234C17.0795 52.7955 16.8241 53.422 16.6607 54.086C18.3803 55.9418 20.832 57.1029 23.5526 57.1029C26.2733 57.1029 28.725 55.9418 30.4412 54.086C30.2778 53.4254 30.0224 52.7989 29.6887 52.2234C28.061 53.6876 25.909 54.5763 23.5526 54.5763" fill="white"/>
</mask>
<g mask="url(#mask0_528_45)">
<path d="M30.4344 52.2234H16.6573V57.1029H30.4344V52.2234Z" fill="url(#paint0_radial_528_45)"/>
</g>
<mask id="mask1_528_45" style="mask-type:luminance" maskUnits="userSpaceOnUse" x="16" y="55" width="15" height="6">
<path d="M23.5493 57.8623C20.8626 57.8623 18.4177 56.8135 16.5994 55.1041V57.2153C16.6096 57.2664 16.6198 57.3175 16.6334 57.3685C18.3496 59.2414 20.8149 60.4195 23.5527 60.4195C26.2904 60.4195 28.7523 59.2414 30.4685 57.3685C30.5842 56.8612 30.6455 56.33 30.6455 55.7851C30.6455 55.523 30.6319 55.2608 30.6013 55.0054C28.7761 56.7726 26.287 57.8623 23.5493 57.8623Z" fill="white"/>
</mask>
<g mask="url(#mask1_528_45)">
<path d="M30.6455 55.0088H16.5994V60.4195H30.6455V55.0088Z" fill="url(#paint1_radial_528_45)"/>
</g>
<mask id="mask2_528_45" style="mask-type:luminance" maskUnits="userSpaceOnUse" x="17" y="58" width="13" height="5">
<path d="M23.5492 61.1822C21.1452 61.1822 18.9319 60.3411 17.1919 58.9382C18.3258 61.2231 20.6583 62.8133 23.3688 62.8814C23.4301 62.8814 23.4913 62.8814 23.5526 62.8814C23.6139 62.8814 23.6752 62.8814 23.7365 62.8814C26.447 62.8133 28.7761 61.2231 29.91 58.9382C28.17 60.3411 25.9567 61.1822 23.5526 61.1822" fill="white"/>
</mask>
<g mask="url(#mask2_528_45)">
<path d="M29.91 58.9348H17.1919V62.8814H29.91V58.9348Z" fill="url(#paint2_radial_528_45)"/>
</g>
<mask id="mask3_528_45" style="mask-type:luminance" maskUnits="userSpaceOnUse" x="17" y="48" width="14" height="6">
<path d="M29.1404 48.2087C28.725 48.8455 28.2006 49.4073 27.5979 49.8704C27.5775 49.8874 27.5571 49.9045 27.5332 49.9181C27.5332 49.9181 27.5264 49.9215 27.523 49.9249C26.4095 50.7523 25.0373 51.2427 23.5458 51.2427C22.0544 51.2427 20.6719 50.7489 19.5584 49.9181C18.8944 50.371 18.3087 50.9328 17.832 51.5798C19.3371 52.9657 21.3427 53.8136 23.5458 53.8136C25.7489 53.8136 27.7307 52.9759 29.229 51.6036C29.2392 51.5934 29.2494 51.5866 29.2596 51.5764C29.2767 51.5628 29.2937 51.5457 29.3073 51.5287C29.9509 50.926 30.5025 50.2211 30.9315 49.4414L30.7238 48.2019H29.137L29.1404 48.2087Z" fill="white"/>
</mask>
<g mask="url(#mask3_528_45)">
<path d="M30.9384 48.2087H17.8354V53.817H30.9384V48.2087Z" fill="url(#paint3_radial_528_45)"/>
</g>
<mask id="mask4_528_45" style="mask-type:luminance" maskUnits="userSpaceOnUse" x="20" y="48" width="7" height="3">
<path d="M20.2769 49.4923C21.2133 50.1189 22.3404 50.4832 23.5492 50.4832C24.7581 50.4832 25.8852 50.1189 26.8216 49.4923C25.8409 48.9816 24.7308 48.6921 23.5492 48.6921C22.3677 48.6921 21.2576 48.9816 20.2769 49.4923Z" fill="white"/>
</mask>
<g mask="url(#mask4_528_45)">
<path d="M26.8216 48.6921H20.2769V50.4798H26.8216V48.6921Z" fill="url(#paint4_radial_528_45)"/>
</g>
<mask id="mask5_528_45" style="mask-type:luminance" maskUnits="userSpaceOnUse" x="17" y="48" width="14" height="6">
<path d="M29.1404 48.2087C28.725 48.8455 28.2006 49.4073 27.5979 49.8704C27.5775 49.8874 27.5571 49.9045 27.5332 49.9181C27.5332 49.9181 27.5264 49.9215 27.523 49.9249C26.4095 50.7523 25.0373 51.2427 23.5458 51.2427C22.0544 51.2427 20.6719 50.7489 19.5584 49.9181C18.8944 50.371 18.3087 50.9328 17.832 51.5798C19.3371 52.9657 21.3427 53.8136 23.5458 53.8136C25.7489 53.8136 27.7307 52.9759 29.229 51.6036C29.2392 51.5934 29.2494 51.5866 29.2596 51.5764C29.2767 51.5628 29.2937 51.5457 29.3073 51.5287C29.9509 50.926 30.5025 50.2211 30.9315 49.4414L30.7238 48.2019H29.137L29.1404 48.2087Z" fill="white"/>
</mask>
<g mask="url(#mask5_528_45)">
<path d="M30.9384 48.2087H17.8354V53.817H30.9384V48.2087Z" fill="url(#paint5_radial_528_45)"/>
</g>
<path d="M44.5248 56.5717C44.5248 56.5717 44.5146 56.5785 44.484 56.5785H43.0436C43.0061 56.5785 42.9959 56.5717 42.9925 56.5683C42.9891 56.5615 42.9925 56.5411 42.9993 56.5172L43.7621 54.927L44.5112 56.5138C44.5316 56.5547 44.5214 56.5683 44.5214 56.5717M47.46 58.7033L44.0856 51.9646C44.0209 51.8352 43.9051 51.7637 43.7587 51.7637C43.6122 51.7637 43.4965 51.8352 43.4318 51.9612L40.2446 58.3219L39.8019 59.1766H41.2389C41.3512 59.1766 41.4602 59.1426 41.5658 59.0745C41.6679 59.0064 41.7496 58.9213 41.8007 58.8191L42.0868 58.2368C42.1072 58.1891 42.1446 58.1483 42.2025 58.1108C42.2638 58.0734 42.3217 58.0529 42.3762 58.0529H45.1377C45.1956 58.0529 45.2501 58.0734 45.3046 58.1074C45.3659 58.1449 45.4067 58.1891 45.434 58.2334L45.7234 58.8089C45.7677 58.9178 45.846 59.0064 45.9584 59.0745C46.0673 59.1392 46.1763 59.1732 46.2887 59.1732H47.7052L47.4737 58.7272C47.4737 58.7272 47.4668 58.7067 47.46 58.6965" fill="#006EB4"/>
<path d="M53.1364 51.8966C53.0512 51.9817 53.0036 52.0941 53.0036 52.2166V55.884L48.7506 51.8625C48.6586 51.7808 48.5463 51.7501 48.4135 51.774C48.2636 51.8046 48.1751 51.9136 48.1751 52.0702V59.1801H49.3839C49.5065 59.1801 49.6155 59.1359 49.704 59.0473C49.7891 58.9622 49.8334 58.8498 49.8334 58.7306V55.1212L54.083 59.078C54.1579 59.1393 54.243 59.1699 54.3384 59.1699C54.3656 59.1699 54.3963 59.1699 54.4235 59.1597C54.5733 59.129 54.6653 59.0201 54.6653 58.8634V51.7672H53.4565C53.3305 51.7672 53.2249 51.8114 53.1364 51.8966Z" fill="#006EB4"/>
<path d="M61.6253 58.6046L58.9251 55.7102C58.8944 55.6762 58.8774 55.6387 58.874 55.591C58.874 55.5366 58.8876 55.4957 58.9149 55.4582L61.4721 52.2506C61.4857 52.2302 61.4994 52.2131 61.513 52.1927L61.8365 51.7773H60.1646C60.059 51.7773 59.9466 51.8045 59.8343 51.8624C59.7253 51.9169 59.6368 51.985 59.5721 52.0701L57.1919 55.1109V52.2131C57.1919 52.0906 57.1476 51.9816 57.0625 51.8931C56.9739 51.8079 56.8684 51.7637 56.7458 51.7637H55.9797C55.8571 51.7637 55.7481 51.8113 55.663 51.8965C55.5847 51.9816 55.5404 52.0906 55.5404 52.2097V58.7272C55.5404 58.8497 55.5813 58.9553 55.663 59.0438C55.7447 59.1324 55.8571 59.1766 55.9797 59.1766H56.7458C56.8684 59.1766 56.9774 59.1324 57.0625 59.0472C57.1476 58.9621 57.1919 58.8531 57.1919 58.7272V56.1699L59.7117 58.8974C59.7798 58.9791 59.8717 59.0506 59.9943 59.1017C60.1101 59.1528 60.2224 59.1766 60.3246 59.1766H62.211L61.6322 58.6012L61.6253 58.6046Z" fill="#006EB4"/>
<path d="M74.1664 51.7705L72.9576 51.7773C72.835 51.7773 72.7226 51.825 72.6375 51.9101C72.5524 51.9987 72.5081 52.1042 72.5081 52.2302L72.5286 55.8975L68.2517 51.8999C68.1598 51.8182 68.0372 51.7875 67.9146 51.8148C67.7648 51.8454 67.6728 51.9578 67.6763 52.111L67.7171 59.2209L68.9259 59.2141C69.0485 59.2141 69.1575 59.1664 69.2426 59.0813C69.3277 58.9962 69.372 58.8838 69.372 58.7612L69.3516 55.1518L73.625 59.0847C73.7238 59.163 73.8361 59.1903 73.9655 59.1664C74.1153 59.1358 74.2073 59.0234 74.2039 58.8702L74.163 51.7705H74.1664Z" fill="#006EB4"/>
<path d="M80.1969 55.4753C80.1969 55.952 80.139 56.3334 80.013 56.6126C79.8836 56.902 79.7202 57.1234 79.5329 57.2732C79.3388 57.4332 79.1243 57.5422 78.8961 57.5967C78.6408 57.6546 78.3922 57.6852 78.1572 57.6852L76.9961 57.692C76.9518 57.692 76.9246 57.6784 76.8973 57.6512C76.8667 57.6205 76.8531 57.5865 76.8531 57.5388L76.8292 53.4492C76.8292 53.405 76.8429 53.3675 76.8701 53.3369C76.8973 53.3062 76.928 53.296 76.9722 53.296L78.1504 53.2892C78.3718 53.2892 78.6101 53.3164 78.8587 53.3675C79.0936 53.4186 79.315 53.5241 79.5125 53.6774C79.6998 53.8238 79.8632 54.0417 79.9994 54.3277C80.1288 54.6172 80.1935 55.0054 80.1969 55.4753ZM81.5624 53.8851C81.3751 53.4254 81.0959 53.0236 80.7281 52.6865C80.0505 52.077 79.1788 51.7671 78.1436 51.7671L75.1573 51.7841L75.2016 59.2073L78.1538 59.1903C78.668 59.1869 79.1515 59.1051 79.5942 58.9485C80.0266 58.7953 80.4182 58.5603 80.7622 58.2505C81.1333 57.9099 81.4091 57.4979 81.5828 57.0314C81.6747 56.7931 81.7462 56.5445 81.7905 56.2857C81.8348 56.0235 81.8586 55.7443 81.8552 55.4548C81.8552 54.8998 81.753 54.372 81.5624 53.8817" fill="#006EB4"/>
<path d="M66.4905 51.7683L64.8323 51.7778L64.875 59.1941L66.5333 59.1845L66.4905 51.7683Z" fill="#006EB4"/>
<path d="M88.0968 58.1108C88.0968 57.9882 88.0491 57.8759 87.964 57.7907C87.8789 57.7056 87.7665 57.6613 87.6439 57.6613L84.3614 57.6818C84.3171 57.6818 84.283 57.6681 84.2524 57.6375C84.2218 57.6068 84.2081 57.5728 84.2081 57.5285L84.2013 56.4559C84.2013 56.4116 84.2149 56.3776 84.2456 56.3469C84.2762 56.3163 84.3103 56.3027 84.358 56.3027L87.2012 56.2857C87.3238 56.2857 87.4362 56.238 87.5213 56.1529C87.6065 56.0677 87.6507 55.9554 87.6507 55.8328V55.1994C87.6473 55.0768 87.5996 54.9679 87.5145 54.8827C87.4294 54.7976 87.3204 54.7533 87.1944 54.7533L84.3512 54.7704C84.3069 54.7704 84.2728 54.7568 84.2422 54.7261C84.2115 54.6955 84.1979 54.6614 84.1979 54.6171L84.1911 53.439C84.1911 53.3947 84.2047 53.3607 84.2354 53.33C84.266 53.2994 84.3001 53.2857 84.3443 53.2857L87.6269 53.2653C87.7495 53.2653 87.8618 53.2176 87.9436 53.1325C88.0287 53.0474 88.073 52.935 88.073 52.8124L88.0661 51.7568L82.5226 51.7909L82.5669 59.2141L88.1104 59.18L88.1036 58.1074L88.0968 58.1108Z" fill="#006EB4"/>
<path d="M56.2997 51.7637H55.5336V52.4515L56.2997 51.7637Z" fill="#006EB4"/>
<path d="M56.2997 59.1766H55.5336V58.4922L56.2997 59.1766Z" fill="#006EB4"/>
<path d="M38.2628 57.1506C38.2287 57.2425 38.1776 57.3311 38.1027 57.4196C38.0312 57.5047 37.9597 57.566 37.8814 57.6035L37.8678 57.6103C37.7929 57.6545 37.7111 57.6784 37.6124 57.6784H35.9881C35.9439 57.6784 35.9098 57.6648 35.8792 57.6341C35.8485 57.6035 35.8349 57.5694 35.8349 57.5251V56.3197C35.8349 56.2755 35.8485 56.2414 35.8792 56.2074C35.9098 56.1767 35.9439 56.1631 35.9881 56.1631H37.466C37.7486 56.1631 37.9631 56.2312 38.1027 56.364C38.2492 56.5036 38.3207 56.6671 38.3207 56.8611C38.3207 56.9701 38.3036 57.0621 38.2628 57.154M35.8349 53.4186C35.8349 53.3743 35.8485 53.3402 35.8792 53.3096C35.9098 53.279 35.9439 53.2653 35.9881 53.2653H37.4592C37.5375 53.2653 37.6056 53.2824 37.6669 53.313C37.7452 53.3573 37.8065 53.4083 37.861 53.4662C37.9052 53.5105 37.9461 53.5786 37.9836 53.6705C38.0142 53.7489 38.0312 53.8306 38.0312 53.9157C38.0312 54.0213 38.0176 54.1132 37.9904 54.1915C37.9563 54.2903 37.912 54.372 37.861 54.4333C37.7963 54.5082 37.7282 54.5661 37.6567 54.6001C37.5715 54.641 37.4762 54.6614 37.3604 54.6614H35.9881C35.9439 54.6614 35.9098 54.6478 35.8792 54.6172C35.8485 54.5865 35.8349 54.5525 35.8349 54.5082V53.4186ZM39.8427 56.2584C39.7508 56.0507 39.6282 55.86 39.4784 55.7034C39.3286 55.5331 39.1617 55.4003 38.9676 55.305C38.9472 55.2948 38.9302 55.288 38.9063 55.2812C38.9132 55.2744 38.92 55.271 38.9302 55.2675C39.097 55.1654 39.2366 55.0394 39.3422 54.8862C39.4375 54.75 39.5227 54.5865 39.5942 54.4026C39.6589 54.2256 39.6895 54.0519 39.6895 53.8851C39.6895 53.4424 39.6316 53.1019 39.5125 52.8465C39.4001 52.5639 39.2332 52.3391 39.0221 52.1859C38.828 52.0293 38.5897 51.9169 38.2934 51.8454C38.164 51.8182 38.0278 51.7977 37.8882 51.7841C37.752 51.7705 37.6056 51.7637 37.4558 51.7637H34.1732V59.1834H37.609C37.769 59.1834 37.9257 59.1732 38.0755 59.1528C38.2219 59.1324 38.3683 59.1051 38.5079 59.0711C38.8008 59.003 39.0596 58.8736 39.2673 58.6931C39.4784 58.5229 39.6555 58.2845 39.7883 57.9848C39.9109 57.6954 39.9755 57.3413 39.9755 56.9361C39.9755 56.6943 39.9279 56.4696 39.8359 56.2653" fill="#006EB4"/>
<path d="M93.688 55.4787H93.6846L93.6403 55.4276L90.9741 52.0769C90.9741 52.0769 90.9639 52.0599 90.9605 52.0531C90.8924 51.9646 90.8039 51.8897 90.6983 51.8352C90.6268 51.8011 90.5553 51.7739 90.4838 51.7637C90.4804 51.7637 90.4736 51.7637 90.4702 51.7637H88.6757L88.8221 51.951L89.0434 52.2404C89.0434 52.2404 89.0468 52.2438 89.0502 52.2472C89.0502 52.2472 89.0502 52.2472 89.0502 52.2506L91.3964 55.3322C91.4304 55.3799 91.4474 55.431 91.4474 55.4889C91.4474 55.5434 91.4338 55.5876 91.3998 55.6353C91.3998 55.6353 89.1183 58.7203 89.1081 58.7408L88.7948 59.1766L90.477 59.1664C90.5859 59.1664 90.6915 59.1358 90.8039 59.0779C90.8822 59.037 90.9503 58.9825 91.0116 58.9178L91.0865 58.8225L93.6914 55.4753H93.6948L93.688 55.4787Z" fill="#5EB4E5"/>
</g>
</g>
<rect x="1" y="1" width="110" height="110" rx="9" stroke="#CCCCCC" stroke-width="2"/>
<defs>
<radialGradient id="paint0_radial_528_45" cx="0" cy="0" r="1" gradientUnits="userSpaceOnUse" gradientTransform="translate(30.7669 46.7731) scale(15.1732 15.1732)">
<stop stop-color="white"/>
<stop offset="0.21" stop-color="#86B9D7"/>
<stop offset="0.41" stop-color="#0A71AF"/>
<stop offset="1" stop-color="#0F4E8B"/>
</radialGradient>
<radialGradient id="paint1_radial_528_45" cx="0" cy="0" r="1" gradientUnits="userSpaceOnUse" gradientTransform="translate(4831.55 11765.3) scale(15.1766 15.1767)">
<stop stop-color="white"/>
<stop offset="0.21" stop-color="#86B9D7"/>
<stop offset="0.41" stop-color="#0A71AF"/>
<stop offset="1" stop-color="#0F4E8B"/>
</radialGradient>
<radialGradient id="paint2_radial_528_45" cx="0" cy="0" r="1" gradientUnits="userSpaceOnUse" gradientTransform="translate(4831.62 11765.5) scale(15.1766 15.1767)">
<stop stop-color="white"/>
<stop offset="0.21" stop-color="#86B9D7"/>
<stop offset="0.41" stop-color="#0A71AF"/>
<stop offset="1" stop-color="#0F4E8B"/>
</radialGradient>
<radialGradient id="paint3_radial_528_45" cx="0" cy="0" r="1" gradientUnits="userSpaceOnUse" gradientTransform="translate(4832.25 11767) scale(15.18 15.1801)">
<stop stop-color="white"/>
<stop offset="0.21" stop-color="#86B9D7"/>
<stop offset="0.41" stop-color="#0A71AF"/>
<stop offset="1" stop-color="#0F4E8B"/>
</radialGradient>
<radialGradient id="paint4_radial_528_45" cx="0" cy="0" r="1" gradientUnits="userSpaceOnUse" gradientTransform="translate(4832.26 11767) scale(15.18 15.1801)">
<stop stop-color="white"/>
<stop offset="0.21" stop-color="#86B9D7"/>
<stop offset="0.41" stop-color="#0A71AF"/>
<stop offset="1" stop-color="#0F4E8B"/>
</radialGradient>
<radialGradient id="paint5_radial_528_45" cx="0" cy="0" r="1" gradientUnits="userSpaceOnUse" gradientTransform="translate(32.3242 45.3014) scale(22.0073 22.0073)">
<stop stop-color="#D9E9F7"/>
<stop offset="0.12" stop-color="#D9E9F7"/>
<stop offset="0.24" stop-color="#A3CAE7"/>
<stop offset="0.44" stop-color="#4C99CF"/>
<stop offset="0.58" stop-color="#157ABF"/>
<stop offset="0.65" stop-color="#006FBA"/>
<stop offset="1" stop-color="#00305A"/>
</radialGradient>
<clipPath id="clip0_528_45">
<rect x="2" y="2" width="108" height="108" rx="8" fill="white"/>
</clipPath>
<clipPath id="clip1_528_45">
<rect width="80" height="14.6727" fill="white" transform="translate(16.47 48.2087)"/>
</clipPath>
</defs>
</svg>
