<svg width="112" height="112" viewBox="0 0 112 112" fill="none" xmlns="http://www.w3.org/2000/svg">
<g clip-path="url(#clip0_421_561)">
<rect x="2" y="2" width="108" height="108" rx="8" fill="white"/>
<g clip-path="url(#clip1_421_561)">
<path fill-rule="evenodd" clip-rule="evenodd" d="M16.1164 62.6244C19.047 61.5527 21.3813 60.2848 23.1037 58.8094C23.3298 58.9632 23.5753 59.1027 23.841 59.2288C23.9619 59.2863 24.0836 59.3393 24.2059 59.3878C22.5179 60.9587 20.1164 62.4176 17.0455 63.7758L16.1164 62.6244ZM23.7709 58.1982C24.1373 57.8378 24.4694 57.4654 24.7679 57.0811C24.9604 56.8326 25.1276 56.5915 25.2709 56.3572C25.4112 56.3572 25.5507 56.3609 25.6888 56.3699C25.9627 56.387 26.2156 56.4214 26.447 56.4706C26.0597 57.2729 25.5089 58.049 24.8 58.7997C24.4059 58.6348 24.0627 58.4333 23.7709 58.1982ZM25.738 55.3841C26.0462 54.4579 25.8821 53.6781 25.2298 53.0796C24.3492 52.2721 22.6224 51.852 20.144 51.7102C21.3895 51.5094 22.6962 51.5064 24.0567 51.746C26.3358 52.1482 27.388 53.3102 26.9373 55.1251C26.8985 55.2811 26.8537 55.437 26.803 55.5915C26.4679 55.4908 26.1127 55.4214 25.738 55.3841Z" fill="#F6D300"/>
<path d="M16.0925 62.5579C17.5545 62.0236 18.8679 61.44 20.0291 60.8065C21.1903 60.1736 22.2 59.4908 23.0582 58.7565L23.0985 58.7214L23.1433 58.7512C23.2545 58.8266 23.3709 58.8997 23.4933 58.9691C23.6142 59.0378 23.7396 59.1035 23.8709 59.1654C23.9343 59.1953 23.994 59.2229 24.0507 59.2475C24.1127 59.2744 24.1724 59.299 24.2313 59.3229L24.3351 59.3639L24.2537 59.4393C23.4067 60.2281 22.3806 60.9885 21.1813 61.7221C19.9828 62.4542 18.6119 63.1602 17.0739 63.84L17.0246 63.8624L16.991 63.8199L16.0619 62.6684L16 62.5923L16.0925 62.5579ZM20.097 60.9303C18.953 61.5535 17.6642 62.1288 16.2328 62.6565L17.0664 63.6893C18.5791 63.0184 19.9284 62.3229 21.1075 61.6012C22.2612 60.8968 23.2522 60.1669 24.0769 59.4109C24.0493 59.3997 24.0216 59.3878 23.9948 59.3766C23.9299 59.3482 23.8687 59.3199 23.8104 59.293C23.6776 59.2296 23.5485 59.1624 23.4239 59.0915C23.3157 59.0296 23.2104 58.9654 23.109 58.8975C22.253 59.6251 21.2478 60.302 20.097 60.9303ZM23.7209 58.1482C23.9037 57.9684 24.0776 57.7863 24.2425 57.602L24.2418 57.6012C24.4082 57.4154 24.5649 57.2273 24.7119 57.0378C24.806 56.9169 24.8955 56.7953 24.9799 56.6744C25.0634 56.5535 25.1403 56.4356 25.2112 56.3206L25.2313 56.2871H25.2709C25.3425 56.2871 25.4127 56.2878 25.4828 56.29C25.5552 56.2915 25.6254 56.2953 25.6933 56.2997C25.8306 56.3079 25.9634 56.3214 26.0918 56.3385C26.2209 56.3557 26.3448 56.3766 26.4619 56.402L26.5493 56.4206L26.5104 56.5012C26.3157 56.905 26.0791 57.3027 25.8015 57.6945C25.5246 58.0863 25.2075 58.4706 24.8515 58.8475L24.8179 58.8833L24.7731 58.8647C24.5731 58.7811 24.3858 58.6885 24.2127 58.587C24.0381 58.4848 23.8761 58.3736 23.7261 58.2527L23.6649 58.2035L23.7209 58.1482ZM24.347 57.6953C24.197 57.8639 24.0396 58.0296 23.8769 58.1923C24.003 58.2893 24.1381 58.3803 24.2836 58.4654C24.4396 58.5565 24.606 58.64 24.7821 58.7154C25.1216 58.3535 25.4231 57.9863 25.6866 57.6139C25.9403 57.2557 26.1597 56.8915 26.344 56.5214C26.256 56.505 26.1657 56.49 26.0731 56.4781C25.95 56.4617 25.8201 56.449 25.6843 56.44C25.6142 56.4356 25.5455 56.4326 25.4791 56.4303C25.4224 56.4288 25.3664 56.4281 25.3104 56.4273C25.2433 56.5363 25.1716 56.6453 25.0955 56.755C25.0119 56.8744 24.9216 56.9975 24.8231 57.1236C24.6724 57.3184 24.5134 57.5087 24.3478 57.6953H24.347ZM25.6709 55.3617C25.8216 54.9094 25.8567 54.4938 25.7746 54.1199C25.6933 53.7505 25.4963 53.4199 25.1821 53.1318C24.7507 52.7356 24.109 52.4341 23.2687 52.2132C22.4216 51.9908 21.3746 51.8512 20.1403 51.7811L19.4955 51.7438L20.1328 51.6408C20.7701 51.5385 21.4231 51.487 22.091 51.493C22.7373 51.499 23.397 51.5579 24.0687 51.6766C24.2455 51.7079 24.4164 51.7438 24.5806 51.7848C25.509 52.0154 26.1963 52.3945 26.6187 52.9132C27.044 53.4348 27.1993 54.0953 27.0604 54.8826C27.0463 54.9669 27.0276 55.0527 27.006 55.1415C26.9858 55.2221 26.9642 55.3012 26.9425 55.3781C26.9201 55.4557 26.8955 55.5348 26.8694 55.6132L26.8485 55.6788L26.7821 55.6594C26.6164 55.6087 26.4463 55.5669 26.2724 55.5333C26.0963 55.499 25.9157 55.4721 25.7306 55.4535L25.6433 55.4445L25.6709 55.3617ZM25.9119 54.0893C25.9948 54.4654 25.9672 54.8781 25.8313 55.3229C25.991 55.3415 26.147 55.3654 26.2985 55.3945C26.456 55.4251 26.6082 55.4617 26.7567 55.5042C26.7739 55.4497 26.791 55.3945 26.8067 55.3393C26.8291 55.2609 26.85 55.1833 26.8687 55.1079C26.8896 55.0244 26.9075 54.9408 26.9216 54.8587C27.0537 54.1132 26.9082 53.4908 26.5097 53.0012C26.1067 52.5079 25.4455 52.1445 24.547 51.9214C24.3881 51.8818 24.2201 51.8468 24.044 51.8154C23.3791 51.6982 22.7269 51.6393 22.0903 51.6333C21.6709 51.6296 21.2567 51.649 20.8493 51.6893C21.7933 51.7691 22.6134 51.896 23.3045 52.0773C24.1672 52.3035 24.8291 52.6162 25.2776 53.0281C25.6134 53.3363 25.8246 53.6915 25.9119 54.0893Z" fill="#3D107A"/>
<path fill-rule="evenodd" clip-rule="evenodd" d="M27.0582 55.6758C25.8328 55.2303 24.3045 55.2512 22.5306 55.6639C22.5522 56.0661 22.6261 56.4393 22.7507 56.7811C23.7739 56.4684 24.7537 56.3094 25.6888 56.3699C28.1224 56.5258 28.888 57.9676 27.7515 60.1572C26.9082 61.7825 25.3455 63.1288 23.3768 64.3721C25.653 63.3079 27.2798 62.0669 28.2142 60.6199C29.6963 58.3228 29.3485 56.5102 27.0582 55.6758ZM21.256 56.0139C20.3821 56.2878 19.4589 56.6415 18.491 57.0676L19.4515 58.1743C20.2007 57.793 20.9306 57.4527 21.6403 57.1728C21.4604 56.8139 21.3321 56.4266 21.256 56.0139Z" fill="#F6D300"/>
<path d="M27.0343 55.7423C26.4291 55.5221 25.7485 55.4169 25 55.4184C24.2657 55.4191 23.4642 55.5229 22.6045 55.7191C22.6164 55.896 22.6388 56.0669 22.6709 56.2318C22.703 56.3923 22.744 56.5467 22.7948 56.6945C23.2881 56.5467 23.7709 56.4348 24.2433 56.3662C24.7373 56.2938 25.2209 56.2691 25.6933 56.2997C26.3455 56.3415 26.8813 56.4744 27.2955 56.6893C27.6627 56.8803 27.9351 57.1348 28.1097 57.4467C28.2836 57.7587 28.3589 58.1259 28.3328 58.5408C28.3015 59.0273 28.1298 59.5811 27.8142 60.19C27.3888 61.0094 26.7821 61.7587 26.0343 62.4594C25.5403 62.9221 24.9851 63.3632 24.3791 63.7893C25.0813 63.4087 25.7075 63.0072 26.256 62.5841C27.0575 61.9647 27.6925 61.2982 28.1545 60.5818C28.4425 60.1356 28.6604 59.7087 28.8075 59.3042C29.0522 58.6326 29.1015 58.0236 28.9515 57.4953C28.803 56.9691 28.4545 56.5199 27.9045 56.1647C27.6552 56.0042 27.3657 55.8632 27.0343 55.7423ZM25 55.2781C25.7649 55.2766 26.4619 55.3841 27.0821 55.6102C27.4239 55.7348 27.7231 55.8803 27.9806 56.0467C28.5612 56.4214 28.9284 56.8975 29.0873 57.4572C29.2455 58.0147 29.1948 58.6527 28.9403 59.3527C28.7888 59.7669 28.5664 60.2035 28.2731 60.6579C27.8022 61.3885 27.156 62.0662 26.3418 62.6953C25.5298 63.3229 24.5492 63.9012 23.4067 64.4356L22.3978 64.9072L23.3395 64.3124C24.3209 63.693 25.2 63.0482 25.9381 62.3564C26.6746 61.6676 27.2709 60.9303 27.6888 60.1251C27.9963 59.5341 28.1619 58.999 28.1918 58.5318C28.2164 58.1438 28.1478 57.8027 27.9866 57.5154C27.8261 57.2281 27.5731 56.9923 27.2306 56.8147C26.8336 56.6087 26.3172 56.4803 25.6843 56.44C25.2224 56.4102 24.7478 56.4348 24.2627 56.505C23.7761 56.5759 23.2784 56.693 22.7709 56.849L22.7075 56.8684L22.6843 56.8057C22.6209 56.6311 22.5701 56.4482 22.5328 56.2594C22.4955 56.0699 22.4709 55.8729 22.4604 55.6676L22.4567 55.6087L22.5142 55.5953C23.406 55.3878 24.2366 55.2788 25 55.2781ZM21.2022 56.105C20.791 56.2356 20.3679 56.3841 19.9343 56.549C19.5015 56.7139 19.0597 56.896 18.6075 57.0938L19.4686 58.087C19.8239 57.9065 20.1784 57.7341 20.5313 57.5721V57.5714C20.8731 57.4147 21.2104 57.2684 21.544 57.1348C21.4664 56.9744 21.4 56.8079 21.3425 56.6356C21.2858 56.4639 21.2388 56.2863 21.2022 56.105ZM19.8836 56.4176C20.3455 56.2415 20.7963 56.0841 21.2351 55.9467L21.3104 55.9229L21.3254 56.0012C21.3627 56.205 21.4134 56.402 21.4761 56.5915C21.5388 56.7818 21.6149 56.9647 21.703 57.1408L21.7373 57.2102L21.6657 57.2378C21.3119 57.3773 20.9537 57.5326 20.5903 57.6997H20.5895C20.2298 57.8654 19.8604 58.0453 19.4836 58.2378L19.4351 58.2624L19.3985 58.2206L18.4381 57.1139L18.3754 57.0415L18.4627 57.0035C18.9478 56.7893 19.4216 56.5938 19.8836 56.4176Z" fill="#3D107A"/>
<path fill-rule="evenodd" clip-rule="evenodd" d="M21.547 52.8631C21.6545 52.525 21.7776 52.1974 21.9142 51.878C22.4687 51.9556 22.9679 52.0556 23.4112 52.1788C23.0522 52.8377 22.803 53.4862 22.6672 54.125C22.1478 56.5698 23.0373 58.2765 25.2993 58.9803C26.1993 59.2601 27.1582 59.2922 28.1657 59.1146C28.1284 59.2579 28.0806 59.4049 28.0231 59.5571C26.5955 59.9437 25.1866 59.8683 23.8411 59.2288C21.4269 58.0818 20.6202 55.772 21.547 52.8631ZM29 58.9235C29.6067 58.7534 30.2291 58.5153 30.8649 58.2153C30.2097 58.6512 29.5522 59.0041 28.8963 59.2646C28.9366 59.1489 28.9709 59.0355 29 58.9235ZM22.0552 51.5631C22.8642 49.8295 24.0948 48.3668 25.5605 47.1101L26.4187 48.4653C25.259 49.5698 24.3448 50.6429 23.6963 51.6877C23.1403 51.6071 22.5925 51.5661 22.0552 51.5631Z" fill="#F6D300"/>
<path d="M21.4799 52.8415C21.5336 52.6713 21.5918 52.5042 21.6537 52.3392C21.7157 52.1721 21.7814 52.0094 21.8493 51.8504L21.8709 51.8004L21.9239 51.8079C22.2008 51.8474 22.4657 51.8915 22.7179 51.9422C22.9702 51.993 23.2075 52.0489 23.4299 52.1109L23.5149 52.1348L23.4724 52.2124C23.2955 52.5385 23.1448 52.8624 23.0209 53.1848C22.8985 53.5057 22.803 53.8243 22.7358 54.14C22.4784 55.3512 22.5709 56.3766 23.0082 57.184C23.4411 57.9818 24.2127 58.5683 25.3202 58.9131C25.7642 59.0512 26.2231 59.128 26.6948 59.1482C27.1679 59.1691 27.6545 59.1333 28.1537 59.0452L28.2612 59.0258L28.2336 59.1318C28.2149 59.2057 28.1933 59.2795 28.1687 59.3542C28.144 59.4303 28.1179 59.5064 28.0888 59.5825L28.0761 59.6161L28.0411 59.6251C27.3075 59.8236 26.5784 59.9019 25.8597 59.8452C25.1649 59.7907 24.4799 59.6109 23.8105 59.293C22.5903 58.7124 21.7739 57.8385 21.3784 56.7407C20.9821 55.64 21.0105 54.3161 21.4799 52.8415ZM21.7851 52.3877C21.7246 52.5512 21.6672 52.7169 21.6142 52.884C21.1537 54.328 21.1246 55.6213 21.5112 56.6937C21.8933 57.7549 22.6851 58.6019 23.8709 59.1654C24.5239 59.4758 25.1925 59.6519 25.8709 59.7049C26.562 59.7594 27.2634 59.6863 27.9702 59.4982C27.994 59.434 28.0157 59.3721 28.0351 59.3116C28.047 59.2743 28.0582 59.2385 28.0687 59.2027C27.5985 59.278 27.1381 59.3086 26.6888 59.2892C26.2045 59.2683 25.7336 59.1892 25.2784 59.0474C24.1343 58.6915 23.3343 58.0818 22.8843 57.2512C22.4306 56.4139 22.3336 55.3557 22.5978 54.1109C22.6664 53.7877 22.7642 53.4616 22.8896 53.1348C23.0045 52.8333 23.144 52.5303 23.3067 52.2236C23.112 52.1713 22.906 52.1236 22.6903 52.0803C22.4597 52.034 22.2157 51.9922 21.9575 51.9549C21.897 52.0989 21.8396 52.243 21.7851 52.3877ZM28.9806 58.8557C29.2814 58.7721 29.5866 58.6698 29.8963 58.5519C30.206 58.4348 30.5194 58.3004 30.8351 58.1519L31.7037 57.7422L30.9037 58.2743C30.5731 58.4937 30.2403 58.6937 29.9075 58.8713C29.5791 59.046 29.2508 59.1997 28.9224 59.3303L28.7799 59.387L28.8299 59.2422C28.8485 59.1892 28.8664 59.1325 28.8851 59.0721C28.9022 59.0161 28.9179 58.9609 28.9314 58.9064L28.9418 58.8669L28.9806 58.8557ZM29.9463 58.684C29.6478 58.7974 29.3515 58.8967 29.0575 58.9803C29.0455 59.0243 29.0328 59.0683 29.0194 59.1131H29.0202L29.0105 59.1422C29.2873 59.0266 29.5642 58.8945 29.8411 58.7474C29.8888 58.7221 29.9358 58.696 29.9836 58.6698L29.9463 58.684ZM21.9918 51.5333C22.3985 50.6616 22.9112 49.8579 23.5067 49.1139C24.1015 48.3706 24.7791 47.687 25.5149 47.0564L25.5769 47.0034L25.6202 47.0721L26.4784 48.428L26.509 48.4766L26.4672 48.5169C25.8888 49.0669 25.3724 49.6094 24.9194 50.1445C24.4672 50.6788 24.0784 51.2057 23.7567 51.7251L23.7321 51.7646L23.6866 51.7579C23.4127 51.7176 23.1403 51.6877 22.8694 51.6669C22.5933 51.646 22.3224 51.6348 22.0552 51.6333L21.9455 51.6325L21.9918 51.5333ZM23.6164 49.2012C23.0508 49.9086 22.5605 50.6698 22.1657 51.4937C22.403 51.4974 22.6418 51.5079 22.8799 51.5266C23.1381 51.546 23.3985 51.5743 23.6612 51.6116C23.9828 51.0982 24.3672 50.5788 24.812 50.0534C25.2567 49.528 25.7634 48.9952 26.3284 48.4549L25.5448 47.2161C24.8388 47.8273 24.1888 48.487 23.6164 49.2012Z" fill="#3D107A"/>
<path fill-rule="evenodd" clip-rule="evenodd" d="M37.7836 53.5556C38.1373 53.6317 38.4015 53.7511 38.5776 53.9176C38.8209 54.1489 38.9425 54.4317 38.9425 54.7661C38.9425 55.0206 38.8627 55.2646 38.7022 55.4967C38.5418 55.7295 38.3216 55.8989 38.0418 56.0056C37.7634 56.1123 37.3366 56.1661 36.7619 56.1661H34.3552V56.028H34.5455C34.7575 56.028 34.9097 55.9594 35.0022 55.8243C35.0597 55.737 35.0881 55.5497 35.0881 55.2646V51.9571C35.0881 51.6414 35.0522 51.4422 34.9799 51.3601C34.8821 51.2489 34.7388 51.1937 34.5455 51.1937H34.3552V51.0549H36.5582C36.9694 51.0549 37.2978 51.0847 37.5463 51.1452C37.9224 51.2362 38.209 51.3959 38.4067 51.6258C38.6045 51.8556 38.7037 52.1191 38.7037 52.4183C38.7037 52.6743 38.6269 52.9026 38.4709 53.1056C38.3157 53.3079 38.0866 53.4579 37.7836 53.5556ZM35.8127 53.3459C35.9052 53.3638 36.0119 53.3773 36.1299 53.3862C36.2493 53.3952 36.3806 53.3989 36.5231 53.3989C36.8896 53.3989 37.1657 53.3586 37.3493 53.281C37.5328 53.2019 37.6746 53.0817 37.7724 52.9183C37.8687 52.7564 37.9172 52.5788 37.9172 52.3862C37.9172 52.0885 37.7955 51.8347 37.5522 51.6243C37.3097 51.4153 36.9552 51.3094 36.4896 51.3094C36.2396 51.3094 36.0134 51.3362 35.8127 51.3914V53.3459ZM35.8127 55.7952C36.1045 55.8631 36.3933 55.8967 36.6776 55.8967C37.1336 55.8967 37.4821 55.7937 37.7209 55.5892C37.9597 55.3855 38.0791 55.1317 38.0791 54.8317C38.0791 54.6332 38.0239 54.4422 37.9119 54.2594C37.8015 54.0758 37.6246 53.9317 37.3813 53.8265C37.1388 53.7213 36.8366 53.6683 36.4784 53.6683C36.3224 53.6683 36.1903 53.6713 36.0799 53.6765C35.9694 53.6817 35.8806 53.6907 35.8127 53.7019V55.7952ZM42.8985 54.4631H40.9187L40.5769 55.2631C40.4918 55.4609 40.4485 55.6101 40.4485 55.7079C40.4485 55.7847 40.4858 55.8541 40.5604 55.9131C40.6336 55.9713 40.794 56.0094 41.0396 56.028V56.1661H39.4284V56.028C39.6418 55.9907 39.7791 55.9414 39.8418 55.881C39.9702 55.7601 40.1119 55.5153 40.2672 55.1459L42.0649 50.9392H42.1918L43.9687 55.1914C44.1119 55.5332 44.241 55.7541 44.3582 55.8564C44.4754 55.9579 44.6373 56.0146 44.8463 56.028V56.1661H42.8321V56.028C43.0351 56.0176 43.1724 55.984 43.244 55.9265C43.3164 55.8683 43.3507 55.7974 43.3507 55.7138C43.3507 55.6034 43.3007 55.4288 43.2007 55.19L42.8985 54.4631ZM42.7828 54.1855L41.9224 52.1228L41.0381 54.1855H42.7828ZM44.8313 51.0549H46.2045L49.3358 54.8929V51.9414C49.3358 51.6273 49.3 51.4303 49.2291 51.3519C49.1358 51.2467 48.9866 51.1937 48.7836 51.1937H48.6037V51.0549H50.4V51.1937H50.2172C49.9978 51.1937 49.8433 51.2594 49.7507 51.3907C49.6955 51.4713 49.6672 51.6556 49.6672 51.9414V56.2489H49.5313L46.1672 52.1317V55.2795C46.1672 55.5944 46.2022 55.7914 46.2702 55.8698C46.3664 55.975 46.5157 56.028 46.7172 56.028H46.9V56.1661H45.1037V56.028H45.2836C45.5045 56.028 45.6597 55.9623 45.7522 55.831C45.8075 55.7504 45.8358 55.5661 45.8358 55.2795V51.7258C45.6881 51.5526 45.5754 51.4377 45.4993 51.3825C45.4224 51.3273 45.3104 51.2765 45.1627 51.2273C45.0896 51.2056 44.9791 51.1937 44.8313 51.1937V51.0549ZM52.8037 53.3317L54.6903 55.2019C54.9993 55.5138 55.2627 55.7258 55.4813 55.8377C55.7 55.9489 55.9187 56.0123 56.1366 56.028V56.1661H53.703V56.028C53.85 56.028 53.9537 56.0034 54.0179 55.9541C54.0821 55.9056 54.1142 55.8504 54.1142 55.79C54.1142 55.7295 54.1015 55.6758 54.0784 55.628C54.0537 55.5803 53.9754 55.4907 53.8433 55.3609L52.0821 53.6146V55.2646C52.0821 55.5228 52.0985 55.6937 52.1321 55.7758C52.156 55.8385 52.2104 55.8929 52.291 55.9377C52.4 55.9982 52.5157 56.028 52.6381 56.028H52.8142V56.1661H50.6246V56.028H50.806C51.0179 56.028 51.1709 55.9661 51.2672 55.8437C51.3276 55.7631 51.3567 55.5706 51.3567 55.2646V51.9571C51.3567 51.6989 51.3403 51.5265 51.3082 51.4422C51.2828 51.3817 51.2313 51.3288 51.153 51.284C51.0425 51.2235 50.9269 51.1937 50.806 51.1937H50.6246V51.0549H52.8142V51.1937H52.6381C52.5187 51.1937 52.403 51.222 52.291 51.2803C52.2127 51.3198 52.1575 51.3803 52.1284 51.4616C52.097 51.5407 52.0821 51.7064 52.0821 51.9571V53.525C52.1321 53.4758 52.3037 53.3168 52.597 53.0452C53.3418 52.3616 53.7933 51.9056 53.9485 51.6773C54.0164 51.5758 54.05 51.4885 54.05 51.4123C54.05 51.3549 54.0231 51.3041 53.9701 51.2594C53.9179 51.2161 53.8291 51.1937 53.703 51.1937H53.5873V51.0549H55.4672V51.1937C55.3567 51.1967 55.2567 51.2116 55.1664 51.24C55.0754 51.2676 54.9649 51.3213 54.8351 51.4011C54.7045 51.4817 54.5433 51.6101 54.3537 51.7877C54.2985 51.8377 54.0425 52.0944 53.5866 52.5586L52.8037 53.3317ZM62.4209 54.7556L62.544 54.7825L62.1052 56.1661H58.15V56.028H58.3418C58.5575 56.028 58.7119 55.9579 58.8045 55.8183C58.8567 55.7385 58.8828 55.5534 58.8828 55.2646V51.9571C58.8828 51.6385 58.8478 51.4392 58.7769 51.3601C58.6799 51.2489 58.5343 51.1937 58.3418 51.1937H58.15V51.0549H60.4627V51.1937C60.1918 51.1914 60.0015 51.2161 59.891 51.2683C59.7821 51.3198 59.7075 51.387 59.6679 51.4653C59.6276 51.5444 59.6075 51.7347 59.6075 52.034V55.2571C59.6075 55.4661 59.6276 55.6086 59.6679 55.687C59.697 55.7414 59.7448 55.7795 59.8075 55.8056C59.8694 55.8295 60.0657 55.8429 60.3963 55.8429H60.7687C61.1619 55.8429 61.4366 55.8146 61.5948 55.7564C61.753 55.6989 61.8978 55.5959 62.0291 55.4497C62.159 55.3034 62.2903 55.0713 62.4209 54.7556ZM66.2373 54.4631H64.2575L63.9157 55.2631C63.8306 55.4609 63.7866 55.6101 63.7866 55.7079C63.7866 55.7847 63.8239 55.8541 63.8985 55.9131C63.9716 55.9713 64.1328 56.0094 64.3776 56.028V56.1661H62.7664V56.028C62.9799 55.9907 63.1172 55.9414 63.1806 55.881C63.309 55.7601 63.45 55.5153 63.606 55.1459L65.403 50.9392H65.5306L67.3075 55.1914C67.45 55.5332 67.5799 55.7541 67.697 55.8564C67.8134 55.9579 67.9754 56.0146 68.1851 56.028V56.1661H66.1702V56.028C66.3731 56.0176 66.5112 55.984 66.5828 55.9265C66.6545 55.8683 66.6896 55.7974 66.6896 55.7138C66.6896 55.6034 66.6396 55.4288 66.5388 55.19L66.2373 54.4631ZM66.1216 54.1855L65.2605 52.1228L64.3769 54.1855H66.1216ZM71.4254 56.1661L69.4522 51.8661V55.2795C69.4522 55.5944 69.4866 55.7914 69.5545 55.8698C69.6485 55.975 69.7978 56.028 70.0015 56.028H70.1843V56.1661H68.3881V56.028H68.5716C68.7903 56.028 68.944 55.9623 69.0366 55.831C69.0918 55.7504 69.1202 55.5661 69.1202 55.2795V51.9414C69.1202 51.7153 69.0948 51.5511 69.0448 51.4511C69.009 51.378 68.9433 51.3176 68.8478 51.2676C68.7515 51.2183 68.5985 51.1937 68.3881 51.1937V51.0549H69.853L71.6955 55.0511L73.5209 51.0549H74.9716V51.1937H74.7933C74.5709 51.1937 74.4157 51.2594 74.3231 51.3907C74.2679 51.4713 74.2396 51.6556 74.2396 51.9414V55.2795C74.2396 55.5944 74.2754 55.7914 74.3463 55.8698C74.4396 55.975 74.5888 56.028 74.7933 56.028H74.9716V56.1661H72.7821V56.028H72.9657C73.1873 56.028 73.341 55.9623 73.4313 55.831C73.4866 55.7504 73.5149 55.5661 73.5149 55.2795V51.8661L71.5485 56.1661H71.4254ZM76.7075 53.7698V55.2646C76.7075 55.5855 76.7425 55.7847 76.8127 55.8616C76.9082 55.972 77.0522 56.028 77.2448 56.028H77.4403V56.1661H75.2508V56.028H75.4433C75.659 56.028 75.8149 55.9571 75.9075 55.8168C75.9575 55.74 75.9828 55.5549 75.9828 55.2646V51.9571C75.9828 51.6362 75.9493 51.437 75.8813 51.3601C75.7821 51.2489 75.6373 51.1937 75.4433 51.1937H75.2508V51.0549H77.1239C77.5813 51.0549 77.941 51.1026 78.206 51.1967C78.4694 51.29 78.6918 51.4497 78.8724 51.6735C79.0537 51.8967 79.144 52.1616 79.144 52.4676C79.144 52.8847 79.006 53.2243 78.7313 53.4847C78.456 53.7459 78.0687 53.8765 77.5657 53.8765C77.4425 53.8765 77.3105 53.8676 77.1679 53.8497C77.0239 53.8332 76.8709 53.8064 76.7075 53.7698ZM76.7075 53.5541C76.8403 53.5803 76.9582 53.5989 77.0612 53.6109C77.1627 53.6235 77.2507 53.6303 77.3231 53.6303C77.5836 53.6303 77.8075 53.5288 77.9963 53.3265C78.1851 53.125 78.2806 52.8646 78.2806 52.5444C78.2806 52.3235 78.2351 52.1176 78.1455 51.9288C78.0552 51.74 77.9269 51.5989 77.7627 51.5049C77.597 51.4109 77.409 51.3638 77.2 51.3638C77.0709 51.3638 76.9082 51.3877 76.7075 51.4355V53.5541ZM83.1 51.1937V51.0549H84.8963V51.1937H84.7045C84.5045 51.1937 84.35 51.2773 84.2418 51.4459C84.1896 51.5243 84.1634 51.7041 84.1634 51.9877V54.0594C84.1634 54.572 84.1134 54.9691 84.0119 55.2519C83.9104 55.534 83.7105 55.7773 83.4134 55.9788C83.1164 56.1803 82.7127 56.2817 82.2015 56.2817C81.6455 56.2817 81.2224 56.1855 80.9351 55.9914C80.6455 55.7989 80.4418 55.5385 80.3216 55.2116C80.241 54.9885 80.2015 54.5691 80.2015 53.9541V51.9571C80.2015 51.6437 80.1575 51.4377 80.0716 51.3407C79.9851 51.2429 79.8455 51.1937 79.6522 51.1937H79.4612V51.0549H81.6657V51.1937H81.4709C81.2597 51.1937 81.1097 51.2609 81.0194 51.3929C80.9567 51.4832 80.9261 51.672 80.9261 51.9571V54.184C80.9261 54.3817 80.944 54.6094 80.9799 54.8661C81.0172 55.122 81.0828 55.3213 81.1776 55.4646C81.2739 55.6079 81.4112 55.7258 81.5903 55.8198C81.7701 55.9116 81.9896 55.9579 82.2507 55.9579C82.5843 55.9579 82.8843 55.8847 83.147 55.74C83.4104 55.5944 83.5903 55.4071 83.6873 55.181C83.7836 54.9534 83.8321 54.5683 83.8321 54.0258V51.9571C83.8321 51.6385 83.7978 51.4392 83.7269 51.3601C83.6291 51.2489 83.4843 51.1937 83.291 51.1937H83.1ZM84.8791 51.0549H86.253L89.3843 54.8929V51.9414C89.3843 51.6273 89.3485 51.4303 89.2776 51.3519C89.1836 51.2467 89.0343 51.1937 88.8313 51.1937H88.6515V51.0549H90.4478V51.1937H90.2657C90.0455 51.1937 89.8918 51.2594 89.7993 51.3907C89.744 51.4713 89.7157 51.6556 89.7157 51.9414V56.2489H89.5799L86.2157 52.1317V55.2795C86.2157 55.5944 86.25 55.7914 86.3187 55.8698C86.4149 55.975 86.5642 56.028 86.7657 56.028H86.9478V56.1661H85.1515V56.028H85.3313C85.553 56.028 85.7082 55.9623 85.8008 55.831C85.856 55.7504 85.8843 55.5661 85.8843 55.2795V51.7258C85.7366 51.5526 85.6231 51.4377 85.5478 51.3825C85.4701 51.3273 85.359 51.2765 85.2112 51.2273C85.1373 51.2056 85.0269 51.1937 84.8791 51.1937V51.0549ZM95.2754 50.9392L95.406 52.5511H95.2679C95.1351 52.1511 94.9634 51.8504 94.7537 51.6474C94.4508 51.3556 94.0612 51.2094 93.5858 51.2094C92.9381 51.2094 92.4448 51.4661 92.1067 51.9817C91.8239 52.4146 91.6828 52.9325 91.6828 53.5325C91.6828 54.0191 91.7769 54.4631 91.9657 54.8646C92.153 55.2661 92.4 55.5601 92.7045 55.7474C93.009 55.934 93.3224 56.028 93.6433 56.028C93.8313 56.028 94.0134 56.0034 94.1896 55.9556C94.3642 55.9079 94.5336 55.8377 94.697 55.7437V54.2623C94.697 54.0056 94.6776 53.837 94.6396 53.7586C94.5993 53.6788 94.5388 53.6183 94.4582 53.5773C94.3761 53.5347 94.2321 53.5146 94.0261 53.5146V53.3758H96V53.5146H95.906C95.7112 53.5146 95.5776 53.5803 95.5037 53.7109C95.4537 53.8034 95.4299 53.987 95.4299 54.2623V55.8288C95.1418 55.9855 94.8567 56.0997 94.5761 56.1728C94.2948 56.2459 93.9828 56.2817 93.6396 56.2817C92.6537 56.2817 91.906 55.9661 91.3948 55.3325C91.0112 54.8586 90.8194 54.3101 90.8194 53.6907C90.8194 53.2407 90.9269 52.8094 91.1433 52.3982C91.3985 51.9086 91.7493 51.5303 92.1955 51.2676C92.5694 51.0489 93.0097 50.9392 93.5202 50.9392C93.7052 50.9392 93.8731 50.9549 94.0254 50.9847C94.1769 51.0153 94.3911 51.081 94.6702 51.184C94.8105 51.2362 94.9052 51.2631 94.953 51.2631C95 51.2631 95.0403 51.2414 95.0746 51.1982C95.1082 51.1541 95.1291 51.0683 95.1366 50.9392H95.2754Z" fill="#0A4390"/>
<path fill-rule="evenodd" clip-rule="evenodd" d="M36.462 59.2348C36.6247 59.2698 36.747 59.325 36.8276 59.4019C36.9396 59.5086 36.9963 59.6385 36.9963 59.7922C36.9963 59.9094 36.9597 60.0221 36.8851 60.1295C36.8112 60.2362 36.7105 60.3146 36.5814 60.3639C36.453 60.4131 36.256 60.4377 35.9918 60.4377H34.8836V60.3736H34.9709C35.0687 60.3736 35.1381 60.3422 35.1814 60.2803C35.2075 60.24 35.2209 60.1534 35.2209 60.0221V58.4989C35.2209 58.3534 35.2038 58.2616 35.1709 58.2236C35.1261 58.1728 35.0597 58.1474 34.9709 58.1474H34.8836V58.0833H35.8978C36.0873 58.0833 36.2388 58.0967 36.353 58.125C36.5261 58.1668 36.6582 58.24 36.7493 58.3459C36.8403 58.4519 36.8858 58.5736 36.8858 58.7116C36.8858 58.8288 36.8508 58.9348 36.7791 59.028C36.7075 59.1206 36.6023 59.19 36.462 59.2348ZM35.5545 59.1385C35.597 59.1467 35.6463 59.1527 35.7008 59.1571C35.7552 59.1609 35.8157 59.1631 35.8814 59.1631C36.05 59.1631 36.1776 59.1445 36.262 59.1086C36.347 59.0721 36.412 59.0168 36.4567 58.9415C36.5015 58.8668 36.5239 58.7855 36.5239 58.6967C36.5239 58.5594 36.4679 58.443 36.356 58.3459C36.2441 58.2489 36.0806 58.2004 35.8664 58.2004C35.7508 58.2004 35.647 58.2131 35.5545 58.2385V59.1385ZM35.5545 60.2668C35.6888 60.2982 35.8217 60.3131 35.953 60.3131C36.1627 60.3131 36.3232 60.2661 36.4336 60.1721C36.5433 60.078 36.5985 59.9609 36.5985 59.8228C36.5985 59.7318 36.5732 59.6437 36.5217 59.5594C36.4702 59.475 36.3888 59.4086 36.2769 59.3601C36.1649 59.3116 36.0261 59.287 35.8612 59.287C35.7896 59.287 35.7284 59.2885 35.6776 59.2907C35.6269 59.293 35.5858 59.2974 35.5545 59.3027V60.2668ZM38.8179 59.6527H37.906L37.7485 60.0213C37.7097 60.1124 37.6896 60.181 37.6896 60.2265C37.6896 60.2616 37.7067 60.2937 37.7411 60.3213C37.7747 60.3474 37.8485 60.3653 37.962 60.3736V60.4377H37.2194V60.3736C37.3179 60.3564 37.3814 60.334 37.4105 60.3064C37.4694 60.2504 37.5344 60.1377 37.606 59.9676L38.4344 58.0303H38.4926L39.3112 59.9885C39.3769 60.1459 39.4366 60.2474 39.4903 60.2952C39.5441 60.3415 39.6187 60.3676 39.7157 60.3736V60.4377H38.7873V60.3736C38.8806 60.3691 38.9441 60.3534 38.9776 60.3273C39.0105 60.3004 39.0269 60.2676 39.0269 60.2295C39.0269 60.178 39.0038 60.0982 38.9575 59.9877L38.8179 59.6527ZM38.7649 59.525L38.3687 58.575L37.9612 59.525H38.7649ZM39.7082 58.0833H40.3411L41.7836 59.8512V58.4915C41.7836 58.3467 41.7664 58.2564 41.7344 58.2198C41.6911 58.1713 41.6224 58.1474 41.5291 58.1474H41.4463V58.0833H42.2732V58.1474H42.1888C42.0881 58.1474 42.0172 58.1773 41.9747 58.2377C41.9493 58.275 41.9358 58.3601 41.9358 58.4915V60.4758H41.8732L40.3239 58.5795V60.0295C40.3239 60.1743 40.3396 60.2646 40.3709 60.3012C40.4157 60.3497 40.4844 60.3736 40.5769 60.3736H40.6612V60.4377H39.8336V60.3736H39.9164C40.0187 60.3736 40.0903 60.3437 40.1329 60.2833C40.1582 60.2459 40.1709 60.1609 40.1709 60.0295V58.3922C40.103 58.3124 40.0508 58.2601 40.0164 58.234C39.9806 58.2086 39.9291 58.1855 39.8612 58.1624C39.8276 58.1527 39.7761 58.1474 39.7082 58.1474V58.0833ZM43.3806 59.1318L44.2493 59.993C44.3918 60.137 44.5135 60.2348 44.6142 60.2862C44.7142 60.3377 44.8149 60.3668 44.9157 60.3736V60.4377H43.7948V60.3736C43.862 60.3736 43.9105 60.3624 43.9396 60.34C43.9694 60.3176 43.9844 60.2922 43.9844 60.2639C43.9844 60.2362 43.9784 60.2116 43.9679 60.19C43.9567 60.1676 43.9202 60.1265 43.859 60.0668L43.0478 59.2624V60.0221C43.0478 60.1415 43.056 60.2198 43.0709 60.2579C43.0821 60.287 43.1067 60.3116 43.1441 60.3325C43.1948 60.3601 43.2478 60.3736 43.3045 60.3736H43.3851V60.4377H42.3769V60.3736H42.4605C42.5582 60.3736 42.6284 60.3452 42.6724 60.2892C42.7008 60.2519 42.7142 60.1631 42.7142 60.0221V58.4989C42.7142 58.3795 42.7067 58.3004 42.6918 58.2616C42.6799 58.234 42.656 58.2094 42.6202 58.1885C42.5694 58.1609 42.5157 58.1474 42.4605 58.1474H42.3769V58.0833H43.3851V58.1474H43.3045C43.2493 58.1474 43.1955 58.1601 43.1441 58.187C43.1082 58.2056 43.0829 58.2333 43.0694 58.2706C43.0552 58.3071 43.0478 58.3833 43.0478 58.4989V59.2206C43.0709 59.1982 43.15 59.125 43.2851 59.0004C43.6284 58.6855 43.8358 58.475 43.9075 58.3698C43.9396 58.3228 43.9545 58.2825 43.9545 58.2482C43.9545 58.2213 43.9426 58.1982 43.9179 58.1773C43.8933 58.1571 43.853 58.1474 43.7948 58.1474H43.7418V58.0833H44.6075V58.1474C44.5567 58.1482 44.5105 58.1556 44.4687 58.1683C44.4269 58.181 44.3761 58.2056 44.3164 58.243C44.256 58.2795 44.1821 58.3392 44.0941 58.4206C44.0687 58.4437 43.9508 58.5624 43.7411 58.7758L43.3806 59.1318ZM44.8373 58.0833H45.4694L46.912 59.8512V58.4915C46.912 58.3467 46.8955 58.2564 46.8627 58.2198C46.8194 58.1713 46.7508 58.1474 46.6575 58.1474H46.5747V58.0833H47.4015V58.1474H47.3179C47.2164 58.1474 47.1455 58.1773 47.103 58.2377C47.0776 58.275 47.0642 58.3601 47.0642 58.4915V60.4758H47.0015L45.4523 58.5795V60.0295C45.4523 60.1743 45.4687 60.2646 45.5 60.3012C45.5441 60.3497 45.6127 60.3736 45.706 60.3736H45.7896V60.4377H44.9627V60.3736H45.0455C45.147 60.3736 45.2187 60.3437 45.2612 60.2833C45.2866 60.2459 45.3 60.1609 45.3 60.0295V58.3922C45.2321 58.3124 45.1799 58.2601 45.1448 58.234C45.109 58.2086 45.0575 58.1855 44.9896 58.1624C44.956 58.1527 44.9052 58.1474 44.8373 58.1474V58.0833ZM49.1448 58.0833H49.9657V58.1474H49.9209C49.8903 58.1474 49.8463 58.1609 49.7888 58.1877C49.7306 58.2139 49.6784 58.2527 49.6306 58.3027C49.5836 58.3519 49.5254 58.434 49.456 58.5459L48.8903 59.4303V60.0295C48.8903 60.1743 48.9067 60.2646 48.9396 60.3012C48.9836 60.3497 49.0545 60.3736 49.15 60.3736H49.2276V60.4377H48.2194V60.3736H48.3038C48.4045 60.3736 48.4754 60.3437 48.5179 60.2833C48.5433 60.2459 48.5567 60.1609 48.5567 60.0295V59.4788L47.9127 58.4833C47.8366 58.3683 47.7851 58.2967 47.7575 58.2683C47.7306 58.2392 47.6739 58.2049 47.5881 58.1646C47.5649 58.1534 47.5321 58.1474 47.4881 58.1474V58.0833H48.4911V58.1474H48.4396C48.3851 58.1474 48.3344 58.1601 48.2888 58.1855C48.2433 58.2109 48.2202 58.2489 48.2202 58.2997C48.2202 58.3422 48.256 58.4168 48.3269 58.5258L48.8142 59.2848L49.2776 58.5594C49.3478 58.4504 49.3821 58.3691 49.3821 58.3161C49.3821 58.2833 49.3739 58.2542 49.3575 58.2288C49.3403 58.2034 49.3164 58.1833 49.2851 58.1691C49.2538 58.1542 49.2067 58.1474 49.1448 58.1474V58.0833ZM51.2463 59.6527H50.3344L50.1769 60.0213C50.1381 60.1124 50.1179 60.181 50.1179 60.2265C50.1179 60.2616 50.1351 60.2937 50.1694 60.3213C50.203 60.3474 50.2769 60.3653 50.3896 60.3736V60.4377H49.6478V60.3736C49.7463 60.3564 49.8097 60.334 49.8381 60.3064C49.8978 60.2504 49.9627 60.1377 50.0344 59.9676L50.862 58.0303H50.9209L51.7396 59.9885C51.8052 60.1459 51.8649 60.2474 51.9187 60.2952C51.9724 60.3415 52.047 60.3676 52.1433 60.3736V60.4377H51.2157V60.3736C51.309 60.3691 51.3724 60.3534 51.4052 60.3273C51.4388 60.3004 51.4545 60.2676 51.4545 60.2295C51.4545 60.178 51.4314 60.0982 51.3851 59.9877L51.2463 59.6527ZM51.1933 59.525L50.7963 58.575L50.3896 59.525H51.1933ZM54.3276 60.4377L53.4187 58.4571V60.0295C53.4187 60.1743 53.4351 60.2646 53.4664 60.3012C53.5097 60.3497 53.5784 60.3736 53.6724 60.3736H53.756V60.4377H52.9291V60.3736H53.0135C53.1142 60.3736 53.1851 60.3437 53.2276 60.2833C53.253 60.2459 53.2664 60.1609 53.2664 60.0295V58.4915C53.2664 58.3877 53.2545 58.3116 53.2314 58.2653C53.2149 58.2318 53.1844 58.2042 53.1403 58.181C53.0963 58.1586 53.0261 58.1474 52.9291 58.1474V58.0833H53.6038L54.4523 59.9236L55.2933 58.0833H55.9612V58.1474H55.8791C55.7769 58.1474 55.7052 58.1773 55.6627 58.2377C55.6366 58.275 55.6239 58.3601 55.6239 58.4915V60.0295C55.6239 60.1743 55.6403 60.2646 55.6732 60.3012C55.7164 60.3497 55.7851 60.3736 55.8791 60.3736H55.9612V60.4377H54.953V60.3736H55.0373C55.1388 60.3736 55.2105 60.3437 55.2515 60.2833C55.2769 60.2459 55.2903 60.1609 55.2903 60.0295V58.4571L54.3844 60.4377H54.3276ZM57.6597 59.6527H56.7478L56.5903 60.0213C56.5515 60.1124 56.5314 60.181 56.5314 60.2265C56.5314 60.2616 56.5485 60.2937 56.5829 60.3213C56.6164 60.3474 56.6903 60.3653 56.8038 60.3736V60.4377H56.0612V60.3736C56.1597 60.3564 56.2232 60.334 56.2515 60.3064C56.3112 60.2504 56.3761 60.1377 56.4478 59.9676L57.2754 58.0303H57.3344L58.153 59.9885C58.2187 60.1459 58.2784 60.2474 58.3321 60.2952C58.3858 60.3415 58.4605 60.3676 58.5567 60.3736V60.4377H57.6291V60.3736C57.7224 60.3691 57.7858 60.3534 57.8187 60.3273C57.8523 60.3004 57.8679 60.2676 57.8679 60.2295C57.8679 60.178 57.8448 60.0982 57.7985 59.9877L57.6597 59.6527ZM57.6067 59.525L57.2097 58.575L56.803 59.525H57.6067ZM60.2269 58.0303V58.843H60.1635C60.1426 58.687 60.1052 58.5624 60.0515 58.4706C59.9978 58.378 59.9202 58.3049 59.8202 58.2504C59.7209 58.1959 59.6179 58.1683 59.5112 58.1683C59.3911 58.1683 59.2911 58.2056 59.2127 58.2788C59.1336 58.3519 59.0941 58.4362 59.0941 58.5295C59.0941 58.6012 59.1194 58.6668 59.1687 58.7258C59.2411 58.8124 59.4112 58.9288 59.6814 59.0728C59.9015 59.1915 60.0515 59.2818 60.1321 59.3445C60.2127 59.4079 60.2747 59.4818 60.3179 59.5676C60.3612 59.6534 60.3836 59.743 60.3836 59.837C60.3836 60.0153 60.3142 60.1683 60.1761 60.2974C60.0373 60.4265 59.8597 60.4907 59.6426 60.4907C59.5739 60.4907 59.5097 60.4855 59.4493 60.4751C59.4135 60.4691 59.3396 60.4474 59.2261 60.4109C59.1142 60.3743 59.0426 60.3556 59.012 60.3556C58.9829 60.3556 58.9597 60.3646 58.9433 60.3818C58.9269 60.3997 58.9142 60.4355 58.906 60.4907H58.8426V59.6848H58.906C58.9366 59.8534 58.9761 59.9803 59.0276 60.0639C59.0784 60.1474 59.1567 60.2176 59.2612 60.2728C59.3657 60.328 59.4806 60.3556 59.6052 60.3556C59.75 60.3556 59.8649 60.3176 59.9485 60.2415C60.0321 60.1639 60.0746 60.0736 60.0746 59.9698C60.0746 59.9116 60.0582 59.8527 60.0269 59.7937C59.9948 59.7348 59.9463 59.6795 59.8791 59.628C59.8344 59.593 59.7105 59.5198 59.5082 59.4071C59.3067 59.2952 59.1627 59.2056 59.0776 59.1385C58.9926 59.0721 58.9276 58.9974 58.8836 58.9168C58.8396 58.8355 58.8172 58.7459 58.8172 58.6489C58.8172 58.4803 58.8821 58.3348 59.012 58.2131C59.1418 58.0907 59.3075 58.0303 59.5075 58.0303C59.6329 58.0303 59.7657 58.0609 59.906 58.1221C59.9709 58.1512 60.0164 58.1653 60.0433 58.1653C60.0732 58.1653 60.0978 58.1564 60.1172 58.1385C60.1358 58.1198 60.1515 58.0848 60.1635 58.0303H60.2269ZM62.2679 58.0833H63.0888V58.1474H63.0441C63.0142 58.1474 62.9702 58.1609 62.912 58.1877C62.8538 58.2139 62.8023 58.2527 62.7538 58.3027C62.7067 58.3519 62.6485 58.434 62.5791 58.5459L62.0135 59.4303V60.0295C62.0135 60.1743 62.0306 60.2646 62.0627 60.3012C62.1075 60.3497 62.1776 60.3736 62.2739 60.3736H62.3508V60.4377H61.3426V60.3736H61.4269C61.5276 60.3736 61.5985 60.3437 61.6418 60.2833C61.6672 60.2459 61.6799 60.1609 61.6799 60.0295V59.4788L61.0358 58.4833C60.9597 58.3683 60.9082 58.2967 60.8806 58.2683C60.8538 58.2392 60.7978 58.2049 60.712 58.1646C60.6888 58.1534 60.6552 58.1474 60.6112 58.1474V58.0833H61.6149V58.1474H61.5627C61.5082 58.1474 61.4582 58.1601 61.4127 58.1855C61.3672 58.2109 61.3441 58.2489 61.3441 58.2997C61.3441 58.3422 61.3791 58.4168 61.45 58.5258L61.9373 59.2848L62.4015 58.5594C62.4709 58.4504 62.5052 58.3691 62.5052 58.3161C62.5052 58.2833 62.497 58.2542 62.4806 58.2288C62.4635 58.2034 62.4396 58.1833 62.4082 58.1691C62.3769 58.1542 62.3306 58.1474 62.2679 58.1474V58.0833ZM64.3694 59.6527H63.4575L63.3 60.0213C63.2612 60.1124 63.2411 60.181 63.2411 60.2265C63.2411 60.2616 63.2582 60.2937 63.2926 60.3213C63.3261 60.3474 63.4 60.3653 63.5135 60.3736V60.4377H62.7709V60.3736C62.8694 60.3564 62.9329 60.334 62.962 60.3064C63.0209 60.2504 63.0858 60.1377 63.1575 59.9676L63.9858 58.0303H64.0441L64.8627 59.9885C64.9284 60.1459 64.9881 60.2474 65.0418 60.2952C65.0955 60.3415 65.1702 60.3676 65.2672 60.3736V60.4377H64.3388V60.3736C64.4321 60.3691 64.4955 60.3534 64.5291 60.3273C64.562 60.3004 64.5784 60.2676 64.5784 60.2295C64.5784 60.178 64.5553 60.0982 64.509 59.9877L64.3694 59.6527ZM64.3164 59.525L63.9202 58.575L63.5127 59.525H64.3164ZM67.709 60.4377H67.0784L66.2791 59.337C66.2217 59.3392 66.1747 59.3407 66.1388 59.3407C66.1239 59.3407 66.1082 59.34 66.0911 59.3392C66.0739 59.3385 66.0567 59.3377 66.0388 59.337V60.0221C66.0388 60.1698 66.0545 60.2616 66.0873 60.2974C66.1306 60.3482 66.1963 60.3736 66.2844 60.3736H66.3761V60.4377H65.3672V60.3736H65.456C65.5553 60.3736 65.6261 60.3415 65.6687 60.2765C65.6933 60.2415 65.7045 60.1556 65.7045 60.0221V58.4989C65.7045 58.3512 65.6888 58.2594 65.656 58.2236C65.6112 58.1728 65.5441 58.1474 65.456 58.1474H65.3672V58.0833H66.2247C66.4747 58.0833 66.659 58.1019 66.7769 58.1377C66.8963 58.1743 66.997 58.2422 67.0791 58.3392C67.162 58.437 67.203 58.5542 67.203 58.6892C67.203 58.8348 67.156 58.9601 67.062 59.0661C66.9672 59.1728 66.8217 59.2482 66.6232 59.2922L67.1105 59.9668C67.2217 60.1213 67.3172 60.2251 67.397 60.2758C67.4761 60.3273 67.5806 60.3594 67.709 60.3736V60.4377ZM66.0388 59.2265C66.0605 59.2265 66.0791 59.2265 66.0955 59.2273C66.1112 59.228 66.1247 59.2288 66.1344 59.2288C66.3567 59.2288 66.5239 59.1803 66.6366 59.0833C66.7493 58.9855 66.8052 58.8616 66.8052 58.7116C66.8052 58.5646 66.7597 58.4452 66.6694 58.3527C66.5784 58.2609 66.4575 58.2146 66.3082 58.2146C66.2418 58.2146 66.1515 58.2251 66.0388 58.2467V59.2265ZM69.3023 59.6527H68.3903L68.2329 60.0213C68.1941 60.1124 68.1739 60.181 68.1739 60.2265C68.1739 60.2616 68.1911 60.2937 68.2254 60.3213C68.259 60.3474 68.3329 60.3653 68.4463 60.3736V60.4377H67.7038V60.3736C67.8023 60.3564 67.8657 60.334 67.8948 60.3064C67.9538 60.2504 68.0187 60.1377 68.0903 59.9676L68.9187 58.0303H68.9769L69.7955 59.9885C69.8612 60.1459 69.9209 60.2474 69.9747 60.2952C70.0284 60.3415 70.103 60.3676 70.1993 60.3736V60.4377H69.2717V60.3736C69.365 60.3691 69.4284 60.3534 69.462 60.3273C69.4948 60.3004 69.5105 60.2676 69.5105 60.2295C69.5105 60.178 69.4873 60.0982 69.4418 59.9877L69.3023 59.6527ZM69.2493 59.525L68.853 58.575L68.4455 59.525H69.2493ZM71.3 59.1318L72.1694 59.993C72.312 60.137 72.4329 60.2348 72.5336 60.2862C72.6343 60.3377 72.7351 60.3668 72.8358 60.3736V60.4377H71.715V60.3736C71.7821 60.3736 71.8299 60.3624 71.8597 60.34C71.8896 60.3176 71.9038 60.2922 71.9038 60.2639C71.9038 60.2362 71.8978 60.2116 71.8873 60.19C71.8761 60.1676 71.8403 60.1265 71.7791 60.0668L70.9679 59.2624V60.0221C70.9679 60.1415 70.9754 60.2198 70.9911 60.2579C71.0023 60.287 71.0269 60.3116 71.0642 60.3325C71.1142 60.3601 71.1679 60.3736 71.2239 60.3736H71.3052V60.4377H70.297V60.3736H70.3799C70.4776 60.3736 70.5485 60.3452 70.5926 60.2892C70.6202 60.2519 70.6343 60.1631 70.6343 60.0221V58.4989C70.6343 58.3795 70.6261 58.3004 70.6112 58.2616C70.6 58.234 70.5761 58.2094 70.5396 58.1885C70.4888 58.1609 70.4358 58.1474 70.3799 58.1474H70.297V58.0833H71.3052V58.1474H71.2239C71.1687 58.1474 71.1157 58.1601 71.0642 58.187C71.0284 58.2056 71.003 58.2333 70.9888 58.2706C70.9746 58.3071 70.9679 58.3833 70.9679 58.4989V59.2206C70.9911 59.1982 71.0702 59.125 71.2052 59.0004C71.5485 58.6855 71.756 58.475 71.8276 58.3698C71.859 58.3228 71.8746 58.2825 71.8746 58.2482C71.8746 58.2213 71.862 58.1982 71.8381 58.1773C71.8135 58.1571 71.7724 58.1474 71.715 58.1474H71.6612V58.0833H72.5269V58.1474C72.4761 58.1482 72.4299 58.1556 72.3888 58.1683C72.347 58.181 72.2955 58.2056 72.2358 58.243C72.1754 58.2795 72.1015 58.3392 72.0142 58.4206C71.9888 58.4437 71.8709 58.5624 71.6605 58.7758L71.3 59.1318ZM74.4314 59.6527H73.5194L73.362 60.0213C73.3224 60.1124 73.3023 60.181 73.3023 60.2265C73.3023 60.2616 73.3194 60.2937 73.3538 60.3213C73.3881 60.3474 73.462 60.3653 73.5746 60.3736V60.4377H72.8329V60.3736C72.9306 60.3564 72.9941 60.334 73.0232 60.3064C73.0821 60.2504 73.1478 60.1377 73.2194 59.9676L74.047 58.0303H74.1052L74.9239 59.9885C74.9896 60.1459 75.0493 60.2474 75.1038 60.2952C75.1575 60.3415 75.2321 60.3676 75.3284 60.3736V60.4377H74.4V60.3736C74.4941 60.3691 74.5575 60.3534 74.5903 60.3273C74.6232 60.3004 74.6396 60.2676 74.6396 60.2295C74.6396 60.178 74.6164 60.0982 74.5702 59.9877L74.4314 59.6527ZM74.3776 59.525L73.9814 58.575L73.5739 59.525H74.3776ZM77.0306 58.0833L77.056 58.637H76.9903C76.9769 58.54 76.9597 58.4698 76.9381 58.4288C76.9023 58.3616 76.8545 58.3116 76.7948 58.2803C76.7351 58.2482 76.6567 58.2325 76.5597 58.2325H76.2284V60.0295C76.2284 60.1743 76.2441 60.2646 76.2754 60.3012C76.3187 60.3497 76.3866 60.3736 76.4776 60.3736H76.559V60.4377H75.5575V60.3736H75.6418C75.7426 60.3736 75.8135 60.3437 75.856 60.2833C75.8814 60.2459 75.8948 60.1609 75.8948 60.0295V58.2325H75.6127C75.5023 58.2325 75.4239 58.2407 75.3776 58.2571C75.3179 58.2788 75.2664 58.3206 75.2232 58.3833C75.1806 58.4459 75.1552 58.5303 75.147 58.637H75.0814L75.106 58.0833H77.0306ZM80.006 59.7877L80.0627 59.8004L79.8605 60.4377H78.0388V60.3736H78.1269C78.2261 60.3736 78.297 60.3415 78.3403 60.2773C78.3642 60.2407 78.3761 60.1556 78.3761 60.0221V58.4989C78.3761 58.3519 78.3597 58.2601 78.3276 58.2236C78.2829 58.1728 78.2157 58.1474 78.1269 58.1474H78.0388V58.0833H79.1038V58.1474C78.9791 58.1459 78.8918 58.1571 78.8403 58.1818C78.7903 58.2056 78.756 58.2362 78.7373 58.2721C78.7194 58.3086 78.7097 58.3967 78.7097 58.534V60.0183C78.7097 60.1153 78.7194 60.181 78.7373 60.2168C78.7515 60.2415 78.7732 60.2594 78.8023 60.2713C78.8306 60.2825 78.9209 60.2885 79.0732 60.2885H79.2448C79.4261 60.2885 79.5523 60.2758 79.6254 60.2489C79.6985 60.2221 79.7649 60.175 79.8254 60.1071C79.8851 60.04 79.9455 59.9333 80.006 59.7877ZM81.7635 59.6527H80.8515L80.6941 60.0213C80.6553 60.1124 80.6351 60.181 80.6351 60.2265C80.6351 60.2616 80.6523 60.2937 80.6866 60.3213C80.7202 60.3474 80.7941 60.3653 80.9075 60.3736V60.4377H80.1649V60.3736C80.2635 60.3564 80.3269 60.334 80.356 60.3064C80.4149 60.2504 80.4799 60.1377 80.5515 59.9676L81.3799 58.0303H81.4381L82.2567 59.9885C82.3224 60.1459 82.3821 60.2474 82.4358 60.2952C82.4896 60.3415 82.5642 60.3676 82.6605 60.3736V60.4377H81.7329V60.3736C81.8261 60.3691 81.8896 60.3534 81.9224 60.3273C81.956 60.3004 81.9717 60.2676 81.9717 60.2295C81.9717 60.178 81.9485 60.0982 81.9023 59.9877L81.7635 59.6527ZM81.7105 59.525L81.3135 58.575L80.9067 59.525H81.7105ZM84.153 60.4377L83.2441 58.4571V60.0295C83.2441 60.1743 83.2605 60.2646 83.2918 60.3012C83.3351 60.3497 83.4038 60.3736 83.4978 60.3736H83.5814V60.4377H82.7545V60.3736H82.8388C82.9396 60.3736 83.0105 60.3437 83.053 60.2833C83.0784 60.2459 83.0918 60.1609 83.0918 60.0295V58.4915C83.0918 58.3877 83.0799 58.3116 83.0567 58.2653C83.0403 58.2318 83.0097 58.2042 82.9664 58.181C82.9217 58.1586 82.8515 58.1474 82.7545 58.1474V58.0833H83.4291L84.2776 59.9236L85.1187 58.0833H85.7866V58.1474H85.7045C85.6023 58.1474 85.5306 58.1773 85.4881 58.2377C85.4627 58.275 85.4493 58.3601 85.4493 58.4915V60.0295C85.4493 60.1743 85.4657 60.2646 85.4985 60.3012C85.5418 60.3497 85.6105 60.3736 85.7045 60.3736H85.7866V60.4377H84.7784V60.3736H84.8627C84.965 60.3736 85.0358 60.3437 85.0769 60.2833C85.1023 60.2459 85.1157 60.1609 85.1157 60.0295V58.4571L84.2105 60.4377H84.153ZM86.5866 59.334V60.0221C86.5866 60.1698 86.6023 60.2616 86.6351 60.2974C86.6784 60.3482 86.7448 60.3736 86.8336 60.3736H86.9239V60.4377H85.9149V60.3736H86.0038C86.103 60.3736 86.1746 60.3415 86.2179 60.2765C86.2403 60.2415 86.2523 60.1556 86.2523 60.0221V58.4989C86.2523 58.3512 86.2373 58.2594 86.206 58.2236C86.1605 58.1728 86.0933 58.1474 86.0038 58.1474H85.9149V58.0833H86.7776C86.9888 58.0833 87.1545 58.1049 87.2761 58.1482C87.3978 58.1915 87.5 58.2653 87.5836 58.3683C87.6672 58.4713 87.7082 58.593 87.7082 58.734C87.7082 58.9258 87.6448 59.0825 87.5187 59.2027C87.3918 59.3228 87.2127 59.3833 86.9814 59.3833C86.9247 59.3833 86.8635 59.3788 86.7978 59.3706C86.7321 59.3631 86.6612 59.3504 86.5866 59.334ZM86.5866 59.2348C86.647 59.2459 86.7015 59.2549 86.7493 59.2601C86.7955 59.2661 86.8366 59.2691 86.8694 59.2691C86.9896 59.2691 87.0926 59.2228 87.1799 59.1295C87.2664 59.037 87.3105 58.9168 87.3105 58.7691C87.3105 58.6676 87.2896 58.5728 87.2485 58.4855C87.2067 58.3989 87.1478 58.334 87.0724 58.2907C86.9955 58.2474 86.909 58.225 86.8127 58.225C86.7538 58.225 86.6784 58.237 86.5866 58.2586V59.2348ZM89.5306 58.1474V58.0833H90.3582V58.1474H90.2694C90.1776 58.1474 90.106 58.1855 90.0567 58.2631C90.0321 58.2997 90.0202 58.3825 90.0202 58.5131V59.4668C90.0202 59.7034 89.9978 59.8862 89.9508 60.0161C89.9038 60.1467 89.8112 60.2586 89.6746 60.3512C89.5381 60.4445 89.3523 60.4907 89.1172 60.4907C88.8605 60.4907 88.6657 60.4467 88.5336 60.3571C88.4 60.2683 88.306 60.1482 88.2508 59.9982C88.2135 59.8952 88.1955 59.7019 88.1955 59.4183V58.4989C88.1955 58.3542 88.1754 58.2601 88.1358 58.2146C88.0963 58.1698 88.0314 58.1474 87.9426 58.1474H87.8545V58.0833H88.8702V58.1474H88.7799C88.6829 58.1474 88.6135 58.178 88.5724 58.2392C88.5433 58.2803 88.5291 58.3676 88.5291 58.4989V59.5243C88.5291 59.6153 88.5373 59.7206 88.5538 59.8385C88.5709 59.9564 88.6015 60.0482 88.6455 60.1146C88.6896 60.1803 88.753 60.2348 88.8351 60.278C88.9179 60.3206 89.0194 60.3415 89.1396 60.3415C89.2933 60.3415 89.4314 60.3079 89.5523 60.2415C89.6739 60.1743 89.7567 60.0877 89.8008 59.984C89.8455 59.8788 89.8679 59.7012 89.8679 59.4519V58.4989C89.8679 58.3519 89.8515 58.2601 89.8194 58.2236C89.7747 58.1728 89.7075 58.1474 89.6187 58.1474H89.5306ZM90.35 58.0833H90.9829L92.4254 59.8512V58.4915C92.4254 58.3467 92.4082 58.2564 92.3761 58.2198C92.3329 58.1713 92.2642 58.1474 92.1709 58.1474H92.0881V58.0833H92.915V58.1474H92.8314C92.7299 58.1474 92.659 58.1773 92.6164 58.2377C92.5911 58.275 92.5776 58.3601 92.5776 58.4915V60.4758H92.515L90.9657 58.5795V60.0295C90.9657 60.1743 90.9814 60.2646 91.0127 60.3012C91.0575 60.3497 91.1261 60.3736 91.2187 60.3736H91.303V60.4377H90.4754V60.3736H90.5582C90.6605 60.3736 90.7321 60.3437 90.7747 60.2833C90.8 60.2459 90.8127 60.1609 90.8127 60.0295V58.3922C90.7448 58.3124 90.6926 58.2601 90.6582 58.234C90.6224 58.2086 90.5709 58.1855 90.503 58.1624C90.4694 58.1527 90.4179 58.1474 90.35 58.1474V58.0833ZM95.1388 58.0303L95.1993 58.7721H95.1351C95.0739 58.5885 94.9948 58.4497 94.8985 58.3564C94.7582 58.2221 94.5791 58.1542 94.3605 58.1542C94.062 58.1542 93.8351 58.2728 93.6791 58.5101C93.5485 58.7094 93.4836 58.9482 93.4836 59.2243C93.4836 59.4489 93.5269 59.6527 93.6142 59.8377C93.7008 60.0228 93.8142 60.1586 93.9545 60.2445C94.0948 60.3303 94.2388 60.3736 94.3866 60.3736C94.4732 60.3736 94.5575 60.3624 94.6381 60.3407C94.7187 60.3183 94.797 60.2862 94.8724 60.243V59.5609C94.8724 59.4422 94.8635 59.3646 94.8455 59.3288C94.8276 59.2922 94.7993 59.2639 94.762 59.2452C94.7239 59.2258 94.6582 59.2161 94.5635 59.2161V59.1519H95.4724V59.2161H95.4291C95.3388 59.2161 95.2776 59.2459 95.2441 59.3064C95.2209 59.3489 95.2097 59.434 95.2097 59.5609V60.2818C95.0769 60.3542 94.9455 60.4071 94.8164 60.4407C94.6873 60.4743 94.5433 60.4907 94.3851 60.4907C93.9314 60.4907 93.5866 60.3452 93.3515 60.0534C93.1747 59.8348 93.0858 59.5825 93.0858 59.2974C93.0858 59.09 93.1358 58.8915 93.2351 58.7019C93.353 58.4765 93.5149 58.3027 93.7202 58.181C93.8918 58.0803 94.0948 58.0303 94.3299 58.0303C94.4149 58.0303 94.4926 58.037 94.5627 58.0512C94.6329 58.0653 94.7314 58.0952 94.8597 58.143C94.9246 58.1668 94.9679 58.1795 94.9903 58.1795C95.012 58.1795 95.0299 58.1691 95.0463 58.1489C95.0612 58.1288 95.0709 58.0892 95.0746 58.0303H95.1388Z" fill="#DD1717"/>
</g>
</g>
<rect x="1" y="1" width="110" height="110" rx="9" stroke="#CCCCCC" stroke-width="2"/>
<defs>
<clipPath id="clip0_421_561">
<rect x="2" y="2" width="108" height="108" rx="8" fill="white"/>
</clipPath>
<clipPath id="clip1_421_561">
<rect width="80" height="17.9104" fill="white" transform="translate(16 47)"/>
</clipPath>
</defs>
</svg>
