<svg width="112" height="112" viewBox="0 0 112 112" fill="none" xmlns="http://www.w3.org/2000/svg">
<g clip-path="url(#clip0_642_1038)">
<rect x="2" y="2" width="108" height="108" rx="8" fill="white"/>
<path fill-rule="evenodd" clip-rule="evenodd" d="M16 56.402H61.838L78.646 59.0889L95.7192 56.402V76.7861H16V56.402Z" fill="#007CC5"/>
<path fill-rule="evenodd" clip-rule="evenodd" d="M30.2498 61.5224C30.1952 61.5224 28.5144 61.5224 28.5144 61.5224V65.6093H29.9495V62.7001C30.0236 62.6689 30.1562 62.6455 30.2693 62.6455C30.5345 62.6455 30.6905 62.7976 30.6905 63.055V65.6093H32.1295V62.8873C32.1295 62.0059 31.5796 61.5263 30.2537 61.5263L30.2498 61.5224ZM35.1362 61.616L34.2588 63.2812H34.2432V60.1692H32.8236V65.6093H34.2432V63.64H34.2588L35.2649 65.6093H36.8482L35.7017 63.4606L36.7468 61.616H35.1362ZM22.9728 62.7274V62.7079C23.4018 62.5714 23.7372 62.2087 23.7372 61.6823C23.7372 60.8009 23.1093 60.1497 21.5923 60.1497H19.8218V65.5976H21.5923C23.1093 65.5976 23.8347 65.0049 23.8347 64.0026C23.8347 63.3436 23.3784 62.8873 22.9767 62.7235L22.9728 62.7274ZM21.2179 61.2845C21.3076 61.2572 21.448 61.2494 21.5806 61.2494C22.1577 61.2494 22.3293 61.4795 22.3293 61.8461C22.3293 62.041 22.2708 62.1892 22.1811 62.275C22.1149 62.3413 21.9433 62.4076 21.7444 62.4076H21.2179V61.2845ZM21.5806 64.5018C21.448 64.5018 21.2998 64.4784 21.2179 64.4628V63.3241H21.7444C21.9745 63.3241 22.1148 63.3826 22.2123 63.4723C22.3098 63.562 22.3683 63.7218 22.3683 63.8973C22.3683 64.3341 22.146 64.4979 21.5806 64.4979V64.5018ZM56.39 61.538C56.2847 61.5068 56.1092 61.4795 55.9688 61.4795C54.717 61.4795 54.0813 62.2711 54.0813 63.5074C54.0813 64.8684 54.8067 65.5976 56.1482 65.6093H57.829V60.1692H56.39V61.5419V61.538ZM56.39 64.4628C56.3393 64.4862 56.2418 64.494 56.1482 64.494C55.7387 64.494 55.5203 64.1742 55.5203 63.4957C55.5203 62.9185 55.7348 62.5363 56.1326 62.5363C56.234 62.5363 56.3471 62.5597 56.39 62.5831V64.4628ZM51.6985 61.5185H49.9592V65.6054H51.3983V62.6962C51.4685 62.665 51.605 62.6416 51.7141 62.6416C51.9793 62.6416 52.1353 62.7937 52.1353 63.0511V65.6054H53.5704V62.8834C53.5704 62.002 53.0206 61.5185 51.6985 61.5185ZM58.5232 65.6054H59.9583V61.5146H58.5232V65.6054ZM58.5232 60.9959H59.9583V60.1458H58.5232V60.9959ZM40.6466 61.5185C39.426 61.5185 38.7162 62.4076 38.7162 63.6088C38.7162 64.8099 39.426 65.7029 40.6466 65.7029C41.8672 65.7029 42.577 64.806 42.577 63.6088C42.577 62.4115 41.8672 61.5185 40.6466 61.5185ZM40.6466 64.5564C40.3307 64.5564 40.1513 64.26 40.1513 63.5932C40.1513 62.9263 40.3307 62.6299 40.6466 62.6299C40.9625 62.6299 41.1419 62.9263 41.1419 63.5932C41.1419 64.26 40.9625 64.5564 40.6466 64.5564ZM43.3491 61.9864H42.9241V63.0511H43.3491V65.6054H44.7569V63.0511H45.4082V61.9864H44.7569V61.6394C44.7569 61.3508 44.9792 61.2455 45.2756 61.2455C45.3419 61.2455 45.4082 61.2533 45.4823 61.2611V60.1653C45.3575 60.1419 45.1508 60.1263 44.9948 60.1263C44.016 60.1263 43.3491 60.5864 43.3491 61.6355V61.9864ZM47.9314 65.6054H49.4133V60.1809H47.9314V65.6054ZM25.9288 61.5185H24.6848V62.5324H26.077C26.2993 62.5441 26.4319 62.6689 26.4553 62.8756V62.8834C25.2581 62.9575 24.2207 63.2227 24.2207 64.2522C24.2207 65.1336 24.8642 65.6054 26.1784 65.6054H27.8007V62.8834C27.8007 62.002 27.2548 61.5185 25.9288 61.5185ZM26.4553 64.5915C26.3968 64.6149 26.2603 64.6227 26.1355 64.6227C25.7962 64.6227 25.5506 64.4862 25.5506 64.2132C25.5506 63.8622 25.8742 63.7842 26.4553 63.7608V64.5915ZM60.9488 61.5185V62.5324H62.3449C62.5633 62.5441 62.6998 62.6689 62.7232 62.8756V62.8834C61.5221 62.9575 60.4886 63.2227 60.4886 64.2522C60.4886 65.1336 61.1321 65.6054 62.4502 65.6054H64.0725V62.8834C64.0725 62.002 63.5266 61.5185 62.2006 61.5185H60.9488ZM62.7193 64.5915C62.6569 64.6149 62.5243 64.6227 62.3995 64.6227C62.0564 64.6227 61.8146 64.4862 61.8146 64.2132C61.8146 63.8622 62.1421 63.7842 62.7193 63.7608V64.5915ZM28.452 71.3303C27.7578 71.4278 27.6213 71.0105 27.633 70.3827C27.6447 69.8172 27.8358 69.4311 28.4403 69.5286L28.4637 69.8094V70.4451L28.452 71.3303ZM28.4676 68.4835C27.6057 68.4016 27.0247 68.5498 26.6191 69.0489C26.2603 69.4935 26.1043 70.3593 26.2837 71.1119C26.662 72.6874 28.1985 72.5158 29.852 72.4768L29.8754 67.1576H28.4754L28.4676 68.4874V68.4835ZM35.0387 72.4495L36.4465 72.4885L36.4543 70.3203C36.4543 70.1799 36.4153 69.6963 36.5401 69.6066C36.7702 69.5325 36.9613 69.5403 37.1212 69.747C37.324 70.2306 37.0627 71.8412 37.2148 72.4924L38.5758 72.5002C38.646 72.0323 38.5953 71.1431 38.5953 70.6362C38.5953 70.0356 38.6733 69.4194 38.3535 69.006C37.7802 68.2651 35.3936 68.4094 35.0426 68.5069V72.4495H35.0387ZM21.9823 72.4729H23.3667L23.3745 69.9303C23.3862 69.5052 23.5071 69.5442 23.9516 69.6378C24.1661 69.7236 24.1115 70.0044 24.1349 70.2657L24.1427 72.4807H25.4843C25.5467 71.9465 25.5077 71.1977 25.5077 70.644C25.5077 68.5888 25.3595 68.4406 22.0057 68.503L21.9862 72.4768L21.9823 72.4729ZM32.3479 69.6105C33.0693 69.3336 33.1317 71.1821 32.6247 71.3849C31.8175 71.7125 31.7902 69.8211 32.3479 69.6105ZM32.0632 68.5069C34.8593 68.0233 35.0777 72.1298 32.9016 72.5392C30.1055 73.0696 29.7818 68.9007 32.0632 68.5069ZM51.176 70.718V71.4395C50.045 71.7671 50.0528 70.4529 51.176 70.718ZM49.4523 69.4506C50.3999 69.4701 51.02 69.2946 51.1565 69.7509C50.7431 69.9732 50.0567 69.8406 49.4991 70.2072C49.0779 70.4841 48.8283 71.0495 49.0896 71.6696C49.2924 72.1493 49.7877 72.3716 50.3999 72.4495C50.7938 72.5002 52.1353 72.5197 52.5019 72.4495C52.7437 68.4094 52.4785 68.4211 49.464 68.464L49.4523 69.4467V69.4506ZM40.5881 70.2618C40.5881 70.0122 40.5179 69.6378 40.7285 69.4974C41.329 69.0879 42.2065 70.2774 40.5881 70.2618ZM42.7798 72.4456L42.7876 71.5019C41.8672 71.4629 40.904 71.6306 40.6427 71.2133C40.8182 71.1002 41.1458 71.1197 41.446 71.0534C42.2494 70.8779 43.0332 70.449 42.7369 69.3921C42.4717 68.4484 40.787 68.2222 39.8744 68.7097C39.3675 68.9826 39.2817 69.3726 39.2817 70.0707C39.2817 70.6556 39.1842 71.4122 39.4533 71.8568C39.6833 72.2351 40.1747 72.4261 40.7909 72.4612C41.1575 72.4846 42.4912 72.5158 42.7837 72.4495L42.7798 72.4456ZM44.8739 71.3576C44.9441 71.0456 44.7101 71.0222 44.3514 70.8896C42.9241 70.371 42.577 68.0428 46.3091 68.4874L46.2974 69.4779C45.845 69.5286 44.9168 69.3414 44.7725 69.6222C44.6595 69.9381 44.9714 69.9069 45.3224 70.0434C46.0127 70.3125 46.5781 70.8662 46.2311 71.7086C45.8489 72.6406 44.5815 72.5119 43.3842 72.4651L43.4037 71.42C43.8795 71.3966 44.4645 71.4746 44.8739 71.3576ZM19.8218 72.469H21.2647L21.2725 67.1771L19.8296 67.1536L19.8218 72.469ZM46.9018 72.4612L48.3096 72.4729V68.4679L46.933 68.4562L46.9018 72.4612ZM46.9018 67.9375L48.2979 67.9453L48.3096 67.1342L46.9174 67.1147L46.9018 67.9375Z" fill="white"/>
<path fill-rule="evenodd" clip-rule="evenodd" d="M78.646 67.0718L67.672 76.7744L73.8142 63.5074L61.2998 56.2772L75.6003 57.8137L78.6499 35L81.6956 57.8098L96 56.2733L83.4817 63.5035L89.6239 76.7705L78.6499 67.0679L78.646 67.0718Z" fill="#191917"/>
<path fill-rule="evenodd" clip-rule="evenodd" d="M78.646 66.791L68.2843 75.9554L74.0833 63.4216L62.2591 56.5931L75.7797 58.0399L78.646 36.5833L81.5123 58.0399L95.0368 56.5892L83.2126 63.4216L89.0116 75.9554L78.646 66.791Z" fill="#E3300C"/>
<path fill-rule="evenodd" clip-rule="evenodd" d="M81.5162 58.0399H75.7836L74.095 63.4294L78.6499 66.7949L83.2165 63.4255L81.5201 58.0438L81.5162 58.0399Z" fill="#0073BD"/>
<path d="M78.646 65.6444C80.6878 65.6444 82.343 63.9892 82.343 61.9475C82.343 59.9057 80.6878 58.2505 78.646 58.2505C76.6042 58.2505 74.949 59.9057 74.949 61.9475C74.949 63.9892 76.6042 65.6444 78.646 65.6444Z" fill="#191917"/>
<path fill-rule="evenodd" clip-rule="evenodd" d="M78.646 65.43C76.7234 65.43 75.1596 63.8661 75.1596 61.9436C75.1596 60.021 76.7234 58.4572 78.646 58.4572C80.5686 58.4572 82.1324 60.0249 82.1324 61.9436C82.1324 63.8622 80.5686 65.43 78.646 65.43Z" fill="white"/>
<path fill-rule="evenodd" clip-rule="evenodd" d="M78.5173 59.5491C78.5173 59.5491 78.5095 59.5569 78.5095 59.5647C78.5095 59.5764 78.5134 59.5842 78.5251 59.5881C78.49 59.5881 78.4744 59.5686 78.4744 59.5686C78.4744 59.5686 78.4861 59.553 78.5212 59.5491H78.5173ZM78.5524 59.5491C78.5524 59.5491 78.5719 59.553 78.5836 59.5608C78.5836 59.5608 78.5719 59.5803 78.5446 59.5842C78.5485 59.5803 78.5602 59.5725 78.5602 59.5608C78.5602 59.5569 78.5563 59.5491 78.5524 59.5452V59.5491ZM78.4744 59.5959C78.4744 59.5959 78.5095 59.6076 78.5329 59.6076C78.5992 59.6076 78.6187 59.5608 78.6265 59.5569C78.6265 59.5101 78.5953 59.4672 78.5524 59.4633C78.5329 59.4594 78.5056 59.4672 78.4939 59.475C78.4744 59.4828 78.4627 59.5023 78.4549 59.5179C78.4783 59.514 78.5017 59.4828 78.5563 59.4945C78.5836 59.4984 78.6148 59.5374 78.5953 59.5413C78.5797 59.5296 78.5758 59.5257 78.5641 59.5218C78.5173 59.5023 78.4744 59.5374 78.451 59.5569C78.4471 59.5569 78.4393 59.553 78.4354 59.553C78.4432 59.5725 78.451 59.5803 78.4705 59.5959H78.4744ZM78.7591 59.5491C78.7591 59.5491 78.7552 59.5569 78.7552 59.5647C78.7552 59.5764 78.7591 59.5842 78.7708 59.5881C78.7396 59.5842 78.7201 59.5686 78.7201 59.5686C78.7201 59.5686 78.7357 59.553 78.763 59.5491H78.7591ZM78.7981 59.5491H78.802C78.802 59.5491 78.8215 59.553 78.8215 59.5569C78.8254 59.5608 78.8254 59.5608 78.8293 59.5608C78.8293 59.5608 78.8176 59.5803 78.7903 59.5881C78.7942 59.5842 78.802 59.5764 78.802 59.5647C78.802 59.5608 78.802 59.553 78.7981 59.5491ZM78.6226 59.7324C78.6109 59.6934 78.6538 59.7168 78.6694 59.7129C78.6811 59.7129 78.6928 59.6973 78.6928 59.6817C78.6928 59.6622 78.6772 59.6544 78.6772 59.6388C78.6772 59.6037 78.6772 59.5179 78.6928 59.4984C78.7162 59.4711 78.7942 59.4477 78.8293 59.4789C78.8371 59.4867 78.8449 59.4984 78.8527 59.514C78.8215 59.475 78.7045 59.4828 78.7162 59.5452C78.7162 59.5452 78.7435 59.5257 78.7747 59.5257C78.8098 59.5218 78.8293 59.5257 78.8566 59.5491C78.8644 59.5569 78.8683 59.5452 78.8761 59.5452C78.8761 59.5452 78.8761 59.5569 78.8722 59.5608L78.8683 59.5647C78.8605 59.5725 78.8488 59.5725 78.8449 59.5803C78.7981 59.6271 78.724 59.5881 78.724 59.5842C78.7162 59.5998 78.7123 59.6115 78.7123 59.631C78.7123 59.6661 78.7591 59.7207 78.7162 59.7402C78.6928 59.7519 78.6694 59.7363 78.6421 59.7363C78.6343 59.7363 78.6265 59.7402 78.6226 59.7363V59.7324ZM80.2488 64.1859C80.2059 64.1664 80.202 64.1274 80.1747 64.104C80.1708 64.104 80.1552 64.0884 80.1474 64.0845C80.1396 64.0806 80.1279 64.0728 80.1201 64.0689C80.085 64.0533 80.046 64.0455 80.0109 64.0377C79.9953 64.0338 79.9836 64.0338 79.9719 64.0338C79.9563 64.0299 79.9407 64.0182 79.9251 64.0104C79.8705 63.9987 79.8081 64.0065 79.7535 63.9987C79.6638 63.9948 79.5858 63.9792 79.5039 63.9714C79.465 63.9675 79.4221 63.9597 79.387 63.948C79.3753 63.9441 79.3636 63.9363 79.3519 63.9324C79.3168 63.9246 79.2934 63.9285 79.27 63.9363C79.2583 63.9402 79.2466 63.9519 79.2388 63.9519C79.2232 63.9519 79.2115 63.9246 79.1881 63.9324C79.1764 63.9441 79.1686 63.9636 79.1764 63.9753C79.1803 63.9792 79.2037 64.0026 79.2076 64.0026C79.2349 64.0143 79.2505 63.9987 79.27 63.9948C79.3363 63.9753 79.4104 64.0104 79.4688 64.0182C79.6209 64.0416 79.8198 64.0338 79.9524 64.0767C79.9797 64.0806 80.0031 64.0884 80.0265 64.0962C80.0889 64.1196 80.1318 64.1586 80.1825 64.1859C80.2137 64.2249 80.241 64.2522 80.2956 64.2639C80.3229 64.2717 80.3619 64.2717 80.3619 64.2366C80.3619 64.1937 80.2878 64.2015 80.2527 64.1859H80.2488ZM81.177 63.9987C81.177 63.9987 81.2082 64.0338 81.2082 64.0533C81.2082 64.0572 81.1964 64.0689 81.1887 64.0689C81.1614 64.0689 81.1653 64.0065 81.1263 64.0104C81.1224 64.0104 81.1146 64.0104 81.1107 64.0221C81.099 64.0572 81.1731 64.0689 81.1536 64.1235C81.1458 64.1469 81.1185 64.1508 81.0873 64.1508C81.0873 64.1391 81.099 64.1352 81.099 64.1235C81.099 64.0884 81.0483 64.0533 81.021 64.0845C81.021 64.1118 81.0561 64.1274 81.0444 64.1586C81.0288 64.1781 80.9859 64.1781 80.9703 64.1586C80.9742 64.1586 80.9898 64.1625 80.9976 64.1586C81.0054 64.1586 81.0093 64.1508 81.0093 64.143C81.0132 64.1274 80.9976 64.1235 80.982 64.1157C80.9703 64.104 80.9586 64.0962 80.9508 64.0884C80.9547 64.026 80.9001 64.0143 80.8377 64.0104C80.7363 64.0026 80.6193 63.9909 80.5257 63.9831C80.5296 63.9363 80.4867 63.9285 80.4477 63.9207C80.3931 63.909 80.3424 63.9051 80.2878 63.8934C80.2644 63.8895 80.2254 63.8778 80.2254 63.8583C80.2254 63.8349 80.2566 63.8232 80.2722 63.8115C80.3268 63.7725 80.3775 63.7335 80.4243 63.6945C80.5335 63.714 80.6037 63.7569 80.6895 63.8076C80.7129 63.8193 80.7363 63.8271 80.7558 63.8388C80.7792 63.8544 80.8026 63.8622 80.826 63.87C80.9352 63.9012 81.0912 63.87 81.1692 63.9246C81.1964 63.9441 81.2237 63.9675 81.2237 64.0065C81.2042 64.0065 81.2043 63.9597 81.1809 63.9558C81.1692 63.9558 81.1575 63.9675 81.1575 63.9753C81.1575 63.987 81.1731 63.9948 81.1848 64.0026L81.177 63.9987ZM80.8884 64.1079C80.8884 64.1079 80.904 64.1157 80.9079 64.1157C80.9079 64.1079 80.9079 64.0923 80.904 64.0884C80.8767 64.0455 80.7558 64.0416 80.6856 64.0455C80.6466 64.0455 80.6037 64.0416 80.5764 64.0572C80.6115 64.065 80.6544 64.0689 80.6934 64.0767C80.7363 64.0806 80.7753 64.0923 80.8143 64.0962C80.8416 64.0962 80.865 64.0962 80.8884 64.1079ZM80.5452 64.1157C80.5569 64.1508 80.5881 64.1586 80.5803 64.2093C80.5686 64.2249 80.5569 64.2405 80.5413 64.2522C80.5452 64.2327 80.5413 64.2093 80.5257 64.1976C80.5179 64.1976 80.5218 64.2132 80.514 64.2132C80.4984 64.2093 80.5023 64.1898 80.4789 64.1898C80.475 64.2132 80.4945 64.221 80.4984 64.2405C80.5023 64.2912 80.4672 64.3146 80.4243 64.3107C80.4282 64.2873 80.4594 64.2951 80.4672 64.2795C80.4711 64.2561 80.4477 64.2405 80.436 64.2288C80.4243 64.2288 80.436 64.2405 80.4204 64.2444C80.4048 64.2405 80.3931 64.2093 80.3697 64.221C80.3814 64.2366 80.397 64.26 80.3814 64.2795C80.3619 64.2912 80.3385 64.2951 80.3112 64.2951C80.2722 64.2951 80.2332 64.2834 80.2137 64.26C80.202 64.2444 80.1942 64.2249 80.1825 64.2132C80.1669 64.1976 80.1435 64.1976 80.1279 64.182C80.1162 64.1781 80.1123 64.1625 80.1045 64.1547C80.0889 64.143 80.0655 64.1352 80.0421 64.1235C79.9875 64.0962 79.9017 64.0767 79.8354 64.0689C79.7145 64.0572 79.5819 64.0611 79.465 64.0377C79.4221 64.0299 79.3792 64.0182 79.3402 64.0143C79.2973 64.0104 79.2544 64.026 79.2154 64.0182C79.1803 64.0143 79.1608 63.987 79.1491 63.9558C79.1374 63.87 79.1218 63.7842 79.0828 63.7218C79.0711 63.6946 79.0672 63.6595 79.075 63.6088C79.075 63.5815 79.0906 63.5464 79.0945 63.5113C79.0984 63.4762 79.0984 63.4372 79.1062 63.4021C79.114 63.3397 79.1374 63.2851 79.1647 63.2539C79.1803 63.2578 79.192 63.2812 79.2037 63.2929C79.2349 63.3124 79.27 63.3202 79.2973 63.3475C79.309 63.3553 79.3207 63.3709 79.3285 63.3826C79.3636 63.445 79.3519 63.5386 79.3792 63.6127C79.3831 63.6244 79.3948 63.6322 79.3909 63.6439C79.3519 63.6478 79.3012 63.6478 79.2778 63.6751C79.2973 63.7062 79.3402 63.679 79.3792 63.679C79.4182 63.679 79.4611 63.6907 79.4883 63.7101C79.5079 63.7257 79.5273 63.7569 79.5546 63.7647C79.5936 63.7803 79.656 63.7842 79.7067 63.7881C79.7652 63.792 79.8237 63.7998 79.8705 63.8076C79.9485 63.8232 80.0187 63.8544 80.0889 63.8817C80.1006 63.8856 80.1123 63.8934 80.124 63.8973C80.1357 63.9012 80.1435 63.9129 80.1513 63.9168C80.1747 63.9324 80.2059 63.9324 80.2371 63.9363C80.2683 63.9402 80.2917 63.9519 80.319 63.9597C80.3424 63.9714 80.3736 63.9792 80.4009 63.9948C80.4126 63.9987 80.4204 64.0104 80.4321 64.0143C80.4516 64.0182 80.4711 64.0143 80.4867 64.0182C80.5023 64.0221 80.5257 64.0338 80.5413 64.0455C80.5764 64.065 80.6037 64.0923 80.6037 64.1391C80.5881 64.1274 80.5842 64.0884 80.553 64.1079L80.5452 64.1157ZM79.3246 64.2405C79.2856 64.2171 79.2466 64.1859 79.1998 64.1742C79.1842 64.1703 79.1686 64.1664 79.153 64.1703C79.1491 64.1898 79.1764 64.1859 79.1959 64.1898C79.2349 64.1937 79.2622 64.2132 79.2895 64.2288C79.3012 64.2405 79.3246 64.2522 79.3168 64.2678C79.3012 64.2951 79.2505 64.2483 79.2505 64.2366C79.2349 64.2327 79.231 64.2171 79.2154 64.2132C79.2037 64.2093 79.1881 64.2132 79.1764 64.2093C79.1608 64.2093 79.1491 64.2015 79.1374 64.1976C79.1335 64.2405 79.1998 64.221 79.2193 64.2405C79.2232 64.2444 79.2154 64.2522 79.2154 64.26C79.2232 64.2678 79.231 64.2717 79.2349 64.2756C79.2349 64.2756 79.231 64.2678 79.2349 64.26C79.2817 64.2483 79.2856 64.3029 79.2466 64.3146C79.2076 64.3263 79.1803 64.2951 79.153 64.2873C79.1062 64.2795 79.0672 64.2912 79.0321 64.2834C78.997 64.2756 78.9853 64.2522 78.9619 64.2327C78.9346 64.2054 78.9034 64.2054 78.8683 64.1937C78.8878 64.1586 78.8956 64.1196 78.9268 64.0923C78.9424 64.0767 79.0165 64.0416 79.0516 64.065C79.0711 64.0728 79.1023 64.0806 79.1179 64.0884C79.1296 64.0923 79.1413 64.104 79.1491 64.1118C79.1608 64.1235 79.1686 64.1391 79.1803 64.143C79.2076 64.1508 79.2505 64.1586 79.2817 64.1703C79.2895 64.1703 79.3051 64.1742 79.3051 64.1859C79.3051 64.1898 79.3051 64.2015 79.2934 64.2015C79.2856 64.2015 79.2817 64.1898 79.2739 64.1859C79.2505 64.1703 79.2037 64.1703 79.1764 64.1586C79.1803 64.1625 79.192 64.1664 79.1959 64.1703C79.2427 64.182 79.2817 64.2015 79.3168 64.221C79.3285 64.2249 79.348 64.2405 79.3324 64.2483L79.3246 64.2405ZM78.8098 63.909C78.8137 63.6945 78.8215 63.4723 78.8293 63.2539C78.8293 63.2539 78.8293 63.2539 78.8332 63.25V63.2539C78.841 63.2617 78.841 63.2773 78.841 63.289C78.8527 63.3748 78.8644 63.4723 78.8761 63.562C78.8917 63.6634 78.919 63.7608 78.9229 63.8661C78.8995 63.8778 78.8722 63.8856 78.8488 63.8934C78.8332 63.8973 78.8254 63.9129 78.8059 63.9129L78.8098 63.909ZM79.0087 63.7998C78.997 63.7179 78.9658 63.64 78.9541 63.5503C78.9385 63.4684 78.9268 63.3748 78.919 63.2773C78.9112 63.1447 78.8995 62.9926 78.8956 62.8483C78.8956 62.8093 78.9034 62.7235 78.8761 62.7118C78.8566 62.7079 78.8449 62.7118 78.8332 62.7157C78.8254 62.899 78.841 63.0979 78.8605 63.2851C78.88 63.4684 78.9151 63.6517 78.9502 63.8115C78.9697 63.8115 78.9892 63.8115 79.0048 63.7998H79.0087ZM78.958 63.2227C78.9736 63.3358 78.9775 63.4489 79.0087 63.5425C79.0165 63.4567 79.0243 63.3748 79.0321 63.2968C79.0633 62.9965 79.1101 62.7664 79.0984 62.4388C79.0984 62.4583 79.0789 62.4856 79.075 62.509C79.0633 62.5246 79.0516 62.5324 79.036 62.548C79.0204 62.5597 79.0048 62.5675 78.9931 62.5792C78.9697 62.6065 78.9658 62.6416 78.9619 62.6806C78.9619 62.7001 78.9619 62.7235 78.958 62.743C78.9502 62.899 78.9463 63.0745 78.9619 63.2266L78.958 63.2227ZM78.7279 62.6689C78.7045 62.6962 78.6772 62.7274 78.6538 62.7547C78.6421 62.7703 78.6304 62.7859 78.6148 62.7976C78.6967 62.5675 78.7981 62.3491 78.8683 62.1073C78.9034 61.9864 78.9385 61.8656 78.9697 61.7369C79.0048 61.6043 79.0204 61.4678 79.0243 61.3118C79.0243 61.3118 79.0243 61.3079 79.0282 61.3079C79.0555 61.3235 79.0633 61.3508 79.0672 61.3781C79.0984 61.46 79.114 61.5536 79.1335 61.6472C79.1452 61.7096 79.153 61.7759 79.1569 61.8422C79.1569 61.8734 79.1647 61.9085 79.1647 61.9435C79.1647 61.9786 79.1686 62.0215 79.1647 62.0488C79.1608 62.0878 79.1296 62.1268 79.1101 62.1619C79.0906 62.2009 79.0672 62.2321 79.0477 62.2633C79.0087 62.3296 78.958 62.392 78.9112 62.4505C78.8488 62.5246 78.7903 62.6026 78.7279 62.6728V62.6689ZM78.7786 62.8795C78.7825 63.0589 78.7669 63.2305 78.763 63.406C78.7591 63.6127 78.7396 63.8154 78.7318 64.0065C78.6928 64.0026 78.6538 63.9831 78.6109 63.9753C78.5641 63.9675 78.5173 63.9675 78.4744 63.9636C78.5407 63.7374 78.6226 63.5074 78.6694 63.2578C78.7006 63.1096 78.7318 62.9614 78.763 62.8093C78.763 62.8093 78.763 62.8054 78.7669 62.8054C78.7786 62.8015 78.7747 62.86 78.7747 62.8756L78.7786 62.8795ZM78.4549 64.1235C78.4705 64.0845 78.4861 64.0533 78.5017 64.0104H78.5056C78.4939 64.0494 78.4783 64.0923 78.4627 64.1274C78.4588 64.1274 78.4588 64.1235 78.451 64.1274L78.4549 64.1235ZM78.6499 64.2249C78.6343 64.2639 78.6382 64.3029 78.5992 64.3263C78.5914 64.3302 78.5797 64.3263 78.5758 64.3302C78.5407 64.3536 78.5446 64.4433 78.4822 64.4043C78.4666 64.3692 78.5095 64.3614 78.5251 64.3809C78.5251 64.3614 78.5017 64.3575 78.4822 64.3575C78.4861 64.3185 78.5134 64.3029 78.5368 64.2834C78.5368 64.2717 78.5368 64.2678 78.5368 64.2639C78.5173 64.2483 78.5017 64.2678 78.5056 64.2912C78.5017 64.3029 78.4783 64.3185 78.4666 64.3341C78.4549 64.3536 78.4549 64.377 78.4315 64.3536C78.4276 64.299 78.4744 64.299 78.4822 64.26C78.4822 64.2561 78.4783 64.2561 78.4783 64.2483C78.4432 64.2444 78.4549 64.2912 78.4276 64.2951C78.4159 64.3185 78.412 64.3458 78.3964 64.3653C78.3925 64.3692 78.3847 64.3653 78.3769 64.3614C78.3808 64.3575 78.373 64.3497 78.3769 64.3458C78.3769 64.3419 78.3847 64.3419 78.3886 64.3341C78.3691 64.299 78.4003 64.2639 78.4198 64.2483C78.4003 64.2132 78.373 64.2795 78.3652 64.2951C78.3613 64.3107 78.3652 64.3263 78.3535 64.3263C78.3379 64.3263 78.3535 64.2717 78.3574 64.26C78.3652 64.2405 78.3808 64.2366 78.3847 64.221C78.373 64.221 78.3574 64.2327 78.3496 64.2444C78.3457 64.2483 78.3418 64.2639 78.334 64.2639C78.3145 64.2639 78.334 64.2366 78.334 64.2327C78.3496 64.2132 78.3574 64.2054 78.3847 64.2015C78.3964 64.1937 78.4003 64.1781 78.412 64.1703C78.4354 64.1547 78.5017 64.1625 78.5329 64.1664C78.5563 64.1664 78.5797 64.1703 78.5992 64.1781C78.6226 64.1781 78.646 64.1781 78.6577 64.1937C78.6577 64.2093 78.646 64.2132 78.6421 64.221L78.6499 64.2249ZM78.4159 64.3848C78.4003 64.4199 78.4627 64.416 78.451 64.3809C78.4471 64.3731 78.4237 64.3731 78.4276 64.3887C78.4237 64.3887 78.4198 64.3848 78.4159 64.3848ZM78.2365 64.2249C78.2716 64.2249 78.3106 64.2288 78.3301 64.221C78.3418 64.2054 78.3574 64.2015 78.373 64.1859C78.3574 64.1742 78.3418 64.1664 78.3301 64.1547C78.3223 64.1508 78.3145 64.143 78.3067 64.1391C78.2911 64.1235 78.2833 64.1118 78.2716 64.1001C78.2521 64.0845 78.2287 64.0728 78.2131 64.0572C78.2053 64.0416 78.2014 64.0299 78.1897 64.0182C78.1117 64.0104 78.022 63.9909 77.9362 63.9948C77.9557 64.0767 77.9752 64.1508 77.9947 64.2288C78.0688 64.221 78.1468 64.2171 78.2287 64.2171L78.2365 64.2249ZM78.022 64.3185C78.022 64.3185 78.0181 64.3068 78.0181 64.3029C78.0259 64.299 78.0376 64.2951 78.0454 64.2912C78.1156 64.2756 78.2053 64.2678 78.2872 64.2639C78.2911 64.2639 78.3106 64.26 78.3106 64.2678C78.2209 64.2912 78.1156 64.299 78.022 64.3146V64.3185ZM77.9011 64.3536C77.8543 64.3692 77.788 64.3809 77.7295 64.3848C77.6984 64.3848 77.675 64.3848 77.6438 64.3848C77.597 64.3809 77.5619 64.377 77.5307 64.3614C77.5112 64.3497 77.4995 64.3419 77.4839 64.3302C77.4644 64.3107 77.4488 64.2873 77.4566 64.2444L77.4605 64.2405C77.4605 64.2327 77.4605 64.2249 77.4605 64.221C77.4644 64.2132 77.4761 64.2015 77.4761 64.1898C77.4722 64.1742 77.4644 64.1586 77.4527 64.1469C77.4254 64.1469 77.4098 64.1547 77.3942 64.1742C77.3903 64.1781 77.3903 64.1781 77.3903 64.1859C77.3903 64.1859 77.3747 64.2015 77.3708 64.2015C77.3669 64.2054 77.3474 64.2093 77.3396 64.2093C77.3201 64.2093 77.2967 64.2054 77.285 64.1976C77.2421 64.1781 77.2187 64.143 77.1953 64.1079C77.1914 64.0806 77.1797 64.065 77.1836 64.0338C77.1836 64.0143 77.1875 63.987 77.1992 63.9714C77.2031 63.9597 77.2304 63.9324 77.2187 63.9051C77.2148 63.8934 77.1992 63.8934 77.1914 63.8856C77.1836 63.8778 77.1875 63.8661 77.1758 63.8583C77.1602 63.8544 77.1485 63.8583 77.1407 63.87C77.1251 63.8934 77.1173 63.9402 77.1095 63.9597C77.1095 64.0026 77.1095 64.0533 77.1173 64.0923C77.1212 64.1196 77.1407 64.1313 77.1446 64.1586C77.1641 64.182 77.1836 64.2093 77.207 64.2288C77.207 64.2288 77.2109 64.2288 77.2109 64.2327C77.2265 64.2561 77.2772 64.2756 77.2889 64.299C77.3123 64.3107 77.3318 64.3185 77.3552 64.3302C77.3747 64.3575 77.4215 64.3536 77.4449 64.377C77.4683 64.3809 77.4956 64.3965 77.5151 64.4082C77.6048 64.4394 77.6789 64.4823 77.7607 64.5096C77.7958 64.5291 77.827 64.5486 77.8582 64.5642C77.8738 64.5837 77.8933 64.5993 77.905 64.6149C77.8855 64.611 77.8738 64.5837 77.8504 64.5954C77.8543 64.6149 77.8699 64.6305 77.8855 64.6383C77.8855 64.6422 77.8855 64.6422 77.8855 64.65C77.8933 64.6461 77.8972 64.6617 77.905 64.6656C77.8894 64.6695 77.8777 64.6422 77.8621 64.6383C77.8582 64.6266 77.8465 64.6149 77.8348 64.6149C77.8309 64.6227 77.8426 64.6266 77.8387 64.6383C77.8349 64.6344 77.827 64.6266 77.8231 64.6188C77.8075 64.6344 77.8349 64.6461 77.8387 64.6578C77.827 64.6539 77.8192 64.6383 77.8036 64.6305C77.7958 64.6344 77.8036 64.6461 77.8036 64.6539C77.7958 64.6539 77.7958 64.6383 77.788 64.6422C77.7802 64.6539 77.788 64.6656 77.7919 64.6773C77.7958 64.689 77.8036 64.7007 77.8075 64.7124C77.8153 64.7592 77.7919 64.8177 77.8153 64.8606C77.7841 64.8294 77.8036 64.7631 77.7997 64.7241C77.7958 64.7007 77.7802 64.6656 77.7685 64.6461C77.7023 64.5525 77.5853 64.494 77.4605 64.4589C77.4332 64.4433 77.3903 64.4355 77.3552 64.4238C77.2772 64.4004 77.1992 64.3653 77.1212 64.3341C77.0822 64.3068 77.0549 64.2756 77.0237 64.2444C77.0081 64.2249 76.9847 64.1976 76.973 64.1703C76.9613 64.1508 76.9535 64.1274 76.9457 64.1001C76.9418 64.0767 76.9379 64.0572 76.9379 64.0338C76.934 64.0065 76.9301 63.9792 76.934 63.948C76.9379 63.8856 76.9691 63.8115 76.9964 63.7647C77.0237 63.7218 77.0549 63.6868 77.0822 63.6517C77.1173 63.6166 77.1524 63.5815 77.1836 63.5386C77.2187 63.484 77.2421 63.4333 77.2889 63.3943C77.3123 63.3748 77.3396 63.3631 77.3708 63.3436C77.4527 63.3007 77.5541 63.2656 77.6594 63.2539C77.714 63.4489 77.7607 63.6478 77.8114 63.8427C77.8192 63.87 77.827 63.9012 77.827 63.9285C77.7958 63.9168 77.7101 63.8934 77.6789 63.909C77.6438 63.9285 77.6828 63.9714 77.7178 63.9714C77.714 63.9753 77.7023 63.9753 77.6984 63.9753C77.6867 63.9831 77.6711 63.9948 77.6516 63.9987C77.6477 64.0026 77.6399 64.0026 77.6321 64.0026C77.6126 64.0104 77.6009 64.026 77.5931 64.0455C77.5814 64.0689 77.6009 64.0962 77.6321 64.0806C77.6516 64.0689 77.675 64.0416 77.6906 64.0338C77.7374 64.0143 77.7958 63.9987 77.8504 64.0065C77.8738 64.0845 77.8933 64.1703 77.9128 64.2561C77.866 64.2639 77.7997 64.2678 77.7452 64.2561C77.7062 64.2444 77.6867 64.2405 77.6594 64.2639C77.6633 64.2717 77.6711 64.2756 77.6711 64.2873C77.6711 64.3224 77.6204 64.3107 77.6126 64.2834C77.6009 64.3263 77.6555 64.3614 77.6945 64.3653C77.6983 64.3653 77.71 64.3653 77.7178 64.3653C77.788 64.3653 77.8699 64.3419 77.9284 64.3263C77.9323 64.3497 77.9011 64.3458 77.8855 64.3536H77.9011ZM77.8504 64.6266C77.866 64.65 77.8738 64.6773 77.8894 64.6968C77.8777 64.6734 77.8699 64.6422 77.8504 64.6266ZM77.5931 62.5909C77.5502 62.4154 77.5112 62.236 77.4644 62.0566C77.4527 62.0137 77.4449 61.9669 77.4332 61.9241C77.4176 61.8773 77.4059 61.8344 77.3981 61.7915C77.3396 61.5224 77.2694 61.2572 77.207 60.992V60.9881C77.246 61.0037 77.3006 60.9998 77.3357 61.0115C77.3318 61.0466 77.3396 61.0817 77.3864 61.0778C77.3942 61.0934 77.3981 61.1129 77.4059 61.1246C77.4371 61.1324 77.4644 61.1207 77.48 61.109C77.636 61.1753 77.7802 61.2533 77.9674 61.2845C77.9752 61.4717 77.9518 61.6706 77.9479 61.8734C77.9479 61.9436 77.9362 62.0059 77.9323 62.0761C77.9284 62.2048 77.9206 62.3335 77.905 62.4622C77.8894 62.5558 77.8816 62.6494 77.8738 62.7391C77.8699 62.7742 77.8699 62.8054 77.8699 62.8444C77.8699 62.8756 77.8582 62.9146 77.8699 62.938C77.8738 62.9458 77.8855 62.9536 77.8933 62.9575C77.9362 62.9887 78.0025 63.0082 78.0454 63.0394C78.0454 63.0511 78.0454 63.0628 78.0454 63.0745C77.9362 63.0862 77.8348 63.1057 77.7295 63.1213C77.6867 62.9458 77.636 62.7703 77.597 62.5909H77.5931ZM77.1758 60.8867C77.1758 60.8867 77.2031 60.8711 77.207 60.8516C77.207 60.836 77.1953 60.8282 77.1914 60.8126C77.207 60.8165 77.2148 60.836 77.2304 60.8516C77.2382 60.8594 77.2655 60.8867 77.2772 60.8867C77.2928 60.8906 77.324 60.8789 77.3123 60.8594C77.2967 60.8516 77.2772 60.8555 77.2616 60.8438C77.2382 60.8282 77.2265 60.797 77.2148 60.7697C77.2226 60.7502 77.2148 60.7307 77.1992 60.7229C77.2031 60.6917 77.1953 60.6722 77.1797 60.6605L77.1836 60.6566C77.2109 60.6722 77.2421 60.6839 77.2655 60.6995C77.3162 60.7307 77.3513 60.7697 77.363 60.8438C77.3825 60.8555 77.4059 60.8633 77.4215 60.8828C77.4137 60.9296 77.3981 60.9647 77.363 60.9881C77.3396 60.9764 77.3201 60.9569 77.3006 60.9452C77.2772 60.9686 77.2031 60.9569 77.1836 60.9374C77.1797 60.9335 77.168 60.9023 77.1719 60.8867H77.1758ZM77.1134 60.8555C77.1368 60.8555 77.1914 60.875 77.1914 60.8438C77.1914 60.8243 77.1095 60.8087 77.0822 60.8165C77.051 60.8321 77.0666 60.8789 77.09 60.8828C77.0939 60.8672 77.1017 60.8555 77.1173 60.8516L77.1134 60.8555ZM77.0393 60.7775C77.0393 60.7775 77.0393 60.8165 77.0549 60.8243C77.0861 60.7931 77.1368 60.8126 77.1719 60.8087C77.1836 60.7892 77.1563 60.7814 77.1407 60.7775C77.1134 60.7658 77.0588 60.7502 77.0354 60.7775H77.0393ZM77.0315 60.7073C77.0315 60.7073 77.0198 60.7541 77.0393 60.7619C77.051 60.7619 77.0627 60.7502 77.0783 60.7502C77.1095 60.7424 77.1407 60.7619 77.168 60.7697C77.1875 60.7697 77.1992 60.7697 77.1992 60.758C77.1992 60.7424 77.1758 60.7385 77.1602 60.7268C77.1329 60.7112 77.1173 60.6917 77.0744 60.6956C77.0627 60.6956 77.0393 60.6956 77.0315 60.7073ZM77.1797 60.7112C77.1992 60.641 77.0081 60.5981 77.0276 60.6956C77.0588 60.6878 77.1017 60.6761 77.1368 60.6917C77.1524 60.6995 77.1641 60.719 77.1797 60.7151V60.7112ZM77.051 60.5669C77.051 60.5669 77.0705 60.5786 77.0744 60.5864C77.09 60.602 77.1134 60.6176 77.129 60.6332C77.1056 60.6215 77.0744 60.6332 77.0588 60.6215C77.0432 60.6176 77.0276 60.5669 77.051 60.5669ZM77.4566 60.8711C77.441 60.9218 77.4176 60.9686 77.3864 61.0037C77.3786 61.0154 77.3552 61.0271 77.3552 61.0388C77.3552 61.0583 77.3786 61.0583 77.3942 61.0505C77.4176 61.0388 77.441 60.9959 77.4527 60.9725C77.4644 60.9413 77.4839 60.9023 77.4722 60.8672C77.4683 60.8672 77.4566 60.8633 77.4566 60.8711ZM77.5112 60.8984C77.4878 60.9608 77.4644 61.0232 77.4176 61.0622C77.4176 61.0661 77.4176 61.0817 77.4254 61.0817C77.4449 61.0778 77.4449 61.0544 77.4683 61.0466C77.4683 61.0427 77.4683 61.0427 77.4683 61.0349C77.4761 61.0271 77.48 61.0232 77.4878 61.0115C77.4839 60.9998 77.4956 60.9842 77.5073 60.9803C77.5034 60.9569 77.5151 60.953 77.5268 60.9413C77.5073 60.9296 77.5268 60.8984 77.5424 60.8945C77.5385 60.8867 77.5268 60.8906 77.5229 60.8945L77.5112 60.8984ZM77.5385 61.0232C77.5307 61.0427 77.5073 61.0544 77.5073 61.0817C77.5814 61.1129 77.6633 61.1519 77.7413 61.1792C77.7686 61.1831 77.792 61.1987 77.8192 61.2065C77.8426 61.2104 77.8738 61.2182 77.905 61.226C77.9245 61.2299 77.9713 61.2416 77.9947 61.2416C78.0337 61.2338 78.0376 61.1909 78.061 61.1675C78.0805 61.1051 78.1195 61.0661 78.1312 60.9998C78.0961 60.9764 78.0337 60.953 77.9791 60.9413C77.9674 60.9413 77.944 60.9374 77.9362 60.9413C77.9323 60.953 77.9284 60.9647 77.9284 60.9803C77.9674 60.9803 78.0103 61.0271 77.9791 61.0544C77.9713 61.0661 77.9635 61.0544 77.9479 61.0544C77.9323 61.0466 77.9206 61.0271 77.905 61.0193C77.8894 61.0115 77.8699 61.0037 77.8504 60.9998C77.7646 60.9725 77.6672 60.9569 77.5775 60.9374C77.5619 60.9452 77.5658 60.9608 77.5619 60.9725C77.5619 60.9842 77.5502 60.992 77.5463 60.9998C77.5424 61.0076 77.5424 61.0154 77.5424 61.0271L77.5385 61.0232ZM77.9518 60.875C78.0337 60.8789 78.1039 60.9023 78.1546 60.9374C78.1546 60.9413 78.1546 60.9491 78.1507 60.953C78.0883 60.9257 78.022 60.9062 77.9479 60.8906C77.9479 60.8789 77.9479 60.875 77.9518 60.875ZM77.9947 60.68C78.0103 60.5942 78.022 60.5123 78.0454 60.4226C78.0649 60.3446 78.0766 60.2783 78.1078 60.2198C78.1195 60.2003 78.1312 60.1887 78.1468 60.1731C78.1507 60.1692 78.1507 60.1575 78.1585 60.1536C78.178 60.138 78.2014 60.1263 78.2209 60.1029C78.2248 60.1029 78.2326 60.099 78.2326 60.1029C78.256 60.0834 78.2911 60.0795 78.3145 60.0678H78.3184C78.3223 60.1341 78.3262 60.1926 78.3418 60.251C78.3496 60.2861 78.3613 60.3134 78.3652 60.3446C78.3184 60.3758 78.2755 60.4109 78.2326 60.4421C78.2209 60.4265 78.2287 60.407 78.2092 60.3992C78.2014 60.4148 78.1897 60.4265 78.1897 60.4421C78.1897 60.4538 78.2053 60.4772 78.2014 60.4889C78.2014 60.5045 78.2053 60.5786 78.2014 60.6098C78.2014 60.6254 78.1858 60.7034 78.1819 60.7385C78.1819 60.758 78.178 60.7736 78.1819 60.7892C78.1234 60.7697 78.0454 60.7502 77.9869 60.7424C77.9908 60.719 77.9908 60.6956 78.0025 60.68H77.9947ZM78.3652 60.3875C78.3652 60.3875 78.3418 60.3953 78.334 60.407C78.3418 60.4187 78.3457 60.446 78.334 60.4616C78.3262 60.4772 78.3106 60.485 78.3106 60.5045C78.3145 60.5045 78.3223 60.5045 78.3301 60.5045C78.3496 60.5006 78.3964 60.4538 78.4042 60.4421C78.4198 60.407 78.3769 60.407 78.3613 60.3875H78.3652ZM78.4354 60.0132C78.4471 60.0795 78.451 60.1419 78.4627 60.2004C78.4666 60.2199 78.4783 60.2393 78.4783 60.2588C78.4588 60.2744 78.4393 60.29 78.4159 60.2978C78.3847 60.2276 78.373 60.138 78.373 60.0366C78.3925 60.0327 78.4159 60.021 78.4354 60.0132ZM78.4198 59.4828C78.4081 59.5335 78.3808 59.5608 78.3769 59.6115C78.373 59.6778 78.3925 59.7363 78.4237 59.787C78.4432 59.826 78.4705 59.8611 78.4939 59.8845C78.5251 59.9118 78.5719 59.9391 78.6148 59.9508C78.6733 59.9586 78.724 59.9313 78.7513 59.904C78.8254 59.8455 78.8878 59.7207 78.8878 59.6076C78.8878 59.5764 78.8722 59.5569 78.8605 59.5374C78.8527 59.514 78.8566 59.4945 78.8488 59.4672C78.8371 59.4126 78.802 59.3697 78.763 59.3424C78.724 59.3112 78.6928 59.2839 78.6382 59.2722C78.6343 59.2605 78.6382 59.2449 78.6304 59.2293C78.6265 59.2449 78.6265 59.2566 78.6265 59.2722C78.5641 59.2995 78.4978 59.3229 78.4549 59.3736C78.4471 59.3853 78.4393 59.397 78.4315 59.4087C78.4237 59.4321 78.4159 59.4555 78.412 59.4828H78.4198ZM78.8371 60.06C78.841 60.0327 78.8449 60.0249 78.8527 60.0054C78.8722 60.0093 78.8878 60.021 78.9073 60.0288C78.8878 60.0483 78.8566 60.0483 78.8371 60.06ZM78.7942 59.943C78.7942 59.943 78.7981 59.9547 78.7981 59.9625C78.7981 59.982 78.7825 60.0054 78.7708 60.0093C78.7513 60.0249 78.7279 60.0132 78.7084 60.0132C78.6889 60.0171 78.6733 60.0249 78.6538 60.0249C78.5992 60.0249 78.5602 59.9898 78.5329 59.9664C78.5173 59.9508 78.5056 59.9352 78.49 59.9235C78.49 59.943 78.4783 59.9586 78.4783 59.9781C78.4744 60.0015 78.4783 60.0288 78.4822 60.0522C78.4939 60.1185 78.5095 60.1809 78.5329 60.2237C78.6109 60.1731 78.6889 60.1263 78.7786 60.0873C78.7942 60.0561 78.8137 60.0249 78.8137 59.9859C78.8137 59.9469 78.7942 59.9079 78.7942 59.865C78.7903 59.8767 78.7942 59.8845 78.7942 59.9001C78.7942 59.9196 78.7903 59.9313 78.7903 59.943H78.7942ZM78.9619 60.1458C78.9385 60.1575 78.9151 60.1692 78.8917 60.1809H78.8956C78.8605 60.2003 78.8215 60.216 78.7864 60.2354C78.7045 60.2705 78.6265 60.3173 78.5485 60.368C78.5173 60.3914 78.4822 60.4109 78.4549 60.4304C78.4393 60.4421 78.4276 60.4577 78.412 60.4694C78.3613 60.5045 78.3262 60.5357 78.2755 60.5708C78.2482 60.5942 78.2209 60.6176 78.2092 60.6488C78.2014 60.6722 78.2053 60.7541 78.2053 60.7736C78.2053 60.8516 78.2404 60.8906 78.3067 60.8906C78.3418 60.8906 78.3574 60.875 78.3808 60.8633C78.3964 60.8477 78.4081 60.8204 78.4315 60.8204C78.4432 60.8399 78.4198 60.8633 78.4042 60.8789C78.3808 60.9062 78.3574 60.9374 78.3262 60.953C78.3145 60.9608 78.295 60.9608 78.2794 60.9608C78.2911 61.0232 78.3652 60.9881 78.3925 60.9647C78.4861 60.8711 78.5602 60.758 78.6343 60.6449C78.6733 60.5903 78.7084 60.5357 78.7513 60.4811C78.7708 60.4538 78.7903 60.4304 78.8137 60.4031C78.8527 60.3563 78.8917 60.3134 78.9385 60.2744C78.9502 60.2627 78.9619 60.2549 78.9736 60.2432C79.0087 60.216 79.0399 60.1965 79.0789 60.1692C79.1023 60.1536 79.1335 60.1458 79.153 60.1263C79.1335 60.099 79.0945 60.1263 79.0711 60.1302C79.0555 60.1302 79.0438 60.138 79.0321 60.1419C79.0126 60.1536 78.9892 60.1653 78.9697 60.1809H78.9736C78.9736 60.1809 78.9658 60.1887 78.9619 60.1887C78.9346 60.2042 78.9151 60.2199 78.8956 60.2393C78.8566 60.2705 78.8176 60.2978 78.7825 60.329C78.7825 60.329 78.7747 60.329 78.7669 60.3368C78.7045 60.3914 78.6499 60.446 78.5875 60.5006C78.568 60.5162 78.5524 60.5435 78.5251 60.5435C78.5134 60.5006 78.5485 60.4811 78.5719 60.4577C78.5875 60.4382 78.6031 60.4265 78.6226 60.4109C78.6967 60.3485 78.7747 60.2939 78.8488 60.2393C78.8878 60.2082 78.9268 60.1847 78.9541 60.1497L78.9619 60.1458ZM78.9502 61.1246V61.0934C78.9502 61.0934 78.9502 61.0739 78.9502 61.0622C78.9502 61.0583 78.9502 61.0505 78.9502 61.0427C78.9502 61.0388 78.9502 61.0427 78.9502 61.0388C78.9541 61.0388 78.9541 61.0388 78.9541 61.0388C78.9541 61.0583 78.958 61.0817 78.958 61.1012C78.958 61.1168 78.958 61.1285 78.9541 61.1402C78.9502 61.1402 78.9463 61.1285 78.9463 61.1207L78.9502 61.1246ZM78.5407 62.7859C78.5602 62.7469 78.5797 62.7118 78.5992 62.6767C78.6226 62.6377 78.6382 62.5987 78.6538 62.5636C78.7279 62.4115 78.7864 62.2477 78.8371 62.0761C78.8605 61.9903 78.8839 61.9007 78.9073 61.8071C78.919 61.7642 78.9307 61.7174 78.9385 61.6706C78.9424 61.6199 78.9541 61.5731 78.9541 61.5224C78.9385 61.5263 78.9424 61.5497 78.9385 61.5614C78.9268 61.6043 78.9151 61.6472 78.9034 61.6862C78.8566 61.85 78.8098 62.0098 78.7513 62.1658C78.6928 62.314 78.6343 62.4778 78.5641 62.6104C78.5524 62.6299 78.5407 62.6533 78.5251 62.6767C78.5134 62.6923 78.49 62.7313 78.4705 62.7235C78.4549 62.7157 78.4627 62.6806 78.4705 62.6611C78.4822 62.6143 78.5056 62.5792 78.529 62.5441C78.5407 62.5246 78.5524 62.509 78.568 62.4895C78.5797 62.4583 78.5992 62.4271 78.6148 62.3959C78.6187 62.3803 78.6304 62.3647 78.6421 62.3491C78.6499 62.3335 78.6616 62.3218 78.6694 62.3062C78.685 62.2711 78.6967 62.2282 78.7084 62.1931C78.7201 62.158 78.7396 62.119 78.7513 62.08C78.8176 61.889 78.88 61.6979 78.9307 61.4951C78.9307 61.4834 78.9424 61.4483 78.9463 61.4327C78.9463 61.421 78.958 61.3703 78.9424 61.3703C78.9385 61.3703 78.9346 61.3703 78.9307 61.3742C78.8956 61.4054 78.8644 61.4522 78.8371 61.5029C78.8059 61.5653 78.7708 61.6277 78.7435 61.6901C78.6928 61.7876 78.6538 61.8812 78.6031 61.9747C78.5368 62.0995 78.4627 62.2126 78.3886 62.3296C78.3535 62.3881 78.3106 62.4427 78.2794 62.509C78.2365 62.5792 78.2014 62.6689 78.1663 62.7508C78.1585 62.7664 78.1507 62.7859 78.1429 62.8015C78.1156 62.8561 78.0922 62.899 78.0922 62.9692C78.0922 63.0667 78.0922 63.172 78.1039 63.2656C78.1039 63.2968 78.1039 63.328 78.1156 63.3553C78.1273 63.3553 78.1312 63.3397 78.139 63.3358C78.178 63.2773 78.2248 63.2227 78.2677 63.172C78.3184 63.1096 78.3691 63.0472 78.4198 62.9887C78.4471 62.9614 78.4744 62.9302 78.49 62.8912C78.5095 62.8561 78.5329 62.821 78.5524 62.782L78.5407 62.7859ZM78.1546 63.6166C78.1351 63.6595 78.1468 63.714 78.1507 63.7686C78.1546 63.8076 78.1585 63.8466 78.1663 63.8778C78.2092 63.909 78.2638 63.9402 78.3223 63.948C78.3418 63.948 78.3652 63.9597 78.3769 63.9519C78.4003 63.948 78.4042 63.9168 78.4159 63.8934C78.4237 63.8739 78.4315 63.8583 78.4354 63.8427C78.4744 63.7374 78.5134 63.6322 78.5485 63.5347C78.5602 63.4996 78.568 63.4645 78.5797 63.4294C78.5992 63.3553 78.6187 63.2851 78.6382 63.2071C78.6499 63.1408 78.6655 63.0784 78.6772 63.0121C78.685 62.9614 78.6928 62.9146 78.6928 62.8834C78.6928 62.8834 78.6733 62.9029 78.6616 62.9146C78.6499 62.9341 78.6421 62.9575 78.6304 62.9809C78.6031 63.0472 78.5797 63.1174 78.5602 63.1876C78.5368 63.2617 78.5134 63.3241 78.4861 63.3904C78.4822 63.4021 78.4627 63.4489 78.4471 63.445C78.4198 63.4294 78.4666 63.3592 78.4666 63.3553C78.5017 63.2734 78.5173 63.1954 78.5368 63.1057C78.5368 63.0901 78.5524 63.0706 78.5407 63.055C78.529 63.0628 78.5212 63.0784 78.5134 63.0901C78.4861 63.1252 78.4588 63.1564 78.4354 63.1915C78.4198 63.2149 78.4042 63.2344 78.3847 63.2578C78.3301 63.328 78.2833 63.3982 78.2404 63.4684C78.2248 63.4918 78.2092 63.5152 78.1936 63.5425C78.178 63.5698 78.1624 63.5932 78.1546 63.6205V63.6166ZM78.0415 63.1837C78.0415 63.1837 78.0103 63.1798 77.9986 63.1837C77.944 63.1915 77.8855 63.1993 77.8309 63.2071C77.7958 63.2071 77.7607 63.2188 77.7374 63.2344C77.7958 63.4684 77.8543 63.7101 77.9128 63.9441C77.9479 63.9441 77.9791 63.9441 78.0064 63.948C78.0415 63.9558 78.0805 63.9519 78.1156 63.9558C78.1273 63.9558 78.139 63.9558 78.1507 63.9597C78.1351 63.9129 78.1234 63.8622 78.1156 63.8076C78.1078 63.7452 78.1 63.6634 78.0844 63.6127C78.0649 63.5971 78.0532 63.5659 78.0298 63.5503C78.022 63.5464 78.0064 63.5425 77.9908 63.5347C77.983 63.5347 77.9713 63.5191 77.9596 63.5152C77.9284 63.5074 77.905 63.5152 77.8816 63.5191C77.8699 63.5152 77.8582 63.5113 77.8465 63.5074C77.8348 63.4957 77.8192 63.4723 77.8192 63.445C77.827 63.4411 77.8309 63.4333 77.8426 63.4294C77.9089 63.4099 77.9869 63.4177 78.0532 63.4294C78.0532 63.3436 78.0493 63.2617 78.0415 63.1759V63.1837ZM78.4393 61.187C78.4159 61.1987 78.4198 61.1675 78.412 61.1402C78.4081 61.1129 78.3925 61.0778 78.4237 61.0778C78.4354 61.109 78.4393 61.1519 78.4393 61.187ZM78.4432 61.0349C78.4432 61.0349 78.4081 61.0622 78.3808 61.0466C78.3847 61.0271 78.4081 61.0232 78.4198 61.0154C78.4354 61.0037 78.4471 60.992 78.4588 60.9842C78.4939 60.9803 78.5134 60.9647 78.5368 60.9491C78.5407 60.9491 78.5407 60.9491 78.5446 60.9491C78.5212 60.9803 78.4783 61.0076 78.4432 61.031V61.0349ZM78.5251 61.1714C78.5134 61.1441 78.5134 61.109 78.529 61.0817C78.5446 61.0583 78.5836 61.031 78.6226 61.031C78.6811 61.0271 78.7396 61.0466 78.7591 61.0817C78.7786 61.1363 78.7591 61.1987 78.7123 61.2221C78.6499 61.2572 78.5485 61.226 78.5251 61.1714ZM78.3574 62.0878C78.3223 62.0956 78.3145 62.1346 78.2989 62.1619C78.2716 62.2204 78.2482 62.2711 78.2248 62.3374C78.1702 62.4661 78.1195 62.6104 78.0688 62.7469C78.0649 62.7586 78.0649 62.7781 78.0493 62.7859C78.0415 62.7703 78.0454 62.7469 78.0454 62.7274C78.0454 62.6221 78.0454 62.5129 78.0493 62.4115C78.0532 62.3725 78.061 62.3374 78.061 62.2984C78.061 62.2672 78.061 62.236 78.061 62.2126C78.061 62.1892 78.0727 62.1658 78.0766 62.1385C78.0805 62.1151 78.0883 62.0917 78.0961 62.0722C78.0961 62.0605 78.1039 62.0488 78.1117 62.0371C78.1429 61.9397 78.1975 61.8539 78.2482 61.7759C78.2989 61.7057 78.3496 61.6394 78.4042 61.5809C78.4744 61.499 78.5485 61.4327 78.6343 61.3703C78.685 61.3352 78.7357 61.2962 78.7747 61.2533C78.7903 61.2377 78.7981 61.2182 78.8176 61.2065C78.8176 61.226 78.8059 61.2455 78.802 61.2572C78.7747 61.3001 78.7396 61.3391 78.7123 61.3781C78.6538 61.4561 78.5914 61.5341 78.5368 61.6238C78.5095 61.6706 78.4861 61.7135 78.4588 61.7603C78.3808 61.8929 78.3106 62.0332 78.2326 62.1697C78.2053 62.2165 78.1819 62.2633 78.1663 62.314C78.1819 62.314 78.1858 62.2945 78.1936 62.2828C78.3028 62.1034 78.4042 61.9163 78.5173 61.7408C78.5758 61.6472 78.6382 61.5575 78.7084 61.4678C78.763 61.4054 78.8059 61.3391 78.8488 61.2611C78.8644 61.2377 78.88 61.2104 78.8956 61.1909C78.9112 61.1753 78.9229 61.2221 78.919 61.2455C78.919 61.2572 78.9034 61.2767 78.8995 61.2923C78.8761 61.3391 78.8605 61.3898 78.8371 61.4327C78.8059 61.4951 78.7708 61.5536 78.7474 61.6082C78.6889 61.733 78.6187 61.8422 78.5563 61.9552C78.5212 62.0137 78.49 62.0683 78.4588 62.1268C78.3691 62.2867 78.2833 62.4427 78.1975 62.6026C78.1897 62.6143 78.1819 62.6377 78.1663 62.6377C78.1702 62.6182 78.178 62.5987 78.1858 62.5831C78.2209 62.5012 78.2599 62.4115 78.3028 62.3296C78.3301 62.2711 78.3496 62.2243 78.3652 62.158C78.3691 62.1307 78.3847 62.0995 78.3652 62.0839L78.3574 62.0878ZM78.8098 60.953C78.8371 60.9374 78.8605 60.9374 78.8761 60.9257H78.88C78.88 60.9257 78.8722 60.9413 78.8683 60.9452C78.8488 60.9764 78.8449 61.0232 78.8176 61.0349C78.7981 61.0466 78.7786 61.0388 78.7513 61.0427C78.7045 60.9959 78.6031 60.9959 78.5485 61.0271C78.529 61.0349 78.5134 61.0544 78.4822 61.0466C78.4861 61.0232 78.5095 61.0154 78.529 61.0037C78.5641 60.9842 78.5953 60.9608 78.6343 60.9413C78.6538 60.9335 78.6772 60.9218 78.6967 60.9257C78.6967 60.9569 78.7123 60.9764 78.7552 60.9686C78.7591 60.9686 78.7708 60.9647 78.7825 60.9569C78.7825 60.9569 78.7981 60.9491 78.8059 60.9452L78.8098 60.953ZM78.3028 61.1987C78.3106 61.1636 78.3028 61.1129 78.3028 61.0778C78.3028 61.1168 78.3028 61.1558 78.3028 61.2026V61.1987ZM78.1195 61.1753C78.1195 61.1753 78.1195 61.1441 78.1234 61.1324C78.1273 61.1051 78.1429 61.0778 78.1546 61.0583C78.1663 61.0778 78.1624 61.1051 78.1663 61.1324C78.1702 61.1714 78.178 61.2143 78.1819 61.2533C78.1819 61.2845 78.1819 61.3118 78.1702 61.3313C78.1546 61.3547 78.1429 61.3781 78.1312 61.4015C78.1195 61.3313 78.1117 61.2533 78.1195 61.1792V61.1753ZM78.1546 61.4366C78.139 61.4756 78.1312 61.5263 78.1156 61.5692C78.1039 61.616 78.0844 61.6628 78.0805 61.7057C78.0649 61.8071 78.0493 61.9085 78.0532 62.0176C78.0688 62.0059 78.0766 61.9825 78.0844 61.9669C78.1195 61.9124 78.1468 61.8578 78.1819 61.811C78.2287 61.7447 78.2755 61.6823 78.3262 61.6199C78.3769 61.5536 78.4315 61.499 78.4822 61.4405C78.5095 61.4093 78.5368 61.382 78.5641 61.3586C78.5953 61.3313 78.6304 61.3079 78.6499 61.2728C78.6226 61.2689 78.5914 61.2728 78.568 61.265C78.5485 61.2611 78.529 61.2416 78.5134 61.2377C78.4978 61.2338 78.4744 61.2377 78.4588 61.2338C78.4003 61.2338 78.3418 61.226 78.295 61.2143C78.2755 61.2338 78.2638 61.2533 78.2482 61.2728C78.2209 61.3079 78.2014 61.3391 78.178 61.3859C78.1663 61.4054 78.1585 61.4249 78.1507 61.4444L78.1546 61.4366ZM77.9791 62.4973C77.9791 62.4973 77.983 62.4583 77.9791 62.4427C77.9791 62.4427 77.9791 62.4427 77.9752 62.4427C77.9557 62.6104 77.9362 62.7742 77.9167 62.938C77.9401 62.9341 77.9479 62.9419 77.9596 62.9497C77.9674 62.9185 77.9635 62.8873 77.9674 62.8561C77.9674 62.821 77.9713 62.7898 77.9713 62.7547C77.9713 62.6689 77.9791 62.5831 77.983 62.5012L77.9791 62.4973ZM78.0142 62.4037C78.0181 62.1736 78.0025 61.9436 78.0298 61.7642C78.0298 61.7642 78.0337 61.7564 78.0337 61.7525C78.0337 61.7486 78.0337 61.7408 78.0337 61.733C78.0415 61.7057 78.0493 61.6784 78.0493 61.655C78.061 61.6433 78.061 61.6238 78.0649 61.6043C78.0688 61.5887 78.0766 61.5692 78.0805 61.5497C78.0883 61.5029 78.0805 61.4483 78.0727 61.3937C78.0727 61.343 78.0805 61.2884 78.0649 61.2416C78.0415 61.2572 78.0259 61.2767 77.9986 61.2884C77.9947 61.3976 77.9947 61.4951 77.9869 61.5965C77.9869 61.6394 77.983 61.6784 77.983 61.7213C77.983 61.7681 77.983 61.811 77.9791 61.8578C77.9674 62.0215 77.9713 62.2048 77.9674 62.3998C77.9869 62.4037 78.0025 62.4076 78.0181 62.4115L78.0142 62.4037ZM79.1998 60.2276C79.1998 60.2276 79.2115 60.2549 79.2154 60.2666C79.2349 60.329 79.2427 60.3953 79.2544 60.4655C79.2622 60.4967 79.27 60.5318 79.2739 60.563C79.2817 60.5981 79.2895 60.6293 79.2973 60.6605C79.2817 60.6605 79.27 60.6644 79.2583 60.6683C79.192 60.68 79.0984 60.68 79.0243 60.7034V60.6878C79.0243 60.6878 79.0243 60.6839 79.0243 60.6722C79.0204 60.6449 79.0204 60.6488 79.0204 60.6293C79.0204 60.6098 79.0204 60.5825 79.0087 60.5864C79.0087 60.563 78.9775 60.5162 78.9736 60.5513C78.9736 60.563 78.9736 60.5747 78.9736 60.5825C78.9775 60.6371 78.9775 60.6371 78.9775 60.6956C78.9775 60.719 78.9814 60.8243 78.9775 60.8438C78.9658 60.8438 78.9541 60.8477 78.9424 60.8438C78.9268 60.8516 78.9073 60.8594 78.8917 60.8633C78.8683 60.8672 78.8449 60.875 78.8176 60.875C78.7903 60.8711 78.7669 60.8633 78.7435 60.8555C78.724 60.8438 78.7045 60.8282 78.685 60.8243C78.6265 60.8048 78.6226 60.8633 78.5602 60.8516C78.5836 60.7931 78.6187 60.7502 78.6499 60.6995C78.6928 60.6293 78.7396 60.5669 78.7903 60.5084C78.8137 60.485 78.8332 60.4577 78.8527 60.4343C78.88 60.4031 78.9073 60.3719 78.9385 60.3446C78.9502 60.3368 78.958 60.3212 78.9775 60.3212C78.9658 60.3758 78.9424 60.4109 78.9073 60.4421C78.8956 60.4538 78.8839 60.4694 78.8761 60.4733C78.8644 60.4811 78.8488 60.485 78.8449 60.5006V60.5084C78.8449 60.5357 78.88 60.5435 78.8995 60.5318C78.9229 60.5162 78.9424 60.4733 78.9619 60.4421C79.0165 60.3485 79.0828 60.2432 79.1647 60.1926C79.1842 60.177 79.1998 60.2121 79.2076 60.2276H79.1998ZM79.3207 60.7463C79.3207 60.7463 79.3012 60.719 79.3012 60.6995C79.2856 60.6956 79.2661 60.7034 79.2544 60.7112C79.2583 60.7268 79.2583 60.7424 79.2661 60.758C79.2856 60.7541 79.3051 60.7541 79.3207 60.7502V60.7463ZM79.3324 60.7736C79.3324 60.7736 79.348 60.7736 79.348 60.7853C79.348 60.797 79.2973 60.8048 79.2856 60.8087C79.2154 60.8282 79.1374 60.8633 79.0867 60.8945C79.0672 60.9062 79.0594 60.9218 79.0399 60.914C79.0438 60.9023 79.0555 60.8906 79.0633 60.8867C79.075 60.8789 79.0906 60.8711 79.0984 60.8672C79.1452 60.8438 79.192 60.8204 79.2466 60.8009C79.2739 60.7931 79.3051 60.7853 79.3285 60.7736H79.3324ZM79.3519 61.2611C79.3441 61.2338 79.3324 61.2143 79.3285 61.1948C79.3246 61.1792 79.3207 61.1675 79.3207 61.1519V61.0934C79.3129 61.0661 79.309 61.0661 79.309 61.0388C79.3012 60.9998 79.2973 60.9959 79.2895 60.9569C79.2232 60.9569 79.1647 60.9725 79.114 60.992C79.114 61.07 79.114 61.0934 79.114 61.1168C79.1218 61.1558 79.1179 61.187 79.1335 61.2299C79.1725 61.3313 79.27 61.6199 79.3129 61.7135C79.3207 61.733 79.3324 61.7642 79.3402 61.772C79.348 61.7759 79.3714 61.7759 79.387 61.7759C79.4142 61.7759 79.4728 61.7564 79.4767 61.733C79.4805 61.7135 79.4688 61.6823 79.461 61.6628C79.4221 61.5185 79.3909 61.3859 79.3441 61.2572L79.3519 61.2611ZM79.5234 61.7408C79.5234 61.7408 79.5156 61.7798 79.5039 61.7876C79.4688 61.811 79.4026 61.8305 79.348 61.8305C79.3246 61.8305 79.2895 61.8305 79.3012 61.7993C79.3831 61.8188 79.4883 61.8032 79.5156 61.7408H79.5234ZM79.5351 61.7954C79.5351 61.7954 79.4923 61.8188 79.4572 61.8305C79.4338 61.8383 79.4025 61.8461 79.387 61.8461C79.3675 61.8461 79.3285 61.8461 79.3207 61.8617C79.3051 61.8812 79.3324 61.9007 79.3519 61.8968C79.3675 61.8929 79.3753 61.8773 79.3948 61.8851C79.4065 61.8812 79.4104 61.8695 79.4221 61.8695C79.4299 61.8656 79.4377 61.8695 79.4455 61.8695C79.4572 61.8695 79.4649 61.8578 79.4727 61.8578C79.4766 61.8578 79.4883 61.8578 79.4922 61.8578C79.5078 61.8539 79.5117 61.8383 79.5234 61.8383C79.5468 61.8305 79.5663 61.8383 79.5702 61.8188C79.5702 61.8071 79.5546 61.7876 79.539 61.7915L79.5351 61.7954ZM79.5741 61.8617C79.6521 61.8812 79.7262 61.9201 79.8042 61.9435C79.8549 61.9591 79.9017 61.9708 79.9368 61.9942C79.9485 61.9981 79.9524 62.0059 79.9602 62.0098C79.9758 62.0176 79.9875 62.0254 80.0031 62.0332C80.007 62.0371 80.0187 62.0332 80.0148 62.0449C79.9992 62.0527 79.9914 62.0371 79.9797 62.0332C79.9134 61.9981 79.8432 61.9552 79.7535 61.9435C79.7652 61.9591 79.7808 61.9591 79.7964 61.9591C79.8783 61.9786 79.9485 62.0332 80.0148 62.0722C80.0265 62.0761 80.0421 62.0839 80.0421 62.0995C80.0304 62.1073 80.0148 62.0995 80.007 62.0917C79.9329 62.041 79.8588 61.9825 79.7457 61.963C79.7379 61.9825 79.7691 61.9864 79.7769 61.9864C79.8354 62.002 79.8783 62.0215 79.9251 62.0488C79.9368 62.0566 79.9524 62.0683 79.968 62.08C79.9836 62.0878 80.0031 62.0956 80.0109 62.1112C79.9875 62.1307 79.9524 62.1112 79.929 62.0956C79.9056 62.0839 79.89 62.0722 79.8666 62.0644C79.8276 62.0488 79.7769 62.0371 79.7262 62.0254C79.6989 62.0215 79.6716 62.0215 79.6482 62.0137C79.6248 62.0098 79.6053 61.9903 79.5819 61.9903C79.5624 62.0137 79.5975 62.0137 79.6209 62.0215C79.6209 62.0215 79.6287 62.0332 79.6326 62.0332C79.6638 62.041 79.7067 62.0371 79.7418 62.0449C79.7652 62.0488 79.8081 62.0644 79.8081 62.0761C79.8081 62.1034 79.7184 62.08 79.695 62.08C79.6365 62.0761 79.6014 62.0839 79.5468 62.0761C79.5078 62.0722 79.465 62.0605 79.4455 62.0332C79.4377 62.0215 79.4299 62.0059 79.4299 62.002C79.4299 61.9903 79.4338 61.9747 79.4299 61.9591C79.426 61.9436 79.4143 61.9436 79.4221 61.928C79.4221 61.9163 79.4299 61.9279 79.4455 61.9202C79.4494 61.9202 79.4571 61.9163 79.461 61.9124C79.4688 61.9124 79.4805 61.9124 79.4883 61.9124C79.5039 61.9124 79.5039 61.889 79.5273 61.8968C79.5429 61.8812 79.5585 61.8734 79.578 61.8617H79.5741ZM79.929 61.9591C79.929 61.9708 79.9446 61.9748 79.9524 61.9825C79.9602 61.9903 79.968 61.9942 79.9797 62.002C79.9992 62.0137 80.0226 62.0215 80.0343 62.0371C80.0382 62.041 80.0382 62.0527 80.046 62.0605C80.0538 62.0761 80.0694 62.0839 80.0694 62.0995C80.0655 62.1307 79.9992 62.1385 79.968 62.1502C79.9602 62.158 79.9563 62.1697 79.9446 62.1775C79.9407 62.1892 79.929 62.197 79.929 62.2126C79.9446 62.2126 79.9524 62.1931 79.968 62.1853C79.9758 62.1814 79.9836 62.1814 79.9953 62.1736C80.0226 62.158 80.0499 62.1463 80.0733 62.1307C80.0889 62.1073 80.0928 62.0839 80.085 62.0605C80.0772 62.0449 80.0421 62.0059 80.0304 61.9942C80.0187 61.9903 79.9992 61.9825 79.9836 61.9786C79.9641 61.9708 79.9446 61.9552 79.9329 61.963L79.929 61.9591ZM80.0811 61.9903C80.085 62.0254 80.1123 62.0527 80.1201 62.08C80.124 62.1385 80.0616 62.1619 80.0304 62.1775C80.0109 62.1892 79.9875 62.1892 79.9758 62.2048C79.9914 62.2165 80.0109 62.2048 80.0304 62.2048C80.0499 62.2048 80.0733 62.2087 80.0889 62.2087C80.124 62.2048 80.1552 62.1814 80.1747 62.1658C80.1981 62.1463 80.2215 62.1229 80.2449 62.1112C80.2527 62.1112 80.2683 62.1112 80.2722 62.0995C80.2761 62.0917 80.2605 62.08 80.2566 62.0761C80.2449 62.0566 80.2371 62.041 80.2137 62.0332C80.1903 62.0293 80.1669 62.0332 80.1474 62.0293C80.1201 62.0215 80.1123 61.9825 80.0811 61.9864V61.9903ZM80.2995 62.1424C80.2449 62.1424 80.2137 62.1775 80.1786 62.2087C80.1903 62.2009 80.2059 62.2009 80.2137 62.1892C80.2176 62.1853 80.2254 62.1736 80.2293 62.1697C80.2527 62.1541 80.3034 62.1346 80.3385 62.158C80.3502 62.1697 80.3619 62.1931 80.3658 62.2087C80.3775 62.2399 80.3775 62.2828 80.3658 62.314C80.3541 62.3491 80.3268 62.3647 80.3112 62.3881C80.3541 62.4427 80.3853 62.509 80.3892 62.5987C80.3892 62.6299 80.3853 62.6572 80.3853 62.6884C80.3853 62.7703 80.4438 62.8288 80.4282 62.9068C80.4282 62.9185 80.4165 62.9302 80.4165 62.9419C80.4165 62.9536 80.436 62.9731 80.4438 62.9848C80.4711 63.0433 80.475 63.1096 80.475 63.1837C80.475 63.2071 80.4711 63.2344 80.4711 63.2578C80.475 63.2929 80.4906 63.3241 80.4984 63.3514C80.4984 63.3592 80.4984 63.3748 80.5101 63.3787C80.5218 63.3631 80.514 63.3436 80.514 63.328C80.514 63.1954 80.4906 63.0823 80.4867 62.9575C80.4867 62.8795 80.4906 62.8015 80.4906 62.7274C80.4906 62.6533 80.4906 62.5792 80.475 62.5168C80.4711 62.4973 80.4594 62.4778 80.4555 62.4583C80.4204 62.3647 80.4126 62.2516 80.3658 62.1814C80.3502 62.158 80.3307 62.1385 80.2956 62.1385L80.2995 62.1424ZM80.0655 63.7335C80.046 63.7686 80.0109 63.7998 79.9797 63.8154C80.0343 63.8349 80.1006 63.8154 80.1201 63.7764C80.1357 63.7413 80.1279 63.7023 80.1396 63.6712C80.1396 63.6634 80.1435 63.6556 80.1513 63.6517C80.1591 63.6361 80.1747 63.6244 80.1864 63.6088C80.202 63.5815 80.202 63.5386 80.202 63.5035C80.2566 63.5659 80.1864 63.6361 80.1669 63.6906C80.163 63.7023 80.1552 63.7179 80.1669 63.7296C80.1825 63.7296 80.1864 63.7141 80.1981 63.7101C80.2098 63.7024 80.2176 63.7023 80.2293 63.6906C80.2605 63.6672 80.2644 63.6205 80.2722 63.5737C80.2761 63.5542 80.2839 63.5347 80.2839 63.5191C80.2839 63.4918 80.2761 63.4567 80.2839 63.4294C80.2917 63.4021 80.3073 63.3904 80.3151 63.367C80.3268 63.3397 80.3112 63.3163 80.3112 63.2851C80.3151 63.2656 80.3229 63.2539 80.3268 63.2422C80.3307 63.2227 80.3307 63.2032 80.3268 63.1798C80.319 63.1447 80.2956 63.1291 80.28 63.1018C80.2722 63.0901 80.2722 63.0862 80.2644 63.0745C80.2644 63.0667 80.2527 63.0589 80.2527 63.0472C80.2371 62.9965 80.2644 62.9341 80.2566 62.8873C80.2527 62.8873 80.2527 62.8834 80.2527 62.8834C80.2527 62.8834 80.2527 62.8873 80.2488 62.8873C80.2449 62.9146 80.2332 62.9341 80.2254 62.9536C80.2215 62.9614 80.2215 62.9692 80.2137 62.977C80.2059 62.9926 80.1903 63.0004 80.1786 63.016C80.1669 63.0316 80.1552 63.0511 80.1552 63.0745C80.1591 63.0979 80.1747 63.1174 80.1864 63.1408C80.1903 63.1603 80.1942 63.1837 80.1903 63.2071C80.1864 63.2461 80.1669 63.2851 80.1513 63.3085C80.1279 63.3514 80.0967 63.4021 80.0889 63.445C80.0811 63.4918 80.0967 63.5347 80.1006 63.5815C80.1006 63.6361 80.0889 63.6868 80.0694 63.7179L80.0655 63.7335ZM79.7886 63.3514C79.7886 63.3514 79.7847 63.3202 79.7847 63.3085C79.7847 63.2851 79.8042 63.2656 79.8042 63.2461C79.8003 63.2383 79.7886 63.2266 79.7847 63.211C79.7808 63.1993 79.7808 63.1915 79.7808 63.1837C79.7808 63.1798 79.773 63.172 79.7691 63.1642C79.7652 63.1408 79.7574 63.1291 79.7418 63.1174C79.7145 63.172 79.7652 63.211 79.773 63.2578C79.773 63.3163 79.7496 63.3592 79.7769 63.3982C79.7691 63.3748 79.7886 63.3631 79.7925 63.3475L79.7886 63.3514ZM79.6482 63.562C79.6482 63.6088 79.6755 63.6361 79.695 63.6673C79.6989 63.679 79.7106 63.6945 79.7106 63.7062C79.7145 63.7257 79.7067 63.7569 79.7145 63.7647C79.7262 63.7569 79.7262 63.7374 79.7379 63.7257C79.7496 63.7102 79.7691 63.7062 79.7847 63.6945C79.8237 63.6634 79.8393 63.5893 79.8159 63.523C79.812 63.5152 79.8042 63.5035 79.8003 63.4957C79.7808 63.4684 79.7574 63.4489 79.7457 63.4177C79.7223 63.3592 79.734 63.289 79.7262 63.2227C79.7067 63.1876 79.6794 63.1642 79.6794 63.1213C79.6794 63.1018 79.6911 63.0901 79.6911 63.0706C79.6911 63.0472 79.6755 63.0238 79.6716 63.0043C79.6521 62.9965 79.6443 62.9809 79.6287 62.9692C79.6014 63.0472 79.6755 63.0979 79.6521 63.172C79.6443 63.172 79.6443 63.1837 79.6287 63.1837C79.617 63.1837 79.6287 63.1564 79.617 63.1603C79.5975 63.25 79.6638 63.3124 79.6716 63.3865C79.6716 63.4138 79.6716 63.4372 79.6716 63.4645C79.6716 63.4996 79.6521 63.5308 79.6482 63.5659V63.562ZM79.6248 63.6478C79.6287 63.679 79.6209 63.7218 79.6131 63.753C79.6287 63.753 79.6482 63.7569 79.6677 63.7569C79.6677 63.7101 79.656 63.6712 79.6326 63.64C79.6326 63.64 79.6248 63.64 79.6248 63.6439V63.6478ZM79.5741 63.4996C79.5741 63.4996 79.5936 63.5386 79.6053 63.562C79.6053 63.5191 79.6287 63.4801 79.6326 63.4372C79.6365 63.3826 79.6209 63.3475 79.6092 63.3085C79.6014 63.2851 79.5936 63.2617 79.5897 63.2422C79.5858 63.2032 79.5897 63.1603 79.6014 63.1252C79.6014 63.1057 79.6053 63.0901 79.6053 63.0745C79.6053 63.055 79.5936 63.0238 79.5975 62.9965C79.5975 62.977 79.6092 62.9536 79.6092 62.9341C79.6092 62.9302 79.6053 62.9185 79.5975 62.9107C79.5936 62.8912 79.5858 62.8795 79.5819 62.86C79.5819 62.8444 79.5819 62.8327 79.5702 62.8327C79.5663 62.8678 79.5663 62.8912 79.5546 62.9146C79.539 62.977 79.4883 63.016 79.4962 63.0862C79.5 63.1408 79.5351 63.1798 79.5546 63.2266C79.5663 63.2578 79.5819 63.2929 79.5819 63.328C79.5858 63.3865 79.5546 63.4489 79.5702 63.4957L79.5741 63.4996ZM79.4143 63.4333C79.4143 63.4645 79.3948 63.4879 79.387 63.5152C79.387 63.5386 79.3948 63.5659 79.4065 63.5893C79.426 63.6244 79.4416 63.6517 79.4688 63.6712C79.4805 63.6517 79.5079 63.6439 79.5079 63.6205C79.5079 63.5971 79.4766 63.5815 79.461 63.5659C79.4338 63.5269 79.4182 63.4372 79.4416 63.3748C79.4494 63.3514 79.4728 63.3241 79.465 63.2929C79.465 63.2734 79.4416 63.2539 79.4299 63.2344C79.4182 63.2149 79.4065 63.1993 79.3948 63.1798C79.3714 63.1369 79.3714 63.0784 79.3753 63.0238C79.3441 63.0004 79.3285 62.9614 79.3012 62.9302L79.2973 62.9341C79.2817 63.0472 79.309 63.1135 79.3558 63.1759C79.3831 63.211 79.4338 63.2539 79.4143 63.3124C79.4143 63.3241 79.4026 63.328 79.4026 63.3397C79.3987 63.3475 79.4065 63.3592 79.4065 63.367C79.4065 63.3865 79.4065 63.4099 79.4065 63.4294L79.4143 63.4333ZM79.4688 62.1307C79.4688 62.1307 79.4845 62.119 79.4767 62.1151C79.4611 62.1151 79.4571 62.1229 79.4416 62.1268C79.3753 62.1775 79.3363 62.2477 79.2934 62.3218C79.2778 62.3686 79.2505 62.4037 79.2388 62.4544C79.2154 62.5246 79.1998 62.6104 79.1881 62.6845C79.1842 62.7157 79.1764 62.7391 79.1803 62.7664C79.1803 62.7937 79.1842 62.8171 79.192 62.8483C79.2037 62.899 79.2232 62.9419 79.231 62.9965C79.231 63.055 79.231 63.1018 79.2505 63.1408C79.27 63.1759 79.3051 63.1993 79.3363 63.2149C79.3324 63.1993 79.3207 63.1915 79.3168 63.1798C79.2895 63.1252 79.27 63.0706 79.2622 63.0004C79.2622 62.9809 79.2622 62.9575 79.2622 62.938C79.2622 62.9068 79.2817 62.8756 79.2817 62.8405C79.2817 62.8327 79.2817 62.821 79.2778 62.8054V62.7703C79.2778 62.7703 79.2583 62.7508 79.2505 62.7391C79.2388 62.7118 79.2232 62.6572 79.2388 62.6143C79.2427 62.6065 79.2505 62.5948 79.2583 62.5831C79.2778 62.5558 79.3051 62.5324 79.3168 62.5051C79.3285 62.4817 79.3402 62.4349 79.3402 62.4115C79.3402 62.3998 79.3363 62.3881 79.3363 62.3764C79.3363 62.353 79.3324 62.3296 79.3402 62.3101C79.3558 62.2672 79.387 62.2438 79.4338 62.236C79.4416 62.2126 79.4533 62.1931 79.4688 62.1736C79.4688 62.158 79.4688 62.1385 79.4805 62.1268L79.4688 62.1307ZM79.5156 62.3374C79.5156 62.3374 79.5157 62.3257 79.5196 62.3179C79.5234 62.3179 79.5234 62.3179 79.5196 62.3179C79.504 62.3608 79.4883 62.4037 79.4767 62.4505C79.4728 62.4427 79.4728 62.431 79.4767 62.4232C79.4805 62.392 79.4922 62.3452 79.5117 62.3335L79.5156 62.3374ZM79.3324 62.6689C79.3402 62.6455 79.3597 62.626 79.3675 62.6065C79.3831 62.5675 79.3948 62.5246 79.3987 62.4778V62.47C79.3987 62.47 79.3987 62.47 79.4026 62.4739C79.4377 62.587 79.3675 62.6923 79.3675 62.7976C79.3675 62.8327 79.3792 62.8678 79.3948 62.8951C79.4026 62.9185 79.4182 62.9419 79.4065 62.977C79.3792 62.9575 79.3675 62.9302 79.348 62.899C79.3402 62.8873 79.3324 62.8717 79.3285 62.8639C79.3129 62.8015 79.3168 62.7235 79.3324 62.6728V62.6689ZM79.3792 62.3296C79.3792 62.3296 79.4065 62.3062 79.4299 62.3101C79.4104 62.3491 79.4026 62.3959 79.4026 62.4427C79.3987 62.4388 79.387 62.4349 79.3792 62.4271C79.3558 62.3998 79.3636 62.3491 79.3792 62.3296ZM79.2778 62.6104H79.2817C79.309 62.5597 79.3441 62.5168 79.3558 62.4583C79.3597 62.4583 79.3636 62.4622 79.3675 62.4622C79.3675 62.5753 79.2778 62.6221 79.2661 62.7196C79.2466 62.6962 79.2505 62.6455 79.2661 62.6299C79.2661 62.6299 79.2661 62.6065 79.27 62.6221C79.2739 62.6182 79.2661 62.6143 79.27 62.6065L79.2778 62.6104ZM79.465 62.5714C79.465 62.6026 79.4649 62.6377 79.461 62.6689C79.4493 62.7001 79.426 62.7235 79.4221 62.7586C79.4221 62.7625 79.4221 62.7742 79.4221 62.7781C79.4221 62.7859 79.4143 62.7937 79.4104 62.7976C79.4065 62.8288 79.4143 62.8561 79.4143 62.8912C79.387 62.8444 79.3831 62.7781 79.3948 62.7235C79.4065 62.6806 79.426 62.6455 79.426 62.6065C79.4338 62.5324 79.426 62.4427 79.4377 62.3725C79.4494 62.3296 79.4767 62.3062 79.4962 62.275C79.5079 62.2711 79.5157 62.2516 79.5312 62.2555C79.5312 62.2516 79.5234 62.2555 79.5273 62.2516C79.578 62.2165 79.6482 62.1775 79.7301 62.2009C79.7067 62.2048 79.6716 62.2087 79.6443 62.2087C79.5741 62.236 79.5117 62.275 79.4767 62.3452C79.4767 62.3452 79.4753 62.3478 79.4727 62.353C79.4727 62.353 79.4572 62.4076 79.4533 62.4388C79.4455 62.4895 79.465 62.5285 79.465 62.5753V62.5714ZM80.163 62.4622C80.1747 62.5441 80.163 62.6221 80.1318 62.6806C80.1123 62.7196 80.085 62.7547 80.0616 62.7898C80.0655 62.8054 80.0772 62.8327 80.0616 62.8483C80.0304 62.8444 80.007 62.8327 79.9797 62.821C79.9836 62.8639 80.0265 62.8678 80.0538 62.8834C80.0538 62.8951 80.0421 62.9107 80.0343 62.9107C80.0226 62.9107 79.9875 62.8834 79.9758 62.8795C79.9719 62.8756 79.9641 62.8639 79.9602 62.8639C79.9602 62.9029 79.9914 62.9146 80.0109 62.9341C80.007 62.9458 79.9914 62.9653 79.9797 62.9653C79.9485 62.9692 79.9329 62.9107 79.9212 62.8834C79.9017 62.8912 79.9056 62.9224 79.8978 62.9419C79.8471 62.9224 79.8315 62.8717 79.8354 62.8171C79.8471 62.7703 79.929 62.782 79.9446 62.7352C79.9446 62.7196 79.9446 62.704 79.9368 62.6923C79.9329 62.6767 79.929 62.665 79.9173 62.6611C79.9056 62.6767 79.9329 62.7001 79.9173 62.7157C79.9056 62.7196 79.8978 62.7157 79.89 62.7157C79.8549 62.7118 79.8276 62.7274 79.7964 62.7235C79.7808 62.7235 79.7652 62.7157 79.7496 62.7157C79.7379 62.7157 79.7262 62.7157 79.7145 62.7118C79.7106 62.6923 79.7262 62.6767 79.7067 62.6689C79.6989 62.6845 79.6911 62.7001 79.695 62.7274C79.695 62.7469 79.7145 62.7664 79.7262 62.7742C79.7535 62.7898 79.7964 62.7898 79.8081 62.8132C79.812 62.8288 79.812 62.8483 79.8081 62.86C79.8042 62.9068 79.7652 62.938 79.7262 62.9497C79.7301 62.9341 79.7379 62.8912 79.7184 62.8951C79.7067 62.8951 79.7028 62.9263 79.6911 62.9419C79.6755 62.9653 79.6404 62.9848 79.6209 62.9458C79.6482 62.9263 79.6755 62.9146 79.6872 62.8795C79.6755 62.8795 79.6482 62.8873 79.6287 62.899C79.6053 62.9107 79.5897 62.9224 79.5897 62.8795C79.6287 62.8756 79.656 62.8522 79.6716 62.8249C79.6482 62.8327 79.617 62.8483 79.5858 62.8405C79.5819 62.8366 79.5858 62.8249 79.5858 62.821C79.5312 62.7547 79.4922 62.6689 79.4883 62.5636C79.4883 62.4973 79.5039 62.4232 79.5273 62.3686C79.539 62.3452 79.5468 62.3296 79.5585 62.314C79.5702 62.2906 79.5819 62.275 79.6053 62.2633C79.6365 62.2516 79.6755 62.2438 79.7145 62.2438C79.7574 62.2477 79.7847 62.2672 79.8159 62.275C79.8588 62.2867 79.89 62.2555 79.9251 62.2516C79.9758 62.2477 80.0187 62.2633 80.0499 62.2867C80.0616 62.2906 80.0733 62.3101 80.085 62.3218C80.1162 62.353 80.1396 62.4076 80.1474 62.4661L80.163 62.4622ZM80.1357 63.1252C80.1357 63.1252 80.1513 63.1408 80.1591 63.1525C80.1708 63.1759 80.1708 63.2539 80.1474 63.2617C80.1513 63.1642 80.0616 63.1252 80.085 63.0277C80.0889 63.0043 80.0967 62.9848 80.1084 62.9614C80.124 62.9146 80.1474 62.86 80.1318 62.8015C80.1318 62.7976 80.124 62.7859 80.124 62.7781C80.124 62.7664 80.1513 62.7157 80.163 62.7079C80.1786 62.7118 80.1786 62.7352 80.1786 62.7469C80.1903 62.782 80.2137 62.8249 80.2137 62.8678C80.2137 62.9068 80.1942 62.9536 80.1786 62.9848C80.1552 63.016 80.124 63.0394 80.1279 63.0901C80.1318 63.1057 80.1357 63.1174 80.1396 63.1291L80.1357 63.1252ZM80.1708 62.3764C80.1708 62.3764 80.1708 62.3725 80.1708 62.3686C80.1708 62.3725 80.1747 62.3725 80.1747 62.3725C80.2137 62.392 80.2293 62.4427 80.2332 62.4973C80.2332 62.5363 80.2176 62.5753 80.2137 62.6104C80.2098 62.6494 80.2176 62.6845 80.2371 62.7079C80.2488 62.7196 80.2722 62.7313 80.2722 62.7547C80.2722 62.7781 80.2527 62.7937 80.2488 62.8132C80.2332 62.7937 80.2293 62.7703 80.2254 62.7469C80.2215 62.7235 80.2098 62.7001 80.2098 62.6767C80.2098 62.6533 80.2137 62.6377 80.2137 62.6143C80.2215 62.5324 80.1942 62.4466 80.1708 62.3803V62.3764ZM80.3892 62.8717C80.3892 62.8951 80.3775 62.9224 80.3697 62.9419C80.3502 62.9692 80.3268 62.977 80.3151 63.0082C80.3034 63.0511 80.3346 63.0901 80.3268 63.1252C80.3151 63.1252 80.3073 63.1096 80.3034 63.0979C80.2956 63.0901 80.2878 63.0784 80.2839 63.0667C80.2683 63.0121 80.3073 62.9341 80.2878 62.8717C80.2878 62.86 80.2722 62.8444 80.2722 62.8366C80.2722 62.8054 80.2995 62.782 80.2956 62.7469C80.2956 62.7235 80.28 62.7118 80.2683 62.6962C80.2566 62.6806 80.2449 62.6728 80.2449 62.6533C80.2449 62.6221 80.2683 62.5948 80.2722 62.5636C80.2839 62.5051 80.2722 62.4622 80.2488 62.4193H80.2527C80.2761 62.4427 80.2956 62.47 80.3151 62.5051C80.3307 62.5324 80.3424 62.5753 80.3424 62.6143C80.3424 62.665 80.3268 62.7157 80.3307 62.7625C80.3346 62.8015 80.3736 62.8249 80.3775 62.8678L80.3892 62.8717ZM80.2605 62.2087C80.2605 62.2087 80.2722 62.197 80.2722 62.1931C80.2956 62.1736 80.3268 62.197 80.3307 62.2165C80.3541 62.2828 80.2995 62.3647 80.2488 62.3725C80.2254 62.3764 80.1903 62.3686 80.1903 62.353C80.1942 62.3452 80.202 62.3491 80.2098 62.3491C80.2527 62.3452 80.2839 62.3218 80.3073 62.2984C80.3229 62.2555 80.3034 62.2126 80.2644 62.2126L80.2605 62.2087ZM80.2449 62.2126C80.2449 62.2126 80.2332 62.2321 80.241 62.2438C80.241 62.2516 80.2527 62.2594 80.2527 62.2633C80.2527 62.2711 80.2176 62.2906 80.2059 62.2945C80.1708 62.3062 80.1201 62.2945 80.1084 62.275C80.1708 62.2672 80.2098 62.2399 80.2488 62.2087L80.2449 62.2126ZM79.8159 62.1112C79.8159 62.1112 79.8822 62.0956 79.8432 62.0878C79.8393 62.0995 79.8159 62.0917 79.8159 62.1112ZM79.8549 62.1385C79.812 62.1463 79.7574 62.119 79.7067 62.1151C79.6794 62.1112 79.6482 62.1073 79.6209 62.1112C79.5429 62.1229 79.4961 62.1697 79.4688 62.2477C79.5 62.2204 79.5312 62.1892 79.5741 62.1736C79.6209 62.1541 79.6911 62.1385 79.7457 62.1619C79.7691 62.1736 79.7925 62.1853 79.8159 62.1892C79.8549 62.1892 79.8705 62.1775 79.89 62.1658C79.9017 62.1463 79.9368 62.1346 79.9212 62.1073C79.8939 62.1073 79.8861 62.1307 79.8588 62.1385H79.8549ZM79.1101 60.9374C79.1101 60.9374 79.1296 60.9218 79.1452 60.9179C79.1881 60.9062 79.2349 60.8906 79.2817 60.8906C79.2856 60.8945 79.2895 60.9023 79.2895 60.9101C79.2622 60.9257 79.2271 60.9257 79.1959 60.9296C79.1647 60.9335 79.1374 60.9452 79.1101 60.9413V60.9374ZM78.9931 61.0388C78.9931 61.0388 78.997 61.0778 78.997 61.0934V61.148C78.997 61.148 78.997 61.1714 78.997 61.1831C79.1803 61.4717 79.2154 61.9085 79.2076 62.3686C79.2193 62.3569 79.2232 62.3413 79.231 62.3257C79.2583 62.2555 79.2973 62.197 79.3402 62.1385C79.3597 62.1112 79.3753 62.0878 79.3948 62.0722C79.4026 62.0605 79.4299 62.0527 79.4299 62.041C79.4299 62.0254 79.4143 61.9942 79.4104 61.9825C79.4026 61.9631 79.3987 61.9436 79.387 61.928C79.3558 61.928 79.3051 61.9124 79.3012 61.8812C79.2973 61.8656 79.3051 61.8578 79.3129 61.8383C79.309 61.8266 79.2934 61.8266 79.2934 61.811C79.2934 61.7915 79.3051 61.7759 79.309 61.7603C79.2544 61.6511 79.1998 61.5341 79.1569 61.4093C79.1413 61.3703 79.114 61.265 79.1062 61.2221C79.1023 61.1948 79.0906 61.1285 79.0867 61.1012C79.0828 61.0817 79.0789 61.0583 79.075 61.0388C79.075 61.0388 79.0711 61.0232 79.0633 60.9569H79.0594C79.0321 60.9686 79.0126 60.9998 78.9892 61.0154C78.9892 61.0232 79.0009 61.0271 79.0009 61.0349L78.9931 61.0388ZM79.114 63.0082C79.114 63.0082 79.114 62.9926 79.114 62.9848C79.1179 62.9614 79.1257 62.9302 79.1335 62.9029C79.1335 62.8834 79.1335 62.8678 79.1452 62.8561C79.1452 62.8561 79.1452 62.8561 79.1491 62.8561C79.1374 62.8873 79.1374 62.9263 79.1335 62.9536C79.1296 62.9731 79.1257 62.9926 79.114 63.0043V63.0082ZM79.1608 62.9185C79.1608 62.9809 79.1296 63.0238 79.1296 63.0823C79.1335 63.1525 79.1608 63.2188 79.1959 63.2578C79.231 63.2968 79.2895 63.3046 79.3246 63.3436C79.3402 63.3592 79.3519 63.3826 79.3636 63.4021C79.3714 63.4177 79.3714 63.4372 79.3831 63.4489C79.387 63.4255 79.3948 63.406 79.3948 63.3865C79.3948 63.3631 79.3753 63.3475 79.3753 63.3319C79.3753 63.3046 79.3909 63.2773 79.3636 63.2578C79.3051 63.2383 79.2544 63.2227 79.2271 63.1759C79.1803 63.1057 79.2037 63.0004 79.1725 62.9185H79.1686C79.1686 62.9185 79.1686 62.9185 79.1686 62.9224L79.1608 62.9185ZM79.5117 63.5386C79.539 63.5776 79.5585 63.6556 79.5234 63.6984C79.539 63.7179 79.5468 63.7374 79.5702 63.7452C79.6014 63.6828 79.5975 63.6127 79.5702 63.5542C79.5585 63.5308 79.5391 63.5074 79.5312 63.484C79.5196 63.4333 79.5429 63.4021 79.5468 63.3553C79.5468 63.3358 79.5507 63.3085 79.5468 63.289C79.5429 63.2422 79.5039 63.2032 79.4883 63.1603C79.4805 63.1408 79.4728 63.1174 79.465 63.0979C79.4572 63.0472 79.465 62.9926 79.4767 62.9497C79.4883 62.9224 79.5 62.899 79.5117 62.8678C79.5234 62.821 79.5117 62.7664 79.5 62.7313C79.5 62.7196 79.4922 62.6962 79.4805 62.7001C79.4688 62.7196 79.4533 62.7508 79.4494 62.7703C79.4338 62.8132 79.4377 62.8639 79.4338 62.9146C79.4338 62.9653 79.4143 63.0121 79.4104 63.0511C79.4026 63.1135 79.426 63.1447 79.4455 63.1798C79.4611 63.2071 79.4805 63.2305 79.4883 63.2539C79.5079 63.3124 79.4883 63.3631 79.4688 63.4138C79.4571 63.4606 79.4688 63.5035 79.4805 63.5347C79.4844 63.5464 79.4883 63.562 79.5039 63.5698C79.5156 63.5698 79.504 63.5503 79.5079 63.5425L79.5117 63.5386ZM79.9407 63.4099C79.9407 63.4528 79.9602 63.4879 79.968 63.5269C79.9758 63.5932 79.9485 63.6478 79.9173 63.6829C79.8861 63.7218 79.8354 63.7257 79.8276 63.7881C79.851 63.7881 79.8666 63.8037 79.8861 63.7998C79.8978 63.7998 79.9056 63.7881 79.9173 63.7881C79.9407 63.7803 79.9602 63.7764 79.9797 63.7647C80.007 63.7491 80.0109 63.7452 80.0265 63.7218C80.0421 63.7024 80.0538 63.6867 80.0616 63.6595C80.0616 63.64 80.0694 63.601 80.0655 63.5854C80.0655 63.5659 80.0538 63.5386 80.0499 63.5191C80.046 63.4918 80.0382 63.4684 80.0304 63.4528C80.0226 63.4411 80.0109 63.4294 80.0031 63.4138C79.9953 63.3982 79.9875 63.3631 79.9875 63.3475C79.9875 63.3124 80.0265 63.289 80.0343 63.2578C80.0343 63.2266 80.0304 63.2071 80.0187 63.1876C80.0109 63.1681 80.0109 63.1525 80.0031 63.1408C79.9914 63.1096 79.9485 63.0745 79.9485 63.0394C79.9485 63.0277 79.9485 63.016 79.968 63.0121C79.9836 63.0199 79.9797 63.0394 79.9914 63.0511C79.9914 63.0589 80.0031 63.0667 80.0109 63.0745C80.0148 63.0901 80.0226 63.1096 80.0265 63.1291C80.0382 63.1681 80.0655 63.2149 80.0577 63.2656C80.0499 63.3007 80.0187 63.328 80.0187 63.3592C80.0187 63.3826 80.0382 63.406 80.0538 63.4177C80.0811 63.3592 80.1162 63.3202 80.1123 63.2383C80.1123 63.2188 80.1084 63.2032 80.1084 63.1915C80.0967 63.1447 80.0577 63.1135 80.0499 63.0589C80.0421 62.9965 80.0772 62.9614 80.085 62.9029C80.0655 62.9419 80.046 62.9809 79.9992 62.9965C79.9836 62.9848 79.9719 62.9731 79.9485 62.9653C79.9446 62.9653 79.9407 62.9653 79.9329 62.9653C79.9173 62.9653 79.8978 62.9458 79.8822 62.9458C79.8705 62.9458 79.8588 62.9536 79.8432 62.9575C79.8276 62.9575 79.8081 62.9458 79.7925 62.9458C79.7808 62.9458 79.7652 62.9614 79.7496 62.9653C79.7301 62.9653 79.7145 62.9653 79.6989 62.977C79.7145 62.9965 79.7106 63.0433 79.7301 63.0589C79.7496 63.0745 79.7769 63.0628 79.7964 63.0745C79.7964 63.0823 79.8042 63.0862 79.8042 63.0901C79.8042 63.1369 79.8237 63.1564 79.8237 63.1954C79.8276 63.2071 79.8432 63.2188 79.8432 63.2344C79.8432 63.25 79.8237 63.2695 79.8198 63.2929C79.8198 63.3124 79.8198 63.3241 79.8198 63.3397C79.8198 63.3592 79.8003 63.3709 79.8003 63.3904C79.8003 63.4021 79.8003 63.4138 79.8042 63.4216C79.8042 63.4294 79.8081 63.4411 79.8198 63.4489C79.8198 63.3787 79.8588 63.328 79.8588 63.2695C79.8588 63.2461 79.8471 63.2266 79.8432 63.2071C79.8393 63.1837 79.8354 63.1642 79.8276 63.1447C79.8276 63.133 79.812 63.1252 79.8081 63.1135C79.8081 63.0979 79.8081 63.0901 79.812 63.0784C79.8315 63.0745 79.8627 63.0784 79.8822 63.0745C79.8861 63.0862 79.8978 63.094 79.8978 63.1135C79.8978 63.133 79.8744 63.1486 79.8666 63.1681C79.8627 63.211 79.8939 63.2617 79.89 63.3163C79.8861 63.3397 79.8822 63.3709 79.8705 63.3943C79.8627 63.4216 79.851 63.4411 79.851 63.4723C79.851 63.5347 79.8666 63.5971 79.8549 63.6439C79.8432 63.6789 79.8159 63.6985 79.7925 63.7179C79.7847 63.7374 79.7613 63.7374 79.7535 63.7569C79.8042 63.7842 79.8081 63.7335 79.8237 63.7101C79.8432 63.6868 79.8666 63.6828 79.8822 63.6673C79.9095 63.6166 79.9602 63.5581 79.9407 63.4801C79.9329 63.4567 79.9173 63.4411 79.9095 63.4177C79.9095 63.3904 79.929 63.367 79.9251 63.3397C79.9251 63.328 79.9173 63.3124 79.9173 63.2968C79.9173 63.2695 79.9407 63.2344 79.9329 63.1993C79.9251 63.1798 79.9134 63.1681 79.9095 63.1486C79.9095 63.1369 79.9095 63.1135 79.9095 63.1096C79.9095 63.0901 79.9173 63.0511 79.9329 63.0511C79.9446 63.0511 79.9563 63.1135 79.9563 63.1252C79.9563 63.1408 79.9446 63.1642 79.9524 63.1759C79.9524 63.2032 79.968 63.2188 79.968 63.2422C79.9641 63.2656 79.9485 63.2851 79.9446 63.3046C79.9407 63.328 79.9563 63.3475 79.9563 63.367C79.9563 63.3787 79.9524 63.3904 79.9524 63.3982L79.9407 63.4099ZM80.4672 63.5269C80.475 63.4996 80.4711 63.4645 80.4672 63.4333C80.4672 63.3787 80.436 63.3397 80.4321 63.2812C80.4321 63.2539 80.4321 63.2188 80.4321 63.1915C80.4321 63.1603 80.4399 63.1057 80.4321 63.0628C80.4321 63.0355 80.4126 62.9653 80.3931 62.9575C80.3853 62.9575 80.3775 62.9731 80.3736 62.977C80.3658 62.9809 80.3619 62.9809 80.3541 62.9848C80.3424 63.0004 80.3346 63.0316 80.3346 63.0511C80.3346 63.0667 80.3463 63.0823 80.3463 63.0979C80.3463 63.1252 80.3346 63.1408 80.3346 63.1564C80.3346 63.172 80.3424 63.1837 80.3463 63.1954C80.3502 63.2149 80.3502 63.2344 80.3463 63.2539C80.3463 63.2734 80.3346 63.289 80.3268 63.3085C80.3229 63.3514 80.3346 63.3943 80.3151 63.4294C80.3034 63.4489 80.2839 63.4645 80.28 63.4879C80.28 63.5074 80.2917 63.5269 80.2878 63.5464C80.3229 63.5152 80.3541 63.4762 80.3541 63.4177C80.3541 63.3748 80.3424 63.3124 80.3697 63.2851C80.358 63.367 80.3853 63.4177 80.3736 63.4801C80.3736 63.4957 80.358 63.5308 80.3502 63.5425C80.3424 63.5542 80.3268 63.5737 80.319 63.5815C80.3034 63.5971 80.2839 63.601 80.2722 63.6205C80.2683 63.6283 80.2722 63.64 80.2644 63.6478C80.2644 63.6634 80.2566 63.6828 80.2449 63.6984C80.2215 63.7296 80.1825 63.7491 80.1669 63.7803C80.163 63.7881 80.1669 63.7998 80.163 63.8037C80.1591 63.8154 80.1435 63.8193 80.1357 63.831C80.1279 63.831 80.1084 63.831 80.1162 63.8505C80.1279 63.8544 80.1357 63.8505 80.1435 63.8466C80.1591 63.8388 80.1786 63.8193 80.1942 63.8037C80.2098 63.7881 80.2254 63.7725 80.241 63.7608C80.2956 63.7179 80.358 63.6906 80.3931 63.6439C80.4126 63.6166 80.4282 63.5932 80.4399 63.562C80.4438 63.5542 80.4555 63.5425 80.4555 63.5308L80.4672 63.5269ZM76.9379 59.8377C76.9379 59.8377 76.9769 59.8182 76.9925 59.8026C76.9886 59.8221 76.9613 59.8377 76.9379 59.8416C76.9379 59.8416 76.9379 59.8416 76.9379 59.8377ZM76.895 60.0951C76.8833 60.0522 76.8794 59.9976 76.8716 59.9586C76.8833 59.982 76.8911 60.0132 76.8989 60.0444C76.9028 60.0756 76.9145 60.1107 76.9106 60.138C76.8989 60.1302 76.8989 60.1107 76.895 60.099V60.0951ZM76.8326 59.8533C76.8326 59.8533 76.8521 59.8377 76.8599 59.8338C76.8638 59.8377 76.8521 59.8416 76.8482 59.8494C76.856 59.8806 76.856 59.9157 76.8794 59.9352C76.8677 59.9352 76.8638 59.943 76.8521 59.943C76.8521 59.9274 76.8248 59.8728 76.8287 59.8533H76.8326ZM76.8209 59.7636C76.7975 59.7207 76.7702 59.6778 76.7468 59.6388C76.7585 59.5998 76.7663 59.5491 76.7702 59.4984C76.778 59.4984 76.7741 59.5101 76.7741 59.5179C76.7858 59.553 76.817 59.5959 76.778 59.6115C76.7897 59.67 76.817 59.7207 76.8287 59.7831C76.8209 59.7792 76.8248 59.7714 76.817 59.7636H76.8209ZM76.7858 59.9352C76.7858 59.9352 76.8131 59.9352 76.8131 59.9235C76.8092 59.9118 76.7936 59.9235 76.7858 59.9235C76.7702 59.9274 76.7546 59.9313 76.739 59.9274C76.7078 59.9196 76.6727 59.904 76.661 59.8767C76.6493 59.8572 76.6454 59.826 76.6454 59.7987C76.6454 59.7519 76.6454 59.6934 76.6376 59.6622C76.6337 59.7402 76.622 59.8416 76.6532 59.9001C76.6688 59.9118 76.6844 59.9235 76.7 59.9313C76.7234 59.9391 76.7585 59.943 76.7897 59.9352H76.7858ZM81.0951 63.8817C81.0951 63.8817 81.0639 63.8739 81.0522 63.8661C81.021 63.8622 80.982 63.8622 80.9508 63.8622C80.9196 63.8583 80.8923 63.8583 80.8572 63.8505C80.826 63.8466 80.7948 63.8427 80.7636 63.8349C80.7402 63.8271 80.7129 63.8076 80.6895 63.792C80.6037 63.7491 80.5179 63.7062 80.4243 63.6712C80.4438 63.64 80.4672 63.6166 80.4828 63.5854C80.5023 63.5464 80.5062 63.4957 80.514 63.445C80.5179 63.4138 80.5296 63.3787 80.5335 63.3514C80.5374 63.2851 80.5335 63.2266 80.5296 63.1681C80.5101 62.9848 80.5296 62.8054 80.5218 62.6338C80.5179 62.5636 80.5023 62.4895 80.4789 62.4232C80.4555 62.3569 80.4399 62.2828 80.4165 62.2282C80.4087 62.2087 80.3931 62.1775 80.3814 62.1658C80.3697 62.1502 80.3463 62.1385 80.3385 62.1229C80.3385 62.1151 80.3385 62.1073 80.3385 62.0956C80.3307 62.0722 80.2995 62.0644 80.2839 62.0488C80.2683 62.0371 80.2605 62.0254 80.2488 62.0176C80.2371 62.0059 80.2215 62.002 80.2059 61.9942C80.1942 61.9903 80.1786 61.9903 80.1669 61.9825C80.1552 61.9786 80.1513 61.9669 80.1435 61.963C80.1045 61.9396 80.0694 61.9514 80.0187 61.9397C80.0109 61.9397 80.0031 61.9319 79.9953 61.9319C79.9329 61.9124 79.8432 61.928 79.7769 61.9046C79.7028 61.8851 79.6404 61.8461 79.578 61.8266C79.5819 61.7915 79.5546 61.7837 79.5351 61.772C79.5351 61.7525 79.5507 61.7174 79.5273 61.7057H79.5C79.465 61.5848 79.4454 61.4678 79.4143 61.3547C79.3987 61.2962 79.3714 61.2416 79.3636 61.187C79.3597 61.1558 79.3558 61.1285 79.348 61.0895C79.348 61.0583 79.3363 61.0271 79.3324 60.9959C79.3207 60.9452 79.3246 60.9023 79.3207 60.8555C79.3363 60.8321 79.3753 60.8087 79.3714 60.7736C79.3714 60.7697 79.3714 60.7619 79.3714 60.7541C79.3675 60.7307 79.3519 60.7112 79.3402 60.6917C79.309 60.6215 79.2973 60.5396 79.2817 60.4616C79.2661 60.3758 79.2544 60.2978 79.2271 60.2276C79.2193 60.2043 79.2076 60.1809 79.1998 60.1575C79.1998 60.1575 79.1959 60.1575 79.1959 60.1536C79.1881 60.1029 79.1686 60.0795 79.1218 60.0717C79.1179 60.0561 79.1023 60.0444 79.0945 60.0249C79.0906 60.0132 79.0672 59.9898 79.0672 59.9781C79.0633 59.9508 79.0711 59.9313 79.0633 59.9118C79.0633 59.9001 79.0477 59.8962 79.0438 59.8845C79.0438 59.8728 79.0477 59.865 79.0438 59.8533C79.0438 59.8377 79.0282 59.8377 79.0243 59.8221C79.0438 59.7909 79.0243 59.7597 79.0087 59.7402C79.0243 59.7168 79.0087 59.6934 78.9931 59.6778C79.0126 59.6544 78.9892 59.6271 78.9775 59.6076C78.9892 59.5803 78.9775 59.553 78.9619 59.5374C78.9775 59.4984 78.958 59.475 78.9502 59.4555C78.9502 59.4516 78.9502 59.4399 78.9502 59.4321C78.9502 59.4204 78.9385 59.4126 78.9346 59.4048C78.9346 59.3931 78.9346 59.3814 78.9307 59.3736C78.9307 59.3619 78.9268 59.3463 78.919 59.3346C78.9073 59.2644 78.8995 59.2215 78.8566 59.1708C78.7903 59.0967 78.6967 59.0772 78.6226 59.0772C78.5407 59.0694 78.4588 59.1045 78.3925 59.1474C78.3457 59.1786 78.3184 59.2215 78.3028 59.2722C78.3028 59.2761 78.2989 59.2839 78.2911 59.2878C78.2716 59.3229 78.256 59.3619 78.256 59.4048C78.2443 59.4321 78.2365 59.4594 78.2287 59.4828C78.2248 59.4984 78.2287 59.5101 78.2248 59.5257C78.2248 59.5296 78.2209 59.5413 78.217 59.5491C78.217 59.5569 78.2209 59.5647 78.2209 59.5764C78.1975 59.592 78.2014 59.6232 78.2053 59.6505C78.1858 59.6622 78.1858 59.7012 78.2014 59.7129C78.178 59.7324 78.178 59.7792 78.1975 59.8026C78.1936 59.8182 78.1819 59.8221 78.1819 59.8377C78.1819 59.8533 78.1936 59.8611 78.1936 59.8728C78.1936 59.8845 78.178 59.8923 78.1741 59.904C78.1702 59.9274 78.1741 59.9391 78.1819 59.9547C78.1663 59.9742 78.1507 60.0015 78.1624 60.0327C78.1585 60.0444 78.1468 60.0483 78.1429 60.06C78.139 60.0639 78.1429 60.0756 78.139 60.0834C78.1351 60.1029 78.1156 60.1146 78.1039 60.1263C78.0922 60.138 78.0844 60.1536 78.0766 60.1692C78.0493 60.2121 78.0298 60.2588 78.0142 60.3095C77.9713 60.4889 77.9362 60.6917 77.8855 60.8633C77.8738 60.8984 77.8699 60.9335 77.8504 60.9647C77.7569 60.9296 77.6477 60.9179 77.5463 60.8945C77.5424 60.875 77.5463 60.8555 77.5307 60.8477C77.5112 60.836 77.4878 60.8516 77.4683 60.8594C77.4605 60.836 77.4176 60.8243 77.3942 60.8399C77.3825 60.8321 77.3669 60.8282 77.3591 60.8165C77.3474 60.7658 77.3201 60.7268 77.285 60.6995C77.2694 60.6878 77.246 60.68 77.2265 60.6644C77.1953 60.6449 77.168 60.6293 77.1329 60.6176C77.1095 60.6098 77.0666 60.5825 77.0549 60.563C77.0549 60.5591 77.0549 60.5435 77.051 60.5357C77.0198 60.4187 76.9886 60.3056 76.9613 60.1887C76.9574 60.1692 76.9496 60.1458 76.9496 60.1341C76.9496 60.1224 76.9574 60.1224 76.9613 60.1107C76.9613 60.099 76.9574 60.0795 76.9535 60.0639C76.9379 60.0132 76.9223 59.9703 76.9184 59.9235C76.973 59.9157 77.012 59.8923 77.0471 59.8611C77.0666 59.8299 77.0861 59.8065 77.0822 59.7558C77.0705 59.6271 76.9691 59.5335 76.9613 59.3931C76.9613 59.3619 76.9691 59.3346 76.9574 59.3112C76.9418 59.3112 76.934 59.3346 76.9301 59.3502C76.8911 59.4594 76.9574 59.553 76.973 59.6505C76.9808 59.6934 76.973 59.7402 76.9418 59.7675C76.9262 59.7792 76.8989 59.8065 76.8833 59.7948C76.8677 59.7558 76.8599 59.6934 76.8677 59.6466C76.8521 59.6232 76.8833 59.5998 76.8755 59.5725C76.8755 59.5608 76.856 59.5452 76.8443 59.5374C76.8365 59.5218 76.8248 59.5101 76.817 59.5023C76.7819 59.4477 76.7468 59.3814 76.7234 59.3229C76.7117 59.3034 76.7078 59.2761 76.6844 59.2683C76.6688 59.28 76.6805 59.2956 76.6805 59.3073C76.6883 59.3541 76.6922 59.397 76.6961 59.4477C76.6961 59.4828 76.6961 59.5452 76.6883 59.5842C76.6844 59.5959 76.6727 59.6115 76.6766 59.6232C76.6805 59.631 76.6922 59.6388 76.6961 59.6466C76.7039 59.6583 76.7078 59.67 76.7156 59.6817C76.7468 59.7207 76.7663 59.7675 76.7858 59.8143C76.7741 59.8182 76.7663 59.8338 76.7702 59.8494C76.7 59.8767 76.6571 59.826 76.6532 59.7675C76.6493 59.7129 76.6532 59.6505 76.6415 59.5959C76.6337 59.5335 76.6103 59.475 76.5752 59.436C76.5635 59.4243 76.5479 59.4048 76.5284 59.4126C76.5284 59.4321 76.544 59.4438 76.5518 59.4594C76.5869 59.5608 76.5713 59.7324 76.5752 59.8533C76.5752 59.9079 76.6064 59.9508 76.6415 59.9703C76.6883 59.9976 76.7507 59.982 76.8053 59.9703C76.8209 60.0132 76.8365 60.0756 76.8482 60.1224C76.8521 60.1341 76.8521 60.1458 76.856 60.1536C76.8599 60.1575 76.8716 60.1614 76.8755 60.1692C76.8833 60.177 76.8872 60.2082 76.8911 60.2276C76.9262 60.3641 76.9613 60.5084 76.9925 60.6371C76.9925 60.6488 76.9808 60.6527 76.9769 60.6605C76.9691 60.68 76.973 60.6995 76.973 60.7229C76.973 60.7346 76.973 60.7463 76.973 60.7541C76.973 60.7658 76.9847 60.7775 76.9886 60.7892C76.9925 60.8165 76.9886 60.8399 77.0081 60.8516C77.0081 60.8789 77.0237 60.9062 77.0393 60.9218C77.051 60.9335 77.0666 60.9374 77.0744 60.9491C77.0822 60.9608 77.09 60.9959 77.0939 61.0154C77.0978 61.0427 77.1056 61.0661 77.1095 61.0856C77.1446 61.226 77.1758 61.3586 77.2109 61.499C77.3279 61.9591 77.4371 62.4154 77.5502 62.8756C77.5736 62.9692 77.6009 63.0589 77.6126 63.1564C77.5931 63.1603 77.5697 63.1681 77.5502 63.1759C77.519 63.1915 77.4878 63.2032 77.4527 63.2149C77.402 63.2383 77.3474 63.2656 77.3084 63.2929C77.3006 63.2968 77.2889 63.3046 77.2811 63.3085C77.1602 63.3904 77.0744 63.5269 76.9964 63.6556C76.9847 63.6751 76.973 63.6945 76.9613 63.714C76.9574 63.7257 76.9535 63.7413 76.9457 63.753C76.9418 63.7647 76.9301 63.7764 76.9262 63.7881C76.9028 63.8427 76.8833 63.8973 76.8755 63.9636C76.8638 64.0455 76.8755 64.1235 76.8989 64.1859C76.8638 64.1859 76.7858 64.1976 76.7858 64.2327C76.7858 64.2522 76.8092 64.2717 76.8131 64.2834C76.7936 64.2912 76.7819 64.2951 76.7546 64.2873C76.7117 64.2834 76.6493 64.2756 76.6142 64.2912C76.6025 64.299 76.583 64.3146 76.5869 64.3302C76.5869 64.3614 76.6571 64.3692 76.6883 64.3692C76.7039 64.3692 76.7156 64.3653 76.7234 64.3653C76.7507 64.3653 76.7819 64.3653 76.8053 64.3731C76.817 64.377 76.817 64.3848 76.8209 64.3848C76.8248 64.3848 76.8365 64.3848 76.8482 64.3848C76.856 64.3848 76.8638 64.3887 76.8755 64.3887C76.9067 64.3887 76.9379 64.3887 76.9613 64.3887C76.9574 64.3965 76.9457 64.4043 76.9379 64.4121C76.9418 64.4238 76.9379 64.4316 76.9379 64.4472C76.9535 64.4745 76.973 64.4823 77.0042 64.4901C77.0666 64.5057 77.1173 64.4745 77.1758 64.4823C77.2187 64.4862 77.2616 64.5096 77.3123 64.5018C77.2928 64.5252 77.2772 64.5681 77.2967 64.5954C77.3084 64.611 77.324 64.611 77.3357 64.6188C77.3825 64.6227 77.4293 64.6227 77.4722 64.6188C77.5034 64.6188 77.5619 64.5993 77.5892 64.6188C77.6009 64.6227 77.6048 64.6422 77.6165 64.6578C77.6165 64.6617 77.6282 64.6695 77.636 64.6734C77.6399 64.6773 77.6477 64.689 77.6516 64.6929C77.6711 64.7046 77.7296 64.7163 77.7413 64.7358C77.7413 64.7358 77.7374 64.7397 77.7413 64.7436C77.7413 64.7943 77.7412 64.8489 77.7685 64.8879C77.7802 64.9035 77.7997 64.9113 77.8075 64.9308C77.8348 64.9464 77.8621 64.9698 77.8933 64.9893C77.9128 65.001 77.9362 65.0088 77.9557 65.0166C77.9752 65.0283 77.9908 65.0478 78.0064 65.0634C78.0064 65.0634 78.0077 65.0634 78.0103 65.0634H78.0142C78.0025 65.0673 78.0025 65.0478 78.0025 65.0361C78.0025 65.0088 78.0142 64.9815 78.022 64.9542C78.0571 64.7865 77.9596 64.6656 77.8855 64.5876C77.8738 64.5759 77.8621 64.5681 77.8582 64.5564C77.8972 64.5486 77.9206 64.5291 77.9557 64.5096C77.9713 64.5681 77.983 64.6305 77.9947 64.6929C77.9986 64.7124 78.0064 64.7397 78.0181 64.7475C78.0337 64.7553 78.0688 64.7436 78.0727 64.7319C78.0883 64.7085 78.0688 64.6695 78.061 64.6422C78.0493 64.5954 78.0415 64.5642 78.0298 64.5174C78.0259 64.4979 78.0103 64.4628 78.0181 64.4511C78.022 64.4316 78.0844 64.4277 78.1234 64.4316C78.1429 64.4316 78.1741 64.4394 78.1975 64.4394C78.2287 64.4355 78.2521 64.4121 78.2872 64.4238C78.3028 64.4355 78.3106 64.4511 78.3262 64.455C78.3769 64.4706 78.4354 64.4667 78.4861 64.455C78.5095 64.4472 78.5329 64.4394 78.5563 64.4316C78.5914 64.4199 78.6265 64.4199 78.6499 64.4043C78.6733 64.4004 78.724 64.3887 78.724 64.3692C78.724 64.3575 78.7084 64.3575 78.7123 64.3419C78.7318 64.338 78.7513 64.3263 78.7747 64.3263C78.8059 64.3263 78.8371 64.3341 78.8644 64.3341C78.88 64.3341 78.8995 64.3263 78.9151 64.3302C78.9502 64.3341 78.9853 64.3497 79.0243 64.3458C79.0438 64.3419 79.0594 64.3341 79.0867 64.3302C79.1101 64.3263 79.1374 64.3341 79.1608 64.338C79.192 64.338 79.231 64.338 79.2661 64.3341C79.3129 64.3302 79.3636 64.3185 79.3948 64.3029C79.4026 64.299 79.4182 64.2834 79.4299 64.2834C79.4416 64.2834 79.465 64.2873 79.4805 64.2951C79.5 64.2951 79.5234 64.299 79.539 64.299C79.5585 64.299 79.5936 64.2951 79.5936 64.2834C79.5975 64.2717 79.5741 64.2522 79.5663 64.2444C79.5195 64.2171 79.4299 64.2171 79.3714 64.2249C79.3558 64.2288 79.3363 64.2405 79.3285 64.2249C79.3285 64.2093 79.3519 64.2132 79.3636 64.2054C79.3753 64.2015 79.3792 64.1898 79.387 64.182C79.4376 64.1937 79.4961 64.1937 79.5468 64.182C79.5741 64.2015 79.6092 64.2054 79.6521 64.2093C79.656 64.2171 79.6521 64.2288 79.656 64.2366C79.6794 64.2561 79.7184 64.26 79.7574 64.26C79.8588 64.2639 79.9719 64.2873 80.0733 64.2912C80.1162 64.3263 80.1981 64.3185 80.2527 64.3341C80.2371 64.338 80.2254 64.3536 80.2137 64.3614C80.1396 64.3419 80.0538 64.3497 79.9914 64.3692C79.9641 64.3809 79.9524 64.4121 79.9758 64.4316C79.9992 64.455 80.0499 64.4589 80.0928 64.4589C80.1357 64.4589 80.1825 64.4706 80.2254 64.4589C80.241 64.4589 80.2683 64.4433 80.2761 64.4355C80.2878 64.4316 80.2917 64.416 80.2917 64.4043C80.3346 64.4043 80.4516 64.4082 80.4594 64.3653C80.4594 64.3497 80.4477 64.3458 80.4438 64.338C80.4672 64.3419 80.4711 64.3107 80.4906 64.3068H80.5218C80.5218 64.3068 80.553 64.299 80.5608 64.2951C80.5803 64.2834 80.5842 64.2678 80.5998 64.2561C80.6271 64.2561 80.6505 64.2639 80.6739 64.2522C80.7012 64.2405 80.7207 64.2132 80.748 64.2093C80.7792 64.2015 80.8026 64.2093 80.8338 64.2171C80.8611 64.221 80.8923 64.2327 80.9235 64.2327C80.9508 64.2366 80.9898 64.2327 81.0132 64.2171C81.0288 64.2132 81.0405 64.1937 81.0561 64.1898C81.0834 64.182 81.1185 64.1859 81.138 64.1586C81.138 64.1547 81.138 64.1391 81.138 64.1352C81.1926 64.1118 81.216 64.0728 81.2082 63.9987C81.2043 63.9285 81.1497 63.8817 81.0834 63.87L81.0951 63.8817ZM79.5196 64.3653C79.5702 64.3536 79.6599 64.3497 79.6794 64.3965C79.7379 64.3965 79.7925 64.4082 79.8237 64.4316C79.8315 64.455 79.8159 64.4628 79.7964 64.4784C79.773 64.4901 79.7379 64.5096 79.695 64.5018C79.6794 64.5018 79.656 64.4901 79.6404 64.4823C79.6014 64.4784 79.5546 64.4823 79.5273 64.4823C79.4844 64.4784 79.4026 64.4784 79.3753 64.455C79.3636 64.4472 79.3597 64.4316 79.3714 64.4199C79.348 64.416 79.309 64.4082 79.2973 64.3926C79.2544 64.3575 79.3441 64.3458 79.3714 64.3458C79.3987 64.3458 79.4221 64.3497 79.4416 64.3575C79.4571 64.3614 79.465 64.3731 79.4767 64.3731C79.4883 64.3731 79.504 64.3653 79.5196 64.3614V64.3653ZM79.3168 63.7998C79.3168 63.7998 79.3636 63.7803 79.3792 63.7686C79.348 63.7335 79.2505 63.7374 79.2544 63.8076C79.2583 63.8349 79.3207 63.8427 79.3168 63.8037V63.7998ZM79.7847 62.9926C79.7847 62.9926 79.8393 62.9848 79.8549 62.9926C79.8588 63.016 79.8354 63.0355 79.8159 63.0316C79.8003 63.0316 79.7808 63.0121 79.7808 62.9926H79.7847ZM79.6482 62.4895C79.6365 62.5324 79.695 62.5441 79.7262 62.5324C79.7262 62.5246 79.7262 62.5246 79.7184 62.5207C79.6989 62.5324 79.6638 62.5363 79.6599 62.509C79.6599 62.509 79.6716 62.5129 79.6794 62.5129C79.7028 62.4973 79.6716 62.4778 79.6482 62.4856V62.4895ZM79.7067 62.4544C79.6638 62.431 79.6209 62.4622 79.5858 62.4544C79.578 62.4544 79.5702 62.4427 79.5624 62.4427C79.5624 62.4778 79.578 62.4934 79.6092 62.4973C79.6248 62.5441 79.6755 62.5597 79.7418 62.5597C79.7496 62.5636 79.7457 62.5753 79.7574 62.5753C79.7652 62.5753 79.7769 62.5597 79.7769 62.5519C79.7769 62.5402 79.7652 62.5129 79.7613 62.509C79.7574 62.4895 79.7223 62.4661 79.7067 62.4544ZM79.9758 62.5207C80.0109 62.5363 80.0538 62.5207 80.0616 62.4856C80.0577 62.4817 80.0538 62.4739 80.0421 62.4739C80.0421 62.4973 80.0265 62.5207 79.9992 62.5129C80.0148 62.5051 80.0148 62.4856 79.9992 62.4739C79.9797 62.4739 79.9719 62.4856 79.9719 62.5051C79.968 62.509 79.9602 62.5051 79.9602 62.5207C79.9641 62.5246 79.968 62.5168 79.9758 62.5168V62.5207ZM80.0811 62.4466C80.0538 62.4466 80.0265 62.4271 79.9992 62.431C79.9797 62.431 79.9563 62.4505 79.9407 62.4661C79.929 62.4856 79.9134 62.5246 79.9134 62.548C79.9134 62.5519 79.9134 62.5597 79.9251 62.5636C79.9368 62.5675 79.9329 62.548 79.9407 62.548C79.9953 62.5519 80.0304 62.5519 80.0577 62.5324C80.0733 62.5207 80.0811 62.4973 80.0889 62.4739C80.0967 62.4583 80.1162 62.4427 80.1084 62.4232C80.1084 62.4232 80.1084 62.4232 80.1045 62.4232C80.0967 62.4271 80.0889 62.4427 80.0772 62.4466H80.0811ZM79.8666 62.4427C79.8666 62.4427 79.8432 62.4154 79.8432 62.4115C79.8354 62.4427 79.8159 62.4466 79.8003 62.4505C79.7847 62.4544 79.7769 62.4427 79.7691 62.4427C79.7652 62.4856 79.8315 62.4739 79.8432 62.4505C79.8549 62.4661 79.9017 62.4856 79.9056 62.4466C79.89 62.4544 79.8744 62.4505 79.8588 62.4427H79.8666ZM78.6538 61.1948C78.6928 61.1558 78.6889 61.0895 78.646 61.0622C78.646 61.0622 78.646 61.0622 78.6421 61.0622C78.6226 61.0739 78.6031 61.0973 78.5992 61.1246C78.5992 61.1558 78.6109 61.1753 78.6226 61.1909C78.6343 61.2104 78.6421 61.2104 78.6577 61.1948H78.6538ZM78.6343 61.0505C78.5953 61.0544 78.5641 61.0739 78.5524 61.0973C78.5407 61.1168 78.5368 61.148 78.5485 61.1714C78.5602 61.1948 78.6031 61.226 78.6343 61.226C78.6694 61.226 78.7123 61.1987 78.724 61.1753C78.7552 61.109 78.7006 61.0466 78.6304 61.0505H78.6343ZM78.6304 59.8377C78.6304 59.8377 78.646 59.8338 78.6538 59.8338C78.6538 59.8416 78.6343 59.8377 78.6304 59.8377ZM78.724 59.7831C78.724 59.7831 78.7435 59.7909 78.7435 59.8104C78.724 59.8104 78.7162 59.8143 78.7084 59.8143C78.7084 59.8338 78.6967 59.8494 78.6811 59.8572C78.6655 59.8611 78.6343 59.8611 78.6226 59.8572C78.6031 59.8494 78.6031 59.826 78.5953 59.8143C78.5875 59.8143 78.5758 59.8143 78.5641 59.8143C78.5602 59.8065 78.5563 59.7909 78.5641 59.787C78.5719 59.787 78.5719 59.7987 78.5875 59.7987C78.607 59.8026 78.6265 59.7753 78.6538 59.7948C78.6616 59.7948 78.6733 59.787 78.685 59.7909C78.6928 59.7909 78.7045 59.7948 78.7123 59.7948C78.7162 59.7948 78.724 59.787 78.7279 59.787L78.724 59.7831Z" fill="#191917"/>
<path fill-rule="evenodd" clip-rule="evenodd" d="M78.646 38.1627L76.0721 57.49L78.6499 56.1173V38.1627H78.646Z" fill="#EE7A00"/>
<path fill-rule="evenodd" clip-rule="evenodd" d="M73.1473 60.1458L63.2146 56.9089L73.7206 62.9536L73.1473 60.1458Z" fill="#EE7A00"/>
<path fill-rule="evenodd" clip-rule="evenodd" d="M94.0774 56.9011L82.1207 58.1881L84.1759 60.1341L94.0774 56.9011Z" fill="#EE7A00"/>
<path fill-rule="evenodd" clip-rule="evenodd" d="M82.0973 66.5804L88.4071 75.1365L83.2516 64.0494L82.0973 66.5804Z" fill="#EE7A00"/>
<path fill-rule="evenodd" clip-rule="evenodd" d="M68.881 75.1482L78.0805 66.9977L75.2064 66.5765L68.8849 75.1482H68.881Z" fill="#EE7A00"/>
<path fill-rule="evenodd" clip-rule="evenodd" d="M79.0048 66.7871L81.9374 66.3659L83.1151 63.753L79.0048 66.7871Z" fill="#EE7A00"/>
<path fill-rule="evenodd" clip-rule="evenodd" d="M74.1886 63.7569L75.3663 66.362L78.2911 66.7871L74.1847 63.7569H74.1886Z" fill="#EE7A00"/>
<path fill-rule="evenodd" clip-rule="evenodd" d="M75.4911 58.27L73.4047 60.2277L73.9897 63.0628L75.4911 58.27Z" fill="#EE7A00"/>
<path fill-rule="evenodd" clip-rule="evenodd" d="M81.8048 58.27L83.8912 60.2277L83.3062 63.0667L81.8048 58.2739V58.27Z" fill="#EE7A00"/>
<path fill-rule="evenodd" clip-rule="evenodd" d="M81.255 57.8293L78.6538 56.4215L76.0448 57.8293H81.255Z" fill="#EE7A00"/>
</g>
<rect x="1" y="1" width="110" height="110" rx="9" stroke="#CCCCCC" stroke-width="2"/>
<defs>
<clipPath id="clip0_642_1038">
<rect x="2" y="2" width="108" height="108" rx="8" fill="white"/>
</clipPath>
</defs>
</svg>
