<svg width="112" height="112" viewBox="0 0 112 112" fill="none" xmlns="http://www.w3.org/2000/svg">
<g clip-path="url(#clip0_421_539)">
<rect x="2" y="2" width="108" height="108" rx="8" fill="white"/>
<path fill-rule="evenodd" clip-rule="evenodd" d="M19.9267 49.0034H22.5794L25.3938 49L29.2173 52.8906L29.1709 58.3474L25.2786 62.1709L19.8235 62.1227L16 58.2322L16.0481 52.7771L18.9966 49.8785V59.1502H26.2327V51.8745H20.7553V57.3519H24.3622V53.7639H21.7147V52.8235H25.282V58.2408H19.9267V49.0034Z" fill="#ED3338"/>
<path fill-rule="evenodd" clip-rule="evenodd" d="M35.3497 55.184C35.9102 55.184 36.3228 55.1221 36.5893 54.9966C36.8557 54.8711 37.0603 54.6957 37.2013 54.4688C37.3423 54.2419 37.4145 53.953 37.4145 53.6006C37.4145 53.2482 37.344 52.961 37.2047 52.7358C37.0655 52.5106 36.8643 52.3404 36.6047 52.2235C36.3451 52.1066 35.9274 52.0499 35.3514 52.0533V55.184M35.3514 55.6396V58.4797C35.3514 58.6895 35.4047 58.8493 35.5096 58.9577C35.6162 59.0642 35.7709 59.1193 35.9789 59.1193C36.2867 59.1193 36.5703 59.0505 36.8282 58.9112C37.0878 58.7737 37.2855 58.5725 37.4248 58.3095C37.5623 58.0465 37.6328 57.7542 37.6328 57.431C37.6328 57.0614 37.5554 56.7296 37.4007 56.4356C37.246 56.1416 37.0173 55.9353 36.713 55.8149C36.4087 55.6946 35.9566 55.6361 35.3531 55.6413L35.3514 55.6396ZM37.4867 55.3422C38.2449 55.5175 38.7761 55.7307 39.0821 55.9817C39.5222 56.3376 39.7423 56.7983 39.7423 57.3657C39.7423 57.9639 39.5016 58.4591 39.0219 58.8511C38.4322 59.3238 37.5744 59.5611 36.45 59.5611H32.4133V59.3565C32.7812 59.3565 33.0305 59.3221 33.1611 59.2534C33.2918 59.1846 33.3829 59.0952 33.4362 58.9852C33.4895 58.8751 33.5153 58.6035 33.5153 58.1703V53.0006C33.5153 52.5673 33.4878 52.2957 33.4362 52.1822C33.3829 52.0705 33.2901 51.9811 33.1577 51.914C33.0253 51.847 32.776 51.8143 32.4133 51.8143V51.6097H36.2231C37.1342 51.6097 37.7789 51.6905 38.1572 51.8521C38.5371 52.0138 38.8345 52.2562 39.0546 52.5794C39.2729 52.9009 39.383 53.2447 39.383 53.6075C39.383 53.9908 39.2437 54.3313 38.9635 54.6287C38.6833 54.9278 38.1916 55.1651 37.4867 55.3404V55.3422Z" fill="#383336"/>
<path fill-rule="evenodd" clip-rule="evenodd" d="M44.9446 56.941L43.7601 54.2333L42.5463 56.941H44.9446ZM45.1337 57.3725H42.3538L42.0065 58.1479C41.8965 58.4092 41.8414 58.6241 41.8414 58.7943C41.8414 59.0195 41.9308 59.1863 42.1114 59.2929C42.2162 59.3565 42.4758 59.4029 42.8902 59.4356V59.6402H40.2495V59.4356C40.5348 59.3926 40.7687 59.2723 40.9526 59.078C41.1366 58.882 41.3618 58.478 41.6317 57.866L44.4684 51.5324H44.5801L47.4461 58.0413C47.7194 58.6654 47.9429 59.0591 48.12 59.2207C48.2524 59.3428 48.4398 59.415 48.6822 59.4339V59.6385H44.8415V59.4339H44.9996C45.3074 59.4339 45.524 59.3909 45.6495 59.3032C45.7355 59.2396 45.7784 59.1485 45.7784 59.0299C45.7784 58.9577 45.7664 58.8837 45.744 58.8098C45.7354 58.7737 45.677 58.6258 45.567 58.3628L45.1337 57.3708V57.3725Z" fill="#383336"/>
<path fill-rule="evenodd" clip-rule="evenodd" d="M51.806 51.5203L55.7206 56.4459V53.0315C55.7206 52.5501 55.6519 52.2252 55.516 52.055C55.3269 51.8264 55.0123 51.7163 54.5705 51.7232V51.5186H57.1974V51.7232C56.8622 51.7662 56.6352 51.8229 56.5201 51.8917C56.4049 51.9605 56.3155 52.0722 56.2501 52.2287C56.1865 52.3851 56.1539 52.6516 56.1539 53.0298V59.6505H55.9562L50.5888 53.0229V58.0912C50.5888 58.5519 50.6937 58.8631 50.9034 59.0247C51.1131 59.1863 51.3538 59.2671 51.6237 59.2671H51.8111V59.47H48.9813V59.2671C49.4197 59.2637 49.7257 59.1726 49.8977 58.9955C50.0696 58.8184 50.1555 58.5175 50.1555 58.0912V52.4693L49.9888 52.263C49.8203 52.0481 49.6724 51.9054 49.5435 51.8384C49.4146 51.7696 49.2289 51.7318 48.9865 51.7249V51.5203H51.8043" fill="#383336"/>
<path fill-rule="evenodd" clip-rule="evenodd" d="M62.4909 54.6596L65.276 58.1599C65.6697 58.6551 66.0101 58.9903 66.2955 59.1674C66.5018 59.2929 66.7218 59.3548 66.9522 59.3548V59.5594H62.8244V59.3548C63.0857 59.3307 63.2542 59.2895 63.3316 59.231C63.4072 59.1726 63.445 59.0986 63.445 59.0109C63.445 58.8442 63.2662 58.533 62.9069 58.0757L61.088 55.7891L60.7906 56.0298V58.2046C60.7906 58.6224 60.8146 58.882 60.8611 58.9834C60.9075 59.0849 60.9986 59.1743 61.131 59.2465C61.2651 59.3204 61.4783 59.3548 61.7722 59.3548V59.5594H57.7665V59.3548H58.0295C58.2582 59.3548 58.4439 59.3135 58.5848 59.231C58.6863 59.176 58.7636 59.0814 58.8186 58.9473C58.8616 58.8528 58.8822 58.6052 58.8822 58.2029V52.9645C58.8822 52.5553 58.8616 52.2991 58.8186 52.1977C58.7757 52.0963 58.6897 52.0052 58.559 51.9295C58.4284 51.8521 58.253 51.8143 58.0295 51.8143H57.7665V51.6097H61.7121V51.8143C61.4439 51.8143 61.2393 51.8539 61.0983 51.933C60.9969 51.988 60.9178 52.0808 60.8593 52.2115C60.8129 52.3095 60.7889 52.5622 60.7889 52.9662V55.447L63.7442 53.0676C64.1533 52.7289 64.3579 52.459 64.3579 52.2562C64.3579 52.1049 64.2737 51.9862 64.1069 51.8986C64.021 51.8556 63.8078 51.8264 63.4691 51.8143V51.6097H66.562V51.8143C66.2852 51.8332 66.0668 51.8848 65.9087 51.9656C65.7505 52.0464 65.386 52.3215 64.817 52.7891L62.4926 54.6613" fill="#383336"/>
<path fill-rule="evenodd" clip-rule="evenodd" d="M75.5431 56.8516L77.7145 51.6097H80.9311V51.8143H80.675C80.4411 51.8143 80.2538 51.8556 80.1145 51.9398C80.0165 51.9948 79.9391 52.0894 79.8807 52.2201C79.8377 52.3163 79.8153 52.5639 79.8153 52.9662V58.2064C79.8153 58.6155 79.8377 58.8717 79.8807 58.9731C79.9237 59.0746 80.0113 59.1657 80.1437 59.2413C80.2761 59.3187 80.4532 59.3565 80.675 59.3565H80.9311V59.5611H76.793V59.3565H77.0509C77.2847 59.3565 77.4703 59.3152 77.6113 59.2327C77.7093 59.1777 77.7867 59.0832 77.8451 58.9491C77.8881 58.8545 77.9087 58.6069 77.9087 58.2046V52.3215L74.8554 59.5611H74.7145L71.6199 52.3748V57.9657C71.6199 58.3594 71.6302 58.6001 71.6491 58.6912C71.699 58.8872 71.8107 59.0471 71.9809 59.1708C72.1511 59.2946 72.4193 59.3565 72.7821 59.3565V59.5611H70.0606V59.3565H70.1431C70.3202 59.3599 70.4835 59.3324 70.6365 59.2706C70.7895 59.2087 70.9047 59.1279 70.9838 59.0247C71.0611 58.9216 71.123 58.7771 71.166 58.5932C71.1746 58.5502 71.178 58.3491 71.178 57.9897V52.9645C71.178 52.5553 71.1574 52.2991 71.1144 52.1977C71.0714 52.0963 70.9838 52.0069 70.8497 51.9295C70.7173 51.8522 70.5385 51.8126 70.315 51.8126H70.0623V51.608H73.303L75.5448 56.8499" fill="#383336"/>
<path fill-rule="evenodd" clip-rule="evenodd" d="M85.9306 56.941L84.746 54.2333L83.5323 56.941H85.9306ZM86.1197 57.3725H83.3397L82.9925 58.1479C82.8841 58.4092 82.8291 58.6241 82.8291 58.7943C82.8291 59.0195 82.9185 59.1863 83.0973 59.2929C83.2022 59.3565 83.4618 59.4029 83.8761 59.4356V59.6402H81.2354V59.4356C81.5208 59.3926 81.7546 59.2723 81.9386 59.078C82.1225 58.882 82.3477 58.478 82.6177 57.866L85.4544 51.5324H85.5661L88.432 58.0413C88.7054 58.6654 88.9306 59.0591 89.106 59.2207C89.2383 59.3428 89.4257 59.415 89.6681 59.4339V59.6385H85.8274V59.4339H85.9856C86.2933 59.4339 86.5099 59.3909 86.6355 59.3032C86.7214 59.2396 86.7644 59.1485 86.7644 59.0299C86.7644 58.9577 86.7524 58.8837 86.7283 58.8098C86.7197 58.7737 86.6612 58.6258 86.5529 58.3628L86.1197 57.3708V57.3725Z" fill="#383336"/>
<path fill-rule="evenodd" clip-rule="evenodd" d="M95.4481 51.4292L95.5083 54.0802H95.2676C95.1541 53.4166 94.8756 52.8837 94.4321 52.4797C93.9885 52.0756 93.5071 51.8745 92.9914 51.8745C92.5925 51.8745 92.2762 51.9811 92.0441 52.1943C91.812 52.4075 91.6951 52.6516 91.6951 52.9284C91.6951 53.1037 91.7364 53.2602 91.8172 53.396C91.9306 53.58 92.1129 53.7605 92.3621 53.941C92.5461 54.0699 92.9707 54.2986 93.6344 54.6252C94.5645 55.0826 95.192 55.5141 95.5169 55.9198C95.8367 56.3255 95.9966 56.7897 95.9966 57.3124C95.9966 57.976 95.737 58.5468 95.2195 59.0247C94.702 59.5026 94.0435 59.7416 93.2458 59.7416C92.9965 59.7416 92.7593 59.7158 92.5358 59.666C92.3123 59.6161 92.0338 59.5198 91.6968 59.3789C91.5094 59.3015 91.3547 59.262 91.2326 59.262C91.1312 59.262 91.0229 59.3015 90.9094 59.3806C90.796 59.4597 90.7048 59.58 90.6343 59.7416H90.4315V56.7433H90.6343C90.8063 57.5857 91.1381 58.227 91.628 58.6705C92.118 59.1124 92.6475 59.3342 93.2149 59.3342C93.6516 59.3342 94.0023 59.2155 94.2619 58.9766C94.5215 58.7393 94.6521 58.4608 94.6521 58.1445C94.6521 57.9571 94.6023 57.7748 94.5026 57.5995C94.4028 57.4241 94.2516 57.2574 94.0487 57.0992C93.8458 56.941 93.4848 56.7347 92.969 56.482C92.2452 56.1261 91.726 55.8235 91.4114 55.5742C91.0968 55.325 90.8544 55.0447 90.6842 54.7353C90.5157 54.4258 90.4315 54.0871 90.4315 53.7158C90.4315 53.0831 90.6636 52.5433 91.1278 52.098C91.5919 51.6527 92.1782 51.4292 92.8848 51.4292C93.1427 51.4292 93.392 51.4602 93.6344 51.5221C93.8183 51.5685 94.0418 51.6544 94.3049 51.7799C94.5696 51.9054 94.7536 51.9691 94.8584 51.9691C94.9633 51.9691 95.0407 51.9381 95.0974 51.8762C95.1559 51.8143 95.2109 51.6648 95.2607 51.4292H95.4412" fill="#383336"/>
</g>
<rect x="1" y="1" width="110" height="110" rx="9" stroke="#CCCCCC" stroke-width="2"/>
<defs>
<clipPath id="clip0_421_539">
<rect x="2" y="2" width="108" height="108" rx="8" fill="white"/>
</clipPath>
</defs>
</svg>
