<svg width="112" height="112" viewBox="0 0 112 112" fill="none" xmlns="http://www.w3.org/2000/svg">
<g clip-path="url(#clip0_528_602)">
<rect x="2" y="2" width="108" height="108" rx="8" fill="white"/>
<g clip-path="url(#clip1_528_602)">
<path d="M40.5808 46.1935C45.6296 46.0897 62.1117 40.1719 62.8705 36.5827L63.121 35.3605C57.4501 39.3081 45.668 43.6353 41.1055 43.6125H41.0979L40.5798 46.1652L40.5808 46.1935Z" fill="url(#paint0_linear_528_602)"/>
<path d="M65.0265 27.3286L65.1176 26.8579C58.0347 31.6254 47.3381 34.8215 43.1552 34.8291L42.6314 37.4102C47.824 37.3874 64.1687 31.3825 64.9278 27.7993C64.9278 27.7993 64.9734 27.5639 65.0265 27.3286Z" fill="url(#paint1_linear_528_602)"/>
<path d="M64.1838 31.0181C56.858 36.0893 46.6094 39.1563 42.1683 39.2777L41.6748 41.6539C46.6853 41.6387 63.2121 35.6262 63.9713 32.043L64.1838 31.0181Z" fill="url(#paint2_linear_528_602)"/>
<path fill-rule="evenodd" clip-rule="evenodd" d="M90.1318 64.9221C88.5908 64.9221 87.3457 63.2672 87.3457 61.225C87.3457 59.1829 88.5908 57.5203 90.1318 57.5203C91.6729 57.5203 92.9179 59.1753 92.9179 61.225C92.9179 63.2748 91.6729 64.9221 90.1318 64.9221ZM94.4666 56.8675C94.3983 56.784 94.3224 56.6929 94.2465 56.6169C94.125 56.4879 93.9808 56.3664 93.8365 56.2525C93.047 55.6073 92.0829 55.2201 91.0504 55.2201C89.9345 55.2201 88.9096 55.668 88.0821 56.412C88.0593 56.4272 88.0366 56.4423 88.0138 56.4575C87.9834 56.4727 87.9455 56.4955 87.8923 56.4803C87.7557 56.4423 87.6114 56.2981 87.6114 56.0931V51.7811C87.6114 51.5078 87.3913 51.2877 87.118 51.2877H85.0151C84.7418 51.2877 84.5217 51.5078 84.5217 51.7811V51.9329C84.5217 51.9329 84.5217 51.9405 84.5217 51.9481V66.3569C84.5217 66.6302 84.7494 66.858 85.0227 66.858H86.9206C87.0421 66.858 87.1559 66.8124 87.2394 66.7365C87.2394 66.7365 87.2394 66.7365 87.247 66.7365C87.247 66.7365 87.247 66.7365 87.247 66.7289C87.285 66.691 87.323 66.653 87.3457 66.6075C87.3761 66.5467 87.3989 66.4784 87.4065 66.4101C87.4444 66.1064 87.6494 65.9318 87.786 65.9774C87.8316 65.9925 87.8772 66.0153 87.9151 66.0457C87.9607 66.076 87.9986 66.1064 88.0442 66.1292C88.1732 66.2203 88.7426 66.615 89.1753 66.8048C89.3955 66.9035 90.1015 67.1389 90.9214 67.1389C91.7413 67.1389 92.3182 66.9567 92.4549 66.9187C92.5915 66.8808 92.7282 66.8352 92.8572 66.7745C93.4949 66.5012 94.0111 66.1216 94.4059 65.6433C94.7931 65.1726 95.1119 64.6109 95.3776 63.9732C95.7648 63.1305 95.9849 62.1664 95.9849 61.1339C95.9849 59.4562 95.3928 57.9379 94.4514 56.8599L94.4666 56.8675Z" fill="#2B5E87"/>
<path fill-rule="evenodd" clip-rule="evenodd" d="M17.9815 62.8193C17.9815 63.0622 18.0271 63.2975 18.0726 63.5177C18.4446 64.8462 19.553 65.7648 20.9498 65.7648C22.954 65.7648 24.1535 64.1326 24.1535 61.7109C24.1535 59.5928 23.0603 57.786 21.0106 57.786C19.7048 57.786 18.4826 58.6818 18.0878 60.1394C18.0423 60.3596 17.9815 60.6177 17.9815 60.929V62.8268V62.8193ZM16.0836 51.5685H17.9815V58.196H18.0271C18.7027 57.0193 19.925 56.2601 21.6255 56.2601C24.2446 56.2601 26.0969 58.4389 26.0741 61.6426C26.0741 65.4156 23.698 67.2907 21.3446 67.2907C19.8187 67.2907 18.5964 66.6986 17.8145 65.3093H17.7462L17.6627 67.0554H16.0001C16.0457 66.3342 16.0836 65.2637 16.0836 64.33V51.5685Z" fill="#2B5E87"/>
<path fill-rule="evenodd" clip-rule="evenodd" d="M33.7948 61.6653C31.6995 61.6198 29.3233 61.9918 29.3233 64.0415C29.3233 65.2865 30.1508 65.8711 31.1301 65.8711C32.5042 65.8711 33.3772 64.998 33.6809 64.1022C33.7492 63.9049 33.7948 63.6847 33.7948 63.4949V61.6653ZM35.6471 64.5198C35.6471 65.4384 35.6927 66.3266 35.8217 67.0478H34.0757L33.9238 65.7192H33.8555C33.2634 66.5467 32.1322 67.2907 30.6291 67.2907C28.4883 67.2907 27.4027 65.7876 27.4027 64.2617C27.4027 61.7109 29.665 60.314 33.7492 60.3368V60.1167C33.7492 59.2436 33.5063 57.6722 31.3503 57.6722C30.371 57.6722 29.3461 57.9758 28.6021 58.4617L28.1618 57.1939C29.0349 56.6245 30.3026 56.2601 31.6312 56.2601C34.8576 56.2601 35.6395 58.4617 35.6395 60.5797V64.5274L35.6471 64.5198Z" fill="#2B5E87"/>
<path fill-rule="evenodd" clip-rule="evenodd" d="M38.5926 59.3499C38.5926 58.2643 38.5699 57.3685 38.5091 56.4955H40.2096L40.3235 58.2415H40.3691C40.8929 57.2395 42.1151 56.2601 43.8612 56.2601C45.3188 56.2601 47.5887 57.1332 47.5887 60.7468V67.0478H45.668V60.9669C45.668 59.2664 45.0379 57.8468 43.2235 57.8468C41.9557 57.8468 40.9764 58.7426 40.65 59.813C40.5665 60.0483 40.5209 60.3824 40.5209 60.7088V67.0554H38.6002V59.3575L38.5926 59.3499Z" fill="#2B5E87"/>
<path fill-rule="evenodd" clip-rule="evenodd" d="M52.2803 61.3389H52.3258C52.5915 60.9669 52.9559 60.5114 53.2672 60.1394L56.3645 56.4955H58.6724L54.5957 60.8379L59.2417 67.0478H56.9111L53.2672 61.9918L52.2878 63.085V67.0554H50.3899V51.5761H52.2878V61.3389H52.2803Z" fill="#2B5E87"/>
<path fill-rule="evenodd" clip-rule="evenodd" d="M70.705 64.9221C69.1639 64.9221 67.9189 63.2672 67.9189 61.225C67.9189 59.1829 69.1639 57.5203 70.705 57.5203C72.2461 57.5203 73.4911 59.1753 73.4911 61.225C73.4911 63.2748 72.2461 64.9221 70.705 64.9221ZM75.0398 56.8675C74.9715 56.784 74.8956 56.6929 74.8196 56.6169C74.6982 56.4879 74.5539 56.3664 74.4097 56.2525C73.6126 55.6073 72.656 55.2201 71.6236 55.2201C70.5076 55.2201 69.4828 55.668 68.6553 56.412C68.6325 56.4272 68.6097 56.4423 68.587 56.4575C68.5566 56.4727 68.5186 56.4955 68.4655 56.4803C68.3288 56.4423 68.1846 56.2981 68.1846 56.0931V51.7811C68.1846 51.5078 67.9644 51.2877 67.6911 51.2877H65.5883C65.315 51.2877 65.0948 51.5078 65.0948 51.7811V51.9329C65.0948 51.9329 65.0948 51.9405 65.0948 51.9481V66.3569C65.0948 66.6302 65.3226 66.858 65.5959 66.858H67.4938C67.6152 66.858 67.7215 66.8124 67.8126 66.7365C67.8126 66.7365 67.8126 66.7365 67.8202 66.7365C67.8202 66.7365 67.8202 66.7365 67.8202 66.7289C67.8582 66.691 67.8961 66.653 67.9189 66.6075C67.9493 66.5467 67.972 66.4784 67.9796 66.4101C68.0176 66.1064 68.2302 65.9318 68.3592 65.9774C68.4048 65.9925 68.4503 66.0153 68.4883 66.0457C68.5338 66.076 68.5718 66.1064 68.6173 66.1292C68.7464 66.2203 69.3157 66.615 69.7485 66.8048C69.9686 66.9035 70.6746 67.1389 71.4945 67.1389C72.3144 67.1389 72.8914 66.9567 73.028 66.9187C73.1647 66.8808 73.3013 66.8352 73.4304 66.7745C74.0681 66.5012 74.5843 66.1216 74.9791 65.6433C75.3662 65.1726 75.6851 64.6109 75.9508 63.9732C76.3379 63.1305 76.5581 62.1664 76.5581 61.1339C76.5581 59.4562 75.966 57.9379 75.0246 56.8599L75.0398 56.8675Z" fill="#2B5E87"/>
<path fill-rule="evenodd" clip-rule="evenodd" d="M82.0392 56.4651C82.0392 56.4651 82.0392 56.412 82.0316 56.3816V56.0172C82.0316 55.7439 81.8115 55.5162 81.5306 55.5162H79.4125C79.1316 55.5162 78.9115 55.7439 78.9115 56.0172V67.4198C78.9039 67.7082 78.5471 68.1106 78.1371 68.2093C77.9474 68.27 77.7576 68.2928 77.5678 68.2852C77.378 68.2852 77.2489 68.3535 77.173 68.5129C77.1427 68.5813 77.1199 68.68 77.1047 68.8014C77.0895 68.9153 77.1047 70.1375 77.1199 70.2438C77.1199 70.3425 77.1427 70.4336 77.173 70.5019C77.2565 70.631 77.416 70.7221 77.6285 70.76C77.7044 70.7904 79.1089 70.7904 80.0502 70.5627C80.4222 70.4716 80.7183 70.297 80.9688 70.1072C81.2117 69.9174 81.4319 69.6744 81.6217 69.386C81.8418 69.0368 81.9557 68.5964 81.9785 68.065C81.9785 67.9056 82.0164 67.4881 82.0164 67.4349V57.08C82.0164 57.0193 82.0164 56.9662 82.024 56.9054C82.024 56.7612 82.024 56.6169 82.024 56.4651" fill="#2B5E87"/>
<path fill-rule="evenodd" clip-rule="evenodd" d="M69.6194 81.5249H71.0466V76.7953C71.0466 76.5372 71.0618 76.3247 71.1453 76.1121C71.4186 75.3529 72.1322 74.7077 73.0584 74.7077C74.4021 74.7077 74.8728 75.7629 74.8728 77.0231V81.5249H76.3V76.8637C76.3 74.1763 74.6147 73.531 73.567 73.531C73.0356 73.531 72.5346 73.6752 72.1094 73.9181C71.6691 74.1611 71.3199 74.5331 71.0922 74.9354H71.0618V70.0313H69.6346V81.5249H69.6194ZM65.9451 78.883C65.9451 79.0121 65.9299 79.1715 65.8768 79.3385C65.649 79.999 64.9885 80.6519 63.9485 80.6519C63.2349 80.6519 62.62 80.2343 62.62 79.293C62.62 77.7747 64.3888 77.4938 65.9375 77.5317V78.8906L65.9451 78.883ZM67.3192 76.7118C67.3192 75.1556 66.7346 73.5234 64.3433 73.5234C63.3564 73.5234 62.3998 73.7967 61.7545 74.2066L62.081 75.1632C62.6276 74.7912 63.3943 74.5786 64.1383 74.5786C65.7401 74.5634 65.9223 75.7477 65.9223 76.3778V76.5372C62.8933 76.5221 61.2079 77.5545 61.2079 79.4524C61.2079 80.5835 62.0202 81.6995 63.6069 81.6995C64.7228 81.6995 65.5655 81.1529 65.9982 80.538H66.0514L66.1652 81.5249H67.4406C67.3571 80.9935 67.3268 80.3254 67.3268 79.6498V76.7194L67.3192 76.7118ZM58.7407 70.6082C58.2093 70.6082 57.8525 71.0106 57.8525 71.4964C57.8525 71.9823 58.1941 72.3695 58.7103 72.3695C59.2797 72.3695 59.6213 71.9823 59.6213 71.4964C59.6213 71.0106 59.2645 70.6082 58.7483 70.6082H58.7407ZM59.4543 81.5173V73.6828H58.0271V81.5173H59.4543ZM52.675 81.5173H54.1022V77.3419C54.1022 77.1142 54.1174 76.8713 54.1478 76.6815C54.3452 75.6111 55.0512 74.8671 56.0609 74.8671C56.2582 74.8671 56.4025 74.8671 56.5467 74.8975V73.5537C56.4177 73.5386 56.3038 73.5234 56.1595 73.5234C55.203 73.5234 54.33 74.1838 53.9732 75.2391H53.9276L53.8669 73.6828H52.6219C52.6674 74.4116 52.6902 75.2087 52.6902 76.1273V81.5173H52.675ZM49.0007 78.8754C49.0007 79.0045 48.9855 79.1639 48.94 79.3309C48.7122 79.9914 48.0517 80.6443 47.0117 80.6443C46.2981 80.6443 45.6832 80.2267 45.6832 79.2854C45.6832 77.7671 47.4444 77.4862 49.0007 77.5241V78.883V78.8754ZM50.3748 76.7042C50.3748 75.148 49.7902 73.5158 47.3989 73.5158C46.412 73.5158 45.4554 73.7891 44.8101 74.199L45.1366 75.1556C45.6908 74.7836 46.4499 74.571 47.1939 74.571C48.7957 74.5558 48.9779 75.7401 48.9779 76.3702V76.5296C45.9489 76.5145 44.2711 77.5469 44.2711 79.4448C44.2711 80.576 45.0834 81.6919 46.6701 81.6919C47.786 81.6919 48.6287 81.1453 49.069 80.5304H49.1146L49.2284 81.5173H50.5038C50.4203 80.9859 50.3899 80.3178 50.3899 79.6422V76.7118L50.3748 76.7042ZM36.2772 73.6752L39.162 80.8948C39.2455 81.0694 39.2759 81.1833 39.2759 81.2668C39.2759 81.3503 39.2303 81.4642 39.162 81.6084C38.8204 82.3372 38.3497 82.8838 37.9625 83.195C37.545 83.5518 37.0743 83.7796 36.7175 83.8935L37.0743 85.0778C37.4311 85.017 38.1068 84.7665 38.8204 84.1744C39.7921 83.3165 40.4905 81.9576 41.5078 79.2702L43.6486 73.6828H42.1455L40.5892 78.2833C40.3918 78.8527 40.2324 79.4524 40.0882 79.9155H40.0578C39.9288 79.4448 39.7314 78.8299 39.5416 78.3137L37.8411 73.6828H36.2848L36.2772 73.6752ZM30.371 81.1377C30.9176 81.4642 31.7147 81.6843 32.5725 81.6843C34.4021 81.6843 35.4877 80.7126 35.4877 79.3233C35.4877 78.1542 34.7741 77.4786 33.4304 76.9775C32.4131 76.5752 31.9576 76.2791 31.9576 75.6338C31.9576 75.0493 32.4131 74.5634 33.2558 74.5634C33.9846 74.5634 34.5539 74.8367 34.8576 75.0341L35.1992 74.0016C34.7817 73.7283 34.0833 73.5158 33.2861 73.5158C31.616 73.5158 30.5835 74.5482 30.5835 75.816C30.5835 76.7574 31.2516 77.5165 32.6712 78.0328C33.7037 78.4199 34.1136 78.7767 34.1136 79.46C34.1136 80.1432 33.6278 80.6215 32.6105 80.6215C31.8969 80.6215 31.1529 80.333 30.7202 80.0749L30.3786 81.1453L30.371 81.1377Z" fill="#B53838"/>
<path fill-rule="evenodd" clip-rule="evenodd" d="M80.4905 54.3015C81.3484 54.3015 82.0468 53.6031 82.0468 52.7452C82.0468 51.8874 81.3484 51.189 80.4905 51.189C79.6327 51.189 78.9343 51.8874 78.9343 52.7452C78.9343 53.6031 79.6327 54.3015 80.4905 54.3015Z" fill="#2B5E87"/>
</g>
</g>
<rect x="1" y="1" width="110" height="110" rx="9" stroke="#CCCCCC" stroke-width="2"/>
<defs>
<linearGradient id="paint0_linear_528_602" x1="42.3932" y1="33.9597" x2="65.1134" y2="33.1663" gradientUnits="userSpaceOnUse">
<stop stop-color="#3CAAE0"/>
<stop offset="0.12" stop-color="#3780AC"/>
<stop offset="0.42" stop-color="#306086"/>
<stop offset="0.56" stop-color="#898870"/>
<stop offset="1" stop-color="#ECC931"/>
</linearGradient>
<linearGradient id="paint1_linear_528_602" x1="42.3932" y1="33.9597" x2="65.1134" y2="33.1663" gradientUnits="userSpaceOnUse">
<stop stop-color="#3CAAE0"/>
<stop offset="0.12" stop-color="#3780AC"/>
<stop offset="0.42" stop-color="#306086"/>
<stop offset="0.56" stop-color="#898870"/>
<stop offset="1" stop-color="#ECC931"/>
</linearGradient>
<linearGradient id="paint2_linear_528_602" x1="42.3932" y1="33.9597" x2="65.1134" y2="33.1663" gradientUnits="userSpaceOnUse">
<stop stop-color="#3CAAE0"/>
<stop offset="0.12" stop-color="#3780AC"/>
<stop offset="0.42" stop-color="#306086"/>
<stop offset="0.56" stop-color="#898870"/>
<stop offset="1" stop-color="#ECC931"/>
</linearGradient>
<clipPath id="clip0_528_602">
<rect x="2" y="2" width="108" height="108" rx="8" fill="white"/>
</clipPath>
<clipPath id="clip1_528_602">
<rect width="80" height="59.0852" fill="white" transform="translate(16 26)"/>
</clipPath>
</defs>
</svg>
