<svg width="112" height="112" viewBox="0 0 112 112" fill="none" xmlns="http://www.w3.org/2000/svg">
<g clip-path="url(#clip0_528_31)">
<rect x="2.00003" y="2" width="108" height="108" rx="8" fill="white"/>
<path d="M16 52.8527C16.0147 52.7997 16.0279 52.7459 16.0447 52.6936C16.1675 52.3084 16.5443 52.0223 16.9539 52.0021C16.9874 52.0007 17.0209 52 17.0544 52C19.1108 52 21.1672 52 23.2243 52C23.6325 52 23.9507 52.1682 24.1615 52.5227C24.2508 52.6727 24.2815 52.8395 24.2822 53.0118C24.2829 54.9454 24.2843 56.8797 24.2822 58.8133C24.2822 59.3834 23.8384 59.823 23.2662 59.823C21.1819 59.8244 19.0975 59.8244 17.0132 59.823C16.5206 59.823 16.1172 59.4888 16.0167 59.0094C16.014 58.9961 16.0063 58.9843 16.0014 58.971C16.0014 56.9313 16.0014 54.8917 16.0014 52.8513L16 52.8527ZM22.8098 56.4903C22.6598 56.6097 22.5223 56.7374 22.3674 56.8385C22.0039 57.0772 21.6068 57.177 21.1728 57.0828C20.9062 57.0249 20.6746 56.8958 20.4554 56.7374C20.4087 56.7039 20.3257 56.6732 20.2838 56.6927C20.2433 56.7122 20.2203 56.7974 20.2168 56.8553C20.2077 56.999 20.2112 57.1442 20.214 57.2886C20.221 57.5963 20.2552 57.8999 20.3696 58.1888C20.4631 58.4239 20.6006 58.6291 20.8546 58.7086C21.0311 58.7638 21.2174 58.8091 21.401 58.8189C21.7931 58.8398 22.1874 58.8342 22.5802 58.8405C22.7163 58.8426 22.8531 58.8496 22.9892 58.8552C23.0785 58.8587 23.1524 58.8287 23.1873 58.7449C23.2132 58.6821 23.2306 58.6123 23.2334 58.5447C23.2397 58.403 23.2334 58.2607 23.2334 58.1183C23.2334 56.8644 23.2313 55.6104 23.2376 54.3565C23.239 54.0473 23.1615 53.7619 23.0303 53.4884C22.9208 53.2602 22.7694 53.0655 22.5251 52.9651C22.096 52.7878 21.6515 52.7041 21.186 52.7501C20.7429 52.7941 20.3982 53.0013 20.1366 53.3593C20.1366 53.3593 20.1282 53.3544 20.124 53.3481C19.9398 53.0579 19.6683 52.8806 19.3452 52.7969C18.884 52.6783 18.4269 52.7369 17.9783 52.8813C17.7892 52.942 17.6028 53.0111 17.4661 53.166C17.2051 53.4619 17.0704 53.8164 17.0474 54.2002C17.0237 54.5944 17.0488 54.9908 17.0481 55.3864C17.0474 56.378 17.0439 57.3703 17.0425 58.3618C17.0425 58.456 17.0425 58.5516 17.0565 58.6451C17.0802 58.8049 17.1779 58.8712 17.3328 58.8482C17.3572 58.8447 17.3823 58.8433 17.4075 58.8433C17.7564 58.8412 18.1053 58.8398 18.4535 58.8377C18.7493 58.8356 19.0431 58.821 19.3313 58.7407C19.5078 58.6919 19.6614 58.6082 19.759 58.4546C19.8372 58.3318 19.9063 58.1978 19.9509 58.0597C20.0821 57.6564 20.0751 57.237 20.0661 56.8183C20.0661 56.7995 20.0598 56.7799 20.0542 56.7611C20.0298 56.6801 19.9789 56.6536 19.9007 56.6892C19.856 56.7101 19.8149 56.7401 19.7744 56.7695C19.1701 57.2112 18.51 57.2342 17.8896 56.8232C17.741 56.7248 17.6098 56.5992 17.4619 56.4785C17.5742 56.3696 17.6622 56.2719 17.7619 56.1882C18.0948 55.9091 18.4737 55.7688 18.9147 55.8281C19.2057 55.8672 19.4653 55.9809 19.7032 56.1505C19.7388 56.1756 19.7925 56.1763 19.8379 56.1889C19.8309 56.1366 19.8253 56.0835 19.8156 56.0312C19.8135 56.02 19.796 56.0116 19.7877 56.0012C19.7514 55.9523 19.7081 55.9063 19.6802 55.8532C19.5574 55.6195 19.5002 55.3669 19.5023 55.1052C19.505 54.7626 19.6558 54.4709 19.8525 54.2016C19.937 54.0857 20.0354 53.979 20.14 53.8534C20.2503 53.988 20.3564 54.1025 20.4457 54.2288C20.6864 54.5707 20.8413 54.9384 20.7534 55.3704C20.7046 55.609 20.6529 55.8449 20.4694 56.0256C20.445 56.0493 20.438 56.0961 20.4331 56.1338C20.4254 56.1966 20.4541 56.2161 20.5134 56.1889C20.551 56.1714 20.5845 56.1456 20.6187 56.1219C21.3849 55.6048 22.2174 55.7556 22.8098 56.4903Z" fill="#ED1C24"/>
<path d="M27.1732 56.7099V55.1345C27.1732 53.774 27.1732 53.5233 27.1553 53.2369C27.1374 52.9325 27.0658 52.7893 26.7704 52.7267C26.6988 52.7088 26.5466 52.6998 26.4213 52.6998C26.3228 52.6998 26.2691 52.6819 26.2691 52.6193C26.2691 52.5566 26.3318 52.5387 26.466 52.5387C26.9405 52.5387 27.5044 52.5655 27.6834 52.5655C28.122 52.5655 28.4711 52.5387 28.7754 52.5387C30.3956 52.5387 30.682 53.407 30.682 53.8814C30.682 54.6154 30.2613 55.054 29.769 55.4478C30.503 55.6985 31.3981 56.334 31.3981 57.3813C31.3981 58.339 30.6552 59.3326 29.0082 59.3326C28.9008 59.3326 28.6412 59.3147 28.3816 59.3058C28.1131 59.2879 27.8445 59.2789 27.7103 59.2789C27.6118 59.2789 27.4149 59.2789 27.2 59.2879C26.9942 59.2879 26.7614 59.3058 26.5824 59.3058C26.466 59.3058 26.4034 59.2789 26.4034 59.2163C26.4034 59.1715 26.4392 59.1447 26.5466 59.1447C26.6809 59.1447 26.7883 59.1267 26.8688 59.1088C27.0479 59.073 27.0926 58.8761 27.1284 58.6165C27.1732 58.2406 27.1732 57.5334 27.1732 56.7099ZM28.2473 53.0758V55.2867C28.2473 55.3583 28.2742 55.3762 28.31 55.3852C28.3905 55.4031 28.5248 55.412 28.7307 55.412C29.0261 55.412 29.223 55.3762 29.3752 55.2419C29.6079 55.054 29.7422 54.7317 29.7422 54.2931C29.7422 53.6934 29.3931 52.9057 28.6233 52.9057C28.498 52.9057 28.4174 52.9057 28.3279 52.9236C28.2652 52.9415 28.2473 52.9773 28.2473 53.0758ZM30.2971 57.7841C30.2971 57.2291 30.1092 56.4772 29.4289 56.0028C29.2409 55.8685 29.035 55.8059 28.6859 55.788C28.5248 55.779 28.4353 55.779 28.301 55.779C28.2652 55.779 28.2473 55.7969 28.2473 55.8417V57.9631C28.2473 58.5539 28.2742 58.706 28.5606 58.8224C28.8023 58.9209 29.0082 58.9298 29.2141 58.9298C29.6169 58.9298 30.2971 58.715 30.2971 57.7841Z" fill="#4C4D4F"/>
<path d="M35.2002 57.3902H33.3473C33.3026 57.3902 33.2936 57.3992 33.2757 57.4439L32.855 58.4644C32.7745 58.6523 32.7386 58.8403 32.7386 58.9298C32.7386 59.0641 32.8103 59.1447 33.0519 59.1447H33.1683C33.2668 59.1447 33.2847 59.1805 33.2847 59.2252C33.2847 59.2879 33.2399 59.3058 33.1594 59.3058C32.8998 59.3058 32.5328 59.2789 32.2821 59.2789C32.2016 59.2789 31.7809 59.3058 31.3691 59.3058C31.2707 59.3058 31.2259 59.2879 31.2259 59.2252C31.2259 59.1805 31.2528 59.1447 31.3154 59.1447C31.387 59.1447 31.4765 59.1357 31.5481 59.1357C31.9062 59.082 32.0405 58.8493 32.2016 58.4644L34.2603 53.6755C34.3499 53.4607 34.4125 53.3711 34.4931 53.3711C34.6094 53.3711 34.6452 53.4428 34.7258 53.6128C34.9138 54.0335 36.2296 57.1485 36.7309 58.3032C37.0352 58.9925 37.259 59.0909 37.4022 59.1178C37.5186 59.1357 37.6081 59.1447 37.6976 59.1447C37.7692 59.1447 37.805 59.1715 37.805 59.2252C37.805 59.2879 37.7603 59.3058 37.4649 59.3058C37.1874 59.3058 36.6145 59.3058 35.9521 59.2879C35.8089 59.2789 35.7194 59.2789 35.7194 59.2252C35.7194 59.1805 35.7373 59.1536 35.8178 59.1447C35.8716 59.1357 35.9253 59.0641 35.8895 58.9746L35.2808 57.4439C35.2629 57.3992 35.236 57.3902 35.2002 57.3902ZM33.5084 56.9695H35.0301C35.066 56.9695 35.0749 56.9516 35.066 56.9248L34.323 54.9913C34.3141 54.9645 34.3051 54.9197 34.2872 54.9197C34.2603 54.9197 34.2514 54.9645 34.2424 54.9913L33.4816 56.9158C33.4637 56.9516 33.4816 56.9695 33.5084 56.9695Z" fill="#4C4D4F"/>
<path d="M39.0209 55.1614L39.1104 58.2674C39.1283 58.8582 39.2268 59.0372 39.3789 59.0909C39.5132 59.1357 39.6654 59.1447 39.7907 59.1447C39.8802 59.1447 39.925 59.1805 39.925 59.2252C39.925 59.2879 39.8534 59.3058 39.7459 59.3058C39.2357 59.3058 38.8687 59.2789 38.7255 59.2789C38.6539 59.2789 38.278 59.3058 37.8751 59.3058C37.7677 59.3058 37.6961 59.2968 37.6961 59.2252C37.6961 59.1805 37.7498 59.1447 37.8214 59.1447C37.9289 59.1447 38.0721 59.1357 38.1795 59.1088C38.3854 59.0551 38.4122 58.8493 38.4212 58.1869L38.4928 53.6755C38.4928 53.5233 38.5465 53.4159 38.627 53.4159C38.7255 53.4159 38.8329 53.5323 38.9672 53.6665C39.0657 53.765 40.2472 54.9734 41.393 56.0923C41.93 56.6204 42.9773 57.6946 43.0937 57.802H43.1295L43.0489 54.4184C43.04 53.953 42.9684 53.8187 42.7804 53.7471C42.664 53.7023 42.4761 53.7023 42.3686 53.7023C42.2702 53.7023 42.2433 53.6665 42.2433 53.6218C42.2433 53.5591 42.3239 53.5502 42.4402 53.5502C42.852 53.5502 43.2727 53.5681 43.4428 53.5681C43.5323 53.5681 43.8277 53.5502 44.2126 53.5502C44.32 53.5502 44.3916 53.5591 44.3916 53.6218C44.3916 53.6665 44.3468 53.7023 44.2573 53.7023C44.1768 53.7023 44.1141 53.7023 44.0157 53.7292C43.8008 53.7919 43.7382 53.9261 43.7292 54.3558L43.6397 59.1536C43.6397 59.3237 43.577 59.3953 43.5144 59.3953C43.3801 59.3953 43.2727 59.3147 43.1921 59.2342C42.6998 58.7777 41.7152 57.8378 40.8917 57.0411C40.0324 56.2176 39.1999 55.2957 39.0478 55.1614H39.0209Z" fill="#4C4D4F"/>
<path d="M47.1291 55.7522V56.0923H47.1649C47.4334 55.8059 48.5791 54.678 48.8119 54.4184C49.0356 54.1678 49.2057 53.9888 49.2057 53.8545C49.2057 53.774 49.1699 53.7202 49.0983 53.7023C49.0267 53.6844 48.9909 53.6665 48.9909 53.6218C48.9909 53.5681 49.0357 53.5502 49.1162 53.5502C49.2863 53.5502 49.7159 53.5681 49.9308 53.5681C50.1725 53.5681 50.6111 53.5502 50.8527 53.5502C50.9333 53.5502 50.987 53.5681 50.987 53.6218C50.987 53.6755 50.9423 53.7023 50.8706 53.7023C50.7543 53.7023 50.5574 53.7381 50.4141 53.7919C50.1635 53.8814 49.9129 54.0425 49.5817 54.3558C49.331 54.5885 48.1584 55.6985 47.9168 55.9759C48.1942 56.334 49.7428 57.9452 50.0471 58.2316C50.3962 58.5449 50.7006 58.8761 51.1213 59.0462C51.354 59.1447 51.5151 59.1447 51.6046 59.1447C51.6673 59.1447 51.7121 59.1805 51.7121 59.2252C51.7121 59.2789 51.6673 59.3058 51.5241 59.3058H50.8348C50.6021 59.3058 50.4589 59.3058 50.2888 59.2879C49.8681 59.2521 49.6085 59.0909 49.2684 58.7956C48.9282 58.5002 47.4155 56.7457 47.2454 56.513L47.1649 56.4056H47.1291V57.0948C47.1291 57.793 47.1291 58.3928 47.147 58.7239C47.1649 58.9388 47.2365 59.082 47.4334 59.1178C47.5408 59.1357 47.7198 59.1447 47.8183 59.1447C47.8809 59.1447 47.9257 59.1894 47.9257 59.2252C47.9257 59.2789 47.863 59.3058 47.7735 59.3058C47.3349 59.3058 46.771 59.2789 46.5741 59.2789C46.3951 59.2789 45.8938 59.3058 45.5805 59.3058C45.482 59.3058 45.4283 59.2789 45.4283 59.2252C45.4283 59.1894 45.4552 59.1447 45.5536 59.1447C45.67 59.1447 45.7595 59.1357 45.8311 59.1178C45.9923 59.082 46.037 58.9388 46.0639 58.715C46.0997 58.3928 46.0997 57.793 46.0997 57.0948V55.7522C46.0997 54.5975 46.0997 54.3826 46.0907 54.1409C46.0728 53.8814 46.0012 53.8008 45.7506 53.7292C45.6879 53.7113 45.5536 53.7023 45.4373 53.7023C45.3567 53.7023 45.303 53.6755 45.303 53.6218C45.303 53.5681 45.3657 53.5502 45.482 53.5502C45.8938 53.5502 46.3951 53.5681 46.583 53.5681C46.771 53.5681 47.3349 53.5502 47.5945 53.5502C47.7109 53.5502 47.7646 53.5681 47.7646 53.6218C47.7646 53.6755 47.7198 53.7023 47.6572 53.7023C47.5766 53.7023 47.5319 53.7113 47.4334 53.7292C47.2186 53.765 47.1559 53.8724 47.138 54.1409C47.1291 54.3826 47.1291 54.5975 47.1291 55.7522Z" fill="#4C4D4F"/>
<path d="M54.4455 58.4107L55.3317 52.5745C55.3585 52.4223 55.4122 52.3418 55.4839 52.3418C55.5555 52.3418 55.6092 52.3865 55.7255 52.6193L58.1692 57.6677L60.6039 52.5566C60.6755 52.4134 60.7203 52.3418 60.8008 52.3418C60.8814 52.3418 60.9351 52.4313 60.962 52.6193L61.7765 58.1511C61.8571 58.715 61.9466 58.9746 62.2151 59.0551C62.4747 59.1357 62.6537 59.1447 62.7701 59.1447C62.8507 59.1447 62.9133 59.1536 62.9133 59.2073C62.9133 59.2789 62.8059 59.3058 62.6806 59.3058C62.4568 59.3058 61.2216 59.2789 60.8635 59.2521C60.6576 59.2342 60.6039 59.2073 60.6039 59.1536C60.6039 59.1088 60.6397 59.082 60.7024 59.0551C60.7561 59.0372 60.7829 58.9209 60.7471 58.6702L60.2101 54.7317H60.1743L58.2229 58.7956C58.017 59.2163 57.9723 59.2968 57.8917 59.2968C57.8112 59.2968 57.7216 59.1178 57.5784 58.8493C57.3636 58.4375 56.6565 57.068 56.549 56.8173C56.4685 56.6294 55.9314 55.5015 55.6181 54.8302H55.5823L55.1169 58.3928C55.0989 58.5539 55.09 58.6702 55.09 58.8135C55.09 58.9835 55.2064 59.0641 55.3585 59.0999C55.5197 59.1357 55.645 59.1447 55.7345 59.1447C55.8061 59.1447 55.8688 59.1626 55.8688 59.2073C55.8688 59.2879 55.7882 59.3058 55.6539 59.3058C55.278 59.3058 54.8752 59.2789 54.7141 59.2789C54.544 59.2789 54.1143 59.3058 53.8279 59.3058C53.7384 59.3058 53.6668 59.2879 53.6668 59.2073C53.6668 59.1626 53.7205 59.1447 53.81 59.1447C53.8816 59.1447 53.9443 59.1447 54.0785 59.1178C54.3292 59.0641 54.4008 58.715 54.4455 58.4107Z" fill="#4C4D4F"/>
<path d="M66.3929 57.3902H64.5401C64.4953 57.3902 64.4864 57.3992 64.4684 57.4439L64.0477 58.4644C63.9672 58.6523 63.9314 58.8403 63.9314 58.9298C63.9314 59.0641 64.003 59.1447 64.2447 59.1447H64.361C64.4595 59.1447 64.4774 59.1805 64.4774 59.2252C64.4774 59.2879 64.4326 59.3058 64.3521 59.3058C64.0925 59.3058 63.7255 59.2789 63.4749 59.2789C63.3943 59.2789 62.9736 59.3058 62.5618 59.3058C62.4634 59.3058 62.4186 59.2879 62.4186 59.2252C62.4186 59.1805 62.4455 59.1447 62.5081 59.1447C62.5798 59.1447 62.6693 59.1357 62.7409 59.1357C63.0989 59.082 63.2332 58.8493 63.3943 58.4644L65.4531 53.6755C65.5426 53.4607 65.6052 53.3711 65.6858 53.3711C65.8022 53.3711 65.838 53.4428 65.9185 53.6128C66.1065 54.0335 67.4223 57.1485 67.9236 58.3032C68.2279 58.9925 68.4517 59.0909 68.5949 59.1178C68.7113 59.1357 68.8008 59.1447 68.8903 59.1447C68.9619 59.1447 68.9977 59.1715 68.9977 59.2252C68.9977 59.2879 68.953 59.3058 68.6576 59.3058C68.3801 59.3058 67.8072 59.3058 67.1448 59.2879C67.0016 59.2789 66.9121 59.2789 66.9121 59.2252C66.9121 59.1805 66.93 59.1536 67.0106 59.1447C67.0643 59.1357 67.118 59.0641 67.0822 58.9746L66.4735 57.4439C66.4556 57.3992 66.4288 57.3902 66.3929 57.3902ZM64.7012 56.9695H66.2229C66.2587 56.9695 66.2676 56.9516 66.2587 56.9248L65.5157 54.9913C65.5068 54.9645 65.4978 54.9197 65.4799 54.9197C65.4531 54.9197 65.4441 54.9645 65.4352 54.9913L64.6743 56.9158C64.6564 56.9516 64.6743 56.9695 64.7012 56.9695Z" fill="#4C4D4F"/>
<path d="M70.5738 59.4042C70.1173 59.4042 69.6339 59.3595 69.2938 59.2073C69.1684 59.1536 69.1416 59.1178 69.1416 58.9477C69.1416 58.536 69.1774 58.0616 69.1863 57.9362C69.1863 57.8199 69.2221 57.7393 69.2848 57.7393C69.3564 57.7393 69.3654 57.8109 69.3654 57.8646C69.3654 57.9631 69.3922 58.1242 69.437 58.2585C69.607 58.8224 70.1978 59.0104 70.6901 59.0104C71.3704 59.0104 71.7822 58.5807 71.7822 58.0437C71.7822 57.7125 71.7016 57.3813 71.0034 56.9695L70.5469 56.701C69.616 56.155 69.3117 55.6447 69.3117 54.9734C69.3117 54.0425 70.2068 53.4428 71.2988 53.4428C71.809 53.4428 72.2118 53.5144 72.4177 53.5681C72.4893 53.586 72.5251 53.6128 72.5251 53.6665C72.5251 53.765 72.4983 53.9798 72.4983 54.5796C72.4983 54.7407 72.4625 54.8212 72.3998 54.8212C72.3461 54.8212 72.3193 54.7765 72.3193 54.687C72.3193 54.6154 72.2835 54.3826 72.1134 54.1857C71.997 54.0425 71.7464 53.8277 71.2362 53.8277C70.6722 53.8277 70.162 54.123 70.162 54.6422C70.162 54.9824 70.2873 55.2509 70.9945 55.6447L71.3167 55.8238C72.3551 56.3966 72.6773 56.9785 72.6773 57.6677C72.6773 58.2316 72.4625 58.6881 71.8896 59.0909C71.5136 59.3595 70.9945 59.4042 70.5738 59.4042Z" fill="#4C4D4F"/>
<path d="M74.3378 57.0948V55.7522C74.3378 54.5975 74.3378 54.3826 74.3289 54.1409C74.311 53.8814 74.2394 53.8008 73.9887 53.7292C73.9261 53.7113 73.7918 53.7023 73.6754 53.7023C73.5949 53.7023 73.5412 53.6755 73.5412 53.6218C73.5412 53.5681 73.6038 53.5502 73.7202 53.5502C74.1319 53.5502 74.6332 53.5681 74.857 53.5681C75.1792 53.5681 75.8058 53.5502 76.1639 53.5502C77.1485 53.5502 77.5065 53.8724 77.6318 53.9798C77.8019 54.1409 78.0257 54.4811 78.0257 54.8928C78.0257 55.967 77.1664 56.7368 76.0475 56.7368C76.0117 56.7368 75.8506 56.7368 75.8148 56.7278C75.77 56.7278 75.7163 56.701 75.7163 56.6473C75.7163 56.5846 75.8058 56.5488 75.9759 56.5488C76.4145 56.5488 77.0321 56.0923 77.0321 55.3136C77.0321 55.0629 77.0053 54.5617 76.5667 54.1857C76.2802 53.9351 75.958 53.8993 75.779 53.8993C75.6626 53.8993 75.5104 53.9082 75.4388 53.9351C75.3941 53.953 75.3762 53.9977 75.3762 54.0783V57.0948C75.3762 57.793 75.3762 58.3928 75.412 58.7239C75.4388 58.9388 75.4836 59.082 75.7163 59.1178C75.8327 59.1357 76.0027 59.1447 76.1191 59.1447C76.2086 59.1447 76.2444 59.1894 76.2444 59.2252C76.2444 59.2789 76.1818 59.3058 76.1012 59.3058C75.5731 59.3058 75.0181 59.2789 74.8122 59.2789C74.6332 59.2789 74.1319 59.3058 73.8186 59.3058C73.7202 59.3058 73.6665 59.2789 73.6665 59.2252C73.6665 59.1894 73.6933 59.1447 73.7918 59.1447C73.9082 59.1447 73.9977 59.1357 74.0693 59.1178C74.2304 59.082 74.2752 58.9388 74.302 58.715C74.3378 58.3928 74.3378 57.793 74.3378 57.0948Z" fill="#4C4D4F"/>
<path d="M79.6253 57.0948V55.7522C79.6253 54.5975 79.6253 54.3826 79.6163 54.1409C79.5984 53.8814 79.5179 53.7919 79.3478 53.7381C79.2583 53.7113 79.1598 53.7023 79.0614 53.7023C78.9808 53.7023 78.9361 53.6844 78.9361 53.6128C78.9361 53.5681 78.9987 53.5502 79.124 53.5502C79.4194 53.5502 79.9565 53.5681 80.1803 53.5681C80.3772 53.5681 80.8874 53.5502 81.1918 53.5502C81.2902 53.5502 81.3529 53.5681 81.3529 53.6128C81.3529 53.6844 81.3081 53.7023 81.2276 53.7023C81.147 53.7023 81.0843 53.7113 80.9948 53.7292C80.78 53.765 80.7173 53.8724 80.6994 54.1409C80.6815 54.3826 80.6815 54.5975 80.6815 55.7522V57.0948C80.6815 57.8288 80.6815 58.4375 80.7173 58.7598C80.7442 58.9656 80.7979 59.082 81.0306 59.1178C81.138 59.1357 81.3171 59.1447 81.4334 59.1447C81.5229 59.1447 81.5588 59.1894 81.5588 59.2252C81.5588 59.2789 81.4961 59.3058 81.4066 59.3058C80.8874 59.3058 80.3503 59.2789 80.1355 59.2789C79.9565 59.2789 79.4194 59.3058 79.1061 59.3058C79.0077 59.3058 78.954 59.2789 78.954 59.2252C78.954 59.1894 78.9808 59.1447 79.0793 59.1447C79.1956 59.1447 79.2852 59.1357 79.3568 59.1178C79.5179 59.082 79.5626 58.9746 79.5895 58.7508C79.6253 58.4375 79.6253 57.8288 79.6253 57.0948Z" fill="#4C4D4F"/>
<path d="M85.5014 59.4042C83.2099 59.4042 82.279 57.7751 82.279 56.4235C82.279 55.1256 83.192 53.4428 85.582 53.4428C87.5691 53.4428 88.8044 54.5438 88.8044 56.2892C88.8044 58.0347 87.5333 59.4042 85.5014 59.4042ZM85.8236 58.9925C86.3786 58.9925 87.6318 58.7329 87.6318 56.5667C87.6318 54.8839 86.6203 53.8456 85.3492 53.8456C84.472 53.8456 83.4426 54.311 83.4426 56.1908C83.4426 57.7572 84.3377 58.9925 85.8236 58.9925Z" fill="#4C4D4F"/>
<path d="M90.6293 55.1614L90.7188 58.2674C90.7367 58.8582 90.8352 59.0372 90.9873 59.0909C91.1216 59.1357 91.2738 59.1447 91.3991 59.1447C91.4886 59.1447 91.5334 59.1805 91.5334 59.2252C91.5334 59.2879 91.4618 59.3058 91.3543 59.3058C90.8441 59.3058 90.4771 59.2789 90.3339 59.2789C90.2623 59.2789 89.8863 59.3058 89.4835 59.3058C89.3761 59.3058 89.3045 59.2968 89.3045 59.2252C89.3045 59.1805 89.3582 59.1447 89.4298 59.1447C89.5373 59.1447 89.6805 59.1357 89.7879 59.1088C89.9938 59.0551 90.0206 58.8493 90.0296 58.1869L90.1012 53.6755C90.1012 53.5233 90.1549 53.4159 90.2355 53.4159C90.3339 53.4159 90.4413 53.5323 90.5756 53.6665C90.6741 53.765 91.8556 54.9734 93.0014 56.0923C93.5384 56.6204 94.5857 57.6946 94.7021 57.802H94.7379L94.6573 54.4184C94.6484 53.953 94.5768 53.8187 94.3888 53.7471C94.2724 53.7023 94.0844 53.7023 93.977 53.7023C93.8786 53.7023 93.8517 53.6665 93.8517 53.6218C93.8517 53.5591 93.9323 53.5502 94.0486 53.5502C94.4604 53.5502 94.8811 53.5681 95.0512 53.5681C95.1407 53.5681 95.4361 53.5502 95.821 53.5502C95.9284 53.5502 96 53.5591 96 53.6218C96 53.6665 95.9552 53.7023 95.8657 53.7023C95.7852 53.7023 95.7225 53.7023 95.624 53.7292C95.4092 53.7919 95.3466 53.9261 95.3376 54.3558L95.2481 59.1536C95.2481 59.3237 95.1854 59.3953 95.1228 59.3953C94.9885 59.3953 94.8811 59.3147 94.8005 59.2342C94.3082 58.7777 93.3236 57.8378 92.5001 57.0411C91.6408 56.2176 90.8083 55.2957 90.6562 55.1614H90.6293Z" fill="#4C4D4F"/>
</g>
<rect x="1" y="1" width="110" height="110" rx="9" stroke="#CCCCCC" stroke-width="2"/>
<defs>
<clipPath id="clip0_528_31">
<rect x="2" y="2" width="108" height="108" rx="8" fill="white"/>
</clipPath>
</defs>
</svg>
