<svg width="112" height="112" viewBox="0 0 112 112" fill="none" xmlns="http://www.w3.org/2000/svg">
<g clip-path="url(#clip0_528_600)">
<rect x="2" y="2" width="108" height="108" rx="8" fill="white"/>
<path d="M24.2022 55.5874H27.2652C27.2652 55.5874 27.2848 55.5874 27.2927 55.5953H27.8707C27.969 55.5874 28.8694 55.4656 29.0188 54.5769C29.07 54.227 29.1368 53.7001 28.5391 52.9923C28.5195 52.9727 28.4998 52.9491 28.4841 52.9294L22.8574 47C23.6989 49.194 24.2061 52.2531 24.2061 55.5678V55.5835" fill="#FAA61A"/>
<path d="M29.5143 54.2742C29.5418 54.4118 29.471 55.0055 29.2941 55.3083C28.952 55.8981 28.2875 56.1183 27.8982 56.1419H16.5505C16.059 56.1419 15.8113 56.767 16.1613 57.1327L16.9123 57.923L16.7471 57.577C16.7511 57.3529 16.9123 57.1366 17.1561 57.1327H28.201C28.7121 57.0973 29.7069 56.7356 29.7974 55.615C29.7974 55.5835 29.8013 55.5481 29.8052 55.5127C29.7974 55.0802 29.6991 54.6595 29.5143 54.2624V54.2742Z" fill="#2A9C46"/>
<path d="M29.8092 55.5678C29.8092 55.3908 29.7934 55.2139 29.762 55.037C29.7895 55.1982 29.8052 55.3594 29.8092 55.5206C29.8092 55.556 29.8052 55.5914 29.8013 55.6228C29.7069 56.7395 28.7161 57.1013 28.201 57.1366H17.1561C16.9241 57.1366 16.7471 57.3332 16.7471 57.5967C16.7471 57.8208 16.9123 57.927 16.9123 57.927L21.0448 62.2679C22.0357 63.3099 23.6478 63.3099 24.6386 62.2679L27.45 59.315L28.9795 57.7618C29.2154 57.522 29.5103 57.0423 29.6637 56.5351C29.821 56.016 29.8052 55.5678 29.8052 55.5599" fill="#B72126"/>
<path d="M35.3651 54.4039C35.8408 53.5939 36.5446 53.1929 37.4687 53.1929C39.4464 53.2676 40.4294 54.6241 40.4294 57.2782C40.4294 59.9323 39.2774 61.1866 36.9772 61.2298C34.6612 61.2456 33.4974 60.0778 33.4974 57.7343V51.0853H34.4371C35.0544 51.0853 35.3651 51.4235 35.3651 52.0723V54.4039ZM35.3651 57.1917C35.3493 58.7684 35.8566 59.5666 36.9221 59.5666C37.9877 59.5666 38.5224 58.7723 38.5224 57.1917C38.4792 55.6857 37.9602 54.9505 36.9496 54.9505C35.9391 54.9505 35.4201 55.6897 35.3651 57.1917Z" fill="#B52326"/>
<path d="M41.2748 57.0895C41.3299 54.5691 42.6078 53.3148 45.0928 53.3148H45.3601V55.3515H44.7271C43.689 55.3515 43.17 55.9256 43.17 57.0619V61.1158H41.2748V57.0895Z" fill="#B52326"/>
<path d="M48.0968 52.0447V56.366L50.4009 53.5939H52.6461L50.0785 56.4839L52.6775 61.1158H50.4324L49.1112 58.5482C48.8714 58.1078 48.6355 57.8837 48.3956 57.8837C48.199 57.927 48.1007 58.0607 48.1007 58.2691V61.1158H46.233V51.0853H47.2003C47.6918 51.0853 48.0968 51.5257 48.0968 52.0447Z" fill="#B52326"/>
<path d="M56.35 59.7003C57.1364 59.7003 57.5296 59.4644 57.5296 58.9611C57.5296 58.564 56.8848 58.2376 55.6069 58.0017C53.9633 57.6911 53.1219 56.9243 53.1101 55.7015C53.1101 54.0225 54.3722 53.2243 56.0708 53.1929C57.0263 53.1929 57.7852 53.4131 58.3435 53.8574C58.8901 54.3135 59.185 54.9505 59.2282 55.7605H58.0486C57.6122 55.7447 57.333 55.5835 57.219 55.2729C57.0932 54.9347 56.7118 54.7421 56.0944 54.7421C55.3631 54.7421 54.9974 54.9505 54.9974 55.3476C54.9974 55.7447 55.4771 56.0553 56.4444 56.248C57.7065 56.5115 58.5362 56.8535 58.9412 57.2507C59.2911 57.636 59.4602 58.1078 59.4602 58.6387C59.4602 60.5575 58.029 61.2652 56.063 61.2652C55.0249 61.2652 54.2385 61.0293 53.7313 60.5732C53.169 60.1328 52.8899 59.4526 52.8899 58.5522H54.8008C54.8441 59.4054 55.4339 59.7003 56.3461 59.7003" fill="#2A9C46"/>
<path d="M61.2217 62.4999C62.248 62.4999 62.6097 61.969 62.3148 60.9349L59.7866 53.3108H61.9059L63.3804 58.7212L64.6701 54.0029C64.7841 53.5467 65.079 53.3108 65.5548 53.3108H66.8602L63.9269 62.4409C63.4787 63.7227 63.0304 64.167 61.4852 64.167C61.0094 64.167 60.7538 64.1513 60.6988 64.108V62.4999H61.2217Z" fill="#2A9C46"/>
<path d="M68.9009 55.3476H67.0332C67.2573 53.9006 68.2246 53.1929 69.9389 53.1929C71.9875 53.1929 73.0255 53.9006 73.0688 55.3476V58.0017C73.0688 60.1564 71.8341 61.1119 69.8249 61.2613C68.0437 61.4068 66.8091 60.5378 66.8091 58.8117C66.8523 56.94 68.142 56.4368 70.0215 56.248C70.8236 56.1458 71.2286 55.8941 71.2286 55.4656C71.1854 55.0252 70.7922 54.801 70.0215 54.801C69.3609 54.801 68.9953 54.978 68.9009 55.3476ZM71.2601 57.9152V57.1917C70.8236 57.3844 70.3203 57.5456 69.7738 57.6635C69.0306 57.8129 68.6492 58.1786 68.6492 58.7566C68.6925 59.3779 68.9992 59.6728 69.589 59.6728C70.627 59.6728 71.2601 59.024 71.2601 57.9191" fill="#2A9C46"/>
<path d="M73.9653 57.0895C74.0203 54.5691 75.2982 53.3148 77.7832 53.3148H78.0506V55.3515H77.4175C76.3795 55.3515 75.8605 55.9256 75.8605 57.0619V61.1158H73.9653V57.0895Z" fill="#2A9C46"/>
<path d="M80.1699 51.0853C80.7872 51.0853 81.0821 51.4077 81.0664 52.0447V52.6188H79.1987V51.0853H80.1699ZM80.1699 53.3108C80.7715 53.3108 81.0664 53.6215 81.0664 54.2545V61.1119H79.1987V53.3148H80.166L80.1699 53.3108Z" fill="#2A9C46"/>
<path d="M84.0469 55.3476H82.1792C82.4033 53.9006 83.3706 53.1929 85.0849 53.1929C87.1335 53.1929 88.1715 53.9006 88.2148 55.3476V58.0017C88.2148 60.1564 86.9801 61.1119 84.9709 61.2613C83.1897 61.4068 81.9511 60.5378 81.9511 58.8117C81.9944 56.94 83.284 56.4368 85.1635 56.248C85.9657 56.1458 86.3707 55.8941 86.3707 55.4656C86.3274 55.0252 85.9342 54.801 85.1635 54.801C84.503 54.801 84.1412 54.978 84.0429 55.3476M86.4021 57.9152V57.1917C85.9657 57.3844 85.4624 57.5456 84.9119 57.6635C84.1687 57.8129 83.7873 58.1786 83.7873 58.7566C83.8306 59.3779 84.1373 59.6728 84.7271 59.6728C85.7651 59.6728 86.3982 59.024 86.3982 57.9191" fill="#2A9C46"/>
<path d="M92.5674 54.9505C91.4586 54.9505 90.9829 55.9217 90.9829 57.117V61.1119H89.1152V51.0853H90.0549C90.6722 51.0853 90.9829 51.4235 90.9829 52.0723V54.4039C91.9383 53.2518 93.1022 52.9294 94.4941 53.4445C95.5322 53.8416 96.0237 54.8876 95.9686 56.5862V61.1119H94.1166V57.117C94.1166 55.8037 93.6409 54.9505 92.5714 54.9505" fill="#2A9C46"/>
<path d="M67.104 64.3204C67.1118 64.2181 67.1158 64.0491 67.1158 63.88V62.0359H67.505V62.9953H67.5129C67.6073 62.838 67.7921 62.7279 68.0398 62.7279C68.433 62.7279 68.7279 63.0425 68.7239 63.5222C68.7239 64.0805 68.3465 64.3597 67.9847 64.3597C67.7763 64.3597 67.5797 64.281 67.4618 64.0727H67.4539L67.4382 64.3204H67.104ZM67.509 63.648C67.509 63.6795 67.509 63.7109 67.5168 63.7384C67.5561 63.8957 67.7016 64.0373 67.8982 64.0373C68.1577 64.0373 68.3268 63.8485 68.3268 63.534C68.3268 63.2666 68.1813 63.0385 67.9061 63.0385C67.7331 63.0385 67.5679 63.1565 67.5208 63.3531C67.5129 63.3846 67.509 63.416 67.509 63.4553V63.648Z" fill="#231F20"/>
<path d="M69.3295 63.6598C69.3413 63.9193 69.5654 64.053 69.8288 64.053C70.0215 64.053 70.1552 64.0255 70.2849 63.9744L70.3439 64.2535C70.2063 64.3125 70.0215 64.3597 69.7777 64.3597C69.2666 64.3597 68.9599 64.0412 68.9599 63.5654C68.9599 63.1644 69.2115 62.7279 69.7384 62.7279C70.2653 62.7279 70.4304 63.184 70.4304 63.4986C70.4304 63.5654 70.4226 63.6283 70.4147 63.6559H69.3295V63.6598ZM70.0608 63.3767C70.0608 63.2666 70.0097 63.0032 69.7148 63.0032C69.4553 63.0032 69.3491 63.2233 69.3295 63.3767H70.0647H70.0608Z" fill="#231F20"/>
<path d="M70.7607 63.2863C70.7607 63.0582 70.7607 62.9088 70.7489 62.7672H71.0871L71.0989 63.0818H71.1107C71.1893 62.8419 71.378 62.7279 71.551 62.7279C71.5904 62.7279 71.61 62.7279 71.6454 62.7358V63.1172C71.61 63.1093 71.5746 63.1015 71.5235 63.1015C71.323 63.1015 71.1972 63.2273 71.1618 63.4082C71.1539 63.4435 71.1539 63.4789 71.1539 63.5182V64.3204H70.7646V63.2863H70.7607Z" fill="#231F20"/>
<path d="M72.3296 63.4435H72.3374C72.3728 63.3885 72.4239 63.3216 72.4672 63.2666L72.8682 62.7672H73.3519L72.7464 63.3964L73.4463 64.3204H72.9548L72.4751 63.6323L72.3335 63.7974V64.3243H71.9442V62.0398H72.3335V63.4475L72.3296 63.4435Z" fill="#231F20"/>
<path d="M74.5158 64.3204L74.4882 64.1434H74.4764C74.3821 64.2653 74.213 64.3597 74.0007 64.3597C73.6704 64.3597 73.5052 64.1238 73.5052 63.8957C73.5052 63.5065 73.8394 63.2981 74.4568 63.302V63.2823C74.4568 63.1998 74.4253 63.011 74.1304 63.015C73.9731 63.015 73.8001 63.07 73.694 63.1408L73.6153 62.8773C73.7411 62.7987 73.9417 62.7318 74.1933 62.7318C74.6966 62.7318 74.846 63.0582 74.846 63.4042V63.9429C74.846 64.0923 74.8539 64.2299 74.8696 64.3243H74.5158V64.3204ZM74.4646 63.5654C74.154 63.5615 73.8945 63.6244 73.8945 63.8485C73.8945 63.994 73.9928 64.0687 74.1265 64.0687C74.2995 64.0687 74.4135 63.9547 74.4528 63.8407C74.4607 63.8131 74.4646 63.7817 74.4646 63.7542V63.5654Z" fill="#231F20"/>
<path d="M75.2825 62.0359H75.6717V62.9953H75.6796C75.7307 62.9167 75.7976 62.8498 75.8841 62.8026C75.9627 62.7554 76.061 62.7279 76.1593 62.7279C76.4149 62.7279 76.7255 62.8931 76.7255 63.4278V64.3204H76.3362V63.4829C76.3362 63.2391 76.2458 63.0621 76.0138 63.0621C75.8487 63.0621 75.7347 63.1801 75.6914 63.2902C75.6757 63.3256 75.6757 63.3649 75.6757 63.4082V64.3204H75.2864V62.0359H75.2825Z" fill="#231F20"/>
<path d="M79.2852 63.8525C79.2852 64.0412 79.2892 64.1985 79.297 64.3243H78.9549L78.9353 64.0648H78.9274C78.8645 64.1788 78.7072 64.3636 78.4045 64.3636C78.1371 64.3636 77.8461 64.2103 77.8461 63.6677V62.7751H78.2354V63.5969C78.2354 63.8682 78.3258 64.0373 78.546 64.0373C78.7112 64.0373 78.8252 63.9232 78.8724 63.8092C78.8842 63.7778 78.892 63.7345 78.892 63.6913V62.779H79.2813V63.8603L79.2852 63.8525Z" fill="#231F20"/>
<path d="M79.7295 63.2391C79.7295 63.0582 79.7256 62.9009 79.7178 62.7672H80.0598L80.0795 63.0189H80.0874C80.1503 62.9009 80.3233 62.7318 80.5985 62.7318C80.858 62.7318 81.1726 62.897 81.1726 63.4317V64.3243H80.7833V63.4829C80.7833 63.2391 80.6889 63.0621 80.4648 63.0621C80.2958 63.0621 80.1817 63.188 80.1385 63.3059C80.1267 63.3374 80.1227 63.3846 80.1227 63.4239V64.3204H79.7335V63.2391H79.7295Z" fill="#231F20"/>
<path d="M82.0573 62.3151V62.7712H82.4348V63.0779H82.0573V63.7227C82.0573 63.9114 82.0966 64.0255 82.2617 64.0255C82.3325 64.0255 82.3876 64.0176 82.423 64.0058L82.4308 64.3164C82.3718 64.34 82.2657 64.3597 82.1399 64.3597C81.9904 64.3597 81.8685 64.3046 81.7978 64.2221C81.7152 64.1277 81.6759 63.9744 81.6759 63.7817V63.0779H81.4518V62.7712H81.6759V62.4134L82.0573 62.319V62.3151Z" fill="#231F20"/>
<path d="M84.1884 63.8525C84.1884 64.0412 84.1923 64.1985 84.2002 64.3243H83.8581L83.8424 64.0648H83.8345C83.7716 64.1788 83.6143 64.3636 83.3116 64.3636C83.0442 64.3636 82.7532 64.2103 82.7532 63.6677V62.7751H83.1425V63.5969C83.1425 63.8682 83.2329 64.0373 83.4531 64.0373C83.6183 64.0373 83.7323 63.9232 83.7795 63.8092C83.7913 63.7778 83.7991 63.7345 83.7991 63.6913V62.779H84.1884V63.8603V63.8525Z" fill="#231F20"/>
<path d="M85.0259 63.4435H85.0338C85.0731 63.3885 85.1203 63.3216 85.1635 63.2666L85.5646 62.7672H86.0482L85.4427 63.3964L86.1426 64.3204H85.6511L85.1714 63.6323L85.0298 63.7974V64.3243H84.6406V62.0398H85.0298V63.4475L85.0259 63.4435Z" fill="#231F20"/>
<path d="M86.984 63.9468C87.0745 64.0058 87.2553 64.0727 87.4008 64.0727C87.5817 64.0727 87.6564 63.9979 87.6564 63.8996C87.6564 63.7935 87.5896 63.7424 87.393 63.6834C87.0823 63.589 86.9447 63.4199 86.9487 63.2273C86.9487 62.952 87.1767 62.7318 87.5463 62.7318C87.7233 62.7318 87.8805 62.7751 87.9749 62.8301L87.9002 63.1133C87.8373 63.0779 87.6997 63.015 87.5502 63.015C87.4087 63.015 87.3301 63.0818 87.3301 63.1801C87.3301 63.2784 87.4126 63.3295 87.6132 63.3924C87.9081 63.4868 88.0378 63.6244 88.0378 63.8682C88.0378 64.1395 87.8294 64.3597 87.4008 64.3597C87.2003 64.3597 87.0273 64.3125 86.9054 64.2457L86.984 63.9468Z" fill="#231F20"/>
<path d="M88.6512 63.6598C88.663 63.9193 88.8871 64.053 89.1506 64.053C89.3432 64.053 89.4769 64.0255 89.6067 63.9744L89.6657 64.2535C89.528 64.3125 89.3432 64.3597 89.0994 64.3597C88.5883 64.3597 88.2816 64.0412 88.2816 63.5654C88.2816 63.1644 88.5332 62.7279 89.0641 62.7279C89.5949 62.7279 89.7561 63.184 89.7561 63.4986C89.7561 63.5654 89.7482 63.6283 89.7404 63.6559H88.6512V63.6598ZM89.3826 63.3767C89.3826 63.2666 89.3314 63.0032 89.0365 63.0032C88.777 63.0032 88.6709 63.2233 88.6512 63.3767H89.3865H89.3826Z" fill="#231F20"/>
<path d="M90.0864 63.2391C90.0864 63.0582 90.0824 62.9009 90.0746 62.7672H90.4049L90.4206 63.011H90.4324C90.5032 62.8891 90.6447 62.7318 90.9239 62.7318C91.1323 62.7318 91.2974 62.8577 91.3643 63.0385H91.3721C91.4272 62.9481 91.494 62.8813 91.5648 62.8341C91.6552 62.7672 91.7575 62.7318 91.8951 62.7318C92.1428 62.7318 92.4298 62.9009 92.4298 63.4396V64.3243H92.0524V63.4947C92.0524 63.2116 91.9462 63.0661 91.7575 63.0661C91.6159 63.0661 91.5137 63.1722 91.4704 63.2823C91.4547 63.3216 91.4508 63.3728 91.4508 63.416V64.3282H91.0733V63.4632C91.0733 63.2194 90.9671 63.07 90.7902 63.07C90.629 63.07 90.5307 63.2037 90.4914 63.302C90.4756 63.3452 90.4717 63.3924 90.4717 63.4357V64.3322H90.0942V63.2509L90.0864 63.2391Z" fill="#231F20"/>
<path d="M94.3015 63.8525C94.3015 64.0412 94.3054 64.1985 94.3132 64.3243H93.9712L93.9515 64.0648H93.9436C93.8807 64.1788 93.7235 64.3636 93.4207 64.3636C93.1533 64.3636 92.8624 64.2103 92.8624 63.6677V62.7751H93.2516V63.5969C93.2516 63.8682 93.342 64.0373 93.5622 64.0373C93.7274 64.0373 93.8414 63.9232 93.8886 63.8092C93.9004 63.7778 93.9083 63.7345 93.9083 63.6913V62.779H94.2975V63.8603L94.3015 63.8525Z" fill="#231F20"/>
<path d="M95.6462 64.3204L95.6187 64.1434H95.6069C95.5125 64.2653 95.3434 64.3597 95.1311 64.3597C94.8008 64.3597 94.6357 64.1238 94.6357 63.8957C94.6357 63.5065 94.9699 63.2981 95.5872 63.302V63.2823C95.5872 63.1998 95.5558 63.011 95.2609 63.015C95.1036 63.015 94.9306 63.07 94.8205 63.1408L94.7418 62.8773C94.8677 62.7987 95.0682 62.7318 95.3198 62.7318C95.8231 62.7318 95.9725 63.0582 95.9725 63.4042V63.9429C95.9725 64.0923 95.9804 64.2299 95.9961 64.3243H95.6423L95.6462 64.3204ZM95.5951 63.5654C95.2844 63.5615 95.0249 63.6244 95.0249 63.8485C95.0249 63.994 95.1232 64.0687 95.2569 64.0687C95.4299 64.0687 95.544 63.9547 95.5833 63.8407C95.5911 63.8131 95.5951 63.7817 95.5951 63.7542V63.5654Z" fill="#231F20"/>
</g>
<rect x="1" y="1" width="110" height="110" rx="9" stroke="#CCCCCC" stroke-width="2"/>
<defs>
<clipPath id="clip0_528_600">
<rect x="2" y="2" width="108" height="108" rx="8" fill="white"/>
</clipPath>
</defs>
</svg>
