<svg width="112" height="112" viewBox="0 0 112 112" fill="none" xmlns="http://www.w3.org/2000/svg">
<g clip-path="url(#clip0_421_544)">
<rect x="2" y="2" width="108" height="108" rx="8" fill="white"/>
<g clip-path="url(#clip1_421_544)">
<path fill-rule="evenodd" clip-rule="evenodd" d="M23.9689 48.5308C28.0941 48.5308 31.4385 51.8752 31.4385 56.0003C31.4385 60.1248 28.0941 63.4693 23.9689 63.4693C19.8438 63.4693 16.5 60.1248 16.5 56.0003C16.5 51.8752 19.8438 48.5308 23.9689 48.5308Z" fill="#EC2127"/>
<path fill-rule="evenodd" clip-rule="evenodd" d="M17.0877 58.9095C16.7092 58.0155 16.5 57.0318 16.5 55.9996C16.5 54.7576 16.8038 53.5865 17.3405 52.5555C20.0374 52.1633 22.5271 53.2752 26.3254 53.1825C27.2847 53.1594 28.5324 52.9833 29.432 53.0306C29.1917 53.5106 28.8181 53.8088 28.4141 54.1039C26.9374 55.1834 25.7364 55.7412 23.6496 55.5868C22.4138 55.4953 21.1581 55.2849 19.931 55.1274C19.2978 55.0458 18.6317 54.9618 18.0203 55.1604C17.5845 55.3023 16.9551 55.7805 16.8524 56.05C18.75 56.9067 21.3834 56.9913 23.4292 56.4385C24.3437 56.1913 24.6525 55.9591 25.3062 55.7375C25.2539 56.1696 24.4402 57.1775 24.0611 57.4689C23.7249 57.7278 23.6097 57.853 23.1976 58.117C21.4974 59.204 19.1304 59.4038 17.0927 58.9095H17.0877Z" fill="#FEFEFE"/>
<path fill-rule="evenodd" clip-rule="evenodd" d="M63.7081 57.261C62.0303 57.261 61.8915 55.0204 63.0501 54.4843C64.5841 53.7759 65.5976 55.6554 64.6762 56.8165C64.4695 57.0767 64.0145 57.261 63.7081 57.261ZM60.8829 50.955V58.4719H62.2955V57.8667C62.5807 58.0579 62.9306 58.5727 63.9099 58.5727C65.4096 58.5727 66.4829 57.3706 66.4829 56.0507C66.4829 55.1829 66.3858 54.4333 65.79 53.8169C64.8257 52.8177 63.2257 52.7181 62.346 53.7298V50.8037H61.0342C60.9178 50.8037 60.8829 50.8386 60.8829 50.955Z" fill="#221E1F"/>
<path fill-rule="evenodd" clip-rule="evenodd" d="M36.566 55.8484C36.566 55.3086 36.7372 54.9157 37.1046 54.6213C37.1979 54.5466 37.216 54.5335 37.3212 54.4849C38.9106 53.7453 39.8576 55.7867 38.9517 56.8214C38.2283 57.647 36.566 57.2641 36.566 55.8484ZM35.1541 51.0558V58.4719H36.566V57.8667C36.698 57.9551 36.7379 58.0286 36.8605 58.1276C38.3522 59.3341 40.7534 57.9856 40.7534 56.1515C40.7534 55.2868 40.7136 54.4924 40.0611 53.8169C39.3259 53.0555 38.2046 52.7922 37.272 53.2242C37.0286 53.3369 36.8406 53.5293 36.6165 53.6793V50.9045H35.3053C35.1889 50.9045 35.1541 50.9394 35.1541 51.0558Z" fill="#221E1F"/>
<path fill-rule="evenodd" clip-rule="evenodd" d="M68.8032 55.798C68.8032 55.4064 68.9801 54.9843 69.1787 54.7608C69.823 54.0374 71.4772 54.1407 71.4772 55.8989C71.4772 56.3054 71.3178 56.6304 71.1136 56.847C70.3684 57.6365 68.8032 57.2691 68.8032 55.798ZM67.3402 55.5963C67.3402 56.5028 67.4766 57.2137 68.058 57.8052C68.7173 58.4751 69.8678 58.8144 70.8222 58.3717C71.1603 58.2154 71.2244 58.0355 71.4772 57.8668V58.4719H72.8898V53.1247H71.4267V53.6794C71.3041 53.5972 71.2786 53.5425 71.1547 53.4472C69.6443 52.2911 67.3402 53.5842 67.3402 55.5963Z" fill="#221E1F"/>
<path fill-rule="evenodd" clip-rule="evenodd" d="M43.0744 55.798C43.0744 53.9377 45.7483 53.7211 45.7483 55.8988C45.7483 56.3054 45.5889 56.6304 45.3841 56.847C45.2895 56.9472 45.1432 57.0624 45.0074 57.1259C44.129 57.5393 43.0744 56.9609 43.0744 55.798ZM41.6113 55.6971C41.6113 58.2266 43.7474 58.9955 45.0927 58.3717C45.4308 58.2154 45.4955 58.0355 45.7483 57.8668V58.4719H47.1609V53.1247H45.6979V53.6794C45.2839 53.4023 45.0803 53.0232 44.0829 53.0232C42.6504 53.0232 41.6113 54.2833 41.6113 55.6971Z" fill="#221E1F"/>
<path fill-rule="evenodd" clip-rule="evenodd" d="M54.7281 51.0558V58.4719H56.1912V56.202C56.6058 56.4796 57.9935 58.4108 58.3135 58.4681C58.5831 58.5167 59.4883 58.4719 59.8232 58.4719C59.7118 58.2608 59.7018 58.2944 59.5636 58.1263L58.6914 57.0306C58.4934 56.7778 58.3285 56.5842 58.1299 56.3315C57.9319 56.0793 57.7196 55.8452 57.5534 55.5962L58.6628 54.3853C58.8769 54.1052 59.5854 53.4048 59.7728 53.1246H58.0576C57.9948 53.2429 56.4047 55.1 56.1912 55.2432V50.9045H54.8794C54.763 50.9045 54.7281 50.9394 54.7281 51.0558Z" fill="#221E1F"/>
<path fill-rule="evenodd" clip-rule="evenodd" d="M87.3184 54.3349H87.621C88.1595 54.3349 88.4758 54.7482 88.5797 55.1928H86.3092C86.4082 54.7682 86.798 54.3349 87.3184 54.3349ZM84.7958 55.5457C84.7958 56.4335 84.8854 57.1819 85.6151 57.8549C86.4854 58.6573 87.8121 58.7632 88.8979 58.2857C89.2714 58.1213 89.6257 57.8343 89.8411 57.5131L88.9327 56.6558C88.6252 56.8619 88.4185 57.2609 87.621 57.2609C86.9984 57.2609 86.3553 56.8046 86.3092 56.2524H90.0428C90.0428 55.2631 90.0733 54.544 89.2739 53.7415C88.4204 52.8855 86.854 52.7878 85.9046 53.4763C85.518 53.7565 85.2285 54.0647 85.0392 54.5285C84.9228 54.8136 84.7958 55.1286 84.7958 55.5457Z" fill="#221E1F"/>
<path fill-rule="evenodd" clip-rule="evenodd" d="M92.8088 53.7379C92.8088 53.7211 92.8455 53.7012 92.8468 53.7087L92.868 53.1247H91.3545V58.4719C93.196 58.4719 92.868 58.7726 92.868 57.261C92.868 56.8072 92.8686 56.3533 92.8673 55.8989C92.8667 55.3853 92.8879 55.0777 93.1108 54.7801C93.6157 54.1065 94.5918 54.3032 94.8365 54.6867C95.164 55.2003 95.037 57.6707 95.037 58.4719H96.5V55.2937C96.5 54.6799 96.3519 53.9982 96.0592 53.6657C95.1397 52.6198 93.3984 52.9877 92.868 53.7803L92.8088 53.7379Z" fill="#221E1F"/>
<path fill-rule="evenodd" clip-rule="evenodd" d="M75.614 53.7802V53.1247H74.151V58.4719H75.614C75.614 57.5997 75.4684 55.3516 75.8774 54.8006C76.3761 54.1276 77.4058 54.2397 77.6598 54.7614C77.9331 55.3248 77.8335 57.7086 77.8335 58.4719H79.2965V55.445C79.2965 54.0056 78.819 53.0232 77.2788 53.0232C76.2951 53.0232 75.9365 53.5642 75.614 53.7802Z" fill="#221E1F"/>
<path fill-rule="evenodd" clip-rule="evenodd" d="M49.9855 53.7802V53.1246H48.5225V58.4719H49.9855V55.6467C49.9855 54.0429 52.1551 53.8481 52.1551 55.3441V58.4719H53.6182V54.9407C53.6182 53.2012 51.9341 52.6403 50.6734 53.2572C50.2955 53.4422 50.2557 53.5997 49.9855 53.7802Z" fill="#221E1F"/>
<path fill-rule="evenodd" clip-rule="evenodd" d="M80.9613 51.6617V53.1247H80.1544V54.335H80.9613V56.9081C80.9613 58.7391 82.7082 58.9034 84.1905 58.119C84.0965 57.7174 83.9259 57.3395 83.8369 56.9585C83.4192 57.0563 82.4243 57.6458 82.4243 56.6559V54.335H83.8873V53.1247H82.4243V51.4089L80.9613 51.6617Z" fill="#221E1F"/>
<path d="M35.4541 60.8103H36.0804C36.2049 60.8103 36.2971 60.8153 36.3574 60.8252C36.4191 60.8358 36.4732 60.8576 36.5212 60.89C36.5691 60.923 36.6096 60.9659 36.6413 61.0201C36.6737 61.0749 36.6899 61.1359 36.6899 61.2031C36.6899 61.276 36.67 61.3438 36.6308 61.4042C36.5915 61.4659 36.538 61.5113 36.4701 61.5418C36.5654 61.5698 36.6382 61.6172 36.6899 61.6844C36.7409 61.7516 36.7665 61.8301 36.7665 61.921C36.7665 61.9926 36.7497 62.0617 36.7167 62.1289C36.6837 62.1968 36.6382 62.2503 36.5809 62.2908C36.5237 62.3312 36.4527 62.3555 36.3687 62.3655C36.3164 62.3705 36.1887 62.3742 35.9876 62.3761H35.4541V60.8103ZM35.771 61.0705V61.431H35.9783C36.1009 61.431 36.1775 61.4291 36.2074 61.4254C36.2616 61.4198 36.3039 61.4011 36.335 61.37C36.3662 61.3389 36.3811 61.2984 36.3811 61.248C36.3811 61.1994 36.368 61.1608 36.3413 61.1303C36.3145 61.1004 36.2746 61.0817 36.2224 61.0755C36.1912 61.0724 36.1009 61.0705 35.9528 61.0705H35.771ZM35.771 61.6912V62.1115H36.0642C36.1781 62.1115 36.2504 62.1077 36.2809 62.1015C36.3282 62.0928 36.3662 62.0722 36.396 62.0393C36.4253 62.0056 36.4402 61.9614 36.4402 61.9054C36.4402 61.8581 36.429 61.8182 36.406 61.7859C36.3836 61.7529 36.3506 61.7292 36.307 61.7136C36.2641 61.6987 36.1707 61.6912 36.0269 61.6912H35.771ZM39.1061 62.3761H38.7643L38.6292 62.0193H38.0016L37.8715 62.3761H37.536L38.1436 60.8103H38.4792L39.1061 62.3761ZM38.5265 61.7547L38.3092 61.1751L38.0975 61.7547H38.5265ZM39.9372 62.3761V60.8103H40.2441L40.8885 61.8593V60.8103H41.1811V62.3761H40.8648L40.2304 61.3463V62.3761H39.9372ZM42.1828 62.3761V60.8103H42.5003V61.5038L43.1391 60.8103H43.5637L42.9729 61.4198L43.5948 62.3761H43.1858L42.755 61.6408L42.5003 61.9023V62.3761H42.1828Z" fill="#221E1F"/>
<path d="M45.3442 62.3761V60.8104H45.8516C46.0434 60.8104 46.1685 60.8178 46.227 60.8334C46.3167 60.8571 46.3914 60.9081 46.4518 60.9872C46.5128 61.0656 46.5427 61.1671 46.5427 61.2922C46.5427 61.3881 46.5253 61.4691 46.491 61.5344C46.4555 61.5998 46.4113 61.6515 46.3578 61.6888C46.3042 61.7262 46.2501 61.7511 46.1947 61.7629C46.1187 61.7778 46.0098 61.7853 45.8672 61.7853H45.6617V62.3761H45.3442ZM45.6617 61.075V61.5207H45.8342C45.9581 61.5207 46.0409 61.5126 46.0826 61.4958C46.1249 61.4796 46.1573 61.4541 46.181 61.4186C46.2053 61.3838 46.2171 61.3433 46.2171 61.2966C46.2171 61.2393 46.2003 61.1926 46.1673 61.1553C46.1337 61.1179 46.0913 61.0949 46.0403 61.0856C46.0029 61.0781 45.927 61.075 45.8137 61.075H45.6617ZM47.4105 62.3761V60.8104H48.5698V61.075H47.7281V61.4224H48.5106V61.687H47.7281V62.1115H48.6003V62.3761H47.4105ZM49.4725 62.3761V60.8104H49.9475L50.2277 61.8781L50.5053 60.8104H50.981V62.3761H50.6884L50.6871 61.1435L50.3783 62.3761H50.0739L49.7663 61.1435L49.7657 62.3761H49.4725ZM51.9061 60.8104H52.5324C52.6563 60.8104 52.7484 60.8154 52.8095 60.8253C52.8705 60.8359 52.9252 60.8577 52.9732 60.8901C53.0211 60.9231 53.0616 60.966 53.0933 61.0202C53.1257 61.075 53.1413 61.136 53.1413 61.2032C53.1413 61.2761 53.122 61.3439 53.0828 61.4043C53.0429 61.4659 52.9894 61.5114 52.9221 61.5419C53.0174 61.5699 53.0902 61.6172 53.1413 61.6845C53.1923 61.7517 53.2179 61.8301 53.2179 61.921C53.2179 61.9926 53.2017 62.0617 53.1687 62.129C53.1351 62.1968 53.0902 62.2504 53.0323 62.2908C52.9751 62.3313 52.9047 62.3556 52.8207 62.3656C52.7677 62.3705 52.6407 62.3743 52.439 62.3761H51.9061V60.8104ZM52.223 61.0706V61.4311H52.4303C52.553 61.4311 52.6295 61.4292 52.6594 61.4255C52.713 61.4199 52.7559 61.4012 52.787 61.3701C52.8175 61.3389 52.8331 61.2985 52.8331 61.248C52.8331 61.1995 52.8194 61.1609 52.7933 61.1304C52.7665 61.1005 52.7267 61.0818 52.6744 61.0756C52.6432 61.0725 52.553 61.0706 52.4048 61.0706H52.223ZM52.223 61.6913V62.1115H52.5162C52.6295 62.1115 52.7024 62.1078 52.7329 62.1016C52.7802 62.0929 52.8182 62.0723 52.8481 62.0393C52.8773 62.0057 52.8923 61.9615 52.8923 61.9055C52.8923 61.8582 52.881 61.8183 52.858 61.7859C52.8356 61.7529 52.802 61.7293 52.759 61.7137C52.7161 61.6988 52.6227 61.6913 52.4789 61.6913H52.223ZM55.5033 62.3761H55.1615L55.0264 62.0194H54.3989L54.2688 62.3761H53.9332L54.5408 60.8104H54.8764L55.5033 62.3761ZM54.9237 61.7548L54.7064 61.1752L54.4947 61.7548H54.9237ZM56.2796 62.3761V60.8104H56.5866L57.2309 61.8594V60.8104H57.5235V62.3761H57.2073L56.5729 61.3464V62.3761H56.2796ZM59.1945 61.8009V61.5363H59.875V62.1607C59.809 62.2255 59.7131 62.2821 59.5874 62.3313C59.4616 62.3799 59.3346 62.4042 59.2057 62.4042C59.042 62.4042 58.8994 62.3699 58.7774 62.3014C58.656 62.2323 58.5651 62.1333 58.5035 62.0057C58.4424 61.8775 58.4119 61.738 58.4119 61.5873C58.4119 61.4242 58.4462 61.2792 58.514 61.1522C58.5825 61.0252 58.6828 60.9274 58.8141 60.8596C58.9144 60.8073 59.0395 60.7817 59.1889 60.7817C59.3831 60.7817 59.5351 60.8228 59.6446 60.9044C59.7536 60.9859 59.8239 61.0986 59.8551 61.2431L59.54 61.3022C59.5182 61.225 59.4765 61.1646 59.4155 61.1198C59.3551 61.075 59.2798 61.0532 59.1883 61.0532C59.0507 61.0532 58.9411 61.0968 58.8596 61.1845C58.7786 61.2723 58.7375 61.4024 58.7375 61.5749C58.7375 61.761 58.7786 61.9005 58.8614 61.9939C58.9436 62.0866 59.0519 62.1333 59.1858 62.1333C59.2512 62.1333 59.3178 62.1203 59.3844 62.0941C59.451 62.0686 59.5077 62.0368 59.5556 61.9995V61.8009H59.1945ZM60.7752 60.8104H61.0921V61.6589C61.0921 61.7934 61.0958 61.8806 61.1039 61.9204C61.117 61.9845 61.1488 62.0362 61.1992 62.0748C61.2496 62.114 61.3187 62.1333 61.4065 62.1333C61.4949 62.1333 61.5621 62.1147 61.607 62.0779C61.6524 62.0412 61.6792 61.9964 61.6885 61.9428C61.6972 61.8893 61.7022 61.8009 61.7022 61.677V60.8104H62.0191V61.6334C62.0191 61.8214 62.011 61.9547 61.9936 62.0325C61.9768 62.1097 61.945 62.1757 61.8996 62.2292C61.8535 62.2828 61.7925 62.3251 61.7159 62.3568C61.6393 62.3886 61.5391 62.4042 61.4158 62.4042C61.2664 62.4042 61.1537 62.3873 61.0765 62.3525C61 62.3182 60.9389 62.2734 60.8941 62.218C60.8493 62.1626 60.82 62.1047 60.8057 62.0437C60.7852 61.954 60.7752 61.8214 60.7752 61.6465V60.8104ZM62.9617 62.3761V60.8104H63.2686L63.913 61.8594V60.8104H64.2062V62.3761H63.8893L63.2549 61.3464V62.3761H62.9617ZM66.5589 62.3761H66.2177L66.0826 62.0194H65.4544L65.3243 62.3761H64.9888L65.597 60.8104H65.9319L66.5589 62.3761ZM65.9793 61.7548L65.762 61.1752L65.5503 61.7548H65.9793ZM67.3352 62.3761V60.8104H67.6421L68.2865 61.8594V60.8104H68.5797V62.3761H68.2628L67.6284 61.3464V62.3761H67.3352Z" fill="#221E1F"/>
<path d="M70.6199 60.8103H71.1964C71.3265 60.8103 71.4255 60.8196 71.4933 60.8402C71.5849 60.867 71.6639 60.9149 71.7287 60.984C71.7947 61.0531 71.8438 61.1378 71.8781 61.238C71.9123 61.3376 71.9291 61.4615 71.9291 61.6078C71.9291 61.7367 71.9136 61.8475 71.8812 61.9409C71.842 62.0548 71.7866 62.1476 71.7137 62.2179C71.6596 62.2715 71.5855 62.3126 71.4927 62.3424C71.423 62.3649 71.3296 62.3761 71.2132 62.3761H70.6199V60.8103ZM70.9368 61.0749V62.1115H71.1715C71.2592 62.1115 71.3228 62.1059 71.362 62.0965C71.413 62.0835 71.4554 62.0617 71.489 62.0312C71.5232 62.0007 71.5506 61.9502 71.5718 61.8799C71.5929 61.8101 71.6035 61.7143 71.6035 61.5935C71.6035 61.4721 71.5929 61.38 71.5718 61.3146C71.5506 61.2498 71.5207 61.1994 71.4821 61.1633C71.4442 61.1272 71.3956 61.1023 71.3364 61.0898C71.2929 61.0799 71.2063 61.0749 71.0781 61.0749H70.9368ZM74.2108 62.3761H73.8691L73.734 62.0193H73.1058L72.9757 62.3761H72.6407L73.2484 60.8103H73.5833L74.2108 62.3761ZM73.6312 61.7547L73.414 61.1751L73.2023 61.7547H73.6312ZM74.981 62.3761V60.8103H76.1402V61.0749H75.2979V61.4223H76.081V61.6869H75.2979V62.1115H76.1707V62.3761H74.981ZM77.041 62.3761V60.8103H77.7072C77.874 60.8103 77.9961 60.8246 78.072 60.8526C78.148 60.8807 78.2084 60.9305 78.2538 61.0021C78.2999 61.0743 78.3223 61.1564 78.3223 61.2492C78.3223 61.3669 78.288 61.4634 78.2196 61.54C78.1505 61.6165 78.0477 61.6645 77.9108 61.685C77.9786 61.7242 78.0347 61.7684 78.0789 61.8157C78.1237 61.8637 78.1835 61.949 78.2582 62.0704L78.4493 62.3761H78.0714L77.8448 62.0336C77.7632 61.9129 77.7078 61.8363 77.6773 61.8045C77.6474 61.7728 77.6157 61.751 77.5821 61.7398C77.5484 61.728 77.4955 61.7217 77.4221 61.7217H77.3579V62.3761H77.041ZM77.3579 61.4727H77.592C77.7439 61.4727 77.8379 61.4659 77.8759 61.4534C77.9139 61.4403 77.9438 61.4186 77.9643 61.3868C77.9861 61.3557 77.9967 61.3165 77.9967 61.2691C77.9967 61.2162 77.9824 61.1739 77.9543 61.1415C77.9263 61.1091 77.8865 61.0886 77.8354 61.0799C77.8099 61.0768 77.7327 61.0749 77.6051 61.0749H77.3579V61.4727ZM80.632 62.3761H80.2908L80.1557 62.0193H79.5276L79.3975 62.3761H79.0619L79.6701 60.8103H80.0051L80.632 62.3761ZM80.053 61.7547L79.8351 61.1751L79.6241 61.7547H80.053ZM81.4028 62.3761V60.8103H81.7196V61.4266H82.3366V60.8103H82.6535V62.3761H82.3366V61.6912H81.7196V62.3761H81.4028Z" fill="#221E1F"/>
<path d="M84.5934 60.8103H85.2197C85.3436 60.8103 85.4357 60.8153 85.4967 60.8252C85.5577 60.8358 85.6125 60.8576 85.6605 60.89C85.7084 60.923 85.7489 60.9659 85.7806 61.0201C85.813 61.0749 85.8292 61.1359 85.8292 61.2031C85.8292 61.276 85.8093 61.3438 85.77 61.4042C85.7302 61.4659 85.6766 61.5113 85.6094 61.5418C85.7047 61.5698 85.7775 61.6172 85.8292 61.6844C85.8796 61.7516 85.9051 61.8301 85.9051 61.921C85.9051 61.9926 85.8889 62.0617 85.856 62.1289C85.823 62.1968 85.7775 62.2503 85.7196 62.2908C85.663 62.3312 85.592 62.3555 85.5079 62.3655C85.455 62.3705 85.328 62.3742 85.1263 62.3761H84.5934V60.8103ZM84.9103 61.0705V61.431H85.1176C85.2402 61.431 85.3168 61.4291 85.3467 61.4254C85.4009 61.4198 85.4432 61.4011 85.4743 61.37C85.5054 61.3389 85.5204 61.2984 85.5204 61.248C85.5204 61.1994 85.5073 61.1608 85.4805 61.1303C85.4538 61.1004 85.4139 61.0817 85.3616 61.0755C85.3305 61.0724 85.2402 61.0705 85.0921 61.0705H84.9103ZM84.9103 61.6912V62.1115H85.2035C85.3174 62.1115 85.3897 62.1077 85.4202 62.1015C85.4675 62.0928 85.5054 62.0722 85.5353 62.0393C85.5646 62.0056 85.5795 61.9614 85.5795 61.9054C85.5795 61.8581 85.5683 61.8182 85.5453 61.7859C85.5229 61.7529 85.4893 61.7292 85.4463 61.7136C85.4033 61.6987 85.31 61.6912 85.1661 61.6912H84.9103ZM88.2086 62.3761H87.8675L87.7318 62.0193H87.1042L86.9741 62.3761H86.6385L87.2468 60.8103H87.5817L88.2086 62.3761ZM87.629 61.7547L87.4118 61.1751L87.2001 61.7547H87.629ZM89.0037 62.3761V60.8103H89.31L89.9543 61.8593V60.8103H90.2475V62.3761H89.9307L89.2963 61.3463V62.3761H89.0037ZM91.5605 62.3761V61.0749H91.0967V60.8103H92.3388V61.0749H91.8774V62.3761H91.5605ZM93.1699 62.3761V60.8103H94.3291V61.0749H93.4868V61.4223H94.27V61.6869H93.4868V62.1115H94.3596V62.3761H93.1699ZM95.2542 62.3761V60.8103H95.5612L96.2055 61.8593V60.8103H96.4988V62.3761H96.1819L95.5475 61.3463V62.3761H95.2542Z" fill="#221E1F"/>
</g>
</g>
<rect x="1" y="1" width="110" height="110" rx="9" stroke="#CCCCCC" stroke-width="2"/>
<defs>
<clipPath id="clip0_421_544">
<rect x="2" y="2" width="108" height="108" rx="8" fill="white"/>
</clipPath>
<clipPath id="clip1_421_544">
<rect width="80" height="14.9416" fill="white" transform="translate(16.5 48.5293)"/>
</clipPath>
</defs>
</svg>
