<svg width="112" height="112" viewBox="0 0 112 112" fill="none" xmlns="http://www.w3.org/2000/svg">
<g clip-path="url(#clip0_421_548)">
<rect x="2" y="2" width="108" height="108" rx="8" fill="white"/>
<path d="M27.3297 45C21.0815 45 16.0171 50.0636 16.0171 56.3118C16.0171 62.5597 21.0815 67.624 27.3297 67.624C33.5772 67.624 38.6419 62.5597 38.6419 56.3118C38.6419 50.0636 33.5772 45 27.3297 45ZM18.4495 56.3118C18.4495 51.8607 21.7242 48.1789 25.9953 47.5356V51.6903L24.1453 51.6966C22.7545 51.6966 21.911 52.7178 21.911 54.1074V58.4617C21.911 59.8521 23.0506 60.9244 24.4405 60.9244L25.9881 60.9249L25.9952 65.0956C21.7242 64.4512 18.4495 60.7621 18.4495 56.3118ZM24.5986 58.489C24.5986 58.489 24.475 58.4763 24.4133 58.369C24.353 58.2637 24.3694 58.2078 24.3694 58.2078V54.4302C24.3694 54.4302 24.3633 54.2965 24.4366 54.2154C24.5053 54.1382 24.633 54.135 24.633 54.135H29.9732C29.9732 54.135 30.0584 54.1231 30.1568 54.1771C30.2412 54.2222 30.2888 54.4003 30.2888 54.4003V58.2769C30.2888 58.2769 30.2412 58.3845 30.1959 58.4222C30.1527 58.459 30.0651 58.4878 30.0651 58.4878L28.652 58.4905L24.5986 58.489ZM28.6289 65.1028L28.6209 60.8957H30.2873C31.6781 60.8957 32.6992 59.8521 32.6992 58.4619V54.1075C32.6992 52.7179 31.5912 51.7032 30.2013 51.7032L28.6209 51.7048L28.6201 47.5253C32.9132 48.1504 36.2092 51.846 36.2092 56.312C36.2092 60.7762 32.92 64.4773 28.6289 65.1028Z" fill="#B30738"/>
<path d="M91.5985 66.6496L91.6485 66.5353C91.682 66.5008 91.8813 66.4493 91.9626 66.3478C92.0396 66.2465 93.6968 62.4967 93.6968 62.4967L93.7984 62.471L95.32 65.9654C95.4215 66.1956 95.4904 66.351 95.5488 66.4074C95.6099 66.4609 95.7622 66.5263 95.8647 66.5354C95.9255 66.5401 95.8902 66.6286 95.8902 66.6286L94.2183 66.6263C94.2183 66.6263 94.1074 66.5416 94.2183 66.4986C94.2861 66.4723 94.555 66.3905 94.5983 66.2199C94.6167 66.1444 94.5811 65.9655 94.5043 65.7616C94.4511 65.618 94.2994 65.3024 94.2148 65.2423C94.1387 65.189 93.8239 65.2175 93.5347 65.2091C93.2715 65.2015 92.9225 65.1915 92.8124 65.2511C92.6739 65.3254 92.5224 65.9014 92.4896 65.9912C92.4592 66.0779 92.4896 66.2802 92.5659 66.34C92.6937 66.4396 92.9485 66.5183 93.0412 66.5444L93.0668 66.646L91.5985 66.6496ZM94.1296 64.9364C94.1724 64.8809 94.0148 64.5687 93.8661 64.2391C93.756 63.9932 93.5691 63.5157 93.5093 63.534C93.4669 63.5464 93.314 63.9248 93.1953 64.1967C93.067 64.4902 92.9116 64.858 92.9734 64.9188C93.0101 64.9559 93.2971 64.9791 93.535 64.9704C93.8076 64.9608 94.0912 64.9884 94.1296 64.9364ZM47.5953 65.7588C47.6841 65.3231 47.5863 65.0359 47.332 64.8233C47.2107 64.722 46.888 64.5685 46.6256 64.5685C46.2641 64.5685 46.0264 64.5343 46.0264 64.9372L46.0304 65.9203C46.0304 66.4719 46.7192 66.4132 46.7192 66.4132C47.2806 66.4132 47.5274 66.0896 47.5953 65.7588ZM58.4682 66.4896C58.4745 66.4971 58.6811 66.4381 58.7755 66.2936C58.8248 66.2173 58.8856 66.1128 58.8856 65.8522V63.2506C58.8856 63.089 58.8356 62.9333 58.7667 62.8678C58.7003 62.8022 58.5943 62.7334 58.3591 62.7154C58.3591 62.7154 58.1796 62.6042 58.3591 62.5542L59.931 62.5507C59.931 62.5507 60.0762 62.596 59.9492 62.6642C59.8354 62.7243 59.7354 62.6814 59.6444 62.7837C59.5812 62.8547 59.5428 62.9935 59.5404 63.2145V64.4997C59.5404 64.5509 59.5903 64.6261 59.6083 64.6277C59.6927 64.6362 59.7443 64.5317 59.7872 64.5089C59.9575 64.3641 60.22 64.0808 60.4584 63.8541C60.8855 63.4477 61.1011 63.2362 61.1725 63.1396C61.266 63.013 61.284 62.834 61.2328 62.7741C61.1725 62.7065 61.0452 62.7065 60.9348 62.6721C60.9348 62.6721 60.8328 62.604 60.9512 62.5622H62.3543C62.3543 62.5622 62.4052 62.6893 62.3287 62.7232C62.1346 62.7412 62.063 62.7824 61.9466 62.8425C61.8347 62.8995 61.6026 63.0617 61.4027 63.2588C61.4027 63.2588 60.3771 64.1411 60.4159 64.2454C60.4755 64.4063 61.0676 65.0999 61.47 65.6556C61.6426 65.8952 61.8139 66.1936 61.9123 66.2686C62.0074 66.3374 62.1582 66.4811 62.2863 66.4811C62.4347 66.4811 62.3631 66.6169 62.3631 66.6169C62.3631 66.6169 61.5648 66.5871 61.4279 66.5998C61.3339 66.6082 61.2215 66.4379 61.2215 66.4379C60.9099 66.0302 60.0159 64.7806 59.9492 64.7035C59.9148 64.6782 59.549 64.9503 59.5404 65.1804V65.9365C59.5404 66.1637 59.5935 66.2791 59.6592 66.3452C59.77 66.4549 60.0496 66.4893 60.0496 66.481C60.1788 66.5149 60.0927 66.6006 60.0927 66.6006H58.401C58.401 66.6008 58.3419 66.5153 58.4682 66.4896ZM53.2273 66.4913C53.3419 66.4473 53.5512 66.316 53.632 66.226C53.7084 66.136 53.7667 66.0572 53.7667 65.7324C53.7667 65.7324 53.7495 63.7605 53.7495 63.4713C53.7495 63.2333 53.6658 62.9184 53.5552 62.8338C53.4435 62.748 53.3116 62.695 53.1723 62.6894C53.1723 62.6894 53.0624 62.5702 53.1812 62.5445H54.2437L56.7608 65.3249C56.7608 65.3249 56.8582 65.4464 56.913 65.4185L56.9363 65.2834C56.9474 65.0702 56.9387 63.4349 56.9387 63.4349C56.9387 63.2591 56.9723 63.0639 56.8534 62.9274C56.7012 62.7535 56.3982 62.7227 56.3091 62.6895C56.2411 62.6642 56.2411 62.5875 56.3174 62.5624H57.6608C57.7543 62.5704 57.6871 62.6644 57.6871 62.6644C57.5338 62.7068 57.3847 62.7403 57.3131 62.8341C57.2281 62.9444 57.1841 63.1101 57.1841 63.4352V66.6745H57.0717C57.0717 66.6745 54.3076 63.6716 54.1413 63.5059C54.0657 63.4295 54.0398 63.5312 54.0398 63.6336C54.0398 63.7351 54.0322 65.6992 54.0322 65.6992C54.0322 66.0363 54.0999 66.2431 54.315 66.3561C54.3985 66.4003 54.6149 66.4544 54.7118 66.4724C54.7538 66.4813 54.7751 66.6032 54.7751 66.6032H53.2275C53.2273 66.6028 53.1864 66.5069 53.2273 66.4913ZM48.642 66.6132L48.692 66.4983C48.7264 66.4643 48.9264 66.4131 49.0067 66.3112C49.0831 66.2087 50.7403 62.4597 50.7403 62.4597L50.8435 62.434L52.3654 65.9285C52.4666 66.158 52.5338 66.314 52.5942 66.3703C52.6543 66.4243 52.8066 66.4895 52.9083 66.4983C52.9699 66.5032 52.9347 66.5916 52.9347 66.5916L51.2418 66.6339C51.2418 66.6339 51.1831 66.5407 51.2934 66.4983C51.3621 66.4719 51.6002 66.3536 51.6418 66.1832C51.6614 66.1072 51.6246 65.9284 51.5483 65.7249C51.4949 65.5809 51.345 65.2652 51.2599 65.2056C51.1838 65.1522 50.8682 65.1806 50.5795 65.1721C50.3154 65.1638 49.9667 65.1545 49.8574 65.2146C49.7182 65.2891 49.566 65.8642 49.5339 65.9537C49.5035 66.0411 49.5339 66.243 49.6099 66.3022C49.7386 66.4022 49.9928 66.4814 50.0863 66.5065L50.1115 66.6087L48.642 66.6132ZM51.1748 64.8997C51.2161 64.8437 51.0593 64.5325 50.9116 64.2029C50.7997 63.9562 50.6141 63.4784 50.5537 63.4968C50.5108 63.5105 50.3583 63.8877 50.2387 64.1597C50.1101 64.4544 49.956 64.8212 50.0184 64.8829C50.0552 64.9189 50.3422 64.9416 50.5796 64.9339C50.852 64.924 51.1364 64.9522 51.1748 64.8997ZM47.392 63.601C47.3952 63.327 47.2349 63.0741 47.0592 62.9273C46.9575 62.8426 46.7625 62.7404 46.5412 62.7404C46.2349 62.7404 46.0333 62.7825 46.0333 63.072L46.0304 64.1512C46.0052 64.4063 46.6161 64.3416 46.6161 64.3416C47.1281 64.3416 47.3828 64.271 47.392 63.601ZM44.815 66.4868C45.0194 66.4304 45.1694 66.3802 45.2323 66.302C45.2999 66.2173 45.3234 66.1635 45.3266 65.9335V63.2098C45.3251 63.0465 45.283 62.953 45.189 62.8507C45.0062 62.6512 44.7891 62.7824 44.7562 62.7065C44.7307 62.6497 44.7382 62.5473 44.7382 62.5473H46.4529C46.9437 62.5473 47.2685 62.5685 47.561 62.7153C47.7822 62.8261 48.0461 63.0889 48.0461 63.4853C48.0461 64.0333 47.6038 64.2277 47.4258 64.3553C47.7658 64.4488 48.3264 64.6449 48.3264 65.2824C48.3264 65.9449 47.9609 66.3622 47.6125 66.4721C47.3733 66.549 47.0749 66.5942 46.7342 66.5969H44.8149L44.815 66.4868ZM69.4621 66.5232C69.4621 66.5352 69.6745 66.4552 69.768 66.379C69.8353 66.3234 69.8869 66.2111 69.8869 65.9448L69.8957 63.3693C69.8957 63.154 69.8688 63.0545 69.7932 62.9352C69.7164 62.8181 69.5293 62.7911 69.3089 62.7567C69.3089 62.7567 69.1481 62.6379 69.2613 62.5891C69.2489 62.587 70.4541 62.5955 71.0345 62.6039C71.6301 62.6134 72.2237 62.5555 72.2846 62.5955C72.3614 62.647 72.3206 63.2193 72.3354 63.3268C72.3434 63.3859 72.2974 63.5071 72.2418 63.5139C72.1738 63.5223 72.1575 63.4007 72.1575 63.3268C72.1575 63.1735 72.0278 62.9963 71.9959 62.9528C71.9139 62.8441 71.7574 62.8224 71.682 62.8224H70.7668C70.6857 62.8224 70.6623 62.8208 70.6348 62.8507C70.6139 62.8782 70.5788 62.9459 70.5756 63.0296V64.1594C70.5756 64.2275 70.5789 64.3239 70.6176 64.3383C70.7125 64.3719 71.3231 64.364 71.3231 64.364C71.4263 64.364 71.5451 64.2615 71.5795 64.2028C71.632 64.1107 71.7199 64 71.766 63.8619C71.792 63.786 71.9272 63.7261 71.9272 63.8966C71.9272 64.0038 71.9452 65.2228 71.9452 65.2228C71.8764 65.3165 71.8176 65.1974 71.8176 65.1974C71.7715 64.9608 71.7305 64.8753 71.6551 64.798C71.5841 64.7205 71.4763 64.6277 71.3231 64.6277L70.7968 64.6201C70.6012 64.6024 70.5928 64.8149 70.584 64.8913L70.5755 65.9801C70.584 66.0898 70.6099 66.2369 70.678 66.3022C70.7468 66.3622 70.9207 66.4853 71.1536 66.5065C71.2656 66.5154 71.188 66.6402 71.188 66.6402H69.4189C69.4189 66.6401 69.3337 66.5831 69.4621 66.5232ZM65.2278 63.0465C65.6042 62.687 66.1489 62.5309 66.6989 62.5282C67.249 62.5282 67.7049 62.6142 68.0838 62.9782C68.4908 63.3697 68.7024 63.8541 68.7057 64.5089C68.7057 65.172 68.4918 65.7128 68.0672 66.107C67.6908 66.4564 67.1596 66.664 66.6213 66.6668C66.0473 66.6668 65.4972 66.512 65.1172 66.1237C64.7344 65.7296 64.5932 65.2013 64.5901 64.5761C64.5901 63.9249 64.8154 63.444 65.2278 63.0465ZM65.755 66.0047C66.0924 66.3885 66.3253 66.4719 66.7916 66.4719C67.1153 66.4719 67.4409 66.2816 67.6933 65.9801C67.9058 65.7249 68.008 65.2741 68.008 64.6104C68.008 63.9437 67.8238 63.4996 67.5746 63.1909C67.2853 62.8335 66.9722 62.752 66.6137 62.7491C66.2493 62.7491 65.8829 62.8425 65.644 63.1143C65.3837 63.4111 65.2657 63.8852 65.262 64.5343C65.262 65.1773 65.5673 65.7925 65.755 66.0047ZM87.0857 66.4897C87.0857 66.4985 87.3578 66.4045 87.4601 66.252C87.5233 66.1557 87.5644 66.0648 87.5644 65.7416L87.5282 63.1998C87.511 63.0038 87.3634 62.867 87.299 62.8338C87.2141 62.7913 87.0751 62.8013 87.0007 62.7404C87.0007 62.7404 86.8305 62.6137 86.975 62.5873C86.9641 62.5916 88.0038 62.5537 88.0178 62.5916C88.1313 62.6641 89.7553 64.4661 90.4274 65.24C90.6487 65.5029 90.7333 65.4605 90.7241 65.2056L90.7333 63.3019C90.7333 63.0296 90.5969 62.9352 90.5382 62.8931C90.414 62.8049 90.299 62.7403 90.0953 62.7045C90.0953 62.7045 89.9256 62.647 90.0953 62.5915H91.4304C91.524 62.587 91.524 62.6639 91.4304 62.6891C91.3116 62.6891 91.1684 62.7851 91.0912 62.8754C91.0133 62.966 90.9748 63.1683 90.9748 63.491L90.9708 66.5996C90.9632 66.7446 90.8264 66.6682 90.8264 66.6682C90.8264 66.6682 88.2938 63.9046 87.992 63.5669C87.988 63.5636 87.9453 63.4796 87.8717 63.5329C87.8258 63.5656 87.8201 63.5818 87.8249 63.6576L87.8324 65.7413C87.8324 66.0764 87.9477 66.26 88.0459 66.3616C88.1092 66.4275 88.2133 66.4825 88.4372 66.506C88.5732 66.4981 88.5485 66.6408 88.5485 66.6408L86.9929 66.6421C86.9931 66.6424 86.9662 66.5233 87.0857 66.4897ZM84.7226 66.5312C84.7822 66.5151 84.9108 66.4444 84.9865 66.3875C85.0578 66.3302 85.0977 66.2172 85.1005 65.9778L85.1132 63.3523C85.1045 63.1819 85.1045 62.9779 85.0201 62.8931C84.8962 62.7697 84.7577 62.7172 84.5053 62.7045C84.5053 62.7045 84.3989 62.647 84.5053 62.5915H86.1936C86.3288 62.6134 86.1757 62.7045 86.1757 62.7045C86.0404 62.7063 85.9312 62.7776 85.8787 62.8424C85.8013 62.935 85.8044 63.1258 85.7927 63.2675V65.9778C85.7927 66.2142 85.8716 66.3535 85.9469 66.4131C86.0177 66.4671 86.1036 66.5111 86.3545 66.5323C86.5159 66.5576 86.3545 66.6422 86.3545 66.6422L84.7226 66.641C84.5946 66.6 84.7226 66.5312 84.7226 66.5312ZM79.4179 66.5153C79.4071 66.5165 79.6718 66.3433 79.7315 66.2769C79.7915 66.2144 79.8422 66.1093 79.8422 65.8436L79.8594 63.3097C79.8594 63.0914 79.815 62.9688 79.7654 62.8849C79.7062 62.7825 79.5679 62.7669 79.3406 62.7493C79.3406 62.7493 79.017 62.6722 79.3151 62.5959H80.9047C81.0757 62.6041 80.9314 62.7049 80.9314 62.7049C80.803 62.7066 80.7007 62.7493 80.6367 62.8275C80.5798 62.9003 80.5235 63.0299 80.5358 63.2551V64.1514C80.5358 64.1514 80.5235 64.3643 80.7094 64.3555C80.9826 64.3433 82.2038 64.3787 82.3922 64.3643C82.6142 64.3475 82.6562 64.2115 82.6562 64.109C82.6649 63.8545 82.6562 63.2812 82.6562 63.2812C82.6562 63.0627 82.5977 62.8964 82.5327 62.8276C82.4662 62.7628 82.3202 62.7235 82.0922 62.705C81.9334 62.6815 82.0438 62.592 82.0438 62.592L83.7357 62.5936C83.7357 62.5936 83.8209 62.6895 83.6849 62.7067C83.5485 62.6979 83.493 62.7599 83.4249 62.8276C83.3585 62.8936 83.3257 63.0344 83.3257 63.2552L83.3281 65.9539C83.3281 66.1754 83.3717 66.2459 83.439 66.3114C83.5043 66.3707 83.5774 66.474 83.8036 66.4986C83.9225 66.5154 83.974 66.6341 83.838 66.6426L82.2904 66.677C82.2904 66.677 82.0865 66.5835 82.3161 66.5067C82.3161 66.5155 82.4945 66.4476 82.5633 66.3371C82.6078 66.2626 82.6396 66.0651 82.6396 65.9287C82.6396 65.9287 82.6485 64.9855 82.6485 64.8399C82.6485 64.7388 82.6141 64.6028 82.478 64.6278C82.478 64.6278 80.8193 64.6235 80.6841 64.6106C80.5905 64.6028 80.5304 64.653 80.5304 64.8319V65.9031C80.5304 66.124 80.649 66.3051 80.7176 66.3708C80.7841 66.4335 80.9067 66.4943 81.1349 66.5155C81.3304 66.5412 81.1848 66.6427 81.1848 66.6427L79.3764 66.6414C79.3766 66.6413 79.2728 66.5496 79.4179 66.5153ZM77.7251 62.7065C77.9408 62.8185 78.1164 62.9097 78.2104 62.9021C78.2687 62.896 78.3165 62.7777 78.3368 62.7065C78.4315 62.5784 78.4652 62.8081 78.4652 62.8003L78.5408 63.9471C78.5408 63.9471 78.4652 64.0588 78.3884 63.9471C78.308 63.6751 78.0949 63.3756 77.9465 63.2163C77.7252 62.978 77.3253 62.7392 76.9001 62.7315C76.4165 62.7231 76.0808 62.9218 75.8293 63.2331C75.6165 63.4968 75.4892 63.9393 75.4892 64.3983C75.4892 64.9414 75.7197 65.5718 76.0424 65.8773C76.3554 66.1742 76.6908 66.3242 77.1307 66.3278C77.4471 66.3278 77.6259 66.2418 77.8955 66.0894C78.048 66.0063 78.2547 65.7815 78.4391 65.6055C78.5492 65.512 78.6095 65.6396 78.6095 65.6396C78.6267 65.7324 78.2752 66.0995 77.9892 66.3279C77.7759 66.4983 77.2235 66.694 76.9432 66.694C76.286 66.694 75.9063 66.6596 75.3277 66.1408C75.0008 65.8473 74.8182 65.2397 74.8145 64.6573C74.8145 64.062 75.004 63.5625 75.3793 63.1565C75.7745 62.7317 76.2884 62.52 76.9283 62.52C77.1491 62.52 77.5136 62.5959 77.7251 62.7065ZM61.0258 50.9927C61.0523 50.9426 61.0593 51.0354 61.1851 51.173C61.3112 51.3099 61.2334 51.3522 61.3087 51.4626C61.3835 51.5748 61.3843 51.5152 61.3654 51.6426C61.3479 51.7691 61.3228 51.7435 61.2103 51.8355C61.0991 51.9262 61.1931 51.8855 61.0834 51.7743C60.975 51.6624 61.0702 51.5022 60.9618 51.4075C60.8522 51.313 60.844 51.313 60.8704 51.1608C60.8979 51.0083 60.999 51.0436 61.0258 50.9927ZM60.5961 51.4119C60.6477 51.3786 60.7391 51.5326 60.8054 51.6946C60.8701 51.8565 60.871 51.8221 60.9283 52.0014C60.9858 52.1809 60.9695 52.0954 60.8235 52.2629C60.6767 52.4318 60.4823 52.4117 60.2851 52.5877C60.0874 52.7637 60.0022 52.7116 59.8234 52.8369C59.6438 52.962 59.6695 52.9202 59.5178 52.859C59.3656 52.7977 59.375 52.7545 59.4782 52.6286C59.5807 52.503 59.5642 52.5706 59.6407 52.5039C59.7178 52.4364 59.5487 52.4263 59.6334 52.3591C59.7194 52.2927 59.7095 52.3855 59.8471 52.2352C59.985 52.0835 59.944 52.0571 59.9954 51.9647C60.047 51.8723 60.1077 51.7628 60.2538 51.696C60.3987 51.6303 60.5454 51.4451 60.5961 51.4119ZM61.7134 47.7935C61.7642 47.7691 61.875 47.7707 61.9931 47.7886C62.0627 47.7998 61.9415 47.7707 62.2398 47.7578C62.3921 47.7513 62.4766 47.8286 62.6119 47.9066C62.9283 48.0897 63.1505 48.1538 63.2184 48.2539C63.2765 48.3382 63.321 48.5038 63.2986 48.6282C63.2805 48.7293 63.2702 48.9245 63.1406 49.0332C63.0299 49.1277 62.965 49.2137 62.9095 49.2685C62.8572 49.3189 62.8767 49.4712 62.7867 49.5041C62.6766 49.5456 62.5924 49.4686 62.4571 49.4668C62.3118 49.4643 62.2006 49.548 62.1587 49.5048C62.1283 49.4735 62.0955 49.4216 62.0423 49.3851C61.9916 49.3502 61.9163 49.3755 61.9071 49.3152C61.8915 49.2211 61.7736 48.9719 61.6828 48.88C61.649 48.8456 61.7342 48.6668 61.6867 48.6079C61.6359 48.5475 61.6454 48.4543 61.6374 48.3951C61.6299 48.3332 61.6305 48.2815 61.6314 48.2167C61.6323 48.1575 61.5531 48.0626 61.5915 47.9871C61.6179 47.9371 61.6571 47.8208 61.7134 47.7935ZM60.3382 48.8623C60.307 48.7006 60.4932 48.7459 60.6635 48.6542C60.835 48.5626 60.7491 48.587 60.799 48.723C60.8487 48.8599 60.7478 48.7317 60.7031 48.9178C60.6595 49.1037 60.6595 49.0702 60.5391 49.1538C60.4194 49.2362 60.4366 49.1442 60.3792 49.0497C60.321 48.9552 60.3711 49.0239 60.3382 48.8623ZM58.3006 47.8372C58.2662 47.7577 58.475 47.4824 59.0258 46.7936C59.5153 46.1819 60.5323 45.7759 60.9498 45.6292C61.039 45.5972 61.3342 45.5112 61.4359 45.4897C61.5127 45.474 61.8219 45.4608 61.8945 45.436C62.0398 45.3873 62.2834 45.4048 62.3282 45.382C62.4342 45.3312 62.5462 45.3024 62.6693 45.276C62.8109 45.246 62.9914 45.3224 63.1193 45.2983C63.3677 45.2523 63.5632 45.3939 63.7022 45.4671C64.1826 45.7193 64.7069 46.6083 64.9045 47.1115C65.1022 47.6147 65.5086 49.0287 65.5797 50.1842C65.6256 50.9263 65.5977 52.8662 65.5692 53.1634C65.5176 53.6926 65.4961 54.9354 65.4592 55.173C65.4153 55.4598 65.382 55.9538 65.278 56.1306C65.0857 56.4573 64.3044 57.0402 64.1357 57.1938C63.9986 57.3201 63.4076 57.8343 63.339 57.8299C63.2537 57.8238 63.1545 57.649 62.9693 57.4688C62.6397 57.146 61.7807 56.8428 61.4179 56.6435C61.0619 56.4468 59.8947 56.3383 59.1816 56.2934C58.6728 56.2619 57.8932 56.1934 57.8679 56.1334C57.84 56.0663 57.7836 56.0895 57.7064 56.0884C57.6368 56.0879 57.6299 56.1732 57.6128 56.206C57.5859 56.2567 57.6464 56.2319 57.6196 56.3764C57.5916 56.5204 57.6604 56.4275 57.676 56.5468C57.6924 56.6664 57.7433 56.6155 57.6993 56.7253C57.6564 56.8353 57.8761 56.9144 57.9165 57.0337C57.9654 57.1753 57.963 57.3568 57.8113 57.3633C57.6465 57.3707 57.5025 57.4356 57.3269 57.3744C57.1993 57.33 56.7631 56.9347 56.741 56.6875C56.7213 56.4773 56.6926 55.9904 56.6754 55.8385C56.6442 55.5673 56.5424 54.8525 56.5137 54.4956C56.483 54.1383 56.449 54.2145 56.5183 54.0708C56.5879 53.9276 56.4099 53.906 56.4713 53.7144C56.5158 53.5779 56.459 53.3169 56.5378 53.1468C56.573 53.0704 56.4816 53.0704 56.4885 52.9929C56.499 52.8904 56.5082 52.8232 56.5346 52.722C56.5558 52.644 56.545 52.552 56.5386 52.4076C56.5317 52.2632 56.5326 52.2039 56.5942 52.1023C56.631 52.0396 56.5607 52.0083 56.5706 51.882C56.5762 51.8083 56.6646 51.1437 56.7009 50.89C56.7388 50.6372 56.7941 49.9621 56.841 49.8733C56.9714 49.6288 57.0459 49.0782 57.0993 48.8828C57.1558 48.6771 57.3361 48.4929 57.3779 48.3343C57.3959 48.2672 57.5058 48.2093 57.5491 48.2356C57.6076 48.2708 57.6318 48.4493 57.6311 48.5164C57.6295 48.6156 57.5639 49.0447 57.5215 49.1347C57.4683 49.2444 57.4122 49.6414 57.4043 49.7024C57.3879 49.8083 57.3839 49.9312 57.3747 50.0072C57.3646 50.0837 57.313 50.1852 57.2864 50.2692C57.2656 50.3389 57.3034 50.4795 57.2828 50.5492C57.2567 50.6423 57.2648 50.7024 57.2209 50.7776C57.1796 50.8504 57.2444 50.9221 57.2183 50.9817C57.1855 51.0548 57.2503 51.1264 57.1991 51.2101C57.1452 51.2976 57.2348 51.3173 57.2051 51.4309C57.169 51.5673 57.1755 51.6773 57.1411 51.744C57.1067 51.8116 57.2051 51.9008 57.1714 52.0252C57.1271 52.1945 57.1575 53.1552 57.1312 53.3489C57.1028 53.5432 57.1124 54.1544 57.1354 54.2656C57.1518 54.3419 57.1584 54.4948 57.2264 54.4864C57.3107 54.4772 57.3255 54.2024 57.4075 54.218C57.4591 54.2272 57.4255 54.3839 57.4387 54.4893C57.4624 54.6853 57.4467 54.5185 57.4935 54.8637C57.5247 55.0938 57.4856 55.4748 57.5182 55.5945C57.5502 55.7137 57.5326 55.8232 57.6598 55.8248C57.7698 55.8264 57.7286 55.7408 57.8153 55.6321C57.9011 55.522 57.9067 55.5061 57.977 55.5572C58.036 55.6006 58.4516 55.5968 58.5878 55.5736C58.7638 55.5421 58.8861 55.3967 59.0074 55.3067C59.1526 55.1984 59.7189 54.6619 60.0026 54.4192C60.131 54.3096 60.4846 53.8903 60.6221 53.756C60.8501 53.534 61.2025 53.1672 61.2573 53.102C61.3009 53.0516 61.319 52.9837 61.2688 52.8897C61.2393 52.8329 61.1933 52.8209 61.1335 52.8544C60.9867 52.9363 60.7993 53.1809 60.6531 53.2732C60.398 53.4337 60.0768 53.6511 59.8999 53.756C59.7038 53.8717 59.4212 54.0044 59.2423 54.104C59.0111 54.2336 58.7516 54.3172 58.7127 54.3356C58.6276 54.3776 58.5972 54.4025 58.518 54.3413C58.4508 54.2901 58.4713 54.3205 58.5376 54.104C58.5823 53.96 58.4681 53.8032 58.6293 53.596C58.7325 53.4616 58.8302 53.115 58.9941 52.9133C59.0524 52.8405 59.3688 52.4461 59.4336 52.3409C59.4861 52.2574 59.59 52.211 59.6055 52.1826C59.6581 52.0797 59.7228 51.9541 59.7532 51.9373C59.8604 51.8813 59.9681 51.7221 59.9843 51.7025C60.0203 51.662 60.0336 51.6357 60.012 51.5676C60.0032 51.5416 59.9489 51.4468 59.8844 51.5236C59.8164 51.6073 59.6891 51.6312 59.6375 51.6649C59.5417 51.7266 59.5671 51.8425 59.4735 51.8494C59.3359 51.8601 59.3487 51.6357 59.3663 51.5601C59.3882 51.4709 59.317 51.4485 59.3602 51.3553C59.4611 51.1422 59.4315 51.1189 59.4579 51.0773C59.4834 51.0347 59.507 51.0673 59.5602 51.0021C59.5947 50.9593 59.5282 50.9001 59.5702 50.8489C59.6577 50.7472 59.6826 50.6256 59.7694 50.5709C59.8634 50.5132 60.0273 50.2944 60.0445 50.2357C60.0662 50.1629 60.0733 50.0889 60.0984 50.0149C60.1076 49.9892 60.0108 49.976 59.9724 49.9289C59.9305 49.8773 59.9652 49.8436 59.9825 49.7504C59.9921 49.6999 59.8914 49.6384 59.8922 49.5713C59.893 49.4945 59.8841 49.4609 59.7913 49.4681C59.6977 49.4752 59.4938 49.6865 59.3306 49.7173C59.1595 49.7489 59.0249 49.628 59.1126 49.4601C59.2203 49.2504 59.4748 48.9469 59.5264 48.8868C59.603 48.8008 59.5884 48.7193 59.5806 48.634C59.5725 48.5468 59.4937 48.3533 59.4676 48.148C59.4527 48.0293 59.3232 47.5889 59.2968 47.5357C59.2804 47.5018 59.242 47.396 59.3413 47.3576C59.3842 47.3409 59.4685 47.4354 59.5264 47.5209C59.615 47.6502 59.7514 47.8889 59.7922 47.9745C59.8437 48.0805 59.893 48.1888 59.9161 48.2725C59.9322 48.333 59.9733 48.4434 60.0586 48.4533C60.1421 48.4621 60.1946 48.4545 60.2462 48.4042C60.3335 48.319 60.7859 48.1413 60.9798 48.0734C61.0734 48.0409 61.125 48.0242 61.225 48.0854C61.2821 48.1194 61.3505 48.3161 61.3841 48.333C61.4529 48.3693 61.4857 48.3601 61.4677 48.4109C61.456 48.4442 61.4677 48.4272 61.382 48.5288C61.2952 48.6291 61.3709 48.6644 61.2857 48.7999C61.1984 48.9341 61.128 49.1191 61.0929 49.2031C61.0592 49.2855 60.9812 49.3208 60.9216 49.3804C60.852 49.4476 60.8763 49.5408 60.8428 49.5575C60.7362 49.6091 60.7387 49.5927 60.7053 49.6663C60.6709 49.7415 60.6521 49.8599 60.7356 50.0146C60.7765 50.0911 60.8528 50.1086 60.8684 50.1687C60.8997 50.2827 60.9781 50.2804 61.0201 50.34C61.0913 50.4436 61.0781 50.4371 61.1193 50.5033C61.1952 50.6225 61.1856 50.5724 61.2797 50.6404C61.3381 50.683 61.3872 50.8204 61.4536 50.8892C61.564 51.0008 61.7059 51.0872 61.8068 51.2076C61.888 51.3041 61.8905 51.3528 61.8804 51.4377C61.8649 51.5807 61.8967 51.4973 61.8444 51.5979C61.806 51.6736 61.8421 51.7764 61.8412 51.8272C61.8405 51.9212 61.8397 51.9883 61.7796 52.0732C61.7184 52.1568 61.5468 52.3756 61.5116 52.46C61.4824 52.53 61.4585 52.6032 61.4929 52.6376C61.5388 52.6856 61.5764 52.7068 61.6364 52.6655C61.7452 52.5891 62.0676 52.0599 62.3436 51.7059C62.4911 51.5179 62.7942 51.0154 62.8639 50.8807C62.9347 50.7423 63.1488 50.4818 63.1918 50.4262C63.2174 50.3927 63.2935 50.3934 63.3099 50.453C63.3238 50.5058 63.3003 50.5635 63.3158 50.5982C63.3394 50.6438 63.4002 50.6159 63.4089 50.6919C63.4158 50.7687 63.4238 50.8026 63.3981 50.8441C63.3786 50.877 63.4457 50.8946 63.4058 50.9634C63.3705 51.023 63.4121 51.1419 63.3173 51.2511C63.1823 51.4067 62.8501 51.8473 62.7131 52.025C62.5239 52.269 61.9722 52.9238 61.8871 52.9997C61.8403 53.0394 61.7839 53.129 61.8083 53.1852C61.8495 53.2793 62.0074 53.5438 62.1002 53.6213C62.2198 53.7209 62.4698 53.8713 62.581 53.8736C62.7114 53.8752 62.7974 53.8368 62.845 53.8001C63.0502 53.6409 63.215 53.2952 63.2854 53.1261C63.3829 52.8914 63.5411 52.4077 63.5503 52.3325C63.5647 52.2133 63.5107 52.0848 63.5199 52.0425C63.5319 51.9905 63.605 52.0014 63.6215 52.053C63.6427 52.121 63.6616 52.2486 63.6771 52.3333C63.7042 52.4747 63.4895 53.1969 63.4519 53.4425C63.4059 53.7393 63.0475 54.2456 63.0167 54.3206C62.9986 54.3621 63.0066 54.4301 62.9214 54.437C62.8223 54.4466 62.7861 54.4185 62.7271 54.4017C62.5066 54.3392 62.3215 54.1842 62.1802 54.0549C62.0369 53.9261 61.7019 53.5145 61.6597 53.4457C61.6294 53.3945 61.5182 53.3173 61.4666 53.3597C61.3731 53.4352 61.2339 53.6441 61.165 53.6949C61.1123 53.7338 61.0091 53.7744 60.951 53.8362C60.865 53.9286 60.7622 54.0466 60.6597 54.1382C60.5829 54.2065 60.2558 54.4479 60.1959 54.5066C60.1019 54.5991 59.9894 54.7499 59.9207 54.8001C59.8519 54.8505 59.6216 54.9913 59.5527 55.0678C59.4757 55.1518 59.3667 55.3235 59.2771 55.3611C59.2175 55.3854 59.1403 55.4861 59.1985 55.5378C59.2575 55.5894 59.4542 55.5 59.5811 55.4756C59.6822 55.4563 59.8363 55.4528 59.9474 55.4459C60.0146 55.4403 60.0778 55.3691 60.2363 55.3215C60.3739 55.281 60.4659 55.3411 60.5255 55.3251C60.5996 55.3051 60.6451 55.2759 60.7646 55.2431C60.8976 55.2071 61.0788 55.2304 61.155 55.1976C61.2098 55.1731 61.2075 55.1559 61.3098 55.0888C61.3763 55.0452 61.4652 55.0856 61.5388 55.0664C61.6887 55.0272 61.8367 54.9807 61.9822 54.9272C62.1232 54.8756 62.5787 54.7649 62.6466 54.7573C62.7114 54.7501 62.8092 54.6068 62.9198 54.5656C63.0607 54.5132 63.3287 54.5614 63.4386 54.4953C63.5042 54.456 63.6541 54.5425 63.7245 54.6688C63.8165 54.8313 63.7128 54.9145 63.6876 55.0076C63.6198 55.2412 63.5558 55.346 63.4786 55.4297C63.4002 55.5132 63.3729 55.6657 63.2459 55.6993C63.0994 55.7353 63.023 55.7568 62.8638 55.6852C62.577 55.5539 62.4222 55.6797 62.2534 55.6441C62.0011 55.5897 61.9041 55.716 61.7854 55.7052C61.7262 55.7012 61.5353 55.6693 61.4801 55.7024C61.315 55.798 61.1822 55.7748 61.0713 55.8076C60.9785 55.8348 60.9434 55.9248 60.9934 55.968C61.081 56.0423 61.3729 56.1167 61.6113 56.1024C61.9925 56.0804 62.2722 56.1615 62.4253 56.1723C62.6535 56.1876 62.8138 56.3123 62.9246 56.3139C63.0496 56.315 63.102 56.3751 63.2287 56.4107C63.3131 56.4347 63.4146 56.4647 63.5082 56.4564C63.6107 56.4492 63.6879 56.5263 63.728 56.5098C63.8818 56.4527 63.8823 56.4663 63.9667 56.4451C64.0347 56.4295 64.173 56.2514 64.2666 56.1862C64.3872 56.1023 64.6362 55.8675 64.6878 55.7239C64.7417 55.5776 64.759 55.5131 64.8114 55.3262C64.8573 55.1695 64.7894 55.1571 64.8511 54.903C64.9058 54.6835 64.8502 54.3262 64.8943 54.1906C64.9215 54.1046 64.9131 54.0633 64.9388 53.987C64.9748 53.8843 64.9395 53.8078 64.9332 53.767C64.9256 53.7154 65.0036 53.6058 65.0036 53.5383C65.0044 53.4793 64.9379 53.427 64.9819 53.309C65.0364 53.1598 64.9935 53.003 65.0364 52.953C65.0797 52.9023 64.9881 52.817 65.014 52.7402C65.0537 52.6254 65.0568 52.1538 65.0319 51.909C65.0029 51.603 65.0487 51.1869 65.0599 51.0342C65.0651 50.9567 64.96 50.8978 64.9944 50.8302C65.042 50.7383 64.9895 50.5927 64.9739 50.4738C64.9528 50.315 64.9027 50.0232 64.8959 49.845C64.8848 49.5394 64.5994 47.7634 64.4176 47.3094C64.1631 46.6691 63.4823 45.9991 63.2043 45.877C62.9387 45.7598 62.5943 45.7758 62.3748 45.773C62.2044 45.7707 61.6003 45.8661 61.0639 46.0369C60.5872 46.1894 60.0779 46.4253 59.9117 46.5238C59.7153 46.6402 59.492 46.9094 59.3444 47.0598C59.1871 47.2241 59.146 47.419 59.102 47.507C58.9812 47.7523 59.1036 48.0591 59.1288 48.1438C59.1692 48.2885 59.1332 48.3905 59.074 48.4153C58.9412 48.4701 58.9977 48.4734 58.7505 48.5041C58.6699 48.5142 58.5215 48.4426 58.514 48.3829C58.4955 48.2355 58.3662 47.9899 58.3006 47.8372ZM95.8959 50.9274C95.7538 51.005 95.32 51.4887 95.2092 51.5382C95.102 51.5862 94.9478 51.4682 94.8538 51.4835C94.6061 51.5223 94.0168 51.6635 93.6021 51.7394C93.2544 51.803 92.6749 52.019 92.5201 52.0999C92.4093 52.1574 92.4052 52.2363 92.467 52.2942C92.6774 52.4919 92.8537 52.587 92.9545 52.7162C93.0225 52.8038 92.9185 52.8427 92.8913 52.9871C92.8577 53.1627 92.7436 53.9947 92.797 54.4458C92.8445 54.8394 93.0507 56.0245 93.1054 56.351C93.1521 56.6402 93.1939 57.0355 93.2307 57.1842C93.2827 57.3926 93.2071 57.7613 93.1298 57.8457C92.8455 58.1538 92.3986 58.6086 92.2791 58.6498C92.0991 58.7121 91.8626 58.7038 91.6946 58.5661C91.4759 58.3868 91.3947 58.0616 91.3291 57.8918C91.2162 57.5989 90.8946 57.3761 90.6662 57.2122C90.2661 56.9222 89.3858 56.4754 89.254 56.1598C89.2352 56.1151 89.2047 56.0227 89.2987 55.9901C89.475 55.9282 89.5595 56.1465 89.6776 56.2325C89.9 56.3962 90.0907 56.4413 90.2515 56.4938C90.5039 56.5774 90.9563 56.6889 91.0635 56.7245C91.3203 56.8098 91.4524 56.8489 91.6486 56.7833C91.7815 56.7386 92.0023 56.3206 92.0136 56.1417C92.0383 55.7097 91.9398 55.1988 91.9505 54.9868C91.9823 54.3769 91.9686 54.2628 92.0327 53.7997C92.0798 53.4604 91.9892 53.205 91.9999 53.0525C92.0127 52.8629 92.0143 52.5853 92.0663 52.4508C92.1095 52.3372 91.9703 52.3432 91.872 52.372C91.4031 52.5104 91.1843 52.728 90.779 52.9185C90.4971 53.0509 89.9931 53.3595 89.7874 53.4323C89.6447 53.4848 89.5298 53.684 89.4462 53.6064C89.3514 53.5188 89.2171 53.5444 89.135 53.3904C89.0141 53.166 89.2079 52.9587 89.3625 52.8671C89.566 52.7464 89.7522 52.8212 90.3765 52.5148C90.9996 52.2083 91.6749 51.8007 92.1781 51.6036C92.6702 51.4096 94.0109 51.0075 94.2069 50.966C94.4012 50.9236 94.8272 50.8852 94.8953 50.8552C95.1592 50.7396 95.3977 50.7429 95.4823 50.7272C95.5996 50.7045 95.77 50.7469 95.8724 50.7564C95.996 50.769 96.032 50.8529 95.8959 50.9274ZM90.5997 49.4624C90.7797 49.3708 90.8282 49.5836 90.8881 49.5845C91.0652 49.5864 91.2256 49.6068 91.4485 49.5329C91.6184 49.4745 92.6946 48.9361 93.06 48.8468C93.6864 48.6953 94.5599 48.4497 94.8647 48.4696C94.9675 48.4765 94.9747 48.5476 94.8715 48.6061C94.7569 48.6717 94.7248 48.8336 94.6304 48.9252C94.5692 48.9853 94.5944 49.1713 94.541 49.2381C94.4794 49.3204 94.3871 49.364 94.2771 49.3625C94.1059 49.3609 94.0895 49.3609 93.9805 49.3593C93.8544 49.3577 93.6028 49.5181 93.5109 49.54C93.4773 49.548 93.3905 49.4749 93.3085 49.4529C93.114 49.4001 92.3755 49.6936 92.0896 49.8194C91.7913 49.9521 91.2609 50.2133 90.9951 50.4942C90.892 50.603 90.7864 50.8062 90.6191 50.7102C90.4659 50.6234 90.4036 50.2742 90.363 50.1213C90.3274 49.9883 90.3454 49.5919 90.5997 49.4624ZM89.6413 45.2739C89.8021 45.3012 90.0989 46.0263 90.2653 46.351C90.3185 46.4567 90.3537 46.6255 90.3857 46.896C90.4013 47.0234 90.5169 47.2627 90.4872 47.5512C90.4733 47.6947 90.5152 47.954 90.4649 48.0763C90.4289 48.1611 90.2929 48.2438 90.2922 48.3635C90.2905 48.4339 90.179 48.591 90.1101 48.6578C90.0013 48.7623 89.9348 49.0395 89.8653 49.1306C89.7364 49.2981 89.4093 49.2926 89.1757 49.3591C89.0044 49.4086 88.7985 49.5169 88.6192 49.6413C88.4403 49.767 88.1176 49.8785 87.8938 50.0313C87.7225 50.1482 87.371 50.5005 87.2677 50.5841C87.1961 50.6412 87.0739 50.7381 87.1881 50.8377C87.3061 50.9413 87.6372 50.8853 88.0848 51.0863C88.3803 51.219 88.6404 51.3998 88.7903 51.6465C88.9152 51.8513 88.8535 52.0305 88.7168 52.1129C88.6068 52.1792 88.5319 52.3769 88.2961 52.5741C88.1764 52.6748 88.0895 52.9312 87.8988 53.0949C87.7528 53.2204 87.2247 53.7828 87.0232 53.9332C86.9125 54.0176 86.914 54.1563 87.0961 54.2228C87.2648 54.2845 87.7889 54.6541 87.9616 54.9044C88.1453 55.1692 88.2265 55.7408 88.2601 56.2065C88.282 56.5128 88.0716 56.9771 87.9833 57.2987C87.9396 57.4587 87.9077 57.5272 87.7006 57.49C87.6477 57.4806 87.5538 57.3555 87.4661 57.2659C87.3406 57.138 87.1654 57.0859 87.0791 56.9903C86.9782 56.8784 86.839 56.8148 86.7686 56.7065C86.685 56.5782 86.6947 55.99 86.7382 55.7297C86.7742 55.5092 86.8086 55.3541 86.8635 55.1876C86.9079 55.0528 86.9939 54.6088 86.8291 54.5759C86.7351 54.5587 86.3843 54.7495 86.1971 54.8404C85.9891 54.9416 85.7524 55.0807 85.6492 55.1988C85.5337 55.3296 85.4672 55.5103 85.4489 55.6464C85.431 55.7792 85.337 55.8711 85.2769 55.8391C85.1509 55.7699 85.0261 55.8291 84.9369 55.8519C84.8104 55.8843 84.7259 55.7679 84.5824 55.7114C84.3368 55.615 84.4492 55.6894 84.2361 55.5118C84.1025 55.3997 83.8032 54.961 83.9165 54.6515C83.9776 54.4818 83.9188 54.4043 84.0916 54.2455C84.5096 53.8575 84.6728 53.6416 85.0972 53.1799C85.3205 52.9367 85.6993 52.5418 85.9316 52.3499C86.0244 52.272 86.1111 52.1336 86.1815 51.9708C86.2252 51.8699 86.4704 51.6867 86.3135 51.5819C86.1447 51.4699 85.9276 51.4575 85.8048 51.5079C85.6859 51.5572 85.6079 51.42 85.4671 51.3425C85.3408 51.2728 85.2 51.3673 85.1032 51.2961C84.9853 51.2092 84.9268 51.1489 84.818 51.072C84.7157 50.9997 84.5253 50.8956 84.6179 50.704C84.6876 50.5608 84.63 50.3561 84.7844 50.2392C84.9824 50.0892 85.1187 49.938 85.2571 49.8209C85.5227 49.595 86.2548 48.7466 86.7455 48.1837C87.262 47.591 88.2126 46.1819 88.5821 45.8038C88.6601 45.7245 88.6265 45.5393 89.021 45.3341C89.2603 45.21 89.449 45.2412 89.6413 45.2739ZM78.1963 47.146C78.2274 47.29 78.1015 47.8245 77.9514 48.2808C77.8015 48.7363 77.767 48.8887 77.6334 49.3038C77.5742 49.4884 77.4545 49.403 77.3859 49.4794C77.3087 49.5629 77.4799 49.4122 77.1531 49.7306C76.9556 49.9234 76.5384 50.1811 76.4243 50.3074C76.3651 50.3746 76.2382 50.3394 76.2135 50.2118C76.1987 50.1279 76.1991 50.0499 76.1923 49.8803C76.1874 49.7363 76.3144 49.5582 76.3423 49.4835C76.3859 49.3646 76.4571 49.1278 76.4587 48.9751C76.4618 48.6863 76.7719 48.3003 77.0136 48.0146C77.2539 47.7291 78.1963 47.146 78.1963 47.146ZM76.6885 51.6691C76.8164 51.5763 76.8056 51.8232 76.9252 51.7991C77 51.7844 77.0628 51.6919 77.1136 51.6328C77.1565 51.5812 77.2213 51.5447 77.2653 51.7612C77.2892 51.8804 77.3112 51.9928 77.244 52.0752C77.1409 52.2003 76.5516 52.414 76.45 52.4555C76.3775 52.4846 76.3548 52.5158 76.3235 52.3691C76.2835 52.1824 76.5047 52.0828 76.5151 51.9984C76.5323 51.8432 76.5836 51.744 76.6885 51.6691ZM77.9634 54.282C78.0826 54.3003 78.3898 54.1263 78.5186 54.0263C78.6111 53.9527 78.6963 54.0616 78.6447 54.1544C78.5883 54.2539 78.385 54.4906 78.3424 54.6007C78.3165 54.6647 78.2472 54.7096 78.1963 54.6918C78.0826 54.6512 77.9723 54.6017 77.8662 54.544C77.7479 54.4763 77.8539 54.2648 77.9634 54.282ZM75.2284 54.4608C75.2688 54.3672 75.5064 54.6428 75.658 54.6787C75.8213 54.7167 76.0057 54.7935 76.2081 54.8466C76.4867 54.9191 76.7825 55.0828 76.9932 55.2296C77.1377 55.3299 77.3307 55.3691 77.4988 55.5411C77.5611 55.605 77.5392 55.6938 77.4876 55.7527C77.4283 55.821 77.3924 55.9043 77.2807 55.9794C76.9908 56.1754 76.0252 56.6856 75.8965 56.7942C75.7324 56.9335 75.4204 56.8562 75.3187 56.7615C75.2301 56.6781 75.1361 56.5507 75.1112 56.3774C75.0722 56.1049 75.0543 55.5957 75.0737 55.3502C75.0923 55.1183 75.0972 54.7648 75.2284 54.4608ZM72.1292 54.6012C72.13 54.5415 72.4361 54.4012 72.6065 54.3184C72.7722 54.2384 72.9229 54.1693 73.0673 54.154C73.1402 54.146 73.222 54.2092 73.1934 54.3003C73.1494 54.4436 72.4878 55.0811 72.2558 55.3327C72.2065 55.3864 72.1122 55.1952 72.1065 55.0764C72.0993 54.9399 72.1275 54.7303 72.1292 54.6012ZM71.6024 53.1856C71.6972 53.1748 71.736 53.3107 71.6589 53.4238C71.6073 53.4998 71.4636 53.5402 71.4292 53.4972C71.3728 53.4264 71.4229 53.3619 71.508 53.3023C71.5837 53.2515 71.5344 53.1936 71.6024 53.1856ZM72.3629 50.6823C72.5326 50.668 72.5376 50.7479 72.5488 50.7608C72.591 50.8132 72.683 51.0279 72.7489 51.1027C72.8074 51.1714 72.8532 51.2503 72.9501 51.2838C73.001 51.3005 73.0066 51.5306 72.9964 51.6327C72.986 51.7418 72.7182 51.787 72.5861 51.8897C72.5001 51.9574 72.4501 52.0106 72.3973 52.0834C72.3278 52.1753 72.3106 52.2261 72.2157 52.3098C72.1377 52.3794 72.2329 52.745 72.1744 52.9122C72.148 52.9881 72.2501 52.9809 72.3354 52.9822C72.3769 52.9829 72.3916 52.903 72.4466 52.8562C72.5158 52.7978 72.7042 52.663 72.7981 52.6066C72.8673 52.5642 72.7778 52.3334 72.8778 52.3098C72.9465 52.2937 72.951 52.5445 72.9934 52.6422C73.0261 52.719 73.1362 53.0041 73.1058 53.1189C73.0784 53.2206 73.0598 53.3333 73.0261 53.3988C72.991 53.4651 72.5809 53.6416 72.6221 53.8173C72.6465 53.9196 72.9501 53.776 73.1058 53.7893C73.2245 53.7997 73.451 53.7761 73.5565 53.7781C73.6573 53.7792 73.8541 53.9302 73.9673 54.131C74.026 54.2337 73.6081 54.5998 73.3891 54.8802C73.1736 55.1573 72.3336 55.8678 72.1621 56.0354C72.0736 56.1219 72.1317 56.4347 72.063 56.4761C71.9801 56.5261 71.9082 56.4769 71.8173 56.4981C71.7489 56.5147 71.631 56.561 71.5942 56.6403C71.5598 56.7162 71.5524 56.7762 71.6181 56.81C71.7016 56.8532 72.59 56.4059 73.0188 56.0215C73.468 55.618 74.0827 54.9983 74.3087 54.7119C74.4807 54.4941 74.4155 53.5683 74.6142 52.6623C74.7048 52.2458 74.9064 50.9008 75.0499 50.2656C75.215 49.54 75.7827 48.4133 75.8899 48.2467C75.9326 48.1804 75.8867 48.1143 75.9266 48.0524C75.9702 47.9852 75.9874 47.9341 76.1391 48.004C76.2007 48.0328 76.2988 48.1503 76.358 48.1264C76.4916 48.0696 76.2892 48.184 76.7704 47.7143C77.2515 47.2452 77.7135 47.0131 77.9703 46.8209C78.2267 46.6284 78.3991 46.4101 78.5275 46.3525C78.6327 46.3053 78.7326 46.3505 78.772 46.4581C78.8136 46.5684 78.8236 46.7305 78.7665 46.9329C78.7307 47.0601 78.6367 47.2382 78.5219 47.5068C78.4766 47.6132 78.3375 48.152 78.2392 48.446C78.1391 48.7387 78.0219 49.4396 77.9525 49.5628C77.8493 49.7475 77.9711 49.7928 77.898 49.9947C77.8737 50.06 77.7384 50.369 77.6532 50.5432C77.5656 50.7208 77.3127 51.2779 77.2611 51.3279C77.1965 51.392 77.2416 51.528 77.276 51.5828C77.3164 51.6508 77.55 51.7958 77.7096 52.1828C77.7588 52.3016 77.7432 52.4251 77.6455 52.5544C77.5768 52.6475 77.2982 52.7356 77.1416 52.8124C76.9368 52.9111 76.1164 53.3256 75.8425 53.552C75.7824 53.6015 75.6825 53.5888 75.7073 53.4993C75.7515 53.3384 75.6981 52.846 75.7598 52.6761C75.85 52.4264 75.8121 52.5244 76.0197 52.2381C76.1301 52.0853 76.3596 51.5293 76.6089 51.2526C76.6329 51.2258 76.6836 51.0833 76.6033 51.0315C76.5354 50.9881 76.4509 51.0774 76.3643 51.1047C76.3137 51.121 76.3032 51.2483 76.244 51.2735C76.1525 51.3112 76.0644 51.2167 75.9807 51.2871C75.9204 51.3376 75.8104 51.5799 75.7885 51.7434C75.7793 51.8111 75.6635 51.9001 75.6328 51.9451C75.5979 51.9959 75.6203 52.2164 75.6016 52.3694C75.5792 52.5541 75.4047 53.0259 75.362 53.2234C75.3351 53.3507 75.2829 53.6339 75.2963 53.7993C75.3032 53.8938 75.3456 53.9592 75.4126 53.9454C75.4899 53.9293 75.5431 53.7986 75.6188 53.7875C75.7128 53.7711 76.0172 53.7666 76.1522 53.8018C76.2155 53.8181 76.3308 53.8973 76.5344 53.857C76.6507 53.8346 76.8307 53.785 76.9679 53.7866C77.1038 53.7877 77.7656 53.7873 78.0462 53.7906C78.1479 53.7922 78.7204 53.5102 78.8992 53.4282C79.0471 53.3601 79.403 53.0258 79.6456 52.7746C79.7835 52.633 80.1071 52.535 80.2759 52.6133C80.3619 52.6534 80.3086 52.9053 80.1775 53.0025C80.075 53.0778 79.8275 53.21 79.7072 53.2937C79.5149 53.4278 79.2071 53.8089 79.0611 54.0577C78.9923 54.1765 78.767 54.4957 78.6547 54.698C78.6323 54.7374 78.6314 54.8377 78.7203 54.928C78.8029 55.014 79.5055 55.2009 79.835 55.3149C79.8648 55.3253 79.911 55.3841 79.979 55.3593C80.025 55.3425 80.0897 55.3189 80.097 55.4374C80.0998 55.4942 80.561 55.5073 80.6132 55.5462C80.7906 55.675 81.4668 55.8266 81.6863 55.9666C81.77 56.0182 81.7961 56.0399 81.8709 56.1294C81.9208 56.19 82.0484 56.1866 82.0312 56.2755C82.0124 56.3695 80.7092 56.6918 80.2437 56.6694C79.8428 56.6511 79.4297 56.6011 79.0485 56.4687C78.711 56.3519 78.0633 55.8618 77.97 55.861C77.8168 55.8594 77.8333 55.8938 77.7304 55.9939C77.7021 56.0218 77.6488 56.1162 77.5749 56.1874C77.4896 56.2711 77.1889 56.5658 77.1281 56.6487C77.0413 56.7667 76.8373 56.8127 76.7092 56.9151C76.6147 56.991 76.434 57.1922 76.3225 57.2666C76.1176 57.4047 75.8609 57.5755 75.7077 57.6415C75.5513 57.7083 75.2766 57.6076 75.0462 57.5739C74.7914 57.5374 74.4806 57.2706 74.3651 57.0387C74.2954 56.9027 74.2986 56.5615 74.2626 56.3588C74.239 56.2228 74.347 55.8044 74.261 55.7489C74.1438 55.6707 74.0813 55.7596 74.0234 55.8216C73.9291 55.9219 73.8155 56.1164 73.5162 56.3248C73.3834 56.4164 73.3827 56.4807 73.2324 56.6268C73.1204 56.736 72.8594 56.8912 72.6759 57.0439C72.4954 57.1944 72.1704 57.286 71.9595 57.324C71.8824 57.3376 71.6704 57.4691 71.5491 57.5223C71.4383 57.5727 71.0851 57.6955 70.8672 57.7603C70.7307 57.801 70.6663 57.504 70.6351 57.2994C70.6038 57.0947 70.6827 56.8838 70.8032 56.8179C71.0024 56.7062 71.318 56.3398 71.4899 56.1551C71.5335 56.108 71.4446 55.9971 71.3644 56.0015C71.0844 56.0147 70.9071 55.8938 70.9071 55.8938C71.112 55.8618 71.4588 55.8512 71.5809 55.6982C71.6 55.6743 71.6579 55.6227 71.6579 55.5542C71.6596 55.4546 71.6275 55.4306 71.6188 55.3675C71.6103 55.319 71.676 55.2355 71.654 55.1891C71.6299 55.1383 71.5818 55.0178 71.4949 55.0695C71.3164 55.1743 71.0096 55.4799 70.9276 55.6392C70.876 55.7403 70.8652 55.8503 70.8652 55.8503C70.8136 55.9012 70.7212 55.8571 70.7212 55.8571C70.5582 56.0251 70.2992 56.3103 70.1712 56.4193C70.0753 56.5009 69.9448 56.5597 69.8384 56.5083C69.7128 56.448 69.6284 56.1837 69.572 56.098C69.5221 56.0212 69.5917 55.9117 69.6689 55.8613C69.7844 55.787 70.0867 55.6293 70.1727 55.5533C70.2672 55.4709 70.6712 55.0677 70.7657 54.9933C70.9165 54.8717 71.126 54.7358 71.2456 54.608C71.3316 54.5156 71.2252 54.4028 71.163 54.4545C71.1114 54.4958 71.0352 54.4778 71.0016 54.4018C70.9196 54.2092 70.7474 53.7361 70.7494 53.558C70.75 53.4476 70.7517 53.3863 70.7949 53.2872C70.926 52.9832 71.3604 52.4147 71.495 52.3108C71.6229 52.2103 71.5466 52.1151 71.5075 52.0394C71.4566 51.9451 71.2057 51.6363 71.2158 51.5258C71.2309 51.3627 71.4739 51.2163 71.7145 51.0487C71.9532 50.8808 72.194 50.6968 72.3629 50.6823ZM73.1752 48.1373C73.2359 48.0109 73.6523 47.982 73.8392 48.0185C74.0072 48.0517 74.2095 48.3833 74.2737 48.5413C74.3152 48.644 74.3861 48.8601 74.354 48.9413C74.3104 49.0514 74.1343 49.0509 73.9619 49.098C73.9008 49.1141 73.7408 49.1717 73.6292 49.2296C73.4836 49.3039 73.3064 49.4601 73.243 49.5215C73.1742 49.5883 73.0596 49.6191 73.0039 49.604C72.9704 49.5948 72.9719 49.4979 73.0323 49.4343C73.1437 49.3163 73.2834 48.9874 73.2515 48.8599C73.2343 48.7942 73.1678 48.7654 73.1619 48.5615C73.1588 48.4593 73.1246 48.2436 73.1752 48.1373ZM73.1179 45.8533C73.186 45.8366 73.2329 45.953 73.3376 46.0001C73.4136 46.0353 73.4465 46.1041 73.5228 46.1045C73.6276 46.1061 73.6308 46.268 73.6902 46.3194C73.74 46.362 73.8073 46.5233 73.8653 46.5757C73.9317 46.6358 73.9573 46.7133 74.0237 46.7644C74.0966 46.8206 74.1181 47.0117 74.0286 47.121C73.9598 47.2045 73.8493 47.319 73.7025 47.3629C73.5657 47.4033 73.2665 47.4145 73.0989 47.5173C72.9613 47.6006 72.7073 47.8017 72.5657 47.9521C72.2992 48.2373 71.9966 48.7345 71.7542 49.156C71.5885 49.4417 70.9729 50.4956 70.7901 50.9092C70.7138 51.082 70.3214 51.9208 70.1802 52.2256C69.9967 52.6224 69.5489 53.4872 69.4573 53.7193C69.3337 54.032 69.4057 54.2952 69.3214 54.4141C69.2443 54.5232 69.0902 54.5132 68.9991 54.444C68.9059 54.3747 68.759 54.2355 68.7223 54.0928C68.6911 53.9649 68.7574 53.6672 68.7983 53.5165C68.8239 53.4149 68.8795 53.3461 68.9615 53.3061C69.0124 53.2813 69.0994 53.3049 69.1739 53.2748C69.2311 53.2516 69.4762 52.846 69.5983 52.6176C69.7592 52.3163 70.1856 51.4137 70.2862 51.2004C70.3468 51.07 70.5927 50.5173 70.7731 50.1796C70.8863 49.9688 71.4395 48.4475 71.7075 48.0764C71.7691 47.9917 72.0541 47.388 72.2287 47.1161C72.3845 46.8716 73.0145 45.8773 73.1179 45.8533ZM49.1156 55.7314C49.1656 55.7314 49.1992 55.7738 49.2153 55.8591C49.2376 55.9774 49.2228 55.9769 49.2376 56.0782C49.2539 56.1793 49.2153 56.205 49.2353 56.2886C49.2596 56.3901 49.2493 56.4464 49.2572 56.5502C49.2728 56.7279 49.2784 56.8873 49.244 56.997C49.208 57.1057 49.2501 57.1401 49.2493 57.2498C49.2474 57.3504 49.1886 57.5092 49.1769 57.6614C49.1664 57.7877 49.2908 57.917 49.2892 58.0678C49.2885 58.1604 49.2473 58.1598 49.1621 58.1509C49.0697 58.1408 48.9604 58.0805 48.9276 58.0044C48.8948 57.928 48.7963 57.6741 48.7981 57.5817C48.7992 57.4805 48.8284 57.2956 48.8448 57.1776C48.8635 57.0512 48.8322 56.9003 48.8329 56.7806C48.8352 56.6377 49.0049 56.4876 49.0072 56.3444C49.0088 56.2015 48.9752 56.1848 48.9776 56.0073C48.9801 55.8305 49.0481 55.7302 49.1156 55.7314ZM50.5024 49.1823C50.4956 49.0883 50.8317 48.8819 50.9966 48.7747C51.1488 48.6755 51.2664 48.5372 51.3965 48.4674C51.5829 48.3692 51.7518 48.4 51.8604 48.4059C52.0293 48.4163 52.2339 48.3263 52.3245 48.4367C52.4065 48.5394 52.3826 48.6231 52.354 48.7411C52.3317 48.8335 51.8465 49.5947 51.6145 49.869C51.3738 50.1579 50.7768 50.8424 50.718 50.8783C50.6494 50.9198 50.595 50.8191 50.5778 50.6747C50.5614 50.5477 50.5442 50.441 50.572 50.3794C50.6064 50.3039 50.5646 50.2554 50.5493 50.1863C50.5337 50.1094 50.4574 49.8303 50.472 49.6202C50.4817 49.468 50.5137 49.3164 50.5024 49.1823ZM46.4862 51.6108C46.5082 51.5592 46.7325 51.4451 46.8338 51.3628C46.9051 51.3044 47.0811 51.1884 47.1491 51.1304C47.3451 50.9628 47.3197 50.9948 47.4982 50.8731C47.5827 50.8151 47.7011 50.774 47.7165 50.9512C47.7337 51.1623 47.709 51.5412 47.7157 51.6764C47.7221 51.8112 47.6877 51.8443 47.6785 51.9539C47.6706 52.0476 47.7105 52.098 47.7182 52.1568C47.7269 52.2159 47.7057 52.2327 47.691 52.3414C47.6818 52.4091 47.7309 52.5111 47.6706 52.6278C47.6105 52.7458 47.2861 53.0026 47.1845 53.0354C47.083 53.0677 47.1533 52.8834 46.9862 52.7633C46.8181 52.643 46.7786 52.4737 46.7041 52.355C46.613 52.2073 46.6395 52.1354 46.5319 52.0065C46.423 51.8803 46.4254 51.7531 46.4862 51.6108ZM44.3629 49.5722C44.4665 49.5398 44.6697 49.9353 44.868 50.1495C45.0673 50.3629 45.3648 50.6327 45.4261 50.6869C45.4925 50.747 45.6501 50.985 45.7098 50.9862C45.741 50.9862 45.9329 50.8211 46.0918 50.7122C46.2621 50.5966 46.6474 50.3338 46.7646 50.2562C46.8591 50.1937 47.1526 49.9801 47.333 49.8417C47.5146 49.7037 47.9076 49.4482 47.9208 49.4113C47.9286 49.3893 47.9131 49.3017 47.9747 49.1338C48.0123 49.0311 47.9303 48.9853 47.9263 48.9638C47.9182 48.9221 47.9698 48.7966 47.9795 48.7293C47.9983 48.6038 47.9674 48.3445 47.9846 48.291C48.028 48.1565 48.0434 47.8757 48.0494 47.7942C48.069 47.5638 48.0418 47.4651 48.0713 47.373C48.1705 47.0662 48.1802 46.8183 48.1573 46.5903C48.1387 46.3978 48.0934 46.3795 48.1466 46.0847C48.1957 45.8189 48.4378 45.5351 48.5474 45.4076C48.6198 45.3231 48.8393 45.3091 49.005 45.4714C49.0674 45.5327 49.2147 45.6003 49.3558 45.7459C49.4934 45.8854 49.7494 46.2022 49.8386 46.2823C49.9802 46.4111 50.2536 46.76 50.4287 46.9807C50.5615 47.1494 50.633 47.455 50.6491 47.5654C50.6723 47.7313 50.6363 47.9526 50.7495 47.9741C50.9116 48.0058 51.2287 47.7324 51.7355 47.6369C52.0716 47.5741 52.6208 47.5893 52.9832 47.5934C53.1437 47.5958 53.456 47.5805 53.4819 47.6561C53.5295 47.7932 53.4468 48.2104 53.2396 48.6753C53.0576 49.0861 52.9575 49.1649 52.7505 49.4277C52.5796 49.6457 52.5544 49.7821 52.2436 50.1888C51.9436 50.5817 51.3468 51.1556 51.4632 51.2668C51.5633 51.3616 51.8592 51.2204 51.9085 51.4407C51.9485 51.6185 51.7529 51.7336 51.6832 51.9097C51.5864 52.1548 51.6446 52.3316 51.424 52.4375C51.2215 52.5355 51.1028 52.5015 50.9756 52.5847C50.8223 52.6834 50.8804 52.9375 50.7832 53.1215C50.6108 53.4479 50.6996 53.7603 50.5945 54.0242C50.4356 54.421 50.474 54.2659 50.3436 54.679C50.3158 54.7679 50.2522 55.2218 50.216 55.3815C50.1857 55.517 50.0819 55.6258 50.0788 55.6746C50.066 55.8138 49.9976 56.1733 50.0036 56.2135C50.0115 56.2646 49.9169 56.3314 49.9255 56.4232C49.9331 56.5074 49.8429 56.7202 49.827 56.8687C49.7655 57.4535 49.8176 57.5312 49.8402 57.8556C49.863 58.1803 49.8018 58.2512 49.7667 58.3375C49.7362 58.4156 49.6139 58.4343 49.5294 58.4588C49.437 58.4847 49.4434 58.5838 49.3854 58.6028C49.3166 58.626 49.2197 58.5532 49.1868 58.6095C49.1213 58.7231 49.0518 58.8659 48.9673 58.8732C48.8801 58.8811 48.8501 58.8292 48.8253 58.6952C48.8196 58.6596 48.7344 58.6508 48.7187 58.5759C48.6941 58.4565 48.6674 58.5297 48.5605 58.3325C48.4705 58.1677 48.5473 58.1096 48.5368 57.962C48.5299 57.8477 48.3776 57.7445 48.4164 57.5653C48.4368 57.469 48.4111 57.2737 48.3908 57.1129C48.3679 56.9269 48.361 56.7974 48.361 56.7501C48.3629 56.6642 48.3343 56.7478 48.3564 56.4801C48.3759 56.2445 48.3023 56.0502 48.3031 55.9826C48.3039 55.8977 48.271 55.8386 48.204 55.8374C48.1498 55.837 48.122 55.8673 48.0939 56.0023C48.0644 56.1371 48.0612 56.4067 48.0776 56.569C48.0933 56.7215 48.1877 57.1445 48.1948 57.2795C48.2039 57.459 48.1853 57.3723 48.19 57.6162C48.1925 57.7354 48.2489 58.0313 48.2909 58.1939C48.3344 58.3564 48.4284 58.3495 48.4588 58.4628C48.4909 58.5807 48.5236 58.6831 48.5654 58.7507C48.6182 58.8379 48.8245 58.888 48.799 58.9387C48.7665 59.0007 48.6786 59.1227 48.6105 59.1303C48.4746 59.1452 48.2261 58.8647 48.177 58.7416C48.0885 58.5215 48.0285 57.7327 47.9825 57.4458C47.9025 56.9619 47.8196 56.7495 47.7614 56.2123C47.7009 55.6544 47.5665 54.2 47.5705 53.8916C47.5728 53.6892 47.4394 53.62 47.3656 53.6164C47.2768 53.6115 47.1639 53.706 47.1566 53.8024C47.149 53.92 47.1761 54.1977 47.0518 54.2477C46.9503 54.2885 46.2287 54.0857 45.6675 53.7164C44.7503 53.1116 44.4247 51.6101 44.273 51.3224C44.0666 50.9329 44.0613 50.1209 44.1033 49.9637C44.1473 49.8022 44.209 49.619 44.3629 49.5722Z" fill="#231F20"/>
</g>
<rect x="1" y="1" width="110" height="110" rx="9" stroke="#CCCCCC" stroke-width="2"/>
<defs>
<clipPath id="clip0_421_548">
<rect x="2" y="2" width="108" height="108" rx="8" fill="white"/>
</clipPath>
</defs>
</svg>
