<svg width="112" height="112" viewBox="0 0 112 112" fill="none" xmlns="http://www.w3.org/2000/svg">
<g clip-path="url(#clip0_528_592)">
<rect x="2" y="2" width="108" height="108" rx="8" fill="white"/>
<path fill-rule="evenodd" clip-rule="evenodd" d="M18.4512 57.3475V57.6486C18.3114 57.7265 18.2402 57.8569 18.2402 58.037V63.0739C19.1607 62.019 19.8099 61.3739 20.1861 61.1414C20.5624 60.9089 20.9455 60.7933 21.3365 60.7933C21.9628 60.7933 22.4641 61.0419 22.8377 61.5378C23.2113 62.0337 23.3994 62.6654 23.3994 63.4354C23.3994 64.0792 23.261 64.7068 22.9882 65.3155C22.7154 65.9243 22.3592 66.4243 21.9225 66.8127C21.4857 67.2037 21.0745 67.4497 20.6888 67.5545C20.3031 67.6593 19.8233 67.7131 19.2494 67.7131H18.5748C18.0614 67.7131 17.7201 67.748 17.5575 67.8206C17.3922 67.8905 17.2685 68.0114 17.1865 68.1794H16.6906C16.8183 67.9483 16.9218 67.6486 16.9971 67.275C17.075 66.9014 17.1126 66.6205 17.1126 66.435V59.182C17.1126 58.7506 16.95 58.5356 16.6208 58.5356C16.4702 58.5356 16.2619 58.5907 15.9985 58.7035V58.3582L18.4498 57.3502L18.4512 57.3475ZM18.2603 66.56C18.8516 66.9255 19.4833 67.1097 20.1525 67.1097C20.639 67.1097 21.0395 66.982 21.358 66.7267C21.6738 66.4686 21.909 66.1219 22.0595 65.6811C22.2101 65.243 22.2853 64.7404 22.2853 64.18C22.2853 63.4529 22.1456 62.871 21.8647 62.4382C21.5811 62.0042 21.1927 61.7865 20.6995 61.7865C20.0625 61.7865 19.4806 62.152 18.9551 62.8844C18.4283 63.6169 18.1649 64.4917 18.1649 65.5064C18.1649 65.8195 18.1972 66.1703 18.2603 66.5613V66.56ZM24.8186 61.8899C25.9461 61.1481 27.0092 60.7772 28.005 60.7772C28.4713 60.7772 28.8073 60.8807 29.0156 61.0849C29.2212 61.2906 29.322 61.6386 29.3166 62.1278V66.7186C29.3166 66.939 29.4174 67.0492 29.615 67.0492C29.8125 67.0492 30.1512 66.8234 30.6404 66.3719V66.8234C29.8959 67.5558 29.2898 67.9214 28.8207 67.9214C28.4001 67.9214 28.1891 67.6875 28.1891 67.2199V66.1367C27.5776 66.7602 27.0616 67.2145 26.6369 67.4981C26.2162 67.7816 25.8144 67.9214 25.4381 67.9214C25.0618 67.9214 24.7581 67.7789 24.5001 67.4927C24.2421 67.2064 24.1117 66.8584 24.1117 66.4471C24.1117 65.3868 25.4704 64.2431 28.1878 63.0175V62.1332C28.1878 61.8631 28.1071 61.6386 27.9472 61.4639C27.7846 61.2865 27.5642 61.1978 27.2779 61.1978C26.7968 61.1978 26.3654 61.4303 25.9891 61.8993C25.6128 62.3684 25.3871 62.9516 25.3145 63.6491H24.8186V61.8886V61.8899ZM28.263 63.6195C27.3599 63.805 26.6288 64.1235 26.0671 64.5751C25.5053 65.0266 25.2244 65.4903 25.2244 65.9633C25.2244 66.2643 25.3172 66.5076 25.5053 66.6877C25.6935 66.8678 25.9394 66.9578 26.2418 66.9578C26.8035 66.9578 27.2766 66.6621 27.6663 66.0681C28.0547 65.4768 28.2536 64.6597 28.263 63.6182V63.6195ZM31.1336 61.5432L33.0366 60.7758H33.3443V63.2029C34.0512 62.2582 34.6331 61.6185 35.0887 61.2798C35.5456 60.9438 35.9784 60.7758 36.3869 60.7758C37.2161 60.7758 37.63 61.3053 37.63 62.3657V66.2066C37.63 66.6474 37.7174 66.9484 37.8961 67.1097C38.0735 67.2696 38.3544 67.3556 38.7441 67.365V67.7104H36.1867V67.365C36.3977 67.3556 36.5025 67.2346 36.5025 67.0062V62.4759C36.5025 62.2232 36.438 62.0176 36.3049 61.8644C36.1719 61.7112 36.0012 61.6333 35.7916 61.6333C35.172 61.6333 34.5982 62.07 34.0673 62.9422C33.5365 63.8144 33.2704 64.8143 33.2704 65.9432C33.2704 66.5143 33.3578 66.8906 33.5338 67.0761C33.7112 67.2588 34.0257 67.3543 34.4745 67.365V67.7104H31.1349V67.365C31.5314 67.3556 31.815 67.2696 31.987 67.1043C32.1603 66.9417 32.2477 66.6433 32.2477 66.2066V62.4611C32.2477 61.9571 32.0878 61.7072 31.7639 61.7072C31.6483 61.7072 31.4387 61.7676 31.1349 61.8899V61.5446L31.1336 61.5432ZM41.6658 64.1208V66.2066L41.6577 66.3772C41.6577 67.021 42.0313 67.3502 42.7785 67.365V67.7104H39.4241V67.365C39.8058 67.3556 40.0854 67.2723 40.2668 67.1164C40.4469 66.9605 40.5369 66.6581 40.5369 66.2066V59.3244C40.5369 58.8003 40.3609 58.5369 40.0101 58.5369C39.8676 58.5369 39.6714 58.5772 39.4241 58.6552V58.3098L41.9668 57.3166V57.6177C41.7666 57.6808 41.6658 57.8287 41.6658 58.0585V64.1208L42.9519 63.0551L43.0191 62.9825L43.3497 62.6896C43.7152 62.3684 43.898 62.0727 43.898 61.7999C43.898 61.4989 43.605 61.343 43.0177 61.3336V60.9882H46.4595V61.3336C45.8453 61.343 45.1008 61.7152 44.2179 62.4463L42.7181 63.6894L44.1641 65.5225C45.1237 66.7455 45.9838 67.3596 46.7484 67.365V67.7104H44.4947L41.6618 64.1208H41.6658Z" fill="#3156A5"/>
<path fill-rule="evenodd" clip-rule="evenodd" d="M64.0956 64.3775V66.4632L64.0875 66.6339C64.0875 67.2777 64.4611 67.6069 65.2083 67.6217V67.9671H61.8539V67.6217C62.2356 67.6123 62.5151 67.529 62.6966 67.3731C62.8766 67.2172 62.9667 66.9148 62.9667 66.4632V59.5811C62.9667 59.057 62.7906 58.7936 62.4399 58.7936C62.2974 58.7936 62.1012 58.8339 61.8526 58.9118V58.5665L64.3953 57.5733V57.8743C64.195 57.9375 64.0942 58.0853 64.0942 58.3152V64.3775L65.3803 63.3118L65.4475 63.2392L65.7781 62.9462C66.1437 62.6251 66.3264 62.3294 66.3264 62.0566C66.3264 61.7555 66.0335 61.601 65.4462 61.5902V61.2449H68.8879V61.5902C68.2738 61.5997 67.5292 61.9719 66.6463 62.703L65.1478 63.9461L66.5939 65.7792C67.5534 67.0021 68.4135 67.6163 69.1782 67.6217V67.9671H66.9245L64.0915 64.3775H64.0956ZM70.127 62.1466C71.2545 61.4048 72.3176 61.0339 73.3134 61.0339C73.7797 61.0339 74.1157 61.136 74.324 61.3416C74.5296 61.5472 74.6304 61.8953 74.6251 62.3845V66.9753C74.6251 67.1957 74.7259 67.3059 74.9234 67.3059C75.121 67.3059 75.4596 67.0801 75.9488 66.6285V67.0801C75.2043 67.8125 74.5982 68.1781 74.1292 68.1781C73.7085 68.1781 73.4975 67.9442 73.4975 67.4765V66.3934C72.886 67.0183 72.37 67.4712 71.9453 67.7547C71.5247 68.0383 71.1228 68.1781 70.7465 68.1781C70.3703 68.1781 70.0665 68.0356 69.8085 67.7494C69.5505 67.4631 69.4201 67.115 69.4201 66.7038C69.4201 65.6435 70.7788 64.4998 73.4962 63.2742V62.3899C73.4962 62.1197 73.4156 61.8967 73.2556 61.7206C73.093 61.5432 72.8726 61.4545 72.5864 61.4545C72.1052 61.4545 71.6738 61.687 71.2976 62.156C70.9213 62.6251 70.6955 63.2083 70.6229 63.9058H70.127V62.1453V62.1466ZM73.5714 63.8762C72.6683 64.0617 71.9372 64.3802 71.3755 64.8317C70.8137 65.2833 70.5329 65.7469 70.5329 66.22C70.5329 66.521 70.6256 66.7643 70.8137 66.9444C71.0019 67.1244 71.2478 67.2145 71.5502 67.2145C72.112 67.2145 72.585 66.9188 72.9747 66.3248C73.3631 65.7335 73.562 64.9164 73.5714 63.8749V63.8762ZM79.0438 57.8743C78.8436 57.9778 78.7428 58.1552 78.7428 58.4106V66.4632C78.7428 66.9 78.8301 67.1984 79.0089 67.361C79.1863 67.5263 79.4672 67.6123 79.8569 67.6217V67.9671H76.4877V67.6217C76.8882 67.6123 77.1771 67.5236 77.3532 67.3529C77.5292 67.1849 77.6166 66.8893 77.6166 66.4632V59.4709C77.6166 59.0194 77.4311 58.7936 77.0602 58.7936C76.9043 58.7936 76.7148 58.8339 76.4891 58.9118V58.5665L79.0465 57.5733V57.8743H79.0438ZM81.225 65.6959C81.2653 66.3329 81.4454 66.8288 81.7746 67.1822C82.0999 67.5357 82.4909 67.7117 82.9479 67.7117C83.3242 67.7117 83.6319 67.5962 83.8725 67.3663C84.113 67.1379 84.234 66.8476 84.234 66.4942C84.234 66.181 84.1439 65.9176 83.9639 65.7026C83.7757 65.4916 83.4128 65.2161 82.8659 64.8734C82.4802 64.6275 82.1267 64.399 81.8082 64.1867C81.4897 63.973 81.2693 63.758 81.147 63.5376C81.0194 63.3172 80.9562 63.0941 80.9562 62.8629C80.9562 62.3885 81.1766 61.9652 81.6161 61.5916C82.0542 61.2207 82.6388 61.0352 83.3631 61.0352C83.812 61.0352 84.2904 61.1333 84.8065 61.3282V63.2459H84.2797C84.2743 62.7043 84.1211 62.2703 83.8214 61.945C83.5204 61.6185 83.175 61.4559 82.7839 61.4559C82.5084 61.4559 82.292 61.5432 82.1375 61.7166C81.9816 61.8899 81.905 62.0956 81.905 62.3281C81.905 62.5941 81.9923 62.8213 82.1711 63.0121C82.3418 63.2083 82.6898 63.4663 83.2086 63.7889C84.1036 64.3533 84.6654 64.7484 84.8912 64.9769C85.1169 65.2121 85.2298 65.5239 85.2298 65.9096C85.2298 66.521 84.9597 67.0532 84.4181 67.5034C83.8765 67.9523 83.2529 68.1781 82.5474 68.1781C82.0233 68.1781 81.4198 68.0302 80.7318 67.7373V65.6972H81.2277L81.225 65.6959ZM91.8848 66.1165C90.7949 67.49 89.7319 68.1767 88.6931 68.1767C87.9633 68.1767 87.3223 67.8609 86.7659 67.2266C86.2068 66.5949 85.9286 65.845 85.9286 64.9755C85.9286 63.973 86.2592 63.0699 86.9218 62.2676C87.583 61.4626 88.3652 61.0621 89.2629 61.0621C89.9872 61.0621 90.5584 61.3147 90.9858 61.8241C91.4118 62.3307 91.6349 62.9503 91.6604 63.6787H86.9379C86.9285 63.8695 86.9231 64.0093 86.9231 64.0993C86.9231 64.9688 87.1543 65.6959 87.6126 66.2778C88.0708 66.8624 88.638 67.1527 89.3126 67.1527C90.1552 67.1527 91.0126 66.646 91.8875 65.6341V66.1152L91.8848 66.1165ZM90.4563 63.3333C90.3985 62.7621 90.2157 62.3186 89.9066 62.0015C89.5989 61.6857 89.2347 61.5271 88.8167 61.5271C88.3988 61.5271 87.9848 61.6978 87.6381 62.0405C87.2927 62.3818 87.079 62.8132 87.0011 63.3319H90.4563V63.3333ZM95.1868 57.873C94.9866 57.9765 94.8858 58.1539 94.8858 58.4092V66.4619C94.8858 66.8987 94.9731 67.197 95.1519 67.3596C95.3293 67.5249 95.6101 67.6109 95.9999 67.6203V67.9657H92.6307V67.6203C93.0312 67.6109 93.3201 67.5222 93.4962 67.3516C93.6722 67.1836 93.7596 66.8879 93.7596 66.4619V59.4696C93.7596 59.018 93.5741 58.7922 93.2032 58.7922C93.0473 58.7922 92.8578 58.8326 92.632 58.9105V58.5651L95.1895 57.572V57.873H95.1868Z" fill="#00AA43"/>
<path fill-rule="evenodd" clip-rule="evenodd" d="M57.2497 57.2333L56.3721 57.0667L55.4946 56.9014L53.8093 57.4927L52.6455 58.8473L52.3149 60.6025L52.9062 62.2877L53.5835 62.871L54.2609 63.4529L56.016 63.7835L57.7013 63.1922L58.8651 61.8375L59.1957 60.0824L58.6044 58.3971L57.927 57.8139L57.2497 57.232V57.2333ZM57.3653 58.1378L58.1555 59.022L58.0883 60.2074L57.204 60.9976L56.0187 60.9304L55.2285 60.0461L55.2957 58.8608L56.18 58.0706L57.3653 58.1378Z" fill="#4964AE"/>
<path fill-rule="evenodd" clip-rule="evenodd" d="M55.8547 43.9999L58.4592 44.6974L60.3649 46.603L61.0637 49.2075L60.3649 51.812L58.4592 53.7177L55.8547 54.4151L53.2502 53.7177L51.3446 51.812L50.6458 49.2075L51.3446 46.603L53.2502 44.6974L55.8547 43.9999ZM55.1048 45.1543L53.4518 45.8397L52.7664 47.4927L53.4518 49.1457L55.1048 49.8311L56.7578 49.1457L57.4432 47.4927L56.7578 45.8397L55.1048 45.1543Z" fill="#4964AE"/>
<path fill-rule="evenodd" clip-rule="evenodd" d="M52.4372 65.6475L52.2517 65.2215L52.0649 64.7955L51.3177 64.2445L50.3931 64.1423L49.5411 64.5159L48.9901 65.2631L48.9377 65.7254L48.8866 66.1877L49.072 66.6138L49.2589 67.0398L50.0061 67.5908L50.9307 67.6929L51.7827 67.3193L52.3337 66.5721L52.4358 65.6475H52.4372ZM52.0824 65.9633L51.9346 66.5627L51.6712 66.7226L51.4064 66.8825L50.807 66.7347L50.4872 66.2052L50.635 65.6058L51.1645 65.286L51.7639 65.4338L52.0837 65.9633H52.0824Z" fill="#4964AE"/>
</g>
<rect x="1" y="1" width="110" height="110" rx="9" stroke="#CCCCCC" stroke-width="2"/>
<defs>
<clipPath id="clip0_528_592">
<rect x="2" y="2" width="108" height="108" rx="8" fill="white"/>
</clipPath>
</defs>
</svg>
