<svg width="112" height="112" viewBox="0 0 112 112" fill="none" xmlns="http://www.w3.org/2000/svg">
<g clip-path="url(#clip0_528_47)">
<rect x="2" y="2" width="108" height="108" rx="8" fill="white"/>
<path d="M16.0545 54.6984C16.0545 54.4699 16.0792 54.2506 16.1286 54.0376C16.2737 53.3923 16.7925 52.5277 17.7188 52.5277C19.0187 52.5277 18.8087 54.6243 16.9221 54.1982C17.1198 54.5625 17.725 55.6772 17.9782 56.0971C18.6605 57.2334 19.9543 57.5267 20.7139 57.0636C20.2291 57.4187 19.6332 57.6286 18.9848 57.6286C17.3668 57.6286 16.0545 56.3163 16.0545 54.6984ZM20.26 51.9904C20.26 51.9904 20.2538 51.9904 20.2476 51.9904C20.2322 51.9904 20.2168 52.0028 20.2168 52.0213C20.2168 52.0337 20.2229 52.0429 20.2353 52.0491C21.2264 52.5184 21.915 53.5281 21.915 54.7015C21.915 55.0442 21.8563 55.3715 21.7483 55.6772C21.5445 56.2824 20.8405 56.4275 20.3804 55.6587C20.297 55.5197 19.8184 54.6212 19.6733 54.3525C21.9181 53.9233 20.6336 51.0363 17.7898 51.9626C17.762 51.9719 17.7682 52.009 17.7929 52.0028C20.4175 51.4408 20.8281 54.3186 18.6976 54.4081C18.9353 54.8281 19.3337 55.5228 19.4942 55.8069C19.9234 56.5726 20.6459 56.7424 21.316 56.3781C21.3716 56.3472 21.4179 56.3133 21.4457 56.2824C21.3963 56.3596 21.3438 56.4368 21.2851 56.5078C20.998 56.8443 19.7906 57.2488 18.9477 55.881C18.7563 55.5691 18.2838 54.72 18.0955 54.3525C19.7752 54.3711 20.0562 52.2838 18.2746 52.1417C17.4996 52.0769 16.249 52.6265 15.7519 54.0067C15.616 54.3742 15.5419 54.7725 15.5419 55.1862C15.5419 57.0852 17.0827 58.626 18.9817 58.626C20.8806 58.626 22.4214 57.0852 22.4214 55.1862C22.4214 53.7381 21.526 52.4968 20.2569 51.9904" fill="#009E5E"/>
<path d="M16.4034 59.8919H16.2861V59.5986H16.4188C16.5424 59.5986 16.6165 59.6511 16.6165 59.7406C16.6165 59.8302 16.5362 59.8919 16.4034 59.8919ZM16.5918 59.9753C16.7091 59.9475 16.7894 59.8549 16.7894 59.7375C16.7894 59.4843 16.5856 59.4504 16.3818 59.4504H16.1193V60.494H16.2861V60.0401H16.3664C16.4435 60.0401 16.4868 60.0401 16.53 60.1359L16.6906 60.4971H16.8758L16.6751 60.0772C16.6473 60.0216 16.6257 59.9969 16.5887 59.9784M17.0611 60.4971H17.6539V60.3489H17.2247V60.0278H17.6138V59.8796H17.2247V59.5986H17.6539V59.4504H17.0611V60.4971ZM18.0059 59.7098C18.0059 59.5955 18.1264 59.5832 18.1758 59.5832C18.2499 59.5832 18.29 59.5955 18.3672 59.6264L18.3765 59.6326L18.4012 59.4782H18.395C18.3271 59.4504 18.2468 59.438 18.1727 59.438C17.9689 59.438 17.833 59.5492 17.833 59.7252C17.833 59.9012 17.9658 59.966 18.0862 60.0216C18.1881 60.0679 18.2746 60.1112 18.2746 60.21C18.2746 60.3273 18.1603 60.3674 18.0831 60.3674C17.9998 60.3674 17.901 60.3304 17.8732 60.318H17.8608L17.8454 60.4693H17.8516C17.9195 60.494 17.9905 60.5156 18.0646 60.5156C18.3085 60.5156 18.4475 60.4014 18.4475 60.2007C18.4475 60 18.2993 59.929 18.1789 59.8734C18.0862 59.8302 18.0059 59.79 18.0059 59.7098ZM19.4386 59.9753C19.4386 60.1575 19.3522 60.3674 19.1083 60.3674C18.8643 60.3674 18.7779 60.1575 18.7779 59.9753C18.7779 59.8487 18.818 59.7375 18.889 59.6665C18.9446 59.6109 19.0187 59.5832 19.1052 59.5832C19.1916 59.5832 19.2657 59.6109 19.3244 59.6665C19.3954 59.7375 19.4356 59.8487 19.4356 59.9753M19.6085 59.9753C19.6085 59.6511 19.4078 59.4349 19.1052 59.4349C18.8026 59.4349 18.6019 59.6511 18.6019 59.9753C18.6019 60.2995 18.7995 60.5156 19.1052 60.5156C19.4109 60.5156 19.6085 60.3026 19.6085 59.9753ZM20.4391 60.4971H20.6398V59.4535H20.4761V60.2594C20.4483 60.2131 20.0346 59.4535 20.0346 59.4535H19.8184V60.4971H19.9821V59.6727C20.0099 59.719 20.436 60.4971 20.436 60.4971M21.492 60.0988H21.1091C21.1184 60.0772 21.2851 59.6603 21.3005 59.6233C21.316 59.6603 21.4827 60.0772 21.492 60.0988ZM21.8316 60.4971L21.3901 59.4535H21.2234L20.7787 60.4971H20.9516C20.9516 60.4971 21.0504 60.2501 21.0566 60.2378H21.5476L21.6525 60.4971H21.8316Z" fill="#F7922A"/>
<path d="M93.8066 57.7027C93.504 57.7027 93.1798 57.4959 93.1798 57.1624C93.1798 56.6004 93.9332 56.517 94.3809 56.517C94.3809 56.517 94.7051 56.5294 94.7607 56.5294V56.8042C94.7607 57.36 94.3933 57.7027 93.8035 57.7027M95.5419 58.24L95.5358 58.1906C95.5172 58.0516 95.508 57.8231 95.508 57.4928V56.0076C95.508 54.9639 95.0355 54.4791 94.0197 54.4791C93.6028 54.4791 93.1983 54.5965 92.8155 54.8219L92.7908 54.8342L92.834 55.5074L92.8988 55.4518C93.1613 55.2325 93.5503 55.0967 93.9147 55.0967C94.4983 55.0967 94.7422 55.3437 94.7576 55.9458C94.6743 55.9458 94.0969 55.9335 94.0969 55.9335C93.4608 55.9335 92.3863 56.1928 92.3863 57.1593C92.3863 57.9096 92.871 58.3234 93.7449 58.3234C94.3254 58.3234 94.6681 58.0269 94.8287 57.8386V58.24H95.5419ZM90.9227 53.0156V53.8462H91.7564V53.0156H90.9227ZM90.969 54.5656V58.24H91.7162V54.5656H90.969ZM88.7026 54.4791C88.2086 54.4791 87.7794 54.7076 87.554 55.0627V54.5625H86.8284V58.2369H87.5756V56.5325C87.5756 55.9983 87.7114 55.0998 88.6223 55.0998C89.138 55.1307 89.3387 55.4796 89.3387 56.338V58.24H90.0859V56.0662C90.0859 55.0288 89.6073 54.4822 88.6995 54.4822M84.2285 57.7058C83.9259 57.7058 83.6017 57.4989 83.6017 57.1655C83.6017 56.6035 84.3551 56.5201 84.8059 56.5201C84.8059 56.5201 85.1301 56.5325 85.1857 56.5325V56.8073C85.1857 57.3631 84.8182 57.7058 84.2285 57.7058ZM85.9669 58.2431L85.9607 58.1937C85.9422 58.0547 85.9329 57.8262 85.9329 57.4959V56.0107C85.9329 54.967 85.4605 54.4822 84.4446 54.4822C84.0278 54.4822 83.6233 54.5996 83.2404 54.825L83.2188 54.8373L83.262 55.5104L83.3269 55.4549C83.5893 55.2356 83.9753 55.0998 84.3396 55.0998C84.9232 55.0998 85.1702 55.3468 85.1826 55.9489C85.0992 55.9489 84.5249 55.9365 84.5249 55.9365C83.8888 55.9365 82.8143 56.1959 82.8143 57.1624C82.8143 57.9127 83.296 58.3264 84.1729 58.3264C84.7534 58.3264 85.0961 58.03 85.2567 57.8417V58.2431H85.9669ZM80.3565 57.7058C80.1311 57.7058 79.9396 57.6224 79.7791 57.4619C79.4919 57.1686 79.3993 56.7023 79.4085 56.3935C79.3993 55.9551 79.5228 55.5753 79.742 55.3499C79.8995 55.1893 80.1033 55.1059 80.3503 55.1059C81.0512 55.1059 81.3692 55.7852 81.3692 56.4151C81.3692 57.045 81.0512 57.7089 80.3565 57.7089M81.3692 55.0071C81.1191 54.6675 80.7332 54.4884 80.2083 54.4884C79.109 54.4884 78.6181 55.4209 78.6181 56.3472C78.6181 57.2735 79.0318 58.3326 80.2021 58.3326C80.7733 58.3326 81.1809 58.0733 81.397 57.8077V58.2462H82.1165V52.8735H81.3692V55.0071ZM78.4081 54.5347C78.2753 54.5069 78.1734 54.4884 77.9758 54.4884C77.6238 54.4884 77.2718 54.7169 77.0711 55.0504V54.5749H76.364V58.2493H77.1113V56.5726C77.1113 55.7081 77.4787 55.1523 78.0468 55.1523C78.1827 55.1523 78.3 55.1708 78.3958 55.2109L78.4544 55.2356V54.544L78.405 54.5347H78.4081ZM73.9927 55.109C74.5608 55.109 74.8263 55.5598 74.8418 56.023H73.0818C73.1435 55.5722 73.4122 55.109 73.9958 55.109M75.6353 56.5572C75.6353 55.1831 75.0888 54.4853 74.0081 54.4853C72.9922 54.4853 72.2821 55.2511 72.2821 56.3441C72.2821 57.6224 72.9583 58.3295 74.1841 58.3295C74.7121 58.3295 75.0023 58.2184 75.237 58.1288L75.3605 58.0825V57.3013L75.2895 57.36C75.1413 57.4804 74.6411 57.7089 74.2119 57.7089C73.5882 57.7089 73.1003 57.2241 73.0787 56.6004H75.6353V56.5572ZM70.2164 55.5784H69.5649V53.945H70.1206C70.5375 53.945 71.1612 54.158 71.1612 54.7478C71.1612 55.3375 70.6548 55.5691 70.2195 55.5691M70.1083 53.241H68.7775V58.24H69.5679V56.2762H70.2133C71.3279 56.2762 71.9949 55.7081 71.9949 54.7539C71.9949 53.7998 71.3434 53.241 70.1083 53.241ZM38.0021 56.4615C38.1379 56.6189 39.5398 58.2307 39.5398 58.2307H40.605C40.605 58.2307 38.7493 56.2546 38.6937 56.1959C38.7524 56.1403 40.4043 54.5656 40.4043 54.5656H39.3792C39.3792 54.5656 38.1349 55.8254 38.0021 55.9582V52.8766H37.2579V58.2276H38.0021V56.4584V56.4615ZM33.108 54.5625V58.2276H33.8522V56.5294C33.8522 55.9952 33.988 55.0967 34.8989 55.0967C35.4146 55.1276 35.6122 55.4765 35.6122 56.3318V58.2276H36.3563V56.057C36.3563 55.0226 35.8777 54.4761 34.973 54.4761C34.4821 54.4761 34.0529 54.7045 33.8306 55.0596V54.5625H33.1049H33.108ZM30.5205 57.6935C30.221 57.6935 29.8968 57.4866 29.8968 57.1531C29.8968 56.5911 30.6471 56.5078 31.0948 56.5078C31.0948 56.5078 31.419 56.517 31.4746 56.5201V56.7949C31.4746 57.3476 31.1103 57.6935 30.5205 57.6935ZM30.4649 58.3141C31.0423 58.3141 31.3851 58.0177 31.5456 57.8293V58.2276H32.2558L32.2496 58.1782C32.2311 58.0362 32.2218 57.8108 32.2218 57.4804V55.9983C32.2218 54.9577 31.7525 54.473 30.7397 54.473C30.326 54.473 29.9215 54.5872 29.5386 54.8157L29.517 54.8281L29.5602 55.5012L29.6251 55.4456C29.8844 55.2264 30.2735 55.0905 30.6348 55.0905C31.2183 55.0905 31.4623 55.3406 31.4746 55.9365C31.3912 55.9365 30.8169 55.9242 30.8169 55.9242C30.1839 55.9242 29.1094 56.1805 29.1094 57.1469C29.1094 57.8942 29.5911 58.3048 30.4649 58.3048M26.4571 55.989C27.0283 55.989 27.6829 56.0817 27.6829 56.8104C27.6829 57.3291 27.3247 57.5607 26.525 57.5607H26.0402V55.989H26.4571ZM26.0433 53.9048H26.738C26.9974 53.9048 27.5995 53.9728 27.5995 54.5903C27.5995 55.2789 27.0499 55.3344 26.386 55.3344H26.0433V53.9048ZM28.3869 54.5131C28.3869 53.664 27.794 53.2348 26.6238 53.2348H25.2528V58.2276H26.6022C27.8867 58.2276 28.5135 57.7861 28.5135 56.8783C28.5135 56.2484 28.1152 55.7945 27.4914 55.6803C28.0905 55.4888 28.3869 55.109 28.3869 54.5193M63.5592 57.6904C63.2597 57.6904 62.9355 57.4835 62.9355 57.15C62.9355 56.5881 63.6858 56.5047 64.1335 56.5047C64.1335 56.5047 64.4577 56.514 64.5133 56.517V56.7918C64.5133 57.3446 64.149 57.6904 63.5592 57.6904ZM65.2945 58.2246L65.2853 58.1752C65.2667 58.0362 65.2575 57.8077 65.2575 57.4773V55.9952C65.2575 54.9547 64.7881 54.4699 63.7754 54.4699C63.3616 54.4699 62.9571 54.5841 62.5742 54.8126L62.5526 54.825L62.5959 55.4981L62.6607 55.4425C62.9201 55.2233 63.3091 55.0874 63.6704 55.0874C64.254 55.0874 64.4979 55.3375 64.5102 55.9335C64.4269 55.9335 63.8526 55.9211 63.8526 55.9211C63.2196 55.9211 62.145 56.1774 62.145 57.1438C62.145 57.8911 62.6267 58.3017 63.5006 58.3017C64.078 58.3017 64.4207 58.0053 64.5813 57.817V58.2153H65.2914L65.2945 58.2246ZM58.273 54.5594V58.2246H59.0203V56.5263C59.0203 55.9921 59.1561 55.0936 60.0639 55.0936C60.5796 55.1245 60.7803 55.4734 60.7803 56.3287V58.2246H61.5244V56.0539C61.5244 55.0195 61.0458 54.473 60.1411 54.473C59.6502 54.473 59.221 54.7015 58.9986 55.0565V54.5594H58.273ZM55.7534 57.6904C55.0124 57.6904 54.6727 57.0173 54.6727 56.3904C54.6727 55.7636 55.0525 55.0936 55.7534 55.0936C56.4544 55.0936 56.828 55.7636 56.828 56.3904C56.828 57.0173 56.4914 57.6904 55.7534 57.6904ZM55.7534 58.311C56.8156 58.311 57.6153 57.4866 57.6153 56.3935C57.6153 55.3005 56.8496 54.4761 55.7534 54.4761C54.6573 54.4761 53.8854 55.2634 53.8854 56.3935C53.8854 57.5236 54.6882 58.311 55.7534 58.311ZM52.0266 57.6904C51.8567 57.6904 51.4862 57.6132 51.2268 57.4434L51.1651 57.4032L51.1218 58.0918L51.1465 58.1041C51.48 58.2832 51.8567 58.3048 52.1501 58.3048C52.7923 58.3048 53.4407 57.9467 53.4407 57.1469C53.4407 56.4831 52.9467 56.2577 52.5113 56.0631C52.1778 55.9118 51.8907 55.7822 51.8907 55.4857C51.8907 55.1893 52.2056 55.0936 52.4804 55.0936C52.6225 55.0936 53.0084 55.1801 53.1536 55.2696L53.2122 55.3036L53.2771 54.6243L53.2431 54.615C53.0023 54.544 52.7367 54.473 52.4094 54.473C51.6035 54.473 51.1033 54.9114 51.1033 55.6185C51.1033 56.2021 51.5943 56.4398 52.0266 56.6498C52.3631 56.8135 52.6534 56.9555 52.6534 57.218C52.6534 57.6657 52.1284 57.6873 52.0235 57.6873M48.8863 55.0905C49.4545 55.0905 49.7169 55.5413 49.7293 56.0014H47.9724C48.0341 55.5506 48.3027 55.0905 48.8832 55.0905M50.5197 56.5356C50.5197 55.1646 49.9732 54.4699 48.8987 54.4699C47.8859 54.4699 47.1788 55.2325 47.1788 56.3225C47.1788 57.6008 47.8519 58.3017 49.0747 58.3017C49.5996 58.3017 49.8898 58.1906 50.1245 58.1041L50.248 58.0578V57.2766L50.177 57.3353C50.0288 57.4557 49.5317 57.6842 49.1025 57.6842C48.4818 57.6842 47.994 57.1994 47.9724 56.5757H50.5228V56.5325L50.5197 56.5356ZM45.7183 54.6181C45.7183 55.0689 45.3385 55.3406 44.7025 55.3406H44.1497V53.945H44.7796C45.3787 53.945 45.7183 54.192 45.7183 54.6243M46.5489 54.6119C46.5489 53.4046 45.567 53.244 44.6036 53.244H43.3593V58.2276H44.1467V56.0508H44.5234C44.8939 56.0508 45.1008 56.0508 45.3076 56.5016L46.0703 58.2246H46.9658L46.0117 56.2114C45.8758 55.9489 45.7708 55.8285 45.601 55.742C46.1722 55.6031 46.5489 55.1615 46.5489 54.6088" fill="black"/>
</g>
<rect x="1" y="1" width="110" height="110" rx="9" stroke="#CCCCCC" stroke-width="2"/>
<defs>
<clipPath id="clip0_528_47">
<rect x="2" y="2" width="108" height="108" rx="8" fill="white"/>
</clipPath>
</defs>
</svg>
