<svg width="112" height="112" viewBox="0 0 112 112" fill="none" xmlns="http://www.w3.org/2000/svg">
<g clip-path="url(#clip0_421_564)">
<rect x="2" y="2" width="108" height="108" rx="8" fill="white"/>
<g clip-path="url(#clip1_421_564)">
<path d="M91.86 40.9526C91.8694 40.8038 91.8814 40.7035 91.8819 40.6032C91.884 40.1426 91.8835 39.6826 91.8835 39.222C91.8835 39.1014 91.8898 39.0021 92.0595 39.0032C93.3462 39.0094 94.6329 39.0094 95.9196 39.0121C95.9348 39.0121 95.9505 39.0246 95.999 39.046V39.3092C95.999 43.2012 96.0027 47.0937 95.9975 50.9857C95.9943 53.425 95.9745 55.8642 95.9734 58.3029C95.9734 58.5635 95.9071 58.6387 95.6387 58.635C94.4825 58.6188 93.3258 58.6282 92.1692 58.6282H91.8611V57.3123C91.7054 57.3687 91.5874 57.4063 91.4731 57.4533C90.6861 57.7739 89.9132 58.1379 89.1101 58.4115C84.5945 59.9499 79.6534 58.0904 77.2466 53.9686C76.4262 52.5638 75.9442 51.0552 75.9176 49.4259C75.8502 45.3219 77.6894 42.2957 81.2039 40.2523C82.8572 39.2909 84.6603 38.9076 86.5612 39.0653C88.3732 39.2157 90.0469 39.8126 91.5853 40.7834C91.6626 40.8325 91.7409 40.88 91.8595 40.9531L91.86 40.9526ZM91.847 48.9752C91.8705 48.9773 91.894 48.9799 91.9175 48.982C91.8814 48.4468 91.9305 47.8896 91.7958 47.3804C90.9905 44.3438 87.9408 42.4586 84.852 43.0325C81.6691 43.6237 79.3897 46.6801 79.9955 50.0541C80.584 53.3299 83.6024 55.3373 86.5481 55.0156C88.4845 54.8041 89.9832 53.8782 91.0605 52.2704C91.7258 51.2777 92.0464 50.1889 91.847 48.9752Z" fill="#FF6400"/>
<path d="M50.5409 58.6282C50.0526 58.6282 49.602 58.6282 49.1513 58.6282C48.3424 58.6282 47.5335 58.6173 46.7251 58.635C46.4718 58.6408 46.4134 58.552 46.4238 58.3233C46.4389 58.0047 46.4275 57.6846 46.4275 57.3149C46.2572 57.3776 46.1314 57.4214 46.0071 57.4695C45.0452 57.8423 44.1083 58.3107 43.1172 58.5724C39.4873 59.5306 36.2731 58.6815 33.5363 56.1305C31.9383 54.6412 30.9336 52.7868 30.6035 50.6233C30.1273 47.5063 30.9357 44.7281 33.0584 42.385C34.5807 40.7051 36.4679 39.5975 38.7145 39.1818C40.515 38.8486 42.2837 39.0538 43.9814 39.7238C44.7282 40.0184 45.4306 40.4262 46.1523 40.7844C46.2348 40.8252 46.3105 40.8789 46.4348 40.9541V39.0183C46.5476 39.0131 46.6306 39.0053 46.7141 39.0053C47.9053 39.0047 49.097 39.01 50.2881 39C50.5059 38.998 50.5691 39.0622 50.5686 39.2779C50.5633 43.2054 50.5675 47.1329 50.5633 51.0599C50.5607 53.4662 50.5482 55.8726 50.5398 58.2789C50.5398 58.3818 50.5398 58.4852 50.5398 58.6277L50.5409 58.6282ZM46.4233 48.9867C46.4233 48.5011 46.5136 47.9951 46.4087 47.5334C45.7204 44.5078 42.5965 42.4618 39.551 43.0017C36.258 43.5855 34.0663 46.5856 34.53 49.874C34.988 53.121 38.0805 55.4731 41.3485 54.9911C43.6619 54.6501 45.264 53.3398 46.194 51.1889C46.5053 50.4693 46.4353 49.7283 46.4233 48.9867Z" fill="#FF6400"/>
<path d="M50.3774 59.7458C51.0746 60.5495 51.7132 61.3417 52.4104 62.079C54.1039 63.8686 56.0825 65.288 58.2554 66.4405C60.9166 67.852 63.747 68.757 66.7168 69.2353C68.5758 69.5346 70.4511 69.6401 72.3289 69.5445C77.6653 69.2729 82.5694 67.7084 86.922 64.5559C88.7231 63.2514 90.2886 61.7051 91.5994 59.9051C91.6396 59.8502 91.6856 59.7996 91.7514 59.7202C92.742 60.4189 93.7242 61.1119 94.7394 61.8284C94.4224 62.242 94.1331 62.6409 93.8219 63.0221C90.6709 66.8802 86.6896 69.5622 82.044 71.2939C79.9077 72.0902 77.7045 72.6234 75.4434 72.9289C73.7436 73.1582 72.037 73.2736 70.3247 73.2234C65.7992 73.0913 61.4717 72.1174 57.3901 70.1257C54.6804 68.8035 52.2407 67.099 50.1017 64.9731C49.1325 64.0096 48.2458 62.9746 47.439 61.8221C48.4327 61.1197 49.4223 60.421 50.3774 59.7463V59.7458Z" fill="#FF6400"/>
<path d="M65.5856 58.8281H61.4272V58.5138C61.4272 55.8813 61.4246 53.2494 61.4319 50.617C61.4325 50.3992 61.375 50.3115 61.1536 50.2493C57.189 49.1349 54.7472 46.5652 53.8375 42.5525C53.5915 41.4679 53.6406 40.3608 53.6537 39.2584C53.6558 39.0845 53.7388 39.0203 53.9148 39.0208C55.1148 39.0261 56.3148 39.0271 57.5143 39.0198C57.7253 39.0187 57.7807 39.1033 57.7802 39.2986C57.7786 39.8715 57.7702 40.4459 57.8031 41.0177C57.9567 43.6779 59.8105 46.1443 62.7437 46.6007C64.9072 46.9375 67.1193 45.8534 68.3219 43.8956C68.9413 42.8872 69.2363 41.7859 69.2515 40.6073C69.2572 40.1556 69.2588 39.7039 69.2494 39.2522C69.2457 39.084 69.3 39.0208 69.4708 39.0214C70.6969 39.0261 71.9226 39.0245 73.1487 39.0229C73.2824 39.0229 73.3513 39.0605 73.3618 39.212C73.59 42.47 72.7946 45.3771 70.4108 47.726C69.147 48.9715 67.6431 49.8096 65.9193 50.2384C65.6629 50.3021 65.5783 50.4008 65.5793 50.6718C65.5908 53.2692 65.5861 55.8667 65.5861 58.4647C65.5861 58.5764 65.5861 58.6882 65.5861 58.8276L65.5856 58.8281Z" fill="#00559F"/>
<path d="M20.1714 58.8277H16.0386C16.0324 58.7509 16.0214 58.6841 16.0214 58.6172C16.0214 55.3153 15.9624 52.0124 16.0386 48.712C16.1504 43.8915 19.4445 40.1577 23.9328 39.2517C24.8603 39.0642 25.7935 39.0324 26.7334 39.0407C27.4196 39.047 28.1058 39.0418 28.8129 39.0418V42.9401C28.7152 42.9401 28.615 42.9385 28.5142 42.9401C27.5324 42.9557 26.5486 42.9411 25.5689 42.9933C23.0926 43.1254 21.0289 44.8017 20.3959 47.1992C20.2602 47.713 20.1881 48.2587 20.185 48.7903C20.1646 52.0312 20.173 55.272 20.1714 58.5133C20.1714 58.6084 20.1714 58.7034 20.1714 58.8277Z" fill="#00559F"/>
</g>
</g>
<rect x="1" y="1" width="110" height="110" rx="9" stroke="#CCCCCC" stroke-width="2"/>
<defs>
<clipPath id="clip0_421_564">
<rect x="2" y="2" width="108" height="108" rx="8" fill="white"/>
</clipPath>
<clipPath id="clip1_421_564">
<rect width="80" height="34.2343" fill="white" transform="translate(16 39)"/>
</clipPath>
</defs>
</svg>
