<svg width="112" height="112" viewBox="0 0 112 112" fill="none" xmlns="http://www.w3.org/2000/svg">
<g clip-path="url(#clip0_517_512)">
<rect x="2" y="2" width="108" height="108" rx="8" fill="white"/>
<path fill-rule="evenodd" clip-rule="evenodd" d="M58.1585 49.9486C58.2123 49.9665 58.275 49.9934 58.3287 50.0202C58.4183 50.065 58.4989 50.1277 58.5616 50.2083C58.6332 50.28 58.678 50.3606 58.7138 50.4502C58.7407 50.5487 58.7586 50.6472 58.7586 50.7547C58.7586 50.9249 58.7228 51.095 58.6511 51.2473C58.5795 51.4085 58.472 51.5429 58.3377 51.6503C58.1944 51.7757 58.0152 51.8563 57.8271 51.919C57.5943 51.9817 57.3524 52.0086 57.1106 52.0086H55.5611L56.3851 48.0677H57.7555C57.9346 48.0677 58.1227 48.0856 58.2929 48.1394C58.4272 48.1752 58.5616 48.2379 58.6691 48.3275C58.7586 48.4081 58.8303 48.5066 58.8751 48.623C58.9198 48.7395 58.9467 48.8559 58.9467 48.9813C58.9467 49.1067 58.9288 49.2231 58.884 49.3306C58.8392 49.447 58.7855 49.5455 58.7049 49.6262C58.6153 49.7157 58.5168 49.7963 58.4093 49.8501C58.3287 49.8949 58.2391 49.9217 58.1585 49.9486ZM57.1733 48.7932L56.9942 49.6262H57.3524C57.433 49.6262 57.5226 49.6172 57.6122 49.5903C57.6838 49.5724 57.7465 49.5366 57.8092 49.4918C57.854 49.456 57.8988 49.4022 57.9257 49.3485C57.9525 49.2858 57.9615 49.2231 57.9615 49.1515C57.9615 49.0977 57.9615 49.044 57.9436 48.9992C57.9257 48.9544 57.8988 48.9186 57.863 48.8917C57.8271 48.8559 57.7734 48.838 57.7197 48.8201C57.648 48.8022 57.5674 48.7932 57.4957 48.7932H57.1733ZM56.8509 50.3516L56.6538 51.2921H57.0748C57.1823 51.2921 57.2987 51.2742 57.3972 51.2473C57.4778 51.2204 57.5495 51.1846 57.6122 51.1309C57.6659 51.0861 57.7107 51.0323 57.7376 50.9607C57.7644 50.898 57.7734 50.8263 57.7734 50.7547C57.7734 50.6382 57.7376 50.5397 57.648 50.4591C57.5495 50.3696 57.3972 50.3516 57.2629 50.3516H56.8509ZM61.4366 51.1488H60.1469L59.6991 52.0086H58.6422L60.8724 48.0677H61.9472L62.5025 52.0086H61.5441L61.4366 51.1488ZM61.2306 49.0171C61.2217 49.0261 61.2217 49.044 61.2127 49.0529C61.1948 49.0888 61.1858 49.1156 61.1679 49.1515L60.5051 50.4054H61.365L61.2306 49.1425C61.2306 49.1156 61.2306 49.0798 61.2306 49.044C61.2306 49.035 61.2306 49.0261 61.2306 49.0171ZM64.2938 49.3395C64.2938 49.3664 64.2848 49.3933 64.2848 49.4291C64.2759 49.5097 64.2579 49.5903 64.24 49.6709L63.7474 52.0086H62.8607L63.6847 48.0677H64.5804L65.7358 50.4591C65.7447 50.477 65.7537 50.5039 65.7626 50.5218C65.7806 50.5576 65.7895 50.5845 65.7985 50.6114C65.8074 50.6203 65.8074 50.6293 65.8164 50.6382C65.8164 50.6203 65.8164 50.6114 65.8164 50.5935C65.8253 50.5576 65.8253 50.5218 65.8343 50.4949C65.8433 50.4591 65.8433 50.4322 65.8522 50.4054L66.3448 48.0677H67.2315L66.4165 52.0086H65.5746L64.3833 49.5366C64.3654 49.5097 64.3565 49.4829 64.3475 49.456C64.3296 49.4291 64.3206 49.4022 64.3027 49.3664C64.3027 49.3575 64.2938 49.3485 64.2938 49.3395ZM69.408 50.0023C69.4348 50.074 69.4796 50.1456 69.5154 50.2173C69.5692 50.3337 69.6319 50.4502 69.6946 50.5666C69.7662 50.7009 69.8379 50.8263 69.9095 50.9607C69.9812 51.095 70.0528 51.2204 70.1245 51.3548C70.1872 51.4712 70.2499 51.5876 70.3036 51.7041C70.3484 51.7847 70.3842 51.8743 70.4201 51.9549L70.4469 52.0086H69.3184L69.3094 51.9817C69.2826 51.919 69.2557 51.8474 69.2199 51.7847C69.1751 51.6862 69.1303 51.5876 69.0855 51.4891C69.0228 51.3816 68.9691 51.2652 68.9154 51.1577C68.8527 51.0413 68.7989 50.9338 68.7452 50.8174C68.6914 50.7189 68.6467 50.6203 68.6019 50.5218C68.5661 50.4591 68.5392 50.3875 68.5123 50.3248C68.5034 50.2979 68.4944 50.28 68.4854 50.2531L68.1272 52.0086H67.1778L68.0018 48.0677H68.9422L68.5929 49.7515C68.6108 49.7426 68.6198 49.7247 68.6287 49.7068C68.6825 49.6441 68.7452 49.5724 68.7989 49.5097C68.8795 49.4202 68.9601 49.3216 69.0407 49.2231C69.1393 49.1156 69.2288 49.0082 69.3274 48.9007C69.4259 48.7842 69.5154 48.6768 69.614 48.5693C69.6946 48.4708 69.7752 48.3812 69.8558 48.2827C69.9095 48.22 69.9633 48.1573 70.0081 48.0856L70.017 48.0677H71.1724L71.1187 48.1394C71.056 48.22 70.9843 48.2916 70.9127 48.3722C70.8142 48.4797 70.7156 48.5872 70.6082 48.7036C70.4917 48.829 70.3753 48.9544 70.2499 49.0798C70.1334 49.2052 70.0081 49.3306 69.8916 49.456C69.7931 49.5635 69.6856 49.6799 69.5871 49.7874C69.5244 49.859 69.4617 49.9307 69.408 50.0023ZM56.8598 56.9795H55.5611L55.1223 57.8393H54.0654L56.2956 53.8984H57.3704L57.9167 57.8393H56.9673L56.8598 56.9795ZM56.6449 54.8478C56.6449 54.8568 56.6359 54.8747 56.6359 54.8837C56.618 54.9195 56.6001 54.9464 56.5822 54.9822L55.9283 56.2361H56.7882L56.6538 54.9732C56.6538 54.9464 56.6538 54.9105 56.6449 54.8747C56.6449 54.8657 56.6449 54.8568 56.6449 54.8478ZM60.6574 56.0928C60.7291 56.1286 60.8007 56.1913 60.8545 56.263C60.944 56.3794 60.9978 56.5317 61.0336 56.675L61.3112 57.8393H60.3081L60.0931 56.8183C60.0752 56.6929 60.0305 56.5675 59.9409 56.4779C59.8603 56.3884 59.7618 56.3615 59.6453 56.3615H59.5378L59.2244 57.8393H58.2839L59.1079 53.8984H60.4335C60.6216 53.8984 60.8276 53.9164 61.0067 53.979C61.15 54.0328 61.2844 54.1044 61.4008 54.203C61.4993 54.3015 61.571 54.409 61.6158 54.5344C61.6695 54.6597 61.6874 54.7941 61.6874 54.9195C61.6874 55.0807 61.6605 55.2419 61.5978 55.3852C61.5352 55.5196 61.4545 55.636 61.3471 55.7435C61.2485 55.842 61.1232 55.9226 60.9888 55.9853C60.8813 56.0301 60.7738 56.0659 60.6574 56.0928ZM59.8961 54.6329L59.6901 55.6271H59.9857C60.0931 55.6271 60.2006 55.6181 60.3081 55.5823C60.3887 55.5464 60.4604 55.5106 60.5231 55.4569C60.5858 55.4031 60.6216 55.3494 60.6574 55.2777C60.6843 55.2061 60.6932 55.1434 60.6932 55.0628C60.6932 54.9464 60.6664 54.8299 60.5858 54.7493C60.4872 54.6597 60.3439 54.6329 60.2185 54.6329H59.8961ZM63.9086 54.6866L63.2548 57.8393H62.3144L62.9592 54.6866H61.8845L62.0546 53.8984H65.1446L64.9745 54.6866H63.9086ZM67.4913 56.2809H66.0224L65.7 57.8393H64.7506L65.5746 53.8984H66.515L66.1926 55.439H67.6704L67.9928 53.8984H68.9333L68.1093 57.8393H67.1688L67.4913 56.2809ZM71.262 56.9795H69.9633L69.5154 57.8393H68.4675L70.6888 53.8984H71.7635L72.3189 57.8393H71.3695L71.262 56.9795ZM71.047 54.8478C71.0381 54.8568 71.0381 54.8747 71.0291 54.8837C71.0201 54.9195 71.0022 54.9464 70.9843 54.9822L70.3215 56.2361H71.1814L71.056 54.9732C71.047 54.9464 71.047 54.9105 71.047 54.8747C71.047 54.8657 71.047 54.8568 71.047 54.8478ZM76.5911 57.0601L76.7344 56.3436H75.9642L76.1254 55.5733H77.8271L77.4062 57.5975L77.3883 57.6065C77.3077 57.6423 77.2271 57.6871 77.1375 57.7139C77.039 57.7498 76.9404 57.7856 76.8419 57.8125C76.7255 57.8483 76.618 57.8662 76.5016 57.8841C76.3672 57.902 76.2329 57.911 76.0985 57.911C75.8477 57.911 75.597 57.8752 75.3551 57.7856C75.1491 57.705 74.961 57.5885 74.7998 57.4273C74.6476 57.2661 74.5311 57.078 74.4595 56.8631C74.3789 56.6391 74.343 56.3973 74.343 56.1555C74.343 55.9495 74.3609 55.7524 74.4057 55.5554C74.4505 55.3673 74.5132 55.1792 74.6028 55.0091C74.6923 54.8389 74.8088 54.6777 74.9431 54.5344C75.0775 54.391 75.2387 54.2657 75.4089 54.1671C75.597 54.0507 75.803 53.979 76.009 53.9253C76.2508 53.8626 76.5016 53.8357 76.7434 53.8357C76.8598 53.8357 76.9763 53.8447 77.0927 53.8537C77.2002 53.8716 77.2987 53.8895 77.4062 53.9074C77.4957 53.9343 77.5853 53.9522 77.6659 53.979C77.7465 54.0059 77.8182 54.0328 77.8898 54.0597L77.9167 54.0776L77.7286 54.9643L77.6838 54.9284C77.6211 54.8837 77.5584 54.8478 77.4957 54.821C77.4241 54.7851 77.3435 54.7583 77.2629 54.7314C77.1823 54.7045 77.0927 54.6866 76.9942 54.6687C76.9046 54.6508 76.8061 54.6418 76.7076 54.6418C76.5105 54.6418 76.3135 54.6777 76.1254 54.7493C75.9642 54.821 75.8119 54.9195 75.6955 55.0449C75.5701 55.1792 75.4805 55.3404 75.4178 55.5106C75.3462 55.7077 75.3193 55.9047 75.3193 56.1107C75.3193 56.254 75.3372 56.4063 75.382 56.5406C75.4178 56.6571 75.4805 56.7645 75.5611 56.8451C75.6417 56.9347 75.7403 56.9974 75.8477 57.0422C75.9642 57.087 76.0896 57.1049 76.215 57.1049C76.2956 57.1049 76.3762 57.1049 76.4478 57.0959C76.4926 57.087 76.5374 57.0691 76.5911 57.0601ZM80.3798 56.0928C80.4514 56.1286 80.5141 56.1913 80.5678 56.263C80.6574 56.3794 80.7112 56.5317 80.747 56.675L81.0246 57.8393H80.0304L79.8155 56.8183C79.7886 56.6929 79.7438 56.5675 79.6543 56.4779C79.5826 56.3884 79.4751 56.3615 79.3587 56.3615H79.2512L78.9467 57.8393H77.9973L78.8213 53.8984H80.1469C80.335 53.8984 80.541 53.9164 80.7201 53.979C80.8634 54.0328 81.0067 54.1044 81.1142 54.203C81.2127 54.3015 81.2844 54.409 81.3381 54.5344C81.3829 54.6597 81.4008 54.7941 81.4008 54.9195C81.4008 55.0807 81.3739 55.2419 81.3112 55.3852C81.2575 55.5196 81.1679 55.636 81.0694 55.7435C80.9619 55.842 80.8365 55.9226 80.7022 55.9853C80.5947 56.0301 80.4872 56.0659 80.3798 56.0928ZM79.6095 54.6329L79.4035 55.6271H79.6991C79.8065 55.6271 79.923 55.6181 80.0215 55.5823C80.1021 55.5464 80.1827 55.5106 80.2454 55.4569C80.2991 55.4031 80.3439 55.3494 80.3708 55.2777C80.3977 55.2061 80.4156 55.1434 80.4156 55.0628C80.4156 54.9464 80.3887 54.8299 80.2991 54.7493C80.2006 54.6597 80.0573 54.6329 79.9319 54.6329H79.6095ZM83.837 56.9795H82.5383L82.0994 57.8393H81.0425L83.2638 53.8984H84.3475L84.8939 57.8393H83.9445L83.837 56.9795ZM83.622 54.8478C83.622 54.8568 83.6131 54.8747 83.6041 54.8837C83.5952 54.9195 83.5772 54.9464 83.5593 54.9822L82.8966 56.2361H83.7653L83.631 54.9732C83.631 54.9464 83.622 54.9105 83.622 54.8747C83.622 54.8657 83.622 54.8568 83.622 54.8478ZM88.0018 56.2809H86.524L86.2015 57.8393H85.2611L86.0761 53.8984H87.0255L86.7031 55.439H88.172L88.4944 53.8984H89.4348L88.6198 57.8393H87.6794L88.0018 56.2809ZM91.7635 56.9795H90.4648L90.026 57.8393H88.9691L91.1993 53.8984H92.2741L92.8294 57.8393H91.871L91.7635 56.9795ZM91.5575 54.8478C91.5486 54.8568 91.5396 54.8747 91.5396 54.8837C91.5217 54.9195 91.5038 54.9464 91.4859 54.9822L90.8321 56.2361H91.6919L91.5575 54.9732C91.5575 54.9464 91.5575 54.9105 91.5575 54.8747C91.5575 54.8657 91.5575 54.8568 91.5575 54.8478ZM53.9669 63.4014H53.0264L53.8415 59.4605H54.7819L53.9669 63.4014ZM56.1612 60.7323C56.1612 60.7592 56.1612 60.786 56.1523 60.8219C56.1433 60.9025 56.1254 60.9831 56.1075 61.0637L55.6149 63.4014H54.7371L55.5522 59.4605H56.4568L57.6032 61.8429C57.6122 61.8698 57.6211 61.8966 57.6301 61.9146C57.648 61.9414 57.657 61.9773 57.6749 62.0041C57.6749 62.0131 57.6838 62.022 57.6838 62.022C57.6838 62.0131 57.6928 61.9952 57.6928 61.9862C57.6928 61.9504 57.7017 61.9146 57.7107 61.8877C57.7107 61.8519 57.7197 61.825 57.7286 61.7981L58.2123 59.4605H59.099L58.2839 63.4014H57.451L56.2508 60.9293C56.2418 60.9025 56.2239 60.8756 56.215 60.8487C56.206 60.8219 56.1881 60.795 56.1791 60.7592C56.1702 60.7502 56.1702 60.7413 56.1612 60.7323ZM61.3829 60.2486L60.7291 63.4014H59.7797L60.4335 60.2486H59.3587L59.5199 59.4605H62.6099L62.4487 60.2486H61.3829ZM63.8191 60.2486L63.6579 61.0368H64.8939L64.7237 61.834H63.4966L63.3265 62.6132H64.7416L64.5804 63.4014H62.2248L63.0488 59.4605H65.3059L65.1446 60.2486H63.8191ZM67.4644 61.6548C67.536 61.6906 67.5987 61.7533 67.6525 61.825C67.751 61.9414 67.8047 62.0937 67.8406 62.237L68.1093 63.4014H67.1151L66.9001 62.3803C66.8822 62.2549 66.8374 62.1295 66.7479 62.031C66.6673 61.9504 66.5598 61.9235 66.4523 61.9235H66.3359L66.0313 63.4014H65.0909L65.906 59.4605H67.2405C67.4286 59.4605 67.6256 59.4784 67.8137 59.5411C67.957 59.5948 68.0914 59.6665 68.1988 59.765C68.3063 59.8635 68.378 59.971 68.4227 60.0964C68.4675 60.2218 68.4944 60.3561 68.4944 60.4815C68.4944 60.6427 68.4675 60.795 68.4048 60.9473C68.3421 61.0816 68.2615 61.198 68.1541 61.2966C68.0466 61.404 67.9301 61.4846 67.7958 61.5473C67.6883 61.5921 67.5808 61.628 67.4644 61.6548ZM66.7031 60.1949L66.4881 61.1891H66.7837C66.8912 61.1891 67.0076 61.1801 67.1151 61.1353C67.1957 61.1085 67.2673 61.0726 67.33 61.0189C67.3838 60.9652 67.4286 60.9114 67.4644 60.8398C67.4913 60.7681 67.5002 60.6965 67.5002 60.6248C67.5002 60.5084 67.4734 60.3919 67.3838 60.3113C67.2942 60.2128 67.1509 60.1949 67.0255 60.1949H66.7031ZM69.9722 60.7323C69.9722 60.7592 69.9722 60.786 69.9633 60.8219C69.9543 60.9025 69.9364 60.9831 69.9185 61.0637L69.4259 63.4014H68.5481L69.3632 59.4605H70.2678L71.4142 61.8429C71.4232 61.8698 71.4322 61.8966 71.4501 61.9146C71.459 61.9414 71.4769 61.9773 71.4859 62.0041C71.4859 62.0131 71.4949 62.022 71.4949 62.022C71.4949 62.0131 71.5038 61.9952 71.5038 61.9862C71.5038 61.9504 71.5128 61.9146 71.5217 61.8877C71.5217 61.8519 71.5307 61.825 71.5396 61.7981L72.0233 59.4605H72.91L72.0949 63.4014H71.262L70.0618 60.9293C70.0528 60.9025 70.0349 60.8756 70.026 60.8487C70.017 60.8219 69.9991 60.795 69.9901 60.7592C69.9812 60.7502 69.9812 60.7413 69.9722 60.7323ZM75.2387 62.5415H73.9489L73.5011 63.4014H72.4442L74.6744 59.4605H75.7492L76.3045 63.4014H75.3462L75.2387 62.5415ZM75.0327 60.4099C75.0237 60.4188 75.0237 60.4367 75.0148 60.4457C74.9969 60.4815 74.979 60.5084 74.97 60.5442L74.3072 61.7981H75.167L75.0327 60.5353C75.0327 60.4994 75.0327 60.4726 75.0327 60.4367C75.0327 60.4278 75.0327 60.4188 75.0327 60.4099ZM79.3766 60.4278C79.3229 60.3919 79.2602 60.3651 79.1975 60.3293C79.1348 60.3024 79.0631 60.2666 78.9915 60.2486C78.9198 60.2218 78.8392 60.2039 78.7676 60.1859C78.687 60.168 78.5974 60.1591 78.5168 60.1591C78.4362 60.1591 78.3466 60.168 78.275 60.2039C78.2212 60.2218 78.1675 60.2576 78.1227 60.2934C78.0958 60.3293 78.069 60.3651 78.0511 60.4099C78.0331 60.4546 78.0242 60.4905 78.0242 60.5353C78.0242 60.58 78.0331 60.6338 78.0511 60.6786C78.069 60.7323 78.0958 60.7771 78.1317 60.8129C78.1764 60.8577 78.2212 60.9025 78.275 60.9473C78.3556 61.001 78.4272 61.0547 78.5078 61.0995C78.6243 61.1712 78.7318 61.2518 78.8303 61.3324C78.9198 61.404 79.0004 61.4936 79.0721 61.5832C79.1437 61.6727 79.1975 61.7713 79.2333 61.8787C79.2691 61.9952 79.2781 62.1116 79.2781 62.237C79.2781 62.3176 79.2691 62.4072 79.2512 62.4878C79.2333 62.5773 79.2065 62.6759 79.1617 62.7654C79.1258 62.855 79.0631 62.9446 78.9915 63.0252C78.9109 63.1147 78.8213 63.1954 78.7138 63.258C78.5884 63.3297 78.4541 63.3745 78.3197 63.4103C78.1406 63.4551 77.9615 63.473 77.7824 63.473C77.6659 63.473 77.5584 63.464 77.442 63.4461C77.3435 63.4282 77.236 63.4103 77.1375 63.3834C77.0479 63.3566 76.9584 63.3297 76.8688 63.2939C76.7882 63.267 76.7165 63.2312 76.6449 63.1954L76.618 63.1774L76.7792 62.3176L76.833 62.3624C76.8957 62.4072 76.9673 62.452 77.039 62.4967C77.1106 62.5415 77.1912 62.5773 77.2718 62.6042C77.3524 62.64 77.442 62.658 77.5316 62.6759C77.6122 62.6938 77.7017 62.7027 77.7913 62.7027C77.8719 62.7027 77.9615 62.6938 78.0331 62.6759C78.0869 62.658 78.1496 62.6311 78.1944 62.5863C78.2302 62.5505 78.257 62.5147 78.275 62.4699C78.2929 62.4161 78.3018 62.3624 78.3018 62.3176C78.3018 62.2639 78.2929 62.2191 78.275 62.1653C78.257 62.1206 78.2302 62.0847 78.1944 62.0489C78.1496 61.9952 78.0869 61.9504 78.0331 61.9146C77.9525 61.8608 77.863 61.8071 77.7824 61.7533C77.6749 61.6996 77.5764 61.628 77.4868 61.5563C77.3972 61.4846 77.3166 61.404 77.245 61.3055C77.1823 61.216 77.1285 61.1174 77.0927 61.0099C77.0569 60.8846 77.039 60.7592 77.039 60.6338C77.039 60.4815 77.0658 60.3293 77.1285 60.1859C77.1823 60.0337 77.2718 59.8993 77.3883 59.7829C77.5226 59.6575 77.6838 59.5679 77.8451 59.5052C78.06 59.4246 78.2839 59.3978 78.5078 59.3978C78.6153 59.3978 78.7138 59.4067 78.8124 59.4157C78.9109 59.4246 79.0004 59.4426 79.099 59.4605C79.1796 59.4784 79.2602 59.5052 79.3498 59.5321C79.4214 59.55 79.4931 59.5769 79.5647 59.6127L79.5916 59.6217L79.4304 60.4636L79.3766 60.4278ZM80.5141 63.4014H79.5647L80.3798 59.4605H81.3292L80.5141 63.4014ZM85.2253 61.0995C85.2253 61.2518 85.2163 61.413 85.1894 61.5653C85.1626 61.7265 85.1178 61.8787 85.073 62.031C85.0193 62.1743 84.9476 62.3176 84.867 62.452C84.7953 62.5953 84.6968 62.7207 84.5893 62.8281C84.4998 62.9267 84.4013 63.0162 84.3027 63.0968C84.1953 63.1774 84.0788 63.2401 83.9534 63.2939C83.8191 63.3566 83.6847 63.3924 83.5504 63.4282C83.3892 63.4551 83.2369 63.473 83.0757 63.473C82.8428 63.473 82.6099 63.4372 82.395 63.3387C82.1979 63.258 82.0278 63.1416 81.8845 62.9804C81.7322 62.8281 81.6337 62.64 81.562 62.443C81.4814 62.228 81.4545 61.9952 81.4545 61.7713C81.4545 61.6011 81.4635 61.4309 81.4993 61.2697C81.5262 61.1085 81.562 60.9473 81.6247 60.795C81.6874 60.6427 81.7591 60.4905 81.8397 60.3561C81.9292 60.2218 82.0278 60.0874 82.1442 59.9799C82.2338 59.8904 82.3323 59.8098 82.4398 59.7381C82.5383 59.6665 82.6547 59.6038 82.7712 59.559C82.8966 59.5052 83.0309 59.4605 83.1652 59.4336C83.3085 59.4067 83.4519 59.3978 83.6041 59.3978C83.828 59.3978 84.0519 59.4336 84.2579 59.5142C84.455 59.5859 84.6341 59.7023 84.7774 59.8456C84.9297 60.0068 85.0372 60.1859 85.1088 60.383C85.1984 60.6159 85.2253 60.8577 85.2253 61.0995ZM84.24 61.1264C84.24 61.001 84.2311 60.8666 84.1953 60.7502C84.1594 60.6427 84.1146 60.5532 84.043 60.4726C83.9803 60.3919 83.9086 60.3382 83.8191 60.3024C83.7206 60.2576 83.6131 60.2397 83.5056 60.2397C83.3712 60.2397 83.2459 60.2666 83.1205 60.3293C82.9951 60.4009 82.8876 60.4905 82.798 60.5979C82.7353 60.6696 82.6906 60.7502 82.6458 60.8398C82.601 60.9293 82.5652 61.0279 82.5293 61.1264C82.5025 61.2339 82.4756 61.3324 82.4577 61.4399C82.4487 61.5473 82.4398 61.6548 82.4398 61.7533C82.4398 61.8877 82.4487 62.0131 82.4846 62.1385C82.5204 62.237 82.5652 62.3266 82.6368 62.4072C82.6995 62.4878 82.7712 62.5415 82.8607 62.5773C82.9592 62.6221 83.0578 62.64 83.1652 62.64C83.2996 62.64 83.4339 62.6042 83.5593 62.5415C83.6847 62.4788 83.7922 62.3803 83.8907 62.2639C83.9445 62.1922 83.9982 62.1116 84.043 62.022C84.0878 61.9325 84.1236 61.834 84.1505 61.7354C84.1863 61.628 84.2042 61.5294 84.2221 61.422C84.2311 61.3234 84.24 61.2249 84.24 61.1264ZM86.8106 60.7323C86.8016 60.7592 86.8016 60.786 86.8016 60.8219C86.7837 60.9025 86.7747 60.9831 86.7568 61.0637L86.2642 63.4014H85.3775L86.1926 59.4605H87.0972L88.2436 61.8429C88.2526 61.8698 88.2705 61.8966 88.2794 61.9146C88.2974 61.9414 88.3063 61.9773 88.3153 62.0041C88.3242 62.0131 88.3242 62.022 88.3332 62.022C88.3332 62.0131 88.3332 61.9952 88.3332 61.9862C88.3421 61.9504 88.3421 61.9146 88.3511 61.8877C88.3601 61.8519 88.3601 61.825 88.369 61.7981L88.8527 59.4605H89.7483L88.9243 63.4014H88.0914L86.9001 60.9293C86.8822 60.9025 86.8733 60.8756 86.8553 60.8487C86.8464 60.8219 86.8374 60.795 86.8195 60.7592C86.8195 60.7502 86.8106 60.7413 86.8106 60.7323ZM92.077 62.5415H90.7783L90.3305 63.4014H89.2826L91.5038 59.4605H92.5786L93.1339 63.4014H92.1845L92.077 62.5415ZM91.8621 60.4099C91.8621 60.4188 91.8531 60.4367 91.8442 60.4457C91.8352 60.4815 91.8173 60.5084 91.7994 60.5442L91.1366 61.7981H91.9964L91.871 60.5353C91.8621 60.4994 91.8621 60.4726 91.8621 60.4367C91.8621 60.4278 91.8621 60.4188 91.8621 60.4099ZM94.6117 62.6042H96L95.8388 63.4014H93.5011L94.3162 59.4605H95.2656L94.6117 62.6042Z" fill="black"/>
<path fill-rule="evenodd" clip-rule="evenodd" d="M50.4201 48.2738H54.3072L50.7873 63.4462C47.9481 63.4462 45.1357 63.4372 42.2875 63.4372C42.4487 62.7476 42.6099 62.0489 42.7801 61.3593C41.0694 63.6522 38.3377 64.297 36.0717 63.4103C33.3578 63.4103 30.644 63.4103 27.9301 63.4103L26.4792 56.3347L21.6605 63.4462L16 63.4641L19.4572 58.4126H22.2427L23.6937 56.2361H20.944L26.4792 48.1752H29.2826L32.0591 61.0189H33.2414C33.1249 60.8309 33.0175 60.6428 32.9189 60.4368C31.3515 55.7167 34.549 49.4381 40.2096 48.229C45.082 47.2437 48.0107 49.4918 47.8764 53.9343C46.3807 53.9253 44.876 53.9164 43.3713 53.9074C43.7743 51.4533 40.7022 50.8712 38.884 53.0118C38.06 54.0239 37.5047 55.1614 37.245 56.2272H35.2656C35.0685 57.0064 35.0954 57.714 35.2656 58.3857H37.1823C37.3345 59.0306 37.6749 59.559 38.2123 59.8725C39.2244 60.3741 41.3381 60.177 42.2606 58.5738C41.5172 58.5738 40.7649 58.5738 40.0215 58.5738C40.2365 57.7767 40.4514 56.9706 40.6664 56.1734C42.9145 56.1734 45.1536 56.1734 47.3927 56.1734L46.1926 61.0727H47.4554L50.4201 48.2738Z" fill="#A28548"/>
</g>
<rect x="1" y="1" width="110" height="110" rx="9" stroke="#CCCCCC" stroke-width="2"/>
<defs>
<clipPath id="clip0_517_512">
<rect x="2" y="2" width="108" height="108" rx="8" fill="white"/>
</clipPath>
</defs>
</svg>
