<svg width="112" height="112" viewBox="0 0 112 112" fill="none" xmlns="http://www.w3.org/2000/svg">
<g clip-path="url(#clip0_421_552)">
<rect x="2" y="2" width="108" height="108" rx="8" fill="white"/>
<g clip-path="url(#clip1_421_552)">
<path fill-rule="evenodd" clip-rule="evenodd" d="M59.7214 57.9347C59.1737 57.9347 59.3647 57.9322 59.0681 57.7336C59.0681 57.2075 59.3065 56.5953 59.3192 56.0249C59.6467 56.0249 59.6929 55.9724 59.9547 55.9066C60.0774 55.8756 60.171 55.8744 60.2931 55.8415C60.534 55.777 60.639 55.6176 61.0671 56.0356C61.346 56.3082 61.329 56.3436 61.329 56.7787C61.329 57.5623 60.4701 57.9347 59.7214 57.9347ZM59.4697 55.3716C59.4697 54.9624 59.5835 54.5482 59.6493 54.1441C59.8093 53.1645 59.9269 53.2612 60.7762 53.2612C61.5756 53.2612 61.7754 53.9866 60.9919 54.7328C60.8907 54.8302 60.8426 54.8473 60.7206 54.9137C60.4075 55.0832 59.8396 55.3412 59.4697 55.3716ZM57.912 53.0102C58.0689 53.2442 58.2637 53.2011 58.2637 53.4623C58.2637 53.9487 58.1296 54.3155 58.055 54.7613C58.0208 54.9668 58.0056 55.197 57.9531 55.4127L57.6085 57.3795C57.4852 58.3262 57.0077 57.8981 57.0077 58.3363C57.0077 58.5336 57.2562 58.588 57.4599 58.588C58.4831 58.588 60.3538 58.6633 61.2663 58.4748C61.4086 58.4457 61.5282 58.3857 61.6761 58.3319C62.8891 57.8892 63.3337 56.4505 62.5748 55.734C62.4654 55.6309 62.3155 55.5291 62.1783 55.4772L61.6306 55.3216C61.9715 55.2419 62.3301 55.0073 62.5716 54.8049C63.1667 54.306 63.3369 53.3555 62.5337 52.9115C61.8222 52.5181 59.2939 52.6579 58.3142 52.6579C58.0581 52.6579 57.9607 52.8002 57.912 53.0102Z" fill="#34368F"/>
<path fill-rule="evenodd" clip-rule="evenodd" d="M18.2137 57.9348C17.5585 57.9348 17.5035 57.8614 17.6394 57.1595L17.8115 56.0249L18.8252 55.8301C18.9441 55.7941 19.0181 55.7467 19.1085 55.7561C19.7125 55.8169 20.2469 56.9672 19.3552 57.6192C19.0428 57.8482 18.614 57.9348 18.2137 57.9348ZM17.912 55.3716C18.0309 55.1244 18.0891 54.0455 18.2744 53.5731C18.4281 53.1816 18.7285 53.2613 19.2685 53.2613C20.1122 53.2613 20.3424 54.1757 19.2097 54.9106C18.9365 55.0877 18.2529 55.364 17.912 55.3716ZM16.4043 53.0102C16.8072 53.611 16.8862 52.749 16.5549 54.7177L16.0995 57.3783C16.0053 58.2984 15.5 57.9051 15.5 58.3364C15.5 58.5337 15.7485 58.5881 15.9522 58.5881C16.9754 58.5881 18.8461 58.6633 19.7587 58.4749C19.9009 58.4458 20.0205 58.3857 20.1685 58.332C21.5408 57.8311 22.0904 55.8605 20.3904 55.4058C20.3797 55.4033 20.2766 55.3767 20.2709 55.3748L20.1229 55.3217C20.4828 55.2376 20.9065 54.958 21.1367 54.7272C21.1443 54.7196 21.1538 54.7089 21.1607 54.7013C21.3688 54.4793 21.5484 54.1694 21.5667 53.8545C21.6173 52.9818 20.6883 52.658 19.8219 52.658H16.8066C16.5504 52.658 16.4537 52.8003 16.4043 53.0102Z" fill="#34368F"/>
<path fill-rule="evenodd" clip-rule="evenodd" d="M81.6811 57.9348C80.723 57.9348 80.6471 58.2681 81.2663 55.2591C81.3181 55.0093 81.53 53.604 81.6008 53.4826C81.8101 53.1234 83.1148 53.1588 83.5929 53.7615C84.6256 55.0637 83.6239 57.9348 81.6811 57.9348ZM79.6707 52.9596C79.6707 53.2335 80.0223 53.2569 80.0223 53.4118L79.3412 57.4542C79.1698 58.3478 78.7664 57.8172 78.7664 58.4875C78.9415 58.528 78.9358 58.5881 79.118 58.5881C80.9602 58.5881 82.3351 58.7791 83.8484 58.0923C84.7104 57.7008 85.1948 56.8047 85.4769 55.9516C85.6856 55.3223 85.628 54.5818 85.3795 53.9848L85.069 53.4915C84.5934 52.9565 83.8206 52.658 82.9371 52.658H80.1229C79.88 52.658 79.6707 52.7199 79.6707 52.9596Z" fill="#34368F"/>
<path fill-rule="evenodd" clip-rule="evenodd" d="M71.9319 57.9349C70.8087 57.9349 71.1584 57.9424 71.5948 55.2857C71.6599 54.8904 71.7466 54.5369 71.8098 54.0936C71.9306 53.2481 71.9913 53.2613 72.8868 53.2613C73.0867 53.2613 73.3194 53.3556 73.4743 53.427C73.7052 53.5339 73.7703 53.6028 73.9303 53.7755C74.8726 54.7892 74.2124 57.9349 71.9319 57.9349ZM69.972 52.9597C70.0549 53.1165 69.9954 53.0704 70.1434 53.1911C70.4052 53.4043 70.4527 53.262 70.2636 54.055C70.115 54.6798 69.7646 57.5883 69.523 57.8874C69.3441 58.1094 69.1183 58.0183 69.1183 58.387C69.1183 58.5635 69.3409 58.5881 69.5199 58.5881C71.1009 58.5881 73.2435 58.7766 74.409 57.9494C75.1376 57.4321 75.4639 56.9666 75.7719 56.0958C76.1728 54.9606 75.8813 53.3979 74.5602 52.8945C73.6255 52.5391 71.591 52.658 70.4748 52.658C70.151 52.658 70.0846 52.7478 69.972 52.9597Z" fill="#34368F"/>
<path fill-rule="evenodd" clip-rule="evenodd" d="M35.249 52.9596C35.249 53.1569 35.4672 53.241 35.6006 53.3112L35.0858 56.6661C35.046 56.8571 34.9935 57.148 34.9619 57.346C34.9163 57.6305 34.9227 57.7912 34.7494 57.9373C34.6387 58.0302 34.344 58.1637 34.344 58.3363C34.344 58.4988 34.5268 58.588 34.6962 58.588H36.3544C36.5676 58.588 36.706 58.4925 36.706 58.2863C36.706 57.8158 36.1419 58.4451 36.4651 57.0905C36.4809 57.0228 36.5182 56.8653 36.5347 56.7578L36.5676 56.489C36.6245 56.2297 36.651 56.2784 36.9413 56.1096C37.0899 56.0236 37.1823 55.9591 37.3094 55.8743L37.8286 56.8122C37.9506 57.0563 38.2637 57.6495 38.2637 57.8841C38.2637 58.0214 37.9879 58.0119 37.9121 58.3363C38.017 58.5349 38.0632 58.588 38.3642 58.588C39.9851 58.588 40.2235 58.7581 40.2235 58.0852C39.9054 58.0005 39.8725 57.6976 39.7574 57.3959C39.6354 57.0746 39.5336 56.8552 39.3862 56.5611L38.7323 55.4063C38.6172 55.2084 38.5717 55.2628 38.5154 55.0199C38.7171 54.9662 39.2774 54.428 39.488 54.2339L39.7283 54.022C40.1982 53.6305 39.9598 53.6514 40.6308 53.2663C41.0849 53.0051 40.8635 52.6579 40.5252 52.6579C40.0894 52.6579 38.8512 52.4998 38.917 53.0101C39.0668 53.2928 39.0719 53.1429 39.2186 53.3618C39.1396 53.6571 38.9113 53.7697 38.7045 53.9531C38.6494 54.0011 38.6311 54.0264 38.5767 54.0764L36.756 55.4721L36.9774 53.9847C37.1215 53.0424 37.6578 53.2739 37.6104 52.9096C37.5282 52.7534 37.501 52.6579 37.2588 52.6579C36.658 52.6579 35.249 52.5055 35.249 52.9596Z" fill="#34368F"/>
<path fill-rule="evenodd" clip-rule="evenodd" d="M28.7661 53.0103C29.2031 53.6623 29.2208 52.8926 29.076 54.1239C29.0406 54.4275 29.0153 54.5046 28.9628 54.7639L28.4935 57.4106C28.4442 57.6958 28.4929 57.8166 28.3026 57.9734C28.0863 58.1518 27.9939 58.0367 27.9124 58.387C28.1255 58.7058 28.3272 58.5881 29.2689 58.5881C29.525 58.5881 29.6218 58.4465 29.6711 58.2365C29.6028 58.1581 29.5503 58.1151 29.4618 58.0436C29.1095 57.7616 29.2954 57.4428 29.4061 56.8155L29.8216 54.0651L31.5734 57.2885C31.8592 57.8305 32.0705 58.5881 32.5353 58.5881C33.5844 58.5881 33.2126 58.2239 33.5788 56.6169L34.1682 53.4365C34.301 53.0558 34.6956 53.3524 34.5451 52.7086C34.2953 52.6504 32.9375 52.4961 32.9375 52.9597C32.9375 53.243 33.2891 53.1013 33.2891 53.6129L32.8369 56.4771C32.6852 56.3665 32.7712 56.4057 32.5726 55.9877C32.3247 55.4672 32.0629 54.8582 31.772 54.3763L30.8765 52.9097C30.6355 52.5378 29.8197 52.658 29.1683 52.658C28.9122 52.658 28.8154 52.8003 28.7661 53.0103Z" fill="#34368F"/>
<path fill-rule="evenodd" clip-rule="evenodd" d="M65.6509 55.6733C65.7027 55.452 65.723 55.23 65.759 54.9776C65.7894 54.7658 65.8387 54.5457 65.8804 54.2953C66.0594 53.224 66.0069 53.2613 66.9574 53.2613C67.1098 53.2613 67.4305 53.4289 67.5152 53.5073C68.0464 53.998 67.5835 54.9283 67.0751 55.2382C66.8284 55.3881 66.7804 55.4431 66.4749 55.543C66.1442 55.6505 66.0727 55.6733 65.6509 55.6733ZM64.1938 52.9097C64.1938 53.2872 64.4929 53.1449 64.5353 53.4719C64.5498 53.5863 64.541 53.5427 64.5283 53.6388L63.9016 57.3916C63.8011 58.1675 63.3995 57.9133 63.2888 58.387C63.297 58.3958 63.3072 58.3996 63.311 58.4154C63.3141 58.4312 63.328 58.4376 63.3331 58.4433C63.4298 58.5425 63.4703 58.5881 63.6411 58.5881H65.3492C65.6528 58.5881 65.7008 58.4274 65.7008 58.2365C65.7008 58.0657 65.3492 57.9696 65.3492 57.8342C65.3492 57.4175 65.5503 56.8477 65.5503 56.2766C66.5084 56.2766 67.471 56.2077 68.295 55.6537C68.6264 55.4311 68.7674 55.3223 69.0045 55.0067C69.8608 53.8684 69.2006 52.658 67.3091 52.658H64.5954C64.4303 52.658 64.1938 52.811 64.1938 52.9097Z" fill="#34368F"/>
<path fill-rule="evenodd" clip-rule="evenodd" d="M24.9975 53.8639C25.0114 54.0303 25.0633 54.1947 25.1196 54.3452C25.2467 54.6823 25.4497 55.6024 25.4497 55.9749H23.641C23.8408 55.5961 24.0179 55.2249 24.2462 54.872C24.312 54.7702 24.3329 54.7563 24.41 54.6336C24.5232 54.4546 24.8761 53.9455 24.9975 53.8639ZM21.3795 58.2864C21.3795 58.7019 21.2745 58.588 22.9371 58.588C23.1458 58.588 23.1382 58.4015 23.1382 58.2864C23.1382 58.0239 22.7866 58.1371 22.7866 57.7836C22.7866 57.5363 23.1597 57.0184 23.2388 56.6782H25.6002C25.6413 57.1683 25.7008 57.2429 25.7008 57.8842C25.7008 58.2092 25.2992 57.888 25.2992 58.3869C25.2992 58.5412 25.4459 58.588 25.6002 58.588H27.3589C27.5721 58.588 27.7112 58.4926 27.7112 58.2864C27.7112 58.1163 27.4336 58.0391 27.3393 57.7033C27.259 57.42 27.2609 57.1354 27.1964 56.8407L26.5052 54.1156C26.361 53.728 26.3521 53.5699 26.1207 53.0424C25.9335 52.6168 25.9329 52.5574 25.4497 52.5574C25.0083 52.5574 24.8091 52.9476 24.4663 53.3833C24.3613 53.5174 24.2955 53.5869 24.2032 53.7229L23.7055 54.4312C23.5284 54.6816 23.383 54.9365 23.223 55.2053C22.6753 56.1267 22.4375 56.6339 21.974 57.6249C21.7197 58.1688 21.3795 58.0138 21.3795 58.2864Z" fill="#34368F"/>
<path fill-rule="evenodd" clip-rule="evenodd" d="M89.3188 52.9595C89.3188 53.2302 89.6363 53.1025 89.8412 53.6938C89.9582 54.0309 90.0891 54.299 90.2403 54.6013C90.3933 54.9067 90.5261 55.1445 90.676 55.4222C91.2964 56.57 91.223 55.8288 91.0801 56.8818C91.0453 57.1373 90.9985 57.5578 90.8872 57.7937C90.8069 57.9632 90.8335 57.9018 90.6646 57.9733C89.8292 58.3275 90.4085 58.588 90.6254 58.588H92.6358C92.9109 58.588 93.2088 58.2566 92.7585 58.0625C92.4689 57.9379 92.4847 58.0062 92.4847 57.6331L92.6687 56.41C92.7212 56.0716 92.7459 56.1513 93.1595 55.6947L95.0333 53.4478C95.2711 53.2075 95.5 53.265 95.5 52.859C95.5 52.546 94.6621 52.6579 94.1435 52.6579C93.9203 52.6579 93.8305 52.7761 93.7413 52.9096C93.8178 53.2372 93.9171 53.0993 94.0929 53.3618L93.7811 53.9543C93.6268 54.1472 93.5168 54.2914 93.3549 54.483C93.2758 54.576 93.236 54.6361 93.1544 54.7347C93.1057 54.7942 93.0823 54.8245 93.0406 54.872L92.9679 54.9497C92.9609 54.9573 92.9501 54.9681 92.9432 54.9757C92.7712 55.1622 92.5441 55.3001 92.4847 55.5227C92.2602 55.4626 92.2627 55.3109 92.1426 55.111C90.7304 52.7559 91.882 53.4901 91.882 52.9096C91.882 52.7471 91.6992 52.6579 91.5304 52.6579H89.7717C89.5282 52.6579 89.3188 52.7199 89.3188 52.9595Z" fill="#34368F"/>
<path fill-rule="evenodd" clip-rule="evenodd" d="M86.6057 52.9097C86.6057 53.5876 87.1452 52.7421 86.8454 54.0537C86.8049 54.2301 86.7853 54.4989 86.7493 54.7114C86.7145 54.9176 86.674 55.1218 86.6329 55.3495C86.5279 55.9313 86.4154 57.6515 86.1042 57.9361C85.955 58.0727 85.7513 58.122 85.7513 58.387C85.7513 58.5413 85.8987 58.5881 86.053 58.5881H87.6606C87.9041 58.5881 88.1128 58.5261 88.1128 58.2864C88.1128 58.0606 87.7611 58.0183 87.7611 57.8842C87.7611 57.2322 88.3328 54.7493 88.4176 53.9177C88.5061 53.0513 89.0177 53.3182 89.0177 52.9097C89.0177 52.7471 88.835 52.658 88.6655 52.658H87.0579C86.8543 52.658 86.6057 52.7123 86.6057 52.9097Z" fill="#34368F"/>
<path fill-rule="evenodd" clip-rule="evenodd" d="M53.5174 55.705C53.5174 56.4721 53.5269 56.8484 53.396 57.6281C53.1696 58.9758 52.7263 60.1654 51.9149 61.2499C51.156 62.2643 49.9778 63.0751 48.6377 63.0751C48.2823 63.0751 47.9585 63.0081 47.6815 62.9379C46.559 62.652 45.5503 61.649 44.9565 60.6618C43.9395 58.9726 43.5671 56.806 43.8244 54.7386C43.9825 53.4669 44.3923 52.2982 44.9362 51.3957C46.2219 49.2601 48.4986 48.1464 50.7032 49.6098C51.3489 50.0392 51.9048 50.6811 52.3063 51.3477C52.5163 51.6955 52.5327 51.7556 52.694 52.0737C53.1816 53.0356 53.5174 54.6179 53.5174 55.705ZM45.5598 48.7902C45.3467 49.0716 45.1474 49.3619 44.9609 49.6794C44.9122 49.7622 44.8705 49.8337 44.8306 49.914C44.4581 50.6716 44.3272 50.8468 44.0237 51.7587C43.0573 54.659 42.953 58.1303 44.2229 61.0305C44.264 61.1247 44.3057 61.2057 44.3449 61.2936C44.4651 61.5649 44.5833 61.7742 44.7225 62.0291L45.3252 62.9448C45.3859 63.022 45.4453 63.0858 45.4984 63.1567C45.5939 63.2838 45.8323 63.3034 46.0499 63.3546C47.5588 63.7088 50.1808 63.6417 51.5696 63.2737C51.7163 63.2345 51.7068 63.2427 51.7935 63.1333C52.7086 61.9728 53.267 60.7763 53.635 59.3047C53.7337 58.9088 53.8317 58.4642 53.8804 58.0316C53.9892 57.0615 53.9797 56.8054 53.9829 55.8669C53.9841 55.5987 53.9171 54.7728 53.8735 54.4579C53.7577 53.6186 53.5927 52.7807 53.3277 51.987C53.0545 51.1693 52.7345 50.3737 52.2912 49.6414L51.8396 48.959C51.8105 48.9205 51.7935 48.8939 51.7625 48.8541C51.7131 48.7914 51.7283 48.8003 51.6429 48.7706C51.2565 48.6384 50.4477 48.5284 50.0157 48.4948C49.5554 48.4588 49.0741 48.4209 48.5568 48.4373C48.0218 48.4386 47.4886 48.4658 46.9612 48.5233C46.7184 48.5499 46.4749 48.5891 46.2403 48.6314C45.9923 48.6764 45.7906 48.7415 45.5598 48.7902Z" fill="#34368F"/>
<path fill-rule="evenodd" clip-rule="evenodd" d="M48.3303 59.1503L48.3651 59.1174C48.4866 58.977 48.7085 58.461 48.7648 58.3022C48.99 57.6616 49.0165 57.0222 48.8603 56.3525C49.2802 56.3177 49.9569 55.9383 50.2111 55.6379C50.368 55.4526 50.4888 55.2129 50.5786 54.9732C50.779 54.4382 50.7993 53.6509 50.6399 53.095C50.5982 52.9489 50.4768 52.5258 50.3383 52.5258C50.239 52.5258 50.0783 52.5555 50.0145 52.5865C50.2453 53.0235 50.1738 53.2847 50.2288 53.6477L50.2162 54.2662C50.1808 54.7051 50.0328 55.1016 49.7716 55.4419C49.4832 55.8188 49.2568 55.9826 48.7996 56.0894C48.7231 55.7619 48.5043 55.2869 48.3133 55.0162C48.202 54.8581 48.116 54.8006 48.0704 54.7329C48.1039 54.683 48.2077 54.6235 48.2962 54.5135C48.6725 54.048 48.7395 53.2727 48.5074 52.7162L48.3164 52.3816C48.2747 52.3266 48.2715 52.343 48.2526 52.2627C48.527 52.1989 48.9413 51.8447 49.4674 52.08C49.5471 52.116 49.7052 52.2001 49.7514 52.2627C49.568 52.3051 49.3612 52.3241 49.1721 52.2747C49.0817 52.2507 49.0614 52.2204 48.9817 52.202C49.0469 52.2994 49.3112 52.4651 49.4674 52.4651C50.0979 52.4651 50.2541 52.2045 50.5925 52.3121C50.719 52.3519 50.836 52.4872 50.8922 52.5992C51.1939 53.1955 51.1686 55.2806 51.1686 56.1299C51.1686 56.9919 50.8897 58.2592 50.4768 58.941C50.411 59.0491 50.3199 59.2022 50.2333 59.2844C49.9645 59.5399 49.4624 59.397 49.1784 59.2743C49.0178 59.2053 48.5979 58.9555 48.3544 59.1674L48.3303 59.1503ZM48.9381 59.1503C49.0703 59.1168 49.296 58.9252 49.6641 59.0921C49.9152 59.2066 49.8146 59.2224 49.9133 59.1674C49.8854 59.063 49.771 58.9985 49.6907 58.9441V56.3121L49.4137 56.4607C49.3131 56.5113 49.2164 56.5467 49.1234 56.5954V58.843C49.0013 58.9075 48.8894 58.9619 48.8603 59.0864L48.9381 59.1503ZM48.9817 52.1818L48.9754 52.1875C48.976 52.1868 48.9836 52.1837 48.9817 52.1818ZM48.9615 52.1615L48.9552 52.1672C48.9558 52.1666 48.9634 52.1634 48.9615 52.1615ZM48.9413 52.1413L48.9349 52.147C48.9356 52.1464 48.9432 52.1432 48.9413 52.1413ZM48.921 52.1204L48.9147 52.1268C48.9153 52.1261 48.9229 52.123 48.921 52.1204ZM48.9008 52.1002L48.8945 52.1065C48.8951 52.1059 48.9027 52.1027 48.9008 52.1002ZM48.8805 52.08L48.8742 52.0863C48.8749 52.0856 48.8824 52.0825 48.8805 52.08ZM47.8276 59.0864C47.782 59.0554 47.6657 58.9745 47.6657 58.9239V56.2918L48.3544 56.3121C48.4031 56.522 48.3949 56.9919 48.3949 57.2436C48.3949 57.6641 48.3702 57.9841 48.2583 58.3022C48.1242 58.6861 48.0255 58.7905 47.8276 59.0864ZM47.0782 51.999C47.2122 51.9883 47.1572 51.9585 47.4228 51.9585C47.6081 51.9585 47.8706 52.0597 47.9085 52.202C47.727 52.202 47.5822 52.264 47.3128 52.1698L47.118 52.061C47.0598 52.0066 47.1104 52.061 47.0782 51.999ZM45.7621 51.8169C45.7621 51.9902 45.7963 52.0654 45.9392 52.2071C46.2775 52.5435 46.5786 52.2627 47.0377 52.0192C47.0763 52.1002 47.056 52.1072 47.1231 52.1773C47.3368 52.4031 47.7428 52.4107 48.03 52.3437C48.0622 52.4815 48.1071 52.5808 48.1349 52.7453C48.1931 53.0899 48.2273 54.0455 48.0502 54.3275C47.9269 54.5236 47.7492 54.5305 47.6657 54.571V52.8091C47.7998 52.7193 47.8377 52.7029 47.9288 52.5663L47.8649 52.4885C47.6714 52.6162 47.6707 52.6675 47.4026 52.6675C47.3292 52.6675 47.2293 52.6314 47.18 52.6061C47.1111 52.5707 47.0756 52.5239 47.0175 52.4853C46.9871 52.5062 46.896 52.5789 46.8758 52.6068C46.9232 52.677 46.9827 52.7465 47.0782 52.7687V54.4901C46.9877 54.4464 46.9036 54.4155 46.8151 54.368C46.8847 54.6653 47.2717 54.8543 47.5645 54.8543C47.6796 54.8543 47.7043 54.8341 47.8276 54.8341C47.9281 54.984 48.059 55.2313 48.1286 55.4033C48.2608 55.729 48.2545 55.7296 48.3341 56.0692H47.6657V55.0972C47.512 55.1332 47.4077 55.1282 47.2546 55.063C47.1857 55.0339 47.1395 54.9922 47.0782 54.9758V56.1906C46.9637 56.2513 46.8277 56.3336 46.7949 56.4739L47.0782 56.3525V58.843C46.9726 58.8992 46.8802 58.9694 46.8151 59.0662L46.8916 59.1516C47.0567 59.106 47.1851 58.9568 47.5468 59.063C47.6353 59.089 47.6903 59.1288 47.7669 59.1472C47.6518 59.3185 47.3109 59.5924 47.0175 59.5924C46.6013 59.5924 46.3591 59.0036 45.8804 59.4064C45.8266 59.452 45.7191 59.5974 45.7014 59.6733C45.8096 59.6164 45.9044 59.5532 46.0277 59.5133C46.4616 59.3729 46.4072 59.7777 47.1035 59.8713C47.5487 59.9307 47.8453 59.7783 48.1286 59.4273C48.269 59.2534 48.2842 59.1876 48.4151 59.1876C48.5707 59.1876 48.7168 59.2686 48.816 59.3331C48.9349 59.4096 49.0368 59.4792 49.1525 59.5633C49.7501 59.9996 50.4407 60.0717 50.9201 59.4248C51.2907 58.9245 51.5076 58.1195 51.6056 57.4782C51.6619 57.1083 51.7156 56.6788 51.715 56.2716C51.715 56.1723 51.7087 56.0445 51.7169 55.9484C51.722 55.8852 51.7334 55.8782 51.727 55.8143C51.7024 55.5626 51.7144 55.273 51.7156 55.0162L51.6284 53.7868C51.5721 53.3372 51.4216 51.9585 50.8246 51.9585C50.6627 51.9585 50.4761 51.9958 50.3585 52.0395C50.1005 52.135 50.1093 52.2007 49.9765 52.0983C49.7615 51.9313 49.4466 51.7562 49.1234 51.7562C48.8552 51.7562 48.3904 52.0711 48.0907 52.1413C47.9958 51.9984 47.6587 51.7966 47.524 51.7966C47.0946 51.7966 46.4451 52.2792 46.115 52.0724C46.0663 52.0414 46.0157 51.9996 45.9841 51.9598C45.9462 51.9117 45.919 51.8624 45.8848 51.8143C45.857 51.7758 45.7621 51.6961 45.7621 51.8169Z" fill="#34368F"/>
<path fill-rule="evenodd" clip-rule="evenodd" d="M45.6812 52.5663C45.6958 52.7383 45.9038 52.7845 45.9038 52.8699V58.7823C45.9038 58.8563 45.7565 58.8929 45.6407 59.0662L45.7173 59.1516C46.0126 59.0751 46.0385 58.8721 46.6735 59.2079L46.7544 59.1472C46.731 59.0454 46.6558 58.9745 46.5875 58.9094C46.4629 58.7899 46.4901 58.8259 46.4913 58.6001V52.8496C46.5982 52.8212 46.7386 52.6706 46.7949 52.5865L46.6893 52.4898C46.3174 52.7333 46.1928 52.7326 45.8229 52.4854C45.7729 52.529 45.7571 52.5486 45.6812 52.5663Z" fill="#34368F"/>
<path fill-rule="evenodd" clip-rule="evenodd" d="M48.921 52.5865C48.9463 52.6827 49.0254 52.7459 49.1234 52.7687V55.7252C49.1993 55.7075 49.2183 55.6771 49.2777 55.636C49.3732 55.569 49.6331 55.3597 49.6736 55.2831C49.7659 55.1099 49.6205 52.942 49.7147 52.8136C49.7324 52.7895 49.8102 52.7402 49.8475 52.7035C49.8962 52.6561 49.9379 52.6194 49.974 52.5663L49.9095 52.4885C49.716 52.6163 49.6774 52.6675 49.4269 52.6675C49.2967 52.6675 49.1164 52.5581 49.0627 52.4854C49.0159 52.517 48.971 52.553 48.921 52.5865Z" fill="#34368F"/>
<path fill-rule="evenodd" clip-rule="evenodd" d="M47.4431 61.6782H47.3014V60.7061H47.5038C47.7422 60.7061 47.8478 60.911 47.8478 61.1514C47.8478 61.4537 47.7485 61.6782 47.4431 61.6782ZM47.0175 61.7389C47.0175 61.8337 47.142 61.7996 47.3824 61.7996C47.5778 61.7996 47.7289 61.7439 47.8333 61.6434C48.2039 61.2854 48.0394 60.5847 47.5443 60.5847H47.0175V61.7389Z" fill="#34368F"/>
<path fill-rule="evenodd" clip-rule="evenodd" d="M49.549 61.3341V61.7996H49.8121V61.3341C50.1207 61.262 50.3332 60.7997 50.3383 60.5645H50.1157C50.1131 60.684 50.0505 60.892 50.0081 60.9831C49.8589 61.3063 49.5319 61.3259 49.3726 61.004C49.2916 60.8396 49.2885 60.7516 49.2448 60.5645H49.0222C49.0431 60.8149 49.241 61.262 49.549 61.3341Z" fill="#34368F"/>
<path fill-rule="evenodd" clip-rule="evenodd" d="M48.4353 61.7996H48.6984V60.5847H48.4353V61.7996Z" fill="#34368F"/>
<path fill-rule="evenodd" clip-rule="evenodd" d="M45.5598 48.7902C45.7906 48.7415 45.9924 48.6763 46.2403 48.6314C46.4749 48.589 46.7184 48.5498 46.9612 48.5233C47.4887 48.4657 48.0218 48.4385 48.5568 48.4373C48.5018 48.3993 48.2627 48.4151 48.1717 48.4151L46.9758 48.4948C46.7209 48.5226 45.9057 48.6447 45.6427 48.7402L45.5598 48.7902Z" fill="#34368F"/>
<path fill-rule="evenodd" clip-rule="evenodd" d="M48.8666 52.1558L48.8818 52.1406C48.8805 52.1419 48.8615 52.1507 48.8666 52.1558Z" fill="#34368F"/>
</g>
</g>
<rect x="1" y="1" width="110" height="110" rx="9" stroke="#CCCCCC" stroke-width="2"/>
<defs>
<clipPath id="clip0_421_552">
<rect x="2" y="2" width="108" height="108" rx="8" fill="white"/>
</clipPath>
<clipPath id="clip1_421_552">
<rect width="80" height="15.1779" fill="white" transform="translate(15.5 48.4111)"/>
</clipPath>
</defs>
</svg>
