<svg width="112" height="112" viewBox="0 0 112 112" fill="none" xmlns="http://www.w3.org/2000/svg">
<g clip-path="url(#clip0_517_518)">
<rect x="2" y="2" width="108" height="108" rx="8" fill="white"/>
<path d="M20.173 49.2199C19.96 49.5175 19.5452 49.5848 19.2487 49.3707C18.9511 49.1577 18.8838 48.743 19.0978 48.4464C19.8489 47.4028 20.5755 46.7068 21.4153 46.3277C22.2805 45.9363 23.2201 45.8935 24.3707 46.1697C25.1177 46.3481 25.7791 46.3042 26.359 46.0219C26.9613 45.7284 27.5025 45.171 27.9845 44.3323C28.1669 44.0153 28.5725 43.9063 28.8895 44.0877C29.2064 44.2701 29.3154 44.6757 29.133 44.9926C28.5114 46.0739 27.7817 46.8077 26.9409 47.2174C26.0767 47.6393 25.1198 47.7116 24.064 47.4589C23.214 47.2551 22.5445 47.2744 21.9605 47.5384C21.3501 47.8146 20.7865 48.369 20.173 49.2199Z" fill="#4198FF"/>
<path d="M17.2003 58.984C16.9873 59.2806 16.5725 59.3489 16.2759 59.1349C15.9783 58.9208 15.9111 58.5061 16.1251 58.2095C16.8762 57.1659 17.6028 56.4709 18.4425 56.0908C19.3078 55.6994 20.2474 55.6576 21.398 55.9328C22.145 56.1122 22.8064 56.0683 23.3863 55.7861C23.9886 55.4925 24.5287 54.9351 25.0117 54.0964C25.1942 53.7784 25.5998 53.6694 25.9167 53.8518C26.2337 54.0342 26.3427 54.4388 26.1603 54.7557C25.5386 55.837 24.8089 56.5718 23.9682 56.9815C23.104 57.4024 22.147 57.4747 21.0912 57.222C20.2413 57.0182 19.5717 57.0385 18.9878 57.3025C18.3773 57.5787 17.8138 58.132 17.2003 58.984Z" fill="#4198FF"/>
<path d="M20.9638 51.0329C20.7498 51.3305 20.3361 51.3978 20.0385 51.1837C19.7419 50.9697 19.6736 50.556 19.8876 50.2584C20.6387 49.2148 21.3664 48.5198 22.2051 48.1407C23.0714 47.7483 24.011 47.7065 25.1605 47.9817C25.9075 48.1611 26.57 48.1172 27.1488 47.8349C27.7521 47.5414 28.2923 46.984 28.7753 46.1453C28.9577 45.8283 29.3623 45.7182 29.6793 45.9007C29.9962 46.0831 30.1063 46.4877 29.9239 46.8056C29.3012 47.8869 28.5725 48.6207 27.7307 49.0304C26.8665 49.4523 25.9096 49.5236 24.8538 49.2709C24.0038 49.067 23.3343 49.0874 22.7514 49.3514C22.1409 49.6276 21.5763 50.182 20.9638 51.0329Z" fill="#4198FF"/>
<path d="M17.9911 60.797C17.7771 61.0936 17.3623 61.1608 17.0657 60.9468C16.7681 60.7338 16.7009 60.3191 16.9149 60.0225C17.666 58.9789 18.3936 58.2839 19.2324 57.9038C20.0986 57.5124 21.0372 57.4696 22.1878 57.7458C22.9348 57.9241 23.5962 57.8813 24.1761 57.599C24.7794 57.3045 25.3195 56.7471 25.8026 55.9083C25.985 55.5914 26.3896 55.4824 26.7065 55.6648C27.0235 55.8462 27.1335 56.2518 26.9511 56.5687C26.3284 57.65 25.5998 58.3848 24.758 58.7945C23.8938 59.2154 22.9368 59.2877 21.881 59.035C21.0311 58.8312 20.3615 58.8505 19.7776 59.1145C19.1671 59.3906 18.6036 59.945 17.9911 60.797Z" fill="#4198FF"/>
<path d="M21.825 53.009C21.611 53.3055 21.1972 53.3738 20.8996 53.1598C20.6031 52.9458 20.5348 52.531 20.7488 52.2344C21.4999 51.1909 22.2275 50.4958 23.0663 50.1167C23.9325 49.7244 24.8721 49.6826 26.0217 49.9578C26.7697 50.1371 27.4311 50.0933 28.01 49.811C28.6133 49.5175 29.1534 48.96 29.6365 48.1213C29.8189 47.8034 30.2235 47.6943 30.5404 47.8767C30.8584 48.0591 30.9674 48.4637 30.785 48.7807C30.1623 49.862 29.4337 50.5967 28.5929 51.0064C27.7277 51.4273 26.7717 51.4997 25.7159 51.2469C24.865 51.0431 24.1965 51.0635 23.6125 51.3274C23.0021 51.6036 22.4375 52.157 21.825 53.009Z" fill="#4198FF"/>
<path d="M18.8522 62.7721C18.6382 63.0696 18.2245 63.1369 17.9269 62.9229C17.6303 62.7089 17.562 62.2951 17.776 61.9975C18.5271 60.955 19.2548 60.2589 20.0935 59.8798C20.9598 59.4885 21.8994 59.4457 23.0489 59.7208C23.7959 59.9002 24.4584 59.8564 25.0372 59.5741C25.6405 59.2806 26.1807 58.7231 26.6637 57.8844C26.8461 57.5675 27.2507 57.4584 27.5677 57.6398C27.8846 57.8222 27.9947 58.2268 27.8123 58.5448C27.1896 59.6261 26.4609 60.3598 25.6191 60.7695C24.7549 61.1914 23.798 61.2628 22.7422 61.01C21.8922 60.8072 21.2237 60.8266 20.6398 61.0905C20.0293 61.3667 19.4647 61.9211 18.8522 62.7721Z" fill="#4198FF"/>
<path d="M22.6046 54.7985C22.3916 55.0951 21.9768 55.1624 21.6803 54.9494C21.3827 54.7353 21.3154 54.3206 21.5294 54.024C22.2805 52.9804 23.0071 52.2854 23.8469 51.9053C24.7121 51.5139 25.6517 51.4722 26.8023 51.7473C27.5493 51.9267 28.2107 51.8829 28.7906 51.6006C29.3929 51.3071 29.934 50.7496 30.4161 49.9109C30.5985 49.5929 31.0041 49.4839 31.3211 49.6663C31.638 49.8487 31.747 50.2533 31.5656 50.5702C30.943 51.6515 30.2133 52.3863 29.3725 52.796C28.5083 53.2169 27.5514 53.2892 26.4956 53.0365C25.6456 52.8327 24.9761 52.853 24.3921 53.117C23.7817 53.3932 23.2181 53.9466 22.6046 54.7985Z" fill="#4198FF"/>
<path d="M19.6319 64.5616C19.4189 64.8592 19.0041 64.9265 18.7075 64.7124C18.4099 64.4984 18.3427 64.0847 18.5567 63.7871C19.3078 62.7435 20.0344 62.0485 20.8741 61.6694C21.7394 61.277 22.679 61.2352 23.8296 61.5104C24.5766 61.6898 25.238 61.6459 25.8179 61.3636C26.4202 61.0701 26.9603 60.5127 27.4433 59.674C27.6258 59.357 28.0314 59.247 28.3483 59.4294C28.6653 59.6118 28.7743 60.0164 28.5919 60.3343C27.9702 61.4156 27.2405 62.1494 26.3998 62.5591C25.5356 62.981 24.5786 63.0523 23.5228 62.7996C22.6729 62.5958 22.0033 62.6161 21.4194 62.8801C20.8089 63.1563 20.2454 63.7107 19.6319 64.5616Z" fill="#4198FF"/>
<path fill-rule="evenodd" clip-rule="evenodd" d="M42.8207 50.0444C42.7963 50.2227 42.7484 50.3929 42.677 50.5519C42.6057 50.7129 42.5129 50.8586 42.3998 50.9911C42.2867 51.1236 42.1552 51.2408 42.0064 51.3417C41.8587 51.4436 41.6966 51.5262 41.5213 51.5863C41.6508 51.6097 41.768 51.6536 41.8699 51.7147C41.9749 51.7748 42.0584 51.8533 42.1257 51.946C42.1919 52.0418 42.2398 52.1539 42.2653 52.2834C42.2918 52.4118 42.2938 52.5575 42.2724 52.7195C42.2521 52.8653 42.2113 53.0171 42.1512 53.1741C42.091 53.33 42.0085 53.4839 41.9025 53.6316C41.7985 53.7815 41.6681 53.9252 41.5132 54.0607C41.3593 54.1962 41.1779 54.3145 40.971 54.4153C40.7652 54.5183 40.5318 54.5998 40.2729 54.6589C40.012 54.718 39.7155 54.7476 39.3822 54.7476H37.7415C37.6171 54.7476 37.5305 54.716 37.4826 54.6559C37.4347 54.5947 37.4327 54.4999 37.4775 54.3695L39.2019 49.2179C39.2457 49.0844 39.3109 48.9876 39.4036 48.9284C39.4954 48.8693 39.5962 48.8398 39.7063 48.8398H41.131C41.4439 48.8398 41.7099 48.8642 41.931 48.9132C42.1522 48.9611 42.3336 49.0344 42.4742 49.1343C42.6159 49.2321 42.7157 49.3575 42.7749 49.5083C42.834 49.6592 42.8482 49.8365 42.8207 50.0444ZM41.556 50.2686C41.5682 50.183 41.5621 50.1076 41.5417 50.0444C41.5183 49.9802 41.4816 49.9241 41.4266 49.8793C41.3705 49.8334 41.2992 49.7978 41.2085 49.7743C41.1198 49.7499 41.0036 49.7376 40.8599 49.7376H40.2057L39.6931 51.2704H40.3677C40.5654 51.2704 40.7336 51.2388 40.8732 51.1766C41.0118 51.1144 41.13 51.035 41.2258 50.9351C41.3236 50.8372 41.3991 50.7282 41.4531 50.61C41.5071 50.4907 41.5417 50.3776 41.556 50.2686ZM41.0118 52.7797C41.0373 52.585 40.9863 52.4311 40.8569 52.319C40.7295 52.2049 40.5073 52.1488 40.1914 52.1488H39.3965L38.8329 53.8314H39.6808C39.8959 53.8314 40.0824 53.8008 40.2362 53.7397C40.3932 53.6785 40.5247 53.599 40.6327 53.5032C40.7427 53.4044 40.8284 53.2923 40.8905 53.1659C40.9527 53.0406 40.9935 52.9111 41.0118 52.7797ZM47.474 54.3002C47.475 54.4113 47.4689 54.4969 47.4587 54.5611C47.4485 54.6243 47.422 54.6732 47.3772 54.7058C47.3313 54.7364 47.263 54.7567 47.1682 54.7649C47.0735 54.772 46.9451 54.7761 46.783 54.7761C46.6648 54.7761 46.57 54.7741 46.4967 54.77C46.4233 54.7649 46.3672 54.7557 46.3285 54.7435C46.2908 54.7323 46.2653 54.7129 46.2531 54.6885C46.2409 54.665 46.2358 54.6304 46.2388 54.5886V53.4013H44.0263L43.26 54.5611C43.2324 54.6039 43.2039 54.6406 43.1723 54.6681C43.1417 54.6976 43.0989 54.719 43.0449 54.7353C42.9919 54.7496 42.9206 54.7598 42.834 54.7659C42.7453 54.772 42.6363 54.7761 42.5048 54.7761C42.3652 54.7761 42.2551 54.771 42.1787 54.7618C42.1022 54.7527 42.0533 54.7303 42.0319 54.6966C42.0115 54.6599 42.0146 54.612 42.0421 54.5478C42.0717 54.4826 42.1216 54.399 42.194 54.291L45.7639 49.0487C45.8026 48.9967 45.8393 48.9549 45.873 48.9244C45.9086 48.8907 45.9555 48.8683 46.0156 48.851C46.0737 48.8337 46.1512 48.8225 46.25 48.8184C46.3468 48.8133 46.4742 48.8113 46.6312 48.8113C46.8085 48.8113 46.9491 48.8133 47.0521 48.8184C47.155 48.8225 47.2345 48.8337 47.2895 48.851C47.3446 48.8683 47.3792 48.8928 47.3914 48.9254C47.4057 48.96 47.4118 49.0049 47.4108 49.063L47.474 54.3002ZM46.2643 49.9679H46.2602L44.6062 52.476H46.2633L46.2643 49.9679ZM53.1535 54.3287C53.1321 54.399 53.1005 54.4612 53.0567 54.5152C53.0149 54.5703 52.967 54.6151 52.915 54.6528C52.862 54.6885 52.807 54.715 52.7469 54.7323C52.6888 54.7496 52.6286 54.7567 52.5675 54.7567H52.0539C51.9448 54.7567 51.8572 54.7455 51.7899 54.7262C51.7247 54.7038 51.6707 54.665 51.6279 54.611C51.5851 54.556 51.5504 54.4816 51.5239 54.3878C51.4974 54.2931 51.473 54.1728 51.4516 54.026L50.9308 51.3876C50.8911 51.1827 50.8564 50.9789 50.8289 50.772C50.8004 50.5641 50.7739 50.3583 50.7494 50.1544H50.7433C50.6801 50.395 50.6139 50.6314 50.5415 50.8648C50.4712 51.0971 50.3948 51.3305 50.3142 51.5659L49.3023 54.5845C49.2921 54.6141 49.2737 54.6416 49.2472 54.6671C49.2228 54.6895 49.1851 54.7099 49.1362 54.7262C49.0893 54.7394 49.0281 54.7527 48.9558 54.7618C48.8824 54.771 48.7937 54.7761 48.6857 54.7761C48.5797 54.7761 48.4931 54.771 48.4258 54.7618C48.3606 54.7527 48.3086 54.7394 48.275 54.7262C48.2393 54.7099 48.219 54.6895 48.2108 54.6671C48.2057 54.6416 48.2077 54.6141 48.221 54.5845L50.0044 49.2699C50.0503 49.1262 50.1267 49.0192 50.2337 48.9468C50.3397 48.8755 50.4539 48.8398 50.5751 48.8398H51.2019C51.3028 48.8398 51.3874 48.851 51.4567 48.8744C51.526 48.8979 51.582 48.9335 51.6248 48.9835C51.6676 49.0344 51.7043 49.0986 51.7308 49.1781C51.7593 49.2576 51.7818 49.3534 51.7991 49.4696L52.3178 52.1315C52.3525 52.3017 52.381 52.4719 52.4065 52.638C52.4309 52.8062 52.4564 52.9733 52.485 53.1415H52.5013C52.5644 52.9213 52.6327 52.6961 52.7051 52.4637C52.7764 52.2304 52.8488 52.0041 52.9211 51.784L53.8577 48.9998C53.8689 48.9692 53.8842 48.9427 53.9097 48.9193C53.9341 48.8958 53.9698 48.8785 54.0146 48.8642C54.0605 48.851 54.1186 48.8398 54.1889 48.8316C54.2592 48.8245 54.3479 48.8214 54.4529 48.8214C54.5599 48.8214 54.6485 48.8245 54.7188 48.8316C54.7881 48.8398 54.8391 48.851 54.8748 48.8642C54.9094 48.8785 54.9318 48.8958 54.941 48.9193C54.9502 48.9427 54.9502 48.9692 54.939 48.9998L53.1535 54.3287ZM60.435 49.0039C60.4279 49.0579 60.4004 49.116 60.3525 49.1781C60.3036 49.2383 60.2292 49.3167 60.1293 49.4146L57.7354 51.6301L58.6251 54.2645C58.6414 54.3257 58.6516 54.3766 58.6577 54.4225C58.6648 54.4653 58.6648 54.506 58.6608 54.5417C58.6547 54.5855 58.6404 54.6212 58.6159 54.6497C58.5915 54.6793 58.5548 54.7027 58.5038 54.7211C58.4529 54.7394 58.3856 54.7527 58.302 54.7618C58.2185 54.771 58.1115 54.7761 57.9851 54.7761C57.8557 54.7761 57.7517 54.772 57.6733 54.7649C57.5958 54.7567 57.5347 54.7445 57.4898 54.7303C57.447 54.715 57.4154 54.6936 57.3971 54.6671C57.3808 54.6385 57.3675 54.608 57.3604 54.5703L56.489 51.7708L55.5555 54.5845C55.5464 54.6171 55.527 54.6446 55.4995 54.6681C55.473 54.6915 55.4332 54.7099 55.3813 54.7272C55.3283 54.7445 55.2631 54.7567 55.1836 54.7649C55.1061 54.772 55.0093 54.7761 54.8941 54.7761C54.7759 54.7761 54.6781 54.772 54.6047 54.7649C54.5303 54.7567 54.4732 54.7445 54.4335 54.7272C54.3917 54.7099 54.3662 54.6915 54.354 54.6681C54.3418 54.6446 54.3428 54.6171 54.356 54.5845L56.2231 48.9988C56.2312 48.9662 56.2485 48.9376 56.2771 48.9142C56.3036 48.8907 56.3433 48.8724 56.3963 48.8571C56.4483 48.8428 56.5155 48.8306 56.595 48.8225C56.6735 48.8153 56.7734 48.8113 56.8916 48.8113C57.0078 48.8113 57.1015 48.8153 57.1739 48.8225C57.2462 48.8306 57.3033 48.8428 57.3441 48.8571C57.3838 48.8724 57.4093 48.8907 57.4215 48.9142C57.4338 48.9376 57.4348 48.9662 57.4246 48.9988L56.5818 51.5241L59.1092 49.0171C59.1449 48.9814 59.1826 48.9488 59.2203 48.9203C59.26 48.8948 59.3079 48.8724 59.366 48.8571C59.4231 48.8428 59.4913 48.8306 59.5729 48.8225C59.6544 48.8153 59.7543 48.8113 59.8725 48.8113C59.9927 48.8113 60.0906 48.8153 60.167 48.8225C60.2424 48.8306 60.2995 48.8428 60.3413 48.8602C60.381 48.8755 60.4075 48.8958 60.4218 48.9193C60.434 48.9427 60.4401 48.9702 60.435 49.0039Z" fill="#4198FF"/>
<path fill-rule="evenodd" clip-rule="evenodd" d="M40.3249 57.1639C40.3198 57.1894 40.3106 57.2261 40.2974 57.274C40.2841 57.3219 40.2678 57.3738 40.2475 57.4319C40.2281 57.489 40.2047 57.5481 40.1792 57.6062C40.1547 57.6653 40.1272 57.7193 40.0966 57.7692C40.0671 57.8182 40.0355 57.8589 40.0039 57.8915C39.9723 57.9221 39.9417 57.9384 39.9122 57.9384C39.8684 57.9384 39.8164 57.9191 39.7573 57.8783C39.6971 57.8375 39.6217 57.7957 39.5341 57.7478C39.4454 57.701 39.3384 57.6582 39.2151 57.6184C39.0928 57.5766 38.9491 57.5573 38.783 57.5573C38.6128 57.5573 38.463 57.5817 38.3366 57.6296C38.2092 57.6765 38.1002 57.7397 38.0095 57.8182C37.9208 57.8966 37.8485 57.9822 37.7955 58.0801C37.7415 58.1759 37.7058 58.2757 37.6885 58.3736C37.6681 58.4867 37.6793 58.5876 37.7211 58.6763C37.7618 58.7639 37.825 58.8434 37.9076 58.9188C37.9901 58.9932 38.0859 59.0666 38.196 59.1369C38.3061 59.2062 38.4182 59.2785 38.5303 59.355C38.6424 59.4314 38.7524 59.514 38.8584 59.6057C38.9644 59.6964 39.0551 59.8003 39.1295 59.9196C39.2049 60.0398 39.2569 60.1754 39.2864 60.3293C39.316 60.4842 39.314 60.6615 39.2783 60.8622C39.2263 61.1598 39.1162 61.438 38.9491 61.6938C38.783 61.9496 38.5731 62.1708 38.3183 62.3614C38.0615 62.5499 37.768 62.6977 37.4347 62.8057C37.1015 62.9147 36.7438 62.9688 36.3616 62.9688C36.1547 62.9688 35.9682 62.9524 35.799 62.9178C35.6309 62.8852 35.4831 62.8434 35.3567 62.7955C35.2314 62.7486 35.1264 62.6977 35.0449 62.6447C34.9613 62.5927 34.9022 62.5417 34.8666 62.4949C34.8309 62.4459 34.8207 62.3746 34.838 62.2778C34.8421 62.2533 34.8523 62.2146 34.8676 62.1637C34.8839 62.1117 34.9012 62.0566 34.9236 61.9986C34.945 61.9394 34.9685 61.8793 34.995 61.8161C35.0225 61.754 35.052 61.6969 35.0816 61.647C35.1132 61.596 35.1448 61.5542 35.1774 61.5216C35.21 61.49 35.2406 61.4737 35.2732 61.4737C35.3272 61.4737 35.3863 61.4982 35.4525 61.5491C35.5188 61.598 35.6013 61.651 35.7032 61.7101C35.8031 61.7703 35.9254 61.8253 36.0701 61.8763C36.2138 61.9262 36.3911 61.9527 36.6052 61.9527C36.7917 61.9527 36.9618 61.9282 37.1127 61.8814C37.2625 61.8335 37.3929 61.7682 37.503 61.6877C37.6141 61.6042 37.7017 61.5104 37.77 61.4003C37.8403 61.2913 37.8852 61.1731 37.9086 61.0426C37.929 60.9254 37.9188 60.8215 37.877 60.7338C37.8362 60.6442 37.7761 60.5626 37.6946 60.4872C37.6151 60.4128 37.5203 60.3415 37.4133 60.2742C37.3063 60.208 37.1962 60.1377 37.0862 60.0612C36.9761 59.9848 36.8691 59.9012 36.7662 59.8126C36.6622 59.7239 36.5736 59.6199 36.5022 59.5017C36.4289 59.3805 36.3779 59.2439 36.3494 59.088C36.3198 58.9331 36.3229 58.7506 36.3585 58.5438C36.4095 58.2594 36.5134 57.9955 36.6704 57.7529C36.8263 57.5124 37.023 57.3055 37.2554 57.1313C37.4897 56.959 37.7568 56.8235 38.0564 56.7257C38.355 56.6299 38.675 56.581 39.0133 56.581C39.1733 56.581 39.3241 56.5922 39.4627 56.6166C39.6013 56.6411 39.7287 56.6706 39.8408 56.7083C39.9519 56.744 40.0457 56.7848 40.1201 56.8296C40.1955 56.8745 40.2454 56.9111 40.2729 56.9427C40.3005 56.9713 40.3168 57.0039 40.3259 57.0365C40.3351 57.0712 40.3341 57.1129 40.3249 57.1639ZM45.396 60.584C45.2472 60.9774 45.0617 61.3239 44.8416 61.6205C44.6215 61.918 44.3667 62.1677 44.0803 62.3675C43.795 62.5682 43.4801 62.718 43.1366 62.8189C42.7932 62.9178 42.4243 62.9688 42.0309 62.9688C41.611 62.9688 41.2605 62.9168 40.9771 62.8138C40.6949 62.7099 40.4839 62.557 40.3443 62.3532C40.2047 62.1494 40.1374 61.8936 40.1415 61.5879C40.1455 61.2801 40.223 60.9254 40.3779 60.5219L41.7588 56.8592C41.771 56.8286 41.7904 56.799 41.82 56.7736C41.8485 56.7491 41.8903 56.7277 41.9463 56.7114C42.0014 56.6951 42.0717 56.6839 42.1552 56.6737C42.2378 56.6635 42.3428 56.6594 42.4681 56.6594C42.5873 56.6594 42.6852 56.6635 42.7616 56.6737C42.8401 56.6839 42.9002 56.6951 42.941 56.7114C42.9817 56.7277 43.0072 56.7491 43.0174 56.7736C43.0266 56.799 43.0256 56.8286 43.0143 56.8592L41.6324 60.5219C41.5387 60.7675 41.4867 60.9794 41.4755 61.1578C41.4663 61.3372 41.4949 61.4839 41.558 61.6011C41.6222 61.7163 41.7211 61.8029 41.8546 61.86C41.9881 61.915 42.1542 61.9425 42.356 61.9425C42.5578 61.9425 42.7514 61.9119 42.9359 61.8498C43.1193 61.7866 43.2885 61.6969 43.4434 61.5766C43.5973 61.4574 43.7359 61.3117 43.8602 61.1384C43.9835 60.9662 44.0885 60.7705 44.171 60.5514L45.5682 56.8592C45.5795 56.8286 45.5998 56.799 45.6284 56.7736C45.6579 56.7491 45.6966 56.7277 45.7507 56.7114C45.8026 56.6951 45.8709 56.6839 45.9555 56.6737C46.0391 56.6635 46.142 56.6594 46.2643 56.6594C46.3846 56.6594 46.4814 56.6635 46.5568 56.6737C46.6291 56.6839 46.6872 56.6951 46.73 56.7114C46.7718 56.7277 46.7973 56.7491 46.8075 56.7736C46.8177 56.799 46.8156 56.8286 46.8034 56.8592L45.396 60.584ZM53.1382 62.6946C53.1229 62.7262 53.1036 62.7547 53.0811 62.7812C53.0567 62.8057 53.02 62.8271 52.9721 62.8434C52.9221 62.8577 52.8579 62.8709 52.7764 62.8791C52.6959 62.8872 52.5971 62.8903 52.4788 62.8903C52.3545 62.8903 52.2557 62.8872 52.1813 62.8791C52.1058 62.8709 52.0498 62.8577 52.01 62.8434C51.9723 62.8271 51.9499 62.8057 51.9428 62.7812C51.9357 62.7547 51.9397 62.7262 51.952 62.6946L53.8424 57.6714H53.8332L50.1441 62.6895C50.0921 62.77 50.0085 62.823 49.8944 62.8495C49.7802 62.877 49.6223 62.8903 49.4215 62.8903C49.2146 62.8903 49.0699 62.8719 48.9853 62.8352C48.9018 62.7986 48.863 62.7537 48.8691 62.6997L49.0373 57.6663H49.0271L47.1305 62.6946C47.1183 62.7262 47.0979 62.7547 47.0745 62.7812C47.049 62.8057 47.0123 62.8271 46.9624 62.8434C46.9145 62.8577 46.8503 62.8709 46.7708 62.8791C46.6913 62.8872 46.5904 62.8903 46.4702 62.8903C46.3499 62.8903 46.251 62.8872 46.1767 62.8791C46.1012 62.8709 46.0452 62.8577 46.0065 62.8434C45.9677 62.8271 45.9453 62.8057 45.9361 62.7812C45.928 62.7547 45.9321 62.7262 45.9463 62.6946L48.0182 57.1945C48.0488 57.115 48.0865 57.0436 48.1303 56.9794C48.1751 56.9162 48.2261 56.8622 48.2832 56.8204C48.3402 56.7766 48.4024 56.744 48.4697 56.7226C48.5379 56.7002 48.6083 56.688 48.6816 56.688H49.4623C49.6029 56.688 49.7191 56.7002 49.8139 56.7247C49.9076 56.7491 49.982 56.7889 50.035 56.8459C50.089 56.903 50.1247 56.9784 50.142 57.0691C50.1583 57.1619 50.1614 57.274 50.1512 57.4044L50.0962 61.0773H50.1206L52.8895 57.4044C52.9751 57.279 53.0577 57.172 53.1362 57.0824C53.2167 56.9906 53.2992 56.9162 53.3879 56.8582C53.4765 56.799 53.5703 56.7552 53.6712 56.7287C53.7701 56.7012 53.8873 56.688 54.0167 56.688H54.9043C54.9838 56.688 55.0501 56.7002 55.1031 56.7226C55.156 56.744 55.1958 56.7766 55.2213 56.8204C55.2478 56.8622 55.258 56.9142 55.2549 56.9764C55.2518 57.0385 55.2376 57.1099 55.2111 57.1894L53.1382 62.6946ZM59.7818 57.1639C59.7767 57.1894 59.7675 57.2261 59.7533 57.274C59.74 57.3219 59.7247 57.3738 59.7043 57.4319C59.685 57.489 59.6615 57.5481 59.6361 57.6062C59.6106 57.6653 59.5841 57.7193 59.5535 57.7692C59.524 57.8182 59.4924 57.8589 59.4608 57.8915C59.4292 57.9221 59.3986 57.9384 59.3691 57.9384C59.3252 57.9384 59.2733 57.9191 59.2131 57.8783C59.154 57.8375 59.0786 57.7957 58.991 57.7478C58.9013 57.701 58.7953 57.6582 58.672 57.6184C58.5487 57.5766 58.406 57.5573 58.2399 57.5573C58.0687 57.5573 57.9199 57.5817 57.7925 57.6296C57.6651 57.6765 57.5571 57.7397 57.4664 57.8182C57.3777 57.8966 57.3054 57.9822 57.2524 58.0801C57.1973 58.1759 57.1627 58.2757 57.1454 58.3736C57.125 58.4867 57.1362 58.5876 57.178 58.6763C57.2187 58.7639 57.2809 58.8434 57.3645 58.9188C57.447 58.9932 57.5428 59.0666 57.6529 59.1369C57.7619 59.2062 57.875 59.2785 57.9871 59.355C58.0982 59.4314 58.2093 59.514 58.3153 59.6057C58.4213 59.6964 58.512 59.8003 58.5864 59.9196C58.6608 60.0398 58.7138 60.1754 58.7433 60.3293C58.7729 60.4842 58.7708 60.6615 58.7352 60.8622C58.6822 61.1598 58.5731 61.438 58.406 61.6938C58.2399 61.9496 58.0299 62.1708 57.7741 62.3614C57.5183 62.5499 57.2248 62.6977 56.8916 62.8057C56.5583 62.9147 56.2006 62.9688 55.8174 62.9688C55.6116 62.9688 55.4251 62.9524 55.2559 62.9178C55.0867 62.8852 54.94 62.8434 54.8136 62.7955C54.6883 62.7486 54.5833 62.6977 54.5018 62.6447C54.4182 62.5927 54.3581 62.5417 54.3234 62.4949C54.2878 62.4459 54.2776 62.3746 54.2949 62.2778C54.299 62.2533 54.3092 62.2146 54.3244 62.1637C54.3408 62.1117 54.3581 62.0566 54.3795 61.9986C54.4019 61.9394 54.4253 61.8793 54.4508 61.8161C54.4783 61.754 54.5079 61.6969 54.5385 61.647C54.5701 61.596 54.6016 61.5542 54.6332 61.5216C54.6669 61.49 54.6974 61.4737 54.7301 61.4737C54.7841 61.4737 54.8432 61.4982 54.9084 61.5491C54.9746 61.598 55.0582 61.651 55.1601 61.7101C55.26 61.7703 55.3823 61.8253 55.526 61.8763C55.6707 61.9262 55.848 61.9527 56.061 61.9527C56.2485 61.9527 56.4187 61.9282 56.5685 61.8814C56.7183 61.8335 56.8488 61.7682 56.9599 61.6877C57.071 61.6042 57.1586 61.5104 57.2269 61.4003C57.2972 61.2913 57.342 61.1731 57.3655 61.0426C57.3859 60.9254 57.3757 60.8215 57.3339 60.7338C57.2931 60.6442 57.232 60.5626 57.1515 60.4872C57.072 60.4128 56.9772 60.3415 56.8702 60.2742C56.7632 60.208 56.6531 60.1377 56.5431 60.0612C56.433 59.9848 56.325 59.9012 56.222 59.8126C56.1191 59.7239 56.0304 59.6199 55.9581 59.5017C55.8857 59.3805 55.8348 59.2439 55.8052 59.088C55.7757 58.9331 55.7787 58.7506 55.8154 58.5438C55.8664 58.2594 55.9693 57.9955 56.1273 57.7529C56.2832 57.5124 56.4799 57.3055 56.7122 57.1313C56.9466 56.959 57.2126 56.8235 57.5133 56.7257C57.8119 56.6299 58.1319 56.581 58.4702 56.581C58.6292 56.581 58.781 56.5922 58.9196 56.6166C59.0582 56.6411 59.1846 56.6706 59.2967 56.7083C59.4078 56.744 59.5015 56.7848 59.577 56.8296C59.6524 56.8745 59.7023 56.9111 59.7298 56.9427C59.7563 56.9713 59.7736 57.0039 59.7828 57.0365C59.791 57.0712 59.7899 57.1129 59.7818 57.1639ZM64.8274 56.8704C64.8233 56.8897 64.8162 56.9234 64.803 56.9713C64.7897 57.0192 64.7724 57.0722 64.752 57.1313C64.7326 57.1894 64.7092 57.2515 64.6817 57.3147C64.6542 57.3799 64.6246 57.437 64.59 57.491C64.5584 57.543 64.5217 57.5868 64.4819 57.6225C64.4422 57.6571 64.4035 57.6745 64.3658 57.6745H62.1614L61.5938 59.1787H63.4649C63.5087 59.1787 63.5382 59.195 63.5505 59.2266C63.5637 59.2582 63.5658 59.303 63.5556 59.3591C63.5525 59.3825 63.5443 59.4161 63.5311 59.462C63.5179 59.5078 63.5005 59.5619 63.4801 59.6199C63.4618 59.6791 63.4384 59.7371 63.4119 59.7973C63.3844 59.8574 63.3558 59.9135 63.3222 59.9654C63.2896 60.0154 63.2539 60.0561 63.2172 60.0887C63.1785 60.1193 63.1418 60.1356 63.1031 60.1356H61.234L60.5777 61.8742H62.8106C62.8483 61.8742 62.8748 61.8905 62.887 61.9252C62.9003 61.9578 62.9013 62.0067 62.8901 62.0719C62.886 62.0923 62.8779 62.128 62.8666 62.1759C62.8544 62.2248 62.8391 62.2778 62.8167 62.3369C62.7953 62.395 62.7708 62.4561 62.7443 62.5163C62.7178 62.5764 62.6873 62.6335 62.6557 62.6865C62.6221 62.7384 62.5864 62.7812 62.5497 62.8138C62.512 62.8444 62.4733 62.8607 62.4325 62.8607H59.3303C59.2794 62.8607 59.2335 62.8546 59.1958 62.8393C59.1561 62.8251 59.1255 62.8006 59.1051 62.768C59.0837 62.7344 59.0735 62.6936 59.0725 62.6447C59.0715 62.5937 59.0837 62.5356 59.1092 62.4653L61.1372 57.0844C61.1912 56.9438 61.2656 56.8429 61.3645 56.7817C61.4623 56.7196 61.5652 56.688 61.6712 56.688H64.7357C64.8182 56.688 64.8488 56.7491 64.8274 56.8704ZM67.4098 62.0159C67.4058 62.0393 67.3986 62.075 67.3844 62.1239C67.3711 62.1728 67.3528 62.2289 67.3303 62.2931C67.3079 62.3563 67.2814 62.4215 67.2529 62.4877C67.2233 62.555 67.1918 62.6172 67.1571 62.6722C67.1245 62.7272 67.0888 62.7731 67.0501 62.8087C67.0134 62.8434 66.9726 62.8607 66.9319 62.8607H64.1008C64.0508 62.8607 64.004 62.8546 63.9632 62.8393C63.9214 62.8251 63.8919 62.8006 63.8705 62.768C63.848 62.7344 63.8379 62.6936 63.8368 62.6447C63.8358 62.5937 63.848 62.5356 63.8735 62.4653L65.9902 56.8541C65.9994 56.8235 66.0188 56.794 66.0503 56.7685C66.0789 56.744 66.1217 56.7226 66.1777 56.7063C66.2328 56.692 66.3031 56.6788 66.3867 56.6706C66.4692 56.6625 66.5742 56.6594 66.6975 56.6594C66.8177 56.6594 66.9166 56.6625 66.993 56.6706C67.0715 56.6788 67.1316 56.692 67.1724 56.7063C67.2132 56.7226 67.2397 56.744 67.2498 56.7685C67.258 56.794 67.258 56.8235 67.2458 56.8541L65.3747 61.8253H67.3253C67.3691 61.8253 67.3966 61.8437 67.4088 61.8773C67.42 61.914 67.42 61.9588 67.4098 62.0159Z" fill="#4198FF"/>
<path fill-rule="evenodd" clip-rule="evenodd" d="M76.1151 57.9466C76.0815 58.1341 76.0244 58.3114 75.9429 58.4775C75.8613 58.6447 75.7574 58.7975 75.6341 58.9361C75.5097 59.0747 75.3681 59.197 75.2071 59.303C75.0481 59.408 74.8758 59.4946 74.6904 59.5578C74.8239 59.5822 74.9441 59.6281 75.0491 59.6913C75.1551 59.7555 75.2397 59.836 75.3049 59.9338C75.3711 60.0337 75.415 60.1509 75.4374 60.2854C75.4588 60.421 75.4547 60.5718 75.4241 60.742C75.3976 60.8949 75.3477 61.0528 75.2784 61.2169C75.2091 61.38 75.1153 61.541 74.9981 61.6959C74.883 61.8518 74.7403 62.0016 74.5722 62.1433C74.405 62.2849 74.2114 62.4082 73.9902 62.5142C73.7711 62.6212 73.5235 62.7058 73.2504 62.768C72.9752 62.8301 72.6644 62.8607 72.3158 62.8607H70.6017C70.4712 62.8607 70.3826 62.8281 70.3357 62.7649C70.2878 62.7017 70.2898 62.6019 70.3428 62.4653L72.3709 57.0844C72.4218 56.9438 72.4952 56.8429 72.5941 56.7817C72.6929 56.7196 72.7989 56.688 72.9151 56.688H74.403C74.7301 56.688 75.0063 56.7145 75.2356 56.7654C75.4639 56.8154 75.6504 56.8918 75.793 56.9957C75.9367 57.0987 76.0356 57.2291 76.0906 57.3871C76.1457 57.545 76.1538 57.7305 76.1151 57.9466ZM74.7841 58.181C74.8004 58.0913 74.7974 58.0138 74.779 57.9466C74.7576 57.8803 74.7209 57.8212 74.6659 57.7743C74.6088 57.7264 74.5365 57.6897 74.4427 57.6653C74.351 57.6388 74.2297 57.6255 74.0799 57.6255H73.3961L72.7938 59.2276H73.498C73.7049 59.2276 73.8822 59.195 74.03 59.1298C74.1788 59.0645 74.3051 58.982 74.4101 58.878C74.5161 58.7751 74.5997 58.661 74.6608 58.5377C74.724 58.4133 74.7637 58.2951 74.7841 58.181ZM74.1044 60.8052C74.14 60.6014 74.0942 60.4403 73.9637 60.3231C73.8353 60.2039 73.606 60.1458 73.2758 60.1458H72.4453L71.7828 61.9038H72.6674C72.8927 61.9038 73.0883 61.8712 73.2534 61.808C73.4185 61.7438 73.5602 61.6612 73.6774 61.5603C73.7966 61.4574 73.8904 61.3402 73.9617 61.2087C74.032 61.0773 74.0799 60.9417 74.1044 60.8052ZM80.7897 62.394C80.7857 62.5091 80.7765 62.5988 80.7622 62.6661C80.749 62.7323 80.7194 62.7833 80.6705 62.8169C80.6206 62.8495 80.5492 62.8709 80.4494 62.8791C80.3505 62.8872 80.217 62.8903 80.0478 62.8903C79.9235 62.8903 79.8247 62.8882 79.7472 62.8842C79.6718 62.8791 79.6137 62.8689 79.5729 62.8556C79.5342 62.8444 79.5087 62.8251 79.4975 62.7986C79.4853 62.7741 79.4822 62.7384 79.4863 62.6946L79.5383 61.4543H77.2269L76.376 62.6661C76.3454 62.7109 76.3138 62.7486 76.2792 62.7782C76.2466 62.8087 76.1997 62.8312 76.1436 62.8475C76.0865 62.8628 76.0122 62.874 75.9215 62.8801C75.8287 62.8872 75.7146 62.8903 75.578 62.8903C75.4313 62.8903 75.3161 62.8852 75.2366 62.875C75.1571 62.8658 75.1072 62.8434 75.0858 62.8067C75.0664 62.77 75.0725 62.7191 75.1041 62.6528C75.1367 62.5845 75.1938 62.4959 75.2733 62.3838L79.2346 56.9071C79.2764 56.8531 79.3171 56.8092 79.3528 56.7766C79.3915 56.742 79.4415 56.7175 79.5057 56.7002C79.5668 56.6818 79.6483 56.6706 79.7523 56.6655C79.8542 56.6604 79.9857 56.6594 80.1508 56.6594C80.3362 56.6594 80.482 56.6604 80.59 56.6655C80.697 56.6706 80.7796 56.6818 80.8366 56.7002C80.8937 56.7175 80.9283 56.744 80.9406 56.7776C80.9528 56.8133 80.9579 56.8612 80.9538 56.9213L80.7897 62.394ZM79.7166 57.8671H79.7115L77.8741 60.4872H79.6055L79.7166 57.8671ZM87.4089 57.9466C87.3753 58.1341 87.3182 58.3114 87.2366 58.4775C87.1541 58.6447 87.0512 58.7975 86.9268 58.9361C86.8035 59.0747 86.6608 59.197 86.5008 59.303C86.3419 59.408 86.1686 59.4946 85.9831 59.5578C86.1177 59.5822 86.2379 59.6281 86.3419 59.6913C86.4479 59.7555 86.5335 59.836 86.5987 59.9338C86.6639 60.0337 86.7087 60.1509 86.7301 60.2854C86.7515 60.421 86.7475 60.5718 86.7179 60.742C86.6904 60.8949 86.6415 61.0528 86.5722 61.2169C86.5019 61.38 86.4081 61.541 86.2919 61.6959C86.1758 61.8518 86.0341 62.0016 85.8659 62.1433C85.6988 62.2849 85.5042 62.4082 85.284 62.5142C85.0649 62.6212 84.8173 62.7058 84.5442 62.768C84.269 62.8301 83.9572 62.8607 83.6096 62.8607H81.8955C81.765 62.8607 81.6764 62.8281 81.6295 62.7649C81.5816 62.7017 81.5826 62.6019 81.6366 62.4653L83.6647 57.0844C83.7156 56.9438 83.789 56.8429 83.8868 56.7817C83.9857 56.7196 84.0927 56.688 84.2078 56.688H85.6958C86.0229 56.688 86.3001 56.7145 86.5294 56.7654C86.7577 56.8154 86.9442 56.8918 87.0868 56.9957C87.2295 57.0987 87.3284 57.2291 87.3834 57.3871C87.4395 57.545 87.4466 57.7305 87.4089 57.9466ZM86.0779 58.181C86.0932 58.0913 86.0912 58.0138 86.0718 57.9466C86.0514 57.8803 86.0147 57.8212 85.9597 57.7743C85.9026 57.7264 85.8293 57.6897 85.7365 57.6653C85.6448 57.6388 85.5235 57.6255 85.3737 57.6255H84.6899L84.0866 59.2276H84.7918C84.9987 59.2276 85.175 59.195 85.3238 59.1298C85.4715 59.0645 85.5989 58.982 85.7039 58.878C85.8099 58.7751 85.8935 58.661 85.9546 58.5377C86.0168 58.4133 86.0575 58.2951 86.0779 58.181ZM85.3982 60.8052C85.4338 60.6014 85.388 60.4403 85.2565 60.3231C85.1281 60.2039 84.8998 60.1458 84.5686 60.1458H83.7391L83.0756 61.9038H83.9612C84.1854 61.9038 84.3821 61.8712 84.5462 61.808C84.7123 61.7438 84.854 61.6612 84.9712 61.5603C85.0904 61.4574 85.1842 61.3402 85.2545 61.2087C85.3248 61.0773 85.3737 60.9417 85.3982 60.8052ZM92.8295 56.8704C92.8255 56.8897 92.8183 56.9234 92.8051 56.9713C92.7918 57.0192 92.7735 57.0722 92.7541 57.1313C92.7348 57.1894 92.7113 57.2515 92.6838 57.3147C92.6553 57.3799 92.6257 57.437 92.5921 57.491C92.5605 57.543 92.5228 57.5868 92.4841 57.6225C92.4443 57.6571 92.4046 57.6745 92.3679 57.6745H90.1635L89.5959 59.1787H91.466C91.5098 59.1787 91.5393 59.195 91.5526 59.2266C91.5658 59.2582 91.5679 59.303 91.5577 59.3591C91.5536 59.3825 91.5465 59.4161 91.5332 59.462C91.52 59.5078 91.5027 59.5619 91.4823 59.6199C91.4639 59.6791 91.4405 59.7371 91.414 59.7973C91.3865 59.8574 91.3569 59.9135 91.3233 59.9654C91.2917 60.0154 91.255 60.0561 91.2183 60.0887C91.1806 60.1193 91.1439 60.1356 91.1042 60.1356H89.2361L88.5798 61.8742H90.8127C90.8504 61.8742 90.8769 61.8905 90.8881 61.9252C90.9024 61.9578 90.9034 62.0067 90.8922 62.0719C90.8881 62.0923 90.88 62.128 90.8688 62.1759C90.8565 62.2248 90.8402 62.2778 90.8188 62.3369C90.7964 62.395 90.773 62.4561 90.7465 62.5163C90.719 62.5764 90.6894 62.6335 90.6578 62.6865C90.6242 62.7384 90.5885 62.7812 90.5518 62.8138C90.5141 62.8444 90.4754 62.8607 90.4346 62.8607H87.3325C87.2815 62.8607 87.2356 62.8546 87.1969 62.8393C87.1572 62.8251 87.1276 62.8006 87.1072 62.768C87.0858 62.7344 87.0756 62.6936 87.0736 62.6447C87.0736 62.5937 87.0848 62.5356 87.1103 62.4653L89.1383 57.0844C89.1923 56.9438 89.2677 56.8429 89.3666 56.7817C89.4634 56.7196 89.5663 56.688 89.6723 56.688H92.7378C92.8204 56.688 92.8509 56.7491 92.8295 56.8704ZM95.412 62.0159C95.4079 62.0393 95.3997 62.075 95.3865 62.1239C95.3732 62.1728 95.3549 62.2289 95.3325 62.2931C95.309 62.3563 95.2836 62.4215 95.255 62.4877C95.2255 62.555 95.1929 62.6172 95.1592 62.6722C95.1266 62.7272 95.0909 62.7731 95.0522 62.8087C95.0145 62.8434 94.9737 62.8607 94.934 62.8607H92.1029C92.052 62.8607 92.0061 62.8546 91.9653 62.8393C91.9235 62.8251 91.894 62.8006 91.8716 62.768C91.8502 62.7344 91.84 62.6936 91.839 62.6447C91.8379 62.5937 91.8492 62.5356 91.8746 62.4653L93.9923 56.8541C94.0015 56.8235 94.0209 56.794 94.0515 56.7685C94.08 56.744 94.1238 56.7226 94.1799 56.7063C94.2349 56.692 94.3052 56.6788 94.3878 56.6706C94.4713 56.6625 94.5753 56.6594 94.6996 56.6594C94.8199 56.6594 94.9187 56.6625 94.9951 56.6706C95.0736 56.6788 95.1327 56.692 95.1745 56.7063C95.2153 56.7226 95.2408 56.744 95.252 56.7685C95.2601 56.794 95.2591 56.8235 95.2479 56.8541L93.3768 61.8253H95.3274C95.3712 61.8253 95.3987 61.8436 95.4109 61.8773C95.4221 61.914 95.4222 61.9588 95.412 62.0159Z" fill="#4198FF"/>
<path fill-rule="evenodd" clip-rule="evenodd" d="M34.6678 67.5853V64.5871H35.5769L36.115 66.6325L36.6459 64.5871H37.558V67.5853H36.9965L36.9945 65.2251L36.4034 67.5853H35.8194L35.2304 65.2251L35.2283 67.5853H34.6678ZM38.1603 65.1191V64.5871H38.7341V65.1191H38.1603ZM38.1603 67.5853V65.4116H38.7341V67.5853H38.1603ZM40.3168 65.4116V65.8681H39.9234V66.7486C39.9234 66.928 39.9275 67.0319 39.9346 67.0605C39.9427 67.09 39.9591 67.1145 39.9866 67.1339C40.0131 67.1532 40.0447 67.1624 40.0834 67.1624C40.1374 67.1624 40.2138 67.1451 40.3147 67.1074L40.3636 67.5548C40.2301 67.6118 40.0793 67.6404 39.9101 67.6404C39.8072 67.6404 39.7145 67.623 39.6309 67.5884C39.5473 67.5527 39.4872 67.5079 39.4485 67.4528C39.4098 67.3968 39.3833 67.3224 39.368 67.2266C39.3557 67.1604 39.3496 67.0248 39.3496 66.82V65.8681H39.0857V65.4116H39.3496V64.9805L39.9234 64.6411V65.4116H40.3168ZM41.2676 67.5853H40.6938V65.4116H41.2258V65.7204C41.3175 65.5746 41.4001 65.4788 41.4735 65.434C41.5468 65.3881 41.6294 65.3657 41.7221 65.3657C41.8536 65.3657 41.98 65.4024 42.1012 65.4737L41.9239 65.9751C41.8261 65.913 41.7364 65.8814 41.6528 65.8814C41.5723 65.8814 41.504 65.9038 41.448 65.9476C41.3919 65.9925 41.3481 66.0719 41.3165 66.1871C41.2839 66.3033 41.2676 66.5468 41.2676 66.9158V67.5853ZM42.7769 66.0821L42.2572 65.9904C42.3163 65.7774 42.4172 65.6205 42.5598 65.5186C42.7035 65.4167 42.9165 65.3657 43.1978 65.3657C43.4546 65.3657 43.6452 65.3963 43.7716 65.4564C43.8959 65.5175 43.9845 65.594 44.0355 65.6877C44.0865 65.7815 44.113 65.9527 44.113 66.2024L44.1038 66.8719C44.1038 67.0625 44.113 67.2042 44.1313 67.2949C44.1496 67.3856 44.1843 67.4824 44.2342 67.5853H43.6645C43.6503 67.5476 43.6309 67.4926 43.6095 67.4182C43.6003 67.3846 43.5932 67.3621 43.5891 67.3509C43.4913 67.4477 43.3863 67.5191 43.2752 67.568C43.1631 67.6159 43.0449 67.6404 42.9186 67.6404C42.6954 67.6404 42.5201 67.5792 42.3917 67.4579C42.2622 67.3377 42.1991 67.1838 42.1991 66.9983C42.1991 66.876 42.2276 66.766 42.2867 66.6702C42.3448 66.5744 42.4273 66.5 42.5333 66.449C42.6383 66.3981 42.7901 66.3542 42.9899 66.3155C43.2579 66.2656 43.4434 66.2177 43.5473 66.1739V66.1168C43.5473 66.0047 43.5198 65.9252 43.4658 65.8773C43.4108 65.8294 43.3068 65.806 43.156 65.806C43.0531 65.806 42.9736 65.8263 42.9165 65.8671C42.8584 65.9079 42.8126 65.9792 42.7769 66.0821ZM43.5473 66.5468C43.474 66.5713 43.3578 66.6009 43.1978 66.6355C43.0388 66.6691 42.9338 66.7028 42.8849 66.7354C42.8105 66.7884 42.7728 66.8556 42.7728 66.9372C42.7728 67.0187 42.8024 67.087 42.8625 67.1461C42.9226 67.2052 42.998 67.2337 43.0918 67.2337C43.1947 67.2337 43.2936 67.2001 43.3884 67.1318C43.4577 67.0798 43.5035 67.0167 43.5249 66.9412C43.5392 66.8923 43.5473 66.7996 43.5473 66.662V66.5468ZM46.2694 66.0821L45.7507 65.9904C45.8088 65.7774 45.9107 65.6205 46.0533 65.5186C46.196 65.4167 46.409 65.3657 46.6913 65.3657C46.9481 65.3657 47.1387 65.3963 47.2651 65.4564C47.3894 65.5175 47.4781 65.594 47.529 65.6877C47.58 65.7815 47.6054 65.9527 47.6054 66.2024L47.5973 66.8719C47.5973 67.0625 47.6065 67.2042 47.6248 67.2949C47.6432 67.3856 47.6768 67.4824 47.7277 67.5853H47.1581C47.1428 67.5476 47.1244 67.4926 47.103 67.4182C47.0939 67.3846 47.0867 67.3621 47.0826 67.3509C46.9848 67.4477 46.8798 67.5191 46.7688 67.568C46.6567 67.6159 46.5374 67.6404 46.4111 67.6404C46.1889 67.6404 46.0126 67.5792 45.8842 67.4579C45.7558 67.3377 45.6916 67.1838 45.6916 66.9983C45.6916 66.876 45.7211 66.766 45.7802 66.6702C45.8383 66.5744 45.9198 66.5 46.0258 66.449C46.1318 66.3981 46.2837 66.3542 46.4824 66.3155C46.7504 66.2656 46.9369 66.2177 47.0409 66.1739V66.1168C47.0409 66.0047 47.0133 65.9252 46.9593 65.8773C46.9033 65.8294 46.8004 65.806 46.6485 65.806C46.5466 65.806 46.4671 65.8263 46.409 65.8671C46.3519 65.9079 46.3051 65.9792 46.2694 66.0821ZM47.0409 66.5468C46.9675 66.5713 46.8503 66.6009 46.6903 66.6355C46.5313 66.6691 46.4263 66.7028 46.3784 66.7354C46.303 66.7884 46.2653 66.8556 46.2653 66.9372C46.2653 67.0187 46.2959 67.087 46.356 67.1461C46.4161 67.2052 46.4916 67.2337 46.5843 67.2337C46.6882 67.2337 46.7871 67.2001 46.8809 67.1318C46.9502 67.0798 46.997 67.0167 47.0184 66.9412C47.0327 66.8923 47.0409 66.7996 47.0409 66.662V66.5468ZM50.1492 67.5853H49.5754V66.4775C49.5754 66.2432 49.5621 66.0923 49.5387 66.023C49.5132 65.9547 49.4735 65.9018 49.4174 65.863C49.3614 65.8243 49.2951 65.806 49.2167 65.806C49.1158 65.806 49.0261 65.8335 48.9466 65.8875C48.8661 65.9415 48.8121 66.0149 48.7825 66.1035C48.7519 66.1942 48.7377 66.3604 48.7377 66.6029V67.5853H48.1639V65.4116H48.6959V65.7305C48.8865 65.487 49.126 65.3657 49.4154 65.3657C49.5428 65.3657 49.659 65.3891 49.7649 65.434C49.8709 65.4809 49.9504 65.5379 50.0034 65.6093C50.0584 65.6806 50.0962 65.7601 50.1165 65.8508C50.139 65.9405 50.1492 66.0689 50.1492 66.236V67.5853ZM52.7244 67.5853H52.1925V67.2674C52.1038 67.3907 51.9978 67.4844 51.8776 67.5466C51.7573 67.6088 51.635 67.6404 51.5117 67.6404C51.261 67.6404 51.047 67.5395 50.8676 67.3377C50.6903 67.1359 50.6006 66.8556 50.6006 66.4949C50.6006 66.126 50.6872 65.8457 50.8615 65.6531C51.0348 65.4615 51.2539 65.3657 51.5199 65.3657C51.7624 65.3657 51.9734 65.4676 52.1507 65.6694V64.5871H52.7244V67.5853ZM51.1917 66.4572C51.1917 66.6895 51.2233 66.8577 51.2865 66.9616C51.3802 67.1125 51.5086 67.1879 51.6748 67.1879C51.8072 67.1879 51.9193 67.1318 52.0111 67.0187C52.1048 66.9056 52.1507 66.7374 52.1507 66.5122C52.1507 66.2615 52.1058 66.0811 52.0162 65.9711C51.9255 65.861 51.8113 65.806 51.6707 65.806C51.5351 65.806 51.421 65.86 51.3293 65.969C51.2376 66.0781 51.1917 66.2411 51.1917 66.4572ZM53.716 66.0821L53.1973 65.9904C53.2554 65.7774 53.3563 65.6205 53.5 65.5186C53.6427 65.4167 53.8557 65.3657 54.138 65.3657C54.3938 65.3657 54.5853 65.3963 54.7107 65.4564C54.836 65.5175 54.9247 65.594 54.9757 65.6877C55.0266 65.7815 55.0521 65.9527 55.0521 66.2024L55.0439 66.8719C55.0439 67.0625 55.0531 67.2042 55.0715 67.2949C55.0898 67.3856 55.1234 67.4824 55.1744 67.5853H54.6037C54.5894 67.5476 54.5711 67.4926 54.5487 67.4182C54.5405 67.3846 54.5334 67.3621 54.5293 67.3509C54.4315 67.4477 54.3265 67.5191 54.2144 67.568C54.1033 67.6159 53.9841 67.6404 53.8577 67.6404C53.6355 67.6404 53.4592 67.5792 53.3308 67.4579C53.2024 67.3377 53.1382 67.1838 53.1382 66.9983C53.1382 66.876 53.1678 66.766 53.2258 66.6702C53.285 66.5744 53.3665 66.5 53.4725 66.449C53.5785 66.3981 53.7303 66.3542 53.929 66.3155C54.1971 66.2656 54.3836 66.2177 54.4865 66.1739V66.1168C54.4865 66.0047 54.46 65.9252 54.405 65.8773C54.3499 65.8294 54.247 65.806 54.0951 65.806C53.9922 65.806 53.9127 65.8263 53.8557 65.8671C53.7976 65.9079 53.7517 65.9792 53.716 66.0821ZM54.4865 66.5468C54.4141 66.5713 54.2969 66.6009 54.1369 66.6355C53.978 66.6691 53.873 66.7028 53.8241 66.7354C53.7497 66.7884 53.712 66.8556 53.712 66.9372C53.712 67.0187 53.7425 67.087 53.8016 67.1461C53.8618 67.2052 53.9382 67.2337 54.0309 67.2337C54.1339 67.2337 54.2337 67.2001 54.3275 67.1318C54.3968 67.0798 54.4427 67.0167 54.4651 66.9412C54.4794 66.8923 54.4865 66.7996 54.4865 66.662V66.5468ZM56.7408 65.4116H57.2687V65.7091C57.4572 65.4809 57.6824 65.3657 57.9443 65.3657C58.084 65.3657 58.2042 65.3942 58.3061 65.4523C58.409 65.5094 58.4926 65.596 58.5578 65.7112C58.6536 65.596 58.7566 65.5094 58.8666 65.4523C58.9767 65.3942 59.0949 65.3657 59.2203 65.3657C59.3803 65.3657 59.5148 65.3983 59.6259 65.4625C59.7359 65.5277 59.8185 65.6225 59.8725 65.7489C59.9122 65.8406 59.9316 65.9904 59.9316 66.1983V67.5853H59.3578V66.3451C59.3578 66.13 59.3385 65.9904 59.2987 65.9282C59.2457 65.8467 59.1632 65.806 59.0531 65.806C58.9726 65.806 58.8972 65.8304 58.8259 65.8793C58.7545 65.9282 58.7036 66.0006 58.672 66.0944C58.6404 66.1891 58.6251 66.3389 58.6251 66.5438V67.5853H58.0513V66.396C58.0513 66.1851 58.0411 66.0485 58.0208 65.9884C58.0004 65.9262 57.9688 65.8804 57.926 65.8508C57.8832 65.8202 57.8241 65.806 57.7517 65.806C57.6631 65.806 57.5826 65.8294 57.5122 65.8773C57.4409 65.9252 57.391 65.9935 57.3604 66.0832C57.3298 66.1739 57.3145 66.3226 57.3145 66.5316V67.5853H56.7408V65.4116ZM61.7629 66.8984L62.3367 66.9953C62.2633 67.2052 62.1472 67.3652 61.9882 67.4753C61.8292 67.5853 61.6305 67.6404 61.392 67.6404C61.0149 67.6404 60.7347 67.517 60.5543 67.2694C60.4106 67.0717 60.3392 66.821 60.3392 66.5193C60.3392 66.1586 60.433 65.8763 60.6215 65.6725C60.8091 65.4676 61.0465 65.3657 61.3349 65.3657C61.657 65.3657 61.9117 65.4727 62.0993 65.6867C62.2858 65.8997 62.3744 66.2279 62.3663 66.6681H60.9293C60.9334 66.8393 60.9803 66.9718 61.0689 67.0666C61.1566 67.1614 61.2666 67.2093 61.3981 67.2093C61.4878 67.2093 61.5632 67.1848 61.6243 67.1359C61.6855 67.087 61.7314 67.0075 61.7629 66.8984ZM61.7966 66.3165C61.7925 66.1494 61.7497 66.023 61.6682 65.9364C61.5866 65.8488 61.4878 65.806 61.3706 65.806C61.2452 65.806 61.1423 65.8518 61.0598 65.9435C60.9782 66.0342 60.9385 66.1596 60.9405 66.3165H61.7966ZM62.7943 65.4116H63.3222V65.7091C63.5107 65.4809 63.737 65.3657 63.9989 65.3657C64.1375 65.3657 64.2577 65.3942 64.3596 65.4523C64.4626 65.5094 64.5461 65.596 64.6114 65.7112C64.7072 65.596 64.8101 65.5094 64.9202 65.4523C65.0312 65.3942 65.1484 65.3657 65.2748 65.3657C65.4338 65.3657 65.5683 65.3983 65.6794 65.4625C65.7895 65.5277 65.872 65.6225 65.927 65.7489C65.9668 65.8406 65.9861 65.9904 65.9861 66.1983V67.5853H65.4124V66.3451C65.4124 66.13 65.392 65.9904 65.3523 65.9282C65.2993 65.8467 65.2177 65.806 65.1067 65.806C65.0272 65.806 64.9507 65.8304 64.8794 65.8793C64.8091 65.9282 64.7571 66.0006 64.7255 66.0944C64.6939 66.1891 64.6786 66.3389 64.6786 66.5438V67.5853H64.1049V66.396C64.1049 66.1851 64.0947 66.0485 64.0743 65.9884C64.0539 65.9262 64.0233 65.8804 63.9795 65.8508C63.9367 65.8202 63.8786 65.806 63.8052 65.806C63.7166 65.806 63.6371 65.8294 63.5668 65.8773C63.4954 65.9252 63.4445 65.9935 63.4139 66.0832C63.3833 66.1739 63.368 66.3226 63.368 66.5316V67.5853H62.7943V65.4116ZM66.5354 67.5853V64.5871H67.1092V65.6694C67.2865 65.4676 67.4954 65.3657 67.739 65.3657C68.003 65.3657 68.2221 65.4615 68.3953 65.6531C68.5676 65.8457 68.6542 66.1209 68.6542 66.4806C68.6542 66.8526 68.5665 67.1379 68.3902 67.3397C68.2139 67.5395 67.9989 67.6404 67.7462 67.6404C67.6218 67.6404 67.4995 67.6077 67.3793 67.5446C67.258 67.4804 67.154 67.3886 67.0674 67.2674V67.5853H66.5354ZM67.1011 66.4572C67.1011 66.6824 67.1367 66.8495 67.207 66.9576C67.3069 67.1114 67.4394 67.1879 67.6045 67.1879C67.7319 67.1879 67.8399 67.1339 67.9296 67.0248C68.0193 66.9158 68.0641 66.7435 68.0641 66.5102C68.0641 66.2605 68.0183 66.0811 67.9286 65.9711C67.8389 65.861 67.7237 65.806 67.5821 65.806C67.4445 65.806 67.3293 65.86 67.2386 65.967C67.1469 66.075 67.1011 66.2381 67.1011 66.4572ZM69.5459 66.0821L69.0262 65.9904C69.0853 65.7774 69.1862 65.6205 69.3298 65.5186C69.4725 65.4167 69.6855 65.3657 69.9678 65.3657C70.2236 65.3657 70.4152 65.3963 70.5406 65.4564C70.6659 65.5175 70.7546 65.594 70.8055 65.6877C70.8565 65.7815 70.882 65.9527 70.882 66.2024L70.8738 66.8719C70.8738 67.0625 70.883 67.2042 70.9013 67.2949C70.9197 67.3856 70.9533 67.4824 71.0032 67.5853H70.4335C70.4193 67.5476 70.4009 67.4926 70.3785 67.4182C70.3693 67.3846 70.3632 67.3621 70.3581 67.3509C70.2613 67.4477 70.1563 67.5191 70.0442 67.568C69.9332 67.6159 69.8139 67.6404 69.6876 67.6404C69.4654 67.6404 69.2891 67.5792 69.1607 67.4579C69.0323 67.3377 68.9681 67.1838 68.9681 66.9983C68.9681 66.876 68.9976 66.766 69.0557 66.6702C69.1148 66.5744 69.1964 66.5 69.3023 66.449C69.4083 66.3981 69.5602 66.3542 69.7589 66.3155C70.0269 66.2656 70.2134 66.2177 70.3163 66.1739V66.1168C70.3163 66.0047 70.2899 65.9252 70.2348 65.8773C70.1798 65.8294 70.0769 65.806 69.925 65.806C69.8221 65.806 69.7426 65.8263 69.6855 65.8671C69.6274 65.9079 69.5816 65.9792 69.5459 66.0821ZM70.3163 66.5468C70.243 66.5713 70.1268 66.6009 69.9668 66.6355C69.8078 66.6691 69.7028 66.7028 69.6539 66.7354C69.5795 66.7884 69.5418 66.8556 69.5418 66.9372C69.5418 67.0187 69.5724 67.087 69.6315 67.1461C69.6916 67.2052 69.7681 67.2337 69.8608 67.2337C69.9637 67.2337 70.0636 67.2001 70.1574 67.1318C70.2267 67.0798 70.2725 67.0167 70.295 66.9412C70.3092 66.8923 70.3163 66.7996 70.3163 66.662V66.5468ZM73.4257 67.5853H72.8519V66.4775C72.8519 66.2432 72.8386 66.0923 72.8142 66.023C72.7897 65.9547 72.75 65.9018 72.6939 65.863C72.6379 65.8243 72.5706 65.806 72.4932 65.806C72.3923 65.806 72.3026 65.8335 72.2221 65.8875C72.1426 65.9415 72.0876 66.0149 72.058 66.1035C72.0285 66.1942 72.0142 66.3604 72.0142 66.6029V67.5853H71.4404V65.4116H71.9714V65.7305C72.162 65.487 72.4015 65.3657 72.6919 65.3657C72.8183 65.3657 72.9355 65.3891 73.0404 65.434C73.1464 65.4809 73.2259 65.5379 73.2799 65.6093C73.335 65.6806 73.3727 65.7601 73.393 65.8508C73.4144 65.9405 73.4257 66.0689 73.4257 66.236V67.5853ZM73.9525 67.7239L74.6099 67.8034C74.6211 67.8809 74.6466 67.9339 74.6853 67.9634C74.7403 68.0042 74.8259 68.0256 74.9431 68.0256C75.0939 68.0256 75.206 68.0032 75.2815 67.9583C75.3314 67.9277 75.3701 67.8798 75.3956 67.8126C75.4139 67.7657 75.4221 67.677 75.4221 67.5486L75.4252 67.2317C75.2519 67.4681 75.0348 67.5853 74.7719 67.5853C74.4804 67.5853 74.2481 67.462 74.0779 67.2154C73.9444 67.0207 73.8771 66.7782 73.8771 66.4888C73.8771 66.1239 73.9648 65.8467 74.1401 65.6541C74.3153 65.4625 74.5334 65.3657 74.7953 65.3657C75.0634 65.3657 75.2855 65.4839 75.4598 65.7193V65.4116H75.9969V67.3611C75.9969 67.6169 75.9755 67.8095 75.9327 67.9359C75.8909 68.0623 75.8318 68.1621 75.7553 68.2345C75.6789 68.3058 75.577 68.3639 75.4486 68.4037C75.3212 68.4455 75.1602 68.4658 74.9655 68.4658C74.5966 68.4658 74.3357 68.4016 74.1818 68.2753C74.0269 68.1489 73.9505 67.9889 73.9505 67.7942C73.9505 67.7749 73.9515 67.7514 73.9525 67.7239ZM74.4672 66.4551C74.4672 66.6854 74.512 66.8536 74.6007 66.9606C74.6904 67.0676 74.8004 67.1206 74.9309 67.1206C75.0705 67.1206 75.1897 67.0656 75.2855 66.9565C75.3824 66.8465 75.4313 66.6844 75.4313 66.4694C75.4313 66.2452 75.3844 66.0781 75.2917 65.969C75.1999 65.86 75.0827 65.806 74.9411 65.806C74.8035 65.806 74.6904 65.86 74.6007 65.966C74.512 66.073 74.4672 66.236 74.4672 66.4551ZM78.0015 67.5853V67.2602C77.922 67.3764 77.818 67.4681 77.6896 67.5374C77.5602 67.6057 77.4236 67.6404 77.281 67.6404C77.1342 67.6404 77.0027 67.6077 76.8876 67.5435C76.7704 67.4793 76.6868 67.3886 76.6348 67.2735C76.5829 67.1563 76.5574 66.9963 76.5574 66.7904V65.4116H77.1311V66.4133C77.1311 66.7191 77.1413 66.9066 77.1627 66.9759C77.1841 67.0452 77.2218 67.1002 77.2789 67.14C77.335 67.1807 77.4053 67.2001 77.4919 67.2001C77.5908 67.2001 77.6784 67.1736 77.7569 67.1196C77.8354 67.0656 77.8883 66.9983 77.9169 66.9188C77.9454 66.8383 77.9597 66.6426 77.9597 66.3308V65.4116H78.5334V67.5853H78.0015ZM81.1006 67.5853H80.5268V66.4775C80.5268 66.2432 80.5146 66.0923 80.4901 66.023C80.4647 65.9547 80.4249 65.9018 80.3689 65.863C80.3138 65.8243 80.2466 65.806 80.1681 65.806C80.0672 65.806 79.9775 65.8335 79.898 65.8875C79.8175 65.9415 79.7635 66.0149 79.734 66.1035C79.7034 66.1942 79.6891 66.3604 79.6891 66.6029V67.5853H79.1154V65.4116H79.6473V65.7305C79.8379 65.487 80.0774 65.3657 80.3668 65.3657C80.4942 65.3657 80.6104 65.3891 80.7164 65.434C80.8224 65.4809 80.9019 65.5379 80.9559 65.6093C81.0099 65.6806 81.0476 65.7601 81.069 65.8508C81.0904 65.9405 81.1006 66.0689 81.1006 66.236V67.5853ZM84.8397 67.5853H84.3077V67.2674C84.2191 67.3907 84.1141 67.4844 83.9928 67.5466C83.8726 67.6088 83.7503 67.6404 83.627 67.6404C83.3763 67.6404 83.1623 67.5395 82.9839 67.3377C82.8056 67.1359 82.7159 66.8556 82.7159 66.4949C82.7159 66.126 82.8025 65.8457 82.9768 65.6531C83.15 65.4615 83.3691 65.3657 83.6351 65.3657C83.8777 65.3657 84.0886 65.4676 84.266 65.6694V64.5871H84.8397V67.5853ZM83.307 66.4572C83.307 66.6895 83.3386 66.8577 83.4028 66.9616C83.4955 67.1125 83.6239 67.1879 83.79 67.1879C83.9225 67.1879 84.0346 67.1318 84.1273 67.0187C84.2201 66.9056 84.266 66.7374 84.266 66.5122C84.266 66.2615 84.2211 66.0811 84.1314 65.9711C84.0407 65.861 83.9266 65.806 83.7859 65.806C83.6504 65.806 83.5363 65.86 83.4445 65.969C83.3528 66.0781 83.307 66.2411 83.307 66.4572ZM85.8313 66.0821L85.3126 65.9904C85.3707 65.7774 85.4726 65.6205 85.6153 65.5186C85.7579 65.4167 85.9709 65.3657 86.2532 65.3657C86.51 65.3657 86.7006 65.3963 86.826 65.4564C86.9513 65.5175 87.04 65.594 87.0909 65.6877C87.1419 65.7815 87.1674 65.9527 87.1674 66.2024L87.1592 66.8719C87.1592 67.0625 87.1684 67.2042 87.1867 67.2949C87.2051 67.3856 87.2387 67.4824 87.2897 67.5853H86.72C86.7047 67.5476 86.6863 67.4926 86.6649 67.4182C86.6558 67.3846 86.6486 67.3621 86.6446 67.3509C86.5467 67.4477 86.4418 67.5191 86.3297 67.568C86.2186 67.6159 86.0993 67.6404 85.973 67.6404C85.7508 67.6404 85.5745 67.5792 85.4461 67.4579C85.3177 67.3377 85.2535 67.1838 85.2535 66.9983C85.2535 66.876 85.283 66.766 85.3421 66.6702C85.4002 66.5744 85.4818 66.5 85.5877 66.449C85.6937 66.3981 85.8456 66.3542 86.0443 66.3155C86.3123 66.2656 86.4988 66.2177 86.6028 66.1739V66.1168C86.6028 66.0047 86.5753 65.9252 86.5202 65.8773C86.4652 65.8294 86.3623 65.806 86.2104 65.806C86.1085 65.806 86.029 65.8263 85.9709 65.8671C85.9128 65.9079 85.867 65.9792 85.8313 66.0821ZM86.6028 66.5468C86.5294 66.5713 86.4122 66.6009 86.2522 66.6355C86.0932 66.6691 85.9883 66.7028 85.9404 66.7354C85.8649 66.7884 85.8272 66.8556 85.8272 66.9372C85.8272 67.0187 85.8578 67.087 85.9179 67.1461C85.9781 67.2052 86.0535 67.2337 86.1462 67.2337C86.2502 67.2337 86.349 67.2001 86.4428 67.1318C86.5121 67.0798 86.5579 67.0167 86.5804 66.9412C86.5946 66.8923 86.6028 66.7996 86.6028 66.662V66.5468ZM88.9905 66.8984L89.5643 66.9953C89.4909 67.2052 89.3748 67.3652 89.2158 67.4753C89.0568 67.5853 88.8581 67.6404 88.6196 67.6404C88.2425 67.6404 87.9623 67.517 87.7819 67.2694C87.6382 67.0717 87.5669 66.821 87.5669 66.5193C87.5669 66.1586 87.6606 65.8763 87.8481 65.6725C88.0367 65.4676 88.2741 65.3657 88.5615 65.3657C88.8846 65.3657 89.1393 65.4727 89.3258 65.6867C89.5123 65.8997 89.602 66.2279 89.5939 66.6681H88.1569C88.161 66.8393 88.2069 66.9718 88.2955 67.0666C88.3842 67.1614 88.4942 67.2093 88.6257 67.2093C88.7154 67.2093 88.7908 67.1848 88.852 67.1359C88.9131 67.087 88.959 67.0075 88.9905 66.8984ZM89.0242 66.3165C89.0201 66.1494 88.9773 66.023 88.8958 65.9364C88.8142 65.8488 88.7144 65.806 88.5972 65.806C88.4728 65.806 88.3689 65.8518 88.2874 65.9435C88.2058 66.0342 88.1661 66.1596 88.1671 66.3165H89.0242ZM90.612 67.5853H90.0382V65.4116H90.5702V65.7204C90.6619 65.5746 90.7444 65.4788 90.8178 65.434C90.8902 65.3881 90.9738 65.3657 91.0665 65.3657C91.198 65.3657 91.3243 65.4024 91.4456 65.4737L91.2673 65.9751C91.1704 65.913 91.0807 65.8814 90.9972 65.8814C90.9167 65.8814 90.8484 65.9038 90.7923 65.9476C90.7363 65.9925 90.6925 66.0719 90.6599 66.1871C90.6283 66.3033 90.612 66.5468 90.612 66.9158V67.5853ZM92.1202 66.0821L91.6015 65.9904C91.6596 65.7774 91.7615 65.6205 91.9042 65.5186C92.0479 65.4167 92.2599 65.3657 92.5422 65.3657C92.799 65.3657 92.9895 65.3963 93.1159 65.4564C93.2402 65.5175 93.3289 65.594 93.3799 65.6877C93.4308 65.7815 93.4573 65.9527 93.4573 66.2024L93.4482 66.8719C93.4482 67.0625 93.4573 67.2042 93.4757 67.2949C93.494 67.3856 93.5276 67.4824 93.5786 67.5853H93.0089C92.9936 67.5476 92.9753 67.4926 92.9539 67.4182C92.9447 67.3846 92.9376 67.3621 92.9335 67.3509C92.8357 67.4477 92.7307 67.5191 92.6196 67.568C92.5075 67.6159 92.3893 67.6404 92.2619 67.6404C92.0397 67.6404 91.8634 67.5792 91.735 67.4579C91.6066 67.3377 91.5424 67.1838 91.5424 66.9983C91.5424 66.876 91.572 66.766 91.6311 66.6702C91.6892 66.5744 91.7707 66.5 91.8767 66.449C91.9827 66.3981 92.1345 66.3542 92.3332 66.3155C92.6013 66.2656 92.7878 66.2177 92.8917 66.1739V66.1168C92.8917 66.0047 92.8642 65.9252 92.8102 65.8773C92.7541 65.8294 92.6512 65.806 92.4994 65.806C92.3974 65.806 92.318 65.8263 92.2599 65.8671C92.2028 65.9079 92.1559 65.9792 92.1202 66.0821ZM92.8917 66.5468C92.8183 66.5713 92.7011 66.6009 92.5422 66.6355C92.3822 66.6691 92.2782 66.7028 92.2293 66.7354C92.1539 66.7884 92.1162 66.8556 92.1162 66.9372C92.1162 67.0187 92.1467 67.087 92.2069 67.1461C92.267 67.2052 92.3424 67.2337 92.4352 67.2337C92.5391 67.2337 92.638 67.2001 92.7327 67.1318C92.801 67.0798 92.8479 67.0167 92.8693 66.9412C92.8836 66.8923 92.8917 66.7996 92.8917 66.662V66.5468ZM94.5885 64.5871V65.6979C94.775 65.4768 94.9982 65.3657 95.2571 65.3657C95.3906 65.3657 95.5108 65.3902 95.6178 65.4391C95.7238 65.489 95.8043 65.5512 95.8594 65.6276C95.9134 65.704 95.9501 65.7886 95.9705 65.8814C95.9898 65.9741 96 66.1178 96 66.3125V67.5853H95.4262V66.4398C95.4262 66.2116 95.415 66.0679 95.3936 66.0057C95.3712 65.9446 95.3315 65.8956 95.2764 65.86C95.2204 65.8243 95.1501 65.806 95.0655 65.806C94.9697 65.806 94.8841 65.8284 94.8076 65.8753C94.7312 65.9221 94.6762 65.9914 94.6415 66.0852C94.6059 66.1779 94.5885 66.3165 94.5885 66.4979V67.5853H94.0148V64.5871H94.5885Z" fill="#ED1C24"/>
</g>
<rect x="1" y="1" width="110" height="110" rx="9" stroke="#CCCCCC" stroke-width="2"/>
<defs>
<clipPath id="clip0_517_518">
<rect x="2" y="2" width="108" height="108" rx="8" fill="white"/>
</clipPath>
</defs>
</svg>
