<svg width="112" height="112" viewBox="0 0 112 112" fill="none" xmlns="http://www.w3.org/2000/svg">
<g clip-path="url(#clip0_528_29)">
<rect x="2" y="2" width="108" height="108" rx="8" fill="white"/>
<mask id="mask0_528_29" style="mask-type:luminance" maskUnits="userSpaceOnUse" x="30" y="24" width="66" height="65">
<path d="M53.3591 40.3462C58.0683 44.6478 66.4 54.1567 63.0945 61.1298C61.2833 64.9334 54.8534 59.2733 51.0951 58.4583C53.5855 62.2165 58.8381 68.9633 65.5397 74.7139C72.196 80.4645 87.7726 93.0071 94.3383 86.2151C101.81 78.4721 82.3842 52.2096 69.8867 42.2932C57.9325 32.7844 39.3673 24.5434 30.3112 24C40.5899 28.9808 49.7367 36.9954 53.4497 40.3915" fill="white"/>
</mask>
<g mask="url(#mask0_528_29)">
<path d="M64.9941 -11.7734L-4.26666 59.448L66.9882 128.739L136.249 57.518L64.9941 -11.7734Z" fill="url(#paint0_linear_528_29)"/>
</g>
<mask id="mask1_528_29" style="mask-type:luminance" maskUnits="userSpaceOnUse" x="16" y="24" width="66" height="64">
<path d="M17.814 26.3541C9.66349 33.6896 30.9455 60.0427 42.628 69.9138C54.3105 79.7396 72.5134 87.4825 81.5696 87.9806C71.6078 83.9054 62.2346 75.1663 58.748 71.5438C55.2614 67.9214 43.2619 55.4694 48.0164 50.081C50.7785 46.9567 56.3934 52.2545 60.1517 53.0695C57.616 47.2283 53.3596 43.4701 46.658 37.7195C41.3601 33.1462 31.0814 24.3618 23.2478 24.3618C21.2101 24.3618 19.3536 24.9505 17.7688 26.3541" fill="white"/>
</mask>
<g mask="url(#mask1_528_29)">
<path d="M44.6529 -11.6152L-22.114 57.0417L46.6413 123.902L113.408 55.2455L44.6529 -11.6152Z" fill="url(#paint1_linear_528_29)"/>
</g>
<path d="M48.0614 50.0354C50.5066 46.9563 56.4384 49.5826 59.2005 52.073C62.0079 54.5634 65.0417 59.2273 63.638 61.5819C62.2796 63.9364 56.5742 62.8497 53.0876 60.1782C49.6915 57.5066 46.0238 52.6164 48.0614 50.0354Z" fill="#19335D"/>
<mask id="mask2_528_29" style="mask-type:luminance" maskUnits="userSpaceOnUse" x="30" y="24" width="66" height="65">
<path d="M53.3591 40.3462C58.0683 44.6478 66.4 54.1567 63.0945 61.1298C61.2833 64.9334 54.8534 59.2733 51.0951 58.4583C53.5855 62.2165 58.8381 68.9633 65.5397 74.7139C72.196 80.4645 87.7726 93.0071 94.3383 86.2151C101.81 78.4721 82.3842 52.2096 69.8867 42.2932C57.9325 32.7844 39.3673 24.5434 30.3112 24C40.5899 28.9808 49.7367 36.9954 53.4497 40.3915" fill="white"/>
</mask>
<g mask="url(#mask2_528_29)">
<path d="M64.9941 -11.7734L-4.26666 59.448L66.9882 128.739L136.249 57.518L64.9941 -11.7734Z" fill="url(#paint2_linear_528_29)"/>
</g>
<mask id="mask3_528_29" style="mask-type:luminance" maskUnits="userSpaceOnUse" x="16" y="24" width="66" height="64">
<path d="M17.814 26.3541C9.66349 33.6896 30.9455 60.0427 42.628 69.9138C54.3105 79.7396 72.5134 87.4825 81.5696 87.9806C71.6078 83.9054 62.2346 75.1663 58.748 71.5438C55.2614 67.9214 43.2619 55.4694 48.0164 50.081C50.7785 46.9567 56.3934 52.2545 60.1517 53.0695C57.616 47.2283 53.3596 43.4701 46.658 37.7195C41.3601 33.1462 31.0814 24.3618 23.2478 24.3618C21.2101 24.3618 19.3536 24.9505 17.7688 26.3541" fill="white"/>
</mask>
<g mask="url(#mask3_528_29)">
<path d="M44.6529 -11.6152L-22.114 57.0417L46.6413 123.902L113.408 55.2455L44.6529 -11.6152Z" fill="url(#paint3_linear_528_29)"/>
</g>
<path d="M48.0614 50.0354C50.5066 46.9563 56.4384 49.5826 59.2005 52.073C62.0079 54.5634 65.0417 59.2273 63.638 61.5819C62.2796 63.9364 56.5742 62.8497 53.0876 60.1782C49.6915 57.5066 46.0238 52.6164 48.0614 50.0354Z" fill="#19335D"/>
</g>
<rect x="1" y="1" width="110" height="110" rx="9" stroke="#CCCCCC" stroke-width="2"/>
<defs>
<linearGradient id="paint0_linear_528_29" x1="40.2742" y1="94.1982" x2="104.325" y2="28.3321" gradientUnits="userSpaceOnUse">
<stop stop-color="#EA292C"/>
<stop offset="0.27" stop-color="#EA292C"/>
<stop offset="0.38" stop-color="#EA292C"/>
<stop offset="0.41" stop-color="#EB3E2B"/>
<stop offset="0.46" stop-color="#EF7529"/>
<stop offset="0.54" stop-color="#F5CC26"/>
<stop offset="0.57" stop-color="#F8EC26"/>
<stop offset="1" stop-color="#F8EC26"/>
</linearGradient>
<linearGradient id="paint1_linear_528_29" x1="3.66678" y1="82.7197" x2="67.4022" y2="17.1782" gradientUnits="userSpaceOnUse">
<stop stop-color="#F8EC26"/>
<stop offset="0.45" stop-color="#F8EC26"/>
<stop offset="0.47" stop-color="#F5CC26"/>
<stop offset="0.54" stop-color="#EF7529"/>
<stop offset="0.58" stop-color="#EB3E2B"/>
<stop offset="0.61" stop-color="#EA292C"/>
<stop offset="0.74" stop-color="#EA292C"/>
<stop offset="1" stop-color="#EA292C"/>
</linearGradient>
<linearGradient id="paint2_linear_528_29" x1="40.2742" y1="94.1982" x2="104.325" y2="28.3321" gradientUnits="userSpaceOnUse">
<stop stop-color="#EA292C"/>
<stop offset="0.27" stop-color="#EA292C"/>
<stop offset="0.38" stop-color="#EA292C"/>
<stop offset="0.41" stop-color="#EB3E2B"/>
<stop offset="0.46" stop-color="#EF7529"/>
<stop offset="0.54" stop-color="#F5CC26"/>
<stop offset="0.57" stop-color="#F8EC26"/>
<stop offset="1" stop-color="#F8EC26"/>
</linearGradient>
<linearGradient id="paint3_linear_528_29" x1="3.66678" y1="82.7197" x2="67.4022" y2="17.1782" gradientUnits="userSpaceOnUse">
<stop stop-color="#F8EC26"/>
<stop offset="0.45" stop-color="#F8EC26"/>
<stop offset="0.47" stop-color="#F5CC26"/>
<stop offset="0.54" stop-color="#EF7529"/>
<stop offset="0.58" stop-color="#EB3E2B"/>
<stop offset="0.61" stop-color="#EA292C"/>
<stop offset="0.74" stop-color="#EA292C"/>
<stop offset="1" stop-color="#EA292C"/>
</linearGradient>
<clipPath id="clip0_528_29">
<rect x="2" y="2" width="108" height="108" rx="8" fill="white"/>
</clipPath>
</defs>
</svg>
