<svg width="112" height="112" viewBox="0 0 112 112" fill="none" xmlns="http://www.w3.org/2000/svg">
<g clip-path="url(#clip0_517_507)">
<rect x="2" y="2" width="108" height="108" rx="8" fill="white"/>
<path d="M46.9065 60.7985H47.5865V57.9697L50.3084 60.7985H51.2472L48.2345 57.7317L50.9232 55.2915H50.0482L47.5865 57.5478V52.6993H46.9065V60.7985ZM41.4689 60.7985H42.1488V57.7539C42.1488 57.5083 42.1807 57.2675 42.2363 57.0295C42.289 56.7999 42.384 56.5917 42.5062 56.3926C42.7587 55.9798 43.175 55.7487 43.7801 55.7452C44.2477 55.7418 44.5946 55.8979 44.7951 56.1983C44.9977 56.5022 45.0873 56.9248 45.0873 57.4514V60.7985H45.7672V57.2779C45.7672 56.659 45.6298 56.1525 45.3454 55.7661C45.0533 55.3685 44.5648 55.1666 43.8883 55.1617C43.6073 55.1596 43.3665 55.1943 43.1646 55.2589C42.9634 55.3234 42.7934 55.4143 42.6574 55.5288C42.5277 55.637 42.4194 55.7556 42.3334 55.8854C42.2467 56.0151 42.171 56.1442 42.1065 56.2733H42.0843V55.2915H41.4258C41.4543 55.73 41.4689 56.1622 41.4689 56.5869V60.7985ZM39.6794 58.3582C39.6794 58.5019 39.6718 58.6857 39.6579 58.9085C39.6434 59.1242 39.5823 59.3449 39.4741 59.5669C39.3735 59.7758 39.2111 59.9555 38.9877 60.1081C38.7573 60.2656 38.4444 60.3447 38.0489 60.3447C37.7318 60.3447 37.4696 60.2601 37.2496 60.1081C37.0234 59.9506 36.9041 59.7043 36.9041 59.3518C36.9041 59.0486 36.9908 58.812 37.1525 58.6282C37.3072 58.4512 37.507 58.318 37.7575 58.2285C38.0101 58.1383 38.2897 58.0668 38.5998 58.0446C38.894 58.0238 39.1896 58.0238 39.4852 58.0238H39.6794V58.3582ZM39.744 60.7985H40.4135C40.3705 60.446 40.3594 60.0609 40.3594 59.6432V57.2134C40.3594 55.8313 39.7301 55.1409 38.4264 55.1617C37.8574 55.17 37.3183 55.3019 36.8069 55.5399V56.1983C37.3183 55.8889 37.8574 55.7425 38.4264 55.7452C39.2833 55.7494 39.6794 56.2164 39.6794 57.1593V57.4403H39.5497C39.1903 57.4403 38.8149 57.4438 38.4264 57.4722C38.0302 57.5014 37.6645 57.5916 37.3245 57.7102C36.988 57.8282 36.7119 58.0176 36.494 58.2826C36.2727 58.5504 36.1679 58.9126 36.1589 59.3733C36.1533 59.6543 36.2415 59.9818 36.4829 60.3343C36.6023 60.5078 36.8014 60.632 37.0449 60.7444C37.2836 60.8554 37.5917 60.9282 37.9733 60.9282C38.3334 60.9282 38.6755 60.8311 38.9988 60.6583C39.3235 60.4856 39.5636 60.2365 39.7225 59.9131H39.744V60.7985ZM34.774 58.0446C34.774 58.3041 34.7559 58.5664 34.7199 58.8328C34.6699 59.1069 34.5797 59.3588 34.4507 59.5891C34.3348 59.8049 34.1696 59.9811 33.9532 60.1185C33.7374 60.2691 33.4675 60.3447 33.1435 60.3447C32.8409 60.3447 32.5891 60.2691 32.3879 60.1185C32.179 59.9811 32.0097 59.798 31.8793 59.5669C31.6281 59.0778 31.5053 58.5706 31.5129 58.0446C31.5053 57.5048 31.6246 56.9935 31.8696 56.5112C31.9986 56.2809 32.1679 56.0935 32.3768 55.9499C32.5849 55.8132 32.8409 55.7452 33.1435 55.7452C33.4675 55.7452 33.7374 55.8132 33.9532 55.9499C34.1696 56.0797 34.3348 56.2594 34.4507 56.4897C34.5797 56.7055 34.6699 56.9504 34.7199 57.2238C34.7559 57.4972 34.774 57.7713 34.774 58.0446ZM30.8323 60.7985H31.5129V59.9236H31.5344C31.8945 60.6007 32.467 60.9359 33.251 60.9282C34.0073 60.9137 34.5762 60.6368 34.9579 60.097C35.3318 59.5565 35.5192 58.8724 35.5192 58.0446C35.5192 57.1884 35.3464 56.4967 35.0009 55.9714C34.6408 55.4386 34.0579 55.1687 33.251 55.1617C32.9853 55.1617 32.7507 55.2013 32.5495 55.2804C32.3476 55.3595 32.1748 55.4601 32.0312 55.5829C31.8945 55.6904 31.7863 55.8028 31.7079 55.918C31.6205 56.0401 31.5629 56.1407 31.5344 56.2198H31.5129V52.6993H30.8323V60.7985Z" fill="#1C1C1A"/>
<path d="M94.5096 54.0273H96V52.6035H94.5096V54.0273ZM94.5096 60.7985H96V55.0722H94.5096V60.7985ZM90.3736 60.7985H91.8633V58.6968C91.8633 58.4741 91.8703 58.2334 91.8855 57.9746C91.9001 57.7074 91.9431 57.4549 92.0187 57.2183C92.0985 56.9657 92.2241 56.7645 92.3858 56.607C92.5502 56.4453 92.7785 56.3621 93.0755 56.3621C93.3648 56.3621 93.5868 56.403 93.7422 56.4842V54.9834C93.5868 54.9536 93.4349 54.9355 93.2864 54.939C92.8416 54.9494 92.4864 55.1277 92.2075 55.4504C91.9306 55.7723 91.7627 56.0769 91.7183 56.3732H91.6961V55.0722H90.3736V60.7985ZM86.3986 56.0949C86.6428 56.0901 86.8475 56.1504 87.0113 56.2622C87.1729 56.3732 87.3069 56.5182 87.3887 56.7062C87.558 57.0961 87.6337 57.5034 87.6337 57.9184C87.6337 58.1112 87.6246 58.3166 87.5892 58.5303C87.5518 58.7461 87.4741 58.9494 87.3776 59.1416C87.2881 59.3199 87.1618 59.4677 86.9995 59.5863C86.8281 59.7126 86.6213 59.7758 86.3771 59.7758C86.1315 59.7758 85.9296 59.7099 85.7651 59.5863C85.6042 59.4656 85.464 59.3213 85.3648 59.1416C85.1532 58.7586 85.0609 58.3485 85.065 57.9184C85.0678 57.4889 85.1719 57.0864 85.3759 56.7062C85.5868 56.3156 85.924 56.1046 86.3986 56.0949ZM83.5636 63.134H85.0533V60.1421H85.0761C85.3426 60.446 85.6146 60.6528 85.8873 60.7652C86.1551 60.8748 86.4444 60.9359 86.7546 60.9317C87.6441 60.9206 88.2803 60.6105 88.6564 60.0089C89.0213 59.4247 89.1892 58.7267 89.1892 57.9184C89.1892 57.1031 89.0248 56.403 88.6564 55.8285C88.2838 55.2464 87.6552 54.9355 86.7886 54.939C85.9206 54.9418 85.328 55.2755 85.0089 55.884H84.9866V55.0722H83.5636V63.134ZM81.9185 59.2644C81.6437 59.4268 81.3488 59.5558 81.0401 59.6648C80.7188 59.7772 80.3795 59.8424 80.0167 59.8424C79.5573 59.8424 79.1827 59.7085 78.8822 59.4531C78.5894 59.204 78.4194 58.8557 78.3827 58.3971H82.341C82.348 57.3737 82.171 56.5383 81.7846 55.9055C81.3918 55.2637 80.6619 54.9348 79.617 54.939C78.7344 54.9418 78.069 55.245 77.6264 55.8174C77.1795 56.394 76.9526 57.1107 76.9589 57.9628C76.9742 59.9125 77.9781 60.9109 79.95 60.9317C80.7355 60.94 81.3918 60.7798 81.9185 60.4759V59.2644ZM78.3827 57.3737C78.4118 56.981 78.5367 56.6569 78.7601 56.4065C78.9808 56.1602 79.2978 56.0283 79.7058 56.0283C80.1207 56.0283 80.4253 56.1685 80.6168 56.4287C80.8028 56.6805 80.9027 56.9955 80.9173 57.3737H78.3827ZM71.5546 60.7985H73.0449V58.019H73.0678L74.9801 60.7985H76.8694L74.4687 57.629L76.603 55.0722H74.8461L73.0678 57.3626H73.0449V52.4585H71.5546V60.7985ZM70.1093 55.0722H68.6189V57.8746C68.6189 58.0592 68.6043 58.2597 68.5752 58.4741C68.5454 58.6892 68.4725 58.8904 68.3747 59.0868C68.2796 59.2762 68.1533 59.4351 67.9861 59.5641C67.805 59.7022 67.5823 59.7758 67.3075 59.7758C67.0772 59.7758 66.8961 59.7196 66.7629 59.6086C66.6373 59.5052 66.5325 59.3747 66.4735 59.2082C66.4139 59.0403 66.3882 58.8557 66.3736 58.6635C66.366 58.5671 66.3688 58.4741 66.3625 58.3846C66.3549 58.2965 66.3403 58.2112 66.3403 58.13V55.0722H64.85V58.6864C64.85 59.338 65.0158 59.8674 65.3287 60.2878C65.6389 60.7041 66.1211 60.9359 66.7962 60.9317C67.5823 60.9282 68.2082 60.6132 68.6751 60.02H68.6973V60.7985H70.1093V55.0722ZM59.9792 59.1416C59.9792 58.9196 60.0437 58.7447 60.1575 58.608C60.2657 58.4783 60.399 58.3742 60.5696 58.3083C60.7396 58.241 60.9214 58.2001 61.1143 58.1744C61.2038 58.1626 61.2919 58.1522 61.3807 58.1522H62.2814C62.289 58.6046 62.1925 59.0021 61.9705 59.331C61.7409 59.6696 61.3849 59.8375 60.9249 59.8424C60.6508 59.8452 60.4323 59.7772 60.2581 59.6648C60.0763 59.5475 59.9792 59.3789 59.9792 59.1416ZM59.2236 56.6514C59.7495 56.2434 60.3393 56.0332 60.9915 56.0283C61.4363 56.0255 61.7651 56.1157 61.9705 56.2955C62.1794 56.4779 62.2814 56.8033 62.2814 57.2627H61.4592C61.1476 57.2627 60.8208 57.2772 60.4801 57.3182C60.1464 57.3584 59.8328 57.4583 59.5351 57.5957C59.2548 57.7248 59.0279 57.9218 58.8454 58.1848C58.6588 58.4561 58.5533 58.8009 58.5575 59.2304C58.561 59.7785 58.7795 60.1928 59.1903 60.4863C59.5865 60.7714 60.0396 60.9275 60.5578 60.9317C60.9138 60.9345 61.2545 60.8415 61.5813 60.6653C61.8997 60.4932 62.1481 60.2531 62.3265 59.9423H62.348C62.348 60.165 62.3702 60.4502 62.4146 60.7985H63.7273C63.6975 60.369 63.676 59.9423 63.6607 59.5197C63.6454 59.1201 63.6385 58.6413 63.6385 58.0856V57.3515C63.6385 55.7203 62.8371 54.9182 61.1691 54.939C60.4801 54.9473 59.8168 55.0909 59.1792 55.3726L59.2236 56.6514ZM56.0923 54.0273H57.5827V52.6035H56.0923V54.0273ZM56.0923 60.7985H57.5827V55.0722H56.0923V60.7985ZM51.914 60.7985H53.4036V58.6968C53.4036 58.4741 53.4113 58.234 53.4258 57.9746C53.4411 57.7074 53.4855 57.4549 53.5591 57.2183C53.6409 56.9664 53.7631 56.7624 53.9268 56.607C54.0892 56.4432 54.3195 56.3621 54.6158 56.3621C54.9051 56.3621 55.1271 56.403 55.2833 56.4842V54.9834C55.1271 54.9536 54.9752 54.939 54.8267 54.939C54.382 54.9536 54.0232 55.1242 53.7485 55.4504C53.4668 55.7688 53.3037 56.0769 53.2593 56.3732H53.2371V55.0722H51.914V60.7985Z" fill="#1C1C1A"/>
<path d="M60.6376 63.1215H60.9124V62.6039C60.9124 62.5699 60.9159 62.5324 60.9235 62.4915C60.9297 62.4519 60.9415 62.4138 60.9603 62.3784C60.9776 62.3423 61.0026 62.3131 61.0338 62.2889C61.065 62.2646 61.106 62.2535 61.1546 62.2535C61.199 62.2535 61.233 62.2625 61.2559 62.2819C61.2808 62.3027 61.2982 62.327 61.3093 62.3562C61.3211 62.3867 61.328 62.4186 61.3308 62.454C61.3329 62.4894 61.3336 62.5241 61.3336 62.5567V63.1215H61.6083V62.454C61.6083 62.395 61.6014 62.3402 61.5875 62.2903C61.5736 62.2396 61.5528 62.1952 61.523 62.1591C61.4938 62.1216 61.4557 62.0925 61.412 62.071C61.3662 62.0502 61.3121 62.0391 61.2489 62.0391C61.1768 62.0391 61.1115 62.0543 61.0553 62.0849C60.9991 62.1147 60.9526 62.1556 60.9166 62.2077H60.9124V61.5818H60.6376V63.1215ZM59.8411 62.0641H59.5657V62.581C59.5657 62.6164 59.5629 62.6524 59.5559 62.6934C59.549 62.7336 59.5365 62.7718 59.5192 62.8072C59.5011 62.8426 59.4762 62.8724 59.4449 62.896C59.4137 62.9203 59.3735 62.9321 59.3235 62.9321C59.2805 62.9321 59.2458 62.9223 59.2215 62.9022C59.1965 62.8828 59.1785 62.8585 59.1681 62.8287C59.157 62.7995 59.1507 62.7662 59.1487 62.7315C59.1459 62.6948 59.1452 62.6608 59.1452 62.6288V62.0641H58.8704V62.7315C58.8704 62.7919 58.8767 62.8467 58.8912 62.8974C58.9044 62.948 58.9259 62.9917 58.9558 63.0292C58.9849 63.0653 59.0224 63.0944 59.0675 63.1145C59.1119 63.1354 59.1667 63.1458 59.2291 63.1458C59.302 63.1458 59.3672 63.1305 59.4255 63.1007C59.4838 63.0701 59.5344 63.0299 59.5761 62.9778H59.5802V63.1215H59.8411V62.0641ZM57.1032 63.1215H57.3696V62.9917H57.3738C57.4134 63.0486 57.4633 63.0875 57.5216 63.1111C57.5799 63.134 57.6389 63.1458 57.6978 63.1458C57.779 63.1458 57.847 63.1305 57.9039 63.0993C57.9608 63.068 58.0066 63.0278 58.042 62.9765C58.0767 62.9251 58.1023 62.8661 58.1176 62.7988C58.1329 62.7322 58.1412 62.6622 58.1412 62.5893C58.1412 62.5171 58.1329 62.4478 58.1176 62.3811C58.1023 62.3152 58.0767 62.2563 58.042 62.2056C58.0066 62.155 57.9608 62.1147 57.9039 62.0849C57.847 62.0543 57.779 62.0391 57.6978 62.0391C57.6257 62.0391 57.5646 62.0537 57.514 62.0814C57.4647 62.1099 57.421 62.1487 57.3821 62.2001H57.378V61.5818H57.1032V63.1215ZM57.3801 62.5893C57.3801 62.5525 57.3849 62.5137 57.3932 62.4748C57.4023 62.4346 57.4168 62.3985 57.4363 62.3659C57.4564 62.3326 57.4813 62.3062 57.5133 62.2847C57.5452 62.2639 57.5827 62.2535 57.6264 62.2535C57.6715 62.2535 57.7082 62.2639 57.7367 62.2861C57.7658 62.3069 57.7887 62.3354 57.8068 62.368C57.8241 62.4013 57.8373 62.4373 57.8435 62.4769C57.8512 62.5164 57.8539 62.5539 57.8539 62.5893C57.8539 62.6268 57.8505 62.6649 57.8428 62.7045C57.8352 62.744 57.8227 62.7808 57.8061 62.8148C57.7887 62.8495 57.7651 62.8779 57.7353 62.8994C57.7048 62.9216 57.6673 62.9321 57.6222 62.9321C57.5771 62.9321 57.5389 62.9216 57.507 62.8994C57.4758 62.8779 57.4508 62.8502 57.4321 62.8162C57.4141 62.7829 57.4002 62.7454 57.3918 62.7052C57.3835 62.6649 57.3801 62.6268 57.3801 62.5893ZM54.7608 63.1215H55.0363V62.608C55.0363 62.5733 55.0383 62.5366 55.0425 62.4949C55.0467 62.454 55.0557 62.4151 55.0703 62.3791C55.0841 62.343 55.1049 62.3131 55.132 62.2889C55.1598 62.2646 55.1965 62.2535 55.2416 62.2535C55.2812 62.2535 55.311 62.2611 55.3325 62.2764C55.354 62.2923 55.3693 62.3118 55.3797 62.3354C55.3901 62.3589 55.3957 62.3839 55.397 62.4124C55.3984 62.4401 55.3991 62.4665 55.3991 62.4908V63.1215H55.6739V62.608C55.6739 62.5733 55.6767 62.5366 55.6801 62.4949C55.6843 62.454 55.694 62.4151 55.7086 62.3791C55.7225 62.343 55.7433 62.3131 55.7703 62.2889C55.7981 62.2646 55.8342 62.2535 55.8793 62.2535C55.9188 62.2535 55.95 62.2611 55.9702 62.2764C55.9924 62.2923 56.0076 62.3118 56.018 62.3354C56.0284 62.3589 56.034 62.3839 56.0354 62.4124C56.0368 62.4401 56.0375 62.4665 56.0375 62.4908V63.1215H56.3122V62.454C56.3122 62.395 56.3074 62.3402 56.297 62.2903C56.2873 62.2396 56.2692 62.1952 56.2428 62.1591C56.2172 62.1216 56.1825 62.0925 56.1402 62.071C56.0971 62.0502 56.0437 62.0391 55.9778 62.0391C55.914 62.0391 55.8501 62.055 55.7877 62.0856C55.7259 62.1168 55.6794 62.1633 55.6475 62.2264C55.6177 62.1605 55.5768 62.1133 55.5247 62.0842C55.4727 62.0543 55.4095 62.0391 55.336 62.0391C55.2833 62.0391 55.2291 62.0516 55.1722 62.0765C55.116 62.1008 55.0654 62.1459 55.0217 62.2118H55.0175V62.0641H54.7608V63.1215ZM53.9684 62.0641H53.6937V62.581C53.6937 62.6164 53.6902 62.6524 53.684 62.6934C53.6763 62.7336 53.6645 62.7718 53.6465 62.8072C53.6284 62.8426 53.6042 62.8724 53.5729 62.896C53.541 62.9203 53.5001 62.9321 53.4515 62.9321C53.4078 62.9321 53.3731 62.9223 53.3488 62.9022C53.3238 62.8828 53.3065 62.8585 53.2954 62.8287C53.2843 62.7995 53.2781 62.7662 53.276 62.7315C53.2739 62.6948 53.2725 62.6608 53.2725 62.6288V62.0641H52.9977V62.7315C52.9977 62.7919 53.0047 62.8467 53.0179 62.8974C53.0324 62.948 53.0533 62.9917 53.0831 63.0292C53.1129 63.0653 53.1497 63.0944 53.1955 63.1145C53.2399 63.1354 53.294 63.1458 53.3572 63.1458C53.4293 63.1458 53.4945 63.1305 53.5528 63.1007C53.6111 63.0701 53.6618 63.0299 53.7041 62.9778H53.7075V63.1215H53.9684V62.0641ZM51.7766 62.803C51.7766 62.9078 51.805 62.9917 51.8626 63.0535C51.9202 63.1145 52.0028 63.1458 52.111 63.1458C52.152 63.1458 52.1894 63.1444 52.222 63.1395C52.2546 63.1354 52.2852 63.1291 52.3143 63.1215L52.306 62.9036C52.2907 62.9126 52.2727 62.9203 52.2505 62.9251C52.2283 62.93 52.2054 62.9321 52.1811 62.9321C52.1547 62.9321 52.1332 62.9272 52.1159 62.9182C52.0992 62.9078 52.0853 62.8953 52.0763 62.8786C52.0666 62.8627 52.0604 62.8439 52.0569 62.8231C52.0527 62.803 52.0513 62.7808 52.0513 62.7579V62.2653H52.2956V62.0641H52.0513V61.765L51.7766 61.8524V62.0641H51.5733V62.2653H51.7766V62.803Z" fill="#1C1C1A"/>
<path d="M80.3601 63.1215H80.6349V62.6039C80.6349 62.5699 80.6376 62.5317 80.6453 62.4915C80.6522 62.4519 80.6647 62.4138 80.682 62.3784C80.6994 62.3423 80.7244 62.3125 80.7556 62.2889C80.7875 62.2646 80.8278 62.2535 80.8763 62.2535C80.9207 62.2535 80.9547 62.2625 80.979 62.2819C81.0026 62.3027 81.0206 62.327 81.0324 62.3569C81.0435 62.3867 81.0505 62.4186 81.0526 62.4547C81.0546 62.4894 81.0553 62.5241 81.0553 62.5567V63.1215H81.3301V62.4547C81.3301 62.3957 81.3239 62.3402 81.31 62.2903C81.2968 62.2389 81.2753 62.1952 81.2454 62.1584C81.2163 62.1216 81.1788 62.0925 81.1337 62.071C81.0886 62.0502 81.0345 62.0391 80.9714 62.0391C80.8992 62.0391 80.834 62.0523 80.7764 62.0779C80.7188 62.1022 80.6682 62.1459 80.6252 62.2077H80.6203V62.0641H80.3601V63.1215ZM78.9003 62.8148C78.9003 62.7746 78.9107 62.7419 78.9308 62.7184C78.9523 62.6934 78.9773 62.676 79.0071 62.6635C79.0369 62.651 79.0703 62.6434 79.1056 62.6393C79.1417 62.6344 79.1743 62.6323 79.2062 62.6323H79.3256C79.3256 62.6739 79.3214 62.7128 79.3138 62.7496C79.3062 62.7863 79.2916 62.8203 79.268 62.8502C79.2458 62.8793 79.2194 62.9015 79.1868 62.9189C79.1549 62.9362 79.1174 62.9445 79.0751 62.9445C79.0258 62.9445 78.9842 62.9341 78.9509 62.914C78.9176 62.8932 78.9003 62.8606 78.9003 62.8148ZM78.7608 62.3562C78.8073 62.3201 78.8593 62.2923 78.9148 62.2715C78.9717 62.2507 79.0286 62.241 79.0876 62.241C79.1695 62.241 79.2298 62.2569 79.268 62.2903C79.3062 62.3229 79.3256 62.3818 79.3256 62.4686H79.1729C79.116 62.4686 79.055 62.472 78.9918 62.4797C78.928 62.4873 78.8697 62.5046 78.8191 62.5303C78.767 62.556 78.7233 62.5928 78.6893 62.6406C78.6553 62.6885 78.6373 62.7523 78.6373 62.8314C78.6373 62.8821 78.6491 62.9272 78.6699 62.9661C78.6907 63.0049 78.7185 63.0382 78.7532 63.0646C78.7872 63.0916 78.8267 63.1111 78.8711 63.1256C78.9155 63.1388 78.9606 63.1458 79.0071 63.1458C79.039 63.1458 79.0702 63.1416 79.1029 63.1333C79.1348 63.1256 79.1646 63.1138 79.1938 63.0986C79.2229 63.0833 79.2493 63.0646 79.2729 63.041C79.2971 63.0174 79.3173 62.9917 79.3332 62.9633H79.3381C79.3395 62.9799 79.3402 63.0028 79.3409 63.0334C79.3409 63.0646 79.345 63.0937 79.3499 63.1215H79.5927C79.5892 63.0798 79.5872 63.0403 79.5851 63.0021C79.583 62.9633 79.5816 62.9244 79.5795 62.8849C79.5788 62.8453 79.5781 62.8051 79.5768 62.7628C79.5761 62.7211 79.5761 62.6739 79.5761 62.6205V62.4852C79.5761 62.3291 79.54 62.2153 79.4692 62.1452C79.3977 62.0745 79.2812 62.0391 79.1209 62.0391C79.0619 62.0391 78.9988 62.0474 78.9329 62.0613C78.8663 62.0752 78.8066 62.0953 78.7532 62.1203L78.7608 62.3562ZM77.0574 63.1215H77.3322V62.608H77.3363L77.6895 63.1215H78.0385L77.5951 62.5359L77.9892 62.0641H77.6652L77.3363 62.4866H77.3322V61.5818H77.0574V63.1215ZM75.9917 62.0641V62.2077H75.9875C75.9493 62.1459 75.9029 62.1022 75.8494 62.0779C75.7946 62.0523 75.7336 62.0391 75.6635 62.0391C75.5837 62.0391 75.5164 62.0564 75.4602 62.0897C75.404 62.1237 75.3582 62.1661 75.3214 62.2188C75.286 62.2701 75.259 62.3291 75.2416 62.3943C75.225 62.4602 75.216 62.5248 75.216 62.5872C75.216 62.658 75.2236 62.726 75.2395 62.7912C75.2555 62.8543 75.2805 62.9119 75.3145 62.9612C75.3492 63.0105 75.3936 63.0493 75.4477 63.0785C75.5032 63.1062 75.5691 63.1215 75.6475 63.1215C75.7252 63.1215 75.7925 63.1041 75.8501 63.0701C75.9077 63.0368 75.9493 62.998 75.9757 62.9522H75.9792C75.9792 62.998 75.9778 63.0445 75.9722 63.0937C75.9681 63.1416 75.9556 63.1867 75.9341 63.2269C75.914 63.2665 75.8814 63.2998 75.839 63.3248C75.796 63.3504 75.737 63.3636 75.6614 63.3636C75.6399 63.3636 75.6149 63.3609 75.5886 63.3546C75.5615 63.3497 75.5344 63.3421 75.5067 63.3338C75.4782 63.3248 75.4512 63.3144 75.4241 63.3033C75.3977 63.2929 75.3742 63.2818 75.354 63.27L75.3311 63.5045C75.397 63.5322 75.4602 63.551 75.5219 63.5614C75.5837 63.5711 75.642 63.5766 75.6961 63.5766C75.8071 63.5766 75.898 63.5607 75.9702 63.5295C76.0423 63.4982 76.0992 63.4566 76.1422 63.4053C76.1839 63.3546 76.2137 63.2949 76.2297 63.2276C76.2463 63.1603 76.2546 63.0903 76.2546 63.0181V62.0641H75.9917ZM75.7377 62.9078C75.6975 62.9078 75.6635 62.8981 75.6336 62.8779C75.6038 62.8585 75.5795 62.8321 75.5608 62.8023C75.5414 62.7718 75.5275 62.7364 75.5171 62.6975C75.5081 62.6601 75.5039 62.6233 75.5039 62.5872C75.5039 62.5463 75.5074 62.506 75.5157 62.4665C75.524 62.4269 75.5372 62.3909 75.5566 62.3596C75.5754 62.3284 75.6017 62.3027 75.633 62.2819C75.6642 62.2625 75.703 62.2535 75.7502 62.2535C75.7891 62.2535 75.8238 62.2611 75.8529 62.2785C75.8827 62.2958 75.907 62.3194 75.9251 62.3492C75.9438 62.3798 75.957 62.4151 75.9667 62.4547C75.9757 62.4929 75.9792 62.5359 75.9792 62.581C75.9792 62.6254 75.9757 62.6663 75.9667 62.7066C75.957 62.7461 75.9424 62.7808 75.923 62.8113C75.9029 62.8412 75.8779 62.8648 75.8474 62.8814C75.8161 62.8994 75.78 62.9078 75.7377 62.9078ZM73.516 63.1215H73.7922V62.6039C73.7922 62.5699 73.795 62.5317 73.8019 62.4915C73.8088 62.4519 73.8213 62.4138 73.838 62.3784C73.8567 62.3423 73.8817 62.3125 73.9129 62.2889C73.9441 62.2646 73.9844 62.2535 74.0336 62.2535C74.0781 62.2535 74.1107 62.2625 74.135 62.2819C74.1585 62.3027 74.1773 62.327 74.1884 62.3569C74.2002 62.3867 74.2078 62.4186 74.2099 62.4547C74.2113 62.4894 74.2127 62.5241 74.2127 62.5567V63.1215H74.4867V62.4547C74.4867 62.3957 74.4805 62.3402 74.4666 62.2903C74.4534 62.2389 74.4319 62.1952 74.4021 62.1584C74.3729 62.1216 74.3355 62.0925 74.2897 62.071C74.2453 62.0502 74.1912 62.0391 74.1287 62.0391C74.0559 62.0391 73.9899 62.0523 73.933 62.0779C73.8761 62.1022 73.8248 62.1459 73.7818 62.2077H73.7776V62.0641H73.516V63.1215ZM72.0569 62.8148C72.0569 62.7746 72.0673 62.7419 72.0874 62.7184C72.1082 62.6934 72.1339 62.676 72.1631 62.6635C72.1936 62.651 72.2269 62.6434 72.2623 62.6393C72.2977 62.6344 72.3317 62.6323 72.3636 62.6323H72.4808C72.4808 62.6739 72.4788 62.7128 72.4704 62.7496C72.4628 62.7863 72.4482 62.8203 72.4246 62.8502C72.4031 62.8793 72.3761 62.9015 72.3428 62.9189C72.3115 62.9362 72.2741 62.9445 72.231 62.9445C72.1825 62.9445 72.1409 62.9341 72.1069 62.914C72.0735 62.8932 72.0569 62.8606 72.0569 62.8148ZM71.9174 62.3562C71.9639 62.3201 72.0153 62.2923 72.0715 62.2715C72.1277 62.2507 72.1853 62.241 72.2435 62.241C72.3261 62.241 72.3865 62.2569 72.4246 62.2903C72.4628 62.3229 72.4808 62.3818 72.4808 62.4686H72.3303C72.2727 62.4686 72.2123 62.472 72.1485 62.4797C72.0846 62.4873 72.0271 62.5046 71.975 62.5303C71.923 62.556 71.88 62.5928 71.846 62.6406C71.8113 62.6885 71.7946 62.7523 71.7946 62.8314C71.7946 62.8821 71.8057 62.9272 71.8258 62.9661C71.8474 63.0049 71.8751 63.0382 71.9084 63.0646C71.9438 63.0916 71.9827 63.1111 72.0278 63.1256C72.0722 63.1388 72.1173 63.1458 72.1631 63.1458C72.195 63.1458 72.2269 63.1416 72.2588 63.1333C72.2914 63.1256 72.3219 63.1138 72.3504 63.0986C72.3788 63.0833 72.4059 63.0646 72.4295 63.041C72.4531 63.0174 72.4739 62.9917 72.4898 62.9633H72.494C72.4961 62.9799 72.4968 63.0028 72.4968 63.0334C72.4982 63.0646 72.5003 63.0937 72.5065 63.1215H72.7487C72.7459 63.0798 72.7438 63.0403 72.7417 63.0021C72.7396 62.9633 72.7376 62.9244 72.7369 62.8849C72.7348 62.8453 72.7341 62.8051 72.7327 62.7628C72.7327 62.7211 72.732 62.6739 72.732 62.6205V62.4852C72.732 62.3291 72.6966 62.2153 72.6251 62.1452C72.5551 62.0745 72.4378 62.0391 72.2768 62.0391C72.2179 62.0391 72.1547 62.0474 72.0888 62.0613C72.0229 62.0752 71.9632 62.0953 71.9084 62.1203L71.9174 62.3562ZM70.0947 63.1215H70.3618V62.9917H70.3653C70.4055 63.0486 70.4541 63.0875 70.5131 63.1111C70.5721 63.134 70.6311 63.1458 70.6893 63.1458C70.7705 63.1458 70.8392 63.1305 70.8961 63.0993C70.953 63.068 70.9995 63.0278 71.0335 62.9765C71.0689 62.9251 71.0938 62.8661 71.1098 62.7988C71.1251 62.7322 71.1334 62.6622 71.1334 62.5893C71.1334 62.5171 71.1251 62.4478 71.1098 62.3811C71.0938 62.3152 71.0689 62.2563 71.0335 62.2056C70.9995 62.155 70.953 62.1147 70.8961 62.0849C70.8392 62.0543 70.7705 62.0391 70.6893 62.0391C70.6172 62.0391 70.5561 62.0537 70.5062 62.0814C70.4562 62.1099 70.4118 62.1487 70.3743 62.1994H70.3695V61.5818H70.0947V63.1215ZM70.3722 62.5893C70.3722 62.5525 70.3757 62.5144 70.3854 62.4748C70.3944 62.4353 70.4083 62.3985 70.4284 62.3659C70.4479 62.3326 70.4735 62.3062 70.5048 62.2847C70.5367 62.2639 70.5742 62.2535 70.6186 62.2535C70.663 62.2535 70.6997 62.2639 70.7289 62.2861C70.7573 62.3069 70.7809 62.3347 70.7983 62.368C70.8163 62.4013 70.8281 62.4373 70.8357 62.4769C70.8427 62.5164 70.8461 62.5539 70.8461 62.5893C70.8461 62.6268 70.8427 62.6649 70.835 62.7045C70.8267 62.744 70.8149 62.7808 70.7976 62.8148C70.7802 62.8495 70.7573 62.8779 70.7275 62.8994C70.697 62.9216 70.6588 62.9321 70.6137 62.9321C70.5686 62.9321 70.5304 62.9216 70.4992 62.8994C70.468 62.8779 70.4423 62.8502 70.4236 62.8162C70.4056 62.7829 70.3924 62.7454 70.384 62.7052C70.3757 62.6649 70.3722 62.6268 70.3722 62.5893ZM67.753 63.1215H68.0278V62.608C68.0278 62.5733 68.0298 62.5359 68.034 62.4949C68.0382 62.4547 68.0472 62.4158 68.0618 62.3791C68.0763 62.343 68.0964 62.3125 68.1242 62.2889C68.1519 62.2646 68.1873 62.2535 68.2324 62.2535C68.2727 62.2535 68.3032 62.2611 68.324 62.2764C68.3455 62.2923 68.3615 62.3118 68.3712 62.3347C68.3816 62.3589 68.3879 62.3839 68.3885 62.4124C68.3906 62.4401 68.3913 62.4665 68.3913 62.4908V63.1215H68.6661V62.608C68.6661 62.5733 68.6675 62.5359 68.6723 62.4949C68.6765 62.4547 68.6855 62.4158 68.7001 62.3791C68.7147 62.343 68.7355 62.3125 68.7618 62.2889C68.7903 62.2646 68.8264 62.2535 68.8715 62.2535C68.911 62.2535 68.9415 62.2611 68.9617 62.2764C68.9839 62.2923 68.9998 62.3118 69.0095 62.3347C69.0199 62.3589 69.0262 62.3839 69.0276 62.4124C69.0283 62.4401 69.029 62.4665 69.029 62.4908V63.1215H69.3044V62.4547C69.3044 62.3957 69.2996 62.3402 69.2892 62.2903C69.2794 62.2389 69.2607 62.1952 69.235 62.1584C69.2087 62.1216 69.174 62.0925 69.1324 62.071C69.0893 62.0502 69.0359 62.0391 68.97 62.0391C68.9055 62.0391 68.8423 62.055 68.7806 62.0856C68.7174 62.1161 68.6709 62.1633 68.639 62.2264C68.6092 62.1605 68.5683 62.1133 68.5162 62.0842C68.4642 62.0543 68.401 62.0391 68.3275 62.0391C68.2755 62.0391 68.2206 62.0516 68.1637 62.0759C68.1075 62.1015 68.0569 62.1459 68.0132 62.2118H68.0097V62.0641H67.753V63.1215ZM66.9509 62.8377C66.8982 62.8668 66.8434 62.8918 66.7858 62.9126C66.7289 62.9341 66.6664 62.9445 66.5991 62.9445C66.5131 62.9445 66.443 62.9216 66.3889 62.8759C66.3348 62.8301 66.3049 62.7635 66.2973 62.6774H67.0279C67.0279 62.5858 67.0203 62.5005 67.0043 62.4221C66.9884 62.343 66.962 62.2764 66.9232 62.2209C66.885 62.164 66.8336 62.1203 66.7698 62.0876C66.7053 62.0557 66.6241 62.0391 66.5256 62.0391C66.443 62.0391 66.3716 62.0543 66.3098 62.0842C66.2481 62.1133 66.1974 62.1536 66.1572 62.2042C66.1162 62.2542 66.0864 62.3138 66.0656 62.3811C66.0454 62.4491 66.035 62.5213 66.035 62.5976C66.035 62.7725 66.0836 62.9078 66.1794 63.0028C66.2758 63.0979 66.4111 63.1458 66.5873 63.1458C66.6602 63.1458 66.7275 63.1388 66.7858 63.1236C66.8447 63.1097 66.8996 63.0889 66.9509 63.0618V62.8377ZM66.2973 62.4894C66.3049 62.4179 66.3278 62.3589 66.366 62.3118C66.4049 62.2639 66.4638 62.241 66.5415 62.241C66.5797 62.241 66.613 62.2472 66.6401 62.2611C66.6671 62.275 66.69 62.293 66.7081 62.3152C66.7261 62.3381 66.7386 62.3645 66.7476 62.3943C66.7573 62.4242 66.7629 62.4568 66.7657 62.4894H66.2973ZM64.4545 63.1215H64.7292V62.608H64.7341L65.0859 63.1215H65.4356L64.9922 62.5359L65.3863 62.0641H65.0616L64.7341 62.4866H64.7292V61.5818H64.4545V63.1215Z" fill="#1C1C1A"/>
<path d="M95.1917 62.8155C95.1917 62.7746 95.2021 62.7419 95.2222 62.7177C95.243 62.6934 95.268 62.676 95.2985 62.6635C95.3291 62.651 95.361 62.6427 95.397 62.6393C95.4324 62.6344 95.4664 62.6323 95.4977 62.6323H95.6163C95.6163 62.6739 95.6128 62.7128 95.6052 62.7496C95.5976 62.7863 95.5823 62.8203 95.5587 62.8502C95.5372 62.8786 95.5101 62.9015 95.4782 62.9189C95.4463 62.9362 95.4081 62.9452 95.3665 62.9452C95.3173 62.9452 95.2756 62.9341 95.2423 62.914C95.2083 62.8932 95.1917 62.8606 95.1917 62.8155ZM95.0522 62.3562C95.0987 62.3201 95.15 62.2923 95.2056 62.2715C95.2624 62.2507 95.3193 62.241 95.379 62.241C95.4602 62.241 95.5206 62.2576 95.5587 62.2903C95.5976 62.3229 95.6163 62.3818 95.6163 62.4686H95.4644C95.4075 62.4686 95.3464 62.472 95.2826 62.4797C95.2194 62.4873 95.1618 62.504 95.1098 62.5303C95.0578 62.556 95.0147 62.5928 94.98 62.6406C94.9467 62.6885 94.9287 62.7523 94.9287 62.8314C94.9287 62.8821 94.9398 62.9272 94.9606 62.9661C94.9821 63.0049 95.0099 63.0382 95.0439 63.0646C95.0779 63.0916 95.1167 63.1111 95.1618 63.1249C95.2062 63.1388 95.252 63.1458 95.2985 63.1458C95.3297 63.1458 95.3617 63.1416 95.3936 63.1333C95.4269 63.1249 95.4567 63.1138 95.4859 63.0986C95.5143 63.0833 95.54 63.0639 95.565 63.041C95.5879 63.0174 95.608 62.9917 95.6246 62.9633H95.6281C95.6302 62.9799 95.6316 63.0028 95.6323 63.034C95.6329 63.0646 95.6357 63.0937 95.6406 63.1215H95.8827C95.8814 63.0798 95.8779 63.041 95.8758 63.0021C95.8744 62.9633 95.873 62.9244 95.8709 62.8849C95.8702 62.8453 95.8689 62.8051 95.8682 62.7628C95.8675 62.7211 95.8675 62.6739 95.8675 62.6205V62.4852C95.8675 62.3291 95.8314 62.216 95.7599 62.1452C95.6885 62.0745 95.5726 62.0398 95.4109 62.0398C95.352 62.0398 95.2902 62.046 95.2236 62.0613C95.1563 62.0752 95.0973 62.0953 95.0439 62.1203L95.0522 62.3562ZM93.2288 63.1215H93.5049V62.6039C93.5049 62.5699 93.5077 62.5317 93.5147 62.4922C93.5216 62.4519 93.5334 62.4138 93.5514 62.3784C93.5695 62.3423 93.5945 62.3125 93.6257 62.2889C93.6569 62.2653 93.6971 62.2528 93.7464 62.2528C93.7901 62.2528 93.8241 62.2625 93.8484 62.2819C93.8727 62.3027 93.89 62.327 93.9011 62.3569C93.9129 62.386 93.9192 62.4186 93.9219 62.4547C93.924 62.4894 93.9247 62.5241 93.9247 62.5567V63.1215H94.2002V62.4547C94.2002 62.3957 94.1932 62.3402 94.1794 62.2903C94.1655 62.2389 94.144 62.1952 94.1148 62.1591C94.085 62.1216 94.0482 62.0925 94.0038 62.0717C93.958 62.0502 93.9046 62.0398 93.8415 62.0398C93.7686 62.0398 93.7041 62.0543 93.6472 62.0849C93.5903 62.1147 93.5445 62.1556 93.5091 62.2077H93.5049V61.5818H93.2288V63.1215ZM91.7703 62.8155C91.7703 62.7746 91.7801 62.7419 91.8009 62.7177C91.8217 62.6934 91.8466 62.676 91.8772 62.6635C91.907 62.651 91.9396 62.6427 91.9757 62.6393C92.0104 62.6344 92.0444 62.6323 92.0763 62.6323H92.195C92.195 62.6739 92.1915 62.7128 92.1839 62.7496C92.1755 62.7863 92.1603 62.8203 92.1374 62.8502C92.1159 62.8786 92.0881 62.9015 92.0562 62.9189C92.0243 62.9362 91.9868 62.9452 91.9445 62.9452C91.8952 62.9452 91.8536 62.9341 91.821 62.914C91.7863 62.8932 91.7703 62.8606 91.7703 62.8155ZM91.6309 62.3562C91.6767 62.3201 91.728 62.2923 91.7842 62.2715C91.8404 62.2507 91.898 62.241 91.957 62.241C92.0388 62.241 92.0992 62.2576 92.1374 62.2903C92.1755 62.3229 92.195 62.3818 92.195 62.4686H92.043C91.9854 62.4686 91.9251 62.472 91.8612 62.4797C91.7974 62.4873 91.7398 62.504 91.6878 62.5303C91.6357 62.556 91.5927 62.5928 91.558 62.6406C91.524 62.6885 91.5074 62.7523 91.5074 62.8314C91.5074 62.8821 91.5178 62.9272 91.5386 62.9661C91.5601 63.0049 91.5879 63.0382 91.6226 63.0646C91.6565 63.0916 91.6954 63.1111 91.7405 63.1249C91.7849 63.1388 91.83 63.1458 91.8772 63.1458C91.9084 63.1458 91.9403 63.1416 91.9715 63.1333C92.0042 63.1249 92.0347 63.1138 92.0631 63.0986C92.0923 63.0833 92.1186 63.0639 92.1422 63.041C92.1665 63.0174 92.1866 62.9917 92.2033 62.9633H92.2068C92.2088 62.9799 92.2095 63.0028 92.2102 63.034C92.2109 63.0646 92.2144 63.0937 92.2193 63.1215H92.4614C92.4593 63.0798 92.4566 63.041 92.4545 63.0021C92.4517 62.9633 92.4503 62.9244 92.4496 62.8849C92.4482 62.8453 92.4468 62.8051 92.4461 62.7628C92.4454 62.7211 92.4447 62.6739 92.4447 62.6205V62.4852C92.4447 62.3291 92.4094 62.216 92.3386 62.1452C92.2664 62.0745 92.1513 62.0398 91.9896 62.0398C91.9306 62.0398 91.8689 62.046 91.8023 62.0613C91.735 62.0752 91.676 62.0953 91.6226 62.1203L91.6309 62.3562ZM90.7969 62.0786C90.7532 62.0689 90.7088 62.0599 90.6637 62.0516C90.6179 62.0432 90.563 62.0398 90.4971 62.0398C90.4444 62.0398 90.3917 62.046 90.3431 62.0592C90.2924 62.0724 90.2487 62.0918 90.2099 62.1182C90.1717 62.1452 90.1405 62.1792 90.1183 62.2209C90.094 62.2611 90.0822 62.3104 90.0822 62.368C90.0822 62.4325 90.0947 62.4824 90.119 62.5199C90.1419 62.5567 90.1724 62.5858 90.2064 62.6087C90.2418 62.6295 90.2793 62.6462 90.3223 62.6573C90.3632 62.6684 90.4021 62.6802 90.4361 62.6927C90.4722 62.7045 90.5013 62.7197 90.5249 62.7371C90.5485 62.7551 90.561 62.7808 90.561 62.8155C90.561 62.8412 90.554 62.8627 90.5429 62.8786C90.5304 62.8953 90.5145 62.9078 90.4958 62.9182C90.4777 62.9272 90.4583 62.9341 90.4382 62.9383C90.4166 62.9425 90.3972 62.9452 90.3799 62.9452C90.332 62.9452 90.2862 62.9383 90.2418 62.9265C90.1974 62.914 90.153 62.8967 90.1093 62.8752L90.0926 63.1007C90.1433 63.1145 90.1953 63.1249 90.248 63.1333C90.3008 63.1416 90.3535 63.1458 90.4049 63.1458C90.4611 63.1458 90.5152 63.1395 90.5686 63.1256C90.622 63.1131 90.6692 63.093 90.7108 63.0653C90.7511 63.0382 90.7844 63.0028 90.8107 62.9591C90.835 62.9154 90.8482 62.8627 90.8482 62.8009C90.8482 62.7378 90.8364 62.6871 90.8121 62.6483C90.7886 62.6094 90.7587 62.5775 90.724 62.5532C90.6893 62.5303 90.6512 62.5116 90.6095 62.4991C90.5672 62.4866 90.5291 62.4748 90.4944 62.463C90.459 62.4519 90.4298 62.438 90.4055 62.4221C90.382 62.4068 90.3702 62.3853 90.3702 62.3576C90.3702 62.3354 90.3757 62.3173 90.3854 62.3027C90.3958 62.2875 90.4083 62.275 90.4236 62.2653C90.4382 62.2556 90.4555 62.2493 90.4749 62.2458C90.4944 62.2424 90.5131 62.241 90.5318 62.241C90.5825 62.241 90.6255 62.2445 90.6616 62.2521C90.697 62.259 90.7365 62.2708 90.7788 62.2861L90.7969 62.0786ZM89.3544 62.0641H89.0782V62.581C89.0782 62.615 89.0754 62.6524 89.0685 62.6934C89.0616 62.7336 89.0491 62.7718 89.0317 62.8065C89.0137 62.8425 88.9894 62.8724 88.9575 62.8967C88.9263 62.9203 88.886 62.9321 88.8368 62.9321C88.7931 62.9321 88.7584 62.9216 88.7341 62.9022C88.7091 62.8835 88.6918 62.8578 88.6814 62.8287C88.6702 62.7988 88.6633 62.7669 88.6605 62.7315C88.6591 62.6948 88.6578 62.6615 88.6578 62.6288V62.0641H88.383V62.7315C88.383 62.7912 88.3899 62.8474 88.4031 62.8974C88.4177 62.948 88.4392 62.9917 88.4683 63.0292C88.4975 63.0653 88.535 63.0944 88.5801 63.1152C88.6252 63.1354 88.6793 63.1458 88.7417 63.1458C88.8146 63.1458 88.8805 63.1305 88.9381 63.1007C88.9964 63.0701 89.0463 63.0299 89.0893 62.9772H89.0935V63.1215H89.3544V62.0641Z" fill="#1C1C1A"/>
<path d="M27.9278 56.2885L24.2415 52.6014V56.2885H27.9278Z" fill="#F6A500"/>
<path d="M23.4165 51.687L19.7294 47.9999V51.687H23.4165Z" fill="#F6A500"/>
<path d="M23.3402 60.965L19.6531 57.2779V60.965H23.3402Z" fill="#F6A500"/>
<path d="M20.5884 56.2885L24.2415 59.9749L27.9278 56.2885H20.5884Z" fill="#B61818"/>
<path d="M16.0763 51.687L19.7294 55.3733L23.4165 51.687L16.0763 51.687Z" fill="#B61818"/>
<path d="M16 60.965L19.6531 64.6521L23.3402 60.965H16Z" fill="#B61818"/>
</g>
<rect x="1" y="1" width="110" height="110" rx="9" stroke="#CCCCCC" stroke-width="2"/>
<defs>
<clipPath id="clip0_517_507">
<rect x="2" y="2" width="108" height="108" rx="8" fill="white"/>
</clipPath>
</defs>
</svg>
