<svg width="112" height="112" viewBox="0 0 112 112" fill="none" xmlns="http://www.w3.org/2000/svg">
<g clip-path="url(#clip0_421_549)">
<rect x="2" y="2" width="108" height="108" rx="8" fill="white"/>
<g clip-path="url(#clip1_421_549)">
<path fill-rule="evenodd" clip-rule="evenodd" d="M25.4712 58.4572V45.2147C25.4712 45.2147 28.3683 44.6599 30.3943 45.334C32.4211 46.0081 34.9621 47.4183 34.9621 50.2571C34.9621 52.716 33.2392 54.1128 31.1939 55.045C29.1494 55.9762 27.9548 55.5574 27.2983 55.7164C26.6428 55.8764 26.1056 56.0752 25.8882 56.6698C25.6709 57.2644 25.4712 58.4572 25.4712 58.4572Z" fill="#DAB741"/>
<path fill-rule="evenodd" clip-rule="evenodd" d="M16.02 52.6567V65.8992C16.02 65.8992 18.9171 66.454 20.9431 65.7799C22.9699 65.1058 25.511 63.6956 25.511 60.8568C25.511 58.018 23.629 56.7731 22.0219 56.1122C19.9438 55.257 18.5036 55.5574 17.8472 55.3975C17.1907 55.2384 16.6544 55.0388 16.437 54.4441C16.2197 53.8495 16.02 52.6567 16.02 52.6567ZM37.406 52.6567V65.8992C37.406 65.8992 34.5098 66.454 32.483 65.7799C30.4561 65.1058 27.9151 63.6956 27.9151 60.8568C27.9151 58.018 29.7025 56.9631 31.747 56.0318C33.7915 55.1006 34.9224 55.5574 35.5789 55.3975C36.2353 55.2384 36.7716 55.0388 36.989 54.4441C37.2063 53.8495 37.406 52.6567 37.406 52.6567Z" fill="#2A82C5"/>
<path fill-rule="evenodd" clip-rule="evenodd" d="M43.9 64.8009C44.1288 64.8831 44.3479 64.9449 44.5591 64.9865C44.7694 65.028 44.9779 65.0483 45.1838 65.0483C45.8517 65.0483 46.3695 64.8628 46.7379 64.4917C47.1063 64.1197 47.291 63.5931 47.291 62.9102C47.291 62.2449 47.1125 61.72 46.7556 61.3348C46.3986 60.9505 45.9153 60.7579 45.3075 60.7579C45.0645 60.7579 44.8277 60.7967 44.5962 60.8745C44.3656 60.9522 44.1332 61.0715 43.9 61.2323V64.8009ZM42.6198 65.7834V56.4674H43.9V60.0846C44.1385 59.915 44.393 59.7904 44.666 59.71C44.939 59.6305 45.2421 59.5898 45.5769 59.5898C46.502 59.5898 47.2442 59.8911 47.8026 60.4937C48.3619 61.0963 48.641 61.8976 48.641 62.896C48.641 63.9545 48.3274 64.7726 47.6992 65.3496C47.0719 65.9274 46.1848 66.2155 45.0398 66.2155C44.6545 66.2155 44.264 66.1801 43.8673 66.1094C43.4706 66.0379 43.0553 65.9292 42.6198 65.7834ZM52.9951 64.7824V62.9243C52.1416 63.1894 51.5523 63.435 51.2289 63.6585C50.9056 63.8838 50.7439 64.1445 50.7439 64.4422C50.7439 64.7028 50.8278 64.9043 50.9948 65.0465C51.1627 65.1879 51.3977 65.2595 51.7007 65.2595C51.926 65.2595 52.146 65.2188 52.3616 65.1384C52.5772 65.058 52.7884 64.9388 52.9951 64.7824ZM53.0428 65.5546C52.7221 65.7799 52.4182 65.9416 52.1319 66.0396C51.8456 66.1386 51.5373 66.1881 51.2077 66.1881C50.6396 66.1881 50.1952 66.0511 49.8745 65.779C49.5537 65.506 49.3929 65.1314 49.3929 64.6543C49.3929 64.2054 49.567 63.8114 49.9151 63.4721C50.2632 63.1328 50.7872 62.8465 51.4878 62.6133L52.9951 62.1079C52.9995 62.0717 53.0031 62.0355 53.0048 61.9983C53.0075 61.9621 53.0084 61.9091 53.0084 61.8411C53.0084 61.462 52.9156 61.189 52.7301 61.022C52.5445 60.855 52.2379 60.772 51.8121 60.772C51.4586 60.772 51.0946 60.8462 50.7182 60.9946C50.3427 61.144 49.9664 61.3648 49.59 61.6582V60.408C49.9151 60.142 50.28 59.9415 50.6829 59.8072C51.0858 59.672 51.5143 59.604 51.9676 59.604C52.7831 59.604 53.3759 59.7833 53.747 60.1429C54.1181 60.5025 54.3036 61.0821 54.3036 61.8835V64.5694C54.3036 64.7947 54.3231 64.9538 54.3619 65.0483C54.4008 65.142 54.4662 65.1888 54.5581 65.1888C54.6358 65.1888 54.7171 65.1685 54.8019 65.1269C54.8868 65.0854 55.0255 64.9891 55.2181 64.8371V65.6102C54.9893 65.8073 54.7578 65.9531 54.5245 66.0467C54.2913 66.1404 54.0492 66.1881 53.7974 66.1881C53.5553 66.1881 53.3733 66.1377 53.2522 66.0361C53.1312 65.9354 53.0614 65.7746 53.0428 65.5546ZM55.9717 66.075V59.7312H57.2379V60.5025C57.5542 60.2012 57.8687 59.9812 58.1824 59.8416C58.496 59.702 58.8344 59.6322 59.1958 59.6322C59.8832 59.6322 60.4248 59.831 60.8215 60.2295C61.2182 60.6271 61.4161 61.174 61.4161 61.8693V66.075H60.15V62.1927C60.15 61.6794 60.0413 61.3004 59.824 61.0547C59.6057 60.81 59.2682 60.6872 58.8106 60.6872C58.4854 60.6872 58.2 60.7499 57.9553 60.8763C57.7105 61.0026 57.4711 61.2093 57.2379 61.4983V66.075H55.9717ZM68.6311 59.7312L65.9734 62.6283L69.1656 66.075H67.4347L64.3388 62.6972L67.0716 59.7312H68.6311ZM63.0312 66.075V56.4674H64.2973V66.075H63.0312ZM72.9012 64.7824V62.9243C72.0468 63.1894 71.4584 63.435 71.135 63.6585C70.8116 63.8838 70.6499 64.1445 70.6499 64.4422C70.6499 64.7028 70.7339 64.9043 70.9009 65.0465C71.0687 65.1879 71.3038 65.2595 71.6068 65.2595C71.8312 65.2595 72.0521 65.2188 72.2677 65.1384C72.4833 65.058 72.6944 64.9388 72.9012 64.7824ZM72.9489 65.5546C72.6282 65.7799 72.3242 65.9416 72.038 66.0396C71.7517 66.1386 71.4434 66.1881 71.1138 66.1881C70.5457 66.1881 70.1013 66.0511 69.7805 65.779C69.4598 65.506 69.299 65.1314 69.299 64.6543C69.299 64.2054 69.4731 63.8114 69.8212 63.4721C70.1684 63.1328 70.6932 62.8465 71.393 62.6133L72.9012 62.1079C72.9056 62.0717 72.9091 62.0355 72.9109 61.9983C72.9136 61.9621 72.9144 61.9091 72.9144 61.8411C72.9144 61.462 72.8217 61.189 72.6361 61.022C72.4506 60.855 72.144 60.772 71.7181 60.772C71.3647 60.772 70.9998 60.8462 70.6243 60.9946C70.2479 61.144 69.8724 61.3648 69.496 61.6582V60.408C69.8212 60.142 70.1852 59.9415 70.589 59.8072C70.9919 59.672 71.4195 59.604 71.8736 59.604C72.6883 59.604 73.282 59.7833 73.6531 60.1429C74.0242 60.5025 74.2088 61.0821 74.2088 61.8835V64.5694C74.2088 64.7947 74.2291 64.9538 74.268 65.0483C74.3069 65.142 74.3723 65.1888 74.4633 65.1888C74.5419 65.1888 74.6232 65.1685 74.708 65.1269C74.7928 65.0854 74.9307 64.9891 75.1233 64.8371V65.6102C74.8953 65.8073 74.6638 65.9531 74.4306 66.0467C74.1973 66.1404 73.9552 66.1881 73.7034 66.1881C73.4613 66.1881 73.2793 66.1377 73.1583 66.0361C73.0364 65.9354 72.9675 65.7746 72.9489 65.5546ZM75.9193 66.075V56.4674H77.1855V66.075H75.9193ZM82.3639 65.8788C82.1668 65.9884 81.9557 66.0697 81.7295 66.1227C81.5033 66.1757 81.2594 66.2022 80.9988 66.2022C80.2858 66.2022 79.7839 66.0326 79.4941 65.6933C79.2034 65.354 79.0585 64.7355 79.0585 63.837V60.8277H77.9753V60.7048L80.1948 58.2539H80.3388V59.7312H82.3223V60.8277H80.3388V63.7416C80.3388 64.2681 80.4042 64.6083 80.5341 64.762C80.6648 64.9149 80.9087 64.9918 81.2656 64.9918C81.4574 64.9918 81.6447 64.967 81.8284 64.9167C82.0113 64.8663 82.1898 64.7877 82.3639 64.6825V65.8788ZM83.3446 57.8599C83.3446 57.6575 83.4135 57.487 83.5513 57.3492C83.6892 57.2113 83.8597 57.1424 84.062 57.1424C84.2643 57.1424 84.4349 57.2113 84.5727 57.3492C84.7105 57.487 84.7794 57.6575 84.7794 57.8599C84.7794 58.0622 84.7105 58.2327 84.5727 58.3705C84.4349 58.5084 84.2643 58.5773 84.062 58.5773C83.8597 58.5773 83.6892 58.5084 83.5513 58.3705C83.4135 58.2327 83.3446 58.0622 83.3446 57.8599ZM83.4294 66.075V59.7312H84.6955V66.075H83.4294ZM86.3707 66.075V59.7312H87.6377V60.5025C87.9531 60.2012 88.2685 59.9812 88.5822 59.8416C88.8958 59.702 89.2334 59.6322 89.5956 59.6322C90.063 59.6322 90.4526 59.7179 90.7672 59.8893C91.0808 60.0607 91.345 60.3311 91.5606 60.7013C91.9493 60.3179 92.3142 60.0431 92.6553 59.8787C92.9954 59.7144 93.3586 59.6322 93.7429 59.6322C94.4338 59.6322 94.979 59.831 95.3792 60.2295C95.7795 60.6271 95.98 61.174 95.98 61.8693V66.075H94.6998V62.1927C94.6998 61.675 94.5929 61.2942 94.38 61.0512C94.167 60.8091 93.8339 60.6872 93.3807 60.6872C93.0467 60.6872 92.756 60.7499 92.5086 60.8763C92.2612 61.0026 92.0209 61.2093 91.7877 61.4983V66.075H90.5498V62.1927C90.5498 61.6794 90.4412 61.3004 90.2229 61.0547C90.0056 60.81 89.6681 60.6872 89.2104 60.6872C88.8852 60.6872 88.5999 60.7499 88.3551 60.8763C88.1104 61.0026 87.8709 61.2093 87.6377 61.4983V66.075H86.3707Z" fill="#2A82C5"/>
</g>
</g>
<rect x="1" y="1" width="110" height="110" rx="9" stroke="#CCCCCC" stroke-width="2"/>
<defs>
<clipPath id="clip0_421_549">
<rect x="2" y="2" width="108" height="108" rx="8" fill="white"/>
</clipPath>
<clipPath id="clip1_421_549">
<rect width="80" height="21.2155" fill="white" transform="translate(16 45)"/>
</clipPath>
</defs>
</svg>
