<svg width="112" height="112" viewBox="0 0 112 112" fill="none" xmlns="http://www.w3.org/2000/svg">
<g clip-path="url(#clip0_421_557)">
<rect x="2" y="2" width="108" height="108" rx="8" fill="white"/>
<g clip-path="url(#clip1_421_557)">
<path fill-rule="evenodd" clip-rule="evenodd" d="M17.0112 50.6486C22.3805 47.723 26.9708 46.2779 30.6713 46.1178C38.3036 45.7885 40.7538 48.7719 36.9055 53.2194C35.4184 54.9384 33.049 56.688 28.5586 57.9235C39.9186 51.5449 35.9317 48.4071 30.909 47.8195C27.9314 47.4704 22.128 48.2627 17.0112 50.6486Z" fill="#115588"/>
<path fill-rule="evenodd" clip-rule="evenodd" d="M16.1455 52.4766C19.1347 50.519 22.2155 49.409 24.7821 48.9757C29.9443 48.1059 36.3468 49.5254 31.4875 53.0147C30.2059 53.9349 28.1344 55.0515 24.967 56.2869C26.7776 55.4129 28.0931 54.5472 29.0397 53.8226C32.5629 51.1272 30.4287 49.3735 24.9661 49.938C22.6108 50.1815 19.5795 50.9696 16.1455 52.4766Z" fill="#FECC1A"/>
<path fill-rule="evenodd" clip-rule="evenodd" d="M27.3884 55.5012C27.5353 56.1433 27.371 56.9471 26.8949 57.9136C28.7031 56.754 29.3517 55.7208 28.8409 54.813L28.8301 54.8179C28.387 55.0399 27.9075 55.2685 27.3884 55.5012ZM25.3309 50.5116C22.4251 50.4926 18.5521 51.6629 15.515 53.0543C18.1625 52.1877 20.4799 51.7247 22.3508 51.6208C25.595 51.44 28.0222 51.6711 27.3265 53.5082C27.2217 53.7855 26.9939 54.0892 26.6786 54.435C26.8552 54.5679 27.0013 54.7181 27.1169 54.8839L27.2184 54.8212C27.6038 54.5827 27.9545 54.35 28.2731 54.1263C28.1839 53.9051 28.2789 53.6609 28.5702 53.4083C29.8634 52.2843 29.5556 51.4276 27.7688 50.8623C27.1474 50.6651 26.3328 50.5182 25.3309 50.5116Z" fill="#115588"/>
<path fill-rule="evenodd" clip-rule="evenodd" d="M41.0559 51.4599C41.7764 51.28 43.9147 51.2214 44.5749 51.6522C46.0052 52.5856 45.2244 53.9861 43.9568 54.3311C45.283 54.8105 45.3598 56.2177 44.3307 57.0413C43.9164 57.3731 43.46 57.5546 42.6603 57.6256C41.7162 57.7106 40.7679 57.7164 39.8114 57.5802L41.0559 51.4599ZM42.2782 52.3842L41.9712 53.8953H42.5546C42.8592 53.8953 43.219 53.8326 43.4055 53.7286C43.7719 53.5239 43.8479 53.2153 43.8528 53.0915C43.871 52.6359 43.5673 52.3842 42.9978 52.3842H42.2782ZM41.7756 54.8559L41.4199 56.608H42.298C42.6281 56.608 43.0713 56.4347 43.238 56.2829C43.4055 56.1318 43.4955 55.947 43.5062 55.7266C43.5194 55.4592 43.4352 55.2818 43.2982 55.1473C43.1678 55.0193 42.9186 54.8559 42.6372 54.8559H41.7756Z" fill="#115588"/>
<path fill-rule="evenodd" clip-rule="evenodd" d="M51.1392 57.6866H49.6529L49.5101 56.0402H47.5303L46.6984 57.6866H45.1262L48.5833 51.3319H50.3841L51.1392 57.6866ZM47.9495 55.0061H49.435L49.1932 52.4254L47.9495 55.0061Z" fill="#115588"/>
<path fill-rule="evenodd" clip-rule="evenodd" d="M77.0804 57.6866H75.5941L75.4513 56.0402H73.4723L72.6404 57.6866H71.0674L74.5245 51.3319H76.3253L77.0804 57.6866ZM73.8907 55.0061H75.377L75.1344 52.4254L73.8907 55.0061Z" fill="#115588"/>
<path fill-rule="evenodd" clip-rule="evenodd" d="M95.4851 57.6866H93.9987L93.856 56.0402H91.8761L91.0442 57.6866H89.472L92.9292 51.3319H94.7299L95.4851 57.6866ZM92.2953 55.0061H93.7808L93.5382 52.4254L92.2953 55.0061Z" fill="#115588"/>
<path fill-rule="evenodd" clip-rule="evenodd" d="M58.5643 51.3319L57.2777 57.6866H55.8268L54.1391 52.9726C54.121 53.2796 53.9501 54.1197 53.7199 55.2619L53.2313 57.6866H51.9406L53.2197 51.3319H54.919L56.445 55.8941C56.4582 55.767 56.6447 54.4465 56.8708 53.3357L57.2785 51.3319H58.5643Z" fill="#115588"/>
<path fill-rule="evenodd" clip-rule="evenodd" d="M65.2144 51.3319L62.4348 54.0983L63.9913 57.6866H62.4159L61.2695 54.9326L60.5086 55.6118L60.0844 57.6866H58.7004L59.9986 51.3319H61.3826L60.7719 54.3244L60.9807 54.0677C61.0995 53.9183 61.2052 53.7929 61.2943 53.6897L63.4079 51.3319H65.2144Z" fill="#115588"/>
<path fill-rule="evenodd" clip-rule="evenodd" d="M90.1198 51.3427L89.4043 54.7552C89.0312 56.5337 88.2819 57.6866 86.2566 57.6866C85.0369 57.6866 83.9541 57.0899 83.9541 55.7769C83.9541 55.5912 83.9673 55.3808 84.0135 55.1489L84.7612 51.3427H86.2558L85.5089 54.917C85.4553 55.1753 85.4363 55.4039 85.4396 55.5986C85.4437 55.8239 85.5023 56.0847 85.6674 56.2572C86.1106 56.7194 87.0679 56.7598 87.5837 55.8256C87.7521 55.5211 87.9006 55.1167 88.0128 54.5901L88.7044 51.3427H90.1198Z" fill="#115588"/>
<path fill-rule="evenodd" clip-rule="evenodd" d="M68.3819 55.4666L67.9387 57.6866H66.52L67.7505 51.5209C68.7392 51.3476 70.4451 51.2543 71.1144 51.6562C71.6648 51.988 72.0956 52.3767 72.1014 53.0675C72.1064 53.7467 71.8027 54.4655 71.2126 54.8814C70.2462 55.5623 69.4853 55.4666 68.3819 55.4666ZM68.9835 52.4535L68.5989 54.3747C69.0181 54.4226 69.4019 54.4275 69.737 54.3351C70.9006 54.0165 70.9039 52.5632 69.9714 52.4584C69.6412 52.4213 69.2971 52.446 68.9835 52.4535Z" fill="#115588"/>
<path fill-rule="evenodd" clip-rule="evenodd" d="M79.7254 55.4666L79.283 57.6866H77.8635L79.0949 51.5209C80.0827 51.3476 81.7886 51.2543 82.4579 51.6562C83.0083 51.988 83.44 52.3767 83.4449 53.0675C83.4507 53.7467 83.1462 54.4655 82.5561 54.8814C81.5905 55.5623 80.8296 55.4666 79.7254 55.4666ZM80.3278 52.4535L79.9432 54.3747C80.3617 54.4226 80.7462 54.4275 81.0813 54.3351C82.245 54.0165 82.2483 52.5632 81.3149 52.4584C80.9847 52.4213 80.6406 52.446 80.3278 52.4535Z" fill="#115588"/>
<path fill-rule="evenodd" clip-rule="evenodd" d="M15.6743 64.9227L16.3742 61.5819H17.5172C17.7656 61.5819 17.9389 61.5902 18.0379 61.605C18.2022 61.6281 18.3416 61.6727 18.4555 61.7412C18.5702 61.8097 18.6569 61.9005 18.7163 62.0152C18.7757 62.1291 18.8046 62.2553 18.8046 62.3932C18.8046 62.5789 18.7535 62.739 18.6503 62.8751C18.5471 63.0113 18.3878 63.1145 18.1725 63.1838C18.3425 63.2317 18.4762 63.315 18.5727 63.4355C18.6684 63.556 18.7163 63.693 18.7163 63.8448C18.7163 64.0454 18.6594 64.236 18.5455 64.4159C18.4308 64.5958 18.274 64.7246 18.0734 64.8046C17.8729 64.883 17.5981 64.9227 17.2498 64.9227H15.6743ZM16.7777 62.9304H17.3034C17.5403 62.9304 17.7095 62.9139 17.8126 62.8809C17.9166 62.8471 17.9942 62.7926 18.0462 62.7167C18.0982 62.6407 18.1238 62.5599 18.1238 62.474C18.1238 62.389 18.0998 62.3189 18.0511 62.2644C18.0016 62.21 17.9323 62.1736 17.8423 62.1563C17.792 62.1464 17.6707 62.1423 17.4784 62.1423H16.9428L16.7777 62.9304ZM16.4732 64.3862H17.1367C17.4165 64.3862 17.603 64.3681 17.6979 64.3326C17.7936 64.2963 17.8687 64.2385 17.9265 64.156C17.9835 64.0743 18.0115 63.9868 18.0115 63.896C18.0115 63.7854 17.9703 63.6938 17.8886 63.622C17.8068 63.5494 17.6699 63.5139 17.4776 63.5139H16.6556L16.4732 64.3862ZM21.4001 63.915H19.7578C19.7562 63.9406 19.7553 63.9604 19.7553 63.9744C19.7553 64.137 19.8016 64.2682 19.894 64.3672C19.9864 64.4671 20.1003 64.5166 20.2332 64.5166C20.4527 64.5166 20.6235 64.4044 20.7465 64.1807L21.33 64.2789C21.2153 64.5133 21.0634 64.6891 20.872 64.8063C20.6805 64.9243 20.4667 64.9829 20.2291 64.9829C19.9031 64.9829 19.6382 64.8797 19.4343 64.6734C19.2296 64.4671 19.1273 64.1939 19.1273 63.8531C19.1273 63.5213 19.2197 63.2259 19.4038 62.9659C19.6538 62.6152 20.0128 62.4402 20.4775 62.4402C20.7737 62.4402 21.0098 62.5326 21.1847 62.7158C21.3589 62.8991 21.4464 63.1566 21.4464 63.4875C21.4464 63.6459 21.4307 63.7879 21.4001 63.915ZM20.8488 63.518C20.8505 63.4883 20.8513 63.4669 20.8513 63.4512C20.8513 63.2704 20.8109 63.1343 20.73 63.0435C20.65 62.9519 20.5418 62.9073 20.4057 62.9073C20.2703 62.9073 20.149 62.9585 20.0417 63.0616C19.9344 63.164 19.8626 63.3167 19.8247 63.518H20.8488ZM22.1082 62.5013H22.7222L22.6298 62.9568C22.8551 62.6127 23.0994 62.4402 23.3635 62.4402C23.4567 62.4402 23.5566 62.4641 23.6631 62.5112L23.4114 63.046C23.3519 63.0253 23.2884 63.0146 23.2215 63.0146C23.1085 63.0146 22.9946 63.0575 22.8782 63.1425C22.761 63.2284 22.6702 63.3414 22.6051 63.485C22.539 63.627 22.4747 63.8531 22.4103 64.1626L22.2543 64.9227H21.6015L22.1082 62.5013ZM23.3701 64.2492L24.0047 64.1477C24.0609 64.2822 24.131 64.3771 24.2135 64.4333C24.2969 64.4886 24.4099 64.5166 24.5535 64.5166C24.7021 64.5166 24.8209 64.4836 24.9101 64.4159C24.972 64.3697 25.0033 64.3128 25.0033 64.2476C25.0033 64.2022 24.9876 64.1626 24.9555 64.1279C24.9224 64.0941 24.8317 64.0528 24.6848 64.0041C24.2911 63.8737 24.0485 63.7697 23.9544 63.693C23.8067 63.575 23.734 63.4198 23.734 63.2275C23.734 63.0352 23.8058 62.8694 23.9478 62.7307C24.1459 62.5368 24.4405 62.4402 24.8308 62.4402C25.142 62.4402 25.3772 62.498 25.5356 62.6127C25.6949 62.7266 25.7956 62.8809 25.8377 63.0765L25.2361 63.1821C25.2047 63.0938 25.1527 63.027 25.0826 62.9824C24.9852 62.9222 24.8696 62.8933 24.7335 62.8933C24.5973 62.8933 24.4991 62.9156 24.4388 62.9618C24.3794 63.0072 24.3497 63.06 24.3497 63.1194C24.3497 63.1805 24.3802 63.2308 24.4405 63.2704C24.4784 63.2952 24.6006 63.3381 24.8053 63.3984C25.1238 63.4916 25.3359 63.5824 25.4432 63.6732C25.5951 63.7994 25.6702 63.9521 25.6702 64.1304C25.6702 64.3606 25.5736 64.5604 25.3805 64.7295C25.189 64.8987 24.9175 64.9829 24.5668 64.9829C24.2177 64.9829 23.9486 64.9185 23.758 64.7906C23.5673 64.6619 23.4386 64.482 23.3701 64.2492ZM26.9725 63.178L26.3337 63.1235C26.4063 62.9098 26.5342 62.7423 26.7158 62.6218C26.8982 62.5013 27.1383 62.4402 27.4379 62.4402C27.7499 62.4402 27.981 62.5038 28.1295 62.6284C28.2789 62.7546 28.3532 62.9081 28.3532 63.0889C28.3532 63.1623 28.3474 63.2399 28.3342 63.3216C28.321 63.4041 28.2756 63.6204 28.198 63.9703C28.1336 64.2591 28.1014 64.4622 28.1014 64.5777C28.1014 64.6817 28.1204 64.7956 28.1567 64.9227H27.5188C27.4932 64.8344 27.4784 64.7427 27.4718 64.6487C27.376 64.7551 27.2654 64.8377 27.1416 64.8963C27.017 64.954 26.8908 64.9829 26.7653 64.9829C26.5639 64.9829 26.3989 64.9169 26.2685 64.7848C26.1373 64.6528 26.0721 64.4836 26.0721 64.2756C26.0721 64.0437 26.1439 63.858 26.2875 63.7194C26.4311 63.5807 26.6877 63.4966 27.0575 63.4677C27.3694 63.4413 27.5774 63.4099 27.6822 63.3736C27.7094 63.282 27.7235 63.2085 27.7235 63.1541C27.7235 63.0839 27.6954 63.0253 27.6393 62.9775C27.5832 62.9304 27.499 62.9073 27.3876 62.9073C27.2712 62.9073 27.1788 62.9304 27.1111 62.9775C27.0434 63.0245 26.9964 63.0914 26.9725 63.178ZM27.5955 63.7887C27.5559 63.7994 27.5039 63.8102 27.4379 63.8193C27.1103 63.8589 26.8957 63.9175 26.795 63.9942C26.724 64.0503 26.6877 64.1246 26.6877 64.2179C26.6877 64.2954 26.715 64.3606 26.7703 64.4143C26.8247 64.4671 26.8974 64.4935 26.9865 64.4935C27.0855 64.4935 27.1788 64.4688 27.2654 64.4201C27.3537 64.3722 27.4189 64.3095 27.4618 64.2335C27.5056 64.1576 27.5435 64.038 27.5766 63.877L27.5955 63.7887ZM29.1322 62.5013H29.7512L29.6951 62.791C29.9352 62.5574 30.1878 62.4402 30.4519 62.4402C30.6351 62.4402 30.7754 62.479 30.8744 62.5541C30.9743 62.63 31.037 62.7348 31.0642 62.8685C31.1484 62.7472 31.2681 62.6457 31.4249 62.5632C31.5817 62.4815 31.7442 62.4402 31.9134 62.4402C32.1065 62.4402 32.2576 62.493 32.3657 62.5987C32.4738 62.7035 32.5274 62.8421 32.5274 63.0154C32.5266 63.0988 32.5043 63.2424 32.4589 63.4471L32.1429 64.9227H31.4892L31.8037 63.4471C31.8425 63.2614 31.8631 63.1557 31.8647 63.131C31.8647 63.0616 31.8449 63.0072 31.8037 62.9667C31.7632 62.9271 31.7013 62.9073 31.6205 62.9073C31.4562 62.9073 31.3093 62.9931 31.1798 63.1665C31.0857 63.2902 31.0056 63.5106 30.9396 63.825L30.7102 64.9227H30.0574L30.3635 63.4553C30.3982 63.2861 30.4155 63.1772 30.4155 63.126C30.4155 63.0625 30.3941 63.0097 30.3512 62.9684C30.3074 62.9271 30.248 62.9073 30.1713 62.9073C30.1003 62.9073 30.026 62.9288 29.9509 62.9717C29.8742 63.0146 29.8073 63.0724 29.7512 63.1483C29.6934 63.2226 29.6439 63.3191 29.6026 63.4363C29.5845 63.4916 29.5523 63.6162 29.5102 63.8102L29.2783 64.9227H28.6247L29.1322 62.5013ZM33.7158 63.178L33.0763 63.1235C33.1497 62.9098 33.2768 62.7423 33.4592 62.6218C33.6407 62.5013 33.8809 62.4402 34.1813 62.4402C34.4933 62.4402 34.7243 62.5038 34.8729 62.6284C35.0223 62.7546 35.0965 62.9081 35.0965 63.0889C35.0965 63.1623 35.0908 63.2399 35.0776 63.3216C35.0644 63.4041 35.019 63.6204 34.9414 63.9703C34.8762 64.2591 34.8448 64.4622 34.8448 64.5777C34.8448 64.6817 34.863 64.7956 34.9001 64.9227H34.2614C34.2366 64.8344 34.2209 64.7427 34.2151 64.6487C34.1194 64.7551 34.0088 64.8377 33.8842 64.8963C33.7596 64.954 33.6341 64.9829 33.5079 64.9829C33.3073 64.9829 33.1415 64.9169 33.0111 64.7848C32.8807 64.6528 32.8155 64.4836 32.8155 64.2756C32.8155 64.0437 32.8864 63.858 33.0309 63.7194C33.1745 63.5807 33.4311 63.4966 33.8 63.4677C34.112 63.4413 34.3208 63.4099 34.4256 63.3736C34.4528 63.282 34.4669 63.2085 34.4669 63.1541C34.4669 63.0839 34.4388 63.0253 34.3819 62.9775C34.3257 62.9304 34.2424 62.9073 34.131 62.9073C34.0146 62.9073 33.9213 62.9304 33.8537 62.9775C33.786 63.0245 33.7398 63.0914 33.7158 63.178ZM34.3381 63.7887C34.2985 63.7994 34.2465 63.8102 34.1813 63.8193C33.8537 63.8589 33.6383 63.9175 33.5384 63.9942C33.4666 64.0503 33.4311 64.1246 33.4311 64.2179C33.4311 64.2954 33.4584 64.3606 33.5137 64.4143C33.5681 64.4671 33.6399 64.4935 33.7299 64.4935C33.8281 64.4935 33.9213 64.4688 34.0088 64.4201C34.0963 64.3722 34.1623 64.3095 34.2044 64.2335C34.2482 64.1576 34.2861 64.038 34.32 63.877L34.3381 63.7887ZM37.3743 64.9227H36.6877L37.3875 61.5819H38.7427C38.9845 61.5819 39.1751 61.6108 39.3146 61.6677C39.4557 61.7247 39.5671 61.8188 39.6488 61.95C39.7305 62.0812 39.771 62.238 39.771 62.4204C39.771 62.5888 39.7388 62.753 39.6736 62.9123C39.6084 63.0724 39.5283 63.2003 39.4334 63.296C39.3385 63.3918 39.2362 63.4636 39.1264 63.5139C39.0183 63.5626 38.8706 63.5997 38.6849 63.6261C38.5776 63.641 38.3754 63.6484 38.08 63.6484H37.6409L37.3743 64.9227ZM37.7573 63.0889H37.9694C38.3317 63.0889 38.5735 63.0666 38.6948 63.0212C38.8161 62.9758 38.911 62.904 38.9812 62.8042C39.0505 62.7051 39.086 62.5954 39.086 62.4765C39.086 62.3965 39.0678 62.3313 39.0323 62.2793C38.996 62.2281 38.9465 62.191 38.8821 62.1679C38.8169 62.1439 38.6733 62.1324 38.4505 62.1324H37.9578L37.7573 63.0889ZM40.7184 63.178L40.0796 63.1235C40.1522 62.9098 40.2802 62.7423 40.4617 62.6218C40.6441 62.5013 40.8843 62.4402 41.1847 62.4402C41.4958 62.4402 41.7269 62.5038 41.8754 62.6284C42.0248 62.7546 42.0991 62.9081 42.0991 63.0889C42.0991 63.1623 42.0933 63.2399 42.0801 63.3216C42.0669 63.4041 42.0215 63.6204 41.9439 63.9703C41.8796 64.2591 41.8474 64.4622 41.8474 64.5777C41.8474 64.6817 41.8664 64.7956 41.9027 64.9227H41.2647C41.2391 64.8344 41.2235 64.7427 41.2177 64.6487C41.1219 64.7551 41.0114 64.8377 40.8876 64.8963C40.7629 64.954 40.6367 64.9829 40.5112 64.9829C40.3107 64.9829 40.1448 64.9169 40.0136 64.7848C39.8832 64.6528 39.818 64.4836 39.818 64.2756C39.818 64.0437 39.8898 63.858 40.0334 63.7194C40.177 63.5807 40.4337 63.4966 40.8034 63.4677C41.1153 63.4413 41.3233 63.4099 41.4281 63.3736C41.4554 63.282 41.4694 63.2085 41.4694 63.1541C41.4694 63.0839 41.4413 63.0253 41.3852 62.9775C41.3291 62.9304 41.2449 62.9073 41.1335 62.9073C41.0171 62.9073 40.9247 62.9304 40.857 62.9775C40.7894 63.0245 40.7423 63.0914 40.7184 63.178ZM41.3415 63.7887C41.3019 63.7994 41.2499 63.8102 41.1847 63.8193C40.8562 63.8589 40.6416 63.9175 40.5409 63.9942C40.47 64.0503 40.4337 64.1246 40.4337 64.2179C40.4337 64.2954 40.4609 64.3606 40.5162 64.4143C40.5707 64.4671 40.6433 64.4935 40.7324 64.4935C40.8314 64.4935 40.9247 64.4688 41.0114 64.4201C41.0997 64.3722 41.1649 64.3095 41.2078 64.2335C41.2507 64.1576 41.2895 64.038 41.3225 63.877L41.3415 63.7887ZM42.8699 62.5013H43.4897L43.441 62.748C43.573 62.6383 43.6977 62.559 43.8132 62.5112C43.9279 62.4641 44.0525 62.4402 44.1846 62.4402C44.4388 62.4402 44.6434 62.5285 44.7986 62.7035C44.9529 62.8793 45.0297 63.14 45.0297 63.4875C45.0297 63.9249 44.896 64.2946 44.6286 64.5967C44.4 64.8542 44.1285 64.9829 43.8157 64.9829C43.493 64.9829 43.2495 64.8542 43.0845 64.5958L42.827 65.8462H42.175L42.8699 62.5013ZM43.2619 63.8902C43.2619 64.0809 43.3081 64.2294 43.4014 64.3351C43.4946 64.4407 43.6036 64.4935 43.729 64.4935C43.838 64.4935 43.9428 64.4539 44.0443 64.3747C44.145 64.2954 44.2291 64.165 44.2952 63.9818C44.362 63.7986 44.3958 63.6286 44.3958 63.4726C44.3958 63.2902 44.3521 63.1508 44.2638 63.0534C44.1771 62.956 44.0657 62.9073 43.9312 62.9073C43.8058 62.9073 43.6911 62.9511 43.5879 63.041C43.4839 63.1301 43.4039 63.2614 43.3477 63.4347C43.2908 63.6088 43.2619 63.7598 43.2619 63.8902ZM45.7691 62.5013H46.4227L46.0992 63.9381C46.0596 64.1106 46.0398 64.2179 46.0398 64.2608C46.0398 64.3309 46.0637 64.3904 46.11 64.4415C46.157 64.4919 46.2164 64.5166 46.2899 64.5166C46.3419 64.5166 46.393 64.5051 46.4442 64.4828C46.4954 64.4597 46.5474 64.425 46.601 64.378C46.6546 64.3318 46.7025 64.2789 46.7454 64.2187C46.7883 64.1593 46.828 64.08 46.8651 63.9827C46.8907 63.91 46.9212 63.8011 46.9542 63.6567L47.215 62.5013H47.8686L47.3182 64.9227H46.7091L46.7735 64.6115C46.5276 64.8591 46.2602 64.9829 45.9705 64.9829C45.7873 64.9829 45.6429 64.926 45.5389 64.8112C45.4332 64.6974 45.3804 64.543 45.3804 64.3507C45.3804 64.2674 45.4085 64.1007 45.4646 63.8514L45.7691 62.5013ZM49.0125 63.178L48.3737 63.1235C48.4463 62.9098 48.5743 62.7423 48.7558 62.6218C48.9382 62.5013 49.1784 62.4402 49.4788 62.4402C49.7907 62.4402 50.021 62.5038 50.1695 62.6284C50.3189 62.7546 50.394 62.9081 50.394 63.0889C50.394 63.1623 50.3874 63.2399 50.3742 63.3216C50.361 63.4041 50.3156 63.6204 50.238 63.9703C50.1737 64.2591 50.1415 64.4622 50.1415 64.5777C50.1415 64.6817 50.1605 64.7956 50.1968 64.9227H49.5588C49.5341 64.8344 49.5184 64.7427 49.5118 64.6487C49.416 64.7551 49.3063 64.8377 49.1817 64.8963C49.0571 64.954 48.9308 64.9829 48.8053 64.9829C48.6048 64.9829 48.4389 64.9169 48.3085 64.7848C48.1773 64.6528 48.1121 64.4836 48.1121 64.2756C48.1121 64.0437 48.1839 63.858 48.3275 63.7194C48.4719 63.5807 48.7286 63.4966 49.0975 63.4677C49.4094 63.4413 49.6174 63.4099 49.7231 63.3736C49.7503 63.282 49.7643 63.2085 49.7643 63.1541C49.7643 63.0839 49.7363 63.0253 49.6793 62.9775C49.6232 62.9304 49.539 62.9073 49.4284 62.9073C49.3112 62.9073 49.2188 62.9304 49.1511 62.9775C49.0835 63.0245 49.0372 63.0914 49.0125 63.178ZM49.6356 63.7887C49.596 63.7994 49.544 63.8102 49.4788 63.8193C49.1503 63.8589 48.9357 63.9175 48.835 63.9942C48.7641 64.0503 48.7286 64.1246 48.7286 64.2179C48.7286 64.2954 48.755 64.3606 48.8103 64.4143C48.8648 64.4671 48.9374 64.4935 49.0265 64.4935C49.1255 64.4935 49.2188 64.4688 49.3063 64.4201C49.3938 64.3722 49.459 64.3095 49.5019 64.2335C49.5456 64.1576 49.5836 64.038 49.6166 63.877L49.6356 63.7887ZM53.9114 64.9227H53.2586L53.1348 62.1315L52.6049 64.9227H51.9852L52.6842 61.5819H53.6646L53.7669 63.8778L54.8175 61.5819H55.8054L55.1972 64.9227H54.5741L55.1551 62.1514L53.9114 64.9227ZM58.2235 63.915H56.5803C56.5787 63.9406 56.5779 63.9604 56.5779 63.9744C56.5779 64.137 56.6241 64.2682 56.7173 64.3672C56.8098 64.4671 56.9228 64.5166 57.0557 64.5166C57.2752 64.5166 57.4461 64.4044 57.569 64.1807L58.1525 64.2789C58.0378 64.5133 57.8859 64.6891 57.6945 64.8063C57.503 64.9243 57.2893 64.9829 57.0516 64.9829C56.7256 64.9829 56.4607 64.8797 56.2568 64.6734C56.0522 64.4671 55.9506 64.1939 55.9506 63.8531C55.9506 63.5213 56.0423 63.2259 56.2263 62.9659C56.4764 62.6152 56.8354 62.4402 57.3 62.4402C57.5963 62.4402 57.8323 62.5326 58.0073 62.7158C58.1822 62.8991 58.2689 63.1566 58.2689 63.4875C58.2689 63.6459 58.2532 63.7879 58.2235 63.915ZM57.6722 63.518C57.673 63.4883 57.6738 63.4669 57.6738 63.4512C57.6738 63.2704 57.6334 63.1343 57.5525 63.0435C57.4725 62.9519 57.3644 62.9073 57.2282 62.9073C57.0928 62.9073 56.9724 62.9585 56.8651 63.0616C56.757 63.164 56.6852 63.3167 56.6472 63.518H57.6722ZM58.9497 62.5013H59.5679L59.5126 62.791C59.7527 62.5574 60.0053 62.4402 60.2694 62.4402C60.4526 62.4402 60.5929 62.479 60.6919 62.5541C60.7918 62.63 60.8545 62.7348 60.8817 62.8685C60.9659 62.7472 61.0856 62.6457 61.2424 62.5632C61.3992 62.4815 61.5618 62.4402 61.7309 62.4402C61.9241 62.4402 62.0751 62.493 62.1832 62.5987C62.2913 62.7035 62.3449 62.8421 62.3449 63.0154C62.3441 63.0988 62.3218 63.2424 62.2764 63.4471L61.9604 64.9227H61.3067L61.6212 63.4471C61.66 63.2614 61.6806 63.1557 61.6822 63.131C61.6822 63.0616 61.6624 63.0072 61.6212 62.9667C61.5807 62.9271 61.5188 62.9073 61.438 62.9073C61.2737 62.9073 61.1268 62.9931 60.9973 63.1665C60.9032 63.2902 60.8231 63.5106 60.7571 63.825L60.5277 64.9227H59.8749L60.181 63.4553C60.2157 63.2861 60.233 63.1772 60.233 63.126C60.233 63.0625 60.2116 63.0097 60.1687 62.9684C60.1249 62.9271 60.0655 62.9073 59.9888 62.9073C59.9178 62.9073 59.8435 62.9288 59.7684 62.9717C59.6917 63.0146 59.6248 63.0724 59.5679 63.1483C59.5109 63.2226 59.4614 63.3191 59.4201 63.4363C59.402 63.4916 59.3698 63.6162 59.3269 63.8102L59.0958 64.9227H58.4422L58.9497 62.5013ZM62.5909 64.9227L63.2907 61.5819H63.9427L63.7042 62.6927C63.8247 62.6011 63.9377 62.5368 64.0417 62.498C64.1465 62.46 64.2613 62.4402 64.3842 62.4402C64.6401 62.4402 64.8456 62.526 65.0007 62.6977C65.1542 62.8685 65.231 63.1186 65.231 63.4471C65.231 63.6674 65.1946 63.882 65.1229 64.0908C65.0502 64.2979 64.9537 64.4679 64.8324 64.5983C64.711 64.7279 64.5839 64.8253 64.4502 64.888C64.3174 64.9515 64.1779 64.9829 64.0318 64.9829C63.6836 64.9829 63.4285 64.8319 63.2668 64.5315L63.1818 64.9227H62.5909ZM63.4682 63.9389C63.4682 64.1032 63.5135 64.2368 63.606 64.3392C63.6984 64.4423 63.8074 64.4935 63.9328 64.4935C64.0426 64.4935 64.1474 64.4539 64.2481 64.3738C64.3471 64.2946 64.4304 64.1667 64.4973 63.9917C64.5633 63.8176 64.5971 63.641 64.5971 63.4627C64.5971 63.2902 64.5526 63.1541 64.4626 63.0559C64.3735 62.9568 64.2654 62.9073 64.1391 62.9073C63.9741 62.9073 63.8313 62.9841 63.7124 63.1376C63.5499 63.3472 63.4682 63.6146 63.4682 63.9389ZM66.3831 63.178L65.7435 63.1235C65.8169 62.9098 65.944 62.7423 66.1264 62.6218C66.308 62.5013 66.5481 62.4402 66.8485 62.4402C67.1605 62.4402 67.3916 62.5038 67.5401 62.6284C67.6895 62.7546 67.7638 62.9081 67.7638 63.0889C67.7638 63.1623 67.758 63.2399 67.7448 63.3216C67.7316 63.4041 67.6862 63.6204 67.6086 63.9703C67.5442 64.2591 67.512 64.4622 67.512 64.5777C67.512 64.6817 67.5302 64.7956 67.5673 64.9227H66.9286C66.9038 64.8344 66.8881 64.7427 66.8824 64.6487C66.7866 64.7551 66.676 64.8377 66.5514 64.8963C66.4268 64.954 66.3014 64.9829 66.1751 64.9829C65.9745 64.9829 65.8087 64.9169 65.6783 64.7848C65.5479 64.6528 65.4827 64.4836 65.4827 64.2756C65.4827 64.0437 65.5545 63.858 65.6981 63.7194C65.8417 63.5807 66.0983 63.4966 66.4672 63.4677C66.7792 63.4413 66.988 63.4099 67.0928 63.3736C67.12 63.282 67.1341 63.2085 67.1341 63.1541C67.1341 63.0839 67.106 63.0253 67.0491 62.9775C66.9929 62.9304 66.9096 62.9073 66.7982 62.9073C66.6818 62.9073 66.5886 62.9304 66.5209 62.9775C66.454 63.0245 66.407 63.0914 66.3831 63.178ZM67.0053 63.7887C66.9657 63.7994 66.9137 63.8102 66.8485 63.8193C66.5209 63.8589 66.3055 63.9175 66.2056 63.9942C66.1338 64.0503 66.0983 64.1246 66.0983 64.2179C66.0983 64.2954 66.1256 64.3606 66.1809 64.4143C66.2353 64.4671 66.3071 64.4935 66.3971 64.4935C66.4953 64.4935 66.5886 64.4688 66.676 64.4201C66.7635 64.3722 66.8295 64.3095 66.8716 64.2335C66.9154 64.1576 66.9533 64.038 66.9872 63.877L67.0053 63.7887ZM68.5701 62.5013H69.1948L69.1313 62.819C69.2872 62.682 69.4333 62.5855 69.5687 62.5277C69.704 62.4691 69.846 62.4402 69.9962 62.4402C70.1959 62.4402 70.3543 62.498 70.4699 62.6135C70.5846 62.7299 70.6423 62.8826 70.6423 63.074C70.6415 63.159 70.6135 63.3191 70.5582 63.5543L70.2652 64.9227H69.6124L69.9095 63.551C69.9516 63.3455 69.9747 63.2234 69.9772 63.183C69.9772 63.0963 69.9516 63.0303 69.9021 62.9808C69.8517 62.9321 69.7824 62.9073 69.6941 62.9073C69.5967 62.9073 69.4894 62.9478 69.3714 63.0286C69.2526 63.1095 69.1601 63.2168 69.0925 63.3497C69.0421 63.4438 68.9852 63.6369 68.9216 63.929L68.7161 64.9227H68.0633L68.5701 62.5013ZM70.8701 65.0531L71.5617 65.1537C71.5617 65.2231 71.5733 65.2759 71.5956 65.3114C71.6178 65.3469 71.655 65.3774 71.7053 65.403C71.7557 65.4277 71.825 65.4401 71.9125 65.4401C72.0594 65.4401 72.1774 65.4129 72.2657 65.3576C72.3317 65.3155 72.3862 65.247 72.4283 65.1521C72.4538 65.0927 72.4877 64.9631 72.5281 64.7634L72.5512 64.6495C72.3135 64.8377 72.0668 64.9317 71.8126 64.9317C71.5757 64.9317 71.381 64.8476 71.2291 64.6809C71.0781 64.5133 71.0014 64.2682 71.0014 63.9447C71.0014 63.6608 71.0533 63.3992 71.1565 63.1623C71.2597 62.9246 71.4049 62.7456 71.5923 62.6234C71.7796 62.5013 71.9702 62.4402 72.165 62.4402C72.3251 62.4402 72.472 62.4831 72.6057 62.5689C72.7386 62.6548 72.8417 62.7744 72.9168 62.9296L73.0018 62.5013H73.6167L73.2313 64.5249C73.1611 64.8476 73.1017 65.0778 73.0538 65.2165C73.0051 65.3543 72.9507 65.464 72.8879 65.5449C72.8269 65.6275 72.7477 65.696 72.6536 65.7512C72.5587 65.8065 72.4473 65.8462 72.3177 65.8701C72.1889 65.8948 72.0495 65.9072 71.8993 65.9072C71.5576 65.9072 71.2993 65.8486 71.1251 65.7323C70.951 65.6142 70.8635 65.4203 70.8635 65.1488C70.8635 65.1199 70.8652 65.0885 70.8701 65.0531ZM71.6409 63.8787C71.6409 64.0644 71.6822 64.2047 71.7647 64.3012C71.8473 64.3986 71.9504 64.4465 72.075 64.4465C72.1914 64.4465 72.3045 64.4027 72.4134 64.3161C72.5232 64.2286 72.6074 64.1056 72.6659 63.9455C72.7237 63.7854 72.7534 63.6311 72.7534 63.4809C72.7534 63.3092 72.7056 63.1698 72.6107 63.0649C72.5149 62.9601 72.4043 62.9073 72.2789 62.9073C72.1617 62.9073 72.0544 62.9535 71.9562 63.046C71.8588 63.1392 71.7779 63.2828 71.7136 63.4768C71.6649 63.6261 71.6409 63.7598 71.6409 63.8787ZM74.2827 62.5013H74.9371L74.6136 63.9381C74.574 64.1106 74.5542 64.2179 74.5542 64.2608C74.5542 64.3309 74.5773 64.3904 74.6243 64.4415C74.6706 64.4919 74.7308 64.5166 74.8043 64.5166C74.8562 64.5166 74.9074 64.5051 74.9586 64.4828C75.0089 64.4597 75.0617 64.425 75.1154 64.378C75.1682 64.3318 75.2169 64.2789 75.2598 64.2187C75.3027 64.1593 75.3423 64.08 75.3795 63.9827C75.4051 63.91 75.4356 63.8011 75.4686 63.6567L75.7294 62.5013H76.3822L75.8326 64.9227H75.2227L75.2879 64.6115C75.0419 64.8591 74.7746 64.9829 74.4841 64.9829C74.3017 64.9829 74.1572 64.926 74.0524 64.8112C73.9476 64.6974 73.8948 64.543 73.8948 64.3507C73.8948 64.2674 73.9229 64.1007 73.979 63.8514L74.2827 62.5013ZM77.1192 62.5013H77.7439L77.6812 62.819C77.8364 62.682 77.9824 62.5855 78.1178 62.5277C78.2531 62.4691 78.3959 62.4402 78.5453 62.4402C78.745 62.4402 78.9034 62.498 79.019 62.6135C79.1345 62.7299 79.1915 62.8826 79.1915 63.074C79.1906 63.159 79.1634 63.3191 79.1081 63.5543L78.8143 64.9227H78.1615L78.4586 63.551C78.5015 63.3455 78.5238 63.2234 78.5263 63.183C78.5263 63.0963 78.5015 63.0303 78.4512 62.9808C78.4008 62.9321 78.3315 62.9073 78.2432 62.9073C78.1458 62.9073 78.0385 62.9478 77.9205 63.0286C77.8025 63.1095 77.7101 63.2168 77.6424 63.3497C77.5912 63.4438 77.5351 63.6369 77.4707 63.929L77.2653 64.9227H76.6125L77.1192 62.5013ZM83.4219 64.9227H82.7831L81.8802 62.6787L81.4107 64.9227H80.7727L81.4726 61.5819H82.1105L83.0158 63.8168L83.4829 61.5819H84.1217L83.4219 64.9227ZM86.4754 63.915H84.8323C84.8306 63.9406 84.8298 63.9604 84.8298 63.9744C84.8298 64.137 84.8768 64.2682 84.9693 64.3672C85.0617 64.4671 85.1748 64.5166 85.3085 64.5166C85.5272 64.5166 85.6988 64.4044 85.821 64.1807L86.4044 64.2789C86.2906 64.5133 86.1379 64.6891 85.9464 64.8063C85.755 64.9243 85.5412 64.9829 85.3035 64.9829C84.9775 64.9829 84.7126 64.8797 84.5088 64.6734C84.3041 64.4671 84.2026 64.1939 84.2026 63.8531C84.2026 63.5213 84.2942 63.2259 84.4782 62.9659C84.7291 62.6152 85.0873 62.4402 85.5519 62.4402C85.8482 62.4402 86.0842 62.5326 86.2592 62.7158C86.4342 62.8991 86.5208 63.1566 86.5208 63.4875C86.5208 63.6459 86.506 63.7879 86.4754 63.915ZM85.9241 63.518C85.9258 63.4883 85.9266 63.4669 85.9266 63.4512C85.9266 63.2704 85.8862 63.1343 85.8053 63.0435C85.7252 62.9519 85.6171 62.9073 85.481 62.9073C85.3456 62.9073 85.2243 62.9585 85.117 63.0616C85.0097 63.164 84.9371 63.3167 84.8991 63.518H85.9241ZM86.6801 65.0531L87.3709 65.1537C87.3709 65.2231 87.3824 65.2759 87.4055 65.3114C87.4278 65.3469 87.4641 65.3774 87.5153 65.403C87.5656 65.4277 87.6349 65.4401 87.7216 65.4401C87.8685 65.4401 87.9865 65.4129 88.0756 65.3576C88.1417 65.3155 88.1961 65.247 88.2382 65.1521C88.2638 65.0927 88.2968 64.9631 88.3373 64.7634L88.3612 64.6495C88.1227 64.8377 87.8768 64.9317 87.6226 64.9317C87.3849 64.9317 87.1909 64.8476 87.0391 64.6809C86.8872 64.5133 86.8113 64.2682 86.8113 63.9447C86.8113 63.6608 86.8625 63.3992 86.9656 63.1623C87.0696 62.9246 87.2149 62.7456 87.4022 62.6234C87.5887 62.5013 87.7802 62.4402 87.9741 62.4402C88.1342 62.4402 88.2811 62.4831 88.4157 62.5689C88.5485 62.6548 88.6517 62.7744 88.726 62.9296L88.811 62.5013H89.4258L89.0404 64.5249C88.9703 64.8476 88.9117 65.0778 88.863 65.2165C88.8151 65.3543 88.7598 65.464 88.6979 65.5449C88.636 65.6275 88.5576 65.696 88.4627 65.7512C88.3678 65.8065 88.2564 65.8462 88.1276 65.8701C87.9989 65.8948 87.8594 65.9072 87.7084 65.9072C87.3667 65.9072 87.1092 65.8486 86.9351 65.7323C86.761 65.6142 86.6727 65.4203 86.6727 65.1488C86.6727 65.1199 86.6751 65.0885 86.6801 65.0531ZM87.4501 63.8787C87.4501 64.0644 87.4913 64.2047 87.5739 64.3012C87.6564 64.3986 87.7596 64.4465 87.8842 64.4465C88.0005 64.4465 88.1136 64.4027 88.2234 64.3161C88.3331 64.2286 88.4165 64.1056 88.4751 63.9455C88.5337 63.7854 88.5634 63.6311 88.5634 63.4809C88.5634 63.3092 88.5147 63.1698 88.4198 63.0649C88.3241 62.9601 88.2135 62.9073 88.0889 62.9073C87.9717 62.9073 87.8644 62.9535 87.7662 63.046C87.668 63.1392 87.5871 63.2828 87.5235 63.4768C87.4748 63.6261 87.4501 63.7598 87.4501 63.8787ZM91.9198 63.915H90.2767C90.275 63.9406 90.2742 63.9604 90.2742 63.9744C90.2742 64.137 90.3212 64.2682 90.4137 64.3672C90.5061 64.4671 90.62 64.5166 90.7529 64.5166C90.9716 64.5166 91.1432 64.4044 91.2662 64.1807L91.8488 64.2789C91.735 64.5133 91.5823 64.6891 91.3908 64.8063C91.2002 64.9243 90.9856 64.9829 90.7479 64.9829C90.4219 64.9829 90.157 64.8797 89.9532 64.6734C89.7485 64.4671 89.647 64.1939 89.647 63.8531C89.647 63.5213 89.7386 63.2259 89.9226 62.9659C90.1735 62.6152 90.5317 62.4402 90.9972 62.4402C91.2926 62.4402 91.5286 62.5326 91.7036 62.7158C91.8786 62.8991 91.966 63.1566 91.966 63.4875C91.966 63.6459 91.9504 63.7879 91.9198 63.915ZM91.3685 63.518C91.3702 63.4883 91.371 63.4669 91.371 63.4512C91.371 63.2704 91.3306 63.1343 91.2497 63.0435C91.1696 62.9519 91.0615 62.9073 90.9254 62.9073C90.79 62.9073 90.6687 62.9585 90.5614 63.0616C90.4541 63.164 90.3815 63.3167 90.3435 63.518H91.3685ZM92.6271 62.5013H93.2419L93.1495 62.9568C93.3748 62.6127 93.6191 62.4402 93.8823 62.4402C93.9756 62.4402 94.0763 62.4641 94.1827 62.5112L93.9302 63.046C93.8716 63.0253 93.8081 63.0146 93.7404 63.0146C93.6282 63.0146 93.5134 63.0575 93.3971 63.1425C93.2807 63.2284 93.1899 63.3414 93.1239 63.485C93.0579 63.627 92.9935 63.8531 92.93 64.1626L92.774 64.9227H92.1204L92.6271 62.5013ZM94.673 61.5819H95.3258L95.202 62.1745H94.5484L94.673 61.5819ZM94.4807 62.5013H95.1335L94.6267 64.9227H93.9731L94.4807 62.5013Z" fill="#115588"/>
</g>
</g>
<rect x="1" y="1" width="110" height="110" rx="9" stroke="#CCCCCC" stroke-width="2"/>
<defs>
<clipPath id="clip0_421_557">
<rect x="2" y="2" width="108" height="108" rx="8" fill="white"/>
</clipPath>
<clipPath id="clip1_421_557">
<rect width="80" height="19.8142" fill="white" transform="translate(15.5 46.0929)"/>
</clipPath>
</defs>
</svg>
