<svg width="112" height="112" viewBox="0 0 112 112" fill="none" xmlns="http://www.w3.org/2000/svg">
<g clip-path="url(#clip0_745_102)">
<rect x="2" y="2" width="108" height="108" rx="8" fill="white"/>
<g clip-path="url(#clip1_745_102)">
<path d="M96 38H16V66.6542H96V38Z" fill="#134939"/>
<path d="M21.1929 51.6344V61.4613L25.2111 59.7519V49.925" fill="#C3D451"/>
<path d="M30.2744 43.5089V53.3358L34.2927 51.6345V41.7996" fill="#C3D451"/>
<path d="M25.7296 49.7063V59.5331L29.7559 53.5625V43.7275" fill="#C3D451"/>
<path d="M41.8106 48.9126C41.8106 50.0954 42.1995 51.189 44.0952 52.7364L44.8729 53.3764C46.3797 54.624 46.801 55.264 46.801 56.3657C46.801 57.4675 45.999 58.5207 44.4678 58.5207C43.8359 58.5207 42.3534 58.3668 42.0537 56.8761C42.0132 56.6412 42.0132 56.4144 42.0132 56.2604C42.0132 56.1713 42.0132 55.9445 41.762 55.9445C41.5271 55.9445 41.5109 56.2037 41.5028 56.3414L41.4866 56.544C41.4623 56.9004 41.4137 57.4756 41.4137 58.1642C41.4137 58.6341 41.4218 58.7799 41.7377 58.9338C42.402 59.2498 43.1797 59.4118 44.1033 59.4118C45.1483 59.4118 46.0719 59.1526 46.7686 58.6665C47.8866 57.8726 48.2835 56.625 48.2835 55.7095C48.2835 54.3647 47.8704 53.2549 45.7316 51.5698L45.2537 51.189C43.6091 49.8442 43.204 49.2933 43.204 48.4103C43.204 47.2923 44.0061 46.5389 45.1889 46.5389C46.6147 46.5389 47.0927 47.1303 47.2304 47.3814C47.3195 47.5516 47.4248 47.9971 47.441 48.1916C47.4491 48.3212 47.4734 48.5318 47.7083 48.5318C47.9514 48.5318 47.9514 48.1916 47.9514 48.0052C47.9514 47.0898 47.9919 46.5389 48.0081 46.3121V46.1744C48.0162 46.0123 47.919 45.9313 47.7246 45.9313C47.6111 45.9313 47.4815 45.9313 47.1575 45.8503C46.6552 45.7369 46.1448 45.6802 45.5291 45.6802C43.3256 45.6802 41.843 46.9683 41.843 48.8964" fill="white"/>
<path d="M62.7848 46.0446C62.7848 46.0446 58.24 56.5277 58.2157 56.5763C58.1914 56.5439 53.4603 46.0284 53.4603 46.0284C53.3955 45.8745 53.3063 45.6963 53.1119 45.6963C52.8851 45.6963 52.8284 45.9798 52.8041 46.1095L51.6537 57.3864C51.597 57.9859 51.5484 58.553 51.1352 58.6421C50.9084 58.6907 50.8354 58.6907 50.6815 58.6907C50.5276 58.6907 50.398 58.7798 50.398 58.8933C50.398 58.9986 50.4466 59.1687 50.7868 59.1687C51.0704 59.1687 51.5727 59.1444 51.7752 59.1363C51.9858 59.1282 52.0425 59.1282 52.0425 59.1282H52.4395C52.6339 59.1282 53.201 59.1606 53.6142 59.1687C53.7519 59.1687 54.0192 59.1687 54.0192 58.8933C54.0192 58.7717 53.9058 58.6826 53.76 58.6826C53.598 58.6826 53.4522 58.6745 53.1929 58.6097C53.0066 58.5692 52.8689 58.3991 52.8689 58.1965C52.8689 57.9049 52.8689 57.597 52.8851 57.3297C52.8851 57.3297 53.4684 49.7469 53.4846 49.7469C53.4441 49.7469 57.3489 58.3505 57.3489 58.3505C57.6729 59.0067 57.7377 59.1444 57.9241 59.1444C58.1347 59.1444 58.1914 59.0067 58.4506 58.4153C58.4587 58.4153 62.3068 49.5849 62.3068 49.5849L63.0441 58.0588C63.0441 58.1641 63.0441 58.2451 63.0603 58.3262C63.0603 58.4639 63.0603 58.6259 63.036 58.634C62.8982 58.6907 62.8739 58.7798 62.8739 58.8608C62.8739 59.0796 63.117 59.1282 63.4248 59.1525C64.0405 59.1849 65.758 59.1768 66.0982 59.1768C66.5195 59.1768 66.5519 58.9662 66.5519 58.9014C66.5519 58.8365 66.5276 58.6988 66.3008 58.6988C66.1468 58.6988 65.7499 58.6988 65.3043 58.553C64.6886 58.3343 64.5833 57.3945 64.5266 56.8355L63.4572 46.2877C63.441 46.0446 63.4086 45.7125 63.1413 45.7125C62.9387 45.7125 62.8415 45.9312 62.7929 46.0608" fill="white"/>
<path d="M71.0076 46.8142C71.0076 46.8142 71.0076 46.7737 71.1129 46.7494C71.3478 46.6927 71.6962 46.6684 71.9068 46.6684C73.519 46.6684 74.0942 48.1266 74.0942 49.4958C74.0942 50.1196 73.8835 50.719 73.5109 51.1484C73.1868 51.5211 72.9924 51.5535 72.0445 51.5535C71.4532 51.5535 71.1534 51.5049 71.0319 51.4887C71.0238 51.4887 70.9995 51.4644 70.9995 51.4239C70.9995 51.3833 70.9995 46.8223 70.9995 46.8223M70.8537 45.9717L70.2137 45.9879H69.9949C69.6223 45.9636 68.8607 45.9393 68.2775 45.9393C68.1802 45.9393 67.8805 45.9393 67.8805 46.1985C67.8805 46.3363 67.9858 46.4416 68.1397 46.4416C68.2937 46.4416 68.5691 46.4416 68.6906 46.4821C69.1686 46.5874 69.2982 46.7656 69.3306 47.3408C69.3711 47.8836 69.3711 48.3697 69.3711 51.0431V54.0649C69.3711 55.677 69.3711 57.0623 69.2901 57.7833C69.2091 58.2937 69.1362 58.5692 68.8932 58.6178C68.7068 58.6664 68.5286 58.6826 68.4071 58.6826C68.2207 58.6826 68.1397 58.796 68.1397 58.9094C68.1397 59.1768 68.4476 59.1768 68.5448 59.1768C68.9094 59.1768 69.444 59.1444 69.8248 59.1201H70.2218L70.878 59.1444C71.4531 59.1768 72.2471 59.2173 72.5063 59.2173C75.4633 59.2173 77.0106 57.273 77.0106 55.353C77.0106 53.2628 75.3337 52.0396 74.1428 51.6669C75.0177 51.0836 75.6577 50.0061 75.6577 48.6289C75.6577 47.6244 74.9043 45.9231 72.0931 45.9231C71.6314 45.9231 71.202 45.9393 70.8618 45.9555M71.5342 58.1722C71.0805 57.9454 71.0805 57.7914 71.0238 57.0056V56.9327C71.0076 56.6816 71.0076 54.5185 71.0076 53.2304V52.2583C71.7286 52.2583 72.158 52.2664 72.2957 52.2907H72.3038C72.7088 52.3393 73.1139 52.3879 73.6729 52.7687C75.123 53.7732 75.2769 55.4259 75.2769 56.0983C75.2769 58.3423 73.2192 58.4152 72.9843 58.4152C72.8304 58.4152 72.0121 58.399 71.5261 58.1722" fill="white"/>
<path d="M81.2233 47.681C79.9271 49.1635 79.5058 51.1402 79.5463 52.5012C79.603 54.6724 80.3078 56.3899 81.6446 57.6131C83.0056 58.8688 84.723 59.4116 87.04 59.3549C87.996 59.3306 89.2597 59.1848 89.9403 58.8688C90.2562 58.7068 90.3129 58.642 90.4101 58.2856C90.5559 57.678 90.7018 56.1711 90.6937 56.0496C90.6856 55.7013 90.5235 55.6688 90.4425 55.6688C90.2319 55.6688 90.2076 55.8957 90.1752 56.0415C90.1023 56.3737 89.9565 57.0785 89.6567 57.4349C89.0653 58.1316 88.1742 58.2937 87.0076 58.3261C85.436 58.3666 83.9858 57.7428 82.9003 56.5681C81.8795 55.4501 81.2638 53.9028 81.2233 52.3149C81.1828 50.8567 81.3043 49.1797 82.5033 47.8754C83.2567 47.0329 84.4152 46.6035 86.0435 46.563C87.4694 46.5225 88.6684 46.9843 89.1706 47.4218C89.5595 47.7539 89.7782 48.3453 89.8511 49.0663C89.8673 49.2688 89.8673 49.5443 90.1104 49.5443C90.3534 49.5443 90.3615 49.2526 90.3615 49.0582V48.4506C90.3615 48.078 90.3615 47.6162 90.3615 47.284C90.3696 46.9033 90.3939 46.6845 90.402 46.5387L90.4182 46.3119C90.4182 46.1256 90.3129 46.0283 90.0861 46.0121C89.6081 45.9959 89.1058 45.9068 88.5387 45.8096L88.4739 45.7934C87.518 45.6314 86.5215 45.6395 86.1327 45.6476C83.9696 45.7124 82.3737 46.3605 81.2314 47.6648" fill="white"/>
<path d="M48.7129 69.3925C48.7129 69.3925 48.7129 69.3763 48.7453 69.3682C48.8182 69.352 48.9316 69.3439 49.0045 69.3439C49.523 69.3439 49.7094 69.8138 49.7094 70.2594C49.7094 70.4619 49.6364 70.6563 49.523 70.794C49.4177 70.9156 49.3529 70.9237 49.0451 70.9237C48.8506 70.9237 48.7534 70.9075 48.721 70.8994C48.721 70.8994 48.7129 70.8994 48.7129 70.8751C48.7129 70.8589 48.7129 69.3844 48.7129 69.3844M48.6643 69.109H48.4537H48.3807C48.2592 69.109 48.0162 69.0928 47.8218 69.0928C47.7894 69.0928 47.6921 69.0928 47.6921 69.1738C47.6921 69.2224 47.7245 69.2548 47.7732 69.2548C47.8218 69.2548 47.9109 69.2548 47.9514 69.271C48.1053 69.3034 48.1458 69.3601 48.162 69.5464C48.1782 69.7247 48.1782 69.8786 48.1782 70.7454V71.7257C48.1782 72.2442 48.1782 72.6978 48.1539 72.9247C48.1296 73.0867 48.1053 73.1758 48.0243 73.192C47.9595 73.2082 47.9028 73.2163 47.8623 73.2163C47.8056 73.2163 47.7732 73.2568 47.7732 73.2892C47.7732 73.3783 47.8704 73.3783 47.9028 73.3783C48.0243 73.3783 48.1944 73.3702 48.3159 73.3621H48.4456L48.6562 73.3702C48.8425 73.3783 49.1018 73.3945 49.1828 73.3945C50.1387 73.3945 50.641 72.7626 50.641 72.147C50.641 71.4664 50.0982 71.0776 49.7175 70.9561C50.001 70.7697 50.2035 70.4214 50.2035 69.9758C50.2035 69.6518 49.9605 69.1009 49.0532 69.1009C48.9073 69.1009 48.7696 69.1009 48.6562 69.109M48.8749 73.0543C48.7291 72.9814 48.7291 72.9328 48.7129 72.6735V72.6492C48.7129 72.5682 48.7129 71.8715 48.7129 71.4502V71.1343C48.9478 71.1343 49.0856 71.1343 49.1342 71.1424C49.2638 71.1586 49.3934 71.1748 49.5797 71.2963C50.0496 71.6204 50.0982 72.1551 50.0982 72.3738C50.0982 73.1029 49.4339 73.1191 49.361 73.1191C49.3124 73.1191 49.045 73.1191 48.8911 73.0381" fill="#134939"/>
<path d="M79.5949 69.1171C79.441 69.1171 79.3114 69.1171 79.2223 69.1333C79.1818 69.1333 79.1413 69.1333 79.1251 69.1333C79.1089 69.1333 79.0603 69.1333 79.0035 69.1333C78.8901 69.1333 78.7119 69.1171 78.5418 69.1171C78.4932 69.1171 78.3879 69.1171 78.3879 69.1981C78.3879 69.2467 78.4203 69.2791 78.4689 69.2791C78.5013 69.2791 78.6309 69.2791 78.7281 69.3034C78.8658 69.3358 78.9063 69.4168 78.9144 69.7895L78.9711 72.5034C78.8739 72.3981 78.7281 72.2442 78.558 72.0579C78.3068 71.7824 77.999 71.4422 77.7073 71.1343C76.8486 70.2108 76.0223 69.3196 75.9413 69.2305C75.9251 69.2143 75.9089 69.1981 75.8927 69.1819C75.8197 69.0928 75.763 69.0442 75.7144 69.0442C75.6172 69.0442 75.6091 69.1738 75.6091 69.3601V72.5439C75.6091 73.0462 75.5767 73.1758 75.4633 73.2082C75.3985 73.2325 75.3013 73.2406 75.2527 73.2406C75.1959 73.2406 75.1635 73.2812 75.1635 73.3136C75.1635 73.4027 75.2527 73.4027 75.2932 73.4027C75.4633 73.4027 75.6334 73.3946 75.7306 73.3865C75.7792 73.3865 75.8035 73.3865 75.8197 73.3865C75.8359 73.3865 75.8603 73.3865 75.9008 73.3865C76.0061 73.3865 76.1843 73.4027 76.4111 73.4027C76.4516 73.4027 76.5489 73.4027 76.5489 73.3136C76.5489 73.2812 76.5246 73.2406 76.4678 73.2406C76.4516 73.2406 76.322 73.2406 76.2005 73.2082C76.0871 73.1758 76.0223 73.0705 76.0142 72.6006L75.9413 70.0487C76.1843 70.3242 76.7433 70.9399 77.3185 71.5637C77.918 72.2037 78.7119 73.0219 78.7686 73.0705C79.0765 73.3865 79.1413 73.4351 79.2061 73.4351C79.2952 73.4351 79.2952 73.3622 79.2952 72.9976V69.7409C79.3033 69.3925 79.3357 69.3196 79.4815 69.2872C79.5463 69.271 79.5787 69.271 79.603 69.271C79.676 69.271 79.7084 69.2305 79.7084 69.19C79.7084 69.109 79.6111 69.109 79.5706 69.109" fill="#134939"/>
<path d="M64.5752 69.1171C64.4213 69.1171 64.2916 69.1171 64.2025 69.1333C64.1539 69.1333 64.1215 69.1333 64.1053 69.1333C64.0891 69.1333 64.0405 69.1333 63.9838 69.1333C63.8704 69.1333 63.6921 69.1171 63.522 69.1171C63.4734 69.1171 63.3681 69.1171 63.3681 69.1981C63.3681 69.2467 63.4005 69.2791 63.4572 69.2791C63.4896 69.2791 63.6192 69.2791 63.7164 69.3034C63.8461 69.3358 63.8947 69.4168 63.9028 69.7895L63.9595 72.5034C63.8623 72.3981 63.7164 72.2442 63.5463 72.0579C63.2952 71.7824 62.9873 71.4422 62.6957 71.1343C61.8369 70.2108 61.0106 69.3196 60.9296 69.2305C60.9134 69.2143 60.8972 69.1981 60.881 69.1819C60.8 69.0928 60.7514 69.0442 60.7028 69.0442C60.6056 69.0442 60.5975 69.1738 60.5975 69.3601V72.5439C60.5975 73.0462 60.565 73.1758 60.4516 73.2082C60.3868 73.2325 60.2896 73.2406 60.241 73.2406C60.1843 73.2406 60.1519 73.2812 60.1519 73.3136C60.1519 73.4027 60.241 73.4027 60.2815 73.4027C60.4516 73.4027 60.6218 73.3946 60.719 73.3865C60.7676 73.3865 60.7919 73.3865 60.8081 73.3865C60.8243 73.3865 60.8486 73.3865 60.8891 73.3865C60.9944 73.3865 61.1726 73.4027 61.3995 73.4027C61.44 73.4027 61.5372 73.4027 61.5372 73.3136C61.5372 73.2812 61.5129 73.2406 61.4562 73.2406C61.44 73.2406 61.3104 73.2406 61.1888 73.2082C61.0754 73.1758 61.0106 73.0705 61.0025 72.6006L60.9296 70.0487C61.1726 70.3242 61.7316 70.9399 62.3068 71.5637C62.9063 72.2037 63.7002 73.0219 63.7569 73.0705C64.0648 73.3865 64.1296 73.4351 64.1944 73.4351C64.2835 73.4351 64.2835 73.3622 64.2835 72.9976V69.7409C64.2916 69.3925 64.324 69.3196 64.4699 69.2872C64.5347 69.271 64.5671 69.271 64.5914 69.271C64.6643 69.271 64.6967 69.2305 64.6967 69.19C64.6967 69.109 64.5995 69.109 64.559 69.109" fill="#134939"/>
<path d="M59.4714 73.2405C59.4228 73.2405 59.3094 73.2324 59.2284 73.2162C59.0987 73.2 59.0663 73.1109 59.0501 72.9489C59.0258 72.7139 59.0258 72.2684 59.0258 71.7499V70.7696C59.0258 69.9028 59.0258 69.7489 59.0339 69.5707C59.042 69.3762 59.0825 69.3114 59.2121 69.2871C59.277 69.279 59.3013 69.2709 59.3418 69.2709C59.3904 69.2709 59.4228 69.2385 59.4228 69.198C59.4228 69.1089 59.3256 69.1089 59.2932 69.1089C59.1716 69.1089 58.9691 69.117 58.8395 69.1251C58.7909 69.1251 58.7585 69.1251 58.7504 69.1251C58.7423 69.1251 58.7099 69.1251 58.6613 69.1251C58.5397 69.1251 58.321 69.1089 58.1914 69.1089C58.159 69.1089 58.0618 69.1089 58.0618 69.198C58.0618 69.2385 58.1023 69.2709 58.1428 69.2709C58.1752 69.2709 58.24 69.2709 58.3048 69.2952C58.3777 69.3114 58.4506 69.36 58.4587 69.5707C58.4668 69.7489 58.4668 69.9028 58.4668 70.7696V71.7499C58.4668 72.2684 58.4668 72.722 58.4425 72.9489C58.4182 73.119 58.3939 73.2081 58.3129 73.2243C58.2562 73.2405 58.1914 73.2486 58.159 73.2486C58.1023 73.2486 58.0699 73.2891 58.0699 73.3215C58.0699 73.4026 58.1671 73.4026 58.1995 73.4026C58.321 73.4026 58.5235 73.4026 58.6532 73.3864C58.7018 73.3864 58.7342 73.3864 58.7423 73.3864C58.7423 73.3864 58.7747 73.3864 58.8071 73.3864C58.9286 73.3864 59.1878 73.4026 59.4228 73.4026C59.5362 73.4026 59.5524 73.3458 59.5524 73.3215C59.5524 73.2891 59.5281 73.2486 59.4714 73.2486" fill="#134939"/>
<path d="M92.7433 73.2567C92.6866 73.2567 92.6137 73.2567 92.5327 73.2243C92.4111 73.1919 92.2653 73.0947 92.079 72.6329C91.8359 72.0334 91.3337 70.7048 91.0258 69.9109C90.9043 69.5868 90.8071 69.3519 90.7909 69.2871C90.7261 69.117 90.6937 69.0684 90.637 69.0684C90.5802 69.0684 90.5559 69.117 90.483 69.3033L89.2273 72.7463C89.122 73.038 89.0167 73.2162 88.7899 73.2486C88.7413 73.2486 88.6684 73.2648 88.6359 73.2648C88.5873 73.2648 88.5549 73.2891 88.5549 73.3296C88.5549 73.4106 88.6522 73.4106 88.6927 73.4106C88.8709 73.4106 89.0653 73.4025 89.1949 73.3944C89.2516 73.3944 89.3003 73.3944 89.3246 73.3944C89.3489 73.3944 89.4056 73.3944 89.4623 73.3944C89.5595 73.3944 89.6729 73.4025 89.7539 73.4025C89.8511 73.4025 89.8754 73.362 89.8754 73.3215C89.8754 73.3053 89.8673 73.2567 89.7863 73.2567H89.7296C89.6648 73.2567 89.5514 73.2243 89.5514 73.1271C89.5514 73.0299 89.5838 72.9003 89.6243 72.7625L89.9322 71.8309C89.9322 71.8309 89.9484 71.8066 89.9565 71.8066H91.1959C91.1959 71.8066 91.204 71.8066 91.2121 71.8147L91.7063 73.1352C91.7225 73.1838 91.7144 73.2081 91.7063 73.2243C91.7063 73.2405 91.6901 73.2405 91.6901 73.2405C91.6334 73.2567 91.6253 73.2972 91.6253 73.3134C91.6253 73.3782 91.6982 73.3782 91.7954 73.3863H91.8197C92.0709 73.3944 92.3787 73.4025 92.6947 73.4025C92.8162 73.4025 92.8405 73.362 92.8405 73.3215C92.8405 73.281 92.8081 73.2567 92.7514 73.2567M90.0294 71.5392L90.5397 70.0081C90.5397 70.0081 90.5397 69.9919 90.5478 69.9838C90.5478 69.9838 90.5478 70 90.5559 70.0081L91.0987 71.5392H90.0213H90.0294Z" fill="#134939"/>
<path d="M20.1722 69.3925C20.1722 69.3925 20.1722 69.3763 20.2046 69.3682C20.2775 69.352 20.3909 69.3439 20.4638 69.3439C20.9823 69.3439 21.1686 69.8138 21.1686 70.2594C21.1686 70.4619 21.1038 70.6563 20.9823 70.794C20.877 70.9156 20.8122 70.9237 20.5043 70.9237C20.3099 70.9237 20.2127 70.9075 20.1803 70.8994C20.1803 70.8994 20.1722 70.8994 20.1722 70.8751C20.1722 70.8589 20.1722 69.3844 20.1722 69.3844M20.1235 69.109H19.9129H19.84C19.7185 69.109 19.4754 69.0928 19.281 69.0928C19.2486 69.0928 19.1514 69.0928 19.1514 69.1738C19.1514 69.2224 19.1838 69.2548 19.2324 69.2548C19.281 69.2548 19.3701 69.2548 19.4106 69.271C19.5646 69.3034 19.6051 69.3601 19.6213 69.5464C19.6375 69.7247 19.6375 69.8786 19.6375 70.7454V71.7257C19.6375 72.2442 19.6375 72.6978 19.6132 72.9247C19.5889 73.0867 19.5646 73.1758 19.4835 73.192C19.4187 73.2082 19.362 73.2163 19.3215 73.2163C19.2648 73.2163 19.2324 73.2568 19.2324 73.2892C19.2324 73.3783 19.3296 73.3783 19.362 73.3783C19.4835 73.3783 19.6537 73.3702 19.7752 73.3621H19.9048L20.1154 73.3702C20.3018 73.3783 20.561 73.3945 20.642 73.3945C21.598 73.3945 22.1003 72.7626 22.1003 72.147C22.1003 71.4664 21.5575 71.0776 21.1767 70.9561C21.4603 70.7697 21.6628 70.4214 21.6628 69.9758C21.6628 69.6518 21.4198 69.1009 20.5124 69.1009C20.3666 69.1009 20.2289 69.1009 20.1154 69.109M20.3342 73.0543C20.1884 72.9814 20.1884 72.9328 20.1722 72.6735V72.6492C20.1722 72.5682 20.1722 71.8715 20.1722 71.4502V71.1343C20.4071 71.1343 20.5448 71.1343 20.5934 71.1424C20.723 71.1586 20.8527 71.1748 21.039 71.2963C21.5089 71.6204 21.5575 72.1551 21.5575 72.3738C21.5575 73.1029 20.8932 73.1191 20.8203 73.1191C20.7717 73.1191 20.5043 73.1191 20.3504 73.0381" fill="#134939"/>
<path d="M36.0344 73.2081C35.9939 73.2081 35.84 73.1919 35.7104 73.1352C35.4511 73.0299 35.362 72.9408 34.9083 72.5195H34.8921C34.6815 72.3089 33.6202 71.2152 33.3934 70.9722C33.5797 70.7696 34.4547 69.9109 34.5843 69.7813C34.6167 69.7489 34.6572 69.7165 34.6815 69.6841C34.8678 69.5058 34.9813 69.3924 35.1676 69.3114C35.2648 69.2628 35.3782 69.2385 35.4592 69.2385C35.524 69.2385 35.5564 69.2142 35.5564 69.1575C35.5564 69.0765 35.4673 69.0765 35.4349 69.0765C35.3377 69.0765 35.1271 69.0765 35.0056 69.0927C34.9489 69.0927 34.9083 69.0927 34.9002 69.0927C34.8354 69.0927 34.7544 69.0927 34.6734 69.0846C34.6005 69.0846 34.5357 69.0846 34.479 69.0846C34.3818 69.0846 34.3737 69.1494 34.3737 69.1656C34.3737 69.2142 34.4223 69.2385 34.4466 69.2466C34.4709 69.2547 34.4952 69.2709 34.4952 69.3276C34.4952 69.4005 34.3575 69.5382 34.2278 69.676L34.2035 69.7003C34.0982 69.8137 33.758 70.162 33.4582 70.4699C33.2395 70.6967 33.0451 70.8911 32.9559 70.9884V70.7372C32.9559 69.8704 32.9559 69.7165 32.964 69.5382C32.9721 69.3438 33.0127 69.279 33.1423 69.2547C33.2071 69.2466 33.2395 69.2385 33.2719 69.2385C33.3205 69.2385 33.361 69.2061 33.361 69.1656C33.361 69.0765 33.2638 69.0765 33.2314 69.0765C33.1261 69.0765 32.9559 69.0765 32.8263 69.0846C32.7615 69.0846 32.7129 69.0846 32.6886 69.0846C32.6805 69.0846 32.6481 69.0846 32.6076 69.0846C32.4861 69.0846 32.2592 69.0684 32.081 69.0684C32.0486 69.0684 31.9514 69.0684 31.9514 69.1575C31.9514 69.198 31.9919 69.2304 32.0324 69.2304C32.0729 69.2304 32.1701 69.2304 32.2106 69.2466C32.3645 69.279 32.4051 69.3357 32.4132 69.5301C32.4213 69.7084 32.4213 69.8623 32.4213 70.7291V71.7094C32.4213 72.2279 32.4213 72.6815 32.397 72.9084C32.3727 73.0785 32.3483 73.1676 32.2673 73.1838C32.2106 73.2 32.1458 73.2081 32.1134 73.2081C32.0567 73.2081 32.0243 73.2486 32.0243 73.281C32.0243 73.3701 32.1215 73.3701 32.1539 73.3701C32.2673 73.3701 32.4456 73.3701 32.5671 73.3539C32.6319 73.3539 32.6724 73.3539 32.6886 73.3539C32.7048 73.3539 32.7372 73.3539 32.7858 73.3539C32.9154 73.3539 33.1342 73.3701 33.3286 73.3701C33.442 73.3701 33.4582 73.3134 33.4582 73.281C33.4582 73.2405 33.4339 73.2081 33.3772 73.2081C33.3367 73.2081 33.2638 73.2081 33.1666 73.1838C33.037 73.1676 33.0045 73.0785 32.9883 72.9165C32.964 72.6896 32.964 72.236 32.964 71.7175V71.2557C33.2962 71.6527 34.3818 72.8111 34.6167 73.0137L34.6572 73.0461C34.8759 73.2243 35.0218 73.3377 35.3134 73.362C35.4349 73.3701 35.5402 73.3701 35.7023 73.3701H35.9858C36.0344 73.3701 36.1478 73.3701 36.1478 73.281C36.1478 73.2486 36.1154 73.2081 36.0344 73.2081Z" fill="#134939"/>
<path d="M31.1008 69.1171C30.9468 69.1171 30.8172 69.1171 30.7281 69.1333C30.6876 69.1333 30.6471 69.1333 30.6309 69.1333C30.6147 69.1333 30.5661 69.1333 30.5094 69.1333C30.396 69.1333 30.2177 69.1171 30.0476 69.1171C29.9909 69.1171 29.8937 69.1171 29.8937 69.1981C29.8937 69.2467 29.9261 69.2791 29.9747 69.2791C30.0071 69.2791 30.1367 69.2791 30.2339 69.3034C30.3635 69.3358 30.4122 69.4168 30.4203 69.7895L30.477 72.5034C30.3798 72.3981 30.2339 72.2442 30.0638 72.0579C29.8127 71.7824 29.5048 71.4422 29.2132 71.1343C28.3544 70.2108 27.5281 69.3196 27.4471 69.2305C27.4309 69.2143 27.4147 69.1981 27.3985 69.1819C27.3256 69.0928 27.2689 69.0442 27.2203 69.0442C27.123 69.0442 27.1149 69.1738 27.1149 69.3601V72.5439C27.1149 73.0462 27.0825 73.1758 26.9691 73.2082C26.8962 73.2325 26.8071 73.2406 26.7585 73.2406C26.7018 73.2406 26.6694 73.2812 26.6694 73.3136C26.6694 73.4027 26.7585 73.4027 26.799 73.4027C26.9691 73.4027 27.1392 73.3946 27.2365 73.3865C27.2851 73.3865 27.3094 73.3865 27.3256 73.3865C27.3418 73.3865 27.3661 73.3865 27.4066 73.3865C27.5119 73.3865 27.6901 73.4027 27.917 73.4027C27.9575 73.4027 28.0547 73.4027 28.0547 73.3136C28.0547 73.2812 28.0304 73.2406 27.9737 73.2406C27.9575 73.2406 27.8279 73.2406 27.7063 73.2082C27.5929 73.1758 27.5281 73.0705 27.52 72.6006L27.4471 70.0487C27.6901 70.3242 28.2491 70.9399 28.8243 71.5637C29.4238 72.2037 30.2177 73.0219 30.2744 73.0705C30.5823 73.3865 30.6471 73.4351 30.7119 73.4351C30.801 73.4351 30.801 73.3622 30.801 72.9976V69.7409C30.8091 69.3925 30.8415 69.3196 30.9873 69.2872C31.0522 69.271 31.0846 69.271 31.1089 69.271C31.1818 69.271 31.2142 69.2305 31.2142 69.19C31.2142 69.109 31.117 69.109 31.0765 69.109" fill="#134939"/>
<path d="M26.3939 73.2567C26.3372 73.2567 26.2643 73.2567 26.1833 73.2243C26.0618 73.1919 25.9159 73.0947 25.7296 72.6329C25.4866 72.0334 24.9843 70.7048 24.6765 69.9109C24.5549 69.5868 24.4577 69.3519 24.4415 69.2871C24.3767 69.117 24.3443 69.0684 24.2876 69.0684C24.2309 69.0684 24.2066 69.117 24.1337 69.3033L22.878 72.7463C22.7727 73.038 22.6673 73.2162 22.4405 73.2486C22.3919 73.2486 22.319 73.2648 22.2866 73.2648C22.238 73.2648 22.2056 73.2891 22.2056 73.3296C22.2056 73.4106 22.3028 73.4106 22.3433 73.4106C22.5215 73.4106 22.7159 73.4025 22.8456 73.3944C22.9104 73.3944 22.9509 73.3944 22.9752 73.3944C22.9995 73.3944 23.0481 73.3944 23.1129 73.3944C23.2101 73.3944 23.3235 73.4025 23.4046 73.4025C23.5018 73.4025 23.5261 73.362 23.5261 73.3215C23.5261 73.3053 23.518 73.2567 23.437 73.2567H23.3802C23.3154 73.2567 23.202 73.2243 23.202 73.1271C23.202 73.0299 23.2263 72.9003 23.2749 72.7625L23.5828 71.8309C23.5828 71.8309 23.599 71.8066 23.6071 71.8066H24.8466C24.8466 71.8066 24.8547 71.8066 24.8628 71.8147L25.357 73.1352C25.3732 73.1838 25.3651 73.2081 25.357 73.2243C25.357 73.2405 25.3408 73.2405 25.3408 73.2405C25.284 73.2567 25.2759 73.2972 25.2759 73.3134C25.2759 73.3782 25.3489 73.3782 25.4461 73.3863H25.4704C25.7215 73.3944 26.0294 73.4025 26.3453 73.4025C26.4668 73.4025 26.4911 73.362 26.4911 73.3215C26.4911 73.281 26.4587 73.2567 26.402 73.2567M23.68 71.5392L24.1904 70.0081C24.1904 70.0081 24.1904 69.9919 24.1985 69.9838C24.1985 69.9838 24.1985 70 24.2066 70.0081L24.7494 71.5392H23.6719H23.68Z" fill="#134939"/>
<path d="M82.8193 72.5681C82.7544 72.5681 82.7463 72.6329 82.7382 72.6815C82.7058 72.9003 82.641 72.9975 82.5114 73.0542C82.3737 73.1109 82.1306 73.1109 81.9929 73.1109C81.4501 73.1109 81.4015 73.038 81.3853 72.6896C81.3853 72.6086 81.3853 72.2522 81.3853 71.9848C81.3853 71.8795 81.3853 71.7904 81.3853 71.7418V71.2476C81.4825 71.2476 82.0253 71.2557 82.1792 71.2719C82.3656 71.2881 82.4142 71.361 82.4385 71.442C82.4628 71.5068 82.4628 71.5636 82.4628 71.6122C82.4628 71.6608 82.4871 71.6932 82.5357 71.6932C82.6086 71.6932 82.6086 71.6041 82.6086 71.5554C82.6086 71.523 82.6167 71.3205 82.6329 71.2071C82.641 71.0937 82.6572 71.0208 82.6653 70.9641C82.6653 70.9317 82.6734 70.9073 82.6734 70.8911C82.6734 70.8182 82.6248 70.8101 82.6086 70.8101C82.5762 70.8101 82.5519 70.8425 82.5114 70.883H82.5033C82.4628 70.9398 82.398 70.9479 82.2684 70.9641C82.1711 70.9722 81.758 70.9722 81.3934 70.9803C81.3934 70.9803 81.3934 70.9803 81.3934 70.956V69.4248C81.3934 69.4248 81.3934 69.4086 81.3934 69.4005C81.4663 69.4005 82.0577 69.4086 82.1468 69.4167C82.4466 69.441 82.479 69.5139 82.5114 69.5868C82.5357 69.6436 82.5438 69.7327 82.5438 69.7732C82.5438 69.8623 82.5924 69.8785 82.6248 69.8785C82.6653 69.8785 82.6815 69.8461 82.6977 69.7894C82.6977 69.7408 82.7139 69.6273 82.7139 69.5301C82.7139 69.4815 82.7139 69.4329 82.722 69.4167C82.7301 69.3276 82.7463 69.2709 82.7544 69.2223C82.7544 69.1899 82.7706 69.1656 82.7706 69.1494C82.7706 69.0765 82.7301 69.0684 82.7139 69.0684C82.6896 69.0684 82.6734 69.0765 82.6572 69.0846C82.6491 69.0846 82.641 69.0927 82.6248 69.1008C82.5762 69.117 82.4385 69.1251 82.398 69.1251C82.2765 69.1251 81.3205 69.1251 81.0289 69.1251C80.8587 69.1251 80.6319 69.1089 80.5023 69.1089C80.4699 69.1089 80.3808 69.1089 80.3808 69.1899C80.3808 69.2304 80.4132 69.2547 80.4618 69.2547C80.5104 69.2547 80.5995 69.2547 80.64 69.2709C80.7939 69.3033 80.8425 69.3681 80.8506 69.5544C80.8587 69.7327 80.8587 69.8866 80.8587 70.7534V71.7256C80.8587 72.2441 80.8587 72.6977 80.8344 72.9246C80.8101 73.0947 80.7858 73.1838 80.6967 73.2C80.6319 73.2162 80.5752 73.2243 80.5347 73.2243C80.478 73.2243 80.4537 73.2567 80.4537 73.2891C80.4537 73.3701 80.5428 73.3701 80.5752 73.3701C80.6157 73.3701 80.6643 73.3701 80.7129 73.3701C80.7696 73.3701 80.8344 73.3701 80.8911 73.3701C81.0046 73.3701 81.1018 73.3701 81.1099 73.3701C81.1909 73.3701 81.3043 73.3701 81.5392 73.3863H81.6608C81.8633 73.3863 82.1387 73.4025 82.479 73.4025C82.6896 73.4025 82.7625 73.4025 82.8111 73.2324C82.8355 73.119 82.8841 72.7382 82.8841 72.6896C82.8841 72.6491 82.8841 72.5681 82.8193 72.5681Z" fill="#134939"/>
<path d="M46.0638 69.1413C46.0638 69.1413 44.5975 72.5276 44.5894 72.5438C44.5813 72.5357 43.0501 69.1332 43.0501 69.1332C43.0258 69.0846 43.0015 69.0279 42.9367 69.0279C42.8638 69.0279 42.8476 69.117 42.8395 69.1575L42.4668 72.8031C42.4506 72.9975 42.4344 73.1838 42.2967 73.2081C42.2238 73.2243 42.1995 73.2243 42.1509 73.2243C42.1023 73.2243 42.0618 73.2567 42.0618 73.2891C42.0618 73.3215 42.078 73.3783 42.1914 73.3783C42.2805 73.3783 42.4425 73.3783 42.5073 73.3702C42.5803 73.3702 42.5965 73.3702 42.5965 73.3702H42.7261C42.7909 73.3702 42.9691 73.3783 43.1068 73.3864C43.1473 73.3864 43.2365 73.3864 43.2365 73.2972C43.2365 73.2567 43.1959 73.2324 43.1554 73.2324C43.1068 73.2324 43.0582 73.2324 42.9691 73.2081C42.9043 73.1919 42.8638 73.1433 42.8638 73.0704C42.8638 72.9732 42.8638 72.876 42.8638 72.7869C42.8638 72.7869 43.0501 70.3322 43.0582 70.3322C43.042 70.3322 44.3058 73.1109 44.3058 73.1109C44.4111 73.3215 44.4354 73.3702 44.4921 73.3702C44.557 73.3702 44.5813 73.3296 44.6623 73.1352L45.9099 70.2836L46.1448 73.0218C46.1448 73.0218 46.1448 73.0866 46.1448 73.1109C46.1448 73.1514 46.1448 73.2081 46.1367 73.2081C46.0881 73.2243 46.08 73.2567 46.08 73.281C46.08 73.354 46.161 73.3702 46.2582 73.3783C46.4608 73.3864 47.0116 73.3783 47.1251 73.3783C47.2628 73.3783 47.2709 73.3134 47.2709 73.2891C47.2709 73.2648 47.2709 73.2243 47.1899 73.2243C47.1413 73.2243 47.0116 73.2243 46.8658 73.1757C46.6633 73.1028 46.6309 72.8031 46.6147 72.6167L46.2663 69.2061C46.2663 69.1251 46.2501 69.0198 46.161 69.0198C46.0962 69.0198 46.0638 69.0927 46.0476 69.1332" fill="#134939"/>
<path d="M83.8319 70.0728C83.8319 70.4536 83.9534 70.8101 84.5691 71.3123L84.8203 71.523C85.3063 71.928 85.4441 72.1306 85.4441 72.487C85.4441 72.8435 85.1848 73.1837 84.6906 73.1837C84.4881 73.1837 84.0101 73.1351 83.9129 72.6491C83.8967 72.5761 83.8967 72.5032 83.8967 72.4546C83.8967 72.4222 83.8967 72.3493 83.8157 72.3493C83.7428 72.3493 83.7347 72.4384 83.7347 72.4789V72.5437C83.7185 72.6572 83.7104 72.8435 83.7104 73.0703C83.7104 73.2242 83.7104 73.2728 83.8157 73.3215C84.0344 73.4268 84.2856 73.4754 84.5772 73.4754C84.9175 73.4754 85.2091 73.3944 85.436 73.2323C85.8005 72.9731 85.922 72.568 85.922 72.2764C85.922 71.8389 85.7843 71.4825 85.0957 70.9397L84.9418 70.8182C84.4152 70.3807 84.2775 70.2025 84.2775 69.9189C84.2775 69.5544 84.5367 69.3113 84.9175 69.3113C85.3792 69.3113 85.5332 69.5058 85.5737 69.5868C85.6061 69.6435 85.6385 69.7893 85.6385 69.846C85.6385 69.8865 85.6466 69.9594 85.7195 69.9594C85.8005 69.9594 85.8005 69.846 85.8005 69.7893C85.8005 69.4896 85.8167 69.3194 85.8167 69.2384V69.1979C85.8167 69.1412 85.7924 69.1169 85.7276 69.1169C85.6871 69.1169 85.6466 69.1169 85.5413 69.0926C85.3792 69.0521 85.2172 69.0359 85.0147 69.0359C84.3018 69.0359 83.8238 69.4572 83.8238 70.0728" fill="#134939"/>
<path d="M39.2749 70.0728C39.2749 70.4536 39.4046 70.8101 40.0121 71.3123L40.2633 71.523C40.7494 71.928 40.8871 72.1306 40.8871 72.487C40.8871 72.8435 40.6278 73.1837 40.1337 73.1837C39.9311 73.1837 39.4532 73.1351 39.3559 72.6491C39.3397 72.5761 39.3397 72.5032 39.3397 72.4546C39.3397 72.4222 39.3397 72.3493 39.2587 72.3493C39.1777 72.3493 39.1777 72.4384 39.1777 72.4789V72.5437C39.1615 72.6572 39.1534 72.8435 39.1534 73.0703C39.1534 73.2242 39.1534 73.2728 39.2587 73.3215C39.4775 73.4268 39.7286 73.4754 40.0202 73.4754C40.3605 73.4754 40.6521 73.3944 40.879 73.2323C41.2435 72.9731 41.3651 72.568 41.3651 72.2764C41.3651 71.8389 41.2273 71.4825 40.5387 70.9397L40.3848 70.8182C39.8582 70.3807 39.7205 70.2025 39.7205 69.9189C39.7205 69.5544 39.9797 69.3113 40.3605 69.3113C40.8223 69.3113 40.9762 69.5058 41.0167 69.5868C41.0491 69.6435 41.0815 69.7893 41.0815 69.846C41.0815 69.8865 41.0896 69.9594 41.1625 69.9594C41.2435 69.9594 41.2435 69.846 41.2435 69.7893C41.2435 69.4896 41.2597 69.3194 41.2597 69.2384V69.1979C41.2597 69.1412 41.2273 69.1169 41.1706 69.1169C41.1301 69.1169 41.0896 69.1169 40.9843 69.0926C40.8223 69.0521 40.6602 69.0359 40.4577 69.0359C39.7448 69.0359 39.2668 69.4572 39.2668 70.0728" fill="#134939"/>
<path d="M88.1904 73.2405C88.1418 73.2405 88.0284 73.2324 87.9473 73.2162C87.8177 73.2 87.7853 73.1109 87.7691 72.9489C87.7448 72.7139 87.7448 72.2684 87.7448 71.7499V70.7696C87.7448 69.9028 87.7448 69.7489 87.7529 69.5707C87.761 69.3762 87.8015 69.3114 87.9311 69.2871C87.996 69.279 88.0203 69.2709 88.0608 69.2709C88.1094 69.2709 88.1418 69.2385 88.1418 69.198C88.1418 69.1089 88.0446 69.1089 88.0122 69.1089C87.8906 69.1089 87.6881 69.117 87.5585 69.1251C87.5099 69.1251 87.4775 69.1251 87.4694 69.1251C87.4613 69.1251 87.4289 69.1251 87.3803 69.1251C87.2587 69.1251 87.04 69.1089 86.9104 69.1089C86.878 69.1089 86.7808 69.1089 86.7808 69.198C86.7808 69.2385 86.8213 69.2709 86.8618 69.2709C86.8942 69.2709 86.959 69.2709 87.0238 69.2952C87.0967 69.3114 87.1696 69.36 87.1777 69.5707C87.1858 69.7489 87.1858 69.9028 87.1858 70.7696V71.7499C87.1858 72.2684 87.1858 72.722 87.1615 72.9489C87.1372 73.119 87.1129 73.2081 87.0319 73.2243C86.9752 73.2405 86.9185 73.2486 86.878 73.2486C86.8213 73.2486 86.7889 73.2891 86.7889 73.3215C86.7889 73.4026 86.8861 73.4026 86.9185 73.4026C87.04 73.4026 87.2425 73.4026 87.3722 73.3864C87.4208 73.3864 87.4532 73.3864 87.4613 73.3864C87.4613 73.3864 87.4937 73.3864 87.5261 73.3864C87.6476 73.3864 87.9068 73.4026 88.1418 73.4026C88.2633 73.4026 88.2714 73.3458 88.2714 73.3215C88.2714 73.2891 88.2471 73.2486 88.1904 73.2486" fill="#134939"/>
<path d="M52.0101 69.6761C51.5889 70.154 51.4592 70.794 51.4673 71.2315C51.4835 71.9363 51.7104 72.4872 52.1478 72.8842C52.5853 73.2892 53.1443 73.4675 53.8896 73.4431C54.1975 73.4431 54.6025 73.3864 54.8294 73.2892C54.9347 73.2406 54.9509 73.2163 54.9833 73.1029C55.0319 72.9085 55.0805 72.4224 55.0724 72.3819C55.0724 72.2685 55.0157 72.2604 54.9914 72.2604C54.9266 72.2604 54.9185 72.3333 54.9023 72.3819C54.878 72.4872 54.8294 72.7221 54.7321 72.8356C54.5458 73.0624 54.2542 73.111 53.8734 73.1272C53.363 73.1434 52.8932 72.9409 52.5448 72.5601C52.2127 72.1956 52.0182 71.6933 52.002 71.1829C51.9858 70.713 52.0263 70.1702 52.4152 69.749C52.6582 69.4735 53.0309 69.3358 53.5575 69.3277C54.0192 69.3196 54.4081 69.4654 54.5701 69.6031C54.6997 69.7085 54.7646 69.9029 54.7889 70.1378C54.7889 70.2026 54.7889 70.2918 54.8699 70.2918C54.9509 70.2918 54.9509 70.1945 54.9509 70.1378V69.5626C54.9509 69.4411 54.959 69.3682 54.9671 69.3196V69.2467C54.9671 69.1819 54.9347 69.1576 54.8618 69.1495C54.7078 69.1495 54.5458 69.1171 54.3595 69.0847H54.3433C54.0354 69.028 53.7114 69.028 53.5899 69.0361C52.8932 69.0523 52.3747 69.271 52.002 69.6842" fill="#134939"/>
<path d="M72.5873 68.9956C70.9671 68.9956 70.3595 70.3485 70.3595 71.2073C70.3595 72.2766 71.0481 73.427 72.5549 73.427C73.8592 73.427 74.8071 72.4548 74.8071 71.1181C74.8071 70.4862 74.5884 69.9435 74.1752 69.5627C73.7782 69.1981 73.2192 68.9956 72.5873 68.9956ZM72.5468 69.2629C73.3408 69.2629 74.1995 69.8948 74.1995 71.2721C74.1995 73.0462 72.9519 73.1354 72.7089 73.1354C71.6881 73.1354 70.9752 72.2766 70.9752 71.0452C70.9752 69.9435 71.5828 69.2548 72.5549 69.2548" fill="#134939"/>
<path d="M67.0623 69.1414C66.7868 69.1495 66.6167 69.1576 66.3656 69.1576C66.0577 69.1576 65.7985 69.1414 65.6122 69.1414C65.5797 69.1414 65.4906 69.1414 65.4906 69.2224C65.4906 69.2629 65.523 69.2872 65.5716 69.2872C65.6203 69.2872 65.7094 69.2872 65.7499 69.3034C65.9038 69.3358 65.9524 69.4006 65.9605 69.5869C65.9686 69.7652 65.9686 69.9191 65.9686 70.7859V71.7581C65.9686 72.2765 65.9686 72.7302 65.9443 72.9571V72.9976C65.92 73.1434 65.9038 73.2082 65.8066 73.2325C65.758 73.2406 65.6932 73.2568 65.6527 73.2568C65.5959 73.2568 65.5716 73.2892 65.5716 73.3216C65.5716 73.4026 65.6608 73.4026 65.6932 73.4026C65.7337 73.4026 65.7823 73.4026 65.8309 73.4026C65.8876 73.4026 65.9524 73.4026 66.0172 73.4026C66.1792 73.4026 66.3089 73.4026 66.3818 73.4026C66.4628 73.4026 66.5681 73.4188 66.6896 73.4269H66.8111C66.9894 73.4512 67.1433 73.4593 67.3377 73.4593C68.2613 73.4593 68.723 73.0867 68.9904 72.8112C69.3711 72.4062 69.5899 71.831 69.5899 71.2234C69.5899 70.5024 69.2982 70.0487 69.0552 69.7895C68.4233 69.1414 67.6051 69.1414 67.0623 69.1495M68.6015 72.6978C68.2694 73.03 67.8481 73.2001 67.362 73.2001C66.7058 73.2001 66.6248 73.0786 66.5681 72.9895C66.5276 72.9327 66.5195 72.6735 66.5114 72.5844C66.5114 72.4872 66.5033 71.993 66.5033 71.3854V70.6968C66.5033 70.2755 66.5033 69.7003 66.5033 69.514C66.5033 69.4654 66.5114 69.4492 66.5519 69.433C66.5843 69.4168 66.7544 69.4006 66.8759 69.4006C67.5484 69.4006 67.9939 69.4411 68.5043 69.9758C68.7392 70.2269 69.0228 70.6725 69.0228 71.3935C69.0228 71.9363 68.8608 72.4386 68.6015 72.6978Z" fill="#134939"/>
</g>
</g>
<rect x="1" y="1" width="110" height="110" rx="9" stroke="#CCCCCC" stroke-width="2"/>
<defs>
<clipPath id="clip0_745_102">
<rect x="2" y="2" width="108" height="108" rx="8" fill="white"/>
</clipPath>
<clipPath id="clip1_745_102">
<rect width="80" height="35.4754" fill="white" transform="translate(16 38)"/>
</clipPath>
</defs>
</svg>
