<svg width="112" height="112" viewBox="0 0 112 112" fill="none" xmlns="http://www.w3.org/2000/svg">
<g clip-path="url(#clip0_528_53)">
<rect x="2" y="2" width="108" height="108" rx="8" fill="white"/>
<path d="M21.135 60.0766C20.0752 60.0326 18.9435 59.7838 17.8613 59.3569C17.609 59.2574 17.2312 59.0929 17.0868 59.0197C17.0295 58.9907 17.0254 58.9838 16.9133 58.7293C16.3684 57.4921 16.068 56.2215 16.0062 54.8916C15.9951 54.653 16.0003 54.047 16.0153 53.8343C16.1048 52.566 16.3897 51.4201 16.9026 50.2662C16.9427 50.1759 16.987 50.0793 17.0009 50.0514L17.0263 50.0009L17.2113 49.9167C18.2142 49.4603 19.2775 49.1701 20.3603 49.0572C21.5415 48.934 22.6288 49.0089 23.7603 49.2915C24.4821 49.4718 25.1452 49.7099 25.8972 50.0589L25.9598 50.0879L26.0216 50.2228C26.5575 51.3929 26.8847 52.6224 26.9851 53.843C27.1032 55.2777 26.89 56.7497 26.3582 58.1724C26.2313 58.5117 26.0002 59.0467 25.9686 59.074C25.9348 59.1032 25.5189 59.2849 25.2243 59.3991C25.0352 59.4724 24.6112 59.6149 24.4108 59.6724C23.607 59.9032 22.8153 60.0327 21.9571 60.0738C21.7952 60.0814 21.2952 60.0833 21.135 60.0766ZM22.0524 59.8384C23.331 59.7671 24.6268 59.4495 25.7193 58.9397L25.801 58.9015L25.884 58.7153C26.3809 57.6008 26.6693 56.4927 26.7601 55.3484C26.8874 53.7469 26.5824 52.0619 25.8767 50.4665L25.7862 50.262L25.6278 50.19C24.3697 49.6185 23.1036 49.3008 21.836 49.2386C21.6093 49.2275 21.0719 49.2325 20.8451 49.248C19.5996 49.3328 18.4888 49.6029 17.4091 50.0836C17.1809 50.1852 17.1967 50.1754 17.1723 50.2307C17.1604 50.2575 17.1233 50.341 17.0899 50.4163C16.6694 51.3632 16.389 52.4083 16.2803 53.4339C16.2408 53.806 16.2292 54.035 16.2289 54.4521C16.2289 55.0387 16.2661 55.5129 16.3583 56.0745C16.5061 56.9743 16.8021 57.945 17.1713 58.7399L17.2086 58.8201L17.2851 58.8558C18.5772 59.4593 19.8909 59.7937 21.1826 59.8477C21.3771 59.8558 21.8252 59.851 22.0524 59.8384ZM21.0636 59.2583C21.0475 59.2552 21.0442 59.2489 21.0444 59.2225C21.0451 59.1486 21.0945 58.3755 21.0988 58.3711C21.1015 58.3685 21.1896 58.3701 21.2947 58.3749C21.4708 58.3826 21.4892 58.385 21.5268 58.4044C21.5568 58.4199 21.5751 58.4379 21.5953 58.4717C21.6613 58.582 21.6371 58.7724 21.5477 58.8468C21.5012 58.8855 21.446 58.8989 21.3337 58.8989H21.2369L21.2316 58.962C21.2287 58.9967 21.2237 59.079 21.2205 59.1448L21.2147 59.2644L21.1489 59.2632C21.1127 59.2622 21.0743 59.2605 21.0636 59.2583ZM21.399 58.7532C21.4409 58.7322 21.4595 58.6908 21.4595 58.6188C21.4595 58.5709 21.4561 58.5565 21.4401 58.5379C21.4182 58.5124 21.3731 58.4992 21.3065 58.4989C21.2711 58.4989 21.2608 58.5017 21.2574 58.5139C21.2551 58.5222 21.2506 58.5808 21.2474 58.6439L21.2416 58.7586L21.2748 58.7621C21.3464 58.7696 21.3698 58.7679 21.399 58.7532ZM22.3469 59.2101C22.3362 59.1484 22.2295 58.3483 22.2317 58.3466C22.2331 58.3456 22.312 58.3338 22.4072 58.3204C22.6011 58.293 22.6553 58.2962 22.7052 58.3385C22.7517 58.3779 22.7706 58.4315 22.7707 58.5248C22.7707 58.5958 22.768 58.612 22.751 58.6394C22.7401 58.657 22.7189 58.6793 22.7038 58.6888L22.6764 58.7063L22.7019 58.7121C22.716 58.7151 22.7337 58.7195 22.7414 58.7216C22.7674 58.7286 22.8173 58.7877 22.8314 58.8281C22.8508 58.8842 22.8583 59.0172 22.8444 59.0606C22.829 59.109 22.797 59.1486 22.7566 59.1693C22.7335 59.1812 22.6648 59.1957 22.5515 59.2126C22.4579 59.2266 22.3746 59.2381 22.3665 59.2382C22.3566 59.2382 22.3502 59.2291 22.3469 59.2101ZM22.6098 59.0697C22.626 59.0643 22.6474 59.0489 22.6574 59.0353C22.6939 58.9857 22.6683 58.8384 22.6185 58.8116C22.6006 58.8019 22.4761 58.8051 22.4657 58.8153C22.4624 58.8187 22.4959 59.0565 22.5029 59.0795C22.5067 59.0916 22.5567 59.0872 22.6098 59.0697ZM22.556 58.6506C22.5711 58.6442 22.5896 58.6274 22.5971 58.6129C22.615 58.578 22.6143 58.5104 22.5954 58.4726C22.5731 58.4276 22.549 58.4193 22.4736 58.4306C22.4121 58.4398 22.4108 58.4405 22.415 58.4628C22.4173 58.4754 22.4238 58.5228 22.4292 58.5683C22.4346 58.6138 22.4406 58.6561 22.4425 58.6624C22.4466 58.6757 22.5109 58.6691 22.556 58.6506ZM20.4291 59.2217C20.355 59.2113 20.2874 59.187 20.2528 59.1583C20.1667 59.0869 20.1615 59.007 20.2156 58.5793C20.2363 58.4155 20.2555 58.2793 20.2581 58.2766C20.2625 58.272 20.422 58.2884 20.4277 58.2938C20.429 58.2952 20.4125 58.4347 20.3909 58.604C20.3694 58.7732 20.3517 58.9366 20.3517 58.967C20.3517 59.016 20.3545 59.0249 20.3764 59.047C20.4202 59.091 20.5033 59.0923 20.5456 59.0496C20.5797 59.0154 20.5895 58.9664 20.6297 58.6303L20.6664 58.3226L20.719 58.3282C20.7479 58.3312 20.7873 58.336 20.8066 58.3386L20.8417 58.3434L20.8007 58.6711C20.7753 58.8734 20.7526 59.0216 20.7412 59.0582C20.7196 59.1279 20.6768 59.1808 20.6224 59.2051C20.5798 59.2242 20.4975 59.2313 20.4291 59.2217ZM19.7428 59.1178L19.6575 59.0948L19.6628 59.0423C19.6657 59.0135 19.6758 58.9489 19.6853 58.8987C19.7088 58.7749 19.708 58.7551 19.678 58.725C19.6531 58.7 19.6181 58.6872 19.5462 58.6769L19.5067 58.6711L19.469 58.8568C19.4483 58.9589 19.4304 59.0438 19.4293 59.0453C19.4272 59.0482 19.2593 59.0131 19.2553 59.009C19.2522 59.0059 19.4406 58.1326 19.4455 58.1277C19.4523 58.1208 19.7992 58.2029 19.8428 58.2217C19.8947 58.2442 19.9409 58.2948 19.9541 58.3437C19.9659 58.3877 19.9599 58.4742 19.9402 58.5406C19.9232 58.5985 19.8742 58.6503 19.8287 58.6589L19.7966 58.665L19.831 58.6901C19.8791 58.7251 19.8813 58.7455 19.8537 58.8968C19.8365 58.9915 19.8316 59.0405 19.8352 59.0839C19.8379 59.1162 19.8373 59.1422 19.834 59.1417C19.8308 59.1407 19.7897 59.1304 19.7428 59.1178ZM19.7512 58.5412C19.7739 58.5199 19.7979 58.4509 19.7977 58.4079C19.797 58.3715 19.7802 58.3399 19.7532 58.3268C19.7282 58.3148 19.5994 58.2863 19.5941 58.2916C19.589 58.2968 19.5394 58.5287 19.5427 58.5321C19.5442 58.5337 19.5721 58.5424 19.6046 58.5513C19.6763 58.5711 19.7231 58.5678 19.7512 58.5412ZM23.267 59.086C23.21 59.0676 23.1557 59.0046 23.1262 58.923C23.0908 58.8248 23.0432 58.5786 23.0374 58.4632C23.0307 58.332 23.0433 58.2898 23.1054 58.2336C23.1596 58.1846 23.2341 58.1593 23.3239 58.1593C23.4392 58.1593 23.5098 58.2155 23.5464 58.3365C23.5552 58.3659 23.5625 58.394 23.5626 58.3991C23.5626 58.4099 23.4142 58.4404 23.4064 58.4311C23.4035 58.4274 23.3944 58.4065 23.3863 58.3842C23.358 58.3069 23.313 58.2781 23.2572 58.3016C23.2179 58.3181 23.1979 58.3563 23.1979 58.415C23.1979 58.476 23.2654 58.8235 23.2871 58.8742C23.3115 58.9313 23.3374 58.9529 23.3872 58.9577C23.4615 58.965 23.4908 58.9155 23.4755 58.8091C23.4712 58.7796 23.4677 58.7513 23.4676 58.7462C23.4669 58.7373 23.6215 58.7029 23.6288 58.7103C23.6308 58.7123 23.6348 58.7527 23.6377 58.8001C23.6418 58.8673 23.6397 58.8974 23.6283 58.9368C23.6099 59.0004 23.5586 59.0551 23.4972 59.0765C23.4368 59.0975 23.3177 59.1025 23.267 59.086ZM23.8881 58.9106C23.8772 58.7895 23.8386 58.098 23.8412 58.0714C23.8439 58.0441 23.8452 58.0434 23.9457 58.0132C24.0017 57.9963 24.0491 57.9841 24.051 57.9861C24.0701 58.0056 24.4972 58.7807 24.4917 58.7859C24.4877 58.7896 24.4557 58.8014 24.4205 58.8118C24.3854 58.8222 24.3519 58.8326 24.3461 58.8349C24.3396 58.8374 24.316 58.8015 24.2851 58.7419C24.2574 58.6886 24.2301 58.6431 24.2244 58.6409C24.2186 58.6387 24.1755 58.6481 24.1285 58.6618L24.043 58.6867L24.0437 58.7298C24.0437 58.7534 24.0472 58.8068 24.0511 58.8483L24.0583 58.9238L23.9989 58.9413C23.8836 58.9755 23.8942 58.9785 23.8881 58.9106ZM24.1521 58.5003C24.155 58.4972 24.1172 58.4121 24.0681 58.3116C24.019 58.2111 23.9786 58.1347 23.9784 58.1419C23.9777 58.1595 24.0126 58.4981 24.0175 58.522L24.0214 58.5411L24.0841 58.5237C24.1186 58.5141 24.1492 58.5036 24.1521 58.5003ZM18.8847 58.9166C18.8287 58.9004 18.8275 58.8982 18.8411 58.8384L18.848 58.8082L18.8173 58.8353C18.7545 58.8907 18.6767 58.8944 18.5801 58.8466C18.4259 58.7703 18.4127 58.665 18.5129 58.3109C18.5774 58.0828 18.6348 57.9872 18.7234 57.9605C18.8165 57.9325 18.9807 57.9706 19.057 58.0379C19.0965 58.0728 19.1132 58.1044 19.1227 58.1623C19.1302 58.2081 19.1178 58.3333 19.1056 58.3333C19.1022 58.3333 19.088 58.3297 19.0742 58.3253C19.0604 58.3208 19.0275 58.3112 19.0011 58.3038L18.953 58.2904L18.9613 58.2399C18.9682 58.1979 18.9671 58.1841 18.9545 58.1574C18.9375 58.1214 18.8839 58.0898 18.84 58.0898C18.8074 58.0898 18.7607 58.1205 18.7408 58.1551C18.7216 58.1884 18.6209 58.5501 18.6147 58.6076C18.6117 58.6368 18.6141 58.6619 18.6236 58.6836C18.6506 58.7486 18.7351 58.7717 18.7905 58.7292C18.8194 58.7071 18.8649 58.6229 18.8755 58.572C18.8811 58.5454 18.8808 58.5452 18.831 58.5341C18.8034 58.5279 18.7785 58.5215 18.7757 58.5199C18.7677 58.5152 18.8041 58.3857 18.8134 58.3857C18.8397 58.3857 19.0712 58.4678 19.0682 58.476C19.0663 58.4814 19.0378 58.5866 19.005 58.7098C18.9722 58.833 18.9434 58.9334 18.941 58.9328C18.9386 58.9318 18.9133 58.9248 18.8847 58.9166ZM20.6485 57.3477C20.6215 57.2592 20.5749 57.1838 20.495 57.0995C20.3249 56.92 20.0659 56.81 19.8108 56.809C19.7354 56.8079 19.6832 56.815 19.5598 56.8396C19.2053 56.9102 18.9957 56.9354 18.7549 56.9361C18.5628 56.9371 18.5255 56.9321 18.4001 56.8914C18.25 56.8427 18.1184 56.7585 17.9886 56.628C17.8081 56.4465 17.7012 56.2421 17.6765 56.0312C17.6559 55.8563 17.6808 55.5649 17.7298 55.405C17.7657 55.2877 17.8197 55.1797 17.87 55.1247L17.8876 55.1053L17.9116 55.1434C17.969 55.2344 18.0637 55.313 18.2005 55.383C18.3046 55.4363 18.4154 55.4728 18.6748 55.5394C19.6854 55.7989 20.1495 56.0202 20.454 56.3879C20.6775 56.6576 20.8096 56.9853 20.8253 57.3086L20.8302 57.4109L20.6676 57.4108L20.6485 57.3477ZM21.0181 57.3548C21.0181 57.211 20.9655 56.9522 20.9013 56.78C20.8397 56.615 20.7327 56.4193 20.6319 56.2873C20.2921 55.8423 19.8293 55.6085 18.7203 55.3219C18.6061 55.2924 18.4853 55.2584 18.452 55.2464C18.0917 55.1163 17.8425 54.8081 17.7672 54.3994C17.7466 54.2873 17.7464 54.0524 17.7665 53.9388C17.8203 53.6395 17.9591 53.3626 18.1596 53.1547C18.3951 52.9105 18.6778 52.7882 19.1044 52.7461C19.4723 52.7097 19.8978 52.9158 20.2796 53.3154C20.7099 53.7657 21.0085 54.3746 21.1182 55.0257C21.1656 55.3074 21.1668 55.3369 21.1712 56.4124L21.1754 57.411H21.0179L21.0181 57.3548ZM21.3523 57.374C21.3498 57.3536 21.3457 56.9963 21.3432 56.5799C21.3368 55.5366 21.3256 55.2749 21.2728 54.9308C21.2345 54.6819 21.1761 54.4494 21.0992 54.2402C21.0106 53.9993 20.8266 53.6683 20.6751 53.4775C20.6466 53.4416 20.5471 53.332 20.454 53.2339C20.3609 53.1357 20.2506 53.0163 20.209 52.9684C19.8571 52.5639 19.694 52.1711 19.694 51.7288C19.694 51.2431 19.8562 50.8251 20.1651 50.5148C20.657 50.0207 21.4686 49.8706 22.1609 50.1456C22.5422 50.2972 22.8487 50.5773 23.0214 50.9321C23.1388 51.1732 23.1913 51.4179 23.1915 51.724C23.1922 52.0049 23.144 52.2145 23.0231 52.4637C22.9147 52.6872 22.7578 52.8956 22.4763 53.1903C22.2767 53.3993 22.2207 53.4635 22.146 53.569C21.7772 54.0899 21.6039 54.6363 21.5635 55.4051C21.5587 55.496 21.5548 55.9845 21.5548 56.4907V57.411H21.3568L21.3523 57.374ZM21.7131 56.4472C21.716 55.8574 21.7216 55.4378 21.7275 55.3659C21.7558 55.0217 21.8291 54.6878 21.9413 54.3913C22.2583 53.5538 22.8912 52.8954 23.5107 52.7587C23.7332 52.7096 24.1467 52.7787 24.4027 52.9079C24.7486 53.0824 25.021 53.4575 25.1125 53.8851C25.1407 54.0168 25.1451 54.2514 25.122 54.3869C25.0536 54.7883 24.8205 55.0919 24.4719 55.2333C24.4312 55.2499 24.2927 55.2906 24.1642 55.3237C22.9917 55.6265 22.5381 55.8686 22.2098 56.3667C22.0897 56.5489 21.9829 56.8048 21.9363 57.022C21.9162 57.1157 21.8923 57.3045 21.8923 57.3696V57.411H21.7084L21.7131 56.4472ZM22.0569 57.3609C22.0576 57.2857 22.0795 57.1312 22.1049 57.0291C22.2065 56.6214 22.4751 56.2605 22.8418 56.0391C23.1389 55.8596 23.519 55.7218 24.2418 55.5316C24.3847 55.494 24.527 55.4536 24.558 55.4419C24.7474 55.3701 24.9166 55.2496 24.9794 55.1419L25.0019 55.1034L25.0224 55.128C25.1471 55.2781 25.2166 55.5385 25.2169 55.8576C25.2176 56.0711 25.199 56.165 25.1291 56.3101C24.9859 56.6078 24.7181 56.8353 24.4209 56.9117C24.2134 56.965 23.843 56.9414 23.3549 56.8439C23.1528 56.8036 23.0399 56.7983 22.9179 56.8235C22.5772 56.894 22.3139 57.1007 22.2335 57.3609L22.218 57.411H22.0567L22.0569 57.3609ZM40.0977 59.2594C40.0786 59.2578 40.0046 59.252 39.9332 59.2468C39.2796 59.1987 38.6423 59.0187 38.1503 58.7431C37.192 58.2062 36.5981 57.2927 36.4497 56.1274C36.2776 54.7752 36.7894 53.2472 37.8123 52.0594C38.7706 50.9466 40.075 50.2489 41.5379 50.0666C41.89 50.0227 42.351 50.0078 42.524 50.0347C42.6337 50.0518 42.8209 50.0997 42.9558 50.1453C43.0114 50.164 43.0596 50.1794 43.063 50.1794C43.0664 50.1794 43.1222 50.1112 43.1869 50.0278L43.3046 49.8763L43.3845 49.9186C44.8496 50.6959 45.1693 50.8667 45.1715 50.8732C45.174 50.8806 43.8388 53.3254 43.8236 53.3414C43.8198 53.3455 43.7763 53.3176 43.727 53.2795C43.2337 52.8974 42.6883 52.6799 42.1056 52.6328C41.9493 52.6201 41.644 52.6266 41.4824 52.646C40.853 52.7215 40.3243 52.9667 39.9245 53.3687C39.5704 53.7248 39.3302 54.1947 39.244 54.6997C39.2215 54.8318 39.2126 55.1168 39.2271 55.241C39.2898 55.777 39.5604 56.2274 39.9955 56.5199C40.1991 56.6568 40.4803 56.7684 40.7588 56.823C40.9769 56.8658 41.0763 56.8747 41.3396 56.8751C41.6052 56.8761 41.6743 56.868 41.8998 56.8147C42.3531 56.7074 42.9563 56.4521 43.3053 56.2197L43.3799 56.17L43.3561 56.2227C43.2389 56.4824 42.0461 59.0275 42.0381 59.0349C42.0324 59.0402 41.977 59.0546 41.9152 59.067C41.8533 59.0793 41.7009 59.1112 41.5765 59.1377C41.0763 59.2445 40.9654 59.257 40.4914 59.2602C40.2939 59.2616 40.1167 59.2615 40.0977 59.2594ZM28.4963 58.9665C28.497 58.9606 28.8638 57.5321 29.3123 55.7923L30.1278 52.6291L30.0453 52.6235C30 52.6205 29.8509 52.6175 29.7141 52.6169C29.5772 52.6158 29.4653 52.613 29.4655 52.6093C29.4655 52.6059 29.7724 52.0075 30.1473 51.2801L30.829 49.9573L32.7154 49.9549C34.6216 49.9523 34.8129 49.9549 35.0368 49.984C36.0252 50.1133 36.6537 50.6605 36.8006 51.5195C36.8229 51.6498 36.8274 51.9498 36.8092 52.094C36.7063 52.9112 36.074 53.7134 35.1217 54.2348L35.053 54.2725L35.0827 54.2854C35.3149 54.3869 35.464 54.4811 35.5983 54.6111C35.8932 54.8967 36.0372 55.2538 36.0782 55.801C36.0911 55.9721 36.0838 56.313 36.0648 56.432C35.9745 56.9979 35.7117 57.5003 35.2771 57.9377C34.6651 58.5535 33.816 58.9192 32.8833 58.9683C32.6189 58.9823 28.4958 58.9805 28.4963 58.9665ZM32.8454 56.6712C33.2318 56.6048 33.5327 56.3881 33.6456 56.095C33.7186 55.9054 33.7143 55.712 33.6334 55.5505C33.5562 55.3963 33.4211 55.288 33.2326 55.2292L33.1565 55.2054L32.5992 55.2026C32.2926 55.201 32.0388 55.2026 32.0351 55.2067C32.0313 55.2104 31.9441 55.5388 31.8412 55.936C31.7384 56.3333 31.6521 56.6652 31.6496 56.6735C31.6453 56.6879 31.6753 56.6888 32.1944 56.6888C32.7049 56.6888 32.7509 56.6874 32.8454 56.6712ZM33.4464 53.596C33.8848 53.5181 34.1269 53.2659 34.1754 52.8365C34.1937 52.6752 34.1615 52.5589 34.0747 52.4718C34.0151 52.4121 33.958 52.3811 33.8575 52.3538C33.7923 52.3361 33.7586 52.3345 33.2707 52.3263C32.9666 52.3212 32.7499 52.3208 32.7454 52.3253C32.7387 52.3321 32.4511 53.5871 32.4511 53.6096C32.4511 53.6152 32.6093 53.6169 32.9077 53.6145C33.2843 53.6113 33.3786 53.6081 33.4464 53.596ZM42.7323 58.7228C43.2065 57.7881 45.8488 52.5436 45.8488 52.5371C45.8488 52.5325 45.699 52.5283 45.4865 52.5269L45.1242 52.5246L46.5126 49.9575L50.789 49.9531L50.7944 50.0336C50.7973 50.0779 50.8833 52.0858 50.9854 54.4957C51.0875 56.9056 51.1721 58.8998 51.1734 58.9273L51.1758 58.9774H48.3154V57.4284H46.3543L45.7118 58.9731L42.6031 58.9775L42.7323 58.7228ZM48.3238 55.181C48.3238 55.0936 48.318 54.5973 48.3111 54.078C48.3041 53.5587 48.2984 53.04 48.2983 52.9254C48.2983 52.7995 48.295 52.7202 48.2902 52.7252C48.2824 52.7332 47.2008 55.2946 47.1925 55.3246C47.1885 55.339 47.2194 55.3398 47.7561 55.3398H48.3241L48.3238 55.181Z" fill="#0060AF"/>
<path d="M60.3585 62.7193C60.088 62.6993 59.6124 62.6296 59.5853 62.606C59.5763 62.5982 59.6806 62.1834 59.817 61.6842L60.065 60.7767L60.1435 60.7796C60.1867 60.7811 60.3419 60.7904 60.4883 60.8001C60.7881 60.8201 61.1201 60.788 61.3502 60.717C61.4601 60.683 61.5134 60.6497 61.589 60.5677C61.6913 60.4567 61.821 60.2031 61.8651 60.0281C61.891 59.9253 61.8835 59.9023 60.6487 56.3074C59.9654 54.3179 59.4062 52.687 59.4062 52.6831C59.4062 52.6793 59.9414 52.6761 60.5955 52.6763H61.7847L62.2433 54.0951C62.4954 54.8755 62.7732 55.7347 62.8604 56.0045C62.9477 56.2743 63.027 56.4862 63.0368 56.4756C63.0465 56.4649 63.3375 55.6056 63.6834 54.566L64.3124 52.6759H65.4788C66.1203 52.6759 66.6451 52.6836 66.645 52.6931C66.645 52.7026 66.227 53.9482 65.7163 55.4612C65.2056 56.9742 64.6776 58.5719 64.5432 59.0117C64.4087 59.4515 64.2421 59.9861 64.1729 60.1998C63.8592 61.1691 63.3828 61.8701 62.7934 62.2298C62.4727 62.4255 61.9627 62.6095 61.532 62.685C61.2844 62.7284 60.7105 62.7452 60.3585 62.7193ZM55.3732 59.2459C54.8255 59.1805 54.2637 59.0218 53.8335 58.8109C53.5054 58.6501 53.2844 58.4869 53.1017 58.2702C52.8796 58.0069 52.6599 57.593 52.6448 57.4095L52.6385 57.3332L53.5462 57.1897C54.0455 57.1109 54.4962 57.0399 54.5479 57.032L54.6418 57.0177L54.7382 57.1667C54.8997 57.4165 55.1461 57.5923 55.4536 57.6772C55.5724 57.7101 55.6925 57.7187 56.0396 57.7194C56.4709 57.7203 56.4779 57.7194 56.6141 57.6558C56.916 57.5146 57.0303 57.2991 56.8785 57.1574C56.788 57.0728 56.563 56.9942 56.0856 56.8804C54.8516 56.5861 54.6881 56.5359 54.2727 56.3237C53.7735 56.0686 53.4675 55.7187 53.3128 55.2261C53.2382 54.9884 53.238 54.4885 53.3124 54.1857C53.4968 53.4354 53.9267 52.9696 54.7262 52.654C55.8327 52.2172 57.5395 52.3568 58.5635 52.9679C58.778 53.0959 59.1251 53.4256 59.2535 53.6233C59.3507 53.7731 59.4636 54.0539 59.4361 54.0779C59.426 54.0867 59.154 54.1483 58.8317 54.2149C58.5094 54.2814 58.0841 54.3695 57.8867 54.4106L57.5276 54.4854L57.4319 54.3399C57.2105 54.0031 56.9166 53.8723 56.3797 53.8715C56.0859 53.8706 55.926 53.8989 55.7688 53.9781C55.5863 54.07 55.5463 54.2302 55.6597 54.416C55.7578 54.5769 55.946 54.6521 56.5451 54.7699C57.8192 55.0203 58.4128 55.2602 58.8216 55.6896C59.2122 56.1001 59.3694 56.5523 59.3164 57.1129C59.2632 57.6755 59.0818 58.0596 58.6951 58.4288C58.281 58.8242 57.7774 59.0526 56.9818 59.206C56.7736 59.2461 56.6257 59.2558 56.143 59.2613C55.8207 59.2649 55.4743 59.258 55.3732 59.2459ZM67.2886 59.1088C66.7969 59.0774 66.5176 58.9801 66.1649 58.7176C65.9506 58.5581 65.8013 58.3836 65.7047 58.1799C65.6111 57.9823 65.5809 57.8253 65.5837 57.5492C65.5918 56.7293 66.0954 56.0086 66.9048 55.6584C67.1997 55.5309 67.5765 55.4393 68.8742 55.18C69.5125 55.0525 70.1278 54.9172 70.2416 54.8794C70.6214 54.753 70.7354 54.6506 70.7356 54.4356C70.7358 54.0949 70.4469 53.9078 69.9199 53.9071C69.6236 53.9071 69.4331 53.9558 69.1389 54.1083C68.9292 54.2171 68.7185 54.4125 68.6545 54.5575C68.6315 54.6097 68.5965 54.6526 68.5768 54.6528C68.5301 54.6537 66.3369 54.3954 66.3285 54.3884C66.325 54.3854 66.3493 54.3066 66.3824 54.2132C66.5459 53.7532 66.8959 53.332 67.392 52.9981C67.7825 52.7353 68.1123 52.5988 68.5847 52.5046C69.0572 52.4103 69.3396 52.3932 70.2051 52.4064C71.1015 52.42 71.3355 52.4479 71.8158 52.5982C72.1508 52.7031 72.3342 52.7863 72.5158 52.9159C72.8262 53.1374 72.9624 53.366 73.0577 53.8257C73.1513 54.2772 73.103 54.7502 72.7952 56.3989C72.6997 56.9108 72.5987 57.4641 72.5709 57.6284C72.4849 58.1358 72.5083 58.6426 72.631 58.9325C72.647 58.9705 72.5848 58.9727 71.5067 58.9727H70.3654L70.323 58.8751C70.2811 58.7783 70.2456 58.5895 70.2172 58.3117L70.2025 58.1676L70.1186 58.2383C69.6101 58.6666 69.2182 58.8607 68.5728 59.0042C68.1137 59.1063 67.7336 59.1373 67.2886 59.1088ZM69.1878 57.6832C69.7549 57.5081 70.2004 57.097 70.3549 56.6057C70.4132 56.4205 70.4937 55.9884 70.4736 55.9684C70.4613 55.956 70.1427 56.034 69.3798 56.2363C68.623 56.437 68.2519 56.6356 68.1314 56.9045C68.0981 56.9786 68.0849 57.0574 68.0847 57.1825C68.0844 57.4167 68.1525 57.5405 68.3295 57.6271C68.5643 57.742 68.9216 57.7653 69.1878 57.6832ZM82.9269 59.1087C82.4159 59.0769 82.0836 58.9487 81.7195 58.6431C81.3323 58.3181 81.175 57.9016 81.2385 57.3696C81.3059 56.8055 81.5647 56.3441 82.0182 55.9797C82.4146 55.6612 82.8261 55.5129 83.8805 55.3082C85.8973 54.9167 86.2413 54.8185 86.3531 54.6022C86.4091 54.4941 86.3854 54.2858 86.3038 54.1681C86.1768 53.9848 85.799 53.8704 85.4339 53.9046C84.9635 53.9487 84.444 54.2508 84.2998 54.5642C84.2727 54.6231 84.2445 54.6514 84.2125 54.6518C84.1866 54.6518 83.6902 54.5956 83.1095 54.5261C82.5287 54.4567 82.0348 54.3998 82.0118 54.3997C81.9637 54.3997 81.9656 54.3903 82.0674 54.1233C82.3012 53.5103 83.0325 52.8722 83.7886 52.6214C84.3503 52.435 84.7659 52.3914 85.8339 52.4067C86.5205 52.4165 86.6916 52.4258 86.914 52.4656C87.3908 52.5509 87.8405 52.7031 88.0873 52.8626C88.4148 53.0742 88.582 53.3127 88.6818 53.7102C88.811 54.2251 88.7738 54.6227 88.4182 56.5288C88.2257 57.5608 88.1558 58.0154 88.1553 58.2401C88.1549 58.4128 88.2057 58.7315 88.2566 58.8758L88.2908 58.9727H86.0152L85.9723 58.8751C85.9253 58.7681 85.8911 58.592 85.8675 58.335L85.8522 58.1683L85.7609 58.243C85.3294 58.5962 85.1024 58.7315 84.7167 58.8654C84.1455 59.0636 83.5354 59.1465 82.9269 59.1087ZM84.9491 57.6436C85.2288 57.5344 85.4081 57.4179 85.6274 57.2032C85.9081 56.9284 86.0143 56.6965 86.1002 56.1706C86.1176 56.064 86.1272 55.9721 86.1215 55.9665C86.0983 55.9432 84.6624 56.3263 84.4551 56.4111C83.9029 56.6369 83.7334 56.8175 83.7335 57.1803C83.7335 57.4042 83.7901 57.5199 83.9431 57.6096C84.096 57.6992 84.2673 57.732 84.5355 57.7231C84.7269 57.7167 84.796 57.7034 84.9491 57.6436ZM72.8729 58.9374C72.8729 58.9031 73.9284 52.8849 73.9781 52.6358L74.0022 52.5152H75.1725C76.2106 52.5152 76.3429 52.5192 76.3429 52.5506C76.3429 52.57 76.3067 52.786 76.2625 53.0307C76.153 53.6361 76.1538 53.6409 76.3192 53.3956C76.63 52.9347 77.1998 52.5434 77.7212 52.4329C77.9781 52.3784 78.5544 52.4009 78.7919 52.4747L78.8854 52.5037L78.696 53.5571C78.5919 54.1365 78.5019 54.6153 78.496 54.6211C78.4902 54.627 78.4041 54.6112 78.3047 54.5862C77.999 54.5091 77.758 54.4843 77.4482 54.4981C76.6323 54.5344 76.2165 54.8375 75.9527 55.5881C75.8369 55.9177 75.824 55.9802 75.5408 57.58L75.2963 58.9613L74.0846 58.9672C73.0008 58.9725 72.8729 58.9694 72.8729 58.9374ZM78.2055 58.9442C78.2061 58.9283 78.4575 57.4779 78.7641 55.721L79.3215 52.5267L81.6766 52.5147L81.6604 52.6011C81.6514 52.6486 81.3995 54.0991 81.1004 55.8243L80.5567 58.9612L79.3805 58.9672C78.4468 58.9719 78.2046 58.9672 78.2055 58.9442ZM88.5226 58.9597C88.5226 58.9399 90.0125 50.5262 90.0413 50.3838L90.0656 50.2631H91.19C91.8084 50.2631 92.3141 50.2709 92.3137 50.2804C92.3132 50.2898 92.1851 51.037 92.0289 51.9407C91.8727 52.8444 91.7474 53.5866 91.7504 53.5899C91.7534 53.5933 91.8376 53.5226 91.9375 53.4329C92.4772 52.9481 93.0104 52.6368 93.5554 52.4882C93.7245 52.4421 93.8031 52.4351 94.1414 52.4356C94.6131 52.4365 94.8171 52.4796 95.1836 52.6563C95.4983 52.8082 95.6921 52.9952 95.8262 53.2765C95.9718 53.5817 96.0014 53.732 96 54.1583C95.9985 54.5832 96.0282 54.3865 95.5682 57.0187C95.3838 58.0737 95.2329 58.9449 95.2329 58.9548C95.2329 58.9647 94.6849 58.9728 94.015 58.9728C92.9236 58.9728 92.797 58.969 92.797 58.9367C92.797 58.9168 92.9104 58.3041 93.0491 57.5751C93.4082 55.6867 93.4485 55.4361 93.4504 55.0776C93.4518 54.8031 93.4473 54.7695 93.3945 54.6641C93.3268 54.5289 93.2154 54.4463 93.0091 54.3782C92.6537 54.261 92.2382 54.3721 91.9898 54.6508C91.8633 54.7927 91.7023 55.0914 91.6251 55.3272C91.5968 55.414 91.4273 56.2671 91.2486 57.2231L90.9236 58.9613L89.7231 58.9673C89.0628 58.9706 88.5226 58.9672 88.5226 58.9597Z" fill="#00A6B5"/>
</g>
<rect x="1" y="1" width="110" height="110" rx="9" stroke="#CCCCCC" stroke-width="2"/>
<defs>
<clipPath id="clip0_528_53">
<rect x="2" y="2" width="108" height="108" rx="8" fill="white"/>
</clipPath>
</defs>
</svg>
