<svg width="112" height="112" viewBox="0 0 112 112" fill="none" xmlns="http://www.w3.org/2000/svg">
<g clip-path="url(#clip0_642_1013)">
<rect x="2" y="2" width="108" height="108" rx="8" fill="white"/>
<path d="M21.6177 59.0696C21.6177 58.5934 21.6229 57.3205 21.6112 57.1636C21.6214 55.2695 20.2442 53.9333 19.3741 54.0375C18.7721 54.0897 18.2675 54.3352 17.9966 55.0414C17.7455 55.6996 17.97 56.575 18.8048 56.7805C19.6975 57.0011 20.2188 57.1846 20.596 57.4436C21.0582 57.7606 21.4356 58.3663 21.4456 59.0704" fill="#0060AF"/>
<path d="M21.9743 61.9488C20.4003 61.9488 18.7826 61.5611 17.1672 60.7944L17.1275 60.7749L17.1086 60.7345C16.3836 59.2042 16.0002 57.5304 16.0002 55.8929C16.0002 54.2578 16.3679 52.6556 17.0934 51.1274L17.1133 51.0868L17.1537 51.0665C18.6481 50.3586 20.2557 50 21.9334 50C23.4962 50 25.1652 50.3992 26.7593 51.1565L26.8002 51.1747L26.819 51.2161C27.5579 52.7746 27.9475 54.4479 27.9475 56.0583C27.9475 57.6625 27.5734 59.266 26.8337 60.8236L26.8142 60.8645L26.773 60.8835C25.3015 61.5801 23.6419 61.9488 21.9743 61.9488ZM17.3167 60.5845C18.8861 61.3227 20.4512 61.6956 21.9743 61.6956C23.5893 61.6956 25.1954 61.3426 26.625 60.6734C27.3352 59.1641 27.6952 57.6108 27.6952 56.0583C27.6952 54.4996 27.3195 52.8782 26.6088 51.3656C25.0618 50.6384 23.4462 50.2527 21.9334 50.2527C20.3092 50.2527 18.7524 50.5972 17.3031 51.2768C16.6074 52.7581 16.2534 54.3102 16.2534 55.8929C16.2534 57.4785 16.6213 59.1006 17.3167 60.5845Z" fill="#0060AF"/>
<path d="M21.2447 59.0704C21.2476 58.4599 20.9069 57.9202 20.4616 57.6301C20.0665 57.3737 19.5362 57.2052 18.6807 56.9883C18.4163 56.9206 18.1396 56.7703 18.054 56.5788C17.8275 56.8071 17.7863 57.3203 17.8262 57.6201C17.8725 57.9672 18.2781 58.5392 18.8887 58.5616C19.2617 58.5766 19.7331 58.4814 19.9593 58.4333C20.3493 58.3491 20.9664 58.5934 21.0647 59.0696" fill="#0060AF"/>
<path d="M21.9331 51.0854C20.8977 51.0854 20.0033 51.7682 20.0065 52.9498C20.0098 53.9434 20.8089 54.4753 21.094 54.8553C21.5249 55.4278 21.7581 56.1055 21.7823 57.1424C21.8012 57.9677 21.8002 58.7826 21.8044 59.0714H22.033C22.029 58.7692 22.0187 57.9041 22.0305 57.1169C22.046 56.0796 22.2876 55.4278 22.7187 54.8553C23.0063 54.4753 23.8048 53.9434 23.8065 52.9498C23.8104 51.7682 22.9165 51.0854 21.882 51.0854" fill="#0060AF"/>
<path d="M22.196 59.0696C22.196 58.5934 22.1906 57.3205 22.2021 57.1636C22.192 55.2695 23.5683 53.9333 24.4391 54.0375C25.0412 54.0897 25.5452 54.3352 25.8169 55.0414C26.0678 55.6996 25.842 56.575 25.0081 56.7805C24.115 57.0011 23.5944 57.1846 23.2162 57.4436C22.7545 57.7606 22.4035 58.3663 22.3928 59.0704" fill="#0060AF"/>
<path d="M22.5688 59.0704C22.5656 58.4599 22.9062 57.9202 23.3502 57.6301C23.7468 57.3737 24.2778 57.2052 25.1325 56.9883C25.3975 56.9206 25.6738 56.7703 25.758 56.5788C25.9856 56.8071 26.0266 57.3203 25.9868 57.6201C25.9395 57.9672 25.535 58.5392 24.9254 58.5616C24.5526 58.5766 24.0786 58.4814 23.8535 58.4333C23.4649 58.3491 22.8461 58.5934 22.7474 59.0696" fill="#0060AF"/>
<path d="M22.8882 61.0411L22.7557 60.0744L23.0755 60.0259C23.1534 60.0152 23.2482 60.0288 23.2861 60.0776C23.328 60.1285 23.3408 60.1707 23.3489 60.2374C23.361 60.3201 23.3371 60.4156 23.244 60.4632V60.4661C23.3479 60.4661 23.4107 60.5408 23.4289 60.6668C23.4316 60.6934 23.4395 60.7577 23.4316 60.8114C23.4105 60.939 23.3344 60.9801 23.2058 60.9981L22.8882 61.0411ZM23.094 60.868C23.132 60.8626 23.1704 60.8606 23.2005 60.8414C23.2465 60.8114 23.2423 60.7471 23.2359 60.6994C23.2199 60.5944 23.1925 60.5546 23.0812 60.5711L23.0113 60.5818L23.0556 60.8734L23.094 60.868ZM23.027 60.4213C23.0694 60.4145 23.1268 60.4094 23.1507 60.3692C23.1632 60.3424 23.1792 60.321 23.1687 60.2614C23.1557 60.1906 23.1322 60.1467 23.0423 60.1638L22.9586 60.1772L22.9916 60.425" fill="#0060AF"/>
<path d="M24.2736 60.4597C24.2761 60.4777 24.279 60.4977 24.28 60.5157C24.3059 60.692 24.2736 60.838 24.0754 60.8782C23.7824 60.9346 23.7263 60.7526 23.6747 60.4977L23.6472 60.3598C23.6068 60.1159 23.5894 59.9313 23.8751 59.8744C24.0362 59.845 24.1426 59.9091 24.1869 60.0694C24.1938 60.0933 24.2024 60.117 24.2056 60.141L24.0303 60.1772C24.0101 60.117 23.9833 60.0094 23.9044 60.0184C23.7629 60.0355 23.8096 60.2116 23.8242 60.2852L23.8768 60.5498C23.8927 60.6299 23.9241 60.7577 24.0466 60.7331C24.146 60.7131 24.1027 60.5582 24.0939 60.4948" fill="#0060AF"/>
<path d="M24.5548 60.7522L24.4942 59.7517L24.7297 59.6799L25.2234 60.55L25.038 60.6055L24.921 60.3844L24.7151 60.4462L24.7417 60.6976L24.5548 60.7522ZM24.6979 60.2846L24.8467 60.2415L24.6491 59.8367" fill="#0060AF"/>
<path d="M18.7388 59.9958C18.8125 59.7599 18.8785 59.5863 19.1596 59.6634C19.3101 59.7054 19.4034 59.7718 19.399 59.9466C19.3983 59.9855 19.3854 60.0251 19.377 60.0636L19.202 60.0152C19.2249 59.9187 19.2395 59.8421 19.1205 59.8055C18.9831 59.7678 18.9496 59.9344 18.9306 60.0064L18.8594 60.2687C18.8368 60.3466 18.8097 60.4753 18.9306 60.5085C19.0306 60.5354 19.0912 60.4373 19.1274 60.294L19.005 60.2616L19.0473 60.1098L19.3352 60.2024L19.1985 60.708L19.066 60.672L19.0959 60.5651H19.0921C19.0311 60.6525 18.9567 60.6616 18.8915 60.6491C18.6036 60.5713 18.6336 60.3831 18.7024 60.1317" fill="#0060AF"/>
<path d="M19.8105 60.4228L19.7238 60.8341L19.5286 60.7919L19.7366 59.8315L20.0693 59.9067C20.2641 59.9487 20.3229 60.0355 20.2953 60.214C20.2796 60.3164 20.2291 60.4268 20.1058 60.4179L20.1045 60.4162C20.2087 60.4527 20.2176 60.5053 20.1994 60.5962C20.1915 60.6349 20.1373 60.8696 20.1747 60.9075L20.176 60.9363L19.974 60.8836C19.9656 60.8185 19.9942 60.7016 20.0055 60.6368C20.0169 60.5795 20.0351 60.4987 19.9769 60.4683C19.9314 60.4441 19.9144 60.4453 19.863 60.4334L19.8105 60.4228ZM19.8438 60.2741L19.9752 60.3095C20.055 60.321 20.0994 60.2797 20.1151 60.1833C20.1293 60.0948 20.1109 60.0602 20.0393 60.0431L19.8984 60.0146" fill="#0060AF"/>
<path d="M21.0624 60.0461L21.2555 60.0685L21.1723 60.7436C21.1319 60.9577 21.0492 61.0513 20.8137 61.022C20.5741 60.9917 20.5172 60.8826 20.5318 60.6668L20.6155 59.9923L20.81 60.0146L20.7265 60.674C20.7177 60.7457 20.7011 60.8518 20.8286 60.8646C20.9416 60.8732 20.9672 60.7983 20.9799 60.7053" fill="#0060AF"/>
<path d="M21.4683 61.0589L21.5264 60.0935L21.8973 60.1096C22.0725 60.1182 22.1184 60.2614 22.1129 60.3979C22.1078 60.481 22.0819 60.5737 22.0095 60.6241C21.9501 60.6668 21.8739 60.6769 21.8031 60.6735L21.6822 60.6668L21.6581 61.0714L21.4683 61.0589ZM21.6877 60.5196L21.786 60.5251C21.8658 60.528 21.9187 60.4964 21.9256 60.3792C21.9295 60.2666 21.8869 60.2476 21.7835 60.243L21.7056 60.2404" fill="#0060AF"/>
<path d="M47.6264 52.0185L46.1523 54.6939C45.5959 54.2421 44.9165 53.9096 44.0497 53.9096C41.9984 53.9096 41.1652 55.4387 41.1652 56.5158C41.1652 57.3153 41.6887 58.4949 43.5139 58.4949C44.28 58.4949 45.3692 57.9619 45.6827 57.7195L44.2248 60.8234C43.5299 60.9621 43.3016 61.048 42.7133 61.0662C39.4465 61.1637 38.1264 59.1569 38.1273 57.1062C38.1295 54.3953 40.5397 51.0984 44.5353 51.0984C44.7802 51.0984 45.0796 51.1831 45.3357 51.2769L45.5944 50.946" fill="#0060AF"/>
<path d="M53.7086 51.0299L54.126 60.7541H51.0196L51.0177 59.0863H48.8995L48.2023 60.7541H44.8334L48.3555 53.8102L47.5613 53.805L49.0704 51.0299H53.7086ZM50.9976 54.0047L49.8 56.8331H51.0337" fill="#0060AF"/>
<path d="M36.1662 51.0299C37.7045 51.0385 38.5738 51.8736 38.5738 53.0798C38.5738 54.1918 37.657 55.1762 36.6506 55.6852C37.6868 56.0661 37.7764 57.0011 37.7764 57.6626C37.7764 59.2607 36.1727 60.7541 34.0882 60.7541H29.5422L31.3155 53.9069L30.5871 53.9027L32.0761 51.0299C32.0761 51.0299 34.9152 51.0213 36.1662 51.0299ZM34.6569 54.9725C34.9751 54.9725 35.537 54.8919 35.6774 54.2761C35.8314 53.6076 35.3041 53.5896 35.0512 53.5896L34.1474 53.5856L33.8322 54.9725L34.6569 54.9725ZM33.3791 56.6908L32.963 58.289H34.0272C34.4459 58.289 35.0165 58.0812 35.1563 57.5611C35.2944 57.0395 34.8955 56.6908 34.4783 56.6908" fill="#0060AF"/>
<path d="M76.0011 52.9514C76.0011 52.9324 76.2974 51.1623 76.3146 51.0786L76.3236 51.0346H77.6823C78.4295 51.0346 79.0409 51.0386 79.0409 51.0435C79.0409 51.0483 78.9689 51.477 78.8809 51.9962C78.7929 52.5153 78.7209 52.9469 78.7209 52.9553C78.7209 52.9648 78.2126 52.9705 77.361 52.9705C76.3186 52.9705 76.0011 52.9661 76.0011 52.9514Z" fill="#00A6B5"/>
<path d="M64.188 52.9234C64.1932 52.8974 64.2671 52.4636 64.3523 51.9594L64.5072 51.0426L67.2328 51.0345L67.2242 51.0785C67.2194 51.1028 67.1455 51.5366 67.0599 52.0426L66.9043 52.9625L64.1785 52.9707L64.188 52.9234Z" fill="#00A6B5"/>
<path d="M91.6529 60.6301C91.6573 60.6103 92.0306 58.5008 92.4825 55.9424L93.3039 51.2906H96V51.3639C96 51.4196 94.4645 60.1705 94.3825 60.5821L94.3658 60.6661H91.6448L91.6529 60.6301Z" fill="#00A6B5"/>
<path d="M74.6412 60.6477C74.6412 60.6158 75.8277 53.8592 75.8355 53.8465C75.8396 53.8399 76.4509 53.8345 77.194 53.8345C78.4487 53.8345 78.545 53.8364 78.545 53.8614C78.545 53.8803 77.6243 59.1567 77.3666 60.6141L77.3575 60.6661H75.9993C74.9849 60.6661 74.6412 60.6614 74.6412 60.6477Z" fill="#00A6B5"/>
<path d="M62.8271 60.6382C62.8306 60.6227 63.0965 59.1054 63.418 57.2663C63.7395 55.4272 64.0065 53.9027 64.0114 53.8785L64.0203 53.8345H65.379C66.4557 53.8345 66.7374 53.8386 66.7368 53.8545C66.7363 53.8655 66.468 55.4008 66.1405 57.2663L65.5451 60.6581L64.1829 60.6622C62.891 60.6661 62.8211 60.6648 62.8271 60.6382Z" fill="#00A6B5"/>
<path d="M80.5784 60.7139C80.1911 60.6871 79.8871 60.6349 79.6732 60.5587C79.3141 60.4308 79.1032 60.1829 79.0227 59.7941C78.9933 59.6521 78.9906 59.5974 78.9984 59.3062C79.007 58.9807 79.0352 58.7329 79.1037 58.3782C79.1215 58.2858 79.2407 57.5983 79.3686 56.8503C79.4964 56.1024 79.6047 55.4742 79.6093 55.4544L79.6175 55.4184H79.1292C78.6745 55.4184 78.641 55.4165 78.6419 55.3904C78.6424 55.375 78.7022 55.0204 78.7748 54.6024L78.9068 53.8425L79.9154 53.834L80.0152 53.2783C80.07 52.9726 80.1553 52.4976 80.2046 52.2226L80.2944 51.7226H81.6276C82.3608 51.7226 82.9603 51.728 82.9599 51.7346C82.9594 51.7412 82.8747 52.2146 82.7717 52.7865L82.5843 53.8265L83.8911 53.8348L83.8821 53.8787C83.8771 53.9028 83.8188 54.2393 83.7525 54.6264C83.6862 55.0136 83.628 55.3502 83.6231 55.3744L83.6141 55.4184H82.9594C82.5689 55.4184 82.3047 55.4244 82.3047 55.4332C82.3047 55.4413 82.1997 56.0407 82.0714 56.7651C81.824 58.1614 81.8007 58.3181 81.8259 58.4136C81.85 58.5043 81.9349 58.6053 82.0226 58.6473C82.1882 58.7266 82.3161 58.7462 82.6676 58.7462H82.9933L82.985 58.7822C82.9804 58.802 82.9156 59.2142 82.8411 59.6982C82.7666 60.1821 82.7018 60.6002 82.697 60.6271L82.6884 60.6762L82.2046 60.6963C81.5647 60.723 80.8246 60.731 80.5784 60.7139Z" fill="#00A6B5"/>
<path d="M84.1581 60.5827C83.946 60.4767 83.9176 60.457 83.783 60.323C83.6306 60.1714 83.5429 60.0396 83.4677 59.8494C83.377 59.62 83.359 59.443 83.3862 59.0502C83.4143 58.6463 83.4677 58.443 83.6259 58.1382C83.7205 57.9561 83.8071 57.8438 84.0125 57.6365C84.3967 57.2487 84.8064 57.0098 85.3616 56.85C85.5954 56.7827 86.4146 56.6447 87.1181 56.5541C87.9083 56.4522 88.3421 56.3696 88.5074 56.2893C88.6175 56.2358 88.7405 56.0996 88.7848 55.9823C88.8536 55.8002 88.8003 55.5788 88.6622 55.4735C88.5899 55.4184 88.3631 55.3506 88.1531 55.3215C87.9383 55.2916 87.5834 55.3511 87.3658 55.4533C87.2436 55.5108 87.0966 55.6608 87.0339 55.7923C87.0039 55.855 86.9754 55.919 86.9705 55.9344C86.962 55.9607 86.8846 55.9624 85.6415 55.9624H84.3214L84.3308 55.9104C84.4651 55.1638 84.9018 54.5776 85.6006 54.2063C86.2201 53.8771 87.0305 53.7145 88.2164 53.6813C89.2049 53.6537 90.1297 53.7857 90.6576 54.0298C90.9579 54.1687 91.2016 54.378 91.3149 54.5944C91.433 54.8199 91.5042 55.1602 91.5042 55.4988C91.5042 55.7398 91.488 55.9321 91.4388 56.2743C91.4051 56.5087 90.8199 59.8153 90.809 59.8329C90.8056 59.8385 90.7947 59.9022 90.7848 59.9744C90.7529 60.2075 90.82 60.4157 90.9724 60.5562C91.042 60.6203 91.0436 60.624 91.0301 60.6873L91.0163 60.7524L90.7843 60.7475C90.6567 60.7448 90.0267 60.7272 89.3844 60.7084L88.2164 60.6741L88.2078 59.9468L88.1081 60.0277C87.6627 60.3892 87.0897 60.6613 86.5285 60.7776C85.6977 60.9293 84.8491 60.9237 84.1581 60.5827ZM87.1685 59.3532C87.325 59.3281 87.5234 59.2544 87.6677 59.1677C88.1123 58.9007 88.3611 58.4456 88.4558 57.7263C88.4607 57.6889 88.4613 57.6583 88.457 57.6583C88.4527 57.6583 88.3969 57.679 88.3328 57.7043C88.093 57.7992 87.7993 57.8846 87.5306 57.9376C87.083 58.0259 86.7824 58.1143 86.5776 58.2177C86.4607 58.2767 86.3317 58.4152 86.2678 58.5501C86.2232 58.6441 86.2158 58.6785 86.2111 58.8133C86.206 58.9582 86.2085 58.9739 86.2503 59.0506C86.301 59.1439 86.3561 59.1952 86.4635 59.2497C86.6609 59.3497 86.9374 59.3903 87.1685 59.3532Z" fill="#00A6B5"/>
<path d="M69.1055 62.9057C68.4313 62.8501 67.9088 62.7334 67.5228 62.552C67.1834 62.3925 66.8656 62.1373 66.6819 61.8766C66.5399 61.6751 66.4324 61.3709 66.4098 61.1061C66.4043 61.042 66.4069 60.9841 66.4159 60.9708C66.4296 60.9505 66.5969 60.9521 67.7405 60.9835C68.4604 61.0032 69.0795 61.023 69.1162 61.0275C69.1805 61.0354 69.1833 61.0381 69.1936 61.1029C69.2179 61.2565 69.2832 61.3378 69.45 61.4223C69.5759 61.4861 69.7023 61.504 69.9507 61.4933C70.2716 61.4795 70.4983 61.4043 70.7003 61.2446C70.9146 61.0752 71.1575 60.5854 71.1946 60.2477C71.2007 60.1918 71.2292 60.0237 71.258 59.8741C71.2867 59.7246 71.3088 59.6006 71.307 59.5987C71.3052 59.5968 71.2501 59.6352 71.1846 59.684C70.6976 60.0466 70.1554 60.2585 69.5731 60.3138C69.3673 60.3334 68.8975 60.3203 68.6973 60.2895C68.1979 60.2126 67.7077 59.9621 67.3747 59.6135C66.9267 59.1446 66.6793 58.4306 66.7138 57.7063C66.7466 57.0188 66.8645 56.5109 67.1335 55.8984C67.3436 55.4201 67.624 54.9895 67.9438 54.6541C68.4829 54.0886 69.1372 53.7559 69.9534 53.6323C70.2295 53.5905 70.6482 53.5939 70.8604 53.6396C71.4577 53.7683 71.9373 54.0797 72.2264 54.5267C72.3077 54.6525 72.3207 54.666 72.3283 54.6326C72.333 54.6116 72.366 54.4324 72.4015 54.2345C72.4369 54.0365 72.47 53.8547 72.4749 53.8305L72.4838 53.7865H74.8818L74.8733 53.8225C74.8686 53.8423 74.6453 55.0932 74.3769 56.6023C73.7951 59.8741 73.827 59.7025 73.7296 60.0821C73.4927 61.0055 73.3044 61.4047 72.8808 61.8813C72.6117 62.1841 72.1734 62.4753 71.7773 62.6145C71.5047 62.7103 70.9777 62.8172 70.4894 62.8759C70.1818 62.9128 69.3971 62.9298 69.1055 62.9057ZM70.7184 58.4255C70.9197 58.375 71.0946 58.2777 71.234 58.1386C71.4958 57.8773 71.6934 57.4938 71.7675 57.1029C71.8061 56.8996 71.8179 56.4586 71.7885 56.3223C71.7295 56.049 71.6241 55.8713 71.4455 55.7438C71.2664 55.616 71.1599 55.5859 70.8974 55.5888C70.4376 55.5939 70.1626 55.7378 69.9241 56.0984C69.7391 56.3778 69.6284 56.6639 69.559 57.0414C69.5231 57.2372 69.5187 57.2962 69.5254 57.4983C69.5318 57.6909 69.5401 57.752 69.5747 57.8583C69.682 58.1881 69.9196 58.3983 70.2536 58.4586C70.3584 58.4776 70.5715 58.4624 70.7184 58.4255Z" fill="#00A6B5"/>
<path d="M56.9411 60.8334C56.0084 60.7063 55.3671 60.1917 55.0377 59.3062C54.8713 58.8587 54.8365 58.408 54.9072 57.6135C54.9407 57.2366 55.064 56.7594 55.2637 56.2343C55.4155 55.835 55.5101 55.6484 55.7382 55.2984C56.3205 54.405 57.0586 53.8702 57.9798 53.6744C58.5396 53.5555 59.3644 53.6677 59.7886 53.9206C59.9459 54.0143 60.1617 54.2092 60.2771 54.3617C60.3207 54.4193 60.361 54.4649 60.3667 54.4631C60.3723 54.4612 60.5037 53.7412 60.6585 52.8631L60.9401 51.2666L63.6664 51.2584L63.6581 51.2945C63.6536 51.3144 63.2823 53.4185 62.833 55.9704C62.3838 58.5222 62.0125 60.6227 62.008 60.6381C62.0002 60.6644 61.9277 60.6661 60.7766 60.6661H59.5534L59.5615 60.6301C59.566 60.6103 59.599 60.4249 59.6349 60.2181C59.6708 60.0113 59.7043 59.8241 59.7093 59.8021C59.716 59.7728 59.6613 59.818 59.5042 59.9715C59.1767 60.2916 58.7993 60.5551 58.5073 60.6677C58.3359 60.7338 58.0638 60.803 57.856 60.8333C57.647 60.8638 57.1644 60.8638 56.9411 60.8334ZM58.7817 58.8903C59.0853 58.8178 59.3276 58.6584 59.524 58.4022C59.6203 58.2766 59.7237 58.1067 59.7794 57.9829C59.9744 57.5491 60.066 56.8233 59.9727 56.4503C59.9213 56.2444 59.839 56.0862 59.7226 55.9693C59.5504 55.7962 59.3486 55.7304 59.0353 55.7452C58.7084 55.7606 58.491 55.8502 58.2383 56.0736C58.1025 56.1937 57.8941 56.5389 57.7885 56.8186C57.6689 57.1354 57.5941 57.6152 57.6064 57.9853C57.6155 58.2558 57.6443 58.3839 57.7377 58.5695C57.8212 58.7352 57.9917 58.8634 58.1994 58.9165C58.31 58.9448 58.6099 58.9313 58.7817 58.8903Z" fill="#00A6B5"/>
</g>
<rect x="1" y="1" width="110" height="110" rx="9" stroke="#CCCCCC" stroke-width="2"/>
<defs>
<clipPath id="clip0_642_1013">
<rect x="2" y="2" width="108" height="108" rx="8" fill="white"/>
</clipPath>
</defs>
</svg>
