<svg width="112" height="112" viewBox="0 0 112 112" fill="none" xmlns="http://www.w3.org/2000/svg">
<g clip-path="url(#clip0_6_7359)">
<rect x="1.99991" y="2" width="108" height="108" rx="8" fill="white"/>
<path d="M27.7878 62.0307C27.7878 61.0314 27.7986 58.3604 27.774 58.0313C27.7955 54.0568 24.9057 51.2531 23.08 51.4717C21.8167 51.5813 20.758 52.0964 20.1895 53.5783C19.6627 54.9593 20.1337 56.7963 21.8855 57.2273C23.7586 57.6902 24.8523 58.0754 25.6439 58.6188C26.6138 59.284 27.4056 60.5549 27.4266 62.0323" fill="#0060AF"/>
<path d="M28.5354 68.0722C25.2327 68.0722 21.8384 67.2588 18.4486 65.6499L18.3654 65.609L18.3256 65.5242C16.8044 62.3132 16 58.8011 16 55.365C16 51.9341 16.7714 48.5723 18.2938 45.3656L18.3356 45.2804L18.4203 45.2379C21.5561 43.7525 24.9293 43 28.4496 43C31.7288 43 35.2309 43.8377 38.5757 45.4267L38.6616 45.4649L38.7012 45.5517C40.2515 48.8219 41.0691 52.333 41.0691 55.7122C41.0691 59.0783 40.2841 62.443 38.7319 65.7111L38.691 65.797L38.6047 65.8368C35.5169 67.2985 32.0346 68.0722 28.5354 68.0722ZM18.7623 65.2096C22.0554 66.7586 25.3396 67.5409 28.5354 67.5409C31.9241 67.5409 35.2942 66.8001 38.2941 65.396C39.7843 62.2291 40.5397 58.9698 40.5397 55.7122C40.5397 52.4415 39.7513 49.0393 38.26 45.8654C35.0139 44.3395 31.6239 43.5303 28.4496 43.5303C25.0415 43.5303 21.7749 44.2531 18.7338 45.6791C17.2741 48.7873 16.5312 52.0442 16.5312 55.365C16.5312 58.6922 17.3033 62.0958 18.7623 65.2096Z" fill="#0060AF"/>
<path d="M27.005 62.0323C27.0111 60.7514 26.2962 59.6187 25.3618 59.01C24.5329 58.4721 23.4201 58.1186 21.625 57.6633C21.0701 57.5214 20.4897 57.2061 20.31 56.8042C19.8346 57.2832 19.7483 58.36 19.8319 58.9892C19.9291 59.7175 20.7801 60.9177 22.0615 60.9648C22.844 60.9962 23.8333 60.7963 24.3078 60.6956C25.1262 60.5188 26.4212 61.0314 26.6273 62.0307" fill="#0060AF"/>
<path d="M28.4496 45.2773C26.277 45.2773 24.4002 46.7102 24.407 49.1895C24.4138 51.2744 26.0905 52.3905 26.6888 53.1878C27.5929 54.3891 28.0823 55.8111 28.1331 57.9868C28.1727 59.7185 28.1706 61.4284 28.1795 62.0344H28.6591C28.6507 61.4003 28.629 59.5851 28.6539 57.9333C28.6864 55.7568 29.1934 54.3891 30.098 53.1878C30.7015 52.3905 32.3768 51.2744 32.3805 49.1895C32.3886 46.7102 30.513 45.2773 28.3422 45.2773" fill="#0060AF"/>
<path d="M29.0012 62.0307C29.0012 61.0314 28.9899 58.3604 29.0141 58.0313C28.9928 54.0568 31.8808 51.2531 33.708 51.4717C34.9713 51.5813 36.0289 52.0964 36.599 53.5783C37.1254 54.9593 36.6516 56.7963 34.9019 57.2273C33.0279 57.6902 31.9355 58.0754 31.1419 58.6188C30.1731 59.284 29.4367 60.5549 29.4141 62.0323" fill="#0060AF"/>
<path d="M29.7833 62.0323C29.7765 60.7514 30.4912 59.6187 31.4229 59.01C32.2551 58.4721 33.3692 58.1186 35.1628 57.6633C35.7188 57.5214 36.2986 57.2061 36.4751 56.8042C36.9527 57.2832 37.0388 58.36 36.9552 58.9892C36.856 59.7175 36.0072 60.9177 34.7281 60.9648C33.9458 60.9962 32.9513 60.7963 32.4789 60.6956C31.6636 60.5188 30.3651 61.0314 30.158 62.0307" fill="#0060AF"/>
<path d="M30.4536 66.1675L30.1755 64.1389L30.8466 64.0372C31.01 64.0148 31.2089 64.0433 31.2885 64.1457C31.3764 64.2526 31.4033 64.341 31.4203 64.4811C31.4456 64.6545 31.3954 64.855 31.2001 64.9549V64.961C31.4183 64.961 31.55 65.1176 31.5882 65.382C31.5939 65.4379 31.6104 65.5728 31.5939 65.6854C31.5496 65.9532 31.3898 66.0393 31.1201 66.0771L30.4536 66.1675ZM30.8855 65.8043C30.9651 65.7929 31.0458 65.7887 31.1088 65.7485C31.2053 65.6854 31.1965 65.5505 31.1832 65.4503C31.1495 65.2302 31.0921 65.1466 30.8586 65.1811L30.7119 65.2037L30.8048 65.8156L30.8855 65.8043ZM30.7449 64.8669C30.8337 64.8525 30.9542 64.8418 31.0044 64.7575C31.0306 64.7013 31.0643 64.6565 31.0421 64.5313C31.0148 64.3828 30.9655 64.2908 30.777 64.3265L30.6014 64.3548L30.6705 64.8746" fill="#0060AF"/>
<path d="M33.3605 64.9474C33.3657 64.9851 33.3718 65.0272 33.3741 65.0649C33.4283 65.4349 33.3605 65.7412 32.9446 65.8255C32.3298 65.944 32.2121 65.562 32.1038 65.0272L32.0462 64.7379C31.9614 64.2261 31.925 63.8387 32.5245 63.7194C32.8624 63.6577 33.0857 63.7921 33.1786 64.1285C33.193 64.1787 33.2111 64.2284 33.2179 64.2788L32.8502 64.3547C32.8077 64.2284 32.7514 64.0026 32.5859 64.0216C32.2889 64.0573 32.387 64.4268 32.4175 64.5812L32.5281 65.1366C32.5613 65.3045 32.6273 65.5728 32.8843 65.5211C33.0929 65.4792 33.0021 65.1542 32.9835 65.0211" fill="#0060AF"/>
<path d="M33.9507 65.5614L33.8235 63.462L34.3176 63.3113L35.3535 65.1372L34.9645 65.2536L34.719 64.7895L34.2871 64.9193L34.3429 65.4468L33.9507 65.5614ZM34.2509 64.5802L34.5631 64.4898L34.1485 63.6404" fill="#0060AF"/>
<path d="M21.7467 63.9742C21.9013 63.4792 22.0399 63.1149 22.6298 63.2767C22.9456 63.3649 23.1414 63.5041 23.1321 63.8709C23.1306 63.9525 23.1036 64.0357 23.086 64.1164L22.7187 64.0149C22.7668 63.8124 22.7973 63.6517 22.5478 63.5748C22.2594 63.4957 22.1891 63.8454 22.1493 63.9964L21.9999 64.5468C21.9524 64.7102 21.8955 64.9803 22.1493 65.0499C22.3591 65.1064 22.4863 64.9005 22.5623 64.5999L22.3053 64.5319L22.3941 64.2134L22.9983 64.4078L22.7114 65.4685L22.4334 65.393L22.496 65.1688H22.4881C22.3602 65.3521 22.204 65.3713 22.0672 65.3451C21.4631 65.1817 21.5261 64.7868 21.6703 64.2593" fill="#0060AF"/>
<path d="M23.9956 64.8701L23.8136 65.7331L23.4041 65.6445L23.8405 63.6294L24.5387 63.7872C24.9474 63.8753 25.0708 64.0573 25.0129 64.4318C24.9799 64.6468 24.8739 64.8784 24.6151 64.8597L24.6124 64.8562C24.8312 64.9328 24.8497 65.0431 24.8115 65.2339C24.7951 65.315 24.6814 65.8075 24.7598 65.8871L24.7625 65.9474L24.3387 65.8369C24.3211 65.7004 24.381 65.4549 24.4047 65.3191C24.4286 65.1988 24.4668 65.0293 24.3448 64.9656C24.2492 64.9147 24.2137 64.9172 24.1057 64.8923L23.9956 64.8701ZM24.0654 64.5579L24.3412 64.6323C24.5087 64.6565 24.6018 64.5697 24.6348 64.3674C24.6646 64.1818 24.626 64.1093 24.4757 64.0733L24.18 64.0134" fill="#0060AF"/>
<path d="M26.6225 64.0796L27.0276 64.1266L26.8531 65.5431C26.7683 65.9922 26.5947 66.1887 26.1006 66.1272C25.5979 66.0637 25.4786 65.8347 25.5091 65.382L25.6847 63.9666L26.0929 64.0133L25.9177 65.3971C25.8992 65.5474 25.8644 65.77 26.1318 65.7969C26.3689 65.815 26.4227 65.6579 26.4494 65.4626" fill="#0060AF"/>
<path d="M27.4741 66.2049L27.596 64.1792L28.3742 64.2129C28.7419 64.231 28.8382 64.5314 28.8267 64.818C28.8161 64.9922 28.7616 65.1868 28.6097 65.2924C28.4852 65.3821 28.3251 65.4034 28.1766 65.3962L27.923 65.3821L27.8724 66.2311L27.4741 66.2049ZM27.9345 65.0732L28.1407 65.0847C28.3082 65.0908 28.4192 65.0246 28.4336 64.7786C28.4418 64.5424 28.3525 64.5024 28.1355 64.4929L27.9721 64.4873" fill="#0060AF"/>
<path d="M82.3618 47.2352L79.2688 52.8491C78.1013 51.9012 76.6758 51.2034 74.8569 51.2034C70.5526 51.2034 68.8042 54.4119 68.8042 56.672C68.8042 58.3496 69.9027 60.8249 73.7326 60.8249C75.3401 60.8249 77.6255 59.7065 78.2833 59.1977L75.2242 65.7108C73.7661 66.0017 73.2871 66.182 72.0527 66.2202C65.1979 66.4248 62.4279 62.2138 62.4299 57.9109C62.4345 52.2226 67.4919 45.3047 75.8758 45.3047C76.3896 45.3047 77.018 45.4824 77.5552 45.6792L78.0982 44.9849" fill="#0060AF"/>
<path d="M95.1241 45.1609L96 65.5651H89.4817L89.4779 62.0657H85.0332L83.5703 65.5651H76.5012L83.8917 50.9948L82.2252 50.9839L85.3917 45.1609H95.1241ZM89.4356 51.403L86.9226 57.3378H89.5113" fill="#0060AF"/>
<path d="M58.3149 45.1609C61.5428 45.179 63.3669 46.9311 63.3669 49.4622C63.3669 51.7956 61.4431 53.861 59.3313 54.929C61.5055 55.7283 61.6936 57.6902 61.6936 59.0783C61.6936 62.4317 58.3287 65.5651 53.9547 65.5651H44.4158L48.1367 51.1977L46.6083 51.1889L49.7327 45.1609C49.7327 45.1609 55.69 45.1428 58.3149 45.1609ZM55.1479 53.4336C55.8156 53.4336 56.9946 53.2645 57.2894 51.9723C57.6124 50.5696 56.5059 50.5318 55.9752 50.5318L54.0788 50.5235L53.4175 53.4337L55.1479 53.4336ZM52.4668 57.0392L51.5936 60.3926H53.8266C54.7051 60.3926 55.9024 59.9566 56.1958 58.8653C56.4856 57.7709 55.6486 57.0392 54.7732 57.0392" fill="#0060AF"/>
</g>
<rect x="1" y="1" width="110" height="110" rx="9" stroke="#CCCCCC" stroke-width="2"/>
<defs>
<clipPath id="clip0_6_7359">
<rect x="2" y="2" width="108" height="108" rx="8" fill="white"/>
</clipPath>
</defs>
</svg>
