<svg width="112" height="112" viewBox="0 0 112 112" fill="none" xmlns="http://www.w3.org/2000/svg">
<g clip-path="url(#clip0_6_7361)">
<rect x="1.99988" y="2" width="108" height="108" rx="8" fill="white"/>
<path d="M16.0091 55.6526C16.0091 49.9338 16.0091 44.2153 16.0091 38.4973C16.011 37.989 15.9132 38.0033 16.5226 38.0033C19.3719 38.0033 22.2211 38.0033 25.0704 38.0033C25.5192 38 25.5192 37.9961 25.5192 38.4352C25.5192 42.9345 25.5192 47.4337 25.5192 51.933C25.5192 52.148 25.4985 52.3649 25.5554 52.5767C25.659 52.9613 25.8792 53.0624 26.236 52.881C26.5928 52.6997 26.8389 52.3954 27.1277 52.1383C28.9264 50.527 31.0934 49.3822 33.4382 48.8046C36.1463 48.126 38.8285 48.2043 41.4551 49.1686C43.9275 50.0751 45.8183 51.6941 47.1063 54.0013C48.507 56.5126 48.8464 59.2272 48.6521 62.0428C48.5226 63.957 48.0583 65.7831 47.1588 67.4869C45.6895 70.2714 43.4269 72.0735 40.3976 72.9031C38.4666 73.4321 36.5031 73.4438 34.5274 73.1867C32.7732 72.9588 31.1238 72.4388 29.5995 71.5328C28.2642 70.7389 27.1588 69.6957 26.2321 68.4563C25.9414 68.0677 25.6493 67.6792 25.2763 67.3632C24.6858 66.8665 24.2066 66.9053 23.7222 67.5063C23.2611 68.0781 22.9088 68.725 22.5099 69.3389C21.2796 71.2285 19.6607 72.5806 17.4233 73.1064C17.0801 73.1874 16.7304 73.2424 16.3827 73.3007C16.1295 73.3441 15.9903 73.2845 16 72.9685C16.0239 72.2464 16.0091 71.5231 16.0091 70.8004C16.0095 65.7512 16.0095 60.7019 16.0091 55.6526ZM33.3974 65.7248C34.9114 65.7203 36.068 65.4535 37.2601 64.8325C39.5156 63.6572 40.3814 60.8338 39.1789 58.5848C38.6854 57.6627 37.8889 57.0844 36.9584 56.6978C34.6213 55.7264 32.2564 55.7497 29.8999 56.633C29.0879 56.9374 28.3529 57.3952 27.8141 58.1062C27.1193 59.0238 26.9322 60.0813 27.0125 61.1951C27.1225 62.7324 27.8277 63.9065 29.1818 64.6861C30.4931 65.4386 31.9061 65.73 33.3974 65.7248Z" fill="#33CDCF"/>
<path d="M95.9981 61.0139V72.8591C95.9981 73.339 95.9981 73.3435 95.5098 73.2768C93.1423 72.953 91.2495 71.8308 89.8689 69.8745C89.4221 69.2412 89.0141 68.5794 88.5854 67.9318C88.4067 67.6624 88.2254 67.3969 87.9573 67.2001C87.651 66.9754 87.3466 66.9676 87.0235 67.156C86.4757 67.4759 86.1227 67.9843 85.7556 68.4751C84.3484 70.353 82.5572 71.7084 80.338 72.501C77.9725 73.3461 75.5344 73.4575 73.0646 73.2723C72.0101 73.2017 70.9698 72.9907 69.9712 72.6448C68.3976 72.0866 67.3201 70.9993 66.6039 69.5177C65.8307 67.9111 65.525 66.1892 65.321 64.4376C65.0691 62.2786 65.0724 60.1118 65.0737 57.9438C65.0737 54.9879 65.0704 52.032 65.064 49.076C65.064 48.7523 65.1546 48.6545 65.4829 48.6558C68.397 48.6668 71.311 48.6603 74.225 48.6597C74.5793 48.6597 74.5903 48.6752 74.5896 49.1576C74.5896 50.8728 74.5883 52.588 74.5857 54.3032C74.5857 56.0406 74.5696 57.7774 74.6 59.5135C74.6207 60.6895 74.7295 61.8609 75.0533 63.0013C75.4418 64.3734 76.1541 65.4931 77.6079 65.8836C80.8308 66.75 83.3136 65.936 85.0769 62.884C86.0191 61.2541 86.4595 59.4675 86.4821 57.5954C86.5145 54.8879 86.4938 52.1798 86.4931 49.4717C86.4931 48.6784 86.4886 48.6771 87.2903 48.6771C90.0308 48.6771 92.7721 48.6771 95.5143 48.6771C96.0046 48.6771 96.0058 48.6771 96.0058 49.1693V61.0139H95.9981Z" fill="#33CDCF"/>
<path d="M61.3864 55.6927C61.3864 61.4211 61.3864 67.1494 61.3864 72.8778C61.3864 73.3136 61.3864 73.3136 60.9506 73.3142C58.0592 73.3142 55.1672 73.309 52.2732 73.3214C51.9494 73.3214 51.8581 73.2443 51.8588 72.9114C51.8696 61.4228 51.873 49.9335 51.8691 38.4436C51.8691 38.0175 51.8691 38.0168 52.2881 38.0168H60.9655C61.389 38.0168 61.3897 38.0168 61.3897 38.4416L61.3864 55.6927Z" fill="#33CDCF"/>
</g>
<rect x="1" y="1" width="110" height="110" rx="9" stroke="#CCCCCC" stroke-width="2"/>
<defs>
<clipPath id="clip0_6_7361">
<rect x="2" y="2" width="108" height="108" rx="8" fill="white"/>
</clipPath>
</defs>
</svg>
