<svg width="112" height="112" viewBox="0 0 112 112" fill="none" xmlns="http://www.w3.org/2000/svg">
<g clip-path="url(#clip0_6_7362)">
<rect x="2" y="2" width="108" height="108" rx="8" fill="white"/>
<path fill-rule="evenodd" clip-rule="evenodd" d="M16 52.1352L22.749 60.6488L16 66.2413V52.1352Z" fill="#F15A23"/>
<path fill-rule="evenodd" clip-rule="evenodd" d="M18.7163 66.2413L23.7946 61.993L27.3046 66.2413H18.7163Z" fill="#F15A23"/>
<path fill-rule="evenodd" clip-rule="evenodd" d="M16 47.5796L17.7612 49.8075L25.0028 58.8564L27.3493 56.9878C27.3493 56.9878 25.4013 54.6944 24.0933 52.1351C21.5359 47.1315 23.3465 44.0163 23.3465 44.0163H16V47.5796Z" fill="#F15A23"/>
<path fill-rule="evenodd" clip-rule="evenodd" d="M26.0349 60.2534L28.4247 58.2794C28.4247 58.2794 30.7071 61.2839 33.3536 61.993C36.8217 62.9223 38.3572 60.6488 38.3572 60.6488V66.2413H30.7398L32.4575 64.7562C32.4575 64.7562 31.5613 65.3537 29.3695 63.8355C28.0759 62.9395 26.0349 60.2534 26.0349 60.2534Z" fill="#F15A23"/>
<path fill-rule="evenodd" clip-rule="evenodd" d="M26.2548 44C26.2548 44 25.4924 45.0385 26.0351 47.5796C26.6151 50.2957 28.9219 53.1704 28.9166 53.106C28.9166 53.106 29.0649 50.2516 30.7399 48.5765C34.3104 45.0061 38.3574 47.1316 38.3574 47.1316V44.0163L26.2548 44Z" fill="#F15A23"/>
<path fill-rule="evenodd" clip-rule="evenodd" d="M38.3573 50.8955C38.3573 50.8955 36.0993 48.9615 34.1363 48.9615C31.6251 48.9615 30.2544 51.1295 30.2544 52.7021C30.2544 54.9928 31.3539 56.2656 32.4575 57.3692C34.0434 58.9551 35.9728 60.6655 38.3573 59.2889C38.3573 56.6833 38.3573 50.8955 38.3573 50.8955Z" fill="#F15A23"/>
<path fill-rule="evenodd" clip-rule="evenodd" d="M64.0718 44.233H69.3999C69.3999 44.233 74.12 51.3799 76.4397 54.3327C78.7594 57.2855 81.2563 60.6488 81.2563 60.6488C81.2563 60.6488 81.2563 50.8955 81.2563 45.8335C81.2563 45.1937 79.5763 44.233 79.5763 44.233H85.7205C85.7205 44.233 83.7044 45.0613 83.7044 45.8335C83.7044 52.1352 83.7044 67.3862 83.7044 67.3862C83.7044 67.3862 81.7699 66.3135 79.5763 63.7645C77.1115 60.9004 68.3439 49.3376 68.3439 49.3376C68.3439 49.3376 68.3439 60.2534 68.3439 64.3141C68.3439 65.0811 70.024 66.2413 70.024 66.2413H64.0718C64.0718 66.2413 65.7038 65.0717 65.7038 64.3141C65.7038 58.8564 65.7038 50.8955 65.7038 45.8335C65.7038 45.1534 64.0718 44.233 64.0718 44.233Z" fill="#005E6A"/>
<path fill-rule="evenodd" clip-rule="evenodd" d="M89.1616 44.233H96C96 44.233 94.1638 45.1028 94.1638 45.8335C94.1638 50.8955 94.1638 59.2889 94.1638 64.3141C94.1638 65.1127 96 66.2413 96 66.2413H89.1616C89.1616 66.2413 90.8712 65.087 90.8712 64.3141C90.8712 58.2794 90.8712 50.8955 90.8712 45.8335C90.8712 45.131 89.1616 44.233 89.1616 44.233Z" fill="#005E6A"/>
<path fill-rule="evenodd" clip-rule="evenodd" d="M43.9526 44.233C43.9526 44.233 45.7255 45.117 45.7255 45.8335C45.7255 50.8955 45.7255 58.2794 45.7255 64.3141C45.7255 65.0997 43.9526 66.2413 43.9526 66.2413C43.9526 66.2413 52.8096 66.2413 54.0835 66.2413C54.7167 66.2413 61.8083 65.0817 61.8083 59.6143C61.8083 54.147 56.2996 53.6351 56.2996 53.6351C56.2996 53.6351 59.6555 52.7021 59.6555 48.9615C59.6555 44.9295 54.7167 44.233 54.0835 44.233C52.7677 44.233 43.9526 44.233 43.9526 44.233ZM49.3347 53.2727V46.3923C49.3347 46.3923 52.2712 46.3923 53.4503 46.3923C54.0835 46.3923 56.2996 47.1316 56.2996 49.8744C56.2996 52.1352 54.0835 53.2727 53.4503 53.2727C52.0148 53.2727 49.3347 53.2727 49.3347 53.2727ZM49.3347 55.0773C49.3347 55.0773 53.4503 55.0773 54.0835 55.0773C54.7167 55.0773 58.4525 56.0477 58.4525 59.2889C58.4525 62.5934 54.7167 63.7645 54.0835 63.7645C53.4503 63.7645 49.3347 63.7645 49.3347 63.7645V55.0773Z" fill="#005E6A"/>
</g>
<rect x="1" y="1" width="110" height="110" rx="9" stroke="#CCCCCC" stroke-width="2"/>
<defs>
<clipPath id="clip0_6_7362">
<rect x="2" y="2" width="108" height="108" rx="8" fill="white"/>
</clipPath>
</defs>
</svg>
