<svg width="112" height="112" viewBox="0 0 112 112" fill="none" xmlns="http://www.w3.org/2000/svg">
<g clip-path="url(#clip0_421_555)">
<rect x="2" y="2" width="108" height="108" rx="8" fill="white"/>
<path d="M36.7204 53.4613C36.7554 54.0629 36.7904 55.5842 36.7904 56.1386C36.7904 56.6492 36.7904 58.3612 36.7012 59.0992L36.6942 59.1569H39.368C40.6813 59.1569 42.0715 58.7477 42.0715 57.5813C42.0715 56.8503 41.5416 56.31 40.5519 56.0144C41.2863 55.8186 41.776 55.3167 41.776 54.7431C41.776 53.7901 40.6813 53.4316 39.653 53.4071H36.7047L36.7204 53.4613ZM38.7857 54.0436C39.9014 54.0524 40.3088 54.2797 40.3088 54.8865C40.3088 55.0544 40.2581 55.203 40.1584 55.3167C39.9451 55.5738 39.5289 55.7067 38.999 55.6734H38.9728L38.6615 56.4848H38.9728C39.5883 56.4673 40.1234 56.6614 40.398 56.9972C40.5256 57.1511 40.5886 57.333 40.5886 57.5218C40.5886 58.1566 40.029 58.4836 38.9273 58.4836C38.7402 58.4836 38.4394 58.4836 38.2523 58.4766C38.2208 57.6302 38.2069 56.4831 38.2069 56.1386C38.2069 55.7381 38.2331 54.848 38.2523 54.0874C38.38 54.0611 38.5898 54.0454 38.7874 54.0454" fill="#231F20"/>
<path d="M48.2445 53.407H46.9434L46.9959 54.8567C47.0221 55.5737 47.0466 56.3099 47.0956 57.0268C47.0116 56.803 46.9329 56.6876 46.5377 56.1105C46.536 56.0913 45.1842 54.0103 44.7138 53.4193L44.6998 53.4053H43.1907V53.4595C43.2379 54.061 43.2572 55.5824 43.2572 56.1368C43.2572 56.6474 43.2572 58.3594 43.1855 59.0973L43.1732 59.155H44.518V59.0973C44.441 57.6949 44.441 56.2784 44.441 54.9039C44.4882 55.07 44.5477 55.2134 44.7593 55.5282C44.7768 55.5649 47.0938 58.9382 47.2057 59.1323L47.218 59.1568H48.2952V59.0991C48.2113 58.3611 48.2043 56.6491 48.2043 56.1385C48.2043 55.5842 48.241 54.0628 48.276 53.4612L48.2934 53.407H48.241H48.2445Z" fill="#231F20"/>
<path d="M49.8008 53.4613C49.8532 54.0628 49.8742 55.5842 49.8742 56.1385C49.8742 56.6492 49.8742 58.3612 49.7955 59.0991V59.1586H51.3956L51.3886 59.0991C51.3344 58.5675 51.3064 57.5568 51.3012 56.7821C51.3764 56.7856 51.6037 56.7978 51.6037 56.7978L51.831 56.8031C53.9365 56.8031 54.9612 56.247 54.9612 55.0736C54.9612 53.7393 53.5238 53.4333 52.3259 53.4088H49.8025V53.463L49.8008 53.4613ZM51.7733 54.1013C52.5235 54.0873 53.0464 54.2395 53.2947 54.5542C53.4084 54.6906 53.4713 54.869 53.4713 55.0718C53.4713 55.9042 52.534 56.0843 51.7523 56.0843L51.4358 56.0651C51.4358 56.0651 51.3606 56.0581 51.3047 56.0529C51.2994 55.8605 51.2994 55.6069 51.2994 55.3219C51.2994 54.9599 51.2994 54.5315 51.3169 54.1328C51.4271 54.1188 51.5932 54.0996 51.7733 54.0996" fill="#231F20"/>
<path d="M58.0127 53.4613C58.0634 54.0628 58.0932 55.5842 58.0932 56.1385C58.0932 56.6492 58.0879 58.3612 58.0057 59.0991V59.1586H59.6076L59.5988 59.0991C59.5481 58.5675 59.5184 57.5568 59.5184 56.7821C59.5936 56.7856 59.8069 56.7978 59.8069 56.7978L60.0395 56.8031C62.1449 56.8031 63.1767 56.247 63.1767 55.0736C63.1767 53.7393 61.7322 53.4333 60.5291 53.4088H58.0145V53.463L58.0127 53.4613ZM59.9835 54.1013C60.7355 54.0873 61.2583 54.2395 61.5101 54.5542C61.6256 54.6906 61.685 54.869 61.685 55.0718C61.685 55.9042 60.7495 56.0843 59.9765 56.0843L59.66 56.0651C59.66 56.0651 59.5761 56.0581 59.5271 56.0529C59.5184 55.8605 59.5184 55.6052 59.5184 55.3219C59.5184 54.9564 59.5184 54.5315 59.5341 54.1328C59.6338 54.1188 59.8069 54.0996 59.9853 54.0996" fill="#231F20"/>
<path d="M65.3153 53.4071H65.2943L65.2838 53.4368C64.9848 54.2552 63.0665 58.4451 62.7622 59.0869L62.736 59.1586H64.1L64.1105 59.1271C64.2311 58.7337 64.392 58.2895 64.5669 57.8139C64.6211 57.8139 65.7053 57.7964 65.7053 57.7964L66.6461 57.8034C66.6461 57.8034 66.7982 57.8139 66.8437 57.8139C67.0868 58.4311 67.2721 58.898 67.3526 59.1341L67.3683 59.1586H68.9474L66.396 53.4089H65.3153V53.4071ZM65.7053 55.0999C65.8329 55.3744 66.1617 56.1386 66.5342 57.0514C66.4765 57.0549 66.4048 57.0549 66.4048 57.0549L65.7053 57.0637C65.7053 57.0637 64.9796 57.0549 64.8589 57.0514C65.1614 56.3222 65.4605 55.6629 65.7053 55.0999Z" fill="#231F20"/>
<path d="M69.591 53.4613C69.6365 54.0629 69.6592 55.5842 69.6592 56.1386C69.6592 56.6492 69.6592 58.3612 69.5718 59.0992V59.1586H71.1823L71.1753 59.0992C71.0897 58.356 71.0844 56.651 71.0844 56.1386C71.0844 55.7381 71.0967 54.848 71.1369 54.1276C71.2593 54.1206 71.4446 54.1013 71.5723 54.1013C72.3173 54.0874 72.8436 54.2412 73.0902 54.5543C73.2073 54.6889 73.2616 54.8725 73.2616 55.0719C73.2616 55.7364 72.6408 56.0721 72.0637 56.1019C71.8696 56.1106 71.7262 56.0844 71.7262 56.0844L71.6125 56.0651L71.6737 56.1701C72.2456 57.0042 73.1007 58.4486 73.4539 59.1306L73.4644 59.1551H75.1834L75.1414 59.0782C75.0715 58.9802 73.9506 57.3312 73.4749 56.6282C73.4749 56.6282 73.4539 56.6072 73.4329 56.5863C74.3143 56.3222 74.741 55.8291 74.741 55.0719C74.741 53.7481 73.3053 53.4316 72.0917 53.4071H69.584L69.5893 53.4613H69.591Z" fill="#231F20"/>
<path d="M77.4602 53.4071H75.9266L75.9353 53.4613C75.9756 54.0629 76.007 55.5842 76.007 56.1386C76.007 56.6475 76 58.356 75.9283 59.0992L75.9231 59.1569H77.5127L77.5039 59.0992C77.4427 58.356 77.4235 56.6475 77.4235 56.1386C77.4235 55.5842 77.462 54.0629 77.5039 53.4613V53.4071H77.462H77.4602Z" fill="#231F20"/>
<path d="M78.9605 53.4613C79.006 54.0629 79.034 55.5842 79.034 56.1386C79.034 56.6492 79.034 58.3612 78.9535 59.0992L78.9413 59.1569H81.6186C82.9283 59.1569 84.3221 58.7477 84.3221 57.5813C84.3221 56.8503 83.7922 56.31 82.7937 56.0144C83.5282 55.8186 84.023 55.3167 84.023 54.7431C84.023 53.7901 82.9266 53.4316 81.9071 53.4071H78.9518L78.9588 53.4613H78.9605ZM81.024 54.0436C82.1467 54.0524 82.5559 54.2797 82.5559 54.8865C82.5559 55.0544 82.5052 55.203 82.402 55.3167C82.1991 55.5738 81.7672 55.7067 81.2408 55.6734H81.2146L80.9051 56.4848H81.2146C81.8319 56.4673 82.3618 56.6614 82.6363 56.9972C82.771 57.1511 82.8339 57.333 82.8339 57.5218C82.8339 58.1566 82.2726 58.4836 81.1656 58.4836C80.9873 58.4836 80.6882 58.4836 80.4994 58.4766C80.4539 57.6302 80.4539 56.4831 80.4539 56.1386C80.4539 55.7381 80.4697 54.848 80.4994 54.0874C80.62 54.0611 80.8299 54.0454 81.024 54.0454" fill="#231F20"/>
<path d="M88.2602 53.407H87.183L87.176 53.4333C86.8542 54.3041 84.8257 58.7144 84.6561 59.0798L84.6263 59.1585H85.9956L86.0043 59.1235C86.118 58.7283 86.2771 58.2877 86.4555 57.8033C86.4992 57.8033 87.5869 57.7858 87.5869 57.7858L88.5295 57.7998C88.5295 57.7998 88.6938 57.8015 88.7288 57.8015C88.9771 58.4188 89.1608 58.8892 89.2412 59.1218L89.2569 59.1568H90.843L88.2916 53.4053H88.2567L88.2602 53.407ZM87.5992 55.098C87.7286 55.3656 88.0556 56.1315 88.428 57.0461C88.3703 57.0461 88.3021 57.0513 88.3021 57.0513L87.5992 57.0601C87.5992 57.0601 86.8647 57.0443 86.7563 57.0443C87.0536 56.3099 87.3473 55.6559 87.5992 55.0963" fill="#231F20"/>
<path d="M91.2942 54.8935C91.2942 55.9042 92.3049 56.3099 93.202 56.6824C93.8998 56.9604 94.629 57.2525 94.629 57.7351C94.629 57.8803 94.5993 58.0027 94.5188 58.0901C94.3509 58.2877 94.0117 58.3699 93.4731 58.3402C92.938 58.3192 92.3364 58.1496 91.6597 57.8383L91.3939 57.7106V58.9645L91.5757 59.0099L91.6807 59.0274C92.0147 59.1096 92.6617 59.2617 93.3035 59.2617C94.9927 59.2617 96 58.5885 96 57.4746C96 56.4288 94.9595 56.0214 94.0397 55.6559C93.3612 55.3814 92.6617 55.1103 92.6617 54.6609C92.6617 54.5315 92.6617 54.1555 93.536 54.1555C94.1813 54.1555 94.8074 54.4178 95.1641 54.5542L95.4876 54.6889V54.4738L95.4858 53.4316L95.1641 53.3738C94.8353 53.3074 94.288 53.199 93.7249 53.199C92.2682 53.199 91.2959 53.888 91.2959 54.8952" fill="#231F20"/>
<mask id="mask0_421_555" style="mask-type:luminance" maskUnits="userSpaceOnUse" x="16" y="48" width="17" height="17">
<path d="M32.5568 48H16V64.5568H32.5568V48Z" fill="white"/>
</mask>
<g mask="url(#mask0_421_555)">
<path d="M32.5568 48H16V64.5568H32.5568V48Z" fill="url(#paint0_linear_421_555)"/>
</g>
<mask id="mask1_421_555" style="mask-type:luminance" maskUnits="userSpaceOnUse" x="16" y="48" width="17" height="17">
<path d="M17.2923 48.2955C16.9706 48.2955 16.7625 48.5666 16.7118 48.9461C16.7118 48.9461 16.2991 51.1197 16.2991 55.7328C16.2991 60.3459 16.7118 63.3694 16.7118 63.3694C16.7502 63.7349 16.9723 64.0199 17.2923 64.0199H31.623C31.943 64.0199 32.1984 63.7664 32.2036 63.3694C32.2036 63.3694 32.0445 59.8335 32.0445 56.3781C32.0445 52.9226 32.2036 48.9461 32.2036 48.9461C32.2123 48.5928 31.943 48.2955 31.623 48.2955H17.2923Z" fill="white"/>
</mask>
<g mask="url(#mask1_421_555)">
<path d="M32.2123 48.2955H16.2991V64.0217H32.2123V48.2955Z" fill="url(#paint1_linear_421_555)"/>
</g>
<g style="mix-blend-mode:multiply">
<mask id="mask2_421_555" style="mask-type:luminance" maskUnits="userSpaceOnUse" x="16" y="48" width="17" height="17">
<path d="M32.2123 48.2955H16.2991V64.0199H32.2123V48.2955Z" fill="white"/>
</mask>
<g mask="url(#mask2_421_555)">
<mask id="mask3_421_555" style="mask-type:luminance" maskUnits="userSpaceOnUse" x="16" y="48" width="17" height="17">
<path d="M17.2766 48.2955C16.9653 48.3043 16.7624 48.5736 16.7135 48.9461C16.7135 48.9461 16.3008 51.1197 16.3008 55.7328C16.3008 60.3459 16.7135 63.3694 16.7135 63.3694C16.7519 63.7349 16.974 64.0199 17.294 64.0199H31.623C31.943 64.0199 32.1983 63.7664 32.2036 63.3694C32.2036 63.3694 32.0444 59.8335 32.0444 56.3781C32.0444 52.9226 32.2036 48.9461 32.2036 48.9461C32.2106 48.5981 31.9517 48.306 31.6387 48.2955H17.2766Z" fill="white"/>
</mask>
<g mask="url(#mask3_421_555)">
<path d="M32.2123 48.2955H16.2991V64.0199H32.2123V48.2955Z" fill="url(#paint2_linear_421_555)"/>
</g>
</g>
</g>
<path d="M28.8565 52.4732C27.8318 53.073 27.5205 53.1202 26.4083 53.7882L26.4625 53.664C27.0466 53.0275 27.2984 52.7617 27.6831 52.1986C26.6584 52.2546 25.1685 52.377 24.1035 52.6113L24.1595 52.4976C25.1248 52.0272 26.9172 51.5603 27.8318 51.4397C27.6079 51.1249 25.7928 50.1439 25.3416 49.955L25.3941 49.8396C26.7703 49.9952 28.5942 50.6388 29.3899 51.1249C29.7256 51.02 30.0701 51.0095 30.6927 50.9553C30.6927 50.9553 30.6 51.3295 29.9215 51.7964C30.0894 52.2476 29.6854 54.7447 29.3514 55.4075C29.3357 54.3618 29.2447 53.0432 28.8565 52.4714" fill="#009A7B"/>
<path d="M21.3755 61.4248L21.428 61.3059C20.8841 61.0978 20.3403 60.93 19.8996 60.5173C20.0378 60.1308 20.1969 59.8283 20.454 59.4471L20.5082 59.3299C20.0413 59.3998 19.6181 59.573 19.2124 59.6517C18.8941 59.0921 18.7717 58.3261 18.6108 57.5969L18.5583 57.7106C18.4674 58.5447 18.4324 59.141 18.5496 59.8038C18.2121 59.8982 17.9183 59.9122 17.6473 60.0276L17.5966 60.1395C18.0267 60.4036 18.38 60.6082 18.8679 60.8373C19.1284 61.3951 19.3977 61.7763 19.8367 62.2065L19.8891 62.0894C19.8104 61.7746 19.709 61.5105 19.7475 61.1608C20.2896 61.3182 20.7547 61.4004 21.3738 61.4231" fill="#009A7B"/>
<path d="M22.8847 53.1097C22.8847 53.1097 22.6662 53.4962 22.4913 54.0103H22.4493C23.7259 54.1834 24.929 54.6993 25.2315 54.8777L25.1773 54.9931C23.8553 54.7588 23.1575 54.7868 22.6644 54.8305C22.1713 54.8794 22.0716 54.9389 22.0716 54.9389C21.7883 55.5597 21.6222 56.5722 21.554 56.9464L21.4998 57.0618C21.2584 56.4795 20.9087 55.3184 20.9087 55.3184C20.2424 55.6751 18.7053 57.1178 18.7053 57.1178C19.5517 55.4285 20.4103 54.6573 20.4103 54.6573C20.1148 54.3601 19.3419 54.2079 18.777 54.1852L18.8312 54.0698C19.1845 53.9666 19.9154 53.9229 20.4033 53.9002C20.9821 53.8827 21.3319 53.9159 21.3319 53.9159C21.8478 53.5049 22.6154 53.1465 22.8865 53.1097" fill="#009A7B"/>
<path d="M24.5075 60.3738C24.2399 60.7341 24.0126 61.0226 23.7171 61.3531C23.2799 61.4738 22.7588 61.4196 22.3548 61.4318L22.3024 61.5455C22.6049 61.7029 22.9022 61.7955 23.2187 61.862C22.9616 62.0963 22.6171 62.2747 22.3776 62.4373L22.3234 62.551C22.841 62.4268 23.5212 62.2082 24.0283 61.911C24.2924 61.9214 24.5407 61.9022 24.7191 61.8672C24.7191 61.8672 24.7733 61.7501 24.7733 61.7536C24.7418 61.6382 24.6386 61.5665 24.6072 61.4021C25.0811 61.0331 25.4256 60.6974 25.8243 60.2969L25.8785 60.1832C25.485 60.4543 25.0094 60.825 24.5495 61.0418C24.5302 60.8198 24.5162 60.6257 24.504 60.3738" fill="#009A7B"/>
<path d="M28.909 52.3578C27.8878 52.9593 27.573 53.0083 26.4643 53.6746C27.1113 52.9733 27.3352 52.6726 27.7374 52.0867C26.7126 52.1409 25.2245 52.2634 24.1613 52.4994C25.0863 52.0045 26.9207 51.4554 27.8878 51.326C27.6639 51.0165 25.847 50.032 25.3941 49.8431C26.8333 49.9568 28.5907 50.4919 29.4424 51.013C29.7781 50.9081 30.1261 50.9029 30.7521 50.8486C30.5913 51.1214 30.586 51.2788 29.974 51.6845C30.1436 52.1374 29.7379 54.6346 29.4039 55.2939C29.3916 54.2499 29.3007 52.9314 28.909 52.3595" fill="white"/>
<path d="M21.428 61.306C20.8404 61.0909 20.4173 60.8373 19.9521 60.4001C20.092 60.0172 20.2494 59.7164 20.5099 59.3299C20.0325 59.4016 19.6811 59.4558 19.2701 59.5345C18.9344 58.947 18.784 58.3839 18.6126 57.5952C18.5217 58.4293 18.4867 59.0257 18.6038 59.6884C18.2261 59.7933 17.9586 59.8843 17.649 60.0277C18.0845 60.2917 18.436 60.4981 18.9221 60.7237C19.1827 61.2832 19.4537 61.6592 19.8909 62.0894C19.7895 61.7239 19.7615 61.4319 19.8035 61.0437C20.3473 61.2046 20.8107 61.2885 21.428 61.3042" fill="white"/>
<path d="M22.9564 53.01C22.7746 53.2478 22.5612 53.6903 22.5035 53.8966C24.0161 54.1012 25.2298 54.8794 25.2298 54.8794C23.9077 54.6451 23.21 54.6748 22.7151 54.7185C22.2237 54.764 22.124 54.8234 22.124 54.8234C21.7673 55.6051 21.5522 56.9481 21.5522 56.9481C21.3109 56.3675 20.9629 55.2046 20.9629 55.2046C20.2949 55.5614 18.7595 57.0041 18.7595 57.0041C19.6041 55.3131 20.461 54.5454 20.461 54.5454C20.1672 54.2463 19.3926 54.0977 18.8277 54.0715C19.1198 53.9526 19.8735 53.8127 20.4523 53.7864C21.0328 53.769 21.3808 53.8022 21.3808 53.8022C21.8967 53.3947 22.6819 53.0502 22.9529 53.0118" fill="white"/>
<path d="M24.5599 60.262C24.2941 60.6222 24.0633 60.9073 23.7678 61.2378C23.2589 61.3812 22.8515 61.4336 22.3566 61.4336C22.6608 61.5893 22.9564 61.6837 23.2746 61.7502C22.9581 62.0404 22.6888 62.2433 22.381 62.4409C22.8987 62.3167 23.5772 62.0981 24.0843 61.7991C24.3483 61.8096 24.5967 61.7939 24.7768 61.7571C24.7296 61.6033 24.6998 61.4896 24.6631 61.292C25.1388 60.9195 25.4868 60.589 25.8837 60.1851C25.4623 60.4788 25.0968 60.6992 24.6089 60.93C24.5862 60.7062 24.5739 60.5173 24.5634 60.262" fill="white"/>
</g>
<rect x="1" y="1" width="110" height="110" rx="9" stroke="#CCCCCC" stroke-width="2"/>
<defs>
<linearGradient id="paint0_linear_421_555" x1="24.0056" y1="47.5926" x2="24.0056" y2="65.0709" gradientUnits="userSpaceOnUse">
<stop stop-color="#009A7B"/>
<stop offset="0.6" stop-color="#77C1B1"/>
<stop offset="1" stop-color="#009A7B"/>
</linearGradient>
<linearGradient id="paint1_linear_421_555" x1="24.1403" y1="43.8923" x2="24.1403" y2="63.5285" gradientUnits="userSpaceOnUse">
<stop stop-color="#009A7B"/>
<stop offset="0.3" stop-color="#77C1B1"/>
<stop offset="0.55" stop-color="#009A7B"/>
<stop offset="0.84" stop-color="#009A7B"/>
<stop offset="1" stop-color="#00A184"/>
</linearGradient>
<linearGradient id="paint2_linear_421_555" x1="24.1385" y1="43.8923" x2="24.1385" y2="63.5285" gradientUnits="userSpaceOnUse">
<stop stop-color="white"/>
<stop offset="0.3" stop-color="white"/>
<stop offset="0.55" stop-color="white"/>
<stop offset="0.84" stop-color="#B1B3B5"/>
<stop offset="0.87" stop-color="#B9BBBD"/>
<stop offset="0.92" stop-color="#D2D3D4"/>
<stop offset="0.99" stop-color="#F9F9F9"/>
<stop offset="1" stop-color="white"/>
</linearGradient>
<clipPath id="clip0_421_555">
<rect x="2" y="2" width="108" height="108" rx="8" fill="white"/>
</clipPath>
</defs>
</svg>
