<svg width="112" height="112" viewBox="0 0 112 112" fill="none" xmlns="http://www.w3.org/2000/svg">
<g clip-path="url(#clip0_6_7364)">
<rect x="2" y="2" width="108" height="108" rx="8" fill="white"/>
<path d="M41.636 41H20.6167C18.0681 41 16 43.118 16 45.7341V66.5446C16 69.1366 18.0272 71.2414 20.5476 71.2787L41.621 71.2793C44.1697 71.2793 46.2426 69.1607 46.2426 66.5446L46.2528 45.7341C46.2528 43.118 44.1841 41 41.636 41ZM23.1149 68.8533L21.9678 68.8672C20.5789 68.8672 19.4576 67.7236 19.4576 66.3185L19.4492 66.1158V46.898L19.4576 45.8622C19.5135 44.5028 20.5452 43.4044 21.8986 43.4044H24.2283C26.3439 43.4044 28.0547 45.242 28.0547 47.4063C28.0547 48.4813 27.6336 49.4515 26.9527 50.1608L21.0077 56.1905L26.5821 61.8689C27.298 62.6112 27.7311 63.5851 27.7311 64.6492C27.7311 66.9705 25.6684 68.8533 23.1149 68.8533ZM40.2525 68.8359L29.8587 68.8329C29.8587 68.8329 31.0605 66.2331 31.0605 64.6264C31.0605 62.6672 30.4055 60.9137 29.3799 59.7564L25.8266 56.1315L29.4502 52.3864C30.5348 51.3674 31.2506 49.5646 31.2506 47.514C31.2506 45.8893 30.8019 44.4498 30.0752 43.4044H32.595C34.7088 43.4044 36.4214 45.242 36.4214 47.4063C36.4214 48.4813 36.0021 49.4515 35.323 50.1608L29.4881 56.1291L41.603 68.484C41.2168 68.7258 40.7343 68.8359 40.2525 68.8359ZM42.788 64.9771L34.1049 56.1273L38.2398 51.9262C39.0825 50.8706 39.6191 49.2855 39.6191 47.514C39.6191 45.8797 39.1619 44.4023 38.4323 43.3574L40.2808 43.4152C41.6673 43.4152 42.7952 44.5551 42.7952 45.9645L42.788 64.9771Z" fill="#00529C"/>
<path d="M64.8834 54.7179C65.0525 54.5489 65.2522 54.3311 65.4826 54.0647C65.7123 53.7982 65.9301 53.4836 66.1358 53.1203C66.3415 52.7569 66.5172 52.3521 66.6622 51.904C66.8077 51.4564 66.8805 50.9782 66.8805 50.4699C66.8805 49.478 66.7109 48.5522 66.3722 47.6926C66.033 46.8337 65.5126 46.083 64.8107 45.4411C64.1087 44.8005 63.2316 44.2976 62.1784 43.9343C61.1257 43.5716 59.8967 43.3899 58.4934 43.3899H58.4549H54.4198H53.3695H49.2346V48.0181V64.0405V68.8052H59.4011C60.8772 68.8052 62.1657 68.6055 63.2677 68.2061C64.3685 67.8066 65.2829 67.2562 66.0089 66.5542C66.7349 65.8523 67.2733 65.0354 67.6246 64.1036C67.9753 63.1718 68.151 62.1733 68.151 61.108C68.151 59.68 67.8243 58.4095 67.1711 57.2955C66.5172 56.1827 65.7545 55.3231 64.8834 54.7179ZM60.3882 48.0469C60.7305 48.1775 61.0162 48.3471 61.2394 48.5607C61.8174 49.1153 62.1068 49.7782 62.1068 50.5493C62.1068 51.2489 61.9859 51.827 61.7453 52.2847C61.504 52.7431 61.2628 53.0926 61.0222 53.3332H53.9548V47.7468H58.3478C59.1713 47.7468 59.8492 47.8484 60.3882 48.0469ZM59.6549 57.7316C60.9344 57.7316 61.8824 58.063 62.4996 58.7247C63.08 59.3762 63.3724 60.1449 63.3724 61.0346C63.3724 61.9513 63.0409 62.7339 62.3781 63.3848C61.7146 64.0356 60.6246 64.3617 59.1057 64.3617H58.5385H53.9548V57.7316H59.6549Z" fill="#00529C"/>
<path d="M85.3872 57.8585C86.1493 57.3382 86.7851 56.7331 87.2934 56.0431C87.8017 55.3531 88.1765 54.591 88.4189 53.7561C88.6607 52.9206 88.7822 52.0676 88.7822 51.196C88.7822 50.0585 88.594 49.0118 88.2192 48.0554C87.8432 47.0995 87.2808 46.2766 86.5307 45.5867C85.78 44.8967 84.8422 44.3584 83.7167 43.971C82.5913 43.5842 81.2902 43.3899 79.814 43.3899H79.6811H69.902H69.8105V68.8052H74.6222V59.3654H77.305L83.9405 68.8052H89.5805L82.7188 59.0387C83.7348 58.7728 84.6244 58.3794 85.3872 57.8585ZM79.8501 47.7468C80.1527 47.7468 80.4384 47.7666 80.7103 47.8009C81.5681 47.9303 82.2689 48.2364 82.809 48.7231C83.5441 49.3866 83.9116 50.1998 83.9116 51.1635C83.9116 51.6465 83.8328 52.1163 83.6764 52.5741C83.5194 53.0324 83.2728 53.4361 82.9353 53.785C82.5973 54.135 82.1636 54.4178 81.6336 54.6349C81.1031 54.8521 80.4643 54.9603 79.7172 54.9603H74.6222V47.7468H79.8501Z" fill="#00529C"/>
<path d="M91.2799 43.3899V43.3971C91.2311 43.3959 91.1836 43.3899 91.1349 43.3899H91.094V43.3917V52.7076V59.3828V68.8052H96.0001V43.3899H91.2799Z" fill="#00529C"/>
</g>
<rect x="1" y="1" width="110" height="110" rx="9" stroke="#CCCCCC" stroke-width="2"/>
<defs>
<clipPath id="clip0_6_7364">
<rect x="2" y="2" width="108" height="108" rx="8" fill="white"/>
</clipPath>
</defs>
</svg>
