<svg width="112" height="112" viewBox="0 0 112 112" fill="none" xmlns="http://www.w3.org/2000/svg">
<g clip-path="url(#clip0_6_7365)">
<rect x="2" y="2" width="108" height="108" rx="8" fill="white"/>
<path d="M29.6559 74.3073C30.7149 74.3073 31.5763 74.1715 32.2401 73.8999C32.9198 73.6282 33.4492 73.2767 33.8286 72.8453C34.2079 72.4138 34.4687 71.9265 34.611 71.3832C34.7532 70.8399 34.8243 70.2887 34.8243 69.7294C34.8243 69.0903 34.7374 68.515 34.5635 68.0037C34.4055 67.4924 34.121 67.0609 33.71 66.7094C33.3149 66.3579 32.7854 66.0862 32.1216 65.8945C31.4578 65.7028 30.6201 65.6069 29.6085 65.6069H24.0134V74.3073H29.6559ZM24.0134 51.5615V60.1901H28.186C29.0711 60.1901 29.8693 60.1262 30.5806 59.9983C31.2918 59.8705 31.8924 59.6468 32.3824 59.3272C32.8882 59.0077 33.2675 58.5682 33.5204 58.009C33.7891 57.4497 33.9234 56.7467 33.9234 55.8998C33.9234 55.0689 33.8207 54.3818 33.6152 53.8385C33.4097 53.2793 33.0936 52.8319 32.6669 52.4963C32.2401 52.1607 31.6948 51.9211 31.031 51.7773C30.383 51.6335 29.6085 51.5615 28.7076 51.5615H24.0134ZM28.7076 45.4976C31.0942 45.4976 33.1252 45.7213 34.8006 46.1687C36.476 46.6161 37.8432 47.2473 38.9021 48.0622C39.9611 48.8771 40.7277 49.8678 41.2018 51.0342C41.6918 52.2007 41.9368 53.503 41.9368 54.9411C41.9368 55.724 41.8262 56.483 41.6049 57.218C41.3836 57.9371 41.0359 58.6162 40.5617 59.2553C40.0875 59.8785 39.479 60.4537 38.7362 60.981C37.9933 61.5083 37.1003 61.9637 36.0572 62.3472C38.3331 62.9065 40.0164 63.8093 41.107 65.0556C42.1976 66.302 42.7429 67.9158 42.7429 69.8972C42.7429 71.3832 42.4584 72.7654 41.8894 74.0437C41.3204 75.322 40.4827 76.4405 39.3763 77.3992C38.2857 78.342 36.9344 79.085 35.3222 79.6283C33.71 80.1556 31.8687 80.4192 29.7982 80.4192H16V45.4976H28.7076Z" fill="#00A39D"/>
<path d="M67.3589 52.6202C67.1218 53.0032 66.8689 53.2905 66.6002 53.482C66.3473 53.6735 66.0154 53.7693 65.6045 53.7693C65.2409 53.7693 64.8458 53.6576 64.419 53.4341C64.0081 53.1947 63.5339 52.9314 62.9966 52.6441C62.475 52.3568 61.8744 52.1014 61.1947 51.878C60.5151 51.6386 59.7406 51.5189 58.8713 51.5189C57.3698 51.5189 56.2476 51.846 55.5048 52.5004C54.7777 53.1388 54.4142 54.0087 54.4142 55.11C54.4142 55.8122 54.6355 56.3948 55.078 56.8576C55.5206 57.3205 56.0975 57.7195 56.8087 58.0547C57.5358 58.3899 58.3576 58.7011 59.2744 58.9884C60.2069 59.2597 61.1552 59.5709 62.1193 59.9221C63.0835 60.2573 64.0239 60.6563 64.9406 61.1191C65.8731 61.582 66.695 62.1725 67.4063 62.8908C68.1333 63.609 68.7181 64.4868 69.1607 65.5242C69.6032 66.5457 69.8245 67.7827 69.8245 69.235C69.8245 70.8471 69.5479 72.3553 68.9947 73.7599C68.4415 75.1644 67.6355 76.3934 66.5765 77.4468C65.5333 78.4842 64.2373 79.3061 62.6883 79.9127C61.1552 80.5032 59.4087 80.7985 57.4488 80.7985C56.3741 80.7985 55.2756 80.6867 54.1534 80.4633C53.047 80.2399 51.9722 79.9286 50.9291 79.5296C49.8859 79.1146 48.906 78.6278 47.9893 78.0692C47.0725 77.5106 46.2744 76.8881 45.5947 76.2018L47.9655 72.4192C48.1552 72.1479 48.4002 71.9244 48.7005 71.7488C49.0166 71.5573 49.3564 71.4615 49.72 71.4615C50.1941 71.4615 50.6683 71.6132 51.1424 71.9164C51.6324 72.2197 52.1777 72.5548 52.7783 72.9219C53.3947 73.289 54.0981 73.6242 54.8883 73.9274C55.6786 74.2307 56.6111 74.3823 57.6859 74.3823C59.14 74.3823 60.2701 74.0631 61.0762 73.4247C61.8823 72.7703 62.2853 71.7409 62.2853 70.3363C62.2853 69.5223 62.064 68.86 61.6215 68.3492C61.1789 67.8385 60.5941 67.4156 59.8671 67.0804C59.1558 66.7452 58.3418 66.4499 57.4251 66.1946C56.5084 65.9392 55.568 65.6599 54.6038 65.3566C53.6397 65.0374 52.6993 64.6544 51.7826 64.2075C50.8659 63.7446 50.044 63.1461 49.3169 62.4119C48.6057 61.6618 48.0288 60.7361 47.5862 59.6348C47.1437 58.5175 46.9224 57.1449 46.9224 55.517C46.9224 54.2082 47.1832 52.9314 47.7048 51.6864C48.2263 50.4415 48.9929 49.3323 50.0045 48.3587C51.016 47.3851 52.2567 46.611 53.7266 46.0364C55.1965 45.4459 56.8798 45.1506 58.7765 45.1506C59.8355 45.1506 60.8628 45.2384 61.8586 45.4139C62.8701 45.5735 63.8263 45.8209 64.7272 46.1561C65.6282 46.4753 66.4659 46.8664 67.2403 47.3292C68.0306 47.7761 68.7339 48.2869 69.3503 48.8614L67.3589 52.6202Z" fill="#00A39D"/>
<path fill-rule="evenodd" clip-rule="evenodd" d="M96 44.0531C89.8472 43.4538 87.6838 46.8417 86.4768 48.5174C84.9374 41.8181 82.3344 42.3464 79.5493 40.6588C83.5745 38.3224 84.7003 34.6902 84.5895 32C88.5322 34.8907 91.2813 34.5805 94.6859 33.6432C92.9918 38.6985 94.0615 40.1254 96 44.0531Z" fill="#F8AD3C"/>
<path d="M83.1317 80.4337H74.7986V44.7217C80.0132 45.4282 83.1399 49.7411 83.1317 54.3059V80.4337Z" fill="#00A39D"/>
</g>
<rect x="1" y="1" width="110" height="110" rx="9" stroke="#CCCCCC" stroke-width="2"/>
<defs>
<clipPath id="clip0_6_7365">
<rect x="2" y="2" width="108" height="108" rx="8" fill="white"/>
</clipPath>
</defs>
</svg>
