<svg width="112" height="112" viewBox="0 0 112 112" fill="none" xmlns="http://www.w3.org/2000/svg">
<g clip-path="url(#clip0_727_69)">
<rect x="2" y="2" width="108" height="108" rx="8" fill="white"/>
<path d="M89.764 65.578V54.8314H91.0959V59.4025H91.1262C91.3583 58.9888 91.6761 58.6759 92.0798 58.464C92.4935 58.2118 92.9476 58.0856 93.442 58.0856C93.7245 58.0856 93.997 58.1361 94.2594 58.237C94.5318 58.3278 94.8043 58.4842 95.0767 58.7062C95.3592 58.9181 95.5812 59.241 95.7427 59.6749C95.9142 60.1088 96 60.6234 96 61.2188V65.578H94.668V61.355C94.668 60.7092 94.5318 60.1895 94.2594 59.796C93.9869 59.3924 93.5581 59.1906 92.9728 59.1906C92.5591 59.1906 92.1908 59.3167 91.8679 59.569C91.545 59.8212 91.3179 60.1391 91.1867 60.5225C91.1262 60.6638 91.0959 60.8757 91.0959 61.1583V65.578H89.764Z" fill="#AD8F6B"/>
<path d="M88.2432 61.0825V63.8221C88.2432 64.5285 88.2785 65.1138 88.3491 65.5779H87.1534L87.0323 64.6546H86.9869C86.775 64.9674 86.4723 65.2298 86.0787 65.4417C85.6852 65.6435 85.2412 65.7444 84.7467 65.7444C84.0404 65.7444 83.4905 65.5376 83.0969 65.1238C82.7034 64.7101 82.5066 64.2157 82.5066 63.6405C82.5066 62.7525 82.885 62.0765 83.6418 61.6123C84.4087 61.138 85.4985 60.9059 86.9112 60.916V60.7647C86.9112 60.5729 86.891 60.3964 86.8507 60.2349C86.8204 60.0634 86.7498 59.8817 86.6388 59.69C86.5379 59.4983 86.3663 59.3469 86.1241 59.2359C85.892 59.1249 85.5994 59.0694 85.2462 59.0694C84.4995 59.0694 83.8588 59.2511 83.324 59.6143L83.0212 58.7213C83.6973 58.2975 84.5046 58.0856 85.443 58.0856C87.3098 58.0856 88.2432 59.0846 88.2432 61.0825ZM86.9415 63.1108V61.8393C84.8729 61.799 83.8386 62.3489 83.8386 63.4892C83.8386 63.9029 83.9546 64.2207 84.1867 64.4427C84.4289 64.6546 84.7266 64.7606 85.0798 64.7606C85.5338 64.7606 85.9173 64.6445 86.2301 64.4125C86.5429 64.1703 86.7598 63.8776 86.8809 63.5346C86.9213 63.4135 86.9415 63.2722 86.9415 63.1108Z" fill="#AD8F6B"/>
<path d="M81.4861 65.5779H80.1541V58.2521H81.4861V65.5779ZM80.8049 57.0109H80.7898C80.5577 57.0109 80.366 56.9302 80.2146 56.7688C80.0633 56.6073 79.9876 56.4156 79.9876 56.1936C79.9876 55.9514 80.0633 55.7547 80.2146 55.6033C80.3761 55.4418 80.5779 55.3611 80.8201 55.3611C81.0623 55.3611 81.259 55.4418 81.4104 55.6033C81.5617 55.7547 81.6374 55.9514 81.6374 56.1936C81.6374 56.4257 81.5617 56.6225 81.4104 56.7839C81.259 56.9353 81.0572 57.0109 80.8049 57.0109Z" fill="#AD8F6B"/>
<path d="M75.763 65.5779V60.5376C75.763 59.6194 75.7428 58.8575 75.7025 58.2521H76.868L76.9285 59.69H76.9739C77.1354 59.2057 77.4028 58.8172 77.7761 58.5245C78.1495 58.2319 78.5632 58.0856 79.0173 58.0856C79.098 58.0856 79.2191 58.0957 79.3805 58.1159V59.3722C79.1989 59.352 79.0475 59.3419 78.9265 59.3419C78.4623 59.3419 78.0687 59.4983 77.7458 59.8111C77.433 60.1239 77.2312 60.5326 77.1404 61.0371C77.1101 61.2389 77.095 61.4458 77.095 61.6577V65.5779H75.763Z" fill="#AD8F6B"/>
<path d="M74.2423 61.0825V63.8221C74.2423 64.5285 74.2776 65.1138 74.3482 65.5779H73.1525L73.0314 64.6546H72.986C72.7741 64.9674 72.4713 65.2298 72.0778 65.4417C71.6843 65.6435 71.2403 65.7444 70.7458 65.7444C70.0395 65.7444 69.4896 65.5376 69.096 65.1238C68.7025 64.7101 68.5057 64.2157 68.5057 63.6405C68.5057 62.7525 68.8841 62.0765 69.6409 61.6123C70.4078 61.138 71.4976 60.9059 72.9103 60.916V60.7647C72.9103 60.5729 72.8901 60.3964 72.8497 60.2349C72.8195 60.0634 72.7488 59.8817 72.6378 59.69C72.5369 59.4983 72.3654 59.3469 72.1232 59.2359C71.8911 59.1249 71.5985 59.0694 71.2453 59.0694C70.4986 59.0694 69.8579 59.2511 69.3231 59.6143L69.0203 58.7213C69.6964 58.2975 70.5037 58.0856 71.4421 58.0856C73.3089 58.0856 74.2423 59.0846 74.2423 61.0825ZM72.9406 63.1108V61.8393C70.872 61.799 69.8377 62.3489 69.8377 63.4892C69.8377 63.9029 69.9537 64.2207 70.1858 64.4427C70.428 64.6546 70.7257 64.7606 71.0788 64.7606C71.5329 64.7606 71.9164 64.6445 72.2292 64.4125C72.542 64.1703 72.7589 63.8776 72.88 63.5346C72.9204 63.4135 72.9406 63.2722 72.9406 63.1108Z" fill="#AD8F6B"/>
<path d="M61.6665 58.2521H63.1196L64.7089 62.581C64.8905 63.0553 65.0519 63.5548 65.1932 64.0795H65.2235C65.2336 64.0492 65.2941 63.8423 65.4051 63.4589C65.5262 63.0654 65.6221 62.7626 65.6927 62.5507L67.1458 58.2521H68.5534L66.5555 63.474C66.061 64.7656 65.6271 65.7545 65.2537 66.4407C64.8905 67.1269 64.4869 67.6667 64.0429 68.0602C63.4879 68.5244 62.943 68.807 62.4082 68.9079L62.0752 67.8029C62.499 67.6718 62.8875 67.4548 63.2407 67.1521C63.6947 66.7989 64.0681 66.3045 64.3607 65.6688C64.4314 65.5073 64.4667 65.4013 64.4667 65.3509C64.4667 65.2702 64.4314 65.1541 64.3607 65.0028L61.6665 58.2521Z" fill="#AD8F6B"/>
<path d="M56.7543 65.2147L57.0722 64.2157C57.6474 64.5588 58.2377 64.7303 58.8431 64.7303C59.2972 64.7303 59.6453 64.6294 59.8875 64.4276C60.1297 64.2258 60.2508 63.9634 60.2508 63.6405C60.2508 63.3277 60.1498 63.0754 59.948 62.8837C59.7462 62.6819 59.3981 62.4902 58.9036 62.3085C57.6019 61.8343 56.9511 61.1431 56.9511 60.2349C56.9511 59.6295 57.1832 59.1199 57.6474 58.7062C58.1115 58.2925 58.722 58.0856 59.4788 58.0856C60.2053 58.0856 60.8007 58.237 61.2649 58.5397L60.947 59.4932C60.4627 59.2107 59.9632 59.0694 59.4485 59.0694C59.0651 59.0694 58.7674 59.1653 58.5555 59.357C58.3436 59.5487 58.2377 59.7859 58.2377 60.0684C58.2377 60.361 58.3386 60.5931 58.5404 60.7647C58.7523 60.9362 59.1105 61.1229 59.615 61.3247C60.2608 61.5669 60.7402 61.8646 61.053 62.2177C61.3759 62.5608 61.5373 62.9947 61.5373 63.5194C61.5373 64.1854 61.2951 64.7202 60.8108 65.1238C60.3264 65.5275 59.6604 65.7293 58.8128 65.7293C58.0258 65.7293 57.3396 65.5577 56.7543 65.2147Z" fill="#AD8F6B"/>
<path d="M23.7031 51.2538C22.1747 51.2538 20.7619 51.77 19.6131 52.6464V46.3804H16V65.5999H19.6131V64.4889C20.7611 65.3653 22.1747 65.8815 23.7031 65.8815C27.5508 65.8815 30.6713 62.6077 30.6713 58.5672C30.6713 54.5267 27.5508 51.2538 23.7031 51.2538ZM23.357 62.3111C21.2898 62.3111 19.6131 60.6344 19.6131 58.5672C19.6131 56.5001 21.2898 54.8242 23.357 54.8242C25.4242 54.8242 27.1 56.5001 27.1 58.5672C27.1 60.6344 25.4242 62.3111 23.357 62.3111Z" fill="#015BFD"/>
<path d="M55.0239 56.5428V65.5991H51.41V56.9333C51.41 56.521 51.286 56.1129 51.0547 55.7711C50.6483 55.1703 49.9436 54.8661 49.2381 54.8083C48.6163 54.7572 47.915 54.872 47.3686 55.1854C47.186 55.2901 47.0167 55.4166 46.865 55.5624C46.3774 56.0317 46.0866 56.6886 46.0866 57.3673V65.5999H42.4726V51.6133H46.0866V52.3666C46.0866 52.1495 47.0737 51.7323 47.2513 51.6568C47.7114 51.4624 48.2007 51.3426 48.6968 51.2882C51.9379 50.9312 55.0223 53.1207 55.0223 56.5436L55.0239 56.5428Z" fill="#015BFD"/>
<path d="M40.8119 55.1259V51.6124H36.7295V47.8124H35.5354L33.1155 49.5V51.9711L30.6704 53.8773V55.1259H33.1155V60.5724C33.1155 61.081 33.1708 61.5896 33.2973 62.0815C34.0816 65.1383 36.8242 65.8798 38.3618 65.8798C40.0644 65.8798 40.8127 65.331 40.8127 65.331V61.8963C40.8127 61.8963 40.1817 62.3957 38.5671 62.3957C37.921 62.3957 37.4979 62.1745 37.223 61.908C36.9004 61.5963 36.7295 61.1589 36.7295 60.7106V55.125H40.8119V55.1259Z" fill="#015BFD"/>
<path d="M54.2606 44.0376L42.972 48.3395C42.6721 48.4534 42.4743 48.7417 42.4743 49.0626V49.8168C42.4743 49.9483 42.5933 50.048 42.7223 50.0246L53.2878 48.1267C54.2933 47.9457 55.0239 47.0717 55.0239 46.0503V44.5629C55.0239 44.1691 54.6293 43.8968 54.2614 44.0376H54.2606Z" fill="#FF0000"/>
</g>
<rect x="1" y="1" width="110" height="110" rx="9" stroke="#CCCCCC" stroke-width="2"/>
<defs>
<clipPath id="clip0_727_69">
<rect x="2" y="2" width="108" height="108" rx="8" fill="white"/>
</clipPath>
</defs>
</svg>
