<svg width="112" height="112" viewBox="0 0 112 112" fill="none" xmlns="http://www.w3.org/2000/svg">
<g clip-path="url(#clip0_664_31)">
<rect x="2" y="2" width="108" height="108" rx="8" fill="white"/>
<path d="M31.7912 48.8707C28.658 48.8707 25.7618 49.9288 23.4068 51.7256V38.8801H15.9998V78.2806H23.4068V76.0029C25.7601 77.7997 28.658 78.8578 31.7912 78.8578C39.6792 78.8578 46.0762 72.1465 46.0762 63.8634C46.0762 55.5803 39.6792 48.8707 31.7912 48.8707ZM31.0818 71.5384C26.844 71.5384 23.4068 68.1011 23.4068 63.8634C23.4068 59.6257 26.844 56.1901 31.0818 56.1901C35.3195 56.1901 38.7551 59.6257 38.7551 63.8634C38.7551 68.1011 35.3195 71.5384 31.0818 71.5384Z" fill="#015BFD"/>
<path d="M95.9998 59.7133V78.2789H88.591V60.5137C88.591 59.6686 88.3368 58.832 87.8627 58.1312C87.0296 56.8996 85.5849 56.276 84.1385 56.1575C82.864 56.0527 81.4262 56.288 80.3062 56.9305C79.9317 57.1452 79.5847 57.4046 79.2738 57.7035C78.2741 58.6654 77.678 60.0122 77.678 61.4036V78.2806H70.2693V49.6076H77.678V51.1519C77.678 50.707 79.7015 49.8515 80.0657 49.6969C81.0088 49.2984 82.0119 49.0528 83.0289 48.9411C89.6732 48.2094 95.9963 52.6979 95.9963 59.715L95.9998 59.7133Z" fill="#015BFD"/>
<path d="M66.8647 56.8085V49.6059H58.4957V41.8158H56.0479L51.0869 45.2754V50.3411L46.0745 54.249V56.8085H51.0869V67.974C51.0869 69.0167 51.2003 70.0594 51.4597 71.0677C53.0675 77.3342 58.6898 78.8544 61.8419 78.8544C65.3324 78.8544 66.8664 77.7292 66.8664 77.7292V70.6881C66.8664 70.6881 65.5729 71.7119 62.2627 71.7119C60.9383 71.7119 60.0709 71.2584 59.5074 70.7121C58.8461 70.0731 58.4957 69.1765 58.4957 68.2575V56.8068H66.8647V56.8085Z" fill="#015BFD"/>
<path d="M94.4349 34.0773L71.2931 42.8963C70.6781 43.1299 70.2727 43.7208 70.2727 44.3787V45.9247C70.2727 46.1944 70.5166 46.3988 70.7812 46.3507L92.4405 42.46C94.5019 42.0889 95.9998 40.2973 95.9998 38.2033V35.1543C95.9998 34.347 95.1907 33.7887 94.4366 34.0773H94.4349Z" fill="#FF0000"/>
</g>
<rect x="1" y="1" width="110" height="110" rx="9" stroke="#CCCCCC" stroke-width="2"/>
<defs>
<clipPath id="clip0_664_31">
<rect x="2" y="2" width="108" height="108" rx="8" fill="white"/>
</clipPath>
</defs>
</svg>
