<svg width="112" height="112" viewBox="0 0 112 112" fill="none" xmlns="http://www.w3.org/2000/svg">
<g clip-path="url(#clip0_6_7367)">
<rect x="2" y="2" width="108" height="108" rx="8" fill="white"/>
<path d="M88.5664 34.4916C87.4955 33.867 85.8705 34.6701 84.9452 36.2811C84.02 37.892 84.1374 39.6955 85.2082 40.3155C86.2791 40.9355 87.8994 40.137 88.8294 38.5308C89.7593 36.9245 89.6372 35.1116 88.5664 34.4916Z" fill="#F58220"/>
<path d="M85.814 53.4662V46.5996C85.814 44.721 85.598 43.6736 85.0203 42.7108C84.1749 41.2173 82.7142 40.5175 80.6618 40.5175C78.3134 40.5175 76.6414 41.3629 75.3311 43.2321V41.0764H68.906V42.0768H69.0845C70.9631 42.1096 71.198 42.321 71.198 44.8948V53.4662C71.198 56.1621 71.0195 56.3452 69.0234 56.3781H68.906V57.4678H77.6653V56.3781H77.4915C75.5283 56.3452 75.3498 56.195 75.3498 53.4662V47.2807C75.3763 46.1998 75.6545 45.14 76.1624 44.1856C76.9091 42.8987 77.9659 42.2364 79.1917 42.2364C80.9295 42.2364 81.7326 43.4435 81.7326 46.7828V53.4662C81.7326 56.1339 81.5213 56.3452 79.5909 56.3781H79.4125V57.4678H88.1624V56.3781H87.9839C85.9878 56.3452 85.8093 56.1621 85.8093 53.4662" fill="#F58220"/>
<path d="M31.9104 40.663C30.9447 40.6343 29.9891 40.8663 29.144 41.3346V42.8704C29.6721 42.2968 30.4079 41.9585 31.1871 41.9311C33.1409 41.9311 34.9867 44.317 34.9867 49.3096C34.9867 54.3021 33.0845 56.6552 31.0368 56.6552C27.7115 56.6552 27.6505 53.4661 27.519 52.6771C27.519 52.6771 27.4955 34.2802 27.519 33.8904H21V34.9518H21.1785C23.1652 34.9518 23.3342 35.4215 23.3342 38.0469V51.4512C23.3483 56.6692 28.7871 57.7589 30.863 57.7589C35.508 57.7589 39.3875 54.3726 39.3875 48.8352C39.3875 43.7346 36.2125 40.6818 31.9292 40.6818" fill="#F58220"/>
<path d="M61.6497 40.8932C59.9485 40.83 58.3053 41.5169 57.155 42.7718V41.0857H50.6454V42.3914C52.2798 42.4196 52.8528 42.6122 52.9327 44.2701V63.8693C52.8622 65.4897 52.4912 65.6024 50.8145 65.6493H50.6454V66.7202H59.461V65.6587H59.292C57.9816 65.6118 57.4133 65.5366 57.1597 64.9261V47.0787C57.6012 43.946 58.8552 42.227 60.6822 42.227C62.6407 42.227 63.8102 44.5754 63.8102 49.4505C63.8102 54.4853 62.5843 56.7679 60.3158 56.7679C59.8331 56.7622 59.3616 56.6224 58.9538 56.364V57.6744C59.6219 57.875 60.3186 57.9638 61.0156 57.9374C63.027 57.9907 64.9568 57.1413 66.2759 55.6219C67.4923 54.1284 68.1922 51.7143 68.1922 48.9949C68.1922 43.8709 65.8438 40.8744 61.6497 40.8744" fill="#F58220"/>
<path d="M46.4325 48.6051C46.4348 48.566 46.4348 48.5268 46.4325 48.4877V42.382H49.4901V41.0858H46.4419V36.2858H44.6901V36.4361C44.5444 37.564 44.1636 38.6489 43.5722 39.6204C42.9053 40.6584 41.7875 41.0858 40.5053 41.1468H39.8572V42.3961H42.0646V47.8255V48.004C42.0646 52.9214 41.9143 54.429 42.8396 55.6126C43.6145 56.5989 45.1315 57.9374 48.4239 57.9374C49.1221 57.9537 49.8184 57.857 50.4857 57.6509V56.3359C50.0778 56.5938 49.6063 56.7336 49.1237 56.7398C46.3809 56.7398 46.4278 55.1993 46.4325 48.6192" fill="#F58220"/>
<path fill-rule="evenodd" clip-rule="evenodd" d="M65.9331 29.809C66.0886 29.5585 66.2837 29.3349 66.5108 29.1468C66.7491 28.9587 67.0197 28.8155 67.3092 28.7241C67.628 28.6145 67.9632 28.5605 68.3002 28.5644C68.6569 28.5593 69.0116 28.6182 69.3476 28.7382C69.6694 28.8535 69.9604 29.0415 70.1977 29.2877C70.4462 29.522 70.6361 29.8117 70.7519 30.1331C70.895 30.4945 70.9637 30.8811 70.9538 31.2697V35.863C70.9514 35.9554 70.8771 36.0296 70.7847 36.0321H70.517C70.4229 36.0321 70.3458 35.9572 70.3433 35.863V31.2838C70.3533 30.9551 70.2974 30.6277 70.1789 30.3209C70.0847 30.0732 69.9334 29.8512 69.7374 29.6728C69.5547 29.4951 69.3326 29.3631 69.0892 29.2877C68.8355 29.1996 68.5688 29.1551 68.3002 29.1562C67.9453 29.1489 67.594 29.2279 67.2763 29.3863C66.9951 29.533 66.7498 29.7398 66.5577 29.9922C66.3475 30.2494 66.1881 30.5443 66.0881 30.8611C65.9834 31.2067 65.9311 31.5661 65.9331 31.9272V35.863C65.9306 35.9554 65.8563 36.0296 65.764 36.0321H65.4916C65.3992 36.0296 65.325 35.9554 65.3225 35.863V28.8979C65.325 28.8055 65.3992 28.7312 65.4916 28.7288H65.764C65.8563 28.7312 65.9306 28.8055 65.9331 28.8979" fill="#7D6B56"/>
<path fill-rule="evenodd" clip-rule="evenodd" d="M51.2513 34.6982V35.863C51.2488 35.9554 51.1745 36.0296 51.0822 36.0321H50.8098C50.7175 36.0296 50.6432 35.9554 50.6407 35.863V26.1879C50.6368 26.1402 50.6528 26.093 50.6847 26.0575C50.7167 26.0219 50.762 26.0011 50.8098 26H51.0822C51.1763 26.0025 51.2513 26.0796 51.2513 26.1738V30.0297C51.4315 29.7052 51.6742 29.4195 51.9652 29.189C52.5185 28.7599 53.2051 28.5388 53.9049 28.5644C54.3755 28.5546 54.841 28.6645 55.2575 28.8838C55.6421 29.0978 55.973 29.3966 56.2251 29.7573C56.4966 30.1229 56.6988 30.5352 56.8215 30.9738C56.9636 31.4428 57.0348 31.9303 57.0329 32.4204C57.0375 32.929 56.9663 33.4356 56.8215 33.9233C56.6958 34.352 56.4937 34.7545 56.2251 35.1115C55.6635 35.8046 54.8156 36.2026 53.9237 36.1918C53.2289 36.2178 52.5472 35.9983 51.9981 35.5718C51.6969 35.331 51.4449 35.0344 51.256 34.6982H51.2513ZM51.4391 33.6368C51.5483 34.0041 51.7216 34.3491 51.9511 34.656C52.1797 34.9414 52.4663 35.1751 52.7918 35.3417C53.1385 35.5151 53.522 35.6021 53.9096 35.5953C54.2914 35.6038 54.6692 35.5166 55.0086 35.3417C55.3191 35.1801 55.5864 34.9466 55.7883 34.6607C56.0085 34.3489 56.1679 33.9983 56.2579 33.6274C56.3762 33.228 56.4347 32.8134 56.4317 32.3969C56.4301 32.0048 56.3764 31.6147 56.272 31.2368C56.181 30.8647 56.0218 30.5128 55.8024 30.1988C55.5994 29.8957 55.3294 29.6434 55.0133 29.4614C54.6705 29.2613 54.2782 29.162 53.8814 29.175C53.1618 29.1559 52.4712 29.459 51.9981 30.0016C51.4634 30.6805 51.202 31.535 51.2654 32.3969C51.2629 32.8171 51.3247 33.2352 51.4485 33.6368" fill="#7D6B56"/>
<path fill-rule="evenodd" clip-rule="evenodd" d="M63.0963 34.9237L63.0212 35.0271C62.8438 35.2579 62.6296 35.4578 62.3871 35.6188C62.1244 35.8011 61.832 35.9362 61.5229 36.0181C61.1833 36.1281 60.8279 36.182 60.4709 36.1777C59.8343 36.207 59.2048 36.0344 58.6721 35.6846C58.1962 35.3156 57.9326 34.7359 57.9676 34.1347C57.9574 33.7589 58.0345 33.3859 58.193 33.0451C58.3358 32.7727 58.546 32.5414 58.8036 32.3734C59.0558 32.204 59.3405 32.0889 59.6396 32.0353C59.9317 31.9701 60.2285 31.9277 60.5272 31.9085L61.7625 31.8427C62.0335 31.8251 62.3023 31.7827 62.5656 31.7159C62.7234 31.6756 62.8647 31.5869 62.9695 31.4623C63.0641 31.309 63.1084 31.13 63.0963 30.9503C63.097 30.7426 63.0798 30.5352 63.0447 30.3304C62.9642 29.9038 62.6695 29.5488 62.265 29.391C61.9372 29.2589 61.5849 29.198 61.2317 29.2126C60.6555 29.1755 60.0861 29.3547 59.6349 29.7151C59.2413 30.0782 59.0167 30.5887 59.0149 31.1241C59.0015 31.2107 58.9287 31.2757 58.8411 31.2791H58.5734C58.527 31.2804 58.482 31.2625 58.4491 31.2297C58.4162 31.1968 58.3983 31.1518 58.3997 31.1053C58.4175 30.7731 58.4905 30.4461 58.6157 30.1378C58.7346 29.8188 58.9203 29.529 59.1605 29.2877C59.4153 29.058 59.7119 28.8794 60.0341 28.7617C60.4201 28.6335 60.8251 28.5716 61.2317 28.5785C61.5368 28.5745 61.8412 28.6076 62.1382 28.6772C62.4285 28.7379 62.7013 28.8631 62.9366 29.0435C63.1691 29.2201 63.3573 29.4484 63.4862 29.7104C63.6341 30.0313 63.7094 30.3809 63.7069 30.7343V35.8631C63.7044 35.9554 63.6302 36.0297 63.5378 36.0321H63.2701C63.1778 36.0297 63.1035 35.9554 63.101 35.8631L63.0963 34.9237ZM63.101 32.1057C63.0298 32.1464 62.9561 32.1825 62.8803 32.2137C62.6561 32.2831 62.4268 32.3349 62.1946 32.3687C61.9238 32.4084 61.6509 32.432 61.3773 32.4392C61.0955 32.4392 60.8278 32.4392 60.5554 32.4768C60.2935 32.496 60.0331 32.532 59.7758 32.5848C59.5546 32.6206 59.3443 32.7056 59.1605 32.8337C58.9782 32.946 58.8329 33.1093 58.7425 33.3034C58.6156 33.568 58.5575 33.8604 58.5734 34.1535C58.5739 34.3368 58.6024 34.5189 58.658 34.6936C58.7214 34.8731 58.8278 35.0344 58.968 35.1633C59.1359 35.3075 59.3284 35.4205 59.5362 35.4967C59.8283 35.5856 60.1328 35.6268 60.438 35.6188C60.8314 35.6229 61.2215 35.5462 61.584 35.3934C61.8938 35.2637 62.1748 35.0737 62.4106 34.8345C62.6358 34.603 62.8088 34.326 62.9179 34.022C63.0346 33.7225 63.0952 33.4041 63.0963 33.0826L63.101 32.1057Z" fill="#7D6B56"/>
<path d="M78.2994 35.9053L75.1386 31.5233L77.5761 28.973C77.5761 28.973 77.6701 28.8791 77.6607 28.8321C77.6514 28.7969 77.6216 28.7709 77.5855 28.7663H77.0595C76.9562 28.7684 76.8588 28.8146 76.7918 28.8932L73.18 32.4955V26.1691C73.1754 26.0777 73.1023 26.0047 73.011 26H72.6775C72.5852 26.0025 72.5109 26.0767 72.5084 26.1691V35.863C72.511 35.9546 72.5859 36.0274 72.6775 36.0274H73.011C73.1025 36.0274 73.1775 35.9546 73.18 35.863V33.3926L74.6172 31.9836L77.393 35.9147C77.4385 35.9939 77.5281 36.0368 77.6184 36.0227H78.2055C78.2446 36.0216 78.281 36.0025 78.3041 35.971C78.3186 35.9481 78.3186 35.9188 78.3041 35.8959" fill="#7D6B56"/>
<path d="M47.1135 75.0708H23.5081V84.7741H47.1135V75.0708Z" fill="#004B35"/>
<path d="M31.1495 81.9186C31.0697 81.881 31.0509 81.8528 31.0509 81.7401C31.0509 81.4489 31.0744 81.1342 31.0791 81.0497C31.0838 80.9652 31.0791 80.9088 31.1354 80.9088C31.1918 80.9088 31.1871 80.9605 31.1871 81.0027C31.191 81.0936 31.2068 81.1836 31.2341 81.2704C31.3071 81.5961 31.6054 81.8208 31.9386 81.8012C32.1065 81.8141 32.2724 81.7576 32.3975 81.6449C32.5227 81.5321 32.5962 81.3731 32.6008 81.2047C32.5956 80.862 32.4193 80.5447 32.1311 80.3593L31.9057 80.1714C31.4748 79.8992 31.2019 79.4356 31.173 78.9268C31.179 78.6386 31.3063 78.3662 31.5236 78.1767C31.7408 77.9871 32.0279 77.898 32.3143 77.9311C32.537 77.9289 32.7587 77.9606 32.9718 78.025C33.0141 78.025 33.0376 78.025 33.0376 78.0861C33.0376 78.1472 33.0376 78.3068 33.0376 78.7154C33.0376 78.8329 33.0376 78.8751 32.9765 78.8751C32.9155 78.8751 32.9296 78.8423 32.9296 78.7765C32.9203 78.6526 32.8764 78.5338 32.8028 78.4336C32.6796 78.2598 32.4753 78.1621 32.2626 78.1753C32.1108 78.1591 31.9592 78.209 31.8468 78.3125C31.7344 78.4159 31.672 78.5627 31.6756 78.7154C31.6756 78.9597 31.7883 79.1428 32.1969 79.4763L32.3378 79.5843C32.939 80.054 33.1456 80.425 33.1456 80.9229C33.1602 81.2958 32.983 81.6502 32.676 81.8622C32.4412 82.0131 32.1658 82.0885 31.8869 82.0783C31.632 82.0836 31.3794 82.0289 31.1495 81.9186Z" fill="white"/>
<path d="M34.4936 78.0721C34.4936 77.9781 34.5406 77.9312 34.5781 77.9312C34.6157 77.9312 34.6486 77.9593 34.7143 78.0955L36.0623 81.0169L37.4102 78.058C37.4431 77.9734 37.4713 77.9312 37.5136 77.9312C37.5558 77.9312 37.5887 77.9875 37.6028 78.0955L38.0725 81.3128C38.1147 81.6462 38.1664 81.7824 38.3167 81.8435C38.4149 81.8775 38.5181 81.8949 38.622 81.8951C38.6642 81.8951 38.7018 81.8951 38.7018 81.9327C38.7018 81.9703 38.6408 81.9891 38.5703 81.9891C38.4999 81.9891 37.7672 81.9891 37.5699 81.9609C37.4572 81.9609 37.429 81.9374 37.429 81.9092C37.429 81.8811 37.429 81.867 37.4807 81.8482C37.5323 81.8294 37.5229 81.7683 37.5042 81.6227L37.2083 79.3355L36.1327 81.6838C36.0153 81.928 35.9918 81.975 35.9449 81.975C35.8979 81.975 35.8509 81.8717 35.7711 81.712C35.6537 81.4724 35.2638 80.6693 35.2075 80.519C35.1511 80.3687 34.8646 79.791 34.6909 79.3965L34.4325 81.4443C34.4281 81.5272 34.4281 81.6103 34.4325 81.6932C34.432 81.7771 34.4948 81.848 34.5781 81.8576C34.6471 81.8759 34.7181 81.8854 34.7895 81.8857C34.8271 81.8857 34.8599 81.8858 34.8599 81.9233C34.8599 81.9609 34.8177 81.9797 34.7472 81.9797C34.5359 81.9797 34.3151 81.9797 34.2259 81.9797C34.1366 81.9797 33.8924 81.9797 33.7327 81.9797C33.6858 81.9797 33.6482 81.9797 33.6482 81.9233C33.6482 81.867 33.6764 81.8857 33.7233 81.8857C33.7749 81.8912 33.8268 81.8912 33.8783 81.8857C34.0145 81.8529 34.0521 81.6462 34.0756 81.4677L34.4936 78.0721Z" fill="white"/>
<path d="M39.3499 79.5421C39.3499 78.7483 39.3499 78.6027 39.3499 78.4289C39.3499 78.2552 39.3029 78.1706 39.1386 78.1284C39.0745 78.1224 39.01 78.1224 38.946 78.1284C38.8896 78.1284 38.8615 78.1284 38.8615 78.0814C38.8615 78.0344 38.8943 78.0344 38.9695 78.0344C39.2325 78.0344 39.5425 78.0344 39.6411 78.0344C39.8853 78.0344 40.0779 78.0344 40.247 78.0344C41.1393 78.0344 41.2943 78.5417 41.2943 78.8235C41.2901 79.1987 41.1046 79.5486 40.7965 79.7628C41.2791 79.9179 41.6216 80.3474 41.6654 80.8524C41.6586 81.185 41.5111 81.4992 41.2595 81.7168C41.0078 81.9344 40.6757 82.035 40.3456 81.9937H40.0027H39.627C39.5753 81.9937 39.4673 81.9937 39.3452 81.9937H39.007C38.9413 81.9937 38.9084 81.9937 38.9084 81.9421C38.9084 81.8904 38.9084 81.8998 38.9883 81.8998C39.0461 81.9036 39.1042 81.9036 39.162 81.8998C39.2654 81.8998 39.2888 81.7589 39.3076 81.6086C39.3264 81.4583 39.3076 80.9745 39.3076 80.4908L39.3499 79.5421ZM39.9464 79.636C39.9464 79.6736 39.9464 79.6877 39.9793 79.6923C40.0558 79.7002 40.1329 79.7002 40.2094 79.6923C40.3375 79.7084 40.4666 79.6711 40.5663 79.589C40.7139 79.4423 40.788 79.2373 40.7683 79.0301C40.7683 78.6826 40.5757 78.2176 40.153 78.2176C40.0984 78.2123 40.0433 78.2123 39.9887 78.2176C39.9511 78.2176 39.9464 78.2505 39.9464 78.3068V79.636ZM40.5992 80.054C40.4782 79.973 40.3362 79.929 40.1906 79.9272H39.9746C39.9746 79.9272 39.9464 79.9272 39.9464 79.9648V81.2094C39.9464 81.5569 39.9464 81.6462 40.1155 81.7166C40.2303 81.7623 40.3536 81.7831 40.4771 81.7777C40.65 81.7804 40.8156 81.708 40.931 81.5791C41.0464 81.4502 41.1001 81.2776 41.0783 81.106C41.0977 80.6946 40.9198 80.2986 40.5992 80.0399V80.054Z" fill="white"/>
<path d="M42.8912 81.4818C42.0855 80.653 42.069 79.3388 42.8536 78.49C43.2747 78.0947 43.8413 77.8922 44.4176 77.9311C44.6567 77.9303 44.8955 77.9491 45.1315 77.9875C45.3193 77.9875 45.479 78.0579 45.6011 78.0767C45.6575 78.0767 45.681 78.1049 45.681 78.1378C45.681 78.1706 45.681 78.2411 45.6528 78.429C45.6246 78.6168 45.6528 78.8986 45.6528 78.9926C45.6528 79.0865 45.6528 79.1147 45.5918 79.1147C45.5307 79.1147 45.5448 79.0724 45.5448 79.002C45.5331 78.8287 45.4655 78.6639 45.3522 78.5323C45.0719 78.2981 44.7115 78.1819 44.3471 78.2082C44.003 78.184 43.6638 78.301 43.4078 78.5323C43.0705 78.9042 42.9008 79.3983 42.9381 79.899C42.895 80.3551 43.0353 80.8095 43.3278 81.162C43.6204 81.5145 44.0412 81.736 44.4974 81.7777C44.9389 81.7777 45.2066 81.726 45.3992 81.4818C45.4815 81.3805 45.5393 81.2615 45.5683 81.1342C45.5683 81.0544 45.5683 81.0309 45.634 81.0309C45.6998 81.0309 45.6763 81.0685 45.6763 81.1108C45.6546 81.3445 45.6185 81.5766 45.5683 81.8059C45.5617 81.8786 45.5115 81.94 45.4415 81.9609C45.1545 82.0511 44.8544 82.0923 44.5538 82.083C43.943 82.1029 43.3479 81.8877 42.8912 81.4818Z" fill="white"/>
<path d="M25.0438 79.6924V82.6231L26.2368 82.1205V79.171L25.0438 79.6924Z" fill="#BFD730"/>
<path d="M27.7491 77.2595V80.1949L28.9421 79.6877V76.7382L27.7491 77.2595Z" fill="#BFD730"/>
<path d="M26.4153 79.0959V82.0313L27.6082 80.2889V77.3394L26.4153 79.0959Z" fill="#BFD730"/>
<path d="M49.9034 81.6885C49.9034 82.0454 50.0208 82.3742 50.5891 82.8439L50.8239 83.0364C51.2936 83.4122 51.4016 83.6047 51.4016 83.9382C51.4008 84.119 51.325 84.2913 51.1924 84.4142C51.0598 84.537 50.8821 84.5993 50.7018 84.5863C50.3689 84.6253 50.0583 84.4128 49.9738 84.0885C49.9675 84.0276 49.9675 83.9662 49.9738 83.9053C49.9738 83.8771 49.9738 83.8114 49.8987 83.8114C49.8235 83.8114 49.8235 83.8912 49.8188 83.9288V83.9899C49.8188 84.0979 49.8188 84.2717 49.8188 84.4595C49.8188 84.6474 49.8188 84.6427 49.9175 84.6944C50.142 84.7938 50.3859 84.8419 50.6314 84.8353C50.9152 84.8443 51.1952 84.7673 51.4345 84.6145C51.7228 84.4076 51.8968 84.0769 51.9042 83.7221C51.9042 83.3182 51.7774 82.9848 51.1339 82.4775L50.9883 82.3601C50.5187 81.9562 50.3684 81.7918 50.3684 81.5241C50.3651 81.367 50.4288 81.2159 50.5434 81.1084C50.6581 81.0009 50.8129 80.9471 50.9695 80.9605C51.3969 80.9605 51.5425 81.139 51.5801 81.2141C51.6162 81.291 51.6384 81.3737 51.6459 81.4583C51.6459 81.4959 51.6459 81.5617 51.7257 81.5617C51.8055 81.5617 51.8008 81.4583 51.8008 81.402C51.8008 81.1296 51.8008 80.9652 51.8008 80.8947V80.8525C51.8008 80.8055 51.768 80.782 51.7116 80.782C51.6527 80.7798 51.5944 80.7704 51.5378 80.7538C51.3835 80.72 51.2261 80.7027 51.0682 80.7022C50.7894 80.6674 50.509 80.7531 50.2974 80.9378C50.0858 81.1226 49.9629 81.3888 49.9597 81.6697" fill="#004B35"/>
<path d="M56.225 80.829C56.225 80.829 54.8536 83.9851 54.8489 83.9992C54.8442 84.0133 53.4399 80.8243 53.4399 80.8243C53.4399 80.8243 53.3929 80.7256 53.3365 80.7256C53.2802 80.7256 53.2473 80.8102 53.2426 80.8478L52.8669 84.2388C52.8669 84.4172 52.834 84.591 52.7119 84.6145C52.6651 84.6204 52.6178 84.6204 52.571 84.6145C52.524 84.6145 52.4865 84.6427 52.4865 84.6756C52.4865 84.7084 52.4865 84.7601 52.6039 84.7601H52.8998H53.1017H53.454C53.4962 84.7601 53.5761 84.7601 53.5761 84.6756C53.5712 84.6385 53.5382 84.6117 53.5009 84.6145C53.4434 84.624 53.3847 84.624 53.3272 84.6145C53.2691 84.6008 53.2293 84.5472 53.2332 84.4877C53.2332 84.4031 53.2332 84.3092 53.2332 84.2294C53.2332 84.2294 53.4117 81.9468 53.4164 81.9468C53.4211 81.9468 54.5765 84.5346 54.5765 84.5346C54.6751 84.7319 54.6939 84.7742 54.7502 84.7742C54.8066 84.7742 54.8301 84.7319 54.9052 84.5534L56.07 81.8951L56.2908 84.4501C56.2881 84.4751 56.2881 84.5003 56.2908 84.5253C56.2908 84.5675 56.2908 84.6192 56.2908 84.6192C56.2612 84.6296 56.242 84.6583 56.2438 84.6896C56.2438 84.7554 56.3142 84.7695 56.4082 84.7742C56.596 84.7742 57.108 84.7742 57.216 84.7742C57.324 84.7742 57.3522 84.7084 57.3522 84.6896C57.3522 84.6709 57.3522 84.6286 57.2771 84.6286C57.1753 84.6302 57.0739 84.616 56.9765 84.5863C56.7933 84.5206 56.7604 84.2388 56.7463 84.0697L56.4223 80.89C56.4223 80.8196 56.4223 80.7209 56.3236 80.7209C56.225 80.7209 56.2344 80.7867 56.2203 80.8243" fill="#004B35"/>
<path d="M58.7143 81.0122C58.7143 81.0122 58.7143 81.0122 58.7425 81.0122C58.8237 81.0033 58.9056 81.0033 58.9867 81.0122C59.4564 81.0122 59.6584 81.4818 59.6584 81.8764C59.6589 82.0603 59.594 82.2384 59.4752 82.3789C59.3766 82.4916 59.3155 82.5057 59.0055 82.5057C58.9024 82.5149 58.7987 82.5149 58.6955 82.5057V81.0967L58.7143 81.0122ZM58.6486 80.8337H58.3856C58.2728 80.8337 58.038 80.8337 57.8595 80.8337C57.8314 80.8337 57.7374 80.8337 57.7374 80.9135C57.7374 80.9343 57.7459 80.9542 57.7611 80.9684C57.7762 80.9827 57.7965 80.99 57.8173 80.9887C57.8734 80.9813 57.9302 80.9813 57.9864 80.9887C58.1319 81.0169 58.1742 81.0732 58.1836 81.247C58.193 81.4208 58.1836 81.5617 58.1836 82.3789V83.3182C58.1836 83.7879 58.1836 84.2576 58.1836 84.4548C58.1836 84.6521 58.1366 84.6944 58.0615 84.7085C58.0115 84.7136 57.9612 84.7136 57.9112 84.7085C57.8548 84.7085 57.8314 84.7413 57.8314 84.7742C57.8314 84.8071 57.9206 84.8588 57.9535 84.8588C58.0662 84.8588 58.2259 84.8588 58.3433 84.8588H58.4654H58.6674H59.1652C59.5058 84.8954 59.8464 84.7895 60.1062 84.5662C60.3659 84.3429 60.5217 84.0221 60.5366 83.6799C60.5193 83.155 60.1671 82.7004 59.6631 82.5527C59.9701 82.3407 60.1473 81.9862 60.1327 81.6134C60.1327 81.3034 59.9026 80.7867 59.0431 80.7867H58.6674L58.6486 80.8337ZM58.8693 84.5159C58.7331 84.4501 58.7331 84.3985 58.7143 84.1636V82.7124C58.8442 82.7047 58.9743 82.7047 59.1042 82.7124C59.2482 82.7159 59.3889 82.7563 59.5128 82.8298C59.8234 83.0727 59.9982 83.4503 59.9824 83.8443C59.9918 84.0334 59.9214 84.2178 59.7883 84.3526C59.6553 84.4874 59.4719 84.5603 59.2826 84.5535C59.1227 84.5583 58.9634 84.5328 58.813 84.4783" fill="#004B35"/>
<path d="M61.7765 81.3221C61.439 81.7294 61.259 82.2444 61.2693 82.7733C61.2569 83.3527 61.4867 83.911 61.9033 84.3138C62.3514 84.702 62.9378 84.8919 63.5284 84.8399C63.8258 84.838 64.121 84.7872 64.402 84.6896C64.4804 84.6665 64.5365 84.5973 64.5429 84.5158C64.5842 84.292 64.614 84.0663 64.6321 83.8395C64.6321 83.7361 64.5804 83.7268 64.5569 83.7268C64.5335 83.7268 64.4865 83.7972 64.4724 83.8348C64.4517 83.9852 64.3988 84.1293 64.3174 84.2575C64.104 84.4604 63.8116 84.5584 63.519 84.5252C63.0488 84.5387 62.5961 84.3466 62.2791 83.9992C61.9647 83.6449 61.7866 83.1904 61.7765 82.717C61.7199 82.2372 61.8587 81.7548 62.1616 81.3784C62.4447 81.1043 62.8297 80.9612 63.2231 80.9839C63.5569 80.9628 63.8881 81.0556 64.1624 81.2469C64.2902 81.3799 64.3639 81.5557 64.3691 81.7401C64.3691 81.8011 64.3691 81.8857 64.4442 81.881C64.5194 81.8763 64.5194 81.7964 64.5194 81.7354V81.2046C64.5194 81.0919 64.5194 81.0262 64.5194 80.9792V80.9134C64.5194 80.8571 64.4865 80.8242 64.4207 80.8195C64.2632 80.8106 64.1063 80.7918 63.9511 80.7632C63.718 80.7277 63.4822 80.7135 63.2466 80.7209C62.6905 80.7003 62.1528 80.9212 61.7718 81.3268" fill="#004B35"/>
<path d="M71.353 82.501C71.3248 82.2145 71.2497 82.2145 71.1463 82.2239C71.043 82.2332 70.935 82.2708 70.8927 82.2708C70.877 82.2721 70.8614 82.2668 70.8498 82.2561C70.8382 82.2454 70.8316 82.2303 70.8317 82.2145C70.8317 82.1675 70.8317 82.1534 71.1088 82.083C71.2825 82.0407 71.7146 81.8857 71.7428 81.8857C71.753 81.8798 71.7655 81.8798 71.7757 81.8857V82.144C71.7757 82.4587 71.7757 82.4822 71.8227 82.4822C71.8696 82.4822 71.8649 82.4822 71.9495 82.3648C72.1501 82.0911 72.4538 81.9113 72.7902 81.8669C72.883 81.8585 72.9749 81.8911 73.0417 81.9561C73.1085 82.0211 73.1436 82.112 73.1377 82.2051C73.1404 82.3719 73.0086 82.5099 72.8418 82.515C72.7489 82.5179 72.6615 82.4714 72.6117 82.3929C72.5701 82.3372 72.5071 82.3015 72.4379 82.2943C72.2237 82.3408 72.0412 82.4802 71.9401 82.6747C71.7992 82.9284 71.7616 83.0693 71.7616 83.9428C71.7616 84.0039 71.7616 84.2951 71.7616 84.3843C71.7616 84.4736 71.7945 84.5628 71.9213 84.5863C72.0481 84.6098 72.0669 84.5863 72.1561 84.6145C72.1875 84.6149 72.2142 84.6374 72.2199 84.6682C72.2256 84.6991 72.2087 84.7296 72.1796 84.7413C72.1022 84.7573 72.0222 84.7573 71.9448 84.7413H71.4751C71.3295 84.7413 71.0571 84.7413 71.0054 84.7413C70.9538 84.7413 70.888 84.7413 70.8739 84.6708C70.8598 84.6004 70.9491 84.591 71.0101 84.591C71.0712 84.591 71.2027 84.591 71.2544 84.5158C71.306 84.3551 71.3298 84.1867 71.3248 84.018C71.3248 83.6329 71.3248 82.7687 71.3248 82.4681" fill="#004B35"/>
<path d="M74.7393 81.8904C75.3657 81.8003 75.9822 82.1084 76.2861 82.6635C76.5899 83.2186 76.5173 83.904 76.1039 84.3831C75.6905 84.8622 75.0231 85.0343 74.4295 84.8149C73.8359 84.5956 73.4409 84.0308 73.4384 83.398C73.4019 83.0236 73.5204 82.6506 73.7662 82.3658C74.0119 82.081 74.3636 81.9092 74.7393 81.8904ZM74.9742 84.7366C75.5812 84.7366 76.0121 84.1025 76.0121 83.398C76.0121 82.6935 75.6054 82.0501 74.9742 82.0501C74.3429 82.0501 73.9362 82.5996 73.9362 83.398C73.9362 84.0931 74.3247 84.7366 74.9742 84.7366Z" fill="#004B35"/>
<path d="M80.4552 85.521C80.4842 85.6611 80.608 85.7612 80.751 85.7605C80.8591 85.7605 80.8966 85.7605 80.8966 85.831C80.8966 85.9014 80.7839 85.9108 80.7041 85.9061C80.4505 85.9061 80.0982 85.9061 79.6755 85.9061C79.5816 85.9061 79.5675 85.8497 79.5722 85.8263C79.5733 85.8066 79.5826 85.7884 79.5977 85.7759C79.6129 85.7634 79.6326 85.7579 79.652 85.7605C79.7207 85.7679 79.79 85.7679 79.8587 85.7605C79.9103 85.7484 79.9525 85.7114 79.9714 85.6619C80.0258 85.2147 80.0415 84.7638 80.0184 84.3139C80.0184 84.3139 80.0184 83.2431 80.0184 82.9049C80.0184 82.3883 80.0184 82.2239 79.8164 82.2239C79.7319 82.2239 79.6332 82.2568 79.591 82.2568C79.5634 82.2546 79.5415 82.2327 79.5393 82.2051C79.5393 82.1628 79.5393 82.1488 79.6755 82.1159C79.8869 82.0736 80.3706 81.8857 80.3894 81.8857C80.4082 81.8857 80.4317 81.9374 80.4317 82.0548C80.4317 82.1722 80.4317 82.2004 80.4786 82.1816C80.5256 82.1628 80.6712 82.0736 80.6853 82.0642C80.8734 81.9529 81.0868 81.8914 81.3053 81.8857C81.9158 81.8857 82.4747 82.4212 82.4747 83.337C82.4747 84.1167 82.0379 84.8916 81.3006 84.8916C81.1047 84.8891 80.9109 84.8525 80.7276 84.7836C80.658 84.7436 80.5839 84.712 80.5068 84.6897C80.4317 84.6897 80.4364 84.6897 80.4317 85.1593C80.4317 85.2345 80.4317 85.4505 80.4317 85.5116L80.4552 85.521ZM80.5585 82.3554C80.4129 82.4963 80.4082 82.5996 80.4082 83.4544C80.4082 84.3092 80.4082 84.3374 80.5538 84.4548C80.716 84.576 80.9151 84.6374 81.1174 84.6286C81.7749 84.6286 81.9628 83.9053 81.9628 83.3887C81.9628 82.6889 81.6669 82.13 81.1268 82.13C80.917 82.1374 80.7163 82.2171 80.5585 82.3554Z" fill="#004B35"/>
<path d="M70.2353 82.764H69.8454H69.7092H69.2678C69.2396 82.764 69.155 82.764 69.155 82.8438C69.1575 82.8835 69.1904 82.9144 69.2302 82.9143C69.2692 82.9094 69.3086 82.9094 69.3476 82.9143C69.5073 82.9613 69.5355 82.9988 69.5355 83.4121V84.2904C69.5398 84.3541 69.5068 84.4145 69.4509 84.4454C69.2879 84.5154 69.1116 84.5491 68.9343 84.544C68.4673 84.5474 68.0211 84.3508 67.7085 84.0039C67.3942 83.6024 67.2283 83.1047 67.2388 82.5949C67.2103 82.1194 67.3804 81.6534 67.7085 81.308C67.985 81.0727 68.3417 80.9533 68.7042 80.9746C69.1083 80.9308 69.5097 81.0785 69.7891 81.3738C69.8419 81.4764 69.8753 81.5878 69.8877 81.7026C69.8877 81.7448 69.8877 81.8153 69.9535 81.8153C70.0192 81.8153 70.038 81.726 70.038 81.6697C70.0271 81.4538 70.0271 81.2374 70.038 81.0215C70.0399 80.9918 70.0399 80.962 70.038 80.9323C70.038 80.9323 70.038 80.8618 69.9441 80.8525C69.8175 80.8467 69.6917 80.8294 69.5683 80.8008C69.3262 80.746 69.0792 80.7161 68.831 80.7116C68.3794 80.6882 67.9317 80.8046 67.5488 81.045C67.0086 81.4533 66.7046 82.1017 66.7363 82.7781C66.7247 83.334 66.9322 83.8721 67.3139 84.2763C67.7494 84.664 68.319 84.8662 68.9014 84.8399C69.2587 84.8454 69.6119 84.7632 69.93 84.6004C70.0098 84.5534 70.0098 84.5206 70.0098 84.2904V83.7221C70.0098 83.5061 70.0098 83.3511 70.0098 83.1867C70.0098 83.0223 70.0568 82.9472 70.1554 82.9237H70.2681C70.3104 82.9237 70.3433 82.8955 70.3433 82.8579C70.3433 82.8204 70.2775 82.7781 70.2306 82.7781" fill="#004B35"/>
<path d="M79.2951 84.6333C79.2149 84.6299 79.1364 84.609 79.065 84.5722C78.9523 84.5112 78.9335 84.3703 78.9335 83.9945C78.9335 83.8208 78.9335 83.2807 78.9335 83.1257C78.9335 82.9707 78.9335 81.9797 78.9335 81.9374C78.9277 81.9099 78.905 81.8891 78.8771 81.8857C78.8771 81.8857 78.5719 81.975 78.4732 81.9938C78.0928 82.0877 78.0364 82.083 78.0364 82.1582C78.0364 82.2333 78.0364 82.2098 78.1069 82.2051H78.3088C78.5296 82.2051 78.5296 82.3883 78.5296 82.9754C78.5421 83.395 78.5154 83.8148 78.4497 84.2294C78.2838 84.4765 78.0138 84.634 77.7171 84.6568C77.4907 84.6634 77.2852 84.5257 77.2051 84.3139C77.144 84.1005 77.1233 83.8775 77.1441 83.6564C77.1441 83.4873 77.1441 81.9609 77.1441 81.9562C77.1418 81.9286 77.12 81.9067 77.0924 81.9045C77.0924 81.9045 76.7401 82.0126 76.5523 82.0595C76.3644 82.1065 76.3221 82.1206 76.3221 82.1675C76.3221 82.2145 76.3221 82.2239 76.3973 82.2145H76.557C76.6177 82.2067 76.6765 82.2389 76.7026 82.2944C76.7272 82.5786 76.7366 82.8639 76.7308 83.1491C76.7308 83.2807 76.7308 83.8865 76.7308 84.0086C76.773 84.8634 77.3977 84.9198 77.5668 84.9198C77.8291 84.9043 78.0809 84.8111 78.2901 84.6521C78.3182 84.6521 78.4356 84.5159 78.4685 84.5159C78.5014 84.5159 78.5155 84.5488 78.5202 84.6568C78.516 84.6769 78.516 84.6977 78.5202 84.7178C78.521 84.7443 78.5335 84.7691 78.5544 84.7854C78.5753 84.8018 78.6023 84.808 78.6282 84.8024C78.7221 84.8024 78.8255 84.8024 78.91 84.8024H79.281C79.3656 84.8024 79.3938 84.7601 79.3985 84.7272C79.4032 84.6944 79.3985 84.6615 79.2904 84.6521" fill="#004B35"/>
<path d="M67.638 75.1131C67.638 75.1131 66.2713 78.2693 66.2619 78.2834L64.8529 75.1085C64.8529 75.0615 64.8059 75.0098 64.7448 75.0098C64.6838 75.0098 64.6603 75.0944 64.6556 75.1366L64.308 78.5276C64.308 78.7061 64.2752 78.8752 64.1484 78.9034C64.1032 78.9094 64.0574 78.9094 64.0122 78.9034C63.9652 78.9034 63.9276 78.9315 63.9276 78.9644C63.9276 78.9973 63.9276 79.049 64.045 79.049H64.3409H64.5429H64.8951C64.9374 79.049 65.0172 79.049 65.0172 78.9644C65.0172 78.8799 64.9844 78.9034 64.9374 78.9034C64.8813 78.9104 64.8245 78.9104 64.7683 78.9034C64.7102 78.8897 64.6705 78.8361 64.6744 78.7766C64.6744 78.692 64.6744 78.5981 64.6744 78.5182L64.8529 76.2357L66.0176 78.8235C66.1116 79.0208 66.135 79.0631 66.1914 79.0631C66.2478 79.0631 66.2713 79.0208 66.3464 78.8423L67.4971 76.1793L67.7178 78.7249C67.7153 78.753 67.7153 78.7813 67.7178 78.8094C67.7178 78.847 67.7178 78.8987 67.7178 78.8987C67.6892 78.9103 67.6705 78.9382 67.6709 78.9691C67.6709 79.0349 67.7413 79.049 67.8352 79.0584C68.0231 79.0584 68.535 79.0584 68.6431 79.0584C68.7511 79.0584 68.7793 78.9973 68.7793 78.9738C68.7793 78.9503 68.7793 78.9128 68.7041 78.9128C68.6023 78.9144 68.5009 78.9002 68.4035 78.8705C68.2204 78.8047 68.1875 78.5229 68.1734 78.3539L67.8493 75.1789C67.8493 75.1038 67.8493 75.0051 67.7507 75.0051C67.6521 75.0051 67.6615 75.0709 67.6474 75.1085" fill="#004B35"/>
<path d="M70.1554 75.315C70.1554 75.315 70.1554 75.315 70.1836 75.2915C70.2663 75.2825 70.3498 75.2825 70.4325 75.2915C70.9022 75.2915 71.0994 75.7612 71.0994 76.151C71.1008 76.3351 71.0357 76.5135 70.9162 76.6536C70.8176 76.7663 70.7566 76.7757 70.4466 76.7757C70.345 76.7835 70.2429 76.7835 70.1413 76.7757V75.3667L70.1554 75.315ZM70.0943 75.1037H69.8454H69.3194C69.2912 75.1037 69.1973 75.1037 69.1973 75.1788C69.1972 75.1996 69.2058 75.2194 69.2209 75.2337C69.236 75.2479 69.2564 75.2553 69.2771 75.254H69.4462C69.5918 75.2868 69.6294 75.3432 69.6434 75.517C69.6575 75.6907 69.6434 75.8316 69.6434 76.6442V77.5835C69.6434 78.0532 69.6434 78.4947 69.6153 78.7107C69.5871 78.9268 69.5683 78.9502 69.4979 78.9643C69.4479 78.9694 69.3975 78.9694 69.3476 78.9643C69.2912 78.9643 69.2677 78.9972 69.2677 79.0301C69.2677 79.063 69.357 79.1146 69.3851 79.1146H69.7796H69.8971H70.1037C70.2775 79.1146 70.517 79.1146 70.5734 79.1146C70.914 79.1513 71.2546 79.0454 71.5143 78.8221C71.7741 78.5988 71.9299 78.278 71.9448 77.9358C71.9255 77.4126 71.5736 76.9605 71.0712 76.8133C71.379 76.6018 71.5564 76.247 71.5409 75.8739C71.5409 75.5686 71.3108 75.052 70.4513 75.052L70.0943 75.1037ZM70.301 78.8234C70.1601 78.7577 70.1601 78.7107 70.146 78.4712V78.4477C70.146 78.3726 70.146 77.715 70.146 77.3205V77.0246C70.362 77.0246 70.4935 77.0246 70.5405 77.0246C70.6903 77.0349 70.8347 77.0852 70.9585 77.1702C71.2679 77.4141 71.4424 77.791 71.4282 78.1847C71.4376 78.3734 71.3671 78.5574 71.2339 78.6915C71.1007 78.8256 70.9172 78.8973 70.7284 78.8892C70.5851 78.8761 70.4452 78.8379 70.3151 78.7765L70.301 78.8234Z" fill="#004B35"/>
<path d="M59.5127 75.1131C59.5127 75.1131 58.1459 78.2692 58.1413 78.2833C58.1366 78.2974 56.7322 75.1084 56.7322 75.1084C56.7322 75.1084 56.6853 75.0098 56.6242 75.0098C56.5632 75.0098 56.5397 75.0943 56.535 75.1366L56.1874 78.5276C56.1874 78.706 56.1546 78.8751 56.0278 78.9033C55.9826 78.9094 55.9367 78.9094 55.8915 78.9033C55.8446 78.9033 55.807 78.9315 55.807 78.9644C55.807 78.9972 55.807 79.0489 55.9244 79.0489H56.2203H56.4223H56.7745C56.8168 79.0489 56.8966 79.0489 56.8966 78.9644C56.8918 78.9273 56.8588 78.9005 56.8215 78.9033C56.7638 78.9107 56.7054 78.9107 56.6477 78.9033C56.5888 78.8899 56.5476 78.8369 56.5491 78.7765C56.5443 78.6905 56.5443 78.6042 56.5491 78.5182L56.7276 76.2356L57.8923 78.8235C57.991 79.0207 58.0097 79.063 58.0661 79.063C58.1225 79.063 58.1459 79.0207 58.2211 78.8422L59.3812 76.1886L59.6019 78.7342C59.6019 78.7671 59.6019 78.7906 59.6019 78.8188C59.6019 78.8469 59.6019 78.908 59.6019 78.908C59.5733 78.9196 59.5546 78.9475 59.555 78.9784C59.555 79.0442 59.6301 79.0583 59.724 79.0677C59.9072 79.0677 60.4238 79.0677 60.5272 79.0677C60.6305 79.0677 60.6634 79.0066 60.6634 78.9831C60.6634 78.9597 60.6634 78.9221 60.5882 78.9221C60.4864 78.9235 60.3851 78.9093 60.2876 78.8798C60.1045 78.8141 60.0716 78.5323 60.0575 78.3632L59.7334 75.1882C59.7334 75.1131 59.7334 75.0145 59.6348 75.0145C59.5362 75.0145 59.5456 75.0802 59.5315 75.1178" fill="#004B35"/>
<path d="M53.6888 78.9457C53.6234 78.9444 53.5584 78.9333 53.4963 78.9128C53.3788 78.8799 53.2426 78.7907 53.0689 78.3586C52.8481 77.7997 52.3737 76.5644 52.0919 75.8271C51.9698 75.5218 51.89 75.3057 51.8665 75.2494C51.8055 75.0897 51.7773 75.0427 51.7256 75.0427C51.6739 75.0427 51.6458 75.0897 51.58 75.2635L50.4105 78.4713C50.3119 78.7437 50.2133 78.9034 50.0019 78.941H49.8563C49.8094 78.941 49.7765 78.941 49.7765 79.002C49.7765 79.0631 49.8704 79.0772 49.908 79.0772C50.0724 79.0772 50.2509 79.0772 50.3777 79.0772H50.6266H50.899C50.9882 79.0772 51.007 79.0349 51.007 79.002C51.007 78.9691 51.007 78.941 50.9225 78.941H50.8708C50.8098 78.941 50.7064 78.9081 50.7064 78.8189C50.7127 78.7047 50.7365 78.5923 50.7769 78.4854L51.0587 77.6165H52.2328L52.7025 78.847C52.7118 78.8728 52.7118 78.9011 52.7025 78.9269C52.6855 78.9268 52.6692 78.9339 52.6576 78.9464C52.646 78.9589 52.6401 78.9756 52.6415 78.9926C52.6415 79.049 52.7025 79.0537 52.8011 79.0584H52.8293C53.0595 79.0584 53.346 79.0584 53.6372 79.0584C53.7499 79.0584 53.7734 79.0161 53.7734 78.9832C53.7734 78.9504 53.7499 78.9457 53.6888 78.9457ZM51.1573 77.3488L51.627 75.9398C51.6265 75.932 51.6265 75.9241 51.627 75.9163C51.6295 75.9239 51.6295 75.9322 51.627 75.9398L52.1389 77.3488H51.1573Z" fill="#004B35"/>
<path d="M74.9225 78.3163C74.8614 78.3163 74.852 78.382 74.8473 78.4196C74.8097 78.6215 74.7534 78.7202 74.636 78.7718C74.4829 78.8128 74.3246 78.8302 74.1663 78.8235C73.6637 78.8235 73.6168 78.7577 73.6027 78.4337C73.6027 78.3538 73.6027 78.0204 73.6027 77.7761V77.0904C73.6919 77.0904 74.2039 77.0904 74.3401 77.1186C74.4763 77.1468 74.5608 77.2031 74.5843 77.2736C74.5928 77.3281 74.5928 77.3835 74.5843 77.438C74.5843 77.4849 74.5843 77.5178 74.65 77.5178C74.7158 77.5178 74.7205 77.4286 74.7205 77.3863C74.7205 77.344 74.7205 77.1609 74.7205 77.0575C74.7269 76.9818 74.7379 76.9065 74.7534 76.8321C74.7534 76.7992 74.7534 76.7804 74.7534 76.7663C74.7534 76.7523 74.7064 76.6912 74.6923 76.6912C74.6782 76.6912 74.636 76.7194 74.5984 76.757C74.5608 76.7992 74.4998 76.8086 74.3729 76.818H73.5604V75.3526H74.2602C74.5467 75.3526 74.5749 75.4419 74.6031 75.5076C74.6224 75.5635 74.632 75.6223 74.6313 75.6814C74.6313 75.766 74.6782 75.78 74.7064 75.78C74.7346 75.78 74.7628 75.7519 74.7722 75.6955C74.7764 75.6157 74.7764 75.5358 74.7722 75.456C74.7739 75.4216 74.7739 75.3871 74.7722 75.3526C74.7722 75.2728 74.7722 75.2164 74.805 75.1742C74.8067 75.1523 74.8067 75.1303 74.805 75.1084C74.805 75.038 74.7675 75.0286 74.7534 75.0286C74.7366 75.0232 74.7185 75.0232 74.7017 75.0286H74.6735C74.6032 75.035 74.5325 75.035 74.4622 75.0286C74.3401 75.0286 73.4571 75.0286 73.1847 75.0286H72.715C72.6821 75.0286 72.6023 75.0286 72.6023 75.1037C72.6035 75.1212 72.6116 75.1374 72.6248 75.1489C72.6381 75.1604 72.6553 75.1661 72.6727 75.1648C72.729 75.1597 72.7856 75.1597 72.8418 75.1648C72.9827 75.1977 73.0297 75.254 73.0344 75.4325C73.0391 75.611 73.0344 75.7378 73.0344 76.5456V77.4521C73.0344 77.9217 73.0344 78.3538 73.0109 78.5652C72.9874 78.7765 72.9592 78.8094 72.8841 78.8235C72.8341 78.8289 72.7837 78.8289 72.7338 78.8235C72.6821 78.8235 72.6633 78.8517 72.6633 78.8845C72.6633 78.9174 72.7479 78.955 72.7761 78.955H73.2833H73.6872H73.7953H74.5561C74.7581 78.955 74.8238 78.955 74.8661 78.8C74.8993 78.6324 74.9228 78.4631 74.9365 78.2928C75.0117 78.3867 75.0117 78.3163 74.9225 78.3163Z" fill="#004B35"/>
<path d="M63.3358 78.3022C63.2795 78.3022 63.2701 78.3632 63.2607 78.4055C63.2231 78.6075 63.1667 78.7014 63.0493 78.7578C62.8963 78.799 62.7379 78.8164 62.5797 78.8094C62.0724 78.8094 62.0254 78.7437 62.0114 78.4149C62.0114 78.3397 62.0114 78.0063 62.0114 77.7621V77.0763C62.0959 77.0763 62.6078 77.0763 62.7487 77.0763C62.8896 77.0763 62.9648 77.1656 62.9883 77.236C62.9967 77.2905 62.9967 77.3459 62.9883 77.4004C62.9853 77.4203 62.9916 77.4404 63.0053 77.455C63.0191 77.4696 63.0387 77.4772 63.0587 77.4756C63.1245 77.4756 63.1245 77.391 63.1245 77.3441C63.1245 77.2971 63.1245 77.128 63.1245 77.02C63.1313 76.9443 63.1422 76.869 63.1573 76.7945C63.1573 76.7617 63.1573 76.7429 63.1573 76.7288C63.1573 76.7147 63.1104 76.6536 63.101 76.6536C63.0916 76.6536 63.0399 76.6818 63.007 76.7194C62.9695 76.7617 62.9084 76.7711 62.7863 76.7805C62.6642 76.7898 62.3166 76.7805 61.9691 76.7805V75.3621C62.0395 75.3621 62.5843 75.3621 62.6736 75.3621C62.9554 75.3621 62.9836 75.4513 63.0117 75.517C63.0315 75.5728 63.041 75.6317 63.0399 75.6908C63.0399 75.7754 63.0869 75.7895 63.1151 75.7895C63.1433 75.7895 63.1714 75.7613 63.1808 75.7049C63.1851 75.6267 63.1851 75.5483 63.1808 75.4701C63.1772 75.4342 63.1772 75.398 63.1808 75.3621C63.1863 75.3036 63.1958 75.2455 63.209 75.1883C63.2122 75.1649 63.2122 75.1412 63.209 75.1178C63.209 75.0474 63.1714 75.038 63.1526 75.038C63.1357 75.0334 63.1179 75.0334 63.101 75.038H63.0728C63.0009 75.0444 62.9286 75.0444 62.8568 75.038H61.6544H61.1847C61.1566 75.038 61.072 75.038 61.072 75.1131C61.0732 75.1306 61.0813 75.1469 61.0946 75.1583C61.1078 75.1698 61.125 75.1755 61.1425 75.1742C61.1987 75.1691 61.2553 75.1691 61.3116 75.1742C61.4571 75.2071 61.4994 75.2634 61.5088 75.4372C61.5182 75.611 61.5088 75.7472 61.5088 76.5503V77.4568C61.5088 77.9264 61.5088 78.3632 61.5088 78.5746C61.5088 78.7859 61.4618 78.8141 61.382 78.8329C61.3336 78.8384 61.2848 78.8384 61.2364 78.8329C61.2182 78.8302 61.1997 78.8353 61.1854 78.8469C61.1711 78.8585 61.1624 78.8756 61.1613 78.894C61.1613 78.9691 61.2458 78.9691 61.2787 78.9691H61.7812H62.1851H62.2932H63.054C63.256 78.9691 63.3217 78.9691 63.364 78.8141C63.4063 78.6591 63.4344 78.3444 63.4344 78.3069C63.4344 78.2693 63.4016 78.3022 63.3358 78.3022Z" fill="#004B35"/>
<path d="M86.434 78.6028C86.434 78.7625 86.387 78.847 86.3119 78.8611H86.1663C86.1481 78.8585 86.1296 78.8635 86.1153 78.8751C86.101 78.8867 86.0923 78.9038 86.0911 78.9222C86.0911 78.9973 86.1757 78.9973 86.2039 78.9973H86.6219H86.7534C86.8661 78.9973 87.1103 78.9973 87.3264 78.9973C87.425 78.9973 87.4438 78.9504 87.4438 78.9222C87.4427 78.9038 87.4339 78.8867 87.4196 78.8751C87.4053 78.8635 87.3869 78.8585 87.3686 78.8611H87.1385C87.0164 78.8611 86.9835 78.7578 86.9647 78.6028C86.9459 78.4478 86.9412 77.9734 86.9412 77.4897C86.9412 77.4897 86.9412 77.0764 86.9412 77.02C87.1338 77.02 87.6035 77.02 87.7162 77.02C87.821 77.0241 87.9142 77.0881 87.9557 77.1844C87.9707 77.2367 87.9817 77.2901 87.9886 77.3441C87.9886 77.3911 87.9886 77.4239 88.0544 77.4239C88.1201 77.4239 88.1248 77.3394 88.1248 77.2924C88.1248 77.2455 88.1248 77.0482 88.1248 76.9496C88.1312 76.8738 88.1422 76.7985 88.1577 76.7241C88.1577 76.6913 88.1577 76.6725 88.1577 76.6584C88.1577 76.6443 88.1201 76.5832 88.0966 76.5832C88.0732 76.5832 88.045 76.6114 88.0262 76.6349C87.9886 76.6913 87.9322 76.7006 87.8101 76.7147H86.9178V75.2729C86.9178 75.2447 86.9178 75.2447 86.9178 75.2447H87.7115C87.838 75.2369 87.9598 75.2934 88.0356 75.395C88.0601 75.4531 88.0744 75.5151 88.0778 75.5781C88.0778 75.6627 88.1295 75.6721 88.1436 75.6721C88.1577 75.6721 88.2047 75.6721 88.2187 75.5875C88.2328 75.503 88.2187 75.4372 88.2187 75.3527C88.2205 75.3167 88.2205 75.2807 88.2187 75.2447C88.2263 75.1846 88.2372 75.125 88.2516 75.0662C88.2533 75.0443 88.2533 75.0223 88.2516 75.0004C88.2516 74.9488 88.2234 74.9206 88.1906 74.9206C88.1736 74.9168 88.1559 74.9168 88.1389 74.9206H88.106C88.053 74.9271 87.9994 74.9271 87.9463 74.9206H87.89C87.796 74.9206 87.115 74.9206 86.7863 74.9206H86.0395C86.0066 74.9206 85.9268 74.9206 85.9268 74.9911C85.9267 75.0093 85.9343 75.0268 85.9476 75.0393C85.961 75.0518 85.979 75.0581 85.9972 75.0568C86.0535 75.052 86.11 75.052 86.1663 75.0568C86.3119 75.0897 86.3495 75.1413 86.3636 75.3245C86.3776 75.5077 86.3636 75.6298 86.3636 76.4329V77.3441C86.4622 77.9922 86.4622 78.4102 86.434 78.6028Z" fill="#004B35"/>
<path d="M79.126 78.894C79.0604 78.9006 78.9943 78.9006 78.9287 78.894C78.6997 78.8544 78.4955 78.7262 78.3604 78.5371C78.1303 78.2552 77.5056 77.2408 77.5056 77.2408C77.9079 76.9788 78.1405 76.5226 78.1162 76.0431C78.1093 75.7565 77.975 75.4879 77.7499 75.3104C77.4595 75.1337 77.1214 75.0517 76.7824 75.0756H76.3456H76.1013C75.9933 75.0756 75.7632 75.0756 75.5847 75.0756C75.5565 75.0756 75.4673 75.0756 75.4673 75.1554C75.4684 75.1751 75.4777 75.1933 75.4928 75.2058C75.508 75.2183 75.5277 75.2238 75.5471 75.2212C75.6018 75.2164 75.6568 75.2164 75.7115 75.2212C75.8524 75.2494 75.8947 75.3057 75.9088 75.4795C75.9229 75.6533 75.9088 75.7942 75.9088 76.5973V77.5085C75.9088 77.9781 75.9088 78.4102 75.8853 78.6263C75.8618 78.8423 75.8383 78.8611 75.7585 78.8752C75.7109 78.8881 75.6621 78.896 75.6129 78.8987C75.5565 78.8987 75.5377 78.9316 75.5377 78.9644C75.5377 78.9973 75.6223 79.0443 75.6552 79.0443C75.7867 79.0443 76.0356 79.0443 76.1248 79.0443H76.2047C76.3221 79.0443 76.5616 79.0443 76.7824 79.0443C76.8904 79.0443 76.8998 78.9879 76.8998 78.9644C76.9 78.9453 76.8918 78.9269 76.8773 78.9143C76.8629 78.9016 76.8436 78.896 76.8246 78.8987C76.7474 78.8965 76.6705 78.8886 76.5945 78.8752C76.4677 78.8752 76.4395 78.7766 76.4254 78.6263C76.4113 78.476 76.3972 77.9922 76.3972 77.5085V77.377H77.036C77.036 77.377 77.0595 77.377 77.0735 77.377C77.0876 77.377 77.5855 78.2271 77.5855 78.2271C77.7215 78.4951 77.9157 78.7293 78.1538 78.9128C78.3078 78.9997 78.4853 79.0359 78.661 79.0161H79.0274C79.0931 79.0161 79.1871 79.0161 79.1964 78.9363C79.2058 78.8564 79.1636 78.8705 79.1213 78.8705L79.126 78.894ZM76.3972 75.3292C76.3922 75.3205 76.3922 75.3098 76.3972 75.301C76.5064 75.2753 76.6186 75.2643 76.7307 75.2682C77.2708 75.2682 77.5902 75.6439 77.5902 76.2686C77.6174 76.557 77.5058 76.8412 77.2896 77.0341C77.18 77.1022 77.0521 77.135 76.9233 77.128C76.7444 77.1351 76.5659 77.108 76.3972 77.0482C76.3922 77.0378 76.3922 77.0257 76.3972 77.0153V75.3292Z" fill="#004B35"/>
<path d="M83.3249 74.9582C82.7746 74.9466 82.2432 75.1592 81.8526 75.5471C81.4621 75.935 81.2459 76.4649 81.2537 77.0153C81.2255 77.5674 81.4309 78.1059 81.8196 78.499C82.2082 78.8921 82.7443 79.1037 83.2967 79.0818C83.8663 79.0941 84.4154 78.8697 84.8133 78.462C85.2112 78.0543 85.4223 77.4999 85.3961 76.9308C85.4134 76.3864 85.1982 75.8604 84.8043 75.4842C84.3941 75.1303 83.8664 74.9427 83.3249 74.9582ZM83.292 75.2071C84.0294 75.2071 84.8278 75.7895 84.8278 77.0858C84.8278 78.739 83.6677 78.8235 83.4188 78.8235C82.4795 78.8235 81.8032 78.0204 81.8032 76.8791C81.8173 75.8411 82.3809 75.2071 83.292 75.2071Z" fill="#004B35"/>
</g>
<rect x="1" y="1" width="110" height="110" rx="9" stroke="#CCCCCC" stroke-width="2"/>
<defs>
<clipPath id="clip0_6_7367">
<rect x="2" y="2" width="108" height="108" rx="8" fill="white"/>
</clipPath>
</defs>
</svg>
