<svg width="112" height="112" viewBox="0 0 112 112" fill="none" xmlns="http://www.w3.org/2000/svg">
<g clip-path="url(#clip0_528_32)">
<rect x="2" y="2" width="108" height="108" rx="8" fill="white"/>
<path d="M90.7021 43.6145C91.7941 41.7197 93.6969 40.7803 94.9575 41.5109C96.2181 42.2415 96.3546 44.3692 95.2626 46.256C94.1707 48.1509 92.2678 49.0903 91.0072 48.3596C89.7467 47.629 89.6102 45.5013 90.7021 43.6145Z" fill="#7C6A55"/>
<path d="M23.6758 62.4667C23.8363 63.398 23.9006 67.1476 27.8107 67.1476C30.2274 67.1476 32.4595 64.3696 32.4595 58.5084C32.4595 52.6472 30.2917 49.829 27.9873 49.829C27.1202 49.829 26.2852 50.2144 25.5867 50.8969V49.0903C26.51 48.5524 27.5698 48.3035 28.8384 48.3035C33.8807 48.3035 37.6142 51.8924 37.6142 57.8901C37.6142 64.4258 33.0456 68.4082 27.5779 68.4082C25.1611 68.4082 18.7459 67.1316 18.7459 60.9894V45.2605C18.7459 42.1853 18.5452 41.6153 16.2088 41.6153H16V40.3628H23.6758C23.6517 40.8124 23.6758 62.4586 23.6758 62.4586M50.7015 66.7141V68.2556C49.9789 68.4965 49.2 68.6009 48.2767 68.6009C44.3987 68.6009 42.6162 67.0432 41.717 65.8871C40.625 64.49 40.7937 62.7156 40.8017 56.9347V56.7259L40.7937 50.3509H38.1922V48.8735H38.955C40.4645 48.7932 41.7812 48.2874 42.56 47.067C43.1783 46.1035 43.5316 45.0919 43.8527 43.3255L43.8768 43.1488H45.9403V48.7933H49.5373V50.3509H45.9403V57.5128C45.9403 57.561 45.9403 57.6011 45.9242 57.6412C45.9242 65.3812 45.868 67.1958 49.0876 67.1958C49.6497 67.1958 50.1956 67.0272 50.6934 66.7221M60.6494 66.7542C61.1472 67.0593 61.6932 67.2279 62.2553 67.2279C64.9289 67.2279 66.3661 64.5382 66.3661 58.6208C66.3661 52.7034 64.9932 50.1261 62.6808 50.1261C60.537 50.1261 59.0597 52.1494 58.5458 55.8347V76.8306C58.8349 77.5532 59.5093 77.6416 61.0509 77.6978H61.2516V78.9663H50.8861V77.7058H51.0869C53.062 77.6416 53.4876 77.5051 53.5759 75.6022V52.5428C53.4795 50.5998 52.8131 50.3669 50.8861 50.3429V48.8173H58.5458V50.7764C60.0553 49.2429 61.621 48.5765 63.837 48.5765C68.7748 48.5765 71.5368 52.1012 71.5368 58.131C71.5368 61.3346 70.7098 64.1688 69.2807 65.9352C67.8756 67.6695 65.5712 68.6571 63.0903 68.6571C62.1669 68.6571 61.3881 68.5527 60.6655 68.3118V66.7703L60.6494 66.7542ZM79.9272 51.3144L79.9111 51.2983V48.7852H72.3799V49.9575H72.5886C74.8287 49.9976 75.0776 50.2465 75.0776 53.2815V63.3579C75.0776 66.5374 74.8689 66.7542 72.5164 66.7863H72.3477V68.079H82.657V66.7863H82.4483C80.1359 66.7462 79.9272 66.5695 79.9272 63.3579V56.0836C79.9272 54.9194 80.3126 53.4661 80.8826 52.4384C81.7658 50.9209 83.0103 50.1421 84.4475 50.1421C86.4949 50.1421 87.4343 51.5713 87.4343 55.4975V63.3579C87.4343 66.5053 87.1854 66.7542 84.9132 66.7863H84.7044V68.079H95.0217V66.7863H94.813C92.4685 66.7462 92.2598 66.5374 92.2598 63.3579V55.2807C92.2598 53.0888 92.0028 51.8363 91.3204 50.7042C90.3248 48.9458 88.6065 48.1268 86.1898 48.1268C83.4358 48.1268 81.4607 49.1225 79.9191 51.3144M90.6861 43.6065C91.778 41.7116 93.6809 40.7722 94.9414 41.5029C96.202 42.2335 96.3385 44.3612 95.2466 46.248C94.1546 48.1429 92.2517 49.0823 90.9912 48.3517C89.7306 47.621 89.5941 45.4933 90.6861 43.6065Z" fill="#F58220"/>
<path d="M53.1423 38.4117H52.8532C52.7569 38.4117 52.6766 38.3314 52.6766 38.2351C52.6766 37.6811 52.5401 37.1431 52.0824 36.7898C51.8978 36.6373 51.6649 36.5249 51.3839 36.4526C51.1109 36.3804 50.8058 36.3402 50.4686 36.3402C49.9628 36.3402 49.5854 36.4125 49.3205 36.541C49.0394 36.6694 48.8387 36.8139 48.7183 36.9665C48.5416 37.1752 48.4292 37.4563 48.4292 37.7373C48.4292 38.0745 48.4935 38.3153 48.6059 38.4759C48.7424 38.6445 48.911 38.773 49.1358 38.8694C49.3847 38.9738 49.6577 39.0621 49.9467 39.1343C50.2518 39.2146 50.6051 39.3029 51.0146 39.4073C51.3036 39.4876 51.5846 39.5679 51.8657 39.6482C52.1708 39.7285 52.4357 39.8489 52.6766 40.0015C52.9255 40.162 53.1262 40.3547 53.2788 40.6036C53.4474 40.8606 53.5196 41.1817 53.5196 41.5591C53.5196 41.9605 53.4313 42.3058 53.2467 42.6029C53.078 42.8839 52.8532 43.1167 52.5722 43.2933C52.2992 43.47 51.9941 43.5904 51.6489 43.6627C51.3197 43.743 50.9905 43.7832 50.6613 43.7832C49.6497 43.7832 48.8548 43.5583 48.3008 43.0926C47.7468 42.6189 47.4898 41.8722 47.4898 40.9168C47.4898 40.8204 47.5701 40.7401 47.6665 40.7401H47.9555C48.0519 40.7401 48.1322 40.8204 48.1322 40.9168C48.1322 41.7197 48.3489 42.2737 48.7584 42.6189C49.184 42.9642 49.8102 43.1569 50.6613 43.1569C50.9182 43.1569 51.1752 43.1328 51.4401 43.0766C51.7131 43.0124 51.9459 42.924 52.1627 42.7955C52.3715 42.6671 52.5401 42.4985 52.6686 42.3058C52.797 42.1211 52.8693 41.8883 52.8693 41.5992C52.8693 41.3102 52.797 41.0774 52.6686 40.9168C52.5401 40.7401 52.3715 40.5876 52.1547 40.4752C51.946 40.3467 51.689 40.2503 51.3919 40.1781L50.4606 39.9453C49.8986 39.8088 49.3124 39.6723 48.7745 39.4314C48.4373 39.2869 48.1884 39.0781 48.0198 38.7971C47.8511 38.5161 47.7789 38.1628 47.7789 37.7453C47.7789 36.2921 49.2161 35.7139 50.4606 35.7139C52.1386 35.7139 53.3109 36.4366 53.3109 38.2511C53.3109 38.3475 53.2306 38.4278 53.1343 38.4278" fill="#7C6A55"/>
<path d="M57.2692 42.6109L59.7582 36.019C59.7743 35.9709 59.8706 35.9067 59.9188 35.9067H60.2239C60.3684 35.9067 60.4407 36.011 60.3845 36.1475L57.0123 44.9072C56.7233 45.678 56.2255 46.0232 55.4948 46.0714H54.5956C54.2824 46.0393 54.2824 45.4371 54.6277 45.4291H55.4306C55.9284 45.4211 56.2495 45.1722 56.378 44.8189L56.924 43.4058L53.8729 36.1475C53.8167 36.011 53.889 35.8986 54.0335 35.8986H54.3386C54.3868 35.8986 54.4832 35.9628 54.4992 36.011L57.2612 42.6029L57.2692 42.6109Z" fill="#7C6A55"/>
<path d="M65.7158 39.4635C65.6435 39.5117 65.5632 39.5438 65.4749 39.5759C65.2662 39.6482 65.0253 39.7044 64.7523 39.7445C64.4873 39.7847 64.1983 39.8088 63.8852 39.8168C63.5881 39.8248 63.299 39.8409 63.018 39.8569C62.737 39.873 62.464 39.9132 62.191 39.9694C61.9502 40.0095 61.7254 40.1058 61.5407 40.2343C61.356 40.3467 61.2115 40.5153 61.0991 40.7401C60.9947 40.9408 60.9305 41.2299 60.9305 41.6073C60.9305 41.8 60.9626 41.9847 61.0188 42.1773C61.083 42.354 61.1874 42.5065 61.348 42.6591C61.5005 42.7956 61.6932 42.916 61.9502 43.0123C62.2071 43.1007 62.5202 43.1488 62.9137 43.1488C64.0538 43.1488 65.1377 42.5788 65.5391 41.4628C65.6676 41.1336 65.7318 40.8044 65.7318 40.4591V39.4635H65.7158ZM65.7158 42.4423C65.4829 42.7554 65.2822 42.9642 64.953 43.189C64.6881 43.3736 64.383 43.5182 64.0457 43.6145C63.7005 43.7269 63.3312 43.7832 62.9297 43.7832C62.1589 43.7832 61.5166 43.6145 61.0268 43.2612C60.521 42.8839 60.2801 42.3299 60.2801 41.6233C60.2801 41.1496 60.3524 40.7401 60.513 40.435C60.6816 40.1299 60.8984 39.8971 61.1633 39.7205C61.4283 39.5438 61.7173 39.4234 62.0465 39.3672C62.3597 39.2949 62.6728 39.2547 62.9939 39.2307L64.3027 39.1584C64.664 39.1263 64.937 39.0861 65.1538 39.0219C65.3705 38.9496 65.507 38.8614 65.5793 38.757C65.6596 38.6446 65.7158 38.4679 65.7158 38.211C65.7158 37.7774 65.6756 37.3197 65.4027 36.9665C65.2822 36.7979 65.0895 36.6453 64.8246 36.5329C64.5676 36.4125 64.2063 36.3483 63.7326 36.3483C62.9859 36.3483 62.4239 36.5329 62.0385 36.8782C61.2276 37.5767 61.5728 38.5161 61.2035 38.5161H60.9144C60.513 38.5161 60.8984 37.4723 60.9706 37.3118C61.1071 36.9826 61.2998 36.7016 61.5407 36.4607C61.7976 36.2198 62.1107 36.0351 62.464 35.9067C62.8334 35.7702 63.2589 35.706 63.7326 35.706C64.0698 35.706 64.391 35.738 64.6961 35.8103C65.0173 35.8825 65.2983 36.011 65.5391 36.2037C66.1253 36.6373 66.342 37.2957 66.3581 37.9942V43.3415C66.3581 43.6306 66.2858 43.6306 66.0289 43.6306C65.7559 43.6306 65.7158 43.6306 65.7158 43.3255V42.4423Z" fill="#7C6A55"/>
<path d="M68.9916 37.0388C69.3449 36.4366 69.9069 36.0592 70.5332 35.8585C70.7259 35.7943 71.9302 35.4891 71.9302 35.8826V36.1716C71.9302 36.276 71.8419 36.3563 71.7455 36.3483C71.2638 36.3162 70.8463 36.3884 70.5091 36.549C70.1718 36.7015 69.8908 36.9183 69.666 37.1913C69.1923 37.7614 68.9996 38.5402 68.9996 39.2628V43.4459C68.9996 43.5423 68.9193 43.6226 68.823 43.6226H68.5339C68.4376 43.6226 68.3573 43.5423 68.3573 43.4459V36.0512C68.3573 35.9548 68.4376 35.8745 68.5339 35.8745H68.823C68.9193 35.8745 68.9996 35.9548 68.9996 36.0512V37.0388H68.9916Z" fill="#7C6A55"/>
<path d="M73.4316 36.1315V43.5262C73.4316 43.6226 73.3514 43.7028 73.255 43.7028H72.966C72.8696 43.7028 72.7893 43.6226 72.7893 43.5262V36.1315C72.7893 36.0351 72.8696 35.9548 72.966 35.9548H73.255C73.3514 35.9548 73.4316 36.0351 73.4316 36.1315ZM73.4316 33.2571V34.7103C73.4316 34.8067 73.3514 34.887 73.255 34.887H72.966C72.8696 34.887 72.7893 34.8067 72.7893 34.7103V33.2571C72.7893 33.1607 72.8696 33.0804 72.966 33.0804H73.255C73.3514 33.0804 73.4316 33.1607 73.4316 33.2571Z" fill="#7C6A55"/>
<path d="M82.914 37.0227C83.0987 36.7336 83.2994 36.5088 83.5322 36.3161C83.7811 36.1234 84.0621 35.9709 84.3753 35.8665C84.6964 35.7541 85.0417 35.6979 85.4271 35.6979C85.8285 35.6979 86.1979 35.7541 86.5351 35.8826C86.8803 36.003 87.1854 36.1877 87.4343 36.4366C87.6993 36.6774 87.892 36.9745 88.0205 37.3358C88.165 37.6891 88.2372 38.0905 88.2372 38.5402V43.4459C88.2372 43.5422 88.157 43.6226 88.0606 43.6226H87.7716C87.6752 43.6226 87.5949 43.5422 87.5949 43.4459V38.5883C87.5949 38.1708 87.5387 37.8336 87.4263 37.5607C87.3139 37.2716 87.1533 37.0468 86.9526 36.8782C86.7599 36.6935 86.5351 36.565 86.2701 36.4847C86.0132 36.3964 85.7322 36.3483 85.4351 36.3483C85.0176 36.3483 84.6563 36.4285 84.3512 36.5891C84.0381 36.7417 83.7731 36.9504 83.5643 37.2154C83.1067 37.7854 82.9301 38.5402 82.9301 39.2628V43.4459C82.9301 43.5422 82.8498 43.6226 82.7534 43.6226H82.4644C82.368 43.6226 82.2877 43.5422 82.2877 43.4459V33.1768C82.2877 33.0804 82.368 33.0001 82.4644 33.0001H82.7534C82.8498 33.0001 82.9301 33.0804 82.9301 33.1768V37.0227H82.914Z" fill="#7C6A55"/>
<path d="M79.6944 39.4635C79.6221 39.5117 79.5418 39.5438 79.4535 39.5759C79.2447 39.6482 79.0039 39.7044 78.7309 39.7445C78.4659 39.7847 78.1769 39.8088 77.8637 39.8168C77.5667 39.8248 77.2776 39.8409 76.9966 39.8569C76.7156 39.873 76.4426 39.9132 76.1696 39.9694C75.9207 40.0095 75.7039 40.1058 75.5112 40.2343C75.3346 40.3467 75.182 40.5153 75.0696 40.7401C74.9653 40.9408 74.901 41.2299 74.901 41.6073C74.901 41.8 74.9331 41.9847 74.9893 42.1773C75.0536 42.354 75.158 42.5065 75.3185 42.6591C75.4711 42.7956 75.6638 42.916 75.9207 43.0123C76.1776 43.1007 76.4908 43.1488 76.8842 43.1488C78.0243 43.1488 79.1082 42.5788 79.5097 41.4628C79.6381 41.1336 79.7024 40.8044 79.7024 40.4591V39.4635H79.6944ZM79.6944 42.4423C79.4615 42.7554 79.2608 42.9642 78.9316 43.189C78.6666 43.3736 78.3615 43.5182 78.0243 43.6145C77.6791 43.7269 77.3097 43.7832 76.9083 43.7832C76.1375 43.7832 75.4952 43.6145 75.0054 43.2612C74.4996 42.8839 74.2587 42.3299 74.2587 41.6233C74.2587 41.1496 74.331 40.7401 74.4915 40.435C74.6601 40.1299 74.8769 39.8971 75.1419 39.7205C75.4069 39.5438 75.6959 39.4234 76.0251 39.3672C76.3382 39.2949 76.6514 39.2547 76.9725 39.2307L78.2812 39.1584C78.6425 39.1263 78.9155 39.0861 79.1323 39.0219C79.3491 38.9496 79.4856 38.8614 79.5579 38.757C79.6382 38.6446 79.6944 38.4679 79.6944 38.211C79.6944 37.7774 79.6542 37.3197 79.3812 36.9665C79.2608 36.7979 79.0681 36.6453 78.8031 36.5329C78.5462 36.4125 78.1849 36.3483 77.7112 36.3483C76.9645 36.3483 76.4025 36.5329 76.0171 36.8782C75.2061 37.5767 75.5514 38.5161 75.182 38.5161H74.893C74.4915 38.5161 74.8769 37.4723 74.9412 37.3118C75.0777 36.9826 75.2704 36.7016 75.5193 36.4607C75.7762 36.2198 76.0893 36.0351 76.4426 35.9067C76.8119 35.7702 77.2375 35.706 77.7112 35.706C78.0484 35.706 78.3696 35.738 78.6747 35.8103C78.9958 35.8825 79.2768 36.011 79.5177 36.2037C80.1038 36.6373 80.3206 37.2957 80.3367 37.9942V43.3415C80.3367 43.6306 80.2644 43.6306 80.0075 43.6306C79.7345 43.6306 79.6944 43.6306 79.6944 43.3255V42.4423Z" fill="#7C6A55"/>
</g>
<rect x="1" y="1" width="110" height="110" rx="9" stroke="#CCCCCC" stroke-width="2"/>
<defs>
<clipPath id="clip0_528_32">
<rect x="2" y="2" width="108" height="108" rx="8" fill="white"/>
</clipPath>
</defs>
</svg>
