<svg width="112" height="112" viewBox="0 0 112 112" fill="none" xmlns="http://www.w3.org/2000/svg">
<g clip-path="url(#clip0_518_552)">
<rect x="2" y="2" width="108" height="108" rx="8" fill="white"/>
<path d="M93.7177 35.4793C94.2083 35.9045 94.5299 36.5259 94.5299 37.2127C94.5299 37.8068 94.2955 38.3737 93.9085 38.7662L87.5146 45.1818L65.7821 23.4112H65.9729C65.6731 23.2095 65.3842 22.9696 65.0844 22.7189C59.192 16.9683 53.8938 18.5654 53.2016 18.6689C57.5404 16.7284 69.5323 11.8281 81.982 23.6619L81.9439 23.6728L93.7122 35.4793H93.7177Z" fill="#0066B1"/>
<path d="M48.2958 20.4241C49.5168 20.0915 50.7977 19.9117 52.1114 19.9117C55.3928 19.9117 58.418 21.0236 60.8436 22.8933L60.9854 23.0023C61.8357 23.6837 62.6152 24.4522 63.2965 25.3189L85.4052 47.4003L76.6184 56.1816C76.5584 56.2688 76.4767 56.356 76.3895 56.4105C76.0079 56.743 75.5282 56.9393 74.994 56.9393C74.3563 56.9393 73.7785 56.6558 73.386 56.2197L68.6384 51.4612L56.592 39.4257C56.4448 39.2404 56.2213 39.1259 55.9651 39.1259C55.709 39.1259 55.4691 39.2567 55.3219 39.4366L37.4868 57.2718C37.4868 57.2718 37.4486 57.3154 37.4377 57.3535C37.3069 57.4843 37.2251 57.6751 37.2251 57.8713C37.2251 58.1003 37.3232 58.3183 37.4813 58.4546L55.3764 76.3606C55.5236 76.5078 55.7417 76.6168 55.9651 76.6168C56.1886 76.6168 56.4121 76.5078 56.5647 76.3443L74.3672 58.5364C74.7597 58.0948 75.3265 57.8059 75.9697 57.8059C76.1224 57.8059 76.3022 57.7623 76.4603 57.8059H92.4422C92.5676 57.7787 92.6984 57.8059 92.8183 57.8059C93.6577 57.8059 94.3282 58.4818 94.3282 59.3104C93.5596 79.702 76.7765 96 56.1777 96C35.579 96 18 78.8953 18 57.8005C18 39.4202 31.0057 24.0598 48.2958 20.4241Z" fill="#0066B1"/>
</g>
<rect x="1" y="1" width="110" height="110" rx="9" stroke="#CCCCCC" stroke-width="2"/>
<defs>
<clipPath id="clip0_518_552">
<rect x="2" y="2" width="108" height="108" rx="8" fill="white"/>
</clipPath>
</defs>
</svg>
