<svg width="112" height="112" viewBox="0 0 112 112" fill="none" xmlns="http://www.w3.org/2000/svg">
<g clip-path="url(#clip0_421_559)">
<rect x="2" y="2" width="108" height="108" rx="8" fill="white"/>
<g clip-path="url(#clip1_421_559)">
<path fill-rule="evenodd" clip-rule="evenodd" d="M26.5562 56.5524H16V46H26.5562V56.5524Z" fill="#6A1F1D"/>
<path fill-rule="evenodd" clip-rule="evenodd" d="M17.4265 47.9907L19.9077 51.2771H25.5211L23.0375 47.9907H17.4265Z" fill="white"/>
<path fill-rule="evenodd" clip-rule="evenodd" d="M19.9077 51.2771L17.4265 54.5597H23.0375L25.5211 51.2771H19.9077Z" fill="#DA242A"/>
<path fill-rule="evenodd" clip-rule="evenodd" d="M53.1719 51.2043C53.4807 51.036 53.9792 50.5662 53.9792 49.7982C53.9792 48.5991 53.1604 47.8522 51.8425 47.8522L49.0796 47.8522V54.7268H51.9597C53.2623 54.7268 54.0744 53.9655 54.0744 52.7358C54.0743 51.8139 53.5325 51.3847 53.1719 51.2043ZM50.4681 49.1008C50.523 49.1008 51.7394 49.1008 51.7394 49.1008C52.272 49.1008 52.5885 49.3802 52.5885 49.8534C52.5885 50.3286 52.272 50.6112 51.7394 50.6112C51.7393 50.6113 50.523 50.6112 50.4681 50.6112L50.4681 49.1008ZM51.8272 53.484C51.8272 53.484 50.523 53.484 50.4681 53.484L50.4681 51.8666C50.523 51.8666 51.8272 51.8665 51.8272 51.8665C52.4607 51.8666 52.6843 52.2814 52.6843 52.6697C52.6843 53.0638 52.4607 53.484 51.8272 53.484ZM43.6752 52.2462C43.6273 52.1572 41.2521 47.8401 41.2521 47.8401L39.8945 47.8401V54.715H41.284C41.284 54.715 41.284 50.8137 41.284 50.6081C41.3855 50.7885 43.6752 54.77 43.6752 54.77C43.6752 54.77 45.96 50.7885 46.0648 50.6081C46.0647 50.815 46.0648 54.715 46.0648 54.715H47.452V47.8401H46.0938C46.0938 47.8401 43.7257 52.1572 43.6752 52.2462ZM36.8047 47.8522V54.7268H38.1954V47.8522H36.8047ZM34.5041 53.0723C34.1018 53.3936 33.6126 53.5641 33.0956 53.5641C31.8425 53.5642 30.8651 52.5665 30.8651 51.2911C30.8651 50.0173 31.8425 49.0174 33.0956 49.0174C33.6126 49.0174 34.1018 49.1857 34.5042 49.5089L34.5259 49.5255L35.4915 48.5577L35.4715 48.5397C34.8076 47.9656 33.9665 47.651 33.0956 47.651C31.0643 47.651 29.4156 49.2847 29.4156 51.2911C29.4155 53.2969 31.0644 54.9293 33.0956 54.9293C33.9664 54.9293 34.8076 54.6148 35.4715 54.0428L35.4915 54.023L34.5259 53.0558L34.5041 53.0723Z" fill="#6A1F1D"/>
<path fill-rule="evenodd" clip-rule="evenodd" d="M68.0094 52.0689H70.3029L69.1753 48.7466H69.1564L68.0094 52.0689ZM68.6835 47.8885H69.6792L72.0713 54.7038H71.2392L70.5899 52.8689H67.7268L67.1002 54.7469H66.1751L68.6835 47.8885Z" fill="#6A1F1D"/>
<path fill-rule="evenodd" clip-rule="evenodd" d="M81.8693 52.0689H84.1637L83.0339 48.7466H83.0151L81.8693 52.0689ZM82.5415 47.8885H83.5365L85.9249 54.7038H85.0955L84.4479 52.8689H81.5831L80.9589 54.7469H80.0299L82.5415 47.8885Z" fill="#6A1F1D"/>
<path fill-rule="evenodd" clip-rule="evenodd" d="M78.7084 48.7776C78.7084 48.7776 76.1253 46.7268 73.8088 48.9105C73.8088 48.9105 72.7687 49.8161 72.8294 51.7171C72.8294 51.7171 72.9466 54.8383 76.3922 54.8833C76.3922 54.8833 77.8615 54.793 78.8428 54.2144V50.9604H76.5707V51.5827H78.1738V53.7226C78.1738 53.7226 75.8145 54.8383 74.4746 53.5015C74.4746 53.5015 73.4074 52.9217 73.6306 50.914C73.6306 50.914 74.0751 48.4784 76.541 48.6288C76.541 48.6288 77.8778 48.7917 78.2348 49.3716L78.7084 48.7776Z" fill="#6A1F1D"/>
<path fill-rule="evenodd" clip-rule="evenodd" d="M65.0296 47.8403V54.7039H64.3182V47.8403H65.0296Z" fill="#6A1F1D"/>
<path fill-rule="evenodd" clip-rule="evenodd" d="M61.7752 54.7039H62.4885V47.8403H61.7752V53.4585L57.6807 47.8403H56.9666V54.7039H57.6807V49.068L61.7752 54.7039Z" fill="#6A1F1D"/>
<path fill-rule="evenodd" clip-rule="evenodd" d="M76.1428 57.7039H76.1483H76.1497C76.3867 57.6972 76.5738 57.6292 76.7191 57.4992C76.9155 57.3255 76.911 57.1693 76.8746 57.0691C76.8212 56.9152 76.6722 56.8369 76.4148 56.8369C76.1573 56.8437 75.9699 56.912 75.8422 57.0448C75.67 57.2176 75.6803 57.3826 75.718 57.4883C75.7684 57.6324 75.9115 57.7039 76.143 57.7039H76.1428ZM74.1748 58.8306C74.2045 58.8504 74.2578 58.8832 74.3041 58.8832C74.4177 58.8832 74.4504 58.8228 74.4625 58.7864C74.4689 58.76 74.4951 58.705 74.5822 58.5907C74.6438 58.5057 74.7154 58.4256 74.7914 58.3563L74.8282 58.3244L74.8128 58.2781C74.7975 58.2341 74.7617 58.1989 74.7046 58.1593C74.6681 58.1417 74.6196 58.1175 74.5532 58.0957L74.5197 58.0868C74.5069 58.0859 74.4951 58.0825 74.4747 58.0801L74.4436 58.0702L74.4335 58.0693C74.3881 58.0603 74.3399 58.0517 74.2907 58.0459C74.2211 58.036 74.1499 58.0341 74.0768 58.0341C73.2088 58.0342 72.2154 58.6268 71.8178 58.8887C71.8277 58.8734 71.8385 58.858 71.8481 58.8436L71.8711 58.8063C71.919 58.7379 71.9615 58.6654 71.9991 58.5862C72.0378 58.5026 72.0569 58.4387 72.0378 58.387C71.9988 58.2758 71.8925 58.1934 71.7191 58.1417C71.5498 58.0922 71.4789 58.0756 71.431 58.0756L71.4296 58.0756C71.3568 58.0756 71.3025 58.1417 71.2348 58.2519C71.2102 58.3122 71.1524 58.4288 71.0148 58.6379C70.8985 58.813 70.7628 59.0209 70.6258 59.2453C70.6098 59.2616 70.5891 59.2792 70.5674 59.299C68.7788 60.7558 67.71 61.0614 67.1269 61.0614C67.0129 61.0614 66.9085 61.0492 66.8254 61.0285C66.5933 60.9384 66.63 60.5951 66.6389 60.5323C66.6702 60.3914 66.7197 60.241 66.7858 60.0759C66.9497 59.6854 67.2329 59.154 67.625 58.4949L68.4834 58.485C68.5093 58.4783 68.6367 58.4365 68.6616 58.3356C68.6718 58.2947 68.6706 58.2321 68.5971 58.1593C68.5306 58.0976 68.2181 58.0625 67.9147 58.0494C67.9156 58.0494 67.9156 58.0461 67.9171 58.044C67.9573 57.9856 68.0036 57.9338 68.0585 57.891L68.1742 57.8007L68.0327 57.7611L67.9842 57.749L67.9672 57.7436L67.9506 57.746L67.334 57.8692C67.2682 57.8912 67.2088 57.9241 67.1571 57.9637C67.1235 57.9902 67.0942 58.0276 67.0603 58.0736C66.4219 58.1311 65.4997 58.3003 64.6615 58.7988C64.3891 58.9504 64.1493 59.1101 63.9445 59.2771C63.5754 59.5764 63.3036 59.8935 63.1344 60.2201C62.9601 60.5536 62.9124 60.8374 62.9923 61.0593C63.0714 61.273 63.2829 61.3809 63.6172 61.3809L63.6476 61.3786C63.8737 61.3742 64.1122 61.3201 64.3549 61.2176C64.6001 61.1199 64.8416 60.9976 65.069 60.8526C65.3011 60.7073 65.5195 60.5444 65.7175 60.3707C65.7625 60.3334 65.8088 60.2915 65.8516 60.2519C65.8164 60.3334 65.79 60.4103 65.7702 60.4873C65.7101 60.7163 65.7054 60.8967 65.7565 61.034C65.8114 61.1847 65.9244 61.3102 66.0905 61.4025C66.245 61.4897 66.4734 61.5347 66.7697 61.5347H66.8204C67.1817 61.528 67.5553 61.4565 67.9337 61.3233C68.3188 61.1847 68.6921 61.011 69.0443 60.7999C69.4176 60.5732 69.766 60.3334 70.0793 60.0836C70.0905 60.0738 70.1036 60.0648 70.1163 60.0562C69.9442 60.3244 69.7775 60.5974 69.6153 60.8625C69.5255 61.0001 69.4975 61.1055 69.5256 61.1802C69.5383 61.2301 69.5821 61.2728 69.7737 61.3543C69.9426 61.4268 70.0036 61.4399 70.0419 61.4399C70.1499 61.4399 70.2163 61.4124 70.2399 61.3565C70.3932 61.1451 70.5312 60.934 70.6516 60.7284C70.7595 60.5435 70.8904 60.3464 71.0466 60.1286C71.1944 59.9218 71.3528 59.7327 71.5157 59.5586C71.6785 59.3827 71.8909 59.2131 72.1467 59.0547C72.2999 58.9503 72.4909 58.8526 72.7132 58.7677C72.9331 58.6809 73.1494 58.6335 73.3554 58.6303L73.3937 58.6304C73.5552 58.6304 73.6792 58.6412 73.766 58.661C73.88 58.692 73.9624 58.7194 74.0209 58.7469C74.0752 58.7721 74.1368 58.8018 74.1748 58.8306ZM66.2054 59.4686C64.7378 60.6623 64.2352 60.8417 64.0662 60.8417C63.9995 60.8417 63.9902 60.8162 63.9857 60.7986C63.9857 60.6865 64.0266 60.5278 64.1058 60.3333C64.2217 60.0539 64.4111 59.7655 64.6663 59.4817C64.8444 59.2836 65.06 59.0978 65.3072 58.9273C65.621 58.7248 66.1256 58.484 66.7422 58.484C66.7687 58.4841 66.7962 58.484 66.8237 58.485C66.7806 58.5556 66.7362 58.6281 66.6915 58.7073L66.5558 58.934C66.4347 59.1365 66.3051 59.3255 66.2054 59.4686ZM51.9815 61.5698L52.0228 61.5797C52.0662 61.5918 52.1135 61.6049 52.1729 61.6225C52.4475 61.6876 52.7177 61.7272 52.9958 61.748C53.2362 61.7691 53.4837 61.779 53.7517 61.779H53.8574C54.5357 61.7646 55.1351 61.6799 55.638 61.5257C55.8471 61.4619 56.0445 61.3817 56.2396 61.2783C56.4328 61.1783 56.6072 61.0592 56.7617 60.9308C56.9179 60.7986 57.0328 60.6545 57.1006 60.5026C57.1743 60.3397 57.182 60.1768 57.121 60.0054C57.084 59.9063 57.0418 59.8294 56.9926 59.7668C56.946 59.7061 56.8789 59.6423 56.7815 59.5631L56.7579 59.5455C56.7288 59.5258 56.6953 59.5014 56.6544 59.473C56.5944 59.4312 56.5242 59.3881 56.4504 59.3443C56.4213 59.3233 56.3839 59.3025 56.3469 59.2792L56.3118 59.2572C55.3266 58.6412 55.0421 58.3551 54.9706 58.2672C54.8652 58.1009 54.7633 57.8579 54.8777 57.649C54.9977 57.4313 55.3998 57.1713 56.6225 57.1703C56.7991 57.1968 56.9454 57.2351 57.0594 57.2837C57.2924 57.3871 57.4317 57.4906 57.472 57.5973C57.4834 57.6292 57.4934 57.671 57.4774 57.6985L57.4438 57.7588L57.5023 57.7985C57.5495 57.8294 57.5961 57.8447 57.6434 57.8447C57.6638 57.8448 57.6843 57.8414 57.7051 57.8349L57.752 57.8205L57.7558 57.7733C57.7642 57.6928 57.7834 57.5995 57.8112 57.4906C57.837 57.375 57.86 57.2846 57.8836 57.2176L57.8913 57.1936L57.8836 57.1671C57.8577 57.101 57.7978 57.0371 57.6987 56.9768C57.5084 56.8832 57.3114 56.8216 57.1131 56.7928C56.9406 56.7676 56.7637 56.7545 56.5871 56.7545L56.5149 56.7555C56.2141 56.7612 55.9539 56.7874 55.724 56.8369C55.5123 56.881 55.3159 56.9359 55.1393 57.002C54.9763 57.0636 54.8429 57.1275 54.7289 57.2022C54.6171 57.2805 54.5386 57.3408 54.4843 57.3916C54.3198 57.5455 54.1966 57.7215 54.1155 57.9195C54.0363 58.1264 54.0308 58.3321 54.1037 58.5313C54.1739 58.7303 54.3065 58.904 54.4952 59.0528C54.6657 59.1878 54.9106 59.3475 55.2411 59.5388C55.5767 59.7282 55.8313 59.8933 55.9775 60.0143C56.0519 60.0801 56.1043 60.1395 56.1394 60.1813C56.1455 60.1881 56.2742 60.3751 56.1796 60.5795C56.0794 60.7954 55.7198 61.0802 54.5616 61.199C54.2569 61.23 53.9743 61.2441 53.7202 61.2441C52.2592 61.2441 52.1513 60.7338 52.1513 60.6942L52.1579 60.6699L52.1497 60.6457C52.1267 60.5817 52.0733 60.5466 51.9964 60.5466C51.9714 60.5476 51.921 60.5533 51.8948 60.5929L51.8855 60.6159L51.8841 60.6348C51.8697 60.7338 51.8567 60.8612 51.8413 61.0199C51.8301 61.1739 51.8215 61.3147 51.8171 61.4344L51.817 61.4631L51.8337 61.4839C51.8617 61.519 51.9046 61.5433 51.9814 61.5698L51.9815 61.5698ZM63.1953 58.2034C63.1586 58.1043 63.0894 58.0098 62.9878 57.9194C62.8901 57.8336 62.7895 57.7755 62.6746 57.7445C62.5238 57.7488 62.3715 57.8425 62.2217 58.0207C62.0854 58.1848 61.9449 58.3924 61.8082 58.6325C61.6022 58.9781 61.4058 59.321 61.2101 59.6796L61.0654 59.9108C60.9859 60.0405 60.9147 60.1529 60.8598 60.241C60.4229 60.6808 59.8152 60.9151 59.812 60.9151C59.5786 60.9934 59.3876 61.0307 59.242 61.0307C59.242 61.0307 59.2406 61.0307 59.2396 61.0307C59.1026 61.0307 59.0106 60.9943 58.9695 60.9228C58.8756 60.7558 59.0126 60.408 59.1611 60.1571C59.1831 60.1197 59.2105 60.0823 59.2387 60.0427C59.5691 59.5586 59.9332 58.9975 60.3177 58.3729L60.3365 58.3419L60.3254 58.3091C60.293 58.2101 60.1689 58.2101 60.1273 58.2101C60.09 58.2101 60.0047 58.2187 59.838 58.2398C59.6889 58.2583 59.5675 58.2758 59.4628 58.2947C59.4101 58.3177 59.3644 58.3486 59.3201 58.3774C59.2865 58.4036 59.2418 58.4441 59.1901 58.4917L59.1725 58.507L59.1682 58.5138C58.7001 59.1495 58.3527 59.6269 58.0691 60.0373C57.7539 60.4939 57.6406 60.8305 57.7255 61.0703C57.7836 61.2201 57.9053 61.33 58.0918 61.397C58.2546 61.4555 58.4564 61.4839 58.694 61.4839L58.757 61.4839C59.1258 61.4785 59.4751 61.4136 59.7938 61.2926C59.9752 61.2234 60.131 61.1572 60.2658 61.0933C57.5422 64.3224 55.1663 65.0132 53.6374 65.0132C52.8441 65.0132 52.2039 64.8305 51.76 64.6501C51.3183 64.4687 51.0734 64.2883 51.0718 64.2883C50.9706 64.1695 50.9074 64.0759 50.8876 64.0188C50.8763 63.977 50.8432 63.9418 50.7828 63.9118C50.7652 63.9054 50.7461 63.9022 50.7292 63.9022C50.6819 63.9022 50.6401 63.9284 50.6152 63.9747C50.5938 64.0188 50.5832 64.0935 50.5871 64.1902C50.5895 64.2851 50.6219 64.4214 50.6819 64.5951C50.7752 64.8593 50.9288 65.0649 51.1472 65.2223C51.3659 65.3785 51.6108 65.4928 51.8951 65.5743C52.1764 65.6512 52.4644 65.7065 52.7566 65.7349C52.9993 65.7579 53.2165 65.769 53.4183 65.769C53.47 65.769 53.524 65.7676 53.5758 65.7657C54.6049 65.7324 55.5687 65.4795 56.4366 65.013C57.3037 64.5487 58.1237 63.9525 58.8741 63.2375C59.3883 62.7489 59.8922 62.2121 60.375 61.6389L62.1822 59.6079C62.3156 59.4607 62.4434 59.3131 62.5606 59.1778L62.6018 59.1296C62.7713 58.9316 62.9198 58.7422 63.0434 58.5729C63.202 58.3484 63.2184 58.2626 63.1953 58.2032V58.2034ZM95.9783 53.7831C95.9614 53.6873 95.9087 53.5564 95.8139 53.3759C95.6766 53.1196 95.4878 52.9183 95.249 52.7785C95.0152 52.639 94.7511 52.5386 94.4637 52.4825C94.1786 52.4221 93.8976 52.3924 93.605 52.3857L93.4712 52.3833C93.2308 52.3833 93.0082 52.3967 92.8089 52.421C91.8193 52.5375 90.9338 52.8728 90.1834 53.4198C89.4371 53.9634 88.7588 54.6419 88.1674 55.4329C87.5887 56.2054 87.0545 57.0766 86.5793 58.0196L86.5563 58.0668C86.5244 58.1307 86.4947 58.1932 86.466 58.2482L86.4104 58.3309C86.3599 58.4078 86.3099 58.4826 86.261 58.563C86.1614 58.7157 86.0633 58.8776 85.9643 59.0392L85.8433 59.2353C84.2948 60.4376 83.1838 61.0459 82.5414 61.0459C82.352 61.0459 82.2102 60.9932 82.1179 60.8808C81.9301 60.6598 81.9886 60.267 81.9985 60.2054C82.0078 60.1767 82.0183 60.1527 82.0275 60.124C82.0403 60.0889 82.0524 60.0515 82.0694 60.0106C82.2211 59.6434 82.4829 59.1471 82.8712 58.4957L83.7603 58.4871C83.7851 58.4794 83.9148 58.4363 83.9413 58.3354C83.9512 58.2945 83.9496 58.2319 83.8762 58.1591C83.8072 58.0965 83.4748 58.0579 83.1535 58.0493C83.1646 58.0317 83.1749 58.0183 83.1848 58.0007L83.2001 57.9787C83.241 57.9148 83.2857 57.8688 83.3384 57.8292L83.4639 57.7379L83.3141 57.697L83.264 57.6839L83.2477 57.6796L83.2302 57.682L82.6151 57.8053C82.5529 57.8273 82.4948 57.8579 82.435 57.8998C82.3906 57.9372 82.3459 57.9943 82.3015 58.0757C81.6737 58.0914 81.0897 58.2102 80.5695 58.4289C80.0802 58.6336 79.6514 58.8811 79.2928 59.1605L79.2595 59.1605C79.2193 59.1605 79.1771 59.1816 79.1104 59.231C77.7027 60.4963 76.3801 60.9462 75.6115 60.9462C75.2602 60.9462 75.0175 60.846 74.9961 60.6853C74.9559 60.3114 75.462 59.3607 75.9449 58.5985L75.9818 58.5445L76.0148 58.4906C76.0553 58.4609 76.0834 58.418 76.1 58.3596C76.1137 58.3092 76.117 58.2696 76.1039 58.2232C76.0652 58.1387 75.9519 58.1386 75.8937 58.1386C75.8206 58.1387 75.6942 58.167 75.494 58.2287C75.2848 58.2894 75.151 58.3663 75.0919 58.4541C74.99 58.5698 74.8623 58.7415 74.7237 58.9494C74.5752 59.164 74.4274 59.3939 74.2837 59.628C74.1434 59.8669 74.0288 60.0978 73.9382 60.3178C73.8391 60.5579 73.8177 60.7469 73.8717 60.891C73.9119 61.0079 73.9899 61.1033 74.1016 61.1784C74.2013 61.241 74.3143 61.2905 74.4481 61.3345C74.5682 61.3709 74.7039 61.3926 74.8521 61.4006C74.9641 61.407 75.0641 61.4115 75.1529 61.4115L75.2116 61.4091C75.5038 61.4024 75.8146 61.3618 76.1345 61.2881C76.4635 61.2143 76.7684 61.1121 77.066 60.978C77.4428 60.8039 77.835 60.5795 78.2629 60.2959C78.3086 60.2649 78.3504 60.2343 78.3932 60.2055C78.2399 60.5137 78.1997 60.78 78.275 60.9955C78.3504 61.2079 78.5631 61.3156 78.9032 61.3156H78.9318C79.15 61.3101 79.3882 61.2584 79.6331 61.1572C79.8755 61.0626 80.1173 60.9384 80.3514 60.7886C80.5787 60.6456 80.8032 60.4805 81.0012 60.309C81.0462 60.2685 81.0909 60.2298 81.1337 60.1912C81.0989 60.2717 81.0727 60.3486 81.0539 60.4233C80.9928 60.6424 80.9875 60.8282 81.0386 60.9691C81.089 61.1166 81.2014 61.2408 81.3735 61.3398C81.529 61.4267 81.751 61.4698 82.0365 61.4698H82.1003C82.4555 61.4664 82.8208 61.396 83.2183 61.2584C83.5974 61.123 83.9716 60.9493 84.3268 60.7359C84.6882 60.5182 85.0369 60.277 85.3614 60.0197C85.3657 60.0182 85.3697 60.0163 85.3735 60.012C85.1954 60.3122 85.0162 60.6235 84.8329 60.9426C84.7955 61.0285 84.7866 61.1054 84.8125 61.1782C84.8504 61.2792 84.9616 61.3453 85.1459 61.3708C85.2845 61.3884 85.3972 61.396 85.4891 61.396H85.5274C85.6833 61.3927 85.8114 61.2881 85.9094 61.0878C86.0189 60.8768 86.1524 60.6334 86.3456 60.2969C86.4445 60.1196 86.5442 59.9469 86.6416 59.7763L86.8284 59.4497C87.279 58.9362 87.6865 58.5773 88.041 58.3837C88.4727 58.1494 88.6921 58.0935 88.8013 58.089C88.8144 58.089 88.8265 58.089 88.8386 58.1174C88.8539 58.1592 88.8588 58.2739 88.7148 58.5555C88.595 58.7909 88.4612 59.0505 88.3134 59.3322C88.162 59.617 88.0343 59.9009 87.9321 60.1669C87.8202 60.4566 87.796 60.6983 87.8637 60.8854C87.9359 61.0879 88.0898 61.2386 88.3287 61.3398C88.5298 61.428 88.7681 61.473 89.0376 61.473C89.074 61.473 89.1114 61.473 89.1478 61.4696C89.5641 61.4562 89.9815 61.3671 90.4245 61.1997C90.8549 61.0404 91.2797 60.828 91.6823 60.5729C92.0748 60.3264 92.4602 60.0438 92.83 59.7324C93.0654 59.5367 93.2803 59.3284 93.5236 59.0624C93.6957 58.9028 93.7976 58.7971 93.7976 58.7971L93.8464 58.7488L93.7988 58.6962C93.7369 58.6278 93.6715 58.5927 93.605 58.5927C93.4897 58.5927 93.4256 58.6917 93.4272 58.6917C93.4286 58.6917 93.4286 58.6917 93.4286 58.6917C91.4998 60.4816 90.3997 60.8577 89.8188 60.8577C89.1176 60.8578 88.9327 60.334 88.9234 60.2165C88.9326 60.1284 88.9496 60.046 88.9758 59.9556C89.0515 59.7082 89.1549 59.453 89.2859 59.1966C89.4219 58.9315 89.5685 58.685 89.7313 58.4496C89.8833 58.2229 90.006 58.0457 90.1005 57.9237C90.1911 57.8203 90.2451 57.7334 90.2627 57.6574L90.2651 57.6299L90.2675 57.6289C90.2819 57.5156 90.2632 57.4265 90.2065 57.3594C90.1439 57.2879 90.0421 57.2524 89.8999 57.2524C89.2625 57.2524 87.8335 58.0115 87.2779 58.3209C87.6161 57.354 88.8637 54.3165 91.443 53.4635C91.6783 53.3955 91.9194 53.3361 92.1586 53.2898C92.3942 53.2525 92.6367 53.2336 92.8793 53.2336C93.7604 53.2337 94.7098 53.4779 95.6991 53.9566C95.7077 53.9697 95.7144 53.985 95.7199 53.993C95.7448 54.0426 95.7882 54.0655 95.8294 54.0821C95.8476 54.0907 95.8632 54.0929 95.8798 54.0929C95.9255 54.093 95.9766 54.0655 95.9922 53.9993C96.0063 53.9522 96.0008 53.886 95.9788 53.7829L95.9783 53.7831ZM81.3736 59.5564C81.3614 59.573 81.3477 59.5873 81.3327 59.6027L81.3109 59.6269C80.1479 60.6083 79.6437 60.8152 79.424 60.8152C79.3608 60.8152 79.2762 60.7986 79.2729 60.6744C79.2822 60.5655 79.3234 60.4301 79.3905 60.2717C79.5032 59.9923 79.6926 59.7039 79.9528 59.4146C80.0192 59.3386 80.093 59.2648 80.1738 59.1914C80.1798 59.1847 80.9709 58.4828 82.0199 58.4828C82.0365 58.4828 82.0505 58.4828 82.0678 58.4842L82.0654 58.4851C81.9955 58.6062 81.9179 58.7338 81.8425 58.8702C81.6796 59.1321 81.528 59.3563 81.3734 59.5565L81.3736 59.5564Z" fill="#6A1F1D"/>
</g>
</g>
<rect x="1" y="1" width="110" height="110" rx="9" stroke="#CCCCCC" stroke-width="2"/>
<defs>
<clipPath id="clip0_421_559">
<rect x="2" y="2" width="108" height="108" rx="8" fill="white"/>
</clipPath>
<clipPath id="clip1_421_559">
<rect width="80" height="19.769" fill="white" transform="translate(16 46)"/>
</clipPath>
</defs>
</svg>
