<svg width="112" height="112" viewBox="0 0 112 112" fill="none" xmlns="http://www.w3.org/2000/svg">
<g clip-path="url(#clip0_6_7368)">
<rect x="2" y="2" width="108" height="108" rx="8" fill="white"/>
<path d="M33.1282 26H78.646C78.646 41.1717 78.646 56.3434 78.6433 71.5151C63.4716 71.5179 48.2999 71.5151 33.1282 71.5179V26ZM39.1908 34.5444C42.7331 39.2876 46.3277 43.9895 49.8865 48.719C46.358 53.4677 42.7413 58.1504 39.2073 62.8963C47.2862 62.9294 55.3624 62.8963 63.4413 62.9129C67.0772 58.2082 70.5809 53.4016 74.2416 48.7135L74.1728 48.7162C70.6057 43.9868 67.0221 39.2684 63.4606 34.5389C55.3706 34.5444 47.2807 34.5306 39.1908 34.5444Z" fill="#790008"/>
<path d="M39.1908 34.5444C47.2807 34.5307 55.3706 34.5444 63.4606 34.5389C67.0221 39.2684 70.6057 43.9868 74.1728 48.7163C66.0773 48.7328 57.9819 48.7245 49.8865 48.719C46.3277 43.9896 42.7331 39.2877 39.1908 34.5444Z" fill="white"/>
<path d="M49.8864 48.7191C57.9818 48.7246 66.0773 48.7329 74.1727 48.7164L74.2416 48.7136C70.5809 53.4018 67.0772 58.2083 63.4412 62.913C55.3623 62.8965 47.2862 62.9295 39.2073 62.8965C42.7413 58.1505 46.3579 53.4679 49.8864 48.7191Z" fill="#ED3024"/>
<path d="M25.8842 79.5179C26.5794 78.6511 27.6483 78.0943 28.7589 78.0315C29.8108 77.9502 30.8812 78.3197 31.6717 79.0156C31.315 79.3752 30.9575 79.7327 30.5979 80.0895C29.9896 79.5963 29.1446 79.402 28.3873 79.6182C27.5423 79.8401 26.8641 80.5621 26.6754 81.4127C26.4451 82.3361 26.7779 83.3852 27.5374 83.9702C28.4049 84.6802 29.7508 84.6442 30.6035 83.9271C30.961 84.2853 31.3263 84.6371 31.6746 85.0052C30.9688 85.6184 30.051 85.9872 29.1142 85.9985C27.9337 86.031 26.751 85.5118 25.9803 84.6166C25.4412 84.0027 25.0979 83.2185 25.0209 82.4046C24.9128 81.3788 25.2286 80.3155 25.8842 79.5179Z" fill="#790008"/>
<path d="M33.0903 78.2435C33.6025 78.2435 34.114 78.2442 34.6262 78.2428C34.6276 80.7572 34.6262 83.2709 34.6269 85.7853C34.1147 85.7853 33.6025 85.786 33.0903 85.7846C33.091 83.2709 33.0903 80.7572 33.0903 78.2435Z" fill="#790008"/>
<path d="M36.4638 78.2259C36.9619 78.2245 37.46 78.2287 37.9588 78.2238C38.8468 79.8211 39.7123 81.4326 40.6116 83.0243C41.4834 81.422 42.3679 79.8275 43.2397 78.2252C43.7421 78.2266 44.2444 78.2252 44.7474 78.2259C44.7446 80.741 44.7523 83.2554 44.7432 85.7705C44.2317 85.7627 43.7209 85.7719 43.2094 85.7655C43.2129 84.2769 43.2094 82.7891 43.2115 81.3012C42.3305 82.8053 41.4912 84.3349 40.5947 85.8291C39.7384 84.3151 38.8588 82.8145 37.999 81.3026C38.0019 82.7912 37.9997 84.2791 38.0004 85.7676C37.4882 85.7676 36.9767 85.7669 36.4645 85.7683C36.4624 83.2539 36.4645 80.7403 36.4638 78.2259Z" fill="#790008"/>
<path d="M46.4967 78.2428C47.5338 78.2442 48.5702 78.2428 49.6074 78.2435C50.0871 78.2527 50.5795 78.3537 50.9893 78.6144C51.979 79.2192 52.2065 80.7897 51.3799 81.6219C51.274 81.735 51.1482 81.8282 51.0232 81.9187C51.4944 82.1666 51.8561 82.6266 51.9437 83.1564C52.0716 83.8714 51.9084 84.6923 51.3538 85.1968C50.9115 85.6199 50.2828 85.7725 49.6865 85.7803C48.6232 85.7916 47.5593 85.7824 46.496 85.7853C46.4967 83.2709 46.4946 80.7572 46.4967 78.2428ZM48.0326 79.6212C48.0319 80.1687 48.0326 80.7162 48.0326 81.2637C48.4848 81.2623 48.9376 81.2659 49.3905 81.263C49.654 81.2581 49.9387 81.203 50.1316 81.0087C50.4057 80.7176 50.4128 80.2266 50.169 79.9143C49.9818 79.689 49.6724 79.619 49.3919 79.6204C48.9383 79.6212 48.4855 79.6212 48.0326 79.6212ZM48.0326 82.6421C48.0326 83.2242 48.0319 83.8071 48.0326 84.3899C48.5321 84.3907 49.0316 84.3892 49.5311 84.3914C49.7649 84.3984 50.0108 84.3327 50.186 84.1709C50.535 83.8346 50.5413 83.208 50.1853 82.8745C49.9931 82.6923 49.7176 82.6449 49.4625 82.6414C48.9857 82.6407 48.5088 82.6414 48.0326 82.6421Z" fill="#790008"/>
<path d="M55.132 78.2266C55.3885 78.2294 55.645 78.2174 55.9014 78.2301C56.0187 78.3212 56.0844 78.4639 56.1784 78.5784C57.5857 80.5007 58.9817 82.4316 60.3968 84.3483C60.3954 82.3072 60.3968 80.2669 60.3961 78.2258C60.661 78.2258 60.926 78.2258 61.1909 78.2258C61.1909 80.7339 61.1909 83.2419 61.1909 85.7499C60.9231 85.7499 60.6554 85.7492 60.3883 85.7514C58.9019 83.7068 57.4161 81.6615 55.9276 79.6183C55.9276 81.6622 55.9276 83.7061 55.9276 85.7492C55.6605 85.7485 55.3934 85.7549 55.1278 85.7436C55.1398 83.2384 55.1299 80.7325 55.132 78.2266Z" fill="#790008"/>
<path d="M63.1691 78.2258C63.434 78.2258 63.6982 78.2258 63.9639 78.2258C63.9639 80.7339 63.9632 83.2412 63.9639 85.7485C63.699 85.7506 63.434 85.7492 63.1698 85.7499C63.1677 83.2419 63.1698 80.7339 63.1691 78.2258Z" fill="#790008"/>
<path d="M65.1875 85.8009C66.1038 83.2921 67.0208 80.7834 67.9435 78.2775C68.3109 78.281 68.6776 78.2782 69.0449 78.2789C69.9189 80.7692 70.7914 83.261 71.6681 85.75C71.3558 85.7493 71.0436 85.7507 70.732 85.7493C70.4996 85.0831 70.2636 84.4175 70.0241 83.7534C68.9863 83.7542 67.9492 83.7542 66.912 83.7542C66.6803 84.4359 66.4578 85.1219 66.2253 85.8037C65.8792 85.8009 65.533 85.8051 65.1875 85.8009ZM67.23 82.852C68.0558 82.8555 68.8824 82.8527 69.7083 82.8534C69.2943 81.6467 68.886 80.4379 68.479 79.2291C68.0643 80.4372 67.6411 81.6425 67.23 82.852Z" fill="#790008"/>
<path d="M73.4322 79.5102C74.0596 78.8645 74.8989 78.4003 75.8039 78.317C76.9194 78.2046 78.03 78.6186 78.9322 79.2538C78.7563 79.482 78.5712 79.7024 78.3967 79.9313C78.0964 79.5039 77.5645 79.3442 77.0848 79.2149C76.2504 78.9853 75.3037 79.1096 74.5993 79.6275C73.9628 80.1079 73.5375 80.8377 73.3686 81.6113C73.2733 82.4111 73.3524 83.2843 73.8271 83.9611C73.9903 84.2168 74.2503 84.3814 74.4729 84.58C74.9448 84.965 75.5637 85.1395 76.167 85.1339C76.9095 85.1409 77.6443 84.9509 78.3232 84.6591C78.3225 83.8862 78.3246 83.1133 78.3225 82.3404C77.734 82.3411 77.1455 82.3411 76.557 82.3404C76.557 82.1058 76.557 81.8713 76.5563 81.6367C77.3921 81.6318 78.2278 81.6367 79.0643 81.6339C79.0657 82.8293 79.0643 84.024 79.065 85.2193C78.2674 85.6644 77.3532 85.8509 76.4532 85.9407C75.5001 85.9604 74.5047 85.716 73.7628 85.0936C73.038 84.498 72.6148 83.5916 72.4905 82.6732C72.3951 81.5555 72.6791 80.3651 73.4322 79.5102Z" fill="#790008"/>
<path d="M80.3396 85.7929C81.2602 83.2898 82.1765 80.7853 83.09 78.2794C83.4573 78.2773 83.8247 78.2815 84.1928 78.2759C85.037 80.6532 85.8622 83.0376 86.7036 85.4164C86.7432 85.523 86.7651 85.6347 86.7743 85.7491C86.4783 85.7505 86.1837 85.7491 85.8891 85.7505C85.6496 85.0864 85.4164 84.4195 85.1805 83.7547C84.1391 83.7533 83.0977 83.7526 82.0571 83.7554C81.8338 84.4386 81.6021 85.1189 81.3774 85.8014C81.0313 85.7993 80.6851 85.8127 80.3396 85.7929ZM83.6276 79.2339C83.2178 80.4427 82.7904 81.6451 82.3842 82.8553C83.2072 82.8511 84.031 82.8539 84.8541 82.8539C84.4535 81.6444 84.0381 80.4399 83.6276 79.2339Z" fill="#790008"/>
</g>
<rect x="1" y="1" width="110" height="110" rx="9" stroke="#CCCCCC" stroke-width="2"/>
<defs>
<clipPath id="clip0_6_7368">
<rect x="2" y="2" width="108" height="108" rx="8" fill="white"/>
</clipPath>
</defs>
</svg>
