<svg width="112" height="112" viewBox="0 0 112 112" fill="none" xmlns="http://www.w3.org/2000/svg">
<g clip-path="url(#clip0_6_7369)">
<rect x="2" y="2" width="108" height="108" rx="8" fill="white"/>
<path fill-rule="evenodd" clip-rule="evenodd" d="M47.8501 81.265H54.3737V49.802H47.8501V81.265Z" fill="#1C4882"/>
<path fill-rule="evenodd" clip-rule="evenodd" d="M60.3552 49.8535V55.753H65.8475V73.5024C65.8475 75.9518 66.5291 77.9183 67.841 79.4015C69.1525 80.9369 70.9018 81.696 73.1053 81.7475C75.2921 81.7994 77.2334 81.3161 78.8772 80.3157L78.9824 80.2639V80.1606L80.5388 74.1751L80.1544 74.4167C78.4051 75.4689 76.796 75.9864 75.3271 75.9864C73.2981 75.9864 72.2659 74.7963 72.2659 72.4502V55.753H78.9298V49.8535H72.2659V40.0215L65.8475 43.4197V49.8535H60.3552Z" fill="#1C4882"/>
<path fill-rule="evenodd" clip-rule="evenodd" d="M85.3486 81.265H91.9253V49.802H85.3486V81.265Z" fill="#1C4882"/>
<path fill-rule="evenodd" clip-rule="evenodd" d="M44.1068 54.7523L43.967 54.649C40.9587 51.0437 37.1983 49.2843 32.6858 49.2843C27.9633 49.2843 24.0805 50.716 20.9671 53.545C17.6617 56.5291 16 60.5481 16 65.5851C16 70.6217 17.6617 74.6066 20.9671 77.6248C24.028 80.4538 27.9633 81.8513 32.6858 81.8513C37.1983 81.8513 40.9934 80.0746 43.967 76.5212L44.1068 76.4175L40.4165 72.0189L40.2763 72.1572C37.8804 74.5028 35.3092 75.7102 32.5459 75.7102C29.66 75.7102 27.2812 74.7441 25.3925 72.8299C23.4857 70.9494 22.5762 68.5178 22.5762 65.5851C22.5762 62.6525 23.4857 60.2031 25.3925 58.2889C27.2812 56.4257 29.66 55.4596 32.5459 55.4596C35.3092 55.4596 37.8804 56.6674 40.2763 59.0134L40.4165 59.1513L44.1068 54.7523Z" fill="#1C4882"/>
<path fill-rule="evenodd" clip-rule="evenodd" d="M51.068 44.6271C53.6388 42.0398 56.5076 40.0733 59.778 38.6762C62.926 37.3305 66.2845 36.6751 69.7477 36.6751C73.193 36.6751 76.5514 37.3305 79.7692 38.6762C82.9698 40.0733 85.8382 42.0398 88.4095 44.6271L88.5142 44.7135H96L95.7203 44.2821C92.7471 40.1594 88.8995 36.8995 84.2818 34.5188C79.6644 32.1559 74.8547 31 69.7477 31C64.6929 31 59.813 32.1559 55.1957 34.5188C50.5779 36.8995 46.7303 40.1594 43.7742 44.2821L43.4771 44.7135H51.0154L51.068 44.6271Z" fill="#CC2131"/>
</g>
<rect x="1" y="1" width="110" height="110" rx="9" stroke="#CCCCCC" stroke-width="2"/>
<defs>
<clipPath id="clip0_6_7369">
<rect x="2" y="2" width="108" height="108" rx="8" fill="white"/>
</clipPath>
</defs>
</svg>
