<svg width="112" height="112" viewBox="0 0 112 112" fill="none" xmlns="http://www.w3.org/2000/svg">
<g clip-path="url(#clip0_421_553)">
<rect x="2" y="2" width="108" height="108" rx="8" fill="white"/>
<path fill-rule="evenodd" clip-rule="evenodd" d="M43.5863 54.1766V55.3338L43.7398 55.322V55.3102C43.7693 55.139 44.0763 54.8142 44.4601 54.8142C44.4601 54.8142 45.5642 54.8142 45.6055 54.8142C45.6055 54.8733 45.6055 60.7953 45.6055 60.7953H46.7392C46.7392 60.7953 46.7392 54.8733 46.7392 54.8319C46.7982 54.8319 47.9141 54.8319 47.9141 54.8319C48.3097 54.8319 48.5636 55.0445 48.6049 55.2393V55.2689H48.7762L48.7644 54.2061H48.7526V54.1766H43.5863Z" fill="#183964"/>
<path fill-rule="evenodd" clip-rule="evenodd" d="M22.9919 54.1766H22.9624V54.3301L22.9742 54.3419C23.0746 54.4009 23.1749 54.6371 23.1749 54.9382V60.7894H24.2791C24.2791 60.7894 24.2791 57.8373 24.2791 57.7782C24.3381 57.7782 24.775 57.7782 24.775 57.7782C25.2119 57.8077 25.3832 58.0911 25.5957 58.4572L25.6253 58.4985L25.767 58.7229C26.009 59.1185 26.3338 59.6558 26.6585 60.1636C26.9006 60.5178 27.1958 60.7304 27.5796 60.7835C27.8453 60.8248 28.3826 60.813 28.5951 60.754L28.8372 60.695L28.9376 60.6654L28.601 60.5651C28.4593 60.5237 28.2468 60.4234 27.9634 60.0986C27.7803 59.8979 27.4969 59.4314 27.06 58.7583L26.6349 58.0793L26.6231 58.0675C26.5109 57.8963 26.3102 57.6306 25.9854 57.4594C26.6054 57.2586 27.2135 56.6977 27.2135 55.8475C27.2135 55.6054 27.1545 55.1567 26.7471 54.7611C26.3397 54.3655 25.6843 54.1648 24.8105 54.1648H23.0037L22.9919 54.1766ZM24.8872 54.7729C26.0208 54.8142 26.0445 55.7766 26.0445 55.877C26.0445 56.8394 25.3359 57.176 24.716 57.176C24.716 57.176 24.3204 57.1642 24.2791 57.1642C24.2791 57.1051 24.2791 54.8319 24.2791 54.7729C24.409 54.7729 24.6156 54.7611 24.8872 54.7729Z" fill="#183964"/>
<path fill-rule="evenodd" clip-rule="evenodd" d="M34.2987 54.1766H34.2692L34.281 54.3478H34.2928C34.3932 54.3891 34.4759 54.6312 34.4759 54.826V60.7776H36.3712C37.617 60.7776 38.662 60.3938 39.3706 59.6617C39.9669 59.0535 40.2916 58.221 40.2916 57.3708C40.2916 56.863 40.1204 56.0837 39.6244 55.446C38.975 54.5958 37.9417 54.1588 36.5424 54.1588L34.2928 54.1707L34.2987 54.1766ZM35.6154 54.8142C35.6744 54.8142 36.2117 54.8142 36.2117 54.8142C36.3652 54.8142 36.7608 54.826 37.0442 54.8733C38.91 55.1567 39.1108 56.7272 39.1108 57.3767C39.1108 57.914 39.0104 58.6934 38.5439 59.2838C38.0893 59.8624 37.3867 60.1577 36.4243 60.1577C36.1999 60.1577 35.9165 60.1577 35.6036 60.1458C35.6154 60.1045 35.6154 54.8733 35.6154 54.8142Z" fill="#183964"/>
<path fill-rule="evenodd" clip-rule="evenodd" d="M42.5825 54.1765H41.2835V54.33L41.2953 54.3419C41.4075 54.4009 41.4961 54.6076 41.4961 54.891V60.7835H42.6002V54.1824L42.5884 54.1706L42.5825 54.1765Z" fill="#183964"/>
<path fill-rule="evenodd" clip-rule="evenodd" d="M32.8699 54.1766H29.1501L29.162 54.3301H29.1738C29.2741 54.3891 29.3863 54.6135 29.3863 54.9264V60.7776H33.0883L33.3599 59.6026L33.2064 59.5436L33.1651 59.6145C32.8522 60.0927 32.5451 60.1518 31.4705 60.1518C31.0868 60.1636 30.7089 60.1222 30.4786 60.1104C30.4786 60.0691 30.4786 57.4653 30.4786 57.4121C30.5377 57.4121 32.3562 57.4121 32.3562 57.4121V56.8158C32.3562 56.8158 30.5318 56.8158 30.4786 56.8158C30.4786 56.7568 30.4786 54.8083 30.4786 54.767C30.5377 54.767 32.0078 54.7788 32.0078 54.7788C32.3444 54.7788 32.7282 55.1035 32.7577 55.3043V55.3338H32.9112L32.8699 54.1766Z" fill="#183964"/>
<path fill-rule="evenodd" clip-rule="evenodd" d="M63.8736 54.1766H62.5746L62.5864 54.3301H62.5982C62.7104 54.3891 62.799 54.6135 62.799 54.8969V60.7894H63.9031V54.1884L63.8736 54.1766Z" fill="#183964"/>
<path fill-rule="evenodd" clip-rule="evenodd" d="M79.3075 54.1765H75.6054L75.6173 54.3478H75.6291C75.7294 54.4068 75.8416 54.6194 75.8416 54.9264V60.7776H79.5436L79.8093 59.6026L79.6381 59.5436L79.5968 59.6144C79.2839 60.0927 78.9768 60.1517 77.914 60.1517C77.5303 60.1635 77.1524 60.1222 76.9221 60.1104C76.9221 60.0691 76.9221 57.4653 76.9221 57.4121C76.9812 57.4121 78.7997 57.4121 78.7997 57.4121V56.8158C78.7997 56.8158 76.9753 56.8158 76.9221 56.8158C76.9221 56.7567 76.9221 54.8083 76.9221 54.767C76.9812 54.767 78.4513 54.7788 78.4513 54.7788C78.8765 54.7788 79.1894 55.0917 79.1894 55.3043V55.3338L79.3606 55.322L79.3311 54.1647L79.3016 54.1765H79.3075Z" fill="#183964"/>
<path fill-rule="evenodd" clip-rule="evenodd" d="M65.6685 55.8475C65.6566 56.7685 66.2057 57.2173 67.1091 57.6719L67.4457 57.8431C68.1542 58.1974 68.6206 58.4218 68.6206 59.0889C68.6206 59.2011 68.5911 59.5967 68.2959 59.9097C68.0833 60.1222 67.7881 60.2226 67.422 60.2226C66.3593 60.2108 65.9814 59.3901 65.8397 58.9059L65.8102 58.8233L65.5858 58.8646L65.6448 60.2521L65.7039 60.2816C66.0581 60.4824 66.6486 60.8189 67.487 60.8307C68.0951 60.8307 68.7033 60.5887 69.1107 60.1813C69.4768 59.8152 69.6775 59.3605 69.6775 58.8528C69.6775 57.6955 68.8745 57.2822 68.0243 56.8335L67.8708 56.7508C66.9497 56.2962 66.6427 56.0836 66.6427 55.5759C66.6427 55.2216 66.9084 54.6843 67.6464 54.702C68.538 54.7138 68.9158 55.3515 69.0044 55.694L69.0339 55.7943L69.2583 55.7648L69.1756 54.5485L69.1343 54.519C68.6265 54.1824 67.9889 54.1352 67.735 54.1352C66.743 54.1234 65.698 54.7315 65.6862 55.8593L65.6685 55.8475Z" fill="#183964"/>
<path fill-rule="evenodd" clip-rule="evenodd" d="M51.1379 55.8475C51.1261 56.7686 51.6752 57.2173 52.5786 57.6719L52.9151 57.8432C53.6236 58.1974 54.0901 58.4218 54.0901 59.089C54.0901 59.2012 54.0606 59.5967 53.7653 59.9097C53.5528 60.1222 53.2576 60.2226 52.8915 60.2226C51.8287 60.2108 51.4508 59.3901 51.3091 58.9059L51.2796 58.8233L51.0552 58.8646L51.1143 60.2521L51.1733 60.2816C51.5276 60.4824 52.118 60.8189 52.9564 60.8307C53.5646 60.8307 54.1727 60.5887 54.5801 60.1813C54.9462 59.8152 55.147 59.3606 55.147 58.8528C55.147 57.6955 54.344 57.2822 53.4937 56.8335L53.3402 56.7509C52.4191 56.2962 52.1121 56.0837 52.1121 55.5759C52.1121 55.2216 52.3778 54.6843 53.1159 54.702C54.0074 54.7139 54.3853 55.3515 54.4739 55.694L54.5034 55.7943L54.7277 55.7648L54.6569 54.5603L54.6156 54.5308C54.1078 54.1943 53.4701 54.147 53.2162 54.147C52.2243 54.1175 51.1674 54.7257 51.1497 55.8593L51.1379 55.8475Z" fill="#183964"/>
<path fill-rule="evenodd" clip-rule="evenodd" d="M70.6281 55.8475C70.6163 56.7686 71.1654 57.2173 72.0688 57.6719L72.4053 57.8432C73.1139 58.1974 73.5803 58.4218 73.5803 59.089C73.5803 59.2012 73.5508 59.5967 73.2556 59.9097C73.043 60.1222 72.7478 60.2226 72.3817 60.2226C71.3189 60.2108 70.9411 59.3901 70.7994 58.9059L70.7698 58.8233L70.5455 58.8646L70.6045 60.2521L70.6636 60.2816C71.0178 60.4824 71.6083 60.8189 72.4467 60.8308C73.0548 60.8308 73.663 60.5887 74.0704 60.1813C74.4364 59.8152 74.6372 59.3606 74.6372 58.8528C74.6372 57.6955 73.8342 57.2822 72.984 56.8335L72.8305 56.7509C71.9094 56.2962 71.6023 56.0837 71.6023 55.5759C71.6023 55.3515 71.7027 55.1213 71.868 54.9559C72.0511 54.7847 72.305 54.6902 72.6061 54.6902C73.4976 54.702 73.8755 55.3397 73.9641 55.6822L73.9936 55.7648L74.218 55.7353L74.1471 54.5308L74.1058 54.5013C73.598 54.1648 72.9604 54.1175 72.7065 54.1175C71.7145 54.1175 70.6577 54.7257 70.6399 55.8534L70.6281 55.8475Z" fill="#183964"/>
<path fill-rule="evenodd" clip-rule="evenodd" d="M61.1162 54.1825H60.2424L60.2542 54.336H60.266C60.3073 54.3655 60.4491 54.4659 60.4491 54.8733V58.6166C60.4491 59.337 60.1774 60.2167 58.908 60.2167C57.7035 60.2167 57.4496 59.4964 57.4496 58.4218V54.1648H56.0621L56.0739 54.3065H56.0857C56.1684 54.3478 56.3278 54.5308 56.3278 54.8851V58.4041C56.3278 60.5946 57.7685 60.8367 58.8608 60.8367C59.3981 60.8367 61.1221 60.6831 61.1221 58.6166V54.147L61.1103 54.1766L61.1162 54.1825Z" fill="#183964"/>
<path fill-rule="evenodd" clip-rule="evenodd" d="M16.9282 55.1272C16.3495 55.7648 16.0071 56.6091 16.0071 57.4889C16.0071 58.4631 16.3909 59.3429 17.0817 59.9746C17.7489 60.5828 18.6227 60.9075 19.5674 60.9075C20.0634 60.9075 21.0376 60.8248 21.9705 60.2403L22.0118 60.2108L22.124 58.841L21.9409 58.8292L21.9114 58.8882C21.2206 60.3702 20.146 60.1577 19.7327 60.1577C17.9083 60.1577 17.2883 58.8174 17.2883 57.359C17.2883 55.9597 17.9083 54.7552 19.7504 54.7552C20.3172 54.7552 21.3328 54.7434 21.8701 56.0128L21.8996 56.0837L22.0708 56.0246L21.9587 54.5958L21.9173 54.584C21.0553 54.2002 20.3645 54.0349 19.6678 54.0349C18.5519 54.023 17.6013 54.4009 16.9282 55.1213V55.1272Z" fill="#183964"/>
<path fill-rule="evenodd" clip-rule="evenodd" d="M92.7104 58.6461C91.4823 58.4454 90.1538 58.3332 89.1737 58.5044C89.1146 58.5162 89.0733 58.4749 89.0733 58.4218C89.0733 58.0852 89.0733 56.9811 88.8076 55.6113C88.8076 55.5818 88.7958 55.57 88.7663 55.5523C85.5543 53.3027 82.6612 51.8089 81.4744 51.2421C81.3917 51.2008 81.3032 51.313 81.374 51.3838C84.8399 54.5662 86.0503 59.9805 86.2097 60.7009C86.2215 60.7422 86.2687 60.7717 86.3101 60.7717C90.1951 60.0219 94.0979 60.9547 95.1902 61.25C95.2729 61.2795 95.3319 61.1673 95.2729 61.1083C94.4699 60.2462 93.6196 59.4373 92.7576 58.6757C92.7576 58.6639 92.7458 58.6461 92.7163 58.6461H92.7104Z" fill="#183964"/>
<path fill-rule="evenodd" clip-rule="evenodd" d="M95.9755 59.1952C92.8521 55.0091 88.412 51.927 87.0127 51.0118C86.93 50.9528 86.8415 51.0532 86.9005 51.1417C87.9751 52.5529 88.5242 54.1825 88.7958 55.5405C88.7958 55.57 88.8076 55.5818 88.8253 55.5995C90.1125 56.5029 91.4291 57.5243 92.7281 58.6402C92.7399 58.652 92.7576 58.652 92.7694 58.652C94.1274 58.8764 95.3732 59.1893 95.881 59.331C95.9637 59.3606 96.0227 59.272 95.9814 59.2012L95.9755 59.1952Z" fill="#183964"/>
<path fill-rule="evenodd" clip-rule="evenodd" d="M43.5863 54.1766V55.3338L43.7398 55.322V55.3102C43.7693 55.139 44.0763 54.8142 44.4601 54.8142C44.4601 54.8142 45.5642 54.8142 45.6055 54.8142C45.6055 54.8733 45.6055 60.7953 45.6055 60.7953H46.7392C46.7392 60.7953 46.7392 54.8733 46.7392 54.8319C46.7982 54.8319 47.9141 54.8319 47.9141 54.8319C48.3097 54.8319 48.5636 55.0445 48.6049 55.2393V55.2689H48.7762L48.7644 54.2061H48.7526V54.1766H43.5863Z" fill="#183964"/>
<path fill-rule="evenodd" clip-rule="evenodd" d="M22.9919 54.1766H22.9624V54.3301L22.9742 54.3419C23.0746 54.4009 23.1749 54.6371 23.1749 54.9382V60.7894H24.2791C24.2791 60.7894 24.2791 57.8373 24.2791 57.7782C24.3381 57.7782 24.775 57.7782 24.775 57.7782C25.2119 57.8077 25.3832 58.0911 25.5957 58.4572L25.6253 58.4985L25.767 58.7229C26.009 59.1185 26.3338 59.6558 26.6585 60.1636C26.9006 60.5178 27.1958 60.7304 27.5796 60.7835C27.8453 60.8248 28.3826 60.813 28.5951 60.754L28.8372 60.695L28.9376 60.6654L28.601 60.5651C28.4593 60.5237 28.2468 60.4234 27.9634 60.0986C27.7803 59.8979 27.4969 59.4314 27.06 58.7583L26.6349 58.0793L26.6231 58.0675C26.5109 57.8963 26.3102 57.6306 25.9854 57.4594C26.6054 57.2586 27.2135 56.6977 27.2135 55.8475C27.2135 55.6054 27.1545 55.1567 26.7471 54.7611C26.3397 54.3655 25.6843 54.1648 24.8105 54.1648H23.0037L22.9919 54.1766ZM24.8872 54.7729C26.0208 54.8142 26.0445 55.7766 26.0445 55.877C26.0445 56.8394 25.3359 57.176 24.716 57.176C24.716 57.176 24.3204 57.1642 24.2791 57.1642C24.2791 57.1051 24.2791 54.8319 24.2791 54.7729C24.409 54.7729 24.6156 54.7611 24.8872 54.7729Z" fill="#183964"/>
<path fill-rule="evenodd" clip-rule="evenodd" d="M34.2987 54.1766H34.2692L34.281 54.3478H34.2928C34.3932 54.3891 34.4759 54.6312 34.4759 54.826V60.7776H36.3712C37.617 60.7776 38.662 60.3938 39.3706 59.6617C39.9669 59.0535 40.2916 58.221 40.2916 57.3708C40.2916 56.863 40.1204 56.0837 39.6244 55.446C38.975 54.5958 37.9417 54.1588 36.5424 54.1588L34.2928 54.1707L34.2987 54.1766ZM35.6154 54.8142C35.6744 54.8142 36.2117 54.8142 36.2117 54.8142C36.3652 54.8142 36.7608 54.826 37.0442 54.8733C38.91 55.1567 39.1108 56.7272 39.1108 57.3767C39.1108 57.914 39.0104 58.6934 38.5439 59.2838C38.0893 59.8624 37.3867 60.1577 36.4243 60.1577C36.1999 60.1577 35.9165 60.1577 35.6036 60.1458C35.6154 60.1045 35.6154 54.8733 35.6154 54.8142Z" fill="#183964"/>
<path fill-rule="evenodd" clip-rule="evenodd" d="M42.5825 54.1765H41.2835V54.33L41.2953 54.3419C41.4075 54.4009 41.4961 54.6076 41.4961 54.891V60.7835H42.6002V54.1824L42.5884 54.1706L42.5825 54.1765Z" fill="#183964"/>
<path fill-rule="evenodd" clip-rule="evenodd" d="M32.8699 54.1766H29.1501L29.162 54.3301H29.1738C29.2741 54.3891 29.3863 54.6135 29.3863 54.9264V60.7776H33.0883L33.3599 59.6026L33.2064 59.5436L33.1651 59.6145C32.8522 60.0927 32.5451 60.1518 31.4705 60.1518C31.0868 60.1636 30.7089 60.1222 30.4786 60.1104C30.4786 60.0691 30.4786 57.4653 30.4786 57.4121C30.5377 57.4121 32.3562 57.4121 32.3562 57.4121V56.8158C32.3562 56.8158 30.5318 56.8158 30.4786 56.8158C30.4786 56.7568 30.4786 54.8083 30.4786 54.767C30.5377 54.767 32.0078 54.7788 32.0078 54.7788C32.3444 54.7788 32.7282 55.1035 32.7577 55.3043V55.3338H32.9112L32.8699 54.1766Z" fill="#183964"/>
<path fill-rule="evenodd" clip-rule="evenodd" d="M63.8736 54.1766H62.5746L62.5864 54.3301H62.5982C62.7104 54.3891 62.799 54.6135 62.799 54.8969V60.7894H63.9031V54.1884L63.8736 54.1766Z" fill="#183964"/>
<path fill-rule="evenodd" clip-rule="evenodd" d="M79.3075 54.1765H75.6054L75.6173 54.3478H75.6291C75.7294 54.4068 75.8416 54.6194 75.8416 54.9264V60.7776H79.5436L79.8093 59.6026L79.6381 59.5436L79.5968 59.6144C79.2839 60.0927 78.9768 60.1517 77.914 60.1517C77.5303 60.1635 77.1524 60.1222 76.9221 60.1104C76.9221 60.0691 76.9221 57.4653 76.9221 57.4121C76.9812 57.4121 78.7997 57.4121 78.7997 57.4121V56.8158C78.7997 56.8158 76.9753 56.8158 76.9221 56.8158C76.9221 56.7567 76.9221 54.8083 76.9221 54.767C76.9812 54.767 78.4513 54.7788 78.4513 54.7788C78.8765 54.7788 79.1894 55.0917 79.1894 55.3043V55.3338L79.3606 55.322L79.3311 54.1647L79.3016 54.1765H79.3075Z" fill="#183964"/>
<path fill-rule="evenodd" clip-rule="evenodd" d="M65.6685 55.8475C65.6566 56.7685 66.2057 57.2173 67.1091 57.6719L67.4457 57.8431C68.1542 58.1974 68.6206 58.4218 68.6206 59.0889C68.6206 59.2011 68.5911 59.5967 68.2959 59.9097C68.0833 60.1222 67.7881 60.2226 67.422 60.2226C66.3593 60.2108 65.9814 59.3901 65.8397 58.9059L65.8102 58.8233L65.5858 58.8646L65.6448 60.2521L65.7039 60.2816C66.0581 60.4824 66.6486 60.8189 67.487 60.8307C68.0951 60.8307 68.7033 60.5887 69.1107 60.1813C69.4768 59.8152 69.6775 59.3605 69.6775 58.8528C69.6775 57.6955 68.8745 57.2822 68.0243 56.8335L67.8708 56.7508C66.9497 56.2962 66.6427 56.0836 66.6427 55.5759C66.6427 55.2216 66.9084 54.6843 67.6464 54.702C68.538 54.7138 68.9158 55.3515 69.0044 55.694L69.0339 55.7943L69.2583 55.7648L69.1756 54.5485L69.1343 54.519C68.6265 54.1824 67.9889 54.1352 67.735 54.1352C66.743 54.1234 65.698 54.7315 65.6862 55.8593L65.6685 55.8475Z" fill="#183964"/>
<path fill-rule="evenodd" clip-rule="evenodd" d="M51.1379 55.8475C51.1261 56.7686 51.6752 57.2173 52.5786 57.6719L52.9151 57.8432C53.6236 58.1974 54.0901 58.4218 54.0901 59.089C54.0901 59.2012 54.0606 59.5967 53.7653 59.9097C53.5528 60.1222 53.2576 60.2226 52.8915 60.2226C51.8287 60.2108 51.4508 59.3901 51.3091 58.9059L51.2796 58.8233L51.0552 58.8646L51.1143 60.2521L51.1733 60.2816C51.5276 60.4824 52.118 60.8189 52.9564 60.8307C53.5646 60.8307 54.1727 60.5887 54.5801 60.1813C54.9462 59.8152 55.147 59.3606 55.147 58.8528C55.147 57.6955 54.344 57.2822 53.4937 56.8335L53.3402 56.7509C52.4191 56.2962 52.1121 56.0837 52.1121 55.5759C52.1121 55.2216 52.3778 54.6843 53.1159 54.702C54.0074 54.7139 54.3853 55.3515 54.4739 55.694L54.5034 55.7943L54.7277 55.7648L54.6569 54.5603L54.6156 54.5308C54.1078 54.1943 53.4701 54.147 53.2162 54.147C52.2243 54.1175 51.1674 54.7257 51.1497 55.8593L51.1379 55.8475Z" fill="#183964"/>
<path fill-rule="evenodd" clip-rule="evenodd" d="M70.6281 55.8475C70.6163 56.7686 71.1654 57.2173 72.0688 57.6719L72.4053 57.8432C73.1139 58.1974 73.5803 58.4218 73.5803 59.089C73.5803 59.2012 73.5508 59.5967 73.2556 59.9097C73.043 60.1222 72.7478 60.2226 72.3817 60.2226C71.3189 60.2108 70.9411 59.3901 70.7994 58.9059L70.7698 58.8233L70.5455 58.8646L70.6045 60.2521L70.6636 60.2816C71.0178 60.4824 71.6083 60.8189 72.4467 60.8308C73.0548 60.8308 73.663 60.5887 74.0704 60.1813C74.4364 59.8152 74.6372 59.3606 74.6372 58.8528C74.6372 57.6955 73.8342 57.2822 72.984 56.8335L72.8305 56.7509C71.9094 56.2962 71.6023 56.0837 71.6023 55.5759C71.6023 55.3515 71.7027 55.1213 71.868 54.9559C72.0511 54.7847 72.305 54.6902 72.6061 54.6902C73.4976 54.702 73.8755 55.3397 73.9641 55.6822L73.9936 55.7648L74.218 55.7353L74.1471 54.5308L74.1058 54.5013C73.598 54.1648 72.9604 54.1175 72.7065 54.1175C71.7145 54.1175 70.6577 54.7257 70.6399 55.8534L70.6281 55.8475Z" fill="#183964"/>
<path fill-rule="evenodd" clip-rule="evenodd" d="M61.1162 54.1825H60.2424L60.2542 54.336H60.266C60.3073 54.3655 60.4491 54.4659 60.4491 54.8733V58.6166C60.4491 59.337 60.1774 60.2167 58.908 60.2167C57.7035 60.2167 57.4496 59.4964 57.4496 58.4218V54.1648H56.0621L56.0739 54.3065H56.0857C56.1684 54.3478 56.3278 54.5308 56.3278 54.8851V58.4041C56.3278 60.5946 57.7685 60.8367 58.8608 60.8367C59.3981 60.8367 61.1221 60.6831 61.1221 58.6166V54.147L61.1103 54.1766L61.1162 54.1825Z" fill="#183964"/>
<path fill-rule="evenodd" clip-rule="evenodd" d="M16.9282 55.1272C16.3495 55.7648 16.0071 56.6091 16.0071 57.4889C16.0071 58.4631 16.3909 59.3429 17.0817 59.9746C17.7489 60.5828 18.6227 60.9075 19.5674 60.9075C20.0634 60.9075 21.0376 60.8248 21.9705 60.2403L22.0118 60.2108L22.124 58.841L21.9409 58.8292L21.9114 58.8882C21.2206 60.3702 20.146 60.1577 19.7327 60.1577C17.9083 60.1577 17.2883 58.8174 17.2883 57.359C17.2883 55.9597 17.9083 54.7552 19.7504 54.7552C20.3172 54.7552 21.3328 54.7434 21.8701 56.0128L21.8996 56.0837L22.0708 56.0246L21.9587 54.5958L21.9173 54.584C21.0553 54.2002 20.3645 54.0349 19.6678 54.0349C18.5519 54.023 17.6013 54.4009 16.9282 55.1213V55.1272Z" fill="#183964"/>
<path fill-rule="evenodd" clip-rule="evenodd" d="M92.7104 58.6461C91.4823 58.4454 90.1538 58.3332 89.1737 58.5044C89.1146 58.5162 89.0733 58.4749 89.0733 58.4218C89.0733 58.0852 89.0733 56.9811 88.8076 55.6113C88.8076 55.5818 88.7958 55.57 88.7663 55.5523C85.5543 53.3027 82.6612 51.8089 81.4744 51.2421C81.3917 51.2008 81.3032 51.313 81.374 51.3838C84.8399 54.5662 86.0503 59.9805 86.2097 60.7009C86.2215 60.7422 86.2687 60.7717 86.3101 60.7717C90.1951 60.0219 94.0979 60.9547 95.1902 61.25C95.2729 61.2795 95.3319 61.1673 95.2729 61.1083C94.4699 60.2462 93.6196 59.4373 92.7576 58.6757C92.7576 58.6639 92.7458 58.6461 92.7163 58.6461H92.7104Z" fill="#183964"/>
<path fill-rule="evenodd" clip-rule="evenodd" d="M95.9755 59.1952C92.8521 55.0091 88.412 51.927 87.0127 51.0118C86.93 50.9528 86.8415 51.0532 86.9005 51.1417C87.9751 52.5529 88.5242 54.1825 88.7958 55.5405C88.7958 55.57 88.8076 55.5818 88.8253 55.5995C90.1125 56.5029 91.4291 57.5243 92.7281 58.6402C92.7399 58.652 92.7576 58.652 92.7694 58.652C94.1274 58.8764 95.3732 59.1893 95.881 59.331C95.9637 59.3606 96.0227 59.272 95.9814 59.2012L95.9755 59.1952Z" fill="#183964"/>
</g>
<rect x="1" y="1" width="110" height="110" rx="9" stroke="#CCCCCC" stroke-width="2"/>
<defs>
<clipPath id="clip0_421_553">
<rect x="2" y="2" width="108" height="108" rx="8" fill="white"/>
</clipPath>
</defs>
</svg>
