<svg width="112" height="112" viewBox="0 0 112 112" fill="none" xmlns="http://www.w3.org/2000/svg">
<g clip-path="url(#clip0_6_7370)">
<rect x="2.00003" y="2" width="108" height="108" rx="8" fill="white"/>
<path d="M17.9149 58.8532H18.7797C19.2733 58.8532 19.672 58.8926 20.1116 59.4002C20.4227 59.7511 20.7647 60.5266 20.7647 61.781C20.7647 62.2314 20.768 62.6772 20.6827 63.1354C20.5457 63.8581 20.2122 65.0165 18.3046 65.0165C17.7942 65.0165 17.9149 65.0033 17.9149 65.0033V58.8541V58.8532ZM18.8959 66.0857C21.4632 66.0857 22.6127 64.9402 22.6127 61.8114C22.6127 60.9842 22.3695 59.5978 21.5991 58.7521C20.8023 57.884 19.7719 57.7756 18.9015 57.7756H16.04V66.0857H18.8959Z" fill="#046148"/>
<path d="M26.9986 63.9333C26.9986 64.2084 26.9907 64.5779 26.6987 64.8424C26.4539 65.0579 26.1091 65.0743 25.9777 65.0743C25.6521 65.0743 25.3589 64.9558 25.2354 64.5532C25.2045 64.4263 25.1921 64.2983 25.1921 64.1759C25.1921 63.5688 25.5947 63.3134 26.0423 63.2044C26.2768 63.1501 26.4348 63.1398 26.9986 63.0928V63.9334L26.9986 63.9333ZM26.9986 62.3436L26.0631 62.4357C25.0551 62.5512 24.6694 62.6433 24.2381 62.9298C23.5418 63.4032 23.5329 64.0955 23.5329 64.323C23.5329 64.8907 23.7052 65.318 23.94 65.5639C24.2493 65.9244 24.7396 66.0564 25.2129 66.0564C26.3736 66.0564 26.9273 65.5291 26.9273 65.5291L26.9352 65.9042H28.5002V61.973C28.5002 61.5305 28.5108 60.9083 28.0032 60.4681C27.7376 60.2406 27.5052 60.1357 27.1458 60.0846C26.7887 60.0204 26.6646 59.9946 26.3164 59.9946C25.2607 59.9946 24.4645 60.1803 24.0108 60.9879C23.8161 61.3378 23.8261 61.6887 23.8261 61.9571H25.2608C25.274 61.7231 25.2845 61.399 25.4674 61.1738C25.56 61.0458 25.7768 60.8633 26.1783 60.8633C26.3091 60.8633 26.6893 60.8633 26.883 61.18C26.9909 61.3671 26.9999 61.6101 26.9999 61.8858V62.3435L26.9986 62.3436Z" fill="#046148"/>
<path d="M39.4575 63.9333C39.4575 64.2084 39.4496 64.5779 39.1554 64.8424C38.9168 65.0579 38.5708 65.0743 38.431 65.0743C38.1076 65.0743 37.8189 64.9558 37.6937 64.5532C37.6623 64.4263 37.6533 64.2983 37.6533 64.1759C37.6533 63.5688 38.0537 63.3134 38.5035 63.2044C38.7381 63.1501 38.8943 63.1398 39.4575 63.0928V63.9334L39.4575 63.9333ZM39.4575 62.3436L38.5259 62.4357C37.5118 62.5512 37.1316 62.6433 36.6976 62.9298C36.0052 63.4032 35.9945 64.0955 35.9945 64.323C35.9945 64.8907 36.1618 65.318 36.3943 65.5639C36.7082 65.9244 37.2012 66.0564 37.6724 66.0564C38.8359 66.0564 39.3884 65.5291 39.3884 65.5291L39.3963 65.9042H40.9557V61.973C40.9557 61.5305 40.9689 60.9083 40.4644 60.4681C40.1988 60.2406 39.9618 60.1357 39.6069 60.0846C39.2481 60.0204 39.1257 59.9946 38.7753 59.9946C37.7202 59.9946 36.9256 60.1803 36.4691 60.9879C36.277 61.3378 36.2894 61.6887 36.2894 61.9571H37.7202C37.7334 61.7231 37.7439 61.399 37.9273 61.1738C38.0189 61.0458 38.2356 60.8633 38.6376 60.8633C38.7685 60.8633 39.1481 60.8633 39.3468 61.18C39.4495 61.3671 39.4585 61.6101 39.4585 61.8858V62.3435L39.4575 62.3436Z" fill="#046148"/>
<path d="M63.0339 65.904H61.401V62.3855C61.401 62.1605 61.401 61.9728 61.3825 61.7813C61.3666 61.5971 61.3139 60.9997 60.602 60.9997C60.4133 60.9997 60.2533 61.0464 60.1511 61.0897C59.6698 61.3102 59.6575 61.7012 59.6457 62.0117V65.9042H58.0094V60.1463H59.6457V60.801C60.0567 60.4332 60.4285 60.0306 61.3465 60.0306C62.1175 60.0306 62.4994 60.3293 62.6572 60.5141C63.0205 60.9223 63.0205 61.4518 63.0345 61.8646V65.9042L63.0339 65.904Z" fill="#046148"/>
<path d="M34.7931 65.904H33.1613V62.3855C33.1613 62.1605 33.1613 61.9728 33.1344 61.7813C33.1238 61.5971 33.0681 60.9997 32.3522 60.9997C32.1696 60.9997 32.0096 61.0464 31.9074 61.0897C31.4251 61.3102 31.411 61.7012 31.3976 62.0117V65.9042H29.7624V60.1463H31.3976V60.801C31.8165 60.4332 32.1837 60.0306 33.1007 60.0306C33.8762 60.0306 34.2512 60.3293 34.4135 60.5141C34.7802 60.9223 34.7802 61.4518 34.7931 61.8646V65.9042L34.7931 65.904Z" fill="#046148"/>
<path d="M42.1554 60.1435H43.79V60.8134C44.1039 60.5332 44.6576 60.0255 45.6391 60.0255C46.7622 60.0255 47.0744 60.696 47.1508 60.9172C47.8195 60.2704 48.2592 60.0255 48.8999 60.0255C49.2138 60.0255 49.4289 60.0767 49.6366 60.1525C50.5171 60.4905 50.5362 61.2733 50.5525 61.7809V65.9003H48.8893V62.1481C48.8813 61.7405 48.8682 61.5097 48.7623 61.3289C48.7412 61.2822 48.5787 60.9953 48.1654 60.9953C48.0256 60.9953 47.7589 61.0291 47.6337 61.098C47.176 61.3164 47.1586 61.6966 47.1508 62.0049V65.9002H45.5302V62.1722C45.5302 61.7291 45.5355 60.9952 44.7974 60.9952C44.6306 60.9952 44.3403 61.0424 44.1971 61.1216C43.79 61.3725 43.7788 61.7404 43.79 62.2525V65.9002H42.1554V60.1434V60.1435Z" fill="#046148"/>
<path d="M55.3798 62.9007C55.3798 63.2275 55.3666 63.5414 55.3326 63.8581C55.2983 64.1759 55.2426 64.8149 54.7531 65.0833C54.6122 65.1506 54.4639 65.186 54.3118 65.186C53.3847 65.186 53.301 64.2134 53.2819 63.858C53.2608 63.5929 53.2442 63.3335 53.2442 63.0758C53.2442 62.8454 53.26 62.5254 53.2935 62.1481C53.3268 61.8432 53.3946 61.2598 53.8663 60.9841C54.0275 60.9025 54.1824 60.869 54.3627 60.869C55.2426 60.869 55.3223 61.7922 55.3431 62.1482C55.3668 62.4004 55.3795 62.6541 55.3795 62.9006L55.3798 62.9007ZM57.0467 62.9299C57.0467 62.4189 57.0467 61.4626 56.4784 60.8135C55.7928 59.9948 54.8113 59.9948 54.4637 59.9948C54.0605 59.9948 53.1334 60.0106 52.4057 60.6709C51.5825 61.4048 51.5825 62.5767 51.5825 63.1697C51.5825 64.295 51.8363 65.4849 53.2597 65.9004C53.6742 66.0268 53.8943 66.0492 54.3115 66.0492C54.7017 66.0492 55.6777 66.0492 56.4026 65.2434C57.0467 64.5303 57.0467 63.4611 57.0467 62.9299" fill="#046148"/>
<path d="M28.6859 51.9104H43.8112L30.3964 47.7959L28.6859 48.7148L22.8808 50.2127L28.6859 51.9104Z" fill="#EF9826"/>
<path d="M16.0401 46.0401V51.9103H28.6879V48.7146L16.0401 46.0401Z" fill="#EB712D"/>
<path d="M43.8175 51.9104L28.6861 46.0402L28.6884 48.7148L43.8177 51.9104H43.8175Z" fill="#FEC02B"/>
<path d="M95.96 62.9451V51.9066H75.5878L71.3535 54.9592L75.5878 58.6376L95.96 62.9451Z" fill="#EF9826"/>
<path d="M75.5877 58.6377L70.0499 53.8632L43.8193 51.9145L75.5877 62.9519V58.6377Z" fill="#FEC02B"/>
<path d="M43.8126 51.9066V51.9118L75.5877 58.6361V51.9079H43.8126V51.9066Z" fill="#EB712D"/>
</g>
<rect x="1" y="1" width="110" height="110" rx="9" stroke="#CCCCCC" stroke-width="2"/>
<defs>
<clipPath id="clip0_6_7370">
<rect x="2" y="2" width="108" height="108" rx="8" fill="white"/>
</clipPath>
</defs>
</svg>
