<svg width="112" height="112" viewBox="0 0 112 112" fill="none" xmlns="http://www.w3.org/2000/svg">
<g clip-path="url(#clip0_6_7372)">
<rect x="2" y="2" width="108" height="108" rx="8" fill="white"/>
<path fill-rule="evenodd" clip-rule="evenodd" d="M30.5164 63.2379C30.5561 63.4193 30.8793 63.6517 31.055 63.9579C30.8849 63.8502 30.7205 63.6914 30.5561 63.5497C29.8191 62.9374 24.3596 58.3339 23.9627 58.0902C22.2052 56.996 21.2698 58.0448 20.1473 58.9462C19.6257 59.3601 14.2399 63.9069 14.1095 63.9465C14.1662 63.8955 14.2286 63.7991 14.3079 63.7084C14.9939 62.9431 15.9634 61.7412 16.6493 60.9248L18.3445 58.9179C18.6223 58.5664 18.9171 58.2602 19.1949 57.9144C19.6257 57.3815 20.4931 56.5708 20.4818 55.5106C20.4704 54.3995 19.62 53.7021 19.1778 53.1239C18.9114 52.7724 18.6109 52.4606 18.3275 52.1147L15.7819 49.1043C15.4928 48.7698 15.2263 48.4127 14.9372 48.0952C14.7898 47.9308 14.6481 47.7437 14.512 47.5906C14.4156 47.4829 14.1662 47.1541 14.0755 47.1087C14.3079 47.1541 17.6868 50.0738 18.1234 50.4253L20.1473 52.1147C20.6972 52.5513 21.4796 53.413 22.5511 53.4357C23.5149 53.4527 24.3142 52.744 24.9945 52.1487L27.0128 50.4593C27.7045 49.9094 28.3451 49.3311 29.0367 48.7698L31.055 47.0974C30.936 47.3242 30.4711 47.8061 30.284 48.0442C30.0289 48.3787 29.7454 48.6791 29.4733 49.008C28.929 49.6486 28.3961 50.2892 27.8519 50.9355C27.5684 51.27 27.3133 51.5535 27.0412 51.8936C26.7634 52.2338 26.5026 52.5116 26.2248 52.8517C25.6692 53.5434 25.0342 54.1217 24.7848 54.955C24.3596 56.361 25.6012 57.4269 26.4232 58.4473L28.056 60.3636C28.192 60.528 28.3054 60.6754 28.4585 60.8454L30.3747 63.1245C30.4484 63.1982 30.4371 63.1869 30.5164 63.2379ZM36.1007 47.0464C36.078 46.6835 35.8115 46.3377 35.6245 46.1053C35.0632 45.4136 34.0881 45.0281 33.1697 45.3286C32.9712 45.3909 32.8238 45.4703 32.6311 45.5157C33.2037 44.4385 32.9712 43.452 32.1378 42.6243C31.1854 41.6776 30.1026 41.9837 29.1388 42.4656C28.3281 42.8738 27.1262 43.384 26.2475 43.6051C24.7791 43.9736 24.1725 44.0246 22.5908 44.0246C19.9886 44.0246 18.3615 43.6221 16.0484 42.4656C14.9032 41.893 14.0868 41.7456 13.0437 42.6187C12.301 43.2423 12.0459 44.2684 12.3974 45.1869C12.4484 45.3172 12.5221 45.408 12.5561 45.5554C12.1252 45.3286 11.564 45.1358 10.9063 45.2776C10.4074 45.3796 9.91989 45.6858 9.61942 46.0089C9.05249 46.6269 8.83706 47.4659 9.13186 48.288C9.56273 49.4785 10.0446 49.8867 10.6059 51.8596C11.1785 53.8835 11.1841 56.9733 10.6229 59.1333C10.4641 59.7399 10.0616 60.7717 9.80084 61.3387C9.43233 62.1324 9.00147 62.722 9.00713 63.6064C9.0128 64.865 10.3281 66.0442 11.7908 65.7834C12.1366 65.721 12.3123 65.5963 12.5958 65.4999C11.9835 66.3617 12.1876 67.7166 13.021 68.4196C14.5971 69.7519 15.6175 68.6917 17.409 67.9774C17.8739 67.7903 18.4012 67.5862 18.9057 67.4615C20.3967 67.0873 20.958 67.0306 22.5511 67.0306C24.5467 67.0306 25.8563 67.2064 27.6875 67.9434L29.1104 68.5784C29.8078 68.9242 30.6185 69.2813 31.4915 68.8732C32.7785 68.2665 33.3114 66.8265 32.6311 65.5396C33.181 65.67 34.0824 66.2369 35.2163 65.3469C35.8342 64.8593 36.3445 63.9522 36.163 63.2265C36.1063 63.0111 36.1744 63.1358 36.0553 63.0451C36.1404 62.824 35.8569 62.3195 35.7605 62.1324C34.9271 60.4656 34.5019 59.3487 34.2241 57.4212C34.1221 56.6955 34.1618 55.7487 34.1618 54.9437C34.1618 52.6987 34.7627 50.9242 35.7208 49.008C35.8682 48.7188 36.0043 48.4467 36.0893 48.1292C36.1404 47.9535 36.2651 47.1428 36.1007 47.0464Z" fill="#EB1B23"/>
<path fill-rule="evenodd" clip-rule="evenodd" d="M71.4147 54.904L72.9851 55.0627C76.8742 55.6013 79.1136 57.5629 79.1136 61.5541C79.1136 62.3875 78.9548 63.3059 78.7167 63.8955C77.3958 67.1497 74.1813 66.6224 71.4147 66.6281C70.8591 66.6281 70.3262 66.5941 69.9463 66.4013C69.4815 66.1689 69.5155 65.7947 69.5155 65.1371C69.5155 64.5758 69.5155 64.0089 69.5155 63.4476C69.5155 62.8694 69.5552 62.3988 69.5552 61.7922C69.5552 61.2309 69.5608 60.664 69.5552 60.1027C69.5552 59.7739 69.6005 59.6208 69.6005 59.2977C69.5892 57.3645 69.6799 55.3916 69.6799 53.4527L69.7196 50.9525C69.7196 50.6747 69.7593 50.4763 69.7593 50.1475C69.7593 48.9966 69.8046 47.9648 69.7989 46.8026C69.7989 46.4794 69.8443 46.3264 69.8386 45.9975C69.8386 45.7197 69.8386 45.4306 69.8386 45.1528C69.8443 44.5065 70.1278 44.3875 70.7684 44.3875C72.0837 44.3875 73.7221 44.2854 74.8786 44.7503C76.5 45.3966 77.2654 46.5588 77.5545 48.322C77.7586 49.5919 77.6849 50.7144 77.0953 51.8426C76.8232 52.3698 76.398 52.8517 75.9274 53.2146C74.958 53.9516 73.7845 54.3768 72.5656 54.5638C71.6074 54.7112 71.4204 54.5525 71.4147 54.904ZM63.3926 43.6618C63.3926 43.8149 63.5627 43.7922 63.7101 43.8205C64.7703 44.053 65.0027 45.0111 65.0027 46.0769C65.0027 47.9988 65.0027 49.9207 65.0027 51.8426C65.0027 55.4142 64.9404 59.0086 64.963 62.6029C64.963 62.892 64.9177 63.0054 64.9234 63.2832C64.929 64.7175 65.1955 66.6168 63.7271 67.127C63.506 67.2064 63.3756 67.2234 63.1489 67.2744V67.5579H77.3788C78.3199 67.5579 79.3347 67.3254 80.032 67.0646C80.9901 66.7131 81.3076 66.4353 82.0219 65.8684C82.4755 65.5112 83.0651 64.5475 83.2862 63.9919C83.9495 62.3591 83.9722 60.3635 83.1955 58.7591C82.2827 56.8542 80.7804 55.8508 78.9095 55.1024C78.6884 55.0174 77.923 54.7509 77.6623 54.7453V54.6602C77.7983 54.6319 77.9287 54.5468 78.0874 54.4845C78.8868 54.1557 80.0604 53.2883 80.6726 52.676C80.803 52.5512 80.8427 52.4832 80.9561 52.3585L81.4947 51.6442C81.7838 51.1566 81.9199 50.9015 82.0786 50.3345C82.5378 48.7245 82.1183 46.6098 81.0355 45.4419C80.2815 44.6256 79.3063 44.1097 78.2122 43.8375C77.4128 43.6448 76.5341 43.5031 75.5646 43.5031H63.3926V43.6618Z" fill="black"/>
<path fill-rule="evenodd" clip-rule="evenodd" d="M49.4405 66.6678C48.5334 66.6678 46.7873 66.7301 46.3167 66.0442C45.9482 65.4999 46.192 63.3342 46.0786 62.5746C45.9766 61.9169 46.0956 50.7768 46.0956 49.2631C46.0956 48.6281 46.124 45.7254 46.2034 45.1812C46.3224 44.3591 46.5208 44.4271 47.5073 44.4271C51.816 44.4271 54.7583 45.3909 56.6859 49.2347C57.3889 50.6464 57.695 52.0297 57.9558 53.566C58.1599 54.7793 58.1882 55.8451 58.1882 57.081C58.1882 59.5018 57.4059 62.1494 55.9942 64.0316C55.3593 64.882 54.5259 65.67 53.409 66.0385C52.2412 66.424 50.9712 66.6678 49.4405 66.6678ZM39.9274 43.7808C40.5964 43.8375 41.2427 44.3138 41.4411 45.0054C41.5319 45.3059 41.5829 46.4964 41.5772 46.9273C41.5772 47.1994 41.6226 47.2958 41.6226 47.5679C41.6169 48.4977 41.6623 49.3197 41.6623 50.2722C41.6623 50.7484 41.7019 51.0999 41.7019 51.5988L41.5999 64.2697C41.5489 64.6042 41.5659 65.069 41.5375 65.4149C41.5148 65.7437 41.4922 66.2142 41.3391 66.4297C41.186 66.6508 40.9309 66.8322 40.6758 66.9739C40.4887 67.076 40.0068 67.2517 39.7687 67.2744V67.5579H52.706C53.5678 67.5579 54.4578 67.3594 55.1212 67.1497C55.45 67.042 55.8355 66.9116 56.1473 66.7642C56.4931 66.5941 56.7936 66.4637 57.1111 66.2766C57.5703 65.9931 57.9445 65.772 58.3583 65.4319C59.7189 64.3094 60.7621 63.1075 61.5501 61.5257C62.1227 60.3749 62.5706 58.9859 62.7577 57.6933C62.8087 57.3361 62.8824 56.8372 62.9051 56.4347C62.9164 56.2079 62.8881 55.9415 62.9108 55.7147C62.9504 55.4029 62.8654 53.9799 62.8314 53.7305C62.5309 51.338 61.8676 49.5352 60.3879 47.67C59.3675 46.3774 57.8197 45.2549 56.3344 44.5859C55.6597 44.2854 55.0191 44.0473 54.2141 43.8489C53.4941 43.6675 52.57 43.5031 51.6969 43.5031H39.9274V43.7808Z" fill="black"/>
<path fill-rule="evenodd" clip-rule="evenodd" d="M84.5958 50.1078C84.5958 51.3664 85.055 52.5626 85.724 53.4527C86.3589 54.2974 87.2037 55.0231 88.1561 55.4936C89.3467 56.0889 90.18 56.3497 91.4443 56.7239C92.7936 57.1207 94.9593 57.5006 95.9627 58.2092C96.2065 58.3793 96.558 58.6968 96.7281 58.9349C97.4084 59.8873 97.4934 60.5506 97.4934 61.7525C97.4934 62.4782 97.2156 63.408 96.9719 63.8898C96.66 64.5078 96.3199 65.001 95.7983 65.4149C95.3674 65.755 95.4525 65.6813 95.0046 65.9535C94.0011 66.5601 92.5328 66.7075 91.2856 66.7075C89.2446 66.7075 87.884 66.1349 86.5347 65.1314C85.6049 64.4454 85.4065 63.9522 85.1174 62.722C84.9416 62.7163 84.9926 62.6936 84.8339 62.6823C84.8339 63.476 84.8623 64.3094 84.8396 65.0974L84.7942 66.2653C84.7942 66.6395 84.7148 67.3538 84.9189 67.3538C85.3838 67.3538 85.0493 66.7925 85.8827 66.7925L87.3114 67.1383C88.2298 67.3651 89.3297 67.5522 90.2991 67.6939C92.272 67.9774 94.9423 67.8754 96.7337 67.3198C100.419 66.1802 102.171 63.9239 102.171 60.1028C102.171 56.5028 99.8519 54.4221 96.6317 53.5094C95.1407 53.0898 93.3662 52.8404 91.8638 52.2338C90.815 51.8143 89.8059 51.253 89.4147 50.1248C88.7911 48.3333 89.4657 46.332 90.9624 45.2719C93.5363 43.4577 99.1432 44.121 100.294 47.5169C100.413 47.8741 100.311 47.8911 100.68 47.8911C100.68 47.1087 100.64 46.4171 100.64 45.6744C100.64 45.3172 100.657 44.9034 100.64 44.5462C100.629 44.3535 100.595 44.2741 100.6 44.0246C100.6 43.8943 100.646 43.5428 100.521 43.5428C100.283 43.5428 100.26 43.7128 100.062 43.8092C99.4947 44.104 98.7293 43.8432 98.2248 43.7412C97.6295 43.6221 96.3823 43.4067 95.7643 43.3783C95.0443 43.35 94.6474 43.2593 93.7857 43.2593C93.5136 43.2593 93.3492 43.2366 93.1394 43.2196L91.8128 43.299C91.1892 43.3273 90.0383 43.5598 89.4374 43.7468C87.9577 44.2174 86.9032 44.841 86.0131 45.9295C85.1287 47.0067 84.5958 48.6281 84.5958 50.1078Z" fill="black"/>
<path fill-rule="evenodd" clip-rule="evenodd" d="M30.5164 63.2379C30.437 63.1869 30.4484 63.1982 30.3747 63.1245L28.4585 60.8454C28.3054 60.6754 28.192 60.528 28.0559 60.3636L26.4232 58.4473C25.6011 57.4269 24.3596 56.361 24.7848 54.9551C25.0342 54.1217 25.6692 53.5434 26.2248 52.8517C26.5026 52.5116 26.7633 52.2338 27.0411 51.8936C27.3133 51.5535 27.5684 51.27 27.8518 50.9355C28.3961 50.2892 28.929 49.6486 29.4733 49.008C29.7454 48.6791 30.0289 48.3787 30.284 48.0442C30.4711 47.8061 30.9359 47.3242 31.055 47.0974L29.0367 48.7699C28.3451 49.3311 27.7044 49.9094 27.0128 50.4593L24.9945 52.1488C24.3142 52.744 23.5148 53.4527 22.5511 53.4357C21.4796 53.413 20.6972 52.5513 20.1473 52.1147L18.1233 50.4253C17.6868 50.0738 14.3079 47.1541 14.0755 47.1088C14.1662 47.1541 14.4156 47.4829 14.512 47.5906C14.6481 47.7437 14.7898 47.9308 14.9372 48.0952C15.2263 48.4127 15.4928 48.7699 15.7819 49.1043L18.3274 52.1147C18.6109 52.4606 18.9114 52.7724 19.1778 53.1239C19.62 53.7021 20.4704 54.3995 20.4818 55.5106C20.4931 56.5708 19.6257 57.3815 19.1948 57.9144C18.917 58.2602 18.6222 58.5664 18.3444 58.9179L16.6493 60.9248C15.9633 61.7412 14.9939 62.9431 14.3079 63.7084C14.2285 63.7991 14.1662 63.8955 14.1095 63.9466C14.2399 63.9069 19.6257 59.3601 20.1473 58.9462C21.2698 58.0448 22.2052 56.996 23.9627 58.0902C24.3596 58.334 29.8191 62.9374 30.5561 63.5497C30.7205 63.6914 30.8849 63.8502 31.055 63.9579C30.8793 63.6517 30.5561 63.4193 30.5164 63.2379Z" fill="#FEFEFE"/>
</g>
<rect x="1" y="1" width="110" height="110" rx="9" stroke="#CCCCCC" stroke-width="2"/>
<defs>
<clipPath id="clip0_6_7372">
<rect x="2" y="2" width="108" height="108" rx="8" fill="white"/>
</clipPath>
</defs>
</svg>
