<svg width="112" height="112" viewBox="0 0 112 112" fill="none" xmlns="http://www.w3.org/2000/svg">
<g clip-path="url(#clip0_505_620)">
<rect x="2" y="2" width="108" height="108" rx="8" fill="white"/>
<path d="M44.6666 73.7371H45.7357L45.8393 74.015H44.563L44.6666 73.7371ZM44.7891 73.8266L44.7608 73.8925L44.4029 74.7402H44.0732L45.1988 72.1971L46.3196 74.7402H45.99L45.6368 73.9114L45.6085 73.8407L45.1988 72.8658L44.7891 73.8077V73.8266Z" fill="#5A5A5C"/>
<path d="M48.811 74.7402H48.4954L48.7921 72.1924L49.734 73.9537L50.6759 72.1924L50.9726 74.7402H50.6759L50.4969 73.1013L49.7152 74.5142L48.9287 73.1013L48.811 74.7402Z" fill="#5A5A5C"/>
<path d="M52.1123 74.4624H53.3274V74.7402H52.1123V74.4624ZM52.1123 73.285H53.2614V73.5629H52.1123V73.285ZM52.1123 72.3431H53.3274V72.621H52.1123V72.3431ZM52.263 74.7449H51.971V72.3195H52.263V74.7449Z" fill="#5A5A5C"/>
<path d="M54.5094 74.7402H54.2127L54.5094 72.1924L55.4513 73.9537L56.3932 72.1924L56.6899 74.7402H56.3932L56.2143 73.1013L55.4325 74.5142L54.646 73.1013L54.5094 74.7402Z" fill="#5A5A5C"/>
<path d="M57.8814 73.2991H58.2723C58.3467 73.3001 58.4204 73.2857 58.4889 73.2567C58.5498 73.231 58.602 73.1886 58.6396 73.1343C58.6784 73.0775 58.6982 73.0099 58.6962 72.9412C58.6988 72.8899 58.689 72.8388 58.6677 72.792C58.6464 72.7453 58.6142 72.7044 58.5737 72.6728C58.4871 72.6076 58.3806 72.5743 58.2723 72.5786H57.9426V74.4624H58.3053C58.3994 74.4641 58.4927 74.4448 58.5784 74.4058C58.6555 74.374 58.72 74.3177 58.7621 74.2457C58.8078 74.1766 58.8345 74.0967 58.8395 74.014C58.8444 73.9314 58.8275 73.8488 58.7904 73.7748C58.7669 73.7179 58.7297 73.6677 58.682 73.6288C58.6343 73.5873 58.578 73.5567 58.5172 73.5393C58.4467 73.5197 58.3737 73.5102 58.3006 73.511H57.8767V73.3462H58.3006C58.41 73.3461 58.519 73.3588 58.6255 73.3839C58.7177 73.4087 58.8052 73.4485 58.8845 73.5016C58.958 73.5522 59.0179 73.6201 59.0588 73.6994C59.102 73.7889 59.123 73.8874 59.12 73.9867C59.1272 74.1268 59.0893 74.2654 59.0117 74.3823C58.9407 74.4888 58.8388 74.5709 58.7197 74.6178C58.5868 74.6722 58.4442 74.6995 58.3006 74.6978H57.6459V72.3148H58.2676C58.3964 72.3108 58.5246 72.3333 58.6444 72.3808C58.7454 72.4204 58.8323 72.4893 58.894 72.5786C58.9562 72.6805 58.9873 72.7983 58.9834 72.9176C58.9848 73.0219 58.9536 73.124 58.894 73.2096C58.83 73.2935 58.7434 73.3572 58.6444 73.3933C58.524 73.4385 58.3962 73.4608 58.2676 73.4592H57.8767V73.2944L57.8814 73.2991Z" fill="#5A5A5C"/>
<path d="M60.2409 74.4624H61.4559V74.7402H60.2409V74.4624ZM60.2409 73.285H61.39V73.5629H60.2409V73.285ZM60.2409 72.3431H61.4559V72.621H60.2409V72.3431ZM60.3727 74.7685H60.0807V72.3195H60.3727V74.7685Z" fill="#5A5A5C"/>
<path d="M63.2408 73.544L64.1026 74.7402H63.74L62.9111 73.544H63.2408ZM62.6239 72.3148H63.0948C63.2381 72.3116 63.3801 72.3422 63.5093 72.4043C63.6278 72.4609 63.7299 72.5468 63.806 72.6539C63.8795 72.7708 63.9171 72.9067 63.9143 73.0448C63.9179 73.18 63.8801 73.3131 63.806 73.4263C63.7478 73.5281 63.6653 73.6139 63.5658 73.6759C63.4366 73.738 63.2946 73.7686 63.1513 73.7654H62.6239V73.5063H63.0948C63.1889 73.5076 63.2821 73.4883 63.368 73.4498C63.4422 73.4135 63.5055 73.3583 63.5516 73.2897C63.5991 73.2137 63.6221 73.1249 63.6176 73.0354C63.6202 72.9461 63.5973 72.8579 63.5516 72.7811C63.5044 72.7135 63.4414 72.6585 63.368 72.621C63.2818 72.5839 63.1886 72.5662 63.0948 72.5691H62.6239V72.3101V72.3148ZM62.7557 74.7402H62.4826V72.3148H62.7746L62.7557 74.7402Z" fill="#5A5A5C"/>
<path d="M66.7494 74.015C66.8256 74.1561 66.9377 74.2747 67.0743 74.3588C67.2183 74.4392 67.3804 74.4814 67.5453 74.4814C67.7102 74.4814 67.8723 74.4392 68.0162 74.3588C68.1526 74.2758 68.2634 74.1569 68.3365 74.015C68.4164 73.8709 68.4586 73.7088 68.4589 73.544C68.4578 73.3793 68.4157 73.2175 68.3365 73.0731C68.2619 72.9334 68.1514 72.8164 68.0162 72.734C67.8742 72.649 67.7107 72.6065 67.5453 72.6115C67.3799 72.6073 67.2167 72.6497 67.0743 72.734C66.9391 72.8178 66.8273 72.9344 66.7494 73.0731C66.6718 73.2179 66.6313 73.3797 66.6316 73.544C66.6305 73.7084 66.6711 73.8704 66.7494 74.015ZM66.3915 73.0354C66.4502 72.8874 66.5383 72.7528 66.6505 72.6398C66.7607 72.5253 66.8939 72.4354 67.0414 72.3761C67.1903 72.3129 67.3506 72.2808 67.5123 72.2819C67.6741 72.2804 67.8345 72.3125 67.9833 72.3761C68.1299 72.4364 68.2628 72.526 68.3737 72.6393C68.4846 72.7527 68.5713 72.8874 68.6285 73.0354C68.6873 73.1854 68.7177 73.3452 68.7179 73.5063C68.7171 73.6675 68.6868 73.8271 68.6285 73.9773C68.5697 74.1242 68.4834 74.2585 68.3741 74.3729C68.2631 74.4865 68.1301 74.5762 67.9833 74.6366C67.8338 74.6981 67.6739 74.7301 67.5123 74.7308C67.3505 74.7322 67.1902 74.7002 67.0414 74.6366C66.8947 74.5754 66.7616 74.4856 66.65 74.3724C66.5385 74.2592 66.4505 74.1249 66.3915 73.9773C66.3331 73.8271 66.3028 73.6675 66.302 73.5063C66.3048 73.3454 66.335 73.1861 66.3915 73.0354Z" fill="#5A5A5C"/>
<path d="M69.8482 73.285H70.8937V73.5629H69.8482V73.285ZM69.8482 72.3431H70.9267V72.621H69.8482V72.3431ZM69.9801 74.7685H69.6881V72.3195H69.9848L69.9801 74.7685Z" fill="#5A5A5C"/>
<path d="M73.6864 73.2991H74.0773C74.1517 73.3001 74.2255 73.2857 74.294 73.2567C74.3548 73.231 74.4071 73.1886 74.4447 73.1343C74.4816 73.0767 74.5012 73.0096 74.5012 72.9412C74.5038 72.8899 74.494 72.8388 74.4727 72.792C74.4514 72.7453 74.4192 72.7044 74.3787 72.6728C74.2921 72.6076 74.1856 72.5743 74.0773 72.5786H73.7477V74.4624H74.1103C74.2044 74.4637 74.2976 74.4444 74.3834 74.4058C74.4597 74.3726 74.5238 74.3167 74.5671 74.2457C74.6088 74.1751 74.6331 74.0955 74.638 74.0137C74.6429 73.9318 74.6283 73.8499 74.5954 73.7748C74.5719 73.7179 74.5347 73.6677 74.4871 73.6288C74.4393 73.5873 74.383 73.5567 74.3222 73.5393C74.2517 73.5197 74.1788 73.5102 74.1056 73.511H73.6817V73.3462H74.1056C74.215 73.3462 74.3241 73.3588 74.4305 73.3839C74.5228 73.4087 74.6103 73.4485 74.6896 73.5016C74.7631 73.5522 74.8229 73.6202 74.8638 73.6994C74.905 73.7896 74.9259 73.8876 74.925 73.9867C74.93 74.1265 74.8922 74.2645 74.8167 74.3823C74.7447 74.4878 74.6431 74.5697 74.5247 74.6178C74.3917 74.6719 74.2492 74.6991 74.1056 74.6978H73.4557V72.3148H74.0773C74.2046 72.3104 74.3314 72.3328 74.4494 72.3808C74.5518 72.418 74.6394 72.4874 74.699 72.5786C74.7648 72.6791 74.7977 72.7976 74.7932 72.9177C74.7952 73.0228 74.7621 73.1256 74.699 73.2096C74.6371 73.2956 74.5498 73.3598 74.4494 73.3933C74.3308 73.439 74.2044 73.4614 74.0773 73.4592H73.6864V73.2944V73.2991Z" fill="#5A5A5C"/>
<path d="M78.005 72.3148V74.8627L76.1778 72.9365V74.7402H75.8858V72.1924L77.6942 74.1468V72.3148H78.005Z" fill="#5A5A5C"/>
<path d="M79.352 72.3148H79.06V74.7402H79.352V72.3148Z" fill="#5A5A5C"/>
<path d="M83.0724 73.511H84.1933C84.1918 73.6709 84.1664 73.8297 84.118 73.982C84.0682 74.1298 83.9915 74.2671 83.8919 74.387C83.7927 74.5062 83.6691 74.6025 83.5293 74.6696C83.381 74.7354 83.2205 74.7691 83.0583 74.7685C82.8971 74.7688 82.7373 74.7384 82.5874 74.679C82.4408 74.6202 82.3078 74.5321 82.1965 74.42C82.0816 74.3007 81.9916 74.1597 81.9318 74.0053C81.872 73.8508 81.8435 73.686 81.848 73.5205C81.8508 73.3595 81.881 73.2003 81.9375 73.0495C81.9985 72.9013 82.0863 72.7656 82.1965 72.6492C82.3069 72.5361 82.4401 72.4477 82.5874 72.3902C82.7373 72.3308 82.8971 72.3004 83.0583 72.3007C83.1969 72.2993 83.335 72.3184 83.468 72.3572C83.59 72.3961 83.7045 72.455 83.8071 72.5315C83.9084 72.6094 83.9946 72.7052 84.0614 72.814L83.8542 73.0071C83.7767 72.8795 83.6661 72.7753 83.534 72.7057C83.3895 72.6276 83.2272 72.5887 83.063 72.5927C82.901 72.5926 82.7419 72.6364 82.6026 72.7193C82.4633 72.8022 82.3491 72.9211 82.2718 73.0636C82.1914 73.2169 82.1494 73.3874 82.1494 73.5605C82.1494 73.7336 82.1914 73.9041 82.2718 74.0573C82.3511 74.1966 82.4646 74.3133 82.6015 74.3964C82.7447 74.4781 82.9076 74.5188 83.0724 74.5142C83.1814 74.515 83.2896 74.4975 83.3927 74.4624C83.4846 74.431 83.5682 74.3795 83.6376 74.3117C83.7082 74.2498 83.7658 74.1746 83.8071 74.0903C83.8538 74.0082 83.8872 73.9192 83.906 73.8266H83.1054V73.5393L83.0724 73.511Z" fill="#5A5A5C"/>
<path d="M85.8887 73.544L86.7505 74.7402H86.3879L85.5591 73.544H85.8887ZM85.2906 72.3148H85.7851C85.9298 72.3121 86.0733 72.3427 86.2043 72.4043C86.3214 72.4611 86.422 72.547 86.4962 72.6539C86.5698 72.7708 86.6074 72.9067 86.6046 73.0448C86.6104 73.1803 86.5724 73.3141 86.4962 73.4263C86.4261 73.538 86.3245 73.6265 86.2043 73.6806C86.0733 73.7422 85.9298 73.7728 85.7851 73.7701H85.2906V73.511H85.7851C85.8792 73.5128 85.9726 73.4935 86.0583 73.4545C86.1343 73.421 86.1984 73.3652 86.2419 73.2944C86.2911 73.2189 86.3157 73.1301 86.3126 73.0401C86.3137 72.9503 86.2892 72.8621 86.2419 72.7858C86.1971 72.7161 86.1334 72.6606 86.0583 72.6257C85.9722 72.5883 85.8789 72.5706 85.7851 72.5739H85.2906V72.3101V72.3148ZM85.4225 74.7402H85.1305V72.3148H85.4225V74.7402Z" fill="#5A5A5C"/>
<path d="M87.8526 74.015C87.9292 74.1574 88.0432 74.2762 88.1822 74.3587C88.3251 74.4418 88.488 74.4842 88.6532 74.4812C88.8182 74.4823 88.9806 74.4401 89.1241 74.3587C89.2619 74.2761 89.3744 74.1572 89.4491 74.015C89.5274 73.8704 89.5679 73.7084 89.5668 73.544C89.5671 73.3797 89.5267 73.2179 89.4491 73.0731C89.3711 72.9344 89.2593 72.8178 89.1241 72.734C88.9821 72.649 88.8186 72.6065 88.6532 72.6115C88.4876 72.6057 88.324 72.6483 88.1822 72.734C88.0443 72.8159 87.9306 72.9329 87.8526 73.0731C87.7769 73.2186 87.7366 73.38 87.7348 73.544C87.7359 73.7081 87.7762 73.8696 87.8526 74.015ZM87.5182 73.0354C87.5769 72.8885 87.6632 72.7542 87.7725 72.6398C87.8827 72.5253 88.0159 72.4354 88.1634 72.3761C88.3123 72.3129 88.4726 72.2808 88.6343 72.2819C88.796 72.2815 88.9562 72.3135 89.1053 72.3761C89.2491 72.4395 89.38 72.5289 89.4915 72.6398C89.6021 72.754 89.69 72.8883 89.7505 73.0354C89.8094 73.1854 89.8397 73.3451 89.84 73.5063C89.8372 73.6673 89.8069 73.8265 89.7505 73.9773C89.69 74.1244 89.6021 74.2587 89.4915 74.3729C89.3822 74.4863 89.2507 74.5761 89.1053 74.6366C88.9557 74.6975 88.7959 74.7295 88.6343 74.7308C88.4726 74.7318 88.3123 74.6998 88.1634 74.6366C88.0167 74.5763 87.8839 74.4867 87.7729 74.3733C87.662 74.26 87.5753 74.1252 87.5182 73.9773C87.4582 73.8274 87.4263 73.6678 87.424 73.5063C87.4258 73.3448 87.4577 73.1851 87.5182 73.0354Z" fill="#5A5A5C"/>
<path d="M91.0692 72.3148V73.9443C91.0636 74.0907 91.1104 74.2343 91.201 74.3493C91.2524 74.4011 91.3143 74.4414 91.3826 74.4674C91.4508 74.4933 91.5238 74.5045 91.5966 74.5C91.6688 74.5044 91.741 74.4932 91.8085 74.4672C91.8759 74.4412 91.937 74.401 91.9875 74.3493C92.0818 74.236 92.1304 74.0916 92.1241 73.9443V72.3148H92.4161V73.9443C92.4176 74.0583 92.3985 74.1716 92.3596 74.2787C92.3223 74.3765 92.2663 74.4661 92.1947 74.5424C92.1194 74.6165 92.0296 74.6742 91.931 74.712C91.8248 74.7547 91.7111 74.7756 91.5966 74.7732C91.4806 74.7756 91.3654 74.7547 91.2575 74.712C91.1597 74.6753 91.0713 74.6174 90.9985 74.5424C90.927 74.4661 90.871 74.3765 90.8337 74.2787C90.7948 74.1716 90.7756 74.0583 90.7772 73.9443V72.3148H91.0692Z" fill="#5A5A5C"/>
<path d="M93.617 72.3148H94.1115C94.2562 72.3121 94.3996 72.3427 94.5306 72.4043C94.6478 72.4611 94.7483 72.547 94.8226 72.6539C94.8961 72.7708 94.9338 72.9067 94.9309 73.0448C94.9331 73.1782 94.8964 73.3093 94.8253 73.4222C94.7542 73.5351 94.6518 73.6249 94.5306 73.6806C94.3996 73.7422 94.2562 73.7728 94.1115 73.7701H93.617V73.4922H94.1115C94.2477 73.4981 94.3819 73.4583 94.493 73.3792C94.5421 73.338 94.5809 73.2859 94.6063 73.227C94.6317 73.1681 94.6428 73.1041 94.6389 73.0401C94.6428 72.9768 94.6316 72.9134 94.6063 72.8553C94.5809 72.7972 94.542 72.7459 94.493 72.7057C94.3819 72.6266 94.2477 72.5868 94.1115 72.5927H93.617V72.3148ZM93.7488 74.7402H93.4569V72.3148H93.7488V74.7402Z" fill="#5A5A5C"/>
<path d="M44.417 69.7906V58.4878H46.8047V62.3166C47.3163 61.8982 47.962 61.679 48.6226 61.6997C49.0939 61.6711 49.5657 61.7452 50.0056 61.9168C50.4455 62.0883 50.8429 62.3533 51.1704 62.6934C51.796 63.4291 52.1177 64.3755 52.0699 65.3401V69.7717H49.6822V65.7687C49.7058 65.2896 49.5826 64.8147 49.329 64.4076C49.2045 64.2347 49.038 64.0963 48.8452 64.0057C48.6523 63.915 48.4396 63.8751 48.227 63.8896C47.9553 63.8929 47.6878 63.9562 47.4435 64.0751C47.1993 64.194 46.9843 64.3654 46.8141 64.5772V69.7576L44.417 69.7906Z" fill="#036A80"/>
<path d="M53.8736 61.8457H56.2614V69.7906H53.8736V61.8457ZM56.1813 60.7154H53.9678C53.762 60.4586 53.6581 60.135 53.6759 59.8065C53.6672 59.5201 53.7458 59.2378 53.9013 58.9971C54.0568 58.7565 54.2818 58.5688 54.5464 58.4589C54.8111 58.3491 55.1029 58.3223 55.3831 58.3821C55.6633 58.442 55.9187 58.5856 56.1154 58.7939C56.2447 58.9279 56.3456 59.0867 56.412 59.2607C56.4784 59.4347 56.5088 59.6204 56.5015 59.8065C56.5128 60.1381 56.4003 60.462 56.186 60.7154" fill="#036A80"/>
<path d="M62.7604 63.0042C62.2457 62.9963 61.7373 63.1178 61.2817 63.3574C60.8678 63.5742 60.521 63.8999 60.2785 64.2993V67.351C60.5206 67.7508 60.8675 68.0765 61.2817 68.2929C61.7361 68.5362 62.2451 68.6593 62.7604 68.6509C63.1135 68.6569 63.4638 68.5883 63.7884 68.4495C64.1131 68.3108 64.4047 68.1049 64.6442 67.8455C65.1299 67.2882 65.3974 66.5739 65.3974 65.8346C65.3974 65.0953 65.1299 64.381 64.6442 63.8236C64.4047 63.5643 64.1131 63.3584 63.7884 63.2196C63.4638 63.0808 63.1135 63.0122 62.7604 63.0183M58.9175 69.7858V58.4831H60.2691V62.618C60.605 62.3023 61.0003 62.0564 61.4321 61.8947C61.8638 61.733 62.3233 61.6587 62.784 61.6761C63.3206 61.6606 63.8546 61.7574 64.3517 61.9601C64.8488 62.1628 65.2981 62.4671 65.6709 62.8535C66.4098 63.6481 66.8204 64.693 66.8204 65.7781C66.8204 66.8631 66.4098 67.908 65.6709 68.7027C65.3017 69.0929 64.855 69.4018 64.3595 69.6094C63.864 69.817 63.3306 69.9188 62.7934 69.9083C62.3329 69.9241 61.8738 69.8491 61.4423 69.6875C61.0108 69.5259 60.6153 69.2808 60.2785 68.9664V69.7623L58.9175 69.7858Z" fill="#036A80"/>
<path d="M72.2171 68.6273C72.7282 68.6349 73.2332 68.5151 73.6864 68.2788C74.1019 68.0607 74.4514 67.7355 74.699 67.3369V64.2899C74.4529 63.8901 74.1029 63.5646 73.6864 63.348C73.234 63.1094 72.7285 62.9895 72.2171 62.9995C71.8605 62.9891 71.5057 63.0552 71.1768 63.1933C70.8478 63.3314 70.5522 63.5383 70.3097 63.8001C69.8269 64.3588 69.5611 65.0726 69.5611 65.811C69.5611 66.5495 69.8269 67.2633 70.3097 67.822C70.5515 68.0849 70.8469 68.2928 71.176 68.4317C71.505 68.5707 71.8601 68.6374 72.2171 68.6273ZM74.699 69.7858V68.9994C74.0137 69.6261 73.1126 69.9636 72.1841 69.9413C71.6474 69.9573 71.1133 69.8609 70.6161 69.6581C70.1189 69.4553 69.6696 69.1507 69.2972 68.7639C68.5614 67.9677 68.1528 66.9234 68.1528 65.8393C68.1528 64.7552 68.5614 63.7109 69.2972 62.9147C69.6703 62.5288 70.1197 62.2248 70.6167 62.0221C71.1138 61.8194 71.6476 61.7224 72.1841 61.7373C73.1129 61.713 74.0147 62.0508 74.699 62.6792V61.8409H76.06V69.7906L74.699 69.7858Z" fill="#036A80"/>
<path d="M78.4336 69.7858V61.8409H79.7947V62.7452C80.0946 62.3947 80.4721 62.119 80.8972 61.94C81.3223 61.761 81.7833 61.6835 82.2436 61.7138C82.6514 61.6988 83.0578 61.7694 83.4366 61.921C83.8154 62.0727 84.1582 62.3021 84.4429 62.5945C84.7348 62.9103 84.9605 63.2814 85.1069 63.6857C85.2533 64.0901 85.3174 64.5197 85.2953 64.9492V69.7858H83.9343V65.0198C83.9448 64.7539 83.9028 64.4885 83.8107 64.2388C83.7186 63.9891 83.5781 63.76 83.3974 63.5646C83.2082 63.3734 82.9809 63.2242 82.7301 63.1268C82.4793 63.0294 82.2108 62.986 81.9422 62.9995C81.4445 62.9672 80.9521 63.1172 80.557 63.4214C80.1618 63.7256 79.8908 64.1632 79.7947 64.6525V69.7858H78.4336Z" fill="#036A80"/>
<path d="M87.5841 69.7858V58.4831H88.9452V65.4343L92.4396 61.8409H94.2292L90.5605 65.5756L94.5919 69.7858H92.7646L88.9546 65.8158V69.7858H87.5841Z" fill="#036A80"/>
<path d="M25.9888 41.6797C25.9841 42.5605 25.7187 43.4203 25.2261 44.1505C24.7334 44.8807 24.0355 45.4487 23.2205 45.7828C22.4054 46.1169 21.5097 46.2021 20.6462 46.0277C19.7828 45.8534 18.9903 45.4273 18.3687 44.8031C17.7472 44.1789 17.3244 43.3846 17.1537 42.5204C16.9829 41.6563 17.0719 40.7609 17.4095 39.9472C17.747 39.1336 18.3179 38.4381 19.0502 37.9485C19.7825 37.4589 20.6433 37.1972 21.5242 37.1962C22.1119 37.1968 22.6937 37.3134 23.2364 37.5391C23.779 37.7649 24.2717 38.0955 24.6864 38.5119C25.1011 38.9284 25.4296 39.4225 25.6531 39.9661C25.8766 40.5096 25.9907 41.0919 25.9888 41.6797Z" fill="#CF5A27"/>
<path d="M25.9888 53.5428C25.9841 54.4237 25.7187 55.2835 25.2261 56.0137C24.7334 56.7439 24.0355 57.3119 23.2205 57.646C22.4054 57.98 21.5097 58.0653 20.6462 57.8909C19.7828 57.7166 18.9903 57.2904 18.3687 56.6663C17.7472 56.0421 17.3244 55.2478 17.1537 54.3836C16.9829 53.5195 17.0719 52.6241 17.4095 51.8104C17.747 50.9968 18.3179 50.3013 19.0502 49.8117C19.7825 49.3221 20.6433 49.0604 21.5242 49.0594C22.1119 49.06 22.6937 49.1766 23.2364 49.4023C23.779 49.6281 24.2717 49.9586 24.6864 50.3751C25.1011 50.7915 25.4296 51.2857 25.6531 51.8293C25.8766 52.3728 25.9907 52.9551 25.9888 53.5428Z" fill="#CF5A27"/>
<path d="M38.0969 53.5428C38.0922 54.4239 37.8267 55.2838 37.3338 56.0142C36.841 56.7445 36.1428 57.3125 35.3275 57.6464C34.5121 57.9804 33.6161 58.0653 32.7526 57.8906C31.889 57.7159 31.0965 57.2892 30.4752 56.6646C29.8538 56.0399 29.4314 55.2452 29.2612 54.3807C29.091 53.5163 29.1807 52.6207 29.5189 51.8072C29.8571 50.9936 30.4288 50.2985 31.1617 49.8094C31.8946 49.3204 32.7559 49.0594 33.637 49.0594C34.2243 49.0606 34.8056 49.1776 35.3477 49.4037C35.8898 49.6297 36.382 49.9604 36.7962 50.3768C37.2104 50.7931 37.5385 51.2871 37.7616 51.8303C37.9848 52.3736 38.0987 52.9555 38.0969 53.5428Z" fill="#CF5A27"/>
<path d="M38.0969 41.6514C38.0922 42.5325 37.8267 43.3924 37.3338 44.1227C36.841 44.853 36.1428 45.421 35.3275 45.755C34.5121 46.0889 33.6161 46.1739 32.7526 45.9991C31.889 45.8244 31.0965 45.3978 30.4752 44.7731C29.8538 44.1485 29.4314 43.3538 29.2612 42.4893C29.091 41.6248 29.1807 40.7293 29.5189 39.9157C29.8571 39.1022 30.4288 38.407 31.1617 37.918C31.8946 37.429 32.7559 37.168 33.637 37.168C34.2243 37.1692 34.8056 37.2862 35.3477 37.5122C35.8898 37.7383 36.382 38.0689 36.7962 38.4853C37.2104 38.9017 37.5385 39.3956 37.7616 39.9389C37.9848 40.4822 38.0987 41.0641 38.0969 41.6514Z" fill="#036A80"/>
<path d="M38.0969 65.4202C38.0969 66.3022 37.8353 67.1645 37.3453 67.8979C36.8552 68.6314 36.1587 69.203 35.3437 69.5405C34.5288 69.8781 33.632 69.9664 32.7669 69.7943C31.9018 69.6223 31.1071 69.1975 30.4834 68.5738C29.8597 67.95 29.4349 67.1554 29.2628 66.2902C29.0907 65.4251 29.179 64.5284 29.5166 63.7134C29.8542 62.8985 30.4258 62.202 31.1592 61.7119C31.8926 61.2218 32.7549 60.9603 33.637 60.9603C34.8191 60.9628 35.952 61.4334 36.7879 62.2693C37.6237 63.1051 38.0944 64.2381 38.0969 65.4202Z" fill="#CF5A27"/>
<path d="M25.9888 65.4202C25.9888 66.302 25.7273 67.1641 25.2375 67.8974C24.7476 68.6308 24.0514 69.2024 23.2367 69.5401C22.4221 69.8778 21.5256 69.9664 20.6606 69.7947C19.7956 69.623 19.0009 69.1987 18.377 68.5754C17.7531 67.9522 17.3279 67.1579 17.1553 66.2931C16.9827 65.4283 17.0703 64.5317 17.4072 63.7167C17.744 62.9017 18.3149 62.2048 19.0477 61.7142C19.7805 61.2236 20.6423 60.9612 21.5242 60.9603C22.1119 60.9609 22.6937 61.0774 23.2364 61.3032C23.779 61.5289 24.2717 61.8595 24.6864 62.276C25.1011 62.6924 25.4296 63.1866 25.6531 63.7301C25.8766 64.2737 25.9907 64.856 25.9888 65.4437" fill="#CF5A27"/>
</g>
<rect x="1" y="1" width="110" height="110" rx="9" stroke="#CCCCCC" stroke-width="2"/>
<defs>
<clipPath id="clip0_505_620">
<rect x="2" y="2" width="108" height="108" rx="8" fill="white"/>
</clipPath>
</defs>
</svg>
