<svg width="112" height="112" viewBox="0 0 112 112" fill="none" xmlns="http://www.w3.org/2000/svg">
<g clip-path="url(#clip0_6_7373)">
<rect x="2" y="2" width="108" height="108" rx="8" fill="white"/>
<path d="M48.3141 45H26.7883V66.5258H48.3141V45Z" fill="white"/>
<path d="M59.0769 55.7882L48.314 45V66.5511L59.0769 55.7882Z" fill="#DB0011"/>
<path d="M37.5512 55.7882L48.3141 45H26.7883L37.5512 55.7882Z" fill="#DB0011"/>
<path d="M16 55.7882L26.7882 66.5511V45L16 55.7882Z" fill="#DB0011"/>
<path d="M37.5512 55.7882L26.7883 66.5511H48.3141L37.5512 55.7882Z" fill="#DB0011"/>
<path d="M68.523 56.4213H64.6231V60.2706H62.6731V51.2551H64.6231V54.9525H68.523V51.2551H70.473V60.2706H68.523V56.4213Z" fill="black"/>
<path d="M75.1833 60.448C73.2333 60.448 71.6379 59.6629 71.6125 57.5104H73.5625C73.5879 58.4727 74.145 59.0552 75.2086 59.0552C75.9937 59.0552 76.9054 58.65 76.9054 57.7636C76.9054 57.0545 76.2976 56.8519 75.2846 56.548L74.6262 56.3708C73.208 55.9656 71.7898 55.4084 71.7898 53.7877C71.7898 51.787 73.6638 51.1033 75.3606 51.1033C77.108 51.1033 78.6274 51.7111 78.6528 53.7117H76.7028C76.6268 52.9013 76.1456 52.4201 75.2339 52.4201C74.4995 52.4201 73.7905 52.8 73.7905 53.6104C73.7905 54.2688 74.3982 54.4714 75.6645 54.8766L76.4242 55.1045C77.969 55.5857 78.9566 56.1175 78.9566 57.637C78.9313 59.6629 76.956 60.448 75.1833 60.448Z" fill="black"/>
<path d="M80.0457 51.2805H83.1859C83.7684 51.2552 84.3761 51.2805 84.9586 51.3818C86.0476 51.635 86.8833 52.3441 86.8833 53.5597C86.8833 54.7246 86.1489 55.3071 85.0852 55.5857C86.3008 55.8136 87.2125 56.4214 87.2125 57.7636C87.2125 59.8148 85.1865 60.2707 83.6164 60.2707H80.071L80.0457 51.2805ZM83.1859 55.0285C84.0469 55.0285 84.9333 54.8512 84.9333 53.8129C84.9333 52.8759 84.1229 52.6227 83.3125 52.6227H81.945V55.0285H83.1859ZM83.3632 58.9285C84.2748 58.9285 85.1612 58.7259 85.1612 57.6116C85.1612 56.4973 84.4015 56.2947 83.4645 56.2947H81.9197V58.9285H83.3632Z" fill="black"/>
<path d="M92.2774 60.4479C89.365 60.4479 88.0735 58.5992 88.0735 55.8389C88.0735 53.0785 89.517 51.0779 92.3786 51.0779C94.1767 51.0779 95.9241 51.8883 95.9747 53.9142H93.9488C93.8475 53.0025 93.2397 52.5467 92.3786 52.5467C90.6059 52.5467 90.0741 54.446 90.0741 55.8895C90.0741 57.333 90.6059 59.0044 92.3027 59.0044C93.189 59.0044 93.8475 58.5233 93.9741 57.6116H96C95.7975 59.6882 94.1514 60.4479 92.2774 60.4479Z" fill="black"/>
</g>
<rect x="1" y="1" width="110" height="110" rx="9" stroke="#CCCCCC" stroke-width="2"/>
<defs>
<clipPath id="clip0_6_7373">
<rect x="2" y="2" width="108" height="108" rx="8" fill="white"/>
</clipPath>
</defs>
</svg>
