<svg width="112" height="112" viewBox="0 0 112 112" fill="none" xmlns="http://www.w3.org/2000/svg">
<g clip-path="url(#clip0_528_50)">
<rect x="2" y="2" width="108" height="108" rx="8" fill="white"/>
<path d="M35.4656 17.9675C33.31 19.04 31.6872 20.9069 30.9274 23.1943L16.4688 66.6689C15.7026 68.9473 15.8813 71.4145 16.9628 73.5765C18.0427 75.723 19.9133 77.3389 22.1859 78.0977L69.6117 94.0222C71.9268 94.782 74.369 94.6177 76.5278 93.5298C78.6966 92.4382 80.3067 90.5921 81.0628 88.2988L95.5362 44.8306C97.1144 40.1057 94.5323 34.9682 89.8022 33.3906L42.3716 17.4619C40.0655 16.709 37.6228 16.8759 35.4656 17.9675Z" fill="#0055A2"/>
<path d="M58.647 59.7172C56.0682 62.6007 52.8497 64.9105 49.1393 66.3482L46.9821 67.1793V47.0367L49.1053 47.8566C52.8342 49.2805 56.0538 51.601 58.647 54.4638C60.4868 51.4914 61.6363 48.0544 61.8639 44.3212C62.4504 34.6513 56.3978 25.7998 48.0918 22.7195L41.247 20.4257C38.1518 19.3989 34.8701 21.1105 33.8412 24.1881L19.33 67.6892C18.3112 70.7791 20.0377 74.1401 23.136 75.1599L56.0538 86.1532C59.4207 82.5822 61.5917 77.8557 61.9038 72.5763C62.1973 67.8743 60.9728 63.4413 58.647 59.7172ZM39.6024 68.4214H36.3419V45.8398H39.6024V68.4214Z" fill="#0099DA"/>
<path d="M56.7435 57.0857C54.9101 54.9264 52.6923 53.1275 50.1203 51.8057V62.4162C52.6923 61.0858 54.9186 59.2572 56.7435 57.0857Z" fill="#F15C21"/>
<path d="M88.7525 36.2975L58.5396 26.2017C62.5998 30.6411 65.0867 36.5352 65.0867 43.0052C65.101 48.107 63.5085 53.0068 60.7298 57.0857C63.5144 61.1613 65.1292 66.0553 65.1292 71.1646C65.1404 77.2709 62.9513 82.8869 59.2936 87.2321L70.6442 91.0211C73.7442 92.0511 77.019 90.356 78.0378 87.2603L92.5575 43.7725C93.5827 40.6789 91.8492 37.3275 88.7525 36.2975ZM80.7448 68.3459L76.6713 68.3608L68.2791 57.0639L76.7984 45.7765L80.9203 45.7616L72.3707 57.0857L80.7448 68.3459Z" fill="#0055A2"/>
</g>
<rect x="1" y="1" width="110" height="110" rx="9" stroke="#CCCCCC" stroke-width="2"/>
<defs>
<clipPath id="clip0_528_50">
<rect x="2" y="2" width="108" height="108" rx="8" fill="white"/>
</clipPath>
</defs>
</svg>
