<svg width="112" height="112" viewBox="0 0 112 112" fill="none" xmlns="http://www.w3.org/2000/svg">
<g clip-path="url(#clip0_302_1294)">
<rect x="2" y="2" width="108" height="108" rx="8" fill="white"/>
<path fill-rule="evenodd" clip-rule="evenodd" d="M54.8956 30.9845H44.0902V40.9655H50.7106V44.2919H44.0902V54.2711H54.8956V50.9465H47.4148V47.6219H54.0622V37.6355H47.4148V34.3127H54.8956V30.9845ZM34.0408 42.6431C34.0408 30.6857 43.7248 21.0017 55.6858 21.0017C67.6468 21.0017 77.3326 30.6857 77.3326 42.6431C77.3326 54.6005 67.6414 64.2863 55.6858 64.2863C43.7302 64.2863 34.0408 54.5987 34.0408 42.6431ZM37.3924 42.6431C37.3924 32.5469 45.5824 24.3497 55.6858 24.3497C65.7892 24.3497 73.9756 32.5469 73.9756 42.6431C73.9756 52.7393 65.7838 60.9347 55.6858 60.9347C45.5878 60.9347 37.3924 52.7429 37.3924 42.6431ZM56.5696 54.2765H67.357V44.3027H60.724V40.9781H67.357V30.9881H56.5696V34.3145H64.0288V37.6481H57.3814V47.6255H64.0288V50.9501H56.5696V54.2765Z" fill="#B2292E"/>
<path d="M61.0858 90.1541C63.1486 90.1541 64.702 89.6555 65.7082 88.6745C66.7414 87.6629 66.9574 86.3633 66.9574 85.4489C66.9574 83.4473 66.1186 82.0559 64.459 81.3179L64.387 81.2873L64.4572 81.2513C65.206 80.8607 66.196 80.0669 66.196 77.6945C66.196 76.3931 65.701 75.2195 64.7992 74.3915C63.8128 73.4807 62.3746 73.0019 60.6394 73.0019L51.6538 72.9947V90.1505L61.0858 90.1559V90.1541ZM54.9172 76.1501H60.3604C61.318 76.1501 62.9236 76.1501 62.9236 78.0365C62.9236 78.7277 62.623 79.2209 62.029 79.4945C61.498 79.7429 60.8284 79.7717 60.373 79.7717H54.9172V76.1501ZM54.9172 82.9199V82.8839H60.8644C61.4062 82.8839 62.1874 82.9685 62.8156 83.3771C63.4006 83.7605 63.6976 84.3239 63.6976 85.0547C63.6976 85.6397 63.5356 86.0951 63.2242 86.4083C62.641 86.9915 61.633 86.9897 60.8986 86.9897H54.8992V86.9519L54.919 82.9199H54.9172Z" fill="#161519"/>
<path d="M31.4218 73.0001H28V90.1541H31.4218V73.0001Z" fill="#161519"/>
<path d="M34.201 81.4313C34.201 83.0909 34.4818 84.4607 35.0632 85.6163C35.5438 86.5811 36.2242 87.3911 37.207 88.1741C38.737 89.3927 40.8916 90.0101 43.6078 90.0101H48.2914V86.7701H43.8688C41.41 86.7701 39.6226 86.1599 38.5642 84.9593C37.8136 84.1025 37.4266 82.9559 37.4176 81.5393C37.405 80.0219 37.8334 78.8141 38.6866 77.9537C39.754 76.8755 41.4982 76.3301 43.8688 76.3301H48.2914V73.1189H43.7716C42.2488 73.1189 40.9726 73.2719 39.8674 73.5797C38.7658 73.8911 37.8568 74.3537 37.0972 74.9945C36.0136 75.9053 34.1992 77.9537 34.1992 81.4313" fill="#161519"/>
<path d="M69.0238 81.4313C69.0238 83.0873 69.3136 84.5489 69.8842 85.7693C70.381 86.8277 71.1028 87.7385 72.0298 88.4819C73.4644 89.6249 75.502 90.1559 78.4324 90.1559H83.3716V86.9177H78.6916C76.2364 86.9177 74.4508 86.2823 73.3852 85.0313C72.6364 84.1493 72.253 82.9739 72.2386 81.5393C72.2242 79.9787 72.6688 78.7331 73.5544 77.8421C74.629 76.7585 76.357 76.2077 78.6916 76.2077H83.3716V73.0019H78.5962C77.0752 73.0019 75.7972 73.1531 74.6938 73.4627C73.5886 73.7705 72.6796 74.2331 71.9218 74.8757C71.0506 75.6065 69.022 77.7161 69.022 81.4331" fill="#161519"/>
</g>
<rect x="1" y="1" width="110" height="110" rx="9" stroke="#CCCCCC" stroke-width="2"/>
<defs>
<clipPath id="clip0_302_1294">
<rect x="2" y="2" width="108" height="108" rx="8" fill="white"/>
</clipPath>
</defs>
</svg>
