<svg width="112" height="112" viewBox="0 0 112 112" fill="none" xmlns="http://www.w3.org/2000/svg">
<g clip-path="url(#clip0_528_54)">
<rect x="2" y="2" width="108" height="108" rx="8" fill="white"/>
<path fill-rule="evenodd" clip-rule="evenodd" d="M16.4967 51.6224C17.0978 51.6224 17.5167 51.7496 17.7768 52.0094C18.0679 52.3002 18.1982 52.7804 18.1982 53.5664V63.3836C18.1982 64.7421 17.9131 65.348 16.2307 65.348H16V65.9505H23.5611V65.351L23.3329 65.348C21.6664 65.3281 21.3854 64.7257 21.3854 63.3836V53.5659C21.3854 52.7824 21.5152 52.3042 21.8062 52.0139C22.0688 51.7501 22.4952 51.6219 23.1088 51.6219H23.5606V51.011H16V51.6219L16.4967 51.6224Z" fill="#091C5A"/>
<path fill-rule="evenodd" clip-rule="evenodd" d="M40.6792 60.9424C40.6792 60.9424 40.5479 60.3295 40.5289 59.9864V55.5024C40.4995 52.8877 40.8564 51.586 38.5679 51.596V51.0085H43.8324V51.596C41.4755 51.5865 41.772 52.8882 41.7586 55.5024V65.9724L41.0092 65.9645L29.6409 54.0801C29.6409 54.0801 29.7687 54.692 29.7877 55.0356V62.3782C29.7233 65.0568 30.0553 65.3805 31.7826 65.349V65.961H26.2944V65.349C28.0243 65.351 28.3643 65.1211 28.3623 62.1598V62.3368V55.1005L28.3483 53.9519C28.4127 52.4653 27.8631 51.603 26.1851 51.6169V51.029H31.238L40.6792 60.9424Z" fill="#091C5A"/>
<path fill-rule="evenodd" clip-rule="evenodd" d="M59.7364 50.7232H59.1562L59.1293 50.9217C59.0899 51.218 58.973 51.7142 58.635 51.7142C58.5387 51.7142 58.2985 51.6688 58.028 51.5451C56.8527 51.0364 55.33 50.7232 54.048 50.7232C51.5532 50.7232 49.2902 51.6159 47.6736 53.2378C46.1889 54.7279 45.3766 56.7562 45.3881 58.948C45.3986 61.0476 46.2248 62.7747 47.9162 64.2304C49.6202 65.6867 51.5293 66.3076 54.3036 66.3076C56.6146 66.3076 57.9376 65.9759 59.968 64.8872L60.3235 64.6947V60.7773C60.3235 59.1076 60.5282 58.8478 61.8881 58.7929L62.1093 58.7845V58.2025H55.4653V58.7845L55.6865 58.7929C57.2012 58.8518 57.4873 59.1231 57.4873 60.5035V64.1337C56.3635 64.8743 55.5467 65.1555 54.5168 65.1555C52.9926 65.1555 51.6361 64.5671 50.5947 63.5277C49.375 62.3084 48.7799 60.5325 48.7799 58.5256C48.7799 56.3637 49.3561 54.5195 50.5433 53.3345C51.4883 52.3905 52.7434 51.8663 54.1753 51.8663C55.4543 51.8663 56.9401 52.4144 57.9591 53.2218C58.7878 53.8996 59.2177 54.5554 59.5422 55.6391L59.5916 55.8032H60.1587L59.7364 50.7232Z" fill="#091C5A"/>
<path fill-rule="evenodd" clip-rule="evenodd" d="M88.8369 65.9101C89.2063 65.8542 89.5982 65.8627 89.8928 65.5924C91.1409 65.7839 92.406 65.4757 93.387 64.789C93.9037 64.3726 94.3695 63.8893 94.7465 63.3612C95.0779 62.8964 95.3396 62.463 95.5088 61.9423C95.6351 61.6212 95.735 61.287 95.8103 60.9439C96.1663 59.3261 95.9791 57.5167 95.4519 55.9782C95.3555 55.6924 95.2452 55.4156 95.1254 55.1518C94.4674 53.7933 93.5717 52.3276 92.1928 51.4683C91.416 50.9846 90.7011 50.236 90.2622 49.461C90.0236 49.2466 89.7949 48.9623 89.4864 48.9109C89.5708 49.0501 89.6636 49.1862 89.6866 49.3488L89.6686 49.3717C89.3411 49.3812 89.0845 49.2082 88.8603 48.9987L89.1075 48.7748C89.0141 48.7274 88.9073 48.7094 88.8039 48.6855C87.8609 48.5783 87.085 49.0132 86.2483 49.2226L86.2353 49.269C86.749 49.4974 86.8564 50.0629 87.1554 50.4455C87.2293 50.3567 87.3556 50.4215 87.459 50.4135C87.6082 50.422 87.7485 50.5297 87.8933 50.4918C87.8978 50.3672 87.8274 50.2679 87.8049 50.1562C87.8933 50.1143 88.0006 50.1512 88.0995 50.1562C88.3701 50.3143 88.8039 50.1283 88.9727 50.4918C88.6641 50.5113 88.3746 50.5761 88.085 50.6464C88.104 50.7631 88.2208 50.8559 88.2113 50.9731C87.9637 50.8704 87.7016 50.8055 87.426 50.7731L87.412 50.8145C87.7625 51.225 88.2438 51.4683 88.7345 51.6125C89.4405 51.7755 90.0615 51.4399 90.743 51.5566C92.4165 52.3221 93.8458 54.0731 94.4674 55.7348C94.4978 55.8146 94.5273 55.8954 94.5547 55.9777C95.0755 57.4953 95.1743 59.3605 94.6526 60.9434C94.375 61.6017 94.0695 62.2231 93.5797 62.7582C93.3945 62.9861 93.1898 63.1891 92.9671 63.3607C92.2657 63.9063 91.401 64.1471 90.5094 63.9028C90.4534 63.8644 90.3411 63.8549 90.3601 63.7576C90.391 63.6275 90.42 63.4958 90.4454 63.3607C90.5927 62.6021 90.6616 61.8042 90.6217 61.0062C90.6207 60.9723 90.6197 60.9379 90.6187 60.904C90.5693 59.7455 90.3381 58.7042 89.9123 57.7023C89.6387 57.1272 89.3142 56.5004 88.9053 55.9378C88.417 55.267 87.8114 54.6875 87.0336 54.3983C86.5568 54.2721 85.9682 54.2482 85.6088 54.6446C85.3517 54.8696 85.2448 55.1723 85.2818 55.5044C84.8799 55.7588 84.4281 55.8959 83.9363 55.9378C83.816 55.9483 83.6927 55.9927 83.5673 55.9912C83.4485 55.9967 83.3327 55.9917 83.2189 55.9777C82.6273 55.9049 82.0287 55.5857 81.5739 55.2216C81.5644 54.9788 81.5504 54.7504 81.5409 54.4935C81.2803 54.3584 81.0641 54.1015 81.0462 53.7978L81.0691 53.7749C81.2194 53.8213 81.3492 53.8956 81.485 53.9749C81.4241 53.6108 81.3537 53.2517 81.1725 52.934C81.0037 52.8637 80.8355 52.8079 80.6772 52.7236C80.495 52.6034 80.3777 52.383 80.3507 52.183C80.514 52.3416 80.7985 52.2857 80.9248 52.4533C80.7047 51.8045 80.7012 51.0624 80.3407 50.4694C80.1585 50.031 79.6817 49.83 79.3547 49.5084C79.2284 49.3538 79.1775 49.1393 78.9488 49.1154C78.7616 49.069 78.7476 48.8596 78.7152 48.7234C78.8315 48.7374 78.9294 48.8167 79.0272 48.8351C78.7566 48.1175 78.518 47.3185 77.7851 46.8612L77.6593 46.941C77.3742 46.9829 77.0702 47.0018 76.7856 47.0113C76.9119 46.8248 77.1356 46.745 77.3133 46.6602C77.1076 46.5066 76.9384 46.4697 76.6813 46.4278C76.532 46.5764 76.2619 46.6517 76.0702 46.6936L76.0462 46.6747C76.0412 46.5066 76.0033 46.3016 76.2564 46.2593C76.0133 46.1426 75.6104 46.1899 75.3628 46.2593C75.2934 46.4413 75.0927 46.6049 75.1071 46.8203C74.9629 46.9694 74.86 47.1704 74.7097 47.2776C74.7052 46.9181 74.8585 46.5869 74.9239 46.2837C74.7137 46.363 74.5001 46.4752 74.2939 46.5729C73.9629 46.3814 73.6134 46.1904 73.2584 46.0453C73.2265 46.0313 73.1556 46.0179 73.1696 46.0782C73.4736 46.2972 73.3558 46.7086 73.3882 47.0203L73.1965 46.8622C73.1032 46.6243 72.8336 46.4518 72.7871 46.1904C72.4691 46.2513 72.2659 46.3351 71.9714 46.4612L71.9309 46.4847C72.1501 46.4847 72.3368 46.6567 72.4442 46.8303C72.1127 46.8482 71.8181 46.7181 71.4911 46.6847C71.4587 46.6527 71.4302 46.6143 71.3788 46.6193C71.2155 46.6802 71.0747 46.7964 70.931 46.9086C70.6084 47.2263 70.2809 47.5764 70.1272 47.9968C70.235 48.0147 70.3703 48.0102 70.4497 48.0756C70.2724 48.1828 70.1182 48.3653 69.9454 48.4676C69.8845 48.7104 69.894 48.9867 69.8795 49.252C69.7437 49.458 69.562 49.639 69.4737 49.869C69.1836 50.8055 69.1092 51.8473 69.1511 52.9111C69.0573 53.0004 68.9355 53.0567 68.8476 53.1266L68.8571 54.0781H68.8801C68.922 53.8781 69.1606 53.7664 69.3054 53.6308H69.3523C69.3289 53.8452 69.3009 54.0601 69.2964 54.2796L69.0258 54.5035C68.7542 54.7419 68.9834 55.101 68.9604 55.4002C68.9794 55.4785 68.9924 55.5957 69.0488 55.6146C69.0818 55.4979 69.1841 55.4142 69.25 55.3109C69.3663 55.2835 69.4692 55.1892 69.5765 55.1763C69.5156 55.4097 69.4372 55.6381 69.3429 55.862C69.2979 55.8914 69.2455 55.9308 69.2006 55.9787C69.1526 56.0301 69.1142 56.0874 69.1042 56.1513C69.3154 57.2569 69.6459 58.3491 70.0238 59.3899C69.7677 59.8243 69.6219 60.3355 69.4083 60.7838C69.3773 60.8461 69.3498 60.9105 69.3244 60.9753C69.1097 61.5179 69.0443 62.1249 68.7772 62.646C68.6689 62.5722 68.5521 62.5148 68.4317 62.464C67.9265 62.2959 67.3424 62.4031 66.9739 62.7911C66.6464 62.7303 66.3099 62.7861 66.0528 62.9592C65.8686 63.0963 65.7263 63.2634 65.6444 63.4579C65.5885 63.5936 65.5631 63.7412 65.5716 63.9023C65.3619 64.0464 65.2495 64.2698 65.1796 64.4947C65.0818 64.9984 65.259 65.5231 65.5486 65.9111L88.8369 65.9101Z" fill="white"/>
<path fill-rule="evenodd" clip-rule="evenodd" d="M85.7441 55.4156C85.7391 55.5368 85.6507 55.673 85.7301 55.7752C85.8424 55.649 86.0296 55.6535 86.1789 55.5982C86.5943 55.5608 86.9917 55.6909 87.3791 55.7852C87.2817 55.6306 87.2158 55.459 87.1085 55.3184C86.8928 55.2625 86.5663 55.4117 86.5294 55.0945C86.3981 54.9823 86.1919 55.0626 86.0576 55.0705C85.9263 55.1648 85.8189 55.2805 85.7441 55.4156Z" fill="white"/>
<path fill-rule="evenodd" clip-rule="evenodd" d="M71.4646 51.386C71.4626 51.384 71.4596 51.382 71.4577 51.3816C71.4577 51.3816 71.4577 51.384 71.4587 51.386H71.4646Z" fill="white"/>
<path fill-rule="evenodd" clip-rule="evenodd" d="M73.1631 55.5343L73.4437 55.264C73.4676 55.264 73.4856 55.269 73.4996 55.288L73.4761 55.8056C73.6114 55.9318 73.7797 55.9737 73.9569 55.9832C73.9714 55.843 74.0787 55.7453 74.1396 55.6236C74.191 55.5259 74.1586 55.3807 74.2609 55.3104L74.2929 55.3433C74.3263 55.4969 74.3173 55.67 74.3967 55.8051C74.4062 55.8795 74.4197 55.9732 74.4287 56.0385C74.6344 56.0485 74.8206 55.9917 74.9798 55.9174C74.9703 55.7403 75.0318 55.5952 75.0587 55.4316C75.1017 55.3753 75.0073 55.273 75.1246 55.278C75.19 55.4176 75.3068 55.5623 75.3722 55.7114C75.6428 55.4361 75.7552 55.077 75.8206 54.704C75.7417 54.5958 75.6199 54.5958 75.526 54.5264C74.7322 54.2696 73.7128 54.2177 72.9464 54.6147C72.897 54.9329 72.9624 55.283 73.1631 55.5343Z" fill="white"/>
<path fill-rule="evenodd" clip-rule="evenodd" d="M65.7383 64.2928C65.7099 64.6528 65.7383 64.99 65.7608 65.3445C65.8361 65.4612 65.9719 65.5969 66.1061 65.6064L66.1306 65.368C66.186 65.0358 66.0088 64.6838 66.196 64.404C66.3267 64.4459 66.4565 64.5112 66.5698 64.572C66.6247 64.2638 66.5463 63.9048 66.2519 63.7182L65.7383 64.2928Z" fill="white"/>
<path fill-rule="evenodd" clip-rule="evenodd" d="M66.8915 63.7896C66.7093 64.3352 66.5736 65.0094 66.7942 65.5834C66.9195 65.5001 67.0507 65.4204 67.162 65.3037C67.1396 64.8643 67.0787 64.3955 67.3397 64.0314C67.5683 64.1018 67.7235 64.3212 67.8114 64.5361C67.9661 64.3391 68.0175 64.0688 67.9566 63.807C67.9661 63.6025 67.7315 63.6494 67.6197 63.5646C67.6576 63.3921 67.6521 63.1921 67.8348 63.0944L67.2743 63.1502C67.1301 63.3547 66.9714 63.5562 66.8915 63.7896Z" fill="white"/>
<path fill-rule="evenodd" clip-rule="evenodd" d="M68.0458 65.4009C68.0698 65.4438 68.0458 65.5176 68.0927 65.5271C68.1631 65.1356 68.4807 64.8812 68.6539 64.5361C68.7373 64.4194 68.7323 64.2559 68.8681 64.1671C69.0508 64.1671 69.1816 64.2982 69.3593 64.3122C69.4152 64.3541 69.3304 64.391 69.3264 64.4374C69.2894 64.7556 69.1676 65.0189 69.1911 65.345H69.223C69.4707 65.0847 69.6389 64.8014 69.8211 64.5027L69.8531 64.2374C69.895 63.9197 69.5495 63.7148 69.3254 63.5841L69.5261 63.3272L69.246 63.229C68.9185 63.2619 68.6239 63.3971 68.3953 63.6544C68.1112 64.1766 68.0648 64.7665 68.0458 65.4009Z" fill="white"/>
<path fill-rule="evenodd" clip-rule="evenodd" d="M69.3029 62.631C69.4103 62.664 69.5081 62.5752 69.6149 62.6221C70.0453 62.7802 70.4941 62.9437 70.8161 63.3033L71.1996 64.2783L71.3913 63.6768L71.265 63.3497C71.1576 63.1163 70.8631 63.1352 70.6619 63.1258C70.5785 63.0325 70.6669 62.9248 70.6953 62.8365C70.7927 62.5054 70.3863 62.5233 70.223 62.3892C70.233 62.1882 69.9894 62.258 69.8536 62.2391L69.8072 62.1832C69.7797 62.1413 69.7098 62.1413 69.6719 62.1737C69.6619 62.1603 69.6439 62.1508 69.6539 62.1268L69.55 62.1508C69.4058 62.277 69.3074 62.44 69.3029 62.631Z" fill="white"/>
<path fill-rule="evenodd" clip-rule="evenodd" d="M69.5735 61.5583C69.5875 61.6187 69.6249 61.6795 69.6714 61.7164C69.882 61.6605 70.0822 61.5164 70.3254 61.6042C70.6389 61.8795 70.9654 62.1687 71.3448 62.3188L71.4796 62.2949C71.564 62.3238 71.6569 62.3278 71.7133 62.4211C71.7652 62.5473 71.6349 62.6221 71.592 62.7243C71.8026 62.8784 71.7183 63.1542 71.8496 63.3402L72.1861 62.8924C72.1072 62.6959 72.1906 62.3602 71.882 62.3418C71.7797 62.2899 71.7093 62.1872 71.7138 62.0705C71.5136 61.8885 71.2659 61.8097 71.0643 61.6231C70.901 61.492 70.8032 61.291 70.5925 61.2446C70.4482 61.1658 70.2899 61.1234 70.1217 61.0865C69.8072 61.0401 69.7797 61.4127 69.5735 61.5583Z" fill="white"/>
<path fill-rule="evenodd" clip-rule="evenodd" d="M70.0218 60.6387L70.0782 60.7275C70.3114 60.713 70.5226 60.6108 70.7517 60.6152C70.9055 60.709 71.1067 60.7045 71.2649 60.7833C71.3913 60.9559 71.5271 61.1519 71.7128 61.2691C72.0922 61.3244 72.3019 61.7309 72.4327 62.0291V61.8845C72.4886 61.6845 72.4277 61.4506 72.3528 61.2691C72.2594 61.1753 72.1241 61.114 72.0263 61.0302C72.0073 60.9698 72.0213 60.9414 72.0403 60.8855C71.895 60.7314 71.6803 60.6472 71.5031 60.5265C71.2555 60.1669 70.7787 60.2651 70.4003 60.1669L70.0218 60.6387Z" fill="white"/>
<path fill-rule="evenodd" clip-rule="evenodd" d="M70.0143 57.2145C70.0558 57.3596 70.1067 57.5417 70.1341 57.6953C70.2649 57.406 70.5229 57.2764 70.7515 57.038C70.6203 56.9487 70.4576 56.9068 70.3128 56.8789V56.8704C70.21 56.9726 70.0513 57.0754 70.0143 57.2145Z" fill="white"/>
<path fill-rule="evenodd" clip-rule="evenodd" d="M70.8631 58.7501L71.0732 58.5356C71.2838 58.3212 71.4565 58.0733 71.4889 57.798C71.3397 57.7092 71.1436 57.7696 70.9988 57.8209C70.9464 58.1252 70.868 58.4239 70.8631 58.7501Z" fill="white"/>
<path fill-rule="evenodd" clip-rule="evenodd" d="M71.0168 59.4084C71.3397 59.4273 71.6522 59.4916 71.9142 59.3111L72.1752 58.4703C72.0919 58.4653 72.007 58.4284 71.9282 58.4563C71.756 58.8393 71.4091 59.2168 71.0168 59.4084Z" fill="white"/>
<path fill-rule="evenodd" clip-rule="evenodd" d="M71.1117 56.4305C71.3218 56.7392 71.6721 57.0843 72.032 57.1816C71.9901 56.7901 71.6542 56.5188 71.481 56.1832L71.471 56.071C71.3358 55.9398 71.172 55.852 71.0318 55.7812C71.0093 56.0061 71.0702 56.2211 71.1117 56.4305Z" fill="white"/>
<path fill-rule="evenodd" clip-rule="evenodd" d="M72.251 59.4458C72.4985 59.4886 72.7645 59.4458 72.9931 59.3749C73.3255 59.2966 73.5077 58.9321 73.6195 58.6478H73.2037L72.7551 59.0862C72.5784 59.1799 72.4092 59.3206 72.251 59.4458Z" fill="white"/>
<path fill-rule="evenodd" clip-rule="evenodd" d="M72.2005 56.0061C72.2709 56.3702 72.4241 56.7013 72.6353 57.0145L72.6912 56.3188L72.2005 56.0061Z" fill="white"/>
<path fill-rule="evenodd" clip-rule="evenodd" d="M73.7321 57.8214C73.76 57.588 73.6627 57.3177 73.6357 57.0799C73.495 56.9861 73.2983 56.9956 73.1541 56.9028C73.1631 57.2714 73.4521 57.5836 73.7321 57.8214Z" fill="white"/>
<path fill-rule="evenodd" clip-rule="evenodd" d="M73.3069 60.1933C73.6013 60.0996 73.8858 59.9968 74.1563 59.8472C74.329 59.6009 74.591 59.3754 74.628 59.0867C74.4134 59.147 74.2262 59.0777 74.0261 59.176C73.9048 59.3949 73.8294 59.6428 73.5963 59.8008C73.5594 59.9589 73.3862 60.0672 73.3069 60.1933Z" fill="white"/>
<path fill-rule="evenodd" clip-rule="evenodd" d="M73.7642 60.7674L74.1145 61.2242C74.3017 61.285 74.5353 61.2661 74.6985 61.1588L74.5722 60.7434C74.3252 60.8377 74.0312 60.8087 73.7642 60.7674Z" fill="white"/>
<path fill-rule="evenodd" clip-rule="evenodd" d="M74.3488 57.4619L74.484 58.0783C74.8105 57.812 74.8768 57.4245 74.8688 57.014C74.6817 57.2285 74.5724 57.3596 74.3488 57.4619Z" fill="white"/>
<path fill-rule="evenodd" clip-rule="evenodd" d="M75.2689 58.5501C75.2739 58.6383 75.2973 58.7226 75.3487 58.7929C75.7126 58.9231 75.75 59.3665 76.0869 59.5345C76.306 59.6323 76.5576 59.5106 76.7497 59.4223C76.605 59.2592 76.4408 59.146 76.3015 58.974C76.2032 58.9321 76.1049 58.8712 76.1099 58.7501L75.2689 58.5501Z" fill="white"/>
<path fill-rule="evenodd" clip-rule="evenodd" d="M75.5584 60.7529C75.7176 60.9349 75.9323 61.0282 76.1564 61.079C76.1194 61.0277 76.1803 61.079 76.1893 61.0466L75.9083 60.4317C75.7686 60.4352 75.6238 60.4636 75.493 60.4547C75.502 60.5564 75.526 60.6586 75.5584 60.7529Z" fill="white"/>
<path fill-rule="evenodd" clip-rule="evenodd" d="M76.054 57.8773C75.9228 57.5741 75.8679 57.2055 75.8309 56.8699C75.6907 57.0375 75.5459 57.1452 75.4152 57.3172C75.3543 57.6629 75.8479 57.7476 76.054 57.8773Z" fill="white"/>
<path fill-rule="evenodd" clip-rule="evenodd" d="M76.6238 57.5606C76.792 57.7796 77.1608 57.7047 77.3675 57.6394C77.2686 57.4713 76.9522 57.3736 76.8963 57.1916C76.8634 56.8699 76.799 56.5572 76.6952 56.263C76.5315 56.6594 76.3343 57.1312 76.6238 57.5606Z" fill="white"/>
<path fill-rule="evenodd" clip-rule="evenodd" d="M76.9179 58.5501C77.3857 58.8912 77.843 59.2872 78.497 59.1425C78.5439 59.1096 78.6233 59.1141 78.6328 59.0538C78.4406 58.9321 78.2359 58.8388 78.0392 58.7276L77.8155 58.4005H77.7127C77.4601 58.4847 77.1885 58.5167 76.9179 58.5501Z" fill="white"/>
<path fill-rule="evenodd" clip-rule="evenodd" d="M76.9279 62.3353H76.9598C77.2409 62.1114 77.5724 62.0366 77.9039 61.9428C77.9933 61.9752 77.9369 62.0735 78.0162 62.1114C78.2174 62.0271 78.4606 62.0461 78.6658 61.9757C78.9139 61.9857 79.1151 61.9902 79.3153 62.0974C79.4735 62.3069 79.7731 62.2844 79.9793 62.4236L79.9463 62.0974C79.512 61.5882 78.834 61.5508 78.209 61.5608L78.1945 61.495C78.0452 61.495 77.8774 61.5279 77.7372 61.5937C77.5365 61.6022 77.3447 61.7009 77.1525 61.7613C77.0632 61.9388 76.9933 62.1528 76.9279 62.3353Z" fill="white"/>
<path fill-rule="evenodd" clip-rule="evenodd" d="M77.3028 56.5991C77.4849 56.8375 77.7554 57.019 78.0639 56.9587C77.9057 56.8046 77.723 56.6405 77.7135 56.4216C77.7604 56.0061 77.3028 55.9737 77.0787 55.7583C77.1525 56.039 77.144 56.3512 77.3028 56.5991Z" fill="white"/>
<path fill-rule="evenodd" clip-rule="evenodd" d="M77.2554 63.1617H77.3098C77.5579 63.0066 77.9179 63.1238 78.161 62.9602C78.2963 62.8899 78.3053 63.0769 78.3997 63.1283C78.6283 63.2684 78.6563 63.6878 78.9788 63.5906C79.3662 63.7911 79.2683 64.2633 79.2823 64.6084L79.6423 64.3845C79.6093 64.2025 79.7117 63.9821 79.5949 63.824C79.5065 63.624 79.2639 63.605 79.147 63.4415C79.2873 63.2031 78.9698 63.0919 78.9039 62.9188L78.9229 62.8949L79.4171 62.9602C79.5864 63.0629 79.6463 63.2499 79.6982 63.4225C80.0861 63.4878 80.1795 63.9262 80.3153 64.2065C80.3946 64.015 80.4271 63.8095 80.507 63.6235C80.5115 63.4689 80.3058 63.4689 80.2034 63.3996C80.1745 63.1617 80.0676 62.9368 79.858 62.7926C79.4276 62.6854 79.0497 62.447 78.5779 62.447L78.185 62.5687C77.9698 62.6201 77.7411 62.5547 77.5779 62.7034C77.3338 62.7218 77.3153 62.9886 77.2554 63.1617Z" fill="white"/>
<path fill-rule="evenodd" clip-rule="evenodd" d="M77.502 61.2381L77.5914 61.28C77.7821 61.1908 77.9743 61.0885 78.1755 61.0137C78.488 60.9249 78.7312 61.28 78.9933 61.0561C79.0911 60.9858 79.1745 61.0885 79.2499 61.1449C79.3622 61.3503 79.6238 61.3364 79.82 61.3922C79.7222 61.1264 79.6008 60.7619 79.2594 60.719C79.1241 60.6586 78.9648 60.6646 78.834 60.5843C78.4745 60.1878 78.2409 60.9105 77.848 60.7334C77.7082 60.8885 77.5355 61.0327 77.502 61.2381Z" fill="white"/>
<path fill-rule="evenodd" clip-rule="evenodd" d="M77.5914 63.5113C77.7406 63.6365 77.8943 63.8519 78.1274 63.8235C78.4184 63.9591 78.2966 64.3411 78.4553 64.5421L78.623 64.3925L78.609 64.3835L78.633 64.3601L78.643 64.3741C78.6894 64.2334 78.6235 63.9861 78.5442 63.823C78.4369 63.7492 78.3106 63.828 78.2083 63.7576C78.1938 63.6085 78.1005 63.5337 77.9932 63.4405C77.9183 63.3846 77.82 63.4594 77.7361 63.4544L77.5914 63.5113Z" fill="white"/>
<path fill-rule="evenodd" clip-rule="evenodd" d="M78.1755 57.8214C78.3297 58.0788 78.6282 58.2374 78.8667 58.4144C79.0624 58.5037 79.3194 58.5261 79.5301 58.4797C79.3294 58.3167 79.1467 58.1302 78.979 57.9332C78.9137 57.8399 78.8992 57.7237 78.8109 57.6394C78.5902 57.6818 78.3437 57.6773 78.1755 57.8214Z" fill="white"/>
<path fill-rule="evenodd" clip-rule="evenodd" d="M78.4331 56.1513C78.6487 56.4166 78.9801 56.3098 79.2836 56.3188V56.2869L78.8164 55.8939C78.6852 55.9363 78.5459 56.0525 78.4331 56.1513Z" fill="white"/>
<path fill-rule="evenodd" clip-rule="evenodd" d="M69.8321 51.7496L70.1026 52.5899C70.0976 52.1137 70.3172 51.7172 70.2708 51.2319L70.472 50.9327L70.0462 51.0634C69.9344 51.2778 69.8416 51.4933 69.8321 51.7496Z" fill="white"/>
<path fill-rule="evenodd" clip-rule="evenodd" d="M70.0143 50.2934L70.3827 50.0784V49.5323C70.2285 49.6261 70.1436 49.7847 70.0233 49.9108L70.0143 50.2934Z" fill="white"/>
<path fill-rule="evenodd" clip-rule="evenodd" d="M77.5924 51.1432C77.503 51.2599 77.3682 51.2878 77.2564 51.3112C77.4521 50.9517 77.546 50.4514 77.3912 50.0455C77.4945 50.0086 77.6069 49.9906 77.7047 49.9338L77.6947 49.9248L77.9523 49.6999C78.2933 49.4665 78.1625 49.0236 78.2888 48.6925C78.1206 48.4307 78.0697 48.1135 77.826 47.8935L77.8405 47.8851C77.6483 47.6422 77.3028 47.6696 77.0402 47.5484C76.6947 47.4317 76.4286 47.6696 76.181 47.8292C76.0737 47.8472 76.1391 47.9873 76.0223 47.9828C75.9569 48.1559 75.877 48.3424 75.8305 48.5334C75.3677 48.4676 74.8685 48.5199 74.4991 48.7808C74.3024 48.6366 74.0642 48.6082 73.8351 48.5429C73.6673 48.5105 73.4756 48.5713 73.3548 48.477C73.1776 48.2771 73.1391 47.9125 72.8351 47.8616C72.7282 47.8242 72.7053 47.708 72.7053 47.6048C72.5041 47.5724 72.3258 47.4796 72.1296 47.4367C71.8316 47.3011 71.5934 47.5165 71.3688 47.6606C71.2709 47.703 71.1586 47.7165 71.0657 47.7734C70.8975 48.0342 70.7382 48.3005 70.6309 48.5893C70.6639 48.8271 70.7662 49.0376 70.8885 49.2381C70.9958 49.5418 71.3318 49.7797 71.6169 49.9014C71.4816 50.3632 71.4816 50.9143 71.6169 51.3811C71.6169 51.3811 71.6089 51.3865 71.6089 51.3855C71.6089 51.3865 71.5939 51.3985 71.5939 51.3985C71.549 51.3985 71.5016 51.408 71.4646 51.386H71.4587C71.5241 51.8319 71.7342 52.2214 72.0737 52.556C72.1955 52.5989 72.1676 52.743 72.2195 52.8368C72.2515 52.8782 72.2559 52.967 72.242 53.0044C71.5141 52.9809 70.8641 53.163 70.2799 53.4941C70.1307 53.5689 70.1966 53.7749 70.1826 53.919C70.5935 53.6487 71.0373 53.4477 71.5275 53.3595C71.7377 53.3455 71.9759 53.2941 72.1771 53.35L72.2005 53.7514C71.6449 54.0407 71.0373 54.2088 70.5605 54.685C70.57 54.8292 70.5425 54.9977 70.5845 55.1194L71.0098 54.7733C71.4202 54.4616 71.8501 54.1948 72.3223 54.0222C72.4487 54.1719 72.58 54.3304 72.7482 54.4232C73.0328 54.2412 73.3413 54.1065 73.6683 54.0222C73.8415 53.9195 74.1161 54.0128 74.2285 53.8078L74.3083 53.3829C74.2939 53.3734 74.2854 53.3555 74.2614 53.3604C74.0422 53.2343 73.8975 53.0153 73.9159 52.758C73.8416 52.7949 73.7577 52.8188 73.6683 52.8233C73.5934 52.8044 73.524 52.7864 73.4911 52.7111C73.4861 52.6174 73.4392 52.4777 73.5325 52.4079C73.8361 52.2209 74.229 52.2114 74.6124 52.2403C74.897 52.2772 75.3088 52.2628 75.4062 52.5999C75.3932 52.6977 75.4017 52.8049 75.3038 52.8702C75.201 52.9261 75.0847 52.8652 74.9903 52.8238C74.9164 53.0522 74.7901 53.3096 74.5325 53.3834L74.566 53.6547C74.5979 53.7764 74.6074 53.9764 74.7996 53.9345C75.2434 54.0417 75.6353 54.2706 76.0233 54.518C76.1541 54.3868 76.2569 54.2372 76.3498 54.1025C77.0412 54.3354 77.6398 54.8536 78.2094 55.3344L78.2334 54.9424C77.6912 54.4616 77.0881 54.121 76.4621 53.8547C76.486 53.7285 76.514 53.6068 76.518 53.4722C77.2614 53.5136 77.9658 53.7425 78.5789 54.1025L78.5689 53.7664C77.9244 53.4213 77.2189 53.1924 76.4476 53.1829C76.4197 53.14 76.4107 53.0802 76.4157 53.0378C76.7896 52.9769 77.0552 52.5899 77.1451 52.2533C77.3358 52.0344 77.6124 51.796 77.547 51.4698C77.5554 51.4434 77.5649 51.4145 77.5744 51.3865C77.5994 51.3043 77.6203 51.219 77.5924 51.1432Z" fill="white"/>
<path fill-rule="evenodd" clip-rule="evenodd" d="M78.2424 52.3426L78.6252 52.2209L78.6666 52.0064C78.7749 51.6937 78.5463 51.4603 78.433 51.2125L78.2424 52.3426Z" fill="white"/>
<path fill-rule="evenodd" clip-rule="evenodd" d="M79.2084 53.8223C79.3906 54.0222 79.5683 54.3449 79.8912 54.2462C79.8672 54.1115 79.7924 53.9998 79.746 53.8781C79.6611 53.7794 79.6337 53.4996 79.4655 53.5983C79.3392 53.5141 79.3072 53.3734 79.2269 53.2617C79.1905 53.4343 79.2134 53.6492 79.2084 53.8223Z" fill="white"/>
<path fill-rule="evenodd" clip-rule="evenodd" d="M79.2743 55.1887C79.3447 55.2875 79.3637 55.4137 79.4325 55.5019C79.5588 55.5852 79.746 55.5722 79.8997 55.5578C80.04 55.5254 80.1288 55.679 80.2596 55.5897C80.0969 55.4875 79.999 55.3004 79.8438 55.1658C79.6611 55.0212 79.466 55.1473 79.2743 55.1887Z" fill="white"/>
<path fill-rule="evenodd" clip-rule="evenodd" d="M79.5219 57.3596C79.8439 57.5511 80.2541 57.7382 80.6838 57.6728C80.7303 57.6489 80.8101 57.6539 80.8191 57.5975C80.5531 57.5038 80.2736 57.238 79.9941 57.1821C79.8394 56.9442 79.6387 57.2429 79.4426 57.224C79.4471 57.2803 79.503 57.3227 79.5219 57.3596Z" fill="white"/>
<path fill-rule="evenodd" clip-rule="evenodd" d="M80.493 61.4805L80.5634 61.6306C80.6337 62.1164 80.9412 62.5637 80.773 63.0958C80.9132 63.1936 80.9557 63.3567 81.044 63.4873H81.0675C81.1748 63.0819 81.1004 62.6615 81.044 62.255C81.0859 61.8865 80.7121 61.6715 80.493 61.4805Z" fill="white"/>
<path fill-rule="evenodd" clip-rule="evenodd" d="M80.5734 56.7013C80.8164 56.8884 81.2042 56.9068 81.4837 56.8135C81.3065 56.7158 81.1109 56.6086 80.9652 56.4774L80.5734 56.7013Z" fill="white"/>
<path fill-rule="evenodd" clip-rule="evenodd" d="M81.7261 58.1346C81.7022 58.3311 81.8334 58.4942 81.9737 58.592C82.0251 58.4753 82.1089 58.3775 82.1179 58.2468C82.0765 58.0459 81.9642 57.8643 81.782 57.7292C81.7491 57.8593 81.7122 57.9845 81.7261 58.1346Z" fill="white"/>
<path fill-rule="evenodd" clip-rule="evenodd" d="M81.7406 60.2622C81.7077 60.4811 81.9502 60.51 82.053 60.6312C82.1374 60.7334 81.9971 60.8038 81.9971 60.9015C82.1743 61.1299 82.2771 61.3917 82.2771 61.6955C82.3475 61.4112 82.4548 61.1394 82.4933 60.8457C82.4743 60.6407 82.1479 60.6826 82.1988 60.4542C82.2916 60.2208 82.1798 59.9919 82.1189 59.7824C82.1 59.749 82.058 59.6836 82.0216 59.7026C81.9358 59.8941 81.7261 60.0288 81.7406 60.2622Z" fill="white"/>
<path fill-rule="evenodd" clip-rule="evenodd" d="M82.3806 59.1515L82.6232 59.6228C82.731 59.6098 82.7999 59.5061 82.8842 59.4323C82.9501 59.2358 82.7769 59.1096 82.726 58.951C82.6831 58.8388 82.726 58.6897 82.6462 58.5915C82.5858 58.5546 82.5149 58.4937 82.445 58.5117L82.3806 59.1515Z" fill="white"/>
<path fill-rule="evenodd" clip-rule="evenodd" d="M82.6932 57.9107C82.8849 58.0269 83.104 58.195 83.2064 58.4C83.3706 58.8762 83.6322 59.3056 83.8235 59.7674C83.8939 60.0896 83.9498 60.3769 84.0386 60.6945C84.0716 60.7773 84.0526 60.9409 84.1839 60.9274C84.2209 60.5729 84.2912 60.2322 84.2957 59.8632C84.1794 59.7096 84.0242 59.6442 83.8799 59.55V59.5181C83.8988 59.4383 83.9642 59.345 84.0626 59.36C84.104 59.3121 84.2303 59.2662 84.1749 59.1824C83.9318 58.9401 83.9458 58.5216 83.5574 58.4463C83.4226 58.3905 83.3891 58.2508 83.3761 58.1202C83.1934 57.9671 82.9218 57.9142 82.6932 57.9107Z" fill="white"/>
<path fill-rule="evenodd" clip-rule="evenodd" d="M82.9168 60.4402C83.1554 60.6586 83.0721 60.9763 83.0526 61.2706C83.0157 61.4481 83.2397 61.3454 83.3101 61.4386C83.4544 61.6536 83.3705 61.9663 83.3186 62.1997C83.4454 62.0077 83.5901 61.8396 83.6879 61.6301C83.683 61.5503 83.7853 61.5134 83.7818 61.4157C83.8232 61.28 83.665 61.3409 83.5996 61.3259C83.5437 61.312 83.4828 61.2745 83.5008 61.2002C83.6226 60.9663 83.5108 60.6866 83.4639 60.4537C83.408 60.2617 83.4878 60.0058 83.3985 59.8378C83.2492 60.0432 82.805 60.0901 82.9168 60.4402Z" fill="white"/>
<path fill-rule="evenodd" clip-rule="evenodd" d="M83.3517 57.1257C83.7679 57.5462 84.0714 57.9681 84.5196 58.3745C84.5295 58.1935 84.5056 58.0244 84.4961 57.8469C84.4302 57.7217 84.309 57.6279 84.2061 57.5347C83.8752 57.5018 83.702 57.0559 83.3517 57.1257Z" fill="white"/>
<path fill-rule="evenodd" clip-rule="evenodd" d="M84.4405 59.3505C84.45 59.3924 84.469 59.4293 84.4869 59.4717C84.6691 59.7709 84.8418 60.0781 84.9686 60.4003C84.9311 60.0557 85.1652 59.6253 84.8563 59.36C84.8143 59.2478 84.6741 59.2852 84.5853 59.2941L84.4405 59.3505Z" fill="white"/>
<path fill-rule="evenodd" clip-rule="evenodd" d="M85.5618 62.7602C85.6931 62.8196 85.8609 62.7123 85.9872 62.6385C86.104 62.6101 86.2024 62.6754 86.2912 62.7363C86.3282 62.8106 86.2912 62.8804 86.3042 62.9507C86.5853 63.03 86.8604 63.1328 87.1085 63.2958L87.1869 63.217C87.2058 63.0161 87.0476 62.8724 86.8978 62.7602C86.8 62.7029 86.6542 62.7363 86.5853 62.647C86.6317 62.5732 86.6317 62.461 86.6267 62.3767C86.472 62.3767 86.3741 62.3298 86.2478 62.255C86.1694 62.2321 86.0985 62.1667 86.0331 62.255C85.8 62.4141 85.786 62.647 85.5618 62.7602Z" fill="white"/>
<path fill-rule="evenodd" clip-rule="evenodd" d="M85.8893 56.8864C86.0056 56.8544 86.1279 56.8205 86.2257 56.7372C86.5377 56.4525 86.9913 56.6435 87.3552 56.639C87.2858 56.5128 87.187 56.3876 87.0986 56.2794C86.9679 56.2281 86.8461 56.1672 86.6969 56.1672C86.3789 55.9812 86.1648 56.2934 85.9213 56.447C85.8564 56.5742 85.8239 56.7602 85.8893 56.8864Z" fill="white"/>
<path fill-rule="evenodd" clip-rule="evenodd" d="M85.8983 57.8469C85.8983 57.8339 85.8983 57.819 85.9123 57.815C85.9542 57.8524 85.9073 57.9406 85.9777 57.9591C86.099 57.8992 86.2113 57.815 86.3232 57.7362C86.6367 57.7362 86.8234 57.4329 87.131 57.4329C87.6447 57.5257 88.1549 57.6284 88.6027 57.8803C88.5708 57.5771 88.3087 57.3018 88.0431 57.1656C87.8928 57.1143 87.776 57.1946 87.6686 57.2778C87.3551 57.4748 87.5194 56.9936 87.2997 56.9836C87.0146 57.0734 86.7201 57.1706 86.4031 57.1432C86.2158 57.2125 86.0845 57.3846 85.8748 57.3666C85.8654 57.5207 85.8419 57.7077 85.8983 57.8469Z" fill="white"/>
<path fill-rule="evenodd" clip-rule="evenodd" d="M86.1135 58.8887C86.2108 58.9909 86.3741 58.972 86.5154 58.9909L86.9213 58.8328C86.9263 58.758 86.8 58.7386 86.8274 58.6558C86.9397 58.5296 87.0945 58.6179 87.2338 58.566C87.431 58.5386 87.6317 58.3426 87.8269 58.4872C87.8224 58.5102 87.8369 58.5436 87.8184 58.566C87.7565 58.7112 87.8604 58.7994 87.9722 58.8553C88.2013 58.8982 88.416 59.1081 88.6452 59.0139C88.6222 58.8229 88.5708 58.6458 88.5233 58.4633C88.3321 58.4304 88.1968 58.2718 88.0191 58.206C87.9392 58.2808 87.8369 58.3371 87.7385 58.3276C87.3786 58.2439 86.9487 58.0199 86.5848 58.2488C86.4535 58.4069 86.2198 58.3606 86.0426 58.4299C86.0526 58.59 86.0706 58.7436 86.1135 58.8887Z" fill="white"/>
<path fill-rule="evenodd" clip-rule="evenodd" d="M86.2672 61.6625C86.2388 61.7418 86.1599 61.873 86.3042 61.9099C86.6036 61.9199 86.9865 61.7658 87.2205 61.9987C87.2994 62.06 87.262 62.1852 87.2575 62.265L87.6493 62.5921C87.6872 62.3957 87.7566 62.2181 87.7616 62.0077C87.7296 61.8585 87.6543 61.7134 87.524 61.6157C87.2664 61.6157 87.1167 61.3149 86.8412 61.3533C86.697 61.3199 86.5712 61.4481 86.4255 61.4481C86.3601 61.5134 86.3231 61.5932 86.2672 61.6625Z" fill="white"/>
<path fill-rule="evenodd" clip-rule="evenodd" d="M86.3796 59.4627C86.44 59.5879 86.5109 59.7939 86.6272 59.8078C86.9028 59.6866 87.3042 59.6113 87.6132 59.7425C87.7161 59.7609 87.7161 59.8776 87.6931 59.953C87.8514 60.0462 88.0436 60.12 88.2113 60.2233L88.1649 59.9435C88.1549 59.6398 87.772 59.6113 87.7485 59.3121C87.4355 59.2099 87.085 59.1775 86.7535 59.2567C86.6452 59.355 86.4919 59.341 86.3606 59.3695C86.3521 59.4064 86.3746 59.4293 86.3796 59.4627Z" fill="white"/>
<path fill-rule="evenodd" clip-rule="evenodd" d="M86.4595 60.9748C86.6417 60.9234 86.7574 60.7225 86.9541 60.7045C87.2531 60.7095 87.5196 60.8297 87.7057 61.087C87.819 61.1613 87.7951 61.3533 87.9393 61.3533C87.8974 61.1239 87.9723 60.914 87.9633 60.6806C87.7661 60.3544 87.282 60.6058 87.0993 60.2233L86.7539 60.2462C86.5064 60.307 86.5723 60.5968 86.5383 60.7928C86.5104 60.8536 86.4545 60.9 86.4595 60.9748Z" fill="white"/>
<path fill-rule="evenodd" clip-rule="evenodd" d="M88.1729 63.0161C88.3181 63.3053 88.6365 63.5252 88.6685 63.8569C88.7434 63.7676 88.7948 63.6654 88.8462 63.5676C88.8412 63.4739 88.7334 63.4739 88.6909 63.3996C88.649 63.2784 88.7149 63.1712 88.7334 63.0629C88.673 62.8899 88.5277 62.7268 88.3645 62.6246L88.1729 63.0161Z" fill="white"/>
<path fill-rule="evenodd" clip-rule="evenodd" d="M88.749 62.279L89.0849 62.7363C89.2291 62.5074 89.2291 62.1717 89.1732 61.8954C89.1413 61.8441 89.0799 61.7603 88.9961 61.7977C88.8693 61.9289 88.8513 62.1288 88.749 62.279Z" fill="white"/>
<path fill-rule="evenodd" clip-rule="evenodd" d="M87.3791 49.5034C87.5009 49.5642 87.6176 49.6201 87.7619 49.6291C87.8607 49.5782 87.987 49.5408 88.1083 49.5732C88.281 49.6854 88.4911 49.5498 88.6912 49.5592C88.5145 49.3917 88.3129 49.2889 88.1083 49.1912C87.8462 49.2466 87.6366 49.4326 87.3791 49.5034Z" fill="white"/>
<path fill-rule="evenodd" clip-rule="evenodd" d="M89.2068 49.9423C89.4534 49.9652 89.6311 50.1841 89.7992 50.3677C90.0099 50.3996 90.1686 50.5487 90.2944 50.7033L90.215 50.4554C90.1591 50.2076 90.0049 50.0161 89.8467 49.8211C89.6226 49.835 89.402 49.8535 89.2068 49.9423Z" fill="white"/>
<path fill-rule="evenodd" clip-rule="evenodd" d="M71.7702 47.894L71.9055 47.908C72.2704 48.09 72.859 48.1833 72.8915 48.7104C72.5235 48.8556 72.1681 49.0521 71.874 49.3498C71.6499 49.1209 71.1961 49.2471 71.1217 48.8461C71.1921 48.4681 71.3269 47.9928 71.7702 47.894Z" fill="#FF6600"/>
<path fill-rule="evenodd" clip-rule="evenodd" d="M72.1216 50.2609C72.546 50.224 72.9574 50.2834 73.3972 50.247C73.5046 50.2934 73.6164 50.3871 73.6678 50.4943C73.6538 50.998 73.4996 51.4793 73.4761 51.997C73.2849 52.0773 73.0977 52.2353 73.0512 52.4453C72.878 52.4962 72.7237 52.5999 72.5555 52.6782C72.4806 52.5201 72.4946 52.2817 72.6264 52.1516C72.8081 51.8942 73.2804 51.9551 73.242 51.5491C73.3638 51.3526 73.2469 51.1008 73.2519 50.8953C73.205 50.7417 73.1586 50.9467 73.0837 50.9417C72.9344 50.9736 72.7802 50.9836 72.6498 50.9098C72.551 50.806 72.4297 50.7227 72.4017 50.5826C72.2709 50.5173 72.1172 50.4145 72.0518 50.2789L72.1216 50.2609Z" fill="#FF6600"/>
<path fill-rule="evenodd" clip-rule="evenodd" d="M72.6354 53.3041C72.835 53.3315 73.0461 53.2432 73.2188 53.341C73.1814 53.4063 73.0836 53.4343 73.0042 53.4532L72.6913 53.5983C72.5745 53.5694 72.6399 53.3829 72.6354 53.3041Z" fill="#FF6600"/>
<path fill-rule="evenodd" clip-rule="evenodd" d="M73.453 49.4061C73.6532 49.3408 73.8688 49.2062 74.0834 49.2715C73.9292 49.4256 73.8079 49.6261 73.6916 49.8121L73.0518 49.7986C73.1206 49.6311 73.2978 49.4909 73.453 49.4061Z" fill="#FF6600"/>
<path fill-rule="evenodd" clip-rule="evenodd" d="M75.3267 49.2525C75.5922 49.2062 75.5782 49.5513 75.8213 49.5657C75.8637 49.6216 75.9246 49.6725 75.9007 49.7562C75.7604 49.8121 75.5553 49.7847 75.3956 49.8216C75.1855 49.7049 75.3217 49.3408 74.9893 49.3643C74.9713 49.3368 74.9334 49.2805 74.9803 49.2615C75.0836 49.2251 75.2179 49.2386 75.3267 49.2525Z" fill="#FF6600"/>
<path fill-rule="evenodd" clip-rule="evenodd" d="M75.1586 50.5038C75.2749 50.3397 75.4531 50.3268 75.6209 50.2934L76.831 50.3168C76.8824 50.3632 76.7846 50.4051 76.7846 50.4614C76.7097 50.5312 76.6019 50.5502 76.5365 50.616C76.3782 50.621 76.3912 50.8065 76.2794 50.8863C76.1061 51.0589 75.8545 50.9801 75.6533 50.9517C75.5829 50.9003 75.504 50.83 75.4711 50.7507L75.4152 50.8065C75.4856 51.0684 75.4666 51.3581 75.5175 51.6234L75.8071 51.8154C75.8121 52.2448 76.3168 52.1281 76.5365 52.3665C76.4851 52.5201 76.3822 52.6508 76.2709 52.7819C76.0931 52.6089 75.8919 52.4962 75.6773 52.4224C75.6588 52.17 75.3832 52.0214 75.2284 51.8947C75.1865 51.4374 75.177 50.9706 75.1031 50.5273L75.1586 50.5038Z" fill="#FF6600"/>
<path fill-rule="evenodd" clip-rule="evenodd" d="M75.5974 53.3829H76.1584L76.088 53.6771L75.527 53.4387C75.514 53.3924 75.5644 53.3784 75.5974 53.3829Z" fill="#FF6600"/>
<path fill-rule="evenodd" clip-rule="evenodd" d="M76.6064 48.0955L77.0222 47.9644C77.2609 48.0761 77.485 48.2167 77.7042 48.3748C77.8775 48.693 77.8485 49.1214 77.7696 49.476C77.6433 49.6166 77.3677 49.476 77.2654 49.6999H77.2464C77.0916 49.2615 76.6533 48.87 76.2464 48.6685C76.3118 48.4451 76.3822 48.2262 76.6064 48.0955Z" fill="#FF6600"/>
<path fill-rule="evenodd" clip-rule="evenodd" d="M88.8439 65.8772C89.2128 65.8213 89.6052 65.8303 89.8993 65.559C91.1474 65.751 92.413 65.4428 93.394 64.7571C93.9117 64.3391 94.377 63.8564 94.7529 63.3292C95.0844 62.8644 95.3465 62.4301 95.5158 61.9099C95.6416 61.5882 95.7414 61.2546 95.8168 60.911C96.1728 59.2937 95.9861 57.4848 95.4599 55.9448C95.362 55.659 95.2527 55.3837 95.1324 55.1194C94.4744 53.7609 93.5797 52.2957 92.1998 51.4359C91.4225 50.9517 90.7081 50.2026 90.2692 49.4286C90.0306 49.2131 89.8014 48.9289 89.4934 48.8775C89.5778 49.0176 89.6706 49.1528 89.6946 49.3159L89.6756 49.3393C89.3491 49.3488 89.0915 49.1762 88.8673 48.9653L89.1155 48.7419C89.0216 48.6955 88.9143 48.676 88.8114 48.6536C87.8673 48.5464 87.092 48.9797 86.2563 49.1902L86.2423 49.2366C86.7555 49.465 86.8629 50.0295 87.1624 50.413C87.2373 50.3238 87.3636 50.3891 87.466 50.3796C87.6152 50.3891 87.7555 50.4963 87.8998 50.4589C87.9048 50.3333 87.8354 50.2355 87.8114 50.1238C87.8998 50.0809 88.0081 50.1188 88.106 50.1238C88.3766 50.2819 88.8114 50.0949 88.9797 50.4589C88.6711 50.4784 88.3816 50.5427 88.092 50.613C88.1105 50.7297 88.2273 50.8235 88.2183 50.9402C87.9702 50.8365 87.7091 50.7726 87.433 50.7392L87.42 50.7806C87.7705 51.1915 88.2508 51.4344 88.7415 51.5795C89.447 51.7426 90.068 51.407 90.7495 51.5237C92.4234 52.2892 93.8523 54.0402 94.4743 55.7019C94.5048 55.7817 94.5338 55.8625 94.5617 55.9438C95.0824 57.4614 95.1808 59.3281 94.6596 60.91C94.382 61.5693 94.0765 62.1897 93.5867 62.7258C93.4015 62.9527 93.1963 63.1557 92.9736 63.3282C92.2722 63.8738 91.4075 64.1137 90.5168 63.8689C90.4614 63.8324 90.3481 63.8225 90.3666 63.7247C90.398 63.5951 90.427 63.4624 90.4524 63.3282C90.6007 62.5687 90.6681 61.7708 90.6292 60.9738C90.6272 60.9394 90.6267 60.905 90.6252 60.8711C90.5762 59.7131 90.3451 58.6713 89.9187 57.6698C89.6461 57.0948 89.3211 56.4679 88.9123 55.9049C88.4245 55.2336 87.8184 54.6536 87.0406 54.3644C86.5638 54.2382 85.9747 54.2152 85.6158 54.6122C85.3581 54.8361 85.2513 55.1394 85.2882 55.4705C84.8864 55.7258 84.4345 55.8635 83.9428 55.9049C83.8225 55.9154 83.6986 55.9587 83.5743 55.9582C83.455 55.9637 83.3387 55.9582 83.2264 55.9438C82.6333 55.871 82.0352 55.5533 81.5803 55.1877C81.5709 54.9464 81.5564 54.7165 81.5474 54.4606C81.2863 54.325 81.0716 54.0676 81.0527 53.7649L81.0766 53.7415C81.2259 53.7878 81.3567 53.8627 81.4915 53.9424C81.4306 53.5784 81.3612 53.2188 81.179 52.9016C81.0107 52.8313 80.8415 52.776 80.6832 52.6912C80.501 52.57 80.3842 52.3506 80.3572 52.1496C80.52 52.3092 80.805 52.2528 80.9313 52.4209C80.7122 51.772 80.7072 51.03 80.3472 50.437C80.165 49.9981 79.6882 49.7976 79.3612 49.475C79.2349 49.3214 79.184 49.1069 78.9548 49.083C78.7681 49.0366 78.7536 48.8261 78.7212 48.6915C78.838 48.705 78.9358 48.7847 79.0347 48.8032C78.7631 48.0841 78.525 47.2866 77.7916 46.8293L77.6653 46.9081C77.3807 46.951 77.0767 46.9689 76.7916 46.9784C76.9179 46.7914 77.1421 46.7126 77.3198 46.6278C77.1136 46.4742 76.9449 46.4368 76.6872 46.3944C76.538 46.5445 76.2684 46.6183 76.0767 46.6602L76.0537 46.6423C76.0487 46.4747 76.0098 46.2682 76.2624 46.2268C76.0198 46.1101 75.6179 46.1565 75.3697 46.2268C75.2993 46.4089 75.1001 46.572 75.1131 46.7864C74.9693 46.9365 74.8665 47.1365 74.7162 47.2442C74.7122 46.8846 74.8645 46.553 74.9304 46.2503C74.7202 46.3291 74.5065 46.4408 74.3014 46.5395C73.9694 46.348 73.6199 46.1565 73.2654 46.0124C73.2325 45.9979 73.1621 45.984 73.1761 46.0443C73.4796 46.2637 73.3623 46.6742 73.3947 46.9874L73.203 46.8293C73.1097 46.5909 72.8396 46.4183 72.7936 46.1565C72.4756 46.2174 72.2724 46.3016 71.9779 46.4278L71.9369 46.4508C72.1561 46.4508 72.3428 46.6233 72.4507 46.7959C72.1192 46.8148 71.8246 46.6837 71.4981 46.6517C71.4651 46.6188 71.4377 46.5814 71.3853 46.5864C71.2215 46.6473 71.0822 46.764 70.9369 46.8762C70.6149 47.1928 70.2874 47.5439 70.1337 47.9634C70.2415 47.9823 70.3768 47.9778 70.4562 48.0432C70.2794 48.1504 70.1247 48.3324 69.9514 48.4351C69.891 48.678 69.9 48.9533 69.886 49.2196C69.7507 49.4246 69.5685 49.6066 69.4796 49.835C69.1901 50.7731 69.1152 51.8139 69.1576 52.8782C69.0638 52.9665 68.942 53.0238 68.8541 53.0931L68.8636 54.0452H68.8865C68.9295 53.8442 69.1676 53.7325 69.3119 53.5973H69.3588C69.3359 53.8118 69.3074 54.0262 69.3029 54.2462L69.0318 54.4701C68.7617 54.708 68.9904 55.0665 68.9664 55.3653C68.9859 55.4451 68.9989 55.5618 69.0563 55.5807C69.0882 55.464 69.1911 55.3797 69.256 55.2775C69.3728 55.2486 69.4752 55.1558 69.5825 55.1419C69.5231 55.3748 69.4432 55.6037 69.3488 55.8276C69.3044 55.857 69.2515 55.8974 69.2066 55.9443C69.1591 55.9957 69.1212 56.0545 69.1122 56.1178C69.3219 57.224 69.6524 58.3157 70.0313 59.3565C69.7737 59.7899 69.6284 60.3016 69.4142 60.7499C69.3838 60.8127 69.3563 60.8761 69.3304 60.9414C69.1157 61.4845 69.0503 62.0904 68.7832 62.6126C68.6759 62.5373 68.5595 62.4814 68.4382 62.4301C67.9325 62.2625 67.3489 62.3697 66.9804 62.7567C66.6529 62.6959 66.3164 62.7517 66.0588 62.9243C65.8751 63.0629 65.7323 63.2295 65.6509 63.4245C65.596 63.5597 65.5696 63.7068 65.5785 63.8679C65.3679 64.0125 65.2555 64.2364 65.1861 64.4603C65.0878 64.965 65.265 65.4892 65.5546 65.8767L88.8439 65.8772Z" fill="white"/>
<path fill-rule="evenodd" clip-rule="evenodd" d="M95.4599 55.9448C95.362 55.659 95.2527 55.3837 95.1324 55.1194C94.4744 53.7609 93.5797 52.2957 92.1998 51.4359C91.4225 50.9517 90.7081 50.2026 90.2692 49.4286C90.0306 49.2131 89.8014 48.9289 89.4934 48.8775C89.5778 49.0176 89.6706 49.1528 89.6946 49.3159L89.6756 49.3393C89.3491 49.3488 89.0915 49.1762 88.8673 48.9653L89.1155 48.7419C89.0216 48.6955 88.9143 48.676 88.8114 48.6536C87.8673 48.5464 87.092 48.9797 86.2563 49.1902L86.2423 49.2366C86.7555 49.465 86.8629 50.0295 87.1624 50.413C87.2373 50.3238 87.3636 50.3891 87.466 50.3796C87.6152 50.3891 87.7555 50.4963 87.8998 50.4589C87.9048 50.3333 87.8354 50.2355 87.8114 50.1238C87.8998 50.0809 88.0081 50.1188 88.106 50.1238C88.3766 50.2819 88.8114 50.0949 88.9797 50.4589C88.6711 50.4784 88.3816 50.5427 88.092 50.613C88.1105 50.7297 88.2273 50.8235 88.2183 50.9402C87.9702 50.8365 87.7091 50.7726 87.433 50.7392L87.42 50.7806C87.7705 51.1915 88.2508 51.4344 88.7415 51.5795C89.447 51.7426 90.068 51.407 90.7495 51.5237C92.4234 52.2892 93.8523 54.0402 94.4743 55.7019C94.5048 55.7817 94.5338 55.8625 94.5617 55.9438C95.0824 57.4614 95.1808 59.3281 94.6596 60.91C94.382 61.5693 94.0765 62.1897 93.5867 62.7258C93.4015 62.9527 93.1963 63.1557 92.9736 63.3282C92.2722 63.8738 91.4075 64.1137 90.5168 63.8689C90.4614 63.8324 90.3481 63.8225 90.3666 63.7247C90.398 63.5951 90.427 63.4624 90.4524 63.3282C90.6007 62.5687 90.6681 61.7708 90.6292 60.9738C90.6272 60.9394 90.6267 60.905 90.6252 60.8711C90.5762 59.7131 90.3451 58.6713 89.9187 57.6698C89.6461 57.0948 89.3211 56.4679 88.9123 55.9049C88.4245 55.2336 87.8184 54.6536 87.0406 54.3644C86.5638 54.2382 85.9747 54.2152 85.6158 54.6122C85.3581 54.8361 85.2513 55.1394 85.2882 55.4705C84.8864 55.7258 84.4345 55.8635 83.9428 55.9049C83.8225 55.9154 83.6986 55.9587 83.5743 55.9582C83.455 55.9637 83.3387 55.9582 83.2264 55.9438C82.6333 55.871 82.0352 55.5533 81.5803 55.1877C81.5709 54.9464 81.5564 54.7165 81.5474 54.4606C81.2863 54.325 81.0716 54.0676 81.0527 53.7649L81.0766 53.7415C81.2259 53.7878 81.3567 53.8627 81.4915 53.9424C81.4306 53.5784 81.3612 53.2188 81.179 52.9016C81.0107 52.8313 80.8415 52.776 80.6832 52.6912C80.501 52.57 80.3842 52.3506 80.3572 52.1496C80.52 52.3092 80.805 52.2528 80.9313 52.4209C80.7122 51.772 80.7072 51.03 80.3472 50.437C80.165 49.9981 79.6882 49.7976 79.3612 49.475C79.2349 49.3214 79.184 49.1069 78.9548 49.083C78.7681 49.0366 78.7536 48.8261 78.7212 48.6915C78.838 48.705 78.9358 48.7847 79.0347 48.8032C78.7631 48.0841 78.525 47.2866 77.7916 46.8293L77.6653 46.9081C77.3807 46.951 77.0767 46.9689 76.7916 46.9784C76.9179 46.7914 77.1421 46.7126 77.3198 46.6278C77.1136 46.4742 76.9449 46.4368 76.6872 46.3944C76.538 46.5445 76.2684 46.6183 76.0767 46.6602L76.0537 46.6423C76.0487 46.4747 76.0098 46.2682 76.2624 46.2268C76.0198 46.1101 75.6179 46.1565 75.3697 46.2268C75.2993 46.4089 75.1001 46.572 75.1131 46.7864C74.9693 46.9365 74.8665 47.1365 74.7162 47.2442C74.7122 46.8846 74.8645 46.553 74.9304 46.2503C74.7202 46.3291 74.5065 46.4408 74.3014 46.5395C73.9694 46.348 73.6199 46.1565 73.2654 46.0124C73.2325 45.9979 73.1621 45.984 73.1761 46.0443C73.4796 46.2637 73.3623 46.6742 73.3947 46.9874L73.203 46.8293C73.1097 46.5909 72.8396 46.4183 72.7936 46.1565C72.4756 46.2174 72.2724 46.3016 71.9779 46.4278L71.9369 46.4508C72.1561 46.4508 72.3428 46.6233 72.4507 46.7959C72.1192 46.8148 71.8246 46.6837 71.4981 46.6517C71.4651 46.6188 71.4377 46.5814 71.3853 46.5864C71.2215 46.6473 71.0822 46.764 70.9369 46.8762C70.6149 47.1928 70.2874 47.5439 70.1337 47.9634C70.2415 47.9823 70.3768 47.9778 70.4562 48.0432C70.2794 48.1504 70.1247 48.3324 69.9514 48.4351C69.891 48.678 69.9 48.9533 69.886 49.2196C69.7507 49.4246 69.5685 49.6066 69.4796 49.835C69.1901 50.7731 69.1152 51.8139 69.1576 52.8782C69.0638 52.9665 68.942 53.0238 68.8541 53.0931L68.8636 54.0452H68.8865C68.9295 53.8442 69.1676 53.7325 69.3119 53.5973H69.3588C69.3359 53.8118 69.3074 54.0262 69.3029 54.2462L69.0318 54.4701C68.7617 54.708 68.9904 55.0665 68.9664 55.3653C68.9859 55.4451 68.9989 55.5618 69.0563 55.5807C69.0882 55.464 69.1911 55.3797 69.256 55.2775C69.3728 55.2486 69.4752 55.1558 69.5825 55.1419C69.5231 55.3748 69.4432 55.6037 69.3488 55.8276C69.3044 55.857 69.2515 55.8974 69.2066 55.9443C69.1591 55.9957 69.1212 56.0545 69.1122 56.1178C69.3219 57.224 69.6524 58.3157 70.0313 59.3565C69.7737 59.7899 69.6284 60.3016 69.4142 60.7499C69.3838 60.8127 69.3563 60.8761 69.3304 60.9414C69.1157 61.4845 69.0503 62.0904 68.7832 62.6126C68.6759 62.5373 68.5595 62.4814 68.4382 62.4301C67.9325 62.2625 67.3489 62.3697 66.9804 62.7567C66.6529 62.6959 66.3164 62.7517 66.0588 62.9243C65.8751 63.0629 65.7323 63.2295 65.6509 63.4245C65.596 63.5597 65.5696 63.7068 65.5785 63.8679C65.3679 64.0125 65.2555 64.2364 65.1861 64.4603C65.0878 64.965 65.265 65.4892 65.5546 65.8767L73.8106 65.8772C73.6893 65.733 73.577 65.5321 73.4921 65.3595C73.3153 65.0927 73.4367 64.7152 73.4177 64.407C73.5859 64.0678 73.7567 63.7267 73.9489 63.3951C73.9878 63.3282 74.0268 63.2629 74.0667 63.1981L74.4456 63.0535C74.6463 63.0535 74.8151 62.9088 75.0063 62.9597C75.2634 63.217 75.2634 62.7034 75.5115 62.6799C76.0906 62.6051 76.6653 62.661 76.9918 63.1512C76.9918 63.2165 77.0956 63.2165 77.0717 63.2774C76.9968 63.2998 76.9264 63.2534 76.8475 63.2534C76.4925 63.1652 76.0762 62.9403 75.7262 63.1412C75.7127 63.225 75.6947 63.3103 75.6778 63.3941C75.6603 63.4834 75.6443 63.5706 75.6368 63.6544C75.8655 63.7197 76.0572 63.8833 76.2299 64.0604C76.3468 63.832 76.5944 63.7292 76.8141 63.6544C77.0058 63.6963 77.2159 63.7013 77.3752 63.8225C77.6698 64.0938 77.5245 64.5556 77.497 64.9007C77.7626 65.0498 78.0572 65.1346 78.3278 65.2787C78.2015 65.3919 78.0342 65.4378 77.8799 65.4942L77.4316 65.4049C77.3802 65.368 77.2908 65.368 77.2724 65.3027C77.1231 65.4608 76.9409 65.6712 76.8475 65.8762H83.2478C83.1635 65.6847 83.0656 65.5356 82.9488 65.3585C82.8175 65.0782 82.8699 64.6952 82.8554 64.3965L83.4535 63.4863C83.78 63.4819 84.15 63.3602 84.5044 63.421C84.5224 63.413 84.5394 63.4041 84.5559 63.3936C84.7031 63.2918 84.7481 63.0555 84.9672 63.0849C85.3591 62.9782 85.6587 63.1557 85.9532 63.3327C85.9433 63.3562 85.9338 63.3766 85.9233 63.3936C85.8 63.5906 85.5693 63.3706 85.4011 63.43C85.3307 63.5048 85.434 63.5931 85.4475 63.6778C85.5084 63.7611 85.3866 63.7517 85.3452 63.7661C85.2473 63.7801 85.14 63.7566 85.0646 63.6778C85.0461 63.6539 85.0601 63.6265 85.0231 63.622C84.9383 63.7611 84.8169 63.8878 84.7845 64.0464C84.8913 64.1496 85.0361 64.2519 85.088 64.383C85.1954 64.5371 85.0037 64.6533 84.9667 64.789C84.9528 64.8164 84.9098 64.8164 84.8963 64.789C84.7975 64.7331 84.7141 64.5925 84.6063 64.6294C84.5124 65.0453 84.6387 65.4608 84.5828 65.8762C84.765 65.9191 84.9797 65.8667 85.1759 65.8762L85.2558 64.9984C85.3392 64.4294 85.6767 63.9531 86.0736 63.5183C86.5024 63.2255 86.779 63.804 87.096 64.0045C87.1479 64.014 87.1295 64.0698 87.1519 64.1023C87.1474 64.196 87.0496 64.2329 86.9842 64.2613C86.7875 64.3307 86.6427 64.1162 86.5214 63.99C86.4051 64.1162 86.3531 64.2838 86.2178 64.3825L86.2643 64.396C86.4195 64.5506 86.5678 64.7137 86.6018 64.9191C86.5828 65.1052 86.4894 65.2872 86.3207 65.3815C86.1954 65.166 86.092 64.9281 86.0087 64.7087C86.0131 64.7187 86.0032 64.7227 85.9942 64.7326C85.7366 64.8019 85.6682 65.0912 85.6252 65.3251C85.6392 65.554 85.4665 65.6473 85.5124 65.8757H88.8444C89.2133 65.8198 89.6057 65.8288 89.8998 65.5575C91.1479 65.7495 92.4135 65.4413 93.3945 64.7556C93.9122 64.3376 94.3775 63.8549 94.7534 63.3278C95.0849 62.8629 95.347 62.4286 95.5163 61.9084C95.6421 61.5867 95.7419 61.2531 95.8173 60.9095C96.1728 59.2937 95.9861 57.4843 95.4599 55.9448Z" fill="#FF6600"/>
<path fill-rule="evenodd" clip-rule="evenodd" d="M74.0193 64.6079C74.2015 64.4912 74.4959 64.4628 74.5373 64.1925C74.4635 64.1362 74.3976 64.0658 74.3132 64.0474L74.1216 64.1033C74.1356 63.991 74.1965 63.8654 74.2349 63.7442L74.8508 63.5437C74.7659 63.8235 74.734 64.1736 74.7055 64.4957C74.7614 64.972 74.8318 65.4807 75.0749 65.8772H74.4111C74.3367 65.4388 73.878 65.1206 74.0193 64.6079Z" fill="#FF6600"/>
<path fill-rule="evenodd" clip-rule="evenodd" d="M75.454 64.0474H75.491L75.9387 64.4538L76.0041 64.4399C75.9676 64.9162 75.9437 65.383 75.9387 65.8772H75.4535C75.3547 65.4154 75.1915 64.9296 75.2105 64.4309C75.2943 64.3047 75.3502 64.1456 75.454 64.0474Z" fill="#FF6600"/>
<path fill-rule="evenodd" clip-rule="evenodd" d="M76.453 64.4962C76.5424 64.38 76.5793 64.183 76.7565 64.1606C76.8828 64.1641 76.9996 64.183 77.0939 64.2723C77.2571 64.4773 77.0974 64.7396 77.038 64.9446C76.9721 65.2573 76.8593 65.5834 76.757 65.8777H76.2853L76.453 64.4962Z" fill="#FF6600"/>
<path fill-rule="evenodd" clip-rule="evenodd" d="M83.5408 64.3511C83.6436 64.4823 83.6761 64.6593 83.8303 64.776C83.9661 64.5895 83.9985 64.2997 83.9331 64.0619L83.7979 63.9262C83.9711 63.8848 84.1527 63.8704 84.3259 63.8379C84.251 64.0853 84.1098 64.3092 84.1343 64.5985C84.1388 65.0189 84.2086 65.4393 84.2461 65.8772H83.7325C83.5458 65.4662 83.3587 65.0747 83.3726 64.5985C83.4285 64.5142 83.466 64.4159 83.5408 64.3511Z" fill="#FF6600"/>
<path fill-rule="evenodd" clip-rule="evenodd" d="M85.751 55.3837C85.7461 55.5049 85.6577 55.6396 85.7366 55.7433C85.8499 55.6171 86.0361 55.6216 86.1859 55.5658C86.6018 55.5279 86.9987 55.659 87.3861 55.7528C87.2882 55.5982 87.2228 55.4256 87.115 55.286C86.8998 55.2296 86.5728 55.3792 86.5359 55.0611C86.4051 54.9494 86.1999 55.0291 86.0641 55.0381C85.9328 55.1314 85.8259 55.2481 85.751 55.3837Z" fill="white"/>
<path fill-rule="evenodd" clip-rule="evenodd" d="M71.4711 51.3531C71.4691 51.3521 71.4671 51.3501 71.4641 51.3481C71.4641 51.3501 71.4651 51.3511 71.4651 51.3531H71.4711Z" fill="white"/>
<path fill-rule="evenodd" clip-rule="evenodd" d="M73.1701 55.5024L73.4506 55.2321C73.4746 55.2321 73.4931 55.2366 73.5066 55.2546L73.4836 55.7727C73.6189 55.8989 73.7861 55.9403 73.9639 55.9503C73.9783 55.8106 74.0857 55.7119 74.1466 55.5907C74.198 55.4929 74.1656 55.3483 74.2679 55.279L74.3009 55.3109C74.3328 55.4655 74.3238 55.6381 74.4037 55.7727C74.4132 55.8475 74.4262 55.9403 74.4352 56.0061C74.6413 56.0156 74.8286 55.9597 74.9868 55.8844C74.9773 55.7074 75.0387 55.5628 75.0657 55.4002C75.1086 55.3438 75.0143 55.2406 75.1311 55.2456C75.197 55.3857 75.3133 55.5299 75.3792 55.68C75.6498 55.4047 75.7631 55.0456 75.8271 54.6716C75.7482 54.5648 75.6269 54.5648 75.5325 54.4945C74.7387 54.2382 73.7207 54.1868 72.9544 54.5833C72.903 54.8995 72.9684 55.2496 73.1701 55.5024Z" fill="white"/>
<path fill-rule="evenodd" clip-rule="evenodd" d="M65.7443 64.2608C65.7158 64.6204 65.7443 64.9575 65.7673 65.3126C65.8421 65.4293 65.9784 65.565 66.1136 65.5735L66.1366 65.3351C66.1925 65.0039 66.0153 64.6523 66.2025 64.3721C66.3332 64.4135 66.464 64.4793 66.5763 64.5396C66.6322 64.2319 66.5523 63.8718 66.2579 63.6848L65.7443 64.2608Z" fill="white"/>
<path fill-rule="evenodd" clip-rule="evenodd" d="M66.8985 63.7561C66.7163 64.3027 66.5811 64.9755 66.8007 65.551C66.9269 65.4662 67.0572 65.3869 67.169 65.2707C67.146 64.8314 67.0852 64.3636 67.3467 63.9985C67.5753 64.0688 67.73 64.2883 67.8178 64.5022C67.9731 64.3067 68.024 64.0354 67.9636 63.7751C67.9731 63.5691 67.7395 63.6165 67.6272 63.5322C67.6641 63.3592 67.6591 63.1597 67.8418 63.0609L67.2818 63.1168C67.1371 63.3228 66.9783 63.5222 66.8985 63.7561Z" fill="white"/>
<path fill-rule="evenodd" clip-rule="evenodd" d="M68.0528 65.369C68.0763 65.4104 68.0528 65.4857 68.1002 65.4952C68.1696 65.1027 68.4871 64.8488 68.6609 64.5027C68.7443 64.3875 68.7403 64.2229 68.8756 64.1347C69.0573 64.1347 69.1886 64.2653 69.3663 64.2793C69.4222 64.3217 69.3374 64.3591 69.3329 64.4055C69.2959 64.7237 69.1746 64.986 69.1976 65.3131H69.23C69.4776 65.0513 69.6459 64.7695 69.8281 64.4708L69.8601 64.2055C69.903 63.8878 69.5575 63.6828 69.3319 63.5517L69.5331 63.2943L69.2525 63.1966C68.9255 63.229 68.6309 63.3647 68.4023 63.622C68.1177 64.1436 68.0713 64.7341 68.0528 65.369Z" fill="white"/>
<path fill-rule="evenodd" clip-rule="evenodd" d="M69.3099 62.5991C69.4167 62.631 69.5151 62.5433 69.6219 62.5892C70.0523 62.7482 70.5006 62.9113 70.8231 63.2704L71.2065 64.2464L71.3982 63.6434L71.2719 63.3178C71.1641 63.0844 70.87 63.1033 70.6688 63.0939C70.585 63.0001 70.6733 62.8929 70.7018 62.8046C70.7996 62.473 70.3933 62.4914 70.23 62.3563C70.2395 62.1563 69.9964 62.2251 69.8606 62.2071L69.8141 62.1513C69.7862 62.1084 69.7163 62.1084 69.6783 62.1413C69.6699 62.1273 69.6509 62.1179 69.6604 62.0949L69.558 62.1179C69.4123 62.244 69.3144 62.4071 69.3099 62.5991Z" fill="white"/>
<path fill-rule="evenodd" clip-rule="evenodd" d="M69.58 61.5254C69.5945 61.5852 69.6314 61.6461 69.6778 61.684C69.8885 61.6281 70.0902 61.4825 70.3324 61.5718C70.6459 61.8471 70.9724 62.1363 71.3513 62.2854L71.4871 62.2625C71.5705 62.2899 71.6638 62.2944 71.7198 62.3887C71.7717 62.5148 71.6409 62.5887 71.5994 62.6914C71.8091 62.846 71.7257 63.1208 71.8561 63.3073L72.192 62.86C72.1137 62.6635 72.197 62.3278 71.8895 62.3089C71.7857 62.2575 71.7163 62.1553 71.7203 62.0386C71.5201 61.8565 71.2724 61.7772 71.0717 61.5902C70.907 61.4601 70.8096 61.2596 70.6 61.2127C70.4547 61.1329 70.2959 61.091 70.1282 61.0546C69.8141 61.0067 69.7862 61.3803 69.58 61.5254Z" fill="white"/>
<path fill-rule="evenodd" clip-rule="evenodd" d="M70.0293 60.6058L70.0852 60.6955C70.3189 60.6811 70.5286 60.5788 70.7577 60.5828C70.9115 60.6761 71.1127 60.6711 71.2714 60.7509C71.3977 60.9239 71.5335 61.1189 71.7193 61.2356C72.0982 61.2915 72.3079 61.6989 72.4387 61.9967V61.8526C72.4946 61.6516 72.4337 61.4177 72.3603 61.2356C72.2664 61.1424 72.1301 61.082 72.0328 60.9988C72.0138 60.9379 72.0278 60.909 72.0468 60.8536C71.9015 60.6995 71.6868 60.6152 71.5091 60.4936C71.2615 60.134 70.7857 60.2332 70.4067 60.134L70.0293 60.6058Z" fill="white"/>
<path fill-rule="evenodd" clip-rule="evenodd" d="M70.0213 57.1821C70.0627 57.3272 70.1132 57.5088 70.1416 57.6634C70.2719 57.3741 70.5299 57.2429 70.7585 57.0056C70.6272 56.9168 70.464 56.8744 70.3198 56.847V56.8375C70.2165 56.9392 70.0578 57.0425 70.0213 57.1821Z" fill="white"/>
<path fill-rule="evenodd" clip-rule="evenodd" d="M70.87 58.7181L71.0797 58.5037C71.2903 58.2882 71.464 58.0404 71.4954 57.7656C71.3462 57.6773 71.15 57.7382 71.0058 57.7895C70.9544 58.0917 70.8745 58.3905 70.87 58.7181Z" fill="white"/>
<path fill-rule="evenodd" clip-rule="evenodd" d="M71.0238 59.3764C71.3462 59.3944 71.6597 59.4597 71.9212 59.2777L72.1832 58.4379C72.0984 58.4329 72.014 58.395 71.9352 58.4239C71.7625 58.8059 71.4171 59.1844 71.0238 59.3764Z" fill="white"/>
<path fill-rule="evenodd" clip-rule="evenodd" d="M71.1186 56.3986C71.3288 56.7063 71.6796 57.0509 72.0385 57.1497C71.9971 56.7572 71.6607 56.4864 71.4875 56.1513L71.478 56.039C71.3427 55.9084 71.179 55.8191 71.0388 55.7498C71.0163 55.9737 71.0772 56.1877 71.1186 56.3986Z" fill="white"/>
<path fill-rule="evenodd" clip-rule="evenodd" d="M72.2574 59.4133C72.505 59.4552 72.7715 59.4133 73.0001 59.343C73.3315 59.2632 73.5142 58.8997 73.626 58.6154H73.2102L72.7625 59.0538C72.5854 59.1465 72.4172 59.2867 72.2574 59.4133Z" fill="white"/>
<path fill-rule="evenodd" clip-rule="evenodd" d="M72.207 55.9737C72.2774 56.3383 72.4321 56.6694 72.6422 56.9821L72.6976 56.2864L72.207 55.9737Z" fill="white"/>
<path fill-rule="evenodd" clip-rule="evenodd" d="M73.7385 57.789C73.767 57.5556 73.6692 57.2843 73.6417 57.0474C73.5015 56.9537 73.3058 56.9627 73.1606 56.8704C73.1701 57.238 73.4585 57.5511 73.7385 57.789Z" fill="white"/>
<path fill-rule="evenodd" clip-rule="evenodd" d="M73.3139 60.1599C73.6078 60.0667 73.8928 59.9639 74.1643 59.8148C74.337 59.5669 74.598 59.3435 74.636 59.0543C74.4199 59.1146 74.2342 59.0443 74.0331 59.143C73.9118 59.362 73.8364 59.6103 73.6033 59.7684C73.5659 59.926 73.3932 60.0337 73.3139 60.1599Z" fill="white"/>
<path fill-rule="evenodd" clip-rule="evenodd" d="M73.7712 60.7339L74.1215 61.1913C74.3087 61.2516 74.5423 61.2336 74.7055 61.1264L74.5802 60.7115C74.3321 60.8038 74.0377 60.7768 73.7712 60.7339Z" fill="white"/>
<path fill-rule="evenodd" clip-rule="evenodd" d="M74.3553 57.43L74.4905 58.0454C74.8174 57.7801 74.8848 57.3926 74.8753 56.9821C74.6887 57.1966 74.5804 57.3272 74.3553 57.43Z" fill="white"/>
<path fill-rule="evenodd" clip-rule="evenodd" d="M75.2764 58.5167C75.2809 58.6059 75.3038 58.6897 75.3547 58.7595C75.7191 58.8907 75.7565 59.333 76.0934 59.5011C76.312 59.5999 76.5651 59.4782 76.7557 59.3889C76.6115 59.2258 76.4483 59.1136 76.308 58.9416C76.2102 58.8997 76.1109 58.8388 76.1164 58.7176L75.2764 58.5167Z" fill="white"/>
<path fill-rule="evenodd" clip-rule="evenodd" d="M75.5659 60.7205C75.7241 60.9015 75.9388 60.9958 76.1629 61.0461C76.1259 60.9953 76.1868 61.0461 76.1958 61.0142L75.9153 60.3978C75.7751 60.4028 75.6298 60.4312 75.4995 60.4217C75.51 60.5245 75.5325 60.6267 75.5659 60.7205Z" fill="white"/>
<path fill-rule="evenodd" clip-rule="evenodd" d="M76.061 57.8454C75.9297 57.5422 75.8758 57.1726 75.8374 56.8375C75.6982 57.0056 75.5529 57.1133 75.4217 57.2848C75.3608 57.6299 75.8554 57.7142 76.061 57.8454Z" fill="white"/>
<path fill-rule="evenodd" clip-rule="evenodd" d="M76.6303 57.5272C76.7995 57.7476 77.1678 57.6728 77.3735 57.607C77.2751 57.4389 76.9587 57.3402 76.9028 57.1597C76.8708 56.8375 76.805 56.5238 76.7017 56.231C76.5384 56.627 76.3408 57.0988 76.6303 57.5272Z" fill="white"/>
<path fill-rule="evenodd" clip-rule="evenodd" d="M76.9249 58.5167C77.3922 58.8573 77.8505 59.2543 78.5035 59.1091C78.5504 59.0772 78.6303 59.0807 78.6393 59.0209C78.4476 58.8997 78.2424 58.8054 78.0462 58.6937L77.8225 58.3675H77.7197C77.4671 58.4508 77.1965 58.4847 76.9249 58.5167Z" fill="white"/>
<path fill-rule="evenodd" clip-rule="evenodd" d="M76.9344 62.3019H76.9678C77.2479 62.078 77.5794 62.0027 77.9109 61.9099C78.0003 61.9428 77.9438 62.0411 78.0237 62.078C78.2244 61.9947 78.4676 62.0126 78.6727 61.9428C78.9204 61.9518 79.1216 61.9563 79.3223 62.0635C79.482 62.274 79.7801 62.25 79.9863 62.3907L79.9528 62.0635C79.519 61.5548 78.8415 61.5179 78.2154 61.5274L78.2015 61.4621C78.0522 61.4621 77.8839 61.494 77.7436 61.5598C77.5434 61.5693 77.3512 61.667 77.1595 61.7274C77.0702 61.9049 76.9998 62.1209 76.9344 62.3019Z" fill="white"/>
<path fill-rule="evenodd" clip-rule="evenodd" d="M77.3097 56.5662C77.4914 56.8046 77.7624 56.9871 78.0709 56.9263C77.9127 56.7712 77.7295 56.6081 77.7205 56.3891C77.7674 55.9737 77.3097 55.9403 77.0856 55.7258C77.1605 56.0061 77.1505 56.3188 77.3097 56.5662Z" fill="white"/>
<path fill-rule="evenodd" clip-rule="evenodd" d="M77.2619 63.1278H77.3178C77.5649 62.9742 77.9249 63.0914 78.168 62.9278C78.3033 62.8575 78.3128 63.0445 78.4062 63.0958C78.6353 63.235 78.6638 63.6554 78.9858 63.5577C79.3727 63.7581 79.2753 64.2294 79.2893 64.5745L79.6493 64.3511C79.6163 64.1691 79.7197 63.9496 79.6023 63.7911C79.5135 63.5906 79.2704 63.5721 79.1535 63.409C79.2943 63.1707 78.9763 63.0579 78.9104 62.8854L78.9299 62.8625L79.4251 62.9278C79.5934 63.03 79.6543 63.217 79.7057 63.3901C80.0926 63.4554 80.186 63.8938 80.3218 64.1736C80.4016 63.9826 80.4341 63.7766 80.5135 63.5901C80.5185 63.436 80.3128 63.436 80.2099 63.3662C80.1825 63.1278 80.0746 62.9043 79.8644 62.7602C79.4346 62.6515 79.0567 62.4146 78.5849 62.4146L78.1925 62.5353C77.9768 62.5872 77.7481 62.5218 77.5844 62.6704C77.3408 62.6894 77.3228 62.9557 77.2619 63.1278Z" fill="white"/>
<path fill-rule="evenodd" clip-rule="evenodd" d="M77.509 61.2052L77.5984 61.2476C77.7901 61.1588 77.9813 61.0561 78.1825 60.9813C78.4945 60.893 78.7376 61.2476 79.0002 61.0232C79.0976 60.9539 79.1825 61.0561 79.2564 61.1125C79.3702 61.3174 79.6308 61.3035 79.8275 61.3588C79.7291 61.0935 79.6073 60.7294 79.2663 60.6871C79.1311 60.6267 78.9718 60.6317 78.8415 60.5519C78.4815 60.1554 78.2484 60.8791 77.8545 60.702C77.7152 60.8551 77.542 61.0007 77.509 61.2052Z" fill="white"/>
<path fill-rule="evenodd" clip-rule="evenodd" d="M77.5984 63.4784C77.7476 63.6045 77.9018 63.8195 78.1359 63.7911C78.4249 63.9262 78.3036 64.3092 78.4618 64.5102L78.63 64.3606L78.616 64.3506L78.6395 64.3277L78.6495 64.3406C78.6959 64.2015 78.6305 63.9541 78.5507 63.7901C78.4439 63.7158 78.3181 63.795 78.2148 63.7247C78.2008 63.5746 78.1075 63.5008 78.0002 63.408C77.9253 63.3512 77.827 63.426 77.7426 63.421L77.5984 63.4784Z" fill="white"/>
<path fill-rule="evenodd" clip-rule="evenodd" d="M78.1825 57.789C78.3362 58.0454 78.6352 58.2045 78.8737 58.3815C79.0704 58.4703 79.3264 58.4937 79.5371 58.4463C79.3359 58.2833 79.1532 58.0962 78.986 57.9007C78.9202 57.807 78.9062 57.6898 78.8178 57.6065C78.5982 57.6489 78.3502 57.6439 78.1825 57.789Z" fill="white"/>
<path fill-rule="evenodd" clip-rule="evenodd" d="M78.4401 56.1188C78.6547 56.3847 78.9866 56.2774 79.2901 56.2869V56.254L78.8229 55.862C78.6921 55.9034 78.5524 56.0201 78.4401 56.1188Z" fill="white"/>
<path fill-rule="evenodd" clip-rule="evenodd" d="M69.8391 51.7172L70.1096 52.5575C70.1046 52.0812 70.3252 51.6838 70.2783 51.199L70.4785 50.8998L70.0532 51.031C69.9414 51.2454 69.8481 51.4603 69.8391 51.7172Z" fill="white"/>
<path fill-rule="evenodd" clip-rule="evenodd" d="M70.0213 50.2609L70.3902 50.0465V49.4999C70.2349 49.5932 70.1516 49.7528 70.0303 49.8774L70.0213 50.2609Z" fill="white"/>
<path fill-rule="evenodd" clip-rule="evenodd" d="M77.5994 51.1103C77.5105 51.2265 77.3752 51.2554 77.2629 51.2778C77.4596 50.9192 77.5529 50.4195 77.3987 50.0131C77.501 49.9762 77.6133 49.9572 77.7112 49.9014L77.7017 49.8914L77.9588 49.6675C78.2998 49.4341 78.1685 48.9912 78.2948 48.6596C78.1271 48.3987 78.0756 48.0811 77.8325 47.8616L77.8465 47.8522C77.6548 47.6093 77.3093 47.6377 77.0477 47.5165C76.7012 47.3998 76.4351 47.6377 76.187 47.7963C76.0797 47.8152 76.1456 47.9549 76.0287 47.9499C75.9633 48.1225 75.8835 48.3095 75.8365 48.501C75.3742 48.4356 74.8745 48.487 74.5056 48.7483C74.3083 48.6032 74.0712 48.5758 73.8421 48.5105C73.6738 48.477 73.4826 48.5379 73.3613 48.4446C73.1841 48.2446 73.1456 47.8801 72.8416 47.8292C72.7342 47.7913 72.7118 47.6746 72.7118 47.5719C72.5106 47.5385 72.3323 47.4457 72.1371 47.4038C71.8381 47.2682 71.5999 47.4836 71.3758 47.6277C71.2769 47.6691 71.1651 47.6836 71.0717 47.7394C70.904 48.0013 70.7457 48.2671 70.6369 48.5563C70.6703 48.7942 70.7727 49.0037 70.8945 49.2052C71.0018 49.5084 71.3383 49.7468 71.6229 49.8685C71.4876 50.3303 71.4876 50.8803 71.6229 51.3471C71.6229 51.3471 71.6154 51.3536 71.6154 51.3521C71.6154 51.3536 71.6004 51.3661 71.6004 51.3661C71.5565 51.3661 71.5076 51.3756 71.4711 51.3531H71.4651C71.532 51.799 71.7417 52.189 72.0812 52.5236C72.203 52.5655 72.1746 52.7106 72.2255 52.8034C72.2584 52.8458 72.2634 52.934 72.2495 52.9715C71.5201 52.9485 70.8705 53.1305 70.2864 53.4617C70.1372 53.5365 70.2026 53.7415 70.1886 53.8866C70.6 53.6153 71.0433 53.4153 71.534 53.326C71.7442 53.3131 71.9819 53.2607 72.1836 53.3166L72.2065 53.719C71.6514 54.0088 71.0433 54.1763 70.5675 54.6526C70.5765 54.7967 70.5485 54.9643 70.5905 55.086L71.0163 54.7409C71.4272 54.4277 71.8571 54.1619 72.3283 53.9893C72.4552 54.1384 72.5859 54.298 72.7542 54.3908C73.0388 54.2083 73.3478 54.0731 73.6748 53.9893C73.8475 53.8866 74.1236 53.9799 74.2355 53.7749L74.3143 53.35C74.3014 53.3405 74.2914 53.3215 74.2679 53.326C74.0487 53.1999 73.9035 52.9809 73.9224 52.7246C73.8475 52.7615 73.7642 52.7854 73.6748 52.7889C73.6009 52.771 73.53 52.752 73.4976 52.6767C73.4931 52.584 73.4457 52.4438 73.54 52.3745C73.8431 52.1875 74.236 52.178 74.6189 52.2059C74.9034 52.2438 75.3148 52.2294 75.4137 52.5655C75.3997 52.6637 75.4087 52.7715 75.3103 52.8363C75.2075 52.8922 75.0912 52.8313 74.9973 52.7889C74.9229 53.0183 74.7966 53.2747 74.54 53.3495L74.572 53.6198C74.6039 53.7415 74.6139 53.942 74.8056 53.8996C75.2494 54.0078 75.6423 54.2362 76.0297 54.4831C76.161 54.3529 76.2634 54.2033 76.3563 54.0676C77.0487 54.302 77.6458 54.8197 78.2169 55.3009L78.2394 54.9085C77.6972 54.4272 77.0951 54.0871 76.4686 53.8213C76.4925 53.6951 76.5205 53.5734 76.5255 53.4377C77.2679 53.4801 77.9733 53.7091 78.5849 54.0676L78.5754 53.732C77.9309 53.3864 77.2254 53.158 76.4551 53.149C76.4261 53.1071 76.4172 53.0463 76.4221 53.0044C76.7961 52.944 77.0617 52.557 77.1511 52.2199C77.3433 52.001 77.6188 51.7626 77.5534 51.4364C77.5614 51.409 77.5709 51.3806 77.5809 51.3521C77.6054 51.2718 77.6263 51.1861 77.5994 51.1103Z" fill="white"/>
<path fill-rule="evenodd" clip-rule="evenodd" d="M78.2484 52.3102L78.6312 52.1885L78.6741 51.9745C78.7814 51.6613 78.5523 51.4279 78.44 51.1806L78.2484 52.3102Z" fill="white"/>
<path fill-rule="evenodd" clip-rule="evenodd" d="M79.2154 53.7888C79.3976 53.9898 79.5753 54.3115 79.8977 54.2137C79.8737 54.0781 79.7989 53.9659 79.753 53.8447C79.6691 53.747 79.6402 53.4667 79.4725 53.5649C79.3462 53.4811 79.3143 53.341 79.2339 53.2288C79.1975 53.4018 79.2204 53.6163 79.2154 53.7888Z" fill="white"/>
<path fill-rule="evenodd" clip-rule="evenodd" d="M79.2808 55.1563C79.3512 55.2541 79.3707 55.3807 79.4395 55.4695C79.5658 55.5528 79.753 55.5388 79.9077 55.5254C80.047 55.4925 80.1363 55.6461 80.2665 55.5578C80.1033 55.455 80.0055 55.2685 79.8518 55.1324C79.6691 54.9887 79.473 55.1149 79.2808 55.1563Z" fill="white"/>
<path fill-rule="evenodd" clip-rule="evenodd" d="M79.5289 57.3272C79.8513 57.5182 80.2606 57.7052 80.6908 57.6399C80.7373 57.617 80.8171 57.6215 80.8261 57.5656C80.5596 57.4718 80.2801 57.206 80.0006 57.1502C79.8463 56.9123 79.6452 57.211 79.4491 57.1921C79.4536 57.2474 79.5095 57.2893 79.5289 57.3272Z" fill="white"/>
<path fill-rule="evenodd" clip-rule="evenodd" d="M80.499 61.4481L80.5694 61.5972C80.6402 62.083 80.9472 62.5303 80.7795 63.0624C80.9197 63.1612 80.9617 63.3243 81.051 63.4549H81.074C81.1813 63.0495 81.1069 62.6291 81.051 62.2226C81.0929 61.854 80.7186 61.6396 80.499 61.4481Z" fill="white"/>
<path fill-rule="evenodd" clip-rule="evenodd" d="M80.5799 56.6689C80.8224 56.8559 81.2102 56.8739 81.4902 56.7811C81.313 56.6834 81.1169 56.5752 80.9717 56.445L80.5799 56.6689Z" fill="white"/>
<path fill-rule="evenodd" clip-rule="evenodd" d="M81.7331 58.1012C81.7102 58.2977 81.8404 58.4608 81.9807 58.5595C82.0321 58.4433 82.1154 58.3441 82.1249 58.2139C82.083 58.0135 81.9707 57.8309 81.7885 57.6953C81.7566 57.8259 81.7186 57.9521 81.7331 58.1012Z" fill="white"/>
<path fill-rule="evenodd" clip-rule="evenodd" d="M81.7471 60.2302C81.7137 60.4492 81.9567 60.4776 82.059 60.5988C82.1434 60.7015 82.0031 60.7718 82.0031 60.8696C82.1808 61.098 82.2841 61.3583 82.2841 61.6625C82.3535 61.3783 82.4608 61.1075 82.4987 60.8137C82.4798 60.6078 82.1534 60.6507 82.2043 60.4217C82.2981 60.1883 82.1858 59.9599 82.1249 59.749C82.1069 59.7171 82.064 59.6512 82.0276 59.6707C81.9427 59.8612 81.7331 59.9968 81.7471 60.2302Z" fill="white"/>
<path fill-rule="evenodd" clip-rule="evenodd" d="M82.3871 59.1191L82.6297 59.5904C82.737 59.5764 82.8069 59.4737 82.8907 59.3989C82.9561 59.2029 82.7829 59.0767 82.7325 58.9176C82.6901 58.8054 82.7325 58.6568 82.6526 58.559C82.5918 58.5211 82.5224 58.4603 82.4525 58.4793L82.3871 59.1191Z" fill="white"/>
<path fill-rule="evenodd" clip-rule="evenodd" d="M82.6992 57.8773C82.8914 57.994 83.1105 58.1616 83.2139 58.3675C83.3771 58.8438 83.6387 59.2722 83.8299 59.7345C83.9003 60.0567 83.9563 60.3444 84.0446 60.6611C84.0781 60.7454 84.0591 60.9085 84.1904 60.8945C84.2268 60.5399 84.2972 60.1988 84.3022 59.8303C84.1854 59.6762 84.0316 59.6113 83.8864 59.5181V59.4852C83.9053 59.4064 83.9712 59.3121 84.0686 59.3271C84.11 59.2802 84.2368 59.2338 84.1809 59.1495C83.9378 58.9071 83.9518 58.4897 83.5648 58.4144C83.4291 58.3586 83.3966 58.2179 83.3826 58.0883C83.1999 57.9332 82.9293 57.8823 82.6992 57.8773Z" fill="white"/>
<path fill-rule="evenodd" clip-rule="evenodd" d="M82.9248 60.4073C83.1624 60.6262 83.079 60.9439 83.0601 61.2381C83.0231 61.4157 83.2467 61.3119 83.3171 61.4062C83.4623 61.6207 83.378 61.9338 83.3271 62.1667C83.4534 61.9747 83.5976 61.8072 83.6954 61.5967C83.6914 61.5179 83.7938 61.48 83.7893 61.3818C83.8307 61.2466 83.6725 61.3075 83.6066 61.2935C83.5507 61.2795 83.4903 61.2421 83.5093 61.1673C83.6295 60.9339 83.5182 60.6541 83.4713 60.4207C83.4154 60.2292 83.4953 59.9724 83.4054 59.8043C83.2557 60.0108 82.8115 60.0572 82.9248 60.4073Z" fill="white"/>
<path fill-rule="evenodd" clip-rule="evenodd" d="M83.3587 57.0938C83.7749 57.5142 84.0784 57.9362 84.5266 58.3426C84.536 58.1601 84.5126 57.9925 84.5036 57.815C84.4382 57.6888 84.3164 57.596 84.2131 57.5018C83.8817 57.4699 83.709 57.0235 83.3587 57.0938Z" fill="white"/>
<path fill-rule="evenodd" clip-rule="evenodd" d="M84.4465 59.3176C84.4565 59.3605 84.4755 59.3974 84.4944 59.4388C84.6761 59.738 84.8493 60.0462 84.9756 60.3679C84.9376 60.0223 85.1712 59.5934 84.8623 59.3271C84.8208 59.2144 84.6816 59.2523 84.5918 59.2612L84.4465 59.3176Z" fill="white"/>
<path fill-rule="evenodd" clip-rule="evenodd" d="M85.5683 62.7268C85.6991 62.7876 85.8674 62.6804 85.9937 62.6056C86.1105 62.5777 86.2084 62.6435 86.2977 62.7039C86.3347 62.7782 86.2977 62.8485 86.3117 62.9188C86.5918 62.9976 86.8669 63.1008 87.1145 63.2639L87.1934 63.1846C87.2123 62.9841 87.0541 62.839 86.9038 62.7268C86.8064 62.6709 86.6607 62.7039 86.5913 62.6151C86.6382 62.5403 86.6382 62.4281 86.6332 62.3443C86.4789 62.3443 86.3806 62.2969 86.2553 62.2231C86.1754 62.1997 86.105 62.1338 86.0396 62.2231C85.8065 62.3812 85.7925 62.6151 85.5683 62.7268Z" fill="white"/>
<path fill-rule="evenodd" clip-rule="evenodd" d="M85.8963 56.8539C86.0126 56.8205 86.1344 56.7881 86.2322 56.7038C86.5456 56.4191 86.9983 56.6106 87.3632 56.6061C87.2928 56.4799 87.194 56.3537 87.1056 56.2465C86.9744 56.1951 86.8531 56.1348 86.7038 56.1348C86.3859 55.9478 86.1718 56.261 85.9282 56.4146C85.8624 56.5407 85.8304 56.7273 85.8963 56.8539Z" fill="white"/>
<path fill-rule="evenodd" clip-rule="evenodd" d="M85.9043 57.815C85.9043 57.8005 85.9043 57.786 85.9183 57.7825C85.9612 57.8195 85.9138 57.9092 85.9842 57.9272C86.1055 57.8663 86.2178 57.7825 86.3297 57.7033C86.6427 57.7033 86.8299 57.3995 87.1375 57.3995C87.6522 57.4933 88.1614 57.5965 88.6092 57.8474C88.5773 57.5452 88.3147 57.2689 88.0491 57.1337C87.8988 57.0824 87.782 57.1616 87.6751 57.2459C87.3626 57.4424 87.5259 56.9612 87.3067 56.9517C87.0211 57.04 86.7266 57.1387 86.409 57.1098C86.2223 57.1806 86.091 57.3527 85.8809 57.3337C85.8724 57.4888 85.8494 57.6758 85.9043 57.815Z" fill="white"/>
<path fill-rule="evenodd" clip-rule="evenodd" d="M86.12 58.8553C86.2178 58.959 86.3811 58.9401 86.5219 58.959L86.9283 58.7994C86.9328 58.7261 86.807 58.7062 86.8349 58.6224C86.9472 58.4962 87.1005 58.5855 87.2413 58.5341C87.437 58.5057 87.6382 58.3107 87.8344 58.4543C87.8284 58.4783 87.8429 58.5102 87.8244 58.5341C87.764 58.6787 87.8664 58.7675 87.9787 58.8234C88.2078 58.8653 88.422 59.0757 88.6512 58.9815C88.6282 58.79 88.5773 58.6139 88.5303 58.4309C88.3386 58.3985 88.2028 58.2399 88.0256 58.174C87.9467 58.2488 87.8429 58.3047 87.745 58.2952C87.3851 58.2109 86.9547 57.987 86.5908 58.2159C86.46 58.375 86.2263 58.3281 86.0486 58.398C86.0591 58.5566 86.0776 58.7112 86.12 58.8553Z" fill="white"/>
<path fill-rule="evenodd" clip-rule="evenodd" d="M86.2742 61.6301C86.2463 61.7094 86.1669 61.8396 86.3122 61.8775C86.6106 61.8865 86.9939 61.7324 87.2275 61.9658C87.3069 62.0266 87.269 62.1528 87.264 62.2321L87.6563 62.5587C87.6937 62.3617 87.7646 62.1847 87.7696 61.9747C87.7366 61.8251 87.6618 61.681 87.531 61.5832C87.2734 61.5832 87.1247 61.2825 86.8482 61.3194C86.704 61.2875 86.5777 61.4157 86.4325 61.4157C86.3681 61.4805 86.3301 61.5603 86.2742 61.6301Z" fill="white"/>
<path fill-rule="evenodd" clip-rule="evenodd" d="M86.3861 59.4293C86.4465 59.5555 86.5174 59.7609 86.6337 59.7744C86.9093 59.6542 87.3117 59.5789 87.6197 59.7101C87.7221 59.728 87.7221 59.8447 87.6996 59.9195C87.8579 60.0128 88.0496 60.0876 88.2178 60.1898L88.1709 59.9096C88.1614 59.6063 87.779 59.5789 87.755 59.2797C87.442 59.1775 87.0915 59.144 86.76 59.2238C86.6527 59.3216 86.4979 59.3086 86.3681 59.336C86.3586 59.3734 86.3811 59.3974 86.3861 59.4293Z" fill="white"/>
<path fill-rule="evenodd" clip-rule="evenodd" d="M86.4655 60.9419C86.6476 60.89 86.7649 60.6901 86.9611 60.6711C87.2595 60.6761 87.526 60.7978 87.7132 61.0551C87.825 61.1284 87.8016 61.3199 87.9468 61.3199C87.9039 61.0915 87.9787 60.8821 87.9693 60.6477C87.7741 60.3215 87.288 60.5739 87.1058 60.1903L86.7604 60.2138C86.5124 60.2751 86.5782 60.5644 86.5458 60.7609C86.5174 60.8207 86.4615 60.8676 86.4655 60.9419Z" fill="white"/>
<path fill-rule="evenodd" clip-rule="evenodd" d="M88.1809 62.9836C88.3251 63.2729 88.6435 63.4923 88.6755 63.8235C88.7498 63.7352 88.8018 63.6325 88.8527 63.5342C88.8477 63.441 88.7404 63.441 88.6989 63.3661C88.656 63.245 88.7214 63.1377 88.7404 63.03C88.6795 62.8575 88.5342 62.6944 88.3715 62.5911L88.1809 62.9836Z" fill="white"/>
<path fill-rule="evenodd" clip-rule="evenodd" d="M88.7555 62.246L89.0914 62.7039C89.2356 62.4754 89.2356 62.1388 89.1797 61.8635C89.1478 61.8117 89.0864 61.7279 89.003 61.7658C88.8768 61.8959 88.8578 62.0969 88.7555 62.246Z" fill="white"/>
<path fill-rule="evenodd" clip-rule="evenodd" d="M87.3861 49.471C87.5074 49.5318 87.6242 49.5877 87.7699 49.5972C87.8672 49.5458 87.994 49.5079 88.1153 49.5413C88.2879 49.6535 88.4981 49.5179 88.6992 49.5273C88.5215 49.3593 88.3199 49.256 88.1153 49.1583C87.8532 49.2136 87.6436 49.4007 87.3861 49.471Z" fill="white"/>
<path fill-rule="evenodd" clip-rule="evenodd" d="M89.2128 49.9088C89.4604 49.9323 89.6385 50.1517 89.8057 50.3338C90.0159 50.3657 90.1746 50.5158 90.3003 50.6694L90.222 50.4225C90.1661 50.1747 90.0109 49.9832 89.8527 49.7872C89.6286 49.8016 89.4085 49.8211 89.2128 49.9088Z" fill="white"/>
<path fill-rule="evenodd" clip-rule="evenodd" d="M71.7777 47.8621L71.9135 47.8766C72.2769 48.0586 72.8655 48.1519 72.8995 48.679C72.5295 48.8241 72.1746 49.0196 71.88 49.3184C71.6564 49.09 71.203 49.2156 71.1277 48.8147C71.1986 48.4356 71.3333 47.9594 71.7777 47.8621Z" fill="#FF6600"/>
<path fill-rule="evenodd" clip-rule="evenodd" d="M72.1286 50.229C72.554 50.1911 72.9649 50.2515 73.4042 50.2146C73.511 50.2609 73.6229 50.3537 73.6748 50.4614C73.6603 50.9656 73.5065 51.4469 73.4836 51.9645C73.2919 52.0433 73.1047 52.2029 73.0577 52.4124C72.885 52.4638 72.7302 52.566 72.562 52.6453C72.4886 52.4872 72.5016 52.2488 72.6329 52.1177C72.8151 51.8613 73.2874 51.9212 73.2499 51.5152C73.3713 51.3197 73.2549 51.0674 73.2584 50.8624C73.212 50.7078 73.1651 50.9138 73.0907 50.9088C72.9414 50.9407 72.7876 50.9502 72.6563 50.8754C72.558 50.7726 72.4377 50.6883 72.4087 50.5492C72.2774 50.4839 72.1241 50.3816 72.0582 50.246L72.1286 50.229Z" fill="#FF6600"/>
<path fill-rule="evenodd" clip-rule="evenodd" d="M72.6424 53.2707C72.842 53.2996 73.0531 53.2098 73.2258 53.3086C73.1894 53.3744 73.0906 53.4018 73.0112 53.4208L72.6978 53.5649C72.5815 53.5375 72.6469 53.3505 72.6424 53.2707Z" fill="#FF6600"/>
<path fill-rule="evenodd" clip-rule="evenodd" d="M73.4595 49.3742C73.6597 49.3089 73.8753 49.1742 74.0899 49.2386C73.9362 49.3932 73.8149 49.5932 73.6981 49.7802L73.0582 49.7662C73.1286 49.5976 73.3058 49.4585 73.4595 49.3742Z" fill="#FF6600"/>
<path fill-rule="evenodd" clip-rule="evenodd" d="M75.3332 49.2206C75.5992 49.1742 75.5847 49.5194 75.8278 49.5323C75.8707 49.5882 75.9316 49.6395 75.9076 49.7238C75.7669 49.7797 75.5618 49.7528 75.4031 49.7892C75.1924 49.6725 75.3287 49.3084 74.9968 49.3318C74.9783 49.3034 74.9414 49.2476 74.9873 49.2291C75.0901 49.1922 75.2264 49.2062 75.3332 49.2206Z" fill="#FF6600"/>
<path fill-rule="evenodd" clip-rule="evenodd" d="M75.165 50.4704C75.2819 50.3068 75.4596 50.2934 75.6278 50.2609L76.838 50.2834C76.8894 50.3308 76.7911 50.3727 76.7911 50.4285C76.7167 50.4988 76.6089 50.5178 76.5435 50.5826C76.3847 50.5871 76.3987 50.7741 76.2868 50.8539C76.1136 51.0265 75.861 50.9467 75.6603 50.9192C75.5904 50.8674 75.511 50.7976 75.4776 50.7183L75.4217 50.7741C75.492 51.0359 75.4736 51.3252 75.5255 51.591L75.8151 51.7825C75.8195 52.2114 76.3243 52.0947 76.5435 52.3331C76.492 52.4877 76.3892 52.6179 76.2774 52.7485C76.1001 52.576 75.8984 52.4643 75.6843 52.389C75.6653 52.1381 75.3897 51.988 75.2364 51.8623C75.1935 51.4045 75.1845 50.9377 75.1101 50.4943L75.165 50.4704Z" fill="#FF6600"/>
<path fill-rule="evenodd" clip-rule="evenodd" d="M75.6044 53.3505H76.1654L76.095 53.6442L75.5335 53.4063C75.5205 53.3599 75.5714 53.346 75.6044 53.3505Z" fill="#FF6600"/>
<path fill-rule="evenodd" clip-rule="evenodd" d="M76.6134 48.0631L77.0292 47.9324C77.2679 48.0442 77.4915 48.1838 77.7112 48.3429C77.8839 48.6601 77.8565 49.0895 77.7766 49.444C77.6503 49.5837 77.3747 49.444 77.2724 49.668H77.2529C77.0991 49.2296 76.6598 48.8366 76.2534 48.6371C76.3188 48.4127 76.3892 48.1933 76.6134 48.0631Z" fill="#FF6600"/>
</g>
<rect x="1" y="1" width="110" height="110" rx="9" stroke="#CCCCCC" stroke-width="2"/>
<defs>
<clipPath id="clip0_528_54">
<rect x="2" y="2" width="108" height="108" rx="8" fill="white"/>
</clipPath>
</defs>
</svg>
