<svg width="112" height="112" viewBox="0 0 112 112" fill="none" xmlns="http://www.w3.org/2000/svg">
<g clip-path="url(#clip0_421_542)">
<rect x="2" y="2" width="108" height="108" rx="8" fill="white"/>
<path d="M73.4356 53.8918V52.4407H75.6315C76.3133 52.4407 76.3535 52.7818 76.3535 53.137C76.3535 53.538 76.2761 53.8918 75.6315 53.8918H73.4356ZM73.4356 54.7753H75.7688C75.9161 54.7756 76.5831 54.7133 76.5831 55.5345C76.5831 56.3578 76.0469 56.3144 75.8118 56.3144H73.4356V54.7753ZM72.421 51.5125V57.2426H76.0582C76.9242 57.2426 77.6476 56.9535 77.6476 55.6835C77.6418 54.9095 77.3761 54.4032 76.4348 54.2752C76.4348 54.2752 77.4366 54.1902 77.4366 52.9849C77.4366 51.6374 76.612 51.5125 76.0885 51.5125H72.421Z" fill="black"/>
<path d="M49.3855 54.4523C49.3855 54.4523 50.2518 54.3236 50.2518 53.0677C50.2518 51.8163 49.0286 51.5031 48.4215 51.5031H44.9395V57.2429H46.0137V52.3707H48.1685C48.3406 52.3707 49.1859 52.3143 49.1859 53.1943C49.1859 54.1098 48.1926 54.0238 48.1926 54.0238H46.8469V54.8915H48.1789C48.5609 54.8915 49.0992 54.8846 49.0992 55.7681V57.2429H50.1586V55.6562C50.1586 54.6316 49.3855 54.4523 49.3855 54.4523Z" fill="black"/>
<path d="M55.5237 51.5031V55.2707C55.5237 56.0024 55.3637 56.454 53.8496 56.454C52.337 56.454 52.1394 56.0283 52.1394 55.2707V51.5031H51.058V55.4081C51.058 56.0448 51.0921 57.3619 53.8173 57.3619C56.5466 57.3619 56.5996 56.1288 56.5996 55.4081V51.5031H55.5237Z" fill="black"/>
<path d="M59.2735 53.8191C58.6678 53.7537 58.4168 53.5757 58.4168 53.1844C58.4168 52.7122 58.6099 52.2892 60.0179 52.2892C61.4693 52.2892 61.6562 52.6754 61.6562 53.416H62.6929C62.6929 52.7938 62.664 51.4043 60.05 51.4043C57.51 51.4043 57.3874 52.6296 57.3874 53.3169C57.3874 54.0049 57.9119 54.5219 58.8598 54.6286C60.6664 54.832 61.8207 54.7783 61.8207 55.5117C61.8207 56.0383 61.6641 56.4647 60.1587 56.4647C58.6533 56.4647 58.4568 56.0765 58.4568 55.3293H57.3874C57.3874 55.9602 57.4167 57.362 60.126 57.362C62.8364 57.362 62.8939 55.9953 62.8939 55.4625C62.8939 53.9068 60.877 53.9884 59.2735 53.8191Z" fill="black"/>
<path d="M33.196 57.3641C35.9201 57.3641 35.9167 55.9616 35.9167 55.3889V51.5031H33.3719V52.3567H34.8418V55.2498C34.8418 56.0996 34.4884 56.4675 33.1812 56.4675C31.5526 56.4675 31.5474 55.8666 31.5474 54.8485H30.5582C30.5582 55.786 30.3397 57.3641 33.196 57.3641Z" fill="black"/>
<path d="M40.9084 52.3713V57.2451H41.9857V52.3713H44.2146V51.5033H38.6844V52.3713H40.9084Z" fill="black"/>
<path d="M65.4227 52.3713V57.2451H66.4993V52.3713H68.7264V51.5033H63.1942V52.3713H65.4227Z" fill="black"/>
<path d="M79.8493 55.0556L80.823 52.4027L81.7946 55.0556H79.8493ZM82.1377 55.9697L82.6127 57.2425H83.8235L81.5471 51.5127H80.1071L77.8208 57.2425H79.0446L79.5155 55.9697H82.1377Z" fill="black"/>
<path d="M91.7672 51.5125H90.7072V57.2437H91.7672V51.5125ZM95.9999 57.2427L93.2086 54.29L95.8677 51.5125H94.4704L91.897 54.29L94.5695 57.2427H95.9999Z" fill="black"/>
<path d="M88.0179 57.2426H89.6857V51.5128H88.6343V56.2562L85.9518 51.5128H84.2819V57.2426H85.3443V52.5336L88.0179 57.2426Z" fill="black"/>
<path d="M27.8283 54.0842C27.8283 51.8292 25.926 49.9999 23.5801 49.9999C21.9704 49.9999 20.5693 50.8593 19.8486 52.1248C19.9746 52.1152 20.1036 52.1093 20.2327 52.1093C22.5796 52.1093 24.4819 53.9376 24.4819 56.1943C24.4819 56.9075 24.2939 57.5738 23.9625 58.1561C26.128 57.971 27.8283 56.2191 27.8283 54.0842Z" fill="#009EE3"/>
<path d="M23.3057 58.7295C23.2592 58.7629 23.2076 58.7887 23.157 58.8159C23.0365 58.8771 22.913 58.9305 22.7815 58.9752C22.6049 59.0358 22.4218 59.075 22.2425 59.0991C21.4502 59.1958 20.6689 58.9377 20.1231 58.4287C19.8753 58.1984 19.6791 57.9162 19.5521 57.5934C19.1704 56.6173 19.5401 55.5572 20.3881 54.9491C19.0981 55.4082 18.4225 56.7629 18.849 58.006C18.8152 57.9585 18.7849 57.91 18.754 57.8622C17.9579 56.5209 18.4184 54.8118 19.7851 54.0442C21.0926 53.3129 22.7536 53.708 23.5951 54.9157C23.5886 54.9071 23.5844 54.8985 23.5793 54.8906C22.6049 53.2464 20.4552 52.6772 18.7829 53.6157C17.8037 54.162 17.2062 55.1019 17.0699 56.1144C16.9901 55.845 16.947 55.56 16.947 55.265C16.947 53.6595 18.2103 52.3341 19.8486 52.1248C17.6872 52.3182 15.9999 54.0625 15.9999 56.1884C15.9999 58.4421 17.9018 60.2707 20.2449 60.2707C21.8557 60.2707 23.2547 59.4089 23.9751 58.1378C23.7947 58.3695 23.57 58.5719 23.3057 58.7295Z" fill="#009EE3"/>
<path d="M70.9362 58.4254V59.4669C71.6886 59.66 72.3934 59.9835 73.0635 60.3617L72.7693 60.9451C72.3845 60.6932 71.4377 60.1893 70.9362 60.0592V62.1297H70.3181V58.4254H70.9362Z" fill="black"/>
<path d="M77.4268 59.5761C77.2795 60.8905 76.8342 61.89 74.5685 62.079L74.4002 61.5586C76.3021 61.4743 76.6049 60.7184 76.7436 60.101H73.8942V59.5761H77.4268ZM77.1756 59.1056H74.2009V58.5808H77.1756V59.1056Z" fill="black"/>
<path d="M78.2832 61.6298C79.252 61.2687 80.2419 60.4162 80.7175 59.2068H78.5344V58.6692H81.4915C81.4351 58.9418 81.3053 59.5719 80.6962 60.4117C81.2234 60.8065 81.686 61.193 82.1355 61.6256L81.6471 62.092C81.2492 61.6421 80.8128 61.2267 80.3499 60.8361C79.8701 61.3733 79.2995 61.8273 78.6246 62.0961L78.2832 61.6298Z" fill="black"/>
<path d="M84.5578 58.4254V59.4669C85.3098 59.66 86.0147 59.9835 86.6848 60.3617L86.3909 60.9451C86.0061 60.6932 85.0589 60.1893 84.5578 60.0592V62.1297H83.9393V58.4254H84.5578Z" fill="black"/>
<path d="M88.9511 61.9448C88.6654 61.9992 87.8704 62.1293 87.3125 62.184L87.2519 61.6929C87.3903 61.6805 87.5462 61.6716 87.974 61.6213V60.5337H87.2691V60.0715H87.974V59.7652H87.5806V59.5215C87.4939 59.5969 87.4461 59.6347 87.3511 59.7019L87.1958 59.177C87.5672 58.9251 87.7747 58.6814 87.9781 58.2952H88.5058C88.7047 58.6397 88.8603 58.8201 89.1755 59.0342L88.8778 59.4627C88.8472 59.4417 88.8344 59.4289 88.821 59.4207V59.7652H88.4321V60.0715H89.0637V60.5337H88.4321V61.5625C88.5274 61.5501 89.0117 61.4785 89.0637 61.4702L89.0719 61.718C89.1108 61.7139 89.137 61.7139 89.2103 61.7012V58.3961H91.1907V60.3406H90.4211C90.4383 60.4625 90.4648 60.6008 90.5464 60.8111C90.8014 60.6466 90.9353 60.5041 91.0261 60.4033L91.3376 60.8022C91.2598 60.8738 91.0912 61.0293 90.758 61.2138C90.9745 61.5291 91.2168 61.7056 91.3941 61.8316L91.0606 62.2849C90.8148 62.1128 90.153 61.655 89.9544 60.3406H89.7207V61.6213C90.0404 61.5625 90.1619 61.5377 90.3216 61.4995V61.9786C89.7166 62.1293 89.1845 62.205 88.9855 62.2343L88.9511 61.9448ZM87.7056 60.7058C87.7493 60.8569 87.8136 61.1846 87.8356 61.4282L87.4381 61.504C87.4333 61.1636 87.3425 60.8359 87.3256 60.7733L87.7056 60.7058ZM88.7133 59.3243C88.471 59.0971 88.3412 58.8958 88.2466 58.7402C88.164 58.8748 88.0735 59.0342 87.7882 59.3243H88.7133ZM89.0117 60.7268C88.9814 60.9577 88.947 61.1636 88.8819 61.3862L88.5488 61.3233C88.6094 61.0586 88.631 60.924 88.6482 60.6807L89.0117 60.7268ZM89.7207 59.177H90.6806V58.8452H89.7207V59.177ZM89.7207 59.9077H90.6806V59.5635H89.7207V59.9077Z" fill="black"/>
<path d="M93.1239 58.4212C92.9642 58.7444 92.5708 59.2861 92.0215 59.6224L91.7448 59.1099C91.9049 59.0218 92.2807 58.8119 92.6397 58.2447L93.1239 58.4212ZM93.254 59.3409C93.1886 59.4796 93.085 59.715 92.7866 60.1049V62.2595H92.2418V60.7017C92.0821 60.8446 92.0215 60.8821 91.9307 60.9409L91.7534 60.3321C92.2074 60.0254 92.5533 59.5969 92.8083 59.1185L93.254 59.3409ZM95.8825 59.6138V60.1221H95.2509V61.8692C95.2509 62.1548 95.1428 62.2557 94.8186 62.2557H93.9537L93.8587 61.7012H94.5632C94.6634 61.7012 94.702 61.6847 94.702 61.5794V60.1221H93.2234V59.6138H95.8825ZM95.7186 58.9588H93.401V58.4546H95.7186V58.9588Z" fill="black"/>
<path d="M66.9151 62.2241C68.6649 62.2241 68.6622 61.3189 68.6622 60.95V58.4396H67.028V58.9916H67.9724V60.8584C67.9724 61.4084 67.7449 61.6469 66.9058 61.6469C65.8582 61.6469 65.854 61.2577 65.854 60.5999H65.2187C65.2187 61.206 65.0779 62.2241 66.9151 62.2241Z" fill="black"/>
</g>
<rect x="1" y="1" width="110" height="110" rx="9" stroke="#CCCCCC" stroke-width="2"/>
<defs>
<clipPath id="clip0_421_542">
<rect x="2" y="2" width="108" height="108" rx="8" fill="white"/>
</clipPath>
</defs>
</svg>
