<svg width="112" height="112" viewBox="0 0 112 112" fill="none" xmlns="http://www.w3.org/2000/svg">
<g clip-path="url(#clip0_6_7374)">
<rect x="2" y="2" width="108" height="108" rx="8" fill="white"/>
<path d="M29.7009 43.0542C28.5932 42.8267 27.441 43.36 26.8579 44.3693C26.7202 44.6084 26.6209 44.8655 26.5582 45.13C26.301 44.1006 25.492 43.2658 24.4644 43.0542C23.3567 42.8267 22.2035 43.36 21.6203 44.3693C21.4826 44.6084 21.3834 44.8655 21.3206 45.13C21.0625 44.1016 20.2545 43.2658 19.2268 43.0542C18.1192 42.8267 16.966 43.36 16.3828 44.3693C15.7976 45.3829 15.8907 46.7118 16.6116 47.6248C17.3315 48.5368 18.5515 48.8913 19.6176 48.4903C20.4671 48.1708 21.1009 47.4153 21.3216 46.5224C21.4168 46.9202 21.592 47.2989 21.8491 47.6248C22.569 48.5368 23.789 48.8913 24.8552 48.4903C25.7047 48.1708 26.3385 47.4153 26.5592 46.5224C26.6544 46.9202 26.8295 47.2989 27.0867 47.6248C27.8065 48.5368 29.0266 48.8913 30.0927 48.4903C31.1548 48.0903 31.8828 47.008 31.8828 45.8283C31.8817 44.4963 30.9533 43.3124 29.7009 43.0542Z" fill="#FDAF27"/>
<path d="M21.0591 56.7879C21.3345 58.0184 22.0362 59.1663 23.2643 59.5176C24.4307 59.8509 25.7307 59.3102 26.3311 58.2067C26.6915 57.5444 26.6459 56.7953 26.6429 56.0621C26.6409 55.568 26.6378 55.075 26.6389 54.5809C26.6389 54.0371 26.6389 53.4932 26.6419 52.9505C26.6449 52.2543 26.6257 51.5783 26.9578 50.9466C27.4164 50.0727 28.3287 49.5352 29.2814 49.5744C30.2433 49.6146 31.1201 50.2452 31.5028 51.1688C31.7569 51.7824 31.7134 52.4479 31.7154 53.1007C31.7174 53.6393 31.7174 54.1789 31.7174 54.7174C31.7174 55.8812 31.7873 57.0947 31.5706 58.2405C31.0695 60.893 29.3108 63.2016 26.9274 64.2648C24.5441 65.3283 21.7213 65.0435 19.5728 63.5306C18.5138 62.7847 17.641 61.7532 17.0659 60.5608C16.4979 59.3811 16.1537 57.9073 16.3714 56.5869C16.5344 55.6029 17.2785 54.7988 18.2151 54.5978C19.1881 54.3894 20.2066 54.8592 20.7139 55.751C20.8981 56.0737 20.9781 56.425 21.0591 56.7879Z" fill="#FDAF27"/>
<path d="M95.9999 56.6061C95.9999 60.2097 93.1741 63.0866 89.6061 63.0866C86.0625 63.0866 83.2844 60.2341 83.2844 56.6061C83.2844 52.9782 86.0625 50.1502 89.6295 50.1502C93.1752 50.1502 95.9999 53.0026 95.9999 56.6061ZM86.5657 56.6305C86.5657 58.5825 87.8587 59.9833 89.6305 59.9833C91.379 59.9833 92.6952 58.5571 92.6952 56.6305C92.6952 54.6785 91.3781 53.2279 89.6305 53.2279C87.8587 53.2279 86.5657 54.6541 86.5657 56.6305Z" fill="black"/>
<path d="M44.8548 59.0412C45.4562 59.402 46.0344 59.7712 46.7553 59.7268C47.4457 59.6845 48.0765 59.3068 48.4694 58.7132C48.8349 58.162 48.8267 57.5325 48.8267 56.8945C48.8267 55.8174 48.8267 48.442 48.8267 47.9056C48.8267 47.5343 48.8076 47.1671 48.9442 46.8127C49.3501 45.7621 50.6654 45.4235 51.4916 46.1589C51.9339 46.5524 52.0597 47.0931 52.0597 47.6697C52.0597 48.8303 52.0919 56.8649 52.0514 57.6616C51.9785 59.0994 51.353 60.4917 50.3697 61.4958C49.3513 62.5369 47.9549 63.1092 46.5346 63.1083C45.1707 63.1072 43.7299 62.5601 42.837 61.4471C42.4786 60.9996 42.2701 60.4706 42.4108 59.8844C42.5464 59.3195 42.9828 58.8677 43.5265 58.7344C44.0205 58.6159 44.4357 58.7894 44.8548 59.0412Z" fill="black"/>
<path d="M67.2548 60.0797L67.2569 60.0786C66.7607 59.7644 66.454 59.2057 66.4449 58.5995V51.8399C66.4449 50.9067 65.7209 50.1513 64.828 50.1513C64.0098 50.1513 63.3367 50.7861 63.2282 51.6103C62.4123 50.6909 61.177 50.1513 59.6947 50.1513C56.3667 50.1513 53.948 52.8788 53.948 56.6316C53.948 60.3854 56.3667 63.1119 59.6947 63.1119C59.7099 63.1119 59.7251 63.1109 59.7402 63.1109C59.7556 63.1109 59.7708 63.1119 59.7859 63.1119C61.3826 63.1119 62.7677 62.4835 63.7781 61.4159C64.2944 62.2549 65.1276 62.8696 66.1239 63.0579C66.2212 63.0759 66.3184 63.0854 66.4136 63.0854C66.4196 63.0854 66.4256 63.0845 66.4306 63.0834C66.4378 63.0834 66.446 63.0845 66.4529 63.0845C67.3095 63.0845 68.0031 62.3596 68.0031 61.4646C68.004 60.8763 67.7033 60.3632 67.2548 60.0797ZM60.294 60.0342C58.4981 60.0342 57.2293 58.608 57.2293 56.6316C57.2293 54.6542 58.5222 53.2036 60.294 53.2036C62.066 53.2036 63.287 54.6044 63.287 56.6316C63.287 58.6577 62.0893 60.0342 60.294 60.0342Z" fill="black"/>
<path d="M81.5216 51.8515C81.5216 50.876 80.8512 50.1502 79.9411 50.1502C79.1028 50.1502 78.4325 50.8008 78.3605 51.7012C77.5467 50.7257 76.277 50.1502 74.745 50.1502C71.417 50.1502 68.9983 52.8777 68.9983 56.6305C68.9983 60.3833 71.417 63.1107 74.745 63.1107C76.2395 63.1107 77.4747 62.5702 78.2888 61.6116V62.0136C78.2775 64.0334 77.0777 65.3876 75.2958 65.3876C74.5325 65.3876 73.8461 65.1338 73.3114 64.6545C73.112 64.4756 72.9357 64.2661 72.787 64.0323C72.2929 63.2557 71.2894 63.0451 70.5464 63.5615C69.8032 64.0778 69.6018 65.1263 70.0958 65.9029C70.4087 66.3939 70.7823 66.8361 71.2064 67.2169C72.3354 68.2305 73.7498 68.7658 75.2969 68.7658C78.8638 68.7658 81.4618 65.977 81.5195 62.1162L81.5225 61.3852C81.5225 61.3852 81.5225 61.3852 81.5225 61.3841L81.5216 51.8515ZM75.3445 60.0341C73.5484 60.0341 72.2798 58.6079 72.2798 56.6315C72.2798 54.6552 73.5727 53.2036 75.3445 53.2036C77.1163 53.2036 78.3373 54.6044 78.3373 56.6315C78.3373 58.6576 77.1396 60.0341 75.3445 60.0341Z" fill="black"/>
</g>
<rect x="1" y="1" width="110" height="110" rx="9" stroke="#CCCCCC" stroke-width="2"/>
<defs>
<clipPath id="clip0_6_7374">
<rect x="2" y="2" width="108" height="108" rx="8" fill="white"/>
</clipPath>
</defs>
</svg>
