<svg width="112" height="112" viewBox="0 0 112 112" fill="none" xmlns="http://www.w3.org/2000/svg">
<g clip-path="url(#clip0_6_7375)">
<rect x="1.99988" y="2" width="108" height="108" rx="8" fill="white"/>
<path fill-rule="evenodd" clip-rule="evenodd" d="M45.9456 60.0783C45.9456 61.5891 44.9879 62.4403 42.945 62.5043V64.8025C45.2647 64.8025 48.2013 63.5469 48.2013 60.0783V48.8159H45.9456V60.0783ZM59.2568 53.6663C59.2568 51.8786 58.2778 48.6015 54.6602 48.6015C51.2338 48.6015 50.0636 51.4744 50.0636 54.4537C50.0636 57.4329 51.2551 60.3059 55.1922 60.3059C56.2562 60.3059 57.618 60.0506 59.1716 58.9438L58.0223 57.1563C57.0435 57.7733 56.1072 58.0928 55.1922 58.0928C53.4468 58.0928 52.6383 56.9011 52.4469 55.6668H57.1925C58.5973 55.6668 59.2568 55.1134 59.2568 53.6663ZM52.4256 53.4535C52.5745 52.049 53.1704 50.8147 54.6602 50.8147C56.1499 50.8147 56.7456 52.049 56.8945 53.4535H52.4256ZM65.3907 48.6015C62.5816 48.6015 61.1343 50.9212 61.1343 50.9212V60.1782H63.39V51.6659C63.39 51.6659 64.0927 50.8147 65.3907 50.8147C66.8164 50.8147 67.6037 51.9852 67.6037 53.028V60.1782H69.8597V53.028C69.8597 50.8785 68.3484 48.6015 65.3907 48.6015ZM72.3632 48.7291H74.6189V60.1782H72.3632V48.7291ZM91.6812 53.2408H91.7025C90.9365 53.028 89.9362 52.6451 89.9362 51.8575C89.9362 51.283 90.5321 50.8147 91.6598 50.8147C92.7878 50.8147 94.0647 51.3255 94.5541 51.5596L95.2779 49.538C94.5328 49.1549 93.0219 48.6015 91.6598 48.6015C89.702 48.6015 87.6591 49.6018 87.6591 51.8575C87.6591 53.9432 89.4893 54.9857 91.2983 55.4329C92.2771 55.6455 93.5113 56.0499 93.5113 56.8586C93.5113 57.7097 92.511 58.0928 91.5324 58.0928C90.5748 58.0928 89.2551 57.4758 88.2548 56.9435L87.3825 59.0505C88.3399 59.5399 89.7447 60.2634 91.5324 60.3061C93.5965 60.3061 95.767 59.3271 95.767 56.8586C95.767 54.475 93.3834 53.6666 91.6812 53.2408ZM83.6528 55.8796C83.6528 56.9186 82.8706 58.0844 81.4534 58.0919C80.0368 58.0844 79.2544 56.9186 79.2544 55.8796V48.7291H76.9987V55.8796C76.9987 58.022 78.4999 60.2908 81.4398 60.3054L81.4674 60.3061C84.407 60.2916 85.9087 58.022 85.9087 55.8796V48.7291H83.6528V55.8796ZM28.1311 47.0015C25.9634 47.0015 22.8842 47.9404 21.0656 50.2158C18.1879 51.4725 16.0868 54.2822 16.0868 57.3503C16.0868 62.1123 20.1419 64.9569 25.0297 64.9569C25.8341 64.9569 26.5992 64.7781 27.3149 64.5977C27.8421 64.6805 28.3883 64.7244 28.952 64.7244C33.5648 64.7244 37.6298 60.9839 37.6298 56.0996C37.6298 51.0554 33.6209 47.0015 28.1311 47.0015ZM24.8237 50.6503C27.1427 50.6503 28.9417 52.9325 28.9417 54.9705C28.9417 57.7252 27.2589 59.5732 24.9086 59.5732C22.7995 59.5732 20.9201 57.6182 20.9201 54.8408C20.9201 52.5503 22.6226 50.6503 24.8237 50.6503ZM24.5133 64.0994C21.3208 64.0994 17.9456 61.0113 17.9456 57.1624C17.9456 55.2846 18.5358 53.4066 20.0279 52.1442C19.76 52.6974 19.5822 53.3621 19.5101 54.1555C19.4735 54.4436 19.4531 54.7425 19.4531 55.051C19.4531 59.2084 21.7311 62.654 25.2941 64.053C25.0362 64.0832 24.7756 64.0994 24.5133 64.0994ZM26.9063 63.6645C24.2306 63.1392 22.0366 61.1122 21.0888 58.7134C22.0272 59.6293 23.3623 60.2575 25.0642 60.2575C27.786 60.2575 30.3742 58.1733 30.3742 55.0794C30.3742 53.5608 29.8372 52.5665 29.8372 52.5665C30.9712 53.7182 31.6887 55.3355 31.6887 57.3081C31.6887 60.0809 29.6138 62.6657 26.9063 63.6645ZM29.5528 63.6797C31.7337 62.3767 33.0895 60.1494 33.0895 57.7262C33.0895 52.3291 27.8266 50.395 27.8266 50.395C26.8593 49.8254 25.6678 49.5213 24.3437 49.5213C24.243 49.5213 24.0708 49.5239 23.9711 49.5274C25.3131 48.5156 27.059 47.8927 28.8253 47.8927C32.9429 47.8927 36.0575 51.8005 36.0575 55.4596C36.0575 59.7137 33.0468 63.0134 29.5528 63.6797Z" fill="#00A4DE"/>
</g>
<rect x="1" y="1" width="110" height="110" rx="9" stroke="#CCCCCC" stroke-width="2"/>
<defs>
<clipPath id="clip0_6_7375">
<rect x="2" y="2" width="108" height="108" rx="8" fill="white"/>
</clipPath>
</defs>
</svg>
