<svg width="112" height="112" viewBox="0 0 112 112" fill="none" xmlns="http://www.w3.org/2000/svg">
<g clip-path="url(#clip0_421_543)">
<rect x="2" y="2" width="108" height="108" rx="8" fill="white"/>
<path d="M80.6687 52.9999C80.3592 52.9999 80.1042 53.1042 79.8995 53.3121C79.695 53.5203 79.5948 53.7549 79.5948 54.0204C79.5948 54.3574 79.7445 54.7318 80.0442 55.1476C79.5468 55.4798 79.2072 55.7597 79.0312 55.9778C78.8558 56.1964 78.7723 56.4636 78.7723 56.7851C78.7723 57.0663 78.8445 57.3096 78.9855 57.5239C79.1263 57.7385 79.3021 57.9079 79.5263 58.0265C79.7505 58.1452 79.9885 58.2093 80.2346 58.2093C80.7363 58.2093 81.2156 57.9559 81.6664 57.4553C82.0455 57.9559 82.4847 58.2093 82.984 58.2093C83.2143 58.2093 83.4179 58.1403 83.5933 58.0113C83.7684 57.8826 83.8819 57.7105 83.936 57.501H83.7532C83.6229 57.7311 83.4377 57.8514 83.1973 57.8514C83.0205 57.8514 82.8584 57.7967 82.7022 57.6914C82.5463 57.5864 82.3286 57.3372 82.0548 56.945C82.1697 56.7923 82.2981 56.5551 82.4356 56.2291C82.5993 55.8343 82.7608 55.5644 82.9155 55.4218C83.0703 55.2789 83.2488 55.1808 83.4562 55.1248V54.942H81.8111V55.1248C82.2139 55.1706 82.4128 55.3345 82.4128 55.6274C82.4128 55.7495 82.3678 55.9202 82.2833 56.1377C82.1991 56.3555 82.0861 56.5659 81.9406 56.7699C81.5359 56.1957 81.1088 55.6029 80.6535 54.9877C81.3884 54.618 81.7502 54.2385 81.7502 53.8453C81.7502 53.5926 81.645 53.384 81.4227 53.2284C81.2001 53.0727 80.9449 52.9999 80.6687 52.9999ZM87.6603 53.0227C87.2128 53.0227 86.801 53.1249 86.4265 53.335C86.052 53.545 85.7599 53.8685 85.5506 54.3022C85.3417 54.7357 85.2384 55.1974 85.2384 55.6884C85.2384 56.4361 85.4625 57.0389 85.9162 57.4934C86.3696 57.9479 86.9606 58.1712 87.6756 58.1712C88.3521 58.1712 88.9082 57.9238 89.3435 57.4325C89.4586 57.5842 89.5351 57.7594 89.5796 57.958H89.7471V56.2139H89.5796C89.5503 56.502 89.452 56.8039 89.2902 57.1126C89.1286 57.4215 88.9121 57.6383 88.6352 57.7676C88.3574 57.8969 88.0858 57.958 87.8203 57.958C87.3239 57.958 86.9049 57.7614 86.5712 57.3639C86.2383 56.9662 86.0762 56.3961 86.0762 55.6503C86.0762 54.8626 86.2279 54.2531 86.5331 53.83C86.8389 53.4065 87.2482 53.1979 87.7669 53.1979C88.1902 53.1979 88.5719 53.3306 88.9094 53.5939C89.2468 53.8573 89.47 54.3202 89.5796 54.9877H89.7471L89.7014 53.1065H89.5339C89.5112 53.3286 89.4509 53.5468 89.3435 53.7539C89.1953 53.5691 88.9658 53.4032 88.6656 53.2512C88.365 53.0993 88.0298 53.0227 87.6603 53.0227ZM58.4143 53.038C57.9668 53.038 57.555 53.1402 57.1805 53.3502C56.8057 53.5603 56.5139 53.8838 56.3046 54.3175C56.0954 54.7509 55.9924 55.2123 55.9924 55.7036C55.9924 56.4511 56.2165 57.0539 56.6702 57.5086C57.1234 57.9631 57.7065 58.1865 58.4219 58.1865C59.0979 58.1865 59.6548 57.9469 60.0899 57.4553C60.2056 57.6075 60.2896 57.782 60.3336 57.9808H60.5011V56.2291H60.3336C60.3043 56.5175 60.2062 56.8191 60.0442 57.1278C59.8826 57.4368 59.6667 57.6535 59.3892 57.7828C59.1114 57.9121 58.8395 57.9808 58.5743 57.9808C58.0779 57.9808 57.6587 57.7763 57.3252 57.3792C56.9917 56.9814 56.8302 56.4116 56.8302 55.6655C56.8302 54.8778 56.9816 54.2759 57.2871 53.8529C57.5926 53.4296 58.0027 53.2131 58.5209 53.2131C58.9448 53.2131 59.3264 53.3458 59.6634 53.6092C60.0006 53.8725 60.2238 54.3354 60.3336 55.0029H60.5011L60.4554 53.1294H60.2879C60.2655 53.3514 60.1973 53.562 60.0899 53.7691C59.9417 53.5844 59.7203 53.4181 59.4196 53.2664C59.1198 53.1145 58.784 53.038 58.4143 53.038ZM22.1843 53.0532C21.9042 53.0532 21.512 53.0642 21.0114 53.0837L20.3869 53.1065V53.2741H20.4783C20.7318 53.2741 20.8971 53.2986 20.9733 53.3426C21.0498 53.3869 21.0959 53.4635 21.1181 53.5787C21.1402 53.6939 21.1561 53.9518 21.1561 54.3479V56.7851C21.1561 57.2012 21.1402 57.471 21.1181 57.5848C21.0959 57.6986 21.0481 57.7823 20.9657 57.8361C20.8834 57.89 20.7304 57.9123 20.5164 57.9123H20.3869V58.0798H22.6794V57.9123H22.5118C22.2879 57.9123 22.1361 57.8877 22.0548 57.8285C21.9735 57.7696 21.9209 57.6759 21.9025 57.5543C21.8839 57.4328 21.8797 57.178 21.8797 56.7851V55.7341H22.428C22.999 55.7341 23.3972 55.6816 23.6238 55.5741C23.8506 55.4664 24.0201 55.3099 24.1417 55.1019C24.2629 54.8937 24.3244 54.65 24.3244 54.3784C24.3244 54.0655 24.2359 53.8071 24.0579 53.6016C23.8798 53.396 23.651 53.2558 23.3724 53.175C23.0939 53.0943 22.6996 53.0532 22.1843 53.0532ZM17.4699 53.1065V53.2741H17.5842C17.8366 53.2741 17.997 53.2986 18.0716 53.3426C18.1465 53.3866 18.2007 53.4641 18.2239 53.5787C18.2471 53.6936 18.2544 53.9524 18.2544 54.3479V56.0387C18.2544 56.5929 18.2403 56.994 18.2011 57.2345C18.1624 57.4754 18.0408 57.682 17.8507 57.859C17.6607 58.036 17.4278 58.1255 17.15 58.1255C17.0136 58.1255 16.9001 58.1007 16.8073 58.057C16.7151 58.0133 16.6702 57.952 16.6702 57.8742C16.6702 57.8449 16.6814 57.8031 16.7083 57.7447C16.7379 57.6789 16.754 57.6154 16.754 57.5543C16.754 57.452 16.7201 57.366 16.6474 57.2954C16.5749 57.2245 16.4814 57.1888 16.3732 57.1888C16.2674 57.1888 16.1794 57.2317 16.1066 57.3106C16.0341 57.3895 16 57.4846 16 57.6C16 57.7914 16.1023 57.9562 16.3046 58.0951C16.5075 58.2337 16.7897 58.3007 17.1653 58.3007C17.4995 58.3007 17.7963 58.2457 18.0487 58.1332C18.3012 58.0204 18.5069 57.8621 18.658 57.6533C18.8092 57.4444 18.8989 57.2262 18.9322 57.006C18.965 56.7861 18.9779 56.4672 18.9779 56.0463V54.3479C18.9779 53.9348 18.9915 53.6736 19.016 53.5635C19.0403 53.4534 19.0926 53.375 19.1683 53.335C19.2438 53.2942 19.404 53.2741 19.6481 53.2741H19.77V53.1065H17.4699ZM24.9947 53.1065V53.2741H25.1318C25.3853 53.2741 25.544 53.2986 25.6192 53.3426C25.6944 53.3869 25.7483 53.4635 25.7715 53.5787C25.795 53.6939 25.802 53.9516 25.802 54.3479V56.5109C25.802 56.922 25.7935 57.2044 25.7639 57.3563C25.7346 57.508 25.6469 57.6413 25.5126 57.7447C25.3785 57.8487 25.209 57.9003 24.9947 57.9123V58.0798H26.7845V57.9123C26.5544 57.8976 26.3785 57.8383 26.2513 57.7295C26.1236 57.6207 26.0471 57.4932 26.0228 57.3487C25.9983 57.2042 25.9848 56.9326 25.9848 56.5338V53.6244L27.965 58.0798H28.1401L30.0975 53.6244V56.7927C30.0975 57.2088 30.0902 57.471 30.067 57.5848C30.0438 57.6986 29.9895 57.782 29.9071 57.8361C29.8244 57.89 29.6773 57.9123 29.4653 57.9123H29.2902V58.0798H31.6816V57.9123H31.4608C31.2353 57.9123 31.0832 57.8874 31.0038 57.8285C30.9238 57.7699 30.8709 57.683 30.8515 57.5619C30.8318 57.4409 30.821 57.1767 30.821 56.7851V54.3479C30.821 53.9345 30.833 53.6738 30.8591 53.5635C30.8844 53.4534 30.9355 53.3752 31.0114 53.335C31.0874 53.2947 31.2539 53.2741 31.4989 53.2741H31.6816V53.1065H30.1432L28.3382 57.2268L26.5103 53.1065H24.9947ZM80.6839 53.1903C80.8708 53.1903 81.0187 53.2535 81.1333 53.3807C81.2471 53.5081 81.3084 53.6694 81.3084 53.8757C81.3084 54.2217 81.0492 54.5452 80.5392 54.843C80.226 54.413 80.0746 54.0719 80.0746 53.8224C80.0746 53.6417 80.1302 53.4952 80.2422 53.3731C80.3539 53.2512 80.4987 53.1903 80.6839 53.1903ZM22.2605 53.2284C22.7142 53.2284 23.0409 53.325 23.243 53.5178C23.445 53.7102 23.5476 54.012 23.5476 54.4241C23.5476 54.6941 23.49 54.9256 23.3724 55.1096C23.2546 55.2935 23.1069 55.4094 22.9307 55.4675C22.7542 55.5251 22.5242 55.5589 22.2376 55.5589H21.8797V53.2436C21.9679 53.2337 22.0941 53.2284 22.2605 53.2284ZM71.5065 54.1728C71.2154 54.1728 70.9806 54.2578 70.7906 54.4393C70.6008 54.6209 70.5011 54.8521 70.5011 55.1248C70.5011 55.3036 70.5508 55.4696 70.6382 55.6274C70.7257 55.7855 70.8405 55.9175 70.9962 56.0159C71.1519 56.1148 71.3903 56.2272 71.6969 56.3586C72.0407 56.5055 72.2759 56.6422 72.4052 56.7699C72.5347 56.8994 72.5956 57.058 72.5956 57.2497C72.5956 57.4395 72.5221 57.6143 72.3747 57.7676C72.227 57.9209 72.0192 57.9961 71.7502 57.9961C71.1523 57.9961 70.7753 57.594 70.6154 56.7927H70.4707V58.0265H70.6154C70.6455 57.8663 70.6898 57.7416 70.7525 57.6533C71.0334 57.9748 71.3834 58.1332 71.8035 58.1332C72.169 58.1332 72.4608 58.0332 72.6794 57.8285C72.8979 57.6233 73.0069 57.3562 73.0069 57.0288C73.0069 56.822 72.9599 56.6385 72.8698 56.4805C72.7789 56.3227 72.6619 56.2042 72.5118 56.1149C72.362 56.0256 72.118 55.9043 71.7883 55.7569C71.4436 55.6015 71.2122 55.4612 71.08 55.338C70.9454 55.217 70.8743 55.0714 70.8743 54.8963C70.8743 54.7513 70.9274 54.615 71.0343 54.4926C71.1414 54.3708 71.3077 54.3099 71.5369 54.3099C71.7776 54.3099 71.9944 54.3957 72.1767 54.5612C72.3598 54.7273 72.4855 54.9501 72.5575 55.239H72.6794V54.2413H72.5575C72.5466 54.3615 72.4994 54.4733 72.4128 54.5764C72.2619 54.4111 72.1142 54.3014 71.9711 54.2489C71.8274 54.1961 71.6693 54.1728 71.5065 54.1728ZM34.0274 54.1804C33.4378 54.1804 32.9517 54.356 32.5575 54.7135C32.1633 55.0707 31.9634 55.5473 31.9634 56.1377C31.9634 56.7434 32.1612 57.2259 32.5499 57.5924C32.9385 57.9595 33.4359 58.1484 34.0427 58.1484C34.6656 58.1484 35.1684 57.9595 35.5506 57.5924C35.9326 57.2259 36.1219 56.7529 36.1219 56.1606C36.1219 55.5493 35.919 55.0672 35.5202 54.7135C35.1211 54.36 34.6224 54.1804 34.0274 54.1804ZM42.8698 54.1804C42.2743 54.1804 41.8076 54.3854 41.4608 54.7973C41.114 55.2089 40.9353 55.6897 40.9353 56.2367C40.9353 56.7896 41.1211 57.2475 41.4836 57.6076C41.8459 57.9678 42.3002 58.1484 42.8469 58.1484C43.1191 58.1484 43.4108 58.0853 43.7304 57.9656C43.965 57.8776 44.1571 57.8361 44.3016 57.8361C44.3373 57.8361 44.3789 57.836 44.4235 57.8437V57.4401C44.4235 57.1096 44.4331 56.9014 44.4539 56.8156C44.4744 56.73 44.5184 56.6619 44.5834 56.6252C44.6482 56.5884 44.7743 56.5719 44.9566 56.5719V56.4424H43.3039V56.5719H43.3953C43.547 56.5719 43.6508 56.5862 43.7075 56.6099C43.7643 56.6331 43.8019 56.6785 43.8294 56.747C43.8569 56.8158 43.8751 56.9528 43.8751 57.1583C43.8751 57.3334 43.8421 57.4778 43.7837 57.5924C43.7259 57.7073 43.623 57.8019 43.4638 57.8818C43.3044 57.9623 43.1253 58.0037 42.9307 58.0037C42.5506 58.0037 42.2275 57.8676 41.9711 57.5848C41.7144 57.3025 41.5903 56.8159 41.5903 56.1377C41.5903 55.4577 41.7271 54.988 41.9939 54.7211C42.2607 54.4546 42.5714 54.3175 42.9307 54.3175C43.2783 54.3175 43.5708 54.432 43.8142 54.6602C44.0578 54.8886 44.2091 55.1983 44.2635 55.5894H44.393V54.3099H44.2635C44.2465 54.4642 44.2046 54.6104 44.1417 54.744C43.8058 54.3689 43.3821 54.1804 42.8698 54.1804ZM92.7479 54.1804C92.1583 54.1804 91.6722 54.356 91.278 54.7135C90.8837 55.0707 90.6839 55.5473 90.6839 56.1377C90.6839 56.7434 90.8741 57.2259 91.2628 57.5924C91.6514 57.9595 92.1491 58.1484 92.7555 58.1484C93.379 58.1484 93.8813 57.9595 94.2635 57.5924C94.6455 57.2259 94.8423 56.7529 94.8423 56.1606C94.8423 55.5493 94.6395 55.0672 94.2407 54.7135C93.8416 54.36 93.3426 54.1804 92.7479 54.1804ZM67.965 54.188L66.853 56.8384C66.773 57.029 66.72 57.1379 66.7083 57.1659C66.5902 57.4658 66.4944 57.6593 66.4113 57.7524C66.3281 57.8457 66.2008 57.9088 66.0305 57.9351V58.0646H67.1805V57.9351C67.0565 57.9351 66.9542 57.9032 66.8759 57.8437C66.7983 57.7846 66.7616 57.6997 66.7616 57.5848C66.7616 57.4774 66.8359 57.2515 66.9825 56.8993L67.0815 56.6556H68.5286L68.8256 57.3639C68.9122 57.5692 68.9551 57.6882 68.9551 57.7295C68.9551 57.8103 68.9206 57.8699 68.8561 57.8971C68.791 57.9242 68.6665 57.9351 68.4829 57.9351V58.0646H69.9832V57.9351C69.8492 57.9221 69.7529 57.8881 69.6862 57.8361C69.6193 57.7847 69.5657 57.713 69.5263 57.6229L69.3511 57.2268L68.0792 54.188H67.965ZM38.0487 54.2032C37.8347 54.2032 37.5446 54.2101 37.1805 54.2261L36.6398 54.2489V54.3784H36.7007C36.8977 54.3784 37.0297 54.3979 37.0891 54.4317C37.148 54.4656 37.1863 54.5263 37.2034 54.6145C37.2207 54.7027 37.2262 54.8965 37.2262 55.2009V57.0821C37.2262 57.4017 37.2204 57.6037 37.2034 57.6914C37.1866 57.7789 37.1447 57.8408 37.0815 57.8818C37.0186 57.9231 36.9027 57.9428 36.7388 57.9428H36.6169V58.0722H38.4524V57.9428H38.2696C38.0961 57.9428 37.9727 57.9193 37.9117 57.8742C37.8501 57.8294 37.8113 57.7613 37.7974 57.6686C37.7833 57.5766 37.7822 57.381 37.7822 57.0821V56.2444H37.9345C38.0371 56.2444 38.1066 56.2633 38.1554 56.2977C38.2036 56.3323 38.2929 56.4211 38.4219 56.5795C38.5507 56.737 38.6752 56.9026 38.7951 57.0745C39.1686 57.6124 39.4516 57.944 39.6329 58.0722H40.6535V57.9428C40.4298 57.9353 40.2388 57.8726 40.0746 57.7524C39.911 57.6316 39.6852 57.3778 39.3968 56.9907C39.0428 56.5125 38.7794 56.2371 38.62 56.1606C38.974 56.1174 39.2449 56.0101 39.4273 55.8331C39.6101 55.6561 39.7014 55.4363 39.7014 55.1857C39.7014 54.9711 39.6289 54.7917 39.4882 54.6373C39.3474 54.4825 39.1675 54.3702 38.9398 54.3022C38.7116 54.2345 38.4126 54.2032 38.0487 54.2032ZM47.1653 54.2032L46.0457 56.846C45.9655 57.0364 45.9211 57.1455 45.9086 57.1735C45.7913 57.4734 45.6874 57.6746 45.604 57.7676C45.5205 57.8609 45.4008 57.9164 45.2308 57.9428V58.0722H46.3808V57.9428C46.2563 57.9428 46.154 57.9184 46.0762 57.859C45.9981 57.7995 45.9619 57.7073 45.9619 57.5924C45.9619 57.485 46.0359 57.2591 46.1828 56.907L46.2818 56.6632H47.7289L48.0183 57.3715C48.1046 57.5768 48.1554 57.7034 48.1554 57.7447C48.1554 57.8255 48.1214 57.8775 48.0564 57.9047C47.9916 57.9319 47.8671 57.9428 47.6832 57.9428V58.0722H49.1835V57.9428C49.05 57.9294 48.9532 57.9033 48.8865 57.8514C48.8199 57.7999 48.7658 57.7282 48.7266 57.6381L48.5514 57.2345L47.2795 54.2032H47.1653ZM61.3922 54.2413V54.3708H61.4684C61.6635 54.3708 61.7837 54.3905 61.8416 54.4241C61.8992 54.458 61.9385 54.5184 61.9558 54.6069C61.9739 54.6951 61.9863 54.8892 61.9863 55.1933V57.0669C61.9863 57.3868 61.9739 57.5961 61.9558 57.6838C61.9385 57.7712 61.8971 57.8332 61.834 57.8742C61.7705 57.9155 61.656 57.9351 61.4912 57.9351H61.3922V58.0646H63.1287V57.9351H63.0297C62.8564 57.9351 62.7336 57.9116 62.6717 57.8666C62.6099 57.8213 62.5724 57.754 62.5575 57.661C62.5423 57.5677 62.5347 57.3687 62.5347 57.0669V56.1453H64.5301V57.0669C64.5301 57.3873 64.5243 57.5885 64.5072 57.6762C64.4904 57.7639 64.4475 57.8326 64.3854 57.8742C64.3227 57.9155 64.2107 57.9351 64.0503 57.9351H63.9208V58.0646H65.6497V57.9351H65.5659C65.3953 57.9351 65.2776 57.9116 65.2155 57.8666C65.1537 57.8215 65.1154 57.754 65.1013 57.661C65.0869 57.5679 65.0784 57.3679 65.0784 57.0669V55.1933C65.0784 54.8761 65.0895 54.6762 65.1089 54.5917C65.1289 54.5072 65.1653 54.4471 65.2232 54.4165C65.2815 54.3853 65.4087 54.3708 65.5963 54.3708H65.6497V54.2413H63.9208V54.3708H64.0198C64.212 54.3708 64.3359 54.3905 64.393 54.4241C64.45 54.458 64.4904 54.5184 64.5072 54.6069C64.5243 54.6951 64.5301 54.8892 64.5301 55.1933V55.9549H62.5347V55.1933C62.5347 54.8761 62.5451 54.6762 62.5651 54.5917C62.5851 54.5072 62.6278 54.4471 62.687 54.4165C62.7459 54.3853 62.8641 54.3708 63.0526 54.3708H63.1287V54.2413H61.3922ZM73.7304 54.2413V54.3708C73.9162 54.3708 74.0378 54.3873 74.096 54.4241C74.1538 54.4604 74.1942 54.5225 74.2102 54.6145C74.2267 54.7065 74.2331 54.9022 74.2331 55.1933V57.0669C74.2331 57.3865 74.2251 57.5905 74.2102 57.6686C74.195 57.7464 74.1588 57.8081 74.1036 57.859C74.0484 57.9096 73.9338 57.9351 73.7456 57.9351H73.6618V58.0646H76.8149L76.8987 56.8765H76.7692C76.7015 57.1628 76.6045 57.3862 76.4874 57.5467C76.3704 57.7077 76.2506 57.8123 76.1219 57.859C75.992 57.9056 75.8275 57.9275 75.6268 57.9275H75.345C75.0896 57.9275 74.9312 57.8854 74.8728 57.8057C74.8147 57.726 74.789 57.4586 74.789 57.006V56.0996H75.2003C75.3629 56.0996 75.4821 56.1159 75.5506 56.1377C75.6189 56.1593 75.6675 56.2026 75.703 56.2748C75.7384 56.3476 75.7563 56.4891 75.7563 56.7013H75.8858V55.399H75.7563C75.7563 55.5864 75.7417 55.7153 75.7182 55.7798C75.6947 55.8445 75.6468 55.8925 75.5735 55.9245C75.4999 55.9565 75.3698 55.9702 75.1851 55.9702H74.789V54.3708H75.3145C75.5795 54.3708 75.7661 54.3874 75.8858 54.4165C76.0052 54.4458 76.1111 54.5107 76.198 54.6221C76.2844 54.7338 76.3592 54.927 76.4189 55.1933H76.5484L76.457 54.2413H73.7304ZM49.6786 54.2489V54.3784C49.8849 54.3784 50.0149 54.3958 50.0746 54.4241C50.1343 54.4524 50.1767 54.5151 50.2041 54.6145C50.2316 54.7139 50.2498 54.9075 50.2498 55.2009V57.2345C50.2498 57.4656 50.2369 57.6065 50.2193 57.6686C50.2015 57.7304 50.1472 57.7899 50.0518 57.8437C49.9566 57.8976 49.8215 57.9294 49.6405 57.9428V58.0722H51.0571V57.9428C50.8551 57.9428 50.7088 57.9174 50.6078 57.859C50.5067 57.8009 50.4392 57.7384 50.4174 57.6686C50.3958 57.599 50.3869 57.4544 50.3869 57.2345V54.5764L53.1059 58.1636H53.2201V54.9953C53.2201 54.8316 53.2331 54.7214 53.2582 54.6526C53.2832 54.5841 53.3417 54.5186 53.4334 54.4698C53.5256 54.421 53.6542 54.3917 53.8142 54.3784V54.2489H52.4356V54.3784C52.586 54.3784 52.7096 54.3999 52.8164 54.4393C52.9236 54.4788 52.995 54.5318 53.0297 54.5993C53.0644 54.6672 53.083 54.7882 53.083 54.9572V57.2421L50.821 54.2489H49.6786ZM34.035 54.3175C34.5007 54.3175 34.8563 54.4803 35.1013 54.7973C35.3463 55.1142 35.4669 55.5659 35.4669 56.1606C35.4669 56.7721 35.3421 57.2304 35.0937 57.5391C34.8447 57.8478 34.5091 58.0037 34.0807 58.0037C33.5921 58.0037 33.2282 57.8478 32.984 57.5391C32.7398 57.2304 32.6184 56.7758 32.6184 56.1606C32.6184 55.5547 32.7398 55.0915 32.984 54.7821C33.2282 54.4726 33.5763 54.3175 34.035 54.3175ZM92.7555 54.3175C93.2212 54.3175 93.5768 54.4803 93.8218 54.7973C94.0673 55.1142 94.1874 55.5659 94.1874 56.1606C94.1874 56.7721 94.0626 57.2304 93.8142 57.5391C93.5652 57.8478 93.2293 58.0037 92.8012 58.0037C92.3126 58.0037 91.941 57.8478 91.6969 57.5391C91.4527 57.2304 91.3313 56.7758 91.3313 56.1606C91.3313 55.5547 91.4527 55.0915 91.6969 54.7821C91.941 54.4726 92.2968 54.3175 92.7555 54.3175ZM38.0183 54.3403C38.4632 54.3403 38.7538 54.4222 38.8865 54.584C39.019 54.7458 39.0845 54.9624 39.0845 55.2314C39.0845 55.386 39.0625 55.5143 39.0236 55.6198C38.9844 55.7251 38.9314 55.814 38.8637 55.8788C38.796 55.9438 38.7067 55.9899 38.5971 56.0235C38.4878 56.0573 38.3572 56.0767 38.2087 56.0844C38.0602 56.0919 37.9213 56.0962 37.7822 56.0996V54.3479C37.8712 54.3402 37.9495 54.3403 38.0183 54.3403ZM67.805 54.8963L68.4752 56.5109H67.1424L67.805 54.8963ZM47.0053 54.9039L47.6756 56.5262H46.3351L47.0053 54.9039ZM80.1584 55.3076C80.5473 55.8156 81.0142 56.476 81.5522 57.2954C81.2491 57.6481 80.9187 57.8285 80.5621 57.8285C80.2409 57.8285 79.9481 57.6898 79.6938 57.4096C79.4395 57.1297 79.313 56.8257 79.313 56.5109C79.313 56.3067 79.3865 56.0976 79.5339 55.8788C79.6805 55.6599 79.8903 55.4712 80.1584 55.3076ZM95.5811 57.3411C95.4662 57.3411 95.3659 57.3808 95.2841 57.4629C95.2017 57.545 95.1622 57.6453 95.1622 57.76C95.1622 57.8725 95.2033 57.9722 95.2841 58.057C95.3646 58.1418 95.4641 58.1789 95.5811 58.1789C95.696 58.1789 95.7947 58.1388 95.8781 58.057C95.9616 57.9746 96 57.8773 96 57.76C96 57.6453 95.96 57.545 95.8781 57.4629C95.7955 57.3808 95.6987 57.3411 95.5811 57.3411Z" fill="black"/>
</g>
<rect x="1" y="1" width="110" height="110" rx="9" stroke="#CCCCCC" stroke-width="2"/>
<defs>
<clipPath id="clip0_421_543">
<rect x="2" y="2" width="108" height="108" rx="8" fill="white"/>
</clipPath>
</defs>
</svg>
