<svg width="112" height="112" viewBox="0 0 112 112" fill="none" xmlns="http://www.w3.org/2000/svg">
<g clip-path="url(#clip0_517_513)">
<rect x="2" y="2" width="108" height="108" rx="8" fill="white"/>
<path d="M78.7256 47.1676L78.3166 46.9073C76.9344 45.5251 75.0005 44.9239 72.4221 45.0788C70.2775 45.209 68.573 46.0643 67.2714 46.8515C67.2714 46.8329 67.2714 46.8143 67.2714 46.7957C67.2714 46.1201 67.3458 45.3949 67.4202 44.6883C67.4945 43.9693 67.5689 43.2379 67.5689 42.5437C67.5689 41.8372 67.4883 41.1678 67.2466 40.5913C67.1846 40.4426 67.0483 40.3558 66.8809 40.3558C66.1867 40.3744 64.8355 40.8454 64.507 41.1368L64.3273 41.5272C64.3149 42.2958 64.1475 44.4404 63.974 44.7007C63.9802 44.6945 63.881 44.961 63.881 44.961C63.5897 48.0229 63.5835 50.7192 63.85 53.0311C63.881 53.2604 64.3273 53.6075 64.6682 53.7315C65.0462 53.874 66.2239 53.5579 66.9057 53.2976C66.8995 53.2976 67.1598 53.2542 67.1598 53.2542C67.3768 53.2294 67.5007 53.0497 67.4945 52.8017C67.4883 52.7955 67.5131 52.1385 67.5131 52.1385C68.0028 50.1427 69.9924 47.7626 72.3415 47.4031C73.6741 47.1924 74.7216 47.5333 75.546 48.4382C75.6575 48.5994 75.8993 50.0374 75.0253 51.6861C74.3745 52.9071 73.0729 53.936 71.356 54.5806C69.7321 55.2004 67.947 55.4484 65.7404 55.374C65.6475 55.312 63.6764 53.9794 63.6764 53.9794C61.9286 52.7522 59.753 51.2212 57.782 50.4774C57.4349 50.3473 56.8151 49.8266 56.4432 49.5229L56.2386 49.3556C55.1044 48.4444 52.9412 47.0002 51.1995 45.8474C51.1995 45.8474 50.4123 45.3205 50.2636 45.2214C50.2636 45.1594 50.2636 45.023 50.2636 45.023C50.3132 44.9672 51.404 44.3102 51.404 44.3102C52.9288 43.4177 53.6354 42.9776 53.7903 42.7483C53.7593 42.7855 53.9949 42.6305 53.9949 42.6305C54.0073 42.6243 57.782 40.4859 57.782 40.4859C61.4203 38.4901 65.5359 36.2216 67.6991 33.9779C67.7053 33.9779 67.8044 33.637 67.8044 33.637L67.8478 33.3332C67.9904 32.856 67.9966 32.4903 67.8788 32.0626C67.8478 31.9387 67.7363 31.8023 67.5875 31.7713C65.8954 31.604 63.7198 32.6143 61.7364 34.4737C61.2901 34.8952 60.9121 35.0997 60.5154 35.3167L60.2117 35.484C58.0237 36.7298 53.0961 39.7856 50.5177 41.4343C50.685 38.6575 51.1995 34.7154 51.8317 31.4242L51.7635 31.0337C51.7573 31.0213 51.497 30.5379 51.497 30.5379L51.2987 30.1846L51.2429 30.166C50.7284 29.9056 50.307 30.011 49.997 30.0854L49.4826 30.2775L48.7946 30.5255C48.6582 30.5503 48.5653 30.637 48.5095 30.7672C47.276 33.7423 46.2533 38.6389 46.0054 42.5561C43.5447 40.988 41.27 39.8661 40.1543 39.3207L40.1233 39.3021L39.9932 39.2711C39.5903 39.2215 39.1006 38.924 38.6358 38.6389C38.5862 38.6079 37.6998 38.0315 37.6998 38.0315L36.2681 37.1141C36.2805 37.1203 35.89 37.0274 35.89 37.0274C35.2764 37.1327 34.0987 37.9261 33.7454 38.4653C33.702 38.5397 33.6834 38.6141 33.6834 38.6947C33.6834 38.8062 33.7206 38.924 33.7454 39.0356L33.8074 39.3269L33.8756 39.5004C34.5636 40.2008 36.2929 41.3723 37.985 42.2834L39.9498 43.3247L42.9621 44.9672C42.9621 44.9796 43.4766 45.3763 43.4766 45.3763L43.8299 45.5809C43.8299 45.5809 43.8732 45.6057 43.8918 45.618C43.0923 46.1573 38.4188 49.275 38.4188 49.275L35.5429 51.184C35.2702 51.37 34.1359 51.8782 33.8818 51.9774C33.2557 52.2315 32.7847 52.622 32.5925 53.0435L32.512 53.2108L32.5925 53.3224L32.8157 53.4897C32.8033 53.4897 33.107 53.6819 33.107 53.6819L33.4231 53.8988C33.4293 53.8988 33.7206 53.9484 33.7206 53.9484C34.2289 53.967 34.9726 53.6819 36.3796 53.0683C37.6689 52.498 41.1646 50.3906 42.6584 49.4857L43.2968 49.1014C43.5633 49.12 43.8484 48.8969 44.1088 48.7047C44.4063 48.463 45.0633 48.0663 45.46 47.8866C45.4724 47.8804 45.7017 47.7564 45.9124 47.6387C45.9124 47.7068 45.9062 47.8122 45.9062 47.8122C45.9744 52.3865 46.2347 55.7087 46.7368 58.2747L46.743 58.3181L46.7926 58.4235C47.0405 58.783 47.3194 59.8677 47.5674 60.8222L48.1376 62.7312C48.15 62.756 48.2987 62.911 48.2987 62.911C48.6211 63.1341 49.6128 63.5122 50.276 63.4316L50.4433 63.413L50.5487 63.1837C50.6045 62.8986 50.6231 62.6197 50.6231 62.3098C50.6231 61.9627 50.5983 61.5784 50.5673 61.1073L50.5239 60.4193C50.3132 57.2272 50.1024 52.6158 50.1024 49.5539C50.1024 49.4671 50.1024 49.3927 50.1024 49.3122C50.6479 49.6531 53.0156 51.1468 53.0156 51.1468C57.0506 53.7687 63.1496 57.7231 66.8375 58.7706C67.0297 58.8264 67.2342 58.783 67.3706 58.6466C67.3768 58.6404 67.9346 58.2809 67.9346 58.2809L68.04 58.2376C68.2507 58.1384 68.3933 57.7789 68.4181 57.3946C71.5234 57.2396 75.8559 56.0434 78.174 53.1302C79.0727 52.0022 79.4756 50.6138 79.4756 49.4299C79.4756 48.463 79.2091 47.6263 78.7194 47.1614L78.7256 47.1676Z" fill="#FCAF16"/>
<path d="M93.5641 71.2165C95.188 71.2165 96 72.0471 96 73.7144V79.3114H94.4381V74.2908C94.4381 73.8446 94.3947 73.5037 94.3017 73.2557C94.2087 73.0078 94.06 72.8343 93.8492 72.7227C93.6385 72.6173 93.3472 72.5615 92.9877 72.5615C92.622 72.5615 92.2377 72.6111 91.8224 72.7165C91.4071 72.8157 91.0229 72.952 90.6572 73.1194V79.3052H89.0952V71.2475H90.6572V72.0037C91.6737 71.4768 92.6468 71.2103 93.5703 71.2103L93.5641 71.2165Z" fill="#776C61"/>
<path d="M85.8164 79.3114V71.2166H87.4961V79.3114H85.8164Z" fill="#776C61"/>
<path d="M81.2793 71.1794C82.0045 71.1794 82.6057 71.353 83.0892 71.7063C83.5664 72.0596 83.9259 72.5306 84.1491 73.1132C84.3784 73.7021 84.49 74.3405 84.49 75.0347C84.49 75.9272 84.3164 76.6958 83.9693 77.3404C83.6222 77.985 83.1511 78.4747 82.5561 78.8094C81.9611 79.1441 81.2793 79.3114 80.5169 79.3114C79.9405 79.3114 79.3888 79.2371 78.8496 79.0821V81.3506L77.3372 81.9705V71.2104H78.8496V71.8984C79.2711 71.6629 79.6864 71.4831 80.1078 71.3592C80.5231 71.2352 80.9136 71.1732 81.2731 71.1732L81.2793 71.1794ZM80.3992 78.1214C80.8764 78.1214 81.3041 78.0098 81.6698 77.7929C82.0355 77.5759 82.333 77.235 82.5499 76.7826C82.7669 76.3239 82.8722 75.7537 82.8722 75.0719C82.8722 74.1917 82.6987 73.5409 82.3454 73.1132C81.9921 72.6918 81.4962 72.481 80.8516 72.481C80.1698 72.481 79.5066 72.6732 78.8496 73.0637V77.8549C79.4012 78.0284 79.9157 78.1214 80.393 78.1214H80.3992Z" fill="#776C61"/>
<path d="M71.9882 79.5097C71.2072 79.5097 70.5564 79.3238 70.0358 78.9581C69.5151 78.5924 69.1247 78.0903 68.8643 77.4643C68.6102 76.8321 68.48 76.1193 68.48 75.3259C68.48 74.3652 68.6474 73.5718 68.9821 72.9582C69.3168 72.3384 69.7693 71.8859 70.3333 71.607C70.9035 71.3219 71.5481 71.1855 72.2671 71.1855C73.0481 71.1855 73.6989 71.3715 74.2196 71.7372C74.7402 72.1029 75.1307 72.5987 75.391 73.2248C75.6451 73.8508 75.7753 74.5574 75.7753 75.3507C75.7753 76.3238 75.608 77.1172 75.2733 77.737C74.9386 78.3568 74.4861 78.8093 73.922 79.0882C73.3518 79.3734 72.7072 79.5097 71.9882 79.5097ZM72.1246 78.2453C73.5626 78.2453 74.2753 77.2722 74.2753 75.3259C74.2753 74.4458 74.1018 73.7516 73.7485 73.2248C73.3952 72.7041 72.8746 72.4376 72.168 72.4376C71.387 72.4376 70.8292 72.6917 70.4883 73.2062C70.1474 73.7144 69.98 74.421 69.98 75.3259C69.98 76.2123 70.1597 76.9251 70.513 77.4519C70.8663 77.9788 71.4056 78.2453 72.1184 78.2453H72.1246Z" fill="#776C61"/>
<path d="M64.3272 74.9727L68.2755 79.1998V79.3114H66.1061L62.288 75.0656V79.3114H60.5092V68.7621H62.288V74.9355L66.1247 71.1918H68.0895V71.3033L64.3272 74.9727Z" fill="#776C61"/>
<path d="M59.1146 71.1794V79.3115H57.6084L57.5093 78.7722C56.5052 79.2619 55.4887 79.5098 54.4598 79.5098C53.6664 79.5098 53.0156 79.3239 52.5135 78.9458C52.0115 78.5677 51.7635 77.9974 51.7635 77.2351V71.1856H53.4433V76.826C53.4433 77.1855 53.4928 77.4706 53.5982 77.6875C53.7036 77.8983 53.8709 78.0532 54.1065 78.1462C54.342 78.2392 54.6643 78.2826 55.0858 78.2826C55.7118 78.2826 56.4928 78.078 57.4287 77.6751V71.1794H59.1084H59.1146Z" fill="#776C61"/>
<path d="M48.3235 73.7268C49.2223 73.9127 49.8855 74.2474 50.3194 74.7247C50.747 75.2082 50.964 75.7474 50.964 76.3486C50.964 76.9189 50.7904 77.4271 50.4433 77.8734C50.0962 78.3197 49.5818 78.673 48.8876 78.9271C48.1996 79.1812 47.3566 79.3114 46.3649 79.3114H41.7906V68.7001H46.2038C47.0901 68.7001 47.8525 68.8178 48.4909 69.0534C49.1293 69.2889 49.619 69.6112 49.9537 70.0203C50.2946 70.4294 50.4619 70.9004 50.4619 71.4397C50.4619 71.9541 50.2884 72.4128 49.9413 72.8157C49.5942 73.2186 49.0549 73.5285 48.3111 73.733L48.3235 73.7268ZM43.5943 69.9459V73.2867H45.9558C46.7492 73.2867 47.3938 73.1504 47.8897 72.8715C48.3855 72.5925 48.6334 72.1463 48.6334 71.5388C48.6334 71.2351 48.5405 70.9624 48.3607 70.7207C48.181 70.479 47.9083 70.293 47.5488 70.1566C47.1893 70.0203 46.7554 69.9521 46.2471 69.9521H43.5881L43.5943 69.9459ZM46.4083 78.0717C47.3442 78.0717 48.026 77.9106 48.4413 77.5821C48.8566 77.2536 49.0673 76.8321 49.0673 76.3238C49.0673 75.766 48.8442 75.3259 48.4041 74.9974C47.964 74.6689 47.3008 74.5078 46.4331 74.5078H43.6005V78.0779H46.4145L46.4083 78.0717Z" fill="#776C61"/>
<path d="M34.0925 73.7268C34.9913 73.9127 35.6545 74.2474 36.0883 74.7247C36.516 75.2082 36.7329 75.7474 36.7329 76.3486C36.7329 76.9189 36.5594 77.4271 36.2123 77.8734C35.8652 78.3197 35.3508 78.673 34.6566 78.9271C33.9686 79.1812 33.1256 79.3114 32.1339 79.3114H27.5596V68.7001H31.9727C32.8591 68.7001 33.6215 68.8178 34.2599 69.0534C34.8983 69.2889 35.3879 69.6112 35.7226 70.0203C36.0635 70.4294 36.2309 70.9004 36.2309 71.4397C36.2309 71.9541 36.0573 72.4128 35.7102 72.8157C35.3631 73.2186 34.8239 73.5285 34.0801 73.733L34.0925 73.7268ZM29.3633 69.9459V73.2867H31.7248C32.5182 73.2867 33.1628 73.1504 33.6586 72.8715C34.1545 72.5925 34.4024 72.1463 34.4024 71.5388C34.4024 71.2351 34.3095 70.9624 34.1297 70.7207C33.95 70.479 33.6772 70.293 33.3177 70.1566C32.9583 70.0203 32.5244 69.9521 32.0161 69.9521H29.3571L29.3633 69.9459ZM32.1773 78.0717C33.1132 78.0717 33.795 77.9106 34.2103 77.5821C34.6256 77.2536 34.8363 76.8321 34.8363 76.3238C34.8363 75.766 34.6132 75.3259 34.1731 74.9974C33.733 74.6689 33.0698 74.5078 32.2021 74.5078H29.3695V78.0779H32.1835L32.1773 78.0717Z" fill="#776C61"/>
<path d="M19.9111 73.795L25.7683 79.2122V79.3114H23.599L17.7975 73.8942V79.3114H16V68.7001H17.7975V73.7578L23.4874 68.7001H25.5328V68.7992L19.9111 73.795Z" fill="#776C61"/>
<path fill-rule="evenodd" clip-rule="evenodd" d="M85.8164 70.1256H87.4961V68.6691H85.8164V70.1256Z" fill="#776C61"/>
</g>
<rect x="1" y="1" width="110" height="110" rx="9" stroke="#CCCCCC" stroke-width="2"/>
<defs>
<clipPath id="clip0_517_513">
<rect x="2" y="2" width="108" height="108" rx="8" fill="white"/>
</clipPath>
</defs>
</svg>
