<svg width="112" height="112" viewBox="0 0 112 112" fill="none" xmlns="http://www.w3.org/2000/svg">
<g clip-path="url(#clip0_528_43)">
<rect x="2" y="2" width="108" height="108" rx="8" fill="white"/>
<path d="M19.9156 49.4867C19.7697 49.3602 19.6092 49.2532 19.4389 49.1608C18.9233 48.8884 18.4126 48.6063 17.897 48.329C17.5565 48.1442 17.2209 47.9399 16.9047 47.7162C16.7928 47.6383 16.6858 47.5508 16.5788 47.4681C16.4718 47.3854 16.4134 47.2833 16.394 47.1519C16.3794 47.0546 16.394 46.9768 16.4572 46.9087C16.6226 46.7385 16.8123 46.6072 17.0312 46.5147C17.1382 46.471 17.2403 46.4758 17.3376 46.5342C17.3863 46.5634 17.4349 46.5926 17.4884 46.6266C17.683 46.7531 17.8775 46.8795 18.077 47.006C18.2472 47.113 18.4223 47.22 18.6266 47.2687C18.6996 47.2881 18.7677 47.3319 18.8406 47.366C19.4 47.6383 19.9448 47.9351 20.475 48.2609C20.5236 48.2901 20.5723 48.3242 20.6258 48.3436C20.6501 48.3534 20.6793 48.3436 20.7133 48.3436C20.7328 48.1539 20.7571 47.974 20.7766 47.7891C20.869 46.9379 21.0295 46.0964 21.263 45.2744C21.3408 44.9923 21.4429 44.7199 21.5354 44.4426C21.5548 44.3891 21.5743 44.3307 21.6034 44.2821C21.6229 44.2481 21.6521 44.2189 21.6861 44.2043C21.8758 44.1216 22.0607 44.0486 22.265 44.0049C22.3671 43.9854 22.4595 44.0146 22.5471 44.0535C22.5714 44.0632 22.5957 44.0875 22.6103 44.1119C22.659 44.1946 22.7125 44.2772 22.7465 44.3697C22.766 44.4232 22.7708 44.4815 22.766 44.5399C22.766 44.6177 22.7417 44.6956 22.7319 44.7685C22.6638 45.2014 22.5909 45.6295 22.5276 46.0624C22.4693 46.4661 22.4255 46.8698 22.3768 47.2784C22.3525 47.473 22.3477 47.6675 22.3379 47.8621C22.3379 47.8864 22.3525 47.9205 22.372 47.9302C22.3914 47.9399 22.4303 47.9399 22.4547 47.9253C22.6881 47.7843 22.9168 47.6383 23.1502 47.4924C23.9042 47.0303 24.6581 46.5682 25.412 46.111C25.5628 46.0186 25.7136 45.9359 25.8644 45.8483C26.0201 45.7657 26.1611 45.6635 26.2876 45.5419C26.487 45.3571 26.701 45.1868 26.9345 45.0458C27.2069 44.8755 27.4939 44.7393 27.8101 44.6615C27.9657 44.6226 28.1165 44.6177 28.2721 44.6226C28.3402 44.6226 28.3986 44.6761 28.4181 44.7442C28.4424 44.8269 28.457 44.9144 28.4424 45.002C28.4327 45.0604 28.4181 45.1187 28.4132 45.1771C28.3937 45.3279 28.3256 45.4495 28.2089 45.5516C27.9608 45.7705 27.703 45.9748 27.4307 46.1645C26.8956 46.5391 26.3362 46.8698 25.7671 47.1908C25.0813 47.5751 24.3954 47.9594 23.7096 48.3436C23.5929 48.4117 23.4761 48.4847 23.3691 48.5674C23.2718 48.6452 23.16 48.7084 23.053 48.7765C22.8438 48.903 22.6346 49.0246 22.4303 49.1511C22.3817 49.1803 22.3331 49.2143 22.2844 49.2484C22.2309 49.2873 22.2358 49.3505 22.2942 49.3943C22.3477 49.4332 22.406 49.4721 22.4644 49.511C22.7611 49.7105 23.0627 49.9099 23.3594 50.1142C23.5685 50.2552 23.7777 50.4012 23.982 50.5471C24.1474 50.6687 24.3079 50.7952 24.4635 50.9216C24.6387 51.0627 24.8186 51.1891 25.0326 51.2718C25.3488 51.3934 25.6455 51.5685 25.9325 51.7534C26.2341 51.9479 26.5308 52.1522 26.8275 52.3517C27.0756 52.5219 27.3285 52.6873 27.5766 52.8624C27.6349 52.9013 27.6982 52.9208 27.7663 52.9208C28.3111 52.9354 28.851 52.8916 29.3812 52.7311C29.7752 52.6095 30.1448 52.4392 30.4659 52.1766C30.889 51.8312 31.1176 51.3837 31.1468 50.8438C31.1663 50.4887 31.1371 50.4595 30.8453 50.2747C30.5777 50.0996 30.281 50.0753 29.9746 50.1288C29.6925 50.1774 29.4395 50.2941 29.2109 50.4693C28.8461 50.7416 28.5689 51.0919 28.3889 51.5102C28.3305 51.6464 28.2867 51.7826 28.2916 51.9334C28.2916 51.9723 28.2916 52.0112 28.2819 52.0501C28.2721 52.1133 28.2381 52.1571 28.1749 52.1766C27.9414 52.2447 27.7128 52.3225 27.4696 52.3565C27.2847 52.3809 27.1485 52.303 27.0415 52.1668C27.0123 52.1328 26.9977 52.0793 26.9929 52.0306C26.9783 51.9334 26.9783 51.8361 26.9686 51.7388C26.9102 51.1162 26.9199 50.4984 26.9637 49.8758C26.9734 49.7591 26.9783 49.6424 26.9832 49.5256C26.9929 49.3894 27.0075 49.2581 27.0513 49.1268C27.0756 49.0538 27.0853 48.976 27.095 48.8981C27.1193 48.6647 27.1339 48.4312 27.1534 48.2026C27.1583 48.1345 27.1583 48.0664 27.1874 48.0031C27.2118 47.9496 27.241 47.8961 27.2993 47.8718C27.5377 47.7551 27.7809 47.6578 28.0484 47.6529C28.1262 47.6529 28.1749 47.687 28.204 47.7599C28.2673 47.9156 28.3013 48.0761 28.3062 48.2415C28.3159 48.4944 28.3062 48.7474 28.277 49.0003C28.2527 49.224 28.2332 49.4478 28.2138 49.6667C28.2138 49.6959 28.2138 49.725 28.2138 49.7542C28.2138 49.8223 28.2721 49.8612 28.3305 49.8369C28.3986 49.8029 28.4716 49.7737 28.5397 49.7348C28.7294 49.6375 28.9239 49.5451 29.1282 49.4818C29.7897 49.263 30.461 49.2289 31.1371 49.4089C31.4533 49.4916 31.7354 49.6424 31.9786 49.8564C32.037 49.905 32.0953 49.9585 32.1634 50.0023C32.2802 50.085 32.3531 50.192 32.4018 50.3233C32.4942 50.5665 32.5136 50.8146 32.4796 51.0675C32.4164 51.5442 32.2169 51.9577 31.891 52.3079C31.5943 52.6241 31.2441 52.8673 30.8598 53.0618C30.2518 53.3634 29.6098 53.5434 28.9385 53.6115C28.8899 53.6163 28.8412 53.6261 28.7926 53.6261C28.6661 53.6261 28.598 53.6796 28.5689 53.806C28.5543 53.8741 28.5008 53.9179 28.4375 53.9568C28.1068 54.1563 28.1895 54.1854 27.7711 54.0395C27.3771 53.8985 27.0026 53.7185 26.6281 53.5288C25.8158 53.1105 25.0375 52.6338 24.2641 52.1474C23.6756 51.7728 23.087 51.3934 22.4936 51.0189C22.4255 50.9751 22.3622 50.9362 22.2942 50.8973C22.2309 50.8584 22.1725 50.8827 22.1725 50.9508C22.1725 51.0092 22.1725 51.0675 22.1725 51.1259C22.1774 51.6999 22.1823 52.2738 22.2212 52.8478C22.2212 52.8867 22.2212 52.9256 22.2261 52.9645C22.2504 53.5093 22.2796 54.0541 22.3039 54.594C22.3136 54.7594 22.3331 54.9248 22.3428 55.0902C22.3525 55.2264 22.3525 55.3626 22.3477 55.4987C22.3477 55.5668 22.3282 55.6301 22.3136 55.6982C22.3039 55.742 22.2504 55.776 22.2017 55.776C22.1336 55.776 22.0655 55.776 21.9974 55.7663C21.8661 55.742 21.7348 55.6982 21.6132 55.6398C21.5305 55.6009 21.4721 55.5377 21.4478 55.4501C21.3846 55.2361 21.3213 55.0221 21.263 54.808C21.1851 54.5357 21.1219 54.2633 21.0052 54.0055C20.9565 53.9033 20.9468 53.7817 20.9273 53.665C20.8349 53.0618 20.7717 52.4489 20.7425 51.8361C20.723 51.3788 20.7085 50.9216 20.689 50.4644C20.689 50.4157 20.6793 50.3671 20.6695 50.3233C20.6695 50.3087 20.6404 50.2941 20.6258 50.299C20.5966 50.299 20.5674 50.3087 20.5431 50.3185C20.3923 50.3866 20.2512 50.4741 20.115 50.5714C20.0129 50.6444 19.9059 50.7125 19.7843 50.7562C19.6919 50.7903 19.6092 50.8438 19.5265 50.8924C19.0741 51.16 18.6266 51.4323 18.1694 51.695C17.8094 51.9042 17.4446 52.1133 17.0555 52.2641C16.9096 52.3225 16.7637 52.3711 16.6177 52.4198C16.5642 52.4392 16.5059 52.4441 16.4475 52.4489C16.3891 52.4538 16.3308 52.4441 16.2772 52.41C16.2286 52.3809 16.18 52.3468 16.1313 52.3176C15.9805 52.2203 15.9611 52.162 16.0827 52.016C16.1654 51.9188 16.2675 51.8458 16.3843 51.7874C16.4913 51.7388 16.5983 51.6901 16.7053 51.6415C16.8658 51.5734 17.0215 51.4907 17.1674 51.3934C18.0332 50.8146 18.899 50.2406 19.7648 49.6618C19.8135 49.6278 19.8621 49.5937 19.9059 49.5548C19.9205 49.5451 19.9205 49.5208 19.9302 49.5013" fill="#FBB01D"/>
<path d="M60.9687 49.4381C60.993 49.4867 61.0368 49.5062 61.0806 49.5208C61.2703 49.5986 61.4454 49.7056 61.601 49.8369C61.9464 50.1288 62.1507 50.513 62.2479 50.9508C62.3306 51.3253 62.3112 51.7047 62.209 52.0744C62.068 52.5657 61.781 52.9402 61.3432 53.198C61.0757 53.3585 60.7838 53.4704 60.4774 53.5336C60.1369 53.6066 59.7867 53.6552 59.4365 53.6552C58.2496 53.6552 57.0677 53.6552 55.8808 53.6552C55.8127 53.6552 55.7495 53.6455 55.6765 53.6407C55.6668 53.5969 55.6522 53.558 55.6522 53.5191C55.6522 53.4412 55.6522 53.3634 55.6522 53.2856V46.0089C55.6522 45.9213 55.6522 45.8338 55.6522 45.7462C55.6522 45.6927 55.6911 45.6586 55.7446 45.6586C55.8225 45.6586 55.9003 45.6586 55.9781 45.6586C57.0093 45.6586 58.0356 45.6586 59.0668 45.6586C59.3392 45.6586 59.6116 45.6732 59.884 45.6927C60.1758 45.7122 60.458 45.7754 60.7401 45.8678C60.8909 45.9164 61.0319 45.9797 61.1632 46.0624C61.5135 46.2715 61.7469 46.5682 61.8637 46.9574C61.995 47.4146 61.9999 47.8767 61.8588 48.3339C61.7323 48.7474 61.494 49.083 61.1341 49.3262C61.0806 49.3651 61.0076 49.3846 60.9784 49.4527M58.3956 50.1044C58.0259 50.1093 57.6562 50.1044 57.2914 50.1093C57.233 50.1093 57.1747 50.1142 57.1163 50.1239C57.1017 50.1239 57.0823 50.1482 57.0774 50.1628C57.0677 50.1871 57.0628 50.2212 57.0628 50.2504C57.0628 50.9994 57.0628 51.7437 57.0628 52.4927C57.0628 52.5122 57.0628 52.5316 57.0628 52.5511C57.0628 52.5997 57.1017 52.6338 57.1601 52.6386C57.2379 52.6386 57.3157 52.6386 57.3936 52.6386C57.9286 52.6386 58.4637 52.6386 58.9939 52.6386C59.1203 52.6386 59.2468 52.6386 59.3733 52.6338C59.6067 52.6338 59.8353 52.5803 60.0591 52.517C60.2002 52.4781 60.3315 52.4198 60.4531 52.3371C60.7206 52.162 60.8811 51.9188 60.9298 51.6026C60.9638 51.3983 60.9541 51.194 60.9152 50.9946C60.8617 50.7368 60.7255 50.5325 60.4969 50.3866C60.3899 50.3185 60.2731 50.2698 60.1515 50.2309C59.9278 50.1677 59.6992 50.1239 59.4657 50.119C59.1057 50.1093 58.7458 50.1093 58.3907 50.0996M58.2886 46.685C57.9578 46.685 57.627 46.685 57.2963 46.685C57.2379 46.685 57.1795 46.685 57.1212 46.6947C57.0969 46.6947 57.0677 46.719 57.0677 46.7531C57.0677 46.8017 57.0579 46.8504 57.0579 46.899C57.0579 47.5411 57.0579 48.1831 57.0579 48.8203C57.0579 48.8495 57.0579 48.8787 57.0579 48.9079C57.0579 49.01 57.092 49.0392 57.2039 49.0392C57.272 49.0392 57.3401 49.0392 57.4082 49.0392C57.9432 49.0392 58.4783 49.0392 59.0084 49.0392C59.203 49.0392 59.3976 49.0246 59.5921 49.0052C59.8159 48.9808 60.0299 48.9127 60.2245 48.796C60.4725 48.6501 60.6185 48.4312 60.6914 48.1539C60.7595 47.8913 60.7449 47.6335 60.6866 47.3757C60.6428 47.2006 60.5455 47.0595 60.3947 46.9525C60.2147 46.826 60.0105 46.7628 59.8013 46.7336C59.5532 46.6947 59.3003 46.6704 59.0474 46.6752C58.7944 46.6752 58.5415 46.6752 58.2886 46.6752" fill="#796E63"/>
<path d="M50.2482 49.4283C50.2482 49.4283 50.2628 49.477 50.2725 49.4818C50.3163 49.5013 50.3649 49.5159 50.4087 49.5256C50.647 49.5743 50.8757 49.6618 51.0848 49.7834C51.6101 50.0947 51.9166 50.5568 51.9895 51.1697C52.0236 51.4226 52.009 51.6756 51.9555 51.9236C51.8436 52.4295 51.5615 52.8235 51.1335 53.1202C50.8173 53.3391 50.4622 53.4704 50.0877 53.5482C49.7472 53.6212 49.397 53.665 49.0468 53.665C47.7334 53.665 46.425 53.665 45.1117 53.665C45.063 53.665 45.0144 53.6601 44.9658 53.6552C44.9317 53.6552 44.9123 53.6261 44.9074 53.6017C44.8977 53.5774 44.8977 53.5434 44.8977 53.5142C44.8977 53.4364 44.8977 53.3585 44.8977 53.2807V46.0235C44.8977 45.9359 44.8977 45.8483 44.8977 45.7608C44.8977 45.6976 44.9414 45.6586 45.0144 45.6586C45.0922 45.6586 45.1701 45.6586 45.2479 45.6586C46.4055 45.6586 47.5583 45.6586 48.716 45.6586C48.9787 45.6586 49.2413 45.6684 49.504 45.6878C49.8542 45.717 50.1947 45.7851 50.5254 45.9116C50.6811 45.97 50.827 46.0478 50.9632 46.1402C51.2648 46.3445 51.4739 46.6169 51.5858 46.9574C51.688 47.2687 51.7171 47.5848 51.6685 47.9059C51.581 48.4944 51.2648 48.9273 50.7541 49.2192C50.6616 49.2727 50.5595 49.3116 50.4622 49.3505C50.3892 49.3797 50.3163 49.404 50.2433 49.4283M47.714 52.7408C48.0447 52.7408 48.3755 52.7408 48.7063 52.7408C48.8133 52.7408 48.9203 52.7408 49.0273 52.7359C49.2608 52.7262 49.4894 52.6824 49.7131 52.6241C49.8445 52.59 49.9709 52.5365 50.0877 52.4635C50.3406 52.3128 50.5157 52.1036 50.5984 51.8166C50.6616 51.6075 50.6616 51.3934 50.647 51.1794C50.613 50.7611 50.4136 50.4449 50.0536 50.2309C49.9126 50.1482 49.7569 50.085 49.5964 50.0461C49.3337 49.978 49.0662 49.9342 48.789 49.9342C47.9718 49.9342 47.1546 49.9342 46.3423 49.9342C46.3131 49.9342 46.2839 49.9342 46.2548 49.9391C46.2158 49.9391 46.1769 49.978 46.1769 50.012C46.1769 50.0607 46.1672 50.1093 46.1672 50.158C46.1672 50.9459 46.1672 51.7339 46.1672 52.517C46.1672 52.5657 46.1672 52.6143 46.1769 52.663C46.1769 52.6922 46.2256 52.7359 46.2596 52.7359C46.3277 52.7359 46.3958 52.7359 46.4639 52.7408C46.8822 52.7408 47.3005 52.7408 47.7188 52.7408M47.6994 49.0197C47.9912 49.0197 48.2831 49.0197 48.5749 49.0197C48.75 49.0197 48.9251 49.01 49.1003 49.0052C49.2559 49.0052 49.4067 48.9662 49.5575 48.9225C49.718 48.8787 49.8688 48.8106 50.005 48.7133C50.2385 48.5479 50.3795 48.3242 50.4282 48.0421C50.4622 47.8572 50.4525 47.6724 50.4233 47.4924C50.3747 47.1957 50.219 46.972 49.9563 46.8212C49.8299 46.7482 49.6937 46.6996 49.5526 46.6655C49.2559 46.5974 48.9592 46.5682 48.6576 46.5682C47.9183 46.5682 47.1789 46.5682 46.4396 46.5682C46.3909 46.5682 46.3423 46.5682 46.2937 46.5682C46.2742 46.5682 46.2548 46.5682 46.2353 46.5828C46.2207 46.5926 46.2012 46.6071 46.1964 46.6217C46.1867 46.6704 46.1769 46.719 46.1769 46.7628C46.1769 47.4535 46.1769 48.1442 46.1769 48.8349C46.1769 48.8738 46.1769 48.9127 46.1867 48.9517C46.1964 48.976 46.2207 49.0052 46.245 49.01C46.2985 49.0197 46.3618 49.0246 46.4153 49.0246C46.8433 49.0246 47.2714 49.0246 47.6994 49.0246" fill="#796E63"/>
<path d="M43.9394 53.6601H43.7546C43.3266 53.6601 42.8985 53.6601 42.4705 53.6601C42.1932 53.6601 42.2419 53.6893 42.0327 53.4947C41.4782 52.9889 40.9286 52.483 40.3789 51.9771C39.4985 51.1697 38.6181 50.3622 37.7377 49.5548C37.7328 49.5499 37.7231 49.5402 37.7134 49.5353C37.6696 49.5062 37.6356 49.4381 37.5675 49.4721C37.514 49.5013 37.5383 49.5597 37.5334 49.6034C37.5334 49.6813 37.5334 49.7591 37.5334 49.8369V53.2467C37.5334 53.3245 37.5334 53.4023 37.5334 53.4801C37.5334 53.6309 37.514 53.6552 37.3729 53.6552C37.0519 53.6552 36.7308 53.6552 36.4098 53.6552C36.3806 53.6552 36.3514 53.6552 36.3222 53.6455C36.2979 53.6358 36.2736 53.6115 36.2639 53.592C36.2541 53.5677 36.2541 53.5336 36.2541 53.5045C36.2541 53.4266 36.2541 53.3488 36.2541 53.271V45.931C36.2541 45.6489 36.2396 45.6538 36.5168 45.6538C36.7697 45.6538 37.0227 45.6538 37.2756 45.6538C37.3243 45.6538 37.3729 45.6538 37.4215 45.6538C37.4945 45.6538 37.5334 45.6878 37.5334 45.7559C37.5334 45.8435 37.5334 45.931 37.5334 46.0186V49.1414C37.5675 49.1414 37.6064 49.1608 37.621 49.1462C37.7572 49.0392 37.8934 48.9273 38.0295 48.8155C39.2407 47.8086 40.447 46.8017 41.6582 45.7948C41.6825 45.7754 41.7019 45.7559 41.7263 45.7365C41.7944 45.6732 41.8722 45.6441 41.9646 45.6441C42.4802 45.6441 42.9958 45.6441 43.5114 45.6441C43.5309 45.6441 43.5454 45.6586 43.56 45.6684C43.5746 45.6781 43.56 45.7122 43.5309 45.7413C43.5017 45.7657 43.4725 45.79 43.4433 45.8143C43.1563 46.0429 42.8645 46.2715 42.5775 46.505C41.4977 47.366 40.4178 48.222 39.338 49.083C39.2796 49.1316 39.2213 49.1851 39.1677 49.2386C39.158 49.2484 39.158 49.2775 39.1677 49.2921C39.1969 49.3311 39.231 49.3651 39.265 49.3992C39.6979 49.7883 40.1357 50.1774 40.5686 50.5665C41.629 51.5102 42.6845 52.4538 43.7449 53.3974C43.8081 53.4558 43.8762 53.5142 43.9346 53.5774C43.9492 53.592 43.9394 53.6261 43.9443 53.6601" fill="#796F64"/>
<path d="M82.0449 51.622C82.0449 50.3866 82.0449 49.1559 82.0449 47.9205C82.0449 47.8329 82.0449 47.7454 82.0449 47.6578C82.0449 47.6092 82.0886 47.5702 82.1421 47.5702C82.1811 47.5702 82.22 47.5702 82.2589 47.5702C82.5313 47.5702 82.8037 47.5702 83.076 47.5702C83.1247 47.5702 83.1733 47.5751 83.222 47.58C83.256 47.58 83.2949 47.6237 83.2949 47.6578C83.2998 47.7843 83.3047 47.9107 83.3144 48.0323C83.3144 48.0421 83.3484 48.0615 83.3582 48.0567C83.4019 48.0372 83.4457 48.0129 83.4846 47.9837C83.616 47.8815 83.7522 47.794 83.903 47.7162C84.3456 47.4827 84.8125 47.3903 85.3135 47.4632C85.4887 47.4876 85.6589 47.5265 85.8243 47.5848C86.2329 47.7259 86.5588 47.9788 86.8117 48.3242C87.0306 48.616 87.1765 48.9468 87.2641 49.297C87.4586 50.0607 87.4878 50.8341 87.3321 51.6075C87.2689 51.9139 87.1668 52.2057 87.0111 52.4781C86.656 53.1056 86.1259 53.5045 85.4206 53.6504C84.7688 53.7866 84.1656 53.6601 83.616 53.2856C83.5381 53.2321 83.4603 53.1737 83.3825 53.1153C83.363 53.1007 83.3144 53.1153 83.3144 53.1397C83.3144 53.2077 83.3047 53.2758 83.3047 53.3439C83.3047 53.8498 83.3047 54.3557 83.3047 54.8567C83.3047 54.9151 83.3047 54.9734 83.2998 55.0318C83.2998 55.0561 83.2755 55.0853 83.2512 55.0999C83.222 55.1242 83.1831 55.1388 83.149 55.1583C82.828 55.3139 82.5021 55.4744 82.1811 55.6301C82.1713 55.6301 82.1616 55.6398 82.1567 55.6398C82.0984 55.6641 82.0546 55.6398 82.0546 55.5863C82.0546 55.4987 82.0546 55.4112 82.0546 55.3236V51.622H82.0449ZM86.1648 50.6346C86.1842 50.3817 86.1404 50.1239 86.1015 49.8661C86.0675 49.6326 85.9945 49.4137 85.8875 49.2046C85.761 48.9662 85.5859 48.7717 85.3379 48.6598C85.0557 48.5285 84.759 48.4993 84.4526 48.5625C84.0002 48.6549 83.6354 48.9079 83.329 49.2484C83.2949 49.2873 83.2803 49.3311 83.2803 49.3846C83.2803 49.4527 83.2803 49.5208 83.2803 49.5888C83.2803 50.2309 83.2803 50.873 83.2803 51.515C83.2803 51.5734 83.2803 51.6318 83.2803 51.6901C83.2803 51.7826 83.3095 51.8604 83.3728 51.9285C83.6403 52.2057 83.9516 52.4198 84.3164 52.5365C84.6131 52.6338 84.9098 52.6386 85.2065 52.556C85.4984 52.4733 85.7221 52.2933 85.8778 52.0306C85.9994 51.8263 86.0723 51.6075 86.1113 51.374C86.155 51.1356 86.1794 50.8924 86.1648 50.6346Z" fill="#796F64"/>
<path d="M73.951 53.6552C73.8634 53.6066 73.8002 53.5288 73.737 53.4558C73.2068 52.9013 72.6815 52.3419 72.1513 51.7874C71.8254 51.4421 71.4946 51.0967 71.1687 50.7514C71.1006 50.6784 71.0325 50.6103 70.9644 50.5471C70.9547 50.5374 70.9304 50.5374 70.9109 50.5374C70.8866 50.5374 70.8769 50.5519 70.872 50.5763C70.872 50.6638 70.8623 50.7514 70.8623 50.8389C70.8623 51.6658 70.8623 52.4927 70.8623 53.3196C70.8623 53.4072 70.8623 53.4947 70.8574 53.5823C70.8574 53.6309 70.8136 53.6698 70.7601 53.6698C70.4002 53.6698 70.0402 53.6698 69.6803 53.6698C69.6171 53.6698 69.583 53.6309 69.5782 53.558C69.5782 53.4996 69.5782 53.4412 69.5782 53.3829C69.5782 50.907 69.5782 48.4263 69.5782 45.9505C69.5782 45.8824 69.5782 45.8143 69.583 45.7462C69.583 45.7122 69.6219 45.6781 69.6608 45.6732C69.6803 45.6732 69.6998 45.6684 69.7192 45.6684C70.05 45.6684 70.3807 45.6684 70.7115 45.6684C70.7309 45.6684 70.7504 45.6684 70.7699 45.6732C70.8185 45.6732 70.8526 45.717 70.8574 45.7705C70.8574 45.8581 70.8574 45.9456 70.8574 46.0332V49.7348C70.8574 50.0801 70.8623 50.1239 70.9109 50.119C71.0423 50.0947 71.1152 49.9828 71.2028 49.9002C72.0053 49.1754 72.8031 48.4506 73.6008 47.7259C73.63 47.7016 73.6591 47.6724 73.6883 47.6481C73.7418 47.5994 73.8002 47.5751 73.8732 47.5751C74.3596 47.5751 74.846 47.5751 75.3373 47.5751C75.3373 47.6092 75.347 47.6481 75.3373 47.6578C75.2643 47.7356 75.1865 47.8086 75.1086 47.8815C74.2915 48.6306 73.4743 49.3748 72.6571 50.1239C72.5939 50.1823 72.5307 50.2455 72.4674 50.3087C72.4431 50.3331 72.4431 50.3866 72.4674 50.4157C72.5015 50.4547 72.5307 50.4887 72.5647 50.5228C72.9782 50.9459 73.3916 51.3691 73.8099 51.7923C74.3498 52.3419 74.8849 52.8867 75.4248 53.4364C75.4783 53.4899 75.527 53.5482 75.5805 53.6066C75.5951 53.6261 75.5951 53.6407 75.5805 53.6601C75.5756 53.665 75.5659 53.6747 75.561 53.6747C75.5416 53.6747 75.5221 53.6796 75.5026 53.6796C75.0162 53.6796 74.5298 53.6796 74.0434 53.6796C74.0142 53.6796 73.985 53.6747 73.9607 53.6698" fill="#796E63"/>
<path d="M75.4783 50.6444C75.4832 50.2309 75.5172 49.8807 75.6097 49.5402C75.668 49.3213 75.7458 49.1122 75.848 48.9176C76.2031 48.2366 76.743 47.7794 77.4823 47.5654C78.1147 47.3805 78.747 47.4 79.3696 47.6335C79.9728 47.8572 80.4349 48.2609 80.7559 48.8203C80.9748 49.2046 81.1012 49.618 81.1547 50.0607C81.2131 50.5276 81.1888 50.9897 81.0915 51.4518C81.0088 51.8361 80.8629 52.1912 80.644 52.517C80.3084 53.018 79.8463 53.3634 79.2772 53.5531C78.7324 53.7331 78.173 53.7623 77.6137 53.6261C76.8889 53.451 76.3344 53.0326 75.9501 52.4003C75.6972 51.9869 75.561 51.5345 75.5075 51.0578C75.488 50.9022 75.488 50.7465 75.4832 50.659M79.9193 50.6152C79.9193 50.3136 79.8803 50.0461 79.8074 49.7834C79.749 49.5743 79.6566 49.3846 79.535 49.2094C79.3793 48.9906 79.1799 48.8252 78.9318 48.7182C78.7859 48.6549 78.64 48.616 78.4843 48.6063C78.2898 48.5917 78.0952 48.5917 77.9055 48.6403C77.5699 48.7279 77.3121 48.9225 77.1175 49.2046C76.9132 49.5013 76.8208 49.8321 76.7819 50.1871C76.7576 50.4303 76.7624 50.6735 76.777 50.9168C76.7916 51.1308 76.8403 51.3399 76.9084 51.5442C76.9716 51.7291 77.064 51.8993 77.1856 52.055C77.3656 52.2836 77.5942 52.4392 77.8715 52.5268C78.0514 52.5851 78.2314 52.5949 78.4211 52.59C78.7324 52.5803 79.0097 52.4733 79.248 52.269C79.4912 52.0598 79.6566 51.802 79.7685 51.5053C79.8755 51.2086 79.9241 50.9022 79.929 50.62" fill="#796E64"/>
<path d="M67.1023 53.5434C67.0926 53.4996 67.078 53.4655 67.078 53.4266C67.0731 53.3294 67.0683 53.2321 67.0634 53.1348C67.0634 53.1105 67.0099 53.0861 66.9953 53.1007C66.9661 53.1251 66.9369 53.1494 66.9078 53.1737C66.611 53.4461 66.2511 53.592 65.862 53.6455C65.5069 53.6942 65.1469 53.6893 64.7919 53.6017C64.2082 53.4607 63.7801 53.1299 63.5077 52.59C63.3764 52.3273 63.2986 52.0501 63.25 51.7582C63.2013 51.481 63.1916 51.1989 63.1916 50.9168C63.1916 49.8856 63.1916 48.8592 63.1916 47.828C63.1916 47.7697 63.1916 47.7113 63.1916 47.6529C63.1916 47.6335 63.1916 47.614 63.2062 47.5994C63.2159 47.5848 63.2305 47.5654 63.25 47.5605C63.2791 47.5508 63.3083 47.5459 63.3375 47.5459C63.6683 47.5459 63.999 47.5459 64.3298 47.5459C64.3492 47.5459 64.3687 47.5459 64.3882 47.5557C64.4125 47.5702 64.4417 47.5897 64.4465 47.6092C64.4562 47.6773 64.4611 47.7454 64.4611 47.8134C64.4611 48.4555 64.4611 49.0976 64.4611 49.7348C64.4611 50.1531 64.4611 50.5714 64.4611 50.9897C64.4611 51.2037 64.4757 51.4178 64.5292 51.6269C64.5584 51.7291 64.5876 51.8312 64.6265 51.9285C64.7724 52.2787 65.0448 52.483 65.4096 52.5511C65.6188 52.59 65.8328 52.5949 66.0468 52.5608C66.4262 52.4927 66.7083 52.2982 66.8883 51.9528C66.971 51.7972 67.0196 51.6318 67.044 51.4567C67.0683 51.2913 67.078 51.1308 67.078 50.9605C67.078 49.9488 67.078 48.9419 67.078 47.9302C67.078 47.8426 67.078 47.7551 67.078 47.6675C67.078 47.58 67.112 47.5459 67.2045 47.5459C67.545 47.5459 67.8854 47.5459 68.2259 47.5459C68.2989 47.5459 68.3329 47.58 68.3378 47.6529C68.3378 47.7308 68.3378 47.8086 68.3378 47.8864C68.3378 49.6618 68.3378 51.4421 68.3378 53.2175C68.3378 53.5872 68.3719 53.5434 68.0119 53.5434C67.7687 53.5434 67.5255 53.5434 67.2823 53.5434C67.2239 53.5434 67.1656 53.5385 67.1023 53.5336" fill="#796E63"/>
<path d="M92.1184 48.0956C92.1184 48.0956 92.1671 48.115 92.1768 48.1102C92.2109 48.0907 92.24 48.0664 92.2692 48.0421C92.634 47.721 93.0669 47.5654 93.5485 47.5411C93.889 47.5216 94.2246 47.5411 94.5554 47.6529C95.0515 47.8134 95.4212 48.1248 95.6595 48.5868C95.8298 48.9079 95.9173 49.2581 95.9562 49.618C95.9805 49.8418 95.9903 50.0655 95.9903 50.2893C95.9903 51.3205 95.9903 52.3517 95.9903 53.378C95.9903 53.4558 95.9805 53.5336 95.9757 53.6115C95.9757 53.6261 95.9562 53.6407 95.9368 53.6504C95.9222 53.6601 95.8979 53.665 95.8784 53.665C95.5282 53.665 95.178 53.665 94.8277 53.665C94.7742 53.665 94.7353 53.6261 94.7353 53.5774C94.7353 53.4899 94.7305 53.4023 94.7305 53.3148C94.7305 52.3517 94.7305 51.3886 94.7305 50.4303C94.7305 50.1969 94.7159 49.9634 94.6818 49.7348C94.6624 49.5889 94.6235 49.4478 94.5651 49.3165C94.4046 48.9322 94.1127 48.7182 93.7041 48.6598C93.529 48.6355 93.3539 48.6306 93.1788 48.6598C92.7605 48.7133 92.4589 48.9273 92.2741 49.3067C92.1719 49.5208 92.1282 49.7494 92.1087 49.9828C92.099 50.0996 92.1039 50.2163 92.1039 50.3331C92.1039 51.3351 92.1039 52.3371 92.1039 53.3391C92.1039 53.4266 92.1038 53.5142 92.0941 53.6017C92.0941 53.6358 92.0552 53.6698 92.0163 53.6747C92.0066 53.6747 91.9968 53.6747 91.9871 53.6747C91.6369 53.6747 91.2867 53.6747 90.9365 53.6747C90.8878 53.6747 90.844 53.6358 90.8392 53.5823C90.8392 53.5142 90.8343 53.4461 90.8343 53.378C90.8343 51.5685 90.8343 49.764 90.8343 47.9545C90.8343 47.8864 90.8343 47.8183 90.844 47.7502C90.844 47.7162 90.883 47.6821 90.9219 47.6773C90.9316 47.6773 90.9413 47.6773 90.951 47.6773C91.3013 47.6773 91.6515 47.6773 92.0017 47.6773C92.0552 47.6773 92.099 47.7162 92.099 47.7648C92.099 47.8815 92.1038 47.9983 92.1087 48.1102" fill="#796F64"/>
<path d="M43.954 60.9855C43.9929 60.9757 44.0173 60.966 44.0464 60.966C44.2605 60.966 44.4745 60.966 44.6885 60.966C44.7615 60.966 44.7858 61.0001 44.7761 61.0779C44.7663 61.1363 44.7615 61.1946 44.7517 61.253C44.6058 62.0848 44.4599 62.9165 44.314 63.7483C44.2313 64.2347 44.1437 64.726 44.061 65.2124C44.027 65.4118 43.9784 65.6112 43.9005 65.8009C43.7254 66.229 43.4433 66.5646 43.0542 66.8127C42.8401 66.9489 42.6115 67.0559 42.3683 67.1337C41.8576 67.2991 41.3274 67.3526 40.7875 67.3623C40.7778 67.3623 40.768 67.3623 40.7583 67.3623C40.7194 67.3623 40.6805 67.3234 40.6805 67.2894C40.6854 67.1434 40.6902 66.9975 40.7048 66.8516C40.7097 66.7786 40.7486 66.7543 40.8215 66.7494C41.1134 66.73 41.4004 66.6862 41.6874 66.623C41.916 66.5695 42.1349 66.5014 42.344 66.3944C42.4656 66.3311 42.5824 66.263 42.6845 66.1755C42.918 65.9809 43.0736 65.7426 43.1417 65.4507C43.166 65.3486 43.1758 65.2416 43.1904 65.1346C43.1904 65.1248 43.166 65.0956 43.1515 65.0956C43.0834 65.1005 43.0153 65.1102 42.952 65.1248C42.7526 65.1783 42.5532 65.2124 42.3537 65.2464C42.0716 65.2902 41.7944 65.2853 41.5122 65.227C41.3858 65.2026 41.269 65.1589 41.1572 65.1005C40.9334 64.9789 40.7875 64.7892 40.7243 64.5411C40.6756 64.3612 40.6659 64.1763 40.6951 63.9915C40.7291 63.7921 40.7583 63.5878 40.7924 63.3883C40.9237 62.6441 41.055 61.8951 41.1864 61.1508C41.1912 61.1119 41.1961 61.073 41.2107 61.039C41.2204 61.0146 41.2496 61.0001 41.269 60.9806C41.2739 60.9757 41.2885 60.9757 41.2982 60.9757C41.5317 60.9757 41.7652 60.9757 41.9987 60.9757C42.023 60.9757 42.0522 61.0146 42.0522 61.0341C42.0522 61.0633 42.0522 61.0925 42.0522 61.1217C42.0084 61.3697 41.9646 61.6178 41.9208 61.8659C41.8041 62.5274 41.6874 63.184 41.5706 63.8456C41.5512 63.9526 41.5414 64.0547 41.5512 64.1666C41.5706 64.4001 41.6922 64.5411 41.9208 64.5898C42.0327 64.6141 42.1494 64.6287 42.2662 64.619C42.5872 64.5946 42.9034 64.5557 43.2147 64.4779C43.2876 64.4584 43.3314 64.4195 43.346 64.3417C43.4044 63.9963 43.4676 63.651 43.526 63.3105C43.6476 62.6149 43.7692 61.9145 43.8957 61.2141C43.9103 61.1411 43.9297 61.0633 43.9492 60.9903" fill="#59A544"/>
<path d="M60.886 61.0633C60.9687 61.039 61.0514 61.0146 61.1341 60.9952C61.3043 60.9514 61.4697 60.9028 61.6399 60.8687C61.9561 60.8055 62.2771 60.8104 62.5933 60.893C62.6419 60.9076 62.6857 60.9222 62.7295 60.9368C63.0797 61.073 63.2694 61.3357 63.3083 61.7054C63.3278 61.8999 63.318 62.0945 63.284 62.2842C63.1283 63.1646 62.9776 64.045 62.8219 64.9254C62.8073 65.0129 62.783 65.0956 62.7684 65.1735C62.7441 65.1881 62.7295 65.2026 62.71 65.2026C62.4766 65.2026 62.2431 65.2026 62.0096 65.2026C61.961 65.2026 61.9269 65.1589 61.9366 65.1054C61.9366 65.0762 61.9464 65.047 61.9512 65.0178C61.9999 64.7211 62.0534 64.4244 62.102 64.1277C62.2042 63.5343 62.3112 62.9408 62.4133 62.3474C62.4376 62.1918 62.4571 62.041 62.4425 61.8853C62.4231 61.7005 62.3306 61.5789 62.1555 61.5205C62.0728 61.4913 61.9853 61.4816 61.8977 61.4767C61.7032 61.4719 61.5086 61.4816 61.3189 61.5254C61.1487 61.5643 60.9784 61.6081 60.8082 61.647C60.7401 61.6616 60.7109 61.7102 60.7012 61.7686C60.6525 62.0264 60.6087 62.2842 60.565 62.542C60.4239 63.3543 60.2828 64.1666 60.1369 64.9838C60.1272 65.0519 60.1029 65.1151 60.0834 65.1832C60.0396 65.1881 60.0056 65.2026 59.9667 65.2026C59.8013 65.2026 59.6359 65.2026 59.4705 65.2026C59.2468 65.2026 59.2468 65.2026 59.2857 64.9692C59.4073 64.2687 59.5289 63.5732 59.6554 62.8727C59.7624 62.2696 59.8645 61.6664 59.9715 61.0633C60.0737 60.4699 60.1758 59.8764 60.2828 59.283C60.2877 59.2538 60.2926 59.2247 60.3023 59.2003C60.3169 59.1614 60.3412 59.1322 60.385 59.1274C60.6185 59.1031 60.8471 59.0836 61.0806 59.0641C61.1243 59.0641 61.1584 59.0933 61.1535 59.1322C61.1438 59.1906 61.1389 59.249 61.1292 59.3073C61.0416 59.7938 60.9541 60.285 60.8714 60.7714C60.8568 60.8493 60.8519 60.9271 60.8471 61.0001C60.8471 61.0147 60.8665 61.0292 60.8811 61.0536" fill="#59A544"/>
<path d="M40.3011 60.0029C40.1357 59.9835 39.9898 59.964 39.8487 59.9494C39.5861 59.9202 39.3283 59.891 39.0656 59.8667C38.8808 59.8521 38.6959 59.857 38.516 59.9056C38.4089 59.93 38.3117 59.9737 38.2241 60.0321C37.8788 60.2558 37.8058 60.6207 37.8739 60.9222C37.9031 61.039 37.9614 61.1411 38.0441 61.2238C38.1171 61.3016 38.1998 61.3746 38.2825 61.4378C38.4625 61.574 38.6473 61.7005 38.8273 61.827C38.9683 61.9291 39.1142 62.0264 39.2553 62.1285C39.3574 62.2015 39.4596 62.2793 39.552 62.362C39.8633 62.6344 40.0044 62.9846 40.0238 63.3883C40.053 63.9915 39.8195 64.4633 39.3429 64.8281C39.0461 65.0567 38.7057 65.1978 38.3408 65.2805C37.9371 65.3729 37.5334 65.3729 37.1248 65.3097C36.8281 65.2659 36.5314 65.2026 36.2493 65.1005C36.225 65.0908 36.1958 65.0762 36.1763 65.0567C36.1617 65.047 36.1471 65.0178 36.152 65.0081C36.2055 64.8427 36.2541 64.6773 36.3125 64.5119C36.3222 64.4876 36.3514 64.4682 36.3806 64.473C36.4195 64.473 36.4584 64.4779 36.4974 64.4876C36.7016 64.546 36.9157 64.58 37.1248 64.6141C37.3875 64.6579 37.6453 64.6627 37.9079 64.6481C38.0928 64.6384 38.2727 64.5898 38.443 64.5119C38.5403 64.4682 38.6327 64.4098 38.7154 64.3417C39.0024 64.1082 39.1094 63.7969 39.0802 63.437C39.0705 63.2765 39.0024 63.1354 38.8954 63.0187C38.8078 62.9262 38.7154 62.8436 38.6084 62.7706C38.4333 62.649 38.2533 62.5323 38.083 62.4058C37.9031 62.2745 37.7231 62.1431 37.548 62.0069C37.4799 61.9534 37.4167 61.8951 37.3486 61.8367C36.7649 61.3211 36.7795 60.3726 37.2659 59.8375C37.4702 59.6089 37.7182 59.4435 38.0052 59.3365C38.336 59.2101 38.6813 59.1566 39.0364 59.1809C39.4742 59.2149 39.9071 59.2733 40.3303 59.3803C40.3595 59.3852 40.3838 59.3949 40.413 59.4046C40.447 59.4144 40.4762 59.4581 40.4665 59.4922C40.4227 59.6624 40.3838 59.8327 40.3059 60.0175" fill="#59A544"/>
<path d="M47.6459 60.8249C47.9475 60.8249 48.249 60.8785 48.5457 60.9709C48.7841 61.0438 49.0176 61.1411 49.251 61.2481C49.3289 61.2822 49.3435 61.3162 49.3289 61.4135C49.2948 61.6227 49.2608 61.8367 49.2267 62.0458C49.1148 62.7171 48.9981 63.3835 48.8862 64.0547C48.8765 64.1228 48.8619 64.1909 48.8619 64.259C48.8571 64.4633 48.9252 64.6384 49.0954 64.7649C49.1294 64.7892 49.1635 64.8038 49.1878 64.833C49.2073 64.8524 49.2219 64.8913 49.2121 64.9108C49.1343 65.047 49.0516 65.1783 48.9689 65.3097C48.9446 65.3486 48.9057 65.3583 48.8668 65.3486C48.6771 65.3048 48.4971 65.2318 48.3415 65.1102C48.2247 65.0227 48.142 64.9011 48.0788 64.7649C48.0545 64.7114 48.0156 64.7065 47.9621 64.7503C47.9231 64.7795 47.8891 64.8135 47.855 64.8476C47.7237 64.9643 47.5778 65.0616 47.4221 65.1394C47.0087 65.3486 46.5709 65.4021 46.1234 65.2853C45.7537 65.1881 45.4911 64.9643 45.3354 64.6092C45.2382 64.3903 45.1992 64.1617 45.1847 63.9283C45.1506 63.3056 45.2722 62.7122 45.5641 62.1577C45.7635 61.7832 46.0261 61.467 46.3764 61.2238C46.7217 60.9855 47.1449 60.8298 47.6459 60.8298M46.0553 63.6559C46.0553 63.758 46.0553 63.7921 46.0553 63.831C46.0651 63.9963 46.0894 64.1617 46.1575 64.3125C46.2596 64.546 46.4445 64.6725 46.6974 64.6919C46.8433 64.7016 46.9892 64.6919 47.1303 64.6481C47.4805 64.5509 47.7578 64.3466 47.9815 64.0693C48.0058 64.0401 48.0204 64.0012 48.0302 63.9672C48.0593 63.8261 48.0837 63.6802 48.108 63.5391C48.2101 62.936 48.3171 62.3328 48.4193 61.7297C48.429 61.6616 48.4047 61.6275 48.3366 61.5983C48.0934 61.5108 47.8502 61.4767 47.5924 61.4719C47.2616 61.4621 46.9892 61.5886 46.7558 61.8172C46.6293 61.9437 46.532 62.0848 46.4445 62.2355C46.1915 62.6976 46.0845 63.1938 46.0553 63.6559Z" fill="#59A544"/>
<path d="M57.6854 64.6919C57.6124 64.7551 57.5492 64.8135 57.4811 64.867C57.2233 65.081 56.9315 65.2318 56.6007 65.2999C56.2991 65.3632 56.0024 65.3486 55.7106 65.261C55.3993 65.1637 55.1707 64.9643 55.0247 64.6725C54.9275 64.4779 54.874 64.2736 54.8545 64.0596C54.8059 63.4613 54.8837 62.8776 55.1366 62.328C55.2874 61.9972 55.4868 61.7005 55.7544 61.4524C56.2164 61.0195 56.7612 60.8104 57.3984 60.8298C57.593 60.8347 57.7876 60.8639 57.9724 60.9125C58.3032 60.9952 58.6193 61.1168 58.9258 61.2627C58.9744 61.287 58.9987 61.326 58.989 61.3795C58.9647 61.5448 58.9404 61.7054 58.9112 61.8707C58.7847 62.5955 58.6631 63.3251 58.5366 64.0499C58.522 64.1423 58.5123 64.2444 58.5172 64.3368C58.5172 64.4925 58.5853 64.619 58.702 64.7211C58.7506 64.7649 58.809 64.7989 58.8625 64.8476C58.8723 64.8573 58.882 64.8865 58.8723 64.9011C58.7896 65.0421 58.702 65.1832 58.6096 65.3194C58.5999 65.3388 58.5561 65.3486 58.5318 65.3437C58.201 65.2659 57.9092 65.1297 57.7535 64.7989C57.7389 64.7649 57.7146 64.7357 57.6854 64.6968M55.7154 63.724C55.7154 63.8164 55.7154 63.9039 55.73 63.9866C55.7446 64.1131 55.7738 64.2347 55.8322 64.3466C55.9295 64.546 56.09 64.6627 56.3089 64.6871C56.4548 64.7065 56.6007 64.7016 56.7418 64.6627C57.0725 64.58 57.3449 64.4001 57.5735 64.1569C57.6465 64.079 57.6951 63.9915 57.7146 63.8747C57.8216 63.2327 57.9335 62.5955 58.0454 61.9534C58.0599 61.8659 58.0697 61.7783 58.0794 61.6956C58.0794 61.6616 58.0551 61.6178 58.021 61.6081C57.7049 61.4913 57.379 61.4476 57.0482 61.4865C56.9801 61.4962 56.9169 61.5157 56.8536 61.54C56.6931 61.5935 56.5618 61.6859 56.4402 61.8026C56.2943 61.9437 56.1775 62.1139 56.0851 62.2939C55.8565 62.7414 55.7446 63.223 55.73 63.7191" fill="#59A544"/>
<path d="M88.2807 50.6298V47.9788C88.2807 47.8913 88.2807 47.8037 88.2807 47.7162C88.2807 47.6821 88.3196 47.6383 88.3536 47.6383C88.3828 47.6383 88.412 47.6286 88.4412 47.6286C88.7622 47.6286 89.0832 47.6286 89.4043 47.6286C89.4334 47.6286 89.4626 47.6286 89.487 47.6432C89.5113 47.6529 89.5356 47.6821 89.5405 47.7016C89.5502 47.7794 89.5502 47.8572 89.5502 47.9351C89.5502 49.117 89.5502 50.3039 89.5502 51.4859V53.378C89.5502 53.4364 89.5502 53.4947 89.5502 53.5531C89.5502 53.6163 89.5064 53.6552 89.4383 53.6552C89.0881 53.6552 88.7379 53.6552 88.3925 53.6552C88.3293 53.6552 88.2904 53.6115 88.2904 53.5385C88.2904 53.451 88.2904 53.3634 88.2904 53.2758V50.6249L88.2807 50.6298Z" fill="#7A7065"/>
<path d="M50.9632 60.9709C51.0313 61.0244 51.041 61.0925 51.0605 61.1557C51.0751 61.1995 51.114 61.2092 51.1529 61.1946C51.1967 61.1752 51.2405 61.1508 51.2842 61.1314C51.5664 60.9903 51.8631 60.9076 52.1792 60.8979C52.3349 60.8979 52.4905 60.893 52.6462 60.893C52.6754 60.893 52.7046 60.9028 52.7435 60.9076C52.7435 60.9417 52.7581 60.9806 52.7532 61.0195C52.7289 61.1654 52.7046 61.3065 52.6802 61.4524C52.6657 61.5157 52.6267 61.5448 52.5538 61.5448C52.4079 61.5448 52.2619 61.5448 52.116 61.5448C51.8728 61.5497 51.6296 61.574 51.3961 61.647C51.3475 61.6616 51.3037 61.6762 51.2599 61.6908C51.0654 61.7637 51.0508 61.7783 51.0167 61.9729C50.8367 62.9895 50.6568 64.0012 50.4817 65.0129C50.4768 65.0421 50.4719 65.0713 50.4671 65.1005C50.4525 65.1686 50.4136 65.2075 50.3503 65.2075C50.1266 65.2075 49.9028 65.2075 49.6791 65.2075C49.6256 65.2075 49.5915 65.1686 49.6013 65.1102C49.6256 64.9497 49.6548 64.7843 49.684 64.6238C49.8542 63.6559 50.0244 62.6928 50.1947 61.7248C50.2336 61.4962 50.2774 61.2676 50.3211 61.0341C50.326 60.9952 50.3649 60.966 50.399 60.9611C50.5935 60.9514 50.7881 60.9514 50.9681 60.9611" fill="#59A745"/>
<path d="M53.5461 65.1881C53.5461 65.1881 53.5266 65.1978 53.5169 65.1978C53.2639 65.2221 53.0159 65.2124 52.7629 65.2075C52.724 65.2075 52.69 65.1637 52.6948 65.1297C52.6948 65.1005 52.6948 65.0713 52.7046 65.0421C52.8894 64.0012 53.0742 62.9603 53.2591 61.9194C53.3028 61.6616 53.3466 61.4038 53.3953 61.146C53.4001 61.1071 53.4099 61.073 53.4196 61.0341C53.4293 61.0001 53.4682 60.966 53.5023 60.966C53.7455 60.966 53.9887 60.966 54.227 60.966C54.2659 60.966 54.3 61.0049 54.2951 61.0438C54.2611 61.2433 54.227 61.4476 54.193 61.647C53.9984 62.7463 53.8087 63.8407 53.6142 64.94C53.5996 65.0275 53.5898 65.1151 53.5461 65.1881Z" fill="#59A745"/>
<path d="M88.3001 45.6927C88.3293 45.683 88.3536 45.6635 88.3828 45.6635C88.7379 45.6635 89.0978 45.6635 89.4529 45.6635C89.5064 45.6635 89.5453 45.7024 89.5453 45.7511C89.5453 46.0916 89.5453 46.4272 89.5405 46.7628C89.5405 46.7968 89.5015 46.8309 89.4626 46.8358C89.4334 46.8358 89.4043 46.8406 89.3751 46.8406C89.0638 46.8406 88.7573 46.8406 88.446 46.8406C88.4071 46.8406 88.3682 46.8358 88.3342 46.826C88.3196 46.826 88.3001 46.8066 88.2952 46.7871C88.2855 46.7628 88.2807 46.7336 88.2807 46.7044C88.2807 46.3931 88.2807 46.0867 88.2807 45.7754C88.2807 45.7462 88.2904 45.717 88.2952 45.6878" fill="#7C7166"/>
<path d="M54.0033 60.2753C53.8963 60.2753 53.7893 60.2558 53.6968 60.1975C53.5947 60.1294 53.5266 60.037 53.5071 59.9154C53.4244 59.4192 53.8671 59.0593 54.2611 59.0982C54.3389 59.1079 54.4119 59.1322 54.48 59.1712C54.5821 59.2344 54.6502 59.3268 54.6794 59.4435C54.7037 59.5603 54.6988 59.677 54.6599 59.7889C54.5578 60.0856 54.2854 60.2753 54.0033 60.2753Z" fill="#5AA644"/>
</g>
<rect x="1" y="1" width="110" height="110" rx="9" stroke="#CCCCCC" stroke-width="2"/>
<defs>
<clipPath id="clip0_528_43">
<rect x="2" y="2" width="108" height="108" rx="8" fill="white"/>
</clipPath>
</defs>
</svg>
