<svg width="112" height="112" viewBox="0 0 112 112" fill="none" xmlns="http://www.w3.org/2000/svg">
<g clip-path="url(#clip0_6_7376)">
<rect x="2" y="2" width="108" height="108" rx="8" fill="white"/>
<path d="M32.1573 56.0053L32.0138 55.914C31.5307 55.4319 30.8561 55.2218 29.9535 55.2761C29.2053 55.3191 28.6075 55.6178 28.1546 55.8932V55.8753C28.1546 55.6371 28.1808 55.3847 28.2045 55.1368C28.2326 54.8854 28.2598 54.6293 28.2598 54.3865C28.2598 54.1388 28.23 53.9055 28.1467 53.704C28.124 53.6522 28.0775 53.6216 28.0179 53.6216C27.7753 53.6272 27.2994 53.7927 27.1863 53.8951L27.1225 54.0318C27.1188 54.2964 27.0593 55.0481 26.9997 55.1401C27.0034 55.1368 26.9681 55.2322 26.9681 55.2322C26.8664 56.3022 26.8657 57.2443 26.9595 58.0531C26.9699 58.1336 27.125 58.2555 27.245 58.301C27.3755 58.3474 27.7901 58.2369 28.0267 58.1469L28.1151 58.1336C28.1922 58.1239 28.2379 58.0607 28.2326 57.9758L28.2379 57.7436C28.4104 57.046 29.1071 56.2138 29.928 56.0875C30.3916 56.0139 30.7595 56.1313 31.0481 56.4485C31.0873 56.5056 31.1725 57.0084 30.8666 57.5841C30.6395 58.0127 30.1831 58.3727 29.5821 58.5981C29.0133 58.8145 28.3902 58.9004 27.6193 58.8739C27.5875 58.8514 26.8954 58.385 26.8954 58.385C26.2856 57.9549 25.5239 57.4212 24.8346 57.1602C24.7144 57.1129 24.4964 56.9323 24.3664 56.8252L24.2947 56.7667C23.8977 56.4475 23.1423 55.9447 22.5343 55.5398C22.5343 55.5398 22.2617 55.3548 22.2074 55.3191C22.2074 55.297 22.209 55.2515 22.209 55.2515C22.226 55.2341 22.6053 55.0043 22.6053 55.0043C23.1423 54.6906 23.3886 54.5374 23.4376 54.4575C23.429 54.4701 23.5123 54.4165 23.5123 54.4165C23.5165 54.4146 24.837 53.6673 24.837 53.6673C26.1075 52.969 27.5492 52.1741 28.3055 51.389L28.3429 51.2732L28.3587 51.1645C28.4088 50.9974 28.4104 50.8683 28.3703 50.7193C28.3587 50.6775 28.3194 50.6285 28.2686 50.6178C27.6771 50.5602 26.9154 50.914 26.2224 51.564C26.0622 51.7131 25.9332 51.7832 25.7939 51.8612L25.6887 51.9183C24.9219 52.3538 23.1985 53.4238 22.2987 54.0002C22.3565 53.0294 22.5378 51.6492 22.756 50.4987L22.7332 50.362C22.7288 50.3569 22.6385 50.1883 22.6385 50.1883L22.5684 50.0632L22.5501 50.0572C22.3678 49.9676 22.2213 50.0035 22.1136 50.03L21.9333 50.0976L21.6948 50.1851C21.6456 50.1955 21.6134 50.2236 21.5941 50.2707C21.1639 51.3117 20.8036 53.024 20.7196 54.3937C19.859 53.8458 19.0625 53.4516 18.6727 53.2608L18.663 53.2552L18.614 53.2467C18.4754 53.2283 18.3036 53.1241 18.1372 53.024C18.1214 53.0152 17.8112 52.8121 17.8112 52.8121L17.3119 52.4922C17.316 52.494 17.1786 52.4622 17.1786 52.4622C16.9639 52.5001 16.5518 52.7761 16.4311 52.9653C16.4137 52.9911 16.4083 53.0171 16.4083 53.0461C16.4083 53.0855 16.4179 53.1259 16.4311 53.1642L16.4522 53.2659L16.4759 53.3284C16.7143 53.5719 17.3205 53.9828 17.9129 54.3015L18.6008 54.6662L19.6522 55.241C19.6531 55.248 19.8353 55.3847 19.8353 55.3847L19.9572 55.4549C19.9572 55.4549 19.9695 55.4637 19.98 55.4706C19.6995 55.6564 18.0652 56.7472 18.0652 56.7472L17.0586 57.4158C16.963 57.4799 16.566 57.6596 16.4782 57.6937C16.2593 57.7831 16.0938 57.917 16.0262 58.0661L16 58.122L16.0262 58.1624L16.1042 58.2202L16.3164 58.3658C16.3206 58.3676 16.4225 58.3816 16.4225 58.3816C16.5992 58.3878 16.8596 58.2852 17.353 58.0712C17.7996 57.8725 19.023 57.1354 19.5472 56.822L19.7696 56.6869C19.8609 56.6957 19.9642 56.617 20.0526 56.5504C20.1587 56.4652 20.3874 56.3259 20.5257 56.2646C20.5311 56.2618 20.61 56.2191 20.6827 56.1768V56.2381C20.7038 57.8367 20.7983 58.9977 20.9726 59.894L20.9754 59.9096L20.9928 59.9441C21.0778 60.0721 21.1769 60.4495 21.2647 60.7852L21.4627 61.451C21.4678 61.4589 21.5186 61.5167 21.5186 61.5167C21.6326 61.5896 21.9769 61.7247 22.2109 61.6973L22.2678 61.6911L22.3047 61.6107C22.3233 61.5088 22.3309 61.4125 22.3309 61.3029C22.3309 61.1813 22.3233 61.0471 22.3117 60.8825L22.2959 60.6424C22.2213 59.5242 22.1487 57.9128 22.1487 56.8426V56.7551C22.3388 56.8751 23.1669 57.3984 23.1669 57.3984C24.5804 58.3149 26.7139 59.6978 28.0011 60.0639C28.0668 60.0823 28.1388 60.0674 28.1878 60.0203C28.1887 60.0184 28.387 59.8959 28.387 59.8959L28.4237 59.8784C28.4973 59.8422 28.5462 59.7187 28.5551 59.5839C29.6417 59.5295 31.1565 59.1105 31.9672 58.0923C32.282 57.6963 32.422 57.2118 32.422 56.7974C32.422 56.4591 32.3291 56.1655 32.1573 56.0053Z" fill="#FCAF16"/>
<path d="M66.8855 59.4979V58.9266C66.5691 59.3603 65.9418 59.6214 65.2872 59.6214C63.8072 59.6214 63.0212 58.7144 63.0212 56.9515V53.5324H64.2681V56.9069C64.2681 58.1099 64.7519 58.541 65.5755 58.541C66.4115 58.541 66.8855 57.9855 66.8855 57.0197V53.5324H68.1305V59.4979H66.8855Z" fill="#776C61"/>
<path d="M84.6456 54.497C84.054 54.497 83.5352 54.8731 83.2076 55.2612V57.7698C83.4846 58.1204 84.0682 58.5535 84.6955 58.5535C85.592 58.5535 86.0765 57.917 86.0765 56.6555C86.0765 55.156 85.5684 54.497 84.6456 54.497ZM84.8164 59.6328C84.1759 59.6328 83.5705 59.3138 83.219 58.9505V61.012L81.9835 61.614V53.5445H83.219V54.1135C83.6808 53.7146 84.2128 53.4191 84.8761 53.4191C86.2448 53.4191 87.3227 54.3507 87.3227 56.6237C87.3227 58.6671 86.1397 59.6328 84.8164 59.6328Z" fill="#776C61"/>
<path d="M46.0374 58.69H48.5374C50.0909 58.69 50.5046 58.0854 50.5046 57.3142C50.5046 56.4014 49.8711 55.893 48.4724 55.893H46.0374V58.69ZM46.0374 54.9886H48.6179C49.5776 54.9886 50.2838 54.626 50.2838 53.7796C50.2838 53.0399 49.9359 52.5466 48.4724 52.5466H46.0374V54.9886ZM44.771 51.6424H48.6811C50.5406 51.6424 51.5121 52.2555 51.5121 53.6085C51.5121 54.5682 50.8419 55.2321 49.95 55.4083V55.4427C51.2303 55.595 51.8339 56.4325 51.8339 57.3792C51.8339 58.569 50.9647 59.5944 48.8064 59.5944H44.771V51.6424Z" fill="#776C61"/>
<path d="M36.168 51.6423H37.4395V55.1997L41.7129 51.6423H43.512L38.9949 55.2341L43.8869 59.5945H42.0899L37.4395 55.3314V59.5945H36.168V51.6423Z" fill="#776C61"/>
<path d="M58.801 58.5786H56.7936V56.0473H58.7451C60.1521 56.0473 60.6772 56.4029 60.6772 57.3058C60.6772 58.1099 60.0943 58.5786 58.801 58.5786ZM56.7936 52.6526H58.7451C59.4768 52.6526 59.9086 52.7445 60.1521 52.9523C60.3931 53.1222 60.4509 53.4201 60.4509 53.7776C60.4509 54.6224 59.8517 54.9964 58.8964 54.9964H56.7936V52.6526ZM61.6718 56.1961C61.4431 55.8395 61.0707 55.5609 60.6027 55.4084C61.2574 55.1096 61.6718 54.4524 61.6718 53.6086C61.6718 52.2582 60.827 51.6386 58.951 51.6386H55.4047V59.5945H59.0824C60.1521 59.5945 60.8832 59.3296 61.3509 58.9364C61.8006 58.5394 62.0091 57.9785 62.0091 57.3791C62.0091 56.9487 61.896 56.5536 61.6718 56.1961Z" fill="#776C61"/>
<path d="M94.7515 59.5945V56.221C94.7515 55.0149 94.2661 54.5848 93.4431 54.5848C92.6083 54.5848 92.1377 55.141 92.1377 56.107V59.5945H90.8918V53.6288H92.1377V54.1982C92.4542 53.769 93.0814 53.506 93.7359 53.506C95.2135 53.506 96 54.4165 96 56.1752V59.5945H94.7515Z" fill="#776C61"/>
<path d="M88.3381 53.6095H89.5875V59.5945H88.3381V53.6095Z" fill="#776C61"/>
<path d="M88.3381 51.645H89.5859V52.8206H88.3381V51.645Z" fill="#776C61"/>
<path d="M78.0894 54.534C77.1439 54.534 76.564 55.3165 76.564 56.4977C76.564 57.8042 77.2042 58.5181 78.1481 58.5181C79.0953 58.5181 79.7124 57.6218 79.7124 56.5309C79.7124 55.3165 79.0953 54.534 78.0894 54.534ZM78.1036 59.6329C76.5024 59.6329 75.3029 58.3957 75.3029 56.5309C75.3029 54.5776 76.5375 53.4192 78.1351 53.4192C79.7613 53.4192 80.9722 54.6347 80.9722 56.4977C80.9722 58.4735 79.7367 59.6329 78.1036 59.6329Z" fill="#776C61"/>
<path d="M72.2289 56.2961L75.245 53.5403H73.5951L70.7032 56.1736V51.6423H69.4345V59.5945H70.7032V56.3714L73.7553 59.5945H75.472L72.2289 56.2961Z" fill="#776C61"/>
</g>
<rect x="1" y="1" width="110" height="110" rx="9" stroke="#CCCCCC" stroke-width="2"/>
<defs>
<clipPath id="clip0_6_7376">
<rect x="2" y="2" width="108" height="108" rx="8" fill="white"/>
</clipPath>
</defs>
</svg>
