<svg width="112" height="112" viewBox="0 0 112 112" fill="none" xmlns="http://www.w3.org/2000/svg">
<g clip-path="url(#clip0_528_39)">
<rect x="2" y="2" width="108" height="108" rx="8" fill="white"/>
<path d="M43.5464 52.0546V61.3857H41.7216V56.8965H37.9339V61.3857H36.1055V52.0546H37.9339V55.6824H41.7216V52.0546H43.5464Z" fill="black"/>
<path d="M49.0135 61.3857C48.959 61.3494 48.9008 61.2731 48.8354 61.1495C48.7663 61.0222 48.7336 60.9023 48.7336 60.7751C48.4573 61.0695 48.1447 61.2694 47.7848 61.3748C47.4286 61.4839 47.0796 61.5348 46.7343 61.5348C46.1018 61.5348 45.5747 61.3421 45.1603 60.9568C44.7423 60.5715 44.5351 60.0444 44.5351 59.3756C44.5351 58.7612 44.7569 58.2269 45.1967 57.7689C45.6365 57.3109 46.2727 57.0346 47.1087 56.9474L48.6027 56.7765C48.6027 56.2058 48.4755 55.8169 48.221 55.6097C47.9702 55.3988 47.6794 55.2934 47.3632 55.2934C46.9706 55.2934 46.5998 55.3806 46.2509 55.5515C45.8983 55.726 45.5784 55.9477 45.2839 56.2131L44.975 54.8645C45.3312 54.6173 45.7056 54.4283 46.1018 54.3047C46.498 54.1775 46.9488 54.1193 47.4686 54.1193C47.7885 54.1193 48.1193 54.1629 48.461 54.2538C48.8027 54.341 49.1116 54.4901 49.3879 54.6936C49.6714 54.8972 49.9041 55.1698 50.0822 55.5006C50.2603 55.8314 50.3512 56.2422 50.3512 56.7329V59.6373C50.3512 59.9135 50.3694 60.208 50.4166 60.517C50.4602 60.8296 50.5511 61.1167 50.6856 61.3821H49.0208L49.0135 61.3857ZM48.6136 57.8925L47.7194 58.0124C47.3014 58.0669 46.9633 58.2087 46.7052 58.4377C46.4471 58.6704 46.3199 58.9575 46.3199 59.3065C46.3199 59.6155 46.4072 59.8663 46.5816 60.0517C46.7525 60.2371 46.9597 60.3316 47.1996 60.3316C47.385 60.3316 47.5667 60.3061 47.7412 60.2552C47.9157 60.2007 48.0647 60.1026 48.1883 59.9608C48.3228 59.8154 48.4282 59.63 48.5046 59.3937C48.5773 59.1575 48.6173 58.8557 48.6173 58.4813V57.8961L48.6136 57.8925Z" fill="black"/>
<path d="M53.3864 54.2538V54.8681C53.6264 54.6282 53.9062 54.4428 54.2298 54.3156C54.5569 54.1847 54.8913 54.1229 55.2403 54.1229C56.0945 54.1229 56.7634 54.3701 57.2578 54.8681C57.7521 55.3661 57.9957 56.0459 57.9957 56.9074V61.3857H56.2509V57.1618C56.2509 56.6202 56.1273 56.1804 55.8837 55.8423C55.6365 55.5079 55.2948 55.337 54.8477 55.337C54.437 55.337 54.0953 55.5042 53.8154 55.8387C53.5355 56.1695 53.3937 56.6311 53.3937 57.2163V61.3894H51.6598V54.2538H53.3864Z" fill="black"/>
<path d="M63.4119 61.3857C63.361 61.3494 63.2992 61.2731 63.2301 61.1495C63.1647 61.0222 63.132 60.9023 63.132 60.7751C62.8557 61.0695 62.5431 61.2694 62.1869 61.3748C61.8306 61.4839 61.478 61.5348 61.1327 61.5348C60.5002 61.5348 59.9768 61.3421 59.5587 60.9568C59.1443 60.5715 58.9371 60.0444 58.9371 59.3756C58.9371 58.7612 59.1553 58.2269 59.5951 57.7689C60.0349 57.3109 60.6747 57.0346 61.5071 56.9474L62.9975 56.7765C62.9975 56.2058 62.8739 55.8169 62.6194 55.6097C62.365 55.3988 62.0778 55.2934 61.7579 55.2934C61.3654 55.2934 60.9946 55.3806 60.642 55.5515C60.293 55.726 59.9695 55.9477 59.6751 56.2131L59.3697 54.8645C59.726 54.6173 60.1004 54.4283 60.4929 54.3047C60.8928 54.1775 61.3472 54.1193 61.8634 54.1193C62.1832 54.1193 62.514 54.1629 62.8521 54.2538C63.1974 54.341 63.5064 54.4901 63.779 54.6936C64.0626 54.8972 64.2916 55.1698 64.4733 55.5006C64.6514 55.8314 64.7387 56.2422 64.7387 56.7329V59.6373C64.7387 59.9135 64.7605 60.208 64.8041 60.517C64.8477 60.8296 64.9386 61.1167 65.0695 61.3821H63.4046L63.4119 61.3857ZM63.012 57.8925L62.1178 58.0124C61.6998 58.0669 61.3617 58.2087 61.1036 58.4377C60.8419 58.6704 60.7147 58.9575 60.7147 59.3065C60.7147 59.6155 60.8019 59.8663 60.9764 60.0517C61.1473 60.2371 61.3581 60.3316 61.5944 60.3316C61.7834 60.3316 61.9615 60.3061 62.136 60.2552C62.3068 60.2007 62.4595 60.1026 62.5831 59.9608C62.7176 59.8154 62.8194 59.63 62.8957 59.3937C62.972 59.1575 63.0084 58.8557 63.0084 58.4813V57.8961L63.012 57.8925Z" fill="black"/>
<path d="M70.9619 61.3857H67.9884V52.0546H71.1618C71.9433 52.0546 72.5904 52.2545 73.1029 52.6507C73.6118 53.0506 73.8663 53.5668 73.8663 54.1993C73.8663 54.8318 73.7136 55.3298 73.401 55.6933C73.092 56.0568 72.7503 56.3076 72.3759 56.4421C72.9212 56.5766 73.3755 56.8201 73.7499 57.1727C74.1244 57.529 74.3097 58.0233 74.3097 58.6558C74.3097 59.481 74.0226 60.1426 73.4519 60.6442C72.8812 61.1422 72.0524 61.3894 70.9655 61.3894M69.8314 53.2178V55.9514H70.5111C71.0164 55.9514 71.3981 55.8169 71.6525 55.5442C71.9142 55.2716 72.0415 54.9117 72.0415 54.4573C72.0415 54.0866 71.9324 53.7849 71.7143 53.5595C71.4962 53.3341 71.1872 53.2178 70.7874 53.2178H69.8277H69.8314ZM69.8314 57.1109V60.2298H70.791C71.2527 60.2298 71.638 60.0953 71.9433 59.8263C72.2487 59.5537 72.405 59.1647 72.405 58.6595C72.405 58.0997 72.2232 57.6998 71.8597 57.4672C71.4926 57.2272 71.0855 57.1109 70.6347 57.1109H69.8314Z" fill="black"/>
<path d="M79.6278 61.3857C79.5769 61.3494 79.5115 61.2731 79.4461 61.1495C79.3806 61.0222 79.3479 60.9023 79.3479 60.7751C79.0716 61.0695 78.7554 61.2694 78.3992 61.3748C78.0466 61.4839 77.6903 61.5348 77.345 61.5348C76.7125 61.5348 76.1891 61.3421 75.771 60.9568C75.353 60.5715 75.1422 60.0444 75.1422 59.3756C75.1422 58.7612 75.3639 58.2269 75.8037 57.7689C76.2436 57.3109 76.8797 57.0346 77.7158 56.9474L79.2061 56.7765C79.2061 56.2058 79.0789 55.8169 78.8281 55.6097C78.5736 55.3988 78.2901 55.2934 77.9702 55.2934C77.5776 55.2934 77.2069 55.3806 76.8543 55.5515C76.5017 55.726 76.1818 55.9477 75.8874 56.2131L75.582 54.8645C75.9382 54.6173 76.3127 54.4283 76.7052 54.3047C77.1051 54.1775 77.5595 54.1193 78.0756 54.1193C78.3955 54.1193 78.7263 54.1629 79.068 54.2538C79.4097 54.341 79.7187 54.4901 79.9949 54.6936C80.2785 54.8972 80.5075 55.1698 80.6892 55.5006C80.8674 55.8314 80.9546 56.2422 80.9546 56.7329V59.6373C80.9546 59.9135 80.9764 60.208 81.0237 60.517C81.0673 60.8296 81.1545 61.1167 81.289 61.3821H79.6242L79.6278 61.3857ZM79.228 57.8925L78.3337 58.0124C77.9157 58.0669 77.5813 58.2087 77.3196 58.4377C77.0615 58.6704 76.9342 58.9575 76.9342 59.3065C76.9342 59.6155 77.0215 59.8663 77.1923 60.0517C77.3668 60.2371 77.5776 60.3316 77.8139 60.3316C77.9993 60.3316 78.1811 60.3061 78.3555 60.2552C78.5264 60.2007 78.6754 60.1026 78.8027 59.9608C78.9372 59.8154 79.0389 59.63 79.1153 59.3937C79.1916 59.1575 79.228 58.8557 79.228 58.4813V57.8925Z" fill="black"/>
<path d="M84.0008 54.2538V54.8681C84.2407 54.6282 84.5206 54.4428 84.8441 54.3156C85.1676 54.1847 85.5057 54.1229 85.851 54.1229C86.7052 54.1229 87.3777 54.3701 87.8721 54.8681C88.3665 55.3661 88.61 56.0459 88.61 56.9074V61.3857H86.8652V57.1618C86.8652 56.6202 86.7416 56.1804 86.498 55.8423C86.2545 55.5079 85.9092 55.337 85.4621 55.337C85.0549 55.337 84.7096 55.5042 84.4297 55.8387C84.1462 56.1695 84.008 56.6311 84.008 57.2163V61.3894H82.2741V54.2538H84.0008Z" fill="black"/>
<path d="M89.8386 61.3857V51.6547H91.5726V56.7583L93.8408 54.2538H95.6947L92.9321 57.3072L96.04 61.3857H94.0553L91.5726 58.1469V61.3857H89.8386Z" fill="black"/>
<path d="M28.65 57.7143C28.6064 57.449 28.5337 57.1873 28.4246 56.951C28.0866 56.2203 27.614 55.606 26.9088 55.1953C25.811 54.5519 24.4842 54.5591 23.3973 55.2171C22.903 55.5151 22.4995 55.9441 22.2414 56.4566C22.1505 56.6311 22.0815 56.8129 22.0233 56.9982C21.7361 57.907 21.747 59.132 22.2632 59.9608C22.4304 60.2334 22.674 60.4624 22.972 60.5788C23.2701 60.6951 23.6227 60.6805 23.8917 60.5061C24.237 60.2843 24.2988 59.859 24.2334 59.481C24.1498 58.9975 24.0916 58.5213 24.2698 58.0451C24.3243 57.8925 24.4043 57.7507 24.5242 57.638C24.5969 57.5726 24.6805 57.5144 24.7678 57.4744C24.9568 57.3799 25.1676 57.3436 25.3748 57.3727C25.7347 57.4308 26.0291 57.7107 26.1891 58.0379C26.349 58.365 26.3926 58.7358 26.4072 59.0993C26.4835 60.6878 26.1055 62.3272 25.6983 63.8503C25.6583 64.0066 25.6147 64.1629 25.5711 64.3192C25.5348 64.4392 25.4766 64.5955 25.5529 64.7118C25.5856 64.7627 25.6402 64.799 25.6947 64.8208C25.9273 64.9154 26.1236 64.77 26.2799 64.6137C27.2069 63.6794 27.8067 62.4726 28.2138 61.2331C28.3665 60.7678 28.4937 60.2989 28.5846 59.8154C28.7045 59.1611 28.7736 58.4086 28.6536 57.7143" fill="#008A8B"/>
<path d="M35.3057 50.3861C35.3057 50.1462 35.0949 49.9899 34.8695 49.9972C34.6369 50.0081 34.4261 50.1244 34.2152 50.2044C30.1258 51.7601 25.5129 52.0546 21.2018 51.433C20.4639 51.3276 19.7187 51.1785 18.9735 51.0622C18.5119 50.9895 18.0502 50.8841 17.5849 50.8514C17.1851 50.8187 16.6907 50.8078 16.3672 51.084C15.9419 51.4512 15.971 52.1455 16.2145 52.6071C16.5053 53.1596 17.0106 53.574 17.5377 53.8866C18.0502 54.192 18.6609 54.5191 19.2752 54.4792C20.9219 54.3737 22.5649 54.2174 24.2007 54.003C26.9924 53.6395 29.9222 53.2978 32.5431 52.2145C33.401 51.8619 34.2479 51.4185 34.9822 50.8478C35.1167 50.746 35.3057 50.5824 35.3057 50.3861Z" fill="#008A8B"/>
<path d="M23.5755 48.983C23.5755 49.8699 24.2952 50.5933 25.1858 50.5933C26.0764 50.5933 26.7925 49.8736 26.7925 48.983C26.7925 48.8485 26.7634 48.7176 26.7089 48.5977C26.5707 48.3032 26.4181 48.1651 26.429 47.8125C26.4508 47.3399 25.8437 47.3363 25.5166 47.3363C25.1603 47.3363 24.7823 47.3836 24.4624 47.5471C24.208 47.6744 23.9862 47.8743 23.8299 48.1142C23.67 48.3614 23.5827 48.6522 23.5755 48.9466V48.983Z" fill="#E50045"/>
</g>
<rect x="1" y="1" width="110" height="110" rx="9" stroke="#CCCCCC" stroke-width="2"/>
<defs>
<clipPath id="clip0_528_39">
<rect x="2" y="2" width="108" height="108" rx="8" fill="white"/>
</clipPath>
</defs>
</svg>
