<svg width="112" height="112" viewBox="0 0 112 112" fill="none" xmlns="http://www.w3.org/2000/svg">
<g clip-path="url(#clip0_302_1296)">
<rect x="2" y="2" width="108" height="108" rx="8" fill="white"/>
<rect x="24" y="24" width="64" height="64" rx="8.31769" fill="#6936D3"/>
<g clip-path="url(#clip1_302_1296)">
<path d="M38.2671 73.0499C38.3599 72.9187 38.4361 72.8026 38.5205 72.6926C41.0501 69.3971 43.233 65.8842 45.1331 62.1928C47.6454 57.312 49.64 52.2258 51.2137 46.9705C52.0321 44.2372 52.7278 41.4736 53.3075 38.6809C53.6412 37.0725 53.9111 35.4521 54.1542 33.8276C54.1931 33.567 54.2255 33.3055 54.2577 33.044C54.2724 32.9251 54.3467 32.8869 54.4514 32.8974C54.8066 32.9324 55.1616 32.9692 55.5161 33.0095C56.5644 33.1284 57.6128 33.2477 58.6609 33.3699C59.6012 33.4794 60.5407 33.5941 61.4807 33.7045C61.6504 33.7244 61.8214 33.7302 61.9911 33.7502C62.1657 33.771 62.2149 33.822 62.1965 33.9887C62.1643 34.2812 62.127 34.5737 62.0767 34.8636C61.8361 36.253 61.5816 37.6395 61.2949 39.0203C60.7812 41.4941 60.1813 43.9463 59.5049 46.3808C58.6707 49.3837 57.7196 52.3487 56.6232 55.2668C56.6069 55.3103 56.5926 55.3546 56.5756 55.398C56.3384 56.0035 56.3365 55.9497 56.9271 55.9C59.4357 55.6898 61.6529 54.7873 63.5371 53.1071C64.6139 52.1468 65.4679 51.0089 66.1576 49.7459C66.5519 49.0236 66.8936 48.2768 67.1775 47.5042C67.2043 47.4315 67.2288 47.3578 67.2595 47.287C67.3038 47.1858 67.3719 47.1604 67.4821 47.2007C67.8462 47.3338 68.214 47.4567 68.5799 47.5851C70.1751 48.1449 71.77 48.7055 73.3649 49.2658C73.4673 49.3017 73.57 49.3373 73.6707 49.3779C73.7558 49.4121 73.7833 49.4839 73.7567 49.5662C73.7043 49.7282 73.6479 49.889 73.5859 50.0477C72.7261 52.2503 71.5073 54.2398 69.9926 56.0499C68.5403 57.7854 66.892 59.309 65.0076 60.5697C64.5953 60.8456 64.1652 61.095 63.7431 61.3565C63.6772 61.3973 63.6089 61.4341 63.5443 61.4773C63.4861 61.516 63.4896 61.5994 63.5488 61.6255C63.5909 61.6441 63.6355 61.6581 63.6793 61.673C65.2465 62.2063 66.4799 63.1841 67.4511 64.5075C68.4018 65.8031 68.999 67.2566 69.371 68.8107C69.7129 70.2392 69.8119 71.6876 69.7565 73.1513C69.6828 75.0912 69.278 76.9595 68.5571 78.7607C68.5226 78.8469 68.4888 78.9336 68.4466 79.0161C68.417 79.0739 68.3615 79.1047 68.2946 79.1049C68.2482 79.1049 68.2019 79.101 68.1552 79.0991C67.0071 79.0506 65.859 79.0047 64.7109 78.9532C63.4234 78.8954 62.1361 78.8327 60.8488 78.7712C60.7717 78.7674 60.6936 78.7632 60.6178 78.749C60.5437 78.7353 60.5188 78.6749 60.5393 78.6096C60.5764 78.4917 60.6248 78.3773 60.6677 78.261C61.136 76.9942 61.5254 75.7055 61.7753 74.3763C61.9911 73.227 62.079 72.0677 61.9907 70.9033C61.793 68.2959 60.6551 66.1949 58.5411 64.6331C57.4319 63.8136 56.2144 63.2102 54.897 62.8074C54.5262 62.6941 54.1477 62.6067 53.8025 62.4214C53.7062 62.3697 53.6216 62.3928 53.5697 62.4935C53.5128 62.6037 53.4597 62.7156 53.4058 62.8275C52.4395 64.8403 51.4902 66.8615 50.4639 68.8452C49.4086 70.8856 48.2856 72.8865 46.9702 74.7742C46.1973 75.8831 45.3643 76.9441 44.439 77.9312C44.3646 78.0104 44.2919 78.0915 44.2133 78.1663C44.105 78.2698 44.0551 78.2729 43.9348 78.167C43.6316 77.9006 43.3326 77.6296 43.0326 77.3597C41.4857 75.9691 39.9388 74.5784 38.3925 73.1872C38.3583 73.1564 38.3301 73.1189 38.2671 73.0494L38.2671 73.0499Z" fill="white"/>
</g>
</g>
<rect x="1" y="1" width="110" height="110" rx="9" stroke="#CCCCCC" stroke-width="2"/>
<defs>
<clipPath id="clip0_302_1296">
<rect x="2" y="2" width="108" height="108" rx="8" fill="white"/>
</clipPath>
<clipPath id="clip1_302_1296">
<rect width="35.4994" height="46.2094" fill="white" transform="translate(38.2671 32.8953)"/>
</clipPath>
</defs>
</svg>
