<svg width="112" height="112" viewBox="0 0 112 112" fill="none" xmlns="http://www.w3.org/2000/svg">
<g clip-path="url(#clip0_6_7378)">
<rect x="2" y="3" width="108" height="108" rx="8" fill="white"/>
<path fill-rule="evenodd" clip-rule="evenodd" d="M74.8989 44.8963C73.3589 45.8174 69.7265 47.9693 68.3705 48.7706C67.5441 49.2055 65.6301 49.3954 64.5475 47.8876C64.5281 47.8604 63.1077 46.0271 63.0497 45.9581C63.009 45.9093 62.0907 44.5024 60.0445 44.4584C59.7421 44.451 58.239 44.4427 56.7724 45.3037C54.8229 46.4541 50.2891 49.1315 50.2891 49.1315C50.2891 49.1315 50.2878 49.1339 50.2855 49.1339C48.4218 50.2353 46.9697 51.0928 46.9697 51.0928L48.6854 53.2693C49.4879 54.2986 51.2978 55.095 52.8674 54.1643C52.8674 54.1643 58.6668 50.6954 58.6881 50.6854C61.1962 49.2645 63.1315 49.2645 64.416 49.7932C65.569 50.2965 66.572 51.5503 66.572 51.5503C66.572 51.5503 67.8829 53.2284 68.1142 53.5219C68.86 54.4702 70.0946 54.0977 70.0946 54.0977C70.0946 54.0977 70.5521 54.0441 71.2417 53.6212C71.2417 53.6212 76.8591 50.2568 76.8627 50.2558C78.6464 49.1748 80.2824 48.9729 81.1185 49.0524C83.7373 49.2983 84.5508 51.188 85.6863 52.5063C86.355 53.2817 86.9584 53.722 87.8811 53.6998C88.4874 53.6865 89.1724 53.3068 89.2734 53.2382L96.0002 49.2284C96.0002 49.2284 95.3099 48.1546 93.8964 46.484C92.6313 44.9934 91.2875 45.6678 90.2162 46.2159C89.7661 46.4459 88.1352 47.5664 86.5195 48.3482C85.3682 48.905 83.7145 48.7375 82.8082 47.5808C82.754 47.5105 81.2878 45.677 81.1337 45.4514C80.5419 44.6857 79.3873 44 77.9075 44C77.0078 44 75.9868 44.2535 74.8989 44.8963Z" fill="url(#paint0_linear_6_7378)"/>
<path fill-rule="evenodd" clip-rule="evenodd" d="M16.0843 60.5732C16.0843 59.376 16.0632 58.3713 16 57.4754H18.1942L18.2971 59.0145H18.3586C18.856 58.2012 19.7654 57.2394 21.4619 57.2394C22.786 57.2394 23.8203 58.0104 24.254 59.1639H24.2965C24.6488 58.5871 25.0612 58.16 25.5366 57.8597C26.0957 57.4543 26.7372 57.2394 27.5647 57.2394C29.2398 57.2394 30.935 58.4144 30.935 61.7483V67.8801H28.453V62.1335C28.453 60.4029 27.8748 59.376 26.655 59.376C25.7847 59.376 25.1428 60.0182 24.8757 60.7664C24.8128 61.022 24.7509 61.3428 24.7509 61.6398V67.8801H22.2681V61.8547C22.2681 60.4029 21.7104 59.376 20.5311 59.376C19.5795 59.376 18.939 60.1464 18.7109 60.8713C18.6068 61.1294 18.565 61.4277 18.565 61.7263V67.8801H16.0843V60.5732Z" fill="#003A70"/>
<path fill-rule="evenodd" clip-rule="evenodd" d="M40.6052 65.3809C40.6052 66.3205 40.6465 67.2377 40.75 67.8806H38.4532L38.2883 66.7271H38.2255C37.6053 67.5398 36.5503 68.1157 35.2473 68.1157C33.2196 68.1157 32.0825 66.5999 32.0825 65.0179C32.0825 62.3889 34.3363 61.0654 38.06 61.0865V60.9149C38.06 60.2309 37.7908 59.0993 36.0121 59.0993C35.0187 59.0993 33.984 59.42 33.3018 59.8679L32.8047 58.1601C33.5508 57.6891 34.8551 57.2398 36.4466 57.2398C39.6749 57.2398 40.6052 59.3564 40.6052 61.6202V65.3809ZM38.122 62.7959C36.3227 62.7528 34.6062 63.1587 34.6062 64.7401C34.6062 65.7646 35.2473 66.2356 36.0543 66.2356C37.0666 66.2356 37.8125 65.5516 38.0393 64.8041C38.1009 64.6118 38.122 64.3973 38.122 64.227V62.7959Z" fill="#003A70"/>
<path fill-rule="evenodd" clip-rule="evenodd" d="M42.3642 60.5732C42.3642 59.376 42.3415 58.3713 42.2812 57.4754H44.5133L44.6381 59.035H44.6993C45.1342 58.2241 46.2304 57.2394 47.9056 57.2394C49.6645 57.2394 51.4847 58.4144 51.4847 61.7056V67.8801H48.9407V62.0054C48.9407 60.5088 48.4029 59.376 47.0168 59.376C46.0032 59.376 45.3001 60.124 45.0305 60.9149C44.9491 61.1505 44.9276 61.4717 44.9276 61.7687V67.8801H42.3642V60.5732Z" fill="#003A70"/>
<path fill-rule="evenodd" clip-rule="evenodd" d="M62.5156 53.2947V64.9524C62.5156 66.0205 62.5563 67.1763 62.5978 67.8806H60.3223L60.2204 66.2356H60.1783C59.5781 67.39 58.3557 68.1158 56.8887 68.1158C54.4902 68.1158 52.5865 66.0009 52.5865 62.7959C52.5654 59.3129 54.6753 57.2398 57.0953 57.2398C58.4808 57.2398 59.4746 57.8389 59.9289 58.6087H59.9708V53.2947H62.5156ZM59.9708 61.8115C59.9708 61.6 59.9495 61.3424 59.9097 61.1294C59.6818 60.1038 58.8746 59.27 57.7161 59.27C56.0821 59.27 55.1718 60.7664 55.1718 62.7108C55.1718 64.6118 56.0821 66.0009 57.6955 66.0009C58.7293 66.0009 59.6401 65.2747 59.888 64.1426C59.9495 63.9065 59.9708 63.6504 59.9708 63.3717V61.8115Z" fill="#003A70"/>
<path fill-rule="evenodd" clip-rule="evenodd" d="M64.3134 67.88H66.8809V57.476H64.3134V67.88Z" fill="#003A70"/>
<path fill-rule="evenodd" clip-rule="evenodd" d="M68.679 60.8295C68.679 59.4199 68.6575 58.4143 68.5957 57.4751H70.8095L70.8904 59.4615H70.9762C71.4719 57.9873 72.6512 57.4751 73.7264 57.4751C73.9741 57.4751 74.1187 57.4314 74.3262 57.4751V59.7834C74.1187 59.7407 73.8917 59.698 73.5813 59.698C72.3611 59.698 71.533 60.5092 71.3058 61.6835C71.2655 61.9187 71.2238 62.1977 71.2238 62.4982V67.8805H68.679V60.8295Z" fill="#003A70"/>
<path fill-rule="evenodd" clip-rule="evenodd" d="M75.5053 67.88H78.069V57.476H75.5053V67.88Z" fill="#003A70"/>
</g>
<rect x="1" y="1" width="110" height="110" rx="9" stroke="#CCCCCC" stroke-width="2"/>
<defs>
<linearGradient id="paint0_linear_6_7378" x1="16" y1="68.1158" x2="96.0002" y2="68.1158" gradientUnits="userSpaceOnUse">
<stop stop-color="#FFCA06"/>
<stop offset="0.330844" stop-color="#FBAA18"/>
<stop offset="0.694742" stop-color="#FFC907"/>
<stop offset="1" stop-color="#FAA619"/>
</linearGradient>
<clipPath id="clip0_6_7378">
<rect x="2" y="2" width="108" height="108" rx="8" fill="white"/>
</clipPath>
</defs>
</svg>
