<svg width="112" height="112" viewBox="0 0 112 112" fill="none" xmlns="http://www.w3.org/2000/svg">
<g clip-path="url(#clip0_421_540)">
<rect x="2" y="2" width="108" height="108" rx="8" fill="white"/>
<g clip-path="url(#clip1_421_540)">
<path fill-rule="evenodd" clip-rule="evenodd" d="M42.5979 71.8039C41.936 71.8039 41.5949 71.6776 41.1207 71.3228C40.1245 70.5791 40.2234 69.4926 40.2234 68.2439C40.2234 67.809 40.2866 67.5019 40.3957 67.1642C40.5015 66.8384 40.6328 66.6098 40.8273 66.3454L41.0524 66.122C41.0576 66.1186 41.0644 66.1117 41.0695 66.1066L41.136 66.0452C42.1049 65.2077 43.6776 65.3868 44.3753 66.4017C44.9467 67.2341 45.003 67.8056 45.003 68.8529C45.003 70.2857 44.2081 71.8039 42.5979 71.8039ZM40.0631 65.1326L39.9659 63.9778C39.6554 63.9778 39.3467 63.9778 39.0362 63.9778C38.8605 63.9778 38.2277 63.8994 38.1509 64.0256C38.1424 64.0392 38.2021 65.6017 38.2021 65.8064V76.551C38.2004 76.7079 38.1509 76.9365 38.2976 76.9365H40.2234V72.4776L40.3565 72.568C40.4912 72.6926 40.5527 72.7693 40.7181 72.8802C41.8661 73.641 43.3876 73.6921 44.6192 73.0883C45.1087 72.8478 45.5283 72.5186 45.8797 72.1024C46.5484 71.3126 46.7121 70.8196 46.9424 69.8303C47.1386 68.9911 47.0925 67.7117 46.8605 66.8998C46.6678 66.2226 46.4409 65.7672 46.0111 65.2145C45.8593 65.0166 45.4704 64.6329 45.2418 64.4776C45.1326 64.4026 45.0371 64.3548 44.9211 64.2849C43.6947 63.5395 41.7126 63.6742 40.5851 64.6277L40.0631 65.1326Z" fill="#092139"/>
<path fill-rule="evenodd" clip-rule="evenodd" d="M51.8055 65.3884C52.4162 65.3884 52.7215 65.4226 53.2077 65.7825C53.3305 65.8712 53.3646 65.9223 53.4601 66.0435C53.9548 66.6797 53.8678 67.0618 53.9872 67.5701H49.7194C49.7962 66.6609 50.6371 65.3884 51.8055 65.3884ZM52.2541 73.5044C53.4669 73.5044 54.7002 73.2503 55.4951 72.8307L55.2051 71.6759C55.1829 71.5855 55.142 71.3569 55.1096 71.2904L54.2618 71.5974C54.1322 71.6332 54.064 71.6622 53.936 71.6895L52.5117 71.8362C51.9249 71.8362 51.1266 71.6418 50.6712 71.2682C50.4733 71.1061 50.516 71.2153 50.3198 70.9475C50.0281 70.5501 49.8559 70.3027 49.7484 69.7552C49.7177 69.6034 49.6546 69.3066 49.6546 69.1411H55.8789C55.8789 68.5458 56.0887 68.672 55.8891 67.304C55.7765 66.5279 55.5019 65.7842 55.0414 65.1684C54.8418 64.9023 54.562 64.626 54.2891 64.4452C53.2486 63.7594 51.988 63.6537 50.7838 63.9829C50.5518 64.046 50.1782 64.2166 49.977 64.3309C49.8644 64.3974 49.7552 64.4622 49.646 64.5458C49.5301 64.6328 49.426 64.6993 49.3168 64.7948L49.1667 64.933C48.9825 65.1019 48.6107 65.5795 48.4844 65.791L48.2303 66.2737C48.1944 66.359 48.1723 66.388 48.1382 66.4699C47.9113 67.0021 47.7288 67.7833 47.7305 68.3735C47.7322 68.5748 47.6776 68.6976 47.7032 68.9125C47.7953 69.7023 47.7134 69.5846 47.9232 70.3931C48.2047 71.478 48.9484 72.4247 49.919 72.9518C50.5723 73.3083 51.4866 73.5044 52.2541 73.5044Z" fill="#092139"/>
<path fill-rule="evenodd" clip-rule="evenodd" d="M27.1335 68.7574H27.4217V70.2005C27.4217 70.7071 27.1164 71.0772 26.7889 71.3962C26.6661 71.5156 26.3693 71.6657 26.2021 71.7408C25.8405 71.9045 25.2674 71.9523 24.8819 71.809L24.5475 71.6299C23.9727 71.1608 23.9659 70.2295 24.3548 69.6683C24.8358 68.974 26.2499 68.7574 27.1335 68.7574ZM22.6422 64.6824C22.6883 64.8819 23.1113 66.0163 23.1232 66.1595C23.2836 66.1459 23.3672 66.0077 23.5991 65.8986C24.4623 65.4892 24.7369 65.4209 25.8183 65.4209C26.893 65.4209 27.3893 66.1612 27.3893 67.2171L26.2107 67.2905C25.7075 67.3536 25.3493 67.4116 24.8802 67.531C23.7458 67.8226 22.6149 68.5203 22.2362 69.6666C21.9855 70.4273 21.9923 71.1983 22.3215 71.9318C22.8998 73.2248 24.4503 73.7365 25.7859 73.4073C27.1454 73.073 27.4064 72.5015 27.6145 72.4452L27.71 73.3118C27.9284 73.3118 29.4516 73.3391 29.5249 73.2964C29.6 73.2521 29.5574 73.2128 29.5198 72.945C29.5011 72.8018 29.4789 72.638 29.4755 72.5101L29.4345 71.6197C29.3322 70.8777 29.4772 67.5873 29.3987 67.0687C29.3578 66.8077 29.3305 66.5126 29.2691 66.2687L29.0217 65.5847C28.8375 65.1753 28.5851 64.829 28.2337 64.5442C28.0512 64.3958 27.8891 64.29 27.6674 64.1809C26.9015 63.7988 26.2738 63.8175 25.4652 63.8175C24.8 63.8175 23.8669 64.087 23.2409 64.3531L22.6422 64.6824Z" fill="#092139"/>
<path fill-rule="evenodd" clip-rule="evenodd" d="M59.055 65.0678C59.0533 64.928 59.0311 64.9553 59.0243 64.812C59.009 64.5425 59.0397 64.3224 58.9595 63.9779H57.1309C57.1309 64.3258 57.2299 65.2435 57.2281 65.6768L57.2264 73.3118H59.1522C59.3041 73.3118 59.2478 73.0627 59.2478 72.7983C59.2478 71.8226 59.2102 67.7066 59.2785 67.3126C59.3825 66.7275 59.7748 66.1664 60.2559 65.8508C61.0678 65.3203 62.4733 65.4329 62.9117 66.5058C63.1966 67.2034 63.1625 67.664 63.1625 68.6278L63.1591 73.09C63.1591 73.2094 63.1352 73.3118 63.258 73.3118H65.1838V67.4098C65.1838 66.8947 65.1105 66.7173 65.02 66.3216C64.8051 65.3698 64.2354 64.6568 63.3859 64.1706C63.1539 64.0393 62.748 63.9062 62.4802 63.8636C61.38 63.6879 60.394 63.9403 59.5497 64.6005C59.362 64.7472 59.2478 64.9399 59.055 65.0678Z" fill="#092139"/>
<path fill-rule="evenodd" clip-rule="evenodd" d="M30.9186 66.3506C30.9186 66.7651 30.9134 67.1915 31.1181 67.5633C31.4866 68.2371 31.971 68.6601 32.6618 69.003C32.887 69.1156 33.1122 69.2196 33.3527 69.3049C33.6921 69.426 34.2243 69.6444 34.5058 69.8866C34.5177 69.8968 34.5655 69.9378 34.574 69.9463L34.6354 70.0128C35.3382 70.7753 34.7446 71.8687 33.6136 71.8687C33.0456 71.8687 32.6499 71.8226 32.1245 71.6265C31.9471 71.5599 31.7731 71.4968 31.623 71.4201C31.5019 71.3587 31.2665 71.1949 31.1437 71.1625L30.6303 72.7659C30.8145 72.8154 31.6964 73.5045 33.3885 73.5045C34.6627 73.5045 36.0188 72.9979 36.5339 71.9966C36.9126 71.2614 37.0303 70.3898 36.713 69.6034C36.6687 69.4943 36.6107 69.3834 36.5561 69.2793C36.5066 69.1906 36.5066 69.2043 36.452 69.1275C36.2883 68.8921 36.0751 68.6482 35.8414 68.4862C35.3416 68.1433 35.1249 68.0341 34.5399 67.7987C34.3045 67.7049 34.0657 67.606 33.8388 67.5054C33.7859 67.4815 33.7501 67.461 33.6921 67.4286C33.3271 67.2239 32.8751 66.9919 32.8751 66.4478C32.8751 65.8047 33.4141 65.4209 33.9667 65.4209C34.5484 65.4209 34.7736 65.4414 35.3041 65.6239C35.4303 65.6683 35.5616 65.7484 35.693 65.8115C35.8107 65.8661 35.9539 65.9958 36.0836 66.0299L36.4657 64.8717C36.522 64.7164 36.5561 64.6346 36.597 64.4589C35.5241 63.8909 35.2751 63.8175 33.9019 63.8175C33.3612 63.8175 32.6294 64.0563 32.1996 64.3275C32.1569 64.3531 32.1399 64.3702 32.087 64.4077C31.9864 64.4759 31.9744 64.4862 31.8891 64.5612C31.5087 64.8938 31.2034 65.264 31.0431 65.7689C31.0226 65.8337 30.9186 66.2806 30.9186 66.3506Z" fill="#092139"/>
<path fill-rule="evenodd" clip-rule="evenodd" d="M17.38 62.3744V63.9778H16V65.6136H17.38V70.5535C17.38 72.1791 18.0998 73.5045 19.9778 73.5045C20.29 73.5045 20.5544 73.4772 20.8256 73.4209C21.3254 73.3202 21.3527 73.2691 21.5829 73.2162C21.5829 72.6431 21.5181 72.1637 21.5181 71.5787C21.3271 71.5838 20.0358 72.0767 19.5855 71.362C19.4661 71.171 19.3689 70.7616 19.3689 70.4563V65.6136H21.6785V63.9778H19.3689V61.7961L18.3744 62.0844C18.2021 62.1322 18.0674 62.1799 17.8814 62.2345L17.38 62.3744Z" fill="#092139"/>
<path d="M75.3603 49.0815H78.1493V58.6729H75.3603V49.0815ZM68.4964 58.6729V52.0597C68.4964 51.519 68.4861 50.9987 68.4674 50.499C68.4486 50.0026 68.423 49.5318 68.3855 49.0815H70.9424L71.0431 50.7992C71.2853 50.209 71.6742 49.7638 72.2064 49.4619C72.7335 49.1582 73.397 49.0098 74.1868 49.0098H74.2687L74.2601 51.5275C74.0913 51.5156 73.9667 51.5054 73.8832 51.4985C73.7979 51.4934 73.7211 51.49 73.6546 51.49C72.9262 51.49 72.3548 51.6674 71.9454 52.0222C71.5309 52.3753 71.3228 52.8683 71.3228 53.496V58.6729H68.4964ZM64.2797 49.0815H67.0687V58.6729H64.2797V49.0815ZM59.7595 58.6729L59.6674 57.3032C59.3228 57.8201 58.91 58.2073 58.4256 58.47C57.9412 58.7309 57.3936 58.8606 56.7829 58.8606C55.6213 58.8606 54.678 58.4051 53.9514 57.4943C53.2299 56.5834 52.8665 55.3774 52.8665 53.8815C52.8665 52.3753 53.2196 51.1676 53.9292 50.2636C54.6405 49.3595 55.5787 48.9075 56.7471 48.9075C57.3817 48.9075 57.9343 49.032 58.4068 49.2759C58.881 49.5216 59.2887 49.8985 59.6299 50.4V44.9143H62.4V56.7437C62.4 57.2282 62.4051 57.6222 62.4222 57.9224C62.4375 58.2243 62.4631 58.4751 62.4921 58.6729H59.7595ZM55.693 53.8968C55.693 54.8862 55.8652 55.6538 56.2064 56.1996C56.5476 56.7437 57.0269 57.0149 57.6426 57.0149C58.2687 57.0149 58.7701 56.7369 59.1352 56.1791C59.5019 55.623 59.6861 54.8623 59.6861 53.8968C59.6861 52.928 59.5019 52.1621 59.1352 51.6043C58.7701 51.0448 58.2687 50.7633 57.6426 50.7633C57.0269 50.7633 56.5476 51.038 56.2064 51.5889C55.8652 52.1399 55.693 52.9092 55.693 53.8968ZM42.5126 58.6729V50.922C42.5126 50.6491 42.5058 50.3625 42.4904 50.0623C42.4733 49.7638 42.4478 49.4363 42.4205 49.0815H45.0746L45.1326 50.5211C45.4925 49.9429 45.9224 49.5181 46.4154 49.2503C46.91 48.9842 47.5139 48.8495 48.2303 48.8495C49.2878 48.8495 50.0708 49.1497 50.5842 49.7518C51.0959 50.3488 51.3535 51.2665 51.3535 52.4981V58.6729H48.6124V52.8819C48.6124 52.1638 48.4878 51.652 48.2439 51.3399C47.9983 51.0312 47.6009 50.8759 47.0465 50.8759C46.5109 50.8759 46.0776 51.0465 45.7535 51.3945C45.426 51.7373 45.2623 52.1962 45.2623 52.7693V58.6729H42.5126ZM16.0733 58.6729V50.922C16.0733 50.5791 16.0665 50.2567 16.0546 49.9548C16.0409 49.6529 16.0222 49.3629 16 49.0815H18.6388L18.7122 50.5211C19.0721 49.9429 19.5002 49.5181 19.9966 49.2503C20.4896 48.9842 21.0951 48.8495 21.8081 48.8495C22.5313 48.8495 23.1386 49.0098 23.6384 49.3305C24.1348 49.6529 24.4981 50.1169 24.7284 50.7258C25.0388 50.0793 25.4465 49.6051 25.9497 49.3015C26.4529 48.9996 27.0908 48.8495 27.8635 48.8495C28.9211 48.8495 29.7075 49.1497 30.2226 49.7518C30.7394 50.3488 30.997 51.2665 30.997 52.4981V58.6729H28.2269V52.8819C28.2269 52.1638 28.1023 51.652 27.8567 51.3399C27.6128 51.0312 27.2136 50.8759 26.661 50.8759C26.1254 50.8759 25.6955 51.0465 25.3765 51.3945C25.0559 51.7373 24.8972 52.1962 24.8972 52.7693V58.6729H22.1271V52.8819C22.1271 52.1706 22.006 51.6606 21.7638 51.3467C21.5215 51.0312 21.1292 50.8759 20.5885 50.8759C20.0529 50.8759 19.6299 51.0465 19.3143 51.3877C19.0004 51.7322 18.8435 52.1894 18.8435 52.7693V58.6729H16.0733ZM38.4921 57.6717C37.9326 58.1595 36.8392 58.6832 36.0887 58.852C35.8004 58.9186 35.4866 58.951 35.1454 58.951C34.3403 58.951 33.6665 58.6678 33.1224 58.1015C32.5783 57.5335 32.3087 56.8103 32.3087 55.9301C32.3087 55.2256 32.4469 54.6508 32.7232 54.2056C33.0013 53.757 33.3919 53.4056 33.9002 53.148C34.4017 52.8938 35.0277 52.7079 35.7714 52.6004C36.5168 52.4913 37.2878 52.4094 38.0861 52.3599V52.3071C38.0861 50.0145 34.8162 50.2994 33.4175 51.2802L32.933 49.4721C34.0264 48.9604 35.1011 48.6994 36.4384 48.6994C38.7838 48.6994 40.7642 49.8235 40.7642 52.51V58.6934H38.4921V57.6717ZM38.2721 55.8004V53.9514C37.849 53.9923 37.3885 54.0452 36.8938 54.1135C36.4009 54.1851 36.0256 54.2653 35.7697 54.3574C35.4576 54.4683 35.2171 54.6354 35.0533 54.8486C34.8861 55.0653 34.8026 55.345 34.8026 55.6981C34.8026 58.1271 37.6392 57.339 38.2721 55.8004Z" fill="#053364"/>
<path fill-rule="evenodd" clip-rule="evenodd" d="M46.9595 42.9732C47.8141 43.9301 49.4072 46.5228 51.2921 46.3625C55.7083 45.9872 58.2226 41.2111 63.6759 41.5523C65.9156 41.6921 66.9697 45.4482 69.1923 45.7723C72.6925 46.2823 76.046 40.899 81.7518 41.2077C84.0972 41.3356 85.0678 45.2759 87.4047 45.5045C89.5846 45.716 92.9996 42.6252 96 41.0235C95.2358 39.7373 93.8166 37.7279 92.3053 37.6256C89.3288 37.426 86.9492 41.2282 84.3326 40.5629C82.8094 40.1774 81.0746 35.9932 78.5654 36.0017C73.9207 36.0171 70.7156 40.6158 66.6098 40.9791C64.2797 41.1855 63.159 36.0017 60.0392 36.4793C55.768 37.1309 51.4047 40.6499 46.9595 42.9732Z" fill="url(#paint0_linear_421_540)"/>
</g>
</g>
<rect x="1" y="1" width="110" height="110" rx="9" stroke="#CCCCCC" stroke-width="2"/>
<defs>
<linearGradient id="paint0_linear_421_540" x1="50.0554" y1="50.1254" x2="92.904" y2="32.3923" gradientUnits="userSpaceOnUse">
<stop stop-color="#F6AD02"/>
<stop offset="0.2" stop-color="#FFF000"/>
<stop offset="0.411765" stop-color="#F6AD02"/>
<stop offset="0.658824" stop-color="#FFF000"/>
<stop offset="0.788235" stop-color="#F6AD02"/>
<stop offset="1" stop-color="#FFF000"/>
</linearGradient>
<clipPath id="clip0_421_540">
<rect x="2" y="2" width="108" height="108" rx="8" fill="white"/>
</clipPath>
<clipPath id="clip1_421_540">
<rect width="80" height="40.9382" fill="white" transform="translate(16 36)"/>
</clipPath>
</defs>
</svg>
