<svg width="112" height="112" viewBox="0 0 112 112" fill="none" xmlns="http://www.w3.org/2000/svg">
<g clip-path="url(#clip0_6_7379)">
<rect x="2" y="2" width="108" height="108" rx="8" fill="white"/>
<path fill-rule="evenodd" clip-rule="evenodd" d="M25.1771 81.3997L28.189 73.162L29.174 81.3997H32.3559L30.6326 69.3009H26.7495L24.1779 76.569L21.6069 69.3009H17.7239L16 81.3997H19.1825L20.1669 73.162L23.1793 81.3997H25.1771Z" fill="#231F20"/>
<path fill-rule="evenodd" clip-rule="evenodd" d="M85.5732 68.3033V81.3891H88.8695V76.8328L92.2499 81.3891H96L92.279 76.5788L95.668 72.4023H91.8808L88.8695 76.3316V68.3033H85.5732Z" fill="#231F20"/>
<path fill-rule="evenodd" clip-rule="evenodd" d="M49.8861 72.4023L47.7282 78.6946L45.5393 72.4023H41.9036L45.995 81.3996L44.3744 84.9292H47.8982L53.5231 72.4023H49.8861Z" fill="#231F20"/>
<path fill-rule="evenodd" clip-rule="evenodd" d="M57.4064 79.3128V74.58C58.0742 74.3545 60.4931 73.7492 60.4931 76.8241C60.4931 79.9578 58.0117 79.477 57.4064 79.3128ZM54.0532 80.9361C54.0532 80.9361 55.7963 81.5891 58.2399 81.5891C60.6829 81.5891 63.8648 80.8289 63.8648 76.6165C63.8648 72.4023 59.6416 72.2505 59.1488 72.2505C58.2189 72.2505 57.6247 72.5039 57.4064 72.616V68.2834H54.0532V80.9361Z" fill="#231F20"/>
<path fill-rule="evenodd" clip-rule="evenodd" d="M67.3508 78.6274C67.3508 77.3344 69.8031 77.2421 70.4771 77.2414V79.5443C69.7753 79.6286 67.3508 79.8287 67.3508 78.6274ZM65.6647 74.6802C70.4758 73.2564 70.4771 74.9658 70.4771 75.1925V75.498C66.5829 75.5308 64.2629 76.6454 64.2629 78.6658C64.2629 80.7153 66.4227 81.6075 69.2831 81.6075C72.1435 81.6075 73.6015 80.9427 73.6015 80.9427V75.3443C73.6015 73.3704 72.3327 72.1177 69.2831 72.1177C66.2329 72.1177 64.9078 72.8395 64.9078 72.8395L65.6647 74.6802Z" fill="#231F20"/>
<path fill-rule="evenodd" clip-rule="evenodd" d="M35.8701 78.6274C35.8701 77.3344 38.3224 77.2421 38.9951 77.2414V79.5443C38.294 79.6286 35.8701 79.8287 35.8701 78.6274ZM34.184 74.6802C38.9951 73.2564 38.9951 74.9658 38.9951 75.1925V75.498C35.1022 75.5308 32.7822 76.6454 32.7822 78.6658C32.7822 80.7153 34.942 81.6075 37.8018 81.6075C40.6621 81.6075 42.1208 80.9427 42.1208 80.9427V75.3443C42.1208 73.3704 40.852 72.1177 37.8018 72.1177C34.7522 72.1177 33.4265 72.8395 33.4265 72.8395L34.184 74.6802Z" fill="#231F20"/>
<path fill-rule="evenodd" clip-rule="evenodd" d="M81.0077 81.3802H84.3225V75.6865C84.3225 72.7256 82.2017 72.0986 79.5868 72.0986C76.9738 72.0986 74.8708 72.8198 74.8708 72.8198V81.3802H78.1863V74.5725C80.735 73.826 81.0077 75.0527 81.0077 75.6481V81.3802Z" fill="#231F20"/>
<mask id="mask0_6_7379" style="mask-type:luminance" maskUnits="userSpaceOnUse" x="37" y="28" width="36" height="35">
<path fill-rule="evenodd" clip-rule="evenodd" d="M37.9385 28H72.7819V62.9142H37.9385V28Z" fill="white"/>
</mask>
<g mask="url(#mask0_6_7379)">
<path fill-rule="evenodd" clip-rule="evenodd" d="M55.3597 27.9998C45.7544 27.9998 37.9383 35.8326 37.9383 45.456C37.9383 55.0815 45.7544 62.9143 55.3597 62.9143C64.967 62.9143 72.7821 55.0815 72.7821 45.456C72.7821 35.8326 64.967 27.9998 55.3597 27.9998Z" fill="#FFC600"/>
<path fill-rule="evenodd" clip-rule="evenodd" d="M55.3597 27.9998C45.7544 27.9998 37.9383 35.8326 37.9383 45.456C37.9383 55.0815 45.7544 62.9143 55.3597 62.9143C64.967 62.9143 72.7821 55.0815 72.7821 45.456C72.7821 35.8326 64.967 27.9998 55.3597 27.9998ZM55.3595 29.4576C64.1767 29.4576 71.3258 36.6188 71.3258 45.4558C71.3258 54.2917 64.1767 61.454 55.3595 61.454C46.5434 61.454 39.3954 54.2917 39.3954 45.4558C39.3954 36.6188 46.5434 29.4576 55.3595 29.4576Z" fill="#231F20"/>
</g>
<path fill-rule="evenodd" clip-rule="evenodd" d="M47.8573 39.3441C47.8573 39.3441 48.2267 37.8893 48.8167 37.3969C49.4077 36.9034 51.5309 35.4979 54.5974 34.512C54.9625 34.394 55.3865 34.5292 55.4057 34.5356C55.3854 34.6568 55.3736 34.7394 55.3683 34.7663C55.3276 34.9969 55.1552 35.1439 55.1552 35.1439C55.7784 35.2265 56.1884 34.7834 56.303 34.2728C56.4186 33.7653 56.8116 31.7462 57.4519 31.7763C59.2389 31.8578 60.5183 37.6436 60.3877 37.9054C60.301 38.0771 59.5997 37.9376 59.5997 37.9376C60.7143 39.696 62.1736 39.6788 62.5023 39.4009C62.83 39.1231 62.6501 38.2176 62.6501 38.2176C66.1599 40.3053 65.9629 42.7868 65.9629 42.7868C67.0121 38.6789 64.5859 36.9195 64.5859 36.9195C65.5367 36.8862 66.5699 37.4945 66.5699 37.4945C65.0934 35.5065 62.043 34.4047 62.043 34.4047C62.043 34.4047 58.4851 30.4449 57.3373 30.5929C56.3854 30.7163 55.8415 32.465 55.5749 33.6602C55.4443 33.6494 55.1948 33.6398 54.8704 33.6784C54.6188 33.3651 53.5534 32.0981 53.1391 32.5154C52.9774 32.6764 52.926 33.8179 52.9121 34.2974C51.1883 34.9841 48.2556 36.2747 47.6592 37.222C47.1196 38.0856 46.9954 38.7272 46.9954 38.7272C46.9954 38.7272 43.4792 40.9941 42.6173 43.4616C42.6173 43.4616 44.9793 40.6991 47.8573 39.3441Z" fill="#231F20"/>
<path fill-rule="evenodd" clip-rule="evenodd" d="M59.1733 37.5127C59.123 35.6867 58.2225 34.2255 57.7621 34.1408C57.3039 34.0603 57.1561 35.8005 57.1561 35.8005C58.3703 36.6051 59.1733 37.5127 59.1733 37.5127Z" fill="#231F20"/>
<path fill-rule="evenodd" clip-rule="evenodd" d="M50.5298 37.1839C49.8242 37.6088 50.1369 37.9714 50.1369 37.9714C50.1369 37.9714 50.0223 37.6088 50.8917 37.3631C52.4421 36.9243 53.8436 36.4748 53.8094 36.0982C53.7773 35.7206 52.728 35.5725 52.728 35.5725C53.0235 35.9662 51.2354 36.7559 50.5298 37.1839Z" fill="#231F20"/>
<path fill-rule="evenodd" clip-rule="evenodd" d="M51.2597 39.5978C51.4728 39.5978 51.6451 39.4262 51.6451 39.2127C51.6451 39.0957 51.5927 38.9949 51.5102 38.9241C51.7661 38.9069 52.3507 38.9391 52.3507 38.9391C52.2854 38.9241 52.1377 39.0882 51.809 39.4991C51.4813 39.9111 51.1708 39.5978 51.1708 39.5978L51.1655 39.5796C51.1954 39.586 51.2265 39.5978 51.2597 39.5978ZM50.022 41.3563C50.022 41.3563 50.4642 40.322 50.7929 40.1912C50.7929 40.1912 51.3668 40.3381 51.6783 40.2223C51.9899 40.1085 52.5799 39.32 52.8101 39.3028C52.8101 39.3028 52.203 41.9463 49.7425 41.898C49.7425 41.898 51.5145 42.9011 52.416 42.1941C53.3186 41.4871 52.6291 40.9454 53.794 39.8114C54.9579 38.6763 54.1881 38.6291 54.1388 38.6463C54.0895 38.6613 53.7277 38.5465 53.7277 38.5465C53.7277 38.5465 53.8915 38.333 54.2212 38.1871C54.5489 38.0369 56.4344 37.184 56.4676 36.6712C56.4997 36.1637 55.1056 35.5887 54.4011 35.6037C54.4011 35.6037 55.0393 35.8665 55.0071 36.2291C54.975 36.5907 53.1388 37.3964 53.1388 38.4317C53.1388 38.4317 52.4824 38.48 52.006 38.3834C51.5306 38.2826 51.022 38.333 50.4973 38.6763C49.9727 39.0228 49.9406 38.2515 49.9888 38.1517C49.9888 38.1517 48.9727 38.7922 50.2522 39.614C50.2522 39.614 49.7264 40.1568 49.6772 40.2888C49.6279 40.4197 49.4149 41.1256 50.022 41.3563Z" fill="#231F20"/>
<path fill-rule="evenodd" clip-rule="evenodd" d="M48.3983 44.7419C48.3983 44.7419 48.3737 43.8053 47.5118 44.0027C46.0642 44.3331 45.5685 46.9101 45.5685 46.9101C47.1938 43.904 48.3983 44.7419 48.3983 44.7419Z" fill="#231F20"/>
<path fill-rule="evenodd" clip-rule="evenodd" d="M48.94 47.0332C49.7259 45.7533 48.7676 44.939 47.5374 45.6278C46.3082 46.3187 46.0117 47.9709 46.0117 47.9709C48.4475 45.3092 48.94 47.0332 48.94 47.0332Z" fill="#231F20"/>
<path fill-rule="evenodd" clip-rule="evenodd" d="M60.5514 45.3821C60.5514 45.3821 59.6649 44.5957 59.7634 43.1388C59.8619 41.684 60.1328 39.4933 57.6734 37.9634C57.6734 37.9634 58.6809 39.5169 58.3115 41.0446C57.9422 42.5734 56.7108 45.1815 56.8115 46.0483C57.0331 47.9462 59.0011 48.2916 58.8533 50.8793C58.8533 50.8793 60.0097 49.4728 59.7891 47.8228C59.5675 46.1706 58.1156 45.455 58.7548 44.1505C58.7548 44.1505 59.4925 45.234 60.5514 45.3821Z" fill="#231F20"/>
<path fill-rule="evenodd" clip-rule="evenodd" d="M49.3702 52.9737C49.1475 52.9018 48.9516 52.0875 48.9516 52.0875C49.2717 52.3471 49.9238 52.3589 49.9238 52.3589C49.6154 52.6529 49.5919 53.0477 49.3702 52.9737ZM51.8264 50.3785C51.8264 50.3785 52.5962 50.4107 52.6294 50.2798C52.6626 50.1478 52.3832 49.2434 52.3832 49.2434C52.3832 49.2434 53.3511 49.3421 53.3682 49.6554C53.3843 49.9655 52.8264 50.7572 51.6455 51.2657C51.6455 51.2657 51.8596 50.6403 51.8264 50.3785ZM46.822 49.5406C46.928 49.4795 47.0275 49.414 47.1185 49.3421C47.3584 49.1608 47.5382 49.0739 47.6592 49.0342C47.6346 49.3808 47.6143 49.9901 47.7224 50.4965C47.7224 50.4965 47.0853 50.0878 46.822 49.5406ZM43.7405 46.3843C43.3636 46.3843 42.6912 45.3823 42.5766 45.1849C42.4621 44.9885 43.2148 44.6259 43.446 44.5605C43.6752 44.494 43.9171 44.5497 43.9535 44.6613C43.9867 44.7568 43.4792 45.0701 43.4128 45.1849C43.3475 45.3007 43.8154 45.7331 43.8882 45.8243C44.0189 45.9916 44.1184 46.3843 43.7405 46.3843ZM67.6331 38.5043C67.6331 38.5043 69.7842 44.3641 67.3569 49.6876C67.3569 49.6876 67.495 48.9141 66.8976 47.3885C66.2573 45.7535 66.4714 43.641 66.7338 43.2473C66.7338 43.2473 65.5517 44.4296 65.6181 46.4025C65.6845 48.3723 66.208 53.9274 62.2079 55.998C62.2079 55.998 63.724 53.2204 63.1576 49.9654C63.1576 49.9654 63.6748 50.165 63.9457 50.8548C63.9457 50.8548 65.0281 47.9957 63.6255 44.4939C63.6255 44.4939 64.4125 44.6431 64.905 45.0615C64.905 45.0615 65.4221 42.5564 62.5923 40.7969C61.8792 40.3528 61.9766 40.1082 61.9766 40.1082C61.9766 40.1082 61.7561 40.6746 62.2229 41.2411C62.6897 41.8086 63.3311 42.9179 63.2326 43.4855C63.2326 43.4855 62.4692 42.9415 61.3621 43.0907C61.3621 43.0907 63.4778 44.8888 63.1576 48.7596C63.1576 48.7596 62.618 48.1684 61.24 47.9217C61.24 47.9217 62.7893 50.8312 61.4113 53.6152C61.4113 53.6152 61.3128 52.6293 60.8706 52.0124C60.8706 52.0124 60.5258 54.0594 58.0664 54.775C58.0664 54.775 60.0579 52.2838 57.6971 51.0286C55.3351 49.7691 53.3425 52.5553 52.9496 54.9971C52.9496 54.9971 50.2193 55.1923 49.9484 54.0841C49.6775 52.9737 50.4645 52.5049 50.4645 52.5049C50.4645 52.5049 50.8831 52.7763 51.8435 52.3332C52.8018 51.8901 54.819 50.681 54.622 49.1533C54.425 47.6266 52.0395 46.1225 50.1443 46.7373C48.2513 47.3552 47.1678 49.031 46.1838 49.0063C45.1998 48.9816 43.9942 47.4775 44.1677 46.6901C44.339 45.9004 44.9782 45.6784 45.1998 44.347C45.1998 44.347 44.8561 44.3802 44.627 44.2322C44.3968 44.083 43.7897 43.8374 43.4621 43.921C43.1334 44.0026 42.3304 44.5454 42.2972 44.4457C42.264 44.347 42.3796 43.7537 42.3796 43.7537C42.3796 43.7537 41.4941 44.6903 41.6258 45.0701C41.7565 45.4477 42.5274 46.3843 43.3304 46.9111C43.3304 46.9111 43.4792 48.0601 44.5285 49.1297C45.1549 49.768 45.7395 49.8839 46.2384 49.7766C46.4493 50.0888 47.1678 51.0308 48.3124 51.2368C48.3124 51.2368 48.1143 49.9161 48.2578 48.9183C48.3017 48.8947 48.3456 48.869 48.382 48.8325C48.5618 48.6534 50.6615 46.7137 52.2194 48.5868C52.2194 48.5868 51.5138 48.8497 51.2354 49.7358C50.957 50.6252 50.7932 52.8267 48.4805 51.4138C48.4805 51.4138 48.2835 52.6787 48.989 53.4361C48.989 53.4361 48.8905 54.7825 50.4152 55.5206C51.941 56.2609 53.0074 55.703 53.9914 56.1954C53.9914 56.1954 53.8929 54.1731 54.728 52.9415C55.5653 51.7088 56.7463 51.2979 57.3202 51.7764C57.893 52.2517 58.2549 54.0594 56.0407 55.9337C56.0407 55.9337 58.5825 56.2609 60.3213 54.9305C60.3213 54.9305 60.1051 57.2779 58.3502 59.267C64.7091 57.9002 69.4555 52.2356 69.4555 45.4552C69.4555 42.9287 68.7927 40.5566 67.6331 38.5043Z" fill="#231F20"/>
<path fill-rule="evenodd" clip-rule="evenodd" d="M57.4188 39.055C57.4188 39.055 55.7624 38.1206 55.0247 39.0883C54.3298 40.0013 54.7817 41.5644 54.3737 42.5418C54.362 42.531 54.347 42.5182 54.3352 42.5074C53.4165 41.6835 52.2859 43.0825 52.0717 43.4923C51.8597 43.9043 51.5803 43.9515 51.5803 43.9515C49.5631 44.3635 49.9892 42.737 49.3168 42.2446C48.6455 41.75 47.5127 42.4753 47.5127 42.4753C48.6444 42.2585 48.9067 43.0492 48.8746 43.3604C48.8414 43.6736 49.0706 44.5952 49.3821 45.1037C49.6937 45.6122 50.9571 45.2507 51.9904 45.3355C53.0236 45.4159 53.6135 46.6797 53.6135 46.6797C54.2367 45.1681 52.5643 44.4793 52.5643 44.4793C52.5643 44.4793 53.0525 43.5502 53.6296 43.87C55.4669 44.8881 55.0076 49.0132 55.0076 49.0132C56.5901 46.0328 55.8931 44.283 55.0676 43.2606C55.1714 42.3315 55.6414 39.4005 57.4188 39.055Z" fill="#231F20"/>
</g>
<rect x="1" y="1" width="110" height="110" rx="9" stroke="#CCCCCC" stroke-width="2"/>
<defs>
<clipPath id="clip0_6_7379">
<rect x="2" y="2" width="108" height="108" rx="8" fill="white"/>
</clipPath>
</defs>
</svg>
