<svg width="112" height="112" viewBox="0 0 112 112" fill="none" xmlns="http://www.w3.org/2000/svg">
<g clip-path="url(#clip0_421_558)">
<rect x="2" y="2" width="108" height="108" rx="8" fill="white"/>
<g clip-path="url(#clip1_421_558)">
<path d="M38.9391 27H51.5649C49.4632 31.7287 47.3569 36.4556 45.2517 41.1831C43.2777 45.6194 41.302 50.0551 39.3274 54.4908C35.1165 54.4925 30.9056 54.4919 26.6953 54.4914C30.7768 45.3276 34.8548 36.1621 38.9391 27Z" fill="#FFCA08"/>
<path d="M51.5649 27H51.5684C52.8911 29.9789 54.2219 32.9543 55.5441 35.9338L55.5533 35.9546C54.6513 37.9222 53.7897 39.9084 52.9044 41.8835C51.8856 44.162 50.8749 46.4446 49.8573 48.7237C49.6423 49.1814 49.4695 49.6587 49.2234 50.1007C47.8983 47.1288 46.5762 44.1551 45.2517 41.1831C47.3569 36.4556 49.4632 31.7287 51.5649 27Z" fill="#FA9D1C"/>
<path d="M59.525 27H59.5284C61.6325 31.7298 63.7388 36.4585 65.8451 41.1872C64.5096 44.1609 63.1938 47.1438 61.8619 50.1192C59.7515 45.401 57.6562 40.6763 55.5533 35.9546L55.5441 35.9338C56.8784 32.9589 58.2011 29.9789 59.525 27Z" fill="#9E9FA3"/>
<path d="M59.5284 27H72.1542C76.2409 36.1615 80.3171 45.3276 84.3998 54.4908C80.19 54.4948 75.9797 54.4914 71.7699 54.4925C69.7931 50.058 67.8191 45.6223 65.8451 41.1872C63.7388 36.4585 61.6324 31.7298 59.5284 27Z" fill="#636466"/>
<path d="M55.5533 35.9546C57.6562 40.6763 59.7515 45.401 61.8619 50.1192C61.2967 51.3611 60.3479 52.422 59.1846 53.1345C57.4614 54.2047 55.2603 54.4474 53.3401 53.8008C51.5348 53.2068 50.0047 51.8337 49.2234 50.1007C49.4696 49.6587 49.6423 49.1813 49.8573 48.7237C50.8749 46.4446 51.8856 44.162 52.9044 41.8835C53.7897 39.9083 54.6513 37.9222 55.5533 35.9546Z" fill="#F37022"/>
<path d="M55.3607 61.6458H58.02L60.4236 66.1887H60.5088L62.9124 61.6458H65.5802V72.334H62.8272V67.0922H62.7419L61.3952 69.6492C61.3019 69.8092 61.169 69.9427 61.0093 70.0367C60.8497 70.1307 60.6685 70.1822 60.4832 70.1861C60.2995 70.1755 60.121 70.1212 59.9624 70.0278C59.8038 69.9344 59.6697 69.8046 59.5712 69.6492L58.1138 67.2882H58.02V72.4022H55.3607" fill="#646565"/>
<path d="M70.8903 69.9816H75.527V72.3425H67.9242V61.6458H75.527V63.9897H70.8903V65.7966H74.7429V68.0894H70.8903V69.9816Z" fill="#646565"/>
<path d="M81.033 66.18H85.4054V67.1602C85.4348 68.0582 85.3402 68.9559 85.1242 69.828C84.8859 70.6631 84.3646 71.3893 83.6496 71.8822C82.8948 72.3868 82 72.6403 81.0926 72.6066C80.1903 72.6387 79.2992 72.3982 78.5356 71.9163C77.8296 71.4501 77.3105 70.7499 77.0696 69.9388C76.8351 68.977 76.7319 67.9878 76.7628 66.9983C76.7327 66.0003 76.8359 65.0028 77.0696 64.0322C77.3141 63.2274 77.8328 62.5338 78.5356 62.0718C79.2994 61.5904 80.1903 61.3498 81.0926 61.3814C81.9276 61.3555 82.7525 61.5684 83.4706 61.9951C84.1285 62.3925 84.6422 62.9898 84.9367 63.6998C85.1173 64.1186 85.224 64.5656 85.252 65.0209H82.5672L82.4649 64.6799C82.3743 64.4422 82.2129 64.2379 82.0026 64.0946C81.7923 63.9514 81.5431 63.876 81.2887 63.8788C80.4875 63.8788 79.9931 64.1174 79.78 64.8334C79.6425 65.5434 79.5909 66.2674 79.6266 66.9898C79.5933 67.7121 79.6448 68.4358 79.78 69.1462C79.8732 69.4487 80.0688 69.7095 80.3331 69.8836C80.5975 70.0578 80.9142 70.1346 81.229 70.1008C81.9961 70.1008 82.4649 69.8195 82.6354 69.2484C82.6959 68.9683 82.7273 68.6827 82.7291 68.3961V68.3194H81.0245L81.033 66.18Z" fill="#646565"/>
<path d="M92.0537 61.5519L96 72.3339H93.1617L92.5736 70.7997H89.3773L88.7722 72.3339H85.9169L89.8291 61.5519H92.0537ZM90.9115 65.5834L90.0592 68.2342H91.9173L90.9627 65.5834H90.9115Z" fill="#646565"/>
<path d="M45.0986 61.731H46.4538V67.7058L51.4656 61.731H53.1447L49.6671 66.0949L53.4771 72.5045H51.8832L48.5762 67.1177L46.4027 69.7088V72.5045H45.0986V61.731Z" fill="#646565"/>
<path d="M41.391 61.731H42.7206V72.5045H41.391L35.6974 64.0408V72.5045H34.4104V61.731H35.74L41.3995 70.2458L41.391 61.731Z" fill="#646565"/>
<path d="M29.3732 61.731H28.2481L24.2166 72.5044H25.5718L26.4241 70.1946H31.1716L31.9643 72.5044H33.3706L29.3732 61.731ZM26.7395 68.9928L28.8362 63.2992L30.8477 68.9928H26.7395Z" fill="#646565"/>
<path d="M20.0486 61.7309C20.9426 61.6638 21.8288 61.9379 22.5289 62.498C22.8108 62.7622 23.0327 63.0838 23.1798 63.4411C23.3268 63.7984 23.3955 64.1831 23.3812 64.5692C23.4075 65.1053 23.2643 65.6361 22.9721 66.0863C22.7139 66.4706 22.3455 66.7678 21.9152 66.9386C22.3566 67.084 22.7431 67.3605 23.0232 67.7313C23.1944 67.9531 23.3296 68.2005 23.4238 68.4643C23.5259 68.7781 23.5777 69.106 23.5772 69.436C23.6055 69.8648 23.5367 70.2944 23.3758 70.6928C23.215 71.0913 22.9662 71.4483 22.6482 71.7373C21.8828 72.2985 20.9446 72.5731 19.9974 72.5129H16V61.7309H20.0486ZM21.4294 65.9244C21.5938 65.7731 21.7237 65.5883 21.8105 65.3824C21.8972 65.1765 21.9388 64.9544 21.9322 64.7311C21.941 64.5012 21.9007 64.2721 21.814 64.059C21.7273 63.8459 21.5962 63.6537 21.4294 63.4952C21.0356 63.1628 20.5289 62.9949 20.0145 63.0264H17.4575V66.4358H20.0145C20.5346 66.4556 21.0421 66.2722 21.4294 65.9244ZM20.0912 71.2259C20.6353 71.2644 21.1731 71.0902 21.5913 70.74C21.9167 70.3939 22.0979 69.9367 22.0979 69.4616C22.0979 68.9864 21.9167 68.5292 21.5913 68.1831C21.1731 67.8329 20.6353 67.6587 20.0912 67.6972H17.4404V71.2515L20.0912 71.2259Z" fill="#646565"/>
<path d="M29.714 85.4343C29.1093 85.4321 28.5095 85.3254 27.9412 85.119C27.4496 84.9555 26.999 84.6881 26.62 84.3348C26.6105 84.3253 26.6029 84.314 26.5978 84.3016C26.5926 84.2892 26.59 84.2758 26.59 84.2624C26.59 84.2489 26.5926 84.2356 26.5978 84.2231C26.6029 84.2107 26.6105 84.1994 26.62 84.1899L27.6343 82.9967C27.6438 82.9871 27.6551 82.9796 27.6676 82.9744C27.68 82.9692 27.6933 82.9666 27.7068 82.9666C27.7202 82.9666 27.7336 82.9692 27.746 82.9744C27.7584 82.9796 27.7697 82.9871 27.7792 82.9967C28.309 83.4907 29.0067 83.7649 29.7311 83.7638C30.0079 83.7798 30.2834 83.7146 30.5237 83.5762C30.6152 83.5225 30.6905 83.445 30.7415 83.352C30.7925 83.2589 30.8174 83.1538 30.8135 83.0478C30.8176 82.9635 30.7992 82.8797 30.7602 82.8048C30.7213 82.7299 30.6632 82.6667 30.5919 82.6216C30.3614 82.4931 30.1052 82.4174 29.8419 82.4L29.4413 82.3489C27.7366 82.1017 26.8843 81.3005 26.8843 79.9368C26.8771 79.6126 26.9431 79.291 27.0774 78.9958C27.2117 78.7007 27.4108 78.4397 27.6599 78.2321C28.2404 77.7439 28.9816 77.4888 29.7396 77.5162C30.712 77.4958 31.6643 77.7952 32.45 78.3685C32.4698 78.3891 32.4809 78.4166 32.4809 78.4452C32.4809 78.4738 32.4698 78.5013 32.45 78.5219L31.5977 79.7493C31.5834 79.7734 31.5605 79.7912 31.5336 79.7991C31.5067 79.807 31.4778 79.8044 31.4528 79.7919C30.9543 79.4356 30.3606 79.2367 29.7481 79.2208C29.5286 79.2053 29.31 79.2622 29.1259 79.3828C29.0534 79.4387 28.9954 79.5113 28.9568 79.5944C28.9183 79.6774 28.9003 79.7686 28.9043 79.8601C28.9043 80.2095 29.2367 80.4226 29.8845 80.4993L30.2936 80.559C30.9978 80.6127 31.6679 80.8837 32.2114 81.3346C32.4326 81.5562 32.6023 81.8238 32.7084 82.1185C32.8145 82.4131 32.8543 82.7275 32.825 83.0393C32.8324 83.3822 32.759 83.722 32.611 84.0315C32.463 84.3409 32.2443 84.6112 31.9727 84.8206C31.3116 85.2762 30.5148 85.4927 29.714 85.4343Z" fill="#94278F"/>
<path d="M39.5585 85.2979H37.5641V82.3233L35.2372 77.7463C35.2372 77.661 35.2372 77.6184 35.3309 77.6184H37.1038C37.1411 77.6179 37.1777 77.6281 37.2094 77.6478C37.2411 77.6674 37.2666 77.6956 37.2828 77.7292L38.5698 80.3544L39.8313 77.7292C39.8456 77.6942 39.8706 77.6646 39.9027 77.6447C39.9349 77.6248 39.9725 77.6156 40.0102 77.6184H41.7149C41.8172 77.6184 41.8428 77.6184 41.8087 77.7463L39.4818 82.3233L39.5585 85.2979Z" fill="#94278F"/>
<path d="M43.8372 85.1872L46.4965 77.7293C46.5027 77.6962 46.5209 77.6665 46.5477 77.6461C46.5744 77.6256 46.6078 77.6158 46.6414 77.6185H48.4824C48.5146 77.6179 48.5459 77.6287 48.5708 77.649C48.5958 77.6693 48.6128 77.6977 48.6188 77.7293L51.2014 85.1872C51.2014 85.2554 51.2014 85.298 51.1247 85.298H49.2836C49.2508 85.2975 49.219 85.2864 49.1929 85.2665C49.1668 85.2465 49.1478 85.2187 49.1387 85.1872L48.7807 84.0025H46.2749L45.9169 85.1872C45.9091 85.2195 45.8904 85.2481 45.8641 85.2683C45.8377 85.2884 45.8052 85.2989 45.772 85.298H43.9224C43.8457 85.298 43.8202 85.2554 43.8372 85.1872ZM47.5278 79.9539L46.7863 82.3489H48.2779L47.5619 79.9539H47.5278Z" fill="#94278F"/>
<path d="M60.4151 85.2979H58.4548C58.4199 85.2972 58.386 85.2863 58.3573 85.2666C58.3285 85.247 58.3061 85.2193 58.2928 85.1871L57.1678 82.5619H56.3154V85.2979H54.338V77.6269H57.5769C58.3177 77.5803 59.0468 77.8285 59.6054 78.3173C59.8464 78.5407 60.0371 78.8127 60.165 79.1154C60.2928 79.4181 60.3548 79.7446 60.347 80.0731C60.3516 80.5239 60.2369 80.9679 60.0145 81.3601C59.7909 81.7288 59.4652 82.0248 59.077 82.2124L60.4919 85.1871C60.5001 85.2013 60.5044 85.2175 60.5044 85.234C60.5044 85.2504 60.5001 85.2666 60.4919 85.2808C60.4808 85.2886 60.4684 85.2941 60.4552 85.297C60.442 85.2999 60.4284 85.3002 60.4151 85.2979ZM57.4576 80.9254C57.5762 80.9339 57.6953 80.9187 57.808 80.8807C57.9207 80.8426 58.0247 80.7825 58.1139 80.7038C58.2675 80.5449 58.3533 80.3325 58.3533 80.1114C58.3533 79.8904 58.2675 79.678 58.1139 79.5191C57.9306 79.3664 57.6956 79.2901 57.4576 79.306H56.3154V80.9254H57.4576Z" fill="#94278F"/>
<path d="M63.8756 85.298V77.627H65.8615V85.298H63.8756Z" fill="#94278F"/>
<path d="M68.8872 85.1872L71.538 77.7293C71.5461 77.6955 71.566 77.6657 71.5941 77.6454C71.6223 77.625 71.6568 77.6155 71.6914 77.6185H73.5325C73.5653 77.619 73.5971 77.63 73.6232 77.65C73.6493 77.6699 73.6682 77.6977 73.6774 77.7293L76.2344 85.1872C76.2344 85.2554 76.2344 85.298 76.1577 85.298H74.2143C74.1822 85.2985 74.1509 85.2877 74.1259 85.2675C74.101 85.2472 74.084 85.2188 74.078 85.1872L73.7115 84.2752H71.4954L71.1033 85.1872C71.0973 85.2188 71.0803 85.2472 71.0554 85.2675C71.0304 85.2877 70.9991 85.2985 70.9669 85.298H68.9725C68.8958 85.298 68.8702 85.2554 68.8872 85.1872ZM72.5779 80.6613L72.1176 82.366H73.0466L72.6119 80.6613H72.5779Z" fill="#94278F"/>
<path d="M79.2261 85.2979V77.6269H81.2205V80.5334H83.4451V77.6184H85.4311V85.2894H83.4451V82.2807H81.2205V85.2979H79.2261Z" fill="#94278F"/>
</g>
</g>
<rect x="1" y="1" width="110" height="110" rx="9" stroke="#CCCCCC" stroke-width="2"/>
<defs>
<clipPath id="clip0_421_558">
<rect x="2" y="2" width="108" height="108" rx="8" fill="white"/>
</clipPath>
<clipPath id="clip1_421_558">
<rect width="80" height="58.4437" fill="white" transform="translate(16 27)"/>
</clipPath>
</defs>
</svg>
