<svg width="112" height="112" viewBox="0 0 112 112" fill="none" xmlns="http://www.w3.org/2000/svg">
<g clip-path="url(#clip0_6_7380)">
<rect x="2" y="2" width="108" height="108" rx="8" fill="white"/>
<path d="M39.1225 33H51.9466C49.8119 37.8029 47.6725 42.6041 45.5342 47.4059C43.5292 51.9118 41.5225 56.4172 39.5169 60.9225C35.2399 60.9243 30.9629 60.9237 26.6864 60.9231C30.832 51.6154 34.974 42.3059 39.1225 33Z" fill="#FFCA08"/>
<path d="M51.9466 33H51.9501C53.2936 36.0257 54.6454 39.0478 55.9883 42.0741L55.9977 42.0952C55.0815 44.0938 54.2063 46.1111 53.3071 48.1172C52.2724 50.4315 51.2458 52.75 50.2122 55.0648C49.9939 55.5297 49.8184 56.0145 49.5683 56.4635C48.2225 53.4449 46.8796 50.4245 45.5343 47.4059C47.6725 42.6041 49.8119 37.8029 51.9466 33Z" fill="#FA9D1C"/>
<path d="M60.0317 33H60.0352C62.1723 37.8041 64.3117 42.607 66.4511 47.41C65.0947 50.4304 63.7582 53.4602 62.4053 56.4823C60.2618 51.6899 58.1336 46.8911 55.9977 42.0952L55.9883 42.0741C57.3435 39.0525 58.687 36.0257 60.0317 33Z" fill="#9E9FA3"/>
<path d="M60.0352 33H72.8592C77.0101 42.3054 81.1504 51.6154 85.2971 60.9225C81.0212 60.9266 76.7448 60.9231 72.4689 60.9243C70.461 56.4201 68.456 51.9147 66.451 47.41C64.3116 42.607 62.1722 37.8041 60.0352 33Z" fill="#636466"/>
<path d="M78.9547 68.7788C79.7811 68.3262 80.7578 68.2405 81.681 68.338C82.5368 68.4284 83.3849 68.7524 84.0212 69.3428C84.7584 70.0149 85.1769 70.9769 85.3171 71.9529C84.4103 71.9535 83.5035 71.9541 82.5967 71.9524C82.4799 71.5098 82.251 71.0432 81.8043 70.8571C81.2479 70.6341 80.5283 70.6394 80.0705 71.069C79.7588 71.359 79.6778 71.7992 79.6291 72.2024C79.5381 73.0628 79.551 73.9298 79.5639 74.7931C79.5898 75.3701 79.5921 75.9629 79.7758 76.517C79.9149 76.949 80.3305 77.2442 80.7736 77.2953C81.2966 77.3575 81.897 77.2565 82.2586 76.8398C82.5808 76.4624 82.6419 75.9406 82.6442 75.4623C82.1025 75.4458 81.5601 75.4605 81.0184 75.4552C81.0178 74.7004 81.0172 73.9456 81.019 73.1908C82.4564 73.1908 83.8938 73.1902 85.3318 73.1914C85.3095 74.4909 85.4345 75.8262 85.0495 77.0875C84.7725 78.0284 84.064 78.8008 83.2094 79.2592C82.6589 79.5544 82.035 79.6765 81.4175 79.7205H80.7026C80.1045 79.6782 79.5064 79.5403 78.9758 79.2545C78.17 78.8207 77.4762 78.1229 77.1769 77.2448C76.7678 76.0821 76.8605 74.8289 76.8458 73.6181C76.847 72.6649 76.8523 71.6847 77.178 70.7761C77.4774 69.9074 78.1629 69.2184 78.9547 68.7788Z" fill="#636466"/>
<path d="M16 68.5205C17.0365 68.5528 18.0754 68.5252 19.1131 68.5346C19.7957 68.5475 20.4907 68.4812 21.1604 68.649C21.8718 68.8146 22.5461 69.2207 22.9429 69.8446C23.3444 70.468 23.4618 71.2486 23.3438 71.9729C23.2006 72.8234 22.5931 73.5817 21.7808 73.8816C22.3472 74.1 22.859 74.4844 23.1701 75.0121C23.6208 75.7593 23.6461 76.6972 23.4213 77.5224C23.2182 78.2708 22.6641 78.9064 21.9533 79.2146C21.4315 79.4511 20.8528 79.5409 20.2829 79.5397C18.8555 79.5386 17.4274 79.5397 16 79.5392V68.5205ZM17.1803 69.5905C17.1768 70.8606 17.1798 72.1302 17.1792 73.4003C18.1558 73.4021 19.1331 73.4009 20.1103 73.4009C20.7125 73.3933 21.3558 73.2213 21.7708 72.7594C22.1717 72.3163 22.2674 71.6753 22.1781 71.1013C22.1159 70.6904 21.9081 70.296 21.5759 70.0407C21.1627 69.7167 20.6257 69.5987 20.1103 69.5911C19.1337 69.5899 18.157 69.5917 17.1803 69.5905ZM17.1798 74.4574C17.178 75.7992 17.1786 77.1409 17.1792 78.4827C18.0772 78.4832 18.9746 78.4827 19.8726 78.4833C20.2477 78.4891 20.6292 78.4868 20.9913 78.3741C21.5302 78.2232 22.0109 77.837 22.2198 77.3105C22.5156 76.5598 22.4176 75.6002 21.8136 75.0262C21.3464 74.5789 20.6726 74.4386 20.0452 74.4568C19.0897 74.458 18.1347 74.4574 17.1798 74.4574Z" fill="#636466"/>
<path d="M28.3428 68.5345C28.6744 68.5351 29.006 68.5316 29.3382 68.5363C30.6812 72.2023 32.0217 75.8695 33.3705 79.5332C32.9497 79.5444 32.5283 79.5408 32.1074 79.5355C31.8175 78.7062 31.5281 77.8769 31.2264 77.0522C29.6282 77.0581 28.0299 77.0528 26.4317 77.0546C26.1371 77.8821 25.8448 78.7103 25.5525 79.5385C25.1328 79.5408 24.7131 79.5379 24.2941 79.5397C25.6411 75.8707 26.9928 72.2029 28.3428 68.5345ZM28.8382 70.2801C28.1544 72.1953 27.4712 74.1105 26.7903 76.0268C28.1567 76.0274 29.5225 76.0286 30.8883 76.0262C30.2175 74.1116 29.5454 72.1976 28.8722 70.2836C28.864 70.283 28.847 70.2813 28.8382 70.2801Z" fill="#636466"/>
<path d="M34.5227 68.5351C34.8948 68.5328 35.2669 68.5346 35.6397 68.5346C37.5842 71.4599 39.5264 74.3869 41.4715 77.3122C41.4762 74.3858 41.4703 71.4599 41.475 68.5334C41.8665 68.5334 42.2586 68.5369 42.6506 68.5316C42.6653 72.2006 42.653 75.8701 42.6565 79.5391C42.2832 79.5391 41.9105 79.5391 41.5372 79.5391C39.5903 76.6044 37.6505 73.665 35.703 70.7303C35.6995 73.6668 35.7019 76.6026 35.7019 79.5385C35.3092 79.5403 34.916 79.5385 34.5233 79.5391C34.5221 75.8713 34.5233 72.2035 34.5227 68.5351Z" fill="#636466"/>
<path d="M45.212 68.5405C45.6053 68.5264 45.9991 68.5381 46.3935 68.5346C46.3947 70.637 46.3912 72.7394 46.3953 74.8424C48.1086 72.7424 49.8084 70.6311 51.5234 68.5328C52.0035 68.5364 52.4831 68.5328 52.9632 68.5346C51.8104 69.9538 50.6524 71.3678 49.5014 72.7882C50.8191 75.0391 52.1391 77.2882 53.4556 79.5391C52.9884 79.538 52.5218 79.5415 52.0552 79.5374C50.9423 77.587 49.823 75.6401 48.709 73.6903C47.9665 74.5713 47.2346 75.4617 46.4933 76.3438C46.4499 76.4043 46.3765 76.4612 46.3935 76.5463C46.3935 77.5441 46.393 78.5413 46.3935 79.5391C46.0009 79.5397 45.6082 79.5391 45.215 79.5391C45.2126 75.8731 45.2191 72.2065 45.212 68.5405Z" fill="#636466"/>
<path d="M55.2856 79.5385C55.2915 75.8707 55.2751 72.2018 55.2939 68.5345C56.1796 68.5475 57.0658 68.5328 57.9521 68.5422C58.7686 70.1569 59.5944 71.7674 60.4132 73.3815C61.2425 71.7704 62.0578 70.1522 62.883 68.5392C63.7711 68.5398 64.6591 68.5387 65.5477 68.5398C65.5471 72.2065 65.5477 75.8725 65.5471 79.5391C64.6444 79.5397 63.7411 79.5391 62.8384 79.5391C62.8349 77.7108 62.8419 75.8825 62.8349 74.0536C62.3248 74.9451 61.816 75.8373 61.3036 76.7277C61.1263 77.0323 60.7853 77.2359 60.4308 77.2324C60.0722 77.2453 59.7182 77.0493 59.5363 76.7412C59.018 75.8508 58.5168 74.9504 57.9961 74.0618C57.995 75.8877 57.9961 77.7137 57.995 79.5391C57.0917 79.5385 56.189 79.5403 55.2856 79.5385Z" fill="#636466"/>
<path d="M67.8075 68.5399C70.302 68.5387 72.7965 68.5393 75.2904 68.5399C75.2933 69.3404 75.2857 70.1416 75.2945 70.9422C73.7027 70.9622 72.1098 70.9434 70.5174 70.9516C70.5168 71.5626 70.5162 72.173 70.5174 72.784C71.8774 72.7858 73.2367 72.784 74.5966 72.7852C74.5961 73.5905 74.5961 74.3952 74.5966 75.2005C73.2367 75.2028 71.8768 75.1987 70.5174 75.2022C70.5168 75.8438 70.5162 76.4859 70.5174 77.1274C72.1086 77.1292 73.6992 77.1274 75.2904 77.128C75.291 77.9321 75.291 78.7356 75.2904 79.5391C72.7959 79.5391 70.302 79.5397 67.8081 79.5391C67.8069 75.8725 67.8069 72.2065 67.8075 68.5399Z" fill="#636466"/>
<path d="M89.8911 68.5398C90.5896 68.5416 91.2886 68.5334 91.9877 68.544C92.9233 71.14 93.8729 73.7308 94.8138 76.3244C95.2141 77.3944 95.5768 78.4797 96 79.5409C95.065 79.5368 94.13 79.5415 93.1956 79.5385C93.0154 78.9927 92.8376 78.4468 92.655 77.9016C91.5076 77.9027 90.3595 77.8957 89.212 77.9051C89.0389 78.4515 88.8552 78.9944 88.6761 79.5391C87.7476 79.5397 86.8191 79.5391 85.8911 79.5391C87.2223 75.8719 88.557 72.2059 89.8911 68.5398ZM90.9318 72.5357C90.6001 73.5893 90.2632 74.6411 89.931 75.6941C90.6007 75.6958 91.271 75.6947 91.9419 75.6947C91.6044 74.6417 91.2822 73.584 90.9318 72.5357Z" fill="#636466"/>
<path d="M55.9977 42.0952C58.1336 46.8911 60.2618 51.6899 62.4053 56.4823C61.8313 57.7436 60.8675 58.8213 59.686 59.545C57.9358 60.632 55.7001 60.8785 53.7497 60.2217C51.9161 59.6183 50.3619 58.2238 49.5684 56.4635C49.8184 56.0145 49.9939 55.5297 50.2122 55.0648C51.2458 52.7499 52.2724 50.4315 53.3072 48.1172C54.2064 46.1111 55.0815 44.0937 55.9977 42.0952Z" fill="#F37022"/>
</g>
<rect x="1" y="1" width="110" height="110" rx="9" stroke="#CCCCCC" stroke-width="2"/>
<defs>
<clipPath id="clip0_6_7380">
<rect x="2" y="2" width="108" height="108" rx="8" fill="white"/>
</clipPath>
</defs>
</svg>
