<svg width="112" height="112" viewBox="0 0 112 112" fill="none" xmlns="http://www.w3.org/2000/svg">
<g clip-path="url(#clip0_528_46)">
<rect x="2" y="2" width="108" height="108" rx="8" fill="white"/>
<path d="M28.0388 44.1593C27.3781 45.8419 26.6729 47.5305 25.9461 49.2306L24.963 51.4845L23.9682 49.2306C23.2183 47.5305 22.4993 45.8419 21.8251 44.1593H16.3224V44.6003C16.9325 44.6003 17.4339 45.1095 17.4339 45.737C17.3444 46.8989 17.2474 48.0629 17.1288 49.2306L16.7636 52.7786C16.5886 54.4767 16.3904 56.1691 16.1593 57.8497H17.9177C18.0264 56.1691 18.1624 54.4767 18.3335 52.7786L18.8756 47.4293C19.6567 49.0556 20.4047 50.6917 21.1295 52.3317L21.3296 52.7786C22.0816 54.4767 22.7966 56.1691 23.4747 57.8497H24.0071C24.6716 56.1691 25.375 54.4767 26.1055 52.7786L26.4223 52.0499C27.1314 50.4099 27.8697 48.774 28.6314 47.1496L29.2046 52.7786C29.3757 54.4767 29.5175 56.1691 29.6204 57.8497H33.6658C33.4326 56.1691 33.2324 54.4767 33.0615 52.7786L32.7002 49.2306C32.5311 47.5305 32.3854 45.8419 32.2863 44.1593H28.0388Z" fill="#183181"/>
<path d="M46.1844 56.4891C46.6255 55.6497 47.1016 54.8006 47.6067 53.9515L52.5206 45.7734V45.4275H41.7078V47.9436H42.1352C42.1352 47.3374 42.6015 46.8419 43.1844 46.805C43.5224 46.7935 43.8587 46.7876 44.1909 46.7876H47.6805C47.2473 47.6095 46.7848 48.4391 46.2854 49.2688L41.3463 57.5053V57.8492H53.0083V56.3881C52.1884 56.4541 51.3567 56.4891 50.529 56.4891H46.1844Z" fill="#183181"/>
<path d="M66.1744 57.8496C66.2093 57.8476 66.2443 57.8437 66.2773 57.8418C66.2132 57.0024 66.1744 56.1612 66.1744 55.3139V52.2363H71.0027V55.3139C71.0027 56.1612 70.9736 57.0102 70.9096 57.8496H74.6284C74.5604 57.0102 74.5294 56.1612 74.5294 55.3139V47.9655C74.5294 47.1124 74.5604 46.2693 74.6284 45.426H69.8875V45.8185H69.9944C70.5229 45.8185 70.9484 46.2361 70.9853 46.7648C70.9969 47.163 71.0027 47.5632 71.0027 47.9655V50.8742H66.1744V47.9655C66.1744 47.1124 66.2054 46.2693 66.2734 45.426H61.5345V45.8185H61.6374C62.164 45.8185 62.5915 46.2324 62.6284 46.7589C62.642 47.1611 62.6497 47.5613 62.6497 47.9655V56.5672C62.162 56.6293 61.6607 56.6586 61.1536 56.6586C60.6076 56.6586 60.0695 56.6158 59.5449 56.5303C58.0565 56.2465 57.8194 54.8495 57.8194 53.979V47.8936C57.8194 47.0677 57.8563 46.2459 57.9186 45.426H53.1795V45.8185H53.2805C53.809 45.8185 54.2326 46.2324 54.2695 46.757C54.2831 47.1611 54.2909 47.5613 54.2909 47.9655V53.3904C54.2909 54.6106 54.6775 57.3074 57.9885 57.7971C59.0221 57.939 60.0791 58.0205 61.1536 58.0205C62.8401 58.0205 64.515 57.9603 66.1744 57.8496Z" fill="#183181"/>
<path d="M90.547 51.6391C90.547 55.871 86.8883 58.02 83.2839 58.02C79.6797 58.02 76.0287 55.871 76.0287 51.6391C76.0287 47.4053 79.6797 45.2563 83.2839 45.2563C86.8883 45.2563 90.547 47.4053 90.547 51.6391ZM87.0068 51.6391C87.0029 49.3327 86.0391 46.6184 83.2839 46.6184C80.5326 46.6184 79.5651 49.3327 79.5651 51.6391C79.5651 53.9435 80.5326 56.6579 83.2839 56.6579C86.0391 56.6579 87.0029 53.9435 87.0068 51.6391Z" fill="#183181"/>
<path d="M39.6646 47.9657C39.6646 47.1128 39.6957 46.2694 39.7676 45.4261H34.9023V45.8673H35.0033C35.6329 45.8673 36.1245 46.3763 36.1245 47.0097C36.1341 47.3245 36.138 47.6432 36.138 47.9657V55.3141C36.138 56.1613 36.105 57.0105 36.0487 57.8497H39.7676C39.6957 57.0105 39.6646 56.1613 39.6646 55.3141V47.9657Z" fill="#183181"/>
<path d="M22.9252 64.6729C32.7219 62.4772 42.9033 61.3173 53.3566 61.3173C68.114 61.3173 82.3542 63.5303 95.7688 67.6456C95.8194 67.6612 95.8485 67.7079 95.8387 67.7642C95.8272 67.8167 95.7707 67.8575 95.7184 67.8458C81.9327 65.5705 67.8126 64.2727 53.4285 64.0219C43.1539 63.8412 33.0016 64.2045 22.9912 65.0711C22.8902 65.0809 22.8008 65.0168 22.7736 64.9178C22.7484 64.8088 22.8164 64.6981 22.9252 64.6729Z" fill="#ED1A3A"/>
</g>
<rect x="1" y="1" width="110" height="110" rx="9" stroke="#CCCCCC" stroke-width="2"/>
<defs>
<clipPath id="clip0_528_46">
<rect x="2" y="2" width="108" height="108" rx="8" fill="white"/>
</clipPath>
</defs>
</svg>
