<svg width="112" height="112" viewBox="0 0 112 112" fill="none" xmlns="http://www.w3.org/2000/svg">
<g clip-path="url(#clip0_421_554)">
<rect x="2" y="2" width="108" height="108" rx="8" fill="white"/>
<path d="M54.1854 55.3568C54.2723 55.4003 54.3484 55.4546 54.4244 55.4981C54.4462 55.5089 54.4679 55.5307 54.4896 55.5415C54.5331 55.5633 54.5657 55.5958 54.5983 55.6176L55.6632 56.2913V54.9113C55.6632 53.1617 54.2506 52.5858 52.501 52.5858H51.9468V58.2256H54.1636C54.2071 58.2473 54.1528 55.3351 54.1854 55.3568Z" fill="#122448"/>
<path d="M54.1854 50.771C54.2723 50.8144 54.3484 50.8688 54.4244 50.9122C54.4462 50.9231 54.4679 50.9448 54.4896 50.9557C54.5331 50.9883 54.5657 51.01 54.5983 51.0318L55.6632 51.7055V50.3254C55.6632 48.5759 54.2506 48 52.501 48H51.9468V49.3474L54.0767 50.6949C54.1093 50.7275 54.1528 50.7492 54.1854 50.771Z" fill="#122448"/>
<path d="M60.1186 61.0184C59.7709 61.1488 59.3797 61.2574 58.9559 61.3335C58.5321 61.4096 58.1192 61.4422 57.728 61.4422C56.9021 61.4422 56.3479 61.214 56.0762 60.7467C55.9024 60.4533 55.7937 60.0838 55.7285 59.66L55.685 59.6926L55.6633 59.7035L52.4902 62.1485C52.6315 62.4636 52.8054 62.757 53.0227 63.0178C53.4248 63.5068 53.9572 63.8871 54.6201 64.1697C55.283 64.4413 56.1197 64.5826 57.1303 64.5826C57.9236 64.5826 58.5973 64.5174 59.1515 64.387C59.1623 64.387 59.1623 64.387 59.1623 64.3761C59.76 64.2349 60.1838 63.6915 60.1729 63.0721L60.1186 61.0184Z" fill="#122448"/>
<path d="M84.6877 51.7599C85.3179 51.5752 86.1329 51.4122 87.1327 51.2492C88.1324 51.0862 89.1756 51.0101 90.2731 51.0101C91.3815 51.0101 92.3161 51.1514 93.0441 51.4448C93.7831 51.7382 94.3699 52.1403 94.8045 52.6727C95.2392 53.2052 95.5435 53.8354 95.7282 54.5635C95.9129 55.2916 95.9999 56.1065 95.9999 56.9976V64.3977H92.2835V57.454C92.2835 56.2587 92.1205 55.4111 91.8162 54.9112C91.5011 54.4114 90.9143 54.1614 90.0449 54.1614C89.7733 54.1614 89.5016 54.1723 89.1973 54.194C88.8931 54.2158 88.6323 54.2484 88.4041 54.281V64.3977H84.6985V51.7599H84.6877Z" fill="#122448"/>
<path d="M82.0796 57.8345C82.0796 58.8668 81.9275 59.8013 81.6341 60.6598C81.3298 61.5182 80.906 62.2463 80.3409 62.8548C79.7759 63.4633 79.1021 63.9306 78.3089 64.2566C77.5265 64.5826 76.6354 64.7565 75.6574 64.7565C74.6903 64.7565 73.821 64.5935 73.0277 64.2566C72.2344 63.9197 71.5607 63.4525 70.9956 62.8548C70.4306 62.2463 69.9959 61.5182 69.6808 60.6598C69.3656 59.8013 69.2135 58.8559 69.2135 57.8345C69.2135 56.8021 69.3765 55.8676 69.7025 55.02C70.0285 54.1724 70.474 53.4552 71.05 52.8576C71.6259 52.2599 72.2996 51.7927 73.0929 51.4667C73.8753 51.1298 74.7446 50.9668 75.6683 50.9668C76.6137 50.9668 77.483 51.1298 78.2763 51.4667C79.0695 51.7927 79.7433 52.2599 80.3083 52.8576C80.8734 53.4552 81.3081 54.1833 81.6232 55.02C81.9166 55.8676 82.0796 56.8021 82.0796 57.8345ZM78.2871 57.8345C78.2871 56.6935 78.0589 55.7915 77.6025 55.1287C77.1461 54.4767 76.4941 54.1507 75.6466 54.1507C74.799 54.1507 74.147 54.4767 73.6797 55.1287C73.2124 55.7807 72.9842 56.6826 72.9842 57.8345C72.9842 58.9754 73.2124 59.8882 73.6797 60.562C74.147 61.2357 74.799 61.5726 75.6466 61.5726C76.4941 61.5726 77.1461 61.2357 77.6025 60.562C78.0589 59.8882 78.2871 58.9754 78.2871 57.8345Z" fill="#122448"/>
<path d="M66.5838 64.4087H65.3776C63.9976 64.4087 62.8674 63.2894 62.8674 61.9093V51.3145H64.4214C65.6167 51.3145 66.5838 52.2816 66.5838 53.4769V64.4087Z" fill="#122448"/>
<path d="M49.4578 57.8345C49.4578 58.8668 49.3057 59.8013 49.0123 60.6598C48.708 61.5182 48.2842 62.2463 47.7192 62.8548C47.1541 63.4633 46.4804 63.9306 45.6871 64.2566C44.9047 64.5826 44.0137 64.7565 43.0357 64.7565C42.0685 64.7565 41.1992 64.5935 40.4059 64.2566C39.6127 63.9197 38.9389 63.4525 38.3739 62.8548C37.8088 62.2463 37.3633 61.5182 37.059 60.6598C36.7439 59.8013 36.5809 58.8559 36.5809 57.8345C36.5809 56.8021 36.7439 55.8676 37.0699 55.02C37.3959 54.1724 37.8414 53.4552 38.4173 52.8576C38.9933 52.2599 39.667 51.7927 40.4603 51.4667C41.2535 51.1298 42.112 50.9668 43.0357 50.9668C43.9811 50.9668 44.8504 51.1298 45.6436 51.4667C46.4369 51.7927 47.1107 52.2599 47.6757 52.8576C48.2408 53.4552 48.6754 54.1833 48.9906 55.02C49.2948 55.8676 49.4578 56.8021 49.4578 57.8345ZM45.6654 57.8345C45.6654 56.6935 45.4372 55.7915 44.9808 55.1287C44.5244 54.4767 43.8724 54.1507 43.0248 54.1507C42.1772 54.1507 41.5252 54.4767 41.0579 55.1287C40.5907 55.7807 40.3625 56.6826 40.3625 57.8345C40.3625 58.9754 40.5907 59.8882 41.0579 60.562C41.5252 61.2357 42.1772 61.5726 43.0248 61.5726C43.8724 61.5726 44.5244 61.2357 44.9808 60.562C45.448 59.8882 45.6654 58.9754 45.6654 57.8345Z" fill="#122448"/>
<path d="M23.1827 57.4541C23.1827 56.2588 23.0305 55.4112 22.7263 54.9113C22.422 54.4115 21.8895 54.1616 21.1506 54.1616C20.9224 54.1616 20.6833 54.1724 20.4334 54.205C20.1835 54.2268 19.9444 54.2594 19.7053 54.292V64.3979H15.9998V51.7601C16.3149 51.6731 16.6844 51.5862 17.1082 51.4993C17.532 51.4123 17.9775 51.3254 18.4557 51.2493C18.9338 51.1733 19.4119 51.1189 19.9118 51.0755C20.4117 51.032 20.9007 51.0103 21.3788 51.0103C22.3242 51.0103 23.0957 51.1298 23.6825 51.3689C24.2693 51.6079 24.7583 51.9013 25.1387 52.2273C25.6711 51.847 26.2797 51.5427 26.9751 51.3254C27.6597 51.1081 28.3008 50.9994 28.8768 50.9994C29.92 50.9994 30.7784 51.1407 31.4522 51.4341C32.1259 51.7274 32.6584 52.1404 33.0604 52.662C33.4625 53.1944 33.7342 53.8247 33.8754 54.5528C34.0276 55.2808 34.1036 56.0958 34.1036 56.9977V64.3979H30.3981V57.4541C30.3981 56.2588 30.246 55.4112 29.9417 54.9113C29.6374 54.4115 29.105 54.1616 28.3552 54.1616C28.1596 54.1616 27.877 54.2159 27.5185 54.3137C27.1598 54.4115 26.8665 54.5419 26.6382 54.6832C26.7578 55.0635 26.823 55.4655 26.8556 55.8893C26.8882 56.3131 26.9099 56.7695 26.9099 57.2477V64.3979H23.1935V57.4541H23.1827Z" fill="#122448"/>
<path d="M58.7276 53.7268L55.6524 51.7164L54.5983 51.0427C54.5657 51.0101 54.5222 50.9884 54.4896 50.9667C54.4679 50.9558 54.4462 50.934 54.4244 50.9232C54.3484 50.8688 54.2723 50.8254 54.1962 50.7819H54.1854C54.1419 50.7602 54.1093 50.7385 54.0767 50.7167L51.9468 49.3693V53.466L52.4902 53.7811C54.0006 54.6721 54.055 56.8237 52.6097 57.8017L51.9577 58.2364V58.9318C51.9577 59.7794 52.0338 60.551 52.1968 61.2464C52.2728 61.5724 52.3706 61.8767 52.501 62.1592L55.6741 59.7142L55.6958 59.7034L55.7393 59.6708L55.8806 59.5621L58.8254 57.4214C60.0751 56.4869 60.0316 54.5852 58.7276 53.7268Z" fill="#DCA32D"/>
</g>
<rect x="1" y="1" width="110" height="110" rx="9" stroke="#CCCCCC" stroke-width="2"/>
<defs>
<clipPath id="clip0_421_554">
<rect x="2" y="2" width="108" height="108" rx="8" fill="white"/>
</clipPath>
</defs>
</svg>
