<svg width="112" height="112" viewBox="0 0 112 112" fill="none" xmlns="http://www.w3.org/2000/svg">
<g clip-path="url(#clip0_6_7381)">
<rect x="2" y="2" width="108" height="108" rx="8" fill="white"/>
<path fill-rule="evenodd" clip-rule="evenodd" d="M29.2873 61.1355L30.4323 59.9906L31.595 61.1533L30.4501 62.2982L29.2873 61.1355ZM32.3837 61.1355L33.5286 59.9906L34.6926 61.1533L33.5477 62.2982L32.3837 61.1355ZM21.6126 52.8667L22.7754 51.7027L23.9572 52.8845L22.7944 54.0498L21.6126 52.8692V52.8667ZM28.3027 47.1116C26.3335 48.5313 25.4201 49.4701 25.0919 51.2371C24.5411 54.1986 25.7788 56.4528 25.9124 56.8815H23.5742C24.4253 57.4031 25.2598 58.6854 25.8055 58.7134C26.3805 58.7439 26.696 58.735 26.696 58.735C27.4466 60.2094 27.3512 62.0553 26.9963 62.9686C26.6032 63.9863 25.6529 65.1249 23.4585 64.4379C21.2959 63.7586 18.8432 62.0362 18.3942 59.5275C18.2212 58.5582 18.3942 57.2174 18.6753 56.6017C19.0926 55.7023 19.9156 54.7634 20.759 53.5867C19.1053 54.9212 16.8269 57.4031 16.1794 59.8316C15.4327 62.6582 17.047 64.6656 18.5392 65.9123C20.0314 67.159 22.6367 67.72 23.9164 67.3117C25.2356 66.8982 25.5575 66.3792 26.3042 65.5129C27.2214 64.4443 27.9173 63.3172 28.1144 62.4878C28.4706 60.9879 28.1628 58.7134 28.1628 58.7134C28.1628 58.7134 31.4958 58.8406 33.0503 58.7439C34.143 58.6752 36.3107 57.6143 36.4774 55.3868C36.6466 53.1351 34.2703 51.4661 32.3951 50.6532C33.5121 51.8592 33.7398 53.2343 33.3569 54.2508C32.9282 55.3957 31.857 56.2862 30.6243 56.6373C29.7149 56.8851 28.7652 56.9491 27.8308 56.8256C27.0675 55.6565 26.6413 50.3606 28.3027 47.1116ZM29.3039 46.7427C32.2298 47.2515 36.4112 49.5236 37.9212 52.7942C39.5648 56.3561 38.0243 60.0453 35.5627 62.5539C33.8097 64.3425 31.5301 64.99 30.2567 65.2661C29.3815 65.4518 28.8574 65.2203 28.374 65.378C27.2291 65.747 26.4543 67.1412 25.3934 68.0126C28.2786 68.1106 32.7602 68.4235 36.2662 65.9314C40.6385 62.8223 40.2314 56.7912 39.4923 54.2419C38.7532 51.6925 36.583 46.5124 31.4449 44C30.8342 45.1704 30.3343 45.9082 29.3039 46.7427Z" fill="#6FBD62"/>
<path fill-rule="evenodd" clip-rule="evenodd" d="M54.1217 53.7151H54.7731V53.177C54.5326 53.2788 54.109 53.2953 54.109 52.9226V49.7423C54.1198 49.3555 54.0708 48.9693 53.964 48.5974C53.8871 48.3388 53.7487 48.1027 53.5607 47.9092C53.1358 47.497 52.6244 47.4576 52.0812 47.4309C51.4251 47.3974 50.7692 47.5028 50.1565 47.74L50.1476 48.357C50.8257 48.072 51.9642 47.7972 52.6817 48.1025C52.8804 48.1782 53.0527 48.31 53.1779 48.4819C53.303 48.6538 53.3755 48.8583 53.3864 49.0706C53.4055 49.3594 53.4068 49.6456 53.4068 49.9344C51.7339 49.6024 49.5701 49.7728 49.5904 51.9393C49.5911 52.2969 49.6969 52.6465 49.8945 52.9446C50.0922 53.2426 50.3731 53.4761 50.7023 53.6159C51.6525 53.9976 52.9298 53.8309 53.5009 52.9137V53.0854C53.5029 53.2517 53.5699 53.4106 53.6876 53.5281C53.8053 53.6455 53.9644 53.7122 54.1306 53.7139L54.1217 53.7151ZM53.3521 51.7332C53.333 52.3158 53.1689 53.2864 51.7136 53.2864C51.5249 53.2917 51.3372 53.2584 51.1618 53.1887C50.9865 53.119 50.8271 53.0143 50.6936 52.881C50.56 52.7476 50.455 52.5885 50.385 52.4132C50.3149 52.238 50.2814 52.0503 50.2863 51.8617C50.2863 50.0082 52.2517 50.2575 53.3725 50.4623L53.3521 51.7332Z" fill="#420655"/>
<path fill-rule="evenodd" clip-rule="evenodd" d="M56.8148 47.5417H55.5287V48.0709H56.1813V53.7254H56.825V49.605C56.8148 48.6929 57.9699 47.9055 58.8706 47.9653C59.2191 47.9882 59.7114 48.1828 59.9417 48.4881C60.1719 48.7934 60.2279 49.3112 60.2279 49.7068V53.7254H60.9352V49.6483C60.9352 48.2337 60.2584 47.4857 58.8044 47.431C57.9635 47.403 57.1379 47.7299 56.8148 48.4143V47.5417Z" fill="#420655"/>
<path fill-rule="evenodd" clip-rule="evenodd" d="M67.6482 53.1721C66.8671 53.2153 67.0478 53.3616 65.3024 50.1724L67.2106 47.5505H66.4244L64.6791 49.9918H63.6232C63.6232 48.349 63.6232 46.7067 63.6232 45.0648H62.2607V45.8166H62.8968V53.7254H63.6283V50.5222L64.6943 50.5413C66.7297 53.976 66.3137 53.7216 67.6495 53.6707L67.6482 53.1721Z" fill="#420655"/>
<path fill-rule="evenodd" clip-rule="evenodd" d="M42.4462 45.6639V46.2211H43.1815V53.7267H45.8529C46.5221 53.7267 47.1467 53.6134 47.6899 53.1326C48.1707 52.7064 48.3488 52.1047 48.3488 51.4305C48.3488 50.4662 47.8145 49.7258 46.863 49.4676C47.1936 49.3005 47.4692 49.0418 47.6568 48.7224C47.8445 48.403 47.9363 48.0364 47.9214 47.6663C47.9214 46.4234 46.9037 45.6652 45.7053 45.6652L42.4462 45.6639ZM43.946 49.2717V46.2262H45.6316C46.8274 46.2809 47.111 46.9221 47.111 47.7617C47.1199 48.703 46.6709 49.2742 45.7003 49.2742L43.946 49.2717ZM43.946 53.1262V49.8772H45.7066C46.9495 49.8772 47.5207 50.2589 47.5207 51.4292C47.5207 52.6619 46.7956 53.1262 45.8478 53.1262H43.946Z" fill="#420655"/>
<path fill-rule="evenodd" clip-rule="evenodd" d="M56.5209 65.1376C56.1737 65.6464 55.4295 65.8309 54.7705 65.8309C53.2757 65.8309 52.5875 64.9646 52.5875 63.5487V59.5962H53.8228V63.4927C53.8228 64.1351 53.9144 64.9518 55.0198 64.9518C55.6559 64.9518 56.2805 64.8246 56.4841 63.8069V59.5962H57.6862V64.471C57.7028 64.9582 57.8198 65.0625 58.4228 64.8094V65.5103C58.1073 65.78 56.8415 66.028 56.5209 65.1376Z" fill="#420655"/>
<path fill-rule="evenodd" clip-rule="evenodd" d="M83.1058 58.0163H82.3845V57.0724H84.3283V64.5499C84.3283 65.0092 84.6323 65.0855 85.1004 64.8145V65.5307C84.5458 65.976 83.1122 65.9124 83.1058 64.8362V58.0163Z" fill="#420655"/>
<path fill-rule="evenodd" clip-rule="evenodd" d="M93.1034 60.5083H92.1379V59.6255H93.1034V58.0989L94.331 57.66V59.628H95.7303V60.5109H94.331V63.9965C94.3272 64.1457 94.3387 64.2949 94.3654 64.4417C94.5257 65.1707 95.5395 65.0027 96 64.658V65.4989C95.0956 66.0319 93.3757 66.0611 93.1454 64.7127C93.1154 64.4594 93.1014 64.2045 93.1034 63.9494V60.5083Z" fill="#420655"/>
<path fill-rule="evenodd" clip-rule="evenodd" d="M64.1791 64.5474C64.1791 65.1147 64.688 64.9634 64.9589 64.7662V65.546C64.3076 65.9276 63.4744 65.9022 63.0062 65.2572C62.4465 66.0307 60.0282 66.1655 59.4723 64.7636C58.709 62.8237 60.0727 61.0567 63.005 61.9077C63.0393 59.5988 60.7673 60.3392 59.8157 60.8824L59.8437 59.9487C60.7813 59.2935 62.6424 59.3266 63.5736 60.0759C63.7952 60.261 63.9645 60.5009 64.0646 60.7717C64.1982 61.1063 64.1791 61.4956 64.1791 61.853V64.5461V64.5474ZM63.0062 63.7841V62.7104C60.4314 62.0248 60.2228 63.6658 60.7228 64.5321C61.2469 65.4468 63.024 64.9824 63.0062 63.7905V63.7841Z" fill="#420655"/>
<path fill-rule="evenodd" clip-rule="evenodd" d="M67.0783 60.3187C67.348 59.8557 68.0744 59.4817 68.7321 59.4817C69.6226 59.4817 70.5652 59.7361 70.8832 60.4816C71.1059 59.7806 72.0701 59.3952 72.8525 59.4537C74.3129 59.5631 74.9133 60.3684 74.9133 61.7104V65.7214H73.6412V61.7664C73.659 59.7832 71.0969 60.3022 71.1046 61.6977V65.7214H69.9139V61.7664C69.9139 59.8455 67.4167 60.2399 67.3951 61.6061V65.7214H66.1331V60.5057H65.3584V59.5936L66.8468 59.5796L67.0783 60.3187Z" fill="#420655"/>
<path fill-rule="evenodd" clip-rule="evenodd" d="M49.78 60.1038L47.4915 65.6769H46.6951L44.2539 60.0885V65.6947H43.1382V57.7694H44.4485L47.12 63.9964L49.6655 57.7694H50.902V65.6947H49.78V60.1038Z" fill="#420655"/>
<path fill-rule="evenodd" clip-rule="evenodd" d="M81.1722 64.5474C81.1722 65.1147 81.681 64.9634 81.9532 64.7662V65.546C81.3019 65.9276 80.4674 65.9022 79.9993 65.2572C79.4395 66.0307 77.0212 66.1655 76.4666 64.7636C75.7033 62.8237 77.067 61.0567 79.9993 61.9077C80.0336 59.5988 77.7603 60.3392 76.8088 60.8824L76.838 59.9487C77.7756 59.2935 79.6367 59.3266 80.5679 60.0759C80.7888 60.2616 80.958 60.5013 81.0589 60.7717C81.1862 61.1063 81.1722 61.4956 81.1722 61.853V64.5461V64.5474ZM79.9993 63.7841V62.7104C77.4258 62.0248 77.2159 63.6658 77.7171 64.5321C78.2399 65.4468 80.0183 64.9824 79.9993 63.7905V63.7841Z" fill="#420655"/>
<path fill-rule="evenodd" clip-rule="evenodd" d="M90.9179 64.5474C90.9179 65.1147 91.4267 64.9634 91.6989 64.7662V65.546C91.0476 65.9276 90.2131 65.9022 89.745 65.2572C89.1852 66.0307 86.767 66.1655 86.2123 64.7636C85.449 62.8237 86.8128 61.0567 89.745 61.9077C89.7793 59.5988 87.506 60.3392 86.5545 60.8824L86.5838 59.9487C87.5213 59.2935 89.3824 59.3266 90.3136 60.0759C90.5345 60.2616 90.7037 60.5013 90.8046 60.7717C90.9319 61.1063 90.9179 61.4956 90.9179 61.853V64.5461V64.5474ZM89.745 63.7841V62.7104C87.1715 62.0248 86.9616 63.6658 87.4628 64.5321C87.9856 65.4468 89.7641 64.9824 89.745 63.7905V63.7841Z" fill="#420655"/>
</g>
<rect x="1" y="1" width="110" height="110" rx="9" stroke="#CCCCCC" stroke-width="2"/>
<defs>
<clipPath id="clip0_6_7381">
<rect x="2" y="2" width="108" height="108" rx="8" fill="white"/>
</clipPath>
</defs>
</svg>
