<svg width="112" height="112" viewBox="0 0 112 112" fill="none" xmlns="http://www.w3.org/2000/svg">
<g clip-path="url(#clip0_421_560)">
<rect x="2" y="2" width="108" height="108" rx="8" fill="white"/>
<g clip-path="url(#clip1_421_560)">
<path d="M56.6804 62.6325V54.5152L53.2083 59.8172H53.1144L49.5955 54.6089V62.7264H46.9678V50.1516H49.8769L53.1613 55.4067L56.3988 50.1516H59.214V62.6794H56.6803V62.6325H56.6804ZM66.6745 62.7732C63.3431 62.7732 61.3726 60.8963 61.3726 57.2835V50.1516H64.0001V57.2365C64.0001 59.2542 65.0793 60.2864 66.7216 60.2864C68.3639 60.2864 69.443 59.3011 69.443 57.3303V50.1514H72.0236V57.1895C72.0235 60.9434 70.006 62.7732 66.6745 62.7732ZM76.7155 52.732V55.3597H82.2053V57.9873H76.7155V62.6794H74.088V50.1516H83.7535V52.7791H76.7154L76.7155 52.732ZM90.745 62.8202C86.8975 62.8202 84.2698 60.0987 84.2698 56.4389V56.392C84.2698 52.873 86.9913 49.9639 90.745 49.9639C92.9971 49.9639 94.311 50.5739 95.5777 51.6531L93.8417 53.7176C92.9033 52.9199 92.1058 52.4506 90.651 52.4506C88.6805 52.4506 87.132 54.2336 87.132 56.2982V56.392C87.132 58.6911 88.6334 60.3334 90.8387 60.3334C91.8242 60.3334 92.5748 60.0988 93.3725 59.5827V57.9404H90.5103V55.3128H96.0001V60.8026C94.7332 61.9287 93.0441 62.8202 90.745 62.8202Z" fill="#5A5A5A"/>
<path d="M33.0322 47.0078C31.6715 47.0078 30.3578 47.2893 29.1847 47.8054C28.0587 47.2894 26.7449 47.0078 25.3841 47.0078C20.2229 47.0078 16 51.1836 16 56.3919C16 61.5532 20.2229 65.7761 25.3841 65.7761C26.7447 65.7761 28.0586 65.4946 29.2317 64.9784C30.4047 65.4945 31.6714 65.7761 33.0792 65.7761C38.2405 65.7761 42.4632 61.5532 42.4632 56.3919C42.4164 51.1836 38.2405 47.0078 33.0322 47.0078ZM29.2317 64.8846C24.5395 64.8846 20.7389 61.0839 20.7389 56.3918C20.7389 51.6997 24.5395 47.8991 29.2317 47.8991C33.9237 47.8991 37.7244 51.6997 37.7244 56.3918C37.7244 61.084 33.8769 64.8846 29.2317 64.8846ZM33.1261 56.3919C33.1274 56.9037 33.0275 57.4106 32.8323 57.8837C32.637 58.3568 32.3502 58.7866 31.9884 59.1485C31.6265 59.5104 31.1967 59.7972 30.7236 59.9924C30.2506 60.1877 29.7436 60.2876 29.2318 60.2863C27.0734 60.2863 25.3374 58.5503 25.3374 56.3919C25.3374 54.2335 27.0734 52.4976 29.2318 52.4976C29.7436 52.4963 30.2506 52.5962 30.7236 52.7914C31.1967 52.9867 31.6265 53.2735 31.9884 53.6353C32.3502 53.9972 32.637 54.427 32.8323 54.9001C33.0275 55.3731 33.1274 55.8801 33.1261 56.3919Z" fill="#E60000"/>
</g>
</g>
<rect x="1" y="1" width="110" height="110" rx="9" stroke="#CCCCCC" stroke-width="2"/>
<defs>
<clipPath id="clip0_421_560">
<rect x="2" y="2" width="108" height="108" rx="8" fill="white"/>
</clipPath>
<clipPath id="clip1_421_560">
<rect width="80" height="18.784" fill="white" transform="translate(16 47)"/>
</clipPath>
</defs>
</svg>
