<svg width="112" height="112" viewBox="0 0 112 112" fill="none" xmlns="http://www.w3.org/2000/svg">
<g clip-path="url(#clip0_742_117)">
<rect x="2" y="2" width="108" height="108" rx="8" fill="white"/>
<path d="M77.3434 60.0928C77.3434 60.062 77.3434 60.042 77.3434 60.022C77.3434 59.8189 77.345 59.6157 77.3422 59.4125C77.3414 59.3609 77.357 59.3441 77.4086 59.3445C77.6302 59.3469 77.8518 59.3453 78.0734 59.3457C78.1526 59.3457 78.153 59.3457 78.153 59.4277C78.153 60.5964 78.153 61.7648 78.153 62.9335C78.153 63.4303 78.153 63.9271 78.153 64.4239C78.153 64.5023 78.1526 64.5027 78.0762 64.5027C77.8526 64.5027 77.6294 64.5015 77.4058 64.5035C77.3566 64.5039 77.3418 64.4883 77.3422 64.4391C77.3446 64.2379 77.343 64.0363 77.343 63.8351C77.343 63.8127 77.343 63.7903 77.343 63.7515C77.3146 63.7775 77.2954 63.7927 77.279 63.8103C77.0434 64.0647 76.7683 64.2635 76.4547 64.4075C76.0131 64.6103 75.5507 64.6871 75.0675 64.6375C74.5304 64.5823 74.052 64.3819 73.638 64.0339C73.2464 63.7043 72.9652 63.2955 72.8036 62.8043C72.6664 62.388 72.6288 61.9624 72.69 61.5296C72.7572 61.0532 72.9344 60.6216 73.2296 60.242C73.56 59.8173 73.9748 59.5125 74.4828 59.3389C74.9243 59.1885 75.3751 59.1549 75.8319 59.2417C76.3707 59.3445 76.8379 59.5901 77.2258 59.9848C77.2558 60.0156 77.2862 60.046 77.317 60.0764C77.321 60.0792 77.3266 60.0816 77.3434 60.0928ZM73.5448 61.8296C73.546 62.1632 73.576 62.3564 73.6548 62.5887C73.7704 62.9295 73.9664 63.2171 74.2448 63.4411C74.6711 63.7839 75.1583 63.9139 75.6983 63.8419C76.0587 63.7939 76.3835 63.6559 76.6519 63.4115C77.2762 62.8427 77.455 62.1352 77.233 61.3268C77.1214 60.9208 76.8811 60.5928 76.5439 60.3408C76.3219 60.1748 76.0751 60.0644 75.8055 60.0108C75.5775 59.9657 75.3479 59.9637 75.1171 60.0021C74.8387 60.0484 74.5823 60.1496 74.3548 60.3156C73.8136 60.7116 73.5588 61.2572 73.5448 61.8296Z" fill="#002657"/>
<path d="M88.9934 60.0824C88.9934 60.0624 88.9934 60.0424 88.9934 60.0224C88.9934 59.8172 88.9946 59.612 88.9926 59.4068C88.9922 59.3612 89.005 59.344 89.0522 59.3444C89.283 59.3464 89.5142 59.346 89.745 59.3444C89.7894 59.344 89.8066 59.3608 89.8026 59.404C89.8014 59.4188 89.8026 59.434 89.8026 59.4492C89.8026 61.1 89.8026 62.7503 89.8026 64.401C89.8026 64.4162 89.8014 64.431 89.8026 64.4462C89.8058 64.4862 89.7906 64.503 89.7482 64.503C89.5154 64.5014 89.2826 64.5014 89.0498 64.503C89.005 64.5034 88.9922 64.4874 88.9926 64.4442C88.9942 64.237 88.9934 64.0302 88.993 63.823C88.993 63.803 88.991 63.7834 88.9894 63.7522C88.3339 64.4454 87.5447 64.7474 86.6127 64.6234C85.9288 64.5326 85.3656 64.2018 84.926 63.6662C84.0448 62.5927 84.1168 60.9868 85.0928 59.9952C85.6316 59.4476 86.2911 59.1796 87.0551 59.1976C87.8191 59.2156 88.4586 59.5236 88.979 60.0884C88.9842 60.0868 88.9886 60.0844 88.9934 60.0824ZM85.1952 61.8091C85.1956 62.1639 85.226 62.3575 85.304 62.5879C85.4196 62.9291 85.6152 63.2167 85.8936 63.4407C86.3195 63.7838 86.8067 63.9134 87.3471 63.8426C87.6367 63.8046 87.9063 63.7078 88.1415 63.5359C88.8038 63.0519 89.0582 62.3891 88.9422 61.5803C88.8858 61.1891 88.7114 60.8492 88.441 60.5616C88.1703 60.2736 87.8403 60.0904 87.4563 60.0116C87.2271 59.9648 86.9951 59.9636 86.7623 60.0032C86.4839 60.0504 86.2279 60.152 86.0007 60.3188C85.4624 60.7144 85.2084 61.2579 85.1952 61.8091Z" fill="#002657"/>
<path d="M91.832 59.8496C91.9572 59.7032 92.1024 59.5808 92.266 59.4816C92.4832 59.3496 92.7164 59.2616 92.9655 59.214C93.2511 59.1592 93.5363 59.162 93.8203 59.2168C94.1667 59.2836 94.4775 59.43 94.7427 59.6672C95.0415 59.934 95.2318 60.2696 95.3374 60.6544C95.3994 60.88 95.4258 61.1115 95.4254 61.3459C95.425 62.3791 95.425 63.4123 95.4262 64.4454C95.4262 64.497 95.4102 64.5078 95.3626 64.5074C95.1299 64.505 94.8971 64.5046 94.6643 64.5078C94.6103 64.5086 94.5959 64.493 94.5959 64.4386C94.5975 63.4659 94.5971 62.4927 94.5971 61.5199C94.5971 61.2563 94.5659 60.9988 94.4615 60.754C94.2971 60.368 94.0231 60.1024 93.6143 60.0036C93.1035 59.88 92.6384 59.9796 92.2432 60.3404C92.0432 60.5228 91.9132 60.7524 91.8592 61.0196C91.8328 61.1511 91.818 61.2875 91.8176 61.4215C91.8144 62.4207 91.8156 63.4199 91.8156 64.4194C91.8156 64.4454 91.8156 64.4714 91.8156 64.5022C91.7924 64.5038 91.774 64.5062 91.756 64.5062C91.5196 64.5066 91.2828 64.505 91.0464 64.5074C90.9948 64.5078 90.9848 64.4894 90.9848 64.4418C90.9864 63.9486 90.9856 63.4559 90.9856 62.9627C90.9856 61.0583 90.9856 59.154 90.9856 57.2497C90.9856 57.2309 90.9872 57.2117 90.9852 57.1933C90.98 57.1473 90.9968 57.1313 91.0444 57.1317C91.2196 57.1341 91.3944 57.1325 91.5696 57.1325C91.6348 57.1325 91.7 57.1345 91.7652 57.1317C91.8044 57.1301 91.8164 57.1449 91.816 57.1837C91.8144 57.3285 91.8152 57.4733 91.8152 57.6185C91.8152 58.3373 91.8152 59.056 91.8152 59.7752C91.8152 59.7988 91.8152 59.8224 91.8152 59.846C91.8212 59.8476 91.8268 59.8484 91.832 59.8496Z" fill="#002657"/>
<path d="M67.1908 59.3649C67.216 59.3637 67.234 59.3617 67.2516 59.3617C67.516 59.3617 67.7804 59.3629 68.0448 59.3605C68.0912 59.3601 68.1136 59.3757 68.1316 59.4185C68.3935 60.0425 68.6575 60.6652 68.9207 61.2888C69.2239 62.0072 69.5271 62.7255 69.8307 63.4435C69.8371 63.4583 69.8471 63.4715 69.8599 63.4935C69.9271 63.3379 69.9911 63.1903 70.0543 63.0423C70.4015 62.2348 70.7487 61.4272 71.0958 60.6196C71.2698 60.2148 71.4446 59.8109 71.6174 59.4057C71.6302 59.3757 71.645 59.3609 71.6786 59.3609C71.9578 59.3617 72.2374 59.3613 72.5166 59.3617C72.5254 59.3617 72.5342 59.3645 72.5522 59.3673C72.5206 59.4393 72.4918 59.5073 72.4614 59.5745C71.7506 61.1516 71.0398 62.7283 70.3291 64.3055C69.9751 65.0915 69.6211 65.8778 69.2691 66.6646C69.2463 66.7154 69.2211 66.7374 69.1619 66.7366C68.9107 66.7326 68.6591 66.735 68.4075 66.735C68.3855 66.735 68.3636 66.735 68.3304 66.735C68.3464 66.6958 68.3572 66.6646 68.3708 66.635C68.7031 65.9174 69.0355 65.1998 69.3691 64.4827C69.3891 64.4399 69.3903 64.4047 69.3711 64.3615C68.8099 63.0811 68.25 61.8 67.69 60.5188C67.5264 60.1444 67.3632 59.7697 67.2004 59.3953C67.1984 59.3889 67.1964 59.3817 67.1908 59.3649Z" fill="#002657"/>
<path d="M63.5328 63.2847C63.6072 63.3475 63.6772 63.4091 63.75 63.4675C63.9924 63.6615 64.2624 63.8023 64.5648 63.8695C64.8995 63.9435 65.2315 63.9443 65.5423 63.7731C65.9223 63.5635 65.9735 63.1171 65.8259 62.8503C65.7383 62.6915 65.5975 62.5851 65.4403 62.5099C65.1907 62.3903 64.9359 62.2803 64.6795 62.1755C64.3476 62.04 64.0208 61.8972 63.7444 61.6596C63.5548 61.4964 63.4128 61.3004 63.3452 61.0544C63.292 60.8608 63.2868 60.6632 63.3224 60.4672C63.4264 59.8976 63.7784 59.5417 64.2984 59.3405C64.7367 59.1709 65.1875 59.1613 65.6443 59.2525C65.9503 59.3137 66.2363 59.4245 66.5003 59.5928C66.5535 59.6268 66.6031 59.6672 66.6551 59.7032C66.6823 59.722 66.6851 59.7424 66.6683 59.7696C66.5507 59.9592 66.4331 60.1484 66.3167 60.3384C66.2931 60.3772 66.2715 60.3636 66.2443 60.3444C66.0879 60.232 65.9247 60.1308 65.7455 60.0592C65.4787 59.9524 65.2027 59.9204 64.9183 59.9584C64.7483 59.9812 64.5876 60.0296 64.4448 60.128C64.084 60.376 64.0616 60.844 64.3968 61.126C64.5616 61.2644 64.7515 61.3596 64.9471 61.4432C65.2139 61.5568 65.4851 61.6612 65.7499 61.7796C65.9803 61.8824 66.1951 62.0132 66.3839 62.1847C66.6483 62.4247 66.7771 62.7239 66.7795 63.0827C66.7819 63.4639 66.6771 63.8055 66.4251 64.0943C66.2463 64.2991 66.0223 64.4363 65.7691 64.5271C65.4771 64.6314 65.1751 64.665 64.8679 64.6494C64.4372 64.6274 64.0268 64.5223 63.6436 64.3191C63.4464 64.2147 63.266 64.0859 63.1136 63.9203C63.0948 63.8999 63.0804 63.8835 63.1032 63.8535C63.2404 63.6711 63.376 63.4871 63.5124 63.3035C63.5172 63.2975 63.5236 63.2931 63.5328 63.2847Z" fill="#002657"/>
<path d="M80.1304 59.9272C80.1872 59.8528 80.2324 59.7888 80.2824 59.7288C80.4872 59.4808 80.742 59.3092 81.0519 59.226C81.3111 59.1564 81.5707 59.1564 81.8295 59.228C81.9027 59.2484 81.9743 59.2756 82.0471 59.2976C82.0875 59.3096 82.0899 59.328 82.0727 59.364C81.9607 59.5928 81.8495 59.8224 81.7407 60.0528C81.7215 60.0932 81.7015 60.1004 81.6627 60.0844C81.4359 59.9916 81.2055 59.9936 80.9739 60.0632C80.7168 60.1408 80.5292 60.308 80.3944 60.5376C80.2404 60.7992 80.1716 61.0883 80.17 61.3887C80.164 62.3895 80.1668 63.3907 80.166 64.3918C80.166 64.507 80.166 64.507 80.0504 64.507C79.84 64.507 79.6296 64.507 79.4192 64.507C79.3368 64.507 79.3368 64.507 79.3368 64.425C79.3368 63.0759 79.3368 61.7267 79.3368 60.378C79.3368 60.058 79.338 59.7384 79.3356 59.4184C79.3352 59.362 79.3512 59.3436 79.4084 59.3444C79.6244 59.3472 79.8404 59.3472 80.0564 59.3444C80.1088 59.3436 80.128 59.3576 80.1268 59.4136C80.1232 59.564 80.1256 59.7148 80.1256 59.8652C80.126 59.8804 80.1284 59.8968 80.1304 59.9272Z" fill="#002657"/>
<path d="M83.4512 61.9336C83.4512 62.7672 83.4508 63.6007 83.4524 64.4347C83.4524 64.4903 83.4408 64.5091 83.382 64.5079C83.1492 64.5043 82.9164 64.5051 82.6836 64.5075C82.6352 64.5079 82.62 64.4947 82.62 64.4443C82.6212 62.7712 82.6212 61.0984 82.62 59.4253C82.62 59.3773 82.6312 59.3597 82.682 59.3605C82.9168 59.3633 83.1512 59.3629 83.386 59.3605C83.4372 59.3601 83.452 59.3745 83.452 59.4269C83.4504 60.2625 83.4512 61.098 83.4512 61.9336Z" fill="#002657"/>
<path d="M83.028 58.2205C82.7028 58.2197 82.4488 57.9677 82.4496 57.6457C82.45 57.3189 82.7032 57.0698 83.0332 57.0706C83.3656 57.0718 83.62 57.3237 83.6184 57.6509C83.6168 57.9713 83.3576 58.2213 83.028 58.2205Z" fill="#002657"/>
<path d="M63.1708 54.4223C63.1708 51.1057 63.1708 47.799 63.1708 44.4847C63.9368 44.4847 64.6979 44.4847 65.4707 44.4847C65.4707 45.6123 65.4707 46.7375 65.4707 47.8862C65.5159 47.863 65.5447 47.8518 65.5691 47.835C66.9027 46.9214 68.7878 47.1054 69.9757 48.4642C71.3681 50.0565 71.1601 52.5436 69.525 53.8748C68.3218 54.8543 66.6327 54.8871 65.3931 53.9552C65.3647 53.934 65.3355 53.9136 65.2871 53.8784C65.2871 54.0708 65.2871 54.2431 65.2871 54.4223C64.5768 54.4223 63.8808 54.4223 63.1708 54.4223ZM68.5134 50.9537C68.5018 50.8489 68.4958 50.7429 68.4778 50.6393C68.3166 49.7097 67.349 49.1542 66.4643 49.4821C65.7391 49.7509 65.3375 50.5345 65.5187 51.3269C65.7047 52.14 66.4479 52.6352 67.2702 52.494C67.9794 52.3716 68.5062 51.7161 68.5134 50.9537Z" fill="#002657"/>
<path d="M79.2973 54.4228C78.5865 54.4228 77.8766 54.4228 77.149 54.4228C77.149 54.2552 77.149 54.0904 77.149 53.9004C77.0914 53.9432 77.0578 53.9684 77.0234 53.9936C75.715 54.9528 73.9295 54.822 72.724 53.6788C71.0008 52.0449 71.2464 49.1486 73.2191 47.8326C74.3851 47.0551 75.8942 47.0887 77.0302 47.9174C77.0618 47.9402 77.0934 47.9634 77.1454 48.0014C77.1454 47.8166 77.1454 47.6551 77.1454 47.4847C77.8694 47.4847 78.5789 47.4847 79.2973 47.4847C79.2973 49.7954 79.2973 52.1053 79.2973 54.4228ZM75.4891 52.5189C76.3402 52.5225 76.9922 51.8509 76.9986 50.9637C77.005 50.0742 76.3546 49.3894 75.4994 49.3854C74.6391 49.3814 73.9855 50.051 73.9791 50.9429C73.9727 51.8377 74.6215 52.5153 75.4891 52.5189Z" fill="#002657"/>
<path d="M95.3957 54.4299C95.3313 54.4299 95.2957 54.4299 95.2601 54.4299C94.4094 54.4299 93.5582 54.4287 92.7074 54.4319C92.623 54.4323 92.577 54.4031 92.5318 54.3351C91.8951 53.374 91.2559 52.4144 90.6171 51.4548C90.5939 51.42 90.5691 51.386 90.5211 51.3592C90.5211 52.3776 90.5211 53.396 90.5211 54.4219C89.7463 54.4219 88.9852 54.4219 88.2156 54.4219C88.2156 51.1089 88.2156 47.7994 88.2156 44.4835C88.9816 44.4835 89.7427 44.4835 90.5195 44.4835C90.5195 46.2866 90.5195 48.085 90.5195 49.8837C90.5279 49.8865 90.5363 49.8893 90.5447 49.8921C90.5687 49.8625 90.5931 49.8329 90.6167 49.8025C91.1931 49.0581 91.7699 48.3142 92.3434 47.5674C92.3958 47.4994 92.449 47.4734 92.5342 47.4738C93.3998 47.477 94.2654 47.4758 95.1305 47.4758C95.1665 47.4758 95.2025 47.4758 95.2649 47.4758C95.2301 47.5238 95.2093 47.555 95.1861 47.5838C94.391 48.5646 93.5962 49.5457 92.7982 50.5241C92.737 50.5993 92.7318 50.6473 92.7894 50.7285C93.6322 51.92 94.4714 53.114 95.3113 54.3075C95.3345 54.3399 95.3569 54.3731 95.3957 54.4299Z" fill="#002657"/>
<path d="M82.7155 54.4227C81.9399 54.4227 81.1788 54.4227 80.4108 54.4227C80.4108 52.1084 80.4108 49.8017 80.4108 47.485C81.1168 47.485 81.8183 47.485 82.5343 47.485C82.5343 47.6582 82.5343 47.8274 82.5343 48.0058C82.5587 47.9942 82.5703 47.9922 82.5763 47.9854C83.0311 47.481 83.6187 47.2802 84.277 47.2498C84.989 47.217 85.6522 47.3662 86.2158 47.8262C86.8433 48.3386 87.1237 49.0238 87.1337 49.8161C87.1481 50.9649 87.1389 52.114 87.1397 53.2632C87.1401 53.6172 87.1397 53.9708 87.1397 54.3247C87.1397 54.3535 87.1369 54.3823 87.1349 54.4203C86.3678 54.4203 85.6038 54.4203 84.8294 54.4203C84.8294 54.3723 84.8294 54.3295 84.8294 54.2863C84.8294 53.0424 84.8286 51.7984 84.8302 50.5545C84.8306 50.3437 84.8006 50.1401 84.7086 49.9485C84.5042 49.5217 84.0439 49.2973 83.5671 49.3913C83.0915 49.4849 82.7515 49.8649 82.7211 50.3389C82.7163 50.4153 82.7163 50.4921 82.7163 50.5685C82.7159 51.8052 82.7163 53.0416 82.7163 54.2783C82.7155 54.3219 82.7155 54.3655 82.7155 54.4227Z" fill="#002657"/>
<path d="M44.7041 48.4433C44.7041 48.0917 44.7041 47.7689 44.7041 47.4338C44.7513 47.4314 44.7901 47.4282 44.8285 47.4282C45.1097 47.4278 45.3913 47.433 45.6725 47.4254C45.7821 47.4226 45.8141 47.4506 45.8137 47.5638C45.8101 49.7921 45.8109 52.0204 45.8109 54.2487C45.8109 54.2879 45.8109 54.3271 45.8109 54.3743C45.4393 54.3743 45.0797 54.3743 44.7085 54.3743C44.7085 54.0455 44.7085 53.7199 44.7085 53.3659C43.7466 54.3523 42.6098 54.7543 41.2715 54.5151C40.4079 54.3607 39.6979 53.9259 39.1416 53.2503C37.9916 51.854 38.0288 49.8045 39.2396 48.4457C39.9607 47.6366 40.8795 47.2314 41.965 47.2282C43.045 47.225 43.947 47.647 44.7041 48.4433ZM44.6893 50.9028C44.6669 50.7224 44.6549 50.5396 44.6205 50.3612C44.293 48.6657 42.4102 47.7613 40.8895 48.5673C39.8755 49.1045 39.3499 50.2288 39.5575 51.4176C39.7903 52.7527 41.0775 53.6903 42.4206 53.5027C43.7382 53.3187 44.6777 52.2372 44.6893 50.9028Z" fill="#002657"/>
<path d="M58.3358 54.5851C57.0555 54.5335 55.8911 53.9312 55.1708 52.6244C54.26 50.9725 54.7808 48.9534 56.3555 47.879C58.0351 46.7335 60.4286 47.1318 61.6189 48.7554C62.8737 50.4665 62.4201 52.844 60.6242 53.9796C59.9838 54.3843 59.2838 54.5803 58.3358 54.5851ZM58.5298 53.5232C59.979 53.5244 61.1093 52.378 61.1109 50.9065C61.1125 49.4309 59.9802 48.2746 58.5318 48.2734C57.0815 48.2722 55.9331 49.4349 55.9339 50.9045C55.9343 52.3692 57.0771 53.522 58.5298 53.5232Z" fill="#002657"/>
<path d="M48.5467 54.3767C48.1648 54.3767 47.7976 54.3767 47.4196 54.3767C47.4176 54.3339 47.4136 54.2947 47.4136 54.2559C47.4132 52.024 47.414 49.7917 47.4112 47.5598C47.4112 47.455 47.4388 47.4234 47.5448 47.4258C47.8548 47.4326 48.1648 47.4282 48.4876 47.4282C48.4876 47.677 48.4876 47.9162 48.4876 48.1693C48.5152 48.1569 48.5299 48.1545 48.5375 48.1461C49.1719 47.4146 49.9939 47.1486 50.9335 47.2106C51.8182 47.269 52.5274 47.6582 53.0162 48.4093C53.327 48.8869 53.471 49.4221 53.475 49.9861C53.485 51.4228 53.4793 52.86 53.4797 54.2971C53.4797 54.3215 53.4753 54.3463 53.4721 54.3763C53.0998 54.3763 52.7322 54.3763 52.3482 54.3763C52.3482 54.3283 52.3482 54.2823 52.3482 54.2359C52.3482 52.9412 52.3478 51.6464 52.3482 50.3517C52.3482 49.9685 52.3014 49.5933 52.1286 49.2457C51.8126 48.6093 51.2922 48.2741 50.5843 48.2521C49.8171 48.2285 49.2039 48.5209 48.7995 49.1909C48.6159 49.4949 48.5455 49.8317 48.5459 50.1853C48.5467 50.8564 48.5463 51.5276 48.5463 52.1984C48.5463 52.8768 48.5463 53.5551 48.5463 54.2335C48.5467 54.2767 48.5467 54.3203 48.5467 54.3767Z" fill="#002657"/>
<path d="M32.1252 54.3767C31.7404 54.3767 31.3732 54.3767 30.9948 54.3767C30.9928 54.3331 30.9892 54.2943 30.9892 54.2555C30.9888 52.024 30.9896 49.7921 30.9868 47.5606C30.9868 47.4574 31.0112 47.423 31.1188 47.4254C31.4284 47.4326 31.7384 47.4278 32.0604 47.4278C32.0604 47.6794 32.0604 47.9214 32.0604 48.183C32.0908 48.163 32.1068 48.1566 32.1168 48.1454C32.7031 47.4602 33.4671 47.1846 34.3471 47.2026C35.2974 47.2222 36.0654 47.6022 36.5926 48.409C36.9038 48.8853 37.0486 49.4213 37.0526 49.9849C37.063 51.4252 37.057 52.8656 37.0574 54.3059C37.0574 54.3271 37.0538 54.3479 37.0514 54.3751C36.679 54.3751 36.3114 54.3751 35.9286 54.3751C35.9266 54.3311 35.923 54.2855 35.923 54.2399C35.9226 52.938 35.9222 51.6364 35.923 50.3345C35.923 49.9581 35.875 49.5905 35.7074 49.2497C35.3942 48.6121 34.8747 48.2754 34.1667 48.2518C33.4003 48.2262 32.7851 48.5154 32.3796 49.1849C32.1896 49.4985 32.1232 49.8465 32.1236 50.2113C32.126 51.5532 32.1244 52.8952 32.1244 54.2371C32.1252 54.2807 32.1252 54.3235 32.1252 54.3767Z" fill="#002657"/>
<path d="M25.4088 49.2537C25.3596 45.8574 21.6066 44.0063 19.1003 45.4286C18.8371 45.1195 18.4455 44.9235 18.0079 44.9235C17.2156 44.9235 16.5732 45.5658 16.5732 46.3582V53.8135C16.5732 54.6059 17.2156 55.2482 18.0079 55.2482C18.8003 55.2482 19.4427 54.6059 19.4427 53.8135V49.4417C19.4427 47.2946 22.5197 47.399 22.5197 49.4417L22.5405 49.4409V53.8135C22.5405 54.6059 23.1829 55.2482 23.9753 55.2482C24.7677 55.2482 25.41 54.6059 25.41 53.8135V49.3213C25.41 49.2973 25.4096 49.2749 25.4088 49.2537Z" fill="#31F000"/>
</g>
<rect x="1" y="1" width="110" height="110" rx="9" stroke="#CCCCCC" stroke-width="2"/>
<defs>
<clipPath id="clip0_742_117">
<rect x="2" y="2" width="108" height="108" rx="8" fill="white"/>
</clipPath>
</defs>
</svg>
