<svg width="112" height="112" viewBox="0 0 112 112" fill="none" xmlns="http://www.w3.org/2000/svg">
<g clip-path="url(#clip0_302_1299)">
<rect x="2" y="2" width="108" height="108" rx="8" fill="white"/>
<g clip-path="url(#clip1_302_1299)">
<path d="M30.1586 54.7742C29.9188 54.1026 28.7196 53.7189 28.4797 53.623C28.2399 53.527 28.0001 53.4311 28.0001 53.4311C28.144 54.0547 27.8082 54.5823 27.8082 54.5823H27.8561C27.9041 54.5344 28.0001 54.5823 28.0001 54.5823C29.1993 54.8701 30.0627 55.7336 30.0627 55.7336C30.1107 55.7336 30.1107 55.7336 30.1107 55.7336C30.1586 55.5897 30.1586 55.4458 30.1586 55.3498C30.1586 55.2539 30.1586 54.8701 30.1586 54.7742ZM31.6456 48.97C31.4058 49.066 30.5903 48.9221 30.3505 48.7782C30.1586 48.6343 30.0147 48.6343 30.0147 48.6343C29.1993 48.4904 28.9114 48.9221 28.8635 48.9221C28.8635 48.97 28.8635 48.97 28.8635 48.97C28.8635 48.97 29.3911 48.7782 30.2066 49.1619C31.07 49.5457 31.5977 49.018 31.5977 49.018C31.6936 48.97 31.6456 48.97 31.6456 48.97ZM32.3172 68.685C32.4611 67.7736 31.166 67.9175 31.166 67.9175C31.118 67.8695 31.118 67.8695 31.118 67.8695C32.0774 67.7256 32.3652 68.1574 32.3652 68.1574C32.3652 67.5817 31.9335 67.4858 31.9335 67.4858H31.8855C31.7416 67.15 31.166 67.102 30.8781 67.2939C30.5903 67.4858 30.3505 67.4858 30.3505 67.4858C29.1993 67.7256 28.5277 66.7663 28.5277 66.7663C27.4244 65.0394 29.0554 65.2313 28.8155 63.3126C28.5757 61.4418 25.4098 61.0101 25.4098 61.0101C24.5463 60.9141 23.8748 62.641 23.7309 63.1207C23.587 63.6004 23.4431 63.7443 23.4431 63.7443C23.3951 63.8402 23.491 63.7922 23.491 63.7922C26.0813 64.176 25.9854 65.5671 25.9854 65.5671C25.9854 65.8069 25.6016 65.8549 25.6016 65.8549C25.3618 65.9028 24.8341 66.1907 25.7455 66.8142C25.8415 66.8622 25.8894 66.9102 25.9374 66.9581C25.9374 66.9581 25.9374 66.9581 25.9374 67.0061C25.8894 67.0541 25.7935 67.102 25.6496 67.198C25.6496 67.198 25.6016 67.198 25.4577 67.246C25.3618 67.2939 25.1699 67.4378 25.122 67.7736C25.122 67.7736 25.122 67.7736 25.122 67.7256C25.1699 67.7256 25.2659 67.4858 25.6976 67.5338C25.9374 67.5338 26.1773 67.4378 26.4171 67.2939C26.513 67.3419 26.609 67.4378 26.7049 67.4858C26.609 67.5338 26.561 67.5338 26.4651 67.5817C26.4651 67.5817 26.3691 67.6297 26.2732 67.6297C26.1773 67.6297 25.9854 67.7736 25.8894 68.1094C25.8894 68.1094 25.8894 68.1094 25.8894 68.0614C25.8894 68.0614 26.0333 67.8216 26.4651 67.9175C26.7049 67.9655 26.9447 67.9175 27.1366 67.8216C27.2326 67.8695 27.2805 67.9175 27.3765 67.9655C27.2805 68.0134 27.1846 68.0614 27.0407 68.1094C27.0407 68.1094 26.9447 68.1574 26.8488 68.1574C26.7529 68.1574 26.513 68.3013 26.4171 68.5891C26.4651 68.5411 26.561 68.3492 26.9927 68.4452C27.2805 68.5411 27.5683 68.4452 27.8082 68.3492H27.8561C28.4318 68.7809 28.9114 69.2606 28.9114 69.5484C28.9114 70.1241 29.3911 70.268 29.3911 70.268C29.3911 70.5558 29.2472 70.5558 29.2472 70.5558C29.1993 70.6037 29.2472 70.6037 29.2472 70.6037C29.7269 70.6517 29.8708 70.268 29.8708 70.268C30.3025 69.8842 30.1586 69.4525 30.1586 69.4525C30.6383 70.22 31.118 70.0281 31.118 70.0281V70.0761C31.166 70.4119 30.9741 70.6997 30.9261 70.6997C30.9261 70.7476 30.9261 70.7476 30.9261 70.7476C31.5497 70.3639 31.5497 69.9801 31.5497 69.9801C31.5497 69.9322 31.5497 69.9322 31.5497 69.9322C32.1733 69.1647 30.9741 68.5891 30.9741 68.5891C31.4058 68.637 31.5977 68.7809 31.6456 68.8289C31.6936 68.8769 31.7416 69.0208 31.8855 69.0687C32.0294 69.0687 32.1733 69.0687 32.1733 69.0687C32.2692 69.0687 32.3172 69.4045 32.3172 69.4045C32.605 68.9728 32.3172 68.685 32.3172 68.685ZM30.4944 51.992C30.4944 51.992 30.3505 51.9441 30.3985 52.04C30.3985 52.04 30.9741 52.8555 30.9261 53.0953C30.9261 53.2872 30.9261 53.2872 30.8302 53.2392C30.7822 53.2392 30.5424 53.2392 30.6863 53.527C30.8302 53.8628 31.0221 54.1506 30.8302 54.5823V54.6303C30.7822 54.6303 30.7342 54.5344 30.5903 54.6783C30.4944 54.8222 30.4464 55.2539 30.4944 55.7336C30.4944 55.7336 30.4944 55.8295 30.3985 55.8775C30.3025 55.9254 30.3985 56.0214 30.5424 56.0214C30.6383 55.9734 31.3578 55.7336 31.3578 55.7336C31.3578 55.7336 31.7416 55.6376 32.0774 54.7742C32.4131 53.8628 33.9481 51.8961 34.0441 51.8481C34.188 51.8002 34.4758 51.6563 34.5717 51.5603C34.6197 51.4644 34.7636 50.9847 34.8595 50.7449H34.9075C34.9075 50.7449 35.3872 50.9847 35.7229 50.601C35.7229 50.601 35.8669 50.6489 35.9148 50.8408C35.9148 50.8408 35.9148 50.8408 35.9628 50.8408C35.9628 50.8408 36.0587 50.553 35.8669 50.2652C35.8669 50.2652 35.8189 49.5457 34.8116 49.8335C34.8116 49.8335 34.8595 49.7375 35.1473 49.6416C35.3872 49.5936 35.4351 49.6416 35.627 49.3538C35.627 49.3538 35.7229 49.2099 35.9628 49.5936C35.9628 49.5936 35.9628 49.5936 36.0108 49.5936C36.0108 49.5936 36.1547 49.2578 35.7709 48.97C35.7709 48.9221 35.7229 48.3464 35.0034 48.4424C35.0034 48.4424 34.5237 48.4904 34.188 48.97C34.188 48.9221 34.2839 48.6822 34.6197 48.4424C34.6197 48.4424 34.8116 48.3464 34.8116 48.2025C34.8595 48.0107 34.7156 47.9627 34.7636 47.8668C34.8595 47.7708 35.0034 47.7229 35.0994 47.7229C35.0994 47.7229 34.9555 47.435 34.4758 47.6269C34.4278 47.6269 33.5644 47.3391 33.5644 48.6822C33.5644 48.6822 33.5644 48.7782 33.5644 48.7302C33.5644 48.7302 33.4205 48.5863 33.4684 48.1066C33.4684 48.1066 33.5644 47.8668 33.3725 47.8668H33.3245C33.3245 47.8668 33.3725 47.6269 33.5164 47.579H33.5644C33.5644 47.579 33.0847 47.2911 32.8448 48.4904C32.8448 48.4904 32.8448 48.9221 32.9408 49.1139C32.9888 49.3058 33.0367 50.0253 32.557 50.601C32.557 50.601 31.2619 51.9441 30.4944 51.992ZM24.8341 56.549C26.6569 55.7336 27.3285 55.014 27.5683 54.4864C27.6163 54.3425 27.6643 54.2465 27.7122 54.1506C27.7122 54.0067 27.7122 53.8148 27.7122 53.8148C27.7122 53.623 27.7122 53.4311 27.6163 53.2872C27.5683 53.1912 27.4244 53.0473 27.2805 52.9514C27.0407 52.7595 26.8488 52.5197 26.8488 52.5197C26.9447 54.6783 24.8821 55.4937 24.8821 55.4937C24.8341 55.4937 24.8341 55.5417 24.8341 55.5417C24.978 56.2612 24.7382 56.5011 24.7382 56.549C24.7382 56.597 24.8341 56.549 24.8341 56.549ZM26.6569 55.7815C26.6569 55.7815 27.5204 55.7336 27.7122 57.0767C27.7122 57.0767 27.7122 57.1246 27.7602 57.1246C27.7602 57.1246 28.9594 56.2132 29.0074 55.3018C29.0074 55.3018 29.0074 55.2539 28.9594 55.2539C28.9594 55.2539 28.5277 54.9181 27.7602 54.7262H27.7122C27.7122 54.7262 27.4244 55.3018 26.6569 55.7815ZM25.4577 40C17.8308 40.1918 11.8347 46.5237 12.0266 54.1506C12.1225 58.084 13.8974 61.5857 16.6316 64.0321L16.6795 64.08L16.7755 64.0321C16.9194 63.7922 17.2551 63.6004 17.447 63.6004H17.6869C17.6869 63.6004 17.6869 63.6004 17.6869 63.5524L17.495 63.4085C17.3511 63.2646 17.2072 63.1686 17.0633 62.9768C14.7128 60.7702 13.1778 57.6043 13.0819 54.1026C12.986 50.601 14.3291 47.3871 16.5836 45.0366C18.8381 42.6862 21.956 41.1512 25.4577 41.0553C29.0074 40.9593 32.1733 42.3024 34.5717 44.557C36.9222 46.8115 38.4092 49.9294 38.5051 53.4311C38.601 56.9807 37.2579 60.1946 35.0034 62.5451C33.5164 64.128 31.6936 65.2793 29.535 65.9508H29.4391V65.9988L29.4871 66.0467C29.631 66.4785 29.9188 66.6703 30.1107 66.8142L30.1586 66.8622L30.2066 66.8142C35.8669 65.0394 39.7043 59.7629 39.5604 53.527V53.4311C39.3685 45.8041 33.0367 39.8081 25.4577 40ZM27.4724 46.6196H27.4244C27.7602 46.8115 28.2399 47.2432 28.4318 46.6676C28.1919 46.3797 27.7122 46.5716 27.4724 46.6196ZM21.956 69.4525C21.956 69.4525 21.956 69.4525 21.956 69.4045C21.956 69.4045 22.5796 68.7809 23.2512 69.4525C23.2512 69.4525 23.2992 69.5005 23.2992 69.4525C23.2992 69.4525 23.2512 69.0208 22.8674 68.8289C22.7715 68.7809 22.7235 68.8289 22.7235 68.8289H22.6756C22.5317 68.733 22.4357 68.685 22.1959 68.733C22.1959 68.733 21.8121 68.7809 21.5723 68.9248C21.3804 69.1167 21.1886 69.0687 21.0926 68.9728C20.9487 68.8769 19.9414 67.5338 19.8934 66.0467C19.8934 66.0467 19.9414 65.9508 20.0373 65.9028C20.0373 65.9028 21.7642 65.0394 22.4357 64.3679C23.1073 63.6963 23.6349 61.7776 24.3065 61.058C24.3065 61.058 24.5943 60.6743 24.9301 60.5784C25.2179 60.4824 26.609 60.0507 26.9927 59.8109C27.3765 59.571 28.048 58.8035 28.4797 58.7556C28.4797 58.7556 28.5757 58.6596 28.6716 58.8035L30.2546 60.2426C30.2546 60.2426 30.4944 60.4824 30.7342 60.5304C30.9741 60.5304 31.3578 60.6743 31.3578 60.9141C31.4058 61.154 31.2139 61.8255 31.5977 62.0654C31.5977 62.0654 31.6936 62.2093 31.4538 62.3532C31.4538 62.3532 31.4058 62.4012 31.4538 62.4012C31.4538 62.4012 32.7009 62.4491 32.4131 61.3938C32.4131 61.3938 32.4131 61.3459 32.4611 61.3459C32.4611 61.3459 32.7489 61.5377 32.8928 61.9694C33.0367 62.4012 33.2766 62.4491 33.2766 62.4491C33.2766 62.4491 33.3245 62.4971 33.3245 62.5451C33.3245 62.5451 33.3725 62.689 33.1806 62.9288C33.1806 62.9288 33.7083 62.9288 33.7083 62.593C33.7083 62.593 33.9961 62.4971 34.092 62.3532C34.188 62.1613 34.3798 61.3938 33.4205 60.8182C33.4205 60.8182 33.9002 60.7702 34.14 61.2499C34.4278 61.7296 34.6197 61.154 34.7156 61.6816V61.7296C34.7156 61.7296 35.0514 61.5377 34.8116 61.106V61.058C34.8116 61.058 35.0514 60.2426 33.8522 60.0507H33.8042C33.8042 60.0507 33.9481 59.9068 34.2839 60.0507C34.6197 60.1466 34.7636 60.0507 34.7636 59.9068C34.7636 59.9068 34.9555 59.9068 35.0994 60.0987C35.0994 60.0987 35.1473 59.0434 33.4205 59.3312C33.4205 59.3312 32.9888 59.5231 32.605 59.2352C32.1733 58.9474 30.1107 56.9328 30.1107 56.9328C30.1107 56.9328 29.9668 56.7409 29.9188 56.645C29.8708 56.549 29.7269 55.9734 29.7269 55.8295C29.7269 55.8295 29.7269 55.8295 29.6789 55.7815C29.6789 55.7815 29.3911 55.5417 29.2472 55.4458C29.2472 55.4458 29.1033 56.549 27.6163 57.4604C27.6163 57.4604 27.4244 57.5084 27.4244 57.3645C27.4244 57.2685 27.0887 55.5897 26.1293 56.1173C25.122 56.6929 24.4024 57.0287 24.2585 56.9328C24.2106 56.9328 24.2106 56.8368 24.2585 56.7889C24.3545 56.7409 24.6902 56.2132 24.5943 55.6376H24.5463C24.5463 55.6376 24.4504 55.6856 24.3065 55.7336C23.587 55.9734 23.1073 56.2132 22.8674 56.4051C22.8195 56.4051 22.7235 56.4531 22.6756 56.5011C22.5317 56.645 22.004 57.0767 21.2365 57.4604C20.469 57.8442 19.2219 58.5157 18.8861 59.4751C18.5983 60.4345 17.495 60.6263 16.8714 59.8588C16.2478 59.1393 16.8714 57.7962 19.6056 55.8775C19.6056 55.8775 20.4211 55.3498 20.7089 54.5344C20.9967 53.7189 20.8048 53.4791 20.7568 53.1433C20.7089 52.8075 20.9487 52.3758 21.0446 52.2798C21.0926 52.1839 21.0446 51.8961 21.0446 51.9441C21.0446 51.9441 20.9487 52.1359 20.7089 52.1839C20.469 52.2319 20.4211 52.2798 20.4211 52.3278C20.4211 52.3278 20.3731 52.3278 20.3731 52.2798C20.3731 52.2798 20.3731 52.088 20.6129 51.9441C20.8528 51.7522 20.9007 51.3684 20.8528 51.1286C20.8528 50.8888 20.9007 50.7928 20.9487 50.7449C20.9487 50.7449 20.8048 50.7928 20.6609 50.9367C20.6609 50.8888 20.469 50.0733 20.9007 49.6416C20.9967 49.5936 21.0926 49.1619 20.7568 48.7302C20.4211 48.2985 20.4211 48.1546 20.4211 48.1546C20.4211 48.1546 20.3731 48.1546 20.3731 48.2985C20.4211 48.4424 20.3251 48.5863 20.3251 48.6822C20.2772 48.7302 20.2772 48.9221 20.3251 49.018C20.3251 49.018 20.0853 48.6343 20.1332 48.2985C20.1812 47.9627 20.4211 47.3871 20.1332 47.0993C20.1332 47.0993 20.0853 47.0513 20.1332 47.1472C20.1332 47.1472 20.1812 47.6749 19.7015 48.2025C19.2219 48.6822 19.7495 49.3538 19.9414 49.6416C20.1332 49.8814 19.9414 50.3131 19.9893 50.4571C19.9893 50.4571 19.9414 50.3611 19.9414 50.3131C19.9414 50.2172 19.8934 49.8814 19.7015 49.7855C19.7015 49.7855 19.7015 49.7855 19.7015 49.8335C19.7015 49.8335 19.7015 50.0733 19.6536 50.2172C19.6056 50.3131 19.6056 50.6969 19.8454 50.9367C20.0853 51.1766 19.8934 51.8961 19.7495 51.992C19.7495 51.992 19.7495 51.992 19.7495 51.9441C19.7495 51.8961 19.7495 51.8002 19.7975 51.7522C19.8454 51.6563 19.8454 51.3205 19.7975 51.2725C19.7975 51.2725 19.7495 51.5124 19.4137 51.7522C19.2698 51.8481 19.1259 52.3278 19.5576 52.8075C19.5576 52.8075 19.7015 52.9514 19.7975 53.0953C19.7975 53.0953 19.4617 53.0473 19.4137 52.8555C19.4137 52.8555 19.4137 52.8555 19.3658 52.8555C19.3658 52.8555 19.3178 53.3351 19.7975 53.4791C20.1332 53.527 20.4211 54.5344 18.6942 55.5417C18.3584 55.6856 18.0226 55.9254 17.6869 56.2132C17.5909 56.1653 17.3511 56.0214 17.0153 55.5417C17.0153 55.5417 16.9673 55.4458 16.9673 55.3498C16.9194 55.2539 16.7275 55.062 16.4397 55.014V55.062C16.4397 55.062 16.6795 55.1579 16.6795 55.5897C16.6795 55.9734 16.9673 56.4051 17.2551 56.549C17.2551 56.549 17.2551 56.549 17.2072 56.597C17.1112 56.6929 17.0153 56.8368 16.9194 56.9328C16.8234 56.7889 16.6795 56.645 16.5836 56.4531C16.5836 56.4531 16.5356 56.3572 16.4877 56.2612C16.4877 56.1653 16.2958 55.9734 16.008 55.8775C16.008 55.8775 16.008 55.8775 16.008 55.9254C16.0559 55.9254 16.2478 56.0214 16.2478 56.4531C16.1998 56.7889 16.3917 57.1246 16.5836 57.3165V57.3645C16.4877 57.4604 16.3917 57.5564 16.3438 57.7003C16.2478 57.5564 16.1519 57.4125 16.0559 57.2206C16.0559 57.2206 16.008 57.1246 16.008 57.0287C15.96 56.9328 15.8161 56.6929 15.5283 56.597C15.5763 56.597 15.7681 56.7409 15.7202 57.1726C15.6242 57.5564 15.8161 58.036 16.0559 58.1799C16.0559 58.1799 16.0559 58.1799 16.0559 58.2279C15.7681 58.9474 15.7202 59.7629 16.1998 60.4824C17.1592 61.8735 18.6942 61.058 18.6942 61.058C18.6942 61.058 18.7901 60.9621 18.7901 61.058C18.7901 61.058 18.934 62.2093 19.2219 62.8808C19.5097 63.5524 19.1259 64.0321 18.4544 64.128C17.7828 64.224 17.2072 64.5597 17.3991 65.3272C17.495 65.5191 17.5909 65.8549 17.7348 66.2386C17.5909 66.2386 17.3991 66.2386 17.2072 66.2386C17.2072 66.2386 17.1112 66.2386 17.0153 66.1907C16.9194 66.1427 16.6795 66.1907 16.4397 66.3825C16.4877 66.3825 16.6795 66.2386 17.0153 66.5264C17.2551 66.7183 17.6389 66.7663 17.8787 66.7663H17.9267C17.9747 66.8622 18.0226 67.0061 18.0706 67.102C17.9267 67.102 17.7828 67.0541 17.6389 67.0061C17.6389 67.0061 17.543 67.0061 17.447 66.9581C17.3511 66.9102 17.1112 66.9102 16.8234 67.102C16.8234 67.102 16.8234 67.102 16.8714 67.102C16.8714 67.0541 17.1112 66.9581 17.3991 67.2939C17.6389 67.5338 17.9747 67.6297 18.2625 67.6297C18.3105 67.6777 18.3105 67.7736 18.3584 67.8216C18.2145 67.8216 18.0226 67.7736 17.7828 67.7256C17.7828 67.7256 17.6869 67.7256 17.6389 67.6777C17.543 67.6297 17.2551 67.6297 17.0153 67.7736C17.0633 67.7736 17.3031 67.6777 17.5909 68.0134C17.8308 68.2533 18.2625 68.3972 18.5503 68.3492C18.7422 68.8289 18.8861 69.1647 18.8861 69.1647C18.8861 69.1647 18.982 69.7403 18.934 69.9322C18.8861 70.172 19.03 70.6037 19.3658 70.7476C19.7015 70.9395 19.9893 71.3712 19.9893 71.4192C19.9893 71.5151 19.9893 71.9948 20.565 72.2347C20.565 72.2347 20.6609 72.1867 20.6609 72.2826C20.6609 72.3786 20.565 72.5704 20.565 72.5704C20.565 72.5704 20.565 72.6184 20.6129 72.5704C20.6609 72.5704 20.9007 72.5225 21.0446 72.2347V72.1867C21.0446 72.1867 21.2845 71.9468 21.3325 71.707C21.3804 71.4672 21.2845 71.1794 20.8528 70.9395V70.8915C20.8528 70.8915 20.9967 70.8915 21.1406 71.0354C21.2365 71.1314 21.5243 71.3712 21.5723 71.4192C21.6203 71.4672 21.9081 71.755 22.3398 71.707C22.3398 71.707 22.3878 71.659 22.3878 71.707C22.4357 71.707 22.5317 71.8029 22.4837 72.1867V72.2347C22.4837 72.1867 22.9154 72.0428 22.8195 71.5151C22.8195 71.5151 22.8195 71.5151 22.8195 71.4672C22.8195 71.4672 22.9634 71.1314 22.9634 70.9395C22.9154 70.7476 22.7715 70.3159 22.004 70.172C22.004 70.172 22.1959 70.0281 22.6276 70.22C22.6276 70.22 22.6756 70.22 22.7235 70.22C22.7235 70.268 22.8674 70.5078 23.2032 70.4119C23.2032 70.4119 23.491 70.4598 23.539 70.8436C23.539 70.8436 23.8748 70.5078 23.3951 70.0281C23.3951 70.0281 23.1073 69.0687 21.956 69.4525ZM28.7675 46.1879C28.7675 46.1879 28.7675 46.1399 28.7675 46.0919C28.7675 46.0919 28.6716 45.948 28.4797 45.8521C28.3358 45.7562 27.9521 45.7562 27.6643 45.7562C27.3765 45.8041 27.1846 45.7082 26.9447 45.6602C26.7529 45.6123 26.2252 45.4683 25.8894 45.8041C25.8894 45.8041 25.8415 45.8521 25.8894 45.9001C25.8894 45.9001 25.9854 46.0919 26.1773 46.2358C26.3691 46.3797 26.7529 46.6676 27.1846 46.5237C27.1846 46.5237 27.3765 46.4757 27.4244 46.4277C27.5204 46.3797 27.7122 46.2358 27.8561 46.2358C28.048 46.2358 28.2399 46.2838 28.2399 46.2838C28.2879 46.2838 28.4318 46.3318 28.4318 46.3318C28.4318 46.3318 28.7196 46.3797 28.7675 46.1879ZM24.0187 52.9034H23.9707C24.0187 52.9514 24.0666 52.9994 24.1626 52.9994C24.3065 52.9994 24.8341 52.9034 24.9301 52.2798C24.978 51.6083 24.1626 50.8408 23.6829 50.4571C23.1073 49.9774 22.2918 49.4497 22.0999 48.8741C22.0999 48.8741 21.956 49.2099 21.7642 49.5457C21.5723 49.9294 21.6203 50.4091 21.7162 50.6489C21.8601 50.9847 22.052 51.3205 22.0999 51.4164C22.1479 51.5124 22.1479 51.6563 22.3878 51.7522C22.4837 51.7522 22.8195 51.7522 23.0113 51.5603C23.1553 51.4644 23.2512 51.2725 23.2512 51.1286C23.2512 50.553 22.7235 50.601 22.7715 50.7928C22.7715 50.8408 22.8674 50.8408 22.8195 50.9367C22.7715 50.9847 22.6756 51.0327 22.5796 50.9847C22.4837 50.9847 22.2439 50.6489 22.7235 50.4571C23.1553 50.3131 23.6829 50.6969 23.587 51.2725C23.491 51.8481 22.7235 52.088 22.3398 51.992H22.2918C22.2918 52.04 22.2918 52.1839 22.2439 52.3278C22.1479 52.4238 21.7642 53.527 22.4357 54.6783C22.4357 54.6783 22.5796 54.8701 22.9154 54.8701C23.2512 54.8701 23.6349 54.3905 23.3951 54.0547C23.3471 54.0067 23.3471 54.0067 23.3471 54.0547C23.3471 54.0547 23.3471 54.2465 23.1553 54.1506C22.8674 54.0547 22.9154 53.6709 23.2512 53.575C23.587 53.4791 23.9707 53.623 23.8268 54.2945C23.6829 54.9661 23.0113 55.2059 22.8674 55.1579C22.7715 55.1579 22.7715 55.1579 22.7715 55.2059C22.7715 55.2059 22.9634 55.7815 22.8674 56.0693C22.8674 56.0693 22.8195 56.1653 22.9634 56.0693C22.9634 56.0693 23.4431 55.8295 23.8268 55.6856C24.1626 55.5417 25.122 55.3018 25.8415 54.3905C26.561 53.4311 26.8968 52.04 25.8894 50.505C25.7455 50.2652 25.6016 49.8335 24.6902 49.4977C24.6902 49.4977 24.4984 49.4497 24.6423 49.3538C24.6423 49.3538 24.6902 49.3058 24.8821 49.3538C24.8821 49.3538 25.8415 49.4977 26.4171 50.7928C26.9447 52.088 27.1846 52.6636 27.9041 53.0473C28.6716 53.4311 30.1107 53.9108 30.3505 54.4384C30.3505 54.4384 30.4464 54.5823 30.4944 54.3905C30.5424 54.1986 30.5424 53.9587 30.3505 53.575C30.2066 53.1912 30.2066 53.0953 30.3505 53.0953C30.5424 53.0953 30.5424 53.0953 30.5424 52.9994C30.5424 52.9034 30.3985 51.7522 28.3358 51.7522C28.3358 51.7522 28.144 51.8002 28.1919 51.6563C28.2399 51.5603 28.3838 51.5603 28.5757 51.5603C28.8155 51.5603 29.8708 51.6563 30.2066 51.9441C30.2066 51.9441 30.3505 52.04 30.2546 51.8481C30.1586 51.6083 29.631 50.6969 27.9041 50.3131C26.1773 49.9294 26.1773 48.7302 26.1773 48.7302C26.1773 48.7302 26.2252 48.5383 26.3691 48.8261C26.8968 50.0253 28.8635 50.2172 28.9594 50.2652C29.1033 50.2652 29.2952 50.4091 29.3911 50.3131C29.631 50.0733 29.6789 49.6416 29.535 49.4497C29.535 49.4497 29.535 49.3538 29.4871 49.4017C29.4391 49.4497 29.2952 49.5457 29.2472 49.5457C29.2472 49.5457 29.2472 49.5457 29.2472 49.4977C29.1993 49.4977 29.1033 49.3058 29.1033 49.2099C29.1033 49.2099 28.9594 49.4977 28.8635 49.5936C28.8635 49.5936 28.8635 49.6416 28.8155 49.6416C28.8155 49.6416 28.0001 49.5936 27.9041 48.9221C27.8082 48.2985 28.096 47.8668 28.8155 47.9627C28.8155 47.9627 28.9594 48.0107 29.0074 48.0586C29.0554 48.1066 29.1513 48.3464 29.1513 48.3464V48.3944L29.2952 48.2025C29.2952 48.2025 29.3432 48.1546 29.3432 48.2025L29.7269 48.2985C29.7269 48.2985 29.7749 48.3464 29.7749 48.2985C29.7749 48.2985 29.9188 48.2025 30.0147 47.9147C30.0627 47.6749 30.1107 47.3391 30.0627 47.3391C30.0627 47.3391 29.7269 47.1472 29.6789 47.0993V47.0513C29.6789 47.0513 29.7749 47.0513 30.1107 47.1472C30.1107 47.1472 30.2066 47.1472 30.1586 47.1472C30.1586 47.0993 30.1586 47.0993 30.1586 47.0993C30.1586 47.0993 30.0147 46.8594 29.631 46.7155C29.1513 46.5237 29.0074 46.4757 28.7675 46.5237C28.7675 46.5237 28.7196 46.5237 28.6716 46.5237C28.6716 46.5237 28.5277 47.0993 28.0001 47.1472C28.0001 47.1472 27.8561 47.1472 27.6643 47.0033C27.4724 46.8594 27.4244 46.8594 27.0887 46.8115C26.8008 46.7635 26.0813 46.6196 25.7455 46.0919C25.3618 45.5163 25.2179 45.2765 24.4504 45.6602C23.6829 46.044 23.3951 46.044 22.8195 45.5163H22.7715C22.7715 45.5163 22.8195 45.6123 22.7235 45.948C22.6756 46.2838 22.7715 46.4757 22.8674 46.5716C22.9154 46.7155 22.9154 47.0033 23.3471 47.1472C23.7309 47.2911 23.9227 47.0513 24.3065 47.2911H24.3545C24.3545 47.2911 24.4024 47.3391 24.3545 47.3391C24.3065 47.3391 24.2585 47.3391 24.2585 47.3391C24.2585 47.3391 24.1146 47.2432 23.9707 47.2432C23.8268 47.2911 23.6349 47.3391 23.539 47.3391C23.4431 47.3391 23.0593 47.3391 22.9154 47.0993C22.9154 47.0993 22.9154 47.0993 22.9154 47.1472C22.9154 47.1472 22.8674 47.435 22.4837 47.9627C22.1479 48.4904 22.4837 49.066 23.2992 49.7375C24.1146 50.4091 25.074 51.1766 25.2179 51.8961C25.3618 52.5677 24.8821 53.2392 24.3545 53.2872C23.7788 53.3351 23.491 52.7595 23.8748 52.5677C24.3545 52.3278 24.3545 53.0953 24.0187 52.9034ZM70.2601 65.0874L71.0756 62.0654H71.1236L71.939 65.0874H70.2601ZM70.404 61.2499L68.3894 67.3899H69.5886L70.0203 65.8549H72.1309L72.5626 67.3899H73.7618L71.891 61.2499H70.404ZM67.0942 65.8069H67.0462L64.9836 61.2499H63.5925V67.3899H64.6958V62.689L66.7584 67.3899H68.1495V61.2499H67.0942V65.8069ZM60.5226 66.7663C59.803 66.7663 59.2754 66.3825 59.2754 64.2719C59.2754 62.2093 59.803 61.8735 60.5226 61.8735C61.1941 61.8735 61.7218 62.2093 61.7218 64.2719C61.7218 66.3825 61.1941 66.7663 60.5226 66.7663ZM60.5226 61.154C58.8437 61.154 58.1241 62.1133 58.1241 64.3199C58.1241 66.5264 58.8437 67.4858 60.5226 67.4858C62.1535 67.4858 62.873 66.5264 62.873 64.3199C62.873 62.1133 62.1535 61.154 60.5226 61.154ZM100.336 61.2499H99.0891L96.9305 63.9361H96.8825V61.2499H95.7793V67.3899H96.8825V65.3752L97.5541 64.6077L99.281 67.3899H100.576L98.2736 63.8402L100.336 61.2499ZM56.3013 67.3899H57.4526V61.2499H56.3013V67.3899ZM75.1049 61.2499H73.9537V67.3899H77.8871V66.5744H75.1049V61.2499ZM86.6173 65.0874L87.4808 62.0654H87.5287L88.3442 65.0874H86.6173ZM86.8092 61.2499L84.7466 67.3899H85.9458L86.4254 65.8549H88.536L88.9678 67.3899H90.167L88.2962 61.2499H86.8092ZM93.8605 65.8069L91.7499 61.2499H90.3588V67.3899H91.4621V62.689L93.5727 67.3899H94.9638V61.2499H93.8605V65.8069ZM82.6359 66.6224H81.4847V64.5118H82.588C83.2116 64.5118 83.6913 64.8955 83.6913 65.5671C83.6913 66.2866 83.3075 66.6224 82.6359 66.6224ZM81.4847 61.9694H82.3002C82.9717 61.9694 83.4514 62.1133 83.4514 62.8808C83.4514 63.4565 83.1156 63.8402 82.3961 63.8402H81.4847V61.9694ZM83.5473 64.128C84.2669 63.9361 84.6027 63.5044 84.6027 62.7369C84.6027 61.6337 83.7392 61.2499 82.6839 61.2499H80.3335V67.3899H82.6359C83.9791 67.3899 84.8425 66.7183 84.8425 65.711C84.8425 64.6557 84.3148 64.2719 83.5473 64.128ZM48.8663 65.0874L49.6817 62.0654H49.7297L50.5452 65.0874H48.8663ZM49.0102 61.2499L46.9955 67.3899H48.1947L48.6264 65.8549H50.737L51.1687 67.3899H52.368L50.4972 61.2499H49.0102ZM51.5045 62.0654H53.1834V67.3899H54.3347V62.0654H56.0135V61.2499H51.5045V62.0654ZM45.7004 65.8069H45.6524L43.5898 61.2499H42.1987V67.3899H43.3019V62.689L45.3646 67.3899H46.7557V61.2499H45.7004V65.8069ZM96.5468 43.9334V53.1912C96.5468 55.1579 95.8272 56.1653 93.8605 56.1653C91.8938 56.1653 91.1743 55.1579 91.1743 53.1912V43.9334H87.1929V52.9514C87.1929 57.4125 89.2076 59.619 93.8605 59.619C98.5135 59.619 100.576 57.4125 100.576 52.9514V43.9334H96.5468ZM64.1202 47.0513C66.7105 47.0513 67.6698 49.3058 67.6698 51.6083C67.6698 53.9108 66.7105 56.1653 64.1202 56.1653C61.5299 56.1653 60.5226 53.9108 60.5226 51.6083C60.5226 49.3058 61.5299 47.0513 64.1202 47.0513ZM64.1202 59.619C68.965 59.619 71.6992 56.0693 71.6992 51.6083C71.6992 47.1472 68.965 43.5976 64.1202 43.5976C59.2754 43.5976 56.5412 47.1472 56.5412 51.6083C56.5412 56.0693 59.2754 59.619 64.1202 59.619ZM79.9977 56.0693H76.7838V52.5677H79.9977C81.2449 52.5677 82.1563 52.9994 82.1563 54.3425C82.1563 55.6376 81.2928 56.0693 79.9977 56.0693ZM76.7838 47.0033H79.9018C80.7652 47.0033 81.5327 47.3871 81.5327 48.4904C81.5327 49.5936 80.6213 49.9774 79.9018 49.9774H76.7838V47.0033ZM86.1856 54.5344C86.1856 52.7595 85.1783 51.3684 83.5473 50.8888C84.7466 50.2652 85.562 49.1619 85.562 47.7708C85.562 44.557 82.6359 43.8854 79.9977 43.9334H72.8024V59.2832H80.1896C83.4994 59.2832 86.1856 58.1799 86.1856 54.5344ZM45.9402 49.6896H45.9882L51.3606 59.2832H55.4379V43.9334H51.6964V53.3831H51.6484L46.276 43.9334H42.1987V59.2832H45.9402V49.6896Z" fill="#E20613"/>
</g>
</g>
<rect x="1" y="1" width="110" height="110" rx="9" stroke="#CCCCCC" stroke-width="2"/>
<defs>
<clipPath id="clip0_302_1299">
<rect x="2" y="2" width="108" height="108" rx="8" fill="white"/>
</clipPath>
<clipPath id="clip1_302_1299">
<rect width="88.6027" height="32.6184" fill="white" transform="translate(12 40)"/>
</clipPath>
</defs>
</svg>
