<svg width="112" height="112" viewBox="0 0 112 112" fill="none" xmlns="http://www.w3.org/2000/svg">
<g clip-path="url(#clip0_6_7382)">
<rect x="2" y="2" width="108" height="108" rx="8" fill="white"/>
<path d="M45.0821 46.7735L34.658 42.7903C35.258 40.2965 36.2881 37.9713 37.6559 35.8866L46.9758 41.6793C45.9532 43.1545 45.2818 44.8926 45.0821 46.7735ZM57.527 51.5272L46.3045 47.2376C46.6272 45.5062 47.3536 43.9067 48.3898 42.5525L57.527 48.2398V51.5272ZM57.527 47.8056L48.8396 42.0055C49.9289 40.762 51.2926 39.7733 52.8364 39.1183L57.527 43.9114V47.8056ZM35.2763 55.1713C34.4867 52.9066 34.0532 50.4747 34.0532 47.9381C34.0532 46.5261 34.1864 45.1488 34.4399 43.8163L45.0284 47.5372L45.0236 47.9327C45.0236 50.5365 45.9307 52.9303 47.4487 54.8125C46.668 53.1267 46.1244 51.2398 46.1244 49.2305C46.1244 48.7963 46.1502 48.3682 46.2019 47.947L57.527 51.924V55.1713H35.2763ZM36.0829 57.1643C35.8899 56.7498 35.7105 56.3244 35.5433 55.9011H42.0814L43.2916 57.1778H53.0749L50.9298 59.4412H38.8851C38.5059 58.2093 37.4092 57.2764 36.0829 57.1643ZM60.9727 57.7058C61.752 57.3036 62.4737 56.815 63.1273 56.2531C63.5561 55.895 63.9549 55.5063 64.3205 55.0714C65.9649 53.1478 66.959 50.6588 66.959 47.9327C66.959 41.8764 62.0469 36.965 55.9906 36.965C54.7213 36.965 53.4982 37.179 52.3676 37.5752L44.7131 29.1175C48.0073 27.1375 51.8647 26 55.9906 26C68.1046 26 77.9233 35.8187 77.9233 47.9381C77.9233 60.0528 68.1046 69.868 55.9906 69.868C49.9635 69.868 44.5065 67.4416 40.5417 63.508H67.4462L39.2459 62.1076L69.0464 61.9187L37.8604 60.2947L49.8392 60.1092C49.8392 60.1092 56.1238 60.3001 60.9727 57.7058ZM47.4351 41.0657L38.2987 34.9653C39.7847 32.9397 41.6071 31.1832 43.6864 29.7739L51.6133 37.8748C49.9737 38.5883 48.5427 39.6925 47.4351 41.0657Z" fill="#D10A10"/>
<path d="M29.1671 86C26.3665 86 25 84.3861 25 81.7558C25 79.0264 27.0228 77.3009 29.4885 77.3009C31.8734 77.3009 33.6553 78.5792 33.6553 81.5198C33.6553 84.274 31.6724 86 29.1671 86ZM29.3268 79.0634C28.2426 79.0634 27.2113 79.844 27.2113 81.5951C27.2113 83.2075 27.8547 84.2259 29.2879 84.2259C30.2789 84.2259 31.4441 83.5439 31.4441 81.6448C31.4441 79.9566 30.7078 79.0634 29.3268 79.0634Z" fill="#D10A10"/>
<path d="M38.735 85.95C35.3976 85.95 34.5004 83.8536 34.5004 81.9547C34.5004 79.2364 36.0949 77.4007 39.0826 77.4007C39.7125 77.4007 40.3678 77.475 40.9325 77.6119L40.6903 79.3609C40.1807 79.2243 39.6056 79.1384 39.0427 79.1384C37.5825 79.1384 36.7913 80.1182 36.7913 81.6317C36.7913 83.2819 37.5155 84.1882 39.1504 84.1882C39.6196 84.1882 40.3016 84.0764 40.7304 83.8909L40.9726 85.6153C40.3155 85.827 39.5119 85.95 38.735 85.95Z" fill="#D10A10"/>
<path d="M45.2055 85.8641C44.6706 85.8641 43.6648 85.837 42.3519 85.837V77.4748C43.1822 77.4381 44.5365 77.4127 45.6484 77.4127C47.6171 77.4127 48.783 78.1201 48.783 79.5225C48.783 80.3041 48.247 81.012 47.4698 81.3337V81.3715C48.3951 81.5951 48.93 82.3883 48.93 83.2204C48.93 84.5605 47.8723 85.8641 45.2055 85.8641ZM45.3129 78.9633C44.992 78.9633 44.6965 78.9759 44.4426 78.9881V80.8251C44.6165 80.8375 44.8176 80.8375 45.0585 80.8375C46.0767 80.8375 46.5723 80.4532 46.5723 79.8199C46.5723 79.2855 46.1846 78.9633 45.3129 78.9633ZM45.1393 82.2646C45.0314 82.2646 44.6025 82.2646 44.4426 82.277V84.2507C44.6165 84.274 44.9247 84.288 45.2459 84.288C46.1711 84.288 46.6934 83.8907 46.6934 83.2447C46.6934 82.599 46.1168 82.2646 45.1393 82.2646Z" fill="#D10A10"/>
<path d="M54.0766 85.95C50.7411 85.95 49.8435 83.8536 49.8435 81.9547C49.8435 79.2364 51.4375 77.4007 54.4252 77.4007C55.0549 77.4007 55.7115 77.475 56.2734 77.6119L56.0334 79.3609C55.5241 79.2243 54.9477 79.1384 54.3859 79.1384C52.9241 79.1384 52.1345 80.1182 52.1345 81.6317C52.1345 83.2819 52.8573 84.1882 54.4915 84.1882C54.9617 84.1882 55.645 84.0764 56.073 83.8909L56.3148 85.6153C55.6582 85.827 54.8541 85.95 54.0766 85.95Z" fill="#D10A10"/>
<path d="M65.4673 85.8369L63.3368 82.2278C62.9499 81.5829 62.6401 80.9364 62.3994 80.3913C62.4395 81.0117 62.4664 81.8557 62.4664 82.6497V85.8369H60.4565V77.4621H63.1372L65.1195 80.7759C65.5206 81.4713 65.8961 82.1898 66.2184 82.8363C66.1519 82.1152 66.1249 81.0117 66.1249 80.2169V77.4621H68.1343V85.8369H65.4673Z" fill="#D10A10"/>
<path d="M69.717 77.4624H71.8064V85.8369H69.717V77.4624Z" fill="#D10A10"/>
<path d="M75.1832 85.986C74.553 85.986 73.9093 85.9259 73.3343 85.8001L73.4414 84.0133C73.9513 84.1883 74.6881 84.3249 75.3442 84.3249C76.1058 84.3249 76.6574 84.0265 76.6574 83.4315C76.6574 82.0039 73.0537 82.7374 73.0537 79.9324C73.0537 78.3555 74.3798 77.3128 76.6437 77.3128C77.1263 77.3128 77.7286 77.3624 78.2912 77.4623L78.1704 79.1381C77.6618 79.0007 77.0999 78.914 76.5624 78.914C75.6928 78.914 75.2911 79.2616 75.2911 79.7331C75.2911 81.036 78.8943 80.5401 78.8943 83.1577C78.8943 84.7843 77.4879 85.986 75.1832 85.986Z" fill="#D10A10"/>
<path d="M82.7137 83.0715C82.6068 83.0715 82.4199 83.0715 82.2326 83.0586V85.8369H80.1424V77.4624C80.9181 77.4254 81.776 77.4008 82.7137 77.4008C85.0192 77.4008 86.2783 78.3674 86.2783 80.0932C86.2783 81.719 85.0192 83.0715 82.7137 83.0715ZM82.6744 78.9759C82.5279 78.9759 82.3801 78.9759 82.2326 78.9878V81.4454C82.3661 81.4579 82.487 81.4713 82.5928 81.4713C83.464 81.4579 84.1219 80.9985 84.1219 80.1801C84.1219 79.4728 83.7052 78.9759 82.6744 78.9759Z" fill="#D10A10"/>
</g>
<rect x="1" y="1" width="110" height="110" rx="9" stroke="#CCCCCC" stroke-width="2"/>
<defs>
<clipPath id="clip0_6_7382">
<rect x="2" y="2" width="108" height="108" rx="8" fill="white"/>
</clipPath>
</defs>
</svg>
