<svg width="112" height="112" viewBox="0 0 112 112" fill="none" xmlns="http://www.w3.org/2000/svg">
<g clip-path="url(#clip0_528_52)">
<rect x="2" y="2" width="108" height="108" rx="8" fill="white"/>
<path d="M22.5754 44.906C18.9533 44.906 16 47.6462 16 51.0138C16 54.8786 18.7047 57.5774 22.5754 57.5774C26.4461 57.5774 29.1508 54.8786 29.1508 51.0138C29.1508 47.6462 26.2034 44.906 22.5754 44.906ZM22.5754 54.8253C20.5572 54.8253 18.9711 53.1563 18.9711 51.0316C18.9711 49.2324 20.6578 47.6581 22.5754 47.6581C24.493 47.6581 26.1738 49.2383 26.1738 51.0316C26.1738 53.1622 24.5936 54.8253 22.5754 54.8253Z" fill="#55474A"/>
<path d="M38.4902 57.169H41.9466L36.5667 50.9191L36.5904 50.8955L41.4554 45.3084H38.2239L33.5068 50.6528V45.3084H30.6601V57.169H33.5068V51.5583L33.5719 51.6294L38.4902 57.169Z" fill="#55474A"/>
<path d="M54.257 44.8113C52.8247 43.0239 50.694 42 48.4036 42C46.1131 42 43.9825 43.0239 42.5502 44.8113L42.3016 45.125L42.6094 45.3735L43.8464 46.3619L44.1541 46.6105L44.4027 46.2968C45.3793 45.0776 46.8352 44.3733 48.3977 44.3733C49.9602 44.3733 51.4161 45.0717 52.3926 46.2968L52.6412 46.6105L52.949 46.3619L54.1859 45.3735L54.4996 45.125L54.251 44.8113H54.257Z" fill="#FAA61A"/>
<path d="M48.4037 55.0325C47.6816 55.0325 47.0957 55.6184 47.0957 56.3405C47.0957 57.0625 47.6816 57.6484 48.4037 57.6484C49.1257 57.6484 49.7116 57.0625 49.7116 56.3405C49.7116 55.6184 49.1257 55.0325 48.4037 55.0325Z" fill="#F04923"/>
<path d="M50.0845 47.7409C50.0845 46.8117 49.3328 46.0601 48.4036 46.0601C47.4744 46.0601 46.7228 46.8117 46.7228 47.7409C46.7228 47.812 47.51 53.4878 47.51 53.4878H47.5159C47.5336 53.9672 47.9183 54.3459 48.4036 54.3459C48.889 54.3459 49.2677 53.9672 49.2914 53.4878C49.2914 53.4878 50.0845 47.9007 50.0845 47.7409Z" fill="#F04923"/>
<path d="M62.7086 51.3038C63.4365 50.9783 64.3066 50.3569 64.3066 48.8181C64.3066 46.8768 63.1288 45.9713 60.5957 45.9713H56.9736V57.175H60.7377C63.0696 57.175 64.5729 55.9084 64.5729 53.9494C64.5729 52.3218 63.5904 51.6175 62.7026 51.3098M59.4356 52.3277H60.3648C61.4716 52.3277 62.0339 52.8249 62.0339 53.8074C62.0339 54.7898 61.4538 55.2811 60.4299 55.2811H59.4356V52.3277ZM60.3471 50.5048H59.4356V47.7942H60.2997C61.2467 47.7942 61.8326 48.2854 61.8326 49.0726C61.8326 49.9189 61.223 50.5048 60.3471 50.5048Z" fill="#55474A"/>
<path d="M71.3851 45.9713H68.7573L64.7268 57.0921L64.6972 57.1691H67.2599L68.1003 54.559H71.8349L72.6575 57.1691H75.2794L71.4206 46.0897L71.3732 45.9654L71.3851 45.9713ZM71.2785 52.6769H68.6744L70.0297 48.4038L71.2726 52.6769H71.2785Z" fill="#55474A"/>
<path d="M82.6656 53.8429L79.0554 45.9713H76.1908V57.169H78.5168V49.3507L82.062 57.0566L82.1034 57.169H84.9975V45.9713H82.6656V53.8429Z" fill="#55474A"/>
<path d="M91.5671 51.2624L95.6922 45.9713H92.7389L89.6436 50.2208V45.9713H87.1104V57.169H89.6436V52.4402L92.8573 57.0862L92.9165 57.169H96L91.5671 51.2624Z" fill="#55474A"/>
<path d="M58.2046 63.5196H56.9795V70.2015H58.2046V63.5196Z" fill="#55474A"/>
<path d="M59.4593 66.0882C59.4593 65.7804 59.4475 65.4964 59.4238 65.2774H60.5365C60.5483 65.5259 60.5779 65.7864 60.5779 66.0349H60.5957C60.7673 65.739 61.1047 65.2004 61.9037 65.2004C63.0282 65.2004 63.3596 66.0349 63.3596 67.0292V70.2075H62.17V67.2482C62.17 66.4907 61.9806 66.177 61.4894 66.177C60.8679 66.177 60.6489 66.7037 60.6489 67.337V70.2075H59.4593V66.0882Z" fill="#55474A"/>
<path d="M68.4791 63.0224V69.3611C68.4791 69.7162 68.4909 70.024 68.5205 70.2015H67.4078C67.3901 70.0595 67.3664 69.7695 67.3664 69.4321H67.3368C67.1415 69.8524 66.7864 70.2726 66.0229 70.2726C64.7978 70.2726 64.2888 69.1066 64.2888 67.7335C64.2888 66.1237 64.928 65.1886 65.9933 65.1886C66.7035 65.1886 67.0941 65.591 67.2658 65.9757H67.2835V63.0165H68.4732L68.4791 63.0224ZM66.3543 69.4085C67.0527 69.4085 67.2954 68.6509 67.2954 67.7217C67.2954 66.7925 67.029 66.0645 66.378 66.0645C65.727 66.0645 65.4902 66.7037 65.4902 67.6921C65.4902 68.8285 65.6678 69.4085 66.3603 69.4085" fill="#55474A"/>
<path d="M71.61 65.2004C72.6161 65.2004 73.7761 65.7272 73.7761 67.7395C73.7761 69.7517 72.6161 70.2844 71.61 70.2844C70.6038 70.2844 69.4379 69.805 69.4379 67.7395C69.4379 65.6739 70.6038 65.2004 71.61 65.2004ZM71.61 69.444C72.3735 69.444 72.551 68.5621 72.551 67.7395C72.551 66.9168 72.3794 66.0468 71.61 66.0468C70.8406 66.0468 70.663 66.9168 70.663 67.7395C70.663 68.5621 70.8465 69.444 71.61 69.444Z" fill="#55474A"/>
<path d="M74.7112 66.0882C74.7112 65.7804 74.6994 65.4964 74.6757 65.2774H75.7884C75.7943 65.5259 75.8239 65.7864 75.8239 66.0349H75.8417C76.0133 65.739 76.3507 65.2004 77.1556 65.2004C78.2742 65.2004 78.6115 66.0349 78.6115 67.0292V70.2075H77.4219V67.2482C77.4219 66.4907 77.2266 66.177 76.7413 66.177C76.1198 66.177 75.9009 66.7037 75.9009 67.337V70.2075H74.7112V66.0882Z" fill="#55474A"/>
<path d="M83.2989 69.9648C83.0504 70.0713 82.5355 70.2844 81.8252 70.2844C80.2391 70.2844 79.5466 69.1421 79.5466 67.8164C79.5466 66.3427 80.322 65.2004 81.5767 65.2004C82.642 65.2004 83.5475 65.8219 83.5475 67.8341V68.065H80.6948C80.6948 68.9054 81.0322 69.4144 81.9495 69.4144C82.6775 69.4144 83.0208 69.1954 83.2398 69.0297L83.2989 69.9648ZM82.3993 67.3133C82.3993 66.4433 82.1152 65.9994 81.5767 65.9994C80.9552 65.9994 80.6948 66.6623 80.6948 67.3133H82.3993Z" fill="#55474A"/>
<path d="M84.3347 69.0534C84.53 69.1303 85.0153 69.3789 85.5716 69.3789C86.0037 69.3789 86.3351 69.2723 86.3351 68.8936C86.3351 68.6982 86.2404 68.5207 85.8084 68.2721L85.3171 67.9821C84.82 67.6862 84.2696 67.3725 84.2696 66.5972C84.2696 65.9166 84.9324 65.2004 85.9741 65.2004C86.6074 65.2004 87.0927 65.3602 87.2051 65.4017L87.14 66.319C86.8441 66.2066 86.5304 66.1 86.0984 66.1C85.619 66.1 85.4177 66.2835 85.4177 66.5794C85.4177 66.8458 85.6308 66.9937 85.9741 67.2127L86.56 67.5856C87.1696 67.9762 87.4774 68.2544 87.4774 68.8285C87.4774 69.7399 86.708 70.2844 85.6367 70.2844C85.0212 70.2844 84.5181 70.1424 84.2696 70.0477L84.3287 69.0593L84.3347 69.0534Z" fill="#55474A"/>
<path d="M88.4599 63.1763H89.685V64.3482H88.4599V63.1763ZM88.4776 65.2714H89.6673V70.2015H88.4776V65.2714Z" fill="#55474A"/>
<path d="M91.0936 65.5615C91.431 65.4076 91.8985 65.2004 92.6561 65.2004C94.189 65.2004 94.5441 65.9462 94.5441 67.1831V69.3374C94.5441 69.6926 94.5796 70.0181 94.6092 70.2075H93.5379C93.4787 70.0121 93.4728 69.7754 93.4728 69.5387H93.4551C93.1591 69.9411 92.7804 70.2844 92.0761 70.2844C91.3126 70.2844 90.6024 69.7577 90.6024 68.8403C90.6024 67.4968 91.6973 67.1654 93.1946 67.1654H93.4373V66.9819C93.4373 66.4907 93.1946 66.0409 92.5199 66.0409C91.9281 66.0409 91.4014 66.3249 91.1705 66.5202L91.1054 65.5615H91.0936ZM93.4314 67.7927H93.3249C92.3069 67.7927 91.7032 67.9999 91.7032 68.7219C91.7032 69.1717 91.9991 69.4795 92.4608 69.4795C93.171 69.4795 93.4314 68.9527 93.4314 68.0709V67.7927Z" fill="#55474A"/>
</g>
<rect x="1" y="1" width="110" height="110" rx="9" stroke="#CCCCCC" stroke-width="2"/>
<defs>
<clipPath id="clip0_528_52">
<rect x="2" y="2" width="108" height="108" rx="8" fill="white"/>
</clipPath>
</defs>
</svg>
