<svg width="112" height="112" viewBox="0 0 112 112" fill="none" xmlns="http://www.w3.org/2000/svg">
<g clip-path="url(#clip0_6_7384)">
<rect x="2" y="2" width="108" height="108" rx="8" fill="white"/>
<path d="M47.3543 57.156V57.1771C47.3476 57.6701 47.0056 57.84 46.557 57.8378H46.1762V58.6561H45.6443V56.4953H46.5726C46.9723 56.4953 47.3154 56.6186 47.3521 57.0783L47.3543 57.1171V57.156ZM46.808 57.1704L46.8069 57.1538C46.8113 56.9517 46.6303 56.9639 46.4793 56.9561H46.1762V57.377H46.4737C46.607 57.3703 46.8024 57.3892 46.8058 57.2037L46.8069 57.1882L46.808 57.1704ZM49.504 58.6561H48.9266L48.78 58.222H48.0683L47.9206 58.6561H47.3576L48.1549 56.4953H48.7156L49.504 58.6561ZM48.6323 57.7823L48.428 57.1604L48.2215 57.7823H48.6323ZM51.7237 58.6561H51.234L50.4123 57.3281V58.6561H49.9037V56.4953H50.4134L51.214 57.8189V56.4953H51.7237V58.6561ZM52.8096 58.6561H52.2777V56.4942H52.8096V58.6561ZM55.1836 58.6561H54.6951L53.8734 57.3281V58.6561H53.3648V56.4953H53.8745L54.674 57.8189V56.4953H55.1836V58.6561ZM61.5894 58.6561H61.0132L60.8666 58.222H60.1548L60.0083 58.6561H59.4453L60.2414 56.4953H60.8033L61.5894 58.6561ZM60.72 57.7823L60.5146 57.1604L60.3081 57.7823H60.72ZM63.8102 58.6561H63.3205L62.5 57.3281V58.6561H61.9914V56.4953H62.5L63.3006 57.8189V56.4953H63.8102V58.6561ZM66.4318 58.6561H65.7556L65.0672 57.6934L64.9062 57.8489V58.6561H64.3743V56.4953H64.9062V57.2426L65.7145 56.4953H66.4063L65.4714 57.3192" fill="#007DC5"/>
<path fill-rule="evenodd" clip-rule="evenodd" d="M57.2144 56.5063H58.2914C58.4946 56.5074 58.6445 56.5474 58.7434 56.6251C58.8422 56.7028 58.9088 56.7883 58.941 56.8816C58.951 56.9116 58.9588 56.9416 58.9632 56.9715C58.9688 57.0004 58.971 57.0304 58.971 57.0581C58.971 57.1592 58.9543 57.238 58.9199 57.2969C58.8866 57.3568 58.8488 57.4001 58.81 57.4301C58.79 57.4457 58.77 57.459 58.7522 57.4679C58.7334 57.4779 58.7156 57.4879 58.7012 57.4956C58.8355 57.5456 58.9266 57.6178 58.9732 57.7133C59.0187 57.8088 59.0432 57.9087 59.0432 58.0131C59.0432 58.0997 59.0254 58.1807 58.9899 58.2574C58.9543 58.3329 58.9088 58.3995 58.8511 58.455C58.8488 58.4572 58.8466 58.4583 58.8455 58.4595C58.8444 58.4617 58.8433 58.4628 58.8433 58.4639C58.7811 58.5194 58.7056 58.5638 58.6157 58.5971C58.5279 58.6293 58.3725 58.646 58.1537 58.646H57.2144V56.5063ZM57.7418 58.2762H58.2082C58.3003 58.2785 58.3725 58.254 58.4236 58.2041C58.4758 58.1552 58.5002 58.0741 58.5002 57.9653C58.5002 57.8732 58.4724 57.8077 58.4169 57.7677C58.3614 57.7277 58.3014 57.7055 58.2359 57.7044H57.7418V58.2762ZM57.7418 57.3435H58.1726C58.2437 57.3457 58.3048 57.328 58.3558 57.2913C58.4058 57.2547 58.4302 57.1936 58.4302 57.1081C58.4302 57.0193 58.4069 56.9582 58.3581 56.926C58.3103 56.8916 58.2437 56.8749 58.1604 56.8749H57.7418" fill="#007DC5"/>
<path fill-rule="evenodd" clip-rule="evenodd" d="M44.5338 34H67.541L67.6609 34.0034L67.7864 34.0122C68.9912 34.1377 69.9306 35.1315 69.9939 36.3407L69.9961 36.4606V58.5551C69.9961 59.7632 69.1022 60.8037 67.9086 60.9869L67.7864 61.0035L67.6609 61.0124L67.541 61.0157H44.5338C43.3212 61.0135 42.2941 60.1186 42.1076 58.9238L42.092 58.8005L42.0821 58.6751L42.0798 58.5551V36.4606L42.0821 36.3407L42.092 36.2153L42.1076 36.092L42.1287 35.971L42.1576 35.8522L42.1909 35.7345C42.2519 35.5379 42.3308 35.3647 42.4374 35.1893L42.5007 35.0882L42.5695 34.9927L42.6428 34.8994C42.9693 34.5008 43.4267 34.2066 43.9264 34.0778L44.0452 34.05L44.1663 34.0289L44.2895 34.0122L44.415 34.0034L44.5338 34ZM44.5427 34.6751H67.5332L67.6265 34.6785L67.7176 34.6851C68.5903 34.7751 69.2765 35.5002 69.3199 36.3751L69.3232 36.4695V58.5462C69.3243 59.4257 68.6758 60.1863 67.8064 60.3195L67.7176 60.3317L67.6265 60.3384L67.5332 60.3406H44.5427C43.6621 60.3429 42.9082 59.6888 42.7738 58.8216L42.7627 58.7317L42.7549 58.6406L42.7527 58.5462V36.4695L42.7549 36.3751L42.7627 36.2841L42.7738 36.1953L42.7894 36.1064L42.8094 36.0209L42.8338 35.9354C42.876 35.7989 42.9393 35.6623 43.0126 35.5401L43.0592 35.468L43.1092 35.3969L43.1625 35.3292C43.3979 35.0416 43.7343 34.8239 44.0952 34.7329L44.1807 34.7118L44.2695 34.6962L44.3583 34.6851L44.4483 34.6785" fill="#007DC5"/>
<path fill-rule="evenodd" clip-rule="evenodd" d="M55.4544 35.8209C53.066 36.1118 51.2061 38.1594 51.2061 40.63C51.2061 43.2972 53.3769 45.4724 56.0385 45.4724C58.6989 45.4724 60.8698 43.2972 60.8698 40.63C60.8698 38.1594 59.0099 36.1118 56.6214 35.8209C56.9534 36.0208 57.1777 36.3861 57.1777 36.8014C57.1777 37.431 56.6647 37.944 56.0385 37.944C55.41 37.944 54.8981 37.431 54.8981 36.8014C54.8981 36.3861 55.1224 36.0208 55.4544 35.8209Z" fill="#007DC5"/>
<path fill-rule="evenodd" clip-rule="evenodd" d="M55.0513 47.1868C55.3655 47.7308 56.0651 47.9196 56.608 47.6054C57.151 47.29 57.3387 46.5894 57.0244 46.0442C56.7102 45.5001 56.0118 45.3113 55.4688 45.6255C54.9247 45.9409 54.737 46.6416 55.0513 47.1868Z" fill="#007DC5"/>
<path fill-rule="evenodd" clip-rule="evenodd" d="M47.0043 52.519C48.4489 54.4466 51.1482 55.0373 53.2824 53.8037C55.5864 52.469 56.3815 49.4965 55.0512 47.1858C53.7199 44.8751 50.7551 44.0789 48.45 45.4136C46.3169 46.6484 45.4775 49.2878 46.4202 51.5052C46.428 51.1166 46.6312 50.7401 46.9898 50.5325C47.5328 50.2183 48.2323 50.4059 48.5466 50.9511C48.8597 51.4952 48.6721 52.1959 48.1291 52.5112C47.7704 52.7188 47.344 52.7077 47.0043 52.519Z" fill="#007DC5"/>
<path fill-rule="evenodd" clip-rule="evenodd" d="M65.0704 52.519C63.6258 54.4466 60.9264 55.0373 58.7923 53.8037C56.4882 52.469 55.6932 49.4965 57.0234 47.1858C58.3548 44.8751 61.3195 44.0789 63.6247 45.4136C65.7577 46.6484 66.5972 49.2878 65.6534 51.5052C65.6467 51.1166 65.4435 50.7401 65.0848 50.5325C64.5419 50.2183 63.8434 50.4059 63.5292 50.9511C63.215 51.4952 63.4026 52.1959 63.9445 52.5112C64.3042 52.7188 64.7306 52.7077 65.0704 52.519Z" fill="#007DC5"/>
<path fill-rule="evenodd" clip-rule="evenodd" d="M47.5118 68.2399C47.5118 68.6301 47.3106 68.9612 46.9075 69.2334C46.554 69.4694 46.1559 69.5869 45.7137 69.5869C45.2521 69.5869 44.8446 69.4739 44.4906 69.2473C44.0979 68.993 43.9011 68.6618 43.9011 68.2543C43.9011 67.8363 44.093 67.4962 44.4762 67.233C44.8297 67.0064 45.2422 66.8929 45.7137 66.8929C46.1658 66.8929 46.5689 67.0109 46.9224 67.2469C47.315 67.5101 47.5118 67.8408 47.5118 68.2399Z" fill="#007DC5"/>
<path fill-rule="evenodd" clip-rule="evenodd" d="M86.8619 66.8929H89.9208V72.4505L92.1562 69.8636H95.8393L93.0367 72.5983L96 77.6696H92.6252L91.0447 74.5382L89.9208 75.6399V77.6696H86.8619" fill="#007DC5"/>
<path fill-rule="evenodd" clip-rule="evenodd" d="M77.5458 70.0286H80.2711V71.2794C80.6781 70.7717 81.0906 70.4108 81.5071 70.1927C81.9245 69.9745 82.4322 69.864 83.0306 69.864C83.8402 69.864 84.4728 70.1069 84.9319 70.5878C85.388 71.0687 85.616 71.8114 85.616 72.8173V77.6694H82.6776V73.4722C82.6776 72.9943 82.5893 72.6552 82.4128 72.4569C82.2334 72.2556 81.986 72.1574 81.6642 72.1574C81.3112 72.1574 81.0217 72.2923 80.8031 72.56C80.5825 72.8272 80.4724 73.3101 80.4724 74.0047V77.6694H77.5458" fill="#007DC5"/>
<path fill-rule="evenodd" clip-rule="evenodd" d="M60.7074 77.6696H57.4125V66.8929H60.7074V67.2806C61.1967 67.0139 61.8135 66.8934 62.7128 66.8934C64.7326 66.8934 66.5268 67.7169 66.5327 69.4481C66.5387 70.9404 65.682 71.4793 64.5253 71.5577C65.9879 71.7277 67.324 72.628 67.324 74.1476C67.324 76.6929 65.6344 77.6696 62.7564 77.6696C61.8551 77.6696 61.3593 77.5476 60.7074 77.3151V77.6696ZM60.7074 69.0054V70.8482C61.6642 70.8864 63.5437 71.0088 63.5437 69.7947C63.5437 68.5865 61.571 68.647 60.7074 69.0054ZM60.7074 72.9186V75.6111C61.0698 75.7222 61.4486 75.7831 61.9091 75.7831C62.9195 75.7831 64.1163 75.326 64.0841 74.2735C64.033 72.6087 61.9751 72.8576 60.7074 72.9186Z" fill="#007DC5"/>
<path fill-rule="evenodd" clip-rule="evenodd" d="M70.9882 72.5342L68.2138 72.2372C68.3184 71.7439 68.4697 71.3553 68.667 71.0727C68.8643 70.7901 69.1469 70.5452 69.5192 70.3369C69.7849 70.1857 70.1528 70.0692 70.6178 69.9874C71.0834 69.9061 71.5871 69.8635 72.1304 69.8635C73 69.8635 73.7016 69.9131 74.2276 70.0127C74.7561 70.1119 75.1943 70.3216 75.5478 70.6344C76.0887 71.1133 76.3971 71.9889 76.3971 72.6983V77.6689H73.6723V76.8023C73.0744 77.3254 71.8974 77.6714 70.7691 77.6689C69.3328 77.666 67.9754 77.1052 67.9853 75.7072C67.9892 75.1207 68.1534 74.6398 68.492 74.2635C68.8301 73.8842 69.4513 73.6046 70.3595 73.4211C71.4507 73.198 72.1572 73.0419 72.481 72.9531C72.8027 72.8634 73.1458 72.7444 73.5062 72.6011C73.5062 72.2372 73.4333 71.9844 73.2876 71.8381C73.1388 71.6944 72.8806 71.62 72.5077 71.62C72.0333 71.62 71.6773 71.6993 71.4388 71.853C71.2534 71.9745 71.1027 72.2025 70.9882 72.5342ZM73.5062 74.0875C73.1066 74.2243 72.6907 74.3443 72.2593 74.4484C71.6699 74.5966 71.2946 74.7454 71.1389 74.8886C70.9758 75.0389 70.896 75.2079 70.896 75.3973C70.896 75.6149 70.9758 75.7909 71.1344 75.9298C71.2946 76.0666 71.5286 76.136 71.8379 76.136C72.1617 76.136 72.4616 76.0616 72.7417 75.9134C73.0194 75.7632 73.2167 75.5802 73.3337 75.3676C73.4507 75.1524 73.5062 74.8723 73.5062 74.5292" fill="#007DC5"/>
<path fill-rule="evenodd" clip-rule="evenodd" d="M35.0114 70.0286H37.7366V71.2794C38.1437 70.7718 38.5556 70.4113 38.9726 70.1932C39.3895 69.975 39.8977 69.8645 40.4961 69.8645C41.3057 69.8645 41.9383 70.1074 42.3974 70.5878C42.853 71.0682 43.0816 71.8114 43.0816 72.8173V77.668H40.1426V73.4722C40.1426 72.9933 40.0544 72.6552 39.8779 72.4564C39.6989 72.2551 39.451 72.1569 39.1297 72.1569C38.7763 72.1569 38.4872 72.2923 38.2686 72.5595C38.048 72.8267 37.9374 73.3101 37.9374 74.0042V77.668H35.0114" fill="#D71920"/>
<path fill-rule="evenodd" clip-rule="evenodd" d="M48.3163 70.0286H51.0416V71.2794C51.4486 70.7718 51.8606 70.4113 52.2776 70.1932C52.6945 69.975 53.2027 69.8645 53.8011 69.8645C54.6107 69.8645 55.2433 70.1074 55.7024 70.5878C56.1585 71.0682 56.3865 71.8114 56.3865 72.8173V77.668H53.4481V73.4722C53.4481 72.9933 53.3594 72.6552 53.1829 72.4564C53.0039 72.2551 52.756 72.1569 52.4347 72.1569C52.0817 72.1569 51.7922 72.2923 51.5736 72.5595C51.353 72.8267 51.2429 73.3101 51.2429 74.0042V77.668H48.3163" fill="#D71920"/>
<path d="M44.1075 77.6679H47.2904V70.0286H44.1075V77.6679Z" fill="#D71920"/>
<path fill-rule="evenodd" clip-rule="evenodd" d="M25.2318 70.5987C25.2477 74.0255 22.0703 75.1534 19.2944 74.0563V77.668H16V66.8948H19.2944V67.2815C19.9077 67.0232 20.4268 66.8854 21.2502 66.8948C23.5353 66.9196 25.2194 67.9617 25.2318 70.5987ZM19.2944 69.2264V72.0618C20.6791 72.6041 22.2155 72.324 22.2562 70.4341C22.2829 69.1724 20.7986 68.3484 19.2944 69.2264Z" fill="#D71920"/>
<path fill-rule="evenodd" clip-rule="evenodd" d="M28.5761 72.5342L25.8023 72.2368C25.9069 71.744 26.0576 71.3553 26.2554 71.0727C26.4522 70.7906 26.7348 70.5457 27.1072 70.3374C27.3729 70.1862 27.7413 70.0697 28.2058 69.9879C28.6713 69.9061 29.175 69.864 29.7184 69.864C30.588 69.864 31.2895 69.9136 31.8155 70.0127C32.3445 70.1119 32.7828 70.3221 33.1358 70.6344C33.6767 71.1138 33.9855 71.9889 33.9855 72.6983V77.6675H31.2603V76.8013C30.6624 77.3239 29.4854 77.6704 28.357 77.6675C26.9212 77.6645 25.5633 77.1043 25.5732 75.7067C25.5772 75.1202 25.7413 74.6393 26.0799 74.263C26.418 73.8837 27.0392 73.6041 27.9475 73.4207C29.0387 73.1976 29.7452 73.0414 30.0694 72.9527C30.3907 72.8634 30.7342 72.7444 31.0947 72.6012C31.0947 72.2368 31.0218 71.9844 30.8755 71.8382C30.7268 71.6949 30.4685 71.62 30.0962 71.62C29.6212 71.62 29.2658 71.6993 29.0268 71.853C28.8414 71.9745 28.6907 72.2025 28.5761 72.5342ZM31.0947 74.087C30.6951 74.2238 30.2786 74.3438 29.8478 74.4479C29.2578 74.5956 28.883 74.7444 28.7273 74.8877C28.5637 75.0384 28.4839 75.2069 28.4839 75.3963C28.4839 75.6145 28.5637 75.79 28.7224 75.9288C28.883 76.0656 29.117 76.135 29.4264 76.135C29.7501 76.135 30.0496 76.0612 30.3297 75.9129C30.6073 75.7622 30.8046 75.5798 30.9216 75.3666C31.0386 75.1514 31.0947 74.8713 31.0947 74.5287" fill="#D71920"/>
</g>
<rect x="1" y="1" width="110" height="110" rx="9" stroke="#CCCCCC" stroke-width="2"/>
<defs>
<clipPath id="clip0_6_7384">
<rect x="2" y="2" width="108" height="108" rx="8" fill="white"/>
</clipPath>
</defs>
</svg>
