<svg width="112" height="112" viewBox="0 0 112 112" fill="none" xmlns="http://www.w3.org/2000/svg">
<g clip-path="url(#clip0_642_1029)">
<rect x="2" y="2" width="108" height="108" rx="8" fill="white"/>
<g clip-path="url(#clip1_642_1029)">
<path fill-rule="evenodd" clip-rule="evenodd" d="M91.7775 49C94.109 49 96 50.891 96 53.2225C96 55.554 94.109 57.445 91.7775 57.445C89.446 57.445 87.555 55.554 87.555 53.2225C87.555 50.891 89.446 49 91.7775 49Z" fill="url(#paint0_linear_642_1029)"/>
<path fill-rule="evenodd" clip-rule="evenodd" d="M90.4105 49.6113C90.4029 49.9872 90.3421 50.3746 90.2244 50.7581C90.551 50.7581 90.8814 50.8074 91.2003 50.91C91.2725 50.9327 91.3446 50.9593 91.413 50.9859C91.4851 51.0163 91.5573 51.0467 91.6256 51.0808C91.7167 50.6897 91.7471 50.2986 91.7205 49.9265C91.6484 49.8885 91.5762 49.8543 91.5003 49.824C91.4206 49.7898 91.3332 49.7594 91.2421 49.7328C90.9687 49.6493 90.6877 49.6113 90.4067 49.6151L90.4105 49.6113ZM87.6043 53.5376C87.6651 53.5718 87.7221 53.6098 87.779 53.6478C87.817 53.663 87.8588 53.6781 87.8967 53.6933C88.0068 53.7313 88.117 53.7617 88.2271 53.7807C88.0296 53.6705 87.8246 53.587 87.6119 53.5263L87.6005 53.5338L87.6043 53.5376ZM88.3676 54.2515C88.5992 54.5857 88.7625 54.992 88.8346 55.4363H88.846C89.1498 55.5312 89.465 55.5692 89.7764 55.5578C89.5561 55.0413 89.2447 54.6009 88.8764 54.2553C88.7055 54.2705 88.5385 54.2705 88.3676 54.2553V54.2515ZM88.8726 55.9109V55.9451C88.8726 56.0552 88.8688 56.1653 88.8574 56.2716C88.7473 56.1653 88.641 56.0514 88.5423 55.9337C88.5423 55.8919 88.5423 55.8502 88.5423 55.8084C88.5043 55.7932 88.4625 55.778 88.4245 55.7628L88.4056 55.7552C88.2195 55.5046 88.06 55.235 87.9309 54.9502C88.0942 55.0869 88.2727 55.2046 88.4739 55.2996C88.3828 54.9084 88.2081 54.5629 87.9803 54.2857C87.9423 54.2401 87.9043 54.1984 87.8626 54.1566C87.8284 54.1452 87.7904 54.1338 87.7562 54.1224C87.7221 54.111 87.6841 54.0958 87.6499 54.0806C87.6157 53.9098 87.5892 53.7313 87.5778 53.5528V53.549V53.5452V53.5414C87.5778 53.4921 87.574 53.4465 87.5702 53.3971V53.3933V53.3896V53.3668V53.363V53.3592L88.922 50.1543C88.941 50.4391 88.9334 50.7353 88.8916 51.0353C89.1726 50.9252 89.465 50.853 89.7612 50.8112C89.8941 50.4315 89.9624 50.0442 89.9776 49.6721C89.7384 49.71 89.503 49.7708 89.2713 49.8619C89.4916 49.6986 89.727 49.5544 89.9776 49.4366H89.9852H89.9928V49.4328H89.9966L90.0042 49.429H90.0118V49.4252L90.0194 49.4214H90.027L90.0308 49.4177L90.0384 49.4139H90.046L90.0536 49.4063H90.0611H90.0687L90.0763 49.3987H90.0839H90.0915L90.0991 49.3911H90.1029H90.1105L90.1181 49.3835H90.1257L90.1333 49.3759H90.1371H90.1447L90.1523 49.3683H90.1599H90.1675L90.1751 49.3645H90.1827H90.1903L90.1978 49.3607H90.2054H90.2092L90.2168 49.3569H90.2244V49.3531H90.2282L90.2358 49.3493H90.2434L90.2472 49.3455L90.2548 49.3417H90.2624L90.2662 49.3379H90.2738H90.2814L90.289 49.3341H90.2966H90.3042L90.3118 49.3303H90.3194H90.327L90.3345 49.3265H90.3384H90.3459L90.3535 49.3227H90.3573H90.3649L90.3725 49.3189H90.3763H90.3839L90.3991 49.3113H90.4067C90.4713 49.2885 90.5358 49.2696 90.6042 49.2506C90.8662 49.262 91.1244 49.3075 91.3788 49.3835C91.4699 49.4101 91.5573 49.4404 91.6446 49.4784C91.6142 49.3493 91.5762 49.224 91.5307 49.0987V49.0911C91.6104 49.0873 91.694 49.0835 91.7813 49.0835C91.8534 49.0835 91.9294 49.0835 92.0015 49.0873C92.0661 49.2923 92.1155 49.5088 92.1458 49.729C92.6433 50.0442 93.0192 50.4923 93.2508 51.0163C93.547 51.6884 93.604 52.4858 93.3647 53.2832L93.3458 53.3402C93.4976 53.9781 93.4749 54.6844 93.2546 55.3869C93.2242 55.4818 93.1901 55.5768 93.1559 55.6717C92.9546 56.1805 92.6698 56.6362 92.3205 57.0159C92.2977 57.183 92.2673 57.3425 92.2218 57.502C92.0775 57.5171 91.9294 57.5247 91.7813 57.5247H91.7623C91.5231 57.5247 91.2877 57.502 91.0598 57.464C91.3636 57.2931 91.6446 57.0729 91.8952 56.8184C91.937 56.3742 91.8952 55.9033 91.7623 55.4325C91.6332 55.516 91.5041 55.5957 91.3674 55.6641C91.056 55.8236 90.7219 55.9413 90.3839 56.0134C90.5092 56.4615 90.5586 56.9096 90.5396 57.3387C90.3877 57.2931 90.2396 57.2361 90.0953 57.1754C90.0953 56.8184 90.046 56.4463 89.9358 56.0742C89.5827 56.1008 89.2258 56.0742 88.8764 55.9907L88.8726 55.9109ZM88.7701 51.5441C88.7397 51.6504 88.7093 51.7567 88.6714 51.8631C88.6144 52.0263 88.5499 52.182 88.4777 52.3339C88.5764 52.3225 88.6752 52.3187 88.7739 52.3187C89.0777 52.0339 89.3397 51.6808 89.5447 51.2783C89.2827 51.3353 89.0207 51.4264 88.7739 51.5441H88.7701ZM87.5588 53.3174L88.9106 50.1277C88.7511 50.2758 88.603 50.4353 88.4701 50.6024C88.4587 50.8112 88.4321 51.0239 88.3866 51.2365C88.2195 51.3277 88.06 51.4302 87.9043 51.5441C87.7904 51.8099 87.7031 52.0871 87.6423 52.3757C87.8094 52.1972 87.9879 52.0377 88.1815 51.8972C88.1018 52.0947 88.0069 52.2846 87.9005 52.4592C87.8702 52.4706 87.8436 52.4782 87.8132 52.4896C87.7448 52.5162 87.6765 52.5466 87.6081 52.5769C87.5892 52.7136 87.574 52.8503 87.5664 52.987V52.9946V53.0022V53.006V53.0136V53.0212V53.025V53.0326V53.0402V53.044V53.0516V53.0554V53.0592V53.063V53.082V53.0858V53.0934V53.0972V53.101V53.1389V53.1465V53.1541V53.1617V53.1693V53.1769V53.1845V53.1921V53.1997V53.2073V53.2149V53.2187V53.2263V53.2339V53.2415V53.2453V53.2529V53.2642V53.268V53.2718V53.287L87.5588 53.3174ZM88.1891 53.2642C88.2765 53.2225 88.36 53.1731 88.4473 53.1237C88.6182 53.0212 88.7815 52.9035 88.9372 52.7706C89.3207 52.7972 89.7042 52.9187 90.0649 53.1199C90.1295 53.1579 90.1941 53.1959 90.2586 53.2377C90.1713 53.306 90.0763 53.3668 89.9852 53.4237C89.6814 53.606 89.3549 53.7313 89.0207 53.7845C88.846 53.6364 88.66 53.5073 88.4663 53.4009C88.3752 53.3516 88.284 53.3022 88.1929 53.2604L88.1891 53.2642ZM89.408 54.1604C89.6852 54.0844 89.9586 53.9629 90.2168 53.811C90.3573 53.7275 90.494 53.6288 90.6269 53.5225C91.0332 53.8832 91.3788 54.3578 91.6104 54.9198C91.4699 55.0224 91.318 55.1135 91.1661 55.1894C90.8738 55.3413 90.5624 55.4477 90.2434 55.5084C90.0422 54.992 89.7536 54.5363 89.4118 54.1604H89.408ZM90.0649 51.2061C89.8789 51.6466 89.6283 52.0415 89.3359 52.3719C89.6586 52.4364 89.9776 52.558 90.2814 52.7288C90.3915 52.7896 90.5016 52.8617 90.6042 52.9339C90.9839 52.558 91.2953 52.0719 91.5003 51.5099C91.4206 51.4682 91.337 51.4302 91.2535 51.3998C91.1927 51.377 91.132 51.3542 91.0712 51.3353C90.7447 51.2327 90.4029 51.191 90.0649 51.2061ZM92.0319 51.3087C92.4686 51.6049 92.8141 52.0036 93.0534 52.4668C93.0951 51.9884 93.0192 51.5251 92.8407 51.1188C92.6888 50.7771 92.4686 50.4771 92.18 50.2303C92.18 50.5834 92.1268 50.9441 92.0319 51.3087ZM92.3471 56.1805C92.5028 55.9489 92.6357 55.6983 92.7382 55.4325C92.7724 55.3489 92.8028 55.2616 92.8293 55.178C92.947 54.7983 93.004 54.4148 92.9964 54.0503C92.7686 54.4414 92.4724 54.7831 92.1382 55.0717C92.2597 55.4439 92.3281 55.816 92.3471 56.1843V56.1805ZM92.8787 53.2453C92.8445 53.1199 92.8028 53.0022 92.7534 52.8845C92.5635 52.4364 92.2711 52.0491 91.8838 51.7567C91.6636 52.3301 91.3408 52.8238 90.9535 53.2225C91.3636 53.5946 91.7129 54.0693 91.9636 54.6274C92.3281 54.2895 92.6243 53.8718 92.8217 53.3971C92.8407 53.3478 92.8597 53.2984 92.8787 53.2491V53.2453Z" fill="url(#paint1_linear_642_1029)"/>
<path fill-rule="evenodd" clip-rule="evenodd" d="M89.5827 55.2806C89.4346 54.7604 89.1346 54.263 88.7093 53.8149C89.1498 53.7997 89.8827 53.606 90.2434 53.2339C89.9206 52.9149 89.2181 52.6681 88.5878 52.6567C88.9675 52.1783 89.4953 51.6543 89.5865 51.0277C89.1498 51.1454 88.6524 51.3353 88.2954 51.7112C88.4283 51.3467 88.5157 50.9594 88.5119 50.5265C88.4891 50.5531 88.4701 50.5797 88.4511 50.6024L87.8815 51.9808L87.7638 51.8707C87.6233 52.2922 87.5474 52.7441 87.5474 53.2149C87.5474 53.6098 87.6005 53.9896 87.7031 54.3541C87.9992 54.7642 88.2764 55.2806 88.546 55.835C88.527 55.4477 88.4777 55.0566 88.3182 54.6503C88.6865 54.9389 89.1688 55.1173 89.5865 55.2768L89.5827 55.2806Z" fill="#FF0000"/>
<path fill-rule="evenodd" clip-rule="evenodd" d="M17.1468 56.4653V55.8502H17.3442C17.4202 55.8502 17.4695 55.8502 17.4923 55.8578C17.5265 55.8654 17.5569 55.8881 17.5796 55.9185C17.6024 55.9489 17.6138 55.9907 17.6138 56.04C17.6138 56.078 17.6062 56.1084 17.5948 56.135C17.5796 56.1615 17.5645 56.1805 17.5417 56.1957C17.5189 56.2109 17.4999 56.2185 17.4771 56.2261C17.4467 56.2337 17.405 56.2337 17.348 56.2337H17.2683V56.4653H17.143H17.1468ZM17.2721 55.9527V56.1274H17.3404C17.3898 56.1274 17.4202 56.1274 17.4391 56.116C17.4543 56.1084 17.4695 56.1008 17.4771 56.0856C17.4847 56.0704 17.4923 56.0552 17.4923 56.0362C17.4923 56.0135 17.4847 55.9945 17.4733 55.9793C17.4619 55.9641 17.4429 55.9565 17.424 55.9527C17.4088 55.9527 17.3784 55.9489 17.3366 55.9489H17.2759L17.2721 55.9527ZM18.21 56.4653L17.9632 55.8502H17.8303L17.591 56.4653H17.7239L17.7733 56.3248H18.0201L18.0733 56.4653H18.21ZM17.8151 56.2223L17.8986 55.9945L17.986 56.2223H17.8151ZM18.2745 56.4653V55.8502H18.3961L18.6505 56.2641V55.8502H18.7644V56.4653H18.6391L18.3885 56.059V56.4653H18.2745ZM18.8897 56.4653V55.8502H19.015V56.4653H18.8897ZM19.1327 56.4653V55.8502H19.2542L19.5086 56.2641V55.8502H19.6226V56.4653H19.4972L19.2466 56.059V56.4653H19.1327ZM20.2795 56.2375V56.135H20.5453V56.3818C20.5187 56.4084 20.4807 56.4311 20.4314 56.4501C20.382 56.4691 20.3326 56.4805 20.2795 56.4805C20.2149 56.4805 20.158 56.4653 20.1124 56.4387C20.063 56.4122 20.0289 56.3742 20.0061 56.321C19.9833 56.2717 19.9681 56.2147 19.9681 56.1577C19.9681 56.0932 19.9833 56.0362 20.0099 55.9869C20.0365 55.9375 20.0744 55.8995 20.1276 55.873C20.1656 55.854 20.2149 55.8426 20.2757 55.8426C20.3516 55.8426 20.4124 55.8578 20.4541 55.8919C20.4959 55.9261 20.5263 55.9679 20.5377 56.0248L20.4124 56.0476C20.4048 56.0173 20.3858 55.9945 20.363 55.9755C20.3402 55.9565 20.3099 55.9489 20.2719 55.9489C20.2187 55.9489 20.1732 55.9679 20.1428 56.0021C20.1124 56.0362 20.0934 56.0894 20.0934 56.154C20.0934 56.2261 20.1086 56.2831 20.1428 56.3172C20.177 56.3552 20.2187 56.3704 20.2719 56.3704C20.2985 56.3704 20.325 56.3666 20.3516 56.3552C20.3782 56.3438 20.401 56.3324 20.42 56.3172V56.2375H20.2795ZM20.663 55.8502H20.925C20.9896 55.8502 21.0389 55.854 21.0693 55.8654C21.0997 55.8768 21.1225 55.8957 21.1414 55.9261C21.1604 55.9527 21.168 55.9869 21.168 56.0248C21.168 56.0704 21.1528 56.1084 21.1263 56.1388C21.0997 56.1691 21.0579 56.1881 21.0047 56.1957C21.0313 56.2109 21.0541 56.2299 21.0693 56.2489C21.0883 56.2679 21.1111 56.302 21.1414 56.3476L21.2174 56.4691H21.0693L20.982 56.3362C20.9516 56.2869 20.9288 56.2603 20.9174 56.2451C20.906 56.2337 20.8946 56.2261 20.8794 56.2185C20.8642 56.2147 20.8453 56.2109 20.8149 56.2109H20.7883V56.4691H20.663V55.8502ZM20.7883 56.1122H20.8794C20.9402 56.1122 20.9744 56.1122 20.9896 56.1046C21.0047 56.1008 21.0161 56.0894 21.0237 56.078C21.0313 56.0666 21.0351 56.0514 21.0351 56.0324C21.0351 56.0135 21.0313 55.9945 21.0199 55.9831C21.0085 55.9717 20.9934 55.9641 20.9744 55.9603C20.963 55.9603 20.9326 55.9603 20.8832 55.9603H20.7845V56.116L20.7883 56.1122ZM21.2592 56.1615C21.2592 56.097 21.2668 56.0476 21.2857 56.0021C21.3009 55.9717 21.3199 55.9413 21.3427 55.9185C21.3655 55.8919 21.3921 55.8768 21.4224 55.8616C21.4604 55.8464 21.506 55.8388 21.5553 55.8388C21.6465 55.8388 21.7186 55.8654 21.7718 55.9223C21.8249 55.9793 21.8553 56.0552 21.8553 56.1577C21.8553 56.2603 21.8287 56.3362 21.7756 56.3932C21.7224 56.4501 21.6503 56.4767 21.5591 56.4767C21.468 56.4767 21.3959 56.4501 21.3389 56.3932C21.2819 56.3362 21.2592 56.2603 21.2592 56.1615ZM21.3883 56.1577C21.3883 56.2261 21.4035 56.2793 21.4376 56.3172C21.4718 56.3514 21.5098 56.3704 21.5591 56.3704C21.6085 56.3704 21.6503 56.3514 21.6807 56.3172C21.711 56.2831 21.73 56.2261 21.73 56.1577C21.73 56.0894 21.7148 56.0362 21.6845 55.9983C21.6541 55.9641 21.6123 55.9451 21.5591 55.9451C21.506 55.9451 21.468 55.9641 21.4338 55.9983C21.4035 56.0324 21.3883 56.0856 21.3883 56.1577ZM21.9541 55.8502H22.0794V56.1843C22.0794 56.2375 22.0794 56.2717 22.0832 56.2869C22.087 56.3134 22.1021 56.3324 22.1211 56.3476C22.1401 56.3628 22.1667 56.3704 22.2009 56.3704C22.235 56.3704 22.2616 56.3628 22.2806 56.3476C22.2996 56.3324 22.3072 56.3172 22.311 56.2944C22.311 56.2717 22.3148 56.2375 22.3148 56.1881V55.8464H22.4401V56.1691C22.4401 56.2413 22.4401 56.2944 22.4287 56.3248C22.4211 56.3552 22.4097 56.3818 22.3907 56.4008C22.3717 56.4236 22.349 56.4387 22.3186 56.4501C22.2882 56.4615 22.2502 56.4691 22.2009 56.4691C22.1439 56.4691 22.0983 56.4615 22.068 56.4501C22.0376 56.4349 22.0148 56.4198 21.9958 56.397C21.9768 56.3742 21.9654 56.3514 21.9616 56.3286C21.9541 56.2944 21.9503 56.2413 21.9503 56.1729V55.8426L21.9541 55.8502ZM22.573 56.4653V55.8502H22.7705C22.8464 55.8502 22.8958 55.8502 22.9185 55.8578C22.9527 55.8654 22.9831 55.8881 23.0059 55.9185C23.0287 55.9489 23.0401 55.9907 23.0401 56.04C23.0401 56.078 23.0325 56.1084 23.0211 56.135C23.0059 56.1615 22.9907 56.1805 22.9679 56.1957C22.9451 56.2109 22.9261 56.2185 22.9034 56.2261C22.873 56.2337 22.8312 56.2337 22.7743 56.2337H22.6945V56.4653H22.5692H22.573ZM22.6983 55.9527V56.1274H22.7667C22.816 56.1274 22.8464 56.1274 22.8654 56.116C22.8806 56.1084 22.8958 56.1008 22.9034 56.0856C22.911 56.0704 22.9185 56.0552 22.9185 56.0362C22.9185 56.0135 22.911 55.9945 22.8996 55.9793C22.8882 55.9641 22.8692 55.9565 22.8502 55.9527C22.835 55.9527 22.8046 55.9489 22.7629 55.9489H22.7021L22.6983 55.9527ZM16.4025 56.4653C16.4025 56.6742 16.5316 56.8982 16.7594 56.8982H23.2147C23.5489 56.8982 23.6894 56.7729 23.6894 56.4653V49.7518C23.6894 49.5126 23.5033 49.3569 23.2299 49.3569H16.805C16.6379 49.3569 16.4025 49.5392 16.4025 49.6683V56.4653ZM16 49.6303V56.4122C16 56.7159 16.1177 57.0045 16.3683 57.1488C16.4329 57.1868 16.5582 57.2551 16.6531 57.2551H23.3324C23.7463 57.2551 24.0767 56.9362 24.0767 56.5754V49.6721C24.0767 49.5202 23.9666 49.3227 23.8489 49.2126C23.7501 49.1215 23.5375 49.0076 23.3476 49.0076H16.7139C16.5734 49.0076 16.3531 49.1253 16.2506 49.2202C16.1557 49.3075 16 49.4936 16 49.6303ZM20.2757 53.3022C20.2377 53.3136 20.2187 53.3326 20.1694 53.344C19.9833 53.3972 19.8656 53.2984 19.8276 53.287L19.9111 53.5301C20.044 54.0389 19.8846 54.6085 19.52 54.9616C19.015 55.4439 18.2442 55.5426 17.648 55.1439C17.5872 55.1021 17.5189 55.0566 17.4809 54.9996C18.2138 54.9996 18.1302 53.9364 17.4657 53.9554C17.2873 53.9592 17.0784 54.0845 17.0442 54.2288H17.0177C17.0177 54.1756 16.9987 54.13 16.9949 54.0883C16.9797 53.9743 16.9949 53.7161 17.0139 53.625C17.048 53.4503 17.1088 53.2794 17.1923 53.1503C17.2303 53.0858 17.2797 53.0136 17.329 52.9605C17.3594 52.9263 17.3746 52.9035 17.405 52.8731C17.5037 52.7668 17.7429 52.5997 17.8872 52.5428C18.0239 52.4896 18.2214 52.4213 18.4188 52.4213C18.8403 52.4213 19.0871 52.5124 19.3985 52.744C19.5238 52.839 19.6074 52.9415 19.7061 53.0744C19.7061 52.9757 19.7175 52.9187 19.7706 52.8542L19.8162 52.8048C20.0554 52.577 20.4807 52.7934 20.4124 53.0896L20.4352 53.0706C20.4352 53.0706 20.4466 53.0554 20.4541 53.0478L20.7389 52.7782C21.1718 52.4706 21.7452 52.4175 22.2123 52.6339C22.2958 52.6719 22.349 52.7061 22.4211 52.7516C22.7515 52.9719 22.9603 53.2832 23.0552 53.6782C23.116 53.944 23.0742 54.0237 23.0742 54.2553C23.0211 54.2401 23.0249 54.206 22.9907 54.1642C22.8578 54.0047 22.5768 53.9364 22.3528 54.0769C22.2768 54.1262 22.2237 54.168 22.1743 54.2515C21.9844 54.5781 22.1287 55.0414 22.6414 55.0414C22.5958 55.1059 22.5274 55.1515 22.4591 55.1971L22.2578 55.3186C21.525 55.6603 20.7313 55.3983 20.3288 54.7338C20.2605 54.6199 20.2187 54.5287 20.1807 54.392C20.12 54.1832 20.1124 54.0465 20.1314 53.8035C20.1542 53.5225 20.2605 53.3858 20.2795 53.3022H20.2757ZM18.6087 51.2138C18.6087 50.8948 18.734 50.5416 18.9277 50.2986C19.034 50.1619 19.1935 50.0138 19.3454 49.9303C19.539 49.824 19.5162 49.8544 19.6529 49.7898C19.6226 49.9189 19.4934 50.0404 19.6377 50.3176C19.6795 50.3974 19.7099 50.4315 19.7858 50.4847C20.0782 50.6821 20.4655 50.5682 20.5833 50.272C20.6858 50.0176 20.5719 49.8885 20.5491 49.7898C20.6136 49.824 20.6972 49.8506 20.7655 49.8847C20.9592 49.9797 21.1225 50.124 21.2592 50.2872C21.8212 50.9783 21.6313 52.0226 20.8605 52.4858C20.4997 52.7023 20.082 52.7478 19.6719 52.6339C19.4934 52.5846 19.3492 52.501 19.2049 52.3947C19.1441 52.3491 18.9732 52.1934 18.9315 52.1289C18.7416 51.8517 18.6125 51.5783 18.6125 51.2138H18.6087Z" fill="#2171B5"/>
<path fill-rule="evenodd" clip-rule="evenodd" d="M48.1815 50.7125C48.1815 51.0353 48.0714 51.3049 47.8246 51.5289C47.6043 51.7302 47.3575 51.8213 47.0879 51.8213C46.7993 51.8213 46.5449 51.7302 46.3285 51.5403C46.0854 51.3391 45.9639 51.0581 45.9639 50.7239C45.9639 50.3898 46.0778 50.1012 46.3171 49.8809C46.5373 49.6911 46.7955 49.5999 47.0879 49.5999C47.3651 49.5999 47.6119 49.6987 47.8322 49.8885C48.0714 50.1088 48.1853 50.3822 48.1853 50.7125H48.1815Z" fill="#2171B5"/>
<path fill-rule="evenodd" clip-rule="evenodd" d="M39.5922 52.1099H41.4984V52.9681C41.7756 52.6149 42.068 52.3643 42.3642 52.2162C42.6527 52.0643 43.0135 51.9922 43.4312 51.9922C43.9894 51.9922 44.4336 52.1593 44.7564 52.4934C45.0792 52.82 45.2349 53.3288 45.2349 54.0237V57.3463H43.1844V54.4718C43.1844 54.1376 43.116 53.9136 42.9945 53.7693C42.8692 53.6364 42.6983 53.568 42.4705 53.568C42.2237 53.568 42.0262 53.6592 41.8743 53.8452C41.7186 54.0275 41.6351 54.3541 41.6351 54.8401V57.3463H39.5922V52.1099ZM48.8954 52.1099H50.8016V52.9681C51.0826 52.6149 51.3712 52.3643 51.6598 52.2162C51.9522 52.0643 52.3053 51.9922 52.723 51.9922C53.2926 51.9922 53.7369 52.1593 54.0596 52.4934C54.3748 52.82 54.5381 53.3288 54.5381 54.0237V57.3463H52.48V54.4718C52.48 54.1376 52.4192 53.9136 52.3015 53.7693C52.1724 53.6364 52.0015 53.568 51.7737 53.568C51.5269 53.568 51.3218 53.6592 51.1661 53.8452C51.0142 54.0275 50.9383 54.3541 50.9383 54.8401V57.3463H48.8954V52.1099ZM45.9601 57.3463H48.1815V52.1099H45.9601V57.3463ZM32.7496 52.501C32.7572 54.4414 31.2497 55.3072 29.6358 55.1249V53.6668C30.2054 53.5984 30.6497 53.2149 30.6649 52.3871C30.6801 51.8175 30.2396 51.3732 29.6358 51.3201V49.9645C29.7384 49.9569 29.8523 49.9569 29.97 49.9569C31.5686 49.9721 32.742 50.6897 32.7534 52.501H32.7496ZM29.6358 55.1249V53.6668C29.3131 53.7009 28.9485 53.6402 28.5992 53.5073V51.5631C28.9561 51.3543 29.3245 51.2897 29.6358 51.3201V49.9645C29.2371 49.9911 28.9372 50.0822 28.5992 50.2227V49.9569H26.2943V57.3463H28.5992V54.8743C28.9372 55.0072 29.2903 55.0945 29.6358 55.1249ZM35.943 51.9922C36.524 51.9922 36.9987 52.0264 37.3594 52.0909C37.7353 52.1631 38.0391 52.3074 38.2859 52.5238C38.6619 52.8504 38.8821 53.4541 38.8821 53.9364V57.3463H36.9759V56.7539C36.7367 56.9552 36.3607 57.1222 35.9468 57.221V56.2793C36.0759 56.2527 36.2051 56.2109 36.3228 56.1426C36.5202 56.0438 36.6531 55.9185 36.7367 55.7742C36.8164 55.6261 36.8582 55.4325 36.8582 55.197V54.8895C36.581 54.992 36.2848 55.0641 35.981 55.1401C35.9734 55.1401 35.9582 55.1439 35.9468 55.1439V54.1566C36.0228 54.1414 36.0911 54.1224 36.1443 54.1072C36.3645 54.0465 36.6038 53.9667 36.8582 53.8642C36.8582 53.6136 36.8088 53.4389 36.7063 53.3364C36.6038 53.2453 36.4177 53.1959 36.1633 53.1959C36.0873 53.1959 36.019 53.1959 35.9506 53.2073V51.9884L35.943 51.9922ZM35.0925 53.83C35.1722 53.5946 35.2823 53.4465 35.4114 53.363C35.5405 53.2794 35.719 53.2301 35.9468 53.2111V51.9922H35.8975C35.514 51.9922 35.1646 52.0264 34.8343 52.0757C34.5115 52.1365 34.2533 52.2162 34.0672 52.3188C33.8166 52.463 33.6077 52.6263 33.4748 52.8276C33.3381 53.0174 33.228 53.287 33.1597 53.6212L35.1001 53.83H35.0925ZM35.943 56.2793C35.8595 56.2944 35.7722 56.302 35.6886 56.302C35.4646 56.302 35.3051 56.2527 35.195 56.1615C35.0849 56.0628 35.0241 55.9451 35.0241 55.7932C35.0241 55.6603 35.0849 55.5502 35.195 55.4439C35.3051 55.3527 35.5519 55.2502 35.943 55.1515V54.1642C35.6696 54.2288 35.2444 54.3123 34.652 54.4414C34.0216 54.5667 33.5888 54.7566 33.3495 55.0186C33.1103 55.2768 32.9926 55.6034 32.9926 56.0135C32.985 56.9552 33.9381 57.3501 34.9406 57.3501C35.2823 57.3501 35.6203 57.3083 35.943 57.2248V56.2793Z" fill="#FF0000"/>
<path fill-rule="evenodd" clip-rule="evenodd" d="M85.0564 50.7885C85.0564 51.0695 84.9615 51.3011 84.745 51.4948C84.5552 51.6694 84.3387 51.7454 84.1071 51.7454C83.8565 51.7454 83.6362 51.6656 83.4502 51.5023C83.2375 51.3277 83.135 51.0847 83.135 50.7961C83.135 50.5075 83.2337 50.2569 83.4426 50.067C83.6324 49.9037 83.8565 49.824 84.1071 49.824C84.3463 49.824 84.5627 49.9075 84.7526 50.0746C84.9615 50.2645 85.0564 50.5037 85.0564 50.7847V50.7885Z" fill="#2171B5"/>
<path fill-rule="evenodd" clip-rule="evenodd" d="M83.135 52.0833H85.0564V57.221H83.135V52.0833ZM80.2339 54.8021C79.9567 54.9009 79.6719 54.992 79.3719 55.0679C78.9656 55.1781 78.7074 55.2882 78.6011 55.3945C78.4872 55.5046 78.434 55.6299 78.434 55.7704C78.434 55.9299 78.491 56.0628 78.5973 56.1653C78.7074 56.2679 78.8707 56.3172 79.0834 56.3172C79.296 56.3172 79.5162 56.2603 79.7099 56.1502C79.8998 56.04 80.0365 55.9071 80.12 55.7476C80.1997 55.5882 80.2415 55.3831 80.2415 55.1287V54.8021H80.2339ZM78.4986 53.7427L76.5848 53.5377C76.6569 53.1997 76.7594 52.9339 76.8961 52.7402C77.0328 52.5466 77.2265 52.3757 77.4847 52.2352C77.667 52.1327 77.9214 52.0529 78.2404 51.996C78.5593 51.939 78.9087 51.9124 79.2846 51.9124C79.8846 51.9124 80.3668 51.9466 80.7276 52.015C81.0921 52.0833 81.3959 52.2238 81.6351 52.4403C81.806 52.5884 81.9427 52.801 82.0376 53.0744C82.1363 53.3478 82.1857 53.6098 82.1857 53.8566V56.1881C82.1857 56.4387 82.2009 56.6324 82.2313 56.7729C82.2616 56.9134 82.33 57.0919 82.4363 57.3121H80.5605C80.4845 57.1754 80.4352 57.0729 80.4124 57.0045C80.3896 56.9324 80.3668 56.8223 80.344 56.6704C80.082 56.9248 79.82 57.1071 79.5618 57.2134C79.2087 57.3577 78.7948 57.4336 78.3277 57.4336C77.705 57.4336 77.2303 57.2893 76.9075 56.9931C76.5848 56.7008 76.4215 56.34 76.4215 55.9147C76.4215 55.5122 76.5354 55.1819 76.7708 54.9236C77.0063 54.6654 77.4354 54.4718 78.0619 54.3465C78.8137 54.1946 79.2998 54.0883 79.5238 54.0237C79.7479 53.963 79.9833 53.8832 80.2339 53.7845C80.2339 53.5339 80.1845 53.363 80.082 53.2605C79.9795 53.1617 79.8048 53.1124 79.5466 53.1124C79.2201 53.1124 78.9732 53.1655 78.81 53.2719C78.6808 53.3554 78.5783 53.5111 78.5024 53.7427H78.4986ZM58.1872 51.2973L58.1948 55.9299C58.3543 55.9831 58.5062 56.0097 58.6505 56.0097C58.9087 56.0097 59.1441 55.9337 59.3416 55.7704C59.5428 55.6072 59.7099 55.3565 59.8276 55.0148C59.9529 54.6578 60.0251 54.206 60.0289 53.6516C60.0365 53.2301 59.9947 52.8504 59.9073 52.5276C59.801 52.1289 59.6264 51.8137 59.4023 51.5935C59.1783 51.377 58.9011 51.2555 58.5859 51.2479C58.4606 51.2479 58.3277 51.2593 58.191 51.2935L58.1872 51.2973ZM56.057 49.9948H58.0201V50.291C58.5821 50.029 59.1175 49.9227 59.5998 49.9531C60.0744 49.9797 60.4997 50.1353 60.8643 50.3936C61.225 50.6518 61.5212 51.0125 61.7376 51.453C62.0224 52.0416 62.1629 52.7668 62.1173 53.5794C62.0794 54.5857 61.9199 55.3755 61.6617 55.9717C61.4338 56.5071 61.1225 56.8868 60.7503 57.1336C60.3782 57.3767 59.9415 57.483 59.4555 57.464C59.0112 57.445 58.5214 57.3235 58.0087 57.1109V57.4336H55.9734C55.9848 54.954 55.9962 52.4744 56.0114 49.9986H56.057V49.9948ZM71.675 54.7034C71.675 55.1477 71.7661 55.4704 71.9522 55.6679C72.1344 55.8692 72.3661 55.9679 72.647 55.9679C72.9053 55.9679 73.1255 55.8692 73.3002 55.6755C73.4786 55.478 73.566 55.1515 73.566 54.6882C73.566 54.2819 73.4786 53.9819 73.3078 53.7921C73.1369 53.6022 72.928 53.5035 72.6812 53.5035C72.385 53.5035 72.1458 53.6022 71.9597 53.8035C71.7699 54.0009 71.6788 54.3047 71.6788 54.7072L71.675 54.7034ZM69.4916 50.2037H71.6939V52.6529C71.9104 52.4479 72.1572 52.2922 72.4344 52.1896C72.7116 52.0871 73.0154 52.0378 73.3495 52.0378C74.0406 52.0378 74.614 52.2618 75.0659 52.7137C75.5178 53.1655 75.7456 53.8111 75.7456 54.654C75.7456 55.216 75.6431 55.7097 75.4342 56.1388C75.2292 56.5678 74.9406 56.8868 74.576 57.0957C74.2115 57.3083 73.8052 57.4108 73.3609 57.4108C72.9812 57.4108 72.6281 57.3349 72.3129 57.1868C72.0737 57.0691 71.8117 56.8526 71.5307 56.5299V57.2893H69.4916V50.2037ZM68.4245 57.3653H66.6322V56.5375C66.3664 56.8792 66.0968 57.1222 65.8272 57.2665C65.5538 57.4108 65.2235 57.483 64.8248 57.483C64.2969 57.483 63.8868 57.3197 63.5831 56.9969C63.2831 56.6742 63.135 56.1729 63.135 55.497V52.2238H65.064V55.0566C65.064 55.3793 65.1209 55.6072 65.2387 55.7439C65.3526 55.8806 65.5159 55.9451 65.7247 55.9451C65.9525 55.9451 66.1386 55.854 66.2829 55.6755C66.4272 55.4932 66.4993 55.1705 66.4993 54.6996V52.2238H68.4207V57.3615L68.4245 57.3653Z" fill="#3B720D"/>
<path fill-rule="evenodd" clip-rule="evenodd" d="M36.9341 61.4967L38.0467 61.4283C38.0695 61.6068 38.1189 61.7435 38.1948 61.8346C38.3163 61.9865 38.4872 62.0624 38.7112 62.0624C38.8783 62.0624 39.0074 62.0245 39.0985 61.9447C39.1897 61.8688 39.2352 61.7776 39.2352 61.6751C39.2352 61.5726 39.1935 61.4929 39.1061 61.4131C39.0188 61.3372 38.8213 61.265 38.5062 61.1967C37.9935 61.0828 37.6252 60.9309 37.4088 60.741C37.1885 60.5511 37.0784 60.3119 37.0784 60.0195C37.0784 59.8297 37.1354 59.6474 37.2493 59.4765C37.3632 59.3057 37.5303 59.169 37.7581 59.074C37.986 58.9753 38.2973 58.9259 38.6922 58.9259C39.1783 58.9259 39.5466 59.0133 39.801 59.1917C40.0554 59.3702 40.2073 59.6512 40.2567 60.0423L39.1555 60.1069C39.1251 59.936 39.0644 59.8145 38.9694 59.7347C38.8745 59.6588 38.7454 59.6208 38.5783 59.6208C38.4416 59.6208 38.3391 59.6512 38.2707 59.7044C38.2024 59.7613 38.1682 59.8297 38.1682 59.9132C38.1682 59.974 38.1948 60.0271 38.2518 60.0727C38.3049 60.1221 38.4378 60.1676 38.6429 60.2094C39.1555 60.3195 39.5238 60.4296 39.7441 60.5398C39.9643 60.6499 40.1276 60.7904 40.2263 60.9536C40.3288 61.1169 40.3782 61.303 40.3782 61.508C40.3782 61.7473 40.3099 61.9675 40.177 62.1726C40.0403 62.3738 39.8542 62.5295 39.6112 62.632C39.3681 62.7383 39.0644 62.7877 38.6998 62.7877C38.0543 62.7877 37.6062 62.6662 37.3594 62.4194C37.1126 62.1726 36.9721 61.865 36.9379 61.4853L36.9341 61.4967ZM40.5946 60.0195H41.7072L42.273 61.827L42.797 60.0195H43.8337L42.7439 62.9206C42.6186 63.251 42.4933 63.4712 42.3642 63.5889C42.1819 63.7522 41.9047 63.8319 41.5288 63.8319C41.3769 63.8319 41.1414 63.813 40.8263 63.7712L40.7427 63.0459C40.8946 63.0915 41.0617 63.1181 41.2516 63.1181C41.3769 63.1181 41.4756 63.0915 41.5553 63.0345C41.6313 62.9814 41.6958 62.8788 41.749 62.7383L40.5946 60.0233V60.0195ZM45.0108 60.8967L44.0046 60.7904C44.0425 60.6157 44.0957 60.479 44.1678 60.3803C44.24 60.2815 44.3425 60.1942 44.4754 60.1221C44.5703 60.0689 44.7032 60.0271 44.8741 60.0005C45.0412 59.9702 45.2273 59.9588 45.4247 59.9588C45.7399 59.9588 45.9943 59.9778 46.1842 60.0119C46.374 60.0461 46.5335 60.1183 46.6626 60.2322C46.7538 60.3081 46.8221 60.4182 46.8753 60.5587C46.9284 60.6992 46.9512 60.8321 46.9512 60.9612V62.1612C46.9512 62.2903 46.9588 62.389 46.9778 62.4611C46.993 62.5333 47.0309 62.6244 47.0841 62.7383H46.0968C46.0589 62.67 46.0323 62.6168 46.0209 62.5789C46.0095 62.5409 45.9981 62.4839 45.9829 62.408C45.8462 62.5371 45.7095 62.632 45.5728 62.689C45.3867 62.7649 45.1703 62.8029 44.9235 62.8029C44.5969 62.8029 44.3463 62.727 44.1754 62.5789C44.0046 62.4308 43.921 62.2447 43.921 62.0245C43.921 61.8194 43.9818 61.6485 44.1033 61.5156C44.2248 61.3827 44.4526 61.284 44.783 61.2195C45.1779 61.1397 45.4323 61.0866 45.55 61.0524C45.6677 61.022 45.7931 60.9802 45.9222 60.9271C45.9222 60.798 45.8956 60.7106 45.8424 60.6575C45.7893 60.6043 45.6943 60.5815 45.5614 60.5815C45.3905 60.5815 45.2614 60.6081 45.1741 60.6651C45.1058 60.7068 45.0526 60.7904 45.0108 60.9081V60.8967ZM45.9222 61.4397C45.7779 61.4929 45.626 61.5346 45.4665 61.5764C45.2538 61.6334 45.1171 61.6903 45.0602 61.7435C44.9994 61.8004 44.9729 61.865 44.9729 61.9371C44.9729 62.0207 45.0032 62.089 45.0602 62.1384C45.1171 62.1915 45.2045 62.2181 45.3146 62.2181C45.4247 62.2181 45.5424 62.1877 45.645 62.1346C45.7475 62.0776 45.8158 62.0093 45.8614 61.9257C45.907 61.8422 45.926 61.7359 45.926 61.6068V61.4397H45.9222ZM47.5929 60.0157H48.5802V60.46C48.6752 60.2663 48.7739 60.1334 48.8726 60.0613C48.9751 59.9892 49.1004 59.955 49.2485 59.955C49.4042 59.955 49.5751 60.0043 49.7612 60.0993L49.4346 60.8359C49.3093 60.7828 49.2106 60.76 49.1384 60.76C49.0017 60.76 48.8916 60.8169 48.8156 60.9271C48.7055 61.0866 48.6524 61.3827 48.6524 61.8194V62.7308H47.5929V60.0157ZM49.9738 60.0157H51.0294V62.7308H49.9738V60.0157ZM52.666 60.8929L51.6598 60.7866C51.6977 60.6119 51.7509 60.4752 51.823 60.3765C51.8952 60.2777 51.9977 60.1904 52.1306 60.1183C52.2256 60.0651 52.3585 60.0233 52.5293 59.9967C52.6964 59.9664 52.8825 59.955 53.0799 59.955C53.3951 59.955 53.6495 59.974 53.8394 60.0081C54.0292 60.0423 54.1887 60.1145 54.3178 60.2284C54.409 60.3043 54.4773 60.4144 54.5305 60.5549C54.5836 60.6954 54.6064 60.8283 54.6064 60.9574V62.1574C54.6064 62.2865 54.614 62.3852 54.633 62.4573C54.6482 62.5295 54.6862 62.6206 54.7393 62.7345H53.752C53.7141 62.6662 53.6875 62.613 53.6761 62.5751C53.6647 62.5371 53.6533 62.4801 53.6381 62.4042C53.5014 62.5333 53.3647 62.6282 53.228 62.6852C53.042 62.7611 52.8255 62.7991 52.5787 62.7991C52.2521 62.7991 52.0015 62.7232 51.8306 62.5751C51.6598 62.427 51.5762 62.2409 51.5762 62.0207C51.5762 61.8156 51.637 61.6447 51.7585 61.5118C51.88 61.3789 52.1078 61.2802 52.4382 61.2157C52.8331 61.1359 53.0913 61.0828 53.2052 61.0486C53.323 61.0182 53.4483 60.9764 53.5774 60.9233C53.5774 60.7942 53.5508 60.7068 53.4976 60.6537C53.4445 60.6005 53.3495 60.5777 53.2166 60.5777C53.0458 60.5777 52.9167 60.6043 52.8293 60.6613C52.761 60.703 52.7078 60.7866 52.666 60.9043V60.8929ZM53.5774 61.4359C53.4331 61.4891 53.2812 61.5308 53.1217 61.5726C52.9091 61.6296 52.7724 61.6865 52.7154 61.7397C52.6546 61.7966 52.6281 61.8612 52.6281 61.9333C52.6281 62.0169 52.6584 62.0852 52.7154 62.1346C52.7724 62.1877 52.8597 62.2143 52.9698 62.2143C53.0799 62.2143 53.1977 62.184 53.3002 62.1308C53.4027 62.0738 53.4711 62.0055 53.5166 61.9219C53.5584 61.8384 53.5812 61.7321 53.5812 61.603V61.4359H53.5774ZM55.2368 58.9829H56.2924V60.3613C56.4367 60.2132 56.5772 60.1069 56.7177 60.0461C56.8582 59.9816 57.0253 59.9512 57.2189 59.9512C57.5037 59.9512 57.7315 60.0385 57.8948 60.2094C58.0581 60.3803 58.1416 60.6461 58.1416 61.003V62.727H57.0822V61.2346C57.0822 61.0638 57.0518 60.9423 56.9873 60.8739C56.9227 60.8018 56.8354 60.7676 56.7177 60.7676C56.5924 60.7676 56.4898 60.8169 56.4101 60.9119C56.3304 61.0068 56.2924 61.1777 56.2924 61.4245V62.727H55.2368V58.9829ZM60.6136 58.9829H62.8122C63.1768 58.9829 63.4578 59.074 63.6552 59.2525C63.8527 59.431 63.9476 59.6512 63.9476 59.917C63.9476 60.1372 63.8792 60.3271 63.7388 60.4866C63.6476 60.5929 63.5109 60.6764 63.3287 60.7372C63.6021 60.8018 63.7995 60.9119 63.9286 61.0714C64.0577 61.2308 64.1223 61.4283 64.1223 61.6637C64.1223 61.8574 64.0767 62.0321 63.9856 62.1877C63.8944 62.3434 63.7691 62.4649 63.6096 62.5561C63.5109 62.613 63.3628 62.651 63.1616 62.6776C62.8958 62.7118 62.7211 62.7308 62.6376 62.7308H60.6136V58.9829ZM61.7946 60.4524H62.3072C62.4895 60.4524 62.6186 60.422 62.6907 60.3575C62.7629 60.2929 62.797 60.2056 62.797 60.0879C62.797 59.9778 62.7629 59.8942 62.6907 59.8335C62.6186 59.7727 62.4933 59.7423 62.3148 59.7423H61.7946V60.4524ZM61.7946 61.9219H62.3945C62.5958 61.9219 62.7401 61.8878 62.8236 61.8156C62.9072 61.7435 62.9489 61.6523 62.9489 61.5308C62.9489 61.4207 62.9072 61.3296 62.8274 61.265C62.7439 61.1967 62.5996 61.1625 62.3945 61.1625H61.7984V61.9219H61.7946ZM65.626 60.8929L64.6197 60.7866C64.6577 60.6119 64.7108 60.4752 64.783 60.3765C64.8551 60.2777 64.9577 60.1904 65.0906 60.1183C65.1855 60.0651 65.3184 60.0233 65.4893 59.9967C65.6564 59.9664 65.8424 59.955 66.0399 59.955C66.355 59.955 66.6095 59.974 66.7993 60.0081C66.9892 60.0423 67.1487 60.1145 67.2778 60.2284C67.3689 60.3043 67.4373 60.4144 67.4904 60.5549C67.5436 60.6954 67.5664 60.8283 67.5664 60.9574V62.1574C67.5664 62.2865 67.574 62.3852 67.5929 62.4573C67.6081 62.5295 67.6461 62.6206 67.6993 62.7345H66.712C66.674 62.6662 66.6474 62.613 66.636 62.5751C66.6246 62.5371 66.6133 62.4801 66.5981 62.4042C66.4614 62.5333 66.3247 62.6282 66.188 62.6852C66.0019 62.7611 65.7855 62.7991 65.5386 62.7991C65.2121 62.7991 64.9615 62.7232 64.7906 62.5751C64.6197 62.427 64.5362 62.2409 64.5362 62.0207C64.5362 61.8156 64.5969 61.6447 64.7184 61.5118C64.8399 61.3789 65.0678 61.2802 65.3981 61.2157C65.7931 61.1359 66.0475 61.0828 66.1652 61.0486C66.2829 61.0182 66.4082 60.9764 66.5373 60.9233C66.5373 60.7942 66.5107 60.7068 66.4576 60.6537C66.4044 60.6005 66.3095 60.5777 66.1766 60.5777C66.0057 60.5777 65.8766 60.6043 65.7893 60.6613C65.7209 60.703 65.6677 60.7866 65.626 60.9043V60.8929ZM66.5373 61.4359C66.393 61.4891 66.2411 61.5308 66.0816 61.5726C65.869 61.6296 65.7323 61.6865 65.6753 61.7397C65.6146 61.7966 65.588 61.8612 65.588 61.9333C65.588 62.0169 65.6184 62.0852 65.6753 62.1346C65.7323 62.1877 65.8196 62.2143 65.9298 62.2143C66.0399 62.2143 66.1576 62.184 66.2601 62.1308C66.3626 62.0738 66.431 62.0055 66.4766 61.9219C66.5183 61.8384 66.5411 61.7321 66.5411 61.603V61.4359H66.5373ZM68.1967 60.0119H69.1802V60.4524C69.3283 60.2701 69.4726 60.141 69.6245 60.0651C69.7763 59.9892 69.9586 59.9474 70.1713 59.9474C70.4636 59.9474 70.6915 60.0309 70.8548 60.2056C71.018 60.3765 71.1016 60.6423 71.1016 60.9992V62.7232H70.0422V61.2308C70.0422 61.06 70.0118 60.9385 69.9472 60.8701C69.8827 60.798 69.7953 60.7638 69.6776 60.7638C69.5523 60.7638 69.446 60.8132 69.37 60.9081C69.2903 61.003 69.2523 61.1739 69.2523 61.4207V62.7232H68.1967V60.0081V60.0119ZM71.7319 58.9829H72.8065V60.9119L73.5926 60.0157H74.8874L73.9001 60.965L74.9444 62.7308H73.7596L73.2014 61.6447L72.8027 62.0283V62.7345H71.7281V58.9905L71.7319 58.9829Z" fill="#3B720D"/>
<path fill-rule="evenodd" clip-rule="evenodd" d="M50.5244 59.7385C50.8396 59.7385 51.094 59.4803 51.094 59.169C51.094 58.8576 50.8358 58.5994 50.5244 58.5994C50.213 58.5994 49.9548 58.8576 49.9548 59.169C49.9548 59.4803 50.213 59.7385 50.5244 59.7385Z" fill="#2171B5"/>
</g>
</g>
<rect x="1" y="1" width="110" height="110" rx="9" stroke="#CCCCCC" stroke-width="2"/>
<defs>
<linearGradient id="paint0_linear_642_1029" x1="91.0104" y1="54.8629" x2="93.7748" y2="48.943" gradientUnits="userSpaceOnUse">
<stop stop-color="#406F3D"/>
<stop offset="0.68" stop-color="#72C380"/>
<stop offset="1" stop-color="#406F3D"/>
</linearGradient>
<linearGradient id="paint1_linear_642_1029" x1="89.8599" y1="54.8363" x2="92.7572" y2="49.7708" gradientUnits="userSpaceOnUse">
<stop stop-color="#FFF9AE"/>
<stop offset="0.26" stop-color="#ABA048"/>
<stop offset="0.73" stop-color="#E5E3DD"/>
<stop offset="1" stop-color="#C7BC84"/>
</linearGradient>
<clipPath id="clip0_642_1029">
<rect x="2" y="2" width="108" height="108" rx="8" fill="white"/>
</clipPath>
<clipPath id="clip1_642_1029">
<rect width="80" height="14.832" fill="white" transform="translate(16 49)"/>
</clipPath>
</defs>
</svg>
