<svg width="112" height="112" viewBox="0 0 112 112" fill="none" xmlns="http://www.w3.org/2000/svg">
<g clip-path="url(#clip0_6_7385)">
<rect x="2" y="2" width="108" height="108" rx="8" fill="white"/>
<path fill-rule="evenodd" clip-rule="evenodd" d="M67.6181 76.645C67.6264 76.4926 67.6352 76.2483 67.6431 75.9135V69.4932L67.6223 68.8702C67.6172 68.7377 67.6107 68.6477 67.6043 68.6006C67.5974 68.5507 67.5867 68.5077 67.572 68.468C67.5239 68.3097 67.4173 68.1979 67.257 68.131C67.1093 68.0686 66.8909 68.0386 66.6073 68.0363V67.8179H70.2737C70.8066 67.8188 71.2882 67.8534 71.7181 67.9227C72.1476 67.9915 72.4934 68.0866 72.758 68.2076C73.5246 68.571 73.9032 69.1828 73.899 70.0533C73.9078 71.2973 73.0896 72.092 71.3958 72.2965L71.1118 72.3422C71.4928 72.3561 72.0081 72.4831 72.2478 72.5385C72.4856 72.5934 72.7188 72.6807 72.9473 72.7998C73.8464 73.2515 74.2892 73.9736 74.2805 74.9724C74.2851 76.1855 73.6936 76.9742 72.493 77.3468C72.2307 77.4216 71.9019 77.4807 71.5043 77.5237C71.1054 77.5666 70.6722 77.5888 70.2054 77.5897H66.6073V77.3708C67.0308 77.3658 67.3221 77.3011 67.451 77.1492C67.505 77.0975 67.5433 77.0407 67.5687 76.9756C67.5946 76.9095 67.6098 76.7969 67.6181 76.645ZM68.7476 68.118V72.1926H70.1782C71.8419 72.1829 72.7035 71.4917 72.7128 70.1078C72.7243 68.7645 71.816 68.1088 70.0553 68.118H68.7476ZM72.9991 74.8635C72.9898 73.9136 72.6463 73.2422 71.9615 72.8668C71.7537 72.7606 71.4896 72.6789 71.1723 72.6211C70.8556 72.5639 70.506 72.5348 70.1237 72.5334H68.7476V77.2891H70.1237C71.1206 77.2937 71.8493 77.1076 72.2981 76.7174C72.5258 76.5304 72.6985 76.2765 72.8185 75.9578C72.9381 75.6392 72.9977 75.2735 72.9991 74.8635Z" fill="#3A3A3A"/>
<path d="M79.528 77.3108C79.4536 77.1635 79.4015 76.9885 79.3788 76.541L79.3724 76.4085L79.2842 76.5078C79.1793 76.6265 79.0764 76.729 78.9757 76.8162C78.8746 76.9044 78.7573 76.9945 78.6257 77.0859C78.3362 77.2983 78.0573 77.4479 77.7899 77.5352C77.5225 77.622 77.221 77.6645 76.8853 77.6617C76.3007 77.664 75.8519 77.5255 75.5309 77.2526C75.3513 77.091 75.2105 76.8883 75.1075 76.6422C75.0045 76.3965 74.9519 76.1324 74.9496 75.8489C74.9565 74.8034 75.5984 74.1288 76.9112 73.83C77.2584 73.7497 77.6255 73.6836 78.0115 73.6319C78.399 73.5802 78.8376 73.5377 79.3285 73.5045L79.3788 72.5925C79.3797 72.2808 79.3645 72.0282 79.334 71.8357C79.3036 71.6408 79.2532 71.4709 79.1826 71.3273C78.9877 70.9477 78.5906 70.7658 78.0166 70.7658C77.0959 70.7611 76.5967 71.1994 76.545 72.0712C76.5394 72.2097 76.5265 72.3071 76.5085 72.3662C76.491 72.4216 76.4609 72.4627 76.4185 72.4928C76.327 72.5542 76.1811 72.5897 75.9715 72.592C75.5203 72.599 75.3513 72.4646 75.3587 72.2388C75.3615 72.0024 75.44 71.7738 75.5974 71.5535C75.7549 71.3323 75.9742 71.1402 76.2578 70.9763C76.7675 70.6937 77.4205 70.5497 78.2212 70.5473C79.0971 70.5497 79.6845 70.7482 80.0054 71.1273C80.1352 71.2871 80.2317 71.4843 80.2945 71.723C80.3568 71.9617 80.3887 72.2642 80.3882 72.6322L80.3869 72.7102L80.3799 73.0667L80.361 74.0083L80.3471 75.303L80.3338 75.9301C80.3347 76.2252 80.3471 76.4501 80.3675 76.7017C80.3878 76.9469 80.4755 77.2203 80.6718 77.2928C80.8763 77.3685 81.073 77.3985 81.4475 77.4008C81.7227 77.3953 81.9347 77.3639 82.0783 77.3029C82.2422 77.2332 82.3429 77.0855 82.3863 76.8758C82.4288 76.6713 82.4472 76.36 82.4426 75.9431V72.2887C82.4519 71.7913 82.3941 71.4413 82.2524 71.2585C82.1139 71.0798 81.8562 71.0026 81.502 71.0063V70.8124L83.4516 70.6702V72.2231L83.5532 72.0421C83.8418 71.5281 84.1692 71.1647 84.5335 70.9463C84.8978 70.7279 85.3545 70.6198 85.9045 70.6254C86.731 70.6143 87.3068 70.8914 87.6439 71.445C87.7672 71.6302 87.8573 71.8537 87.9108 72.115C87.9644 72.3769 87.9912 72.7116 87.9898 73.1194V75.9431C87.9847 76.3642 88.0023 76.6777 88.0429 76.8814C88.0845 77.091 88.1842 77.2383 88.3486 77.3062C88.4843 77.3621 88.8011 77.3925 89.0712 77.3999C89.3243 77.3921 89.5201 77.3611 89.654 77.3025C89.8138 77.2328 89.9103 77.0845 89.9514 76.8749C89.9911 76.6713 90.0082 76.3596 90.0031 75.9431V69.3038C90.0082 68.9233 89.9925 68.6412 89.9541 68.4592C89.9144 68.2695 89.8165 68.1388 89.6563 68.0825C89.5173 68.0335 89.3091 68.0104 89.0357 68.0095V67.8151L91.0633 67.7117C91.0379 68.1619 91.0185 68.6223 91.0056 69.0928C90.9917 69.5841 90.9853 70.0131 90.9853 70.3802V74.8404L93.2193 72.3926C93.5351 72.0425 93.7078 71.7484 93.7101 71.5129C93.7263 71.185 93.3952 71.0368 92.8517 71.0096V70.8161H95.7548V71.0128C95.5803 71.0331 95.4284 71.065 95.2995 71.1093C95.1591 71.1569 95.0151 71.2261 94.8682 71.3148C94.7191 71.4048 94.5944 71.4875 94.4933 71.5628C94.3903 71.6399 94.2689 71.7493 94.1289 71.8915C93.989 72.0333 93.7868 72.2485 93.5208 72.5375L92.7834 73.3313L94.7135 76.3674C94.9338 76.7271 95.1365 76.9816 95.3226 77.1261C95.5004 77.2637 95.7271 77.3524 96 77.3944V77.5929H94.2347C94.1862 77.4941 94.1197 77.3662 94.0347 77.2092L93.754 76.6971L93.5393 76.3115L92.1106 73.9833L90.988 75.2393L90.9853 75.9431C90.9802 76.3596 90.9973 76.6713 91.0374 76.8754C91.079 77.085 91.1769 77.2332 91.339 77.3029C91.4807 77.3634 91.6918 77.3953 91.966 77.4008V77.5929H85.9996V77.4004C86.4036 77.3893 86.6812 77.3233 86.7924 77.176C86.8372 77.1187 86.8709 77.0536 86.8945 76.9806C86.9185 76.9072 86.9328 76.8126 86.9397 76.6971C86.9476 76.6057 86.9559 76.4741 86.9651 76.3009C86.9748 76.1273 86.9799 76.0077 86.9808 75.944V73.2016C86.9832 72.5251 86.9107 72.0245 86.7573 71.7064C86.5251 71.2058 86.1049 70.9551 85.5092 70.9528C84.8452 70.9505 84.3155 71.2668 83.923 71.8915C83.7753 72.1275 83.6608 72.3962 83.5781 72.6959C83.495 72.9965 83.453 73.2921 83.4516 73.583V75.9431C83.4465 76.3642 83.464 76.6777 83.5047 76.8814C83.5462 77.091 83.6455 77.2383 83.8099 77.3062C83.9535 77.3653 84.1673 77.3958 84.4462 77.4008V77.5929L81.5117 77.5925C81.2513 77.6012 80.7558 77.6146 80.5101 77.6114C80.2525 77.6077 80.1283 77.5805 79.8932 77.5629C79.6845 77.502 79.5968 77.4475 79.528 77.3108ZM76.068 75.8082C76.0731 76.2524 76.1811 76.6135 76.3968 76.886C76.6129 77.1598 76.9056 77.3002 77.2667 77.3071C77.6315 77.302 77.9764 77.2069 78.2992 77.0222C78.6211 76.8375 78.8746 76.5914 79.0584 76.2852C79.1706 76.0899 79.2523 75.8387 79.3036 75.5344C79.3544 75.2315 79.3797 74.8547 79.3788 74.4045V73.7049C78.7254 73.7612 78.2581 73.8226 77.9183 73.8947C77.5761 73.9672 77.2741 74.0706 77.0109 74.2059C76.3861 74.5162 76.0726 75.0542 76.068 75.8082Z" fill="#3A3A3A"/>
<path fill-rule="evenodd" clip-rule="evenodd" d="M18.6579 73.476V75.9072C18.6528 76.2974 18.675 76.5869 18.7249 76.7758C18.7752 76.9651 18.8833 77.0898 19.05 77.1507C19.2166 77.2122 19.4725 77.2463 19.8174 77.2533V77.5927H16V77.2533C16.3255 77.2463 16.5661 77.2122 16.7222 77.1507C16.8783 77.0898 16.9794 76.9651 17.0256 76.7758C17.0718 76.5869 17.0921 76.2974 17.087 75.9072V69.5164C17.0921 69.1262 17.0718 68.8362 17.0274 68.6469C16.9826 68.4576 16.8857 68.3315 16.7365 68.2687C16.5869 68.2055 16.3579 68.1685 16.048 68.157V67.8171H19.6849C20.9109 67.812 21.8085 68.0286 22.3793 68.4659C22.9495 68.9036 23.2312 69.5935 23.2248 70.5355C23.2285 71.8599 22.7131 72.7266 21.6783 73.1362C21.4082 73.2419 21.0637 73.3246 20.6453 73.3846C20.227 73.4442 19.762 73.4746 19.2499 73.476H18.6579ZM18.6579 73.0969H19.2864C20.0414 73.0946 20.5969 72.9159 20.9533 72.5613C21.1473 72.3558 21.2941 72.087 21.3943 71.7541C21.4945 71.4216 21.5449 71.0416 21.5453 70.614C21.5412 69.0043 20.8365 68.1985 19.4309 68.1962H18.6579V73.0969Z" fill="#3A3A3A"/>
<path fill-rule="evenodd" clip-rule="evenodd" d="M29.371 73.8865H24.9288C24.9339 74.3602 24.9616 74.7578 25.0124 75.0787C25.0627 75.3992 25.144 75.6924 25.2557 75.9579C25.6247 76.8177 26.1945 77.2472 26.9656 77.2472C27.4025 77.2449 27.7987 77.1165 28.1538 76.8616C28.5093 76.6067 28.8044 76.2405 29.0404 75.7621L29.3548 75.9709C29.0454 76.5864 28.6677 77.0385 28.2216 77.3271C27.7756 77.6157 27.2312 77.7583 26.5884 77.7556C25.5771 77.7426 24.6476 77.4194 24.0648 76.7868C23.4826 76.1537 23.1856 75.2865 23.1741 74.1861C23.1856 73.0774 23.4729 72.2006 24.0353 71.5546C24.5973 70.909 25.4954 70.5788 26.4628 70.5645C27.1065 70.5664 27.7276 70.7128 28.1685 71.0041C28.6095 71.296 28.9346 71.7226 29.1447 72.2841C29.2131 72.4707 29.2648 72.684 29.3003 72.9241C29.3354 73.1643 29.359 73.4852 29.371 73.8865ZM24.9413 73.5087H27.7202C27.7091 73.107 27.6874 72.7833 27.6555 72.5381C27.6241 72.2929 27.5743 72.0736 27.5064 71.8806C27.2718 71.1962 26.9112 70.8577 26.4254 70.8642C25.8805 70.8688 25.4737 71.2507 25.2054 72.0108C25.1371 72.2075 25.0821 72.4231 25.0406 72.6572C24.999 72.8914 24.9657 73.1753 24.9413 73.5087Z" fill="#3A3A3A"/>
<path d="M29.6551 70.7509L32.119 70.5806C32.132 70.8262 32.1421 71.0331 32.1486 71.1998C32.155 71.3669 32.1583 71.5147 32.1583 71.6421V72.0356C32.6935 71.0571 33.3399 70.563 34.0981 70.5542C34.4255 70.5607 34.6915 70.6563 34.8961 70.841C35.1002 71.0257 35.2059 71.2626 35.2119 71.5507C35.2073 71.7904 35.1186 71.9825 34.9464 72.127C34.7746 72.272 34.5488 72.3463 34.2685 72.35C33.9319 72.3607 33.7269 72.2212 33.6525 71.9307C33.6041 71.7511 33.5537 71.6288 33.5015 71.5636C33.4498 71.4985 33.3732 71.4681 33.2725 71.4718H33.2462C32.9885 71.4939 32.7438 71.6989 32.5124 72.0877C32.4076 72.2821 32.3287 72.4964 32.276 72.7319C32.2238 72.9669 32.1975 73.2371 32.1975 73.5428V75.9675C32.1924 76.3544 32.2114 76.6398 32.2539 76.8231C32.2963 77.0065 32.3929 77.1265 32.5434 77.1833C32.6935 77.2396 32.928 77.2715 33.2462 77.278V77.5929H29.6029V77.278C29.8998 77.2794 30.1196 77.2507 30.2627 77.1916C30.4059 77.133 30.4987 77.0101 30.5416 76.8231C30.5841 76.6357 30.6031 76.3508 30.5989 75.9675V72.3366C30.6109 71.7964 30.5569 71.4454 30.4364 71.2834C30.3163 71.1213 30.0554 71.0488 29.6551 71.0654V70.7509Z" fill="#3A3A3A"/>
<path d="M38.139 70.581L38.1524 71.8786C38.6829 71.0049 39.443 70.5635 40.4326 70.5547C41.4397 70.5482 42.0598 71.0068 42.2935 71.9312C42.5784 71.4551 42.9035 71.106 43.2682 70.8839C43.6335 70.6623 44.0597 70.5524 44.5478 70.5547C45.3189 70.5593 45.8869 70.8124 46.2517 71.3148C46.3944 71.505 46.4955 71.7377 46.5565 72.0129C46.617 72.2882 46.6465 72.6451 46.6447 73.0842V75.9675C46.6405 76.3508 46.6594 76.6357 46.7019 76.8227C46.7449 77.0101 46.8377 77.133 46.9808 77.1916C47.124 77.2507 47.3438 77.2794 47.6412 77.278V77.5929H44.0893V77.278C44.3733 77.2794 44.5838 77.2507 44.7214 77.1916C44.859 77.133 44.9486 77.0101 44.9902 76.8227C45.0317 76.6357 45.0502 76.3508 45.046 75.9675V73.0972C45.0488 72.4087 44.9643 71.9118 44.7921 71.6066C44.6194 71.3014 44.3419 71.1518 43.9581 71.1578C43.4973 71.149 43.1085 71.3891 42.7917 71.8786C42.5188 72.2872 42.383 72.7282 42.3854 73.2024V75.9675C42.3812 76.3508 42.3997 76.6357 42.4417 76.8227C42.4833 77.0101 42.5742 77.133 42.7137 77.1916C42.8531 77.2507 43.0669 77.2794 43.3551 77.278V77.5929H39.8429V77.278C40.1269 77.2794 40.3379 77.2507 40.475 77.1916C40.6126 77.133 40.7022 77.0101 40.7438 76.8227C40.7853 76.6357 40.8038 76.3508 40.7997 75.9675V73.0842C40.8061 71.7867 40.4524 71.1444 39.7381 71.1578C39.2934 71.1735 38.9207 71.3845 38.6206 71.7899C38.3204 72.1958 38.1644 72.7014 38.1524 73.3073V75.9675C38.1482 76.3549 38.1667 76.6421 38.2082 76.8287C38.2493 77.0157 38.3389 77.1376 38.4765 77.1949C38.6141 77.2521 38.8247 77.2798 39.1087 77.278V77.5929H35.5568V77.278C35.8542 77.2798 36.074 77.2521 36.2171 77.1949C36.3603 77.1376 36.4535 77.0157 36.496 76.8287C36.5385 76.6421 36.5574 76.3549 36.5533 75.9675V72.3242C36.5667 71.7908 36.5136 71.4454 36.3926 71.287C36.2721 71.1291 36.0024 71.0552 35.5836 71.0659V70.7514L38.139 70.581Z" fill="#3A3A3A"/>
<path d="M56.9591 71.1808V75.5583C56.9587 75.8432 56.9693 76.0792 56.9901 76.2657C57.0113 76.4523 57.0446 76.6098 57.0903 76.7377C57.1457 76.884 57.2311 77.0009 57.3475 77.0881C57.4634 77.1754 57.5918 77.2207 57.7321 77.2225C58.012 77.2184 58.3176 77.0831 58.6497 76.8162L58.833 77.144C58.307 77.585 57.7081 77.8034 57.0376 77.7993C56.3145 77.7882 55.8209 77.5481 55.5568 77.0784C55.505 76.9745 55.4644 76.8559 55.4358 76.7229C55.4071 76.5899 55.3873 76.4103 55.3762 76.1845C55.3651 75.9582 55.3596 75.653 55.36 75.2697V71.1808H54.6129V70.7878C54.8983 70.7768 55.1402 70.7167 55.3388 70.6073C55.5374 70.4978 55.7105 70.3265 55.8583 70.0929C55.9742 69.9151 56.0698 69.717 56.145 69.5C56.2199 69.2825 56.2859 69.0128 56.3431 68.6905L56.9984 68.6249C56.9896 68.7986 56.9822 68.9745 56.9767 69.1527C56.9707 69.331 56.9665 69.5457 56.9638 69.7969C56.9605 70.0476 56.9591 70.3695 56.9591 70.7611H58.5448V71.1808H56.9591Z" fill="#3A3A3A"/>
<path fill-rule="evenodd" clip-rule="evenodd" d="M54.6066 77.3152V77.5923C54.2228 77.6177 54.0681 77.6172 53.665 77.6177C53.345 77.6182 53.0139 77.6126 52.7392 77.5092C52.5693 77.4455 52.4741 77.391 52.3476 77.2571C52.259 77.1167 52.2026 77.1093 52.174 76.7182C51.836 77.0834 51.4837 77.3522 51.1179 77.524C50.7518 77.6962 50.3565 77.7812 49.933 77.7798C49.3041 77.7728 48.8123 77.5992 48.4573 77.2584C48.1017 76.9177 47.9211 76.4494 47.9147 75.8528C47.9124 74.728 48.6119 74.0289 50.012 73.756C50.6432 73.6336 51.3594 73.5509 52.1611 73.5071V72.6551C52.168 71.9726 52.0955 71.4993 51.945 71.2366C51.7944 70.9734 51.5257 70.8478 51.1387 70.8598C50.7282 70.851 50.4354 70.9992 50.2609 71.3054C50.1972 71.4102 50.151 71.5312 50.1214 71.6674C50.0924 71.8036 50.0688 71.9929 50.0513 72.2358C50.0406 72.469 49.9728 72.6348 49.8481 72.7336C49.7229 72.8324 49.5239 72.8805 49.2515 72.8781C48.6443 72.8735 48.3386 72.6727 48.334 72.2751C48.3363 72.0433 48.4078 71.8221 48.5491 71.6115C48.69 71.401 48.8895 71.2158 49.1471 71.056C49.6929 70.7199 50.4091 70.5541 51.2962 70.5582C52.1985 70.5541 52.8449 70.7328 53.236 71.0957C53.412 71.2615 53.5413 71.4735 53.6239 71.7311C53.707 71.9888 53.7477 72.3185 53.7472 72.7207L53.7338 73.8608L53.7209 75.0009C53.7098 75.3744 53.7057 75.6104 53.7075 75.7088C53.7029 76.1811 53.7181 76.5265 53.7523 76.744C53.7865 76.962 53.8243 77.0576 53.9675 77.1758C54.2178 77.3189 54.432 77.3148 54.6066 77.3152ZM52.1611 74.8176V73.8086C51.2228 73.8723 50.5574 74.0459 50.1644 74.3295C49.7714 74.613 49.5807 75.0554 49.5923 75.6566C49.5964 76.128 49.6934 76.5021 49.8823 76.7787C50.0716 77.0553 50.3288 77.1966 50.6539 77.203C50.9208 77.2003 51.1669 77.1236 51.3927 76.9717C51.6185 76.8207 51.7963 76.6092 51.9251 76.3381C52.0096 76.1719 52.0701 75.9697 52.107 75.73C52.144 75.4903 52.162 75.1865 52.1611 74.8176Z" fill="#3A3A3A"/>
<path fill-rule="evenodd" clip-rule="evenodd" d="M65.8911 77.3152V77.5922C65.5073 77.6176 65.3527 77.6181 64.9495 77.6185C64.6295 77.619 64.2985 77.6135 64.0237 77.51C63.8538 77.4463 63.7586 77.3918 63.6321 77.2579C63.5435 77.1175 63.4871 77.1101 63.4585 76.719C63.1205 77.0843 62.7682 77.353 62.402 77.5248C62.0363 77.697 61.641 77.782 61.2176 77.7806C60.5886 77.7737 60.0969 77.6001 59.7418 77.2593C59.3862 76.9185 59.2057 76.4503 59.1992 75.8537C59.1969 74.7288 59.896 74.0297 61.2965 73.7568C61.9278 73.6344 62.644 73.5518 63.4456 73.5079V72.656C63.4525 71.9735 63.38 71.5002 63.2295 71.2374C63.0785 70.9742 62.8097 70.8486 62.4232 70.8606C62.0127 70.8519 61.72 71.0001 61.5454 71.3062C61.4817 71.4111 61.4351 71.532 61.406 71.6683C61.3769 71.8045 61.3533 71.9938 61.3358 72.2367C61.3252 72.4699 61.2573 72.6357 61.1326 72.7349C61.0075 72.8333 60.8084 72.8813 60.536 72.879C59.9288 72.8744 59.6231 72.6735 59.6185 72.2759C59.6208 72.0441 59.6924 71.8229 59.8337 71.6124C59.9745 71.4018 60.174 71.2167 60.4312 71.0569C60.9774 70.7207 61.6936 70.5549 62.5807 70.5591C63.483 70.5549 64.1294 70.7336 64.5206 71.0966C64.6965 71.2624 64.8258 71.4743 64.9084 71.732C64.9916 71.9896 65.0322 72.3193 65.0317 72.7215L65.0183 73.8616L65.0054 75.0017C64.9943 75.3753 64.9902 75.6113 64.992 75.7096C64.9874 76.182 65.0026 76.5274 65.0368 76.7453C65.071 76.9628 65.1088 77.0584 65.252 77.1766C65.5023 77.3198 65.7165 77.3147 65.8911 77.3152ZM63.4456 74.8184V73.8095C62.5073 73.8732 61.8414 74.0468 61.4489 74.3303C61.0559 74.6138 60.8652 75.0562 60.8768 75.6574C60.8809 76.1289 60.9779 76.5029 61.1668 76.7795C61.3561 77.0561 61.6133 77.1974 61.9384 77.2039C62.2053 77.2011 62.4514 77.1245 62.6772 76.9725C62.903 76.8211 63.0803 76.6101 63.2096 76.3385C63.2941 76.1732 63.3546 75.9705 63.3915 75.7309C63.4285 75.4917 63.4465 75.1874 63.4456 74.8184Z" fill="#3A3A3A"/>
<path d="M42.3927 44.808L42.3609 45.4281L54.2585 59.3848L54.6856 59.4546L54.7395 59.4279L54.9483 59.041L49.8745 42.0579L49.0134 41.4776L42.3927 44.808Z" fill="#0097B9"/>
<path d="M61.4857 41.1412L69.1785 44.6782L69.1927 45.676L56.5679 64.7995L55.9916 64.9515L55.9065 64.9124L55.7267 64.4813L60.8151 41.5139L61.4857 41.1412Z" fill="#80B13A"/>
<path d="M49.7345 35.7L50.0408 35.11L59.8899 35.0033L60.5264 35.6642L55.8078 51.4294L55.5088 51.603L55.4992 51.6025L55.1758 51.3846L49.7345 35.7Z" fill="#D81936"/>
<path fill-rule="evenodd" clip-rule="evenodd" d="M45.9112 46.1062L54.7097 59.4917L54.2417 59.4151L42.3289 45.4221L45.9112 46.1062Z" fill="#005874"/>
<path d="M49.0258 41.4625L49.8841 42.0451L47.2185 45.5895L45.9807 45.0483L49.0258 41.4625Z" fill="#2FB8E7"/>
<path d="M45.9802 45.0479L45.911 46.1064L42.3292 45.4223L42.3666 44.8068L45.9802 45.0479Z" fill="#007592"/>
<path d="M47.2183 45.59L49.8896 42.0399L55.0274 59.0373L54.7659 59.4769L47.2183 45.59Z" fill="#007592"/>
<path d="M69.2192 45.6736L56.6046 64.8385L55.9596 65.0262L64.0677 46.1121L69.2192 45.6736Z" fill="#6E9123"/>
<path d="M62.615 45.3131L55.8871 64.967L55.6976 64.4849L60.806 41.4942L62.615 45.3131Z" fill="#3F7937"/>
<path d="M69.1988 44.6778L69.2192 45.6734L64.0678 46.1124L63.7773 44.7481L69.1988 44.6778Z" fill="#A5C550"/>
<path d="M63.7775 44.748L62.6146 45.3119L60.805 41.4924L61.4698 41.1174L63.7775 44.748Z" fill="#5D8B27"/>
<path d="M54.2598 36.7603L53.5502 37.5988L49.7012 35.6819L50.0121 35.0988L54.2598 36.7603Z" fill="#AF2C35"/>
<path d="M49.7007 35.6819L53.5503 37.5987L55.5017 51.6349L55.1602 51.4023L49.7007 35.6819Z" fill="#762624"/>
<path d="M55.4019 37.6008L60.5437 35.6573L55.8319 51.4508L55.5086 51.6346L55.4019 37.6008Z" fill="#B22B37"/>
<path d="M54.2604 36.7602L55.4018 37.601L60.5441 35.6575L59.9003 35L54.2604 36.7602Z" fill="#DC505E"/>
</g>
<rect x="1" y="1" width="110" height="110" rx="9" stroke="#CCCCCC" stroke-width="2"/>
<defs>
<clipPath id="clip0_6_7385">
<rect x="2" y="2" width="108" height="108" rx="8" fill="white"/>
</clipPath>
</defs>
</svg>
