<svg width="112" height="112" viewBox="0 0 112 112" fill="none" xmlns="http://www.w3.org/2000/svg">
<g clip-path="url(#clip0_528_41)">
<rect x="2" y="2" width="108" height="108" rx="8" fill="white"/>
<path d="M26.2947 35.4106H34.0852L29.2435 54.7776H21.453L26.2947 35.4106Z" fill="#0D92D2"/>
<path d="M18.8013 65.3842L16 76.5894H23.7906L26.5919 65.3842H18.8013Z" fill="#0D92D2"/>
<path d="M27.1484 65.3842L24.3471 76.5894H35.7547L38.556 65.3842H27.1484Z" fill="#0D92D2"/>
<path d="M39.9471 65.3842L37.1458 76.5894H54.8137L57.615 65.3842H39.9471Z" fill="#0D92D2"/>
<path d="M60.2667 54.7776H42.5988L47.4405 35.4106H65.1084L60.2667 54.7776Z" fill="#0D92D2"/>
<path d="M41.2077 54.7776H29.8L34.6418 35.4106H46.0494L41.2077 54.7776Z" fill="#0D92D2"/>
<path d="M88.1555 56.3912H90.482L89.432 59.2326L92.9116 56.3912H96L92.2116 59.2223L93.3543 63.927H90.4924L90.0394 60.8386L88.3717 62.0945L87.7025 63.927H85.3759L88.1452 56.4015M79.3947 56.4015H81.5669L82.864 60.5606L84.3876 56.4015H86.5804L83.8111 63.927H81.608L80.3212 59.7885L78.7976 63.927H76.6151L79.3844 56.4015M73.6091 61.0547L73.7841 58.3472L71.9619 61.0547H73.6091ZM73.5061 62.6813H70.8707L70.0368 63.927H67.6587L73.259 56.4015H75.8018L75.8533 63.927H73.4135L73.4958 62.6813M63.3659 62.3004H64.5497C64.9512 62.3004 65.2601 62.2283 65.4763 62.0842C65.6925 61.9401 65.8469 61.7548 65.9292 61.518C66.0116 61.2915 66.0013 61.1165 65.8881 60.9827C65.7748 60.8489 65.5174 60.7768 65.1057 60.7768H63.9218L63.3659 62.3004ZM64.4468 59.3458H65.466C65.8263 59.3458 66.1042 59.2841 66.2895 59.1605C66.4748 59.037 66.619 58.8517 66.7013 58.6149C66.7837 58.3987 66.7734 58.2237 66.6807 58.1002C66.5881 57.9766 66.3616 57.9149 66.0013 57.9149H64.9718L64.4468 59.3458ZM63.1908 56.3912H67.5455C68.2764 56.3912 68.7603 56.5766 69.0176 56.9266C69.275 57.2869 69.3059 57.7296 69.1103 58.2649C68.9456 58.7076 68.6676 59.0885 68.2764 59.4076C68.0088 59.6238 67.6793 59.7885 67.2778 59.912C67.772 60.0459 68.0911 60.2621 68.2249 60.5812C68.3588 60.9003 68.3382 61.2915 68.1735 61.7754C68.0293 62.1666 67.8132 62.5166 67.5146 62.8254C67.2161 63.1343 66.8763 63.3813 66.4954 63.5667C66.2587 63.6799 65.9292 63.7623 65.5174 63.8137C64.9718 63.8858 64.6115 63.9167 64.4365 63.9167H60.4216L63.1908 56.3912ZM53.9256 61.0445L54.1006 58.3369L52.2785 61.0445H53.9256ZM53.8227 62.671H51.1872L50.3534 63.9167H47.9753L53.5756 56.3912H56.1184L56.1699 63.9167H53.73L53.8124 62.671M41.5514 56.381H44.6192L44.1045 60.9621L46.9561 56.381H50.0136L47.2444 63.9064H45.3399L47.4503 58.1722L43.878 63.9064H42.1485L42.7868 58.1722L40.6764 63.9064H38.7718L41.5411 56.381M37.5674 56.381H39.9043L37.135 63.9064H34.7981L37.5674 56.381ZM30.5361 59.4385H31.5141C31.617 59.4385 31.8435 59.4076 32.173 59.3355C32.3377 59.3046 32.4921 59.2326 32.6362 59.0988C32.7803 58.9752 32.8833 58.8208 32.9451 58.6664C33.0377 58.4193 33.0274 58.234 32.9245 58.1105C32.8215 57.9766 32.5539 57.9149 32.1215 57.9149H31.1023L30.5361 59.4488M26.5623 63.9167L29.3316 56.3912H33.2127C33.9333 56.3912 34.4584 56.453 34.7878 56.5766C35.1275 56.7001 35.3437 56.9266 35.457 57.256C35.5702 57.5957 35.529 57.9972 35.354 58.4811C35.1996 58.9032 34.9834 59.2635 34.6849 59.562C34.3966 59.8709 34.0569 60.1179 33.676 60.3032C33.4392 60.4268 33.1201 60.5194 32.7495 60.6018C32.9965 60.6944 33.1612 60.7871 33.2539 60.8797C33.3157 60.9415 33.3877 61.0753 33.4804 61.2812C33.5627 61.4871 33.6245 61.6415 33.6348 61.7548L33.9642 63.927H31.3391L30.9376 61.6313C30.8861 61.3327 30.8243 61.1371 30.7317 61.0547C30.6082 60.9415 30.4332 60.8797 30.2273 60.8797H30.0214L28.8992 63.927H26.5623M22.846 59.6135H23.4225C23.8754 59.6135 24.2152 59.5311 24.4622 59.3767C24.699 59.2223 24.8637 59.0164 24.9564 58.7796C25.0387 58.5428 25.0387 58.3472 24.9358 58.1825C24.8431 58.0178 24.5652 57.9355 24.1328 57.9355H23.4636L22.846 59.6135ZM21.693 56.4015H25.5638C26.4079 56.4015 26.9638 56.5971 27.2315 56.9986C27.4992 57.4001 27.5095 57.9663 27.2315 58.7076C26.9535 59.4694 26.5006 60.0665 25.8932 60.4885C25.2755 60.9209 24.5034 61.1268 23.5563 61.1268H22.2798L21.2606 63.9167H18.9237L21.693 56.3912" fill="black"/>
</g>
<rect x="1" y="1" width="110" height="110" rx="9" stroke="#CCCCCC" stroke-width="2"/>
<defs>
<clipPath id="clip0_528_41">
<rect x="2" y="2" width="108" height="108" rx="8" fill="white"/>
</clipPath>
</defs>
</svg>
