<svg width="112" height="112" viewBox="0 0 112 112" fill="none" xmlns="http://www.w3.org/2000/svg">
<g clip-path="url(#clip0_421_563)">
<rect x="2" y="2" width="108" height="108" rx="8" fill="white"/>
<g clip-path="url(#clip1_421_563)">
<path fill-rule="evenodd" clip-rule="evenodd" d="M26.3604 63.0475L22.7043 66.7036L22.4114 66.5611C21.6262 66.1796 20.8954 65.6617 20.2237 65.1076L19.8348 64.7872L26.58 58.0419C26.9535 57.6685 27.4586 57.4609 27.9866 57.4609C28.5145 57.4609 29.019 57.6678 29.3931 58.0419L36.1384 64.7872L35.7495 65.1076C35.0771 65.6617 34.3469 66.1796 33.5617 66.5611L33.2688 66.7036L29.6128 63.0475V67.8038L29.2319 67.8683C28.8202 67.9381 28.4044 67.9731 27.9866 67.9731C27.5688 67.9731 27.153 67.9388 26.7412 67.8683L26.3604 67.8038V63.0475ZM35.0475 57.612L38.7036 61.2681L38.5612 61.561C38.1797 62.3462 37.6618 63.077 37.1076 63.7487L36.7872 64.1376L30.042 57.3924C29.6685 57.0189 29.461 56.5138 29.461 55.9858C29.461 55.4579 29.6678 54.9534 30.042 54.5793L36.7872 47.834L37.1076 48.2229C37.6618 48.8953 38.1797 49.6255 38.5612 50.4107L38.7036 50.7036L35.0475 54.3596H39.8039L39.8683 54.7405C39.9382 55.1522 39.9731 55.568 39.9731 55.9858C39.9731 56.4036 39.9389 56.8194 39.8683 57.2312L39.8039 57.612H35.0475ZM29.6128 48.9255L33.2688 45.2695L33.5617 45.4119C34.3469 45.7934 35.0777 46.3113 35.7495 46.8654L36.1384 47.1858L29.3931 53.9311C29.0196 54.3046 28.5145 54.5121 27.9866 54.5121C27.4586 54.5121 26.9542 54.3052 26.58 53.9311L19.8348 47.1852L20.2237 46.8648C20.8961 46.3106 21.6262 45.7927 22.4114 45.4112L22.7043 45.2688L26.3604 48.9249V44.1692L26.7412 44.1041C27.153 44.0342 27.5688 43.9993 27.9866 43.9993C28.4044 43.9993 28.8202 44.0335 29.2319 44.1041L29.6128 44.1692V48.9255ZM20.9256 54.3603L17.2695 50.7042L17.4119 50.4114C17.7935 49.6261 18.3113 48.8953 18.8655 48.2236L19.1859 47.8347L25.9312 54.58C26.3046 54.9534 26.5122 55.4585 26.5122 55.9865C26.5122 56.5145 26.3053 57.0189 25.9312 57.3931L19.1859 64.1383L18.8655 63.7494C18.3113 63.077 17.7935 62.3469 17.4119 61.5617L17.2695 61.2688L20.9256 57.6127H16.1693L16.1048 57.2318C16.0349 56.8201 16 56.4043 16 55.9865C16 55.5687 16.0343 55.1529 16.1048 54.7412L16.1693 54.3603H20.9256Z" fill="#878786"/>
<mask id="mask0_421_563" style="mask-type:luminance" maskUnits="userSpaceOnUse" x="16" y="48" width="11" height="16">
<path d="M16.4574 55.9864C16.4574 55.6063 16.4877 55.2173 16.5555 54.8177H22.0299L17.823 50.6115C18.1622 49.9122 18.6418 49.2136 19.2182 48.5144L25.6074 54.9037C25.905 55.2012 26.0541 55.5942 26.0541 55.9864C26.0541 56.3787 25.905 56.7717 25.6074 57.0692L19.2182 63.4585C18.6418 62.7592 18.1629 62.0607 17.823 61.3614L22.0299 57.1545H16.5555C16.4877 56.7549 16.4568 56.366 16.4574 55.9858" fill="white"/>
</mask>
<g mask="url(#mask0_421_563)">
<path d="M26.0541 48.5144H16.4568V63.4592H26.0541V48.5144Z" fill="url(#paint0_linear_421_563)"/>
</g>
<mask id="mask1_421_563" style="mask-type:luminance" maskUnits="userSpaceOnUse" x="20" y="44" width="16" height="11">
<path d="M27.9866 44.4574C28.3667 44.4574 28.7557 44.487 29.1553 44.5555V50.0299L33.3622 45.823C34.0615 46.1622 34.76 46.6418 35.4593 47.2181L29.07 53.6074C28.7725 53.9049 28.3795 54.054 27.9872 54.054C27.595 54.054 27.202 53.9049 26.9044 53.6074L20.5145 47.2181C21.2138 46.6418 21.9123 46.1629 22.6116 45.823L26.8185 50.0299V44.5555C27.2181 44.4876 27.6071 44.4567 27.9872 44.4574" fill="white"/>
</mask>
<g mask="url(#mask1_421_563)">
<path d="M35.4593 44.4568H20.5145V54.0541H35.4593V44.4568Z" fill="url(#paint1_linear_421_563)"/>
</g>
<mask id="mask2_421_563" style="mask-type:luminance" maskUnits="userSpaceOnUse" x="29" y="48" width="11" height="16">
<path d="M39.5157 55.9865C39.5157 56.3667 39.4855 56.7549 39.4176 57.1553H33.9433L38.1501 61.3622C37.8109 62.0614 37.3313 62.76 36.755 63.4592L30.3658 57.07C30.0682 56.7724 29.9191 56.3795 29.9191 55.9872C29.9191 55.5949 30.0682 55.202 30.3658 54.9044L36.755 48.5151C37.3313 49.2144 37.8103 49.913 38.1501 50.6122L33.9433 54.8191H39.4176C39.4855 55.2187 39.5164 55.6077 39.5157 55.9878" fill="white"/>
</mask>
<g mask="url(#mask2_421_563)">
<path d="M39.5164 48.5144H29.9191V63.4592H39.5164V48.5144Z" fill="url(#paint2_linear_421_563)"/>
</g>
<mask id="mask3_421_563" style="mask-type:luminance" maskUnits="userSpaceOnUse" x="20" y="57" width="16" height="11">
<path d="M27.9866 67.5156C27.6064 67.5156 27.2181 67.4854 26.8178 67.4176V61.9432L22.6109 66.1501C21.9117 65.8109 21.2131 65.3313 20.5139 64.7556L26.9031 58.3664C27.2007 58.0688 27.5936 57.9197 27.9859 57.9197C28.3782 57.9197 28.7711 58.0688 29.0687 58.3664L35.4579 64.7556C34.7587 65.3319 34.0601 65.8109 33.3609 66.1501L29.154 61.9432V67.4176C28.7543 67.4854 28.3654 67.5163 27.9852 67.5156" fill="white"/>
</mask>
<g mask="url(#mask3_421_563)">
<path d="M35.4593 57.9189H20.5145V67.5163H35.4593V57.9189Z" fill="url(#paint3_linear_421_563)"/>
</g>
<path fill-rule="evenodd" clip-rule="evenodd" d="M84.1887 50.0151H90.3043C91.4447 50.0151 92.3781 50.9486 92.3781 52.0889V52.28C92.3781 53.5252 91.3593 54.544 90.1141 54.544H85.1467C85.1467 55.997 85.8503 56.9559 86.966 56.9559H90.3413C91.5557 56.9559 93.1548 57.8251 93.1548 59.0297V59.2208C93.1548 60.466 92.136 61.4848 90.8908 61.4848H84.1887V50.0151ZM64.2301 47.7036H65.9015C66.7284 47.7036 67.4619 48.2073 67.8168 48.5622L76.0908 59.3511V47.7036H78.7026V63.8906H77.0638C76.237 63.8906 75.9851 63.4661 75.6302 63.1112L66.8745 51.8512V63.8906H64.2293V47.7036H64.2301ZM53.0053 58.4204L56.0248 61.4989C55.3107 61.8652 54.4935 62.0669 53.5988 62.0669C50.3424 62.0669 48.1189 59.404 48.1189 55.8297C48.1189 52.2554 50.3125 49.5925 53.5988 49.5925C56.8852 49.5925 59.0787 52.2245 59.0787 55.8297C59.0787 57.3962 58.6516 58.7884 57.897 59.8575L56.5814 58.5269C56.5814 58.5269 55.0579 56.8661 53.0053 58.4212V58.4204ZM53.5979 47.3126C58.6701 47.3126 61.9767 51.1256 61.9767 55.8297C61.9767 58.1289 61.171 60.215 59.7629 61.7472L61.8913 63.9011C61.8913 63.9011 61.1085 64.6206 60.0931 64.6206C59.0778 64.6206 58.4112 63.9328 58.4112 63.9328L57.7913 63.3006C56.5919 63.9672 55.1768 64.3458 53.5979 64.3458C48.5892 64.3458 45.2191 60.5329 45.2191 55.8297C45.2191 51.1264 48.5257 47.3126 53.5979 47.3126ZM90.3457 47.7036H81.4377V63.8906H90.8565C96.3099 63.8906 97.8307 57.2131 93.4489 55.7812C93.0967 55.6659 92.6634 55.6588 93.22 55.4299C93.6514 55.252 93.972 54.9447 94.3119 54.5414C96.6754 51.7402 94.2388 47.7027 90.3457 47.7027V47.7036Z" fill="#00193E"/>
</g>
</g>
<rect x="1" y="1" width="110" height="110" rx="9" stroke="#CCCCCC" stroke-width="2"/>
<defs>
<linearGradient id="paint0_linear_421_563" x1="16.4568" y1="55.9864" x2="26.0541" y2="55.9864" gradientUnits="userSpaceOnUse">
<stop stop-color="#003A73"/>
<stop offset="0.35" stop-color="#003A73"/>
<stop offset="0.73" stop-color="#0062AF"/>
<stop offset="1" stop-color="#0062AF"/>
</linearGradient>
<linearGradient id="paint1_linear_421_563" x1="20.5145" y1="49.2554" x2="35.4586" y2="49.2554" gradientUnits="userSpaceOnUse">
<stop stop-color="#AB004C"/>
<stop offset="0.35" stop-color="#AB004C"/>
<stop offset="0.61" stop-color="#760030"/>
<stop offset="1" stop-color="#1A1A18"/>
</linearGradient>
<linearGradient id="paint2_linear_421_563" x1="29.9191" y1="55.9864" x2="39.5164" y2="55.9864" gradientUnits="userSpaceOnUse">
<stop stop-color="#0062AF"/>
<stop offset="0.27" stop-color="#0062AF"/>
<stop offset="0.65" stop-color="#003A73"/>
<stop offset="1" stop-color="#003A73"/>
</linearGradient>
<linearGradient id="paint3_linear_421_563" x1="27.9866" y1="67.5163" x2="27.9866" y2="57.9189" gradientUnits="userSpaceOnUse">
<stop stop-color="#003A73"/>
<stop offset="0.35" stop-color="#003A73"/>
<stop offset="0.73" stop-color="#0062AF"/>
<stop offset="1" stop-color="#0062AF"/>
</linearGradient>
<clipPath id="clip0_421_563">
<rect x="2" y="2" width="108" height="108" rx="8" fill="white"/>
</clipPath>
<clipPath id="clip1_421_563">
<rect width="80" height="23.9798" fill="white" transform="translate(16 44)"/>
</clipPath>
</defs>
</svg>
