<svg width="112" height="112" viewBox="0 0 112 112" fill="none" xmlns="http://www.w3.org/2000/svg">
<g clip-path="url(#clip0_518_549)">
<rect x="2" y="2" width="108" height="108" rx="8" fill="white"/>
<path d="M63.2079 56.1558C61.7608 54.9561 59.8876 54.1816 58.2355 53.498C55.9574 52.5558 53.9892 51.7429 53.9892 50.2352C53.9892 49.5768 54.2972 48.972 54.8577 48.5357C55.4484 48.0752 56.2734 47.8217 57.1793 47.8217C60.028 47.8217 62.3001 49.8364 62.3203 49.8545L62.8757 50.3615L65.4002 45.6264L65.1114 45.3214C65.0014 45.2044 62.3425 42.4596 57.2136 42.4596C54.7526 42.4596 52.4896 43.2462 50.8386 44.6741C49.1633 46.1232 48.2383 48.1237 48.2383 50.3059C48.2383 52.4336 49.0643 54.1544 50.7598 55.5651C52.1857 56.7496 53.962 57.515 55.6807 58.2563C58.0245 59.2661 60.0512 60.1396 60.0512 61.6937C60.0512 62.8772 59.2494 64.1426 57.0025 64.1426C53.7802 64.1426 51.194 61.6887 51.1688 61.6634L50.6841 61.1928L47.5455 65.5421L47.8586 65.8926C47.8939 65.9289 48.7048 66.8246 50.2286 67.7163C51.6262 68.5322 53.9246 69.5057 56.9308 69.5057C59.5614 69.5057 61.8033 68.6989 63.4149 67.1741C64.9307 65.7381 65.7648 63.7548 65.7648 61.5887C65.7648 59.36 64.9287 57.5827 63.2079 56.1558Z" fill="#292075"/>
<path d="M89.7401 69.1149H95.6213V42.8504H89.7401V69.1149Z" fill="#292075"/>
<path d="M78.2442 64.1961H73.7677V47.7673H77.7151C79.4843 47.7673 80.4992 48.7569 80.4992 50.4817C80.4992 52.2246 79.5863 53.1072 77.7847 53.1072H76.4255V57.9412H78.2442C79.2389 57.9412 80.068 58.2513 80.6405 58.841C81.2424 59.459 81.4868 60.0709 81.4868 60.9525C81.4868 62.954 80.2447 64.1961 78.2442 64.1961ZM86.0532 57.3111C85.4715 56.3962 84.6738 55.6691 83.7245 55.1824C85.2564 53.9544 86.1229 52.0691 86.1229 49.9161C86.1229 47.7389 85.2938 45.9233 83.7245 44.662C82.2462 43.4755 80.1932 42.8474 77.7847 42.8474H68.2156V69.1119H77.8918C80.4588 69.1119 82.6794 68.4636 84.3123 67.2346C86.1663 65.8411 87.1448 63.7669 87.1448 61.2343C87.1448 59.7912 86.7682 58.434 86.0532 57.3111Z" fill="#292075"/>
<path d="M29.9568 42.3788C22.4578 42.3788 16.3787 48.472 16.3787 55.9882C16.3787 63.0347 21.7217 68.8301 28.5673 69.5269V59.6407C27.0959 59.0793 26.0477 57.6544 26.0477 55.9882C26.0477 53.8322 27.8008 52.0782 29.9568 52.0782C32.1117 52.0782 33.8668 53.8322 33.8668 55.9882C33.8668 57.6544 32.8166 59.0793 31.3453 59.6407V69.5269C38.1919 68.8301 43.5349 63.0347 43.5349 55.9882C43.5349 48.472 37.4557 42.3788 29.9568 42.3788Z" fill="#00B5EF"/>
</g>
<rect x="1" y="1" width="110" height="110" rx="9" stroke="#CCCCCC" stroke-width="2"/>
<defs>
<clipPath id="clip0_518_549">
<rect x="2" y="2" width="108" height="108" rx="8" fill="white"/>
</clipPath>
</defs>
</svg>
