<svg width="112" height="112" viewBox="0 0 112 112" fill="none" xmlns="http://www.w3.org/2000/svg">
<g clip-path="url(#clip0_6_7386)">
<rect x="1.99988" y="2" width="108" height="108" rx="8" fill="white"/>
<path fill-rule="evenodd" clip-rule="evenodd" d="M27.76 43C21.2816 43 16.0296 48.2521 16.0296 54.7175C16.0255 57.189 16.8073 59.5978 18.2619 61.5959C18.7666 61.355 19.2886 61.1522 19.8235 60.9892C18.4556 59.273 17.6426 57.0921 17.6426 54.7305C17.6426 49.1686 22.1721 44.639 27.734 44.639C33.2959 44.639 37.8254 49.1683 37.8254 54.7302C37.8254 58.2921 35.9673 61.4406 33.154 63.2343C33.4251 63.2343 33.6962 63.2343 33.98 63.2216C34.8962 63.1698 35.761 62.7568 36.4965 62.4216C38.3546 60.3435 39.4902 57.7368 39.4902 54.7171C39.4902 48.2524 34.2381 43 27.76 43Z" fill="#EA5F00"/>
<path fill-rule="evenodd" clip-rule="evenodd" d="M35.1928 66.3841C34.5347 66.6035 33.8896 66.7324 33.2703 66.7454C30.6506 66.8486 28.7665 66.0616 26.9598 65.2873C25.3465 64.6032 23.8366 63.9581 21.9785 64.0613C20.2233 64.2032 18.9976 65.1841 18.9458 65.2225C18.5846 65.5067 18.5331 66.0356 18.8169 66.3971C19.1008 66.7584 19.6427 66.8229 20.0042 66.539C20.0169 66.539 20.8944 65.8422 22.1074 65.7517C23.5271 65.6873 24.8306 66.2162 26.3144 66.8616C28.0049 67.5841 29.889 68.3844 32.4055 68.4616C32.7154 68.4746 33.0249 68.4616 33.3477 68.4489C34.135 68.4232 34.9477 68.2679 35.7608 67.9971C35.971 67.9226 36.1439 67.769 36.2427 67.569C36.3415 67.369 36.3585 67.1383 36.29 66.926C36.122 66.4616 35.6319 66.2292 35.1928 66.3841Z" fill="#2673DD"/>
<path fill-rule="evenodd" clip-rule="evenodd" d="M37.8899 62.6016C37.0899 63.1565 35.4769 64.0984 33.6315 64.1632C31.2829 64.2663 29.7471 63.5822 28.1083 62.8854C26.3918 62.1371 24.6112 61.3629 21.9398 61.479C19.462 61.5692 17.3588 62.9889 16.3261 63.8146C16.2364 63.8861 16.1618 63.9748 16.1067 64.0754C16.0515 64.176 16.017 64.2865 16.005 64.4006C15.993 64.5147 16.0038 64.6301 16.0368 64.7399C16.0698 64.8498 16.1243 64.952 16.1972 65.0406C16.2687 65.1303 16.3574 65.2049 16.458 65.2601C16.5586 65.3152 16.6692 65.3498 16.7833 65.3618C16.8974 65.3738 17.0127 65.3629 17.1226 65.3299C17.2324 65.2969 17.3347 65.2424 17.4233 65.1695C18.2877 64.4727 20.0296 63.2857 22.0042 63.2083C24.2883 63.1178 25.7982 63.7759 27.3985 64.4727C28.9731 65.1568 30.5858 65.8664 32.909 65.9051C33.1671 65.9051 33.4252 65.9051 33.6963 65.8924C35.9801 65.8019 37.916 64.6794 38.8836 64.021C39.2836 63.7502 39.3741 63.2083 39.1029 62.8083C38.8322 62.4209 38.2769 62.3175 37.8899 62.6016Z" fill="#2673DD"/>
<path fill-rule="evenodd" clip-rule="evenodd" d="M28.4179 62.0219L28.4436 62.0346C29.4633 62.4476 30.4439 62.8476 31.5925 63.067C34.7798 61.6089 36.9995 58.3956 36.9995 54.6661C37.0122 49.5816 32.8572 45.4394 27.7728 45.4394C22.688 45.4394 18.5198 49.5816 18.5198 54.6661C18.5169 56.8987 19.3292 59.0555 20.8042 60.7315C21.088 60.6797 21.3718 60.654 21.6687 60.6283C24.6109 60.4603 26.6369 61.2864 28.4179 62.0219ZM29.076 55.8019C28.9085 55.6341 28.7116 55.4985 28.495 55.4019C28.2633 55.2854 28.0049 55.1953 27.7341 55.1048C27.4706 55.0202 27.212 54.9211 26.9595 54.808C26.4176 54.6016 25.9658 54.2918 25.5918 53.853C25.2172 53.4273 25.0496 52.8854 25.0496 52.2273C25.0626 51.8013 25.1531 51.4273 25.3077 51.1045C25.4757 50.7819 25.695 50.5108 25.9788 50.3045C26.263 50.0981 26.5725 49.9299 26.9211 49.827C27.2815 49.7224 27.6552 49.6702 28.0306 49.6721H28.0566C28.6503 49.6848 29.1791 49.801 29.6179 50.0076C30.0546 50.2257 30.4695 50.485 30.8569 50.7819L29.9407 52.0981C29.6826 51.9045 29.3985 51.7496 29.1147 51.6207C28.8179 51.4915 28.4566 51.4143 28.0309 51.3883C27.708 51.3626 27.4112 51.427 27.1661 51.5819C26.908 51.7238 26.7788 51.9432 26.7788 52.227C26.7788 52.3949 26.8176 52.5499 26.908 52.6788C26.9985 52.808 27.1274 52.9242 27.2823 53.0143C27.4372 53.1175 27.6049 53.1822 27.7725 53.2597C27.9404 53.3242 28.1211 53.3886 28.276 53.4534C28.6115 53.5692 28.9471 53.7111 29.2823 53.8788C29.6073 54.043 29.9108 54.2468 30.1858 54.4854C30.4569 54.7178 30.6633 55.0016 30.8309 55.3242C30.9858 55.647 31.0633 56.0213 31.0506 56.46C31.0376 56.8857 30.9471 57.2727 30.7925 57.5956C30.6245 57.9311 30.3925 58.2019 30.1084 58.4343C29.8115 58.6667 29.476 58.8343 29.089 58.9505C28.7017 59.0667 28.276 59.1184 27.8242 59.1054C27.3985 59.0927 27.0115 59.041 26.663 58.9245C26.3144 58.8086 25.9918 58.6794 25.7077 58.5245C25.4526 58.3881 25.2108 58.2284 24.9852 58.0473C24.7788 57.9051 24.6369 57.7762 24.5464 57.6727L25.4887 56.3438C25.8097 56.6497 26.1807 56.8985 26.5855 57.0794C27.0112 57.2857 27.4499 57.3889 27.9017 57.3889C28.289 57.4019 28.6115 57.3115 28.8953 57.1438C29.1791 56.9762 29.308 56.7181 29.3214 56.3953C29.3214 56.1502 29.2439 55.9569 29.076 55.8019ZM48.4976 54.6264C48.2264 54.3813 47.9296 54.1876 47.5941 54.007C47.2588 53.8394 46.9233 53.6845 46.575 53.5683C46.4068 53.5038 46.2391 53.4391 46.0585 53.3746C45.8813 53.314 45.7123 53.2316 45.5553 53.1296C45.4004 53.0391 45.2842 52.9232 45.1807 52.794C45.088 52.6617 45.0385 52.5038 45.0391 52.3422C45.0518 52.0584 45.1811 51.8391 45.4264 51.6972C45.6842 51.5553 45.9684 51.4908 46.3036 51.5162C46.7296 51.5422 47.1036 51.6197 47.4007 51.7486C47.6976 51.8908 47.9814 52.0454 48.2395 52.2391L49.1687 50.9229C48.7814 50.613 48.3557 50.3549 47.9169 50.1356C47.4782 49.9162 46.9487 49.813 46.3553 49.8H46.3296C45.9423 49.7873 45.568 49.8388 45.2068 49.9549C44.8455 50.0711 44.5357 50.2261 44.2518 50.4324C43.968 50.6388 43.7487 50.9099 43.5807 51.2324C43.4131 51.5553 43.3226 51.9422 43.3099 52.3683C43.2969 53.0264 43.4776 53.5683 43.8518 53.994C44.2218 54.4205 44.6919 54.7486 45.2198 54.9489C45.4649 55.0524 45.723 55.1553 46.0071 55.233C46.2779 55.3232 46.536 55.4267 46.7684 55.5426C47.0004 55.6588 47.1941 55.788 47.3493 55.9556C47.5039 56.1235 47.5941 56.3169 47.5811 56.5619C47.5684 56.8848 47.4264 57.1429 47.1557 57.3105C46.8845 57.4784 46.549 57.5686 46.162 57.5559C45.7026 57.5422 45.2506 57.4369 44.8325 57.2461C44.4068 57.0397 44.0325 56.7943 43.7226 56.5105L42.7677 57.8397C42.8582 57.9302 43.0131 58.0721 43.2068 58.2397C43.4323 58.4209 43.6742 58.5807 43.9293 58.7172C44.2131 58.8721 44.5357 59.0013 44.8842 59.1172C45.2455 59.2334 45.6328 59.2851 46.0588 59.2981C46.5103 59.3108 46.936 59.2594 47.3233 59.1432C47.7106 59.027 48.0588 58.8591 48.3557 58.627C48.6489 58.399 48.8871 58.1079 49.0525 57.7753C49.2201 57.4397 49.3106 57.0524 49.3236 56.6267C49.3363 56.188 49.2588 55.8007 49.0912 55.4781C48.975 55.1426 48.7687 54.8588 48.4976 54.6264ZM71.8937 54.2791C71.9712 54.2016 72.0617 54.0981 72.1391 54.008C72.2293 53.9048 72.3068 53.7889 72.3712 53.6337C72.4487 53.4791 72.5004 53.3111 72.5522 53.1048C72.5909 52.8984 72.6166 52.653 72.6166 52.3562C72.6164 52.0695 72.5639 51.7853 72.4617 51.5175C72.3614 51.2477 72.2127 50.9984 72.023 50.7819C71.8293 50.5626 71.6099 50.3689 71.3388 50.214C71.0575 50.0521 70.7454 49.951 70.4226 49.9172C70.2033 49.8915 69.9582 49.8657 69.7001 49.8657C69.429 49.8527 69.1582 49.8527 68.8484 49.8527L66.3449 49.8654V59.3118H69.8033C70.1258 59.3118 70.3712 59.3118 70.5776 59.2991C70.9261 59.2603 71.2487 59.1829 71.5585 59.0537C71.855 58.9248 72.1391 58.7442 72.3585 58.5118C72.5909 58.2794 72.7715 57.9956 72.9134 57.6857C73.0509 57.341 73.121 56.9731 73.1198 56.6019C73.1198 55.9696 72.9909 55.4664 72.7455 55.0921C72.5004 54.7048 72.2166 54.434 71.8937 54.2791ZM68.7322 51.4788C69.0033 51.4788 69.2483 51.4788 69.455 51.4915C69.6614 51.5045 69.855 51.5175 69.9969 51.5302C70.3195 51.5689 70.5776 51.6724 70.7712 51.84C70.9776 51.9949 71.0807 52.2273 71.068 52.5111C71.0807 52.8724 70.9649 53.1435 70.7712 53.2984C70.5645 53.453 70.3064 53.5565 69.9839 53.5949C69.829 53.621 69.6483 53.6337 69.442 53.6337H67.9064V51.4788H68.7322ZM71.1712 57.2343C70.9388 57.4534 70.5645 57.5826 70.0483 57.6086C69.8937 57.6213 69.7001 57.634 69.442 57.6213H67.9064V55.1822H68.6934C68.9388 55.1822 69.1709 55.1822 69.3903 55.1695C69.6096 55.1569 69.8033 55.1569 69.9582 55.1695C70.4614 55.1953 70.8357 55.3115 71.1068 55.5178C71.3776 55.7242 71.5198 56.0083 71.5198 56.3826C71.5325 56.7308 71.4163 57.0149 71.1712 57.2343ZM57.0795 54.2273C56.8988 53.7372 56.6407 53.3111 56.3052 52.9756C55.9826 52.6273 55.5953 52.3692 55.1566 52.1883C54.7189 52.007 54.2494 51.915 53.7757 51.9175C53.1823 51.9175 52.6531 52.0207 52.2014 52.2013C51.7369 52.3949 51.3496 52.6657 51.0401 53.0013C50.7303 53.3369 50.4979 53.7242 50.3303 54.1629C50.1753 54.6016 50.0979 55.0791 50.0979 55.5822C50.0979 56.1372 50.201 56.6407 50.3947 57.1051C50.5835 57.5444 50.8551 57.9432 51.1947 58.2797C51.5304 58.6045 51.9245 58.8628 52.3563 59.041C52.795 59.2086 53.2595 59.2991 53.7499 59.2991C54.2017 59.2991 54.6017 59.2603 54.9372 59.1829C55.2457 59.1252 55.5481 59.0388 55.8404 58.9248C56.0883 58.8126 56.3259 58.6787 56.5503 58.5248C56.7569 58.3829 56.9503 58.2407 57.1439 58.0988L56.3052 56.9245C56.189 57.0149 56.0728 57.1054 55.9309 57.2083C55.776 57.3115 55.5823 57.4019 55.376 57.4924C55.1696 57.5696 54.9372 57.6343 54.6661 57.6861C54.408 57.7245 54.1112 57.7505 53.7887 57.7375C53.6066 57.7225 53.4257 57.6967 53.2468 57.66C53.0557 57.6094 52.873 57.5312 52.7045 57.4276C52.5349 57.3077 52.3792 57.1693 52.2401 57.0149C52.0982 56.847 51.995 56.6403 51.9303 56.3953L51.9176 56.3308H57.2988L57.3118 55.9181C57.3376 55.2727 57.2601 54.7178 57.0795 54.2273ZM51.8658 54.9115L51.8788 54.8597C51.9045 54.6534 51.969 54.5499 52.0337 54.408L52.0725 54.3305C52.1826 54.1457 52.3271 53.9836 52.4982 53.853C52.6669 53.7247 52.8602 53.6325 53.0661 53.5822C53.2855 53.5175 53.5049 53.4788 53.7242 53.4788C54.2404 53.4918 54.6661 53.6337 54.976 53.9178C55.1309 54.0467 55.2598 54.1759 55.363 54.3178C55.4664 54.4597 55.5309 54.6273 55.5566 54.8467L55.5696 54.9115H51.8658ZM63.4414 52.64L63.3382 52.5499C63.1188 52.3562 62.8347 52.2013 62.5122 52.0981C62.2023 51.9819 61.8284 51.9172 61.4023 51.9172C60.9249 51.9172 60.4731 52.0076 60.0604 52.1886C59.6524 52.3556 59.2865 52.6112 58.9893 52.9369C58.6795 53.2594 58.4471 53.6597 58.2664 54.1242C58.0988 54.5759 58.0084 55.0921 58.0084 55.6597C58.0084 56.1632 58.0988 56.6407 58.2664 57.0794C58.4471 57.5181 58.6795 57.8921 58.9893 58.228C59.2977 58.5508 59.6602 58.8172 60.0604 59.0153C60.4731 59.1956 60.9118 59.2861 61.4023 59.2861C61.8284 59.2861 62.2023 59.2343 62.5122 59.1181C62.8347 59.0022 63.1188 58.8343 63.3382 58.628L63.4414 58.5248V59.273H65.1061V52.1238H63.4414V52.64ZM63.2864 56.5115C63.1833 56.7569 63.0414 56.9762 62.8734 57.1438C62.7058 57.3118 62.5122 57.4276 62.2928 57.5181C62.0731 57.5953 61.8419 57.6345 61.609 57.6343C61.0798 57.6343 60.641 57.4534 60.2798 57.1051C59.9182 56.7308 59.7506 56.2407 59.7506 55.634C59.7506 55.0403 59.9312 54.5499 60.2798 54.1629C60.641 53.7756 61.0798 53.5819 61.609 53.5819C61.8541 53.5819 62.0864 53.6337 62.2928 53.7242C62.5252 53.8143 62.7185 53.9432 62.8734 54.1242C63.0414 54.2918 63.1833 54.5115 63.2864 54.7822C63.3896 55.0403 63.4414 55.3242 63.4414 55.6597C63.4414 55.9696 63.3896 56.2534 63.2864 56.5115ZM79.0433 52.64L78.9401 52.5499C78.7207 52.3562 78.4369 52.2013 78.1141 52.0981C77.8045 51.9819 77.4303 51.9172 77.0045 51.9172C76.5271 51.9172 76.0753 52.0076 75.6623 52.1886C75.2543 52.3556 74.8884 52.6112 74.5912 52.9369C74.2814 53.2594 74.0493 53.6597 73.8687 54.1242C73.7007 54.5759 73.6106 55.0921 73.6106 55.6597C73.6106 56.1632 73.7007 56.6407 73.8687 57.0794C74.0493 57.5181 74.2814 57.8921 74.5912 58.228C74.8997 58.5507 75.2622 58.8172 75.6623 59.0153C76.0753 59.1956 76.5141 59.2861 77.0045 59.2861C77.4303 59.2861 77.8045 59.2343 78.1141 59.1181C78.4369 59.0022 78.7207 58.8343 78.9401 58.628L79.0433 58.5248V59.273H80.708V52.1626H79.0433V52.64ZM78.8884 56.5115C78.7852 56.7569 78.6433 56.9762 78.4757 57.1438C78.3077 57.3118 78.1141 57.4276 77.8947 57.5181C77.675 57.5953 77.4438 57.6346 77.2109 57.6343C76.6817 57.6343 76.243 57.4534 75.8817 57.1051C75.5204 56.7308 75.3525 56.2407 75.3525 55.634C75.3525 55.0403 75.5331 54.5499 75.8817 54.1629C76.243 53.7756 76.6817 53.5819 77.2109 53.5819C77.456 53.5819 77.6753 53.6337 77.8947 53.7242C78.1271 53.8143 78.3207 53.9432 78.4757 54.1242C78.6433 54.2918 78.7852 54.5115 78.8884 54.7822C78.9918 55.0403 79.0433 55.3242 79.0433 55.6597C79.0433 55.9696 78.9918 56.2534 78.8884 56.5115ZM92.8642 55.2473L95.8969 51.9308H93.703L91.1995 54.6537V49.7499H89.522V59.2991H91.1995V57.1315L91.7544 56.5118L93.9223 59.2991H96.0001L92.8642 55.2473ZM88.0249 53.5822C87.8699 53.1435 87.5734 52.7565 87.1474 52.434C86.7217 52.1111 86.1795 51.9435 85.5344 51.9435C85.1988 51.9435 84.8503 51.9949 84.502 52.0984C84.197 52.1898 83.9123 52.3387 83.6633 52.5372V52.1626H81.9725V59.2991H83.6633V55.4794C83.676 55.2213 83.702 54.9762 83.7277 54.7438C83.7664 54.4988 83.8309 54.2921 83.9341 54.1115C84.0372 53.9308 84.1922 53.7889 84.3858 53.6727C84.5795 53.5565 84.8245 53.4918 85.1214 53.4791C85.4957 53.4664 85.7925 53.5696 86.0249 53.7632C86.2569 53.9696 86.4118 54.2276 86.4893 54.5632C86.528 54.7181 86.5537 54.9245 86.5798 55.1826C86.5925 55.4276 86.6055 55.7889 86.6055 56.2667V59.2991H88.2703V55.854C88.2723 55.4493 88.2594 55.0447 88.2315 54.641C88.2076 54.2809 88.1381 53.9249 88.0249 53.5822Z" fill="#EA5F00"/>
</g>
<rect x="1" y="1" width="110" height="110" rx="9" stroke="#CCCCCC" stroke-width="2"/>
<defs>
<clipPath id="clip0_6_7386">
<rect x="2" y="2" width="108" height="108" rx="8" fill="white"/>
</clipPath>
</defs>
</svg>
