<svg width="112" height="112" viewBox="0 0 112 112" fill="none" xmlns="http://www.w3.org/2000/svg">
<g clip-path="url(#clip0_302_1302)">
<rect x="2" y="2" width="108" height="108" rx="8" fill="white"/>
<path d="M54.7785 23.475C36.666 24.2937 22.6472 39.6375 23.4722 57.7437C24.291 75.8562 39.6347 89.8687 57.741 89.05C75.8535 88.2375 89.8597 72.8875 89.041 54.7812C88.2535 37.175 73.7347 23.4437 56.291 23.4437C55.791 23.4437 55.2847 23.4562 54.7785 23.475Z" fill="url(#paint0_radial_302_1302)"/>
<path d="M55.6597 23C55.3597 23.0062 55.066 23.0187 54.766 23.0312C36.4035 23.8625 22.2035 39.4125 23.0347 57.7687C23.8347 75.5187 38.4097 89.3875 55.9722 89.5375H56.5222C56.941 89.5375 57.3535 89.525 57.7722 89.5062C75.4535 88.7062 89.2847 74.2375 89.5285 56.7625V55.8125C89.5285 55.4625 89.516 55.1125 89.4972 54.7625C88.7035 37.1437 74.3285 23.3437 56.9472 23H55.6597ZM58.7222 85.525C58.691 84.775 59.791 84.5812 59.791 84.5812C69.6285 82.6437 66.7535 76.1937 63.2722 72.9C61.8097 71.5125 48.1097 59.7 48.1097 59.7C35.0472 48.4562 36.091 39.675 36.091 39.675C36.7222 28.8687 46.1847 26.1937 53.3347 26.8125C54.1722 26.8812 54.6347 27.3937 54.4847 28.0937C54.3285 28.85 53.2222 28.9062 53.2222 28.9062C50.9472 29.0437 48.9097 29.275 47.3597 30.3125C41.591 34.1937 43.2972 40.7875 50.9847 48.1312C51.9535 49.0625 52.9785 50.0312 54.0347 51.0187C54.0347 51.0187 55.5785 52.3812 58.6535 55.3062C64.566 60.7562 67.8035 63.6937 67.8035 63.6937C78.2222 72.375 74.666 80.3062 70.6847 83.0687C67.6472 85.175 64.2785 86.1625 59.8722 86.3937L59.7535 86.4062C59.341 86.4062 58.7472 86.1562 58.716 85.5187M61.1597 53.475C57.7785 52.7625 57.091 49.7 57.091 49.7C56.8097 48.6187 56.7472 47.2625 56.9722 45.525C57.4347 41.8937 58.4097 40.1875 59.5222 37.375C61.0285 33.5937 57.3722 31.3812 57.9785 29.9937C58.8035 28.1125 61.416 30.5062 64.3222 30.6812C66.8285 30.8187 68.3347 30.6937 70.2847 30.9562C72.8722 31.3 75.966 32.175 77.341 33.8C78.6035 35.2812 76.6722 37.0875 74.3535 35.95C72.6597 35.125 70.5222 35.6312 71.7722 37.4C73.2847 39.0812 74.0035 39.1312 75.541 39.5312C79.7785 40.6437 79.8597 44.7 77.0035 46.8062C73.7347 49.1937 70.441 48.2125 69.1097 43.525C68.441 41.1875 66.791 40 65.0972 40.6625C63.416 41.325 64.4097 44.4 65.691 47.25C67.9097 52.925 63.4097 53.5062 61.7035 53.5062C61.441 53.5062 61.2472 53.4937 61.1535 53.4812M48.7597 84.4625C45.0847 84.1 40.691 82.9437 36.8722 79.6375C33.3597 76.6 31.1785 72.4125 30.1222 68.75C29.041 64.9875 28.5847 60.5937 30.3722 60.9437C30.9222 61.05 31.8722 63.4687 32.9035 65.225C33.9722 67.0375 34.841 68.0437 35.6535 68.6562C36.0222 68.9312 37.2785 66.1437 39.0972 64.5562C40.1597 63.6812 41.3222 63.3812 41.5097 65.9937C41.7347 69.2 41.1597 73.0062 42.091 73.0062C42.966 73.0062 44.941 72.3437 49.2722 71.9812C50.8972 71.8437 51.8222 72.15 50.2722 74.3437C49.4972 75.4312 48.4597 76.975 46.0035 78.7375C49.6847 82.1875 54.1035 81.7687 54.1785 83.2375C54.2222 84.0812 52.5722 84.55 50.4097 84.55C49.8847 84.55 49.3285 84.5187 48.7535 84.4687" fill="url(#paint1_radial_302_1302)"/>
</g>
<rect x="1" y="1" width="110" height="110" rx="9" stroke="#CCCCCC" stroke-width="2"/>
<defs>
<radialGradient id="paint0_radial_302_1302" cx="0" cy="0" r="1" gradientUnits="userSpaceOnUse" gradientTransform="translate(62.5669 47.1602) scale(31.4965 31.4995)">
<stop stop-color="white"/>
<stop offset="1" stop-color="#CF9C51"/>
</radialGradient>
<radialGradient id="paint1_radial_302_1302" cx="0" cy="0" r="1" gradientUnits="userSpaceOnUse" gradientTransform="translate(61.7474 48.3884) scale(69.4811 69.4811)">
<stop stop-color="#00C0F3"/>
<stop offset="0.22" stop-color="#0097D6"/>
<stop offset="0.57" stop-color="#0066B3"/>
<stop offset="1" stop-color="#0066B3"/>
</radialGradient>
<clipPath id="clip0_302_1302">
<rect x="2" y="2" width="108" height="108" rx="8" fill="white"/>
</clipPath>
</defs>
</svg>
