<svg width="112" height="112" viewBox="0 0 112 112" fill="none" xmlns="http://www.w3.org/2000/svg">
<g clip-path="url(#clip0_6_7387)">
<rect x="2" y="2" width="108" height="108" rx="8" fill="white"/>
<path d="M16 48.6325C16 47.7314 16.7304 47 17.6325 47H32.2913C33.1924 47 33.9238 47.7314 33.9238 48.6325V63.2923C33.9238 64.1934 33.1924 64.9248 32.2913 64.9248H17.6325C16.7304 64.9248 16 64.1934 16 63.2923V48.6325Z" fill="#ED1D24"/>
<path d="M30.1697 56.1281C30.0708 59.5537 27.2616 62.3011 23.8104 62.3011C20.3602 62.3011 17.551 59.5537 17.4521 56.1281H17.7668C17.7944 58.8118 19.9786 60.9794 22.6693 60.9794C25.3605 60.9794 27.5442 58.8118 27.5713 56.1281H30.1697Z" fill="white"/>
<path d="M33.1228 56.1282C33.0345 60.5598 29.4146 64.125 24.9614 64.125C20.5082 64.125 16.8883 60.5598 16.8009 56.1282H17.1342C17.2402 59.7295 20.1934 62.616 23.8203 62.616C27.4468 62.616 30.4 59.7295 30.5059 56.1282H33.1228Z" fill="white"/>
<path d="M27.24 56.1281C27.2205 58.6381 25.1799 60.6656 22.6653 60.6656C20.1513 60.6656 18.1102 58.6381 18.0901 56.1281H18.4285C18.4265 56.1652 18.4265 56.2034 18.4265 56.241C18.4265 58.0467 19.8903 59.5106 21.6955 59.5106C23.5017 59.5106 24.9655 58.0467 24.9655 56.241C24.9655 56.2034 24.9655 56.1652 24.9635 56.1281H27.24Z" fill="white"/>
<path d="M22.6828 55.7968C22.7024 53.2868 24.7435 51.2592 27.2575 51.2592C29.7725 51.2592 31.8126 53.2868 31.8327 55.7968H31.4954C31.4964 55.7596 31.4974 55.7215 31.4974 55.6838C31.4974 53.8781 30.0335 52.4143 28.2274 52.4143C26.4212 52.4143 24.9573 53.8781 24.9573 55.6838C24.9573 55.7215 24.9584 55.7596 24.9594 55.7968H22.6828Z" fill="white"/>
<path d="M16.8011 55.7968C16.8884 51.3651 20.5093 47.7999 24.9615 47.7999C29.4148 47.7999 33.0347 51.3651 33.123 55.7968H32.7887C32.6828 52.1954 29.7305 49.3089 26.1026 49.3089C22.4762 49.3089 19.5239 52.1954 19.418 55.7968H16.8011Z" fill="white"/>
<path d="M19.7542 55.7968C19.8531 52.3711 22.6623 49.6237 26.1125 49.6237C29.5627 49.6237 32.3719 52.3711 32.4708 55.7968H32.1561C32.1294 53.1131 29.9453 50.9455 27.2535 50.9455C24.5633 50.9455 22.3792 53.1131 22.3525 55.7968H19.7542Z" fill="white"/>
<path fill-rule="evenodd" clip-rule="evenodd" d="M88.7161 62.6038L90.7868 62.2881C90.8741 62.6902 91.0533 62.9959 91.3219 63.2067C91.592 63.4115 91.9685 63.5145 92.4534 63.5145C92.987 63.5145 93.3881 63.4166 93.6577 63.2208C93.8379 63.0842 93.9293 62.9 93.9293 62.6706C93.9293 62.5135 93.8801 62.3845 93.7822 62.281C93.6793 62.1832 93.4499 62.0928 93.0919 62.0095C91.4268 61.642 90.3731 61.3067 89.9269 61.0035C89.3104 60.5823 89.0022 59.998 89.0022 59.2485C89.0022 58.5733 89.2693 58.0055 89.8024 57.5447C90.336 57.0849 91.1633 56.8555 92.2837 56.8545C93.3515 56.8545 94.1441 57.0292 94.6637 57.376C95.1823 57.7239 95.5392 58.238 95.7349 58.9182L93.7897 59.2781C93.7064 58.9744 93.5468 58.742 93.3123 58.5798C93.0819 58.4192 92.7516 58.3379 92.3214 58.3379C91.7782 58.3379 91.3887 58.4142 91.1532 58.5653C90.9966 58.6732 90.9183 58.8133 90.9183 58.9839C90.9183 59.131 90.9866 59.2555 91.1241 59.3584C91.3104 59.496 91.9514 59.6887 93.0478 59.9387C94.1486 60.1882 94.9177 60.4949 95.3539 60.8569C95.7841 61.2243 95.999 61.7354 96 62.391C96 63.1058 95.7008 63.7208 95.1039 64.2343C94.5066 64.7479 93.6231 65.0049 92.4534 65.0049C91.3907 65.0049 90.5483 64.79 89.9269 64.3588C89.3104 63.9286 88.9063 63.3433 88.7161 62.6038Z" fill="#414042"/>
<path fill-rule="evenodd" clip-rule="evenodd" d="M69.0587 57.0308H70.9598V58.0956C71.6405 57.2683 72.4502 56.8551 73.3905 56.8541C73.8895 56.8541 74.3227 56.9575 74.6906 57.1633C75.0571 57.3692 75.3583 57.6799 75.5937 58.0956C75.9356 57.6799 76.3056 57.3692 76.7027 57.1633C77.0987 56.9575 77.5219 56.8541 77.9722 56.8541C78.5445 56.8541 79.0299 56.9721 79.426 57.2075C79.8221 57.4379 80.1183 57.7778 80.3145 58.2281C80.4566 58.5604 80.5274 59.0996 80.5274 59.843V64.8293H78.4642V60.3721C78.4642 59.5985 78.3929 59.0996 78.2513 58.8742C78.0606 58.58 77.7674 58.4339 77.3703 58.4339C77.0807 58.4339 76.8091 58.5223 76.5556 58.6975C76.3006 58.8742 76.1173 59.1337 76.0044 59.476C75.8914 59.8144 75.8357 60.3495 75.8357 61.0839V64.8293H73.772V60.5553C73.772 59.7968 73.7353 59.3074 73.662 59.087C73.5883 58.8661 73.4738 58.7025 73.3167 58.5945C73.1651 58.4876 72.9572 58.4339 72.6932 58.4339C72.3744 58.4339 72.0883 58.5192 71.8343 58.6909C71.5793 58.8611 71.395 59.1096 71.2836 59.4319C71.1756 59.7557 71.1214 60.2908 71.1214 61.0398V64.8293H69.0587V57.0308Z" fill="#414042"/>
<path fill-rule="evenodd" clip-rule="evenodd" d="M65.8614 64.8295H63.7987V57.031H65.7153V58.1399C66.0426 57.6163 66.3368 57.2709 66.5958 57.1042C66.8604 56.9376 67.1586 56.8553 67.4919 56.8542C67.9618 56.8542 68.4146 56.9848 68.8498 57.2438L68.2118 59.043C67.8634 58.8181 67.5411 58.7056 67.2419 58.7056C66.9538 58.7056 66.7083 58.7859 66.5085 58.9476C66.3077 59.1047 66.1486 59.3908 66.0311 59.8065C65.9181 60.2221 65.8614 61.0941 65.8614 62.4204V64.8295Z" fill="#414042"/>
<path fill-rule="evenodd" clip-rule="evenodd" d="M55.1607 64.8295H53.098V60.8486C53.098 60.0078 53.0538 59.4641 52.9654 59.2192C52.8771 58.9692 52.733 58.7759 52.5322 58.6388C52.3359 58.5023 52.0985 58.434 51.8204 58.434C51.4625 58.434 51.1417 58.5309 50.8586 58.7272C50.5739 58.923 50.3782 59.182 50.2702 59.5058C50.1683 59.8291 50.1161 60.4265 50.1161 61.2969V64.8295H48.0534V57.031H49.969V58.176C50.6497 57.2955 51.5066 56.8542 52.5387 56.8542C52.9951 56.8542 53.4107 56.9376 53.7882 57.1042C54.1647 57.2664 54.4478 57.4742 54.6391 57.7287C54.8354 57.9827 54.9694 58.2719 55.0432 58.5947C55.1215 58.9185 55.1607 59.3808 55.1607 59.9832V64.8295Z" fill="#414042"/>
<path fill-rule="evenodd" clip-rule="evenodd" d="M44.6423 57.031H46.705V64.8295H44.6423V57.031Z" fill="#414042"/>
<path fill-rule="evenodd" clip-rule="evenodd" d="M44.6423 54.0651H46.705V55.9742H44.6423V54.0651Z" fill="#414042"/>
<path fill-rule="evenodd" clip-rule="evenodd" d="M36.3034 62.6038L38.3741 62.2881C38.4625 62.6902 38.6407 62.9959 38.9103 63.2067C39.1793 63.4115 39.5563 63.5145 40.0408 63.5145C40.5744 63.5145 40.9765 63.4166 41.2451 63.2208C41.4263 63.0842 41.5166 62.9 41.5166 62.6706C41.5166 62.5135 41.4675 62.3845 41.3706 62.281C41.2677 62.1832 41.0372 62.0928 40.6803 62.0095C39.0152 61.642 37.9605 61.3067 37.5152 61.0035C36.8988 60.5823 36.5895 59.998 36.5895 59.2485C36.5895 58.5733 36.8566 58.0055 37.3907 57.5447C37.9244 57.0849 38.7506 56.8555 39.8721 56.8545C40.9388 56.8545 41.732 57.0292 42.2511 57.376C42.7696 57.7239 43.1276 58.238 43.3233 58.9182L41.3771 59.2781C41.2938 58.9744 41.1351 58.742 40.8997 58.5798C40.6693 58.4192 40.34 58.3379 39.9087 58.3379C39.3656 58.3379 38.976 58.4142 38.7416 58.5653C38.585 58.6732 38.5067 58.8133 38.5067 58.9839C38.5067 59.131 38.5749 59.2555 38.7125 59.3584C38.8977 59.496 39.5388 59.6887 40.6361 59.9387C41.737 60.1882 42.5056 60.4949 42.9413 60.8569C43.3715 61.2243 43.5874 61.7354 43.5874 62.391C43.5874 63.1058 43.2882 63.7208 42.6923 64.2343C42.0939 64.7479 41.2104 65.0049 40.0408 65.0049C38.9791 65.0049 38.1367 64.79 37.5152 64.3588C36.8988 63.9286 36.4947 63.3433 36.3034 62.6038Z" fill="#414042"/>
<path fill-rule="evenodd" clip-rule="evenodd" d="M86.1345 61.4959C86.1335 61.9899 86.1069 62.3252 86.0532 62.5019C85.9749 62.7705 85.8107 62.9979 85.5618 63.1841C85.2239 63.4296 84.869 63.5521 84.497 63.5521C84.1637 63.5521 83.8891 63.4462 83.6748 63.2353C83.4589 63.0255 83.351 62.7755 83.351 62.4864C83.351 62.1932 83.4865 61.9507 83.7551 61.7595C83.9313 61.642 84.3058 61.5225 84.8785 61.4C85.4513 61.2771 85.87 61.1721 86.1345 61.0843V61.4959ZM88.2349 63.786C88.1711 63.4587 88.1385 62.9517 88.1385 62.2665L88.1611 59.8574C88.1601 58.9624 88.0682 58.3479 87.8815 58.0151C87.7003 57.6772 87.3845 57.4006 86.9347 57.1848C86.4844 56.9654 85.7982 56.8545 84.8785 56.8545C83.8655 56.8555 83.102 57.0357 82.5884 57.3986C82.0734 57.7606 81.7115 58.3183 81.5011 59.0723L83.3736 59.4106C83.5011 59.0477 83.6667 58.7957 83.8725 58.6536C84.0784 58.5065 84.365 58.4337 84.7315 58.4337C85.2756 58.4337 85.6441 58.5191 85.8404 58.6908C86.0366 58.8574 86.1345 59.1391 86.1345 59.5351V59.7409C85.762 59.8966 85.0944 60.0662 84.1296 60.247C83.4147 60.384 82.8665 60.5456 82.485 60.7324C82.108 60.9126 81.8149 61.1772 81.604 61.5255C81.3932 61.8674 81.2883 62.259 81.2883 62.6997C81.2883 63.3659 81.5187 63.9156 81.9785 64.3518C82.4429 64.7875 83.0774 65.0049 83.8806 65.0049C84.3354 65.0049 84.7641 64.9195 85.1647 64.7484C85.5668 64.5777 85.9433 64.3197 86.2952 63.9773C86.3102 64.0165 86.3343 64.0973 86.369 64.2198C86.4473 64.4893 86.513 64.6921 86.5677 64.8297H88.6084C88.4276 64.4567 88.3021 64.1098 88.2349 63.786Z" fill="#414042"/>
<path fill-rule="evenodd" clip-rule="evenodd" d="M60.8042 61.4959C60.8042 61.9899 60.7766 62.3252 60.7239 62.5019C60.6446 62.7705 60.4804 62.9979 60.2314 63.1841C59.8936 63.4296 59.5387 63.5521 59.1667 63.5521C58.8334 63.5521 58.5598 63.4462 58.3444 63.2353C58.1286 63.0255 58.0217 62.7755 58.0217 62.4864C58.0217 62.1932 58.1562 61.9507 58.4258 61.7595C58.601 61.642 58.9754 61.5225 59.5482 61.4C60.121 61.2771 60.5397 61.1721 60.8042 61.0843V61.4959ZM62.9046 63.786C62.8408 63.4587 62.8082 62.9517 62.8082 62.2665L62.8308 59.8574C62.8308 58.9624 62.7379 58.3479 62.5512 58.0151C62.3699 57.6772 62.0542 57.4006 61.6044 57.1848C61.1541 56.9654 60.4689 56.8545 59.5482 56.8545C58.5352 56.8555 57.7717 57.0357 57.2581 57.3986C56.7431 57.7606 56.3811 58.3183 56.1713 59.0723L58.0432 59.4106C58.1707 59.0477 58.3374 58.7957 58.5422 58.6536C58.748 58.5065 59.0347 58.4337 59.4011 58.4337C59.9453 58.4337 60.3138 58.5191 60.51 58.6908C60.7063 58.8574 60.8042 59.1391 60.8042 59.5351V59.7409C60.4317 59.8966 59.7641 60.0662 58.7992 60.247C58.0854 60.384 57.5362 60.5456 57.1547 60.7324C56.7777 60.9126 56.4845 61.1772 56.2737 61.5255C56.0629 61.8674 55.9579 62.259 55.9579 62.6997C55.9579 63.3659 56.1884 63.9156 56.6482 64.3518C57.1125 64.7875 57.7471 65.0049 58.5503 65.0049C59.0051 65.0049 59.4338 64.9195 59.8344 64.7484C60.2365 64.5777 60.613 64.3197 60.9659 63.9773C60.9809 64.0165 61.004 64.0973 61.0397 64.2198C61.117 64.4893 61.1837 64.6921 61.2374 64.8297H63.2791C63.0973 64.4567 62.9718 64.1098 62.9046 63.786Z" fill="#414042"/>
<path d="M36.7166 52.3499H37.719V51.8554H37.7338C37.964 52.2825 38.4317 52.4548 38.996 52.4548C39.7608 52.4548 40.5849 51.8329 40.5849 50.4093C40.5849 48.9931 39.7608 48.3712 38.996 48.3712C38.5208 48.3712 38.0456 48.551 37.7858 48.9482H37.7709V47H36.7166V52.3499ZM39.5306 50.4168C39.5306 51.0611 39.2559 51.6531 38.6322 51.6531C38.0085 51.6531 37.7338 51.0611 37.7338 50.4168C37.7338 49.7649 38.0085 49.1729 38.6322 49.1729C39.2559 49.1729 39.5306 49.7649 39.5306 50.4168Z" fill="#414042"/>
<path d="M43.337 50.8513C43.337 51.0836 43.3073 51.743 42.4832 51.743C42.1416 51.743 41.8372 51.6456 41.8372 51.2485C41.8372 50.8588 42.1342 50.7464 42.4609 50.679C42.7876 50.6191 43.1588 50.6116 43.337 50.4542V50.8513ZM41.956 49.6675C41.9931 49.2479 42.253 49.083 42.6539 49.083C43.0252 49.083 43.337 49.1505 43.337 49.6075C43.337 50.0421 42.7356 50.0196 42.0896 50.117C41.4363 50.207 40.7829 50.4168 40.7829 51.2934C40.7829 52.0877 41.362 52.4548 42.0896 52.4548C42.5574 52.4548 43.0474 52.3274 43.3816 51.9753C43.389 52.1027 43.4187 52.23 43.4558 52.3499H44.525C44.4284 52.1926 44.3913 51.8404 44.3913 51.4882V49.4727C44.3913 48.5435 43.4707 48.3712 42.7059 48.3712C41.8446 48.3712 40.9611 48.6709 40.9017 49.6675H41.956Z" fill="#414042"/>
<path d="M44.9003 52.3499H45.9546V50.3194C45.9546 49.5326 46.1996 49.2104 46.7714 49.2104C47.2614 49.2104 47.447 49.5251 47.447 50.162V52.3499H48.5013V49.9672C48.5013 49.0081 48.2192 48.3712 47.098 48.3712C46.6526 48.3712 46.1922 48.581 45.9249 49.0156H45.9027V48.4761H44.9003V52.3499Z" fill="#414042"/>
<path d="M49.0887 52.3499H50.143V51.0162L50.5514 50.6191L51.6057 52.3499H52.8827L51.2716 49.8998L52.7194 48.4761H51.472L50.143 49.8698V47H49.0887V52.3499Z" fill="#414042"/>
</g>
<rect x="1" y="1" width="110" height="110" rx="9" stroke="#CCCCCC" stroke-width="2"/>
<defs>
<clipPath id="clip0_6_7387">
<rect x="2" y="2" width="108" height="108" rx="8" fill="white"/>
</clipPath>
</defs>
</svg>
