<svg width="112" height="112" viewBox="0 0 112 112" fill="none" xmlns="http://www.w3.org/2000/svg">
<g clip-path="url(#clip0_528_35)">
<rect x="2" y="2" width="108" height="108" rx="8" fill="white"/>
<path fill-rule="evenodd" clip-rule="evenodd" d="M16 44.1724C16 43.2113 16.7791 42.4323 17.7404 42.4323H33.3694C34.3304 42.4323 35.1095 43.2113 35.1095 44.1724V59.8015C35.1095 60.7626 34.3304 61.5418 33.3694 61.5418H17.7404C16.7791 61.5418 16 60.7626 16 59.8015V44.1724Z" fill="#E30016"/>
<path fill-rule="evenodd" clip-rule="evenodd" d="M20.0028 51.8108C20.1082 48.1576 23.1029 45.2284 26.7818 45.2284C30.4609 45.2284 33.4554 48.1576 33.5611 51.8108H33.2254C33.1965 48.949 30.8677 46.6379 27.999 46.6379C25.1302 46.6379 22.8014 48.949 22.7725 51.8108H20.0028ZM16.8539 51.8108C16.9479 47.086 20.8074 43.2846 25.5549 43.2846C30.3023 43.2846 34.1618 47.086 34.2557 51.8108H33.8999C33.7868 47.9714 30.6389 44.8935 26.772 44.8935C22.905 44.8935 19.757 47.9714 19.6441 51.8108H16.8539ZM23.1253 51.8108C23.1463 49.135 25.3221 46.9723 28.0031 46.9723C30.684 46.9723 32.8597 49.135 32.8806 51.8108H32.5204C32.5217 51.7708 32.5227 51.7306 32.5227 51.69C32.5227 49.7647 30.9618 48.204 29.0365 48.204C27.1112 48.204 25.5504 49.7647 25.5504 51.69C25.5504 51.7306 25.5512 51.7708 25.5526 51.8108H23.1253ZM27.9843 52.1631C27.9632 54.839 25.7876 57.0019 23.1066 57.0019C20.4257 57.0019 18.25 54.839 18.229 52.1631H18.5891C18.5878 52.2032 18.5872 52.2435 18.5872 52.284C18.5872 54.2093 20.1479 55.7702 22.0732 55.7702C23.9984 55.7702 25.5592 54.2093 25.5592 52.284C25.5592 52.2435 25.5584 52.2032 25.5572 52.1631H27.9843ZM34.2557 52.1631C34.1617 56.8882 30.3023 60.6894 25.5549 60.6894C20.8074 60.6894 16.9479 56.8882 16.8539 52.1631H17.2098C17.3227 56.0027 20.4708 59.0805 24.3377 59.0805C28.2047 59.0805 31.3527 56.0027 31.4656 52.1631H34.2557ZM31.107 52.1631C31.0013 55.8165 28.0067 58.7457 24.3279 58.7457C20.6489 58.7457 17.6543 55.8165 17.5486 52.1631H17.8843C17.9129 55.025 20.2421 57.3362 23.1108 57.3362C25.9796 57.3362 28.3083 55.025 28.3373 52.1631H31.107Z" fill="white"/>
<path fill-rule="evenodd" clip-rule="evenodd" d="M37.9762 47.6918V42.4323H38.9943V44.3265C39.3083 43.9726 39.6803 43.7957 40.1103 43.7955C40.5791 43.7955 40.9666 43.9641 41.2736 44.3013C41.5805 44.6362 41.7336 45.1183 41.7338 45.7472C41.7338 46.3978 41.5768 46.8988 41.2629 47.2505C40.9511 47.6021 40.5717 47.7778 40.1248 47.7778C39.905 47.7778 39.6875 47.724 39.4726 47.6163C39.2599 47.5064 39.0764 47.3449 38.9218 47.132V47.6918H37.9762ZM50.0639 47.6918V42.4323H51.082V45.2234L52.2742 43.8816H53.528L52.2127 45.2737L53.6221 47.6918H52.5242L51.5568 45.9804L51.082 46.4719V47.6918H50.0639ZM49.4384 47.6918H48.4201V45.7472C48.4201 45.3359 48.3984 45.0704 48.355 44.9508C48.3115 44.8288 48.24 44.7344 48.1411 44.6673C48.0444 44.6004 47.9273 44.5669 47.7896 44.5669C47.6131 44.5669 47.455 44.6147 47.3149 44.7105C47.1747 44.806 47.0781 44.9328 47.0251 45.0906C46.9743 45.2485 46.9489 45.5403 46.9489 45.9661V47.6918H45.9307V43.8816H46.8765V44.4414C47.2122 44.0109 47.6349 43.7955 48.1447 43.7955C48.3694 43.7955 48.5746 43.8362 48.7608 43.9174C48.9466 43.9965 49.0866 44.0982 49.181 44.2225C49.2775 44.3469 49.3441 44.4879 49.3803 44.6458C49.4189 44.8037 49.4382 45.0297 49.4384 45.3239V47.6918ZM44.3051 45.862C44.1746 45.905 43.968 45.9565 43.6855 46.0163C43.4029 46.0762 43.218 46.1347 43.1312 46.1921C42.9982 46.2854 42.9318 46.4037 42.9318 46.5472C42.9318 46.6885 42.9849 46.8104 43.0911 46.9133C43.1975 47.0162 43.3327 47.0675 43.497 47.0675C43.6805 47.0675 43.8556 47.0078 44.0225 46.8881C44.1456 46.7973 44.2264 46.6862 44.2652 46.5545C44.2917 46.4684 44.305 46.3045 44.3051 46.0628V45.862ZM42.9425 45.0441L42.0185 44.8789C42.1224 44.5107 42.3011 44.2381 42.5549 44.061C42.8086 43.8841 43.1854 43.7957 43.6855 43.7955C44.1395 43.7955 44.4778 43.8493 44.7002 43.957C44.9224 44.0623 45.078 44.1973 45.1676 44.3623C45.2592 44.5251 45.3051 44.8252 45.3053 45.2628L45.2942 46.4396C45.2942 46.7745 45.3099 47.022 45.3416 47.1822C45.3753 47.34 45.4368 47.5099 45.5262 47.6918H44.519C44.4923 47.6247 44.4596 47.5255 44.4212 47.3938C44.404 47.3341 44.392 47.2947 44.3848 47.2755C44.2109 47.4432 44.0248 47.5686 43.8269 47.6522C43.6286 47.7359 43.4174 47.7777 43.1927 47.7778C42.7964 47.7778 42.4835 47.6714 42.2541 47.4586C42.0269 47.2457 41.9136 46.9766 41.9136 46.6513C41.9136 46.436 41.9654 46.2448 42.0694 46.0773C42.1733 45.9075 42.3181 45.7784 42.504 45.6897C42.6925 45.599 42.9631 45.5201 43.3158 45.4531C43.7916 45.3645 44.1214 45.2821 44.3051 45.2055V45.105C44.3051 44.9112 44.2567 44.7739 44.1601 44.6925C44.0635 44.6088 43.8812 44.5669 43.613 44.5669C43.4319 44.5669 43.2904 44.6028 43.189 44.6745C43.0875 44.7439 43.0054 44.8671 42.9425 45.0441ZM38.987 45.7042C38.987 46.0988 39.0498 46.3906 39.1754 46.5795C39.3518 46.8474 39.5861 46.9815 39.8785 46.9815C40.103 46.9815 40.294 46.887 40.451 46.698C40.6105 46.5068 40.6902 46.2066 40.6902 45.7974C40.6902 45.3622 40.6105 45.0488 40.451 44.8575C40.2915 44.6637 40.0874 44.5669 39.8386 44.5669C39.5945 44.5669 39.3918 44.6614 39.2298 44.8503C39.0678 45.0368 38.987 45.3215 38.987 45.7042Z" fill="#3B3B3B"/>
<path fill-rule="evenodd" clip-rule="evenodd" d="M65.6441 64.3582C64.9878 64.8613 65.3667 65.8856 65.6101 66.0588C65.9791 66.348 67.8468 66.3656 68.0691 66.3479C68.5808 66.3479 68.2657 66.9941 68.0919 67.0978C66.3283 68.1505 58.8411 67.0622 60.2736 64.9874C58.3444 66.892 66.5272 69.5474 68.8872 67.7422C69.3318 67.4022 69.6525 66.0588 69.1008 65.6354C68.8005 65.438 67.378 65.6555 66.7885 65.454C66.3243 65.2953 66.5911 64.8836 66.6978 64.8005C67.7275 63.999 69.5905 65.0641 69.5905 65.0641C69.5905 65.0641 69.6074 64.5125 69.5861 64.3416C69.5062 63.697 66.8262 63.4962 65.6441 64.3582Z" fill="#009035"/>
<path fill-rule="evenodd" clip-rule="evenodd" d="M72.241 64.8004C72.2314 65.0317 72.241 66.5859 72.241 66.5859C72.241 66.5859 71.622 67.4022 71.0098 66.5859V64.1032C70.9936 64.1032 69.9622 64.5827 69.9622 64.8004V66.9601C70.5405 68.1164 72.241 67.7422 72.241 67.7422C72.241 67.7422 72.2524 68.8046 69.9622 69.0992C69.9622 69.122 73.2277 69.4655 73.2277 67.7422C73.1934 67.4475 73.2616 64.4257 73.2616 64.1032C73.2082 64.1032 72.2508 64.5692 72.241 64.8004Z" fill="#009035"/>
<path fill-rule="evenodd" clip-rule="evenodd" d="M74.8034 66.5859C74.9044 65.997 75.1546 65.2936 76.198 65.2936V66.5859C74.531 67.4023 74.8034 66.5859 74.8034 66.5859ZM77.0144 66.5859V64.1033C73.6015 64.1033 73.6358 67.4023 73.6358 67.4023C73.6358 67.4023 74.531 68.2184 76.1638 67.4023C77.2863 67.9804 77.7966 67.4023 77.7966 67.4023C77.7966 67.4023 77.0144 67.0622 77.0144 66.5859Z" fill="#009035"/>
<path fill-rule="evenodd" clip-rule="evenodd" d="M77.8021 64.3582C77.8021 64.3582 77.8137 65.7697 77.8137 66.5859C77.8137 65.7874 77.6602 67.6054 78.7248 67.7422C78.7248 66.926 78.7205 64.9874 78.7205 64.9874C78.2103 64.8061 77.8021 64.3582 77.8021 64.3582Z" fill="#009035"/>
<path fill-rule="evenodd" clip-rule="evenodd" d="M82.343 64.5623C82.4744 64.1543 81.5994 64.1033 81.5913 64.1033C81.3358 64.1033 80.894 65.1574 80.894 65.1574C80.8681 65.1574 81.3111 64.9874 81.547 64.9874C81.547 64.9874 81.4451 66.382 81.4451 66.5859C81.4451 66.8204 81.5016 67.2283 81.7419 67.4023C82.1422 67.6911 82.343 67.7422 82.343 67.7422V64.5623ZM82.0593 62.7094L81.4421 63.3268L82.0593 63.944L82.6768 63.3268L82.0593 62.7094Z" fill="#009035"/>
<path fill-rule="evenodd" clip-rule="evenodd" d="M90.6499 67.1302C90.3438 66.5859 91.3004 64.9213 90.7382 64.3582C90.6384 64.2586 90.2293 64.1033 90.0884 64.1033C90.0884 64.1033 88.6105 64.0957 88.379 64.3582L88.372 61.5418C87.7572 61.5418 87.3541 62.4707 87.3541 62.4707V66.3479C87.3541 66.3479 87.2635 67.7423 88.3744 67.7423C88.3945 67.7423 88.3971 65.5961 88.3958 65.4466C88.668 65.0215 89.6862 65.0325 89.9129 65.1837C90.1682 65.3537 89.5729 67.2661 89.9469 67.7423C91.4432 69.3068 96.8223 65.6166 95.7337 64.9874C96.6181 66.0589 91.3301 68.2865 90.6499 67.1302Z" fill="#009035"/>
<path fill-rule="evenodd" clip-rule="evenodd" d="M68.9896 68.4903L68.451 69.029L68.9896 69.5677L69.5286 69.029L68.9896 68.4903Z" fill="#009035"/>
<path fill-rule="evenodd" clip-rule="evenodd" d="M67.6189 68.4903L67.0801 69.029L67.6189 69.5677L68.1578 69.029L67.6189 68.4903Z" fill="#009035"/>
<path fill-rule="evenodd" clip-rule="evenodd" d="M84.225 66.5859C84.326 65.997 84.5759 65.2936 85.6196 65.2936V66.5859C83.9526 67.4023 84.225 66.5859 84.225 66.5859ZM86.4356 66.5859V64.1033C83.0231 64.1033 83.057 67.4023 83.057 67.4023C83.057 67.4023 83.9526 68.2184 85.5853 67.4023C86.7078 67.9804 87.2181 67.4023 87.2181 67.4023C87.2181 67.4023 86.4356 67.0622 86.4356 66.5859Z" fill="#009035"/>
<path fill-rule="evenodd" clip-rule="evenodd" d="M80.339 64.308C80.2634 64.3504 80.0382 64.2715 80.0382 64.1015C80.0382 63.9314 80.1882 63.7162 80.3001 63.6788C80.3587 63.6592 80.6405 63.6739 80.6405 63.9168C80.6405 64.1209 80.4947 64.2205 80.339 64.308ZM80.1297 63.1022C79.8236 63.1022 79.231 63.8681 80.0042 64.3582C79.707 64.5143 78.8495 64.8005 77.8629 64.1204C77.8021 64.1033 78.1935 64.5427 78.4429 64.6986C79.314 65.243 81.0333 65.327 81.1356 63.9155C81.1798 63.3039 80.4358 63.1022 80.1297 63.1022Z" fill="#009035"/>
<path fill-rule="evenodd" clip-rule="evenodd" d="M37.7008 57.4599L39.723 57.1517C39.8091 57.5436 39.9835 57.8424 40.2464 58.0478C40.5092 58.2487 40.8773 58.349 41.3508 58.349C41.8718 58.349 42.2636 58.2536 42.5268 58.0622C42.7036 57.9285 42.7919 57.7491 42.7921 57.5244C42.7921 57.3716 42.7442 57.2451 42.6486 57.1444C42.5483 57.0489 42.3234 56.9606 41.9746 56.8793C40.3491 56.5208 39.3189 56.1935 38.8841 55.8971C38.2819 55.486 37.9806 54.9149 37.9806 54.1834C37.9806 53.5239 38.241 52.9695 38.7622 52.5201C39.2832 52.071 40.0911 51.8464 41.1858 51.8461C42.2279 51.8461 43.0022 52.016 43.5092 52.3551C44.0158 52.6945 44.3647 53.1964 44.5561 53.8608L42.6559 54.212C42.5745 53.9159 42.4192 53.689 42.1897 53.5309C41.9648 53.3732 41.6423 53.2944 41.2218 53.2944C40.6912 53.2944 40.3111 53.3685 40.0816 53.5166C39.9284 53.6219 39.8521 53.7583 39.8521 53.9253C39.8521 54.0686 39.9189 54.1906 40.0529 54.291C40.2345 54.425 40.8607 54.6137 41.9316 54.8574C43.0072 55.1011 43.7577 55.4 44.1833 55.7535C44.6038 56.1119 44.814 56.6116 44.8141 57.2521C44.8141 57.9499 44.5225 58.5498 43.9394 59.0516C43.3561 59.5535 42.4932 59.8045 41.3508 59.8045C40.3133 59.8045 39.4911 59.5943 38.8841 59.1734C38.2819 58.7529 37.8873 58.1818 37.7008 57.4599ZM45.8438 49.1217H47.8589V50.9859H45.8438V49.1217ZM45.8438 52.0182H47.8589V59.6323H45.8438V52.0182ZM56.1166 59.6323H54.1015V55.7465C54.1015 54.9244 54.0586 54.3937 53.9726 54.1547C53.8865 53.911 53.7454 53.7224 53.5495 53.5883C53.3581 53.4546 53.1264 53.3878 52.854 53.3876C52.5048 53.3876 52.1918 53.4832 51.9146 53.6745C51.6373 53.8657 51.446 54.1189 51.3409 54.4344C51.2405 54.7499 51.1904 55.333 51.1904 56.1838V59.6323H49.1753V52.0182H51.0469V53.1365C51.7113 52.2763 52.5479 51.8461 53.5567 51.8461C54.0012 51.8461 54.4076 51.9274 54.7758 52.0898C55.1438 52.2477 55.4208 52.4508 55.6076 52.6993C55.7987 52.948 55.93 53.2299 56.0019 53.5453C56.0782 53.8608 56.1163 54.3124 56.1166 54.9003V59.6323ZM58.9319 54.3411L57.1033 54.0114C57.3087 53.2753 57.6624 52.7304 58.1645 52.3767C58.6666 52.0232 59.4123 51.8464 60.4018 51.8461C61.3004 51.8461 61.9698 51.9538 62.4096 52.1689C62.8493 52.3791 63.1576 52.649 63.3347 52.979C63.516 53.3039 63.6069 53.9038 63.6072 54.7786L63.5855 57.1301C63.5855 57.7993 63.6165 58.294 63.6788 58.6143C63.7455 58.9297 63.8674 59.2692 64.0445 59.6323H62.0511C61.9985 59.4985 61.9338 59.3003 61.8575 59.0374C61.8238 58.9178 61.8 58.839 61.7858 58.8006C61.4415 59.1354 61.0734 59.3864 60.6815 59.5535C60.2894 59.7205 59.8712 59.8041 59.4266 59.8045C58.6426 59.8045 58.0233 59.5918 57.5695 59.1662C57.1198 58.741 56.8953 58.2034 56.8953 57.553C56.8953 57.123 56.998 56.7407 57.2037 56.4059C57.4091 56.0668 57.696 55.8087 58.0642 55.6317C58.437 55.4502 58.9723 55.2925 59.6703 55.1585C60.6119 54.9817 61.2645 54.8169 61.6279 54.6639V54.463C61.6279 54.0759 61.5323 53.8012 61.3412 53.6386C61.1498 53.4714 60.789 53.3878 60.2584 53.3876C59.8999 53.3876 59.6204 53.4593 59.4194 53.6027C59.2185 53.7413 59.0559 53.9877 58.9319 54.3411ZM61.6279 55.9759C61.3699 56.0617 60.9612 56.1646 60.4018 56.2841C59.8425 56.4038 59.4768 56.5208 59.3046 56.6354C59.0417 56.8218 58.9103 57.0583 58.9103 57.3452C58.9103 57.6273 59.0156 57.8711 59.2258 58.0765C59.436 58.2821 59.7038 58.3848 60.0288 58.3848C60.392 58.3848 60.7385 58.2654 61.0687 58.0264C61.3124 57.8449 61.4724 57.6226 61.5491 57.3595C61.6016 57.1874 61.6278 56.8602 61.6279 56.3773V55.9759ZM66.5676 59.6323H64.5525V52.0182H66.4239V53.1009C66.7442 52.5896 67.0312 52.2526 67.2845 52.0898C67.5426 51.9274 67.8342 51.8464 68.1593 51.8461C68.6182 51.8461 69.0603 51.973 69.4859 52.2261L68.8621 53.9827C68.5224 53.7629 68.2069 53.6531 67.9156 53.6529C67.6333 53.6529 67.3944 53.7315 67.1984 53.8894C67.0023 54.0425 66.847 54.3221 66.7325 54.7283C66.6223 55.1347 66.5676 55.9856 66.5676 57.2808V59.6323ZM69.6892 52.0182H71.5466V53.0577C72.2108 52.2502 73.0018 51.8464 73.9202 51.8461C74.4074 51.8461 74.8307 51.9465 75.1892 52.1473C75.5477 52.3481 75.8419 52.6515 76.071 53.0577C76.4057 52.6515 76.7665 52.3483 77.1539 52.1473C77.541 51.9465 77.9545 51.8461 78.3946 51.8461C78.9539 51.8461 79.4272 51.9607 79.8143 52.1902C80.2014 52.4149 80.4904 52.7473 80.682 53.1868C80.8202 53.5118 80.8897 54.0377 80.89 54.7641V59.6323H78.8748V55.2803C78.8748 54.5253 78.8054 54.0377 78.6668 53.8178C78.4805 53.5309 78.1935 53.3876 77.8064 53.3876C77.5243 53.3876 77.2593 53.4737 77.0104 53.6456C76.7616 53.8178 76.5825 54.0711 76.4726 54.4057C76.3626 54.7355 76.308 55.2587 76.308 55.9759V59.6323H74.2927V55.4597C74.2927 54.7189 74.2573 54.241 74.1852 54.0257C74.1137 53.8106 74.0012 53.6506 73.8484 53.5453C73.6999 53.4402 73.4969 53.3878 73.2388 53.3876C72.928 53.3876 72.6483 53.4714 72.3998 53.6386C72.151 53.8058 71.9717 54.0472 71.8619 54.3626C71.7565 54.6781 71.7042 55.2015 71.7042 55.9329V59.6323H69.6892V52.0182ZM83.6689 54.3411L81.8407 54.0114C82.0461 53.2753 82.3996 52.7304 82.902 52.3767C83.404 52.0232 84.1494 51.8464 85.139 51.8461C86.0376 51.8461 86.7071 51.9538 87.147 52.1689C87.5867 52.3791 87.8948 52.649 88.0719 52.979C88.2537 53.3039 88.3445 53.9038 88.3445 54.7786L88.3231 57.1301C88.3231 57.7993 88.354 58.294 88.4163 58.6143C88.4831 58.9297 88.6052 59.2692 88.7819 59.6323H86.7885C86.7358 59.4985 86.6713 59.3003 86.595 59.0374C86.5609 58.9178 86.5374 58.839 86.5231 58.8006C86.1792 59.1354 85.8109 59.3864 85.4188 59.5535C85.0267 59.7205 84.6084 59.8041 84.1639 59.8045C83.3799 59.8045 82.7607 59.5918 82.3068 59.1662C81.8572 58.741 81.6326 58.2034 81.6326 57.553C81.6326 57.123 81.7355 56.7407 81.9411 56.4059C82.1465 56.0668 82.4332 55.8087 82.8016 55.6317C83.1745 55.4502 83.7097 55.2925 84.4079 55.1585C85.3494 54.9817 86.0021 54.8169 86.3655 54.6639V54.463C86.3655 54.0759 86.2697 53.8012 86.0784 53.6386C85.8872 53.4714 85.5264 53.3878 84.9958 53.3876C84.6374 53.3876 84.3575 53.4593 84.1568 53.6027C83.9559 53.7413 83.7934 53.9877 83.6689 54.3411ZM86.3655 55.9759C86.1074 56.0617 85.6986 56.1646 85.139 56.2841C84.5801 56.4038 84.2141 56.5208 84.0421 56.6354C83.7789 56.8218 83.6478 57.0583 83.6478 57.3452C83.6478 57.6273 83.7529 57.8711 83.9632 58.0765C84.1732 58.2821 84.4411 58.3848 84.7663 58.3848C85.1298 58.3848 85.4761 58.2654 85.8059 58.0264C86.0498 57.8449 86.2098 57.6226 86.2865 57.3595C86.3391 57.1874 86.3651 56.8602 86.3655 56.3773V55.9759ZM88.8865 57.4599L90.9088 57.1517C90.9949 57.5436 91.1691 57.8424 91.4321 58.0478C91.6948 58.2487 92.0628 58.349 92.5365 58.349C93.0576 58.349 93.4493 58.2536 93.7126 58.0622C93.889 57.9285 93.9775 57.7491 93.9778 57.5244C93.9778 57.3716 93.9299 57.2451 93.8344 57.1444C93.734 57.0489 93.5091 56.9606 93.1603 56.8793C91.5348 56.5208 90.5045 56.1935 90.0696 55.8971C89.4676 55.486 89.1661 54.9149 89.1661 54.1834C89.1661 53.5239 89.4268 52.9695 89.9479 52.5201C90.4689 52.071 91.2768 51.8464 92.3716 51.8461C93.4137 51.8461 94.1879 52.016 94.6948 52.3551C95.2018 52.6945 95.5503 53.1964 95.7416 53.8608L93.8417 54.212C93.7599 53.9159 93.605 53.689 93.3756 53.5309C93.1508 53.3732 92.8278 53.2944 92.4075 53.2944C91.8768 53.2944 91.4965 53.3685 91.2671 53.5166C91.1141 53.6219 91.0377 53.7583 91.0377 53.9253C91.0377 54.0686 91.1045 54.1906 91.2386 54.291C91.4202 54.425 92.0463 54.6137 93.1175 54.8574C94.1928 55.1011 94.9433 55.4 95.3689 55.7535C95.7896 56.1119 95.9997 56.6116 96 57.2521C96 57.9499 95.7081 58.5498 95.1251 59.0516C94.5418 59.5535 93.679 59.8045 92.5365 59.8045C91.4994 59.8045 90.6769 59.5943 90.0696 59.1734C89.4676 58.7529 89.073 58.1818 88.8865 57.4599Z" fill="#7DD1F1"/>
<path fill-rule="evenodd" clip-rule="evenodd" d="M37.696 57.4575L39.7178 57.1492C39.8039 57.5414 39.9781 57.8398 40.2411 58.0454C40.5039 58.246 40.8717 58.3464 41.3452 58.3464C41.866 58.3464 42.2579 58.2509 42.5208 58.0596C42.6976 57.9259 42.7858 57.7467 42.7861 57.522C42.7861 57.3693 42.7382 57.2427 42.6428 57.142C42.5424 57.0466 42.3175 56.9583 41.9688 56.8768C40.3437 56.5185 39.3139 56.1912 38.8789 55.8947C38.2768 55.484 37.9756 54.9128 37.9756 54.1816C37.9756 53.522 38.236 52.9678 38.7571 52.5185C39.278 52.0693 40.0857 51.8448 41.1803 51.8446C42.222 51.8446 42.9963 52.0145 43.503 52.3535C44.0096 52.6929 44.3584 53.1947 44.5498 53.859L42.6499 54.2102C42.5686 53.9141 42.4134 53.6871 42.184 53.5291C41.9592 53.3714 41.6367 53.2926 41.2162 53.2926C40.6856 53.2926 40.3057 53.3668 40.0763 53.5149C39.9232 53.6202 39.8466 53.7564 39.8466 53.9234C39.8466 54.0669 39.9137 54.1886 40.0475 54.289C40.229 54.4229 40.8552 54.6116 41.9259 54.8554C43.0013 55.0992 43.7514 55.3978 44.1769 55.7514C44.5974 56.1098 44.8076 56.6093 44.8077 57.2496C44.8077 57.9474 44.5164 58.5473 43.9331 59.0489C43.35 59.5506 42.4873 59.8016 41.3452 59.8016C40.3078 59.8016 39.4859 59.5915 38.8789 59.1708C38.2768 58.7503 37.8825 58.1793 37.696 57.4575ZM45.8373 49.1206H47.8518V50.9844H45.8373V49.1206ZM45.8373 52.0166H47.8518V59.6295H45.8373V52.0166ZM56.1077 59.6295H54.0932V55.7443C54.0932 54.9223 54.0503 54.3919 53.9642 54.1529C53.8781 53.9092 53.737 53.7205 53.5412 53.5866C53.3499 53.4528 53.1182 53.3861 52.8458 53.3857C52.4967 53.3857 52.1837 53.4814 51.9067 53.6727C51.6291 53.8639 51.4381 54.117 51.3331 54.4324C51.2327 54.7479 51.1825 55.3309 51.1825 56.1817V59.6295H49.168V52.0166H51.0391V53.1349C51.7034 52.2749 52.5399 51.8446 53.5483 51.8446C53.9928 51.8446 54.399 51.9259 54.7671 52.0884C55.1351 52.246 55.412 52.4493 55.5987 52.6976C55.7899 52.9463 55.9211 53.2281 55.993 53.5435C56.0694 53.859 56.1073 54.3106 56.1077 54.8983V59.6295ZM58.9223 54.3392L57.0942 54.0096C57.2995 53.2736 57.6532 52.7287 58.1552 52.375C58.657 52.0215 59.4025 51.8448 60.3919 51.8446C61.2904 51.8446 61.9595 51.9521 62.3993 52.1672C62.839 52.3775 63.1473 52.6475 63.3242 52.9773C63.5055 53.3021 63.5963 53.9019 63.5965 54.7764L63.575 57.1278C63.575 57.7968 63.606 58.2915 63.6683 58.6116C63.7349 58.9271 63.8568 59.2664 64.0338 59.6295H62.0409C61.9882 59.4958 61.9237 59.2976 61.8473 59.0348C61.8136 58.9152 61.7899 58.8364 61.7755 58.7981C61.4314 59.1327 61.0634 59.3836 60.6715 59.5506C60.2795 59.7177 59.8614 59.8014 59.4169 59.8016C58.633 59.8016 58.0141 59.589 57.5602 59.1636C57.1107 58.7384 56.8863 58.2007 56.8863 57.5506C56.8863 57.1206 56.9889 56.7384 57.1944 56.4036C57.3999 56.0646 57.6867 55.8065 58.0548 55.6296C58.4276 55.448 58.9628 55.2904 59.6606 55.1564C60.6021 54.9796 61.2544 54.8147 61.6177 54.6618V54.461C61.6177 54.0738 61.5222 53.7994 61.3312 53.6366C61.1398 53.4695 60.779 53.3861 60.2486 53.3857C59.89 53.3857 59.6106 53.4575 59.4099 53.6009C59.209 53.7394 59.0464 53.9857 58.9223 54.3392ZM61.6177 55.9737C61.3598 56.0597 60.9512 56.1625 60.3919 56.2819C59.8328 56.4015 59.4671 56.5185 59.2951 56.6332C59.032 56.8195 58.9008 57.056 58.9008 57.3427C58.9008 57.6248 59.0059 57.8686 59.2163 58.074C59.4264 58.2795 59.6941 58.3823 60.0191 58.3823C60.3823 58.3823 60.7286 58.2628 61.0586 58.0238C61.3024 57.8425 61.4624 57.6201 61.5391 57.357C61.5914 57.185 61.6175 56.8579 61.6177 56.375V55.9737ZM66.5562 59.6295H64.5415V52.0166H66.4128V53.099C66.733 52.5879 67.0198 52.251 67.2731 52.0884C67.5314 51.9259 67.8226 51.8448 68.1477 51.8446C68.6066 51.8446 69.0486 51.9713 69.4741 52.2245L68.8504 53.9808C68.5108 53.7611 68.1954 53.6513 67.904 53.6511C67.622 53.6511 67.3828 53.7298 67.187 53.8876C66.9911 54.0406 66.8358 54.3201 66.7211 54.7263C66.6111 55.1327 66.5562 55.9833 66.5562 57.2782V59.6295ZM69.6773 52.0166H71.5341V53.0561C72.1983 52.2485 72.9893 51.8448 73.9071 51.8446C74.3945 51.8446 74.8175 51.945 75.176 52.1456C75.5345 52.3465 75.8284 52.6499 76.0578 53.0561C76.3922 52.6499 76.753 52.3466 77.1405 52.1456C77.5275 51.945 77.9406 51.8446 78.3804 51.8446C78.94 51.8446 79.4131 51.9591 79.8002 52.1886C80.1872 52.4133 80.4763 52.7458 80.6676 53.185C80.8061 53.51 80.8753 54.0359 80.8756 54.7622V59.6295H78.8611V55.2784C78.8611 54.5234 78.7913 54.0359 78.653 53.8158C78.4667 53.5291 78.1796 53.3857 77.7926 53.3857C77.5108 53.3857 77.2455 53.4719 76.9969 53.6438C76.7484 53.8158 76.5691 54.0694 76.4594 54.4037C76.3494 54.7334 76.2946 55.2568 76.2946 55.9737V59.6295H74.28V55.4576C74.28 54.7169 74.2441 54.239 74.1724 54.0239C74.1006 53.8088 73.988 53.6488 73.8353 53.5435C73.6872 53.4385 73.484 53.3861 73.2259 53.3857C72.9153 53.3857 72.6357 53.4695 72.3872 53.6366C72.1385 53.804 71.9594 54.0453 71.8495 54.3608C71.7443 54.6761 71.6919 55.1996 71.6919 55.9306V59.6295H69.6773V52.0166ZM83.6541 54.3392L81.8262 54.0096C82.0316 53.2736 82.3852 52.7287 82.8872 52.375C83.3891 52.0215 84.1344 51.8448 85.1238 51.8446C86.0225 51.8446 86.6914 51.9521 87.1311 52.1672C87.571 52.3775 87.879 52.6475 88.0561 52.9773C88.2374 53.3021 88.3284 53.9019 88.3286 54.7764L88.3069 57.1278C88.3069 57.7968 88.338 58.2915 88.4002 58.6116C88.4669 58.9271 88.5887 59.2664 88.7658 59.6295H86.7727C86.7201 59.4958 86.6555 59.2976 86.5791 59.0348C86.5455 58.9152 86.5219 58.8364 86.5077 58.7981C86.1634 59.1327 85.7953 59.3836 85.4037 59.5506C85.0113 59.7177 84.5932 59.8014 84.1489 59.8016C83.3648 59.8016 82.7459 59.589 82.292 59.1636C81.8427 58.7384 81.6182 58.2007 81.6182 57.5506C81.6182 57.1206 81.7209 56.7384 81.9264 56.4036C82.1317 56.0646 82.4187 55.8065 82.7867 55.6296C83.1594 55.448 83.6945 55.2904 84.3924 55.1564C85.3339 54.9796 85.9863 54.8147 86.3497 54.6618V54.461C86.3497 54.0738 86.2542 53.7994 86.063 53.6366C85.8717 53.4695 85.511 53.3861 84.9804 53.3857C84.6221 53.3857 84.3424 53.4575 84.1417 53.6009C83.9408 53.7394 83.7782 53.9857 83.6541 54.3392ZM86.3497 55.9737C86.0916 56.0597 85.6828 56.1625 85.1238 56.2819C84.565 56.4015 84.1988 56.5185 84.0271 56.6332C83.7638 56.8195 83.6327 57.056 83.6327 57.3427C83.6327 57.6248 83.7378 57.8686 83.948 58.074C84.158 58.2795 84.426 58.3823 84.7513 58.3823C85.1139 58.3823 85.4606 58.2628 85.7907 58.0238C86.0343 57.8425 86.1943 57.6201 86.2707 57.357C86.3234 57.185 86.3497 56.8579 86.3497 56.375V55.9737ZM88.8705 57.4575L90.8923 57.1492C90.9778 57.5414 91.1523 57.8398 91.4156 58.0454C91.6783 58.246 92.046 58.3464 92.5194 58.3464C93.0404 58.3464 93.4322 58.2509 93.6951 58.0596C93.8719 57.9259 93.9601 57.7467 93.9605 57.522C93.9605 57.3693 93.9127 57.2427 93.8173 57.142C93.7165 57.0466 93.492 56.9583 93.1431 56.8768C91.518 56.5185 90.4881 56.1912 90.0532 55.8947C89.4511 55.484 89.15 54.9128 89.15 54.1816C89.15 53.522 89.4104 52.9678 89.9314 52.5185C90.4525 52.0693 91.26 51.8448 92.3545 51.8446C93.3966 51.8446 94.1708 52.0145 94.6773 52.3535C95.184 52.6929 95.533 53.1947 95.7241 53.859L93.8242 54.2102C93.7428 53.9141 93.5875 53.6871 93.3584 53.5291C93.1335 53.3714 92.811 53.2926 92.3907 53.2926C91.86 53.2926 91.4798 53.3668 91.2504 53.5149C91.0976 53.6202 91.0212 53.7564 91.0212 53.9234C91.0212 54.0669 91.0877 54.1886 91.2222 54.289C91.4032 54.4229 92.0295 54.6116 93.1003 54.8554C94.1755 55.0992 94.9259 55.3978 95.3513 55.7514C95.7719 56.1098 95.9819 56.6093 95.9823 57.2496C95.9823 57.9474 95.6906 58.5473 95.1076 59.0489C94.5243 59.5506 93.6616 59.8016 92.5194 59.8016C91.4821 59.8016 90.6601 59.5915 90.0532 59.1708C89.4511 58.7503 89.0568 58.1793 88.8705 57.4575Z" fill="#3B3B3B"/>
</g>
<rect x="1" y="1" width="110" height="110" rx="9" stroke="#CCCCCC" stroke-width="2"/>
<defs>
<clipPath id="clip0_528_35">
<rect x="2" y="2" width="108" height="108" rx="8" fill="white"/>
</clipPath>
</defs>
</svg>
