<svg width="112" height="112" viewBox="0 0 112 112" fill="none" xmlns="http://www.w3.org/2000/svg">
<g clip-path="url(#clip0_6_7388)">
<rect x="2" y="2" width="108" height="108" rx="8" fill="white"/>
<path d="M35.7042 71.3683H16.0198V55.03H35.7042V71.3683Z" fill="white"/>
<path fill-rule="evenodd" clip-rule="evenodd" d="M31.3068 70.9073L18.1483 62.3486C18.1483 62.3486 16.4978 61.401 16.12 59.635C15.5894 57.1555 17.3389 55.03 17.3389 55.03L34.4169 66.1415C35.7342 66.9995 36.0939 68.7542 35.247 70.0779C34.3772 71.4376 32.5895 71.7376 31.3068 70.9073Z" fill="#38D200"/>
<path fill-rule="evenodd" clip-rule="evenodd" d="M18.8429 53.1958C18.8429 53.1958 16.8272 51.9798 16.8272 49.1675C16.8272 46.3645 18.8421 45.164 18.8421 45.164L26.0358 40.4599C27.3544 39.6037 29.1179 39.9774 29.9749 41.2946C30.832 42.6118 30.4579 44.3737 29.1394 45.23L23.0764 49.1745L33.4071 55.896C33.4071 55.896 35.2665 56.9607 35.6329 58.7572C36.1443 61.264 34.4173 63.329 34.4173 63.329L18.8429 53.1958Z" fill="#0473EA"/>
<path fill-rule="evenodd" clip-rule="evenodd" d="M32.3835 46.3714C31.7079 46.3716 31.2272 46.5843 30.7583 46.8893L27.2463 49.1744L30.7583 51.4595C31.2318 51.7641 31.7287 51.9774 32.3835 51.9774C33.933 51.9774 35.1891 50.7225 35.1891 49.1744C35.1891 47.6264 33.933 46.3711 32.3835 46.3714Z" fill="#38D200"/>
<path fill-rule="evenodd" clip-rule="evenodd" d="M18.8056 71.3609C19.4812 71.3608 19.9618 71.148 20.4307 70.8431L23.9427 68.5579L20.4307 66.2728C19.9573 65.9683 19.4604 65.755 18.8056 65.755C17.2561 65.755 16 67.0099 16 68.5579C16 70.106 17.2561 71.3612 18.8056 71.3609Z" fill="#0473EA"/>
<path fill-rule="evenodd" clip-rule="evenodd" d="M94.9678 55.1554L96 55.7853V63.3185H94.9678V62.2543C94.4644 62.9963 93.6588 63.449 92.6895 63.449C90.8768 63.449 89.5804 62.1034 89.5804 60.2673C89.5804 58.3935 90.8768 57.0227 92.6895 57.0227C93.6588 57.0227 94.4644 57.4881 94.9678 58.2426V55.1554ZM68.6635 55.1526L69.6831 55.7822V61.258C69.6831 62.1257 70.2118 62.4653 70.879 62.4653C71.3825 62.4653 71.8859 62.327 72.3265 62.0126V63.0061C71.8986 63.3205 71.3069 63.4462 70.7908 63.4462C69.4691 63.4462 68.6635 62.8551 68.6635 61.1825V55.1526ZM85.9268 57.0059C87.7143 57.0059 88.8849 58.3263 88.8849 60.0995C88.8849 60.2756 88.8723 60.4516 88.8471 60.6152H83.9506C84.1015 61.7344 84.9828 62.4764 86.2163 62.4764C87.0093 62.4764 87.7771 62.25 88.4318 61.7847V62.7656C87.7646 63.2184 87.0093 63.4322 86.2163 63.4322C84.2652 63.4322 82.868 62.1746 82.868 60.2756C82.868 58.4144 84.0512 57.0059 85.9268 57.0059ZM59.7196 57.0059C60.6889 57.0059 61.4818 57.4586 61.9979 58.2006V57.119H63.0301V63.319H61.9979V62.2626C61.4818 62.992 60.6889 63.4322 59.7196 63.4322C57.9069 63.4322 56.6105 62.0865 56.6105 60.2505C56.6105 58.3767 57.9069 57.0059 59.7196 57.0059ZM46.9179 57.0059C47.6606 57.0059 48.3529 57.2197 48.9068 57.6347V58.7791C48.4158 58.2509 47.7362 57.9742 46.9808 57.9742C45.6591 57.9742 44.7276 58.8923 44.7276 60.2127C44.7276 61.5332 45.6718 62.4638 46.9935 62.4638C47.7362 62.4638 48.4285 62.2626 48.9697 61.7973V62.8411C48.3655 63.2561 47.648 63.4321 46.8928 63.4321C44.9921 63.4321 43.6703 62.1117 43.6703 60.2127C43.6703 58.3263 45.0297 57.0059 46.9179 57.0059ZM75.4288 57.0059C77.2162 57.0059 78.3868 58.3263 78.3868 60.0995C78.3868 60.2756 78.3743 60.4516 78.3491 60.6152H73.4525C73.6035 61.7344 74.4847 62.4764 75.7183 62.4764C76.5113 62.4764 77.2791 62.25 77.9338 61.7847V62.7656C77.2666 63.2184 76.5113 63.4322 75.7183 63.4322C73.7672 63.4322 72.37 62.1746 72.37 60.2756C72.37 58.4144 73.5531 57.0059 75.4288 57.0059ZM50.1025 55.1537L51.1221 55.7834L51.1222 58.1754C51.5879 57.4586 52.3306 57.0059 53.2746 57.0059C54.8355 57.0059 55.6663 58.1503 55.6663 59.672V63.319H54.6341V59.848C54.6341 58.6407 54.1055 57.9994 53.0229 57.9994C51.8774 57.9994 51.1222 58.9803 51.1222 60.2127V63.319H50.1025V55.1537ZM67.9014 57.0059V58.1754C66.6679 57.9994 65.6357 58.8294 65.6357 60.3636V63.319H64.6161V57.119H65.6357V58.4395C66.1266 57.5215 66.9196 57.0059 67.9014 57.0059ZM82.7924 57.0059V58.1754C81.5589 57.9994 80.5267 58.8294 80.5267 60.3636V63.319H79.5071V57.119H80.5267V58.4395C81.0175 57.5215 81.8106 57.0059 82.7924 57.0059ZM92.7903 57.991C91.5315 57.991 90.6377 58.9468 90.6377 60.2547C90.6377 61.5374 91.5315 62.4806 92.7903 62.4806C94.0616 62.4806 94.9678 61.5374 94.9678 60.2547C94.9678 58.9468 94.0616 57.991 92.7903 57.991ZM59.8204 57.9742C58.5616 57.9742 57.6678 58.93 57.6678 60.2379C57.6678 61.5206 58.5616 62.4638 59.8204 62.4638C61.0917 62.4638 61.9979 61.5206 61.9979 60.2379C61.9979 58.93 61.0917 57.9742 59.8204 57.9742ZM75.4413 57.9491C74.3085 57.9491 73.6288 58.7414 73.4651 59.7851H77.3044C77.2036 58.7288 76.5364 57.9491 75.4413 57.9491ZM85.9394 57.9491C84.8066 57.9491 84.1268 58.7414 83.9631 59.7851H87.8024C87.7017 58.7288 87.0345 57.9491 85.9394 57.9491ZM70.4752 57.0307C70.737 56.8645 71.0722 56.8674 71.3312 57.0382L72.3582 57.721L71.3441 58.3707C71.0858 58.5363 70.7546 58.5367 70.4958 58.3718L70.474 58.358C69.9882 58.0484 69.9888 57.3395 70.4752 57.0307ZM56.0944 47.9395C57.0637 47.9395 57.8567 48.3923 58.3727 49.1343V48.0527H59.4049V54.2527H58.3727V53.1963C57.8567 53.9257 57.0637 54.3658 56.0944 54.3658C54.2817 54.3658 52.9852 53.0202 52.9852 51.1841C52.9852 49.3103 54.2817 47.9395 56.0944 47.9395ZM50.0272 46.0664V52.1777C50.0272 53.0454 50.5558 53.3849 51.223 53.3849C51.7266 53.3849 52.23 53.2466 52.6706 52.9322V53.9257C52.2427 54.2401 51.651 54.3658 51.1349 54.3658C49.8132 54.3658 49.0075 53.7748 49.0075 52.1022V46.6966L50.0272 46.0664ZM92.8001 46.0668V54.2527H91.7679V53.1711C91.2645 53.9131 90.4589 54.3658 89.4897 54.3658C87.677 54.3658 86.3805 53.0202 86.3805 51.1841C86.3805 49.3103 87.677 47.9395 89.4897 47.9395C90.4589 47.9395 91.2645 48.4049 91.7679 49.1594V46.6963L92.8001 46.0668ZM78.1353 47.9395C79.1046 47.9395 79.8976 48.3923 80.4137 49.1343V48.0527H81.4459V54.2527H80.4137V53.1963C79.8976 53.9257 79.1046 54.3658 78.1353 54.3658C76.3227 54.3658 75.0262 53.0202 75.0262 51.1841C75.0262 49.3103 76.3227 47.9395 78.1353 47.9395ZM45.8984 47.9396C46.6284 47.9396 47.3081 48.1408 47.7864 48.5055V49.5744C47.2201 49.0714 46.5277 48.7822 45.9109 48.7822C45.2563 48.7822 44.7906 49.084 44.7906 49.587C44.7906 49.9643 44.9668 50.1907 45.4578 50.3793L46.9306 50.9704C47.7235 51.3099 48.0886 51.7878 48.0886 52.4543C48.0886 53.6365 47.1319 54.3658 45.7851 54.3658C44.9668 54.3658 44.2241 54.1395 43.6829 53.737V52.6304C44.3374 53.2466 45.0675 53.5233 45.7977 53.5233C46.5277 53.5233 47.0565 53.2089 47.0565 52.643C47.0565 52.3034 46.8802 52.0393 46.4145 51.8506L44.9417 51.2596C44.1865 50.9327 43.7711 50.5051 43.7711 49.7002C43.7711 48.6187 44.6396 47.9396 45.8984 47.9396ZM73.9184 46.0668V54.2527H72.8862V53.1711C72.3828 53.9131 71.5772 54.3658 70.6079 54.3658C68.7952 54.3658 67.4988 53.0202 67.4988 51.1841C67.4988 49.3103 68.7952 47.9395 70.6079 47.9395C71.5772 47.9395 72.3828 48.4049 72.8862 49.1594V46.6963L73.9184 46.0668ZM86.3172 47.9395V49.1091C85.0837 48.9331 84.0515 49.7631 84.0515 51.2973V54.2526H83.0318V48.0527H84.0515V49.3732C84.5423 48.4552 85.3354 47.9395 86.3172 47.9395ZM64.1629 47.9395C65.7238 47.9395 66.5546 49.084 66.5546 50.6057V54.2526H65.5224V50.7817C65.5224 49.5744 64.9938 48.9331 63.9112 48.9331C62.7657 48.9331 62.0105 49.914 62.0105 51.1464V54.2526H60.9908V48.0527H62.0105V49.1091C62.4762 48.3923 63.2189 47.9395 64.1629 47.9395ZM56.1951 48.9079C54.9363 48.9079 54.0425 49.8637 54.0425 51.1716C54.0425 52.4543 54.9363 53.3975 56.1951 53.3975C57.4664 53.3975 58.3727 52.4543 58.3727 51.1716C58.3727 49.8637 57.4664 48.9079 56.1951 48.9079ZM70.7086 48.9079C69.4499 48.9079 68.5561 49.8637 68.5561 51.1716C68.5561 52.4543 69.4499 53.3975 70.7086 53.3975C71.98 53.3975 72.8862 52.4543 72.8862 51.1716C72.8862 49.8637 71.98 48.9079 70.7086 48.9079ZM89.5904 48.9079C88.3316 48.9079 87.4378 49.8637 87.4378 51.1716C87.4378 52.4543 88.3316 53.3975 89.5904 53.3975C90.8618 53.3975 91.7679 52.4543 91.7679 51.1716C91.7679 49.8637 90.8618 48.9079 89.5904 48.9079ZM78.2361 48.9079C76.9773 48.9079 76.0835 49.8637 76.0835 51.1716C76.0835 52.4543 76.9773 53.3975 78.2361 53.3975C79.5074 53.3975 80.4137 52.4543 80.4137 51.1716C80.4137 49.8637 79.5074 48.9079 78.2361 48.9079ZM51.4484 48.0415C51.7064 47.8753 52.0376 47.8741 52.2968 48.0384L52.3186 48.0522C52.8051 48.3606 52.8062 49.0696 52.3206 49.3794C52.0591 49.5463 51.7239 49.5441 51.4646 49.374L50.4359 48.6936L51.4484 48.0415Z" fill="#525355"/>
</g>
<rect x="1" y="1" width="110" height="110" rx="9" stroke="#CCCCCC" stroke-width="2"/>
<defs>
<clipPath id="clip0_6_7388">
<rect x="2" y="2" width="108" height="108" rx="8" fill="white"/>
</clipPath>
</defs>
</svg>
