<svg width="112" height="112" viewBox="0 0 112 112" fill="none" xmlns="http://www.w3.org/2000/svg">
<g clip-path="url(#clip0_302_1295)">
<rect x="2" y="2" width="108" height="108" rx="8" fill="white"/>
<circle cx="56" cy="56" r="36" fill="#012A31"/>
<g clip-path="url(#clip1_302_1295)">
<path d="M46.265 33.5509C45.6368 33.7321 45.0037 33.8984 44.3831 34.0996C32.3367 37.9826 31.433 50.5727 36.1502 56.9881C38.9185 60.7544 42.7444 62.614 47.3301 62.9939C49.0556 63.1354 50.7985 63.0237 52.534 63.0733C56.3847 63.1851 58.9469 65.0273 59.6843 68.1704C60.5706 71.9517 59.0884 75.4499 55.7988 77.2077C53.0032 78.6998 49.9618 78.9953 46.8832 78.675C34.3229 77.3666 25.5588 67.3213 25.9734 54.7933C26.3185 44.3062 34.4893 35.1647 44.9144 33.603C45.3538 33.536 45.7933 33.4739 46.2327 33.4069C46.2426 33.454 46.2551 33.5037 46.265 33.5509Z" fill="#AFEE01"/>
<path d="M68.2797 43.472V34.0524C74.1961 39.9092 80.1721 45.8231 86.0736 51.6651C81.0982 56.5884 75.8943 61.7351 70.7352 66.8372C70.611 66.1048 70.4943 65.1092 70.2659 64.136C68.6124 57.0775 62.6786 52.3851 55.064 52.1244C53.2888 52.0623 51.5087 52.1442 49.736 52.0722C47.2135 51.9704 45.4805 50.451 45.2869 48.2786C45.0287 45.3787 46.707 43.5166 49.7608 43.4918C55.3371 43.4446 60.9159 43.4744 66.4946 43.472C67.0284 43.472 67.5622 43.472 68.2797 43.472Z" fill="#AFEE01"/>
</g>
</g>
<rect x="1" y="1" width="110" height="110" rx="9" stroke="#CCCCCC" stroke-width="2"/>
<defs>
<clipPath id="clip0_302_1295">
<rect x="2" y="2" width="108" height="108" rx="8" fill="white"/>
</clipPath>
<clipPath id="clip1_302_1295">
<rect width="60.1175" height="45.3848" fill="white" transform="translate(25.9586 33.4069)"/>
</clipPath>
</defs>
</svg>
