<svg width="112" height="112" viewBox="0 0 112 112" fill="none" xmlns="http://www.w3.org/2000/svg">
<g clip-path="url(#clip0_6_7389)">
<rect x="2" y="2" width="108" height="108" rx="8" fill="white"/>
<path fill-rule="evenodd" clip-rule="evenodd" d="M32.7275 67.0003C32.7203 67.5648 33.4322 67.626 33.8636 67.626H34.0957C34.1378 67.626 34.172 67.6246 34.2227 67.6188C35.2407 67.5662 35.2331 67.1819 35.2331 67.0003C35.2299 66.9045 35.2299 66.8047 35.2331 66.6924V45.6297C35.2407 45.067 34.5252 45 34.0957 45H33.8636C33.4322 45 32.7203 45.067 32.7275 45.6297C32.7275 45.7493 32.7239 45.863 32.7239 45.9821V66.6452C32.7239 66.6564 32.7239 66.6726 32.7275 66.7036" fill="#E1091D"/>
<path fill-rule="evenodd" clip-rule="evenodd" d="M19.3644 67.0003C19.3568 67.5648 20.0696 67.626 20.5001 67.626H20.7317C20.7743 67.626 20.8089 67.6246 20.8592 67.6188C21.8772 67.5662 21.8695 67.1819 21.8695 67.0003C21.8673 66.9045 21.8673 66.8047 21.8695 66.6924V45.6297C21.8772 45.067 21.1617 45 20.7317 45H20.5001C20.0696 45 19.3568 45.067 19.3644 45.6297C19.3644 45.7493 19.3595 45.863 19.3595 45.9821V66.6452C19.3595 66.6564 19.3595 66.6726 19.3644 66.7036" fill="#E1091D"/>
<path fill-rule="evenodd" clip-rule="evenodd" d="M23.818 67.0003C23.8126 67.5648 24.5236 67.626 24.955 67.626H25.1866C25.2292 67.626 25.2638 67.6246 25.3145 67.6188C26.3321 67.5662 26.3249 67.1819 26.3249 67.0003C26.3204 66.9045 26.3204 66.8047 26.3249 66.6924V45.6297C26.3321 45.067 25.6166 45 25.1866 45H24.955C24.5236 45 23.8126 45.067 23.818 45.6297C23.818 45.7493 23.8153 45.863 23.8153 45.9821V66.6452C23.8153 66.6564 23.8153 66.6726 23.818 66.7036" fill="#E1091D"/>
<path fill-rule="evenodd" clip-rule="evenodd" d="M28.2735 67.0003C28.2668 67.5648 28.9783 67.626 29.4092 67.626H29.6412C29.6834 67.626 29.718 67.6246 29.7678 67.6188C30.7867 67.5662 30.7777 67.1819 30.7777 67.0003C30.7759 66.9045 30.7759 66.8047 30.7777 66.6924V45.6297C30.7867 45.067 30.0703 45 29.6412 45H29.4092C28.9783 45 28.2668 45.067 28.2735 45.6297C28.2735 45.7493 28.2686 45.863 28.2686 45.9821V66.6452C28.2686 66.6564 28.2686 66.6726 28.2735 66.7036" fill="#E1091D"/>
<path fill-rule="evenodd" clip-rule="evenodd" d="M16.6239 55.0598C16.0601 55.0526 16 55.7655 16 56.1984V56.4312C16 56.4735 16.0013 56.5076 16.0054 56.5575C16.0579 57.5761 16.4417 57.5689 16.6239 57.5689C16.72 57.5662 16.8183 57.5662 16.9318 57.5689H37.9642C38.5266 57.5761 38.5926 56.8605 38.5926 56.4312V56.1984C38.5926 55.7655 38.5266 55.0526 37.9642 55.0598C37.8452 55.0598 37.7316 55.0558 37.6118 55.0558H16.9776C16.9664 55.0558 16.9529 55.0558 16.9202 55.0598" fill="#E1091D"/>
<path fill-rule="evenodd" clip-rule="evenodd" d="M69.7197 46.6582C63.7126 46.6582 61.0343 49.6208 61.0343 56.2638C61.0343 62.7522 63.8257 65.9283 69.5676 65.9683H69.8477C75.5998 65.9395 78.3971 62.7643 78.3971 56.2638C78.3971 49.6208 75.721 46.6582 69.7197 46.6582ZM69.7359 63.1226H69.6919C66.2438 63.1226 64.8999 61.1888 64.8999 56.2323C64.8999 51.3288 66.189 49.5066 69.6569 49.5066H69.7687C73.2375 49.5066 74.5275 51.3288 74.5275 56.2323C74.5275 61.1888 73.1836 63.1226 69.7359 63.1226Z" fill="#002469"/>
<path fill-rule="evenodd" clip-rule="evenodd" d="M45.5967 64.4982C46.8149 65.4403 48.4721 65.8422 51.1393 65.8422H51.308C53.9949 65.8422 55.657 65.4403 56.8654 64.4995C58.6186 63.1637 58.914 61.5927 58.914 58.573L58.9171 47.7399C58.9189 47.5826 58.9225 47.3848 58.7475 47.2077C58.471 46.9267 57.8547 46.7852 56.9157 46.7852C55.9852 46.7852 55.3743 46.9267 55.0987 47.2059C54.9223 47.3843 54.9254 47.5826 54.9276 47.7417L54.9281 49.6938V59.0598C54.9285 60.945 54.9285 61.3374 54.0919 62.0282C53.3212 62.6548 52.1568 62.7366 51.229 62.7366C50.3017 62.7366 49.1382 62.6548 48.368 62.0282C47.534 61.3432 47.534 60.9571 47.5344 59.1016L47.5353 47.7417C47.5385 47.5826 47.5407 47.3848 47.3648 47.2059C47.0887 46.9267 46.476 46.7852 45.5424 46.7852C44.6065 46.7852 43.9934 46.9267 43.7182 47.2068C43.5414 47.3848 43.5445 47.5826 43.5463 47.7408L43.5472 47.7871V58.573C43.5472 61.5909 43.843 63.1623 45.5967 64.4982Z" fill="#002469"/>
<path fill-rule="evenodd" clip-rule="evenodd" d="M93.3974 47.9099C92.4054 47.1714 91.2213 46.9093 88.8733 46.9093H81.1502C80.7992 46.9093 80.5137 47.1943 80.5137 47.5444V65.0781C80.5137 65.4319 80.7992 65.7173 81.1502 65.7173H89.2522C91.4512 65.7173 92.989 65.6467 94.2655 64.6826C95.6983 63.5701 95.9999 61.7479 95.9999 60.4151C95.9999 58.6549 95.4097 57.261 94.3387 56.4915C93.8741 56.145 93.3247 55.9369 92.8018 55.753L92.4517 55.6298L92.7865 55.4694C94.3638 54.7151 94.9415 53.6665 94.9168 51.5993C94.9029 50.6324 94.6875 48.8655 93.3974 47.9099ZM84.4462 49.5384H88.7602C90.9942 49.5384 91.1715 50.672 91.1715 52.1549C91.1715 53.9272 90.36 54.6823 88.4604 54.6823H84.4462V49.5384ZM88.6718 63.024H84.4431V57.35H88.9784C91.4929 57.35 91.9983 58.4455 91.9983 60.2155C91.9983 62.5992 91.1271 63.024 88.6718 63.024Z" fill="#002469"/>
</g>
<rect x="1" y="1" width="110" height="110" rx="9" stroke="#CCCCCC" stroke-width="2"/>
<defs>
<clipPath id="clip0_6_7389">
<rect x="2" y="2" width="108" height="108" rx="8" fill="white"/>
</clipPath>
</defs>
</svg>
