<svg width="112" height="112" viewBox="0 0 112 112" fill="none" xmlns="http://www.w3.org/2000/svg">
<g clip-path="url(#clip0_518_551)">
<rect x="2" y="2" width="108" height="108" rx="8" fill="white"/>
<path d="M55.9972 92.7267C53.9798 93.8344 51.8827 94.757 49.6793 95.4292C49.0804 95.6119 48.475 95.7753 47.872 95.9452C47.3817 96.0837 46.9197 95.9041 46.46 95.7898C42.6425 94.8439 39.0408 93.3627 35.6645 91.3469C32.0443 89.1854 28.8499 86.5062 26.0637 83.3392C22.8106 79.6409 20.3182 75.4853 18.5753 70.8822C17.3992 67.7755 16.6328 64.5699 16.2399 61.2685C16.0153 59.3831 15.9718 57.4969 16.0217 55.6043C16.1522 55.1696 16.1369 54.7147 16.2021 54.2711C16.5812 51.6942 17.2776 49.2115 18.337 46.827C19.9535 43.1883 22.2318 40.0269 25.1919 37.3743C28.0062 34.8522 31.2232 33.0167 34.8748 31.9879C36.6893 31.4767 38.5385 31.1611 40.4303 31.1683C41.9494 31.174 43.4645 31.1555 44.961 30.8536C43.7269 31.4694 42.4855 32.0676 41.315 32.8074C39.0376 34.2476 37.0315 35.9961 35.2886 38.0449C32.9105 40.8408 31.108 43.9683 29.9399 47.4541C29.2074 49.6422 28.7428 51.8826 28.5593 54.1866C28.2856 57.6225 28.6092 60.9996 29.572 64.3026C30.7321 68.2811 32.6843 71.8401 35.4294 74.9532C37.8172 77.6605 40.6195 79.8341 43.8629 81.4297C44.8853 82.0053 45.985 82.4022 47.0774 82.8143C47.2352 82.8739 47.3817 82.8562 47.5395 82.7926C50.8667 81.4458 53.6747 79.3897 55.9763 76.6373C57.5678 74.6908 58.8148 72.5486 59.6794 70.1818C60.5078 67.914 60.92 65.5738 60.9763 63.1675C60.994 62.4229 61.0158 61.6774 60.9425 60.9344C60.9385 60.399 60.9352 59.8637 60.9296 59.3292C60.9047 56.8988 60.7348 54.4748 60.5134 52.0573C60.251 49.1922 59.8629 46.3408 59.3163 43.5143C58.9203 41.4671 58.4646 39.4328 57.6193 37.5144C57.2828 36.7504 56.9536 35.9655 56.2451 35.4415C57.3279 35.4149 58.3253 35.7643 59.2857 36.1998C62.5171 37.6617 65.0852 39.919 67.1284 42.8011C69.2464 45.7885 70.8621 49.0231 71.9473 52.5194C72.6565 54.8065 73.1218 57.1435 73.3432 59.5304C73.4905 61.1187 73.5316 62.7095 73.4615 64.3002C73.3432 67.0043 72.9173 69.6609 72.1719 72.2652C71.3499 75.1392 70.1698 77.8569 68.6466 80.4274C68.4567 80.7478 68.2618 81.0666 68.0694 81.3854C68.0042 81.4683 67.9326 81.548 67.8746 81.6358C66.1663 84.2272 64.1473 86.5505 61.8184 88.5993C60.0232 90.1788 58.0637 91.5328 55.994 92.7275L55.9972 92.7267Z" fill="#F47921"/>
<path d="M55.9972 92.7267C58.0677 91.532 60.0264 90.178 61.8216 88.5985C64.1505 86.5497 66.1704 84.2264 67.8778 81.635C67.9358 81.5472 68.0075 81.4683 68.0727 81.3846C68.6338 81.2687 69.0926 80.933 69.57 80.6536C74.2142 77.9383 77.8047 74.2077 80.3148 69.4444C81.7856 66.6525 82.7291 63.6868 83.204 60.5705C83.4938 58.6714 83.5212 56.7587 83.4729 54.8459C83.5003 54.8862 83.4987 54.895 83.4705 54.8717C83.4616 54.8644 83.452 54.8508 83.452 54.8403C83.4745 54.1327 83.4262 53.4267 83.4021 52.7198C83.3409 50.9166 83.175 49.123 82.9561 47.335C82.7041 45.2749 82.3418 43.2334 81.8717 41.2095C81.082 37.8099 79.9759 34.5245 78.4302 31.3921C76.6277 27.7397 74.3125 24.4657 71.2654 21.7374C69.8598 20.4783 68.3367 19.3819 66.6783 18.477C64.8187 17.4627 62.8561 16.7285 60.7791 16.3018C61.6429 16.268 62.4793 16.4717 63.3165 16.6287C67.1356 17.3443 70.7735 18.5954 74.2223 20.3898C78.1009 22.408 81.5553 24.9921 84.5983 28.1342C87.527 31.1579 89.9228 34.5559 91.7897 38.3235C93.5994 41.9751 94.8142 45.8175 95.4832 49.8419C95.9911 52.8994 96.0982 55.9746 95.9211 59.053C95.6224 64.2471 94.3352 69.2021 92.102 73.9075C89.1009 80.2302 84.7553 85.4363 79.0799 89.5202C74.7745 92.618 70.02 94.7481 64.8501 95.946C64.409 96.0482 64.0016 95.9194 63.5894 95.8083C60.9336 95.0894 58.3954 94.0824 55.9972 92.7267Z" fill="#006EB8"/>
<path d="M56.2476 35.4398C56.956 35.9639 57.2852 36.7488 57.6217 37.5128C58.4678 39.4312 58.9227 41.4655 59.3187 43.5127C59.8662 46.3392 60.2542 49.1898 60.5158 52.0557C60.7372 54.474 60.9071 56.8972 60.932 59.3275C60.9377 59.8629 60.9409 60.3982 60.9449 60.9328C60.8499 60.8531 60.8644 60.7396 60.8523 60.6357C60.6318 58.6465 60.1689 56.7168 59.4097 54.8644C58.9211 53.6714 58.3471 52.525 57.4076 51.6065C56.4907 50.7097 55.4667 50.7153 54.5441 51.617C54.1392 52.013 53.793 52.455 53.5112 52.9428C51.8561 55.8104 51.1308 58.9411 50.9939 62.212C50.878 64.995 51.357 67.6991 52.3246 70.3138C53.182 72.6299 54.4177 74.727 55.9779 76.6373C53.6771 79.3897 50.8683 81.4458 47.5411 82.7926C47.3825 82.857 47.2368 82.8747 47.0791 82.8143C45.9858 82.4022 44.8869 82.0053 43.8646 81.4297C43.809 81.0714 43.5538 80.8178 43.3783 80.5264C41.5453 77.4802 40.2194 74.2263 39.395 70.7727C38.6544 67.6709 38.3549 64.5176 38.495 61.3337C38.6955 56.7563 39.7339 52.3745 41.6861 48.2181C42.9203 45.5905 44.3911 43.107 46.3231 40.9326C48.3695 38.6294 50.7814 36.8181 53.7294 35.8037C54.5409 35.5244 55.3741 35.3271 56.2476 35.4398Z" fill="#006EB8"/>
<path d="M44.9634 30.8536C43.4669 31.1555 41.951 31.174 40.4327 31.1683C38.5409 31.1611 36.6909 31.4759 34.8772 31.9879C31.2256 33.0167 28.0087 34.8522 25.1943 37.3743C22.2342 40.0269 19.9559 43.1883 18.3394 46.827C17.28 49.2115 16.5837 51.6942 16.2045 54.2711C16.1393 54.7147 16.1546 55.1696 16.0242 55.6043C15.9509 54.3702 16.0684 53.1433 16.2029 51.9204C16.5651 48.6407 17.3009 45.4456 18.4465 42.3494C20.2337 37.5192 22.8267 33.1721 26.2601 29.3264C29.1904 26.0435 32.5635 23.3096 36.3826 21.128C39.6172 19.2804 43.0483 17.9135 46.6701 17.0465C49.1037 16.4644 51.5727 16.0821 54.0844 16.0072C54.4161 15.9975 54.5344 16.0957 54.5739 16.4008C55.2461 21.5152 53.4549 25.6072 49.4265 28.7581C48.1683 29.7426 46.7417 30.3995 45.1856 30.7715C45.1091 30.79 45.0375 30.8254 44.9634 30.8536Z" fill="#006EB8"/>
<path d="M60.7791 16.3018C62.8552 16.7277 64.8187 17.4619 66.6783 18.477C68.3367 19.3819 69.8598 20.4783 71.2654 21.7374C74.3125 24.4657 76.6277 27.7397 78.4302 31.3921C79.9759 34.5245 81.082 37.8099 81.8717 41.2095C82.3418 43.2334 82.7041 45.2749 82.9561 47.335C83.175 49.123 83.3409 50.9166 83.4021 52.7198C83.4262 53.4267 83.4745 54.1327 83.452 54.8403C83.452 54.8508 83.4616 54.8644 83.4705 54.8717C83.4987 54.895 83.5003 54.8862 83.4729 54.8459C83.3393 53.1682 83.1179 51.5083 82.7242 49.8708C81.6125 45.2459 79.4252 41.1749 76.3347 37.5877C73.5259 34.3273 70.1191 31.8703 66.0705 30.3891C63.4944 29.4464 61.341 27.982 59.7028 25.7899C57.8174 23.267 56.9906 20.43 57.2965 17.2807C57.3279 16.9612 57.3722 16.6432 57.406 16.3244C57.4318 16.0796 57.5211 15.9967 57.8045 16.0007C58.8059 16.0152 59.7913 16.161 60.7775 16.3034L60.7791 16.3018Z" fill="#F47921"/>
</g>
<rect x="1" y="1" width="110" height="110" rx="9" stroke="#CCCCCC" stroke-width="2"/>
<defs>
<clipPath id="clip0_518_551">
<rect x="2" y="2" width="108" height="108" rx="8" fill="white"/>
</clipPath>
</defs>
</svg>
