<svg width="112" height="112" viewBox="0 0 112 112" fill="none" xmlns="http://www.w3.org/2000/svg">
<g clip-path="url(#clip0_725_497)">
<rect x="2" y="2" width="108" height="108" rx="8" fill="white"/>
<g clip-path="url(#clip1_725_497)">
<path d="M58.2879 26C58.6502 26.2537 59.0948 26.2616 59.495 26.3923C61.8484 27.1943 63.823 28.8368 65.04 31.0049C68.7803 37.4811 72.5389 43.952 76.2464 50.4399C79.6192 56.3407 76.5655 63.6721 70.0724 65.3906C69.2308 65.6161 68.3634 65.7313 67.4921 65.7332C59.9566 65.7332 52.4212 65.7489 44.887 65.7332C37.0481 65.7123 32.2015 57.2234 36.1366 50.4321C39.8411 44.037 43.5348 37.6367 47.2175 31.2312C48.7554 28.5606 50.9408 26.7847 53.9722 26.1164C54.0232 26.1059 54.0611 26.0405 54.103 26H58.2879ZM62.6612 59.7409C67.2384 59.7527 70.2725 55.1767 68.1617 51.2769C66.1699 47.5968 64.0853 43.9533 61.8778 40.4027C59.2374 36.1497 53.0254 36.2674 50.4582 40.5661C48.3657 44.0658 46.3504 47.6112 44.3325 51.1592C43.7332 52.2049 43.4663 53.4082 43.5675 54.6092C43.7662 57.0456 45.0753 58.7091 47.3156 59.5565C49.6304 60.4327 51.7621 59.975 53.593 58.2814C54.1344 57.7792 54.613 57.209 55.1375 56.6872C55.8267 56.0007 56.6323 56.0007 57.3215 56.6872C57.7844 57.1476 58.2121 57.6445 58.6816 58.097C59.2038 58.6198 59.8242 59.0342 60.5072 59.3164C61.1902 59.5985 61.9222 59.7428 62.6612 59.7409Z" fill="#0045E5"/>
<path d="M26 82.0779C26.2616 81.8988 26.2459 81.5849 26.3387 81.3299C27.2032 78.9654 28.0807 76.6022 28.8902 74.2168C29.1518 73.4322 29.7023 73.3354 30.351 73.3354C30.9997 73.3354 31.5123 73.4727 31.7804 74.2011C32.6959 76.6859 33.5394 79.1995 34.3607 81.7196C34.4143 81.8844 34.4653 82.0505 34.5111 82.2179C34.6052 82.5684 34.9139 82.9489 34.3071 83.1713C33.7277 83.3831 33.1719 83.2589 32.9627 82.7606C32.7513 82.2367 32.5692 81.7014 32.4173 81.1573C32.3192 80.8251 32.178 80.6577 31.7896 80.6681C30.7887 80.6987 29.786 80.6987 28.7817 80.6681C28.4429 80.659 28.3213 80.8081 28.2389 81.0827C28.0951 81.5614 27.9447 82.0387 27.7917 82.5147C27.5471 83.2759 26.9325 83.4943 26.2459 83.0627C26.1602 83.0008 26.0781 82.9339 26 82.8626V82.0779ZM30.4164 74.9021L30.2765 74.893C29.8065 76.2653 29.3366 77.6371 28.8667 79.0086C28.7686 79.2963 28.9177 79.3342 29.1557 79.3329C30.045 79.3264 30.9356 79.3329 31.8942 79.3329L30.4164 74.9021Z" fill="#0045E5"/>
<path d="M80.5112 86C80.2183 85.5174 80.2811 85.1565 80.7388 84.7589C81.326 84.2463 81.7706 83.5819 82.2009 82.928C82.3526 82.6978 82.4062 82.5357 82.1002 82.3657C81.6739 82.1368 81.496 81.6948 81.2959 81.2854C80.5543 79.7401 79.9317 78.1404 79.4336 76.5002C79.3316 76.172 79.1315 75.8254 79.6206 75.6305C80.0744 75.4488 80.5282 75.403 80.8617 75.8346C81.0032 76.0521 81.11 76.2904 81.1782 76.5408C81.7406 78.1323 82.2911 79.7265 83.0091 81.3796C83.4198 80.6734 83.6238 79.9829 83.8356 79.3041C84.1469 78.3115 84.4215 77.3058 84.6844 76.2962C84.8871 75.5259 85.3971 75.284 86.1229 75.6567L86.3937 75.8006V76.9776C86.1805 77.0809 86.2093 77.3071 86.1609 77.4811C85.2794 80.5792 84.1887 83.5714 81.9498 85.9974L80.5112 86Z" fill="#0045E5"/>
<path d="M63.5413 78.2932C63.5413 77.009 63.5556 75.7247 63.5334 74.4405C63.5256 73.9174 63.7466 73.6218 64.2396 73.5041C65.6572 73.1667 67.0867 73.0921 68.4978 73.4884C69.9599 73.8991 70.7929 75.2042 70.6543 76.733C70.5 78.4331 69.4433 79.5108 67.6699 79.7161C67.0858 79.7782 66.4975 79.7926 65.911 79.7592C65.4349 79.7357 65.2453 79.8639 65.2767 80.37C65.3185 81.0644 65.2505 81.7654 65.2989 82.4624C65.3368 82.9934 65.1511 83.2275 64.6306 83.2209C64.1311 83.2131 63.6184 83.1896 63.5635 82.5396C63.5164 81.9772 63.5426 81.4097 63.5413 80.8395C63.5334 79.9907 63.5413 79.142 63.5413 78.2932ZM65.2558 76.5852C65.2558 77.0626 65.2558 77.5399 65.2558 78.0173C65.2558 78.2213 65.2479 78.4096 65.5448 78.4096C66.2601 78.4018 66.9833 78.4658 67.6778 78.2487C68.5187 77.9872 68.9594 77.3333 68.9346 76.4178C68.9097 75.5024 68.4795 74.9897 67.5862 74.7517C67.0291 74.6026 66.4694 74.6471 65.9057 74.6576C65.3826 74.6654 65.1825 74.8864 65.2518 75.4161C65.276 75.8054 65.2773 76.1958 65.2558 76.5852Z" fill="#0045E5"/>
<path d="M77.9741 79.8639C77.9741 80.4511 77.9544 81.0409 77.9741 81.6268C77.9937 82.2126 77.7269 82.5906 77.2325 82.8168C75.7822 83.4773 74.2939 83.5793 72.8018 82.9882C71.8562 82.6128 71.4482 81.8818 71.4874 80.8081C71.5214 79.8926 71.9883 79.2636 72.926 78.9262C73.7551 78.628 74.634 78.6332 75.4958 78.5247C75.7757 78.4894 76.2282 78.6555 76.3014 78.2134C76.3851 77.7152 76.2125 77.2496 75.726 77.0024C75.1955 76.7337 74.5863 76.6641 74.0089 76.8063C73.5864 76.9043 73.1692 77.0233 72.7521 77.1424C72.5389 77.2038 72.3283 77.4261 72.123 77.1306C72.0203 77.0027 71.9592 76.8464 71.948 76.6827C71.9368 76.519 71.9759 76.3559 72.0602 76.2151C72.1345 76.1086 72.2308 76.0194 72.3427 75.9536C73.4766 75.199 75.9954 75.2761 77.0835 76.0844C77.7373 76.5748 77.9309 77.2731 77.9571 78.0369C77.9767 78.645 77.9571 79.2557 77.9571 79.8678L77.9741 79.8639ZM76.3276 80.7296C76.3276 80.4916 76.3276 80.2523 76.3276 80.0129C76.3341 79.8089 76.2949 79.6847 76.0425 79.7082C75.3075 79.7762 74.5647 79.7972 73.8506 80.0012C73.385 80.132 73.1196 80.4484 73.1366 80.9598C73.1536 81.4711 73.4217 81.7719 73.8728 81.9223C74.2886 82.0567 74.7291 82.0969 75.1623 82.04C76.2805 81.9079 76.3276 81.853 76.3276 80.7296Z" fill="#0045E5"/>
<path d="M60.9793 79.8299C60.9793 80.417 60.9558 81.0069 60.9793 81.5914C61.0028 82.176 60.7792 82.5644 60.2757 82.7998C58.8071 83.4864 57.2992 83.5845 55.79 82.9764C54.8641 82.6024 54.4561 81.8635 54.4914 80.8473C54.5241 79.8966 55.004 79.2623 55.9665 78.9209C56.7761 78.6332 57.6327 78.6398 58.4697 78.5286C58.7626 78.4894 59.2439 78.6999 59.3145 78.186C59.3851 77.672 59.2138 77.2313 58.7142 76.9906C58.2613 76.7723 57.7538 76.6936 57.256 76.7644C56.7596 76.8252 56.273 76.9496 55.8083 77.1345C55.5467 77.2391 55.2852 77.4235 55.089 77.0443C54.9138 76.7042 54.8942 76.376 55.1871 76.0883C55.4277 75.8516 55.7429 75.7522 56.0568 75.6645C57.103 75.3716 58.1492 75.3141 59.2033 75.6462C60.3594 76.0111 60.8943 76.6728 60.961 77.8695C60.9976 78.5234 60.9675 79.1773 60.9675 79.8312L60.9793 79.8299ZM59.3328 80.7453C59.3328 80.4837 59.3328 80.2222 59.3328 79.9606C59.3328 79.7697 59.2661 79.6899 59.0634 79.7082C58.3075 79.7775 57.5437 79.7906 56.8127 80.0208C56.609 80.0698 56.4296 80.1901 56.307 80.3599C56.1844 80.5298 56.1267 80.738 56.1444 80.9467C56.1389 81.1555 56.201 81.3604 56.3214 81.531C56.4418 81.7016 56.6141 81.8288 56.8127 81.8935C57.2439 82.0478 57.7054 82.098 58.1597 82.04C59.2831 81.9145 59.3341 81.8556 59.3328 80.744V80.7453Z" fill="#0045E5"/>
<path d="M38.9354 75.4148C39.5367 75.4169 40.1343 75.5081 40.7088 75.6855C40.9827 75.763 41.229 75.9167 41.4189 76.1288C41.6805 76.4335 41.6805 76.7578 41.4778 77.0926C41.2502 77.4771 40.9952 77.2117 40.7559 77.1175C40.0392 76.835 39.3173 76.6205 38.5326 76.8298C38.1076 76.9436 37.748 77.1201 37.7349 77.6328C37.727 78.1166 38.0658 78.3023 38.4633 78.4253C39.248 78.6685 40.0732 78.7888 40.8095 79.1877C41.5942 79.6101 41.9865 80.2431 41.9499 81.1494C41.9159 82.0256 41.4804 82.6089 40.7166 82.9908C40.243 83.2066 39.7293 83.3206 39.2088 83.3255C38.3129 83.3687 37.4249 83.3059 36.6141 82.8613C36.2466 82.6599 36.0008 82.38 36.0452 81.9236C36.0975 81.3796 36.3813 81.2109 36.8561 81.4737C37.6211 81.8988 38.4254 82.1015 39.3003 81.9655C39.7737 81.8922 40.2001 81.7484 40.2733 81.1808C40.3544 80.5491 39.9594 80.2784 39.4442 80.1136C38.6595 79.8612 37.829 79.7605 37.098 79.3512C36.8165 79.1977 36.5769 78.9776 36.4001 78.7101C36.2234 78.4426 36.1149 78.1358 36.0842 77.8167C36.0535 77.4976 36.1015 77.1757 36.2239 76.8794C36.3464 76.5831 36.5397 76.3214 36.7867 76.117C37.0856 75.8629 37.4406 75.6836 37.8225 75.5939C38.2397 75.4854 38.6673 75.386 38.9354 75.4148Z" fill="#0045E5"/>
<path d="M43.2511 77.7008C43.2511 76.5238 43.2786 75.3468 43.238 74.1789C43.2223 73.7133 43.3544 73.4884 43.8161 73.4766C44.2777 73.4649 44.7721 73.4479 44.8793 74.0612C44.9158 74.3627 44.928 74.6667 44.9159 74.9701C44.9159 75.815 44.9159 75.815 45.7908 75.815C46.1832 75.815 46.5755 75.8437 46.9679 75.8084C47.4282 75.7666 47.5328 76.036 47.5485 76.3956C47.5642 76.7801 47.4583 77.1044 46.9992 77.1227C46.4761 77.1411 45.953 77.1541 45.4299 77.1227C45.0376 77.1005 44.8976 77.2274 44.9068 77.6328C44.9329 78.6097 44.9146 79.5945 44.9159 80.5675C44.9159 81.7445 45.4103 82.1368 46.6004 81.9328C46.9365 81.8739 47.3589 81.5091 47.5341 82.1564C47.6557 82.6076 47.3615 83.0601 46.8005 83.2157C46.1246 83.399 45.4107 83.3882 44.7407 83.1843C43.752 82.8979 43.276 82.2689 43.259 81.2227C43.2393 80.0457 43.259 78.8686 43.259 77.6995L43.2511 77.7008Z" fill="#0045E5"/>
<path d="M48.8654 79.7409C48.8654 78.8922 48.8746 78.0408 48.8654 77.1973C48.8504 77.0011 48.8904 76.8046 48.9809 76.6299C49.0715 76.4552 49.209 76.3093 49.3781 76.2086C50.4518 75.5258 51.746 75.2797 52.9954 75.5207C53.1369 75.5351 53.2718 75.5881 53.3852 75.6739C53.4987 75.7597 53.5864 75.8749 53.6388 76.0072C53.8167 76.4636 53.5303 76.8755 53.053 76.8272C52.3998 76.7619 51.7403 76.8219 51.1096 77.0037C50.6806 77.1227 50.4845 77.3333 50.4962 77.8302C50.5355 79.3996 50.4818 80.9611 50.5263 82.5252C50.542 83.0706 50.3066 83.2223 49.858 83.2144C49.4095 83.2066 48.8864 83.1896 48.8693 82.5461C48.8458 81.6111 48.8693 80.676 48.8693 79.7422L48.8654 79.7409Z" fill="#0045E5"/>
<path d="M62.6613 59.7409C61.921 59.7419 61.1878 59.5962 60.504 59.3123C59.8203 59.0283 59.1996 58.6117 58.6778 58.0866C58.2083 57.6341 57.7806 57.1371 57.3177 56.6768C56.6285 55.9954 55.8229 55.9954 55.1337 56.6768C54.6106 57.1999 54.1306 57.7688 53.5892 58.271C51.7583 59.9645 49.6305 60.4223 47.3118 59.5461C45.0715 58.6986 43.7624 57.0351 43.5637 54.5987C43.4625 53.3977 43.7294 52.1944 44.3287 51.1487C46.3466 47.606 48.3646 44.0605 50.4544 40.5557C53.0216 36.257 59.2336 36.1393 61.874 40.3922C64.0816 43.9481 66.1662 47.585 68.1579 51.2664C70.2726 55.1715 67.2412 59.7475 62.6613 59.7409ZM62.9503 56.8638C65.2638 56.8638 66.6841 54.4574 65.4351 52.2591C63.5083 48.8771 61.5641 45.5109 59.6024 42.1603C58.054 39.5081 54.4065 39.5081 52.845 42.1525C52.1401 43.3478 51.4549 44.5549 50.763 45.758C49.4552 48.0336 48.1161 50.2921 46.8514 52.5925C46.0275 54.09 46.4016 55.6384 47.6845 56.5251C48.9674 57.4117 50.6375 57.209 51.7635 56.0203C52.182 55.5769 52.6109 55.1427 53.036 54.7125C54.8486 52.8554 57.5439 52.8345 59.3683 54.6667C59.7515 55.0512 60.1163 55.4514 60.4982 55.8437C61.1142 56.4714 61.8335 56.8716 62.9503 56.852V56.8638Z" fill="#EAE702"/>
<path d="M62.9502 56.852C61.8347 56.8716 61.1193 56.4662 60.4981 55.8385C60.1163 55.4461 59.7514 55.046 59.3682 54.6615C57.5373 52.8306 54.8485 52.8502 53.0359 54.7072C52.6109 55.1427 52.1819 55.5769 51.7634 56.015C50.6374 57.2038 48.9752 57.4118 47.6844 56.5198C46.3936 55.6279 46.0275 54.0847 46.8514 52.5873C48.116 50.2869 49.4552 48.0284 50.763 45.7528C51.4548 44.5497 52.1401 43.3426 52.845 42.1473C54.4065 39.5029 58.0539 39.5029 59.6023 42.1551C61.5605 45.5091 63.503 48.8732 65.4298 52.2473C66.684 54.4457 65.2637 56.8533 62.9502 56.852Z" fill="#0045E5"/>
</g>
</g>
<rect x="1" y="1" width="110" height="110" rx="9" stroke="black" stroke-opacity="0.1" stroke-width="2"/>
<defs>
<clipPath id="clip0_725_497">
<rect x="2" y="2" width="108" height="108" rx="8" fill="white"/>
</clipPath>
<clipPath id="clip1_725_497">
<rect width="60.3936" height="60" fill="white" transform="translate(26 26)"/>
</clipPath>
</defs>
</svg>
