<svg width="112" height="112" viewBox="0 0 112 112" fill="none" xmlns="http://www.w3.org/2000/svg">
<g clip-path="url(#clip0_725_536)">
<rect x="2" y="2" width="108" height="108" rx="8" fill="white"/>
<path d="M28.7197 65.6875C28.7315 58.7925 28.7221 51.8975 28.7245 45C29.7925 45.0128 30.8582 45.0128 31.9263 45.0153C31.9145 51.8899 31.8956 58.7644 31.9357 65.6389C30.8653 65.7028 29.7925 65.6517 28.7197 65.6875Z" fill="#2093FD"/>
<path fill-rule="evenodd" clip-rule="evenodd" d="M16.028 65.7077C15.9879 59.1526 15.995 52.5976 16.0233 46.0425C16.7573 46.0741 17.4918 46.0817 18.2261 46.0893C19.3339 46.1008 20.4415 46.1123 21.5475 46.206C21.7969 46.2271 22.0518 46.2362 22.3083 46.2454C23.2059 46.2776 24.1229 46.3105 24.8931 46.8552C27.5809 48.5521 27.8874 53.3642 25.3033 55.3346C26.5105 55.953 27.4795 57.19 27.687 58.6415C27.9417 60.341 27.7719 62.2219 26.8029 63.6428C25.9399 64.8312 24.5819 65.5697 23.1885 65.6285C21.8965 65.7018 20.6039 65.692 19.3113 65.6822C18.2167 65.6739 17.1221 65.6655 16.028 65.7077ZM19.3547 49.3188L19.3593 49.9099C19.3706 51.3382 19.382 52.7666 19.3406 54.1949C19.6323 54.1608 19.9315 54.1402 20.2328 54.1194C21.2195 54.0512 22.2298 53.9815 23.0823 53.4333C23.7283 52.5108 23.7778 51.0209 23.0705 50.1187C22.2333 49.3382 21.0876 49.3333 20.013 49.3287C19.7894 49.3277 19.5688 49.3268 19.3547 49.3188ZM19.3724 59.6925C19.3758 58.811 19.3791 57.9299 19.395 57.0494C19.6825 57.0673 19.9715 57.0778 20.2608 57.0883C21.0865 57.1183 21.9151 57.1484 22.7217 57.3509C24.4712 57.7931 24.8248 60.6195 23.5517 61.813C22.7179 62.4515 21.7128 62.4672 20.7148 62.4827C20.2508 62.4899 19.7884 62.4971 19.3454 62.5669C19.3651 61.6086 19.3688 60.6504 19.3724 59.6925Z" fill="#2093FD"/>
<path fill-rule="evenodd" clip-rule="evenodd" d="M56.7367 54.7343C55.1853 52.4879 52.2146 52.0764 49.845 52.7281C47.2609 53.459 45.4573 56.3162 45.5351 59.1733C45.462 61.3251 46.1599 63.6481 47.815 64.9566C49.4654 66.4542 51.8326 66.5334 53.8367 66.0018C55.6875 65.5061 57.0503 63.9114 57.9769 62.1838C57.5972 61.9448 57.2108 61.7179 56.8242 61.4909C56.2891 61.1767 55.7536 60.8622 55.2348 60.515C54.669 61.4018 54.0088 62.2758 53.094 62.7511C52.3136 63.1881 51.3799 63.0885 50.5759 62.7895C49.5857 62.3065 49.0009 61.182 48.8878 60.0422C51.9128 60.0167 54.9377 60.0269 57.9627 60.0371C57.9816 58.2073 57.7977 56.2344 56.7367 54.7343ZM51.627 57.4225C50.8211 57.4209 50.015 57.4192 49.2084 57.433C49.746 54.7036 54.0795 54.6448 54.6076 57.3998C53.6142 57.4266 52.6208 57.4245 51.627 57.4225Z" fill="#2093FD"/>
<path d="M32.9094 52.8227C33.9798 52.8175 35.0526 52.8252 36.1253 52.815C36.156 55.276 36.1324 57.7396 36.1348 60.2032C36.1654 61.0746 36.3092 62.125 37.0472 62.6336C37.9927 63.1753 39.1645 63.1856 40.1476 62.7588C40.9068 62.4623 41.3383 61.5551 41.3241 60.7118C41.3972 58.0591 41.3124 55.4064 41.3572 52.7537C42.4181 52.7511 43.4791 52.7741 44.5401 52.7128C44.6226 54.8595 44.5755 57.0087 44.5825 59.158C44.5377 61.0031 44.368 63.0373 43.2221 64.5042C41.7226 66.2139 39.3389 66.2242 37.3254 66.0018C35.866 65.8996 34.4183 65.023 33.7417 63.5919C33.0673 62.2349 33.1687 60.6479 33.0532 59.1605C33.0556 57.047 32.9259 54.9361 32.9094 52.8227Z" fill="#2093FD"/>
<path fill-rule="evenodd" clip-rule="evenodd" d="M63.0114 46.1054C62.0549 46.1015 61.0981 46.0977 60.1413 46.0913C60.124 49.779 60.1263 53.4659 60.1285 57.1529C60.1303 59.9891 60.132 62.8253 60.1248 65.662C60.9811 65.615 61.8389 65.6268 62.697 65.6387C62.9116 65.6417 63.1262 65.6446 63.3408 65.6467C63.3219 62.7921 63.3172 59.9349 63.3361 57.0803C63.8002 57.0697 64.267 57.0827 64.7342 57.0957C65.843 57.1265 66.9542 57.1574 68.0374 56.8733C69.8481 56.329 70.9256 54.3152 71.1378 52.3908C71.2628 50.6786 70.8549 48.8232 69.7397 47.5531C68.7494 46.4312 67.2546 46.1501 65.8824 46.1194C64.9259 46.113 63.9688 46.1092 63.0114 46.1054ZM63.5306 51.1079C63.5344 50.5091 63.5381 49.9103 63.5364 49.3115C63.5532 49.313 63.5701 49.3145 63.587 49.3159C64.5088 49.3962 65.439 49.4772 66.3373 49.7332C67.8109 50.0782 68.0608 52.5086 67.0069 53.4848C66.2343 53.9017 65.3663 53.9827 64.5071 54.063C64.1812 54.0934 63.8565 54.1238 63.5387 54.1723C63.5179 53.1508 63.5243 52.1293 63.5306 51.1079Z" fill="#1B49A9"/>
<path d="M83.1314 50.6325C84.2726 50.6299 85.4161 50.6657 86.5596 50.6401C87.6206 52.9376 88.4057 55.368 89.3465 57.7217C90.4617 55.4063 91.4118 52.9989 92.5058 50.6682C93.6705 50.6452 94.8353 50.6274 96 50.658C93.7153 55.943 91.4448 61.2382 89.1791 66.5308C88.9621 66.9652 88.8749 67.5453 88.4552 67.8086C87.34 67.8495 86.2224 67.829 85.1072 67.8571C85.8688 65.9813 86.727 64.1439 87.3895 62.2272C87.208 61.3762 86.8496 60.5865 86.562 59.7738C85.3642 56.7505 84.3245 53.6557 83.1314 50.6325Z" fill="#1B49A9"/>
<path fill-rule="evenodd" clip-rule="evenodd" d="M76.023 52.4239C74.1651 52.3319 72.3261 53.4717 71.4514 55.2479C70.3527 57.4457 70.3432 60.1239 71.0058 62.4751C71.7036 64.8492 73.9671 66.5538 76.2729 66.3391C77.3608 66.323 78.3152 65.7549 79.2441 65.202C79.348 65.1402 79.4515 65.0785 79.5549 65.0179C79.5632 65.1073 79.5761 65.2421 79.5891 65.3769C79.6021 65.5117 79.615 65.6466 79.6233 65.736C80.0032 65.7295 80.3835 65.7348 80.7637 65.7402C81.4264 65.7496 82.089 65.7589 82.7496 65.7053C82.7484 65.2631 82.7471 64.8209 82.7458 64.3787C82.7346 60.5454 82.7234 56.7124 82.7614 52.8814C82.0035 52.8702 81.2444 52.8699 80.4858 52.8696C80.2014 52.8694 79.917 52.8693 79.6327 52.8686L79.6327 52.8759C79.6303 53.2006 79.628 53.5227 79.628 53.8449C78.5529 53.0782 77.3551 52.3396 76.023 52.4239ZM74.1628 57.6091C74.368 56.7964 74.8961 56.0425 75.6246 55.7154C76.9308 55.1123 78.7368 55.6771 79.2626 57.1874C80.0289 59.1195 79.7224 61.8974 77.8126 62.8889C76.6667 63.3387 75.1814 63.0039 74.5165 61.8284C73.8563 60.5582 73.7738 58.9917 74.1628 57.6091Z" fill="#1B49A9"/>
</g>
<rect x="1" y="1" width="110" height="110" rx="9" stroke="black" stroke-opacity="0.1" stroke-width="2"/>
<defs>
<clipPath id="clip0_725_536">
<rect x="2" y="2" width="108" height="108" rx="8" fill="white"/>
</clipPath>
</defs>
</svg>
