<svg width="112" height="112" viewBox="0 0 112 112" fill="none" xmlns="http://www.w3.org/2000/svg">
<g clip-path="url(#clip0_725_488)">
<rect x="2" y="2" width="108" height="108" rx="8" fill="white"/>
<g clip-path="url(#clip1_725_488)">
<path fill-rule="evenodd" clip-rule="evenodd" d="M47.6231 62.3487C49.1435 62.4576 50.9152 61.2764 51.5393 60.6021C53.7089 58.2545 53.7613 54.8597 51.577 52.4011C50.7644 51.4859 48.8545 50.4744 47.6461 50.6168H43.2712V62.334L47.6335 62.3487H47.6231ZM45.7383 59.8105V53.1403C46.423 53.0954 47.11 53.0954 47.7948 53.1403C48.3336 53.2028 48.8476 53.4018 49.288 53.7183C51.8011 55.4356 50.754 59.5298 47.7529 59.8042C47.0823 59.8513 46.4092 59.8534 45.7383 59.8105Z" fill="#008CEB"/>
<path fill-rule="evenodd" clip-rule="evenodd" d="M86.0293 62.3696H88.5235V59.844H93.4722L93.4869 62.3571H95.9811V58.1937C95.9811 56.9372 96.0859 55.3707 95.7717 54.2335C95.4864 53.1925 94.8684 52.2733 94.0119 51.6163C93.1555 50.9592 92.1076 50.6004 91.0282 50.5944C89.9488 50.5885 88.897 50.9358 88.0334 51.5834C87.1698 52.231 86.5417 53.1433 86.245 54.1811C85.9099 55.3037 86.023 56.9141 86.023 58.1602C86.023 59.5675 86.0083 60.9832 86.023 62.3906L86.0293 62.3696ZM88.5256 57.3037C88.511 56.2565 88.4 55.1361 88.8921 54.3298C89.1081 53.9586 89.4186 53.6513 89.792 53.439C90.1654 53.2268 90.5883 53.1172 91.0178 53.1215C91.445 53.1246 91.8642 53.2386 92.2342 53.4522C92.6042 53.6659 92.9124 53.9719 93.1288 54.3403C93.6146 55.178 93.4995 56.2251 93.4869 57.3058L88.5256 57.3037Z" fill="#008CEB"/>
<path fill-rule="evenodd" clip-rule="evenodd" d="M57.5058 62.3675H59.9916C59.9916 61.8398 59.9246 60.2251 60.0147 59.8419H64.9445L64.9613 62.3655H67.4513C67.4387 60.9665 67.4513 59.5696 67.4513 58.177C67.4513 56.9833 67.5623 55.2744 67.2419 54.2147C66.9548 53.175 66.3358 52.2576 65.4792 51.602C64.6227 50.9465 63.5754 50.5888 62.4968 50.5834C61.4182 50.5779 60.3673 50.925 59.5042 51.5718C58.641 52.2186 58.0128 53.1298 57.7152 54.1665C57.3822 55.2555 57.4953 56.9204 57.4953 58.133C57.4953 59.5319 57.4639 60.9665 57.4953 62.3613L57.5058 62.3675ZM59.9937 57.3037C59.977 56.2566 59.8702 55.1215 60.3623 54.3319C60.5783 53.9617 60.8875 53.6545 61.2592 53.441C61.6309 53.2276 62.052 53.1152 62.4806 53.1152C62.9093 53.1152 63.3304 53.2276 63.7021 53.441C64.0738 53.6545 64.383 53.9617 64.599 54.3319C65.0869 55.1696 64.9696 56.2335 64.9613 57.2995L59.9937 57.3037Z" fill="#008CEB"/>
<path fill-rule="evenodd" clip-rule="evenodd" d="M71.8263 55.1927L71.7907 56.9372C71.7907 58.4032 71.7195 61.1403 71.7907 62.3319H74.2284C74.2849 61.4943 74.1404 55.5445 74.2933 55.3539C74.2933 54.1979 75.5017 53.1215 76.7205 53.1173C77.3541 53.1135 77.9641 53.3569 78.421 53.7958C78.731 54.0785 79.2064 54.7236 79.198 55.3749C79.3111 55.4398 79.221 61.6576 79.2566 62.3466H81.6964L81.6776 55.2367C81.7383 54.6796 81.4032 53.8189 81.1875 53.3833C80.7875 52.5533 80.1631 51.8519 79.385 51.3585C78.6069 50.8651 77.7061 50.5994 76.7848 50.5916C75.8635 50.5837 74.9584 50.834 74.172 51.3141C73.3856 51.7941 72.7493 52.4848 72.3352 53.3079C72.1258 53.7372 71.7739 54.621 71.8263 55.1927Z" fill="#008CEB"/>
<path d="M27.4366 67.8733C33.7529 67.8733 38.8733 62.7529 38.8733 56.4366C38.8733 50.1204 33.7529 45 27.4366 45C21.1204 45 16 50.1204 16 56.4366C16 62.7529 21.1204 67.8733 27.4366 67.8733Z" fill="#008CEB"/>
<path d="M34.1005 56.4848V59.7037C34.1005 59.9131 34.0105 59.9571 33.8346 59.8545C33.5993 59.7132 33.3543 59.5887 33.1016 59.4817C32.3383 59.1776 31.5116 59.0675 30.6953 59.1613C29.8044 59.2768 28.9301 59.4961 28.0901 59.8147C27.2524 60.0974 26.4314 60.4031 25.577 60.6398C24.8693 60.85 24.1328 60.9468 23.3948 60.9267C22.5769 60.895 21.7821 60.6471 21.0911 60.2084C21.0043 60.1561 20.9331 60.0815 20.8848 59.9924C20.8366 59.9033 20.8131 59.8029 20.8168 59.7016C20.8168 57.5934 20.8168 55.4852 20.8168 53.377C20.8168 53.2744 20.8168 53.1529 20.9089 53.1005C21.0011 53.0482 21.0953 53.134 21.1749 53.1864C21.9252 53.6937 22.8138 53.957 23.7194 53.9403C24.3669 53.9138 25.0073 53.7946 25.621 53.5864C26.4922 53.3162 27.3341 52.9581 28.1906 52.6545C28.8574 52.3982 29.541 52.1883 30.2367 52.0262C30.8337 51.8864 31.4532 51.8717 32.0562 51.9831C32.6592 52.0944 33.2326 52.3294 33.7403 52.6733C33.8567 52.7446 33.952 52.8457 34.0165 52.966C34.0809 53.0864 34.1121 53.2217 34.1068 53.3581C34.1068 54.4052 34.1068 55.4524 34.1068 56.4995L34.1005 56.4848Z" fill="#FEFEFE"/>
</g>
</g>
<rect x="1" y="1" width="110" height="110" rx="9" stroke="black" stroke-opacity="0.1" stroke-width="2"/>
<defs>
<clipPath id="clip0_725_488">
<rect x="2" y="2" width="108" height="108" rx="8" fill="white"/>
</clipPath>
<clipPath id="clip1_725_488">
<rect width="80" height="22.8733" fill="white" transform="translate(16 45)"/>
</clipPath>
</defs>
</svg>
