<svg width="112" height="112" viewBox="0 0 112 112" fill="none" xmlns="http://www.w3.org/2000/svg">
<g clip-path="url(#clip0_725_427)">
<rect x="2" y="2" width="108" height="108" rx="8" fill="white"/>
<g clip-path="url(#clip1_725_427)">
<path d="M25.9323 66.3999C25.7211 66.3177 25.4949 66.3309 25.2759 66.3009C23.0595 65.9968 21.125 65.09 19.4788 63.5832C17.7991 62.045 16.7215 60.1533 16.2377 57.9287C16.0883 57.2427 16.0193 56.5463 16.0011 55.8438C15.9975 55.6984 16.0636 55.6998 16.1701 55.7001C17.5987 55.7023 19.0272 55.7044 20.4554 55.6976C20.6055 55.6969 20.6544 55.7373 20.6755 55.8834C20.8173 56.8528 21.1779 57.739 21.7632 58.5229C22.8669 60.0011 24.3376 60.8476 26.1842 61.0216C29.2803 61.3132 32.1545 59.1779 32.7413 56.0424C32.8052 55.7012 32.8081 55.7019 33.1593 55.7019C34.5046 55.7019 35.8495 55.7019 37.1948 55.7019C37.353 55.7019 37.4302 55.779 37.4263 55.9331C37.362 58.3589 36.5852 60.531 35.0531 62.4148C33.3808 64.4708 31.232 65.7464 28.6171 66.2273C28.2602 66.2931 27.9014 66.3424 27.5391 66.3649C27.5102 66.3667 27.4787 66.3627 27.468 66.4003H25.9323V66.3999Z" fill="#0079FA"/>
<path d="M96 50.9232C95.9278 50.975 95.9242 51.0626 95.8981 51.1351C94.4178 55.221 92.9424 59.309 91.4596 63.3942C90.9811 64.712 90.0696 65.567 88.6854 65.8747C87.9475 66.0387 87.2097 65.9983 86.4804 65.7943C86.3718 65.7639 86.3303 65.7217 86.3314 65.6027C86.3378 64.9313 86.3389 64.2596 86.3314 63.5882C86.3296 63.4381 86.3707 63.426 86.5033 63.4635C86.8645 63.5653 87.2347 63.6236 87.6117 63.6179C87.9861 63.6121 88.292 63.4678 88.505 63.1523C88.8612 62.6245 89.0438 62.0221 89.2446 61.4275C89.2707 61.35 89.2264 61.2882 89.2003 61.2242C87.8185 57.8362 86.4358 54.4485 85.0529 51.0608C85.0286 51.0011 85.0069 50.9407 84.9829 50.8775C85.0279 50.8357 85.0769 50.8532 85.1198 50.8528C85.9709 50.8514 86.8216 50.8553 87.6728 50.8482C87.7971 50.8471 87.8464 50.8868 87.8864 50.9986C88.8265 53.6245 89.7698 56.249 90.7128 58.8738C90.7289 58.9181 90.746 58.9621 90.7742 59.0364C90.9018 58.6401 91.0215 58.2699 91.1398 57.8994C91.8698 55.6083 92.6005 53.3179 93.3262 51.0254C93.3691 50.89 93.4262 50.846 93.5717 50.8478C94.381 50.8568 95.1903 50.8521 95.9996 50.8521V50.9236L96 50.9232Z" fill="#010101"/>
<path d="M26.7183 50.3526C23.2138 50.3526 19.7093 50.3515 16.2044 50.3562C16.0457 50.3562 15.9993 50.3222 15.9996 50.1561C16.0068 48.4985 16.0064 46.8409 16.0004 45.183C16 45.0333 16.0386 45 16.1858 45C23.207 45.004 30.2279 45.004 37.2491 45C37.3949 45 37.4359 45.0308 37.4352 45.1823C37.4292 46.8459 37.4292 48.5096 37.4352 50.1732C37.4356 50.3229 37.397 50.3565 37.2498 50.3562C33.7392 50.3515 30.2286 50.3526 26.718 50.3526H26.7183Z" fill="#0079FA"/>
<path d="M50.9392 59.5455C50.663 59.985 50.37 60.342 49.9956 60.6225C48.9668 61.3925 47.8088 61.6816 46.5368 61.5343C44.1388 61.2567 42.5223 59.4662 42.1146 57.2795C41.8116 55.6551 42.0678 54.1172 43.0086 52.7376C43.993 51.2945 45.383 50.5952 47.1313 50.6856C48.5152 50.7571 49.6132 51.3877 50.4111 52.5265C50.4379 52.5647 50.4676 52.6012 50.4965 52.638C50.4987 52.6405 50.5069 52.638 50.5287 52.638C50.5287 52.5826 50.5287 52.5261 50.5287 52.4693C50.5287 50.6091 50.5308 48.7493 50.5244 46.8891C50.5237 46.7323 50.5726 46.7105 50.7127 46.7116C51.5159 46.7183 52.3195 46.7191 53.1228 46.7112C53.2696 46.7098 53.3071 46.743 53.3068 46.8931C53.3018 50.6488 53.3028 54.4045 53.3028 58.1602C53.3028 58.3267 53.305 58.4929 53.345 58.6558C53.4022 58.8884 53.5483 59.0321 53.7877 59.0557C53.9185 59.0685 53.9503 59.1186 53.9489 59.2454C53.9421 59.905 53.9442 60.5646 53.9471 61.2242C53.9474 61.316 53.9417 61.3814 53.8288 61.3989C53.3407 61.474 52.8559 61.5526 52.357 61.4818C51.6517 61.3818 51.1057 60.9076 51.0114 60.2755C50.9782 60.0533 50.9667 59.8282 50.9396 59.5452L50.9392 59.5455ZM50.5283 56.2686C50.5283 55.8942 50.5269 55.52 50.5294 55.1456C50.5301 55.0545 50.5104 54.9726 50.4747 54.8887C50.2082 54.2666 49.7622 53.8021 49.203 53.4366C48.1197 52.7287 46.9191 52.7777 45.9726 53.6459C44.9867 54.5499 44.7012 55.7098 44.9917 56.9932C45.1893 57.8658 45.6924 58.5551 46.5075 58.9578C47.7774 59.5856 49.143 59.3011 50.082 58.2413C50.3761 57.9098 50.5862 57.5457 50.5333 57.0701C50.504 56.806 50.528 56.5359 50.528 56.2686H50.5283Z" fill="#010101"/>
<path d="M64.108 59.5859C64.108 59.6502 64.108 59.7145 64.108 59.7792C64.108 61.6751 64.1055 63.571 64.1127 65.4666C64.1134 65.6306 64.0655 65.656 63.9169 65.6545C63.1075 65.647 62.2979 65.6477 61.4886 65.6545C61.3553 65.6556 61.3231 65.6234 61.3231 65.4895C61.3271 60.6636 61.3271 55.8381 61.3231 51.0122C61.3231 50.876 61.3589 50.8471 61.49 50.8485C62.1921 50.8553 62.8946 50.8567 63.5967 50.8475C63.7403 50.8457 63.7579 50.8928 63.7561 51.0168C63.7496 51.5453 63.7532 52.0738 63.7532 52.624C63.8368 52.5686 63.8625 52.4886 63.9094 52.4275C64.6887 51.4159 65.7038 50.8342 66.9833 50.7017C69.7096 50.4194 71.9578 52.2964 72.4624 54.9098C72.795 56.6341 72.5049 58.2589 71.4665 59.7013C70.6726 60.8044 69.5856 61.4382 68.2161 61.5519C67.2238 61.6344 66.2869 61.4618 65.4362 60.9216C64.8959 60.5785 64.4653 60.1262 64.108 59.5852V59.5859ZM64.108 55.9502C64.108 56.3247 64.1098 56.6992 64.107 57.0736C64.1062 57.1587 64.1212 57.2362 64.1566 57.3134C64.4032 57.8522 64.7558 58.3082 65.2211 58.6762C66.3895 59.6006 67.9852 59.4759 68.9303 58.3446C69.7386 57.3774 69.9512 56.2558 69.5792 55.0523C69.2637 54.0325 68.5655 53.349 67.5372 53.0699C66.2673 52.7255 65.2386 53.175 64.4235 54.1637C64.2095 54.4234 64.0705 54.7161 64.103 55.0773C64.1291 55.366 64.1084 55.6594 64.1084 55.9506L64.108 55.9502Z" fill="#010101"/>
<path d="M81.4205 59.6885C81.1211 60.0605 80.8099 60.376 80.4422 60.6286C79.0759 61.5658 77.5909 61.8531 76.0069 61.33C74.9246 60.9727 74.1728 60.2312 73.8462 59.1161C73.4975 57.9259 73.8991 56.6921 74.8621 55.9188C75.6485 55.2875 76.5682 55.0002 77.5512 54.8887C78.5002 54.7811 79.4392 54.863 80.3636 55.0984C80.5751 55.1524 80.7806 55.2303 81.0032 55.3018C81.0039 54.7897 81.0414 54.2852 80.8581 53.801C80.5866 53.0832 80.0288 52.7266 79.3035 52.6022C78.135 52.4018 77.0527 52.6769 76.0244 53.224C75.7728 53.3576 75.5188 53.4873 75.2876 53.6552C75.2011 53.7181 75.1658 53.7021 75.1211 53.6102C74.8821 53.1207 74.6402 52.6326 74.3915 52.1477C74.3382 52.0441 74.3593 52.0002 74.4536 51.9416C75.4084 51.3502 76.4346 50.9507 77.5465 50.7774C78.6464 50.6059 79.7376 50.6324 80.8174 50.9207C82.5493 51.3831 83.628 52.6709 83.7527 54.4549C83.8346 55.6237 83.7692 56.795 83.7874 57.9648C83.7906 58.1781 83.7699 58.3922 83.8178 58.604C83.8785 58.8742 84.0182 59.0203 84.2955 59.0568C84.4238 59.0736 84.4573 59.1189 84.4559 59.2469C84.4488 59.9061 84.4531 60.5657 84.452 61.2253C84.452 61.2903 84.4809 61.3679 84.3691 61.3872C83.7881 61.4876 83.2071 61.5873 82.6183 61.4518C81.9612 61.301 81.5249 60.7944 81.4677 60.1258C81.4563 59.9918 81.4395 59.8586 81.4213 59.6885H81.4205ZM81.0046 57.4374C81.0046 57.2473 81.0014 57.0572 81.0061 56.8671C81.0082 56.785 80.9864 56.7449 80.8996 56.7178C80.2335 56.5073 79.5557 56.3612 78.855 56.353C78.2272 56.3455 77.6241 56.4484 77.0867 56.8028C76.619 57.1112 76.3342 57.5214 76.3638 58.1042C76.3992 58.7995 76.9548 59.413 77.722 59.5491C78.5856 59.7028 79.4074 59.5427 80.1453 59.0686C80.7209 58.6984 81.1479 58.221 81.0046 57.4556C81.0036 57.4499 81.0046 57.4438 81.0046 57.4378V57.4374Z" fill="#010101"/>
<path d="M56.0395 56.0943C56.0395 54.4074 56.0416 52.7202 56.0359 51.0333C56.0355 50.8889 56.0641 50.846 56.2167 50.8478C57.0317 50.8564 57.8468 50.8557 58.6614 50.8482C58.7983 50.8471 58.8244 50.885 58.8244 51.0151C58.8204 54.4127 58.8204 57.8108 58.8244 61.2085C58.8244 61.3378 58.7994 61.3768 58.6618 61.3757C57.841 61.3682 57.0199 61.3682 56.1992 61.3757C56.0623 61.3768 56.0359 61.3389 56.0362 61.2089C56.0409 59.5041 56.0395 57.799 56.0395 56.0943Z" fill="#010101"/>
<path d="M57.4412 46.7151C57.8514 46.7151 58.2616 46.718 58.6718 46.713C58.7772 46.7116 58.8265 46.7234 58.8251 46.852C58.8183 47.6534 58.819 48.4545 58.8244 49.256C58.8251 49.3682 58.794 49.3928 58.6861 49.3921C57.8479 49.3875 57.01 49.3871 56.1717 49.3925C56.057 49.3932 56.0366 49.3582 56.0374 49.2524C56.042 48.451 56.0424 47.6499 56.037 46.8484C56.0363 46.7362 56.067 46.7105 56.1753 46.7123C56.5973 46.7187 57.0193 46.7148 57.4412 46.7148V46.7151Z" fill="#010101"/>
</g>
</g>
<rect x="1" y="1" width="110" height="110" rx="9" stroke="black" stroke-opacity="0.1" stroke-width="2"/>
<defs>
<clipPath id="clip0_725_427">
<rect x="2" y="2" width="108" height="108" rx="8" fill="white"/>
</clipPath>
<clipPath id="clip1_725_427">
<rect width="80" height="21.3999" fill="white" transform="translate(16 45)"/>
</clipPath>
</defs>
</svg>
