<svg width="112" height="112" viewBox="0 0 112 112" fill="none" xmlns="http://www.w3.org/2000/svg">
<g clip-path="url(#clip0_725_483)">
<rect x="2" y="2" width="108" height="108" rx="8" fill="white"/>
<path d="M56.0426 16.3875H89.1328C90.5878 16.3875 91.9547 16.63 93.1451 17.5119C94.7765 18.5921 95.7685 20.4219 95.8126 22.3839C95.8346 26.1316 95.8346 29.8573 95.8346 33.5609L95.8567 89.4682C95.8567 90.6146 95.8346 91.7168 95.3056 92.753C94.4237 94.693 92.6381 96.0377 90.5437 96.3023C89.9926 96.3905 89.4194 96.4125 88.8683 96.4125L23.746 96.3905C23.0185 96.3905 22.2469 96.3464 21.5194 96.3023C18.1244 96.0157 15.6112 93.0616 15.8758 89.6666C15.8758 67.4448 15.8978 45.2671 15.8758 23.0232C15.8758 21.0832 16.4269 19.4298 17.8819 18.085C18.9401 17.071 20.329 16.4757 21.784 16.4316C22.754 16.4096 23.746 16.4096 24.716 16.4096L56.0426 16.3875Z" fill="#E2261D"/>
<path d="M35.364 28.3142H29.1471C28.0669 28.3142 27.8244 28.5567 27.8024 29.5928V32.9437C27.8024 33.9137 28.0669 34.1562 28.9928 34.1783L36.7969 34.2885C38.2299 34.3105 39.6408 34.2885 41.0517 34.3105C42.9035 34.3326 44.5569 34.9719 46.034 36.0962C49.429 38.7196 49.7155 43.9003 46.8496 46.9426C45.2844 48.6401 43.0799 49.6101 40.7651 49.566C36.8851 49.588 33.0271 49.566 29.1471 49.5439C28.0449 49.5439 27.8024 49.8085 27.8024 50.9107V54.2617C27.8244 55.2757 28.133 55.5844 29.1471 55.5844C32.6744 55.5844 36.1796 55.6064 39.6849 55.5844C40.6328 55.5844 41.5808 55.5182 42.5067 55.408C45.9017 55.0773 49.0321 53.4019 51.1705 50.7123C54.5215 46.7662 55.293 41.2548 53.1767 36.5371C50.9501 31.1139 46.541 28.4905 40.743 28.2701C38.9794 28.248 37.1717 28.2921 35.364 28.3142ZM69.8651 28.2921C77.6251 28.2921 83.9301 34.3987 83.9301 41.9603C83.9301 49.5219 77.6251 55.6285 69.843 55.6285C62.061 55.6285 55.778 49.5219 55.778 41.9823C55.778 34.4428 62.083 28.2921 69.8651 28.2921ZM69.8651 50.1612C74.208 50.1612 77.7574 46.4796 77.7574 41.9603C77.7574 37.441 74.2301 33.7594 69.843 33.7594C65.5001 33.7594 61.9287 37.441 61.9287 41.9603C61.9508 46.5017 65.5001 50.1612 69.8651 50.1612ZM34.3719 68.503C34.1074 68.1723 34.1955 67.8196 34.1955 67.4889V58.1857C34.1294 57.5685 33.909 57.348 33.3578 57.2157C33.1594 57.1717 32.939 57.1276 32.7405 57.1276H29.103C28.133 57.1496 27.8244 57.4582 27.8244 58.4062V83.1632C27.8244 84.1112 28.089 84.3757 29.0149 84.3978H32.476C33.9751 84.3978 34.1955 84.2214 34.1955 82.6562V77.1448C34.1955 76.5276 34.3278 75.9764 34.7908 75.5355C35.4301 74.8742 36.0694 74.2128 36.7528 73.5955C37.2599 73.1105 37.6346 73.1546 38.0976 73.7057C38.5385 74.2348 38.9353 74.786 39.3542 75.3151L45.593 83.4939C46.034 84.0451 46.5851 84.3978 47.3126 84.3978L52.6476 84.3757C52.9342 84.3757 53.2649 84.3978 53.4412 83.9348C53.309 83.7144 53.1546 83.3837 52.9342 83.1191L45.4387 73.5073L42.4185 69.5612C41.9115 68.8998 41.9335 68.5471 42.5067 67.9298C42.5949 67.8417 42.661 67.7535 42.7492 67.6653L48.1724 62.2862L52.3169 58.1637C52.5374 57.9212 52.9342 57.7448 52.7578 57.2598C52.6255 57.2378 52.4933 57.1717 52.361 57.1496C50.5974 57.1276 48.8778 57.0835 47.1142 57.0835C46.1001 57.0835 45.2844 57.4803 44.5569 58.2298C41.4705 61.4705 38.3401 64.623 35.1876 67.8196C34.9671 68.1062 34.7908 68.4369 34.3719 68.503ZM55.8221 64.8876V67.4669C55.8662 69.2526 55.7119 70.9942 55.9985 72.7578C57.0787 79.7903 63.3837 84.8387 70.5044 84.3537C77.9778 84.1553 83.908 77.9826 83.8639 70.5092C83.908 66.541 83.8639 62.5948 83.8639 58.6267V58.0976C83.7978 57.5023 83.5553 57.1937 82.9601 57.1937C81.5271 57.1717 80.1383 57.1717 78.7053 57.1937C78.1101 57.2157 77.8676 57.5244 77.8455 58.0976V59.0014C77.8015 62.9917 77.7794 66.9819 77.7133 70.9942C77.6912 72.7137 77.096 74.3892 76.0599 75.756C73.5246 79.151 68.7187 79.8564 65.3017 77.3212C63.1192 75.6898 61.8846 73.1105 61.9508 70.3989C61.9287 66.4307 61.9728 62.4846 62.0169 58.5164C62.0169 57.4142 61.7524 57.1717 60.6501 57.1496H57.1228C56.0646 57.1717 55.8442 57.4142 55.8442 58.4944V64.8876H55.8221Z" fill="white"/>
</g>
<rect x="1" y="1" width="110" height="110" rx="9" stroke="black" stroke-opacity="0.1" stroke-width="2"/>
<defs>
<clipPath id="clip0_725_483">
<rect x="2" y="2" width="108" height="108" rx="8" fill="white"/>
</clipPath>
</defs>
</svg>
