<svg width="112" height="112" viewBox="0 0 112 112" fill="none" xmlns="http://www.w3.org/2000/svg">
<g clip-path="url(#clip0_725_518)">
<rect x="1.99988" y="2" width="108" height="108" rx="8" fill="white"/>
<g clip-path="url(#clip1_725_518)">
<path d="M24.1448 49C24.2896 49 24.3982 49.0362 24.4887 49.1267C24.5792 49.2172 24.6154 49.3258 24.6154 49.4706V56.8733V56.9095C24.5973 57.7059 24.4163 58.4118 24.0362 59.0633C23.6561 59.7149 23.1493 60.2217 22.4977 60.5837C21.8462 60.9457 21.1222 61.1267 20.3258 61.1267C19.5113 61.1267 18.7873 60.9457 18.1176 60.5656C17.4661 60.1855 16.9412 59.6787 16.5792 59.0272C16.181 58.3575 16 57.6154 16 56.8009C16 56.0045 16.181 55.2805 16.5611 54.6109C16.9412 53.9593 17.448 53.4344 18.0995 53.0724C18.7511 52.6923 19.4932 52.5113 20.3077 52.5113C21.0317 52.5113 21.7014 52.6742 22.2805 52.9819C22.8778 53.2896 23.3303 53.724 23.6742 54.267V49.4706C23.6742 49.3258 23.7104 49.2172 23.8009 49.1267C23.9095 49.0362 24.0181 49 24.1448 49ZM20.3077 60.2579C20.9412 60.2579 21.5204 60.1131 22.0271 59.8054C22.5339 59.4977 22.9502 59.0814 23.2398 58.5747C23.5294 58.0498 23.6742 57.4706 23.6742 56.819C23.6742 56.1674 23.5294 55.5882 23.2398 55.0633C22.9502 54.5385 22.552 54.1222 22.0271 53.8326C21.5204 53.543 20.9412 53.3801 20.3077 53.3801C19.6742 53.3801 19.095 53.5249 18.5882 53.8326C18.0814 54.1222 17.6652 54.5385 17.3756 55.0633C17.086 55.5882 16.9231 56.1674 16.9231 56.819C16.9231 57.4706 17.0679 58.0498 17.3756 58.5747C17.6652 59.0995 18.0814 59.5158 18.5882 59.8054C19.095 60.095 19.6742 60.2579 20.3077 60.2579ZM33.2308 52.6018C33.1041 52.6018 32.9955 52.638 32.905 52.7285C32.8145 52.819 32.7783 52.9276 32.7783 53.0724V57.7783C32.7783 58.2308 32.6516 58.6471 32.3982 59.009C32.1448 59.3891 31.7828 59.6787 31.3484 59.8778C30.8959 60.095 30.4072 60.1855 29.8643 60.1855C28.9774 60.1855 28.2715 59.9321 27.7104 59.4072C27.1674 58.9005 26.8778 58.1584 26.8778 57.181V53.0724C26.8778 52.9457 26.8416 52.8371 26.7511 52.7466C26.6606 52.6561 26.552 52.6199 26.4253 52.6199C26.2986 52.6199 26.19 52.6561 26.0995 52.7466C26.009 52.8371 25.9728 52.9457 25.9728 53.0724V57.2172C25.9728 58.0317 26.1357 58.7376 26.4796 59.3348C26.8054 59.9321 27.276 60.3665 27.8733 60.6742C28.4706 60.9819 29.1403 61.1448 29.8824 61.1448C30.4796 61.1448 31.0226 61.0181 31.5294 60.7828C32.0362 60.5475 32.4525 60.2036 32.8145 59.7692V60.5656C32.8145 60.6923 32.8507 60.8009 32.9412 60.8914C33.0317 60.9819 33.1403 61.0181 33.267 61.0181C33.4118 61.0181 33.5204 60.9819 33.6109 60.8914C33.7014 60.8009 33.7376 60.6923 33.7376 60.5656V53.0724C33.7376 52.9276 33.7014 52.819 33.6109 52.7285C33.5204 52.638 33.3756 52.6018 33.2308 52.6018ZM38.9864 60.0769H38.6425C38.0633 60.0769 37.5747 59.8959 37.2127 59.5158C36.8507 59.1357 36.6516 58.6652 36.6516 58.0679V53.7421H38.6787C38.8054 53.7421 38.8959 53.7059 38.9864 53.6335C39.0769 53.5611 39.095 53.4525 39.095 53.3258C39.095 53.1991 39.0588 53.1086 38.9864 53.0181C38.914 52.9276 38.8054 52.9095 38.6787 52.9095H36.6516V50.3937C36.6516 50.2489 36.6154 50.1403 36.5249 50.0498C36.4344 49.9593 36.3258 49.9231 36.181 49.9231C36.0543 49.9231 35.9457 49.9593 35.8552 50.0498C35.7647 50.1403 35.7285 50.2489 35.7285 50.3937V52.9095H34.5339C34.4072 52.9095 34.3167 52.9457 34.2262 53.0181C34.1357 53.0905 34.1176 53.1991 34.1176 53.3258C34.1176 53.4525 34.1538 53.543 34.2262 53.6335C34.2986 53.724 34.4072 53.7421 34.5339 53.7421H35.7285V58.0679C35.7285 58.629 35.8552 59.1357 36.0905 59.5882C36.3439 60.0407 36.6878 60.3846 37.1222 60.638C37.5566 60.8914 38.0633 61.0181 38.6244 61.0181H38.9864C39.1312 61.0181 39.2398 60.9819 39.3303 60.8914C39.4208 60.8009 39.457 60.6923 39.457 60.5656C39.457 60.4208 39.4208 60.3122 39.3303 60.2217C39.2398 60.1312 39.1312 60.0769 38.9864 60.0769ZM43.9457 52.5113C44.7421 52.5113 45.4661 52.6923 46.1357 53.0724C46.7873 53.4525 47.3122 53.9593 47.6742 54.6109C48.0543 55.2624 48.2353 56.0045 48.2353 56.819V60.5656C48.2353 60.6923 48.1991 60.8009 48.1086 60.8914C48.0181 60.9819 47.9095 61.0181 47.7647 61.0181C47.638 61.0181 47.5294 60.9819 47.4389 60.8914C47.3484 60.8009 47.3122 60.6923 47.3122 60.5656V59.371C46.9683 59.914 46.5158 60.3484 45.9186 60.6561C45.3213 60.9638 44.6697 61.1267 43.9457 61.1267C43.1312 61.1267 42.4072 60.9457 41.7376 60.5656C41.086 60.1855 40.5611 59.6787 40.1991 59.0272C39.819 58.3756 39.638 57.6335 39.638 56.8371C39.638 56.0226 39.819 55.2986 40.1991 54.629C40.5792 53.9774 41.086 53.4525 41.7376 53.0905C42.4072 52.6923 43.1312 52.5113 43.9457 52.5113ZM43.9457 60.2579C44.5792 60.2579 45.1584 60.1131 45.6652 59.8054C46.1719 59.5158 46.5882 59.0995 46.8778 58.5747C47.1674 58.0498 47.3122 57.4706 47.3122 56.819C47.3122 56.1674 47.1674 55.5882 46.8778 55.0633C46.5882 54.5385 46.19 54.1222 45.6652 53.8326C45.1584 53.5249 44.5792 53.3801 43.9457 53.3801C43.3122 53.3801 42.733 53.5249 42.2262 53.8326C41.7195 54.1403 41.3032 54.5566 41.0136 55.0633C40.724 55.5701 40.5611 56.1674 40.5611 56.819C40.5611 57.4706 40.7059 58.0498 41.0136 58.5747C41.3032 59.0995 41.7195 59.5158 42.2262 59.8054C42.733 60.1131 43.3122 60.2579 43.9457 60.2579Z" fill="#6E6E6E"/>
<path d="M58.1538 52.4932C58.7692 52.4932 59.3122 52.6561 59.8009 52.9638C60.2896 53.2715 60.6516 53.7059 60.923 54.2489C61.1945 54.7919 61.3212 55.4254 61.3212 56.1131V60.5656C61.3212 60.6923 61.285 60.8009 61.1945 60.8914C61.104 60.9819 60.9954 61.0181 60.8506 61.0181C60.7239 61.0181 60.6154 60.9819 60.5249 60.8914C60.4344 60.8009 60.3982 60.6923 60.3982 60.5656V56.1131C60.3982 55.3168 60.181 54.6833 59.7647 54.1765C59.3484 53.6697 58.8054 53.4163 58.1538 53.4163C57.4298 53.4163 56.8506 53.6516 56.4163 54.1222C55.9819 54.5928 55.7647 55.2263 55.7828 56.0045V56.1131V60.5656C55.7828 60.6923 55.7466 60.8009 55.6561 60.8914C55.5656 60.9819 55.457 61.0181 55.3122 61.0181C55.1855 61.0181 55.0769 60.9819 54.9864 60.8914C54.8959 60.8009 54.8597 60.6923 54.8597 60.5656V56.1131C54.8597 55.3168 54.6425 54.6833 54.2262 54.1765C53.8099 53.6697 53.2669 53.4163 52.6154 53.4163C51.9095 53.4163 51.3303 53.6335 50.8778 54.086C50.4253 54.5385 50.2081 55.1177 50.2081 55.8416V60.5475C50.2081 60.6742 50.1719 60.7828 50.0814 60.8733C49.9909 60.9638 49.8823 61 49.7375 61C49.6108 61 49.5022 60.9638 49.4117 60.8733C49.3212 60.7828 49.285 60.6742 49.285 60.5475V53.0724C49.285 52.9276 49.3212 52.819 49.4117 52.7285C49.5022 52.638 49.6108 52.6018 49.7375 52.6018C49.8823 52.6018 49.9909 52.638 50.0814 52.7285C50.1719 52.819 50.2081 52.9276 50.2081 53.0724V53.6697C50.4977 53.3077 50.8416 53.0181 51.276 52.8009C51.6923 52.6018 52.1448 52.4932 52.6335 52.4932C53.2307 52.4932 53.7556 52.638 54.2262 52.9276C54.6968 53.2172 55.0769 53.6154 55.3484 54.1403C55.6199 53.6335 56.0181 53.2172 56.5068 52.9276C56.9954 52.638 57.5384 52.4932 58.1538 52.4932ZM66.5158 61.1086C67.3122 61.1086 68.0362 60.9276 68.7059 60.5475C69.3574 60.1674 69.8823 59.6606 70.2443 59.0091C70.6244 58.3575 70.8054 57.6154 70.8054 56.819C70.8054 56.0045 70.6244 55.2806 70.2443 54.6109C69.8642 53.9593 69.3574 53.4344 68.7059 53.0724C68.0543 52.6923 67.3122 52.5113 66.5158 52.5113C65.7013 52.5113 64.9773 52.6923 64.3077 53.0724C63.6561 53.4525 63.1312 53.9593 62.7692 54.6109C62.3891 55.2625 62.2081 56.0045 62.2081 56.819C62.2081 57.6154 62.3891 58.3575 62.7692 59.0091C63.1493 59.6606 63.6561 60.1855 64.3077 60.5475C64.9773 60.9276 65.7013 61.1086 66.5158 61.1086ZM66.5158 60.2579C65.8823 60.2579 65.3031 60.1131 64.7963 59.8054C64.2896 59.5159 63.8733 59.0996 63.5837 58.5747C63.2941 58.0498 63.1312 57.4706 63.1312 56.819C63.1312 56.1674 63.276 55.5882 63.5837 55.0634C63.8914 54.5385 64.2896 54.1222 64.7963 53.8326C65.3031 53.5249 65.8823 53.3801 66.5158 53.3801C67.1493 53.3801 67.7285 53.5249 68.2353 53.8326C68.742 54.1403 69.1583 54.5566 69.4479 55.0634C69.7375 55.5882 69.8823 56.1674 69.8823 56.819C69.8823 57.4706 69.7375 58.0498 69.4479 58.5747C69.1583 59.0996 68.7601 59.5159 68.2353 59.8054C67.7285 60.1131 67.1493 60.2579 66.5158 60.2579ZM75.6923 52.4932C75.095 52.4932 74.552 52.6199 74.0452 52.8552C73.5384 53.0905 73.1221 53.4344 72.7601 53.8688V53.0724C72.7601 52.9276 72.7239 52.819 72.6334 52.7285C72.543 52.638 72.4344 52.6018 72.2896 52.6018C72.1629 52.6018 72.0543 52.638 71.9638 52.7285C71.8733 52.819 71.8371 52.9276 71.8371 53.0724V60.5656C71.8371 60.6923 71.8733 60.8009 71.9638 60.8914C72.0543 60.9819 72.1629 61.0181 72.2896 61.0181C72.4344 61.0181 72.543 60.9819 72.6334 60.8914C72.7239 60.8009 72.7601 60.6923 72.7601 60.5656V55.8597C72.7601 55.4073 72.8868 54.991 73.1402 54.629C73.3936 54.2489 73.7556 53.9593 74.19 53.7602C74.6244 53.5611 75.1312 53.4525 75.6742 53.4525C76.5611 53.4525 77.2669 53.7059 77.828 54.2308C78.3891 54.7557 78.6606 55.4797 78.6606 56.457V60.6018C78.6606 60.7285 78.6968 60.8371 78.7873 60.9276C78.8778 61.0181 78.9864 61.0543 79.1131 61.0543C79.2398 61.0543 79.3484 61.0181 79.4389 60.9276C79.5294 60.8371 79.5656 60.7285 79.5656 60.6018V56.4208C79.5656 55.6063 79.4027 54.9005 79.0588 54.3032C78.733 53.7059 78.2624 53.2715 77.6651 52.9638C77.0678 52.6561 76.4344 52.4932 75.6923 52.4932ZM84.4163 52.5294C83.638 52.5294 82.9683 52.7104 82.3529 53.0724C81.7556 53.4344 81.285 53.9412 80.9592 54.5928C80.6334 55.2444 80.4525 55.9864 80.4525 56.819C80.4525 57.6335 80.6335 58.3756 80.9954 59.0272C81.3574 59.6787 81.8461 60.1855 82.4796 60.5475C83.1131 60.9095 83.8371 61.0905 84.6515 61.0905C85.1402 61.0905 85.647 61 86.1719 60.8009C86.6968 60.6018 87.1312 60.3665 87.457 60.0588C87.5475 59.9683 87.6018 59.8778 87.6018 59.7692C87.6018 59.6425 87.5475 59.5339 87.4389 59.4435C87.3665 59.3892 87.276 59.353 87.1674 59.353C87.0588 59.353 86.9502 59.3892 86.8416 59.4797C86.6063 59.6968 86.2805 59.8959 85.8823 60.0226C85.4841 60.1493 85.0678 60.2217 84.6696 60.2217C84.0724 60.2217 83.5294 60.095 83.0588 59.8235C82.5701 59.552 82.19 59.1901 81.9004 58.7014C81.6108 58.2308 81.4479 57.6878 81.4298 57.0724H87.8733C88 57.0724 88.1086 57.0362 88.1991 56.9638C88.2896 56.8914 88.3258 56.7828 88.3258 56.6561C88.3258 55.8597 88.1629 55.1358 87.8371 54.5204C87.5113 53.8869 87.0407 53.3982 86.4615 53.0543C85.828 52.7104 85.1583 52.5294 84.4163 52.5294ZM84.4163 53.3801C85.2488 53.3801 85.9366 53.6516 86.4796 54.1765C87.0226 54.7014 87.3303 55.4073 87.4027 56.2941H81.4117C81.5203 55.4254 81.8461 54.7195 82.3891 54.1765C82.9321 53.6516 83.6199 53.3801 84.4163 53.3801ZM88.2896 62.7195C88.3077 62.7919 88.2896 62.7738 88.362 62.81C88.5611 62.9367 88.923 63.0091 89.1402 63.0634C89.3574 63.1177 89.9728 63.1358 90.2443 63.1177C91.0045 63.0453 91.5837 62.5747 92 61.9593L92.3258 61.3982C92.4706 61.1629 92.6516 60.6742 92.7601 60.4027L93.6289 58.3575C93.7556 58.0679 93.8642 57.8326 93.9728 57.5249L95.1855 54.629C95.2036 54.5747 95.2398 54.5204 95.276 54.4299C95.3303 54.3394 95.3303 54.3032 95.3484 54.2308L95.8009 53.1629C95.8009 53.1629 95.8009 53.1448 95.819 53.1448C95.819 53.1448 95.819 53.1267 95.8371 53.1267L95.8914 53C95.9457 52.8733 96.0181 52.7647 96.0362 52.5837H95.1312L94.5158 54.1403C94.4977 54.2127 94.4615 54.267 94.4253 54.3394L92.8506 58.2851C92.7963 58.448 92.3982 59.4978 92.3077 59.552L91.8733 58.6652C91.7647 58.3756 91.6018 58.086 91.4751 57.7964L91.276 57.3439C91.2036 57.1991 91.1493 57.0543 91.0769 56.9095C91.0407 56.8371 91.0045 56.7647 90.9683 56.6923C90.8054 56.3303 90.6244 55.9864 90.4615 55.6063L89.1945 52.9819C89.1583 52.9276 89.1221 52.8371 89.0859 52.7828C89.0678 52.7466 89.0497 52.7104 89.0497 52.6742L89.0135 52.6199L88.0724 52.5837C88.0905 52.8009 88.1991 52.9457 88.2896 53.1267L90.4072 57.5068C90.4072 57.5249 90.4253 57.543 90.4253 57.543C90.4796 57.6878 90.5882 57.8869 90.6606 58.0498C90.733 58.1946 90.8416 58.3756 90.8959 58.5204C90.9683 58.7014 91.0407 58.8643 91.1312 59.0272L91.8009 60.3846C91.8552 60.4751 91.8009 60.4208 91.8552 60.457C91.819 60.5656 91.6923 60.819 91.638 60.9276C91.4932 61.2172 91.3122 61.5249 91.095 61.7421C90.8416 61.9774 90.6244 62.1946 90.2624 62.267C90.0271 62.3032 89.5746 62.3213 89.3393 62.2489C89.1402 62.1946 88.6516 62.0136 88.5249 62.0136L88.3439 62.5023C88.3077 62.629 88.3077 62.629 88.2896 62.7195Z" fill="#009CFE"/>
</g>
</g>
<rect x="1" y="1" width="110" height="110" rx="9" stroke="black" stroke-opacity="0.1" stroke-width="2"/>
<defs>
<clipPath id="clip0_725_518">
<rect x="2" y="2" width="108" height="108" rx="8" fill="white"/>
</clipPath>
<clipPath id="clip1_725_518">
<rect width="80" height="14.1176" fill="white" transform="translate(16 49)"/>
</clipPath>
</defs>
</svg>
