<svg width="112" height="112" viewBox="0 0 112 112" fill="none" xmlns="http://www.w3.org/2000/svg">
<g clip-path="url(#clip0_725_298)">
<rect x="2" y="2" width="108" height="108" rx="8" fill="white"/>
<g clip-path="url(#clip1_725_298)">
<path d="M53.2121 35.2144H73.4879C76.4167 35.2144 78.316 37.5953 78.316 40.2661V83.0709C78.316 86.9015 75.8049 89.2504 73.4879 90.022L56.4947 95.7519C56.4947 95.7519 51.3128 91.2136 49.5117 84.6803C49.5117 84.6803 51.7108 87.6238 55.2883 87.6238C59.5366 87.6238 63.205 84.3658 63.205 80.3091C63.205 76.2525 63.2296 56.7507 63.2296 48.544C63.2296 40.3374 55.9886 35.7992 53.2121 35.2119V35.2144Z" fill="url(#paint0_linear_725_298)"/>
<path d="M55.4552 96C55.4552 96 47.9317 89.0882 47.9317 80.5917V48.3769C47.9317 43.2932 53.5952 41.8116 55.5904 41.8116C57.5855 41.8116 60.0966 43.0352 61.738 44.9665C61.738 44.9665 60.2908 39.6248 55.6223 37.3397C50.9563 35.0546 47.7695 35.2168 46.0643 35.2168C44.3591 35.2168 40.3344 35.2168 38.0518 35.2168C35.7691 35.2168 33 36.6616 33 40.556V84.1004C33 88.0096 36.8453 89.5551 38.4867 90.1349C40.128 90.7148 55.4552 96 55.4552 96Z" fill="url(#paint1_linear_725_298)"/>
<path d="M63.2515 23.6587C63.2515 27.8898 59.8214 31.3174 55.5928 31.3174C51.3642 31.3174 47.9341 27.8873 47.9341 23.6587C47.9341 19.4301 51.3617 16 55.5928 16C59.8239 16 63.2515 19.4301 63.2515 23.6587Z" fill="url(#paint2_linear_725_298)"/>
</g>
</g>
<rect x="1" y="1" width="110" height="110" rx="9" stroke="black" stroke-opacity="0.1" stroke-width="2"/>
<defs>
<linearGradient id="paint0_linear_725_298" x1="63.9126" y1="35.5362" x2="63.9126" y2="94.8182" gradientUnits="userSpaceOnUse">
<stop stop-color="#00B0C3"/>
<stop offset="1" stop-color="#3151B0"/>
</linearGradient>
<linearGradient id="paint1_linear_725_298" x1="47.369" y1="35.5362" x2="47.369" y2="96.3243" gradientUnits="userSpaceOnUse">
<stop stop-color="#3151B0"/>
<stop offset="1" stop-color="#00B0C3"/>
</linearGradient>
<linearGradient id="paint2_linear_725_298" x1="55.5928" y1="16.516" x2="55.5928" y2="31.6884" gradientUnits="userSpaceOnUse">
<stop stop-color="#FABE40"/>
<stop offset="1" stop-color="#F07728"/>
</linearGradient>
<clipPath id="clip0_725_298">
<rect x="2" y="2" width="108" height="108" rx="8" fill="white"/>
</clipPath>
<clipPath id="clip1_725_298">
<rect width="45.3134" height="80" fill="white" transform="translate(33 16)"/>
</clipPath>
</defs>
</svg>
