<svg width="112" height="112" viewBox="0 0 112 112" fill="none" xmlns="http://www.w3.org/2000/svg">
<g clip-path="url(#clip0_725_574)">
<rect x="2" y="2" width="108" height="108" rx="8" fill="white"/>
<path d="M18.8158 50.9135C18.8158 50.5374 19.1382 50.1505 19.74 50.1505V50.1612H22.9642C23.4263 50.1612 23.8132 50.4944 23.8562 50.892V56.4268C23.8766 58.5099 22.3933 59.9235 20.1436 60.0594H19.4741C17.5507 59.9251 16 58.5466 16 56.7708C16 56.2764 16.4621 55.911 16.892 55.911C17.3541 55.911 17.7518 56.1582 17.7948 56.7278C17.8485 57.8132 18.6438 58.5333 19.783 58.5333C21.1909 58.5333 22.1474 57.6843 22.1474 56.4161V51.6873H19.74C19.1382 51.6873 18.8158 51.2897 18.8158 50.9135Z" fill="url(#paint0_linear_725_574)"/>
<path fill-rule="evenodd" clip-rule="evenodd" d="M28.0691 51.9668C25.9224 51.9668 24.4466 53.4641 24.3076 55.6542V56.382C24.4324 58.5188 25.6359 59.9342 27.5565 60.0702H28.1456C28.8464 60.0173 29.6372 59.768 30.2615 59.2856C30.326 59.6725 30.6162 59.9304 31.1213 59.9304C31.6264 59.9304 31.9918 59.608 31.9918 59.1351V52.9125C31.9918 52.4396 31.6372 52.1172 31.1213 52.1172C30.6269 52.1172 30.3367 52.3644 30.2615 52.7298C29.5844 52.2032 28.7247 51.9668 28.0691 51.9668ZM28.1981 53.5144C26.9084 53.5144 26.0486 54.5568 26.0486 56.0077V56.0185C26.0486 57.5338 26.8439 58.5333 28.0583 58.5333C28.9611 58.5333 29.8961 58.1357 30.2508 57.3511V54.6965C29.8639 53.9442 28.9933 53.5144 28.1981 53.5144Z" fill="url(#paint1_linear_725_574)"/>
<path d="M33.9788 59.9089C33.5916 59.8533 33.2707 59.5828 33.2707 59.1351V50.7845C33.2707 50.2579 33.7113 50 34.1412 50C34.5711 50 35.0118 50.2687 35.0118 50.7845V55.0189L37.849 52.3644C38.0317 52.2032 38.3004 52.1172 38.4939 52.1172C38.9882 52.1172 39.3859 52.4826 39.3859 52.9017C39.3859 53.0952 39.2784 53.2994 39.0635 53.4928L36.6561 55.6208L39.3859 58.587C39.9017 59.2319 39.3644 59.9089 38.7518 59.9089C38.4939 59.9089 38.2359 59.7907 38.0532 59.5758L35.4631 56.6955L35.0225 57.0932V59.1351C35.0225 59.5828 34.6763 59.8533 34.2833 59.9089H33.9788Z" fill="url(#paint2_linear_725_574)"/>
<path fill-rule="evenodd" clip-rule="evenodd" d="M44.5231 60.0701C41.5139 60.0701 39.4934 58.0604 39.4934 55.0404C39.4934 52.0205 41.5783 50 44.5231 50C47.4678 50 49.456 51.9775 49.499 54.933V55.1479C49.456 58.1141 47.5323 60.0701 44.5231 60.0701ZM44.5123 51.5691C42.5886 51.5691 41.2989 52.9555 41.2989 55.0404C41.2989 57.1039 42.5993 58.501 44.5123 58.501C46.4253 58.501 47.6935 57.1147 47.6935 55.0404C47.6935 52.9662 46.4361 51.5691 44.5123 51.5691Z" fill="url(#paint3_linear_725_574)"/>
<path d="M52.1644 52.9467V52.8695C52.1644 52.3966 51.7238 52.1172 51.2939 52.1172C50.864 52.1172 50.4233 52.3966 50.4233 52.9018V59.1351C50.4233 59.6295 50.7887 59.9197 51.3261 59.9197C51.8635 59.9197 52.1644 59.6295 52.1644 59.1351V56.1152C52.1644 54.3204 53.755 53.4929 54.5503 53.4929C55.8507 53.4929 56.431 54.3526 56.431 55.6208V59.1136C56.431 59.5865 56.7857 59.9089 57.3016 59.9089C57.8497 59.9089 58.1721 59.5865 58.1721 59.1136V55.653C58.1721 53.5681 57.0447 52.1052 55.1041 51.9668H54.4884C53.7696 52.0173 52.9278 52.2583 52.1644 52.9467Z" fill="url(#paint4_linear_725_574)"/>
<path fill-rule="evenodd" clip-rule="evenodd" d="M58.9996 55.8224V56.5101C59.1443 58.6355 60.7357 60.0701 63.0298 60.0701C64.04 60.0916 65.0825 59.8444 65.8026 59.1459C66.6623 58.3291 65.5876 57.1684 64.6526 58.0174C64.1582 58.3936 63.5671 58.5548 62.9868 58.5548C61.9013 58.5548 61.0415 57.867 60.7621 56.8675H65.8671C66.7376 56.8675 66.8343 56.4483 66.8343 55.9432C66.8236 53.5681 65.4372 51.956 62.9868 51.956C60.6548 51.956 59.1404 53.5135 58.9996 55.8224ZM65.2115 55.5026C65.104 54.2989 64.4484 53.4821 63.0083 53.4821C61.8046 53.4821 60.9663 54.2881 60.7514 55.5026H65.2115Z" fill="url(#paint5_linear_725_574)"/>
<path fill-rule="evenodd" clip-rule="evenodd" d="M75.7 50.1505H72.2133C71.7214 50.1528 71.3266 50.4746 71.3266 50.9458V59.1459C71.3266 59.651 71.7565 59.9089 72.1971 59.9089C72.6378 59.9089 73.0891 59.6617 73.0891 59.1244V57.1899H75.2923C77.8717 57.1899 79.3655 55.8142 79.3655 53.74C79.3655 51.7669 78.0234 50.2897 75.7 50.1505ZM75.3568 51.6658H73.0891V55.6853H75.2923C76.7969 55.6853 77.6245 54.9222 77.6245 53.7508C77.6245 52.4934 76.8077 51.6658 75.3568 51.6658Z" fill="url(#paint6_linear_725_574)"/>
<path fill-rule="evenodd" clip-rule="evenodd" d="M82.9046 60.0702C80.874 59.9265 79.6449 58.3524 79.6449 56.0077L79.6342 55.997C79.6342 53.6218 81.1495 51.9668 83.4065 51.9668C84.062 51.9668 84.9218 52.2032 85.5989 52.7298C85.6741 52.3644 85.9643 52.1172 86.4587 52.1172C86.9745 52.1172 87.3292 52.4396 87.3292 52.9125V59.1351C87.3292 59.608 86.9638 59.9304 86.4587 59.9304C85.9535 59.9304 85.6634 59.6725 85.5989 59.2856C84.984 59.768 84.1944 60.0173 83.4937 60.0702H82.9046ZM83.5354 53.5144C82.2458 53.5144 81.386 54.5568 81.386 56.0077V56.0185C81.386 57.5338 82.1813 58.5333 83.3957 58.5333C84.2985 58.5333 85.2335 58.1357 85.5881 57.3511V54.6965C85.2012 53.9442 84.3307 53.5144 83.5354 53.5144Z" fill="url(#paint7_linear_725_574)"/>
<path d="M90.7669 62.6709C91.0515 62.6032 91.3087 62.3803 91.4776 62.0691L95.9484 53.2886C96.1634 52.676 95.669 52.1387 95.1532 52.1387C94.7878 52.1387 94.4761 52.3536 94.3471 52.676V52.6545L91.9827 57.2866L89.6183 52.676C89.4679 52.3536 89.124 52.1279 88.8015 52.1279C88.2534 52.1279 87.7268 52.7298 88.0063 53.3424L91.0262 59.1781L89.8655 61.478C89.5885 62.0225 89.9483 62.5585 90.409 62.6709H90.7669Z" fill="url(#paint8_linear_725_574)"/>
</g>
<rect x="1" y="1" width="110" height="110" rx="9" stroke="black" stroke-opacity="0.1" stroke-width="2"/>
<defs>
<linearGradient id="paint0_linear_725_574" x1="94.0903" y1="-54277.1" x2="94.0903" y2="-54403.5" gradientUnits="userSpaceOnUse">
<stop stop-color="#D9672C"/>
<stop offset="0.40625" stop-color="#F99F57"/>
<stop offset="1" stop-color="#FCCDA2"/>
</linearGradient>
<linearGradient id="paint1_linear_725_574" x1="94.0903" y1="-54277.1" x2="94.0903" y2="-54403.5" gradientUnits="userSpaceOnUse">
<stop stop-color="#D9672C"/>
<stop offset="0.40625" stop-color="#F99F57"/>
<stop offset="1" stop-color="#FCCDA2"/>
</linearGradient>
<linearGradient id="paint2_linear_725_574" x1="94.0903" y1="-54277.1" x2="94.0903" y2="-54403.5" gradientUnits="userSpaceOnUse">
<stop stop-color="#D9672C"/>
<stop offset="0.40625" stop-color="#F99F57"/>
<stop offset="1" stop-color="#FCCDA2"/>
</linearGradient>
<linearGradient id="paint3_linear_725_574" x1="94.0903" y1="-54277.1" x2="94.0903" y2="-54403.5" gradientUnits="userSpaceOnUse">
<stop stop-color="#D9672C"/>
<stop offset="0.40625" stop-color="#F99F57"/>
<stop offset="1" stop-color="#FCCDA2"/>
</linearGradient>
<linearGradient id="paint4_linear_725_574" x1="94.0903" y1="-54277.1" x2="94.0903" y2="-54403.5" gradientUnits="userSpaceOnUse">
<stop stop-color="#D9672C"/>
<stop offset="0.40625" stop-color="#F99F57"/>
<stop offset="1" stop-color="#FCCDA2"/>
</linearGradient>
<linearGradient id="paint5_linear_725_574" x1="94.0903" y1="-54277.1" x2="94.0903" y2="-54403.5" gradientUnits="userSpaceOnUse">
<stop stop-color="#D9672C"/>
<stop offset="0.40625" stop-color="#F99F57"/>
<stop offset="1" stop-color="#FCCDA2"/>
</linearGradient>
<linearGradient id="paint6_linear_725_574" x1="94.0903" y1="-54277.1" x2="94.0903" y2="-54403.5" gradientUnits="userSpaceOnUse">
<stop stop-color="#D9672C"/>
<stop offset="0.40625" stop-color="#F99F57"/>
<stop offset="1" stop-color="#FCCDA2"/>
</linearGradient>
<linearGradient id="paint7_linear_725_574" x1="94.0903" y1="-54277.1" x2="94.0903" y2="-54403.5" gradientUnits="userSpaceOnUse">
<stop stop-color="#D9672C"/>
<stop offset="0.40625" stop-color="#F99F57"/>
<stop offset="1" stop-color="#FCCDA2"/>
</linearGradient>
<linearGradient id="paint8_linear_725_574" x1="94.0903" y1="-54277.1" x2="94.0903" y2="-54403.5" gradientUnits="userSpaceOnUse">
<stop stop-color="#D9672C"/>
<stop offset="0.40625" stop-color="#F99F57"/>
<stop offset="1" stop-color="#FCCDA2"/>
</linearGradient>
<clipPath id="clip0_725_574">
<rect x="2" y="2" width="108" height="108" rx="8" fill="white"/>
</clipPath>
</defs>
</svg>
