<svg width="112" height="112" viewBox="0 0 112 112" fill="none" xmlns="http://www.w3.org/2000/svg">
<g clip-path="url(#clip0_725_471)">
<rect x="2" y="2" width="108" height="108" rx="8" fill="white"/>
<g clip-path="url(#clip1_725_471)">
<path d="M96 64.4289C95.9866 64.5086 95.9637 64.588 95.9613 64.668C95.9199 65.962 95.4822 67.119 94.7192 68.1503C93.6807 69.5541 92.2888 70.4097 90.5696 70.7153C90.2001 70.781 89.8187 70.805 89.4426 70.8052C82.0571 70.8103 74.6715 70.809 67.286 70.809H67.0868V65.5628C68.0524 65.5615 69.0111 65.5621 69.9923 65.5623V67.8626C70.0929 67.8664 70.1723 67.8721 70.2516 67.8723C72.0083 67.8729 73.765 67.8727 75.5216 67.8727C79.9793 67.8727 84.4372 67.8715 88.8949 67.874C89.4874 67.8744 90.0657 67.798 90.607 67.5531C91.9772 66.9332 92.7976 65.883 93.0287 64.3894C93.0593 64.1915 93.0673 63.9884 93.0673 63.7876C93.0693 58.5311 93.0618 53.2745 93.0725 48.0179C93.0765 46.101 91.7719 44.5256 90.0795 44.0819C89.6807 43.9773 89.2754 43.9448 88.8643 43.945C84.5576 43.9467 80.2509 43.9462 75.9444 43.9462C74.0492 43.9462 72.154 43.9462 70.2588 43.9462H69.9978V46.2418H67.0861V41.0149C67.1773 41.0098 67.263 41.0009 67.3486 41.0009C69.1997 41.0002 71.0509 41.0004 72.9018 41.0004C78.3797 41.0004 83.8574 41.0006 89.3353 41.0002C90.1608 41.0002 90.9708 41.1073 91.739 41.4154C94.0107 42.3263 95.4013 43.9815 95.8849 46.3858C95.928 46.6003 95.9327 46.8224 95.9567 47.0409C95.9696 47.1584 95.9856 47.2756 96.0004 47.393V64.4291L96 64.4289Z" fill="#961A8B"/>
<path d="M53.2768 49.5884C52.5945 50.2537 51.9376 50.8942 51.2718 51.5434C51.2289 51.5118 51.1877 51.4861 51.1516 51.4545C50.55 50.929 49.8417 50.6419 49.0598 50.5243C48.6297 50.4597 48.1958 50.4329 47.7609 50.4501C47.3432 50.4665 46.9343 50.5338 46.551 50.7103C45.806 51.0537 45.4042 51.6388 45.3802 52.4571C45.3643 52.9969 45.5682 53.4531 46.0171 53.7795C46.3971 54.0558 46.8282 54.2074 47.288 54.2763C48.0718 54.3939 48.8574 54.4984 49.641 54.6165C50.2089 54.7021 50.7626 54.845 51.2907 55.0754C52.39 55.5549 53.1214 56.3649 53.4531 57.5198C53.7218 58.4553 53.7708 59.4059 53.5478 60.3561C53.2637 61.5661 52.5484 62.4672 51.4978 63.112C50.7687 63.5595 49.9715 63.829 49.1314 63.9573C47.6651 64.1815 46.2074 64.1148 44.7684 63.7474C43.8341 63.5089 42.9944 63.077 42.2469 62.4672C42.2042 62.4322 42.1579 62.4016 42.0799 62.3878C42.2792 62.9395 42.4786 63.4911 42.678 64.043C42.5348 64.0889 39.8216 64.1072 39.3983 64.0666C39.3777 64.0106 39.3524 63.9477 39.331 63.8835C39.0562 63.0604 38.7818 62.2374 38.5074 61.4143C38.4915 61.3665 38.476 61.3187 38.4599 61.271C38.4393 61.2098 38.3972 61.1801 38.3318 61.1818C38.2815 61.1832 38.2311 61.1809 38.1808 61.1809C36.4117 61.1809 34.6423 61.1809 32.8732 61.1809C32.8481 61.1809 32.8228 61.1807 32.7976 61.1809C32.6166 61.183 32.6152 61.1826 32.5578 61.3508C32.3563 61.9397 32.1562 62.5292 31.9553 63.1182C31.8479 63.4329 31.74 63.7474 31.6297 64.0702C31.5597 64.0738 31.4985 64.0796 31.4371 64.0796C29.3468 64.0802 27.2564 64.0779 25.1662 64.0842C25.0156 64.0845 24.9438 64.0307 24.8748 63.908C23.5749 61.5929 22.2713 59.2797 20.9682 56.9662C20.9103 56.8634 20.851 56.7617 20.7835 56.6444C20.7363 56.6882 20.7024 56.7136 20.676 56.7449C20.03 57.5177 19.3861 58.2922 18.7379 59.0629C18.6659 59.1485 18.6532 59.2375 18.6534 59.3409C18.6549 60.8392 18.6544 62.3373 18.6544 63.8356C18.6544 63.9097 18.6544 63.9836 18.6544 64.0683H16.0374C16.0312 64.0605 16.027 64.0558 16.0234 64.0507C16.0198 64.0456 16.0144 64.0407 16.0134 64.035C16.0083 64.004 16.0006 63.973 16.0006 63.942C16 58.5908 16 53.2399 16 47.8892C16 47.8581 16.0045 47.8267 16.0091 47.7957C16.0108 47.7838 16.0189 47.773 16.0291 47.7503H18.6506C18.6519 48.0111 18.6536 48.2727 18.6544 48.5343C18.6549 48.7924 18.6544 49.0504 18.6544 49.3086V54.7968C18.6678 54.8027 18.681 54.8083 18.6944 54.8142C18.7381 54.7658 18.7842 54.7195 18.8252 54.6689C19.7354 53.5429 20.645 52.4165 21.5546 51.2901C22.4721 50.1539 23.3908 49.0186 24.305 47.88C24.3876 47.7772 24.472 47.7354 24.6053 47.7362C25.7511 47.7414 26.897 47.7392 28.043 47.7392H28.2082C28.215 47.7528 28.2188 47.7581 28.2203 47.7639C28.2218 47.7694 28.2218 47.7758 28.2207 47.7815C28.2195 47.7876 28.2174 47.7938 28.2142 47.7991C28.2076 47.8097 28.2004 47.8201 28.1927 47.8299C28.181 47.8448 28.1689 47.8592 28.1568 47.8737C26.4103 49.9746 24.6637 52.0754 22.9174 54.1764C22.9095 54.1858 22.9036 54.1972 22.8976 54.2081C22.8945 54.2134 22.8936 54.2198 22.8917 54.2259C22.965 54.4262 28.3509 63.5629 28.473 63.6788C30.4018 58.3638 32.3267 53.0594 34.2536 47.7496H36.7445C38.4467 52.4218 40.1484 57.0927 41.8623 61.7976C42.5009 61.1694 43.1134 60.5667 43.7305 59.9598C43.763 59.9819 43.791 59.9963 43.8129 60.0167C44.518 60.6735 45.3654 61.0288 46.3036 61.1886C46.9957 61.3066 47.6921 61.3385 48.3912 61.2627C48.7873 61.2198 49.1726 61.1325 49.5351 60.9611C50.3 60.5996 50.6587 59.929 50.5727 59.0655C50.5591 58.9283 50.5381 58.7902 50.502 58.6575C50.3595 58.1332 50.0159 57.7878 49.5202 57.5857C49.215 57.4614 48.8928 57.4049 48.5686 57.3584C47.7781 57.245 46.9855 57.1433 46.1974 57.0139C45.555 56.9082 44.9393 56.7075 44.3644 56.3944C43.3542 55.844 42.7228 55.0053 42.4701 53.8859C42.2569 52.9411 42.2664 51.9971 42.5625 51.0709C42.99 49.734 43.8955 48.8298 45.1663 48.2752C45.8474 47.9779 46.5644 47.824 47.3045 47.7696C48.3409 47.6936 49.3669 47.7543 50.378 48.0034C51.4199 48.26 52.3337 48.7573 53.128 49.4771C53.1696 49.5149 53.218 49.5454 53.276 49.5888L53.2768 49.5884ZM37.5566 58.5005C37.528 58.2725 35.6521 52.7077 35.5576 52.5815C34.8733 54.556 34.1935 56.5176 33.5063 58.5005H37.5568H37.5566Z" fill="#961A8B"/>
<path d="M78.4463 64.0687H75.0592C75.0318 64.0146 74.9987 63.9551 74.9707 63.8935C74.0449 61.8478 73.1198 59.802 72.1943 57.7562C72.1761 57.7161 72.155 57.6772 72.1385 57.6364C72.1147 57.5772 72.0748 57.5476 72.0091 57.5479C71.3419 57.5515 70.6748 57.554 70.0079 57.5572C70.0024 57.5572 69.9969 57.5623 69.9631 57.5795C69.9487 57.7993 69.9591 58.0361 69.9572 58.2721C69.9553 58.5114 69.9568 58.7505 69.9568 58.9897V64.0431C69.8045 64.0883 67.4705 64.1053 67.0625 64.069C67.0213 63.939 67.0039 48.0831 67.0466 47.752C67.0976 47.748 67.152 47.7399 67.2065 47.7399C69.1455 47.7394 71.0847 47.7369 73.0238 47.7409C73.7691 47.7424 74.4873 47.8873 75.1643 48.2063C76.1739 48.6822 76.91 49.4357 77.3607 50.4515C77.9233 51.7197 78.0099 53.0313 77.592 54.3559C77.2139 55.5543 76.4263 56.4085 75.2882 56.9399C75.2266 56.9687 75.1652 56.9978 75.0802 57.0377C76.2007 59.3783 77.3157 61.707 78.4465 64.069L78.4463 64.0687ZM69.9695 54.9032C70.0547 54.907 70.1283 54.913 70.2018 54.913C71.0076 54.9138 71.8133 54.9155 72.6191 54.9119C72.7949 54.9111 72.9727 54.9053 73.1457 54.8769C73.9372 54.7479 74.4971 54.3207 74.7731 53.5584C74.9611 53.0392 74.9581 52.5091 74.7982 51.9822C74.7075 51.6832 74.5533 51.4177 74.3348 51.1916C73.9166 50.7588 73.3921 50.5721 72.8049 50.5648C71.9174 50.5536 71.0297 50.5615 70.142 50.5625C70.0874 50.5625 70.0328 50.5716 69.9695 50.5772V54.903V54.9032Z" fill="#961A8B"/>
<path d="M57.7312 57.9193C57.7303 58.3489 57.729 58.7558 57.7286 59.1627C57.7282 59.5718 57.7286 59.981 57.7286 60.3903V64.0463C57.5757 64.086 55.0555 64.0957 54.8321 64.062C54.7902 63.912 54.7864 47.9289 54.8327 47.7392C54.8962 47.7392 54.9642 47.7392 55.0323 47.7392C56.9086 47.7392 58.7849 47.739 60.6612 47.7392C61.5847 47.7392 62.4613 47.9317 63.2643 48.4002C64.3 49.0046 64.992 49.8938 65.3534 51.0289C65.8261 52.514 65.7525 53.9771 65.0402 55.3732C64.3597 56.7073 63.2507 57.5033 61.7883 57.8089C61.3992 57.8902 61.0046 57.9214 60.6065 57.9202C59.7313 57.9174 58.8561 57.9193 57.9809 57.9193H57.7314H57.7312ZM57.7286 55.0589C57.8163 55.0638 57.8719 55.0697 57.9272 55.0699C58.7956 55.0705 59.6642 55.0722 60.5326 55.0684C60.6829 55.0678 60.8352 55.0555 60.9828 55.0279C61.7637 54.8815 62.3097 54.446 62.5713 53.688C62.7684 53.1171 62.765 52.5367 62.5713 51.9652C62.3456 51.2995 61.8924 50.8547 61.2124 50.6653C60.9909 50.6037 60.7549 50.5697 60.5249 50.5664C59.6691 50.5551 58.8132 50.5617 57.9573 50.5623C57.8902 50.5623 57.8231 50.5691 57.7284 50.574C57.7282 52.0716 57.7284 53.5531 57.7284 55.0587L57.7286 55.0589Z" fill="#961A8B"/>
<path d="M82.2251 63.4876C82.1477 63.4484 82.091 63.4242 82.0386 63.3929C80.6161 62.5422 79.7103 61.3285 79.4186 59.6785C79.2812 58.901 79.2368 58.1166 79.2338 57.3297C79.2296 56.2472 79.2251 55.1644 79.2423 54.0821C79.2552 53.2704 79.3306 52.4643 79.5243 51.67C80.013 49.6663 81.8377 48.1654 83.624 47.8484C84.7179 47.6544 85.8033 47.6738 86.8367 48.0985C88.5805 48.8149 89.7141 50.0821 90.1368 51.9444C90.2837 52.5911 90.3423 53.2494 90.3585 53.9101C90.3785 54.7152 90.3895 55.5209 90.3869 56.3263C90.3846 57.043 90.3583 57.7596 90.3421 58.5046C90.2498 58.4496 90.2326 58.3816 90.2035 58.3251C89.09 56.1818 87.9774 54.0379 86.8648 51.894C86.8242 51.8157 86.7849 51.7371 86.7431 51.6596C86.5455 51.293 86.1926 51.1214 85.7984 51.1992C85.4227 51.2735 85.1484 51.5921 85.1176 52.0017C85.0874 52.4031 85.0653 52.8053 85.0394 53.2071C84.9785 54.1488 84.9173 55.0904 84.8564 56.0319C84.8179 56.6284 84.7795 57.2246 84.7408 57.8211C84.7385 57.8562 84.7327 57.8912 84.7243 57.9605C84.6399 57.8817 84.5767 57.8237 84.5148 57.7646C83.704 56.9914 82.893 56.2182 82.0832 55.4441C81.9721 55.3379 81.8492 55.2551 81.7018 55.2083C81.1454 55.0316 80.4656 55.5163 80.631 56.2507C80.7705 56.8701 80.9056 57.4905 81.0436 58.1102C81.4272 59.8346 81.8113 61.5589 82.1945 63.2834C82.2076 63.3424 82.2127 63.4033 82.2251 63.4874V63.4876Z" fill="#961A8B"/>
<path d="M86.0134 52.1994C86.0555 52.2757 86.0771 52.3129 86.0969 52.3509C87.404 54.8677 88.7105 57.385 90.0202 59.9005C90.0767 60.009 90.0856 60.1059 90.0536 60.2218C89.5345 62.1034 87.9241 63.5956 85.9968 63.9717C85.7575 64.0184 85.5143 64.0452 85.275 64.081C85.2323 63.9077 85.9066 53.1116 86.0134 52.199V52.1994Z" fill="#961A8B"/>
<path d="M81.5383 56.1613C81.6232 56.2392 81.6835 56.2925 81.7417 56.348C82.6702 57.2338 83.5966 58.1221 84.5295 59.0034C84.6347 59.1028 84.6586 59.2018 84.6485 59.3352C84.5973 60.0186 84.5523 60.7026 84.5049 61.3861C84.4458 62.2392 84.3862 63.0921 84.3263 63.9453C84.3237 63.9817 84.3161 64.018 84.3068 64.0809C84.1394 64.0571 83.9799 64.0373 83.8215 64.011C83.679 63.9874 83.5384 63.9513 83.3957 63.9305C83.2776 63.9133 83.2279 63.8496 83.2043 63.7366C83.1219 63.3429 83.0315 62.951 82.9444 62.5584C82.4818 60.4726 82.0193 58.3869 81.5572 56.3008C81.5497 56.2668 81.5476 56.2316 81.5383 56.1611V56.1613Z" fill="#961A8B"/>
</g>
</g>
<rect x="1" y="1" width="110" height="110" rx="9" stroke="black" stroke-opacity="0.1" stroke-width="2"/>
<defs>
<clipPath id="clip0_725_471">
<rect x="2" y="2" width="108" height="108" rx="8" fill="white"/>
</clipPath>
<clipPath id="clip1_725_471">
<rect width="80" height="29.8092" fill="white" transform="translate(16 41)"/>
</clipPath>
</defs>
</svg>
