<svg width="112" height="112" viewBox="0 0 112 112" fill="none" xmlns="http://www.w3.org/2000/svg">
<g clip-path="url(#clip0_725_396)">
<rect x="1.99988" y="2" width="108" height="108" rx="8" fill="white"/>
<path fill-rule="evenodd" clip-rule="evenodd" d="M28.666 27.6251H32.9188C33.2427 27.6251 33.4914 27.9111 33.4452 28.2304L31.4701 41.8845C31.3941 42.41 31.8033 42.8806 32.336 42.8806H39.7966C40.0085 42.8806 40.1709 43.0682 40.1401 43.2769L39.5613 47.1986C39.5313 47.4023 39.3559 47.5536 39.1489 47.5536H30.7131C28.2038 47.5536 25.7973 45.5027 26.1514 43.0269L28.1389 28.0854C28.1739 27.822 28.3992 27.6251 28.666 27.6251Z" fill="#E82529"/>
<path fill-rule="evenodd" clip-rule="evenodd" d="M42.8473 33.0733L40.9005 46.9982C40.8697 47.219 41.0417 47.4162 41.2655 47.4162H45.3809C45.6736 47.4162 45.9216 47.2013 45.9622 46.9125L47.8899 33.214C47.931 32.8984 47.6845 32.6186 47.365 32.6186H43.3715C43.1072 32.6186 42.8837 32.8127 42.8473 33.0733Z" fill="#E82529"/>
<path fill-rule="evenodd" clip-rule="evenodd" d="M51.336 46.3485C50.0663 46.3029 49.4722 46.6995 48.7229 47.1449C48.9037 45.8894 50.3215 36.1058 50.4509 35.5048C50.5877 34.864 50.7121 33.7949 51.2774 33.2557C51.9401 32.6227 52.9658 32.2605 58.0692 32.2441C63.2786 32.2273 64.2878 35.9635 64.0113 38.3912C63.7757 40.4691 63.0005 45.6031 62.7817 47.0374C62.7484 47.2555 62.5614 47.416 62.341 47.416H58.317C58.0221 47.416 57.7955 47.157 57.8367 46.8663C58.0402 45.4319 58.586 41.6081 58.7711 40.4977C59.0008 39.1242 59.1847 37.6128 58.8169 37.0162C58.4491 36.4207 57.3458 35.9635 55.2317 36.3301L53.668 47.348C53.668 47.348 52.6619 46.3963 51.336 46.3485Z" fill="#E82529"/>
<path fill-rule="evenodd" clip-rule="evenodd" d="M68.3757 26.8341H72.8395C73.0056 26.8341 73.1334 26.9804 73.1107 27.1444L70.333 47.1968C70.3124 47.3456 70.1846 47.4565 70.0338 47.4565H65.6267C65.4434 47.4565 65.3025 47.2953 65.3278 47.1145L68.1045 27.0698C68.1232 26.9347 68.2388 26.8341 68.3757 26.8341Z" fill="#E82529"/>
<path fill-rule="evenodd" clip-rule="evenodd" d="M71.8297 38.916L76.8745 33.0285C77.0335 32.8431 77.266 32.7362 77.511 32.7362H81.9396C82.2593 32.7362 82.4277 33.1136 82.2138 33.35L77.0556 39.0548L81.771 49.1612C81.9439 49.532 81.6721 49.9563 81.262 49.9563H77.2591C77.05 49.9563 76.8602 49.8349 76.7729 49.6457L71.8297 38.916Z" fill="#E82529"/>
<path fill-rule="evenodd" clip-rule="evenodd" d="M48.7522 28.8479C48.3913 30.3652 47.0203 31.4942 45.5847 31.4942C44.1494 31.4942 43.0486 30.2643 43.4098 28.7473C43.7707 27.23 44.9591 26 46.6625 26C48.0977 26 49.1132 27.3306 48.7522 28.8479Z" fill="#E82529"/>
<path fill-rule="evenodd" clip-rule="evenodd" d="M53.2895 50.9657C52.9286 52.483 51.5575 53.612 50.122 53.612C48.6867 53.612 47.5858 52.3821 47.9471 50.8651C48.308 49.3478 49.4964 48.1178 51.1997 48.1178C52.635 48.1178 53.6505 49.4484 53.2895 50.9657Z" fill="#E82529"/>
<path fill-rule="evenodd" clip-rule="evenodd" d="M74.882 69.0974C74.5778 70.5966 73.1924 71.712 71.6833 71.7111C70.1738 71.7105 68.9555 70.4941 69.2597 68.9952C69.5639 67.4959 70.7523 66.2808 72.5432 66.2818C74.0523 66.2827 75.1862 67.5981 74.882 69.0974Z" fill="#E82529"/>
<path fill-rule="evenodd" clip-rule="evenodd" d="M36.8862 61.6299H34.1837C34.0833 61.6299 34.0145 61.5292 34.0512 61.436L36.4031 55.4868C36.448 55.3734 36.6157 55.3976 36.6266 55.5188L37.1552 61.3363C37.1696 61.4938 37.0452 61.6299 36.8862 61.6299ZM43.4333 69.1008L40.4175 51.112C40.2857 50.3255 39.6025 49.7493 38.8024 49.7493H35.7764C34.8535 49.7493 34.0157 50.2864 33.6336 51.1234L25.5097 69.1231C25.3919 69.3843 25.5845 69.6791 25.8716 69.6776L30.0926 69.653C30.3815 69.6515 30.6415 69.4788 30.7543 69.2141L32.1575 65.9246C32.1955 65.8348 32.2837 65.7767 32.3816 65.7767H37.49C37.6153 65.7767 37.7203 65.8714 37.7324 65.9957L38.0373 69.1085C38.0725 69.4707 38.3782 69.7471 38.7435 69.7471H42.8838C43.2282 69.7471 43.49 69.439 43.4333 69.1008Z" fill="#E82529"/>
<path fill-rule="evenodd" clip-rule="evenodd" d="M41.4197 72.3593L42.3946 75.3606C42.5698 75.8545 42.7019 75.9641 43.0444 75.8921C44.2759 75.6333 47.2514 74.7571 48.7073 72.7944C50.6051 70.2357 50.8653 65.7121 51.2004 63.413C51.4762 61.5193 52.0803 56.8578 52.2847 55.2734C52.3215 54.9883 52.0986 54.7364 51.81 54.7364H48.026C47.6915 54.7364 47.4088 54.9824 47.364 55.3125C47.0588 57.5504 45.9599 65.5978 45.7679 66.7132C45.5447 68.0112 45.5001 69.8807 43.5734 70.9967C42.6118 71.5533 42.1188 71.6595 41.7382 71.8365C41.5447 71.9266 41.3259 72.0232 41.4197 72.3593Z" fill="#E82529"/>
<path fill-rule="evenodd" clip-rule="evenodd" d="M62.2443 65.43C62.2443 65.43 60.2711 66.0987 59.3239 65.3906C58.3764 64.6827 58.2975 63.2275 58.8501 61.1431C59.4027 59.0583 60.7841 58.7045 61.376 58.6651C61.9681 58.6257 63.0811 58.9049 63.0811 58.9049L62.2443 65.43ZM67.7083 55.2749C66.4323 54.9568 64.287 54.258 60.8383 54.5099C57.6564 54.7422 54.0634 56.2089 53.3905 62.4684C52.7176 68.728 55.5891 69.9353 59.7166 70.1142C62.7414 70.2453 65.1155 69.416 66.1683 68.9634C66.5348 68.8059 66.7901 68.4683 66.8437 68.0742L68.3687 56.0225C68.4286 55.5442 68.1886 55.3945 67.7083 55.2749Z" fill="#E82529"/>
<path fill-rule="evenodd" clip-rule="evenodd" d="M70.6514 64.2864L71.7619 52.746C71.8018 52.3326 72.15 52.1639 72.5667 52.1639H76.3975C76.7544 52.1639 76.9055 52.4338 76.807 52.8758L74.4688 64.4317C74.4215 64.6554 74.2239 64.8153 73.9945 64.8153H71.1336C70.8478 64.8153 70.624 64.57 70.6514 64.2864Z" fill="#E82529"/>
<path fill-rule="evenodd" clip-rule="evenodd" d="M25.8227 85.5664C26.5813 85.9842 27.4674 86.1056 28.3108 85.9065C31.6704 85.1132 39.1051 82.9778 54.832 80.7123C74.5904 77.866 89.1788 77.8778 89.1788 77.8778L89.2171 77.8545C89.2171 77.8545 76.2869 76.084 55.0658 78.1495C33.8443 80.215 22 83.4611 22 83.4611L25.8227 85.5664Z" fill="#E82529"/>
</g>
<rect x="1" y="1" width="110" height="110" rx="9" stroke="black" stroke-opacity="0.1" stroke-width="2"/>
<defs>
<clipPath id="clip0_725_396">
<rect x="2" y="2" width="108" height="108" rx="8" fill="white"/>
</clipPath>
</defs>
</svg>
