<svg width="112" height="112" viewBox="0 0 112 112" fill="none" xmlns="http://www.w3.org/2000/svg">
<g clip-path="url(#clip0_725_443)">
<rect x="2" y="2" width="108" height="108" rx="8" fill="white"/>
<g clip-path="url(#clip1_725_443)">
<path d="M83.7434 42.0206V45.1222C83.6914 45.5267 83.7096 45.9356 83.6731 46.3404C83.5348 47.8772 83.2849 49.3957 82.8885 50.8884C81.2957 56.8879 78.0795 61.8414 73.2294 65.7063C68.5865 69.406 63.2681 71.3846 57.3427 71.7148C55.8296 71.7992 54.316 71.7508 52.8067 71.5809C50.8632 71.3623 48.957 70.9713 47.1097 70.3324C39.6733 67.7609 34.211 62.9372 30.743 55.879C29.1656 52.6688 28.322 49.252 28.0816 45.6857C27.9926 44.3635 28.0078 43.0418 28.1116 41.7195C28.2278 40.2345 28.4494 38.7669 28.8044 37.3208C30.079 32.1279 32.6146 27.6426 36.4539 23.9231C41.3146 19.2148 47.1456 16.6136 53.8913 16.0778C55.7035 15.9338 57.5147 15.9945 59.321 16.2159C61.2438 16.4513 63.1276 16.8621 64.9519 17.5114C72.178 20.0832 77.5242 24.8013 80.9549 31.6572C82.5627 34.8701 83.4717 38.288 83.6919 41.8813C83.6949 41.9313 83.6753 41.9931 83.7434 42.0206ZM61.161 44.7354V45.503C61.161 48.4051 61.161 51.3071 61.161 54.2091C61.161 54.3449 61.1613 54.4802 61.1844 54.6155C61.3211 55.4156 61.77 56.002 62.4686 56.3753C63.8109 57.0929 65.2004 57.1378 66.5736 56.489C67.5659 56.0203 68.085 55.2188 68.0796 54.0822C68.0651 51.1168 68.0741 48.1511 68.0749 45.1856C68.0755 43.7891 68.0755 42.3933 67.9682 40.9992C67.8855 39.9225 67.7602 38.8535 67.5258 37.798C67.2346 36.4867 66.6642 35.3218 65.7397 34.3382C64.8242 33.3641 63.7257 32.6547 62.5083 32.1247C60.2572 31.1446 57.8879 30.7921 55.4493 30.84C53.7636 30.8732 52.1098 31.1215 50.4995 31.6303C49.0523 32.0874 47.6991 32.7296 46.52 33.7009C45.1534 34.8271 44.2648 36.2324 43.9961 38.0079C43.8208 39.1679 43.7533 40.3347 43.7495 41.5039C43.7356 45.7663 43.7378 50.0287 43.734 54.291C43.734 54.4272 43.7413 54.5622 43.7699 54.6964C43.9215 55.4102 44.3217 55.9481 44.9307 56.3369C45.4618 56.6761 46.0504 56.847 46.6725 56.9034C47.5888 56.9867 48.4676 56.8473 49.2674 56.3753C50.1121 55.8771 50.554 55.1478 50.5553 54.1391C50.5605 50.2034 50.5096 46.2678 50.588 42.3326C50.5989 41.7895 50.5662 41.2448 50.6408 40.703C50.9318 38.5891 52.6594 36.9993 54.7902 36.8879C57.1793 36.763 59.2524 38.6104 59.4089 41.0033C59.5586 43.2933 57.9625 45.2983 55.6905 45.6756C55.6352 45.6849 55.5639 45.6705 55.5367 45.7579C56.6313 46.106 57.7396 46.2081 58.8661 45.9746C59.7111 45.7995 60.4641 45.4445 61.042 44.7778C61.0638 44.7528 61.0832 44.7171 61.1602 44.7351L61.161 44.7354Z" fill="#009AD9"/>
<path d="M83.7433 83.2671C83.5911 83.5336 83.3483 83.5992 83.0603 83.5984C81.3828 83.594 79.705 83.5959 78.0275 83.597C77.9287 83.597 77.8282 83.5812 77.7313 83.6128C77.7101 84.5109 78.3558 85.3948 79.2692 85.6516C80.2609 85.93 81.1895 85.7999 82.0016 85.1147C82.1606 84.9805 82.2967 84.8185 82.4821 84.7167C82.7363 84.577 82.9892 84.5888 83.2274 84.7466C83.4504 84.8945 83.5405 85.1163 83.5225 85.3799C83.5095 85.5704 83.4036 85.7188 83.2811 85.8555C83.0186 86.1489 82.7129 86.3909 82.3653 86.5731C81.0746 87.2496 79.7341 87.337 78.3694 86.8461C77.5086 86.5363 76.8517 85.9551 76.4464 85.1332C75.7769 83.7767 75.7304 82.3837 76.4006 81.0225C77.0682 79.6668 78.2132 78.9688 79.714 78.8552C80.1866 78.8196 80.6556 78.8544 81.1119 78.999C82.4053 79.409 83.1727 80.3196 83.5781 81.5787C83.6698 81.8634 83.6851 82.161 83.7433 82.4509V83.2671ZM77.7792 82.201C77.8301 82.2048 77.8835 82.2124 77.9368 82.2127C79.2765 82.2135 80.6162 82.2138 81.9556 82.2127C82.1938 82.2127 82.2087 82.1964 82.1497 81.9666C81.9771 81.2961 81.6199 80.7606 80.9905 80.4385C79.9598 79.9112 78.2989 80.2306 77.8184 81.8781C77.7893 81.9778 77.7297 82.0801 77.7792 82.201Z" fill="#232323"/>
<path d="M45.4852 96C45.4493 95.9096 45.3575 95.9178 45.2873 95.8908C45.0535 95.8012 44.8553 95.6621 44.6968 95.4689C44.5779 95.3238 44.5749 95.1561 44.6821 95.0523C44.7967 94.9415 44.9538 94.9418 45.1008 95.0572C45.1506 95.0962 45.1934 95.1438 45.2405 95.1865C45.6311 95.5413 46.551 95.4792 46.6991 94.7055C46.7301 94.5435 46.7405 94.3845 46.7394 94.17C46.3806 94.5626 45.9603 94.666 45.4907 94.5792C45.1574 94.5177 44.8855 94.3432 44.6731 94.0796C44.2308 93.5311 44.273 92.609 44.7622 92.1005C45.2859 91.5558 46.0286 91.5321 46.7198 92.0395C46.7372 91.9889 46.7492 91.9366 46.7721 91.8901C46.8456 91.7414 46.9528 91.6815 47.0979 91.702C47.2327 91.721 47.3394 91.8261 47.3683 91.9706C47.3734 91.9971 47.3742 92.0248 47.374 92.0518C47.3644 92.8856 47.4012 93.72 47.341 94.5533C47.3258 94.7627 47.2741 94.9639 47.1932 95.1574C47.0372 95.5312 46.7696 95.7806 46.3795 95.9006C46.2976 95.9259 46.1971 95.9156 46.1383 95.9997H45.4852V96ZM46.7318 93.1208C46.7271 92.6224 46.3689 92.2766 45.862 92.2815C45.3717 92.2862 45.0061 92.6605 45.0129 93.1505C45.0197 93.6443 45.3886 94.0007 45.8846 93.9931C46.3716 93.9857 46.7364 93.61 46.732 93.1208H46.7318Z" fill="#232323"/>
<path d="M61.161 44.7353C61.0839 44.7174 61.0646 44.753 61.0428 44.7781C60.4649 45.445 59.7119 45.7998 58.8669 45.9748C57.7404 46.2081 56.6324 46.1063 55.5374 45.7581C55.5647 45.6707 55.636 45.6851 55.6913 45.6759C57.9633 45.2986 59.5594 43.2936 59.4097 41.0035C59.2532 38.6106 57.1798 36.7632 54.791 36.8882C52.6599 36.9995 50.9326 38.5894 50.6416 40.7033C50.567 41.245 50.5997 41.7898 50.5888 42.3329C50.5104 46.268 50.5613 50.204 50.5561 54.1394C50.5547 55.1483 50.1126 55.8773 49.2682 56.3755C48.4683 56.8473 47.5896 56.9869 46.6732 56.9036C46.0512 56.847 45.4626 56.676 44.9315 56.3371C44.3225 55.9484 43.9223 55.4104 43.7707 54.6966C43.7421 54.5621 43.7345 54.4274 43.7347 54.2913C43.7386 50.0289 43.7364 45.7665 43.7503 41.5042C43.7541 40.3349 43.8216 39.1679 43.9969 38.0081C44.2653 36.2329 45.1542 34.8274 46.5208 33.7011C47.6998 32.7295 49.0531 32.0876 50.5003 31.6305C52.1106 31.1217 53.7647 30.8734 55.4501 30.8402C57.8887 30.792 60.2577 31.1449 62.5091 32.1249C63.7265 32.6549 64.825 33.3644 65.7405 34.3384C66.665 35.322 67.2353 36.4872 67.5266 37.7983C67.761 38.8537 67.8862 39.9228 67.969 40.9995C68.0763 42.3936 68.076 43.7896 68.0757 45.1859C68.0749 48.1513 68.0659 51.117 68.0803 54.0825C68.0858 55.2188 67.5666 56.0205 66.5743 56.4893C65.2009 57.138 63.8114 57.0931 62.4693 56.3755C61.7711 56.0023 61.3219 55.4159 61.1852 54.6158C61.1621 54.4805 61.1618 54.3452 61.1618 54.2093C61.1618 51.3073 61.1618 48.4053 61.1618 45.5033V44.7356L61.161 44.7353Z" fill="#FEFEFE"/>
<path d="M67.9993 80.0969C68.0899 80 68.1618 79.9189 68.238 79.8426C69.8477 78.2332 72.6681 78.4434 74.0183 80.2739C74.4904 80.9139 74.7324 81.6391 74.7441 82.4283C74.7624 83.652 74.7556 84.8762 74.7528 86.1005C74.752 86.4642 74.5977 86.7528 74.259 86.912C73.9454 87.0596 73.6405 87.0242 73.3636 86.8143C73.1295 86.6371 73.0334 86.3893 73.0315 86.1024C73.029 85.7036 73.031 85.3045 73.031 84.9054C73.031 84.053 73.0348 83.2006 73.0299 82.3483C73.0244 81.3982 72.3991 80.6109 71.4863 80.3928C70.4962 80.1563 69.5093 80.5774 69.077 81.4238C68.917 81.7368 68.8579 82.072 68.8587 82.4223C68.8617 83.5921 68.8603 84.7616 68.8592 85.9314C68.8592 86.04 68.8579 86.1495 68.844 86.257C68.7868 86.6937 68.409 87.0166 67.9799 87.0008C67.5403 86.9847 67.1869 86.6523 67.1485 86.2162C67.1414 86.1351 67.1444 86.0531 67.1444 85.9714C67.1444 84.7837 67.1461 83.5957 67.1436 82.4079C67.142 81.5585 66.7737 80.9155 66.0051 80.5504C65.2236 80.1791 64.4499 80.2426 63.7464 80.7609C63.2055 81.1594 62.9673 81.7249 62.9651 82.3888C62.961 83.5948 62.9643 84.8008 62.9635 86.0068C62.9635 86.1424 62.9695 86.2782 62.9251 86.4106C62.7955 86.7971 62.413 87.0421 62.0158 86.9904C61.5873 86.9343 61.277 86.6185 61.2631 86.1955C61.2495 85.7787 61.2577 85.3614 61.2582 84.9443C61.259 84.074 61.2364 83.2026 61.2691 82.3333C61.3105 81.2269 61.7618 80.2978 62.6262 79.5955C63.4393 78.9347 64.3862 78.6895 65.4228 78.7812C66.444 78.8713 67.2963 79.3033 67.9995 80.0977L67.9993 80.0969Z" fill="#232323"/>
<path d="M38.9042 83.5962C38.9511 84.6666 39.6548 85.5067 40.6653 85.7098C41.6481 85.9072 42.5383 85.7204 43.2913 85.0232C43.3776 84.9432 43.4631 84.861 43.5567 84.7899C43.8703 84.552 44.2694 84.5722 44.5199 84.8335C44.7701 85.0946 44.7791 85.4651 44.5324 85.7738C44.3446 86.009 44.1194 86.2064 43.8701 86.3749C43.1854 86.8374 42.4259 87.0802 41.6048 87.1328C40.9849 87.1725 40.374 87.1235 39.7792 86.9281C38.6279 86.5494 37.8322 85.7934 37.4184 84.6582C36.9983 83.5055 36.9888 82.3393 37.4927 81.2131C38.1521 79.7392 39.3254 78.962 40.931 78.8547C42.1455 78.7736 43.178 79.171 43.9779 80.1075C44.4725 80.6868 44.7513 81.3688 44.8871 82.1133C44.9427 82.4177 44.9655 82.725 44.9563 83.0338C44.9465 83.3613 44.7665 83.5513 44.4388 83.5886C44.3402 83.5997 44.2395 83.5959 44.1398 83.5959C42.4983 83.5962 40.8564 83.5959 39.2149 83.5959H38.9048L38.9042 83.5962ZM38.9693 82.1947C39.0376 82.2239 39.1109 82.2124 39.1825 82.2124C40.4949 82.213 41.8073 82.2132 43.1195 82.2124C43.3909 82.2124 43.3868 82.2116 43.3234 81.9402C43.0983 80.9738 42.2669 80.1777 41.1254 80.2101C40.08 80.2398 39.2146 80.9348 38.9718 81.9821C38.956 82.0507 38.9277 82.1218 38.9693 82.1945V82.1947Z" fill="#232323"/>
<path d="M33.9194 84.1818C33.9194 83.5924 33.918 83.0027 33.9194 82.4133C33.9227 81.2593 33.1533 80.613 32.4303 80.4102C31.3269 80.1004 30.2037 80.6547 29.8476 81.6897C29.7605 81.9429 29.7412 82.2026 29.7412 82.4664C29.7417 83.6455 29.7412 84.8242 29.7412 86.0033C29.7412 86.1119 29.7412 86.22 29.7161 86.3275C29.629 86.7073 29.3184 86.973 28.9253 86.998C28.5605 87.0214 28.203 86.787 28.0786 86.4361C28.0334 86.3085 28.0068 86.1772 28.007 86.0376C28.0108 84.8678 27.9823 83.6972 28.0152 82.5282C28.0735 80.4448 29.4289 79.1373 31.0509 78.8329C33.1169 78.4453 35.1189 79.6267 35.5517 81.7668C35.5985 81.9976 35.6299 82.2312 35.6299 82.4681C35.6296 83.6743 35.6312 84.8803 35.629 86.0866C35.6279 86.5861 35.3353 86.9281 34.8676 86.989C34.4394 87.0448 34.025 86.7527 33.9425 86.3289C33.9219 86.2232 33.9202 86.1127 33.9197 86.0044C33.9178 85.3967 33.9186 84.7891 33.9186 84.1815L33.9194 84.1818Z" fill="#232323"/>
<path d="M55.2614 85.4215C55.3785 85.4759 55.4694 85.4552 55.5568 85.4552C56.6724 85.4569 57.7877 85.4563 58.9034 85.4563C58.9758 85.4563 59.0487 85.4531 59.1209 85.4577C59.5456 85.4849 59.8047 85.7419 59.814 86.1429C59.823 86.5371 59.5633 86.811 59.1424 86.8477C59.0613 86.8548 58.9793 86.8523 58.8976 86.8523C57.2381 86.8523 55.5783 86.8491 53.9188 86.8551C53.5526 86.8564 53.2167 86.8042 53.0479 86.4369C52.8777 86.0661 53.0381 85.7631 53.2804 85.4713C54.607 83.8744 55.9257 82.2704 57.2468 80.6688C57.3151 80.5858 57.3816 80.5011 57.4589 80.4045C57.3729 80.3356 57.28 80.3656 57.1975 80.3653C56.1184 80.3631 55.039 80.3642 53.9599 80.3634C53.8605 80.3634 53.7598 80.3637 53.6618 80.3498C53.2548 80.2926 53.0209 80.0062 53.0405 79.5973C53.058 79.2361 53.3272 78.9834 53.7298 78.9728C54.1286 78.9625 54.5277 78.9698 54.9268 78.9698C56.2327 78.9698 57.5386 78.9698 58.8446 78.9698C58.9262 78.9698 59.0082 78.9663 59.0893 78.9731C59.661 79.0205 59.9466 79.5701 59.6547 80.0656C59.6046 80.1508 59.5393 80.2281 59.4761 80.3046C58.1204 81.9481 56.7636 83.591 55.4076 85.2342C55.3621 85.2892 55.3197 85.3464 55.2611 85.4209L55.2614 85.4215Z" fill="#232323"/>
<path d="M49.1274 82.3278C49.1274 82.8897 49.1282 83.4519 49.1274 84.014C49.1272 84.2054 49.1489 84.3941 49.193 84.5797C49.3128 85.082 49.6368 85.37 50.1513 85.4479C50.4671 85.4958 50.7842 85.4787 51.1011 85.4871C51.4136 85.4953 51.645 85.6621 51.746 85.9398C51.9088 86.3871 51.6342 86.8602 51.152 86.8935C50.5006 86.9381 49.845 86.9316 49.2124 86.7315C48.2337 86.4219 47.6982 85.7242 47.4989 84.7406C47.4374 84.4374 47.4173 84.13 47.417 83.8216C47.4156 82.761 47.4164 81.7003 47.4164 80.6397C47.4164 80.5853 47.4175 80.5308 47.4164 80.4766C47.4118 80.2828 47.4115 80.2798 47.2259 80.2784C46.9357 80.276 46.6457 80.2779 46.3555 80.2776C46.2831 80.2776 46.2102 80.2798 46.138 80.2741C45.74 80.2431 45.4781 79.9537 45.4809 79.5508C45.4836 79.1503 45.7542 78.8617 46.1557 78.8503C46.5091 78.8402 46.863 78.8495 47.2163 78.8468C47.4096 78.8451 47.4145 78.8419 47.4156 78.6505C47.4183 78.0521 47.4167 77.4537 47.4167 76.8556C47.4167 76.7832 47.4137 76.7105 47.4178 76.6381C47.4464 76.1402 47.7932 75.8105 48.2821 75.8152C48.764 75.8195 49.1184 76.165 49.1253 76.6596C49.1342 77.2942 49.1274 77.9288 49.1277 78.5634C49.1277 78.6268 49.1277 78.6902 49.1288 78.7537C49.1299 78.8185 49.1615 78.8533 49.2287 78.8528C49.2921 78.8525 49.3556 78.8533 49.419 78.8533C49.9722 78.8533 50.5253 78.846 51.0783 78.856C51.6124 78.8658 51.9366 79.3553 51.7395 79.8453C51.6225 80.1369 51.3938 80.2795 51.0821 80.2812C50.5199 80.2842 49.9577 80.2828 49.3956 80.2817C49.1086 80.2812 49.1282 80.227 49.1277 80.5605C49.1272 80.9321 49.1277 81.304 49.1277 81.6756C49.1277 81.8931 49.1277 82.1106 49.1277 82.3281L49.1274 82.3278Z" fill="#232323"/>
<path d="M70.3666 93.0323C70.5806 93.3342 70.7951 93.6364 71.0088 93.9394C71.0505 93.9985 71.0962 94.0565 71.1264 94.1213C71.1997 94.277 71.1531 94.4422 71.02 94.5291C70.8847 94.6173 70.7173 94.598 70.6008 94.4727C70.552 94.4202 70.5147 94.3565 70.4744 94.2963C70.2232 93.9195 69.9735 93.5417 69.7209 93.1657C69.6357 93.0391 69.3501 92.9684 69.2159 93.0323C69.1508 93.0634 69.1645 93.1211 69.1642 93.172C69.1625 93.4712 69.1634 93.7701 69.1631 94.0693C69.1631 94.1327 69.1669 94.1964 69.1617 94.2596C69.1462 94.4439 69.0232 94.5691 68.8536 94.5789C68.6889 94.5881 68.55 94.4692 68.5206 94.2846C68.5095 94.2136 68.5141 94.1401 68.5141 94.0676C68.5138 93.0163 68.5141 91.9649 68.5141 90.9135C68.5141 90.8501 68.5103 90.7861 68.5174 90.7232C68.5424 90.5019 68.6483 90.3977 68.8715 90.3955C69.3428 90.3908 69.8145 90.383 70.2855 90.399C70.7167 90.4137 71.0472 90.6182 71.2424 91.0102C71.4613 91.4496 71.4673 91.9012 71.2737 92.349C71.1368 92.6662 70.8961 92.875 70.555 92.9577C70.4938 92.9727 70.4303 92.982 70.3666 93.0323ZM69.1636 91.6951C69.1636 91.8944 69.1658 92.0939 69.1625 92.2932C69.1612 92.3801 69.1865 92.4315 69.2831 92.4299C69.591 92.425 69.8992 92.4291 70.2068 92.4163C70.4293 92.4073 70.5727 92.2684 70.6601 92.0754C70.7706 91.8318 70.7674 91.5813 70.6585 91.3377C70.5618 91.1218 70.3966 90.9938 70.1516 90.9914C69.8706 90.9884 69.5894 90.9936 69.3087 90.9857C69.1808 90.9821 69.1585 91.0431 69.1617 91.1509C69.1672 91.332 69.1631 91.5133 69.1634 91.6946L69.1636 91.6951Z" fill="#232323"/>
<path d="M51.687 93.034C51.9148 93.3552 52.1345 93.6648 52.3542 93.9743C52.4013 94.0404 52.4536 94.1025 52.4691 94.1869C52.4969 94.3399 52.4468 94.4662 52.324 94.5373C52.1901 94.6146 52.0392 94.5961 51.9282 94.479C51.8789 94.427 51.8421 94.363 51.8019 94.3029C51.55 93.9266 51.2999 93.5496 51.0472 93.1739C50.9582 93.0416 50.6887 92.9648 50.5463 93.0277C50.4693 93.0618 50.4891 93.1325 50.4889 93.1922C50.4872 93.4911 50.4881 93.79 50.4881 94.0889C50.4881 94.1523 50.493 94.2166 50.4851 94.2789C50.4627 94.4553 50.3231 94.5797 50.1557 94.5786C49.9978 94.5776 49.8706 94.4643 49.845 94.2931C49.8344 94.222 49.8388 94.1485 49.8388 94.0761C49.8385 93.0163 49.8385 91.9562 49.8388 90.8964C49.8388 90.824 49.835 90.7505 49.8456 90.6794C49.872 90.5036 49.9752 90.399 50.1551 90.3971C50.6623 90.3917 51.1711 90.3762 51.6766 90.4061C52.1985 90.4371 52.5592 90.7984 52.6888 91.3551C52.7582 91.6532 52.7465 91.95 52.642 92.2377C52.5067 92.6098 52.2595 92.8679 51.862 92.9613C51.8182 92.9716 51.7752 92.9863 51.7322 93.0002C51.724 93.003 51.7177 93.0108 51.6872 93.0343L51.687 93.034ZM50.4881 91.6747C50.4881 91.883 50.4905 92.0915 50.487 92.2998C50.4856 92.3891 50.515 92.4329 50.6106 92.431C50.9092 92.4255 51.2084 92.4296 51.507 92.4198C51.7275 92.4125 51.8775 92.2883 51.9706 92.0942C52.1013 91.822 52.0907 91.5506 51.9513 91.2854C51.8555 91.1033 51.7022 90.9985 51.4942 90.9941C51.2046 90.9879 50.9144 90.9933 50.6247 90.9871C50.5161 90.9846 50.484 91.0293 50.487 91.1313C50.4921 91.3124 50.4883 91.4937 50.4886 91.6747H50.4881Z" fill="#232323"/>
<path d="M76.306 92.0479C76.5651 91.7498 76.8806 91.66 77.2283 91.6693C77.5928 91.6791 77.8612 91.8612 78.0417 92.1971C78.3085 91.7822 78.6722 91.6252 79.1244 91.6758C79.6435 91.7341 79.9621 92.0439 80.0418 92.5597C80.0598 92.6757 80.0685 92.7941 80.0693 92.9115C80.0726 93.3193 80.0707 93.7271 80.0704 94.1349C80.0704 94.1893 80.0737 94.2443 80.0658 94.2977C80.0407 94.4665 79.912 94.5794 79.7522 94.5786C79.5937 94.5778 79.4699 94.4629 79.4475 94.2895C79.4394 94.2269 79.4437 94.1629 79.4437 94.0995C79.4434 93.7641 79.4437 93.4287 79.4437 93.0936C79.4437 93.0302 79.4459 92.9665 79.4421 92.9033C79.4209 92.5339 79.211 92.3 78.887 92.2832C78.532 92.2646 78.2541 92.4841 78.1958 92.8382C78.1781 92.9447 78.1784 93.0549 78.1776 93.1636C78.1754 93.4807 78.177 93.7979 78.1765 94.1153C78.1765 94.1787 78.1811 94.2432 78.1705 94.305C78.1419 94.4708 78.0055 94.5832 77.8482 94.5789C77.7006 94.5748 77.5781 94.4689 77.5501 94.3113C77.5392 94.2495 77.5438 94.185 77.5435 94.1215C77.543 93.7772 77.5435 93.4328 77.5433 93.0884C77.5433 93.025 77.5454 92.9613 77.5424 92.8981C77.5245 92.5276 77.3116 92.2921 76.9879 92.2829C76.5978 92.2714 76.3057 92.5094 76.2866 92.8856C76.2678 93.2564 76.2801 93.6285 76.2787 94.0001C76.2785 94.0818 76.2836 94.1637 76.276 94.2446C76.2567 94.4482 76.1266 94.5792 75.9512 94.5789C75.7748 94.5789 75.6431 94.4477 75.6414 94.2378C75.6357 93.5128 75.6368 92.7876 75.6406 92.0626C75.6417 91.8585 75.7432 91.7327 75.9055 91.7038C76.0737 91.6739 76.1794 91.7463 76.2684 91.9537C76.279 91.9782 76.2883 92.0033 76.306 92.0482V92.0479Z" fill="#232323"/>
<path d="M57.6299 92.0338C58.0328 91.5718 58.9676 91.4752 59.3411 92.1544C59.4138 92.1669 59.431 92.1016 59.4601 92.0621C59.7313 91.693 60.2158 91.5784 60.6887 91.7226C61.1335 91.8582 61.3328 92.2091 61.3723 92.6452C61.4207 93.1783 61.3943 93.7143 61.3881 94.249C61.3856 94.4545 61.2462 94.5822 61.0674 94.5786C60.8891 94.5751 60.7728 94.4474 60.7698 94.2294C60.7644 93.8395 60.7693 93.4497 60.7671 93.0598C60.7666 92.9697 60.7644 92.8777 60.747 92.7901C60.683 92.4683 60.493 92.2949 60.2006 92.2821C59.8785 92.2679 59.6101 92.4571 59.5331 92.7658C59.5072 92.8701 59.5023 92.9812 59.5009 93.0892C59.4969 93.4157 59.4996 93.7421 59.4993 94.0685C59.4993 94.1229 59.5009 94.1776 59.4963 94.2315C59.4764 94.455 59.3458 94.5887 59.1596 94.5784C58.9821 94.5686 58.8721 94.4414 58.8694 94.2204C58.8645 93.8305 58.868 93.4407 58.8675 93.0509C58.8675 92.9785 58.8707 92.9052 58.8615 92.8336C58.8176 92.4936 58.6053 92.2875 58.2979 92.2821C57.9416 92.2758 57.674 92.4822 57.6157 92.8151C57.5716 93.0669 57.6008 93.3217 57.5956 93.5752C57.5912 93.7927 57.601 94.0108 57.591 94.2277C57.5806 94.4523 57.445 94.5868 57.2591 94.5784C57.0824 94.5705 56.9662 94.4414 56.9651 94.2242C56.961 93.5079 56.9615 92.7917 56.9645 92.0754C56.9654 91.8528 57.0661 91.7254 57.2406 91.7022C57.4094 91.6799 57.5003 91.7504 57.5874 91.9693C57.5937 91.9851 57.6062 91.9984 57.6302 92.0338H57.6299Z" fill="#232323"/>
<path d="M31.6125 91.9981C31.6125 92.3607 31.6013 92.7234 31.6147 93.0854C31.646 93.9465 30.943 94.6472 30.0025 94.6064C29.1259 94.5686 28.5321 93.9716 28.5174 93.0909C28.5047 92.3207 28.5145 91.5503 28.5145 90.7802C28.5145 90.7529 28.5134 90.7257 28.5164 90.6988C28.5384 90.4951 28.6688 90.3568 28.8373 90.3571C29.0233 90.3577 29.161 90.5 29.1621 90.7159C29.1659 91.4409 29.1637 92.1658 29.164 92.8908C29.164 92.9814 29.1602 93.0724 29.1673 93.1625C29.2067 93.6552 29.6028 93.9955 30.1062 93.986C30.5126 93.9784 30.9725 93.6326 30.9656 93.1127C30.9558 92.3697 30.9632 91.6265 30.9635 90.8833C30.9635 90.8109 30.958 90.7374 30.9676 90.6661C30.9934 90.4769 31.1489 90.3446 31.3204 90.3579C31.4843 90.3707 31.6035 90.4998 31.61 90.693C31.6176 90.9193 31.6125 91.146 31.6125 91.3725C31.6125 91.5811 31.6125 91.7893 31.6125 91.9979V91.9981Z" fill="#232323"/>
<path d="M55.4803 92.0447C55.5048 91.9804 55.519 91.9274 55.544 91.8803C55.6208 91.7363 55.7322 91.6791 55.8756 91.7036C56.0087 91.7265 56.1144 91.8343 56.138 91.9794C56.1468 92.0324 56.1427 92.0877 56.143 92.1419C56.143 92.8029 56.143 93.4636 56.143 94.1246C56.143 94.1518 56.144 94.179 56.143 94.206C56.1337 94.4191 56.03 94.5541 55.8585 94.577C55.7 94.598 55.5887 94.5109 55.5103 94.3042C55.5008 94.2792 55.4929 94.2539 55.4836 94.2272C54.8482 94.8354 53.9542 94.6394 53.5121 94.1567C53.0036 93.6013 53.009 92.6406 53.5298 92.0986C54.0222 91.586 54.9141 91.4907 55.4803 92.0444V92.0447ZM54.6307 93.9931C55.1351 93.998 55.4953 93.6506 55.5024 93.1524C55.5095 92.6537 55.1575 92.2905 54.6582 92.2818C54.1567 92.2728 53.7917 92.6245 53.7857 93.1216C53.78 93.6177 54.1396 93.9884 54.6304 93.9931H54.6307Z" fill="#232323"/>
<path d="M74.1515 92.0276C74.2163 91.9905 74.1975 91.9143 74.2294 91.8615C74.3024 91.7414 74.4055 91.6832 74.5474 91.7031C74.6835 91.7221 74.7921 91.8294 74.8142 91.9718C74.8223 92.0248 74.8188 92.0801 74.8188 92.1343C74.8188 92.804 74.8188 93.4734 74.8188 94.1431C74.8188 94.1883 74.8218 94.234 74.8166 94.2787C74.7984 94.4357 74.6906 94.5531 74.5465 94.5762C74.411 94.598 74.2896 94.5302 74.2188 94.3892C74.1954 94.3424 74.2052 94.2798 74.1523 94.2465C73.4396 94.8686 72.5818 94.5934 72.1822 94.1466C71.6848 93.5907 71.6919 92.6488 72.1988 92.1095C72.6401 91.6399 73.5091 91.4425 74.1513 92.0276H74.1515ZM74.1798 93.1592C74.1913 92.6602 73.8425 92.2938 73.3446 92.2821C72.8522 92.2707 72.483 92.6104 72.4699 93.0876C72.4555 93.6103 72.8018 93.9863 73.3035 93.9931C73.8115 94.0002 74.1684 93.6604 74.1798 93.159V93.1592Z" fill="#232323"/>
<path d="M82.38 93.3577C82.0901 93.3577 81.7999 93.3547 81.51 93.3588C81.3477 93.361 81.3319 93.3868 81.3815 93.5314C81.4531 93.7407 81.5946 93.8932 81.7953 93.9748C82.095 94.0971 82.3958 94.0974 82.68 93.9193C82.7565 93.8714 82.8251 93.8104 82.9019 93.7631C83.0429 93.6765 83.2112 93.6939 83.2986 93.7976C83.3903 93.9068 83.3767 94.0592 83.2509 94.188C82.9468 94.5 82.5638 94.6113 82.1402 94.6075C81.2867 94.6002 80.6467 93.9258 80.7202 92.9807C80.794 92.0273 81.6725 91.4708 82.6052 91.7267C83.1586 91.8786 83.5542 92.3559 83.5784 93.0231C83.5868 93.2534 83.4899 93.3501 83.2501 93.3552C82.9602 93.3615 82.6702 93.3566 82.38 93.3566V93.3572V93.3577ZM82.9297 92.8919C82.9049 92.4925 82.6207 92.2345 82.1952 92.217C81.7498 92.1988 81.4139 92.4689 81.3649 92.8919H82.9299H82.9297Z" fill="#232323"/>
<path d="M63.7002 93.358C63.4013 93.358 63.1024 93.3601 62.8034 93.3569C62.6864 93.3555 62.6608 93.4105 62.6932 93.5096C62.7648 93.7287 62.9069 93.8918 63.1184 93.9762C63.4184 94.0954 63.7192 94.0984 64.0026 93.9179C64.0789 93.8695 64.1472 93.8085 64.2245 93.7617C64.3661 93.6759 64.5359 93.6955 64.6206 93.8003C64.7096 93.9109 64.696 94.0677 64.5694 94.1924C64.2221 94.534 63.7952 94.6402 63.3215 94.5966C62.6219 94.5324 62.1171 94.0228 62.0412 93.3043C61.9628 92.5652 62.3475 91.9394 63.0169 91.7374C63.8586 91.4831 64.7856 91.9048 64.8972 92.9434C64.9282 93.2319 64.8305 93.3522 64.543 93.3569C64.2624 93.3612 63.9814 93.358 63.7005 93.358V93.3585L63.7002 93.358ZM62.6905 92.8916H64.2536C64.224 92.4857 63.9174 92.2176 63.4895 92.2159C63.0485 92.2143 62.7245 92.4849 62.6905 92.8916Z" fill="#232323"/>
<path d="M41.8347 92.0319C42.0032 91.8503 42.2161 91.7267 42.4758 91.6834C43.0986 91.5797 43.6017 91.9309 43.6891 92.5548C43.7672 93.1135 43.7259 93.6767 43.7215 94.2381C43.7199 94.4575 43.5636 94.5914 43.3788 94.5781C43.2034 94.5653 43.0948 94.436 43.0918 94.2155C43.0869 93.8711 43.0905 93.5267 43.0902 93.1826C43.0902 93.092 43.0929 93.0013 43.0888 92.9109C43.0725 92.5469 42.88 92.3158 42.5719 92.2861C42.1828 92.2486 41.879 92.4566 41.8047 92.8181C41.7867 92.9057 41.7862 92.9983 41.7857 93.0884C41.7835 93.4418 41.7851 93.7951 41.7843 94.1485C41.7843 94.2117 41.7884 94.2773 41.7745 94.3377C41.741 94.4828 41.5989 94.5846 41.4527 94.5786C41.315 94.5732 41.2014 94.4768 41.1707 94.3295C41.1579 94.2683 41.1584 94.2035 41.1584 94.1403C41.1576 93.4788 41.1579 92.8173 41.1579 92.156C41.1579 92.1198 41.1562 92.0833 41.1587 92.0474C41.1726 91.844 41.2714 91.7221 41.4372 91.7017C41.6071 91.6807 41.7094 91.7599 41.7837 91.9712C41.7914 91.9927 41.7805 92.0248 41.8349 92.0319H41.8347Z" fill="#232323"/>
<path d="M39.6889 94.2081C39.4093 94.5152 39.0927 94.6339 38.7164 94.5996C38.2384 94.5558 37.9133 94.2727 37.8156 93.8009C37.7846 93.6506 37.7633 93.4984 37.7647 93.343C37.768 92.9447 37.7655 92.5464 37.7663 92.1481C37.7663 92.085 37.7636 92.0199 37.777 91.9592C37.8134 91.7926 37.9487 91.6916 38.1099 91.7009C38.258 91.7093 38.3721 91.816 38.3968 91.9775C38.4064 92.0395 38.4012 92.1038 38.4012 92.1672C38.4015 92.4931 38.4012 92.8189 38.4015 93.1448C38.4015 93.2262 38.4006 93.3079 38.4061 93.389C38.4292 93.741 38.6184 93.964 38.9146 93.9909C39.2996 94.026 39.5873 93.8349 39.6772 93.4894C39.7027 93.3914 39.7071 93.2934 39.7068 93.1935C39.7063 92.8494 39.7063 92.5056 39.7068 92.1615C39.7068 92.0981 39.7036 92.0338 39.7131 91.9717C39.7384 91.8051 39.868 91.6976 40.0319 91.7001C40.186 91.7025 40.2976 91.8016 40.3245 91.9652C40.3332 92.0183 40.3316 92.0736 40.3316 92.1277C40.3321 92.7977 40.3319 93.4674 40.3319 94.1374C40.3319 94.1463 40.3319 94.1553 40.3319 94.1646C40.3264 94.4238 40.2282 94.5618 40.0376 94.5776C39.862 94.592 39.7564 94.4869 39.6889 94.2079V94.2081Z" fill="#232323"/>
<path d="M33.1163 92.0545C33.4117 91.7463 33.7446 91.6224 34.1415 91.6826C34.5812 91.749 34.8649 92.0003 34.9705 92.4312C35.0048 92.5712 35.029 92.7146 35.0282 92.8611C35.0257 93.2961 35.0277 93.7309 35.0271 94.1659C35.0271 94.2201 35.0293 94.2759 35.0173 94.3279C34.9825 94.4768 34.8488 94.58 34.7023 94.5786C34.5657 94.5775 34.4443 94.4855 34.408 94.341C34.3909 94.2721 34.3928 94.1975 34.3925 94.1254C34.3912 93.781 34.392 93.4366 34.3917 93.0925C34.3917 93.0201 34.3931 92.9474 34.3884 92.8753C34.3661 92.5388 34.1837 92.3226 33.8954 92.288C33.5282 92.2439 33.2219 92.4277 33.1294 92.7487C33.0967 92.8625 33.085 92.979 33.0858 93.0977C33.0883 93.4328 33.0869 93.7682 33.0866 94.1036C33.0866 94.167 33.0907 94.231 33.0831 94.2936C33.0632 94.4591 32.9334 94.5767 32.7749 94.5789C32.6129 94.5811 32.4866 94.4686 32.473 94.2936C32.4627 94.1586 32.4692 94.0219 32.4692 93.8861C32.4692 93.3152 32.4692 92.7443 32.4692 92.1734C32.4692 92.101 32.464 92.0272 32.4755 91.9565C32.4981 91.816 32.5898 91.7327 32.7259 91.7052C32.853 91.6796 32.9538 91.7286 33.0346 91.8307C33.082 91.8903 33.0717 91.9657 33.1166 92.0547L33.1163 92.0545Z" fill="#232323"/>
<path d="M36.0532 92.2867C35.962 92.2282 35.8782 92.2554 35.7987 92.2481C35.6097 92.2301 35.5155 92.1427 35.518 91.9853C35.5204 91.8359 35.6035 91.7515 35.7772 91.7275C35.8218 91.7213 35.8678 91.7218 35.913 91.7235C36.0151 91.7273 36.0576 91.6837 36.0548 91.5781C36.0491 91.3788 36.0494 91.1793 36.0548 90.98C36.0606 90.7638 36.1763 90.6315 36.351 90.6285C36.5351 90.6253 36.6674 90.7685 36.6728 90.9873C36.6777 91.1776 36.6815 91.3682 36.6714 91.5579C36.6644 91.6943 36.721 91.7333 36.8462 91.7248C36.9268 91.7194 37.0104 91.7218 37.0893 91.7376C37.229 91.7654 37.3134 91.8803 37.3033 92.0096C37.2943 92.125 37.2037 92.2222 37.0738 92.2415C37.0028 92.2521 36.9284 92.2538 36.8568 92.2461C36.7175 92.2314 36.6687 92.281 36.6709 92.4264C36.6788 92.9608 36.6742 93.4957 36.6739 94.0301C36.6739 94.0935 36.6758 94.157 36.6734 94.2204C36.6644 94.4414 36.5389 94.5803 36.3518 94.5778C36.1746 94.5756 36.0578 94.4472 36.0548 94.2296C36.0497 93.8583 36.0532 93.4867 36.0532 93.1151C36.0532 92.8353 36.0532 92.5557 36.0532 92.2859V92.2867Z" fill="#232323"/>
<path d="M66.5867 92.838C66.8399 92.838 67.0931 92.8336 67.3462 92.8391C67.5447 92.8434 67.6683 92.9605 67.6678 93.1282C67.6672 93.2861 67.5561 93.4037 67.3645 93.4064C66.8402 93.414 66.3156 93.4146 65.7915 93.4051C65.592 93.4015 65.5 93.2926 65.504 93.1192C65.5078 92.9483 65.6083 92.8454 65.8005 92.8399C66.0624 92.8326 66.3248 92.838 66.5873 92.838H66.5867Z" fill="#232323"/>
</g>
</g>
<rect x="1" y="1" width="110" height="110" rx="9" stroke="black" stroke-opacity="0.1" stroke-width="2"/>
<defs>
<clipPath id="clip0_725_443">
<rect x="2" y="2" width="108" height="108" rx="8" fill="white"/>
</clipPath>
<clipPath id="clip1_725_443">
<rect width="55.7434" height="80" fill="white" transform="translate(28 16)"/>
</clipPath>
</defs>
</svg>
