<svg width="112" height="112" viewBox="0 0 112 112" fill="none" xmlns="http://www.w3.org/2000/svg">
<g clip-path="url(#clip0_725_571)">
<rect x="1.99988" y="2" width="108" height="108" rx="8" fill="white"/>
<path d="M57.2659 65.2508C57.8292 64.9694 58.529 63.9782 58.8055 63.0701C58.914 62.7141 59.9317 59.264 61.0672 55.4033C62.2825 51.2714 63.3135 48.0194 63.5734 47.4979C64.355 45.9298 65.4788 45.4534 68.3971 45.4534H69.9418V43.5236L67.3794 43.531C65.0283 43.5378 64.9256 43.6329 64.2172 43.9691C63.1265 44.4867 62.2869 45.2978 61.7348 46.3673C61.4671 46.8859 60.8911 48.553 60.4258 50.1558C57.5061 60.2139 56.7145 62.8171 56.5051 63.0484C56.1782 63.4096 55.6818 63.3778 55.4204 62.9789C55.3016 62.7975 54.4691 60.0834 53.5705 56.9476C51.3305 49.1305 50.7721 47.3122 50.3647 46.5082C49.8722 45.5364 48.7809 44.433 47.8764 43.9923C47.1412 43.6341 47.1011 43.548 44.6441 43.5344L42.0002 43.5197V45.4197L44.0107 45.4797C45.715 45.5306 46.1249 45.5862 46.7026 45.8446C48.352 46.5825 48.4875 46.8769 50.6608 54.4492C51.9954 59.0991 53.0813 62.7179 53.3399 63.3769C53.6727 64.2251 54.1696 64.8888 54.726 65.228C55.2863 65.5697 56.604 65.5815 57.2659 65.2508Z" fill="#5726D7"/>
<path d="M86.9112 68.2303C92.0471 66.8566 95.5603 62.544 95.9526 57.1319C96.2913 52.4593 94.8087 48.5255 91.7145 45.8865C89.3822 43.8973 86.7662 43 83.2992 43C79.7596 43 76.9662 44.0155 74.6007 46.1623C73.3775 47.2723 72.1577 49.0754 71.5482 50.6745C70.4572 53.5365 70.5143 58.5604 71.6673 61.1628C73.4108 65.0976 76.4472 67.5484 80.6595 68.4207C82.0728 68.7134 85.4948 68.6091 86.9112 68.2303ZM80.9821 66.3733C78.2765 65.8205 76.0293 64.3238 74.5714 62.1038C72.2376 58.5499 72.3191 52.6977 74.752 49.1466C76.1614 47.0892 78.5537 45.6054 81.1468 45.1802C82.4567 44.9654 85.3638 45.0699 86.5023 45.3727C89.7114 46.2264 92.3457 48.83 93.3637 52.1541C94.2127 54.9266 93.9527 58.6403 92.7403 61.0598C90.93 64.6723 87.5967 66.6073 83.2532 66.5671C82.4914 66.5601 81.4694 66.4729 80.9821 66.3733ZM84.7304 65.6113C88.5702 65.1413 91.3531 62.8706 92.5355 59.2425C92.8068 58.41 92.8896 57.8226 92.9428 56.3548C93.0431 53.5835 92.6149 51.8464 91.3573 49.9231C90.2024 48.1568 88.6309 46.9735 86.5672 46.3162C85.5214 45.9831 85.2181 45.9486 83.3674 45.9518C81.5361 45.9551 81.2024 45.9934 80.1676 46.3198C78.1173 46.9665 76.6027 48.1019 75.4082 49.8879C74.1336 51.7934 73.6921 53.5573 73.7893 56.3548C73.8427 57.8911 73.9149 58.3788 74.2236 59.2879C75.4435 62.8805 78.1898 65.1262 81.9625 65.616C83.2057 65.7774 83.3754 65.7771 84.7304 65.6113ZM81.2127 63.3768C78.7306 62.6945 76.8261 60.6981 76.1415 58.0612C75.8612 56.9815 75.8624 54.6355 76.1438 53.5633C76.8934 50.7067 78.9396 48.6767 81.6479 48.1027C85.8422 47.2136 89.6611 49.5494 90.6011 53.5787C90.8635 54.7033 90.8929 56.6607 90.6644 57.7886C90.1197 60.4773 88.0425 62.695 85.4119 63.3964C84.5504 63.6261 82.0775 63.6145 81.2127 63.3768Z" fill="#5726D7"/>
<path d="M58.5247 68.1071C59.5974 67.5791 60.3722 66.7628 61.0094 65.4895C61.6372 64.235 61.9556 63.2089 64.7518 53.427C65.9093 49.3776 65.898 49.4081 66.4165 48.911C66.8092 48.5344 66.8807 48.5185 68.3829 48.4744L69.9418 48.4286V46.3726L68.0467 46.433C66.3728 46.4865 66.0759 46.5325 65.5032 46.8272C64.3404 47.4256 64.159 47.833 62.5903 53.3701C59.5394 64.1388 59.4495 64.4085 58.5519 65.4752C57.8024 66.3659 56.2356 66.7925 54.9705 66.4502C54.1213 66.2205 53.2578 65.3654 52.7044 64.2061C52.314 63.388 50.9276 58.7349 48.5182 50.1558C47.9922 48.2829 47.7453 47.7896 47.0259 47.1738C46.318 46.5679 45.9169 46.4822 43.7721 46.4786L42.0684 46.4757L41.9883 48.452H43.3616C44.2486 48.452 44.9014 48.5215 45.2047 48.6483C45.6852 48.849 46.1694 49.4796 46.31 50.0876C46.525 51.0174 50.2337 63.5861 50.5084 64.316C51.3826 66.6386 52.3368 67.739 54.0141 68.3593C54.6045 68.5776 55.0193 68.6221 56.1807 68.5916C57.4883 68.5573 57.6985 68.5139 58.5247 68.1071Z" fill="#5726D7"/>
<path d="M31.5733 68.3664C33.8785 67.8883 35.795 66.8925 37.4681 65.3036C39.1406 63.7153 40.3036 61.7107 40.9187 59.356C41.38 57.5905 41.4367 54.8281 41.0502 52.9533C40.0094 47.9047 36.4054 44.2016 31.6117 43.2554C29.754 42.8887 26.5609 42.957 24.8946 43.3991C20.8898 44.4615 17.5164 47.8445 16.5259 51.7914C14.9477 58.0802 16.9809 63.8453 21.8293 66.829C22.9479 67.5174 24.9214 68.2571 26.2121 68.4717C27.55 68.6942 30.2486 68.6412 31.5733 68.3664ZM26.0095 66.3158C24.0664 65.8927 22.6765 65.1234 21.1994 63.6531C20.1775 62.636 19.858 62.2113 19.3947 61.2541C17.9216 58.2108 17.7657 54.5798 18.9666 51.2891C19.8895 48.7604 21.9606 46.634 24.3893 45.7216C26.8656 44.7913 30.6283 44.818 33.0024 45.7827C36.8525 47.3471 39.1379 51.083 39.1379 55.8122C39.1379 58.3101 38.5961 60.2999 37.4207 62.1179C36.1173 64.1341 34.2757 65.4903 31.9103 66.1759C30.428 66.6056 27.6438 66.6716 26.0095 66.3158ZM31.458 65.3475C33.9885 64.7013 36.0325 63.0899 37.1635 60.8495C38.0436 59.1059 38.2506 58.1602 38.251 55.8804C38.2515 53.4737 38.0826 52.6911 37.1562 50.8045C36.0872 48.6277 34.3116 47.1123 31.914 46.3305C30.8749 45.9916 30.5518 45.9516 28.7791 45.9416C27.0983 45.9321 26.6404 45.9775 25.7171 46.2448C24.0714 46.7212 23.1227 47.2838 21.8884 48.5152C20.6266 49.7741 19.8196 51.1736 19.3538 52.9108C18.9512 54.4124 18.9512 57.2121 19.3538 58.7136C20.1858 61.8167 22.2795 64.1082 25.2037 65.1162C27.1869 65.7997 29.3705 65.8805 31.458 65.3475ZM26.3939 63.3237C25.2005 62.9762 24.4613 62.552 23.574 61.7057C22.5704 60.7484 22.077 59.971 21.607 58.6064C21.2743 57.6403 21.2318 57.3217 21.2345 55.8122C21.2371 54.337 21.2865 53.9593 21.6028 52.9966C22.048 51.6412 22.8387 50.4234 23.7799 49.6432C24.7431 48.8449 25.4366 48.494 26.678 48.1765C30.9686 47.0791 35.0482 49.5272 35.9397 53.7342C36.1876 54.9038 36.1892 56.7131 35.9435 57.8724C35.3799 60.531 33.3317 62.7001 30.7498 63.3726C29.66 63.6565 27.4512 63.6317 26.3939 63.3237Z" fill="#5726D7"/>
</g>
<rect x="1" y="1" width="110" height="110" rx="9" stroke="black" stroke-opacity="0.1" stroke-width="2"/>
<defs>
<clipPath id="clip0_725_571">
<rect x="2" y="2" width="108" height="108" rx="8" fill="white"/>
</clipPath>
</defs>
</svg>
