<svg width="112" height="112" viewBox="0 0 112 112" fill="none" xmlns="http://www.w3.org/2000/svg">
<g clip-path="url(#clip0_725_330)">
<rect x="1.99988" y="2" width="108" height="108" rx="8" fill="white"/>
<path d="M27.6284 46.0168C28.4195 45.9968 29.2129 45.9839 30.0028 46.0427C31.5073 46.2672 32.9319 46.9724 34.0368 48.0162C35.4061 49.3468 36.2219 51.2239 36.2654 53.1316C36.3218 55.1545 35.5272 57.2091 34.0438 58.5997C32.7615 59.875 30.996 60.6296 29.1905 60.6872C27.2511 60.7166 25.3128 60.6907 23.3746 60.7236C22.9879 61.9461 22.6693 63.1885 22.2756 64.4086C22.0146 65.2149 21.3129 65.8249 20.5277 66.1012C19.9694 66.2457 19.3864 66.2081 18.8163 66.2258C17.8771 66.2246 16.938 66.2551 16 66.2164C16.3526 65.0057 16.7064 63.795 17.0884 62.5937C17.4093 61.5088 18.4989 60.6989 19.632 60.7154C20.885 60.6931 22.138 60.7142 23.391 60.6942C23.4886 60.2006 23.6437 59.7222 23.786 59.2403C25.0766 54.836 26.393 50.4376 27.6284 46.0168Z" fill="#FB4C0F"/>
<path fill-rule="evenodd" clip-rule="evenodd" d="M46.267 50.4587C44.8036 50.3764 43.332 50.367 41.8709 50.4705C41.8728 50.6213 41.8739 50.7721 41.8751 50.9228C41.8768 51.1492 41.8784 51.3754 41.8827 51.6012C41.8821 51.7188 41.8812 51.8363 41.8803 51.9539L41.8803 51.9539C41.8794 52.0714 41.8786 52.1889 41.878 52.3065C41.8723 54.2432 41.8717 56.1804 41.871 58.1175C41.8708 58.9784 41.8705 59.8393 41.8698 60.7001C42.3853 60.7037 42.9014 60.7032 43.4173 60.7028H43.4179L43.9338 60.7025C43.9342 60.3547 43.9342 60.0069 43.9341 59.6592C43.934 59.0795 43.9339 58.4999 43.9361 57.9203C44.1683 57.916 44.4006 57.9134 44.6329 57.9108L44.6331 57.9108C45.2396 57.904 45.8465 57.8972 46.4515 57.8615C47.9608 57.7769 49.289 56.605 49.6816 55.1639C50.0824 53.8063 49.6169 52.2313 48.5332 51.318C47.8973 50.7972 47.0886 50.4834 46.267 50.4587ZM43.9339 54.4C43.9337 53.6789 43.9335 52.9578 43.9349 52.2371C44.208 52.249 44.4841 52.243 44.7605 52.2369H44.7605H44.7605H44.7605H44.7605H44.7606H44.7606C45.3608 52.2239 45.9629 52.2107 46.5408 52.3805C47.085 52.5286 47.4517 52.9871 47.7044 53.4643C47.7085 53.5338 47.7132 53.6036 47.718 53.6735L47.718 53.6735L47.718 53.6736L47.718 53.6736L47.718 53.6736L47.718 53.6736L47.718 53.6736C47.7434 54.048 47.7691 54.4264 47.6939 54.7948C47.4494 55.4872 46.7664 56.0408 46.013 56.0126C45.5071 56.0237 45.0005 56.023 44.4938 56.0222C44.3071 56.0219 44.1204 56.0217 43.9337 56.022C43.9342 55.4817 43.9341 54.9412 43.9339 54.4007V54.4007V54.4006V54.4006V54.4006V54.4006V54.4ZM69.2193 50.4576C69.4731 50.4487 69.7275 50.4495 69.9819 50.4502C70.3686 50.4514 70.7555 50.4525 71.1411 50.4199C71.1739 51.0424 71.1775 51.666 71.1811 52.2896L71.1811 52.2902C71.1827 52.559 71.1842 52.8277 71.1881 53.0964C71.5102 53.0958 71.8322 53.0958 72.1544 53.0958C72.4767 53.0958 72.799 53.0958 73.1217 53.0952C73.1314 53.6355 73.1292 54.1757 73.1269 54.716L73.1264 54.8513C72.6946 54.8505 72.2628 54.8507 71.8311 54.851L71.1834 54.8513C71.1873 55.3314 71.1902 55.8117 71.1931 56.2921C71.1972 56.9642 71.2012 57.6364 71.2081 58.3082C71.1905 58.662 71.5231 58.9852 71.871 58.9876C72.0608 59.02 72.2355 58.9608 72.4104 58.9015C72.5204 58.8643 72.6304 58.8269 72.7444 58.8124C72.8231 58.9842 72.9313 59.1493 73.0399 59.315L73.0399 59.315C73.2634 59.6562 73.4887 60 73.4625 60.4098C72.4775 60.8729 71.2598 61.0492 70.2783 60.4897C69.6507 60.1477 69.3615 59.4319 69.2875 58.7536C69.1987 57.8885 69.206 57.0182 69.2132 56.1482V56.1482V56.1482V56.1481V56.1481V56.1481C69.2168 55.7155 69.2204 55.283 69.2122 54.8513H67.8393L67.8391 54.4123V54.4122V54.4122V54.4121V54.4121V54.412C67.8386 53.9731 67.8382 53.5344 67.8417 53.0964C68.2989 53.0964 68.755 53.0964 69.2122 53.0952C69.2122 52.7603 69.215 52.4253 69.2177 52.0904C69.2221 51.5461 69.2266 51.0018 69.2193 50.4576ZM52.0735 53.5442C52.9221 52.9682 54.0306 52.799 55.0167 53.0764C55.5551 53.2268 55.9841 53.6018 56.3884 53.9721C56.3914 53.8261 56.3934 53.6801 56.3955 53.5342C56.3975 53.3877 56.3996 53.2413 56.4025 53.0952C56.563 53.0952 56.7234 53.0955 56.884 53.0958H56.8841H56.8843H56.8845H56.8846H56.8848C57.3675 53.0967 57.8506 53.0975 58.3338 53.0905C58.3847 54.6593 58.3771 56.2298 58.3694 57.8005V57.8009C58.3648 58.7674 58.3601 59.7339 58.369 60.7001C57.8764 60.7037 57.3837 60.7032 56.891 60.7028H56.8907L56.3978 60.7025L56.3967 60.5541L56.3967 60.5537C56.3949 60.3051 56.3931 60.0569 56.3873 59.808C55.9077 60.2523 55.3658 60.6331 54.7264 60.8048C54.66 60.8074 54.5933 60.8104 54.5263 60.8135C53.9916 60.8379 53.444 60.863 52.9362 60.6708C51.9783 60.3604 51.1872 59.6223 50.7758 58.7066C49.9742 56.9729 50.4291 54.6268 52.0735 53.5442ZM53.222 55.1639C52.6848 55.5189 52.3721 56.1454 52.3192 56.7766C52.271 57.5782 52.7283 58.3728 53.4324 58.7513C53.8872 59.0275 54.4456 59.0275 54.9557 58.9499C55.762 58.7584 56.3356 58.0402 56.5096 57.2515C56.5088 57.0906 56.5091 56.9297 56.5093 56.7684V56.7681V56.7679V56.7676V56.7674V56.7671L56.5096 56.5239L56.5024 56.5022C56.3659 56.0901 56.2217 55.6547 55.889 55.3555C55.1967 54.6703 54.0083 54.6009 53.222 55.1639ZM77.5014 53.1199C78.2172 52.8472 79.0212 52.9565 79.7217 53.2245C79.6122 53.5646 79.4894 53.9 79.3665 54.2352C79.2534 54.5441 79.1402 54.8528 79.0377 55.1651C78.5122 54.9206 77.901 54.8736 77.3451 55.0299C76.7961 55.1839 76.4165 55.7328 76.4106 56.2947C76.3847 57.3702 76.3797 58.4463 76.3747 59.5221V59.5223V59.5226V59.5228C76.3729 59.9141 76.3711 60.3054 76.3683 60.6966C75.7183 60.706 75.0683 60.7048 74.4194 60.699C74.4177 59.7477 74.4187 58.7967 74.4198 57.8457C74.4216 56.2795 74.4234 54.7134 74.4124 53.1469C75.0624 53.0705 75.73 53.0529 76.3789 53.1575C76.373 53.4901 76.3777 53.8228 76.3859 54.1542C76.6339 53.7017 77.0018 53.2927 77.5014 53.1199ZM81.1897 53.8639C82.4098 52.7955 84.287 52.6744 85.7033 53.409C86.6601 53.9168 87.3677 54.8642 87.5864 55.9244C87.6764 56.3485 87.6785 56.782 87.6806 57.2141C87.6811 57.3294 87.6817 57.4446 87.6839 57.5594C85.674 57.5712 83.664 57.5782 81.654 57.5841C81.8586 58.2999 82.4275 58.9288 83.1703 59.0875C83.8062 59.2285 84.5315 59.2085 85.0792 58.8195C85.264 58.6842 85.4243 58.5209 85.5844 58.3577C85.6371 58.304 85.6898 58.2504 85.7433 58.1977C86.2816 58.4692 86.7941 58.7877 87.2984 59.1169C86.6813 59.9643 85.7598 60.6296 84.7066 60.7848C84.1083 60.8471 83.5041 60.8259 82.9047 60.8012C81.198 60.4639 79.7581 58.9018 79.8168 57.121C79.6876 55.8903 80.2435 54.6467 81.1897 53.8639ZM82.6166 54.9218C82.1935 55.1616 81.9184 55.5777 81.735 56.0149C83.0715 56.0279 84.4079 56.0279 85.7444 56.0149C85.5904 55.5553 85.3095 55.1216 84.8769 54.8807C84.1823 54.5186 83.2984 54.5351 82.6166 54.9218ZM92.3551 53.0176C93.212 52.8542 94.1817 52.9447 94.8823 53.5113C95.5358 54.0367 95.9578 54.8689 95.9413 55.714C95.9932 56.807 95.9931 57.9014 95.993 58.9961C95.9929 59.5649 95.9929 60.1338 96.0001 60.7025C95.336 60.7025 94.6719 60.7025 94.0078 60.7037C94.0001 60.3084 94.0019 59.9131 94.0036 59.5178C94.007 58.7622 94.0103 58.007 93.9478 57.2538C93.9336 57.0334 93.9378 56.8119 93.9421 56.5905C93.948 56.283 93.9539 55.9758 93.9102 55.6717C93.7492 55.2615 93.4365 54.8642 92.9993 54.7372C92.4915 54.6773 91.9073 54.6268 91.4971 54.9958C91.1386 55.238 90.9822 55.6505 90.8753 56.0502C90.8594 57.2139 90.8594 58.3769 90.8594 59.5398C90.8594 59.9274 90.8594 60.3149 90.8588 60.7025H88.8618C88.8622 59.8575 88.8617 59.0126 88.8611 58.1676V58.1675C88.8601 56.477 88.8591 54.7864 88.8653 53.0952C89.1104 53.0956 89.3556 53.0956 89.6009 53.0955H89.6009H89.601C90.0099 53.0954 90.4191 53.0953 90.8283 53.0975L90.8283 53.0996C90.8318 53.3905 90.8353 53.6824 90.8447 53.9732C91.2702 53.5501 91.7439 53.1281 92.3551 53.0176ZM61.6943 53.0952C61.0302 53.0964 60.3672 53.0964 59.7043 53.0952C59.6949 54.635 59.6937 56.1748 59.7161 57.7134C59.7302 58.5609 59.9288 59.4754 60.5694 60.0772C61.2676 60.7977 62.3584 60.927 63.307 60.7859C63.9335 60.6766 64.4283 60.2547 64.862 59.8162C64.9079 60.5133 64.7175 61.282 64.1533 61.7392C63.2729 62.4351 61.8823 62.3434 61.0772 61.57C61.0283 61.5381 60.9829 61.4943 60.9372 61.4501C60.8412 61.3573 60.7436 61.263 60.6082 61.2749C60.2872 61.4973 59.9814 61.7409 59.6758 61.9844C59.4789 62.1413 59.2821 62.2981 59.0813 62.4492C59.4257 62.7971 59.7913 63.1333 60.2203 63.3754C61.6719 64.1288 63.535 64.2017 64.9831 63.3989C66.0645 62.7712 66.7956 61.5594 66.7838 60.3005C66.8168 57.8991 66.8367 55.4977 66.8403 53.0975C66.593 53.0962 66.3458 53.0964 66.0988 53.0965C65.6872 53.0968 65.2758 53.0971 64.8644 53.0905L64.8611 53.1084C64.795 53.4627 64.7255 53.8357 64.8515 54.186C64.8021 54.3376 64.7786 54.4939 64.7833 54.6538V54.6539C64.7821 55.6765 64.7809 56.6979 64.7645 57.7193C64.7845 58.133 64.5247 58.4951 64.2355 58.7631C63.8594 59.1216 63.2976 59.1333 62.8133 59.071C62.1868 58.9499 61.7484 58.334 61.7401 57.7111C61.6914 56.7459 61.6951 55.7798 61.6987 54.8136C61.7009 54.2408 61.703 53.6679 61.6943 53.0952Z" fill="#2E4251"/>
</g>
<rect x="1" y="1" width="110" height="110" rx="9" stroke="black" stroke-opacity="0.1" stroke-width="2"/>
<defs>
<clipPath id="clip0_725_330">
<rect x="2" y="2" width="108" height="108" rx="8" fill="white"/>
</clipPath>
</defs>
</svg>
