<svg width="112" height="112" viewBox="0 0 112 112" fill="none" xmlns="http://www.w3.org/2000/svg">
<g clip-path="url(#clip0_725_523)">
<rect x="2" y="2" width="108" height="108" rx="8" fill="white"/>
<path d="M22.863 56.609H28.9693C29.5078 56.6113 30.0242 56.8242 30.4084 57.2024C30.7926 57.5805 31.0143 58.094 31.0264 58.6336C31.0262 58.9575 30.9467 59.2764 30.7948 59.5623L30.9616 59.3115C31.3722 58.5497 31.5886 57.6979 31.5917 56.832C31.5906 55.8507 31.3249 54.8881 30.8226 54.0459L30.5261 53.6373L29.164 51.7149L28.9693 51.4177C28.2647 50.3708 27.3156 49.5124 26.2046 48.9168C25.0936 48.3211 23.8542 48.0065 22.5943 48.0002H16.7659C16.6287 47.9973 16.4934 48.0323 16.3746 48.1012C16.2558 48.17 16.1582 48.2702 16.0922 48.3909C16.0263 48.5116 15.9947 48.648 16.0007 48.7854C16.0067 48.9228 16.0503 49.0559 16.1266 49.1703L20.2037 55.1882C20.4962 55.6259 20.8919 55.9846 21.3558 56.2324C21.8197 56.4802 22.3374 56.6096 22.863 56.609Z" fill="#ED6A1D"/>
<path d="M31.0173 58.6335C31.0171 58.9574 30.9375 59.2763 30.7856 59.5622L27.5888 64.2892C27.5204 64.3927 27.4274 64.4775 27.3183 64.5362C27.2091 64.5949 27.0872 64.6257 26.9633 64.6257C26.8395 64.6257 26.7176 64.5949 26.6084 64.5362C26.4993 64.4775 26.4063 64.3927 26.3379 64.2892L24.67 61.8561C24.3075 61.3238 24.1135 60.6943 24.1135 60.0498C24.1135 59.4053 24.3075 58.7758 24.67 58.2435L25.7726 56.5997H28.9694C29.5086 56.6021 30.0253 56.8166 30.4083 57.1969C30.7913 57.5773 31.01 58.0932 31.0173 58.6335Z" fill="#D24124"/>
<path d="M31.5823 56.8411C31.5823 57.0919 31.5823 57.3427 31.536 57.5934C31.4896 57.8441 31.536 57.8163 31.4711 57.9463C31.4554 58.0604 31.4275 58.1725 31.3877 58.2807C31.2825 58.6446 31.1461 58.9989 30.98 59.3393L30.8132 59.5901C30.9409 59.3518 31.0167 59.0891 31.0356 58.8193V58.6521C31.0194 58.1219 30.8027 57.6177 30.4293 57.2417C30.0559 56.8657 29.5538 56.6462 29.0249 56.6275H25.8003L27.5423 54.0458C27.6072 53.9437 27.6905 53.8601 27.7554 53.758C28.0712 53.2277 28.2348 52.6202 28.228 52.0027C28.2299 51.4895 28.1149 50.9826 27.8916 50.5207C27.6685 50.0588 27.3429 49.6541 26.94 49.3374C27.7413 49.8887 28.4301 50.5885 28.9693 51.3991L29.1361 51.6498L30.4889 53.6465L30.7854 54.0644C31.0916 54.5746 31.3078 55.1338 31.4248 55.7174C31.4369 55.7802 31.4524 55.8421 31.4711 55.9032C31.4711 55.9868 31.4711 56.0889 31.4711 56.1725C31.4625 56.206 31.4625 56.2412 31.4711 56.2747C31.5545 56.4604 31.5823 56.6554 31.5823 56.8411Z" fill="#73246C"/>
<path d="M39.6533 56.6276H35.3816C34.91 56.6264 34.4457 56.5098 34.0291 56.2881C33.6125 56.0664 33.2562 55.7462 32.9909 55.3553L31.5547 53.2565H35.8264C36.2987 53.2516 36.7651 53.3625 37.1849 53.5793C37.6048 53.7962 37.9654 54.1126 38.2356 54.5009C38.6896 55.2346 39.1622 55.9404 39.6533 56.6276Z" fill="#ED6A1D"/>
<path d="M46.7603 51.3156H42.5627V58.3828C42.5652 59.0446 42.8286 59.6786 43.2955 60.1466C43.7624 60.6146 44.395 60.8786 45.0553 60.881V58.2157H46.7603C49.1972 58.2157 50.615 56.9063 50.615 54.6495C50.615 52.3928 49.1972 51.3156 46.7603 51.3156ZM46.6398 56.2561H45.0553V53.3122H46.6398C47.6406 53.3122 48.2428 53.8137 48.2428 54.7517C48.2588 54.9623 48.2274 55.1738 48.151 55.3707C48.0745 55.5675 47.955 55.7446 47.8011 55.889C47.6473 56.0334 47.4631 56.1413 47.2621 56.2049C47.0611 56.2684 46.8485 56.286 46.6398 56.2561Z" fill="#111820"/>
<path d="M74.7996 51.3156H70.6018V58.3828C70.6044 59.0446 70.868 59.6786 71.3346 60.1466C71.8016 60.6146 72.4345 60.8786 73.0945 60.881V58.2157H74.7996C77.2363 58.2157 78.6542 56.9063 78.6542 54.6495C78.6542 52.3928 77.2363 51.3156 74.7996 51.3156ZM74.6793 56.2561H73.0945V53.3122H74.6793C75.6798 53.3122 76.2823 53.8137 76.2823 54.7517C76.298 54.9623 76.2666 55.1738 76.1903 55.3707C76.1139 55.5675 75.9941 55.7446 75.8404 55.889C75.6866 56.0334 75.5025 56.1413 75.3011 56.2049C75.1003 56.2684 74.8879 56.286 74.6793 56.2561Z" fill="#111820"/>
<path d="M56.2302 51.2319C55.5675 51.1814 54.9012 51.2687 54.2736 51.4882C53.646 51.7078 53.0701 52.0549 52.5827 52.5079C52.0947 52.9608 51.7061 53.5097 51.4399 54.1204C51.1736 54.731 51.0366 55.3902 51.0366 56.0565C51.0366 56.7228 51.1736 57.3819 51.4399 57.9925C51.7061 58.6032 52.0947 59.1522 52.5827 59.6051C53.0701 60.058 53.646 60.4052 54.2736 60.6247C54.9012 60.8443 55.5675 60.9315 56.2302 60.881C56.8803 60.9096 57.5288 60.806 58.1382 60.5764C58.747 60.3469 59.3029 59.9961 59.7731 59.5453C60.2428 59.0944 60.6168 58.5529 60.8725 57.9533C61.1283 57.3537 61.2595 56.7085 61.2595 56.0565C61.2595 55.4045 61.1283 54.7592 60.8725 54.1597C60.6168 53.5601 60.2428 53.0185 59.7731 52.5677C59.3029 52.1169 58.747 51.7661 58.1382 51.5366C57.5288 51.307 56.8803 51.2034 56.2302 51.2319ZM56.2302 58.7822C55.5241 58.7627 54.8541 58.4634 54.3677 57.9499C53.8813 57.4363 53.6182 56.7504 53.6355 56.0426C53.6271 55.6939 53.6878 55.347 53.8138 55.0218C53.9399 54.6967 54.1287 54.3999 54.3703 54.1486C54.6115 53.8973 54.9002 53.6964 55.2192 53.5576C55.5388 53.4188 55.8824 53.3449 56.2302 53.3401C56.5785 53.341 56.9232 53.4125 57.2428 53.5501C57.5628 53.6878 57.8521 53.8889 58.0927 54.1413C58.3333 54.3937 58.5205 54.6922 58.6429 55.0189C58.7658 55.3456 58.8212 55.6938 58.8061 56.0426C58.8233 56.3906 58.771 56.7387 58.6523 57.0662C58.5336 57.3936 58.35 57.6939 58.1136 57.9492C57.8767 58.2046 57.5916 58.4099 57.2747 58.5529C56.9572 58.696 56.6151 58.7739 56.2673 58.7822H56.2302Z" fill="#111820"/>
<path d="M64.5231 53.8972C64.5231 53.4608 64.9216 53.2565 65.5053 53.2565C65.9368 53.2734 66.3636 53.3484 66.7747 53.4793C67.2956 53.6404 67.8568 53.6091 68.3568 53.391C68.8568 53.1729 69.2616 52.7825 69.4991 52.2906C68.3688 51.591 67.0655 51.2241 65.737 51.2319C63.4671 51.2319 61.966 52.3556 61.966 54.1294C61.966 57.482 66.9415 56.5068 66.9415 58.1135C66.9415 58.615 66.4781 58.8843 65.7558 58.8843C65.1371 58.856 64.5299 58.7078 63.9671 58.4478C63.5001 58.2383 62.9702 58.2179 62.488 58.391C62.0063 58.5641 61.6099 58.9172 61.3818 59.3765C61.9927 59.8497 62.6747 60.2227 63.4023 60.4816C64.157 60.7545 64.953 60.8959 65.7558 60.8996C67.85 60.8996 69.5639 59.9151 69.5639 57.9742C69.4991 54.5659 64.5231 55.4296 64.5231 53.8972Z" fill="#111820"/>
<path d="M80.2106 60.8624C79.9852 60.8649 79.7619 60.8221 79.5532 60.7365C79.3445 60.651 79.1552 60.5244 78.9962 60.3642C78.8372 60.204 78.7122 60.0136 78.628 59.804C78.5438 59.5945 78.502 59.3702 78.5061 59.1443C78.4999 58.9126 78.5506 58.683 78.6541 58.4757L81.786 51.2505H84.5658L88.365 60.8624H84.7421C84.2536 60.8635 83.7761 60.7179 83.3707 60.4445C83.1171 60.2725 82.8974 60.0552 82.7222 59.8037L81.5171 58.002H84.5658L84.2693 57.2591L83.1202 54.148L80.2106 60.8624Z" fill="#111820"/>
<path d="M88.921 51.2319C88.6292 51.2542 88.3483 51.3513 88.1046 51.514C87.8614 51.6766 87.6637 51.8993 87.5308 52.1606C87.409 52.3992 87.3457 52.6634 87.3457 52.9314L87.5957 53.4143L87.9294 54.018L88.0962 54.3337L89.9493 57.8349V60.8531H92.4608V57.7978L96.0001 51.2319H93.4614L91.2098 55.4296L88.921 51.2319Z" fill="#111820"/>
</g>
<rect x="1" y="1" width="110" height="110" rx="9" stroke="black" stroke-opacity="0.1" stroke-width="2"/>
<defs>
<clipPath id="clip0_725_523">
<rect x="2" y="2" width="108" height="108" rx="8" fill="white"/>
</clipPath>
</defs>
</svg>
