<svg width="112" height="112" viewBox="0 0 112 112" fill="none" xmlns="http://www.w3.org/2000/svg">
<g clip-path="url(#clip0_725_409)">
<rect x="2" y="2" width="108" height="108" rx="8" fill="white"/>
<g clip-path="url(#clip1_725_409)">
<path d="M49.8774 59.3069C49.1913 59.3046 48.5599 59.3834 47.9267 59.4184C46.8136 59.4799 45.701 59.4967 44.587 59.4958C43.3442 59.4945 42.1041 59.4194 40.8691 59.3005C39.7351 59.1913 38.6083 59.0169 37.4903 58.7843C35.9552 58.4652 34.4629 58.0222 33.0512 57.3344C31.8617 56.7548 30.7855 56.0192 29.9993 54.9302C29.0546 53.6214 28.8903 52.1874 29.3801 50.6664C29.7926 49.3863 30.5651 48.3297 31.4542 47.3464C31.8098 46.9526 32.209 46.6039 32.5887 46.2351C32.7371 46.0908 32.8049 46.1673 32.9069 46.2756C33.0107 46.3858 33.0416 46.4523 32.9078 46.5802C32.3146 47.1483 31.7988 47.7752 31.441 48.5263C30.8583 49.7505 31.2475 51.0183 32.0492 51.902C32.962 52.908 34.141 53.4735 35.3948 53.9109C36.6034 54.3325 37.8504 54.5852 39.1155 54.7682C40.4735 54.9644 41.8378 55.0427 43.2072 55.1C44.6102 55.1583 46.0092 55.0891 47.4077 55.0222C48.5631 54.9666 49.7167 54.8574 50.8648 54.714C52.1681 54.5515 53.4679 54.3634 54.7626 54.1372C56.7847 53.7839 58.7883 53.3496 60.7736 52.8307C62.4006 52.4055 64.0158 51.9356 65.5987 51.3671C68.072 50.4784 70.5062 49.4965 72.8138 48.2241C74.6634 47.2043 76.4225 46.0612 77.9052 44.5366C78.6554 43.7654 79.2992 42.9201 79.6483 41.8871C79.9206 41.0813 79.9511 40.266 79.6019 39.4748C79.316 38.827 78.777 38.4041 78.2002 38.0289C77.7559 37.7403 77.2815 37.5068 76.7971 37.2933C76.5864 37.2004 76.5463 37.0124 76.6915 36.8367C76.7484 36.7679 76.7876 36.8271 76.8286 36.8398C77.9548 37.1995 79.0342 37.6611 80.038 38.2934C80.8611 38.812 81.5895 39.4306 82.1226 40.251C82.7695 41.2475 83.0226 42.3355 82.8204 43.5182C82.5965 44.8298 81.9628 45.9456 81.1465 46.9644C79.9715 48.4312 78.5271 49.6025 76.9915 50.6669C74.8401 52.1587 72.5179 53.3351 70.1147 54.3584C68.9283 54.8638 67.7206 55.3135 66.5055 55.746C66.1491 55.873 65.8759 56.1594 65.5686 56.3779C64.7251 56.9788 63.8888 57.5911 63.0484 58.1966C61.6977 59.1694 60.3466 60.1409 58.9949 61.1119C56.3846 62.988 53.7729 64.8622 51.1639 66.7405C50.1756 67.4521 49.1954 68.1755 48.2075 68.8875C46.7526 69.9359 45.294 70.9784 43.8377 72.0245C43.7029 72.1215 43.57 72.2217 43.4398 72.3245C43.3547 72.3919 43.3201 72.3705 43.2864 72.2717C42.9736 71.3572 42.6846 70.4376 42.5789 69.4697C42.4847 68.6052 42.4906 67.7444 42.6896 66.8967C42.9686 65.7053 43.5231 64.6505 44.3303 63.7282C44.9731 62.9939 45.736 62.4016 46.5172 61.8249C47.5939 61.0305 48.7138 60.2939 49.7367 59.4266C49.7704 59.398 49.8041 59.3693 49.8783 59.306L49.8774 59.3069Z" fill="#007CC2"/>
<path d="M44.5784 36.8193C47.5078 34.712 50.4241 32.6152 53.3395 30.517C55.0822 29.2628 56.8225 28.0059 58.5647 26.7508C60.3994 25.4292 62.234 24.1072 64.0695 22.787C65.3337 21.8779 66.6011 20.9724 67.864 20.0606C67.9769 19.9791 68.0356 19.9659 68.0875 20.112C68.5286 21.3493 68.8423 22.6145 68.8245 23.9365C68.7999 25.7643 68.1553 27.3535 66.9298 28.7129C66.0544 29.6834 64.9823 30.4082 63.9316 31.1616C62.8923 31.9068 61.847 32.6462 60.9188 33.532C60.3903 34.0365 59.9063 34.5796 59.6059 35.2542C58.9786 36.6637 59.1871 37.9798 60.1007 39.1948C60.7763 40.0934 61.6526 40.784 62.5331 41.4664C63.5851 42.2827 64.7164 42.9906 65.758 43.8214C66.9694 44.7879 67.9159 45.9533 68.4357 47.4351C68.6347 48.0023 68.6383 47.9887 68.0961 48.2204C66.4796 48.9106 64.8207 49.4837 63.1467 50.015C63.0298 50.0518 62.936 50.0418 62.8313 49.9667C61.0827 48.7071 59.3209 47.4652 57.5823 46.1914C55.16 44.4169 52.7035 42.691 50.2734 40.9274C48.4438 39.5995 46.6056 38.2834 44.7709 36.9623C44.7099 36.9186 44.6508 36.8726 44.5793 36.8193H44.5784Z" fill="#F8941F"/>
<path d="M60.2699 50.833C59.2178 51.0921 58.2049 51.3579 57.1797 51.5783C56.088 51.8127 54.9936 52.0312 53.892 52.2092C53.0051 52.3526 52.1156 52.4819 51.2274 52.6162C50.9975 52.6508 50.8132 52.6221 50.6242 52.4286C49.6992 51.484 48.6294 50.7147 47.5582 49.9467C46.741 49.3608 45.8975 48.8086 45.1463 48.1339C44.0546 47.1538 43.2466 45.9924 42.8118 44.5771C42.4941 43.5428 42.4654 42.4939 42.5924 41.4341C42.7067 40.4781 42.9921 39.5649 43.3322 38.6367C48.9763 42.7006 54.6085 46.7563 60.2699 50.833Z" fill="#007CC2"/>
<path d="M23.8566 81.199C23.6517 81.199 23.4473 81.1972 23.2425 81.1999C23.1546 81.2008 23.0995 81.1885 23.1114 81.0761C23.2047 80.2034 22.6834 79.4909 21.5968 79.3821C20.7914 79.3016 20.0048 79.4058 19.3206 79.8874C18.8999 80.1834 18.5908 80.5612 18.5539 81.112C18.5253 81.535 18.7064 81.8441 19.0292 82.0835C19.4885 82.4241 20.0262 82.5797 20.5761 82.689C21.2949 82.8315 22.0151 82.9635 22.6734 83.3068C23.7287 83.8562 24.1775 84.7471 24.0246 85.9299C23.8643 87.1668 23.3153 88.1492 22.2045 88.7692C21.5672 89.1247 20.8684 89.2763 20.1473 89.3392C19.5719 89.3892 19.0005 89.3924 18.4342 89.2527C17.2278 88.9545 16.3984 88.2561 16.0779 87.0284C15.9682 86.6073 15.9891 86.1739 16.0524 85.7432C16.0669 85.6435 16.1248 85.644 16.1953 85.644C16.6201 85.644 17.0444 85.6435 17.4691 85.6444C17.5383 85.6444 17.5852 85.6385 17.5774 85.7537C17.5032 86.8485 17.9425 87.4595 19.031 87.6957C20.0166 87.9093 20.9704 87.7945 21.8371 87.2355C22.3975 86.874 22.6293 85.9458 22.4649 85.389C22.378 85.094 22.1558 84.911 21.8986 84.7699C21.4156 84.505 20.8852 84.3861 20.3499 84.2896C19.7084 84.1745 19.0806 84.0188 18.4957 83.7233C16.8149 82.8743 16.6724 81.1553 17.4623 79.826C18.1315 78.6993 19.1703 78.0997 20.4368 77.8803C21.3833 77.7164 22.3211 77.7305 23.2015 78.1862C24.2217 78.7138 24.8181 79.897 24.6546 81.0347C24.6373 81.1557 24.6 81.2081 24.4716 81.2026C24.2672 81.194 24.0624 81.2004 23.8575 81.2004L23.8566 81.199Z" fill="#007CC2"/>
<path d="M58.8295 81.972C58.9192 81.4749 59.0057 81.0082 59.0872 80.5412C59.242 79.6571 59.3954 78.773 59.5451 77.888C59.5597 77.8015 59.597 77.7728 59.6781 77.7728C60.1251 77.7742 60.5726 77.7751 61.0197 77.7719C61.1262 77.771 61.143 77.8097 61.1248 77.9094C60.8599 79.3716 60.5949 80.8339 60.3373 82.297C60.1137 83.5671 59.9112 84.8409 59.6767 86.1092C59.5174 86.9701 59.3899 87.8359 59.247 88.6991C59.2178 88.8762 59.2674 89.1111 59.1413 89.2149C59.0061 89.3255 58.7772 89.2449 58.5891 89.249C58.3165 89.2554 58.0429 89.2395 57.7706 89.2545C57.5894 89.2645 57.5671 89.1844 57.5958 89.0396C57.6281 88.878 57.6554 88.715 57.6914 88.5161C57.4888 88.6577 57.3213 88.7828 57.1456 88.8953C56.6047 89.2435 56.0029 89.3974 55.3669 89.4275C54.7114 89.4584 54.0713 89.4061 53.4686 89.1001C52.7894 88.756 52.3514 88.2101 52.1812 87.4881C51.7724 85.7578 52.1584 84.1735 53.1986 82.7555C53.8173 81.9119 54.6472 81.3415 55.692 81.1457C56.8119 80.9363 57.8635 81.0451 58.7248 81.8991C58.7457 81.9196 58.7735 81.9333 58.8286 81.9711L58.8295 81.972ZM53.6653 86.1556C53.6571 86.3919 53.6712 86.6264 53.7285 86.8549C53.8715 87.4262 54.1788 87.876 54.7692 88.0303C55.6492 88.2602 56.4636 88.0927 57.1119 87.4335C58.0693 86.4598 58.4344 85.2556 58.316 83.9136C58.2277 82.9066 57.4588 82.3589 56.4896 82.3858C55.6069 82.4104 54.9367 82.8438 54.4414 83.5494C53.8947 84.3288 53.6898 85.2174 53.6653 86.1552V86.1556Z" fill="#007CC2"/>
<path d="M27.936 81.9724C28.4709 81.565 29.0477 81.2363 29.7206 81.1298C30.8318 80.9541 31.8843 81.0583 32.7383 81.8937C33.2496 82.394 33.4726 83.0404 33.5214 83.7329C33.6279 85.247 33.2387 86.6318 32.2918 87.8264C31.5087 88.8138 30.4899 89.3906 29.2002 89.4329C28.4541 89.4575 27.7544 89.3291 27.1462 88.8671C27.0219 88.7728 26.9113 88.6604 26.7747 88.5388C26.6135 89.1352 26.5421 89.7247 26.4328 90.3065C26.309 90.9666 26.192 91.6281 26.0809 92.2905C26.0618 92.4038 26.024 92.4398 25.9111 92.438C25.5018 92.4321 25.0921 92.4271 24.6829 92.4398C24.5067 92.4453 24.5039 92.3661 24.5276 92.2368C24.6551 91.5311 24.7821 90.826 24.9055 90.1199C25.1272 88.8493 25.3443 87.5778 25.5669 86.3072C25.7349 85.349 25.9161 84.3925 26.0773 83.4329C26.1911 82.7555 26.2848 82.0749 26.3763 81.3943C26.3918 81.2777 26.4228 81.2413 26.5389 81.2427C26.9709 81.2486 27.4034 81.2491 27.8354 81.2427C27.9633 81.2409 27.9915 81.29 27.9742 81.4048C27.9474 81.5841 27.9296 81.7644 27.9078 81.9447C27.905 81.9615 27.9023 81.9784 27.8996 81.9952C27.9123 81.9879 27.9251 81.9806 27.9378 81.9733L27.936 81.9724ZM29.0869 88.1114C29.6932 88.1469 30.2345 87.8929 30.672 87.444C31.664 86.4256 31.9708 85.1691 31.8292 83.7939C31.7646 83.1679 31.4336 82.6567 30.8004 82.4832C29.8426 82.221 28.9726 82.4459 28.3016 83.1943C27.4694 84.1225 27.183 85.262 27.2595 86.4743C27.3237 87.4913 28.0016 88.1624 29.0869 88.1114Z" fill="#007CC2"/>
<path d="M78.1672 81.9128C78.2164 81.632 78.2683 81.397 78.2956 81.1594C78.3161 80.98 78.3898 80.9254 78.5706 80.9336C78.9184 80.95 79.2685 80.9536 79.6158 80.9327C79.8357 80.9195 79.8707 81.0019 79.8361 81.1899C79.7228 81.8059 79.6149 82.4227 79.507 83.0396C79.2516 84.4954 78.9985 85.9522 78.7417 87.4081C78.6425 87.9726 78.531 88.5348 78.4367 89.0997C78.4153 89.229 78.3634 89.2559 78.246 89.2541C77.8445 89.2481 77.4429 89.2491 77.041 89.2531C76.9185 89.2545 76.863 89.2413 76.9021 89.0902C76.9604 88.8657 76.9863 88.6327 77.0355 88.3518C76.9176 88.4419 76.8397 88.507 76.7564 88.5644C75.3985 89.4976 73.9535 89.6966 72.4558 88.9714C71.5089 88.5129 71.0345 87.6612 70.8816 86.6455C70.6626 85.1865 71.0673 83.8781 71.9354 82.7054C72.6078 81.7968 73.5024 81.1958 74.5995 80.9418C75.5878 80.7128 76.5666 80.7429 77.4721 81.2873C77.7279 81.4412 77.9232 81.6638 78.1663 81.9124L78.1672 81.9128ZM75.6325 82.2406C75.1376 82.2219 74.6619 82.3253 74.2349 82.5625C72.8655 83.3232 72.1435 84.8223 72.4344 86.3555C72.6024 87.2414 73.1851 87.7454 73.9608 87.9111C75.0689 88.1474 76.0044 87.7704 76.7655 86.9615C77.4338 86.2513 77.7293 85.3759 77.7389 84.4167C77.7521 83.0878 76.9121 82.2402 75.6325 82.2406Z" fill="#F8941F"/>
<path d="M69.9886 81.2413C69.7992 81.2413 69.6084 81.2299 69.4204 81.245C69.2538 81.2582 69.2228 81.199 69.2342 81.0428C69.2829 80.375 69.0244 79.8569 68.4234 79.5465C67.9259 79.2893 67.3823 79.241 66.8328 79.2979C65.7179 79.414 64.9012 80.0117 64.2625 80.8994C63.6015 81.8186 63.2938 82.8624 63.1376 83.9664C63.0361 84.6857 63.0416 85.3954 63.2328 86.1001C63.5974 87.4449 64.6918 87.9661 65.8846 87.8587C66.5 87.8032 67.0846 87.627 67.5735 87.215C67.9413 86.905 68.2131 86.528 68.3547 86.0692C68.3989 85.9258 68.453 85.8766 68.601 85.8807C68.9797 85.8907 69.359 85.893 69.7377 85.8802C69.9116 85.8743 69.9426 85.9358 69.9112 86.0892C69.7846 86.7133 69.4673 87.241 69.0799 87.7312C68.2846 88.7373 67.2202 89.2413 65.9642 89.3733C65.1548 89.4584 64.3609 89.3947 63.617 89.0346C62.6004 88.5425 62.0355 87.683 61.7305 86.6328C61.4218 85.5702 61.4769 84.5004 61.6868 83.4256C61.964 82.0066 62.4921 80.7069 63.4522 79.6084C64.2466 78.6997 65.2254 78.0697 66.4158 77.8425C67.5435 77.6276 68.6565 77.705 69.6435 78.3678C70.35 78.8422 70.7051 79.5433 70.7934 80.3877C70.818 80.624 70.8048 80.8544 70.7898 81.0884C70.782 81.2058 70.7415 81.2468 70.625 81.2427C70.4128 81.2354 70.2007 81.2409 69.9886 81.2409V81.2413Z" fill="#F8941F"/>
<path d="M90.5713 81.8277C90.9979 81.5013 91.4058 81.1999 91.8915 81.0419C92.9896 80.6846 94.0521 80.6869 95.0149 81.4207C95.6605 81.9128 95.9236 82.608 95.9882 83.3914C96.047 84.1025 95.8676 84.789 95.7492 85.4805C95.5453 86.6701 95.3277 87.8574 95.1246 89.0474C95.0973 89.2067 95.045 89.2618 94.8806 89.2563C94.5019 89.244 94.1222 89.2436 93.7439 89.2563C93.5727 89.2622 93.5568 89.1885 93.5809 89.0542C93.7548 88.0891 93.9337 87.1244 94.0981 86.1575C94.2155 85.466 94.399 84.7813 94.4359 84.0811C94.511 82.6612 93.4721 81.9706 92.1692 82.3134C90.9483 82.6344 90.249 83.4775 90.0369 84.7235C89.8939 85.5643 89.7469 86.4042 89.6017 87.2446C89.5001 87.8319 89.3963 88.4187 89.2994 89.0068C89.2721 89.1735 89.2288 89.2695 89.0185 89.259C88.5892 89.2372 88.1576 89.2527 87.7142 89.2527C88.0106 87.571 88.3042 85.9153 88.5947 84.2587C88.8473 82.8165 89.095 81.3738 89.3472 79.9316C89.4651 79.2551 89.5898 78.58 89.7055 77.9035C89.7214 77.8102 89.7533 77.7715 89.8479 77.7724C90.28 77.7751 90.7125 77.777 91.1445 77.7719C91.3525 77.7692 91.2597 77.9176 91.2478 77.9918C91.1741 78.4462 91.0862 78.8982 91.0024 79.3507C90.865 80.0923 90.7261 80.8339 90.5895 81.5759C90.5763 81.6479 90.5782 81.7221 90.5709 81.8286L90.5713 81.8277Z" fill="#F8941F"/>
<path d="M39.2641 85.5661C38.3546 85.5661 37.4445 85.5702 36.535 85.5625C36.3602 85.5611 36.2992 85.608 36.2896 85.7883C36.2728 86.107 36.2828 86.4188 36.3433 86.7329C36.4917 87.5036 37.1454 88.0518 37.9326 88.1091C39.0948 88.1933 40.0836 87.8068 40.9622 87.0775C41.0032 87.0439 41.046 87.0129 41.086 86.9783C41.1625 86.9123 41.1962 86.9269 41.2144 87.0293C41.2836 87.4153 41.3546 87.8014 41.4352 88.1851C41.4666 88.3349 41.366 88.3864 41.2759 88.451C40.6016 88.9358 39.8546 89.2518 39.032 89.3633C38.1556 89.4821 37.2811 89.5085 36.4394 89.1616C35.5353 88.7892 34.9557 88.1237 34.7527 87.1718C34.404 85.537 34.8274 84.0757 35.8353 82.77C36.5413 81.855 37.486 81.3083 38.615 81.1193C39.4444 80.9805 40.2761 81.0142 41.0464 81.4221C41.8499 81.8477 42.2237 82.5538 42.353 83.4261C42.4513 84.0898 42.3662 84.7358 42.235 85.384C42.2027 85.5443 42.1353 85.5698 41.9938 85.5689C41.0842 85.5639 40.1742 85.5661 39.2646 85.5661H39.2641ZM36.6146 84.3789H40.1578C40.6461 84.3789 40.8469 84.1349 40.7601 83.6468C40.6463 83.0059 40.2293 82.5342 39.6607 82.4323C39.1194 82.3353 38.5949 82.389 38.1005 82.6544C37.3913 83.035 36.9055 83.6031 36.6142 84.3784L36.6146 84.3789Z" fill="#007CC2"/>
<path d="M49.9719 86.9059C50.0598 87.3438 50.1404 87.7481 50.2219 88.1523C50.2451 88.2661 50.2169 88.349 50.1158 88.4214C49.3965 88.9385 48.6026 89.2649 47.7217 89.3756C47.0343 89.4621 46.3455 89.4894 45.6708 89.3082C44.3793 88.9608 43.5913 88.0768 43.4593 86.7393C43.2845 84.9693 43.8417 83.4319 45.1455 82.2169C46.1311 81.2982 47.3315 80.944 48.6795 81.0902C49.6624 81.1967 50.4445 81.5982 50.8861 82.5237C51.1956 83.1733 51.2152 83.868 51.1565 84.5673C51.1351 84.8222 51.0759 85.074 51.0427 85.328C51.019 85.5069 50.9407 85.5711 50.7486 85.5702C48.9517 85.562 47.1549 85.5693 45.3585 85.5602C45.135 85.5588 45.0804 85.6285 45.0781 85.8415C45.0731 86.3682 45.0754 86.889 45.3831 87.3488C45.6991 87.8209 46.1516 88.0558 46.7111 88.1041C47.8878 88.2056 48.8907 87.8004 49.7798 87.0588C49.8317 87.0156 49.8859 86.9742 49.9724 86.905L49.9719 86.9059ZM45.4177 84.3793C46.3446 84.3793 47.2532 84.3793 48.1624 84.3793C48.5789 84.3793 48.9959 84.3793 49.4125 84.3793C49.4935 84.3793 49.5786 84.3979 49.5859 84.265C49.6414 83.2034 49.1666 82.3698 47.9402 82.3844C46.7274 82.399 45.7532 83.3614 45.4177 84.3793Z" fill="#007CC2"/>
<path d="M81.1869 86.5108C81.3918 86.5108 81.5966 86.5167 81.801 86.5085C81.9189 86.5039 81.9472 86.5508 81.9239 86.6551C81.8242 87.1021 82.0428 87.3926 82.3997 87.612C82.8991 87.9188 83.4481 87.9329 84.0026 87.8555C84.2921 87.815 84.5812 87.7522 84.8452 87.6084C85.2358 87.3953 85.3788 87.0489 85.3806 86.6291C85.3815 86.4502 85.2823 86.3173 85.1352 86.219C84.7942 85.9913 84.4036 85.9067 84.0099 85.8347C83.4536 85.7328 82.8973 85.6362 82.3742 85.4036C80.8801 84.7399 80.7672 83.3213 81.5306 82.2301C82.0919 81.4275 82.9146 81.0328 83.8601 80.8831C84.6008 80.7656 85.3401 80.7706 86.0448 81.072C86.9252 81.4489 87.4324 82.3271 87.3454 83.2817C87.3327 83.4206 87.2921 83.4798 87.1406 83.4793C86.7472 83.4784 86.3534 83.4962 85.9601 83.5048C85.8782 83.5066 85.8031 83.5221 85.794 83.3874C85.7507 82.7591 85.5144 82.4596 84.8967 82.3626C84.2689 82.2643 83.6429 82.3011 83.0889 82.6799C83.0329 82.7181 82.9765 82.7578 82.9259 82.8028C82.4652 83.2144 82.5208 83.6792 83.0639 83.9682C83.4636 84.1808 83.9024 84.2528 84.3417 84.3302C84.9222 84.4326 85.493 84.5646 86.0116 84.8683C86.6366 85.2343 86.9603 85.7756 86.9325 86.4944C86.8906 87.5806 86.4181 88.415 85.4284 88.9263C84.9304 89.1835 84.3986 89.3155 83.846 89.3619C83.0698 89.4275 82.3041 89.3984 81.5934 89.0187C80.677 88.5284 80.2477 87.693 80.382 86.6674C80.3962 86.5581 80.4321 86.5053 80.5509 86.5089C80.7631 86.5158 80.9752 86.5108 81.1878 86.5108H81.1869Z" fill="#F8941F"/>
<path d="M27.9359 81.9725C27.9232 81.9798 27.9105 81.987 27.8977 81.9943C27.9004 81.9775 27.9036 81.9606 27.9059 81.9438C27.9164 81.9529 27.9259 81.962 27.9355 81.9725H27.9359Z" fill="white"/>
</g>
</g>
<rect x="1" y="1" width="110" height="110" rx="9" stroke="black" stroke-opacity="0.1" stroke-width="2"/>
<defs>
<clipPath id="clip0_725_409">
<rect x="2" y="2" width="108" height="108" rx="8" fill="white"/>
</clipPath>
<clipPath id="clip1_725_409">
<rect width="80" height="72.4398" fill="white" transform="translate(16 20)"/>
</clipPath>
</defs>
</svg>
