<svg width="112" height="112" viewBox="0 0 112 112" fill="none" xmlns="http://www.w3.org/2000/svg">
<g clip-path="url(#clip0_725_399)">
<rect x="2" y="2" width="108" height="108" rx="8" fill="white"/>
<g clip-path="url(#clip1_725_399)">
<path d="M20.3324 48.3682H17.4932V50.7225H16.1522V53.328H17.4932V56.3856C17.4932 58.788 19.4326 60.3168 21.8306 60.3168H23.5079V57.8118H21.8219C21.428 57.8118 21.0503 57.6553 20.7718 57.3768C20.4932 57.0983 20.3368 56.7205 20.3368 56.3267V53.328H22.2019C22.5551 53.315 22.8894 53.165 23.134 52.9098C23.3786 52.6546 23.5143 52.3143 23.5123 51.9608V50.7291H20.3324V48.3682ZM36.6622 56.438C36.6622 56.8319 36.5057 57.2097 36.2272 57.4882C35.9487 57.7667 35.5709 57.9232 35.1771 57.9232C34.7832 57.9232 34.4054 57.7667 34.1269 57.4882C33.8484 57.2097 33.6919 56.8319 33.6919 56.438V52.0941C33.6919 51.9136 33.6563 51.7349 33.5871 51.5682C33.5179 51.4015 33.4165 51.2501 33.2887 51.1227C33.1609 50.9953 33.0091 50.8943 32.8422 50.8257C32.6753 50.757 32.4965 50.7219 32.316 50.7225H30.8375V56.0668C30.8375 58.4692 32.1479 60.4195 35.1749 60.4195C38.2019 60.4195 39.5145 58.4714 39.5145 56.0668V50.7225H36.6753V56.438M49.3425 55.8003C49.3228 52.8323 47.7111 50.4976 44.7124 50.4976C42.1375 50.4976 40.0605 52.5767 40.0605 55.4421C40.0605 58.5325 41.9497 60.3627 44.7343 60.4173C45.5945 60.4157 46.4384 60.1819 47.1768 59.7407C47.9152 59.2994 48.5208 58.6669 48.9297 57.9101L46.3242 57.2287C46.1416 57.4842 45.8993 57.6912 45.6184 57.8317C45.3374 57.9722 45.0264 58.0418 44.7124 58.0346C43.6969 58.0346 42.8757 57.3051 42.8473 56.4228H49.3403C49.3403 56.283 49.3403 55.9467 49.3403 55.8003M42.8276 54.4703C42.856 53.5967 43.675 52.865 44.6928 52.865C45.7105 52.865 46.5492 53.5792 46.5623 54.4703H42.8276ZM28.5071 50.7225H28.1206C27.6019 50.7225 27.0884 50.8247 26.6093 51.0233C26.1302 51.2219 25.6949 51.513 25.3284 51.88C24.9619 52.2469 24.6713 52.6825 24.4732 53.1618C24.2751 53.6411 24.1735 54.1547 24.1741 54.6734V60.3059H27.0133V54.8131C27.0127 54.6176 27.0508 54.4239 27.1256 54.2431C27.2003 54.0624 27.31 53.8983 27.4485 53.7602C27.587 53.6221 27.7514 53.5128 27.9324 53.4386C28.1133 53.3645 28.3072 53.3269 28.5028 53.328H30.167V50.7225H28.5028H28.5071Z" fill="#ED1C24"/>
<path d="M69.8045 57.5039C69.622 57.7534 69.3832 57.9564 69.1075 58.0964C68.8318 58.2363 68.527 58.3093 68.2178 58.3093C67.9086 58.3093 67.6038 58.2363 67.3281 58.0964C67.0524 57.9564 66.8136 57.7534 66.6311 57.5039C66.2445 56.995 66.0305 56.1454 66.0305 55.3701C66.0061 54.6588 66.2172 53.9594 66.6311 53.3805C66.8085 53.1237 67.0456 52.9138 67.3219 52.7688C67.5983 52.6238 67.9057 52.5481 68.2178 52.5481C68.5299 52.5481 68.8373 52.6238 69.1137 52.7688C69.39 52.9138 69.6271 53.1237 69.8045 53.3805C70.2161 53.9606 70.4277 54.659 70.4073 55.3701C70.4073 56.1432 70.1889 56.995 69.8045 57.5039ZM68.2233 50.4714C67.6573 50.4771 67.0998 50.6086 66.5909 50.8564C66.0821 51.1042 65.6348 51.462 65.2814 51.9041C64.4789 52.88 64.0486 54.1089 64.0671 55.3723C64.0671 56.7045 64.5301 58.0935 65.2814 58.9759C65.6285 59.4227 66.0731 59.7842 66.5812 60.0329C67.0894 60.2816 67.6477 60.4109 68.2134 60.4109C68.7792 60.4109 69.3375 60.2816 69.8456 60.0329C70.3538 59.7842 70.7984 59.4227 71.1455 58.9759C71.9011 58.1023 72.3598 56.7045 72.3598 55.3723C72.3767 54.1092 71.9466 52.8807 71.1455 51.9041C70.7932 51.4651 70.3485 51.1091 69.8431 50.8615C69.3376 50.6139 68.7838 50.4807 68.2211 50.4714" fill="#F58220"/>
<path d="M77.182 50.4692C76.7144 50.4828 76.2564 50.6052 75.8443 50.8266C75.4323 51.048 75.0774 51.3623 74.808 51.7447V51.7337C74.8102 51.4322 74.7084 51.139 74.5197 50.9038C74.4355 50.7971 74.3289 50.7102 74.2073 50.6495C74.0858 50.5887 73.9523 50.5555 73.8164 50.5522C73.6802 50.5551 73.5464 50.5891 73.4253 50.6516C73.3042 50.714 73.1989 50.8033 73.1175 50.9126C72.9364 51.1488 72.8381 51.4382 72.838 51.7359V59.1899C72.8342 59.4846 72.9383 59.7704 73.1306 59.9936C73.2178 60.095 73.3252 60.1771 73.4459 60.2347C73.5666 60.2922 73.698 60.3239 73.8317 60.3278C73.9631 60.3237 74.0922 60.2918 74.2104 60.2342C74.3286 60.1766 74.4333 60.0946 74.5175 59.9936C74.7091 59.7703 74.8118 59.4842 74.8058 59.1899V54.918C74.7917 54.328 74.9645 53.7485 75.2994 53.2625C75.46 53.038 75.6726 52.8557 75.9191 52.7313C76.1656 52.6069 76.4385 52.5442 76.7146 52.5484C76.9743 52.5392 77.2322 52.5954 77.4646 52.7118C77.697 52.8282 77.8964 53.001 78.0446 53.2145C78.3731 53.7137 78.5366 54.3035 78.512 54.9005V59.1877C78.5013 59.4835 78.6063 59.7718 78.8047 59.9915C78.8907 60.0931 78.9973 60.1753 79.1173 60.2329C79.2374 60.2905 79.3683 60.3221 79.5014 60.3256C79.633 60.3224 79.7623 60.2909 79.8806 60.2332C79.999 60.1755 80.1035 60.0931 80.1872 59.9915C80.3759 59.7666 80.4774 59.4813 80.4733 59.1877V54.8307C80.4733 53.6054 80.1784 52.5091 79.5997 51.725C79.331 51.3299 78.968 51.0081 78.5436 50.7888C78.1191 50.5695 77.6465 50.4596 77.1689 50.4692" fill="#F58220"/>
<path d="M85.051 52.4501C85.3076 52.4543 85.5608 52.5102 85.7953 52.6146C86.0299 52.7189 86.241 52.8694 86.416 53.0572C86.7557 53.437 86.9773 53.9075 87.0537 54.4113H83.0461C83.1236 53.9029 83.3431 53.4267 83.6794 53.0376C83.8554 52.8512 84.0677 52.7029 84.3032 52.6019C84.5387 52.5008 84.7925 52.4491 85.0488 52.4501M88.5279 57.4733H88.5148C88.4465 57.3588 88.3509 57.263 88.2366 57.1944C88.1223 57.1258 87.9928 57.0865 87.8596 57.0802C87.7603 57.0785 87.6618 57.0987 87.5712 57.1395C87.4805 57.1803 87.4001 57.2405 87.3354 57.316C86.7414 57.9909 86.0076 58.408 85.1514 58.408C84.8691 58.4081 84.5897 58.3499 84.3308 58.2372C84.0719 58.1244 83.839 57.9596 83.6467 57.7528C83.2675 57.2832 83.0391 56.71 82.9915 56.1083H88.2767C88.4726 56.1065 88.66 56.0281 88.7987 55.8899C88.9513 55.7325 89.036 55.5215 89.0346 55.3024C89.0584 54.055 88.6606 52.8361 87.9055 51.8429C87.5655 51.4104 87.1322 51.0605 86.6379 50.8192C86.1435 50.5779 85.601 50.4515 85.051 50.4495C84.4883 50.4602 83.9351 50.5961 83.4315 50.8474C82.928 51.0986 82.4867 51.4588 82.1397 51.9019C81.3549 52.8856 80.9372 54.1119 80.9582 55.3701C80.9582 56.7111 81.419 58.0913 82.1659 58.9737C82.5223 59.4127 82.9706 59.7684 83.4792 60.0155C83.9879 60.2627 84.5445 60.3953 85.1099 60.4042C85.7429 60.3948 86.3662 60.2479 86.9368 59.9738C87.5073 59.6996 88.0115 59.3047 88.4143 58.8164V58.799C88.5873 58.5844 88.6848 58.3188 88.6917 58.0433C88.6858 57.8481 88.6334 57.6572 88.5388 57.4864" fill="#F58220"/>
<path d="M96.15 51.7621C96.1589 51.5602 96.1088 51.36 96.0061 51.186C95.9034 51.0119 95.7523 50.8714 95.5713 50.7815C95.4825 50.7334 95.3838 50.7065 95.283 50.7029C95.0975 50.7103 94.919 50.7755 94.7725 50.8895C94.6261 51.0035 94.5189 51.1605 94.4662 51.3384L92.4481 56.6958L90.3952 51.3275C90.34 51.1496 90.2301 50.9936 90.0811 50.8818C89.932 50.7701 89.7515 50.7082 89.5653 50.7051C89.4461 50.7075 89.3286 50.7342 89.2202 50.7837C89.0467 50.8847 88.904 51.0309 88.807 51.2067C88.7101 51.3824 88.6627 51.5812 88.6698 51.7818C88.6731 51.8485 88.6848 51.9146 88.7048 51.9783C88.7768 52.2426 88.9668 52.8017 89.2202 53.4875C89.9409 55.4771 91.1618 58.5806 91.4042 59.2467C90.8691 60.568 90.0021 61.6491 88.8205 62.2825C88.6657 62.3676 88.5338 62.489 88.4361 62.6363C88.3278 62.8064 88.2716 63.0046 88.2745 63.2063C88.2719 63.4593 88.3585 63.7052 88.5191 63.9008C88.5862 63.996 88.6742 64.0745 88.7765 64.1302C88.8787 64.1859 88.9925 64.2172 89.1088 64.2219C89.2221 64.2114 89.3321 64.178 89.432 64.1236C91.2426 63.3024 92.5115 61.5967 93.254 59.618L96.067 52.1924C96.1246 52.0542 96.1507 51.905 96.1435 51.7556" fill="#F58220"/>
<path d="M60.5595 50.4648C60.0126 50.4737 59.4782 50.6292 59.0118 50.915C58.5455 51.2008 58.1644 51.6065 57.9081 52.0897C57.7071 51.6546 57.4081 51.2719 57.0345 50.9715C56.5929 50.6342 56.0504 50.4557 55.4948 50.4648C54.6212 50.4648 54.001 50.9715 53.503 51.7097C53.5077 51.4183 53.4129 51.1341 53.2344 50.9038C53.1567 50.7954 53.055 50.7067 52.9371 50.6445C52.8192 50.5823 52.6884 50.5485 52.5552 50.5456C52.4115 50.5474 52.2699 50.5804 52.1402 50.6422C52.0105 50.7041 51.8957 50.7933 51.8039 50.9038C51.6293 51.1433 51.5374 51.433 51.5418 51.7293V59.1549C51.5391 59.4469 51.6293 59.7323 51.7995 59.9696C51.8863 60.0764 51.9953 60.1631 52.1191 60.2234C52.2428 60.2838 52.3782 60.3164 52.5158 60.319C52.654 60.3176 52.7902 60.2856 52.9144 60.2251C53.0387 60.1647 53.148 60.0774 53.2344 59.9696C53.418 59.7384 53.5146 59.4501 53.5074 59.1549V54.918C53.5074 54.2759 53.527 53.684 53.7979 53.2538C53.9309 53.037 54.118 52.8586 54.3409 52.736C54.5637 52.6135 54.8146 52.5511 55.0689 52.5549C55.3079 52.5453 55.545 52.6012 55.7544 52.7167C55.9638 52.8322 56.1376 53.0028 56.257 53.2101C56.5104 53.6097 56.589 54.2038 56.589 54.8852V59.1549C56.589 59.773 56.9887 60.319 57.5128 60.319C57.6519 60.3158 57.7888 60.283 57.9142 60.2227C58.0396 60.1625 58.1507 60.0762 58.2401 59.9696C58.4191 59.735 58.5192 59.4499 58.5262 59.1549V54.8219C58.4975 54.2625 58.6367 53.7072 58.9259 53.2276C59.0595 53.0184 59.2444 52.8469 59.4631 52.7295C59.6818 52.6121 59.927 52.5528 60.1751 52.5571C60.4141 52.5475 60.6512 52.6034 60.8606 52.7189C61.07 52.8344 61.2438 53.005 61.3632 53.2123C61.6122 53.6119 61.6209 54.206 61.6209 54.8874V59.1571C61.6159 59.4509 61.7098 59.7377 61.8874 59.9717C61.9699 60.0795 62.076 60.1671 62.1975 60.2276C62.319 60.2882 62.4527 60.3202 62.5885 60.3212C62.7275 60.3177 62.8642 60.2848 62.9896 60.2245C63.115 60.1643 63.2261 60.0781 63.3157 59.9717C63.4982 59.7401 63.594 59.4519 63.5865 59.1571V54.7673C63.5865 53.5224 63.3681 52.4631 62.8636 51.6966C62.6283 51.3005 62.2894 50.9761 61.8834 50.7583C61.4774 50.5405 61.0197 50.4375 60.5595 50.4604" fill="#F58220"/>
</g>
</g>
<rect x="1" y="1" width="110" height="110" rx="9" stroke="black" stroke-opacity="0.1" stroke-width="2"/>
<defs>
<clipPath id="clip0_725_399">
<rect x="2" y="2" width="108" height="108" rx="8" fill="white"/>
</clipPath>
<clipPath id="clip1_725_399">
<rect width="80" height="15.8537" fill="white" transform="translate(16.15 48.3682)"/>
</clipPath>
</defs>
</svg>
