<svg width="112" height="112" viewBox="0 0 112 112" fill="none" xmlns="http://www.w3.org/2000/svg">
<g clip-path="url(#clip0_725_306)">
<rect x="2" y="2" width="108" height="108" rx="8" fill="white"/>
<path fill-rule="evenodd" clip-rule="evenodd" d="M24.7887 29.4689C23.8486 30.6109 24.0631 32.1819 24 33.551C24.0757 43.873 23.9369 54.195 24.0694 64.5107C24.4732 74.3596 33.6343 82.6374 43.439 82.2904C53.1175 82.4229 62.0389 74.1955 62.4237 64.4729C62.613 54.7629 62.4427 45.0465 62.5121 35.3365C68.5501 35.3365 74.5944 35.3365 80.6387 35.3365C80.6513 49.0593 80.645 62.782 80.6387 76.5047C76.014 76.5552 71.3829 76.429 66.7645 76.5552C64.4175 76.4543 62.4868 78.9906 63.2502 81.2241C63.7108 82.997 65.5784 83.9876 67.3324 83.8424C73.0423 83.8172 78.7585 83.9055 84.4748 83.7983C86.6136 83.8109 88.1847 81.7099 87.9701 79.6594C87.9954 64.9208 87.9575 50.1823 87.9891 35.4501C87.9701 33.8412 88.0963 32.2134 87.7998 30.6235C87.3581 28.9074 85.5537 27.8789 83.8438 28.0114C75.6039 28.0051 67.3576 27.9925 59.1176 28.0114C57.105 27.8726 55.1175 29.5383 55.2185 31.6204C55.0797 42.3525 55.2563 53.0972 55.1365 63.8356C55.0292 68.2711 52.0197 72.3721 47.9438 74.0378C43.5084 75.9747 37.9436 74.8832 34.606 71.3626C32.4671 69.2049 31.2936 66.1827 31.3188 63.1542C31.3251 53.0594 31.2746 42.9582 31.363 32.8696C31.3693 31.5194 31.2936 30.0052 30.2147 29.0398C28.7446 27.513 26.0064 27.7527 24.7887 29.4689Z" fill="#3BB8EA"/>
</g>
<rect x="1" y="1" width="110" height="110" rx="9" stroke="black" stroke-opacity="0.1" stroke-width="2"/>
<defs>
<clipPath id="clip0_725_306">
<rect x="2" y="2" width="108" height="108" rx="8" fill="white"/>
</clipPath>
</defs>
</svg>
