<svg width="112" height="112" viewBox="0 0 112 112" fill="none" xmlns="http://www.w3.org/2000/svg">
<g clip-path="url(#clip0_725_514)">
<rect x="1.99988" y="2" width="108" height="108" rx="8" fill="white"/>
<path d="M36.1475 60.7496C34.0195 63.8086 31.0491 65.05 27.325 65.1387C24.8423 65.183 22.3596 65.316 19.8326 65.4047C17.7045 65.4933 16.3745 66.779 16.4632 68.6411C16.5518 70.4144 17.9262 71.5228 20.0542 71.4784C22.3596 71.4341 24.7093 71.3454 27.0147 71.2568C33.3545 71.0351 37.4332 64.518 37.3445 58.0452C37.1672 58.3999 36.6795 59.9959 36.1475 60.7496ZM22.1379 52.8138C22.0936 49.6661 22.1379 46.5183 22.1379 43.3706C22.1379 41.3756 20.8522 40.0456 19.0789 40.0456H18.9902M18.9902 40.0456C17.2168 40.0899 16.0198 41.3756 16.0198 43.3706C16.0198 45.144 16.0198 46.873 16.0198 48.6464C16.0198 50.4641 15.9755 52.2374 16.0198 54.0551C16.1972 59.9072 20.1872 64.0303 25.8177 64.2963C32.1574 64.6067 36.5465 61.1929 37.1672 55.0748C37.5219 51.3064 37.3445 47.4494 37.3889 43.6366C37.3889 41.3756 36.1918 40.0012 34.2855 40.0456C32.4234 40.0899 31.2708 41.4199 31.2708 43.6366C31.2708 46.9617 31.3151 50.2424 31.2264 53.5675C31.1821 55.8728 29.3644 57.8235 27.059 58.1339C25.197 58.3999 22.9803 56.8925 22.3596 54.8532C22.1823 54.2325 22.1379 53.5231 22.1379 52.8138M56.2752 40.1342C55.0338 40.4889 54.1471 41.5973 54.1471 43.016C54.1028 46.341 54.1471 49.6217 54.1028 52.9468C54.1028 55.7842 52.0634 58.0452 49.5807 58.0895C47.0537 58.1339 44.97 55.7842 44.97 52.9025C44.97 49.6217 44.97 46.3853 44.97 43.1046C44.97 41.2869 43.7286 40.0456 41.9996 40.0012C40.2706 39.9569 38.9406 41.1096 38.8962 42.9273C38.8519 47.006 38.7632 51.0848 39.0292 55.1635C39.3839 60.3949 43.4183 64.0303 48.6941 64.2963C54.5905 64.5623 58.8022 61.5919 59.9106 56.2275C60.1766 55.0305 60.2209 53.8335 60.2209 52.3261C60.1766 52.1044 60.2209 51.9271 60.1766 51.7498C60.1766 48.9567 60.2209 46.208 60.1323 43.415C60.1323 42.6613 59.9106 41.8633 59.5559 41.2426C59.0682 40.4002 58.1815 40.0012 57.2062 40.0012C56.8959 40.0012 56.5855 40.0456 56.2752 40.1342ZM73.1222 40.1786C72.4571 40.4446 71.8365 40.8879 71.3488 41.4199C67.9351 44.8337 64.5657 48.2474 61.1963 51.7054C61.1076 51.7941 60.6643 52.2818 60.5756 52.3704C61.5509 53.3015 62.482 54.1438 63.3243 54.9862C66.1174 57.7792 68.9104 60.5723 71.7034 63.3653C72.8118 64.4737 74.1418 64.651 75.3389 64.0303C76.4915 63.4096 77.2452 62.0796 76.8905 60.7939C76.6689 60.0402 76.1812 59.3309 75.6492 58.7546C73.5212 56.5379 71.3488 54.4542 69.1764 52.2374C69.5311 51.8384 69.7971 51.5281 70.1074 51.2621C72.1025 49.2671 74.1418 47.272 76.0925 45.2327C77.1566 44.1243 77.2452 42.6613 76.4472 41.4643C75.8709 40.6219 74.9398 40.0899 74.0088 40.0899C73.7428 40.0012 73.4325 40.0456 73.1222 40.1786ZM84.6933 40.9323C80.9693 44.612 77.3339 48.3804 73.4768 52.2374C75.6049 54.3655 77.7329 56.4935 79.8609 58.6216C83.452 62.2126 86.9987 65.8037 90.6341 69.3504C92.2745 70.9908 94.6242 70.6804 95.6439 68.7741C96.3089 67.4884 96.0429 66.1584 94.8459 64.917C90.9445 61.0156 87.0874 57.1142 83.186 53.2571C82.8313 52.9025 82.521 52.5478 82.0776 52.1044C83.319 50.9074 84.4717 49.7991 85.58 48.6464C86.7327 47.538 87.8411 46.4297 88.9494 45.277C90.2351 43.9026 90.2351 42.1293 88.9938 40.8879C88.4174 40.3116 87.6637 40.0012 86.8657 40.0012C86.112 40.0012 85.3584 40.3116 84.6933 40.9323Z" fill="url(#paint0_linear_725_514)"/>
</g>
<rect x="1" y="1" width="110" height="110" rx="9" stroke="black" stroke-opacity="0.1" stroke-width="2"/>
<defs>
<linearGradient id="paint0_linear_725_514" x1="16.0093" y1="55.7398" x2="96.009" y2="55.7398" gradientUnits="userSpaceOnUse">
<stop stop-color="#EC008C"/>
<stop offset="1" stop-color="#5C2D91"/>
</linearGradient>
<clipPath id="clip0_725_514">
<rect x="2" y="2" width="108" height="108" rx="8" fill="white"/>
</clipPath>
</defs>
</svg>
